<svg id="Layer_1" xmlns="http://www.w3.org/2000/svg" viewBox="265 195 265 225">
<style>.st0{fill:#e02d27;}</style>
<title>Teacher-Logo</title>
<g id="Login">
<g id="SSO-Login-Authorize">
<g id="Teacher-Logo">
<g>
		<path class="st0" d="M350.4,260.7c0-9.4-7.1-17.2-16.2-18.3c-1.5,5.9-2.3,12-2.3,18.3c0,6.3,0.8,12.5,2.3,18.3
			C343.3,277.9,350.4,270.1,350.4,260.7z"/>
		<path class="st0" d="M361.2,254.9c-3.2,0-5.8,2.6-5.8,5.8c0,3.2,2.6,5.8,5.8,5.8c3.2,0,5.8-2.6,5.8-5.8
			C367,257.5,364.4,254.9,361.2,254.9z"/>
		<path class="st0" d="M441.2,260.7c0,9.4,7.1,17.2,16.2,18.3c1.5-5.9,2.3-12,2.3-18.3c0-6.3-0.8-12.5-2.3-18.3
			C448.3,243.5,441.2,251.2,441.2,260.7z"/>
		<path class="st0" d="M430.4,254.9c-3.2,0-5.8,2.6-5.8,5.8c0,3.2,2.6,5.8,5.8,5.8c3.2,0,5.8-2.6,5.8-5.8
			C436.2,257.5,433.6,254.9,430.4,254.9z"/>
		<path class="st0" d="M395.7,306.2c-9.4,0-17.2,7.1-18.3,16.2c5.9,1.5,12,2.3,18.3,2.3c6.3,0,12.5-0.8,18.3-2.3
			C412.9,313.3,405.1,306.2,395.7,306.2z"/>
		<path class="st0" d="M395.7,289.7c-3.2,0-5.8,2.6-5.8,5.8c0,3.2,2.6,5.8,5.8,5.8c3.2,0,5.8-2.6,5.8-5.8
			C401.5,292.3,398.9,289.7,395.7,289.7z"/>
		<path class="st0" d="M395.7,215.4c9.4,0,17.2-7.1,18.3-16.2c-5.9-1.5-12-2.3-18.3-2.3c-6.3,0-12.5,0.8-18.3,2.3
			C378.5,208.3,386.2,215.4,395.7,215.4z"/>
		<path class="st0" d="M395.7,220.4c-3.2,0-5.8,2.6-5.8,5.8c0,3.2,2.6,5.8,5.8,5.8c3.2,0,5.8-2.6,5.8-5.8
			C401.5,223,398.9,220.4,395.7,220.4z"/>
		<path class="st0" d="M427.8,292.8c-6.7,6.7-7.2,17.2-1.5,24.4c10.7-6.3,19.6-15.2,25.9-25.9C445,285.7,434.5,286.1,427.8,292.8z"
			/>
		<path class="st0" d="M416.1,281.1c-2.3,2.3-2.3,5.9,0,8.2c2.3,2.3,5.9,2.3,8.2,0c2.3-2.3,2.3-5.9,0-8.2
			C422.1,278.9,418.4,278.9,416.1,281.1z"/>
		<path class="st0" d="M363.6,228.6c6.7-6.7,7.2-17.2,1.5-24.4c-10.7,6.3-19.6,15.2-25.9,25.9C346.5,235.8,357,235.3,363.6,228.6z"
			/>
		<path class="st0" d="M367.1,232.1c-2.3,2.3-2.3,5.9,0,8.2c2.3,2.3,5.9,2.3,8.2,0c2.3-2.3,2.3-5.9,0-8.2
			C373.1,229.9,369.4,229.9,367.1,232.1z"/>
		<path class="st0" d="M427.8,228.6c6.7,6.7,17.2,7.2,24.4,1.5c-6.3-10.7-15.2-19.6-25.9-25.9C420.6,211.4,421.1,221.9,427.8,228.6z
			"/>
		<path class="st0" d="M424.3,240.3c2.3-2.3,2.3-5.9,0-8.2c-2.3-2.3-5.9-2.3-8.2,0c-2.3,2.3-2.3,5.9,0,8.2
			C418.4,242.5,422,242.5,424.3,240.3z"/>
		<path class="st0" d="M363.6,292.7c-6.7-6.7-17.2-7.2-24.4-1.5c6.3,10.7,15.2,19.6,25.9,25.9C370.8,309.9,370.3,299.4,363.6,292.7z
			"/>
		<path class="st0" d="M367.1,281c-2.3,2.3-2.3,5.9,0,8.2c2.3,2.3,5.9,2.3,8.2,0c2.3-2.3,2.3-5.9,0-8.2
			C373,278.8,369.4,278.8,367.1,281z"/>
	</g>
	<g>
		<path class="st0" d="M300.3,403.6c0,9.2-6,12.6-15,12.6h-0.2c-9,0-15-3.3-15-12.6v-35.7c0-8.8,6-12.6,15-12.6h0.2
			c9,0,15,3.7,15,12.6v7h-9.9v-5.5c0-4.2-2-5.4-5.2-5.4c-3.1,0-5.2,1.3-5.2,5.4v32.6c0,4.2,2,5.4,5.2,5.4c3.1,0,5.2-1.3,5.2-5.4v-7
			h9.9V403.6z"/>
		<path class="st0" d="M335.2,402.3h-10.9l-2.1,13.3h-9.5l11.1-59.5h12.4l11.2,59.5h-10L335.2,402.3z M333.9,394.1l-4.2-26.4
			l-4.2,26.4H333.9z"/>
		<path class="st0" d="M360.8,415.5V356h9.9l12.5,36.8V356h9v59.5h-9.4l-13-38.7v38.7H360.8z"/>
		<path class="st0" d="M427.7,415.5h-10.9L405.6,356h10l6.9,44.1l6.9-44.1h9.5L427.7,415.5z"/>
		<path class="st0" d="M468.4,402.3h-10.9l-2.1,13.3h-9.5l11.1-59.5h12.4l11.2,59.5h-10L468.4,402.3z M467.1,394.1l-4.2-26.4
			l-4.2,26.4H467.1z"/>
		<path class="st0" d="M511.6,373.4V369c0-3.7-2.1-5.1-5-5.1c-2.9,0-5,1.4-5,5.1v4.1c0,3.1,1,4.4,3.8,6l7,3.9
			c5.7,3.2,9.1,5.9,9.1,12.2v8.6c0,9.2-5.7,12.4-14.7,12.4h-0.2c-9,0-14.7-3.1-14.7-12.4v-6.3h9.7v4.9c0,3.7,2.1,5.3,5.1,5.3
			s5.1-1.6,5.1-5.3v-4.7c0-3.1-0.9-4.6-3.9-6.2l-6.9-3.9c-5.8-3.3-9.1-6-9.1-12.2v-7.8c0-8.8,6.5-12.2,14.6-12.2h0.2
			c8.2,0,14.6,3.4,14.6,12.2v5.9H511.6z"/>
	</g>
</g>
</g>
</g>
</svg>