<?xml version="1.0" encoding="UTF-8" standalone="no"?>
<svg width="114px" height="70px" viewBox="0 0 114 70" version="1.1" xmlns="http://www.w3.org/2000/svg" xmlns:xlink="http://www.w3.org/1999/xlink">
    <!-- Generator: Sketch 3.7 (28169) - http://www.bohemiancoding.com/sketch -->
    <title>Imported Layers</title>
    <desc>Created with Sketch.</desc>
    <defs></defs>
    <g id="Page-1" stroke="none" stroke-width="1" fill="none" fill-rule="evenodd">
        <g id="Login1-Copy" transform="translate(-123.000000, -41.000000)" fill="#FFFFFF">
            <g id="Imported-Layers" transform="translate(123.000000, 41.000000)">
                <path d="M45.2203585,16.6468077 C45.2203585,14.1938462 43.3823774,12.1740769 41.0109623,11.8827692 C40.6168019,13.4055385 40.4078915,15.0018077 40.4078915,16.6468077 C40.4078915,18.2915385 40.6168019,19.8894231 41.0109623,21.4108462 C43.3834528,21.1208846 45.2203585,19.1011154 45.2203585,16.6468077" id="Fill-1"></path>
                <path d="M48.0093255,15.1401923 C48.8403962,15.1401923 49.5139104,15.8146154 49.5139104,16.6468077 C49.5139104,17.479 48.8403962,18.1534231 48.0093255,18.1534231 C47.1782547,18.1534231 46.5047406,17.479 46.5047406,16.6468077 C46.5047406,15.8146154 47.1782547,15.1401923 48.0093255,15.1401923" id="Fill-2"></path>
                <path d="M68.778566,16.6468077 C68.778566,19.1011154 70.6176226,21.1208846 72.9890377,21.4108462 C73.3821226,19.8894231 73.5921085,18.2915385 73.5921085,16.6468077 C73.5921085,15.0018077 73.3821226,13.4041923 72.9890377,11.8827692 C70.6165472,12.1754231 68.778566,14.1949231 68.778566,16.6468077" id="Fill-3"></path>
                <path d="M65.9906745,15.1401923 C66.8214764,15.1401923 67.4952594,15.8146154 67.4952594,16.6468077 C67.4952594,17.479 66.8214764,18.1534231 65.9906745,18.1534231 C65.1596038,18.1534231 64.4860896,17.479 64.4860896,16.6468077 C64.4860896,15.8146154 65.1596038,15.1401923 65.9906745,15.1401923" id="Fill-4"></path>
                <path d="M56.9677358,28.4862308 C54.5191557,28.4862308 52.5021085,30.3277692 52.2098491,32.7010385 C53.7319104,33.0946538 55.3249528,33.3035769 56.9701557,33.3035769 C58.6140142,33.3035769 60.2081321,33.0946538 61.7277736,32.7010385 C61.4368585,30.3277692 59.4211557,28.4862308 56.9677358,28.4862308" id="Fill-5"></path>
                <path d="M56.9701557,24.1839231 C57.8017642,24.1839231 58.4760849,24.8591538 58.4760849,25.6918846 C58.4760849,26.5246154 57.8017642,27.1998462 56.9701557,27.1998462 C56.1385472,27.1998462 55.4642264,26.5246154 55.4642264,25.6918846 C55.4642264,24.8591538 56.1385472,24.1839231 56.9701557,24.1839231" id="Fill-6"></path>
                <path d="M56.9701557,4.88357692 C59.4211557,4.88357692 61.4368585,3.04311538 61.7277736,0.666076923 C60.2070566,0.274884615 58.6140142,0.0632692308 56.9701557,0.0632692308 C55.3249528,0.0632692308 53.7319104,0.274884615 52.2098491,0.666076923 C52.5021085,3.04311538 54.5191557,4.88357692 56.9701557,4.88357692" id="Fill-7"></path>
                <path d="M56.9701557,6.17103846 C57.8004198,6.17103846 58.4736651,6.84492308 58.4736651,7.67630769 C58.4736651,8.50796154 57.8004198,9.18184615 56.9701557,9.18184615 C56.1398915,9.18184615 55.4666462,8.50796154 55.4666462,7.67630769 C55.4666462,6.84492308 56.1398915,6.17103846 56.9701557,6.17103846" id="Fill-8"></path>
                <path d="M65.3128585,25.0007692 C63.5818868,26.7354231 63.4549811,29.4621923 64.9224623,31.3476154 C67.6952972,29.7125769 70.0158962,27.3866923 71.6498066,24.6098462 C69.7671934,23.1403846 67.0438302,23.2698846 65.3128585,25.0007692" id="Fill-9"></path>
                <path d="M63.3407123,21.5193462 C64.1715142,21.5193462 64.8452972,22.1937692 64.8452972,23.0259615 C64.8452972,23.8581538 64.1715142,24.5325769 63.3407123,24.5325769 C62.5096415,24.5325769 61.8361274,23.8581538 61.8361274,23.0259615 C61.8361274,22.1937692 62.5096415,21.5193462 63.3407123,21.5193462" id="Fill-10"></path>
                <path d="M48.6521887,8.31896154 C50.3820849,6.58565385 50.510066,3.85726923 49.0425849,1.97346154 C46.26975,3.61092308 43.9494198,5.93438462 42.3141651,8.71123077 C44.1967783,10.1804231 46.921217,10.0509231 48.6521887,8.31896154" id="Fill-11"></path>
                <path d="M50.6246038,8.7885 C51.4554057,8.7885 52.1291887,9.46292308 52.1291887,10.2951154 C52.1291887,11.1273077 51.4554057,11.8017308 50.6246038,11.8017308 C49.793533,11.8017308 49.11975,11.1273077 49.11975,10.2951154 C49.11975,9.46292308 49.793533,8.7885 50.6246038,8.7885" id="Fill-12"></path>
                <path d="M65.3029104,8.30280769 C67.0338821,10.0374615 69.7572453,10.1631923 71.6398585,8.69507692 C70.0059481,5.91688462 67.6856179,3.59476923 64.9125142,1.95865385 C63.445033,3.84246154 63.5719387,6.5695 65.3029104,8.30280769" id="Fill-13"></path>
                <path d="M63.3307642,8.771 C64.1618349,8.771 64.8353491,9.44542308 64.8353491,10.2776154 C64.8353491,11.1098077 64.1618349,11.7842308 63.3307642,11.7842308 C62.4996934,11.7842308 61.8261792,11.1098077 61.8261792,10.2776154 C61.8261792,9.44542308 62.4996934,8.771 63.3307642,8.771" id="Fill-14"></path>
                <path d="M48.6435849,24.9832692 C46.9126132,23.2499615 44.18925,23.1231538 42.3066368,24.591 C43.9405472,27.3691923 46.2608774,29.694 49.0353255,31.3301154 C50.5025377,29.4449615 50.3756321,26.7179231 48.6435849,24.9832692" id="Fill-15"></path>
                <path d="M50.6157311,21.5031923 C51.4468019,21.5031923 52.1205849,22.1776154 52.1205849,23.0098077 C52.1205849,23.842 51.4468019,24.5164231 50.6157311,24.5164231 C49.7846604,24.5164231 49.1111462,23.842 49.1111462,23.0098077 C49.1111462,22.1776154 49.7846604,21.5031923 50.6157311,21.5031923" id="Fill-16"></path>
                <path d="M8.60242925,69.9388846 C4.28467925,69.9388846 0.0414056604,67.2829231 0.0414056604,60.0764231 C0.0414056604,52.8696538 4.28306604,50.2535385 8.60242925,50.2535385 C11.2548113,50.2535385 13.1121509,51.0111538 14.929967,52.9445 L12.2778538,55.5256154 C11.066066,54.1991154 10.1188443,53.7050769 8.60242925,53.7050769 C7.1258066,53.7050769 5.87718396,54.3119231 5.04127358,55.4125385 C4.20993396,56.4751923 3.90557547,57.8399231 3.90557547,60.0777692 C3.90557547,62.3158846 4.20993396,63.7199231 5.04127358,64.7825769 C5.87557075,65.8818462 7.1258066,66.4886923 8.60242925,66.4886923 C10.1188443,66.4886923 11.066066,65.9962692 12.2778538,64.6681538 L14.929967,67.2096923 C13.1121509,69.1430385 11.2548113,69.9388846 8.60242925,69.9388846" id="Fill-17"></path>
                <path d="M29.817184,69.713 L29.817184,67.9675769 C28.4163821,69.37 27.0903255,69.9402308 24.7030472,69.9402308 C22.3173821,69.9402308 20.7262217,69.37 19.551,68.1977692 C18.5658679,67.1730769 18.0359292,65.6928462 18.0359292,64.0615769 C18.0359292,60.8386154 20.2710283,58.5226923 24.6648679,58.5226923 L29.7410943,58.5226923 L29.7410943,57.1568846 C29.7410943,54.7295 28.5290377,53.5526923 25.5373443,53.5526923 C23.4165142,53.5526923 22.3934717,54.0467308 21.33225,55.4125385 L18.7941368,53.0223077 C20.6119528,50.8983462 22.5061274,50.2535385 25.6895236,50.2535385 C30.9558396,50.2535385 33.6052642,52.4903077 33.6052642,56.8534615 L33.6052642,69.713 L29.817184,69.713 L29.817184,69.713 Z M29.7410943,61.2136538 L25.2343302,61.2136538 C22.9613208,61.2136538 21.7874434,62.2380769 21.7874434,63.9837692 C21.7874434,65.7294615 22.8852311,66.7156538 25.3090755,66.7156538 C26.7873113,66.7156538 27.8864434,66.6015 28.9081415,65.6150385 C29.4776038,65.0448077 29.7410943,64.1361538 29.7410943,62.7700769 L29.7410943,61.2136538 L29.7410943,61.2136538 Z" id="Fill-18"></path>
                <path d="M51.6393113,69.713 L51.6393113,57.9906923 C51.6393113,54.9936154 49.9341509,53.7037308 47.7751415,53.7037308 C45.6147877,53.7037308 43.798316,55.0302308 43.798316,57.9906923 L43.798316,69.713 L39.9328019,69.713 L39.9328019,50.4791538 L43.7206132,50.4791538 L43.7206132,52.4138462 C45.0469387,50.9718462 46.9026651,50.2519231 48.83475,50.2519231 C50.8050142,50.2519231 52.4340849,50.8953846 53.569783,51.9946538 C55.0480189,53.4369231 55.5005236,55.2571923 55.5005236,57.4191154 L55.5005236,69.7116538 L51.6393113,69.7116538 L51.6393113,69.713" id="Fill-19"></path>
                <polyline id="Fill-20" points="69.2560755 69.713 66.1122028 69.713 59.0646368 50.4791538 63.1584198 50.4791538 67.7030943 64.022 72.2112028 50.4791538 76.3022972 50.4791538 69.2560755 69.713"></polyline>
                <path d="M90.2511651,69.713 L90.2511651,67.9675769 C88.8490189,69.37 87.5243066,69.9402308 85.135684,69.9402308 C82.74975,69.9402308 81.1572453,69.37 79.9833679,68.1977692 C78.9985047,67.1730769 78.4669528,65.6928462 78.4669528,64.0615769 C78.4669528,60.8386154 80.7020519,58.5226923 85.0991179,58.5226923 L90.1750755,58.5226923 L90.1750755,57.1568846 C90.1750755,54.7295 88.9616745,53.5526923 85.9683679,53.5526923 C83.8475377,53.5526923 82.8228821,54.0467308 81.7632736,55.4125385 L79.2267736,53.0223077 C81.0445896,50.8983462 82.9387642,50.2535385 86.120816,50.2535385 C91.3868632,50.2535385 94.0392453,52.4903077 94.0392453,56.8534615 L94.0392453,69.713 L90.2511651,69.713 L90.2511651,69.713 Z M90.1750755,61.2136538 L85.666967,61.2136538 C83.3939575,61.2136538 82.218467,62.2380769 82.218467,63.9837692 C82.218467,65.7294615 83.3175991,66.7156538 85.7417123,66.7156538 C87.2212925,66.7156538 88.3190802,66.6015 89.3423915,65.6150385 C89.9102406,65.0448077 90.1750755,64.1361538 90.1750755,62.7700769 L90.1750755,61.2136538 L90.1750755,61.2136538 Z" id="Fill-21"></path>
                <path d="M105.968377,69.9388846 C102.824236,69.9388846 100.173467,69.4082308 97.8975,67.1701154 L100.435613,64.6285769 C101.989939,66.2232308 104.072858,66.6381154 105.966764,66.6381154 C108.314519,66.6381154 110.170514,65.8056538 110.170514,63.9824231 C110.170514,62.6925385 109.453175,61.8600769 107.595835,61.7060769 L104.525094,61.4408846 C100.925759,61.1361154 98.8431085,59.5061923 98.8431085,56.1295 C98.8431085,52.3742692 102.063071,50.2505769 106.07942,50.2505769 C108.958458,50.2505769 111.419137,50.8574231 113.200387,52.4125 L110.776542,54.8775769 C109.564486,53.8547692 107.859325,53.4751538 106.039896,53.4751538 C103.730321,53.4751538 102.556443,54.4995769 102.556443,55.9402308 C102.556443,57.0790769 103.162472,57.9513846 105.207212,58.1417308 L108.238429,58.4069231 C111.837764,58.7103462 113.958594,60.4178077 113.958594,63.833 C113.961283,67.8518077 110.550962,69.9388846 105.968377,69.9388846" id="Fill-22"></path>
            </g>
        </g>
    </g>
</svg>