<svg id="Layer_1" xmlns="http://www.w3.org/2000/svg" viewBox="0 0 156 108"><style>.st0{fill:#C7CDD1;}</style><title>Teacher-Logo</title><g id="Login"><g id="SSO-Login-Authorize"><g id="Teacher-Logo"><path id="Shape" class="st0" d="M11.6 107.4C5.6 107.4 0 103.8 0 94s5.8-13.4 11.6-13.4c3.6 0 6.2 1 8.6 3.6l-3.6 3.6c-1.6-1.8-3-2.4-5-2.4s-3.8.8-4.8 2.4c-1.2 1.4-1.6 3.4-1.6 6.4s.4 5 1.6 6.4c1.2 1.6 2.8 2.4 4.8 2.4s3.4-.6 5-2.4l3.6 3.4c-2.4 2.4-4.8 3.4-8.6 3.4z"/><path id="Shape_1_" class="st0" d="M40.6 107.2v-2.4c-2 2-3.8 2.6-7 2.6s-5.4-.8-7-2.4c-1.4-1.4-2-3.4-2-5.6 0-4.4 3-7.6 9-7.6h7V90c0-3.4-1.6-5-5.8-5-2.8 0-4.2.6-5.8 2.6l-3.4-3.2c2.4-2.8 5-3.8 9.4-3.8 7.2 0 10.8 3 10.8 9v17.6h-5.2zm0-11.6h-6.2c-3.2 0-4.8 1.4-4.8 3.8s1.6 3.8 4.8 3.8c2 0 3.6-.2 5-1.6.8-.8 1.2-2 1.2-3.8v-2.2z"/><path id="Shape_2_" class="st0" d="M70.4 107.2v-16c0-4-2.4-5.8-5.2-5.8-3 0-5.4 1.8-5.4 5.8v16h-5.2V81h5.2v2.6c1.8-2 4.4-3 7-3 2.6 0 5 .8 6.4 2.4 2 2 2.6 4.4 2.6 7.4v16.8h-5.4z"/><path id="Shape_3_" class="st0" d="M94.6 107.2h-4.2L80.6 81h5.6l6.2 18.4L98.6 81h5.6z"/><path id="Shape_4_" class="st0" d="M123.2 107.2v-2.4c-2 2-3.8 2.6-7 2.6s-5.4-.8-7-2.4c-1.4-1.4-2-3.4-2-5.6 0-4.4 3-7.6 9-7.6h7V90c0-3.4-1.6-5-5.8-5-2.8 0-4.2.6-5.8 2.6l-3.4-3.2c2.4-2.8 5-3.8 9.4-3.8 7.2 0 10.8 3 10.8 9v17.6h-5.2zm0-11.6H117c-3.2 0-4.8 1.4-4.8 3.8s1.6 3.8 4.8 3.8c2 0 3.6-.2 5-1.6.8-.8 1.2-2 1.2-3.8v-2.2z"/><path id="Shape_5_" class="st0" d="M144.8 107.4c-4.2 0-8-.8-11-3.8l3.4-3.4c2.2 2.2 5 2.8 7.6 2.8 3.2 0 5.8-1.2 5.8-3.6 0-1.8-1-2.8-3.6-3.2l-4.2-.4c-5-.4-7.8-2.6-7.8-7.2 0-5.2 4.4-8 9.8-8 4 0 7.2.8 9.8 3l-3.4 3.4c-1.6-1.4-4-2-6.4-2-3.2 0-4.8 1.4-4.8 3.4 0 1.6.8 2.8 3.6 3l4.2.4c5 .4 7.8 2.8 7.8 7.4 0 5.4-4.6 8.2-10.8 8.2z"/><path id="Canvas-Logo" class="st0" d="M69.1 1.3C69.7 5.6 73.5 9 78 9s8.3-3.4 8.9-7.7C84.1.4 81.1 0 78 0s-6.1.4-8.9 1.3zM93.4 4c5.3 2.9 9.7 7.3 12.6 12.6-3.5 2.7-8.6 2.4-11.8-.8S90.8 7.5 93.4 4zm15.3 19.1c-4.4.6-7.7 4.4-7.7 8.9s3.4 8.3 7.7 8.9c.8-2.8 1.3-5.8 1.3-8.9s-.4-6.1-1.3-8.9zM106 47.4c-2.9 5.3-7.3 9.7-12.6 12.6-2.7-3.5-2.4-8.6.8-11.8 3.3-3.1 8.3-3.4 11.8-.8zM86.9 62.7c-.6-4.3-4.4-7.7-8.9-7.7s-8.3 3.4-8.9 7.7c2.8.8 5.8 1.3 8.9 1.3s6.1-.4 8.9-1.3zM62.6 60c-5.3-2.9-9.7-7.3-12.6-12.6 3.5-2.7 8.6-2.4 11.8.8 3.1 3.3 3.4 8.3.8 11.8zM47.3 40.9c4.4-.6 7.7-4.4 7.7-8.9s-3.4-8.3-7.7-8.9c-.9 2.8-1.3 5.8-1.3 8.9s.4 6.1 1.3 8.9zM50 16.6c2.9-5.3 7.3-9.7 12.6-12.6 2.7 3.5 2.4 8.6-.8 11.8-3.3 3.1-8.3 3.4-11.8.8zM78 18c-1.7 0-3-1.3-3-3s1.3-3 3-3 3 1.3 3 3-1.3 3-3 3zm9.9 4.1c-1.2-1.2-1.2-3.1 0-4.2 1.2-1.2 3.1-1.2 4.2 0s1.2 3.1 0 4.2c-1.1 1.2-3 1.2-4.2 0zM92 32c0-1.7 1.3-3 3-3s3 1.3 3 3-1.3 3-3 3-3-1.3-3-3zm-4.1 9.9c1.2-1.2 3.1-1.2 4.2 0s1.2 3.1 0 4.2-3.1 1.2-4.2 0c-1.2-1.1-1.2-3 0-4.2zM78 46c1.7 0 3 1.3 3 3s-1.3 3-3 3-3-1.3-3-3 1.3-3 3-3zm-9.9-4.1c1.2 1.2 1.2 3.1 0 4.2-1.2 1.2-3.1 1.2-4.2 0-1.2-1.2-1.2-3.1 0-4.2 1.1-1.2 3-1.2 4.2 0zM64 32c0 1.7-1.3 3-3 3s-3-1.3-3-3 1.3-3 3-3 3 1.3 3 3zm4.1-9.9c-1.2 1.2-3.1 1.2-4.2 0-1.2-1.2-1.2-3.1 0-4.2 1.2-1.2 3.1-1.2 4.2 0 1.2 1.1 1.2 3 0 4.2z"/></g></g></g></svg>