<svg width="125" height="124" viewBox="0 0 125 124" fill="none" xmlns="http://www.w3.org/2000/svg">
<path d="M118.685 49.6079H92.8091L85.5847 55.4312V84.3055C85.5939 89.4476 87.6494 94.376 91.2999 98.0088C94.9503 101.642 99.8976 103.682 105.056 103.682C110.213 103.682 115.161 101.642 118.811 98.0088C122.462 94.376 124.517 89.4476 124.526 84.3055V55.4312C124.526 54.6665 124.375 53.9092 124.082 53.2027C123.788 52.4962 123.358 51.8542 122.815 51.3135C122.273 50.7728 121.629 50.3438 120.92 50.0512C120.212 49.7585 119.452 49.6079 118.685 49.6079Z" fill="#5059C9"/>
<path d="M112.253 43.4C119.122 43.4 124.691 37.8483 124.691 31C124.691 24.1516 119.122 18.6 112.253 18.6C105.383 18.6 99.8145 24.1516 99.8145 31C99.8145 37.8483 105.383 43.4 112.253 43.4Z" fill="#5059C9"/>
<path d="M49.3912 49.6281H94.1933C95.6744 49.6281 97.0949 50.2146 98.1423 51.2588C99.1896 52.3029 99.778 53.719 99.778 55.1957V90.4873C99.778 97.7385 96.8886 104.693 91.7454 109.82C86.6023 114.948 79.6267 117.828 72.3531 117.828H71.2313C63.9577 117.828 56.9821 114.948 51.839 109.82C46.6958 104.693 43.8064 97.7385 43.8064 90.4873V55.1957C43.8064 53.719 44.3948 52.3029 45.4421 51.2588C46.4895 50.2146 47.91 49.6281 49.3911 49.6281H49.3912Z" fill="#7B83EB"/>
<path d="M74.9376 42.8211C84.921 42.8211 93.0141 34.7528 93.0141 24.8C93.0141 14.8473 84.921 6.77893 74.9376 6.77893C64.9542 6.77893 56.8611 14.8473 56.8611 24.8C56.8611 34.7528 64.9542 42.8211 74.9376 42.8211Z" fill="#7B83EB"/>
<path opacity="0.5" d="M81.1572 37.1999V41.4234C78.9496 42.276 76.594 42.6823 74.2274 42.6187C71.8608 42.5551 69.5306 42.0227 67.3723 41.0527C65.2141 40.0826 63.2709 38.6943 61.656 36.9684C60.0412 35.2425 58.7868 33.2137 57.9659 30.9999H74.6326C76.3208 30.9654 77.9542 31.5979 79.1765 32.7594C80.3988 33.9209 81.1108 35.5171 81.1572 37.1999ZM49.3908 49.6279C47.9097 49.628 46.4893 50.2146 45.442 51.2587C44.3947 52.3028 43.8064 53.7189 43.8064 55.1955V90.4871C43.8088 95.7873 45.3662 100.971 48.2866 105.4H73.3511C75.2969 105.318 77.1503 104.55 78.5802 103.231C80.0102 101.913 80.9235 100.131 81.1572 98.2035V49.6279H49.3908Z" fill="black"/>
<path opacity="0.1" d="M81.1572 37.1999V41.4234C78.9496 42.276 76.594 42.6823 74.2274 42.6187C71.8608 42.5551 69.5306 42.0227 67.3723 41.0527C65.2141 40.0826 63.2709 38.6943 61.656 36.9684C60.0412 35.2425 58.7868 33.2137 57.9659 30.9999H74.6326C76.3208 30.9654 77.9542 31.5979 79.1765 32.7594C80.3988 33.9209 81.1108 35.5171 81.1572 37.1999ZM49.3908 49.6279C47.9097 49.628 46.4893 50.2146 45.442 51.2587C44.3947 52.3028 43.8064 53.7189 43.8064 55.1955V90.4871C43.8088 95.7873 45.3662 100.971 48.2866 105.4H73.3511C75.2969 105.318 77.1503 104.55 78.5802 103.231C80.0102 101.913 80.9235 100.131 81.1572 98.2035V49.6279H49.3908Z" fill="black"/>
<path d="M68.719 24.8H6.52838C3.09369 24.8 0.309326 27.5759 0.309326 31V93C0.309326 96.4242 3.09369 99.2 6.52838 99.2H68.719C72.1537 99.2 74.938 96.4242 74.938 93V31C74.938 27.5759 72.1537 24.8 68.719 24.8Z" fill="#4B53BC"/>
<path d="M52.4404 48.3901H38.9771V84.475H30.1288V48.3901H16.5874V39.525H52.4403L52.4404 48.3901Z" fill="white"/>
</svg>
