<svg width="198" height="220" viewBox="0 0 198 220" fill="none" xmlns="http://www.w3.org/2000/svg">
  <path fill-rule="evenodd" clip-rule="evenodd" d="M1 1H197V117H1V1Z" fill="#FFD960" stroke="#152633" stroke-width="2"/>
  <path fill-rule="evenodd" clip-rule="evenodd" d="M9.56388 7H188.436C189.328 7 189.651 7.09283 189.977 7.26713C190.303 7.44144 190.559 7.69723 190.733 8.02315C190.907 8.34908 191 8.67237 191 9.56388V108.436C191 109.328 190.907 109.651 190.733 109.977C190.559 110.303 190.303 110.559 189.977 110.733C189.651 110.907 189.328 111 188.436 111H9.56388C8.67237 111 8.34908 110.907 8.02315 110.733C7.69723 110.559 7.44144 110.303 7.26713 109.977C7.09283 109.651 7 109.328 7 108.436V9.56388C7 8.67237 7.09283 8.34908 7.26713 8.02315C7.44144 7.69723 7.69723 7.44144 8.02315 7.26713C8.34908 7.09283 8.67237 7 9.56388 7Z" fill="white" stroke="#152633" stroke-width="2"/>
  <path d="M152.5 103H136L137 105L136 110H160V103H155L154 104L152.5 103Z" fill="#EDEDED"/>
  <path d="M160 116V112H136V116H160Z" fill="#EEBE24"/>
  <path fill-rule="evenodd" clip-rule="evenodd" d="M134 101H150.5L152 102L153 101H158V115L156 118L158 121L157 122L158 123V125H150L142.5 122L140.5 123L138 124L135 121.5V119L134 117V104.5L135 103L134 101Z" fill="white" stroke="#152633" stroke-width="2"/>
  <path fill-rule="evenodd" clip-rule="evenodd" d="M138.286 103.165L140.933 98.75L138.286 103.165Z" stroke="#152633" stroke-width="2" stroke-linecap="round"/>
  <path fill-rule="evenodd" clip-rule="evenodd" d="M138.768 100C139.458 101.196 140.987 101.605 142.183 100.915C143.379 100.225 143.788 98.6957 143.098 97.5C142.408 96.3043 140.879 95.8946 139.683 96.5849C138.487 97.2753 138.078 98.8043 138.768 100Z" fill="white" stroke="#152633" stroke-width="2"/>
  <path d="M138 114H143H148" stroke="#152633" stroke-width="2"/>
  <path d="M138 110H144H150" stroke="#152633" stroke-width="2"/>
  <path d="M138 106H141.5H145" stroke="#152633" stroke-width="2"/>
  <path d="M138 118H145H152" stroke="#152633" stroke-width="2"/>
  <path d="M143 122H146H149" stroke="#152633" stroke-width="2"/>
  <path fill-rule="evenodd" clip-rule="evenodd" d="M37.7397 29L44.724 34.4543L47.2159 40.015L46.7587 41.7588L48.3554 43.3243L47.1155 45.8665L49.6577 47.1064L52.2622 54.6705L51.0223 57.2127L52.7818 59.2509L52.4874 61.4675L54.4096 63.9785L55.6807 64.5985L57.7969 70.7443L56.557 73.2865L26.7731 83.5419L23.3084 83.3598L22.9339 81.4192L21.216 81.2249L18.8366 80.4577L14.9298 69.1115L16.0069 66.0966L13.4648 64.8567L13.7592 62.6401L11.6741 59.6563L5 40.2732L37.7397 29Z" fill="#EDEDED"/>
  <path fill-rule="evenodd" clip-rule="evenodd" d="M35.0158 27.5457L42 33L44.4919 38.5607L44.0347 40.3045L45.6314 41.87L44.3915 44.4122L46.9337 45.6521L49.5382 53.2162L48.2983 55.7584L50.0578 57.7966L49.7634 60.0132L51.6856 62.5242L52.9567 63.1442L55.0729 69.29L53.833 71.8322L24.0491 82.0876L20.5844 81.9055L20.2099 79.9649L18.492 79.7706L16.1126 79.0035L12.2058 67.6572L13.2829 64.6423L10.7408 63.4024L11.0352 61.1858L8.95015 58.202L2.276 38.8189L35.0158 27.5457Z" fill="white" stroke="#152633" stroke-width="2"/>
  <path d="M35 27.5L36.5 34.5L42.5 33" stroke="#152633" stroke-width="2"/>
  <path d="M11 49.5L18.5 47" stroke="#152633" stroke-width="2"/>
  <path d="M13 56L20.5 53.5L25 52.5L28.5 50.5L34 49" stroke="#152633" stroke-width="2"/>
  <path d="M15 60L21.5 58.5L30.5 54.5L38.5 53" stroke="#152633" stroke-width="2"/>
  <path d="M17 65L24.5 62.5L32 60L43.5 56.5" stroke="#152633" stroke-width="2"/>
  <path d="M19 70L25 69L34.5 64.5L40 63" stroke="#152633" stroke-width="2"/>
  <path d="M22 76L29.5 73.5" stroke="#152633" stroke-width="2"/>
  <path d="M29 36L26.5 31.5" stroke="#152633" stroke-width="2" stroke-linecap="round"/>
  <path d="M26.5 34C27.8807 34 29 32.8807 29 31.5C29 30.1193 27.8807 29 26.5 29C25.1193 29 24 30.1193 24 31.5C24 32.8807 25.1193 34 26.5 34Z" fill="white" stroke="#152633" stroke-width="2"/>
  <path fill-rule="evenodd" clip-rule="evenodd" d="M135.99 24.7578L183.734 35.7804L179.01 56.2422L131.266 45.2196L135.99 24.7578Z" fill="#EDEDED"/>
  <path fill-rule="evenodd" clip-rule="evenodd" d="M133.99 21.7578L181.734 32.7804L177.01 53.2422L129.266 42.2196L133.99 21.7578Z" fill="white" stroke="#152633" stroke-width="2"/>
  <path fill-rule="evenodd" clip-rule="evenodd" d="M173.621 34.353L178.067 35.3794L177.054 39.764L172.609 38.7377L173.621 34.353Z" fill="white" stroke="#152633" stroke-width="2"/>
  <path fill-rule="evenodd" clip-rule="evenodd" d="M138.665 25.7141L138.75 20.567L138.665 25.7141Z" stroke="#152633" stroke-width="2" stroke-linecap="round"/>
  <path fill-rule="evenodd" clip-rule="evenodd" d="M137.5 22.732C138.696 23.4224 140.225 23.0127 140.915 21.817C141.605 20.6212 141.196 19.0923 140 18.4019C138.804 17.7116 137.275 18.1212 136.585 19.317C135.895 20.5127 136.304 22.0417 137.5 22.732Z" fill="white" stroke="#152633" stroke-width="2"/>
  <path d="M136.5 27L144 29.5" stroke="#152633" stroke-width="2"/>
  <path d="M149 35L162.5 37.5" stroke="#152633" stroke-width="2"/>
  <path d="M149 38L159.5 40.5" stroke="#152633" stroke-width="2"/>
  <path d="M148 41L157.5 43.5" stroke="#152633" stroke-width="2"/>
  <path d="M67.5059 219.931C95.1201 219.931 117.506 215.454 117.506 209.931C117.506 204.408 95.1201 199.931 67.5059 199.931C39.8916 199.931 17.5059 204.408 17.5059 209.931C17.5059 215.454 39.8916 219.931 67.5059 219.931Z" fill="black" fill-opacity="0.05"/>
  <path fill-rule="evenodd" clip-rule="evenodd" d="M91.2993 158.538C90.2376 158.637 89.1614 158.71 88.0752 158.762C87.3474 163.678 86.2681 174.771 89.5281 183.727C93.8509 195.604 105.736 190.078 107.899 183.856C109.917 178.052 103.735 169.174 91.2993 158.538Z" fill="#2D3B45"/>
  <path d="M90.4749 157.607C89.8263 163.148 89.3601 172.61 92.21 180.44C95.127 188.454 101.487 188.544 105.98 185.843C101.875 190.444 93.0278 192.625 89.4272 182.732C86.1672 173.776 87.2464 162.683 87.9742 157.767C88.8145 157.727 89.6487 157.674 90.4749 157.607Z" fill="#28343D"/>
  <path fill-rule="evenodd" clip-rule="evenodd" d="M91.2993 158.538C90.2376 158.637 89.1614 158.71 88.0752 158.762C87.3474 163.678 86.2681 174.771 89.5281 183.727C93.8509 195.604 105.736 190.078 107.899 183.856C109.917 178.052 103.735 169.174 91.2993 158.538Z" stroke="#152633" stroke-width="2"/>
  <path fill-rule="evenodd" clip-rule="evenodd" d="M46.6309 157.956C47.341 162.875 48.3804 173.972 45.0883 182.916C40.7228 194.777 28.8582 189.209 26.7174 182.979C24.72 177.168 30.9336 168.312 43.4076 157.721C44.469 157.824 45.5448 157.901 46.6309 157.956Z" fill="#2D3B45"/>
  <path d="M26.3501 180.808C26.3614 181.572 26.4827 182.297 26.7172 182.979C28.8581 189.209 40.7227 194.778 45.0881 182.916C48.3803 173.972 47.3409 162.875 46.6308 157.956C45.8246 157.915 45.0241 157.862 44.231 157.795C44.5753 163.312 44.3969 170.643 42.0881 176.916C38.6808 186.174 30.7051 184.814 26.3501 180.808Z" fill="#28343D"/>
  <path fill-rule="evenodd" clip-rule="evenodd" d="M46.6309 157.956C47.341 162.875 48.3804 173.972 45.0883 182.916C40.7228 194.777 28.8582 189.209 26.7174 182.979C24.72 177.168 30.9336 168.312 43.4076 157.721C44.469 157.824 45.5448 157.901 46.6309 157.956Z" stroke="#152633" stroke-width="2"/>
  <path fill-rule="evenodd" clip-rule="evenodd" d="M87.7646 159.519C81.003 161.771 73.2861 162.995 65.091 162.995C57.7862 162.995 51.4712 161.209 45.5059 159.519C43.1105 164.883 39.955 172.68 39.3608 177.433C37.613 189.666 48.2461 200.387 67.1272 200.387C86.0083 200.387 95.872 189.28 93.717 177.804C92.2317 169.897 89.8375 163.923 87.7646 159.519Z" fill="white"/>
  <path d="M48.6973 195.833C52.7215 197.457 57.5666 198.387 63.127 198.387C82.0082 198.387 91.8719 187.28 89.7168 175.804C88.5289 169.48 86.7597 164.393 85.0385 160.357C85.963 160.096 86.8721 159.816 87.7645 159.519C89.8373 163.923 92.2315 169.897 93.7168 177.804C95.8719 189.28 86.0082 200.387 67.127 200.387C59.5768 200.387 53.3454 198.673 48.6973 195.833Z" fill="#EDEDED"/>
  <path fill-rule="evenodd" clip-rule="evenodd" d="M87.7646 159.519C81.003 161.771 73.2861 162.995 65.091 162.995C57.7862 162.995 51.4712 161.209 45.5059 159.519C43.1105 164.883 39.955 172.68 39.3608 177.433C37.613 189.666 48.2461 200.387 67.1272 200.387C86.0083 200.387 95.872 189.28 93.717 177.804C92.2317 169.897 89.8375 163.923 87.7646 159.519Z" stroke="#152633" stroke-width="2"/>
  <path fill-rule="evenodd" clip-rule="evenodd" d="M103.745 205.798C100.783 190.619 94.2401 181.561 93.8699 178.599C95.313 188.684 87.3672 198.472 72.3293 200.3L72.6466 201.725C73.7573 207.649 75.9786 209.87 79.6808 210.981C87.8256 213.942 105.596 212.832 103.745 205.798Z" fill="#2D3B45"/>
  <path d="M93.8378 183.469C96.0671 188.163 99.0161 194.938 100.745 203.798C102.596 210.832 84.8255 211.942 76.6807 208.981C76.2948 208.865 75.9249 208.737 75.5708 208.594C76.6669 209.766 78.0259 210.484 79.6807 210.981C87.8255 213.942 105.596 212.832 103.745 205.798C101.76 195.627 98.1679 188.205 95.9019 183.523C94.8158 181.279 94.0344 179.664 93.8809 178.679C94.1043 180.294 94.0867 181.902 93.8378 183.469Z" fill="#28343D"/>
  <path fill-rule="evenodd" clip-rule="evenodd" d="M103.745 205.798C100.783 190.619 94.2401 181.561 93.8699 178.599C95.313 188.684 87.3672 198.472 72.3293 200.3L72.6466 201.725C73.7573 207.649 75.9786 209.87 79.6808 210.981C87.8256 213.942 105.596 212.832 103.745 205.798Z" stroke="#152633" stroke-width="2"/>
  <path fill-rule="evenodd" clip-rule="evenodd" d="M39.1984 178.771C38.7738 181.733 32.1099 190.618 29.1481 205.797C27.297 212.831 45.0675 213.942 53.2123 210.98C56.9145 209.87 59.1358 207.648 60.2464 201.725L60.5482 200.491L60.5637 200.151C46.3129 198.052 38.351 189.056 39.1984 178.771Z" fill="#2D3B45"/>
  <path d="M29.1274 207.646C30.5918 213.006 45.8425 213.66 53.2122 210.98C56.9144 209.87 59.1357 207.648 60.2464 201.725L60.5481 200.491L60.5636 200.151C59.3623 199.974 58.2057 199.748 57.0953 199.476C55.9399 204.839 53.7536 206.918 50.2122 207.98C44.5615 210.035 34.2776 210.13 29.1274 207.646Z" fill="#28343D"/>
  <path fill-rule="evenodd" clip-rule="evenodd" d="M39.1984 178.771C38.7738 181.733 32.1099 190.618 29.1481 205.797C27.297 212.831 45.0675 213.942 53.2123 210.98C56.9145 209.87 59.1358 207.648 60.2464 201.725L60.5482 200.491L60.5637 200.151C46.3129 198.052 38.351 189.056 39.1984 178.771Z" stroke="#152633" stroke-width="2"/>
  <path fill-rule="evenodd" clip-rule="evenodd" d="M27.9753 123.861C26.6636 123.802 25.1952 123.568 23.6167 123.035C17.547 120.985 17.257 115.7 17.0001 114.019C16.7431 112.338 16.708 103.263 23.9173 104.543C28.5733 105.37 32.0543 107.26 35.2653 108.82C31.9149 113.375 29.4473 118.515 27.9753 123.861Z" fill="#2D3B45"/>
  <path d="M20.6166 119.035C22.195 119.568 23.6635 119.802 24.9752 119.861C26.2869 115.097 28.389 110.497 31.2019 106.329C31.8941 106.655 32.5643 106.985 33.2198 107.307C33.5721 107.481 33.9202 107.652 34.2652 107.82C30.9148 112.375 28.4472 117.515 26.9752 122.861C25.6635 122.802 24.195 122.568 22.6166 122.035C19.2647 120.903 17.6754 118.784 16.8809 116.831C17.7869 117.709 18.9956 118.488 20.6166 119.035Z" fill="#28343D"/>
  <path fill-rule="evenodd" clip-rule="evenodd" d="M27.9753 123.861C26.6636 123.802 25.1952 123.568 23.6167 123.035C17.547 120.985 17.257 115.7 17.0001 114.019C16.7431 112.338 16.708 103.263 23.9173 104.543C28.5733 105.37 32.0543 107.26 35.2653 108.82C31.9149 113.375 29.4473 118.515 27.9753 123.861Z" stroke="#152633" stroke-width="2"/>
  <path fill-rule="evenodd" clip-rule="evenodd" d="M25.2944 132.154C25.2944 152.177 42.505 162.879 66.1648 162.879C89.8247 162.879 109.005 150.796 109.005 132.844C109.005 110.536 89.8247 89 66.1648 89C42.505 89 25.2944 111.095 25.2944 132.154Z" fill="white"/>
  <path d="M51.9614 161.421C56.3299 162.389 61.0995 162.879 66.1648 162.879C89.8246 162.879 109.005 150.796 109.005 132.844C109.005 111.611 91.6287 91.0775 69.5525 89.1477C88.6969 93.8852 103.005 112.577 103.005 131.844C103.005 149.796 83.8246 161.879 60.1648 161.879C57.3317 161.879 54.5911 161.726 51.9614 161.421Z" fill="#EDEDED"/>
  <path fill-rule="evenodd" clip-rule="evenodd" d="M25.2944 132.154C25.2944 152.177 42.505 162.879 66.1648 162.879C89.8247 162.879 109.005 150.796 109.005 132.844C109.005 110.536 89.8247 89 66.1648 89C42.505 89 25.2944 111.095 25.2944 132.154Z" stroke="#152633" stroke-width="2"/>
  <path fill-rule="evenodd" clip-rule="evenodd" d="M97.7624 125.294C99.336 124.641 101.022 123.703 102.709 122.353C109.199 117.161 107.901 108.508 107.469 106.345C107.036 104.182 104.44 93.7978 96.2196 98.557C90.9104 101.631 87.8514 105.391 84.6289 108.717C89.9765 113.263 96.2196 121.017 97.7624 125.294Z" fill="#2D3B45"/>
  <path d="M96.4094 122.52C97.0049 123.54 97.4688 124.48 97.7624 125.294C99.336 124.641 101.022 123.703 102.709 122.353C109.199 117.162 107.901 108.508 107.469 106.345C107.146 104.733 105.622 98.555 101.464 97.4818C103.409 99.7685 104.24 103.203 104.469 104.345C104.901 106.508 106.199 115.162 99.7094 120.353C98.598 121.242 97.4876 121.952 96.4094 122.52Z" fill="#28343D"/>
  <path fill-rule="evenodd" clip-rule="evenodd" d="M97.7624 125.294C99.336 124.641 101.022 123.703 102.709 122.353C109.199 117.161 107.901 108.508 107.469 106.345C107.036 104.182 104.44 93.7978 96.2196 98.557C90.9104 101.631 87.8514 105.391 84.6289 108.717C89.9765 113.263 96.2196 121.017 97.7624 125.294Z" stroke="#152633" stroke-width="2"/>
  <path d="M61.1064 193.634C61.1625 194.533 61.6908 195.377 62.5643 195.799C63.5748 196.289 64.748 196.07 65.5131 195.338C66.2782 196.07 67.4514 196.289 68.4619 195.799C69.4641 195.314 70.0119 194.275 69.9134 193.235C70.9597 193.098 71.8599 192.334 72.1112 191.253C72.3636 190.168 71.8872 189.085 71.0001 188.509C71.5501 187.604 71.5023 186.417 70.7934 185.548C70.315 184.962 69.6314 184.638 68.9281 184.595C68.9593 185.113 68.8337 185.635 68.5592 186.087C69.4463 186.663 69.9227 187.746 69.6703 188.831C69.419 189.911 68.5187 190.676 67.4724 190.812C67.571 191.853 67.0232 192.892 66.021 193.377C65.0105 193.866 63.8372 193.647 63.0722 192.915C62.5475 193.417 61.8309 193.678 61.1064 193.634Z" fill="#EDEDED"/>
  <path fill-rule="evenodd" clip-rule="evenodd" d="M62.7162 184.698C63.0175 183.885 63.7996 183.306 64.7171 183.306C65.6345 183.306 66.4166 183.885 66.7179 184.698C67.5355 184.429 68.4697 184.673 69.0435 185.382C69.6244 186.099 69.6635 187.079 69.213 187.826C69.9398 188.302 70.3301 189.196 70.1233 190.092C69.9174 190.984 69.1798 191.615 68.3225 191.728C68.4032 192.587 67.9544 193.445 67.1332 193.845C66.3052 194.249 65.3439 194.068 64.7171 193.464C64.0902 194.068 63.1289 194.249 62.3009 193.845C61.4797 193.445 61.0309 192.587 61.1116 191.728C60.2543 191.615 59.5167 190.984 59.3108 190.092C59.104 189.196 59.4943 188.302 60.2212 187.826C59.7706 187.079 59.8097 186.099 60.3906 185.382C60.9644 184.673 61.8987 184.429 62.7162 184.698Z" fill="#2D3B45"/>
  <path d="M61.1064 192.058C61.1524 192.8 61.5852 193.496 62.301 193.845C63.1289 194.249 64.0902 194.068 64.7171 193.464C65.344 194.068 66.3053 194.249 67.1332 193.845C67.9544 193.445 68.4033 192.587 68.3225 191.728C69.1798 191.615 69.9174 190.984 70.1234 190.092C70.3302 189.196 69.9399 188.302 69.213 187.826C69.6636 187.079 69.6245 186.099 69.0436 185.382C68.6516 184.898 68.0915 184.63 67.5152 184.595C67.5408 185.022 67.4379 185.453 67.213 185.826C67.9399 186.302 68.3302 187.196 68.1234 188.092C67.9174 188.984 67.1798 189.615 66.3225 189.728C66.4033 190.587 65.9544 191.445 65.1332 191.845C64.3053 192.249 63.344 192.068 62.7171 191.464C62.2872 191.878 61.7 192.094 61.1064 192.058Z" fill="#28343D"/>
  <path fill-rule="evenodd" clip-rule="evenodd" d="M62.7162 184.698C63.0175 183.885 63.7996 183.306 64.7171 183.306C65.6345 183.306 66.4166 183.885 66.7179 184.698C67.5355 184.429 68.4697 184.673 69.0435 185.382C69.6244 186.099 69.6635 187.079 69.213 187.826C69.9398 188.302 70.3301 189.196 70.1233 190.092C69.9174 190.984 69.1798 191.615 68.3225 191.728C68.4032 192.587 67.9544 193.445 67.1332 193.845C66.3052 194.249 65.3439 194.068 64.7171 193.464C64.0902 194.068 63.1289 194.249 62.3009 193.845C61.4797 193.445 61.0309 192.587 61.1116 191.728C60.2543 191.615 59.5167 190.984 59.3108 190.092C59.104 189.196 59.4943 188.302 60.2212 187.826C59.7706 187.079 59.8097 186.099 60.3906 185.382C60.9644 184.673 61.8987 184.429 62.7162 184.698Z" stroke="#152633" stroke-width="2"/>
</svg>
