<svg width="198" height="44" viewBox="0 0 198 44" fill="none" xmlns="http://www.w3.org/2000/svg">
<path fill-rule="evenodd" clip-rule="evenodd" d="M64.5477 0C70.238 0 75.9283 2.15334 80.272 6.44698C88.9593 15.0343 88.9593 28.9592 80.272 37.5595C71.5847 46.1468 57.4975 46.1468 48.7969 37.5595C40.1096 28.9723 40.1096 15.0473 48.7969 6.44698C53.1406 2.15334 58.8309 0 64.5213 0H64.5477ZM120.698 12.6591C125.913 17.814 125.913 26.1664 120.698 31.3214C115.483 36.4763 107.034 36.4763 101.819 31.3214C96.6037 26.1664 96.6037 17.814 101.819 12.6591C107.034 7.50408 115.483 7.50408 120.698 12.6591ZM126.996 6.44698C135.683 15.0343 135.683 28.9592 126.996 37.5595C118.309 46.1468 104.222 46.1468 95.5342 37.5595C86.8469 28.9723 86.8469 15.0473 95.5342 6.44698C99.8647 2.15334 105.555 0 111.245 0C116.962 0 122.652 2.15334 126.996 6.44698ZM8.89857 43.876L11.1298 43.9804H44.5061L44.4004 41.7879C44.0968 38.1599 41.5091 35.5237 37.8387 35.3018L35.6075 35.1974H15.5791L42.2748 8.79609L42.1692 6.60359C41.9976 2.94943 39.291 0.300163 35.6075 0.117455L33.3763 0H0L0.105621 2.1925C0.396079 5.7814 3.03661 8.48287 6.66733 8.69168L8.89857 8.79609H28.927L2.23124 35.1974L2.33687 37.3899C2.56131 41.0179 5.20184 43.6411 8.89857 43.876ZM161.244 13.1811C162.009 14.4731 162.247 15.9478 162.326 17.5922L162.432 19.7977V35.1974L162.538 37.3899C162.762 40.9918 165.429 43.6542 169.099 43.876L171.317 43.9804V19.7977L171.423 17.5922C171.515 15.9608 171.753 14.46 172.519 13.168C174.063 10.5579 176.928 8.79609 180.216 8.79609C183.503 8.79609 186.382 10.571 187.926 13.1941C188.679 14.4861 188.916 15.9869 189.009 17.5922L189.115 19.7847V35.1843L189.22 37.3768C189.445 40.9918 192.111 43.6542 195.782 43.863L198 43.9674V19.8108V17.5922C198.039 7.88254 190.065 0 180.242 0C174.922 0 170.156 2.30995 166.894 5.95106C163.633 2.2969 158.854 0 153.547 0C149.85 0 146.417 1.1093 143.579 3.01468C141.836 1.1093 137.954 0 135.736 0V43.9935L137.967 43.8891C141.677 43.6411 144.384 41.0571 144.529 37.4029L144.635 35.1974V19.7977L144.74 17.5922C144.833 15.9347 145.071 14.4731 145.836 13.168C147.381 10.5449 150.246 8.79609 153.533 8.79609C156.821 8.79609 159.699 10.5579 161.244 13.1811ZM73.9743 31.3214C79.1894 26.1664 79.1894 17.814 73.9743 12.6591C68.7593 7.50408 60.3096 7.50408 55.0946 12.6591C49.8795 17.814 49.8795 26.1664 55.0946 31.3214C60.3096 36.4763 68.7593 36.4763 73.9743 31.3214Z" fill="#2D8CFF"/>
</svg>
