<?xml version="1.0" encoding="UTF-8" standalone="no"?>
<svg width="22px" height="21px" viewBox="0 0 22 21" version="1.1" xmlns="http://www.w3.org/2000/svg" xmlns:xlink="http://www.w3.org/1999/xlink" xmlns:sketch="http://www.bohemiancoding.com/sketch/ns">
    <!-- Generator: Sketch 3.3.2 (12043) - http://www.bohemiancoding.com/sketch -->
    <title>sso-scim</title>
    <desc>Created with Sketch.</desc>
    <defs></defs>
    <g id="Page-1" stroke="none" stroke-width="1" fill="none" fill-rule="evenodd" sketch:type="MSPage">
        <g id="152---iPad" sketch:type="MSArtboardGroup" transform="translate(-32.000000, -76.000000)" fill="#FFFFFF">
            <g id="sso-scim" sketch:type="MSLayerGroup" transform="translate(32.500000, 76.000000)">
                <path d="M16.1875,14.2625 L16.1875,14.7666462 L15.6833538,14.2625 L16.1875,14.2625 L16.1875,14.2625 Z M16.0394172,17.8977711 C15.6058174,19.3382527 14.2692933,20.3875 12.6875137,20.3875 L3.49998625,20.3875 C1.56699722,20.3875 0,18.8205263 0,16.8871115 L0,3.50038854 C0,1.56717733 1.56683382,0 3.49998625,0 L12.6875137,0 C14.6205028,0 16.1875,1.56697372 16.1875,3.50038854 L16.1875,4.13539615 L14,6.32289617 L14,3.98108949 C14,3.01440571 13.2164419,2.23125 12.249874,2.23125 L3.93762601,2.23125 C2.97112609,2.23125 2.1875,3.01467982 2.1875,3.98108949 L2.1875,16.4939105 C2.1875,17.4605943 2.9710581,18.24375 3.93762601,18.24375 L12.249874,18.24375 C13.2163739,18.24375 14,17.4603202 14,16.4939105 L14,15.8583538 L16.0394172,17.8977711 L16.0394172,17.8977711 Z" id="Rectangle-43" sketch:type="MSShapeGroup"></path>
                <path d="M14,9.93653032 L14,9.93125 L16.3891493,9.93125 L14.9959336,8.53803427 L16.6974093,6.83655857 L20.9665664,11.1057157 L20.9597822,11.1125 L20.9665664,11.1192843 L16.6974093,15.3884414 L14.9959336,13.6869657 L16.3453993,12.3375 L14,12.3375 L14,12.3291124 C13.5507895,12.3217075 11.9149749,12.37637 10.8720031,13.4936281 C9.65371089,14.798694 9.88848267,16.4982362 9.88848267,16.4982362 L7.13553313,16.4982362 C7.13553313,16.4982362 6.95488281,13.4099305 8.8351074,11.5262878 C10.5080093,9.85034492 13.385719,9.90426307 14,9.93653032 L14,9.93653032 Z" id="Rectangle-49" sketch:type="MSShapeGroup"></path>
            </g>
        </g>
    </g>
</svg>