<?xml version="1.0" encoding="UTF-8" standalone="no"?>
<svg width="21px" height="21px" viewBox="0 0 21 21" version="1.1" xmlns="http://www.w3.org/2000/svg" xmlns:xlink="http://www.w3.org/1999/xlink" xmlns:sketch="http://www.bohemiancoding.com/sketch/ns">
    <!-- Generator: Sketch 3.3.2 (12043) - http://www.bohemiancoding.com/sketch -->
    <title>sso-linkedin</title>
    <desc>Created with Sketch.</desc>
    <defs></defs>
    <g id="Page-1" stroke="none" stroke-width="1" fill="none" fill-rule="evenodd" sketch:type="MSPage">
        <g id="152---iPad" sketch:type="MSArtboardGroup" transform="translate(-117.000000, -39.000000)" fill="#FFFFFF">
            <g id="sso-linkedin" sketch:type="MSLayerGroup" transform="translate(117.000000, 39.000000)">
                <path d="M17.4995625,0 L3.5004375,0 C1.575,0 0,1.575 0,3.5004375 L0,17.4995625 C0,19.4263125 1.575,21 3.5004375,21 L17.4995625,21 C19.425,21 21,19.4263125 21,17.4995625 L21,3.5004375 C21,1.575 19.425,0 17.4995625,0 L17.4995625,0 Z M6.45553125,17.5809375 L3.2799375,17.5809375 L3.2799375,8.0259375 L6.45553125,8.0259375 L6.45553125,17.5809375 L6.45553125,17.5809375 Z M4.8680625,6.7213125 L4.8470625,6.7213125 C3.7813125,6.7213125 3.09225,5.98696875 3.09225,5.06953125 C3.09225,4.13240625 3.8023125,3.4190625 4.8890625,3.4190625 C5.9758125,3.4190625 6.643875,4.13240625 6.664875,5.06953125 C6.664875,5.98696875 5.97515625,6.7213125 4.8680625,6.7213125 L4.8680625,6.7213125 Z M17.90775,17.5809375 L14.7321563,17.5809375 L14.7321563,12.46875 C14.7321563,11.1844687 14.2727813,10.308375 13.1236875,10.308375 C12.2462813,10.308375 11.72325,10.899 11.4942188,11.4699375 C11.4102188,11.6740312 11.389875,11.9588437 11.389875,12.2443125 L11.389875,17.5802812 L8.213625,17.5802812 C8.213625,17.5802812 8.255625,8.92171875 8.213625,8.02528125 L11.389875,8.02528125 L11.389875,9.379125 C11.8118438,8.728125 12.565875,7.80084375 14.2524375,7.80084375 C16.3419375,7.80084375 17.9090625,9.16715625 17.9090625,12.10125 L17.9090625,17.5802812 L17.90775,17.5809375 Z" id="Shape" sketch:type="MSShapeGroup"></path>
            </g>
        </g>
    </g>
</svg>