<?xml version="1.0" encoding="UTF-8" standalone="no"?>
<svg width="18px" height="18px" viewBox="0 0 18 18" version="1.1" xmlns="http://www.w3.org/2000/svg" xmlns:xlink="http://www.w3.org/1999/xlink" xmlns:sketch="http://www.bohemiancoding.com/sketch/ns">
    <!-- Generator: Sketch 3.3.2 (12043) - http://www.bohemiancoding.com/sketch -->
    <title>sso-google</title>
    <desc>Created with Sketch.</desc>
    <defs></defs>
    <g id="Page-1" stroke="none" stroke-width="1" fill="none" fill-rule="evenodd" sketch:type="MSPage">
        <g id="152---iPad" sketch:type="MSArtboardGroup" transform="translate(-55.000000, -39.000000)" fill="#FFFFFF">
            <g id="sso-google" sketch:type="MSLayerGroup" transform="translate(55.000000, 39.000000)">
                <path d="M17.1818182,7.71432662 L14.8958414,7.71432662 L14.8958414,5.42375367 L13.7274273,5.42375367 L13.7274273,7.71432662 L11.441349,7.71432662 L11.441349,8.83416228 L13.7274273,8.83416228 L13.7274273,11.1246334 L14.8958414,11.1246334 L14.8958414,8.83416228 L17.1818182,8.83416228 L17.1818182,7.71432662" id="Fill-4" sketch:type="MSShapeGroup"></path>
                <path d="M6.04504159,16.3335917 C3.59429593,16.3335917 2.01303151,15.1777608 2.01303151,13.5690875 C2.01303151,11.9603129 3.47893293,11.4172257 3.98282079,11.236028 C4.94488474,10.9186032 6.1825297,10.8728232 6.38926584,10.8728232 C6.61742151,10.8728232 6.73197813,10.8728232 6.91457322,10.896042 C8.65696282,12.1200117 9.41294581,12.7297708 9.41294581,13.8871193 C9.41294581,15.2896057 8.24364172,16.3335917 6.04504159,16.3335917 L6.04504159,16.3335917 Z M6.02523483,7.28276153 C4.05484077,7.28276153 3.16126887,4.76789729 3.16126887,3.25063212 C3.16126887,2.66085434 3.27537191,1.99327588 3.66450155,1.51726517 C4.03211088,1.06386623 4.67278126,0.826265563 5.26925184,0.826265563 C7.16989388,0.826265563 8.15478852,3.36343806 8.15478852,4.99462205 C8.15478852,5.40249393 8.10922795,6.06936419 7.5825598,6.59161016 C7.21495047,6.95441025 6.59756436,7.28276153 6.02523483,7.28276153 L6.02523483,7.28276153 Z M9.02623531,9.83010174 L8.20044989,9.19727559 C7.94875796,8.99255558 7.60534008,8.72065786 7.60534008,8.22309767 C7.60534008,7.72447519 7.94875796,7.4063422 8.24671605,7.11223739 C9.20872961,6.36569477 10.1707936,5.57150049 10.1707936,3.89585174 C10.1707936,2.17331011 9.12693225,1.34168247 8.60036489,0.911299995 L9.95811035,0.911299995 L11.441349,0.000961126833 L6.66535083,0 C5.42765548,0 3.75854583,0.128234554 2.45235842,1.19301133 C1.46827016,2.03060807 1.14521343,3.26165979 1.14521343,4.30372362 C1.14521343,6.06936419 2.5198425,7.85963997 4.94785827,7.85963997 C5.17732431,7.85963997 5.42820987,7.8370282 5.68116178,7.81477052 C5.56700834,8.08636473 5.45174614,8.31344359 5.45174614,8.6983496 C5.45174614,9.40002277 5.81809549,9.83010174 6.13943866,10.2379736 C5.10878185,10.3069218 3.18339397,10.4198289 1.7643635,11.2802904 C0.411254747,12.0742317 0,13.2283427 0,14.0444406 C0,15.7215563 1.53756861,17.3005865 4.85976106,17.3005865 C8.79939002,17.3005865 10.9497584,15.1322844 10.9497584,13.0030849 C10.9497584,11.4395339 10.0338598,10.6688114 9.02623531,9.83010174 L9.02623531,9.83010174 Z" id="Fill-5" sketch:type="MSShapeGroup"></path>
            </g>
        </g>
    </g>
</svg>