<svg width="21" height="18" viewBox="0 0 21 18" xmlns="http://www.w3.org/2000/svg"><title>sso-twitter</title><path d="M21 2.018c-.773.342-1.604.574-2.476.678.89-.533 1.573-1.377 1.895-2.383-.84.493-1.76.852-2.74 1.045-.79-.837-1.91-1.36-3.148-1.36-2.38 0-4.308 1.93-4.308 4.308 0 .338.037.667.11.982-3.58-.18-6.754-1.895-8.88-4.502-.37.637-.583 1.376-.583 2.166 0 1.495.76 2.814 1.918 3.587C2.085 6.51 1.42 6.32.84 6v.05c0 2.09 1.484 3.83 3.455 4.225-.363.1-.744.15-1.137.15-.277 0-.547-.025-.81-.076.55 1.71 2.14 2.954 4.025 2.99-1.475 1.154-3.333 1.843-5.35 1.843-.35 0-.692-.02-1.03-.06C1.9 16.348 4.165 17.06 6.598 17.06c7.926 0 12.26-6.564 12.26-12.257 0-.187-.004-.373-.01-.557.84-.608 1.57-1.367 2.147-2.23z" fill="#FFF" fill-rule="evenodd"/></svg>