<?xml version="1.0" encoding="UTF-8" standalone="no"?>
<svg width="21px" height="18px" viewBox="0 0 21 18" version="1.1" xmlns="http://www.w3.org/2000/svg" xmlns:xlink="http://www.w3.org/1999/xlink" xmlns:sketch="http://www.bohemiancoding.com/sketch/ns">
    <!-- Generator: Sketch 3.3.2 (12043) - http://www.bohemiancoding.com/sketch -->
    <title>sso-github</title>
    <desc>Created with Sketch.</desc>
    <defs></defs>
    <g id="Page-1" stroke="none" stroke-width="1" fill="none" fill-rule="evenodd" sketch:type="MSPage">
        <g id="152---iPad" sketch:type="MSArtboardGroup" transform="translate(-22.000000, -15.000000)" fill="#FFFFFF">
            <g id="sso-github" sketch:type="MSLayerGroup" transform="translate(22.000000, 14.000000)">
                <g id="Page-1" sketch:type="MSShapeGroup">
                    <g id="sso-github">
                        <path d="M0,9.78199747 C0,8.08433177 0.568294741,6.61569017 1.70488422,5.37672889 C1.64319865,5.21267151 1.58676291,5.02564611 1.53557701,4.81696513 C1.48439111,4.60828415 1.43648636,4.31035596 1.39186275,3.92383679 C1.34723915,3.53731762 1.36430112,3.09042533 1.44304865,2.58381616 C1.52179619,2.077207 1.66747914,1.56009815 1.87944127,1.03314587 C1.92078373,1.01936505 1.97721946,1.00755292 2.04874848,0.99705325 C2.12027749,0.986553578 2.29352208,0.995084562 2.56716978,1.0226462 C2.84081747,1.05020784 3.13546452,1.10992472 3.45045467,1.20245308 C3.76544483,1.29498144 4.18805662,1.47281963 4.71894628,1.73662389 C5.24983594,2.00042814 5.80566232,2.33051158 6.38773788,2.72753042 C7.3871754,2.45388272 8.75607012,2.31673076 10.4950783,2.31673076 C12.2406487,2.31673076 13.6134808,2.45388272 14.6129183,2.72753042 C15.1949939,2.33051158 15.7475391,2.00042814 16.2712103,1.73662389 C16.7948814,1.47281963 17.222743,1.29498144 17.5547952,1.20245308 C17.8868473,1.10992472 18.177557,1.04823915 18.4275804,1.01739636 C18.6776038,0.986553578 18.8574107,0.981303742 18.967001,1.00164686 L19.121215,1.03248964 C19.3331771,1.55944193 19.47886,2.07655077 19.5576076,2.58315993 C19.6363551,3.0897691 19.6534171,3.53666139 19.6087935,3.92318056 C19.5641699,4.30969973 19.5162651,4.60762792 19.4650792,4.8163089 C19.4138933,5.02498988 19.3574576,5.21135905 19.295772,5.37607266 C20.4323615,6.61503394 21,8.08367554 21,9.78134124 C21,10.732874 20.9107528,11.5938471 20.7329146,12.3636043 C20.5550764,13.1333615 20.3070217,13.8027156 19.9887504,14.3710103 C19.670479,14.9393051 19.2662417,15.4386957 18.7773507,15.8704947 C18.2878035,16.3016375 17.7575701,16.6540327 17.1859942,16.9283366 C16.6144183,17.2026406 15.9621262,17.4244461 15.2297741,17.595722 C14.497422,17.7669979 13.751289,17.8864317 12.9913753,17.9553358 C12.2314615,18.0235837 11.3928002,18.0577076 10.4753914,18.0577076 C9.56520109,18.0577076 8.72982094,18.0235837 7.96990719,17.9553358 C7.20999344,17.8870879 6.46582919,17.7669979 5.73675823,17.595722 C5.00768726,17.4244461 4.35933252,17.2019843 3.79103778,16.9283366 C3.22274304,16.6546889 2.69579076,16.3022937 2.2095247,15.8704947 C1.72325865,15.4393519 1.32295866,14.9393051 1.0079685,14.3710103 C0.692978344,13.8027156 0.446892285,13.1333615 0.268397863,12.3636043 C0.09055967,11.5931909 0.00131245899,10.732874 0.00131245899,9.78134124 L0,9.78199747 L0,9.78199747 Z M2.57766945,12.3590107 C2.57766945,12.9476485 2.65116715,13.4700072 2.79816256,13.9247743 C2.94515796,14.3795413 3.13349583,14.7614669 3.36317615,15.0698947 C3.59285647,15.3783226 3.91112778,15.6401582 4.31799006,15.8554014 C4.72485235,16.0706447 5.12252742,16.237327 5.50904659,16.3534796 C5.89556576,16.4696322 6.39233149,16.5608481 6.99803131,16.6258149 C7.60373113,16.6907816 8.14446424,16.7301553 8.62023062,16.7439362 C9.095997,16.757717 9.70038436,16.7642793 10.4327365,16.7642793 C11.1650886,16.7642793 11.769476,16.757717 12.2452423,16.7439362 C12.7210087,16.7301553 13.2617418,16.6907816 13.8674416,16.6258149 C14.4731415,16.5608481 14.9699072,16.4702885 15.3564264,16.3534796 C15.7429455,16.237327 16.1399644,16.0713009 16.5474829,15.8554014 C16.9550014,15.6395019 17.2732727,15.3776664 17.5022968,15.0698947 C17.7313209,14.7621231 17.9196588,14.3801975 18.0673104,13.9247743 C18.2143058,13.469351 18.2878035,12.9476485 18.2878035,12.3590107 C18.2878035,11.3595732 17.8395988,10.4559452 16.942533,9.64812665 C16.6754476,9.40138436 16.3643949,9.21501519 16.0080622,9.0883629 C15.6517296,8.9617106 15.2501172,8.89018159 14.8012562,8.87246339 C14.3530515,8.85540143 13.9232211,8.85868257 13.5124215,8.88296307 C13.1016218,8.90724356 12.5950127,8.9393988 11.992594,8.98074126 C11.3901753,9.02208372 10.8697853,9.04242683 10.4320802,9.04242683 C9.99437518,9.04242683 9.47398519,9.02208372 8.87156651,8.98074126 C8.26914784,8.9393988 7.76253867,8.90724356 7.35173901,8.88296307 C6.94093935,8.85868257 6.51176526,8.85540143 6.06290428,8.87246339 C5.61469954,8.88952536 5.21243086,8.9617106 4.85609825,9.0883629 C4.49976563,9.21501519 4.18871285,9.40138436 3.92162745,9.64812665 C3.02456173,10.469726 2.57635699,11.373354 2.57635699,12.3590107 L2.57766945,12.3590107 L2.57766945,12.3590107 Z M5.56548233,12.5335677 C5.56548233,11.8898066 5.71969626,11.3392301 6.02746789,10.8805256 C6.33523952,10.4218212 6.70863411,10.1927971 7.14699541,10.1927971 C7.58535671,10.1927971 7.9567826,10.4205088 8.26127309,10.875932 C8.56576357,11.3313553 8.71800881,11.8839005 8.71800881,12.534224 C8.71800881,13.1845474 8.56576357,13.7370926 8.26127309,14.1925159 C7.9567826,14.6479392 7.58535671,14.8756508 7.14699541,14.8756508 C6.70863411,14.8756508 6.33589575,14.6466267 6.02746789,14.1879223 C5.71904003,13.7292179 5.56548233,13.1779851 5.56548233,12.5348802 L5.56548233,12.5335677 L5.56548233,12.5335677 Z M12.1684635,12.5335677 C12.1684635,11.8898066 12.3226774,11.3392301 12.630449,10.8805256 C12.9382207,10.4218212 13.3083341,10.1927971 13.7394769,10.1927971 C14.1778382,10.1927971 14.5505765,10.4218212 14.8590044,10.8805256 C15.1674323,11.3392301 15.32099,11.8904628 15.32099,12.5335677 C15.32099,13.1773289 15.166776,13.7279054 14.8590044,14.1866098 C14.5512328,14.6453142 14.1778382,14.8743383 13.7394769,14.8743383 C13.3083341,14.8743383 12.9382207,14.6453142 12.630449,14.1866098 C12.3226774,13.7279054 12.1684635,13.1766726 12.1684635,12.5335677 L12.1684635,12.5335677 L12.1684635,12.5335677 Z" id="Shape"></path>
                    </g>
                </g>
            </g>
        </g>
    </g>
</svg>