<svg width="21" height="18" viewBox="0 0 21 18" xmlns="http://www.w3.org/2000/svg"><title>sso-github</title><path d="M0 8.782c0-1.698.568-3.166 1.705-4.405-.062-.164-.118-.35-.17-.56-.05-.21-.1-.507-.143-.893-.045-.387-.028-.834.05-1.34.08-.507.225-1.024.437-1.55.04-.015.09-.026.17-.037.07-.01.24-.002.51.026.275.027.57.087.884.18.314.092.737.27 1.27.534.53.263 1.085.594 1.667.99 1-.273 2.37-.41 4.108-.41 1.746 0 3.12.137 4.12.41.58-.396 1.133-.727 1.656-.99.525-.264.953-.442 1.285-.535.332-.092.623-.154.873-.185.25-.03.43-.036.54-.015l.153.03c.213.527.36 1.045.44 1.55.076.508.093.955.05 1.34-.046.388-.094.686-.145.894-.05.21-.107.395-.17.56C20.433 5.616 21 7.084 21 8.78c0 .953-.09 1.814-.267 2.584-.178.77-.426 1.44-.744 2.007-.32.57-.73 1.07-1.22 1.5-.49.438-1.02.79-1.59 1.06-.572.28-1.224.5-1.956.67-.734.17-1.48.29-2.24.36-.76.07-1.598.1-2.516.1-.91 0-1.745-.03-2.505-.1-.76-.07-1.505-.19-2.234-.36-.73-.17-1.378-.393-1.946-.667-.567-.274-1.094-.627-1.58-1.06-.487-.43-.887-.93-1.202-1.5-.315-.566-.56-1.236-.74-2.005C.09 10.595 0 9.735 0 8.78v.002zm2.578 2.577c0 .582.073 1.11.22 1.56.147.454.335.835.565 1.144.23.307.548.57.955.784.407.216.805.382 1.19.5.388.115.884.206 1.49.27.606.066 1.146.105 1.622.12.476.014 1.08.02 1.813.02.732 0 1.336-.006 1.812-.02s1.017-.053 1.622-.118c.606-.065 1.103-.156 1.49-.273.386-.117.783-.283 1.19-.5.408-.214.726-.476.955-.784.23-.31.418-.69.565-1.146.147-.453.22-.974.22-1.563 0-1-.447-1.904-1.344-2.712-.268-.247-.58-.433-.935-.56-.356-.126-.758-.198-1.207-.216-.44-.02-.87-.015-1.282.01-.41.023-.917.055-1.52.1-.602.04-1.122.06-1.56.06-.438 0-.958-.02-1.56-.06-.603-.045-1.11-.077-1.52-.1-.41-.025-.84-.03-1.29-.01-.447.016-.85.09-1.206.214-.356.127-.667.313-.934.56-.897.822-1.346 1.725-1.346 2.71zm2.987.17c0-.646.155-1.197.462-1.655.308-.46.682-.688 1.12-.688.438 0 .81.227 1.114.682.31.454.46 1.007.46 1.657 0 .65-.15 1.204-.453 1.66-.303.455-.675.683-1.113.683-.44 0-.81-.23-1.12-.687-.31-.46-.462-1.01-.462-1.653zm6.603 0c0-.646.155-1.197.462-1.655.308-.46.678-.688 1.11-.688.438 0 .81.23 1.12.687.307.46.46 1.01.46 1.655 0 .642-.153 1.193-.46 1.652-.31.458-.682.687-1.12.687-.432 0-.802-.23-1.11-.688-.307-.46-.462-1.01-.462-1.653z" fill="#FFF" fill-rule="evenodd"/></svg>