<svg width="18" height="18" viewBox="0 0 13 18" xmlns="http://www.w3.org/2000/svg"><title>sso-google copy</title><path d="M6.294 16.928c-2.512 0-4.188-1.142-4.188-2.804s1.57-2.285 2.094-2.492c.943-.312 2.304-.312 2.513-.312h.524c1.884 1.246 2.617 1.87 2.617 3.116 0 1.454-1.256 2.492-3.56 2.492zm0-9.347c-1.99 0-2.93-2.59-2.93-4.15 0-.62.103-1.35.522-1.87C4.2 1.146 4.933.83 5.562.83c1.99 0 3.036 2.7 3.036 4.363 0 .415-.105 1.142-.628 1.66-.42.417-1.047.728-1.676.728zm3.142 2.6l-.838-.62c-.314-.21-.628-.52-.628-1.04s.314-.83.628-1.14c1.047-.73 2.094-1.56 2.094-3.324 0-1.764-1.152-2.7-1.675-3.114h1.466L11.948 0h-4.92C5.665 0 3.99.104 2.63 1.246c-1.047.83-1.466 2.18-1.466 3.22 0 1.87 1.466 3.738 3.98 3.738.313 0 .522-.103.836-.103-.104.318-.21.52-.21.94 0 .728.315 1.144.63 1.56-1.048.103-3.037.207-4.503 1.14-1.467.83-1.885 1.97-1.885 2.8 0 1.766 1.57 3.428 5.13 3.428 4.084 0 6.283-2.285 6.283-4.466 0-1.66-.942-2.383-1.99-3.32z" fill="#FFF" fill-rule="evenodd"/></svg>