<?xml version="1.0" encoding="UTF-8" standalone="no"?>
<svg width="21px" height="18px" viewBox="0 0 21 18" version="1.1" xmlns="http://www.w3.org/2000/svg" xmlns:xlink="http://www.w3.org/1999/xlink" xmlns:sketch="http://www.bohemiancoding.com/sketch/ns">
    <!-- Generator: Sketch 3.3.2 (12043) - http://www.bohemiancoding.com/sketch -->
    <title>sso-twitter</title>
    <desc>Created with Sketch.</desc>
    <defs></defs>
    <g id="Page-1" stroke="none" stroke-width="1" fill="none" fill-rule="evenodd" sketch:type="MSPage">
        <g id="152---iPad" sketch:type="MSArtboardGroup" transform="translate(-23.000000, -41.000000)" fill="#FFFFFF">
            <g id="sso-twitter" sketch:type="MSLayerGroup" transform="translate(22.000000, 40.000000)">
                <path d="M21.999,3.01787438 C21.2266179,3.36042617 20.3958313,3.59207519 19.5243586,3.69641567 C20.4135495,3.1629011 21.0966844,2.31898997 21.4188931,1.31299016 C20.5861379,1.80647474 19.6641355,2.16543227 18.6830724,2.35836374 C17.8969094,1.52101491 16.7773819,0.998 15.5384206,0.998 C13.1589325,0.998 11.230274,2.92665848 11.230274,5.30614662 C11.230274,5.64410481 11.2683353,5.97287579 11.341833,6.28786594 C7.76144492,6.10805906 4.58660664,4.39267517 2.46173554,1.78613162 C2.09096588,2.42267423 1.87834752,3.16224487 1.87834752,3.95234518 C1.87834752,5.44723596 2.6389175,6.76560101 3.79519387,7.53863936 C3.08909093,7.51632755 2.42498669,7.32273985 1.84356736,6.99987494 C1.84291113,7.01759314 1.84291113,7.03596756 1.84291113,7.05434199 C1.84291113,9.14180801 3.32795847,10.8827849 5.29861564,11.2784912 C4.93703319,11.3769257 4.55642008,11.429424 4.16333861,11.429424 C3.88575354,11.429424 3.61604322,11.4025186 3.35289519,11.3519889 C3.90084682,13.0634355 5.49220334,14.308959 7.37755067,14.3437392 C5.903003,15.4993593 4.04521731,16.1877441 2.02665539,16.1877441 C1.67885375,16.1877441 1.33630196,16.167401 0.999,16.127371 C2.90534668,17.3499265 5.16999466,18.063248 7.60329362,18.063248 C15.527921,18.063248 19.8610043,11.4983281 19.8610043,5.80488103 C19.8610043,5.61785563 19.8570669,5.43214268 19.848536,5.2477422 C20.6904784,4.64007369 21.4208618,3.88147239 21.9983438,3.01787438 L21.999,3.01787438 Z" id="Shape" sketch:type="MSShapeGroup"></path>
            </g>
        </g>
    </g>
</svg>