<svg width="21" height="21" viewBox="0 0 21 21" xmlns="http://www.w3.org/2000/svg"><title>sso-linkedin</title><path d="M17.5 0h-14C1.575 0 0 1.575 0 3.5v14C0 19.426 1.575 21 3.5 21h14c1.925 0 3.5-1.574 3.5-3.5v-14C21 1.575 19.425 0 17.5 0zM6.456 17.58H3.28V8.027h3.176v9.555zM4.868 6.72h-.02c-1.067 0-1.756-.733-1.756-1.65 0-.938.71-1.65 1.797-1.65 1.08 0 1.75.712 1.77 1.65 0 .917-.69 1.65-1.798 1.65zm13.04 10.86h-3.176v-5.11c0-1.286-.46-2.162-1.608-2.162-.878 0-1.4.59-1.63 1.162-.084.204-.104.49-.104.774v5.336H8.214s.042-8.658 0-9.555h3.176V9.38c.422-.652 1.176-1.58 2.862-1.58 2.09 0 3.657 1.367 3.657 4.3v5.48H17.9z" fill="#FFF" fill-rule="evenodd"/></svg>