<svg width="414" height="70" viewBox="0 0 414 70" fill="none" xmlns="http://www.w3.org/2000/svg">
<rect x="0.5" y="0.5" width="413" height="69" fill="white"/>
<rect x="0.5" y="0.5" width="413" height="69" stroke="#D7DADE"/>
<rect x="16.5" y="16.5" width="118.333" height="37" rx="3.5" fill="#2B7ABC"/>
<rect x="16.5" y="16.5" width="118.333" height="37" rx="3.5" stroke="#0E68B3"/>
<path d="M56.654 39.768C57.0967 39.768 57.478 39.7173 57.798 39.616C58.118 39.5147 58.3793 39.3733 58.582 39.192C58.79 39.0053 58.942 38.7867 59.038 38.536C59.134 38.28 59.182 38 59.182 37.696C59.182 37.104 58.9713 36.6373 58.55 36.296C58.1287 35.9493 57.4967 35.776 56.654 35.776H54.174V39.768H56.654ZM54.174 30.76V34.672H56.222C56.6593 34.672 57.038 34.624 57.358 34.528C57.6833 34.432 57.95 34.2987 58.158 34.128C58.3713 33.9573 58.5287 33.752 58.63 33.512C58.7313 33.2667 58.782 33 58.782 32.712C58.782 32.0347 58.5793 31.5413 58.174 31.232C57.7687 30.9173 57.1393 30.76 56.286 30.76H54.174ZM56.286 29.536C56.99 29.536 57.5953 29.6053 58.102 29.744C58.614 29.8827 59.0327 30.08 59.358 30.336C59.6887 30.592 59.9313 30.9067 60.086 31.28C60.2407 31.648 60.318 32.064 60.318 32.528C60.318 32.8107 60.2727 33.0827 60.182 33.344C60.0967 33.6 59.966 33.84 59.79 34.064C59.614 34.288 59.39 34.4907 59.118 34.672C58.8513 34.848 58.5367 34.992 58.174 35.104C59.0167 35.264 59.6487 35.5653 60.07 36.008C60.4967 36.4453 60.71 37.0213 60.71 37.736C60.71 38.2213 60.6193 38.664 60.438 39.064C60.262 39.464 60.0007 39.808 59.654 40.096C59.3127 40.384 58.8913 40.608 58.39 40.768C57.8887 40.9227 57.318 41 56.678 41H52.63V29.536H56.286ZM69.1299 32.896V41H68.2819C68.0792 41 67.9512 40.9013 67.8979 40.704L67.7859 39.832C67.4339 40.2213 67.0392 40.536 66.6019 40.776C66.1646 41.0107 65.6632 41.128 65.0979 41.128C64.6552 41.128 64.2632 41.056 63.9219 40.912C63.5859 40.7627 63.3032 40.5547 63.0739 40.288C62.8446 40.0213 62.6712 39.6987 62.5539 39.32C62.4419 38.9413 62.3859 38.5227 62.3859 38.064V32.896H63.8099V38.064C63.8099 38.6773 63.9486 39.152 64.2259 39.488C64.5086 39.824 64.9379 39.992 65.5139 39.992C65.9352 39.992 66.3272 39.8933 66.6899 39.696C67.0579 39.4933 67.3966 39.216 67.7059 38.864V32.896H69.1299ZM73.8758 41.128C73.2358 41.128 72.7424 40.9493 72.3958 40.592C72.0544 40.2347 71.8838 39.72 71.8838 39.048V34.088H70.9078C70.8224 34.088 70.7504 34.064 70.6918 34.016C70.6331 33.9627 70.6038 33.8827 70.6038 33.776V33.208L71.9318 33.04L72.2598 30.536C72.2758 30.456 72.3104 30.392 72.3638 30.344C72.4224 30.2907 72.4971 30.264 72.5878 30.264H73.3078V33.056H75.6518V34.088H73.3078V38.952C73.3078 39.2933 73.3904 39.5467 73.5558 39.712C73.7211 39.8773 73.9344 39.96 74.1958 39.96C74.3451 39.96 74.4731 39.9413 74.5798 39.904C74.6918 39.8613 74.7878 39.816 74.8678 39.768C74.9478 39.72 75.0144 39.6773 75.0678 39.64C75.1264 39.5973 75.1771 39.576 75.2198 39.576C75.2944 39.576 75.3611 39.6213 75.4198 39.712L75.8358 40.392C75.5904 40.6213 75.2944 40.8027 74.9478 40.936C74.6011 41.064 74.2438 41.128 73.8758 41.128ZM79.6101 41.128C78.9701 41.128 78.4768 40.9493 78.1301 40.592C77.7888 40.2347 77.6181 39.72 77.6181 39.048V34.088H76.6421C76.5568 34.088 76.4848 34.064 76.4261 34.016C76.3675 33.9627 76.3381 33.8827 76.3381 33.776V33.208L77.6661 33.04L77.9941 30.536C78.0101 30.456 78.0448 30.392 78.0981 30.344C78.1568 30.2907 78.2315 30.264 78.3221 30.264H79.0421V33.056H81.3861V34.088H79.0421V38.952C79.0421 39.2933 79.1248 39.5467 79.2901 39.712C79.4555 39.8773 79.6688 39.96 79.9301 39.96C80.0795 39.96 80.2075 39.9413 80.3141 39.904C80.4261 39.8613 80.5221 39.816 80.6021 39.768C80.6821 39.72 80.7488 39.6773 80.8021 39.64C80.8608 39.5973 80.9115 39.576 80.9541 39.576C81.0288 39.576 81.0955 39.6213 81.1541 39.712L81.5701 40.392C81.3248 40.6213 81.0288 40.8027 80.6821 40.936C80.3355 41.064 79.9781 41.128 79.6101 41.128ZM86.2256 32.768C86.8176 32.768 87.351 32.8667 87.8256 33.064C88.3003 33.2613 88.7056 33.5413 89.0416 33.904C89.3776 34.2667 89.6336 34.7067 89.8096 35.224C89.991 35.736 90.0816 36.3093 90.0816 36.944C90.0816 37.584 89.991 38.16 89.8096 38.672C89.6336 39.184 89.3776 39.6213 89.0416 39.984C88.7056 40.3467 88.3003 40.6267 87.8256 40.824C87.351 41.016 86.8176 41.112 86.2256 41.112C85.6283 41.112 85.0896 41.016 84.6096 40.824C84.135 40.6267 83.7296 40.3467 83.3936 39.984C83.0576 39.6213 82.799 39.184 82.6176 38.672C82.4416 38.16 82.3536 37.584 82.3536 36.944C82.3536 36.3093 82.4416 35.736 82.6176 35.224C82.799 34.7067 83.0576 34.2667 83.3936 33.904C83.7296 33.5413 84.135 33.2613 84.6096 33.064C85.0896 32.8667 85.6283 32.768 86.2256 32.768ZM86.2256 40C87.0256 40 87.623 39.7333 88.0176 39.2C88.4123 38.6613 88.6096 37.912 88.6096 36.952C88.6096 35.9867 88.4123 35.2347 88.0176 34.696C87.623 34.1573 87.0256 33.888 86.2256 33.888C85.8203 33.888 85.4656 33.9573 85.1616 34.096C84.863 34.2347 84.6123 34.4347 84.4096 34.696C84.2123 34.9573 84.063 35.28 83.9616 35.664C83.8656 36.0427 83.8176 36.472 83.8176 36.952C83.8176 37.912 84.015 38.6613 84.4096 39.2C84.8096 39.7333 85.415 40 86.2256 40ZM93.2318 34.072C93.4078 33.8747 93.5944 33.696 93.7918 33.536C93.9891 33.376 94.1971 33.24 94.4158 33.128C94.6398 33.0107 94.8744 32.9227 95.1198 32.864C95.3704 32.8 95.6398 32.768 95.9278 32.768C96.3704 32.768 96.7598 32.8427 97.0958 32.992C97.4371 33.136 97.7198 33.344 97.9438 33.616C98.1731 33.8827 98.3464 34.2053 98.4638 34.584C98.5811 34.9627 98.6398 35.3813 98.6398 35.84V41H97.2078V35.84C97.2078 35.2267 97.0664 34.752 96.7838 34.416C96.5064 34.0747 96.0824 33.904 95.5118 33.904C95.0904 33.904 94.6958 34.0053 94.3278 34.208C93.9651 34.4107 93.6291 34.6853 93.3198 35.032V41H91.8878V32.896H92.7438C92.9464 32.896 93.0718 32.9947 93.1198 33.192L93.2318 34.072Z" fill="white"/>
<rect x="147.834" y="16.5" width="118.333" height="37" rx="3.5" fill="#2B7ABC"/>
<rect x="147.834" y="16.5" width="118.333" height="37" rx="3.5" stroke="#0E68B3"/>
<path d="M187.988 39.768C188.431 39.768 188.812 39.7173 189.132 39.616C189.452 39.5147 189.713 39.3733 189.916 39.192C190.124 39.0053 190.276 38.7867 190.372 38.536C190.468 38.28 190.516 38 190.516 37.696C190.516 37.104 190.305 36.6373 189.884 36.296C189.463 35.9493 188.831 35.776 187.988 35.776H185.508V39.768H187.988ZM185.508 30.76V34.672H187.556C187.993 34.672 188.372 34.624 188.692 34.528C189.017 34.432 189.284 34.2987 189.492 34.128C189.705 33.9573 189.863 33.752 189.964 33.512C190.065 33.2667 190.116 33 190.116 32.712C190.116 32.0347 189.913 31.5413 189.508 31.232C189.103 30.9173 188.473 30.76 187.62 30.76H185.508ZM187.62 29.536C188.324 29.536 188.929 29.6053 189.436 29.744C189.948 29.8827 190.367 30.08 190.692 30.336C191.023 30.592 191.265 30.9067 191.42 31.28C191.575 31.648 191.652 32.064 191.652 32.528C191.652 32.8107 191.607 33.0827 191.516 33.344C191.431 33.6 191.3 33.84 191.124 34.064C190.948 34.288 190.724 34.4907 190.452 34.672C190.185 34.848 189.871 34.992 189.508 35.104C190.351 35.264 190.983 35.5653 191.404 36.008C191.831 36.4453 192.044 37.0213 192.044 37.736C192.044 38.2213 191.953 38.664 191.772 39.064C191.596 39.464 191.335 39.808 190.988 40.096C190.647 40.384 190.225 40.608 189.724 40.768C189.223 40.9227 188.652 41 188.012 41H183.964V29.536H187.62ZM200.464 32.896V41H199.616C199.413 41 199.285 40.9013 199.232 40.704L199.12 39.832C198.768 40.2213 198.373 40.536 197.936 40.776C197.499 41.0107 196.997 41.128 196.432 41.128C195.989 41.128 195.597 41.056 195.256 40.912C194.92 40.7627 194.637 40.5547 194.408 40.288C194.179 40.0213 194.005 39.6987 193.888 39.32C193.776 38.9413 193.72 38.5227 193.72 38.064V32.896H195.144V38.064C195.144 38.6773 195.283 39.152 195.56 39.488C195.843 39.824 196.272 39.992 196.848 39.992C197.269 39.992 197.661 39.8933 198.024 39.696C198.392 39.4933 198.731 39.216 199.04 38.864V32.896H200.464ZM205.21 41.128C204.57 41.128 204.076 40.9493 203.73 40.592C203.388 40.2347 203.218 39.72 203.218 39.048V34.088H202.242C202.156 34.088 202.084 34.064 202.026 34.016C201.967 33.9627 201.938 33.8827 201.938 33.776V33.208L203.266 33.04L203.594 30.536C203.61 30.456 203.644 30.392 203.698 30.344C203.756 30.2907 203.831 30.264 203.922 30.264H204.642V33.056H206.986V34.088H204.642V38.952C204.642 39.2933 204.724 39.5467 204.89 39.712C205.055 39.8773 205.268 39.96 205.53 39.96C205.679 39.96 205.807 39.9413 205.914 39.904C206.026 39.8613 206.122 39.816 206.202 39.768C206.282 39.72 206.348 39.6773 206.402 39.64C206.46 39.5973 206.511 39.576 206.554 39.576C206.628 39.576 206.695 39.6213 206.754 39.712L207.17 40.392C206.924 40.6213 206.628 40.8027 206.282 40.936C205.935 41.064 205.578 41.128 205.21 41.128ZM210.944 41.128C210.304 41.128 209.811 40.9493 209.464 40.592C209.123 40.2347 208.952 39.72 208.952 39.048V34.088H207.976C207.891 34.088 207.819 34.064 207.76 34.016C207.701 33.9627 207.672 33.8827 207.672 33.776V33.208L209 33.04L209.328 30.536C209.344 30.456 209.379 30.392 209.432 30.344C209.491 30.2907 209.565 30.264 209.656 30.264H210.376V33.056H212.72V34.088H210.376V38.952C210.376 39.2933 210.459 39.5467 210.624 39.712C210.789 39.8773 211.003 39.96 211.264 39.96C211.413 39.96 211.541 39.9413 211.648 39.904C211.76 39.8613 211.856 39.816 211.936 39.768C212.016 39.72 212.083 39.6773 212.136 39.64C212.195 39.5973 212.245 39.576 212.288 39.576C212.363 39.576 212.429 39.6213 212.488 39.712L212.904 40.392C212.659 40.6213 212.363 40.8027 212.016 40.936C211.669 41.064 211.312 41.128 210.944 41.128ZM217.56 32.768C218.152 32.768 218.685 32.8667 219.16 33.064C219.634 33.2613 220.04 33.5413 220.376 33.904C220.712 34.2667 220.968 34.7067 221.144 35.224C221.325 35.736 221.416 36.3093 221.416 36.944C221.416 37.584 221.325 38.16 221.144 38.672C220.968 39.184 220.712 39.6213 220.376 39.984C220.04 40.3467 219.634 40.6267 219.16 40.824C218.685 41.016 218.152 41.112 217.56 41.112C216.962 41.112 216.424 41.016 215.944 40.824C215.469 40.6267 215.064 40.3467 214.728 39.984C214.392 39.6213 214.133 39.184 213.952 38.672C213.776 38.16 213.688 37.584 213.688 36.944C213.688 36.3093 213.776 35.736 213.952 35.224C214.133 34.7067 214.392 34.2667 214.728 33.904C215.064 33.5413 215.469 33.2613 215.944 33.064C216.424 32.8667 216.962 32.768 217.56 32.768ZM217.56 40C218.36 40 218.957 39.7333 219.352 39.2C219.746 38.6613 219.944 37.912 219.944 36.952C219.944 35.9867 219.746 35.2347 219.352 34.696C218.957 34.1573 218.36 33.888 217.56 33.888C217.154 33.888 216.8 33.9573 216.496 34.096C216.197 34.2347 215.946 34.4347 215.744 34.696C215.546 34.9573 215.397 35.28 215.296 35.664C215.2 36.0427 215.152 36.472 215.152 36.952C215.152 37.912 215.349 38.6613 215.744 39.2C216.144 39.7333 216.749 40 217.56 40ZM224.566 34.072C224.742 33.8747 224.928 33.696 225.126 33.536C225.323 33.376 225.531 33.24 225.75 33.128C225.974 33.0107 226.208 32.9227 226.454 32.864C226.704 32.8 226.974 32.768 227.262 32.768C227.704 32.768 228.094 32.8427 228.43 32.992C228.771 33.136 229.054 33.344 229.278 33.616C229.507 33.8827 229.68 34.2053 229.798 34.584C229.915 34.9627 229.974 35.3813 229.974 35.84V41H228.542V35.84C228.542 35.2267 228.4 34.752 228.118 34.416C227.84 34.0747 227.416 33.904 226.846 33.904C226.424 33.904 226.03 34.0053 225.662 34.208C225.299 34.4107 224.963 34.6853 224.654 35.032V41H223.222V32.896H224.078C224.28 32.896 224.406 32.9947 224.454 33.192L224.566 34.072Z" fill="white"/>
<rect x="279.166" y="16.5" width="118.333" height="37" rx="3.5" fill="#2B7ABC"/>
<rect x="279.166" y="16.5" width="118.333" height="37" rx="3.5" stroke="#0E68B3"/>
<path d="M319.32 39.768C319.763 39.768 320.144 39.7173 320.464 39.616C320.784 39.5147 321.045 39.3733 321.248 39.192C321.456 39.0053 321.608 38.7867 321.704 38.536C321.8 38.28 321.848 38 321.848 37.696C321.848 37.104 321.637 36.6373 321.216 36.296C320.795 35.9493 320.163 35.776 319.32 35.776H316.84V39.768H319.32ZM316.84 30.76V34.672H318.888C319.325 34.672 319.704 34.624 320.024 34.528C320.349 34.432 320.616 34.2987 320.824 34.128C321.037 33.9573 321.195 33.752 321.296 33.512C321.397 33.2667 321.448 33 321.448 32.712C321.448 32.0347 321.245 31.5413 320.84 31.232C320.435 30.9173 319.805 30.76 318.952 30.76H316.84ZM318.952 29.536C319.656 29.536 320.261 29.6053 320.768 29.744C321.28 29.8827 321.699 30.08 322.024 30.336C322.355 30.592 322.597 30.9067 322.752 31.28C322.907 31.648 322.984 32.064 322.984 32.528C322.984 32.8107 322.939 33.0827 322.848 33.344C322.763 33.6 322.632 33.84 322.456 34.064C322.28 34.288 322.056 34.4907 321.784 34.672C321.517 34.848 321.203 34.992 320.84 35.104C321.683 35.264 322.315 35.5653 322.736 36.008C323.163 36.4453 323.376 37.0213 323.376 37.736C323.376 38.2213 323.285 38.664 323.104 39.064C322.928 39.464 322.667 39.808 322.32 40.096C321.979 40.384 321.557 40.608 321.056 40.768C320.555 40.9227 319.984 41 319.344 41H315.296V29.536H318.952ZM331.796 32.896V41H330.948C330.745 41 330.617 40.9013 330.564 40.704L330.452 39.832C330.1 40.2213 329.705 40.536 329.268 40.776C328.831 41.0107 328.329 41.128 327.764 41.128C327.321 41.128 326.929 41.056 326.588 40.912C326.252 40.7627 325.969 40.5547 325.74 40.288C325.511 40.0213 325.337 39.6987 325.22 39.32C325.108 38.9413 325.052 38.5227 325.052 38.064V32.896H326.476V38.064C326.476 38.6773 326.615 39.152 326.892 39.488C327.175 39.824 327.604 39.992 328.18 39.992C328.601 39.992 328.993 39.8933 329.356 39.696C329.724 39.4933 330.063 39.216 330.372 38.864V32.896H331.796ZM336.542 41.128C335.902 41.128 335.408 40.9493 335.062 40.592C334.72 40.2347 334.55 39.72 334.55 39.048V34.088H333.574C333.488 34.088 333.416 34.064 333.358 34.016C333.299 33.9627 333.27 33.8827 333.27 33.776V33.208L334.598 33.04L334.926 30.536C334.942 30.456 334.976 30.392 335.03 30.344C335.088 30.2907 335.163 30.264 335.254 30.264H335.974V33.056H338.318V34.088H335.974V38.952C335.974 39.2933 336.056 39.5467 336.222 39.712C336.387 39.8773 336.6 39.96 336.862 39.96C337.011 39.96 337.139 39.9413 337.246 39.904C337.358 39.8613 337.454 39.816 337.534 39.768C337.614 39.72 337.68 39.6773 337.734 39.64C337.792 39.5973 337.843 39.576 337.886 39.576C337.96 39.576 338.027 39.6213 338.086 39.712L338.502 40.392C338.256 40.6213 337.96 40.8027 337.614 40.936C337.267 41.064 336.91 41.128 336.542 41.128ZM342.276 41.128C341.636 41.128 341.143 40.9493 340.796 40.592C340.455 40.2347 340.284 39.72 340.284 39.048V34.088H339.308C339.223 34.088 339.151 34.064 339.092 34.016C339.033 33.9627 339.004 33.8827 339.004 33.776V33.208L340.332 33.04L340.66 30.536C340.676 30.456 340.711 30.392 340.764 30.344C340.823 30.2907 340.897 30.264 340.988 30.264H341.708V33.056H344.052V34.088H341.708V38.952C341.708 39.2933 341.791 39.5467 341.956 39.712C342.121 39.8773 342.335 39.96 342.596 39.96C342.745 39.96 342.873 39.9413 342.98 39.904C343.092 39.8613 343.188 39.816 343.268 39.768C343.348 39.72 343.415 39.6773 343.468 39.64C343.527 39.5973 343.577 39.576 343.62 39.576C343.695 39.576 343.761 39.6213 343.82 39.712L344.236 40.392C343.991 40.6213 343.695 40.8027 343.348 40.936C343.001 41.064 342.644 41.128 342.276 41.128ZM348.892 32.768C349.484 32.768 350.017 32.8667 350.492 33.064C350.966 33.2613 351.372 33.5413 351.708 33.904C352.044 34.2667 352.3 34.7067 352.476 35.224C352.657 35.736 352.748 36.3093 352.748 36.944C352.748 37.584 352.657 38.16 352.476 38.672C352.3 39.184 352.044 39.6213 351.708 39.984C351.372 40.3467 350.966 40.6267 350.492 40.824C350.017 41.016 349.484 41.112 348.892 41.112C348.294 41.112 347.756 41.016 347.276 40.824C346.801 40.6267 346.396 40.3467 346.06 39.984C345.724 39.6213 345.465 39.184 345.284 38.672C345.108 38.16 345.02 37.584 345.02 36.944C345.02 36.3093 345.108 35.736 345.284 35.224C345.465 34.7067 345.724 34.2667 346.06 33.904C346.396 33.5413 346.801 33.2613 347.276 33.064C347.756 32.8667 348.294 32.768 348.892 32.768ZM348.892 40C349.692 40 350.289 39.7333 350.684 39.2C351.078 38.6613 351.276 37.912 351.276 36.952C351.276 35.9867 351.078 35.2347 350.684 34.696C350.289 34.1573 349.692 33.888 348.892 33.888C348.486 33.888 348.132 33.9573 347.828 34.096C347.529 34.2347 347.278 34.4347 347.076 34.696C346.878 34.9573 346.729 35.28 346.628 35.664C346.532 36.0427 346.484 36.472 346.484 36.952C346.484 37.912 346.681 38.6613 347.076 39.2C347.476 39.7333 348.081 40 348.892 40ZM355.898 34.072C356.074 33.8747 356.26 33.696 356.458 33.536C356.655 33.376 356.863 33.24 357.082 33.128C357.306 33.0107 357.54 32.9227 357.786 32.864C358.036 32.8 358.306 32.768 358.594 32.768C359.036 32.768 359.426 32.8427 359.762 32.992C360.103 33.136 360.386 33.344 360.61 33.616C360.839 33.8827 361.012 34.2053 361.13 34.584C361.247 34.9627 361.306 35.3813 361.306 35.84V41H359.874V35.84C359.874 35.2267 359.732 34.752 359.45 34.416C359.172 34.0747 358.748 33.904 358.178 33.904C357.756 33.904 357.362 34.0053 356.994 34.208C356.631 34.4107 356.295 34.6853 355.986 35.032V41H354.554V32.896H355.41C355.612 32.896 355.738 32.9947 355.786 33.192L355.898 34.072Z" fill="white"/>
</svg>
