<svg width="414" height="70" viewBox="0 0 414 70" fill="none" xmlns="http://www.w3.org/2000/svg">
<rect x="0.5" y="0.5" width="413" height="69" fill="white"/>
<rect x="0.5" y="0.5" width="413" height="69" stroke="#D7DADE"/>
<rect x="16.5" y="16.5" width="85.5" height="37" rx="3.5" fill="#2B7ABC"/>
<rect x="16.5" y="16.5" width="85.5" height="37" rx="3.5" stroke="#0E68B3"/>
<path d="M40.238 39.768C40.6807 39.768 41.062 39.7173 41.382 39.616C41.702 39.5147 41.9633 39.3733 42.166 39.192C42.374 39.0053 42.526 38.7867 42.622 38.536C42.718 38.28 42.766 38 42.766 37.696C42.766 37.104 42.5553 36.6373 42.134 36.296C41.7127 35.9493 41.0807 35.776 40.238 35.776H37.758V39.768H40.238ZM37.758 30.76V34.672H39.806C40.2433 34.672 40.622 34.624 40.942 34.528C41.2673 34.432 41.534 34.2987 41.742 34.128C41.9553 33.9573 42.1127 33.752 42.214 33.512C42.3153 33.2667 42.366 33 42.366 32.712C42.366 32.0347 42.1633 31.5413 41.758 31.232C41.3527 30.9173 40.7233 30.76 39.87 30.76H37.758ZM39.87 29.536C40.574 29.536 41.1793 29.6053 41.686 29.744C42.198 29.8827 42.6167 30.08 42.942 30.336C43.2727 30.592 43.5153 30.9067 43.67 31.28C43.8247 31.648 43.902 32.064 43.902 32.528C43.902 32.8107 43.8567 33.0827 43.766 33.344C43.6807 33.6 43.55 33.84 43.374 34.064C43.198 34.288 42.974 34.4907 42.702 34.672C42.4353 34.848 42.1207 34.992 41.758 35.104C42.6007 35.264 43.2327 35.5653 43.654 36.008C44.0807 36.4453 44.294 37.0213 44.294 37.736C44.294 38.2213 44.2033 38.664 44.022 39.064C43.846 39.464 43.5847 39.808 43.238 40.096C42.8967 40.384 42.4753 40.608 41.974 40.768C41.4727 40.9227 40.902 41 40.262 41H36.214V29.536H39.87ZM52.7139 32.896V41H51.8659C51.6632 41 51.5352 40.9013 51.4819 40.704L51.3699 39.832C51.0179 40.2213 50.6232 40.536 50.1859 40.776C49.7485 41.0107 49.2472 41.128 48.6819 41.128C48.2392 41.128 47.8472 41.056 47.5059 40.912C47.1699 40.7627 46.8872 40.5547 46.6579 40.288C46.4285 40.0213 46.2552 39.6987 46.1379 39.32C46.0259 38.9413 45.9699 38.5227 45.9699 38.064V32.896H47.3939V38.064C47.3939 38.6773 47.5325 39.152 47.8099 39.488C48.0925 39.824 48.5219 39.992 49.0979 39.992C49.5192 39.992 49.9112 39.8933 50.2739 39.696C50.6419 39.4933 50.9805 39.216 51.2899 38.864V32.896H52.7139ZM57.4598 41.128C56.8198 41.128 56.3264 40.9493 55.9798 40.592C55.6384 40.2347 55.4678 39.72 55.4678 39.048V34.088H54.4918C54.4064 34.088 54.3344 34.064 54.2758 34.016C54.2171 33.9627 54.1878 33.8827 54.1878 33.776V33.208L55.5158 33.04L55.8438 30.536C55.8598 30.456 55.8944 30.392 55.9478 30.344C56.0064 30.2907 56.0811 30.264 56.1718 30.264H56.8918V33.056H59.2358V34.088H56.8918V38.952C56.8918 39.2933 56.9744 39.5467 57.1398 39.712C57.3051 39.8773 57.5184 39.96 57.7798 39.96C57.9291 39.96 58.0571 39.9413 58.1638 39.904C58.2758 39.8613 58.3718 39.816 58.4518 39.768C58.5318 39.72 58.5984 39.6773 58.6518 39.64C58.7104 39.5973 58.7611 39.576 58.8038 39.576C58.8784 39.576 58.9451 39.6213 59.0038 39.712L59.4198 40.392C59.1744 40.6213 58.8784 40.8027 58.5318 40.936C58.1851 41.064 57.8278 41.128 57.4598 41.128ZM63.1941 41.128C62.5541 41.128 62.0608 40.9493 61.7141 40.592C61.3728 40.2347 61.2021 39.72 61.2021 39.048V34.088H60.2261C60.1408 34.088 60.0688 34.064 60.0101 34.016C59.9515 33.9627 59.9221 33.8827 59.9221 33.776V33.208L61.2501 33.04L61.5781 30.536C61.5941 30.456 61.6288 30.392 61.6821 30.344C61.7408 30.2907 61.8155 30.264 61.9061 30.264H62.6261V33.056H64.9701V34.088H62.6261V38.952C62.6261 39.2933 62.7088 39.5467 62.8741 39.712C63.0395 39.8773 63.2528 39.96 63.5141 39.96C63.6635 39.96 63.7915 39.9413 63.8981 39.904C64.0101 39.8613 64.1061 39.816 64.1861 39.768C64.2661 39.72 64.3328 39.6773 64.3861 39.64C64.4448 39.5973 64.4955 39.576 64.5381 39.576C64.6128 39.576 64.6795 39.6213 64.7381 39.712L65.1541 40.392C64.9088 40.6213 64.6128 40.8027 64.2661 40.936C63.9195 41.064 63.5621 41.128 63.1941 41.128ZM69.8096 32.768C70.4016 32.768 70.935 32.8667 71.4096 33.064C71.8843 33.2613 72.2896 33.5413 72.6256 33.904C72.9616 34.2667 73.2176 34.7067 73.3936 35.224C73.575 35.736 73.6656 36.3093 73.6656 36.944C73.6656 37.584 73.575 38.16 73.3936 38.672C73.2176 39.184 72.9616 39.6213 72.6256 39.984C72.2896 40.3467 71.8843 40.6267 71.4096 40.824C70.935 41.016 70.4016 41.112 69.8096 41.112C69.2123 41.112 68.6736 41.016 68.1936 40.824C67.719 40.6267 67.3136 40.3467 66.9776 39.984C66.6416 39.6213 66.383 39.184 66.2016 38.672C66.0256 38.16 65.9376 37.584 65.9376 36.944C65.9376 36.3093 66.0256 35.736 66.2016 35.224C66.383 34.7067 66.6416 34.2667 66.9776 33.904C67.3136 33.5413 67.719 33.2613 68.1936 33.064C68.6736 32.8667 69.2123 32.768 69.8096 32.768ZM69.8096 40C70.6096 40 71.207 39.7333 71.6016 39.2C71.9963 38.6613 72.1936 37.912 72.1936 36.952C72.1936 35.9867 71.9963 35.2347 71.6016 34.696C71.207 34.1573 70.6096 33.888 69.8096 33.888C69.4043 33.888 69.0496 33.9573 68.7456 34.096C68.447 34.2347 68.1963 34.4347 67.9936 34.696C67.7963 34.9573 67.647 35.28 67.5456 35.664C67.4496 36.0427 67.4016 36.472 67.4016 36.952C67.4016 37.912 67.599 38.6613 67.9936 39.2C68.3936 39.7333 68.999 40 69.8096 40ZM76.8158 34.072C76.9918 33.8747 77.1784 33.696 77.3758 33.536C77.5731 33.376 77.7811 33.24 77.9998 33.128C78.2238 33.0107 78.4584 32.9227 78.7038 32.864C78.9544 32.8 79.2238 32.768 79.5118 32.768C79.9544 32.768 80.3438 32.8427 80.6798 32.992C81.0211 33.136 81.3038 33.344 81.5278 33.616C81.7571 33.8827 81.9304 34.2053 82.0478 34.584C82.1651 34.9627 82.2238 35.3813 82.2238 35.84V41H80.7918V35.84C80.7918 35.2267 80.6504 34.752 80.3678 34.416C80.0904 34.0747 79.6664 33.904 79.0958 33.904C78.6744 33.904 78.2798 34.0053 77.9118 34.208C77.5491 34.4107 77.2131 34.6853 76.9038 35.032V41H75.4718V32.896H76.3278C76.5304 32.896 76.6558 32.9947 76.7038 33.192L76.8158 34.072Z" fill="white"/>
<rect x="115" y="16.5" width="85.5" height="37" rx="3.5" fill="#2B7ABC"/>
<rect x="115" y="16.5" width="85.5" height="37" rx="3.5" stroke="#0E68B3"/>
<path d="M138.738 39.768C139.181 39.768 139.562 39.7173 139.882 39.616C140.202 39.5147 140.463 39.3733 140.666 39.192C140.874 39.0053 141.026 38.7867 141.122 38.536C141.218 38.28 141.266 38 141.266 37.696C141.266 37.104 141.055 36.6373 140.634 36.296C140.213 35.9493 139.581 35.776 138.738 35.776H136.258V39.768H138.738ZM136.258 30.76V34.672H138.306C138.743 34.672 139.122 34.624 139.442 34.528C139.767 34.432 140.034 34.2987 140.242 34.128C140.455 33.9573 140.613 33.752 140.714 33.512C140.815 33.2667 140.866 33 140.866 32.712C140.866 32.0347 140.663 31.5413 140.258 31.232C139.853 30.9173 139.223 30.76 138.37 30.76H136.258ZM138.37 29.536C139.074 29.536 139.679 29.6053 140.186 29.744C140.698 29.8827 141.117 30.08 141.442 30.336C141.773 30.592 142.015 30.9067 142.17 31.28C142.325 31.648 142.402 32.064 142.402 32.528C142.402 32.8107 142.357 33.0827 142.266 33.344C142.181 33.6 142.05 33.84 141.874 34.064C141.698 34.288 141.474 34.4907 141.202 34.672C140.935 34.848 140.621 34.992 140.258 35.104C141.101 35.264 141.733 35.5653 142.154 36.008C142.581 36.4453 142.794 37.0213 142.794 37.736C142.794 38.2213 142.703 38.664 142.522 39.064C142.346 39.464 142.085 39.808 141.738 40.096C141.397 40.384 140.975 40.608 140.474 40.768C139.973 40.9227 139.402 41 138.762 41H134.714V29.536H138.37ZM151.214 32.896V41H150.366C150.163 41 150.035 40.9013 149.982 40.704L149.87 39.832C149.518 40.2213 149.123 40.536 148.686 40.776C148.249 41.0107 147.747 41.128 147.182 41.128C146.739 41.128 146.347 41.056 146.006 40.912C145.67 40.7627 145.387 40.5547 145.158 40.288C144.929 40.0213 144.755 39.6987 144.638 39.32C144.526 38.9413 144.47 38.5227 144.47 38.064V32.896H145.894V38.064C145.894 38.6773 146.033 39.152 146.31 39.488C146.593 39.824 147.022 39.992 147.598 39.992C148.019 39.992 148.411 39.8933 148.774 39.696C149.142 39.4933 149.481 39.216 149.79 38.864V32.896H151.214ZM155.96 41.128C155.32 41.128 154.826 40.9493 154.48 40.592C154.138 40.2347 153.968 39.72 153.968 39.048V34.088H152.992C152.906 34.088 152.834 34.064 152.776 34.016C152.717 33.9627 152.688 33.8827 152.688 33.776V33.208L154.016 33.04L154.344 30.536C154.36 30.456 154.394 30.392 154.448 30.344C154.506 30.2907 154.581 30.264 154.672 30.264H155.392V33.056H157.736V34.088H155.392V38.952C155.392 39.2933 155.474 39.5467 155.64 39.712C155.805 39.8773 156.018 39.96 156.28 39.96C156.429 39.96 156.557 39.9413 156.664 39.904C156.776 39.8613 156.872 39.816 156.952 39.768C157.032 39.72 157.098 39.6773 157.152 39.64C157.21 39.5973 157.261 39.576 157.304 39.576C157.378 39.576 157.445 39.6213 157.504 39.712L157.92 40.392C157.674 40.6213 157.378 40.8027 157.032 40.936C156.685 41.064 156.328 41.128 155.96 41.128ZM161.694 41.128C161.054 41.128 160.561 40.9493 160.214 40.592C159.873 40.2347 159.702 39.72 159.702 39.048V34.088H158.726C158.641 34.088 158.569 34.064 158.51 34.016C158.451 33.9627 158.422 33.8827 158.422 33.776V33.208L159.75 33.04L160.078 30.536C160.094 30.456 160.129 30.392 160.182 30.344C160.241 30.2907 160.315 30.264 160.406 30.264H161.126V33.056H163.47V34.088H161.126V38.952C161.126 39.2933 161.209 39.5467 161.374 39.712C161.539 39.8773 161.753 39.96 162.014 39.96C162.163 39.96 162.291 39.9413 162.398 39.904C162.51 39.8613 162.606 39.816 162.686 39.768C162.766 39.72 162.833 39.6773 162.886 39.64C162.945 39.5973 162.995 39.576 163.038 39.576C163.113 39.576 163.179 39.6213 163.238 39.712L163.654 40.392C163.409 40.6213 163.113 40.8027 162.766 40.936C162.419 41.064 162.062 41.128 161.694 41.128ZM168.31 32.768C168.902 32.768 169.435 32.8667 169.91 33.064C170.384 33.2613 170.79 33.5413 171.126 33.904C171.462 34.2667 171.718 34.7067 171.894 35.224C172.075 35.736 172.166 36.3093 172.166 36.944C172.166 37.584 172.075 38.16 171.894 38.672C171.718 39.184 171.462 39.6213 171.126 39.984C170.79 40.3467 170.384 40.6267 169.91 40.824C169.435 41.016 168.902 41.112 168.31 41.112C167.712 41.112 167.174 41.016 166.694 40.824C166.219 40.6267 165.814 40.3467 165.478 39.984C165.142 39.6213 164.883 39.184 164.702 38.672C164.526 38.16 164.438 37.584 164.438 36.944C164.438 36.3093 164.526 35.736 164.702 35.224C164.883 34.7067 165.142 34.2667 165.478 33.904C165.814 33.5413 166.219 33.2613 166.694 33.064C167.174 32.8667 167.712 32.768 168.31 32.768ZM168.31 40C169.11 40 169.707 39.7333 170.102 39.2C170.496 38.6613 170.694 37.912 170.694 36.952C170.694 35.9867 170.496 35.2347 170.102 34.696C169.707 34.1573 169.11 33.888 168.31 33.888C167.904 33.888 167.55 33.9573 167.246 34.096C166.947 34.2347 166.696 34.4347 166.494 34.696C166.296 34.9573 166.147 35.28 166.046 35.664C165.95 36.0427 165.902 36.472 165.902 36.952C165.902 37.912 166.099 38.6613 166.494 39.2C166.894 39.7333 167.499 40 168.31 40ZM175.316 34.072C175.492 33.8747 175.678 33.696 175.876 33.536C176.073 33.376 176.281 33.24 176.5 33.128C176.724 33.0107 176.958 32.9227 177.204 32.864C177.454 32.8 177.724 32.768 178.012 32.768C178.454 32.768 178.844 32.8427 179.18 32.992C179.521 33.136 179.804 33.344 180.028 33.616C180.257 33.8827 180.43 34.2053 180.548 34.584C180.665 34.9627 180.724 35.3813 180.724 35.84V41H179.292V35.84C179.292 35.2267 179.15 34.752 178.868 34.416C178.59 34.0747 178.166 33.904 177.596 33.904C177.174 33.904 176.78 34.0053 176.412 34.208C176.049 34.4107 175.713 34.6853 175.404 35.032V41H173.972V32.896H174.828C175.03 32.896 175.156 32.9947 175.204 33.192L175.316 34.072Z" fill="white"/>
<rect x="213.5" y="16.5" width="85.5" height="37" rx="3.5" fill="#2B7ABC"/>
<rect x="213.5" y="16.5" width="85.5" height="37" rx="3.5" stroke="#0E68B3"/>
<path d="M237.238 39.768C237.681 39.768 238.062 39.7173 238.382 39.616C238.702 39.5147 238.963 39.3733 239.166 39.192C239.374 39.0053 239.526 38.7867 239.622 38.536C239.718 38.28 239.766 38 239.766 37.696C239.766 37.104 239.555 36.6373 239.134 36.296C238.713 35.9493 238.081 35.776 237.238 35.776H234.758V39.768H237.238ZM234.758 30.76V34.672H236.806C237.243 34.672 237.622 34.624 237.942 34.528C238.267 34.432 238.534 34.2987 238.742 34.128C238.955 33.9573 239.113 33.752 239.214 33.512C239.315 33.2667 239.366 33 239.366 32.712C239.366 32.0347 239.163 31.5413 238.758 31.232C238.353 30.9173 237.723 30.76 236.87 30.76H234.758ZM236.87 29.536C237.574 29.536 238.179 29.6053 238.686 29.744C239.198 29.8827 239.617 30.08 239.942 30.336C240.273 30.592 240.515 30.9067 240.67 31.28C240.825 31.648 240.902 32.064 240.902 32.528C240.902 32.8107 240.857 33.0827 240.766 33.344C240.681 33.6 240.55 33.84 240.374 34.064C240.198 34.288 239.974 34.4907 239.702 34.672C239.435 34.848 239.121 34.992 238.758 35.104C239.601 35.264 240.233 35.5653 240.654 36.008C241.081 36.4453 241.294 37.0213 241.294 37.736C241.294 38.2213 241.203 38.664 241.022 39.064C240.846 39.464 240.585 39.808 240.238 40.096C239.897 40.384 239.475 40.608 238.974 40.768C238.473 40.9227 237.902 41 237.262 41H233.214V29.536H236.87ZM249.714 32.896V41H248.866C248.663 41 248.535 40.9013 248.482 40.704L248.37 39.832C248.018 40.2213 247.623 40.536 247.186 40.776C246.749 41.0107 246.247 41.128 245.682 41.128C245.239 41.128 244.847 41.056 244.506 40.912C244.17 40.7627 243.887 40.5547 243.658 40.288C243.429 40.0213 243.255 39.6987 243.138 39.32C243.026 38.9413 242.97 38.5227 242.97 38.064V32.896H244.394V38.064C244.394 38.6773 244.533 39.152 244.81 39.488C245.093 39.824 245.522 39.992 246.098 39.992C246.519 39.992 246.911 39.8933 247.274 39.696C247.642 39.4933 247.981 39.216 248.29 38.864V32.896H249.714ZM254.46 41.128C253.82 41.128 253.326 40.9493 252.98 40.592C252.638 40.2347 252.468 39.72 252.468 39.048V34.088H251.492C251.406 34.088 251.334 34.064 251.276 34.016C251.217 33.9627 251.188 33.8827 251.188 33.776V33.208L252.516 33.04L252.844 30.536C252.86 30.456 252.894 30.392 252.948 30.344C253.006 30.2907 253.081 30.264 253.172 30.264H253.892V33.056H256.236V34.088H253.892V38.952C253.892 39.2933 253.974 39.5467 254.14 39.712C254.305 39.8773 254.518 39.96 254.78 39.96C254.929 39.96 255.057 39.9413 255.164 39.904C255.276 39.8613 255.372 39.816 255.452 39.768C255.532 39.72 255.598 39.6773 255.652 39.64C255.71 39.5973 255.761 39.576 255.804 39.576C255.878 39.576 255.945 39.6213 256.004 39.712L256.42 40.392C256.174 40.6213 255.878 40.8027 255.532 40.936C255.185 41.064 254.828 41.128 254.46 41.128ZM260.194 41.128C259.554 41.128 259.061 40.9493 258.714 40.592C258.373 40.2347 258.202 39.72 258.202 39.048V34.088H257.226C257.141 34.088 257.069 34.064 257.01 34.016C256.951 33.9627 256.922 33.8827 256.922 33.776V33.208L258.25 33.04L258.578 30.536C258.594 30.456 258.629 30.392 258.682 30.344C258.741 30.2907 258.815 30.264 258.906 30.264H259.626V33.056H261.97V34.088H259.626V38.952C259.626 39.2933 259.709 39.5467 259.874 39.712C260.039 39.8773 260.253 39.96 260.514 39.96C260.663 39.96 260.791 39.9413 260.898 39.904C261.01 39.8613 261.106 39.816 261.186 39.768C261.266 39.72 261.333 39.6773 261.386 39.64C261.445 39.5973 261.495 39.576 261.538 39.576C261.613 39.576 261.679 39.6213 261.738 39.712L262.154 40.392C261.909 40.6213 261.613 40.8027 261.266 40.936C260.919 41.064 260.562 41.128 260.194 41.128ZM266.81 32.768C267.402 32.768 267.935 32.8667 268.41 33.064C268.884 33.2613 269.29 33.5413 269.626 33.904C269.962 34.2667 270.218 34.7067 270.394 35.224C270.575 35.736 270.666 36.3093 270.666 36.944C270.666 37.584 270.575 38.16 270.394 38.672C270.218 39.184 269.962 39.6213 269.626 39.984C269.29 40.3467 268.884 40.6267 268.41 40.824C267.935 41.016 267.402 41.112 266.81 41.112C266.212 41.112 265.674 41.016 265.194 40.824C264.719 40.6267 264.314 40.3467 263.978 39.984C263.642 39.6213 263.383 39.184 263.202 38.672C263.026 38.16 262.938 37.584 262.938 36.944C262.938 36.3093 263.026 35.736 263.202 35.224C263.383 34.7067 263.642 34.2667 263.978 33.904C264.314 33.5413 264.719 33.2613 265.194 33.064C265.674 32.8667 266.212 32.768 266.81 32.768ZM266.81 40C267.61 40 268.207 39.7333 268.602 39.2C268.996 38.6613 269.194 37.912 269.194 36.952C269.194 35.9867 268.996 35.2347 268.602 34.696C268.207 34.1573 267.61 33.888 266.81 33.888C266.404 33.888 266.05 33.9573 265.746 34.096C265.447 34.2347 265.196 34.4347 264.994 34.696C264.796 34.9573 264.647 35.28 264.546 35.664C264.45 36.0427 264.402 36.472 264.402 36.952C264.402 37.912 264.599 38.6613 264.994 39.2C265.394 39.7333 265.999 40 266.81 40ZM273.816 34.072C273.992 33.8747 274.178 33.696 274.376 33.536C274.573 33.376 274.781 33.24 275 33.128C275.224 33.0107 275.458 32.9227 275.704 32.864C275.954 32.8 276.224 32.768 276.512 32.768C276.954 32.768 277.344 32.8427 277.68 32.992C278.021 33.136 278.304 33.344 278.528 33.616C278.757 33.8827 278.93 34.2053 279.048 34.584C279.165 34.9627 279.224 35.3813 279.224 35.84V41H277.792V35.84C277.792 35.2267 277.65 34.752 277.368 34.416C277.09 34.0747 276.666 33.904 276.096 33.904C275.674 33.904 275.28 34.0053 274.912 34.208C274.549 34.4107 274.213 34.6853 273.904 35.032V41H272.472V32.896H273.328C273.53 32.896 273.656 32.9947 273.704 33.192L273.816 34.072Z" fill="white"/>
<rect x="312" y="16.5" width="85.5" height="37" rx="3.5" fill="#2B7ABC"/>
<rect x="312" y="16.5" width="85.5" height="37" rx="3.5" stroke="#0E68B3"/>
<path d="M335.738 39.768C336.181 39.768 336.562 39.7173 336.882 39.616C337.202 39.5147 337.463 39.3733 337.666 39.192C337.874 39.0053 338.026 38.7867 338.122 38.536C338.218 38.28 338.266 38 338.266 37.696C338.266 37.104 338.055 36.6373 337.634 36.296C337.213 35.9493 336.581 35.776 335.738 35.776H333.258V39.768H335.738ZM333.258 30.76V34.672H335.306C335.743 34.672 336.122 34.624 336.442 34.528C336.767 34.432 337.034 34.2987 337.242 34.128C337.455 33.9573 337.613 33.752 337.714 33.512C337.815 33.2667 337.866 33 337.866 32.712C337.866 32.0347 337.663 31.5413 337.258 31.232C336.853 30.9173 336.223 30.76 335.37 30.76H333.258ZM335.37 29.536C336.074 29.536 336.679 29.6053 337.186 29.744C337.698 29.8827 338.117 30.08 338.442 30.336C338.773 30.592 339.015 30.9067 339.17 31.28C339.325 31.648 339.402 32.064 339.402 32.528C339.402 32.8107 339.357 33.0827 339.266 33.344C339.181 33.6 339.05 33.84 338.874 34.064C338.698 34.288 338.474 34.4907 338.202 34.672C337.935 34.848 337.621 34.992 337.258 35.104C338.101 35.264 338.733 35.5653 339.154 36.008C339.581 36.4453 339.794 37.0213 339.794 37.736C339.794 38.2213 339.703 38.664 339.522 39.064C339.346 39.464 339.085 39.808 338.738 40.096C338.397 40.384 337.975 40.608 337.474 40.768C336.973 40.9227 336.402 41 335.762 41H331.714V29.536H335.37ZM348.214 32.896V41H347.366C347.163 41 347.035 40.9013 346.982 40.704L346.87 39.832C346.518 40.2213 346.123 40.536 345.686 40.776C345.249 41.0107 344.747 41.128 344.182 41.128C343.739 41.128 343.347 41.056 343.006 40.912C342.67 40.7627 342.387 40.5547 342.158 40.288C341.929 40.0213 341.755 39.6987 341.638 39.32C341.526 38.9413 341.47 38.5227 341.47 38.064V32.896H342.894V38.064C342.894 38.6773 343.033 39.152 343.31 39.488C343.593 39.824 344.022 39.992 344.598 39.992C345.019 39.992 345.411 39.8933 345.774 39.696C346.142 39.4933 346.481 39.216 346.79 38.864V32.896H348.214ZM352.96 41.128C352.32 41.128 351.826 40.9493 351.48 40.592C351.138 40.2347 350.968 39.72 350.968 39.048V34.088H349.992C349.906 34.088 349.834 34.064 349.776 34.016C349.717 33.9627 349.688 33.8827 349.688 33.776V33.208L351.016 33.04L351.344 30.536C351.36 30.456 351.394 30.392 351.448 30.344C351.506 30.2907 351.581 30.264 351.672 30.264H352.392V33.056H354.736V34.088H352.392V38.952C352.392 39.2933 352.474 39.5467 352.64 39.712C352.805 39.8773 353.018 39.96 353.28 39.96C353.429 39.96 353.557 39.9413 353.664 39.904C353.776 39.8613 353.872 39.816 353.952 39.768C354.032 39.72 354.098 39.6773 354.152 39.64C354.21 39.5973 354.261 39.576 354.304 39.576C354.378 39.576 354.445 39.6213 354.504 39.712L354.92 40.392C354.674 40.6213 354.378 40.8027 354.032 40.936C353.685 41.064 353.328 41.128 352.96 41.128ZM358.694 41.128C358.054 41.128 357.561 40.9493 357.214 40.592C356.873 40.2347 356.702 39.72 356.702 39.048V34.088H355.726C355.641 34.088 355.569 34.064 355.51 34.016C355.451 33.9627 355.422 33.8827 355.422 33.776V33.208L356.75 33.04L357.078 30.536C357.094 30.456 357.129 30.392 357.182 30.344C357.241 30.2907 357.315 30.264 357.406 30.264H358.126V33.056H360.47V34.088H358.126V38.952C358.126 39.2933 358.209 39.5467 358.374 39.712C358.539 39.8773 358.753 39.96 359.014 39.96C359.163 39.96 359.291 39.9413 359.398 39.904C359.51 39.8613 359.606 39.816 359.686 39.768C359.766 39.72 359.833 39.6773 359.886 39.64C359.945 39.5973 359.995 39.576 360.038 39.576C360.113 39.576 360.179 39.6213 360.238 39.712L360.654 40.392C360.409 40.6213 360.113 40.8027 359.766 40.936C359.419 41.064 359.062 41.128 358.694 41.128ZM365.31 32.768C365.902 32.768 366.435 32.8667 366.91 33.064C367.384 33.2613 367.79 33.5413 368.126 33.904C368.462 34.2667 368.718 34.7067 368.894 35.224C369.075 35.736 369.166 36.3093 369.166 36.944C369.166 37.584 369.075 38.16 368.894 38.672C368.718 39.184 368.462 39.6213 368.126 39.984C367.79 40.3467 367.384 40.6267 366.91 40.824C366.435 41.016 365.902 41.112 365.31 41.112C364.712 41.112 364.174 41.016 363.694 40.824C363.219 40.6267 362.814 40.3467 362.478 39.984C362.142 39.6213 361.883 39.184 361.702 38.672C361.526 38.16 361.438 37.584 361.438 36.944C361.438 36.3093 361.526 35.736 361.702 35.224C361.883 34.7067 362.142 34.2667 362.478 33.904C362.814 33.5413 363.219 33.2613 363.694 33.064C364.174 32.8667 364.712 32.768 365.31 32.768ZM365.31 40C366.11 40 366.707 39.7333 367.102 39.2C367.496 38.6613 367.694 37.912 367.694 36.952C367.694 35.9867 367.496 35.2347 367.102 34.696C366.707 34.1573 366.11 33.888 365.31 33.888C364.904 33.888 364.55 33.9573 364.246 34.096C363.947 34.2347 363.696 34.4347 363.494 34.696C363.296 34.9573 363.147 35.28 363.046 35.664C362.95 36.0427 362.902 36.472 362.902 36.952C362.902 37.912 363.099 38.6613 363.494 39.2C363.894 39.7333 364.499 40 365.31 40ZM372.316 34.072C372.492 33.8747 372.678 33.696 372.876 33.536C373.073 33.376 373.281 33.24 373.5 33.128C373.724 33.0107 373.958 32.9227 374.204 32.864C374.454 32.8 374.724 32.768 375.012 32.768C375.454 32.768 375.844 32.8427 376.18 32.992C376.521 33.136 376.804 33.344 377.028 33.616C377.257 33.8827 377.43 34.2053 377.548 34.584C377.665 34.9627 377.724 35.3813 377.724 35.84V41H376.292V35.84C376.292 35.2267 376.15 34.752 375.868 34.416C375.59 34.0747 375.166 33.904 374.596 33.904C374.174 33.904 373.78 34.0053 373.412 34.208C373.049 34.4107 372.713 34.6853 372.404 35.032V41H370.972V32.896H371.828C372.03 32.896 372.156 32.9947 372.204 33.192L372.316 34.072Z" fill="white"/>
</svg>
