<svg width="414" height="70" viewBox="0 0 414 70" fill="none" xmlns="http://www.w3.org/2000/svg">
<rect x="0.5" y="0.5" width="413" height="69" fill="white"/>
<rect x="0.5" y="0.5" width="413" height="69" stroke="#D7DADE"/>
<rect x="16.5" y="16.5" width="65.8" height="37" rx="3.5" fill="#2B7ABC"/>
<rect x="16.5" y="16.5" width="65.8" height="37" rx="3.5" stroke="#0E68B3"/>
<path d="M30.3884 39.768C30.8311 39.768 31.2124 39.7173 31.5324 39.616C31.8524 39.5147 32.1137 39.3733 32.3164 39.192C32.5244 39.0053 32.6764 38.7867 32.7724 38.536C32.8684 38.28 32.9164 38 32.9164 37.696C32.9164 37.104 32.7057 36.6373 32.2844 36.296C31.8631 35.9493 31.2311 35.776 30.3884 35.776H27.9084V39.768H30.3884ZM27.9084 30.76V34.672H29.9564C30.3937 34.672 30.7724 34.624 31.0924 34.528C31.4177 34.432 31.6844 34.2987 31.8924 34.128C32.1057 33.9573 32.2631 33.752 32.3644 33.512C32.4657 33.2667 32.5164 33 32.5164 32.712C32.5164 32.0347 32.3137 31.5413 31.9084 31.232C31.5031 30.9173 30.8737 30.76 30.0204 30.76H27.9084ZM30.0204 29.536C30.7244 29.536 31.3297 29.6053 31.8364 29.744C32.3484 29.8827 32.7671 30.08 33.0924 30.336C33.4231 30.592 33.6657 30.9067 33.8204 31.28C33.9751 31.648 34.0524 32.064 34.0524 32.528C34.0524 32.8107 34.0071 33.0827 33.9164 33.344C33.8311 33.6 33.7004 33.84 33.5244 34.064C33.3484 34.288 33.1244 34.4907 32.8524 34.672C32.5857 34.848 32.2711 34.992 31.9084 35.104C32.7511 35.264 33.3831 35.5653 33.8044 36.008C34.2311 36.4453 34.4444 37.0213 34.4444 37.736C34.4444 38.2213 34.3537 38.664 34.1724 39.064C33.9964 39.464 33.7351 39.808 33.3884 40.096C33.0471 40.384 32.6257 40.608 32.1244 40.768C31.6231 40.9227 31.0524 41 30.4124 41H26.3644V29.536H30.0204ZM42.8643 32.896V41H42.0163C41.8136 41 41.6856 40.9013 41.6323 40.704L41.5203 39.832C41.1683 40.2213 40.7736 40.536 40.3363 40.776C39.8989 41.0107 39.3976 41.128 38.8323 41.128C38.3896 41.128 37.9976 41.056 37.6563 40.912C37.3203 40.7627 37.0376 40.5547 36.8083 40.288C36.5789 40.0213 36.4056 39.6987 36.2883 39.32C36.1763 38.9413 36.1203 38.5227 36.1203 38.064V32.896H37.5443V38.064C37.5443 38.6773 37.6829 39.152 37.9603 39.488C38.2429 39.824 38.6723 39.992 39.2483 39.992C39.6696 39.992 40.0616 39.8933 40.4243 39.696C40.7923 39.4933 41.1309 39.216 41.4403 38.864V32.896H42.8643ZM47.6101 41.128C46.9701 41.128 46.4768 40.9493 46.1301 40.592C45.7888 40.2347 45.6181 39.72 45.6181 39.048V34.088H44.6421C44.5568 34.088 44.4848 34.064 44.4261 34.016C44.3675 33.9627 44.3381 33.8827 44.3381 33.776V33.208L45.6661 33.04L45.9941 30.536C46.0101 30.456 46.0448 30.392 46.0981 30.344C46.1568 30.2907 46.2315 30.264 46.3221 30.264H47.0421V33.056H49.3861V34.088H47.0421V38.952C47.0421 39.2933 47.1248 39.5467 47.2901 39.712C47.4555 39.8773 47.6688 39.96 47.9301 39.96C48.0795 39.96 48.2075 39.9413 48.3141 39.904C48.4261 39.8613 48.5221 39.816 48.6021 39.768C48.6821 39.72 48.7488 39.6773 48.8021 39.64C48.8608 39.5973 48.9115 39.576 48.9541 39.576C49.0288 39.576 49.0955 39.6213 49.1541 39.712L49.5701 40.392C49.3248 40.6213 49.0288 40.8027 48.6821 40.936C48.3355 41.064 47.9781 41.128 47.6101 41.128ZM53.3445 41.128C52.7045 41.128 52.2112 40.9493 51.8645 40.592C51.5232 40.2347 51.3525 39.72 51.3525 39.048V34.088H50.3765C50.2912 34.088 50.2192 34.064 50.1605 34.016C50.1018 33.9627 50.0725 33.8827 50.0725 33.776V33.208L51.4005 33.04L51.7285 30.536C51.7445 30.456 51.7792 30.392 51.8325 30.344C51.8912 30.2907 51.9658 30.264 52.0565 30.264H52.7765V33.056H55.1205V34.088H52.7765V38.952C52.7765 39.2933 52.8592 39.5467 53.0245 39.712C53.1898 39.8773 53.4032 39.96 53.6645 39.96C53.8138 39.96 53.9418 39.9413 54.0485 39.904C54.1605 39.8613 54.2565 39.816 54.3365 39.768C54.4165 39.72 54.4832 39.6773 54.5365 39.64C54.5952 39.5973 54.6458 39.576 54.6885 39.576C54.7632 39.576 54.8298 39.6213 54.8885 39.712L55.3045 40.392C55.0592 40.6213 54.7632 40.8027 54.4165 40.936C54.0698 41.064 53.7125 41.128 53.3445 41.128ZM59.96 32.768C60.552 32.768 61.0853 32.8667 61.56 33.064C62.0347 33.2613 62.44 33.5413 62.776 33.904C63.112 34.2667 63.368 34.7067 63.544 35.224C63.7253 35.736 63.816 36.3093 63.816 36.944C63.816 37.584 63.7253 38.16 63.544 38.672C63.368 39.184 63.112 39.6213 62.776 39.984C62.44 40.3467 62.0347 40.6267 61.56 40.824C61.0853 41.016 60.552 41.112 59.96 41.112C59.3627 41.112 58.824 41.016 58.344 40.824C57.8693 40.6267 57.464 40.3467 57.128 39.984C56.792 39.6213 56.5333 39.184 56.352 38.672C56.176 38.16 56.088 37.584 56.088 36.944C56.088 36.3093 56.176 35.736 56.352 35.224C56.5333 34.7067 56.792 34.2667 57.128 33.904C57.464 33.5413 57.8693 33.2613 58.344 33.064C58.824 32.8667 59.3627 32.768 59.96 32.768ZM59.96 40C60.76 40 61.3573 39.7333 61.752 39.2C62.1467 38.6613 62.344 37.912 62.344 36.952C62.344 35.9867 62.1467 35.2347 61.752 34.696C61.3573 34.1573 60.76 33.888 59.96 33.888C59.5547 33.888 59.2 33.9573 58.896 34.096C58.5973 34.2347 58.3467 34.4347 58.144 34.696C57.9467 34.9573 57.7973 35.28 57.696 35.664C57.6 36.0427 57.552 36.472 57.552 36.952C57.552 37.912 57.7493 38.6613 58.144 39.2C58.544 39.7333 59.1493 40 59.96 40ZM66.9661 34.072C67.1421 33.8747 67.3288 33.696 67.5261 33.536C67.7235 33.376 67.9315 33.24 68.1501 33.128C68.3741 33.0107 68.6088 32.9227 68.8541 32.864C69.1048 32.8 69.3741 32.768 69.6621 32.768C70.1048 32.768 70.4941 32.8427 70.8301 32.992C71.1715 33.136 71.4541 33.344 71.6781 33.616C71.9075 33.8827 72.0808 34.2053 72.1981 34.584C72.3155 34.9627 72.3741 35.3813 72.3741 35.84V41H70.9421V35.84C70.9421 35.2267 70.8008 34.752 70.5181 34.416C70.2408 34.0747 69.8168 33.904 69.2461 33.904C68.8248 33.904 68.4301 34.0053 68.0621 34.208C67.6995 34.4107 67.3635 34.6853 67.0541 35.032V41H65.6221V32.896H66.4781C66.6808 32.896 66.8061 32.9947 66.8541 33.192L66.9661 34.072Z" fill="white"/>
<rect x="95.3008" y="16.5" width="65.8" height="37" rx="3.5" fill="#2B7ABC"/>
<rect x="95.3008" y="16.5" width="65.8" height="37" rx="3.5" stroke="#0E68B3"/>
<path d="M109.189 39.768C109.632 39.768 110.013 39.7173 110.333 39.616C110.653 39.5147 110.915 39.3733 111.117 39.192C111.325 39.0053 111.477 38.7867 111.573 38.536C111.669 38.28 111.717 38 111.717 37.696C111.717 37.104 111.507 36.6373 111.085 36.296C110.664 35.9493 110.032 35.776 109.189 35.776H106.709V39.768H109.189ZM106.709 30.76V34.672H108.757C109.195 34.672 109.573 34.624 109.893 34.528C110.219 34.432 110.485 34.2987 110.693 34.128C110.907 33.9573 111.064 33.752 111.165 33.512C111.267 33.2667 111.317 33 111.317 32.712C111.317 32.0347 111.115 31.5413 110.709 31.232C110.304 30.9173 109.675 30.76 108.821 30.76H106.709ZM108.821 29.536C109.525 29.536 110.131 29.6053 110.637 29.744C111.149 29.8827 111.568 30.08 111.893 30.336C112.224 30.592 112.467 30.9067 112.621 31.28C112.776 31.648 112.853 32.064 112.853 32.528C112.853 32.8107 112.808 33.0827 112.717 33.344C112.632 33.6 112.501 33.84 112.325 34.064C112.149 34.288 111.925 34.4907 111.653 34.672C111.387 34.848 111.072 34.992 110.709 35.104C111.552 35.264 112.184 35.5653 112.605 36.008C113.032 36.4453 113.245 37.0213 113.245 37.736C113.245 38.2213 113.155 38.664 112.973 39.064C112.797 39.464 112.536 39.808 112.189 40.096C111.848 40.384 111.427 40.608 110.925 40.768C110.424 40.9227 109.853 41 109.213 41H105.165V29.536H108.821ZM121.665 32.896V41H120.817C120.614 41 120.486 40.9013 120.433 40.704L120.321 39.832C119.969 40.2213 119.574 40.536 119.137 40.776C118.7 41.0107 118.198 41.128 117.633 41.128C117.19 41.128 116.798 41.056 116.457 40.912C116.121 40.7627 115.838 40.5547 115.609 40.288C115.38 40.0213 115.206 39.6987 115.089 39.32C114.977 38.9413 114.921 38.5227 114.921 38.064V32.896H116.345V38.064C116.345 38.6773 116.484 39.152 116.761 39.488C117.044 39.824 117.473 39.992 118.049 39.992C118.47 39.992 118.862 39.8933 119.225 39.696C119.593 39.4933 119.932 39.216 120.241 38.864V32.896H121.665ZM126.411 41.128C125.771 41.128 125.278 40.9493 124.931 40.592C124.59 40.2347 124.419 39.72 124.419 39.048V34.088H123.443C123.358 34.088 123.286 34.064 123.227 34.016C123.168 33.9627 123.139 33.8827 123.139 33.776V33.208L124.467 33.04L124.795 30.536C124.811 30.456 124.846 30.392 124.899 30.344C124.958 30.2907 125.032 30.264 125.123 30.264H125.843V33.056H128.187V34.088H125.843V38.952C125.843 39.2933 125.926 39.5467 126.091 39.712C126.256 39.8773 126.47 39.96 126.731 39.96C126.88 39.96 127.008 39.9413 127.115 39.904C127.227 39.8613 127.323 39.816 127.403 39.768C127.483 39.72 127.55 39.6773 127.603 39.64C127.662 39.5973 127.712 39.576 127.755 39.576C127.83 39.576 127.896 39.6213 127.955 39.712L128.371 40.392C128.126 40.6213 127.83 40.8027 127.483 40.936C127.136 41.064 126.779 41.128 126.411 41.128ZM132.145 41.128C131.505 41.128 131.012 40.9493 130.665 40.592C130.324 40.2347 130.153 39.72 130.153 39.048V34.088H129.177C129.092 34.088 129.02 34.064 128.961 34.016C128.903 33.9627 128.873 33.8827 128.873 33.776V33.208L130.201 33.04L130.529 30.536C130.545 30.456 130.58 30.392 130.633 30.344C130.692 30.2907 130.767 30.264 130.857 30.264H131.577V33.056H133.921V34.088H131.577V38.952C131.577 39.2933 131.66 39.5467 131.825 39.712C131.991 39.8773 132.204 39.96 132.465 39.96C132.615 39.96 132.743 39.9413 132.849 39.904C132.961 39.8613 133.057 39.816 133.137 39.768C133.217 39.72 133.284 39.6773 133.337 39.64C133.396 39.5973 133.447 39.576 133.489 39.576C133.564 39.576 133.631 39.6213 133.689 39.712L134.105 40.392C133.86 40.6213 133.564 40.8027 133.217 40.936C132.871 41.064 132.513 41.128 132.145 41.128ZM138.761 32.768C139.353 32.768 139.886 32.8667 140.361 33.064C140.835 33.2613 141.241 33.5413 141.577 33.904C141.913 34.2667 142.169 34.7067 142.345 35.224C142.526 35.736 142.617 36.3093 142.617 36.944C142.617 37.584 142.526 38.16 142.345 38.672C142.169 39.184 141.913 39.6213 141.577 39.984C141.241 40.3467 140.835 40.6267 140.361 40.824C139.886 41.016 139.353 41.112 138.761 41.112C138.163 41.112 137.625 41.016 137.145 40.824C136.67 40.6267 136.265 40.3467 135.929 39.984C135.593 39.6213 135.334 39.184 135.153 38.672C134.977 38.16 134.889 37.584 134.889 36.944C134.889 36.3093 134.977 35.736 135.153 35.224C135.334 34.7067 135.593 34.2667 135.929 33.904C136.265 33.5413 136.67 33.2613 137.145 33.064C137.625 32.8667 138.163 32.768 138.761 32.768ZM138.761 40C139.561 40 140.158 39.7333 140.553 39.2C140.947 38.6613 141.145 37.912 141.145 36.952C141.145 35.9867 140.947 35.2347 140.553 34.696C140.158 34.1573 139.561 33.888 138.761 33.888C138.355 33.888 138.001 33.9573 137.697 34.096C137.398 34.2347 137.147 34.4347 136.945 34.696C136.747 34.9573 136.598 35.28 136.497 35.664C136.401 36.0427 136.353 36.472 136.353 36.952C136.353 37.912 136.55 38.6613 136.945 39.2C137.345 39.7333 137.95 40 138.761 40ZM145.767 34.072C145.943 33.8747 146.13 33.696 146.327 33.536C146.524 33.376 146.732 33.24 146.951 33.128C147.175 33.0107 147.41 32.9227 147.655 32.864C147.906 32.8 148.175 32.768 148.463 32.768C148.906 32.768 149.295 32.8427 149.631 32.992C149.972 33.136 150.255 33.344 150.479 33.616C150.708 33.8827 150.882 34.2053 150.999 34.584C151.116 34.9627 151.175 35.3813 151.175 35.84V41H149.743V35.84C149.743 35.2267 149.602 34.752 149.319 34.416C149.042 34.0747 148.618 33.904 148.047 33.904C147.626 33.904 147.231 34.0053 146.863 34.208C146.5 34.4107 146.164 34.6853 145.855 35.032V41H144.423V32.896H145.279C145.482 32.896 145.607 32.9947 145.655 33.192L145.767 34.072Z" fill="white"/>
<rect x="174.1" y="16.5" width="65.8" height="37" rx="3.5" fill="#2B7ABC"/>
<rect x="174.1" y="16.5" width="65.8" height="37" rx="3.5" stroke="#0E68B3"/>
<path d="M187.988 39.768C188.431 39.768 188.812 39.7173 189.132 39.616C189.452 39.5147 189.713 39.3733 189.916 39.192C190.124 39.0053 190.276 38.7867 190.372 38.536C190.468 38.28 190.516 38 190.516 37.696C190.516 37.104 190.305 36.6373 189.884 36.296C189.463 35.9493 188.831 35.776 187.988 35.776H185.508V39.768H187.988ZM185.508 30.76V34.672H187.556C187.993 34.672 188.372 34.624 188.692 34.528C189.017 34.432 189.284 34.2987 189.492 34.128C189.705 33.9573 189.863 33.752 189.964 33.512C190.065 33.2667 190.116 33 190.116 32.712C190.116 32.0347 189.913 31.5413 189.508 31.232C189.103 30.9173 188.473 30.76 187.62 30.76H185.508ZM187.62 29.536C188.324 29.536 188.929 29.6053 189.436 29.744C189.948 29.8827 190.367 30.08 190.692 30.336C191.023 30.592 191.265 30.9067 191.42 31.28C191.575 31.648 191.652 32.064 191.652 32.528C191.652 32.8107 191.607 33.0827 191.516 33.344C191.431 33.6 191.3 33.84 191.124 34.064C190.948 34.288 190.724 34.4907 190.452 34.672C190.185 34.848 189.871 34.992 189.508 35.104C190.351 35.264 190.983 35.5653 191.404 36.008C191.831 36.4453 192.044 37.0213 192.044 37.736C192.044 38.2213 191.953 38.664 191.772 39.064C191.596 39.464 191.335 39.808 190.988 40.096C190.647 40.384 190.225 40.608 189.724 40.768C189.223 40.9227 188.652 41 188.012 41H183.964V29.536H187.62ZM200.464 32.896V41H199.616C199.413 41 199.285 40.9013 199.232 40.704L199.12 39.832C198.768 40.2213 198.373 40.536 197.936 40.776C197.499 41.0107 196.997 41.128 196.432 41.128C195.989 41.128 195.597 41.056 195.256 40.912C194.92 40.7627 194.637 40.5547 194.408 40.288C194.179 40.0213 194.005 39.6987 193.888 39.32C193.776 38.9413 193.72 38.5227 193.72 38.064V32.896H195.144V38.064C195.144 38.6773 195.283 39.152 195.56 39.488C195.843 39.824 196.272 39.992 196.848 39.992C197.269 39.992 197.661 39.8933 198.024 39.696C198.392 39.4933 198.731 39.216 199.04 38.864V32.896H200.464ZM205.21 41.128C204.57 41.128 204.076 40.9493 203.73 40.592C203.388 40.2347 203.218 39.72 203.218 39.048V34.088H202.242C202.156 34.088 202.084 34.064 202.026 34.016C201.967 33.9627 201.938 33.8827 201.938 33.776V33.208L203.266 33.04L203.594 30.536C203.61 30.456 203.644 30.392 203.698 30.344C203.756 30.2907 203.831 30.264 203.922 30.264H204.642V33.056H206.986V34.088H204.642V38.952C204.642 39.2933 204.724 39.5467 204.89 39.712C205.055 39.8773 205.268 39.96 205.53 39.96C205.679 39.96 205.807 39.9413 205.914 39.904C206.026 39.8613 206.122 39.816 206.202 39.768C206.282 39.72 206.348 39.6773 206.402 39.64C206.46 39.5973 206.511 39.576 206.554 39.576C206.628 39.576 206.695 39.6213 206.754 39.712L207.17 40.392C206.924 40.6213 206.628 40.8027 206.282 40.936C205.935 41.064 205.578 41.128 205.21 41.128ZM210.944 41.128C210.304 41.128 209.811 40.9493 209.464 40.592C209.123 40.2347 208.952 39.72 208.952 39.048V34.088H207.976C207.891 34.088 207.819 34.064 207.76 34.016C207.701 33.9627 207.672 33.8827 207.672 33.776V33.208L209 33.04L209.328 30.536C209.344 30.456 209.379 30.392 209.432 30.344C209.491 30.2907 209.565 30.264 209.656 30.264H210.376V33.056H212.72V34.088H210.376V38.952C210.376 39.2933 210.459 39.5467 210.624 39.712C210.789 39.8773 211.003 39.96 211.264 39.96C211.413 39.96 211.541 39.9413 211.648 39.904C211.76 39.8613 211.856 39.816 211.936 39.768C212.016 39.72 212.083 39.6773 212.136 39.64C212.195 39.5973 212.245 39.576 212.288 39.576C212.363 39.576 212.429 39.6213 212.488 39.712L212.904 40.392C212.659 40.6213 212.363 40.8027 212.016 40.936C211.669 41.064 211.312 41.128 210.944 41.128ZM217.56 32.768C218.152 32.768 218.685 32.8667 219.16 33.064C219.634 33.2613 220.04 33.5413 220.376 33.904C220.712 34.2667 220.968 34.7067 221.144 35.224C221.325 35.736 221.416 36.3093 221.416 36.944C221.416 37.584 221.325 38.16 221.144 38.672C220.968 39.184 220.712 39.6213 220.376 39.984C220.04 40.3467 219.634 40.6267 219.16 40.824C218.685 41.016 218.152 41.112 217.56 41.112C216.962 41.112 216.424 41.016 215.944 40.824C215.469 40.6267 215.064 40.3467 214.728 39.984C214.392 39.6213 214.133 39.184 213.952 38.672C213.776 38.16 213.688 37.584 213.688 36.944C213.688 36.3093 213.776 35.736 213.952 35.224C214.133 34.7067 214.392 34.2667 214.728 33.904C215.064 33.5413 215.469 33.2613 215.944 33.064C216.424 32.8667 216.962 32.768 217.56 32.768ZM217.56 40C218.36 40 218.957 39.7333 219.352 39.2C219.746 38.6613 219.944 37.912 219.944 36.952C219.944 35.9867 219.746 35.2347 219.352 34.696C218.957 34.1573 218.36 33.888 217.56 33.888C217.154 33.888 216.8 33.9573 216.496 34.096C216.197 34.2347 215.946 34.4347 215.744 34.696C215.546 34.9573 215.397 35.28 215.296 35.664C215.2 36.0427 215.152 36.472 215.152 36.952C215.152 37.912 215.349 38.6613 215.744 39.2C216.144 39.7333 216.749 40 217.56 40ZM224.566 34.072C224.742 33.8747 224.928 33.696 225.126 33.536C225.323 33.376 225.531 33.24 225.75 33.128C225.974 33.0107 226.208 32.9227 226.454 32.864C226.704 32.8 226.974 32.768 227.262 32.768C227.704 32.768 228.094 32.8427 228.43 32.992C228.771 33.136 229.054 33.344 229.278 33.616C229.507 33.8827 229.68 34.2053 229.798 34.584C229.915 34.9627 229.974 35.3813 229.974 35.84V41H228.542V35.84C228.542 35.2267 228.4 34.752 228.118 34.416C227.84 34.0747 227.416 33.904 226.846 33.904C226.424 33.904 226.03 34.0053 225.662 34.208C225.299 34.4107 224.963 34.6853 224.654 35.032V41H223.222V32.896H224.078C224.28 32.896 224.406 32.9947 224.454 33.192L224.566 34.072Z" fill="white"/>
<rect x="252.9" y="16.5" width="65.8" height="37" rx="3.5" fill="#2B7ABC"/>
<rect x="252.9" y="16.5" width="65.8" height="37" rx="3.5" stroke="#0E68B3"/>
<path d="M266.789 39.768C267.231 39.768 267.613 39.7173 267.933 39.616C268.253 39.5147 268.514 39.3733 268.717 39.192C268.925 39.0053 269.077 38.7867 269.173 38.536C269.269 38.28 269.317 38 269.317 37.696C269.317 37.104 269.106 36.6373 268.685 36.296C268.263 35.9493 267.631 35.776 266.789 35.776H264.309V39.768H266.789ZM264.309 30.76V34.672H266.357C266.794 34.672 267.173 34.624 267.493 34.528C267.818 34.432 268.085 34.2987 268.293 34.128C268.506 33.9573 268.663 33.752 268.765 33.512C268.866 33.2667 268.917 33 268.917 32.712C268.917 32.0347 268.714 31.5413 268.309 31.232C267.903 30.9173 267.274 30.76 266.421 30.76H264.309ZM266.421 29.536C267.125 29.536 267.73 29.6053 268.237 29.744C268.749 29.8827 269.167 30.08 269.493 30.336C269.823 30.592 270.066 30.9067 270.221 31.28C270.375 31.648 270.453 32.064 270.453 32.528C270.453 32.8107 270.407 33.0827 270.317 33.344C270.231 33.6 270.101 33.84 269.925 34.064C269.749 34.288 269.525 34.4907 269.253 34.672C268.986 34.848 268.671 34.992 268.309 35.104C269.151 35.264 269.783 35.5653 270.205 36.008C270.631 36.4453 270.845 37.0213 270.845 37.736C270.845 38.2213 270.754 38.664 270.573 39.064C270.397 39.464 270.135 39.808 269.789 40.096C269.447 40.384 269.026 40.608 268.525 40.768C268.023 40.9227 267.453 41 266.813 41H262.765V29.536H266.421ZM279.265 32.896V41H278.417C278.214 41 278.086 40.9013 278.033 40.704L277.921 39.832C277.569 40.2213 277.174 40.536 276.737 40.776C276.299 41.0107 275.798 41.128 275.233 41.128C274.79 41.128 274.398 41.056 274.057 40.912C273.721 40.7627 273.438 40.5547 273.209 40.288C272.979 40.0213 272.806 39.6987 272.689 39.32C272.577 38.9413 272.521 38.5227 272.521 38.064V32.896H273.945V38.064C273.945 38.6773 274.083 39.152 274.361 39.488C274.643 39.824 275.073 39.992 275.649 39.992C276.07 39.992 276.462 39.8933 276.825 39.696C277.193 39.4933 277.531 39.216 277.841 38.864V32.896H279.265ZM284.011 41.128C283.371 41.128 282.877 40.9493 282.531 40.592C282.189 40.2347 282.019 39.72 282.019 39.048V34.088H281.043C280.957 34.088 280.885 34.064 280.827 34.016C280.768 33.9627 280.739 33.8827 280.739 33.776V33.208L282.067 33.04L282.395 30.536C282.411 30.456 282.445 30.392 282.499 30.344C282.557 30.2907 282.632 30.264 282.723 30.264H283.443V33.056H285.787V34.088H283.443V38.952C283.443 39.2933 283.525 39.5467 283.691 39.712C283.856 39.8773 284.069 39.96 284.331 39.96C284.48 39.96 284.608 39.9413 284.715 39.904C284.827 39.8613 284.923 39.816 285.003 39.768C285.083 39.72 285.149 39.6773 285.203 39.64C285.261 39.5973 285.312 39.576 285.355 39.576C285.429 39.576 285.496 39.6213 285.555 39.712L285.971 40.392C285.725 40.6213 285.429 40.8027 285.083 40.936C284.736 41.064 284.379 41.128 284.011 41.128ZM289.745 41.128C289.105 41.128 288.612 40.9493 288.265 40.592C287.924 40.2347 287.753 39.72 287.753 39.048V34.088H286.777C286.692 34.088 286.62 34.064 286.561 34.016C286.502 33.9627 286.473 33.8827 286.473 33.776V33.208L287.801 33.04L288.129 30.536C288.145 30.456 288.18 30.392 288.233 30.344C288.292 30.2907 288.366 30.264 288.457 30.264H289.177V33.056H291.521V34.088H289.177V38.952C289.177 39.2933 289.26 39.5467 289.425 39.712C289.59 39.8773 289.804 39.96 290.065 39.96C290.214 39.96 290.342 39.9413 290.449 39.904C290.561 39.8613 290.657 39.816 290.737 39.768C290.817 39.72 290.884 39.6773 290.937 39.64C290.996 39.5973 291.046 39.576 291.089 39.576C291.164 39.576 291.23 39.6213 291.289 39.712L291.705 40.392C291.46 40.6213 291.164 40.8027 290.817 40.936C290.47 41.064 290.113 41.128 289.745 41.128ZM296.36 32.768C296.952 32.768 297.486 32.8667 297.96 33.064C298.435 33.2613 298.84 33.5413 299.176 33.904C299.512 34.2667 299.768 34.7067 299.944 35.224C300.126 35.736 300.216 36.3093 300.216 36.944C300.216 37.584 300.126 38.16 299.944 38.672C299.768 39.184 299.512 39.6213 299.176 39.984C298.84 40.3467 298.435 40.6267 297.96 40.824C297.486 41.016 296.952 41.112 296.36 41.112C295.763 41.112 295.224 41.016 294.744 40.824C294.27 40.6267 293.864 40.3467 293.528 39.984C293.192 39.6213 292.934 39.184 292.752 38.672C292.576 38.16 292.488 37.584 292.488 36.944C292.488 36.3093 292.576 35.736 292.752 35.224C292.934 34.7067 293.192 34.2667 293.528 33.904C293.864 33.5413 294.27 33.2613 294.744 33.064C295.224 32.8667 295.763 32.768 296.36 32.768ZM296.36 40C297.16 40 297.758 39.7333 298.152 39.2C298.547 38.6613 298.744 37.912 298.744 36.952C298.744 35.9867 298.547 35.2347 298.152 34.696C297.758 34.1573 297.16 33.888 296.36 33.888C295.955 33.888 295.6 33.9573 295.296 34.096C294.998 34.2347 294.747 34.4347 294.544 34.696C294.347 34.9573 294.198 35.28 294.096 35.664C294 36.0427 293.952 36.472 293.952 36.952C293.952 37.912 294.15 38.6613 294.544 39.2C294.944 39.7333 295.55 40 296.36 40ZM303.367 34.072C303.543 33.8747 303.729 33.696 303.927 33.536C304.124 33.376 304.332 33.24 304.551 33.128C304.775 33.0107 305.009 32.9227 305.255 32.864C305.505 32.8 305.775 32.768 306.063 32.768C306.505 32.768 306.895 32.8427 307.231 32.992C307.572 33.136 307.855 33.344 308.079 33.616C308.308 33.8827 308.481 34.2053 308.599 34.584C308.716 34.9627 308.775 35.3813 308.775 35.84V41H307.343V35.84C307.343 35.2267 307.201 34.752 306.919 34.416C306.641 34.0747 306.217 33.904 305.647 33.904C305.225 33.904 304.831 34.0053 304.463 34.208C304.1 34.4107 303.764 34.6853 303.455 35.032V41H302.023V32.896H302.879C303.081 32.896 303.207 32.9947 303.255 33.192L303.367 34.072Z" fill="white"/>
<rect x="331.699" y="16.5" width="65.8" height="37" rx="3.5" fill="#2B7ABC"/>
<rect x="331.699" y="16.5" width="65.8" height="37" rx="3.5" stroke="#0E68B3"/>
<path d="M345.588 39.768C346.03 39.768 346.412 39.7173 346.732 39.616C347.052 39.5147 347.313 39.3733 347.516 39.192C347.724 39.0053 347.876 38.7867 347.972 38.536C348.068 38.28 348.116 38 348.116 37.696C348.116 37.104 347.905 36.6373 347.484 36.296C347.062 35.9493 346.43 35.776 345.588 35.776H343.108V39.768H345.588ZM343.108 30.76V34.672H345.156C345.593 34.672 345.972 34.624 346.292 34.528C346.617 34.432 346.884 34.2987 347.092 34.128C347.305 33.9573 347.462 33.752 347.564 33.512C347.665 33.2667 347.716 33 347.716 32.712C347.716 32.0347 347.513 31.5413 347.108 31.232C346.702 30.9173 346.073 30.76 345.22 30.76H343.108ZM345.22 29.536C345.924 29.536 346.529 29.6053 347.036 29.744C347.548 29.8827 347.966 30.08 348.292 30.336C348.622 30.592 348.865 30.9067 349.02 31.28C349.174 31.648 349.252 32.064 349.252 32.528C349.252 32.8107 349.206 33.0827 349.116 33.344C349.03 33.6 348.9 33.84 348.724 34.064C348.548 34.288 348.324 34.4907 348.052 34.672C347.785 34.848 347.47 34.992 347.108 35.104C347.95 35.264 348.582 35.5653 349.004 36.008C349.43 36.4453 349.644 37.0213 349.644 37.736C349.644 38.2213 349.553 38.664 349.372 39.064C349.196 39.464 348.934 39.808 348.588 40.096C348.246 40.384 347.825 40.608 347.324 40.768C346.822 40.9227 346.252 41 345.612 41H341.564V29.536H345.22ZM358.063 32.896V41H357.215C357.013 41 356.885 40.9013 356.831 40.704L356.719 39.832C356.367 40.2213 355.973 40.536 355.535 40.776C355.098 41.0107 354.597 41.128 354.031 41.128C353.589 41.128 353.197 41.056 352.855 40.912C352.519 40.7627 352.237 40.5547 352.007 40.288C351.778 40.0213 351.605 39.6987 351.487 39.32C351.375 38.9413 351.319 38.5227 351.319 38.064V32.896H352.743V38.064C352.743 38.6773 352.882 39.152 353.159 39.488C353.442 39.824 353.871 39.992 354.447 39.992C354.869 39.992 355.261 39.8933 355.623 39.696C355.991 39.4933 356.33 39.216 356.639 38.864V32.896H358.063ZM362.809 41.128C362.169 41.128 361.676 40.9493 361.329 40.592C360.988 40.2347 360.817 39.72 360.817 39.048V34.088H359.841C359.756 34.088 359.684 34.064 359.625 34.016C359.567 33.9627 359.537 33.8827 359.537 33.776V33.208L360.865 33.04L361.193 30.536C361.209 30.456 361.244 30.392 361.297 30.344C361.356 30.2907 361.431 30.264 361.521 30.264H362.241V33.056H364.585V34.088H362.241V38.952C362.241 39.2933 362.324 39.5467 362.489 39.712C362.655 39.8773 362.868 39.96 363.129 39.96C363.279 39.96 363.407 39.9413 363.513 39.904C363.625 39.8613 363.721 39.816 363.801 39.768C363.881 39.72 363.948 39.6773 364.001 39.64C364.06 39.5973 364.111 39.576 364.153 39.576C364.228 39.576 364.295 39.6213 364.353 39.712L364.769 40.392C364.524 40.6213 364.228 40.8027 363.881 40.936C363.535 41.064 363.177 41.128 362.809 41.128ZM368.544 41.128C367.904 41.128 367.41 40.9493 367.064 40.592C366.722 40.2347 366.552 39.72 366.552 39.048V34.088H365.576C365.49 34.088 365.418 34.064 365.36 34.016C365.301 33.9627 365.272 33.8827 365.272 33.776V33.208L366.6 33.04L366.928 30.536C366.944 30.456 366.978 30.392 367.032 30.344C367.09 30.2907 367.165 30.264 367.256 30.264H367.976V33.056H370.32V34.088H367.976V38.952C367.976 39.2933 368.058 39.5467 368.224 39.712C368.389 39.8773 368.602 39.96 368.864 39.96C369.013 39.96 369.141 39.9413 369.248 39.904C369.36 39.8613 369.456 39.816 369.536 39.768C369.616 39.72 369.682 39.6773 369.736 39.64C369.794 39.5973 369.845 39.576 369.888 39.576C369.962 39.576 370.029 39.6213 370.088 39.712L370.504 40.392C370.258 40.6213 369.962 40.8027 369.616 40.936C369.269 41.064 368.912 41.128 368.544 41.128ZM375.159 32.768C375.751 32.768 376.285 32.8667 376.759 33.064C377.234 33.2613 377.639 33.5413 377.975 33.904C378.311 34.2667 378.567 34.7067 378.743 35.224C378.925 35.736 379.015 36.3093 379.015 36.944C379.015 37.584 378.925 38.16 378.743 38.672C378.567 39.184 378.311 39.6213 377.975 39.984C377.639 40.3467 377.234 40.6267 376.759 40.824C376.285 41.016 375.751 41.112 375.159 41.112C374.562 41.112 374.023 41.016 373.543 40.824C373.069 40.6267 372.663 40.3467 372.327 39.984C371.991 39.6213 371.733 39.184 371.551 38.672C371.375 38.16 371.287 37.584 371.287 36.944C371.287 36.3093 371.375 35.736 371.551 35.224C371.733 34.7067 371.991 34.2667 372.327 33.904C372.663 33.5413 373.069 33.2613 373.543 33.064C374.023 32.8667 374.562 32.768 375.159 32.768ZM375.159 40C375.959 40 376.557 39.7333 376.951 39.2C377.346 38.6613 377.543 37.912 377.543 36.952C377.543 35.9867 377.346 35.2347 376.951 34.696C376.557 34.1573 375.959 33.888 375.159 33.888C374.754 33.888 374.399 33.9573 374.095 34.096C373.797 34.2347 373.546 34.4347 373.343 34.696C373.146 34.9573 372.997 35.28 372.895 35.664C372.799 36.0427 372.751 36.472 372.751 36.952C372.751 37.912 372.949 38.6613 373.343 39.2C373.743 39.7333 374.349 40 375.159 40ZM382.165 34.072C382.341 33.8747 382.528 33.696 382.725 33.536C382.923 33.376 383.131 33.24 383.349 33.128C383.573 33.0107 383.808 32.9227 384.053 32.864C384.304 32.8 384.573 32.768 384.861 32.768C385.304 32.768 385.693 32.8427 386.029 32.992C386.371 33.136 386.653 33.344 386.877 33.616C387.107 33.8827 387.28 34.2053 387.397 34.584C387.515 34.9627 387.573 35.3813 387.573 35.84V41H386.141V35.84C386.141 35.2267 386 34.752 385.717 34.416C385.44 34.0747 385.016 33.904 384.445 33.904C384.024 33.904 383.629 34.0053 383.261 34.208C382.899 34.4107 382.563 34.6853 382.253 35.032V41H380.821V32.896H381.677C381.88 32.896 382.005 32.9947 382.053 33.192L382.165 34.072Z" fill="white"/>
</svg>
