<svg width="414" height="70" viewBox="0 0 414 70" fill="none" xmlns="http://www.w3.org/2000/svg">
<rect x="0.5" y="0.5" width="413" height="69" fill="white"/>
<rect x="0.5" y="0.5" width="413" height="69" stroke="#D7DADE"/>
<rect x="129.5" y="16.5" width="155" height="37" rx="3.5" fill="#2B7ABC"/>
<rect x="129.5" y="16.5" width="155" height="37" rx="3.5" stroke="#0E68B3"/>
<path d="M187.988 39.768C188.431 39.768 188.812 39.7173 189.132 39.616C189.452 39.5147 189.713 39.3733 189.916 39.192C190.124 39.0053 190.276 38.7867 190.372 38.536C190.468 38.28 190.516 38 190.516 37.696C190.516 37.104 190.305 36.6373 189.884 36.296C189.463 35.9493 188.831 35.776 187.988 35.776H185.508V39.768H187.988ZM185.508 30.76V34.672H187.556C187.993 34.672 188.372 34.624 188.692 34.528C189.017 34.432 189.284 34.2987 189.492 34.128C189.705 33.9573 189.863 33.752 189.964 33.512C190.065 33.2667 190.116 33 190.116 32.712C190.116 32.0347 189.913 31.5413 189.508 31.232C189.103 30.9173 188.473 30.76 187.62 30.76H185.508ZM187.62 29.536C188.324 29.536 188.929 29.6053 189.436 29.744C189.948 29.8827 190.367 30.08 190.692 30.336C191.023 30.592 191.265 30.9067 191.42 31.28C191.575 31.648 191.652 32.064 191.652 32.528C191.652 32.8107 191.607 33.0827 191.516 33.344C191.431 33.6 191.3 33.84 191.124 34.064C190.948 34.288 190.724 34.4907 190.452 34.672C190.185 34.848 189.871 34.992 189.508 35.104C190.351 35.264 190.983 35.5653 191.404 36.008C191.831 36.4453 192.044 37.0213 192.044 37.736C192.044 38.2213 191.953 38.664 191.772 39.064C191.596 39.464 191.335 39.808 190.988 40.096C190.647 40.384 190.225 40.608 189.724 40.768C189.223 40.9227 188.652 41 188.012 41H183.964V29.536H187.62ZM200.464 32.896V41H199.616C199.413 41 199.285 40.9013 199.232 40.704L199.12 39.832C198.768 40.2213 198.373 40.536 197.936 40.776C197.499 41.0107 196.997 41.128 196.432 41.128C195.989 41.128 195.597 41.056 195.256 40.912C194.92 40.7627 194.637 40.5547 194.408 40.288C194.179 40.0213 194.005 39.6987 193.888 39.32C193.776 38.9413 193.72 38.5227 193.72 38.064V32.896H195.144V38.064C195.144 38.6773 195.283 39.152 195.56 39.488C195.843 39.824 196.272 39.992 196.848 39.992C197.269 39.992 197.661 39.8933 198.024 39.696C198.392 39.4933 198.731 39.216 199.04 38.864V32.896H200.464ZM205.21 41.128C204.57 41.128 204.076 40.9493 203.73 40.592C203.388 40.2347 203.218 39.72 203.218 39.048V34.088H202.242C202.156 34.088 202.084 34.064 202.026 34.016C201.967 33.9627 201.938 33.8827 201.938 33.776V33.208L203.266 33.04L203.594 30.536C203.61 30.456 203.644 30.392 203.698 30.344C203.756 30.2907 203.831 30.264 203.922 30.264H204.642V33.056H206.986V34.088H204.642V38.952C204.642 39.2933 204.724 39.5467 204.89 39.712C205.055 39.8773 205.268 39.96 205.53 39.96C205.679 39.96 205.807 39.9413 205.914 39.904C206.026 39.8613 206.122 39.816 206.202 39.768C206.282 39.72 206.348 39.6773 206.402 39.64C206.46 39.5973 206.511 39.576 206.554 39.576C206.628 39.576 206.695 39.6213 206.754 39.712L207.17 40.392C206.924 40.6213 206.628 40.8027 206.282 40.936C205.935 41.064 205.578 41.128 205.21 41.128ZM210.944 41.128C210.304 41.128 209.811 40.9493 209.464 40.592C209.123 40.2347 208.952 39.72 208.952 39.048V34.088H207.976C207.891 34.088 207.819 34.064 207.76 34.016C207.701 33.9627 207.672 33.8827 207.672 33.776V33.208L209 33.04L209.328 30.536C209.344 30.456 209.379 30.392 209.432 30.344C209.491 30.2907 209.565 30.264 209.656 30.264H210.376V33.056H212.72V34.088H210.376V38.952C210.376 39.2933 210.459 39.5467 210.624 39.712C210.789 39.8773 211.003 39.96 211.264 39.96C211.413 39.96 211.541 39.9413 211.648 39.904C211.76 39.8613 211.856 39.816 211.936 39.768C212.016 39.72 212.083 39.6773 212.136 39.64C212.195 39.5973 212.245 39.576 212.288 39.576C212.363 39.576 212.429 39.6213 212.488 39.712L212.904 40.392C212.659 40.6213 212.363 40.8027 212.016 40.936C211.669 41.064 211.312 41.128 210.944 41.128ZM217.56 32.768C218.152 32.768 218.685 32.8667 219.16 33.064C219.634 33.2613 220.04 33.5413 220.376 33.904C220.712 34.2667 220.968 34.7067 221.144 35.224C221.325 35.736 221.416 36.3093 221.416 36.944C221.416 37.584 221.325 38.16 221.144 38.672C220.968 39.184 220.712 39.6213 220.376 39.984C220.04 40.3467 219.634 40.6267 219.16 40.824C218.685 41.016 218.152 41.112 217.56 41.112C216.962 41.112 216.424 41.016 215.944 40.824C215.469 40.6267 215.064 40.3467 214.728 39.984C214.392 39.6213 214.133 39.184 213.952 38.672C213.776 38.16 213.688 37.584 213.688 36.944C213.688 36.3093 213.776 35.736 213.952 35.224C214.133 34.7067 214.392 34.2667 214.728 33.904C215.064 33.5413 215.469 33.2613 215.944 33.064C216.424 32.8667 216.962 32.768 217.56 32.768ZM217.56 40C218.36 40 218.957 39.7333 219.352 39.2C219.746 38.6613 219.944 37.912 219.944 36.952C219.944 35.9867 219.746 35.2347 219.352 34.696C218.957 34.1573 218.36 33.888 217.56 33.888C217.154 33.888 216.8 33.9573 216.496 34.096C216.197 34.2347 215.946 34.4347 215.744 34.696C215.546 34.9573 215.397 35.28 215.296 35.664C215.2 36.0427 215.152 36.472 215.152 36.952C215.152 37.912 215.349 38.6613 215.744 39.2C216.144 39.7333 216.749 40 217.56 40ZM224.566 34.072C224.742 33.8747 224.928 33.696 225.126 33.536C225.323 33.376 225.531 33.24 225.75 33.128C225.974 33.0107 226.208 32.9227 226.454 32.864C226.704 32.8 226.974 32.768 227.262 32.768C227.704 32.768 228.094 32.8427 228.43 32.992C228.771 33.136 229.054 33.344 229.278 33.616C229.507 33.8827 229.68 34.2053 229.798 34.584C229.915 34.9627 229.974 35.3813 229.974 35.84V41H228.542V35.84C228.542 35.2267 228.4 34.752 228.118 34.416C227.84 34.0747 227.416 33.904 226.846 33.904C226.424 33.904 226.03 34.0053 225.662 34.208C225.299 34.4107 224.963 34.6853 224.654 35.032V41H223.222V32.896H224.078C224.28 32.896 224.406 32.9947 224.454 33.192L224.566 34.072Z" fill="white"/>
</svg>
