<svg width="414" height="70" viewBox="0 0 414 70" fill="none" xmlns="http://www.w3.org/2000/svg">
<rect x="0.5" y="0.5" width="413" height="69" fill="white"/>
<rect x="0.5" y="0.5" width="413" height="69" stroke="#D7DADE"/>
<rect x="45.5" y="16.5" width="155" height="37" rx="3.5" fill="#2B7ABC"/>
<rect x="45.5" y="16.5" width="155" height="37" rx="3.5" stroke="#0E68B3"/>
<path d="M103.988 39.768C104.431 39.768 104.812 39.7173 105.132 39.616C105.452 39.5147 105.713 39.3733 105.916 39.192C106.124 39.0053 106.276 38.7867 106.372 38.536C106.468 38.28 106.516 38 106.516 37.696C106.516 37.104 106.305 36.6373 105.884 36.296C105.463 35.9493 104.831 35.776 103.988 35.776H101.508V39.768H103.988ZM101.508 30.76V34.672H103.556C103.993 34.672 104.372 34.624 104.692 34.528C105.017 34.432 105.284 34.2987 105.492 34.128C105.705 33.9573 105.863 33.752 105.964 33.512C106.065 33.2667 106.116 33 106.116 32.712C106.116 32.0347 105.913 31.5413 105.508 31.232C105.103 30.9173 104.473 30.76 103.62 30.76H101.508ZM103.62 29.536C104.324 29.536 104.929 29.6053 105.436 29.744C105.948 29.8827 106.367 30.08 106.692 30.336C107.023 30.592 107.265 30.9067 107.42 31.28C107.575 31.648 107.652 32.064 107.652 32.528C107.652 32.8107 107.607 33.0827 107.516 33.344C107.431 33.6 107.3 33.84 107.124 34.064C106.948 34.288 106.724 34.4907 106.452 34.672C106.185 34.848 105.871 34.992 105.508 35.104C106.351 35.264 106.983 35.5653 107.404 36.008C107.831 36.4453 108.044 37.0213 108.044 37.736C108.044 38.2213 107.953 38.664 107.772 39.064C107.596 39.464 107.335 39.808 106.988 40.096C106.647 40.384 106.225 40.608 105.724 40.768C105.223 40.9227 104.652 41 104.012 41H99.964V29.536H103.62ZM116.464 32.896V41H115.616C115.413 41 115.285 40.9013 115.232 40.704L115.12 39.832C114.768 40.2213 114.373 40.536 113.936 40.776C113.499 41.0107 112.997 41.128 112.432 41.128C111.989 41.128 111.597 41.056 111.256 40.912C110.92 40.7627 110.637 40.5547 110.408 40.288C110.179 40.0213 110.005 39.6987 109.888 39.32C109.776 38.9413 109.72 38.5227 109.72 38.064V32.896H111.144V38.064C111.144 38.6773 111.283 39.152 111.56 39.488C111.843 39.824 112.272 39.992 112.848 39.992C113.269 39.992 113.661 39.8933 114.024 39.696C114.392 39.4933 114.731 39.216 115.04 38.864V32.896H116.464ZM121.21 41.128C120.57 41.128 120.076 40.9493 119.73 40.592C119.388 40.2347 119.218 39.72 119.218 39.048V34.088H118.242C118.156 34.088 118.084 34.064 118.026 34.016C117.967 33.9627 117.938 33.8827 117.938 33.776V33.208L119.266 33.04L119.594 30.536C119.61 30.456 119.644 30.392 119.698 30.344C119.756 30.2907 119.831 30.264 119.922 30.264H120.642V33.056H122.986V34.088H120.642V38.952C120.642 39.2933 120.724 39.5467 120.89 39.712C121.055 39.8773 121.268 39.96 121.53 39.96C121.679 39.96 121.807 39.9413 121.914 39.904C122.026 39.8613 122.122 39.816 122.202 39.768C122.282 39.72 122.348 39.6773 122.402 39.64C122.46 39.5973 122.511 39.576 122.554 39.576C122.628 39.576 122.695 39.6213 122.754 39.712L123.17 40.392C122.924 40.6213 122.628 40.8027 122.282 40.936C121.935 41.064 121.578 41.128 121.21 41.128ZM126.944 41.128C126.304 41.128 125.811 40.9493 125.464 40.592C125.123 40.2347 124.952 39.72 124.952 39.048V34.088H123.976C123.891 34.088 123.819 34.064 123.76 34.016C123.701 33.9627 123.672 33.8827 123.672 33.776V33.208L125 33.04L125.328 30.536C125.344 30.456 125.379 30.392 125.432 30.344C125.491 30.2907 125.565 30.264 125.656 30.264H126.376V33.056H128.72V34.088H126.376V38.952C126.376 39.2933 126.459 39.5467 126.624 39.712C126.789 39.8773 127.003 39.96 127.264 39.96C127.413 39.96 127.541 39.9413 127.648 39.904C127.76 39.8613 127.856 39.816 127.936 39.768C128.016 39.72 128.083 39.6773 128.136 39.64C128.195 39.5973 128.245 39.576 128.288 39.576C128.363 39.576 128.429 39.6213 128.488 39.712L128.904 40.392C128.659 40.6213 128.363 40.8027 128.016 40.936C127.669 41.064 127.312 41.128 126.944 41.128ZM133.56 32.768C134.152 32.768 134.685 32.8667 135.16 33.064C135.634 33.2613 136.04 33.5413 136.376 33.904C136.712 34.2667 136.968 34.7067 137.144 35.224C137.325 35.736 137.416 36.3093 137.416 36.944C137.416 37.584 137.325 38.16 137.144 38.672C136.968 39.184 136.712 39.6213 136.376 39.984C136.04 40.3467 135.634 40.6267 135.16 40.824C134.685 41.016 134.152 41.112 133.56 41.112C132.962 41.112 132.424 41.016 131.944 40.824C131.469 40.6267 131.064 40.3467 130.728 39.984C130.392 39.6213 130.133 39.184 129.952 38.672C129.776 38.16 129.688 37.584 129.688 36.944C129.688 36.3093 129.776 35.736 129.952 35.224C130.133 34.7067 130.392 34.2667 130.728 33.904C131.064 33.5413 131.469 33.2613 131.944 33.064C132.424 32.8667 132.962 32.768 133.56 32.768ZM133.56 40C134.36 40 134.957 39.7333 135.352 39.2C135.746 38.6613 135.944 37.912 135.944 36.952C135.944 35.9867 135.746 35.2347 135.352 34.696C134.957 34.1573 134.36 33.888 133.56 33.888C133.154 33.888 132.8 33.9573 132.496 34.096C132.197 34.2347 131.946 34.4347 131.744 34.696C131.546 34.9573 131.397 35.28 131.296 35.664C131.2 36.0427 131.152 36.472 131.152 36.952C131.152 37.912 131.349 38.6613 131.744 39.2C132.144 39.7333 132.749 40 133.56 40ZM140.566 34.072C140.742 33.8747 140.928 33.696 141.126 33.536C141.323 33.376 141.531 33.24 141.75 33.128C141.974 33.0107 142.208 32.9227 142.454 32.864C142.704 32.8 142.974 32.768 143.262 32.768C143.704 32.768 144.094 32.8427 144.43 32.992C144.771 33.136 145.054 33.344 145.278 33.616C145.507 33.8827 145.68 34.2053 145.798 34.584C145.915 34.9627 145.974 35.3813 145.974 35.84V41H144.542V35.84C144.542 35.2267 144.4 34.752 144.118 34.416C143.84 34.0747 143.416 33.904 142.846 33.904C142.424 33.904 142.03 34.0053 141.662 34.208C141.299 34.4107 140.963 34.6853 140.654 35.032V41H139.222V32.896H140.078C140.28 32.896 140.406 32.9947 140.454 33.192L140.566 34.072Z" fill="white"/>
<rect x="213.5" y="16.5" width="155" height="37" rx="3.5" fill="#2B7ABC"/>
<rect x="213.5" y="16.5" width="155" height="37" rx="3.5" stroke="#0E68B3"/>
<path d="M271.988 39.768C272.431 39.768 272.812 39.7173 273.132 39.616C273.452 39.5147 273.713 39.3733 273.916 39.192C274.124 39.0053 274.276 38.7867 274.372 38.536C274.468 38.28 274.516 38 274.516 37.696C274.516 37.104 274.305 36.6373 273.884 36.296C273.463 35.9493 272.831 35.776 271.988 35.776H269.508V39.768H271.988ZM269.508 30.76V34.672H271.556C271.993 34.672 272.372 34.624 272.692 34.528C273.017 34.432 273.284 34.2987 273.492 34.128C273.705 33.9573 273.863 33.752 273.964 33.512C274.065 33.2667 274.116 33 274.116 32.712C274.116 32.0347 273.913 31.5413 273.508 31.232C273.103 30.9173 272.473 30.76 271.62 30.76H269.508ZM271.62 29.536C272.324 29.536 272.929 29.6053 273.436 29.744C273.948 29.8827 274.367 30.08 274.692 30.336C275.023 30.592 275.265 30.9067 275.42 31.28C275.575 31.648 275.652 32.064 275.652 32.528C275.652 32.8107 275.607 33.0827 275.516 33.344C275.431 33.6 275.3 33.84 275.124 34.064C274.948 34.288 274.724 34.4907 274.452 34.672C274.185 34.848 273.871 34.992 273.508 35.104C274.351 35.264 274.983 35.5653 275.404 36.008C275.831 36.4453 276.044 37.0213 276.044 37.736C276.044 38.2213 275.953 38.664 275.772 39.064C275.596 39.464 275.335 39.808 274.988 40.096C274.647 40.384 274.225 40.608 273.724 40.768C273.223 40.9227 272.652 41 272.012 41H267.964V29.536H271.62ZM284.464 32.896V41H283.616C283.413 41 283.285 40.9013 283.232 40.704L283.12 39.832C282.768 40.2213 282.373 40.536 281.936 40.776C281.499 41.0107 280.997 41.128 280.432 41.128C279.989 41.128 279.597 41.056 279.256 40.912C278.92 40.7627 278.637 40.5547 278.408 40.288C278.179 40.0213 278.005 39.6987 277.888 39.32C277.776 38.9413 277.72 38.5227 277.72 38.064V32.896H279.144V38.064C279.144 38.6773 279.283 39.152 279.56 39.488C279.843 39.824 280.272 39.992 280.848 39.992C281.269 39.992 281.661 39.8933 282.024 39.696C282.392 39.4933 282.731 39.216 283.04 38.864V32.896H284.464ZM289.21 41.128C288.57 41.128 288.076 40.9493 287.73 40.592C287.388 40.2347 287.218 39.72 287.218 39.048V34.088H286.242C286.156 34.088 286.084 34.064 286.026 34.016C285.967 33.9627 285.938 33.8827 285.938 33.776V33.208L287.266 33.04L287.594 30.536C287.61 30.456 287.644 30.392 287.698 30.344C287.756 30.2907 287.831 30.264 287.922 30.264H288.642V33.056H290.986V34.088H288.642V38.952C288.642 39.2933 288.724 39.5467 288.89 39.712C289.055 39.8773 289.268 39.96 289.53 39.96C289.679 39.96 289.807 39.9413 289.914 39.904C290.026 39.8613 290.122 39.816 290.202 39.768C290.282 39.72 290.348 39.6773 290.402 39.64C290.46 39.5973 290.511 39.576 290.554 39.576C290.628 39.576 290.695 39.6213 290.754 39.712L291.17 40.392C290.924 40.6213 290.628 40.8027 290.282 40.936C289.935 41.064 289.578 41.128 289.21 41.128ZM294.944 41.128C294.304 41.128 293.811 40.9493 293.464 40.592C293.123 40.2347 292.952 39.72 292.952 39.048V34.088H291.976C291.891 34.088 291.819 34.064 291.76 34.016C291.701 33.9627 291.672 33.8827 291.672 33.776V33.208L293 33.04L293.328 30.536C293.344 30.456 293.379 30.392 293.432 30.344C293.491 30.2907 293.565 30.264 293.656 30.264H294.376V33.056H296.72V34.088H294.376V38.952C294.376 39.2933 294.459 39.5467 294.624 39.712C294.789 39.8773 295.003 39.96 295.264 39.96C295.413 39.96 295.541 39.9413 295.648 39.904C295.76 39.8613 295.856 39.816 295.936 39.768C296.016 39.72 296.083 39.6773 296.136 39.64C296.195 39.5973 296.245 39.576 296.288 39.576C296.363 39.576 296.429 39.6213 296.488 39.712L296.904 40.392C296.659 40.6213 296.363 40.8027 296.016 40.936C295.669 41.064 295.312 41.128 294.944 41.128ZM301.56 32.768C302.152 32.768 302.685 32.8667 303.16 33.064C303.634 33.2613 304.04 33.5413 304.376 33.904C304.712 34.2667 304.968 34.7067 305.144 35.224C305.325 35.736 305.416 36.3093 305.416 36.944C305.416 37.584 305.325 38.16 305.144 38.672C304.968 39.184 304.712 39.6213 304.376 39.984C304.04 40.3467 303.634 40.6267 303.16 40.824C302.685 41.016 302.152 41.112 301.56 41.112C300.962 41.112 300.424 41.016 299.944 40.824C299.469 40.6267 299.064 40.3467 298.728 39.984C298.392 39.6213 298.133 39.184 297.952 38.672C297.776 38.16 297.688 37.584 297.688 36.944C297.688 36.3093 297.776 35.736 297.952 35.224C298.133 34.7067 298.392 34.2667 298.728 33.904C299.064 33.5413 299.469 33.2613 299.944 33.064C300.424 32.8667 300.962 32.768 301.56 32.768ZM301.56 40C302.36 40 302.957 39.7333 303.352 39.2C303.746 38.6613 303.944 37.912 303.944 36.952C303.944 35.9867 303.746 35.2347 303.352 34.696C302.957 34.1573 302.36 33.888 301.56 33.888C301.154 33.888 300.8 33.9573 300.496 34.096C300.197 34.2347 299.946 34.4347 299.744 34.696C299.546 34.9573 299.397 35.28 299.296 35.664C299.2 36.0427 299.152 36.472 299.152 36.952C299.152 37.912 299.349 38.6613 299.744 39.2C300.144 39.7333 300.749 40 301.56 40ZM308.566 34.072C308.742 33.8747 308.928 33.696 309.126 33.536C309.323 33.376 309.531 33.24 309.75 33.128C309.974 33.0107 310.208 32.9227 310.454 32.864C310.704 32.8 310.974 32.768 311.262 32.768C311.704 32.768 312.094 32.8427 312.43 32.992C312.771 33.136 313.054 33.344 313.278 33.616C313.507 33.8827 313.68 34.2053 313.798 34.584C313.915 34.9627 313.974 35.3813 313.974 35.84V41H312.542V35.84C312.542 35.2267 312.4 34.752 312.118 34.416C311.84 34.0747 311.416 33.904 310.846 33.904C310.424 33.904 310.03 34.0053 309.662 34.208C309.299 34.4107 308.963 34.6853 308.654 35.032V41H307.222V32.896H308.078C308.28 32.896 308.406 32.9947 308.454 33.192L308.566 34.072Z" fill="white"/>
</svg>
