<svg width="24" height="24" viewBox="0 0 24 24" fill="none" xmlns="http://www.w3.org/2000/svg">
<path d="M2.26925 19.2693C1.92442 19.2693 1.62667 19.1439 1.376 18.8932C1.12533 18.6426 1 18.3448 1 18H4.6155C4.15517 18 3.77083 17.8458 3.4625 17.5375C3.15417 17.2292 3 16.8448 3 16.3845V5.6155C3 5.15517 3.15417 4.77083 3.4625 4.4625C3.77083 4.15417 4.15517 4 4.6155 4H19.3845C19.8448 4 20.2292 4.15417 20.5375 4.4625C20.8458 4.77083 21 5.15517 21 5.6155V16.3845C21 16.8448 20.8458 17.2292 20.5375 17.5375C20.2292 17.8458 19.8448 18 19.3845 18H23C23 18.3448 22.8747 18.6426 22.624 18.8932C22.3733 19.1439 22.0756 19.2693 21.7307 19.2693H2.26925ZM12 18.7693C12.168 18.7693 12.3126 18.7087 12.4338 18.5875C12.5549 18.4663 12.6155 18.3218 12.6155 18.1538C12.6155 17.9859 12.5549 17.8414 12.4338 17.7203C12.3126 17.5991 12.168 17.5385 12 17.5385C11.832 17.5385 11.6874 17.5991 11.5663 17.7203C11.4451 17.8414 11.3845 17.9859 11.3845 18.1538C11.3845 18.3218 11.4451 18.4663 11.5663 18.5875C11.6874 18.7087 11.832 18.7693 12 18.7693ZM4.6155 17H19.3845C19.5385 17 19.6796 16.9359 19.8078 16.8078C19.9359 16.6796 20 16.5385 20 16.3845V5.6155C20 5.4615 19.9359 5.32042 19.8078 5.19225C19.6796 5.06408 19.5385 5 19.3845 5H4.6155C4.4615 5 4.32042 5.06408 4.19225 5.19225C4.06408 5.32042 4 5.4615 4 5.6155V16.3845C4 16.5385 4.06408 16.6796 4.19225 16.8078C4.32042 16.9359 4.4615 17 4.6155 17Z" />
</svg>
