<svg width="24" height="24" viewBox="0 0 24 24" fill="none" xmlns="http://www.w3.org/2000/svg">
<path d="M12 20.0385C12.2063 20.0385 12.3862 19.9619 12.5395 19.8087C12.6927 19.6554 12.7692 19.4756 12.7692 19.2693C12.7692 19.0628 12.6927 18.8829 12.5395 18.7298C12.3862 18.5766 12.2063 18.5 12 18.5C11.7937 18.5 11.6138 18.5766 11.4605 18.7298C11.3073 18.8829 11.2308 19.0628 11.2308 19.2693C11.2308 19.4756 11.3073 19.6554 11.4605 19.8087C11.6138 19.9619 11.7937 20.0385 12 20.0385ZM5.6155 22C5.168 22 4.78683 21.8427 4.472 21.528C4.15733 21.2132 4 20.832 4 20.3845V3.6155C4 3.168 4.15733 2.78683 4.472 2.472C4.78683 2.15733 5.168 2 5.6155 2H18.3845C18.832 2 19.2132 2.15733 19.528 2.472C19.8427 2.78683 20 3.168 20 3.6155V20.3845C20 20.832 19.8427 21.2132 19.528 21.528C19.2132 21.8427 18.832 22 18.3845 22H5.6155ZM5 17.5385V20.3845C5 20.564 5.05767 20.7115 5.173 20.827C5.2885 20.9423 5.436 21 5.6155 21H18.3845C18.564 21 18.7115 20.9423 18.827 20.827C18.9423 20.7115 19 20.564 19 20.3845V17.5385H5ZM5 16.5385H19V5.5H5V16.5385ZM5 4.5H19V3.6155C19 3.436 18.9423 3.2885 18.827 3.173C18.7115 3.05767 18.564 3 18.3845 3H5.6155C5.436 3 5.2885 3.05767 5.173 3.173C5.05767 3.2885 5 3.436 5 3.6155V4.5Z" />
</svg>
