<svg width="414" height="120" viewBox="0 0 414 120" fill="none" xmlns="http://www.w3.org/2000/svg">
<rect x="0.5" y="0.5" width="413" height="119" fill="white"/>
<rect x="0.5" y="0.5" width="413" height="119" stroke="#D7DADE"/>
<rect x="16" y="16" width="68" height="8" fill="#D7DADE"/>
<rect x="16" y="32" width="119.333" height="8" fill="#D7DADE"/>
<rect x="16" y="48" width="119.333" height="8" fill="#D7DADE"/>
<rect x="16" y="64" width="119.333" height="8" fill="#D7DADE"/>
<rect x="16" y="80" width="119.333" height="8" fill="#D7DADE"/>
<rect x="16" y="96" width="119.333" height="8" fill="#D7DADE"/>
<rect x="147.333" y="16" width="68" height="8" fill="#D7DADE"/>
<rect x="147.333" y="32" width="119.333" height="8" fill="#D7DADE"/>
<rect x="147.333" y="48" width="119.333" height="8" fill="#D7DADE"/>
<rect x="147.333" y="64" width="119.333" height="8" fill="#D7DADE"/>
<rect x="147.333" y="80" width="119.333" height="8" fill="#D7DADE"/>
<rect x="147.333" y="96" width="119.333" height="8" fill="#D7DADE"/>
<rect x="278.667" y="16" width="68" height="8" fill="#D7DADE"/>
<rect x="278.667" y="32" width="119.333" height="8" fill="#D7DADE"/>
<rect x="278.667" y="48" width="119.333" height="8" fill="#D7DADE"/>
<rect x="278.667" y="64" width="119.333" height="8" fill="#D7DADE"/>
<rect x="278.667" y="80" width="119.333" height="8" fill="#D7DADE"/>
<rect x="278.667" y="96" width="119.333" height="8" fill="#D7DADE"/>
</svg>
