<svg width="180" height="155" viewBox="0 0 180 155" fill="none" xmlns="http://www.w3.org/2000/svg">
<rect x="113.583" y="30.875" width="55.5731" height="70.9309" stroke="#243038" stroke-width="1.75"/>
<path fill-rule="evenodd" clip-rule="evenodd" d="M139.5 142C117.132 142 99 139.333 99 136.043C99 132.752 117.132 130.085 139.5 130.085C161.868 130.085 180 132.752 180 136.043C180 139.333 161.868 142 139.5 142Z" fill="black" fill-opacity="0.05"/>
<rect x="118.567" y="65.4282" width="45.6038" height="30.4202" fill="#F2F2F2" stroke="#243038" stroke-width="1.75"/>
<rect x="138.506" y="47.5559" width="10.7115" height="10.1649" fill="#E7F4FC" stroke="#243038" stroke-width="1.75"/>
<rect x="153.46" y="47.5559" width="10.7115" height="10.1649" fill="#E3FFF2" stroke="#243038" stroke-width="1.75"/>
<rect x="118.567" y="47.5559" width="15.6962" height="10.1649" fill="#F9F0FF" stroke="#243038" stroke-width="1.75"/>
<rect x="117.692" y="38.3403" width="27.4154" height="3.57447" fill="#243038"/>
<path fill-rule="evenodd" clip-rule="evenodd" d="M142.071 71.5394L145.564 76.3903C145.945 76.9183 145.711 77.3644 145.026 77.3644H137.713C137.027 77.3644 136.787 76.9283 137.174 76.3903L140.668 71.5394C141.048 71.0114 141.683 71.0014 142.071 71.5394Z" fill="#2D3B45"/>
<path fill-rule="evenodd" clip-rule="evenodd" d="M140.664 90.0707L137.171 85.2199C136.79 84.6918 137.025 84.2457 137.71 84.2457L145.022 84.2457C145.708 84.2457 145.948 84.6818 145.561 85.2199L142.067 90.0707C141.687 90.5987 141.052 90.6087 140.664 90.0707Z" fill="#2D3B45"/>
<path fill-rule="evenodd" clip-rule="evenodd" d="M62.3232 154.782C30.843 154.782 5.32324 150.753 5.32324 145.782C5.32324 140.811 30.843 136.782 62.3232 136.782C93.8035 136.782 119.323 140.811 119.323 145.782C119.323 150.753 93.8035 154.782 62.3232 154.782Z" fill="black" fill-opacity="0.05"/>
<path fill-rule="evenodd" clip-rule="evenodd" d="M37.5001 95.7478C38.3681 96.3672 39.2612 96.972 40.174 97.5631C38.3299 102.178 33.6815 112.307 26.3581 118.408C16.6469 126.497 9.1561 115.742 10.4171 109.276C11.5928 103.245 21.4019 98.6827 37.5001 95.7478Z" fill="#2D3B45"/>
<path d="M15.7061 120.301C18.5268 121.88 22.243 121.835 26.358 118.408C33.6814 112.307 38.3297 102.178 40.1739 97.5631C39.2611 96.972 38.368 96.3672 37.5 95.7478C36.8243 95.871 36.1597 95.997 35.5064 96.126C35.7276 96.2725 36.2763 97.4182 36.5 97.5631C34.5 104 30.6814 111.307 23.358 117.408C20.9748 119.393 17.7253 120.243 15.7061 120.301Z" fill="#28343D"/>
<path fill-rule="evenodd" clip-rule="evenodd" d="M37.5001 95.7478C38.3681 96.3672 39.2612 96.972 40.174 97.5631C38.3299 102.178 33.6815 112.307 26.3581 118.408C16.6469 126.497 9.1561 115.742 10.4171 109.276C11.5928 103.245 21.4019 98.6827 37.5001 95.7478Z" stroke="#152633" stroke-width="2"/>
<path fill-rule="evenodd" clip-rule="evenodd" d="M81.46 96.6209C91.1549 83.4386 99.5559 76.6223 105.492 78.2095C111.856 79.9105 118.239 91.3578 106.711 96.54C98.0177 100.448 86.8753 100.185 81.9194 99.82C81.7882 98.7405 81.6362 97.6726 81.46 96.6209Z" fill="#2D3B45"/>
<path d="M81.509 96.9187C81.6646 97.874 81.8005 98.8422 81.9192 99.82C86.8752 100.185 98.0175 100.448 106.711 96.54C115.234 92.7085 113.966 85.4523 110.154 81.2424C112.067 85.3528 111.441 90.5143 104.711 93.54C96.8517 97.0731 86.9908 97.1974 81.509 96.9187Z" fill="#28343D"/>
<path fill-rule="evenodd" clip-rule="evenodd" d="M81.46 96.6209C91.1549 83.4386 99.5559 76.6223 105.492 78.2095C111.856 79.9105 118.239 91.3578 106.711 96.54C98.0177 100.448 86.8753 100.185 81.9194 99.82C81.7882 98.7405 81.6362 97.6726 81.46 96.6209Z" stroke="#152633" stroke-width="2"/>
<path fill-rule="evenodd" clip-rule="evenodd" d="M40.9847 91.9897C48.1279 94.3685 56.2802 95.6615 64.9377 95.6615C72.6547 95.6615 75.8461 92.0799 82.148 90.2949C88.3623 95.6615 91.4921 105.893 92.1198 110.915C93.9662 123.837 82.7332 135.163 62.7867 135.163C42.8401 135.163 32.4198 123.43 34.6964 111.306C36.2656 102.953 38.7949 96.6424 40.9847 91.9897Z" fill="white"/>
<path d="M38.3999 125.644C42.9606 131.267 51.2917 135.163 62.7867 135.163C82.7332 135.163 93.9662 123.837 92.1198 110.915C91.4921 105.893 88.3623 95.6615 82.148 90.2949C82.0988 90.3089 82.0498 90.3229 82.0009 90.3371C86.3361 95.9273 88.5967 103.73 89.1198 107.915C90.9662 120.837 79.7332 132.163 59.7867 132.163C50.4734 132.163 43.2369 129.606 38.3999 125.644Z" fill="#EDEDED"/>
<path fill-rule="evenodd" clip-rule="evenodd" d="M40.9847 91.9897C48.1279 94.3685 56.2802 95.6615 64.9377 95.6615C72.6547 95.6615 75.8461 92.0799 82.148 90.2949C88.3623 95.6615 91.4921 105.893 92.1198 110.915C93.9662 123.837 82.7332 135.163 62.7867 135.163C42.8401 135.163 32.4198 123.43 34.6964 111.306C36.2656 102.953 38.7949 96.6424 40.9847 91.9897Z" stroke="#152633" stroke-width="2"/>
<path fill-rule="evenodd" clip-rule="evenodd" d="M34.5 112.5C32.9755 123.154 41.4044 133.14 57.2908 135.072L56.9556 136.577C55.7823 142.835 53.4356 145.182 49.5246 146.355C40.9202 149.484 22.1469 148.311 24.1025 140.88C26.1884 130.189 29.5405 120.844 34.5 112.5Z" fill="#2D3B45"/>
<path d="M28.4875 146.52C34.2092 148.601 43.9789 148.372 49.5245 146.355C53.4356 145.182 55.7823 142.835 56.9556 136.577L57.2908 135.072C55.8756 134.9 54.5197 134.664 53.2246 134.369L52.9556 135.577C51.7823 141.835 49.4356 144.182 45.5245 145.355C41.1268 146.954 34.0728 147.429 28.4875 146.52Z" fill="#28343D"/>
<path fill-rule="evenodd" clip-rule="evenodd" d="M34.5 112.5C32.9755 123.154 41.4044 133.14 57.2908 135.072L56.9556 136.577C55.7823 142.835 53.4356 145.182 49.5246 146.355C40.9202 149.484 22.1469 148.311 24.1025 140.88C26.1884 130.189 29.5405 120.844 34.5 112.5Z" stroke="#152633" stroke-width="2"/>
<path fill-rule="evenodd" clip-rule="evenodd" d="M92.5709 112L92.6284 112.001C93.0195 115.13 100.059 124.516 103.188 140.552C105.144 147.983 86.3706 149.156 77.7663 146.027C73.8552 144.854 71.5085 142.507 70.3352 136.25L70.0164 134.946L70 134.587C85.055 132.369 93.4661 122.866 92.5709 112Z" fill="#2D3B45"/>
<path d="M72.8867 143.544C74.0874 144.955 75.6063 145.79 77.4868 146.355C86.0912 149.484 104.864 148.31 102.909 140.879C100.809 130.12 96.9492 122.353 94.5181 117.463C93.3261 115.064 92.4776 113.358 92.349 112.328L92.2915 112.327C92.3668 113.242 92.3464 115.608 92.2915 116.5C94.7815 121.697 97.2346 127.91 99.184 138.154C101.198 146.001 82.8617 147.241 73.9991 143.936C73.6137 143.818 73.243 143.688 72.8867 143.544Z" fill="#28343D"/>
<path fill-rule="evenodd" clip-rule="evenodd" d="M92.2914 112.327L92.3488 112.328C92.74 115.457 99.7799 124.844 102.909 140.879C104.864 148.31 86.0911 149.484 77.4867 146.355C73.5756 145.181 71.229 142.835 70.0556 136.577L69.7369 135.273L69.7205 134.914C84.7754 132.696 93.1866 123.193 92.2914 112.327Z" stroke="#152633" stroke-width="2"/>
<path fill-rule="evenodd" clip-rule="evenodd" d="M109.908 52.3262C114.168 75.3168 95.6629 91.4544 67.0938 96.7472C38.5251 102.04 17.4485 92.5875 10.847 71.164C3.71929 48.0319 22.81 17.2131 51.3792 11.9203C79.9479 6.62768 105.429 28.1467 109.908 52.3262Z" fill="white"/>
<path d="M63.0937 95.7474C91.6628 90.4546 110.168 74.317 105.908 51.3264C102.652 33.7475 88.2948 17.5749 69.721 12.0889C90.2094 16.2953 106.422 33.5048 109.908 52.3264C114.168 75.317 95.6628 91.4546 67.0937 96.7474C55.4083 98.9124 44.9763 98.6104 36.2756 96.0312C44.1106 97.6456 53.1482 97.59 63.0937 95.7474Z" fill="#EDEDED"/>
<path fill-rule="evenodd" clip-rule="evenodd" d="M109.908 52.3262C114.168 75.3168 95.6629 91.4544 67.0938 96.7472C38.5251 102.04 17.4485 92.5875 10.847 71.164C3.71929 48.0319 22.81 17.2131 51.3792 11.9203C79.9479 6.62768 105.429 28.1467 109.908 52.3262Z" stroke="#152633" stroke-width="2"/>
<path fill-rule="evenodd" clip-rule="evenodd" d="M69.7751 90.7455C68.645 91.887 67.5687 92.5053 66.602 92.5388C65.6013 92.5735 64.6982 91.9844 63.918 90.7878C63.4913 90.1343 63.0838 89.4174 62.7041 88.6895C65.5017 88.6151 68.0001 89.1687 69.7751 90.7455ZM58.9212 83.1641C59.6468 85.2611 60.6525 88.1346 62.8417 91.4903C63.8705 93.0666 65.1861 93.8734 66.6461 93.8226C67.0502 93.8088 67.4581 93.7307 67.869 93.5885C69.8926 92.8883 71.9968 90.6329 74.1432 86.8682C76.2601 86.6336 77.9651 86.16 79.0654 85.7793C79.8781 85.4981 80.3638 85.2692 80.4492 85.2282C81.2769 84.7814 80.9092 83.7189 79.8903 84.0714C79.8016 84.1144 71.3547 88.0577 61.8301 83.4699C61.8019 83.4559 60.7528 83.0501 59.8599 82.404C58.7504 81.5128 58.4375 81.7662 58.9212 83.1641Z" fill="#152633"/>
<path fill-rule="evenodd" clip-rule="evenodd" d="M66.8576 74.4467C66.4722 72.367 69.6207 70.0398 73.8893 69.2488C78.1584 68.458 81.9313 69.5026 82.3168 71.5827C82.7018 73.6625 79.5537 75.9895 75.285 76.7802C71.0159 77.571 67.2429 76.526 66.8576 74.4467Z" fill="#152633"/>
<path fill-rule="evenodd" clip-rule="evenodd" d="M42.3712 83.9102C52.4525 82.0428 61.0934 68.7407 58.8186 56.461C56.276 42.7344 45.6362 30.4009 36.8594 32.027C32.4904 32.836 27.8794 37.1001 24.6199 43.4724C21.3221 49.9193 20.0273 57.4 21.1462 63.4405C23.5664 76.5041 33.1591 85.6172 42.3712 83.9102Z" fill="#2D3B45" stroke="#152633" stroke-width="2"/>
<path fill-rule="evenodd" clip-rule="evenodd" d="M50.2858 55.4478C52.6109 55.689 54.1884 58.8473 53.8091 62.5009C53.4301 66.1552 51.2374 68.9212 48.9122 68.68C46.5869 68.4384 45.0094 65.2809 45.3885 61.627C45.768 57.9729 47.9606 55.2065 50.2858 55.4478Z" fill="white"/>
<path fill-rule="evenodd" clip-rule="evenodd" d="M83.876 62.6066C87.5585 66.4087 91.2806 68.0088 94.3404 67.5262C94.395 67.5178 94.4464 67.5092 94.4957 67.5C96.6807 67.0951 99.2648 65.4557 100.743 63.3654C104.347 58.2706 105.368 53.2249 103.955 45.596C101.726 33.568 87.4116 20.2016 78.7787 21.8007C76.9071 22.1475 75.5015 23.066 74.5454 24.5548C71.6991 28.9868 72.4108 37.9753 75.881 49.0877C77.3712 53.8616 80.2515 58.8641 83.876 62.6066Z" fill="#2D3B45" stroke="#152633" stroke-width="2"/>
<path fill-rule="evenodd" clip-rule="evenodd" d="M90.3133 52.5721C91.6759 55.2566 91.3961 58.136 89.6879 59.003C87.9794 59.8706 85.4901 58.3973 84.1271 55.713C82.7641 53.0286 83.0444 50.1495 84.7522 49.2822C86.4603 48.4148 88.9504 49.8882 90.3133 52.5721Z" fill="white"/>
<path fill-rule="evenodd" clip-rule="evenodd" d="M13.1099 42.2958C11.5578 41.9647 9.85376 41.3919 8.07886 40.4415C1.25162 36.7867 0.972322 28.6384 1.00168 26.5832C1.03053 24.5277 1.6467 14.5736 9.98578 17.5387C15.3713 19.4534 21.2862 23.3195 24.8029 25.8194C19.8992 30.5817 15.9316 36.2166 13.1099 42.2958Z" fill="#2D3B45"/>
<path d="M6.07894 37.4416C7.85385 38.3919 9.55786 38.9647 11.1099 39.2959C13.743 33.6232 17.3737 28.3373 21.8319 23.7864C22.9373 24.5135 23.942 25.2074 24.803 25.8194C19.8992 30.5817 15.9317 36.2167 13.1099 42.2959C11.5579 41.9647 9.85385 41.3919 8.07894 40.4416C5.45262 39.0356 3.79527 36.9647 2.75171 34.8315C3.63738 35.8225 4.73043 36.7197 6.07894 37.4416Z" fill="#28343D"/>
<path fill-rule="evenodd" clip-rule="evenodd" d="M13.1099 42.2958C11.5578 41.9647 9.85376 41.3919 8.07886 40.4415C1.25162 36.7867 0.972322 28.6384 1.00168 26.5832C1.03053 24.5277 1.6467 14.5736 9.98578 17.5387C15.3713 19.4534 21.2862 23.3195 24.8029 25.8194C19.8992 30.5817 15.9316 36.2166 13.1099 42.2958Z" stroke="#152633" stroke-width="2"/>
<path fill-rule="evenodd" clip-rule="evenodd" d="M93.8033 20.5132C93.1003 21.3262 92.3743 22.0146 91.6508 22.5982C86.9878 18.8158 81.652 15.7785 75.8657 13.7789C77.9397 10.668 81.4705 5.80253 85.1772 2.62957C90.9857 -2.34259 94.5631 5.49582 95.2229 7.14437C95.8828 8.79329 98.1789 15.4521 93.8033 20.5132Z" fill="#2D3B45"/>
<path d="M89.6508 19.5983C90.3743 19.0147 91.1003 18.3263 91.8033 17.5133C96.1789 12.4522 93.8828 5.79337 93.2229 4.14444C93.1177 3.88153 92.9383 3.46117 92.6874 2.96045C94.0655 4.4685 94.9306 6.41403 95.2229 7.14444C95.8828 8.79337 98.1789 15.4522 93.8033 20.5133C93.1003 21.3263 92.3743 22.0147 91.6508 22.5983C86.9878 18.8158 81.652 15.7786 75.8657 13.7789C76.2268 13.2373 76.6321 12.6425 77.0748 12.0126C81.6313 13.945 85.863 16.5258 89.6508 19.5983Z" fill="#28343D"/>
<path fill-rule="evenodd" clip-rule="evenodd" d="M93.8033 20.5132C93.1003 21.3262 92.3743 22.0146 91.6508 22.5982C86.9878 18.8158 81.652 15.7785 75.8657 13.7789C77.9397 10.668 81.4705 5.80253 85.1772 2.62957C90.9857 -2.34259 94.5631 5.49582 95.2229 7.14437C95.8828 8.79329 98.1789 15.4521 93.8033 20.5132Z" stroke="#152633" stroke-width="2"/>
</svg>
