<svg width="180" height="152" viewBox="0 0 180 152" fill="none" xmlns="http://www.w3.org/2000/svg">
<path fill-rule="evenodd" clip-rule="evenodd" d="M155 95H95C92.791 95 91 93.209 91 91V22C91 19.791 92.791 18 95 18H155C157.209 18 159 19.791 159 22V91C159 93.209 157.209 95 155 95" fill="#F6F7F6"/>
<path fill-rule="evenodd" clip-rule="evenodd" d="M95 19C93.346 19 92 20.346 92 22V91C92 92.654 93.346 94 95 94H155C156.654 94 158 92.654 158 91V22C158 20.346 156.654 19 155 19H95ZM155 96H95C92.243 96 90 93.757 90 91V22C90 19.243 92.243 17 95 17H155C157.757 17 160 19.243 160 22V91C160 93.757 157.757 96 155 96V96Z" fill="#243038"/>
<rect x="130.706" y="26.6492" width="28.6964" height="29.25" rx="4.125" transform="rotate(4 130.706 26.6492)" fill="#E7F4FC" stroke="#243038" stroke-width="1.75"/>
<path fill-rule="evenodd" clip-rule="evenodd" d="M151.342 44.7836C150.076 44.1904 148.751 43.7437 147.394 43.42L147.332 43.4156C149.015 42.4444 150.203 40.6808 150.349 38.6019L150.369 38.3072C150.019 38.4981 149.571 38.7494 148.956 38.8962C148.6 41.2807 146.444 43.04 143.993 42.8685C141.624 42.7029 139.777 40.7983 139.642 38.4859C139.616 38.2821 139.618 38.0682 139.633 37.8526L139.683 37.1293C139.7 37.1291 139.711 37.1258 139.727 37.1242C139.853 37.1115 139.966 37.0912 140.081 37.0696C140.179 37.0522 140.276 37.0334 140.363 37.0099C140.459 36.9843 140.551 36.9584 140.638 36.9268C140.738 36.8921 140.829 36.8554 140.921 36.816C140.983 36.7868 141.048 36.7617 141.107 36.7321C141.196 36.6872 141.28 36.6433 141.363 36.5979C141.405 36.5739 141.453 36.5504 141.493 36.5289C141.553 36.4955 141.611 36.4659 141.67 36.435C142.097 36.2077 142.5 36.0354 143.226 36.0848L143.229 36.085C143.86 36.1291 144.226 36.2988 144.565 36.5243C144.676 36.5995 144.786 36.6825 144.903 36.7687C145.3 37.0684 145.741 37.394 146.44 37.5788C146.448 37.5807 146.453 37.5851 146.461 37.587C146.699 37.6481 146.968 37.6925 147.274 37.7139C147.28 37.7143 147.284 37.7132 147.289 37.7136C148.515 37.7966 149.183 37.4314 149.769 37.1077L150.459 36.7454L150.46 36.7441L150.467 36.7392L150.437 36.4828L150.422 36.2973C150.388 35.8843 150.297 35.485 150.182 35.0946C149.944 34.2825 149.546 33.5251 148.973 32.8672C148.675 32.522 148.332 32.2154 147.973 31.9614C147.064 31.2935 145.975 30.8929 144.836 30.8133C142.224 30.6307 139.87 32.1486 138.876 34.4346C138.604 35.0482 138.437 35.7095 138.387 36.4194L138.293 37.7589C138.277 37.9866 138.275 38.2153 138.288 38.4316C138.361 40.2525 139.261 41.8741 140.627 42.9401L140.567 42.9359C139.225 43.0615 137.894 43.3089 136.599 43.6975C134.887 44.2132 133.701 45.6808 133.578 47.4396L133.406 49.9069L133.71 50.1246C135.664 51.5359 138.905 53.2809 143.244 53.5843C145.639 53.7518 149.305 53.5249 153.168 51.4853L153.498 51.3118L153.67 48.8445C153.791 47.126 152.855 45.4951 151.342 44.7836" fill="#2D3B45"/>
<rect x="129.666" y="62.6509" width="28.6964" height="29.25" rx="4.125" transform="rotate(-4 129.666 62.6509)" fill="#FFF6DC" stroke="#243038" stroke-width="1.75"/>
<path fill-rule="evenodd" clip-rule="evenodd" d="M152.485 77.7467C151.15 77.3354 149.775 77.0775 148.386 76.9458L148.324 76.9501C149.856 75.7541 150.787 73.8422 150.642 71.7634L150.621 71.4687C150.301 71.7064 149.892 72.0177 149.304 72.2486C149.283 74.6595 147.393 76.7016 144.942 76.873C142.572 77.0387 140.478 75.4097 140.023 73.1385C139.969 72.9404 139.941 72.7283 139.926 72.5127L139.875 71.7894C139.891 71.7869 139.902 71.7821 139.917 71.7783C140.041 71.7482 140.15 71.7123 140.26 71.675C140.355 71.6441 140.448 71.612 140.532 71.5765C140.623 71.5378 140.711 71.4994 140.793 71.456C140.886 71.4077 140.972 71.3587 141.057 71.307C141.115 71.2693 141.176 71.2354 141.23 71.198C141.312 71.1411 141.389 71.0859 141.464 71.0295C141.503 70.9999 141.548 70.9698 141.583 70.9431C141.638 70.9015 141.692 70.8641 141.746 70.8254C142.137 70.541 142.513 70.3141 143.238 70.262L143.241 70.2618C143.872 70.2177 144.258 70.3347 144.625 70.511C144.746 70.5698 144.866 70.6368 144.994 70.7059C145.429 70.9474 145.91 71.2085 146.629 71.2942C146.637 71.295 146.642 71.2987 146.65 71.2994C146.895 71.3268 147.167 71.3333 147.474 71.3119C147.479 71.3115 147.483 71.3099 147.488 71.3095C148.714 71.2211 149.324 70.7666 149.86 70.3643L150.493 69.9095L150.493 69.9082L150.499 69.9023L150.435 69.6525L150.394 69.4709C150.302 69.0668 150.157 68.6839 149.988 68.3134C149.64 67.5423 149.14 66.8477 148.481 66.276C148.138 65.9755 147.756 65.7196 147.365 65.5182C146.372 64.9832 145.237 64.7382 144.099 64.8178C141.487 65.0004 139.367 66.8312 138.7 69.2333C138.517 69.8788 138.443 70.557 138.493 71.2669L138.586 72.6063C138.602 72.8341 138.632 73.0608 138.675 73.2732C139.001 75.0662 140.118 76.5467 141.618 77.4123L141.558 77.4165C140.247 77.7276 138.964 78.1579 137.735 78.7229C136.112 79.4718 135.141 81.0903 135.264 82.849L135.437 85.3163L135.768 85.4896C137.9 86.6153 141.353 87.8921 145.691 87.5888C148.086 87.4213 151.685 86.6864 155.227 84.129L155.529 83.9113L155.357 81.444C155.236 79.7255 154.083 78.2407 152.485 77.7467" fill="#2D3B45"/>
<rect x="90.8848" y="30.8635" width="28.6964" height="29.25" rx="4.125" transform="rotate(-6 90.8848 30.8635)" fill="#F9F0FF" stroke="#243038" stroke-width="1.75"/>
<path fill-rule="evenodd" clip-rule="evenodd" d="M110.635 41.9546L101.775 42.8858L101.309 38.4558L110.169 37.5245L110.635 41.9546ZM102.561 45.0427L110.314 44.2278L110.197 43.1203L102.445 43.9352L102.561 45.0427ZM101.615 50.7409L111.45 49.7073L111.333 48.5997L102.041 49.5764C101.166 49.6683 100.476 50.3455 100.424 51.1348C100.423 51.2245 100.421 51.3143 100.429 51.3918L100.433 51.4251C100.475 51.8238 100.647 52.1864 100.944 52.4575C101.294 52.8014 101.781 52.963 102.268 52.9117L111.682 51.9223L111.566 50.8148L101.731 51.8485L101.615 50.7409ZM114.656 48.2505L113.142 33.8528L100.406 35.1914C98.8776 35.352 97.7676 36.7228 97.9282 38.2512L99.3251 51.5415C99.3938 52.1949 99.6939 52.8128 100.167 53.267C100.764 53.8313 101.576 54.1042 102.385 54.0192L114.568 52.7388L114.451 51.6313L112.79 51.8059L112.441 48.4833L114.656 48.2505Z" fill="#2D3B45"/>
<rect x="98.12" y="61.5527" width="28.6964" height="29.25" rx="4.125" transform="rotate(3 98.12 61.5527)" fill="#E3FFF2" stroke="#243038" stroke-width="1.75"/>
<path fill-rule="evenodd" clip-rule="evenodd" d="M115.892 75.5964L106.995 75.1302L107.228 70.6818L116.125 71.148L115.892 75.5964ZM107.435 77.3835L115.219 77.7915L115.278 76.6794L107.493 76.2714L107.435 77.3835ZM105.609 82.8635L115.484 83.3811L115.542 82.269L106.212 81.78C105.333 81.734 104.546 82.2949 104.371 83.0663C104.356 83.1547 104.34 83.2431 104.336 83.3209L104.334 83.3543C104.313 83.7547 104.427 84.1398 104.678 84.454C104.969 84.8485 105.425 85.0842 105.915 85.1099L115.367 85.6053L115.426 84.4932L105.55 83.9756L105.609 82.8635ZM118.879 82.4438L119.636 67.9866L106.847 67.3164C105.312 67.2359 104.002 68.4162 103.921 69.9509L103.222 83.296C103.187 83.9522 103.387 84.6094 103.784 85.132C104.285 85.7827 105.045 86.1794 105.856 86.222L118.089 86.8631L118.148 85.751L116.48 85.6635L116.654 82.3273L118.879 82.4438Z" fill="#2D3B45"/>
<path fill-rule="evenodd" clip-rule="evenodd" d="M145.874 25H104.126C102.666 25 101.698 23.487 102.31 22.162L107 12H143L147.69 22.162C148.302 23.487 147.334 25 145.874 25" fill="#C0C6CB"/>
<path fill-rule="evenodd" clip-rule="evenodd" d="M107.64 13L103.218 22.581C103.073 22.897 103.096 23.246 103.284 23.539C103.471 23.832 103.779 24 104.126 24H145.874C146.222 24 146.53 23.832 146.717 23.539C146.905 23.246 146.928 22.897 146.783 22.581L142.361 13H107.64ZM145.874 26H104.126C103.098 26 102.154 25.483 101.599 24.617C101.045 23.751 100.971 22.677 101.402 21.743L106.361 11H143.64L148.599 21.743C149.03 22.677 148.955 23.751 148.402 24.617C147.847 25.483 146.903 26 145.874 26V26Z" fill="#243038"/>
<path fill-rule="evenodd" clip-rule="evenodd" d="M125 1C114 1 114 12 114 12H136C136 12 134.667 1 125 1" fill="#E5E7E9"/>
<path fill-rule="evenodd" clip-rule="evenodd" d="M115.071 11H134.799C134.189 8.354 131.999 2 125 2C116.923 2 115.369 8.454 115.071 11V11ZM137.129 13H113V12C113 11.88 113.137 0 125 0C135.432 0 136.978 11.761 136.993 11.88L137.129 13Z" fill="#243038"/>
<path fill-rule="evenodd" clip-rule="evenodd" d="M126.667 6.55127C126.667 7.65627 125.771 8.55127 124.667 8.55127C123.563 8.55127 122.667 7.65627 122.667 6.55127C122.667 5.44727 123.563 4.55127 124.667 4.55127C125.771 4.55127 126.667 5.44727 126.667 6.55127" fill="#243038"/>
<path d="M113 135.5C150.003 135.5 180 133.149 180 130.25C180 127.351 150.003 125 113 125C75.9969 125 46 127.351 46 130.25C46 133.149 75.9969 135.5 113 135.5Z" fill="black" fill-opacity="0.05"/>
<path d="M53 151.5C81.7188 151.5 105 147.359 105 142.25C105 137.141 81.7188 133 53 133C24.2812 133 1 137.141 1 142.25C1 147.359 24.2812 151.5 53 151.5Z" fill="black" fill-opacity="0.05"/>
<path fill-rule="evenodd" clip-rule="evenodd" d="M68.1409 97.6003C68.4081 98.6326 68.6526 99.6832 68.8773 100.747C73.8462 100.679 84.9691 99.9698 93.2886 95.3189C104.321 89.1517 96.9649 78.3043 90.4766 77.1644C84.4249 76.1006 76.6499 83.6232 68.1409 97.6003Z" fill="#2D3B45"/>
<path d="M67.353 98.563C72.9265 98.3168 82.3416 97.2632 89.6143 93.1975C97.0589 89.0359 96.1304 82.7431 92.7455 78.7401C97.9437 82.0568 101.512 90.4407 92.3226 95.5776C84.0032 100.228 72.8803 100.938 67.9114 101.006C67.7376 100.183 67.5519 99.3677 67.353 98.563Z" fill="#28343D"/>
<path fill-rule="evenodd" clip-rule="evenodd" d="M68.1409 97.6003C68.4081 98.6326 68.6526 99.6832 68.8773 100.747C73.8462 100.679 84.9691 99.9698 93.2886 95.3189C104.321 89.1517 96.9649 78.3043 90.4766 77.1644C84.4249 76.1006 76.6499 83.6232 68.1409 97.6003Z" stroke="#152633" stroke-width="2"/>
<path fill-rule="evenodd" clip-rule="evenodd" d="M32.6309 88.9564C33.341 93.8747 34.3804 104.972 31.0883 113.916C26.7228 125.778 14.8582 120.209 12.7174 113.979C10.72 108.168 16.9336 99.3121 29.4076 88.7212C30.469 88.8237 31.5448 88.9009 32.6309 88.9564Z" fill="#2D3B45"/>
<path d="M12.3501 111.808C12.3614 112.572 12.4827 113.297 12.7172 113.979C14.8581 120.209 26.7227 125.778 31.0881 113.916C34.3803 104.972 33.3409 93.8747 32.6308 88.9563C31.8246 88.9151 31.0241 88.862 30.231 88.7954C30.5753 94.3119 30.3969 101.643 28.0881 107.916C24.6808 117.174 16.7051 115.814 12.3501 111.808Z" fill="#28343D"/>
<path fill-rule="evenodd" clip-rule="evenodd" d="M32.6309 88.9564C33.341 93.8747 34.3804 104.972 31.0883 113.916C26.7228 125.778 14.8582 120.209 12.7174 113.979C10.72 108.168 16.9336 99.3121 29.4076 88.7212C30.469 88.8237 31.5448 88.9009 32.6309 88.9564Z" stroke="#152633" stroke-width="2"/>
<path fill-rule="evenodd" clip-rule="evenodd" d="M73.7646 91.5193C67.003 93.771 59.2861 94.9949 51.091 94.9949C43.7862 94.9949 37.4712 93.209 31.5059 91.5193C29.1105 96.883 25.955 104.68 25.3608 109.433C23.613 121.666 34.2461 132.387 53.1272 132.387C72.0083 132.387 81.872 121.28 79.717 109.804C78.2317 101.897 75.8375 95.9234 73.7646 91.5193Z" fill="white"/>
<path d="M34.6973 127.833C38.7215 129.457 43.5666 130.387 49.127 130.387C68.0082 130.387 77.8719 119.28 75.7168 107.804C74.5289 101.48 72.7597 96.3932 71.0385 92.3566C71.963 92.0957 72.8721 91.8165 73.7645 91.5193C75.8373 95.9234 78.2315 101.897 79.7168 109.804C81.8719 121.28 72.0082 132.387 53.127 132.387C45.5768 132.387 39.3454 130.673 34.6973 127.833Z" fill="#EDEDED"/>
<path fill-rule="evenodd" clip-rule="evenodd" d="M73.7646 91.5193C67.003 93.771 59.2861 94.9949 51.091 94.9949C43.7862 94.9949 37.4712 93.209 31.5059 91.5193C29.1105 96.883 25.955 104.68 25.3608 109.433C23.613 121.666 34.2461 132.387 53.1272 132.387C72.0083 132.387 81.872 121.28 79.717 109.804C78.2317 101.897 75.8375 95.9234 73.7646 91.5193Z" stroke="#152633" stroke-width="2"/>
<path fill-rule="evenodd" clip-rule="evenodd" d="M89.7449 137.797C86.7832 122.619 80.2401 113.561 79.8699 110.599C81.313 120.684 73.3672 130.472 58.3293 132.3L58.6466 133.725C59.7573 139.649 61.9786 141.87 65.6808 142.98C73.8256 145.942 91.596 144.832 89.7449 137.797Z" fill="#2D3B45"/>
<path d="M79.8378 115.469C82.0671 120.163 85.0161 126.937 86.7448 135.797C88.5959 142.832 70.8255 143.942 62.6807 140.98C62.2948 140.865 61.9249 140.737 61.5708 140.594C62.6669 141.766 64.0259 142.484 65.6807 142.98C73.8255 145.942 91.5959 144.832 89.7448 137.797C87.7603 127.627 84.1679 120.204 81.9019 115.523C80.8158 113.279 80.0344 111.664 79.8809 110.678C80.1043 112.294 80.0867 113.901 79.8378 115.469Z" fill="#28343D"/>
<path fill-rule="evenodd" clip-rule="evenodd" d="M89.7449 137.797C86.7832 122.619 80.2401 113.561 79.8699 110.599C81.313 120.684 73.3672 130.472 58.3293 132.3L58.6466 133.725C59.7573 139.649 61.9786 141.87 65.6808 142.98C73.8256 145.942 91.596 144.832 89.7449 137.797Z" stroke="#152633" stroke-width="2"/>
<path fill-rule="evenodd" clip-rule="evenodd" d="M25.1984 110.771C24.7738 113.733 18.1099 122.618 15.1481 137.797C13.297 144.831 31.0675 145.942 39.2123 142.98C42.9145 141.87 45.1358 139.648 46.2464 133.725L46.5482 132.491L46.5637 132.151C32.3129 130.051 24.351 121.056 25.1984 110.771Z" fill="#2D3B45"/>
<path d="M15.1274 139.646C16.5918 145.006 31.8425 145.66 39.2122 142.98C42.9144 141.87 45.1357 139.648 46.2464 133.725L46.5481 132.491L46.5636 132.151C45.3623 131.974 44.2057 131.748 43.0953 131.476C41.9399 136.839 39.7536 138.918 36.2122 139.98C30.5615 142.035 20.2776 142.13 15.1274 139.646Z" fill="#28343D"/>
<path fill-rule="evenodd" clip-rule="evenodd" d="M25.1984 110.771C24.7738 113.733 18.1099 122.618 15.1481 137.797C13.297 144.831 31.0675 145.942 39.2123 142.98C42.9145 141.87 45.1358 139.648 46.2464 133.725L46.5482 132.491L46.5637 132.151C32.3129 130.051 24.351 121.056 25.1984 110.771Z" stroke="#152633" stroke-width="2"/>
<path fill-rule="evenodd" clip-rule="evenodd" d="M13.9753 55.8607C12.6636 55.8025 11.1952 55.5679 9.61671 55.0351C3.54695 52.9853 3.25701 47.6998 3.00007 46.0187C2.74313 44.3377 2.70802 35.2635 9.91729 36.5436C14.5733 37.3702 18.0543 39.2602 21.2653 40.8198C17.9149 45.3754 15.4473 50.5147 13.9753 55.8607Z" fill="#2D3B45"/>
<path d="M6.6166 51.035C8.19505 51.5678 9.66354 51.8024 10.9752 51.8606C12.2869 47.0969 14.389 42.4974 17.2019 38.3286C17.8941 38.6546 18.5643 38.9846 19.2198 39.3073C19.5721 39.4807 19.9202 39.6521 20.2652 39.8196C16.9148 44.3753 14.4472 49.5146 12.9752 54.8606C11.6635 54.8024 10.195 54.5678 8.6166 54.035C5.26465 52.903 3.67535 50.7843 2.88086 48.8307C3.78686 49.7094 4.99562 50.4876 6.6166 51.035Z" fill="#28343D"/>
<path fill-rule="evenodd" clip-rule="evenodd" d="M13.9753 55.8607C12.6636 55.8025 11.1952 55.5679 9.61671 55.0351C3.54695 52.9853 3.25701 47.6998 3.00007 46.0187C2.74313 44.3377 2.70802 35.2635 9.91729 36.5436C14.5733 37.3702 18.0543 39.2602 21.2653 40.8198C17.9149 45.3754 15.4473 50.5147 13.9753 55.8607Z" stroke="#152633" stroke-width="2"/>
<path fill-rule="evenodd" clip-rule="evenodd" d="M11.2944 64.1537C11.2944 84.177 28.505 94.8791 52.1648 94.8791C75.8247 94.8791 95.0048 82.796 95.0048 64.8441C95.0048 42.5364 75.8247 21 52.1648 21C28.505 21 11.2944 43.0947 11.2944 64.1537Z" fill="white"/>
<path d="M37.9614 93.4211C42.3299 94.3885 47.0995 94.879 52.1648 94.879C75.8246 94.879 95.0048 82.796 95.0048 64.8441C95.0048 43.6114 77.6287 23.0775 55.5525 21.1477C74.6969 25.8852 89.0048 44.577 89.0048 63.8441C89.0048 81.796 69.8246 93.879 46.1648 93.879C43.3317 93.879 40.5911 93.7256 37.9614 93.4211Z" fill="#EDEDED"/>
<path fill-rule="evenodd" clip-rule="evenodd" d="M11.2944 64.1537C11.2944 84.177 28.505 94.8791 52.1648 94.8791C75.8247 94.8791 95.0048 82.796 95.0048 64.8441C95.0048 42.5364 75.8247 21 52.1648 21C28.505 21 11.2944 43.0947 11.2944 64.1537Z" stroke="#152633" stroke-width="2"/>
<path fill-rule="evenodd" clip-rule="evenodd" d="M83.7624 57.2936C85.336 56.6408 87.0217 55.7032 88.7095 54.3533C95.1994 49.1613 93.9014 40.5081 93.4688 38.3448C93.0361 36.1815 90.4401 25.7976 82.2196 30.5569C76.9104 33.6305 73.8514 37.3911 70.6289 40.717C75.9765 45.2624 82.2196 53.0164 83.7624 57.2936Z" fill="#2D3B45"/>
<path d="M82.4094 54.5201C83.0049 55.5398 83.4688 56.4797 83.7624 57.2937C85.336 56.6408 87.0216 55.7032 88.7094 54.3533C95.1993 49.1614 93.9014 40.5082 93.4687 38.3448C93.1463 36.7327 91.6224 30.5549 87.4643 29.4817C89.4086 31.7683 90.2402 35.2026 90.4687 36.3448C90.9014 38.5082 92.1993 47.1614 85.7094 52.3533C84.598 53.2422 83.4876 53.9523 82.4094 54.5201Z" fill="#28343D"/>
<path fill-rule="evenodd" clip-rule="evenodd" d="M83.7624 57.2936C85.336 56.6408 87.0217 55.7032 88.7095 54.3533C95.1994 49.1613 93.9014 40.5081 93.4688 38.3448C93.0361 36.1815 90.4401 25.7976 82.2196 30.5569C76.9104 33.6305 73.8514 37.3911 70.6289 40.717C75.9765 45.2624 82.2196 53.0164 83.7624 57.2936Z" stroke="#152633" stroke-width="2"/>
<path d="M47.1064 125.634C47.1625 126.533 47.6908 127.377 48.5643 127.8C49.5748 128.289 50.748 128.07 51.5131 127.338C52.2782 128.07 53.4514 128.289 54.4619 127.8C55.4641 127.314 56.0119 126.275 55.9134 125.235C56.9597 125.098 57.8599 124.334 58.1112 123.253C58.3636 122.168 57.8872 121.085 57.0001 120.509C57.5501 119.604 57.5023 118.417 56.7934 117.548C56.315 116.962 55.6314 116.638 54.9281 116.595C54.9593 117.113 54.8337 117.635 54.5592 118.087C55.4463 118.663 55.9227 119.746 55.6703 120.831C55.419 121.911 54.5187 122.676 53.4724 122.812C53.571 123.853 53.0232 124.892 52.021 125.377C51.0105 125.866 49.8372 125.647 49.0722 124.915C48.5475 125.417 47.8309 125.678 47.1064 125.634Z" fill="#EDEDED"/>
<path fill-rule="evenodd" clip-rule="evenodd" d="M48.7162 116.698C49.0175 115.885 49.7996 115.306 50.7171 115.306C51.6345 115.306 52.4166 115.885 52.7179 116.698C53.5355 116.429 54.4697 116.673 55.0435 117.382C55.6244 118.099 55.6635 119.079 55.213 119.827C55.9398 120.302 56.3301 121.196 56.1233 122.092C55.9174 122.984 55.1798 123.615 54.3225 123.728C54.4032 124.587 53.9544 125.445 53.1332 125.845C52.3052 126.249 51.3439 126.068 50.7171 125.464C50.0902 126.068 49.1289 126.249 48.3009 125.845C47.4797 125.445 47.0309 124.587 47.1116 123.728C46.2543 123.615 45.5167 122.984 45.3108 122.092C45.104 121.196 45.4943 120.302 46.2212 119.827C45.7706 119.079 45.8097 118.099 46.3906 117.382C46.9644 116.673 47.8987 116.429 48.7162 116.698Z" fill="#2D3B45"/>
<path d="M47.1064 124.058C47.1524 124.8 47.5852 125.496 48.301 125.845C49.1289 126.249 50.0902 126.068 50.7171 125.464C51.344 126.068 52.3053 126.249 53.1332 125.845C53.9544 125.445 54.4033 124.587 54.3225 123.728C55.1798 123.615 55.9174 122.984 56.1234 122.092C56.3302 121.196 55.9399 120.302 55.213 119.827C55.6636 119.079 55.6245 118.099 55.0436 117.382C54.6516 116.898 54.0915 116.63 53.5152 116.595C53.5408 117.023 53.4379 117.454 53.213 117.827C53.9399 118.302 54.3302 119.196 54.1234 120.092C53.9174 120.984 53.1798 121.615 52.3225 121.728C52.4033 122.587 51.9544 123.445 51.1332 123.845C50.3053 124.249 49.344 124.068 48.7171 123.464C48.2872 123.879 47.7 124.094 47.1064 124.058Z" fill="#28343D"/>
<path fill-rule="evenodd" clip-rule="evenodd" d="M48.7162 116.698C49.0175 115.885 49.7996 115.306 50.7171 115.306C51.6345 115.306 52.4166 115.885 52.7179 116.698C53.5355 116.429 54.4697 116.673 55.0435 117.382C55.6244 118.099 55.6635 119.079 55.213 119.827C55.9398 120.302 56.3301 121.196 56.1233 122.092C55.9174 122.984 55.1798 123.615 54.3225 123.728C54.4032 124.587 53.9544 125.445 53.1332 125.845C52.3052 126.249 51.3439 126.068 50.7171 125.464C50.0902 126.068 49.1289 126.249 48.3009 125.845C47.4797 125.445 47.0309 124.587 47.1116 123.728C46.2543 123.615 45.5167 122.984 45.3108 122.092C45.104 121.196 45.4943 120.302 46.2212 119.827C45.7706 119.079 45.8097 118.099 46.3906 117.382C46.9644 116.673 47.8987 116.429 48.7162 116.698Z" stroke="#152633" stroke-width="2"/>
</svg>
