<?xml version="1.0" encoding="UTF-8"?><svg id="a" xmlns="http://www.w3.org/2000/svg" viewBox="0 0 100 100"><defs><style>.b{fill:#383838;}</style></defs><path class="b" d="M93.47,31.95c-6.03-15.86-17.3-25.95-33.63-30.35-2.6-.7-5.34-.88-8.01-1.3-.27-.04-.54-.11-.8-.16h-5.55c-.3,.06-.6,.13-.9,.17-1.74,.22-3.5,.34-5.22,.67-11.09,2.12-20.44,7.38-27.65,16.05C.44,30.55-2.84,46.02,2.5,62.75c5.21,16.35,16.57,26.87,33.05,31.83,1.43,.43,2.36,.11,3.36-.89,5.51-5.53,11.03-11.05,16.54-16.57,7.04-7.05,14.08-14.09,21.11-21.14,5.73-5.73,11.46-11.47,17.18-17.2,.43-.43,.76-.95,1.13-1.43v-1.11c-.47-1.43-.88-2.87-1.42-4.27Zm-37.28-.28c-1.76,0-3.19,2.26-3.19,5.04,0,2.13,.83,3.94,2.01,4.68-2.6,1.74-5.08,3.78-7.43,6.12-4.96,4.95-8.57,10.51-10.91,16.61-5.13-3.11-8.83-8.36-9.84-14.5-.15-.9-.92-1.57-1.83-1.57-1.04,0-1.86,.85-1.86,1.85,0,.1,0,.2,.03,.3,1.23,7.52,5.88,13.9,12.29,17.5-.28,.97-.54,1.94-.76,2.94-.32,1.42-.58,2.86-.78,4.33-.29,2.06-.46,4.17-.51,6.33-13.83-6.08-23.1-20.86-21.21-37.23,1.96-17,15-29.41,30.61-31.72,17.31-2.56,32.54,7.33,38.5,21.04-8.12,.2-15.57,2.03-22.27,5.59,.22-.68,.34-1.46,.34-2.28,0-2.79-1.43-5.04-3.19-5.04Zm21.21,17.61c-1.55,1.55-3.09,3.09-4.63,4.63-6.47,6.47-12.93,12.93-19.4,19.4l-4.85,4.85c-3.53,3.53-7.05,7.05-10.58,10.58-.61-4.2-.72-8.27-.32-12.21,.15-1.43,.36-2.83,.65-4.22,.2-1,.45-1.99,.73-2.97,.01,0,.02,0,.04,.01,.33-1.16,.7-2.3,1.14-3.43,.01-.03,.02-.06,.03-.09-.01,0-.02,0-.04-.01,1.64-4.27,4.02-8.33,7.18-12.14,10.74-12.94,24.76-17.86,41.47-15.81l-11.41,11.41Zm8.6-15.67c-.25-.04-.48-.49-.61-.8-2.87-6.88-7.3-12.56-13.3-16.96-6.64-4.87-14.09-7.49-22.34-7.77-9.92-.34-18.84,2.47-26.55,8.69-9.49,7.66-14.69,17.65-15.07,29.88-.46,14.83,5.64,26.5,17.75,34.98,2.18,1.52,4.69,2.57,7.07,3.78,.46,.23,.71,.45,.76,.99,.1,1.19,.3,2.38,.47,3.65C15.62,83.87,2.2,65.5,4.27,43.93,6.33,22.49,23.44,6.09,44.14,4.25c22.45-1.99,40.2,12.45,45.89,29.91-1.36-.17-2.71-.31-4.03-.55Zm-2.69,40c0,1.2-.98,2.18-2.18,2.18h-5.33v5.33c0,1.2-.98,2.18-2.18,2.18s-2.18-.98-2.18-2.18v-5.33h-5.33c-1.2,0-2.18-.98-2.18-2.18s.98-2.18,2.18-2.18h5.33v-5.33c0-1.2,.98-2.18,2.18-2.18s2.18,.98,2.18,2.18v5.33h5.33c1.2,0,2.18,.98,2.18,2.18ZM42.51,36.98c0,2.79-1.43,5.04-3.19,5.04s-3.19-2.26-3.19-5.04,1.43-5.04,3.19-5.04,3.19,2.26,3.19,5.04Z"/></svg>