<?xml version="1.0" encoding="UTF-8"?><svg xmlns="http://www.w3.org/2000/svg" viewBox="0 0 125 125"><defs><style>.bd{fill:#f15a29;}.be{fill:#fff;}.bf{fill:#8ca632;}.bg{fill:#bccd30;}.bh{fill:#9b3f34;}</style></defs><g id="a"/><g id="b"/><g id="c"/><g id="d"/><g id="e"/><g id="f"/><g id="g"/><g id="h"/><g id="i"/><g id="j"/><g id="k"/><g id="l"/><g id="m"/><g id="n"/><g id="o"/><g id="p"/><g id="q"/><g id="r"/><g id="s"/><g id="t"/><g id="u"/><g id="v"/><g id="w"/><g id="x"/><g id="y"/><g id="a`"/><g id="aa"/><g id="ab"/><g id="ac"/><g id="ad"/><g id="ae"/><g id="af"/><g id="ag"/><g id="ah"><g><circle class="bd" cx="62.5" cy="62.5" r="62.5" transform="translate(-5.91 118.47) rotate(-84.29)"/><path class="bh" d="M41.49,93.33l30.88,30.88c24.86-3.95,44.84-22.55,50.79-46.69l-36.05-36.05-45.63,51.85Z"/><g><g><path class="bg" d="M68.95,38.91c15.83-5.35,28.54,8.4,26.4,25.7l-.77,6.28c-2.05,16.45-14.67,28.85-24.64,27.26-.89-.14-1.74-.46-2.53-.89-1.54-.81-3.22-1.2-4.9-1.2s-3.36,.39-4.9,1.2c-.79,.42-1.66,.75-2.53,.89-9.98,1.58-22.59-10.81-24.64-27.26l-.77-6.28c-2.16-17.3,10.54-31.05,26.38-25.7l1.82,.87c3.05,1.47,6.57,1.43,9.58-.1l1.53-.77Z"/><path class="bf" d="M81.39,14.39c.6,5.04-1.02,10.31-4.9,14.19-3.88,3.86-9.13,5.48-14.19,4.89-.6-5.04,1.02-10.31,4.9-14.19,3.88-3.86,9.13-5.5,14.19-4.89Z"/></g><g><path class="be" d="M37.19,66.15c-.62,0-1.16-.46-1.23-1.09-.87-7.01,1.44-13.5,6.17-17.35,4.01-3.26,9.09-4.09,14.31-2.32,.65,.22,1,.93,.78,1.58-.22,.65-.93,1-1.58,.78-4.38-1.48-8.62-.81-11.94,1.89-4,3.26-6.02,9.05-5.27,15.12,.08,.68-.4,1.3-1.08,1.39-.05,0-.1,0-.15,0Z"/><path class="be" d="M40.12,78.64c-.49,0-.95-.29-1.15-.77-.96-2.3-1.59-4.69-1.88-7.11-.08-.68,.4-1.3,1.09-1.38,.68-.08,1.3,.4,1.38,1.09,.26,2.19,.84,4.36,1.71,6.45,.26,.63-.04,1.36-.67,1.63-.16,.07-.32,.1-.48,.1Z"/></g></g></g></g><g id="ai"/><g id="aj"/><g id="ak"/><g id="al"/><g id="am"/><g id="an"/><g id="ao"/><g id="ap"/><g id="aq"/><g id="ar"/><g id="as"/><g id="at"/><g id="au"/><g id="av"/><g id="aw"/><g id="ax"/><g id="ay"/><g id="b`"/><g id="ba"/><g id="bb"/><g id="bc"/></svg>