<?xml version="1.0" encoding="UTF-8"?><svg xmlns="http://www.w3.org/2000/svg" viewBox="0 0 125 125"><defs><style>.c{fill:#f26122;}.d{fill:#fcbc22;}.e{fill:#e5a533;}.f{fill:#d34f1d;}.g{fill:#841717;}</style></defs><g id="a"><g><circle class="d" cx="62.5" cy="62.5" r="62.5" transform="translate(-5.61 118.83) rotate(-84.59)"/><path class="e" d="M37.63,87.37l36.53,36.53c25.16-4.75,44.99-24.57,49.74-49.74l-36.53-36.53-49.74,49.74Z"/><g><g><path class="f" d="M87.37,37.63l-24.87,24.87-24.87,24.87c6.84,6.85,15.83,10.27,24.83,10.29,9,.02,18.02-3.42,24.91-10.29,6.91-6.91,10.33-15.99,10.29-25.02-.04-8.96-3.48-17.9-10.29-24.72Z"/><path class="c" d="M62.5,27.34c-9.02,0-18.02,3.42-24.87,10.29-6.82,6.84-10.25,15.79-10.29,24.75-.04,9.04,3.4,18.07,10.29,24.99l24.87-24.87,24.87-24.87c-6.87-6.87-15.87-10.29-24.87-10.29Z"/></g><path class="g" d="M70.2,69.3l-6.8-6.8,24.41-24.41c-.15-.15-.29-.31-.44-.46-.15-.15-.31-.29-.46-.44l-24.41,24.41-6.96-6.96c4.89-5.1,7.59-11.75,7.59-18.82v-8.47c-.21,0-.43-.02-.64-.02s-.42,.01-.63,.01v8.47c0,6.74-2.57,13.07-7.22,17.92l-16.56-16.56c-.15,.15-.31,.29-.46,.44-.15,.15-.29,.31-.44,.46l16.55,16.55c-4.86,4.57-11.15,7.1-17.8,7.1h-8.59c0,.21-.02,.43-.02,.64,0,.21,0,.42,.01,.63h8.59c7,0,13.6-2.66,18.7-7.48l6.96,6.96-24.41,24.41c.15,.15,.29,.31,.44,.46,.15,.15,.31,.29,.46,.44l24.41-24.41,6.8,6.8c-4.81,5.08-7.48,11.68-7.48,18.68v8.76c.21,0,.42,.02,.63,.02,.21,0,.42-.01,.64-.01v-8.77c0-6.66,2.53-12.94,7.1-17.78l16.71,16.71c.15-.15,.31-.29,.46-.44,.15-.15,.29-.31,.44-.46l-16.71-16.71c4.85-4.65,11.18-7.22,17.9-7.22h8.65c0-.21,.01-.42,.01-.63,0-.21-.01-.43-.02-.64h-8.64c-7.06,0-13.71,2.7-18.8,7.59Z"/></g></g></g><g id="b"/></svg>