<?xml version="1.0" encoding="UTF-8"?><svg id="Layer_1" xmlns="http://www.w3.org/2000/svg" viewBox="0 0 124 124"><defs><style>.cls-1{fill:#fafcfe;}.cls-2{fill:#f05b2a;}.cls-3{fill:#c3e6f6;}.cls-4{fill:#05cde7;}.cls-5{fill:#9b4034;}</style></defs><circle class="cls-2" cx="62" cy="62" r="62"/><g><path class="cls-3" d="M74.6,27.52c-.13,1.66-.18,3.93-1.92,4.22-4.94,.84-3.67,4.43-4.04,7.55-1.17,9.91,1.63,18.39,7.87,26.18,4.01,5,7.09,10.73,10.59,16.13-17.01,.92-34.02,.38-51.04,.29,5.03-7.75,9.83-15.66,15.16-23.21,5.35-7.57,3.03-15.95,3.34-24.06,.06-1.61-1.52-1.83-2.82-2.26-2.15-.7-3.28-2.28-2.75-4.6,.52-2.27,2.15-3.13,4.42-3.11,5.46,.04,10.93,.11,16.39-.03,2.36-.06,3.64,1.2,4.79,2.89Zm-26.08,48.19c.31-.21,.67-.32,.84-.57,2.56-3.79,5.11-7.6,7.62-11.42,.37-.56,.44-1.34-.25-1.72-.83-.46-1.65-.06-2.13,.65-2.38,3.52-4.76,7.04-7.01,10.65-.55,.89-.99,2.27,.94,2.42Z"/><path class="cls-4" d="M36.06,81.89c17.01,.09,34.03,.62,51.04-.29,4.51,7.71,.4,15.09-8.72,15.2-12.36,.15-24.72-.04-37.08-.08v.1c-.51-.17-1.01-.34-1.51-.5-6.14-4.92-7.12-8.73-3.74-14.43Z"/><path class="cls-5" d="M39.8,96.32c.5,.17,1,.33,1.49,.5-.5-.17-1-.33-1.49-.5Z"/><path class="cls-1" d="M48.52,75.71c-1.92-.16-1.49-1.53-.94-2.42,2.24-3.61,4.63-7.13,7.01-10.65,.48-.71,1.3-1.1,2.13-.65,.69,.38,.62,1.16,.25,1.72-2.51,3.83-5.06,7.63-7.62,11.42-.17,.25-.53,.36-.84,.57Z"/></g><path class="cls-5" d="M122.6,75.1c-5.44-5.42-12.31-12.47-17.19-17.26-10.28-10.1-20.54-20.21-30.82-30.32-.13,1.66-.18,3.93-1.92,4.22-4.94,.84-3.67,4.43-4.04,7.55-1.17,9.91,1.63,18.39,7.87,26.18,4.01,5,7.09,10.73,10.59,16.13,4.5,7.71,.4,15.09-8.72,15.2-12.36,.15-24.72-.04-37.08-.08,0,2.33,1.94,3.37,3.27,4.74,6.29,6.48,14.84,15.23,21.83,22.37,27.77-1.95,50.48-22.17,56.2-48.73Z"/></svg>