<?xml version="1.0" encoding="UTF-8"?><svg xmlns="http://www.w3.org/2000/svg" viewBox="0 0 115.5 115.5"><defs><style>.c{fill:#fff;}.d{fill:#fd0;}.e{fill:#b07e09;}.f{fill:#ddbe22;}.g{fill:#2cb69c;}.h{fill:#50998b;}</style></defs><g id="a"><g><circle class="g" cx="57.75" cy="57.75" r="57.75" transform="translate(-12.21 99.89) rotate(-76.06)"/><path class="h" d="M114.06,70.54L61.03,17.52l-3.07,1.53-7.28,48.68-20.31,14.18,33.29,33.29c24.83-2.52,45-20.79,50.4-44.66Z"/><g><g><path class="f" d="M49.69,80.73h16.13c-.34,4.16-3.82,7.42-8.06,7.42s-7.73-3.26-8.06-7.42Z"/><path class="e" d="M62.69,20.77c0,.14,0,.27-.02,.41l-.96,12.06-3.96-.45c-1.36,0-2.68,.14-3.96,.45l-.96-12.06c-.23-2.87,2.03-5.33,4.92-5.33s4.94,2.23,4.94,4.92Z"/><path class="c" d="M61.14,74.14h-6.78c1.03-.48,2.18-.75,3.39-.75s2.36,.27,3.39,.75Z"/><path class="d" d="M84.78,77.97c-1.45-1.16-2.73-2.46-3.85-3.89-3.3-4.19-5.14-9.4-5.14-14.84v-8.4c0-4.98-2.02-9.49-5.28-12.76-2.37-2.37-5.41-4.09-8.8-4.84l-3.96-.45c-1.36,0-2.68,.14-3.96,.45-8.05,1.8-14.08,8.99-14.08,17.59v8.4c0,3.64-.84,7.19-2.37,10.4-.7,1.45-1.53,2.8-2.5,4.09-1.18,1.57-2.57,3-4.12,4.25-1.75,1.39-.77,4.19,1.46,4.19h51.13c1.45,0,2.36-1.16,2.36-2.37,0-.66-.27-1.32-.89-1.82Z"/></g><g><path class="c" d="M45.25,50.84c-.63,0-1.15-.51-1.15-1.15,0-6.89,5.61-12.5,12.5-12.5,.63,0,1.15,.51,1.15,1.15s-.51,1.15-1.15,1.15c-5.62,0-10.2,4.57-10.2,10.2,0,.63-.51,1.15-1.15,1.15Z"/><path class="c" d="M45.15,59.74c-.64,0-1.15-.51-1.15-1.15v-3.12c0-.63,.51-1.15,1.15-1.15s1.15,.51,1.15,1.15v3.12c0,.63-.51,1.15-1.15,1.15Z"/></g></g></g></g><g id="b"/></svg>