<?xml version="1.0" encoding="UTF-8"?><svg xmlns="http://www.w3.org/2000/svg" viewBox="0 0 125 125"><defs><style>.c{fill:#ef7c32;}.d{fill:#fff;}.e{fill:#ffcf01;}.f{fill:#ba3500;}.g{fill:#2cb69c;}.h{fill:#50998b;}</style></defs><g id="a"><g><circle class="g" cx="62.5" cy="62.5" r="62.5" transform="translate(-25.89 62.5) rotate(-45)"/><path class="h" d="M39.6,94.58l30.01,30.01c27.16-3.08,49.03-23.55,54.22-50.01l-42.23-42.23-42,62.22Z"/><g><path class="c" d="M72.48,30.86c-.57,0-1.04-.45-1.06-1.03-.13-4.24-3.57-7.56-7.82-7.56h-2.2c-4.25,0-7.69,3.32-7.82,7.56-.02,.58-.54,1.05-1.09,1.03-.58-.02-1.04-.51-1.03-1.09,.17-5.39,4.53-9.61,9.94-9.61h2.2c5.41,0,9.77,4.22,9.94,9.61,.02,.59-.44,1.07-1.03,1.09h-.03Z"/><g><g><path class="e" d="M85.57,41.75l2.3,37.34c-1.7-10.21-10.58-18.02-21.28-18.02h-8.19c-10.7,0-19.58,7.8-21.28,18.02l2.3-37.34c.39-6.62,5.14-11.99,11.35-13.38-.02,.12-.02,.25-.02,.37v3.4c0,4.89,3.34,9,7.88,10.14,.83,.21,1.68,.33,2.57,.33h2.59c.89,0,1.74-.12,2.57-.33,4.54-1.14,7.88-5.25,7.88-10.14v-3.4c0-.12,0-.25-.02-.37,6.22,1.39,10.97,6.76,11.35,13.38Z"/><path class="e" d="M74.24,28.73v3.4c0,4.89-3.34,9-7.88,10.14h-7.72c-4.54-1.14-7.88-5.25-7.88-10.14v-3.4c0-.12,0-.25,.02-.37,1.02-.25,2.1-.37,3.21-.37h17.03c1.1,0,2.18,.12,3.21,.37,.02,.12,.02,.25,.02,.37Z"/><path class="d" d="M58.64,42.27h7.72c-.83,.21-1.68,.33-2.57,.33h-2.59c-.89,0-1.74-.12-2.57-.33Z"/><path class="c" d="M88.18,84l.08,1.26c.46,7.94-5.83,14.62-13.77,14.62h-23.96c-7.96,0-14.25-6.68-13.79-14.62l.08-1.26,.31-4.9c1.7-10.21,10.58-18.02,21.28-18.02h8.19c10.7,0,19.58,7.8,21.28,18.02l.31,4.9Z"/></g><g><path class="f" d="M80.73,76.68c-.23,0-.44-.12-.56-.34-2.78-5.48-8.33-8.89-14.49-8.89h-6.37c-5.75,0-11.37,3.5-14.3,8.9-.17,.3-.54,.41-.84,.25-.3-.16-.41-.54-.25-.84,3.15-5.8,9.19-9.56,15.4-9.56h6.37c6.63,0,12.6,3.67,15.6,9.57,.16,.31,.03,.68-.27,.84-.09,.05-.19,.07-.28,.07Z"/><path class="c" d="M77.97,42.89h-30.93c-.34,0-.62-.28-.62-.62s.28-.62,.62-.62h30.93c.34,0,.62,.28,.62,.62s-.28,.62-.62,.62Z"/><path class="c" d="M72.27,47.97c-.34,0-.62-.28-.62-.62v-4.89c0-.34,.28-.62,.62-.62s.62,.28,.62,.62v4.89c0,.34-.28,.62-.62,.62Z"/></g></g></g></g></g><g id="b"/></svg>