<?xml version="1.0" encoding="UTF-8"?><svg xmlns="http://www.w3.org/2000/svg" viewBox="0 0 125 125"><defs><style>.bd{fill:#fff;}.be{fill:#eff8fb;}.bf{fill:#8db7cc;}.bg{fill:#acd2e8;}.bh{fill:#a99773;}.bi{fill:#daebf5;}.bj{fill:#967a51;}</style></defs><g id="a"/><g id="b"/><g id="c"/><g id="d"/><g id="e"/><g id="f"/><g id="g"/><g id="h"/><g id="i"/><g id="j"/><g id="k"/><g id="l"/><g id="m"/><g id="n"/><g id="o"/><g id="p"/><g id="q"/><g id="r"/><g id="s"/><g id="t"/><g id="u"><g><circle class="bh" cx="62.5" cy="62.5" r="62.5" transform="translate(-25.89 62.5) rotate(-45)"/><g><path class="bj" d="M27.77,87.42l37.51,37.51c30.15-1.32,54.74-23.99,59.04-53.27l-27.8-27.8L27.77,87.42Z"/><path class="bj" d="M27.77,87.42l37.51,37.51c30.15-1.32,54.74-23.99,59.04-53.27l-27.8-27.8L27.77,87.42Z"/></g><g><g><path class="bg" d="M98.4,48.01v35.65c0,3.17-2.57,5.72-5.72,5.72h-30.17l1.99-1.14,23.93-13.77c.57-.33,.9-.92,.9-1.58v-30.6h3.35c3.16,0,5.72,2.57,5.72,5.72Z"/><path class="bi" d="M86.63,28.4l-24.12,13.89v47.09l25.92-14.91c.57-.33,.9-.92,.9-1.58V29.96c0-1.39-1.49-2.25-2.71-1.56Z"/><path class="be" d="M38.37,28.4c-1.21-.69-2.71,.17-2.71,1.56v42.93c0,.66,.35,1.25,.9,1.58l25.92,14.91h.02V42.29l-24.14-13.89Z"/><path class="bd" d="M62.49,89.38h-30.17c-3.16,0-5.72-2.55-5.72-5.72V48.01c0-3.16,2.57-5.72,5.72-5.72h3.35v30.6c0,.66,.35,1.25,.9,1.58l25.92,14.91Z"/></g><g><path class="bf" d="M57.41,75.34c-.09,0-.18-.02-.27-.07l-16.07-8.88c-.27-.15-.37-.49-.22-.76,.15-.27,.49-.37,.76-.22l16.07,8.88c.27,.15,.37,.49,.22,.76-.1,.18-.29,.29-.49,.29Z"/><path class="bf" d="M57.41,66.96c-.09,0-.18-.02-.27-.07l-16.07-8.88c-.27-.15-.37-.49-.22-.76,.15-.27,.49-.37,.76-.22l16.07,8.88c.27,.15,.37,.49,.22,.76-.1,.18-.29,.29-.49,.29Z"/><path class="bf" d="M57.41,58.61c-.09,0-.18-.02-.27-.07l-16.07-8.88c-.27-.15-.37-.49-.22-.76,.15-.27,.49-.37,.76-.22l16.07,8.88c.27,.15,.37,.49,.22,.76-.1,.18-.29,.29-.49,.29Z"/><path class="bf" d="M57.41,50.23c-.09,0-.18-.02-.27-.07l-16.07-8.86c-.27-.15-.37-.49-.22-.76,.15-.27,.49-.37,.76-.22l16.07,8.86c.27,.15,.37,.49,.22,.76-.1,.18-.29,.29-.49,.29Z"/><path class="bf" d="M67.59,75.34c-.2,0-.39-.1-.49-.29-.15-.27-.05-.61,.22-.76l16.07-8.88c.27-.15,.61-.05,.76,.22,.15,.27,.05,.61-.22,.76l-16.07,8.88c-.09,.05-.18,.07-.27,.07Z"/><path class="bf" d="M67.59,66.96c-.2,0-.39-.1-.49-.29-.15-.27-.05-.61,.22-.76l16.07-8.88c.27-.15,.61-.05,.76,.22,.15,.27,.05,.61-.22,.76l-16.07,8.88c-.09,.05-.18,.07-.27,.07Z"/><path class="bf" d="M67.59,58.61c-.2,0-.39-.1-.49-.29-.15-.27-.05-.61,.22-.76l16.07-8.88c.27-.15,.61-.05,.76,.22,.15,.27,.05,.61-.22,.76l-16.07,8.88c-.09,.05-.18,.07-.27,.07Z"/><path class="bf" d="M67.59,50.23c-.2,0-.39-.1-.49-.29-.15-.27-.05-.61,.22-.76l16.07-8.86c.27-.15,.61-.05,.76,.22,.15,.27,.05,.61-.22,.76l-16.07,8.86c-.08,.05-.18,.07-.27,.07Z"/></g></g></g></g><g id="v"/><g id="w"/><g id="x"/><g id="y"/><g id="a`"/><g id="aa"/><g id="ab"/><g id="ac"/><g id="ad"/><g id="ae"/><g id="af"/><g id="ag"/><g id="ah"/><g id="ai"/><g id="aj"/><g id="ak"/><g id="al"/><g id="am"/><g id="an"/><g id="ao"/><g id="ap"/><g id="aq"/><g id="ar"/><g id="as"/><g id="at"/><g id="au"/><g id="av"/><g id="aw"/><g id="ax"/><g id="ay"/><g id="b`"/><g id="ba"/><g id="bb"/><g id="bc"/></svg>