<?xml version="1.0" encoding="UTF-8"?><svg xmlns="http://www.w3.org/2000/svg" viewBox="0 0 125 125"><defs><style>.bd{fill:#f7f8db;}.be{fill:#e5e3c6;}.bf{fill:#c1b49a;}.bg{fill:#af9f97;}.bh{fill:#9a8479;}.bi{fill:#756057;}</style></defs><g id="a"/><g id="b"/><g id="c"/><g id="d"/><g id="e"/><g id="f"/><g id="g"/><g id="h"/><g id="i"/><g id="j"/><g id="k"/><g id="l"/><g id="m"/><g id="n"/><g id="o"/><g id="p"/><g id="q"/><g id="r"/><g id="s"/><g id="t"/><g id="u"/><g id="v"/><g id="w"/><g id="x"/><g id="y"/><g id="a`"/><g id="aa"/><g id="ab"/><g id="ac"/><g id="ad"/><g id="ae"/><g id="af"/><g id="ag"/><g id="ah"/><g id="ai"/><g id="aj"/><g id="ak"><g><circle class="bd" cx="62.5" cy="62.5" r="62.5" transform="translate(-12.69 108.97) rotate(-76.72)"/><path class="be" d="M28.99,87.61l37.27,37.27c29.45-1.75,53.41-23.88,57.96-52.49l-28.65-28.65L28.99,87.61Z"/><g><g><g><path class="bf" d="M89.87,40.86H35.13c-4.15,0-7.51,3.36-7.51,7.51v34.77c0,4.15,3.36,7.51,7.51,7.51h54.74c4.15,0,7.51-3.36,7.51-7.51V48.37c0-4.15-3.36-7.51-7.51-7.51Zm-42.3,28.47c0,1.72-1.41,3.14-3.14,3.14s-3.12-1.41-3.12-3.14v-9.29c0-1.72,1.41-3.12,3.12-3.12s3.14,1.39,3.14,3.12v9.29Zm36.12,0c0,1.72-1.39,3.14-3.12,3.14s-3.12-1.41-3.12-3.14v-9.29c0-1.72,1.39-3.12,3.12-3.12s3.12,1.39,3.12,3.12v9.29Z"/><path class="bh" d="M77.99,40.86v-3.17c0-4.58-3.73-8.33-8.33-8.33h-14.32c-4.58,0-8.33,3.75-8.33,8.33v3.17h5.23v-3.17c0-1.71,1.39-3.1,3.1-3.1h14.32c1.71,0,3.1,1.39,3.1,3.1v3.17h5.23Z"/></g><path class="bi" d="M77.45,64.58h-29.88c-.31,0-.56-.25-.56-.56s.25-.56,.56-.56h29.88c.31,0,.56,.25,.56,.56s-.25,.56-.56,.56Z"/></g><path class="bg" d="M83.69,60.05v9.29c0,1.72-1.39,3.14-3.12,3.14s-3.12-1.41-3.12-3.14v-9.29c0-1.72,1.39-3.12,3.12-3.12s3.12,1.39,3.12,3.12Zm-39.25-3.12c-1.71,0-3.12,1.39-3.12,3.12v9.29c0,1.72,1.41,3.14,3.12,3.14s3.14-1.41,3.14-3.14v-9.29c0-1.72-1.41-3.12-3.14-3.12Z"/><g><path class="bi" d="M41.22,64.58s.06-.01,.09-.02v-1.09s-.06-.02-.09-.02h-13.6v1.12h13.6Z"/><path class="bi" d="M83.74,63.46s-.04,0-.06,.01v1.1s.04,.01,.06,.01h13.64v-1.12h-13.64Z"/></g><g><path class="bh" d="M80.57,56.93h-.02v15.54h.02c1.72,0,3.12-1.41,3.12-3.13v-9.29c0-1.72-1.39-3.12-3.12-3.12Z"/><path class="bh" d="M44.43,56.93h0v15.54h0c1.72,0,3.14-1.41,3.14-3.14v-9.29c0-1.72-1.41-3.12-3.14-3.12Z"/></g></g></g></g><g id="al"/><g id="am"/><g id="an"/><g id="ao"/><g id="ap"/><g id="aq"/><g id="ar"/><g id="as"/><g id="at"/><g id="au"/><g id="av"/><g id="aw"/><g id="ax"/><g id="ay"/><g id="b`"/><g id="ba"/><g id="bb"/><g id="bc"/></svg>