<?xml version="1.0" encoding="UTF-8"?><svg xmlns="http://www.w3.org/2000/svg" viewBox="0 0 125 125"><defs><style>.bd{fill:#f7d92b;}.be{fill:#f26122;}.bf{fill:#929497;}.bg{fill:#b3f2f2;}.bh{fill:#886f4b;}.bi{fill:#5a3b00;}.bj{fill:#2cb69c;}.bk{fill:#50998b;}</style></defs><g id="a"/><g id="b"/><g id="c"/><g id="d"/><g id="e"/><g id="f"/><g id="g"/><g id="h"/><g id="i"/><g id="j"/><g id="k"/><g id="l"/><g id="m"/><g id="n"/><g id="o"/><g id="p"/><g id="q"/><g id="r"/><g id="s"/><g id="t"/><g id="u"/><g id="v"/><g id="w"/><g id="x"/><g id="y"/><g id="a`"/><g id="aa"/><g id="ab"/><g id="ac"/><g id="ad"/><g id="ae"/><g id="af"/><g id="ag"/><g id="ah"/><g id="ai"/><g id="aj"><g><circle class="bj" cx="62.5" cy="62.5" r="62.5" transform="translate(-12.93 108.58) rotate(-76.42)"/><path class="bk" d="M35.15,94.45l30.47,30.47c30.32-1.49,54.94-24.58,58.83-54.21l-37.03-37.03-52.27,60.77Z"/><g><g><g><g><path class="bh" d="M35.8,41.86l.21,.03c-.14,.81-.22,1.65-.22,2.51v12h-2.9c-2.16,0-3.93-1.77-3.93-3.93v-6.68c0-2.16,1.77-3.93,3.93-3.93h2.92Z"/><path class="bf" d="M91.16,83.43v7.18c0,3.24-2.65,5.89-5.91,5.89s-5.89-2.65-5.89-5.89v-7.18h11.8Z"/><path class="bh" d="M92.12,41.86c2.16,0,3.93,1.77,3.93,3.93v6.68c0,2.16-1.77,3.93-3.93,3.93h-2.9v-12c0-.86-.09-1.7-.22-2.51l.21-.03h2.92Z"/><path class="bf" d="M45.63,83.43v7.18c0,3.24-2.65,5.89-5.89,5.89s-5.91-2.65-5.91-5.89v-7.18h11.8Z"/><path class="bd" d="M90.91,40.99s-.02-.06-.02-.1c-1.02-5.31-4.79-9.64-9.77-11.47-1.64-.6-3.42-.93-5.27-.93h-26.7c-7.45,0-13.67,5.33-15.04,12.4,0,.04,0,.06-.02,.1-.15,.91-.25,1.85-.25,2.82v33.73h57.33V43.81c0-.97-.1-1.91-.25-2.82Zm-17.13,35.91h-22.57v-9.98c0-2.82,2.28-5.1,5.1-5.1h12.38c2.82,0,5.1,2.28,5.1,5.1v9.98Z"/><path class="bh" d="M74.52,67.26v10.64h-24.05v-10.64c0-3,2.43-5.43,5.43-5.43h13.19c3,0,5.43,2.43,5.43,5.43Z"/><polygon class="bi" points="90.84 77.55 34.01 77.55 33.84 77.55 33.84 85.33 33.84 87.16 45.63 87.16 79.37 87.16 91.16 87.16 91.16 85.33 91.16 77.55 90.84 77.55"/></g><polygon class="bg" points="89.98 40.95 89.98 57.31 62.51 57.31 62.51 56.85 62.51 41.11 62.51 40.95 79.43 40.95 89.98 40.95"/><polygon class="bg" points="62.51 56.85 62.51 57.31 35.02 57.31 35.02 40.95 62.51 40.95 62.51 41.11 62.51 56.85"/><rect class="bi" x="62.21" y="40.92" width=".61" height="16.36"/></g><path class="bg" d="M82.96,65.56c2.15,0,3.9,1.75,3.9,3.9s-1.75,3.88-3.9,3.88-3.9-1.75-3.9-3.88,1.75-3.9,3.9-3.9Z"/><path class="bg" d="M42.04,65.56c2.15,0,3.9,1.75,3.9,3.9s-1.75,3.88-3.9,3.88-3.9-1.75-3.9-3.88,1.75-3.9,3.9-3.9Z"/></g><path class="be" d="M81.06,32.87c1.39,0,2.53,1.14,2.53,2.53s-1.14,2.53-2.53,2.53-2.55-1.11-2.55-2.53,1.14-2.53,2.55-2.53Z"/><path class="be" d="M74.22,32.87c1.41,0,2.55,1.14,2.55,2.53s-1.14,2.53-2.55,2.53-2.53-1.11-2.53-2.53,1.14-2.53,2.53-2.53Z"/><path class="be" d="M50.78,32.87c1.39,0,2.53,1.14,2.53,2.53s-1.14,2.53-2.53,2.53-2.55-1.11-2.55-2.53,1.14-2.53,2.55-2.53Z"/><path class="be" d="M43.94,32.87c1.41,0,2.55,1.14,2.55,2.53s-1.14,2.53-2.55,2.53-2.53-1.11-2.53-2.53,1.14-2.53,2.53-2.53Z"/></g></g></g><g id="ak"/><g id="al"/><g id="am"/><g id="an"/><g id="ao"/><g id="ap"/><g id="aq"/><g id="ar"/><g id="as"/><g id="at"/><g id="au"/><g id="av"/><g id="aw"/><g id="ax"/><g id="ay"/><g id="b`"/><g id="ba"/><g id="bb"/><g id="bc"/></svg>