<?xml version="1.0" encoding="utf-8"?>
<!-- Generator: Adobe Illustrator 26.3.1, SVG Export Plug-In . SVG Version: 6.00 Build 0)  -->
<svg version="1.1" id="Layer_1" xmlns="http://www.w3.org/2000/svg" xmlns:xlink="http://www.w3.org/1999/xlink" x="0px" y="0px"
	 viewBox="0 0 124 124" style="enable-background:new 0 0 124 124;" xml:space="preserve">
<style type="text/css">
	.st0{fill:#2DB69C;}
	.st1{fill:#CAD0D0;}
	.st2{fill:#6F7374;}
	.st3{fill:#E96233;}
	.st4{fill:#A6ACAE;}
	.st5{fill:#A6AAAC;}
	.st6{fill:#A7ABAD;}
	.st7{fill:#A6AAAD;}
	.st8{fill:#A7AAAD;}
	.st9{fill:#A5ABAD;}
	.st10{fill:#A6ABAD;}
	.st11{fill:#51998B;}
</style>
<circle class="st0" cx="62" cy="62" r="62"/>
<g>
	<path class="st1" d="M89.6,34.2c0,17.5,0,34.9,0,52.4c0,8.1-1.5,9.6-9.6,9.6c-14,0-27.9-0.1-41.9-0.1c-2.8-1.9-3.6-4.5-3.6-7.7
		c0.1-17.1,0-34.2,0-51.4c0-6.2,2-8.3,8-8.4c13-0.1,25.9,0,38.9-0.1C85.5,28.5,88.4,30,89.6,34.2z M61.5,48.7
		c5.6,0,11.3-0.2,16.9,0.1c5.5,0.3,5.5-3.1,5.5-7.1c0-3.9-0.1-6.8-5.4-6.6c-10.1,0.3-20.2,0.1-30.4,0.1c-8.5,0-8.3,0-8.3,8.7
		c0,3.8,1.7,5,5.1,4.9C50.5,48.7,56,48.7,61.5,48.7z M82.9,79.8c0-2.2-0.1-4.3,0-6.5c0.2-3.3-1.2-4.9-4.6-5c-3.3-0.1-5,1.2-4.9,4.6
		c0,4.1,0.1,8.3,0,12.4c0,3.3,1.5,4.7,4.9,4.7c3.5,0,4.8-1.6,4.7-4.8C82.8,83.4,82.9,81.6,82.9,79.8z M62,61.9
		c2.5-0.1,4.4-1.1,4.4-4c0-2.6-1.7-3.8-4.2-3.8c-2.6-0.1-4.7,0.9-4.8,3.7C57.2,60.7,59.2,61.8,62,61.9z M78,61.9
		c2.4,0,4.5-0.9,4.6-3.8c0.1-2.9-1.9-3.9-4.5-4c-2.4-0.1-4.3,1-4.5,3.5C73.4,60.5,75.1,61.8,78,61.9z M62.3,75.9
		c2.2-0.1,4.3-0.9,4.2-3.7c0-2.8-1.9-4.1-4.6-4c-2.7,0.1-4.6,1.5-4.4,4.3C57.6,75.1,59.7,75.9,62.3,75.9z M45.4,89.9
		c2.4,0.1,4.3-0.5,4.5-3.4c0.2-2.6-1.2-4.1-3.8-4.2c-2.5-0.1-4.7,0.9-4.9,3.8C41.1,88.9,42.9,89.8,45.4,89.9z M62.1,89.9
		c2.5-0.1,4.5-1,4.4-3.7c-0.1-2.8-2.1-4-4.7-3.9c-2.4,0.1-4.3,1.3-4.3,3.8C57.4,89.1,59.6,89.9,62.1,89.9z M45.4,61.9
		c2.7,0,4.4-0.8,4.5-3.6c0.1-2.6-1.3-4-3.9-4.1c-2.7-0.1-4.7,0.9-4.7,3.8C41.3,60.7,43.2,61.7,45.4,61.9z M45.4,75.9
		c3,0,4.5-1,4.5-3.8c0-2.7-1.7-3.8-4.1-3.8c-2.4,0-4.3,0.9-4.4,3.6C41.2,74.8,43.2,75.8,45.4,75.9z"/>
	<path class="st2" d="M61.5,48.7c-5.5,0-11,0-16.4,0c-3.4,0-5.1-1.1-5.1-4.9c-0.1-8.7-0.2-8.7,8.3-8.7c10.1,0,20.3,0.2,30.4-0.1
		c5.2-0.1,5.4,2.8,5.4,6.6c0,4,0,7.4-5.5,7.1C72.8,48.5,67.1,48.7,61.5,48.7z"/>
	<path class="st3" d="M82.9,79.8c0,1.8-0.1,3.6,0,5.5c0.1,3.3-1.2,4.8-4.7,4.8c-3.4,0-4.9-1.3-4.9-4.7c0.1-4.1,0-8.3,0-12.4
		c0-3.4,1.7-4.7,4.9-4.6c3.4,0.1,4.8,1.7,4.6,5C82.8,75.5,82.9,77.6,82.9,79.8z"/>
	<path class="st4" d="M62,61.9c-2.7-0.1-4.7-1.2-4.6-4.1c0.1-2.8,2.3-3.8,4.8-3.7c2.5,0.1,4.2,1.3,4.2,3.8
		C66.4,60.8,64.5,61.9,62,61.9z"/>
	<path class="st5" d="M78,61.9c-2.9-0.1-4.6-1.5-4.4-4.3c0.2-2.5,2.1-3.6,4.5-3.5c2.6,0.1,4.6,1.1,4.5,4C82.5,61,80.4,61.9,78,61.9z
		"/>
	<path class="st6" d="M62.3,75.9c-2.6,0-4.7-0.8-4.8-3.4c-0.2-2.8,1.7-4.2,4.4-4.3c2.7-0.1,4.6,1.2,4.6,4
		C66.5,75,64.5,75.8,62.3,75.9z"/>
	<path class="st7" d="M45.4,89.9c-2.5-0.1-4.3-1-4.1-3.8c0.2-2.9,2.3-3.9,4.9-3.8c2.6,0.1,3.9,1.6,3.8,4.2
		C49.7,89.4,47.8,89.9,45.4,89.9z"/>
	<path class="st8" d="M62.1,89.9c-2.4,0-4.7-0.7-4.6-3.8c0-2.6,2-3.8,4.3-3.8c2.6-0.1,4.7,1.1,4.7,3.9
		C66.6,88.9,64.6,89.8,62.1,89.9z"/>
	<path class="st9" d="M45.4,61.9c-2.2-0.2-4.1-1.2-4-3.8c0-2.9,2.1-4,4.7-3.8c2.6,0.1,4,1.5,3.9,4.1C49.8,61.1,48,61.9,45.4,61.9z"
		/>
	<path class="st10" d="M45.4,75.9c-2.2-0.1-4.2-1.1-4.1-4.1c0.1-2.6,2-3.6,4.4-3.6c2.5,0,4.1,1.1,4.1,3.8
		C49.9,74.8,48.4,75.9,45.4,75.9z"/>
</g>
<path class="st11" d="M123.8,66.7c-1.6-0.7-2.8-2.1-4-3.3c-7.4-7.3-14.7-14.7-22.1-22c-2.6-2.5-4.7-5.6-8.1-7.1
	c0,17.5,0,34.9,0,52.4c0,8.1-1.5,9.6-9.6,9.6c-14,0-27.9-0.1-41.9-0.1c1.5,1.6,2.9,3.2,4.4,4.8c7.5,7.8,15.6,15,22.7,23.1
	C96.3,122.4,121.5,97.7,123.8,66.7z"/>
</svg>
