<?xml version="1.0" encoding="UTF-8"?><svg xmlns="http://www.w3.org/2000/svg" viewBox="0 0 125 125"><defs><style>.c{fill:#f05a28;}.d{fill:#fff;}.e{fill:#eff8fb;}.f{fill:#7479b7;}.g{fill:#8f95d1;}.h{fill:#d0d2d3;}.i{fill:#808285;}</style></defs><g id="a"><g><circle class="g" cx="62.5" cy="62.5" r="62.5" transform="translate(-25.89 62.5) rotate(-45)"/><path class="f" d="M32.3,89.78l35.02,35.02c29.77-2.27,53.69-25.39,57.21-54.79l-31.87-31.87-60.36,51.65Z"/><g><g><path class="e" d="M80.42,79.38v-26.28h8.92c.28,0,.56-.03,.83-.08,2.12,.61,3.67,2.57,3.67,4.9v28.37c0,2.82-2.29,5.12-5.12,5.12h-8.3v-12.03Z"/><path class="c" d="M93.84,40.86v7.74c0,2.2-1.58,4.02-3.67,4.41-.45-.14-.95-.22-1.45-.22H36.28c-.5,0-1,.08-1.45,.22-2.09-.39-3.67-2.22-3.67-4.41v-7.74c0-2.48,2.01-4.49,4.49-4.49h5.18v4.94c0,1.75,1.43,3.2,3.2,3.2s3.2-1.45,3.2-3.2v-4.94h30.54v4.94c0,1.75,1.45,3.2,3.2,3.2s3.2-1.45,3.2-3.2v-4.94h5.18c2.48,0,4.49,2.01,4.49,4.49Z"/><path class="d" d="M90.17,53.02c-.27,.05-.55,.08-.83,.08H35.65c-.28,0-.56-.03-.83-.08,.45-.14,.95-.22,1.45-.22h52.44c.5,0,1,.08,1.45,.22Z"/><path class="h" d="M84.17,36.37v4.94c0,1.75-1.43,3.2-3.2,3.2s-3.2-1.45-3.2-3.2v-4.94h6.4Z"/><path class="h" d="M84.17,31.82v4.55h-6.4v-4.55c0-1.76,1.45-3.2,3.2-3.2,.87,0,1.68,.36,2.26,.94,.58,.58,.94,1.37,.94,2.26Z"/><polygon class="e" points="80.42 87 80.42 91.4 68.68 91.4 68.68 87 68.68 79.38 80.42 79.38 80.42 87"/><rect class="e" x="68.68" y="71.98" width="11.75" height="7.39"/><rect class="e" x="68.68" y="64.57" width="11.75" height="7.41"/><polygon class="e" points="80.42 57.32 80.42 64.57 68.68 64.57 68.68 57.32 68.68 53.09 80.42 53.09 80.42 57.32"/><polygon class="e" points="68.68 87 68.68 91.4 56.92 91.4 56.92 87 56.92 79.38 68.68 79.38 68.68 87"/><rect class="e" x="56.92" y="71.98" width="11.76" height="7.39"/><rect class="e" x="56.92" y="64.57" width="11.76" height="7.41"/><polygon class="e" points="68.68 57.32 68.68 64.57 56.92 64.57 56.92 57.32 56.92 53.09 68.68 53.09 68.68 57.32"/><polygon class="e" points="56.92 87 56.92 91.4 45.15 91.4 45.15 87 45.15 79.38 56.92 79.38 56.92 87"/><rect class="e" x="45.15" y="71.98" width="11.76" height="7.39"/><rect class="e" x="45.15" y="64.57" width="11.76" height="7.41"/><polygon class="e" points="56.92 57.32 56.92 64.57 45.15 64.57 45.15 57.32 45.15 53.09 56.92 53.09 56.92 57.32"/><path class="h" d="M47.23,36.37v4.94c0,1.75-1.44,3.2-3.2,3.2s-3.2-1.45-3.2-3.2v-4.94h6.4Z"/><path class="h" d="M47.23,31.82v4.55h-6.4v-4.55c0-1.76,1.43-3.2,3.2-3.2,.87,0,1.68,.36,2.26,.94,.58,.58,.94,1.37,.94,2.26Z"/><path class="e" d="M45.15,79.38v12.03h-8.88c-2.82,0-5.12-2.29-5.12-5.12v-28.37c0-2.32,1.54-4.29,3.67-4.9,.27,.05,.55,.08,.83,.08h9.5v26.28Z"/></g><path class="i" d="M88.99,72.49c.28,0,.5-.22,.5-.5s-.22-.5-.5-.5h-8.06v-6.4h8.06c.28,0,.5-.22,.5-.5s-.22-.5-.5-.5h-8.06v-6.75c0-.28-.22-.5-.5-.5s-.5,.22-.5,.5v6.75h-10.74v-6.75c0-.28-.22-.5-.5-.5s-.5,.22-.5,.5v6.75h-10.76v-6.75c0-.28-.22-.5-.5-.5s-.5,.22-.5,.5v6.75h-10.76v-6.75c0-.28-.22-.5-.5-.5s-.5,.22-.5,.5v6.75h-8.64c-.28,0-.5,.22-.5,.5s.22,.5,.5,.5h8.64v6.4h-8.64c-.28,0-.5,.22-.5,.5s.22,.5,.5,.5h8.64v6.39h-8.64c-.28,0-.5,.22-.5,.5s.22,.5,.5,.5h8.64v7.13c0,.28,.22,.5,.5,.5s.5-.22,.5-.5v-7.13h10.76v7.13c0,.28,.22,.5,.5,.5s.5-.22,.5-.5v-7.13h10.76v7.13c0,.28,.22,.5,.5,.5s.5-.22,.5-.5v-7.13h10.74v7.13c0,.28,.22,.5,.5,.5s.5-.22,.5-.5v-7.13h8.06c.28,0,.5-.22,.5-.5s-.22-.5-.5-.5h-8.06v-6.39h8.06Zm-9.07-7.41v6.4h-10.74v-6.4h10.74Zm-11.75,0v6.4h-10.76v-6.4h10.76Zm-22.52,0h10.76v6.4h-10.76v-6.4Zm0,13.8v-6.39h10.76v6.39h-10.76Zm11.76,0v-6.39h10.76v6.39h-10.76Zm22.5,0h-10.74v-6.39h10.74v6.39Z"/></g></g></g><g id="b"/></svg>