<?xml version="1.0" encoding="UTF-8"?><svg xmlns="http://www.w3.org/2000/svg" viewBox="0 0 125 125"><defs><style>.bd{fill:#f29254;}.be{fill:#fff;}.bf{fill:#fed3aa;}.bg{fill:#7479b7;}.bh{fill:#8f95d1;}</style></defs><g id="a"/><g id="b"/><g id="c"/><g id="d"/><g id="e"/><g id="f"/><g id="g"/><g id="h"/><g id="i"/><g id="j"/><g id="k"/><g id="l"/><g id="m"/><g id="n"/><g id="o"/><g id="p"/><g id="q"/><g id="r"/><g id="s"/><g id="t"><g><circle class="bh" cx="62.5" cy="62.5" r="62.5" transform="translate(-5.91 118.47) rotate(-84.29)"/><path class="bg" d="M74.89,123.77c24.44-4.92,43.72-24.09,48.8-48.48L74.13,25.74l-10.97,6.24-14.1,65.96,25.83,25.83Z"/><g><g><path class="bf" d="M72.94,52.38c-2.2-1-3.57-3.3-3.57-5.73v-12.32c0-1.14,.93-2.05,2.05-2.05,1.06,0,2.03-.42,2.72-1.12s1.12-1.66,1.12-2.72-.42-2.01-1.12-2.7c-.7-.7-1.66-1.12-2.72-1.12h-17.84c-2.12,0-3.84,1.72-3.84,3.82,0,1.06,.42,2.03,1.12,2.72,.7,.7,1.66,1.12,2.72,1.12,1.12,0,2.05,.91,2.05,2.05v12.32c0,2.43-1.35,4.73-3.57,5.73-8.8,3.98-14.93,12.82-14.93,23.09,0,2.18,.27,4.31,.79,6.33l.1-.02h48.97l.12,.02c.52-2.03,.79-4.15,.79-6.33,0-10.27-6.14-19.12-14.95-23.09Z"/><path class="bd" d="M38.01,81.79h48.97l.12,.02c-1.56,6.06-5.33,11.26-10.37,14.69-1.37,.93-3.01,1.39-4.65,1.39h-19.15c-1.64,0-3.28-.46-4.65-1.39-5.04-3.44-8.79-8.63-10.35-14.69l.1-.02Z"/></g><path class="be" d="M45.21,77.09c-.69,0-1.24-.56-1.24-1.24,0-7.27,4.28-13.9,10.91-16.89,.63-.28,1.36,0,1.65,.62s0,1.36-.62,1.65c-5.74,2.59-9.44,8.33-9.44,14.62,0,.69-.56,1.24-1.24,1.24Z"/></g></g></g><g id="u"/><g id="v"/><g id="w"/><g id="x"/><g id="y"/><g id="a`"/><g id="aa"/><g id="ab"/><g id="ac"/><g id="ad"/><g id="ae"/><g id="af"/><g id="ag"/><g id="ah"/><g id="ai"/><g id="aj"/><g id="ak"/><g id="al"/><g id="am"/><g id="an"/><g id="ao"/><g id="ap"/><g id="aq"/><g id="ar"/><g id="as"/><g id="at"/><g id="au"/><g id="av"/><g id="aw"/><g id="ax"/><g id="ay"/><g id="b`"/><g id="ba"/><g id="bb"/><g id="bc"/></svg>