<?xml version="1.0" encoding="utf-8"?>
<!-- Generator: Adobe Illustrator 26.3.1, SVG Export Plug-In . SVG Version: 6.00 Build 0)  -->
<svg version="1.1" id="Layer_1" xmlns="http://www.w3.org/2000/svg" xmlns:xlink="http://www.w3.org/1999/xlink" x="0px" y="0px"
	 viewBox="0 0 124 124" style="enable-background:new 0 0 124 124;" xml:space="preserve">
<style type="text/css">
	.st0{fill:#21AECC;}
	.st1{fill:#C4E8F3;}
	.st2{fill:#258892;}
	.st3{fill:#EDF6F9;}
	.st4{fill:#78787A;}
	.st5{fill:#E65B2D;}
</style>
<circle class="st0" cx="62" cy="62" r="62"/>
<circle class="st1" cx="62" cy="62" r="36.1"/>
<g>
	<path class="st1" d="M35,62.2C35,78.4,46.5,90,62.5,90C77.3,90,89.9,77.5,90,62.7C90.1,47.3,77.7,35,62,35C46.6,35,35,46.7,35,62.2
		z"/>
	<path class="st2" d="M41,90.6c0.7,0.5,1.4,0.9,2,1.4C42.4,91.5,41.7,91.1,41,90.6z"/>
	<path class="st2" d="M43,92c0.4,0.3,0.7,0.7,1.1,1C43.7,92.6,43.3,92.3,43,92z"/>
	<path class="st3" d="M35,62.2C35,46.7,46.6,35,62,35c15.7,0,28,12.3,28,27.7C89.9,77.5,77.3,90,62.5,90C46.5,90,35,78.4,35,62.2z"
		/>
	<path class="st4" d="M66,62.5c-0.2-2.3-1.5-3.8-3.8-3.8c-2.3,0-3.8,1.5-3.8,3.7c0,2.2,1.4,3.7,3.7,3.7C64.5,66.1,65.8,64.8,66,62.5
		z"/>
</g>
<path class="st4" d="M79.7,47.3c-0.4-0.4-1-0.4-1.4,0c-1.8,1.8-4,4-6.2,6.1c-1.6,1.6-3.2,3.2-4.7,4.6c-1.1-1.4-2.8-2.2-5.1-2.2
	c-1.8,0-3.3,0.5-4.4,1.3l-5.2-4.8c-0.4-0.4-1-0.4-1.4,0c-0.4,0.4-0.4,1,0,1.4l5.2,4.9c-0.7,1-1.1,2.3-1.1,3.8
	c-0.1,4,2.5,6.6,6.7,6.7c0.6,0,1.2,0,1.7-0.1c0.7,1.7,1.5,3.5,2.2,5.4c1.3,3.2,2.6,6.3,3.5,8.6c0.2,0.4,0.5,0.6,0.9,0.6
	c0.1,0,0.3,0,0.4-0.1c0.5-0.2,0.8-0.8,0.5-1.3c-0.9-2.3-2.2-5.4-3.5-8.6c-0.7-1.8-1.5-3.6-2.2-5.3c1.9-1,3-3,3.3-5.7
	c-0.1-1-0.3-1.9-0.6-2.8c1.6-1.6,3.3-3.3,5.1-5c2.2-2.1,4.4-4.3,6.2-6.1C80.1,48.3,80.1,47.7,79.7,47.3z"/>
<path class="st5" d="M66,62.5c-0.3,2.3-1.5,3.6-3.9,3.6c-2.3,0-3.8-1.5-3.7-3.7c0-2.2,1.5-3.7,3.8-3.7C64.6,58.7,65.8,60.2,66,62.5z
	"/>
<path class="st2" d="M123,73.2c-8-7.9-16-15.8-24-23.7c-1.4-1.3-2.5-3.1-4.6-3.4c2.4,4.8,3.7,10.2,3.7,15.9
	c0,19.9-16.2,36.1-36.1,36.1c-6.5,0-12.6-1.7-17.9-4.7c0.5,2,2.2,3.2,3.6,4.6c8.2,8.4,16.5,16.7,24.8,25.1
	C98.1,118.8,118.3,98.7,123,73.2z"/>
</svg>
