<?xml version="1.0" encoding="utf-8"?>
<!-- Generator: Adobe Illustrator 26.3.1, SVG Export Plug-In . SVG Version: 6.00 Build 0)  -->
<svg version="1.1" id="Layer_1" xmlns="http://www.w3.org/2000/svg" xmlns:xlink="http://www.w3.org/1999/xlink" x="0px" y="0px"
	 viewBox="0 0 124 124" style="enable-background:new 0 0 124 124;" xml:space="preserve">
<style type="text/css">
	.st0{fill:#F05B2A;}
	.st1{fill:#DEDFDF;}
	.st2{fill:#EFEFEE;}
	.st3{fill:#C6C3C3;}
	.st4{fill:#B2B3B6;}
	.st5{fill:#B6B8BA;}
	.st6{fill:#B8B9BC;}
	.st7{fill:none;stroke:#B2B3B6;stroke-width:2;stroke-linecap:round;stroke-miterlimit:10;}
	.st8{fill:#9B4036;}
</style>
<circle class="st0" cx="62" cy="62" r="62"/>
<g>
	<path class="st1" d="M68.1,74.5c0.2,6.7-1,13.6,1,20.2c-4.3,0-8.7,0-13,0c0-11.8,0-23.6,0-35.4c-0.7,0-1.4,0-2.1,0
		c0,11.8,0,23.6,0,35.4c-3,0-6.1,0-9.1-0.1"/>
	<path class="st1" d="M69.5,94.7c1.8,0,3.6,0.1,5.5,0.1c6.6-0.1,8.5-2,8.5-8.7c0-9-0.1-17.9-0.1-26.9c-5.7-0.8-10.3-3.2-13.1-8.6
		c-4.2-7.9-11.7-8-16.4-0.1c-3.1,5.2-7.1,8.6-13.5,8.4c0.1,9.4,0.1,18.7,0.2,28.1c0,2.9,0.2,6,3.4,7.3l0.9,0.3"/>
	<path class="st2" d="M83.3,59.2c-5.7-0.8-10.3-3.2-13.1-8.6c-4.2-7.9-11.7-8-16.4-0.1c-3.1,5.2-7.1,8.6-13.5,8.4
		c-9.3-1.6-14.4-7.4-13.7-15.7c0.6-7.8,6.9-13.1,15.9-13.2C55,30,67.6,30.2,80.2,30c7.3-0.1,12.9,2.4,16.5,8.8
		C99,50.9,95.2,56.7,83.3,59.2z M87.4,48.5c-2.2,1-4.5,1.9-7,1c-1.1-1.6-2.3-3.2-4.1-5.8c0.1,3.7,1,5.6,3.4,6.6
		c3.1,1.6,5.9,1.5,8.4-1.1c0.6-0.7,1.8-1.6,0.9-2.2C87.9,46.2,87.9,47.8,87.4,48.5z"/>
	<path class="st3" d="M53.9,94.7c0-11.8,0-23.6,0-35.4c0.7,0,1.4,0,2.1,0c0,11.8,0,23.6,0,35.4C55.4,94.7,54.7,94.7,53.9,94.7z"/>
	<path class="st3" d="M67.9,94.7c0-11.8,0-23.6,0-35.4c0.7,0,1.4,0,2.1,0c0,11.8,0,23.6,0,35.4C69.3,94.7,68.6,94.7,67.9,94.7z"/>
	<path class="st4" d="M36.2,41.2c-0.5,2.2-0.5,4.4,0,6.6c-0.2,0.2-0.5,0.5-0.7,0.7c-2.3-2.6-2.3-5.3,0-7.9
		C35.8,40.8,36,41,36.2,41.2z"/>
	<path class="st4" d="M37.2,48.8c2.2,1.2,4.6,1.3,7,1.1c-2.6,1.9-5.2,2.1-7.6-0.5C36.8,49.2,37,49,37.2,48.8z"/>
	<path class="st5" d="M79.8,50.3c-2.4-1-3.3-2.8-3.4-6.6c1.8,2.6,2.9,4.2,4.1,5.8C80.2,49.7,80,50,79.8,50.3z"/>
	<path class="st5" d="M80.4,49.5c2.5,1,4.8,0,7-1c0.3,0.2,0.5,0.5,0.8,0.7c-2.5,2.5-5.4,2.6-8.4,1.1C80,50,80.2,49.7,80.4,49.5z"/>
	<path class="st5" d="M87.4,48.5c0.5-0.7,0.5-2.3,1.6-1.5c0.9,0.6-0.3,1.6-0.9,2.2C87.9,49,87.7,48.7,87.4,48.5z"/>
	<path class="st6" d="M85.9,39.6c0-0.5,0-1,0-1.4c0.7,0.6,1.5,1.1,2.2,1.7c-0.3,0.2-0.5,0.4-0.7,0.7C87,40.2,86.4,39.9,85.9,39.6z"
		/>
	<path class="st6" d="M88.2,39.8c0.4,0.5,0.9,0.9,0.2,1.5c-0.1,0-0.6-0.5-0.9-0.8C87.7,40.3,87.9,40,88.2,39.8z"/>
	<path class="st4" d="M36.6,39.6c0.4-0.3,0.7-0.6,1.1-1c0.2,0.2,0.5,0.5,0.7,0.7c-0.4,0.3-0.7,0.6-1.1,0.9
		C37,40,36.8,39.8,36.6,39.6z"/>
	<path class="st4" d="M35.6,40.6c0.3-0.3,0.6-0.6,1-1c0.2,0.2,0.4,0.4,0.7,0.6c-0.3,0.3-0.7,0.7-1,1C36,41,35.8,40.8,35.6,40.6z"/>
	<path class="st4" d="M36.6,49.4c-0.3-0.3-0.6-0.6-1-0.9c0.2-0.2,0.4-0.5,0.7-0.7c0.3,0.3,0.6,0.7,0.9,1C37,49,36.8,49.2,36.6,49.4z
		"/>
</g>
<path class="st7" d="M46.9,44.1c0,3.4-2.7,6.1-6.1,6.1c-3.4,0-6.1-2.7-6.1-6.1s2.7-6.1,6.1-6.1h42.5c3.4,0,6.1,2.7,6.1,6.1
	s-2.7,6.1-6.1,6.1c-3.4,0-6.1-2.7-6.1-6.1"/>
<path class="st8" d="M69.1,94.7c-4.3,0-8.7,0-13,0c-0.7,0-1.4,0-2.1,0c-3,0-6.1,0-9.1-0.1c1,2.4,3.1,3.8,4.8,5.6
	c7.3,7.8,15.5,14.7,22.3,23c28.7-4.6,50.8-28.8,52.1-58.5c-1.7-0.6-2.8-2.2-4.1-3.4C112,53.9,105,45.8,96.8,38.8
	c2.3,12.1-1.5,17.9-13.4,20.4c0,9,0.1,17.9,0.1,26.9c0,6.7-1.9,8.6-8.5,8.7c-1.8,0-3.6-0.1-5.5-0.1"/>
</svg>
