<?xml version="1.0" encoding="utf-8"?>
<!-- Generator: Adobe Illustrator 26.3.1, SVG Export Plug-In . SVG Version: 6.00 Build 0)  -->
<svg version="1.1" id="Layer_1" xmlns="http://www.w3.org/2000/svg" xmlns:xlink="http://www.w3.org/1999/xlink" x="0px" y="0px"
	 viewBox="0 0 124 124" style="enable-background:new 0 0 124 124;" xml:space="preserve">
<style type="text/css">
	.st0{fill:#2EB69C;}
	.st1{fill:#C6CFCF;}
	.st2{fill:#A6A8AB;}
	.st3{fill:#C3CBCB;}
	.st4{fill:#6F7072;}
	.st5{fill:#50998B;}
</style>
<circle class="st0" cx="62" cy="62" r="62"/>
<g>
	<path class="st1" d="M95.9,37.9c0.1,10.8,0.1,21.5,0.2,32.3c0,2.8-0.7,5.2-3.2,6.8c-1.9,0.8-3.8,1-5.8,1c-18.2,0-36.5-0.1-54.7-0.1
		c-3.1-2.8-4-6.2-3.9-10.3c0.2-8.1,0-16.3,0.1-24.4c0.1-7.2,2.5-9.7,9.6-9.7c16.1-0.1,32.3,0,48.4-0.1
		C90.5,33.4,93.7,34.5,95.9,37.9z M62.3,38.2c-7.5,0-15,0.1-22.4,0c-4.6-0.1-6.8,1.8-6.7,6.5c0.1,7.5,0.1,15,0,22.4
		c-0.1,4.6,2,6.7,6.5,6.7c15.1,0,30.3,0,45.4,0c4.3,0,6.5-1.8,6.4-6.3c-0.1-7.6-0.1-15.3,0-22.9c0.1-4.8-2.2-6.5-6.7-6.4
		C77.3,38.3,69.8,38.2,62.3,38.2z"/>
	<path class="st2" d="M32.3,77.9c18.2,0,36.5,0,54.7,0.1c2,0,4-0.2,5.8-1c3.9,1.9,7.8,3.9,10,8c-27,0-54-0.1-80.9-0.1
		C24.6,81.3,27.4,78.1,32.3,77.9z"/>
	<path class="st3" d="M22,84.9c27,0,54,0.1,80.9,0.1c1.3,4.7-1.8,5.5-5.2,5.6c-7,0.1-14,0.1-20.9,0.1c-17.6-0.1-35.2-0.2-52.8-0.2
		C22.1,89,20.3,87.6,22,84.9z"/>
	<path class="st4" d="M62.3,38.2c7.5,0,15,0.1,22.4,0c4.6-0.1,6.8,1.6,6.7,6.4c-0.1,7.6-0.1,15.3,0,22.9c0.1,4.5-2.1,6.3-6.4,6.3
		c-15.1,0-30.3,0-45.4,0c-4.6,0-6.6-2.1-6.5-6.7c0.1-7.5,0.1-15,0-22.4c-0.1-4.7,2.1-6.6,6.7-6.5C47.4,38.3,54.9,38.2,62.3,38.2z"/>
</g>
<path class="st5" d="M123.9,65.1c-1.3-1.1-2.6-2.3-3.8-3.5C112,53.8,104,45.9,95.9,37.9c0.1,10.8,0.1,21.5,0.2,32.3
	c0,2.8-0.7,5.2-3.2,6.8c3.9,1.9,7.8,3.9,10,8c1.3,4.7-1.8,5.5-5.2,5.6c-7,0.1-14,0.1-20.9,0.1c-17.6-0.1-35.2-0.2-52.8-0.2
	c0.9,2.3,2.7,3.7,4.4,5.4c9.1,9.3,18.3,18.6,27.5,27.9c2,0.2,4.1,0.3,6.2,0.3C95.2,124,122.3,97.9,123.9,65.1z"/>
</svg>
