<?xml version="1.0" encoding="utf-8"?>
<!-- Generator: Adobe Illustrator 26.3.1, SVG Export Plug-In . SVG Version: 6.00 Build 0)  -->
<svg version="1.1" id="Layer_1" xmlns="http://www.w3.org/2000/svg" xmlns:xlink="http://www.w3.org/1999/xlink" x="0px" y="0px"
	 viewBox="0 0 124 124" style="enable-background:new 0 0 124 124;" xml:space="preserve">
<style type="text/css">
	.st0{fill:#22AECC;}
	.st1{fill:#FCDC02;}
	.st2{fill:#F6EAB4;}
	.st3{fill:#258791;}
	.st4{fill:#ED5E2A;}
	.st5{fill:#F2E8B3;}
	.st6{fill:#9F8B66;}
	.st7{fill:#B59D4F;}
</style>
<circle class="st0" cx="62" cy="62" r="62"/>
<g>
	<path class="st1" d="M91.7,32.7c0,16.6-0.1,33.3-0.1,49.9c-2.4,5.3-6.6,7.4-12.2,7.3c-2.5-0.1-4.9,0-7.4,0c-5.4-1-10.8-1-16.2,0
		c-3,0-6-0.1-8.9,0c-6.2,0.2-11-1.8-13.8-7.6c-0.1-15.5-0.3-30.9-0.1-46.4c0.1-5.7,4.7-9.9,10.5-9.9c12.8-0.1,25.6,0,38.4-0.1
		c4.1,0,6.8,2.1,9.1,5.3c0,0.7,0.1,1.3,0.9,1.6C91.9,32.7,91.7,32.7,91.7,32.7z M68.4,52.7C68.4,52.7,68.4,52.7,68.4,52.7
		c2.8,0,5.6,0,8.5-0.1c4.9-0.2,5.2-3.5,5.2-7.3c0-3.9-0.9-6.6-5.4-6.5c-5.1,0-10.3,0.1-15.4,0c-4.4-0.1-6.3,1.9-6.2,6.3
		c0.1,6.3,1.1,7.6,7.4,7.6C64.4,52.7,66.4,52.7,68.4,52.7z M46.8,30.8c-0.3,0-0.6,0.1-1,0.1c0,17.9,0,35.9,0,53.8c0.3,0,0.6,0,1,0
		C46.8,66.8,46.8,48.8,46.8,30.8z"/>
	<path class="st2" d="M33.1,82.3C36,88,40.8,90.1,47,89.8c3-0.1,6,0,8.9,0c0,2.4,0,4.8-0.1,7.3c-5.3-0.1-10.5-0.2-15.8-0.3
		c0,0,0.1,0.1,0.1,0.1c-0.4-0.9-1.2-1-2-1.2C33.7,92.3,32,87.8,33.1,82.3z"/>
	<path class="st3" d="M38.1,95.8c0.8,0.2,1.7,0.3,2,1.2C39.4,96.6,38.7,96.2,38.1,95.8z"/>
	<path class="st3" d="M91.9,32.7c-0.8-0.3-0.9-0.9-0.9-1.6C91.3,31.7,91.6,32.2,91.9,32.7z"/>
	<path class="st4" d="M55.8,97.1c0-2.4,0-4.8,0.1-7.3c5.4-1,10.8-1,16.2,0c0,2.4,0.1,4.9,0.1,7.3c-0.1,1,0,2-0.2,3
		c-0.3,2,1.2,4.8-1,6c-2,1-3.5-1.5-4.9-2.7c-2.4-2.2-3.9-0.3-5.5,0.9c-1,0.8-1.8,2.3-3.3,1.7c-1.9-0.7-1-2.5-1.2-3.9
		C55.9,100.5,55.9,98.8,55.8,97.1z"/>
	<path class="st5" d="M72.2,97.1c0-2.4-0.1-4.9-0.1-7.3c2.5,0,4.9-0.1,7.4,0c5.6,0.2,9.8-2,12.2-7.3c0.5,10.2-3.5,14.5-13.5,14.6
		C76.2,97.2,74.2,97.1,72.2,97.1z"/>
	<path class="st6" d="M68.4,52.7c-2,0-4,0-6,0C56,52.6,55,51.4,55,45.1c0-4.4,1.8-6.4,6.2-6.3c5.1,0.1,10.3,0.1,15.4,0
		c4.5,0,5.4,2.7,5.4,6.5c0,3.8-0.3,7.2-5.2,7.3C74,52.7,71.2,52.7,68.4,52.7C68.4,52.7,68.4,52.7,68.4,52.7z"/>
	<path class="st7" d="M46.8,30.8c0,18,0,35.9,0,53.9c-0.3,0-0.6,0-1,0c0-17.9,0-35.9,0-53.8C46.2,30.9,46.5,30.8,46.8,30.8z"/>
</g>
<path class="st3" d="M124,63.1c-9.3-8.1-17.5-17.4-26.4-25.9c-1.8-1.7-3.3-3.8-5.8-4.6c0,16.6-0.1,33.3-0.1,49.9
	c0.5,10.2-3.5,14.5-13.5,14.6c-2,0-4,0-6,0c-0.1,1,0,2-0.2,3c-0.3,2,1.2,4.8-1,6c-2,1-3.5-1.5-4.9-2.7c-2.4-2.2-3.9-0.3-5.5,0.9
	c-1,0.8-1.8,2.3-3.3,1.7c-1.9-0.7-1-2.5-1.2-3.9c-0.2-1.7-0.1-3.3-0.2-5c-5.3-0.1-10.5-0.2-15.8-0.3c0.3,2.4,2.2,3.6,3.6,5.1
	c7,7.4,14.8,14.2,21.5,22C97.5,122.3,123.4,95.8,124,63.1z"/>
</svg>
