<?xml version="1.0" encoding="UTF-8"?><svg xmlns="http://www.w3.org/2000/svg" viewBox="0 0 125 125"><defs><style>.c{fill:#bbbdbf;}.d{fill:#d3d3d3;}.e{fill:#248791;}.f{fill:#20aecd;}.g{fill:#a38a69;}.h{fill:#886f4b;}.i{fill:#58595b;}</style></defs><g id="a"><g><circle class="f" cx="62.5" cy="62.5" r="62.5" transform="translate(-12.93 108.58) rotate(-76.42)"/><path class="e" d="M122.25,80.86L63.67,22.28l-2.49,41.38-7.47,24.58-11.2,6.53,29.51,29.51c23.87-3.65,43.29-20.8,50.23-43.42Z"/><g><path class="d" d="M62.51,63.93h0c-3.01,0-5.46-2.45-5.46-5.48s2.45-5.46,5.46-5.46h0V23.64h0l-3.78,7.65c-4.46,9.04-9.94,17.53-16.34,25.33l-1.39,1.7c-1.37,1.68-1.49,4.05-.27,5.85l9.54,14.1h12.25v-14.35Z"/><path class="g" d="M62.49,77.78h-10.51c-5.65,0-10.23,4.58-10.23,10.23v4.11c0,2,1.62,3.63,3.63,3.63h17.11v-17.97Z"/><g><path class="c" d="M62.55,21.78c1.06,0,1.92,.86,1.92,1.92s-.86,1.92-1.92,1.92-1.92-.86-1.92-1.92,.86-1.92,1.92-1.92Z"/><path class="d" d="M62.53,21.78c-1.04,.01-1.89,.87-1.89,1.91s.85,1.9,1.89,1.92v-3.83Z"/><path class="i" d="M62.51,52.98c3.03,0,5.48,2.45,5.48,5.46s-2.45,5.48-5.48,5.48-5.46-2.45-5.46-5.48,2.45-5.46,5.46-5.46Z"/><path class="c" d="M83.96,58.31l-.56-.68c-7.09-8.46-13.09-17.76-17.86-27.71l-3.03-6.28v29.34c3.03,0,5.48,2.45,5.48,5.46s-2.45,5.48-5.48,5.48v14.35h12.24l9.52-14.06c1.24-1.82,1.1-4.23-.31-5.91Z"/><path class="h" d="M73.03,77.78h-10.54v17.97h17.14c2,0,3.63-1.62,3.63-3.63v-4.11c0-5.67-4.59-10.23-10.23-10.23Z"/></g></g></g></g><g id="b"/></svg>