<?xml version="1.0" encoding="UTF-8"?><svg xmlns="http://www.w3.org/2000/svg" viewBox="0 0 125 125"><defs><style>.c{fill:#f7f8db;}.d{fill:#e5f4fa;}.e{fill:#7479b7;}.f{fill:#8f95d1;}.g{fill:#afcddd;}.h{fill:#bddbed;}.i{fill:#c7eafb;}.j{fill:#467d89;}</style></defs><g id="a"><g><circle class="f" cx="62.5" cy="62.5" r="62.5" transform="translate(-5.91 118.47) rotate(-84.29)"/><path class="e" d="M85.85,29.6l-51.97,51.79,17.08,17.08-7.26,2.7,23.62,23.62c30.29-2.31,54.53-26.2,57.38-56.33L85.85,29.6Z"/><g><path class="c" d="M85.75,81.51c6.95-6.91,10.78-16.11,10.81-25.91,.02-9.8-3.77-19.02-10.69-25.98l-.02-.02c-.45-.44-1.16-.42-1.61,.03-.06,.06-.09,.13-.13,.2-.07,.04-.15,.08-.21,.14l-3.96,3.94c-.45,.45-.45,1.18,0,1.63,.22,.23,.52,.34,.81,.34s.59-.11,.81-.34l3.47-3.46c5.98,6.41,9.25,14.71,9.23,23.51-.02,9.18-3.62,17.81-10.13,24.28-6.47,6.44-15.05,9.99-24.16,10.01h-.14c-8.81,0-17.11-3.31-23.5-9.33l3.47-3.44c.45-.45,.45-1.17,0-1.63-.45-.45-1.17-.45-1.63,0l-3.98,3.94c-.07,.07-.11,.15-.15,.23-.06,.04-.12,.06-.17,.11-.45,.45-.45,1.18,0,1.63,6.69,6.72,15.51,10.51,24.94,10.77v2.43l-14.41,5.11c-.6,.21-.91,.87-.7,1.47,.21,.6,.87,.91,1.47,.7l13.64-4.84v.28c0,.17,.04,.33,.11,.47v3.01c0,.63,.51,1.15,1.15,1.15s1.15-.51,1.15-1.15v-3.79l13.53,4.87c.13,.05,.26,.07,.39,.07,.47,0,.91-.29,1.08-.76,.22-.6-.09-1.26-.69-1.47l-14.42-5.19v-2.37c9.29-.3,18-4.05,24.63-10.65Z"/><g><path class="g" d="M80.41,35.14c5.21,5.24,8.42,12.47,8.4,20.44,0,1.94-.2,3.83-.57,5.65-3.14-1.18-6.17-2.6-9.03-4.3,2.89-6.96,3.26-14.66,1.16-21.76l.04-.04Z"/><path class="h" d="M80.37,35.17c2.1,7.1,1.73,14.8-1.16,21.76-4.28-2.51-8.2-5.56-11.68-9.06l12.82-12.75,.02-.02s.04,.02,.04,.04l-.04,.04Z"/><path class="g" d="M88.24,61.23c-1.14,5.73-3.98,10.83-7.95,14.77l-.02-.02-8.28-8.29c3.19-3.17,5.6-6.85,7.22-10.76,2.85,1.69,5.89,3.12,9.03,4.3Z"/><path class="g" d="M80.27,75.98l.02,.02c-4.39,4.37-10.15,7.33-16.57,8.17-1.18-3.01-2.59-5.92-4.25-8.65,4.57-1.57,8.86-4.19,12.52-7.83l8.28,8.29Z"/><path class="i" d="M80.05,34.83l.02-.02c.11,.09,.21,.18,.3,.29l-.02,.02-12.82,12.75c-3.55-3.57-6.64-7.6-9.15-12,6.94-2.82,14.61-3.17,21.67-1.03Z"/><path class="h" d="M79.21,56.93c-1.62,3.91-4.03,7.58-7.22,10.76l-12.11-12.18,7.65-7.63c3.48,3.5,7.4,6.55,11.68,9.06Z"/><path class="h" d="M59.88,55.51l12.11,12.18c-3.66,3.64-7.95,6.26-12.52,7.83-2.41-4.03-5.3-7.74-8.6-11.06l9.01-8.95Z"/><path class="d" d="M59.93,26.58c7.83,.02,14.95,3.16,20.14,8.24l-.02,.02c-7.06-2.14-14.73-1.78-21.67,1.03h-.02c-1.59-2.76-2.94-5.69-4.07-8.72v-.02c1.82-.37,3.71-.55,5.64-.55Z"/><path class="i" d="M67.53,47.87l-7.65,7.63-12.38-12.43c3.21-3.19,6.92-5.6,10.86-7.21h.02c2.51,4.41,5.6,8.44,9.15,12Z"/><path class="i" d="M59.88,55.51l-9.01,8.95c-3.37-3.37-7.17-6.35-11.29-8.81,1.59-4.58,4.23-8.9,7.92-12.57l12.38,12.43Z"/><path class="d" d="M54.3,27.15c1.12,3.03,2.48,5.96,4.07,8.72-3.94,1.61-7.65,4.01-10.86,7.21l-8.03-8.04-.02-.04c3.98-3.96,9.11-6.76,14.84-7.87v.02Z"/><path class="d" d="M39.47,35.03l8.03,8.04c-3.69,3.67-6.33,7.99-7.92,12.57-2.66-1.59-5.46-2.98-8.37-4.12,.87-6.42,3.85-12.18,8.24-16.53l.02,.04Z"/><path class="g" d="M59.47,75.52c1.66,2.73,3.07,5.64,4.25,8.65-1.28,.18-2.59,.27-3.91,.27-7.95-.02-15.16-3.25-20.39-8.47l.04-.05c6.49,1.96,13.52,1.84,20.01-.39Z"/><path class="h" d="M39.46,75.91l-.04,.05s-.02-.02-.04-.04t-.02-.02l.02-.02,11.49-11.43c3.3,3.32,6.19,7.03,8.6,11.06-6.49,2.23-13.52,2.35-20.01,.39Z"/><path class="i" d="M50.87,64.46l-11.49,11.43-.02,.02c-.11-.09-.2-.2-.29-.29l.04-.04c-1.93-6.47-1.77-13.48,.46-19.94,4.12,2.46,7.92,5.44,11.29,8.81Z"/><path class="d" d="M39.58,55.65c-2.23,6.46-2.39,13.47-.46,19.94l-.04,.04c-5.07-5.23-8.17-12.34-8.15-20.19,0-1.32,.09-2.62,.29-3.91,2.91,1.14,5.71,2.53,8.37,4.12Z"/></g><path class="j" d="M79.92,56.67c2.62-6.6,3.05-13.91,1.23-20.75-.24-.27-.49-.53-.74-.79,0-.02-.02-.02-.04-.04-.09-.11-.2-.2-.3-.29-.27-.27-.56-.53-.84-.79-6.75-1.81-14-1.42-20.59,1.14-1.44-2.55-2.7-5.28-3.77-8.14-.19,.03-.38,.06-.57,.1-.19,.04-.37,.09-.55,.13,0,.03,0,.06,.01,.09,1.07,2.89,2.35,5.66,3.8,8.25-3.73,1.6-7.1,3.85-10.05,6.69l-7.62-7.65h-.01c-.13,.12-.28,.24-.41,.37-.14,.14-.26,.29-.4,.43h0l7.63,7.67c-3.3,3.4-5.79,7.33-7.41,11.73-2.56-1.49-5.2-2.78-7.96-3.87h0c-.03,.19-.08,.38-.1,.58-.03,.2-.04,.4-.07,.59,2.63,1.04,5.23,2.32,7.75,3.8-2,6.1-2.2,12.74-.57,18.89,.25,.28,.5,.55,.76,.82,.09,.09,.18,.2,.29,.29t.02,.02s.02,.04,.04,.04c.25,.25,.51,.49,.77,.73,2.81,.76,5.72,1.16,8.64,1.16,3.51,0,7.02-.57,10.37-1.66,1.47,2.47,2.79,5.16,3.92,8.03,.2-.02,.4-.03,.6-.06,.2-.03,.38-.07,.58-.1-.01-.03-.03-.08-.04-.11-1.13-2.9-2.46-5.63-3.94-8.14,4.36-1.6,8.28-4.06,11.68-7.34l7.87,7.91h0c.14-.13,.29-.25,.42-.39,.14-.13,.26-.28,.39-.42h0l-7.87-7.91c2.82-2.9,5.06-6.24,6.68-9.93,2.65,1.53,5.52,2.89,8.58,4.03l.05,.02c.04-.19,.1-.37,.13-.56,.04-.19,.07-.39,.1-.58-2.99-1.13-5.81-2.47-8.42-3.98Zm-.52-21.41l-11.85,11.79c-3.21-3.29-6-6.95-8.31-10.88,6.47-2.47,13.57-2.79,20.16-.91Zm-21.25,1.33c2.38,4.08,5.26,7.87,8.59,11.28l-6.86,6.83-11.56-11.6c2.88-2.77,6.19-4.96,9.83-6.51Zm-10.65,7.32l11.55,11.6-8.2,8.16c-3.22-3.16-6.77-5.93-10.58-8.24,1.56-4.32,3.99-8.18,7.22-11.51Zm-7.59,12.64c3.64,2.24,7.05,4.9,10.13,7.93l-10.51,10.45c-1.66-5.96-1.53-12.43,.37-18.38Zm.59,19.05l10.35-10.3c2.93,3.01,5.52,6.33,7.72,9.9-5.84,1.85-12.19,1.99-18.07,.4Zm19.2-.77c-2.27-3.73-4.97-7.2-8.03-10.34l8.2-8.16,11.3,11.35c-3.33,3.21-7.18,5.61-11.47,7.15Zm12.29-7.96l-11.31-11.35,6.86-6.83c3.3,3.25,6.97,6.1,10.94,8.48-1.56,3.61-3.75,6.87-6.5,9.7Zm6.93-10.79c-3.82-2.31-7.37-5.06-10.56-8.2l11.69-11.63c1.73,6.54,1.34,13.51-1.13,19.83Z"/></g></g></g><g id="b"/></svg>