<?xml version="1.0" encoding="UTF-8"?><svg xmlns="http://www.w3.org/2000/svg" viewBox="0 0 115.5 115.5"><defs><style>.c{fill:#00b1d1;}.d{fill:#008993;}.e{fill:#929497;}.f{fill:#bbbdbf;}</style></defs><g id="a"><g><circle class="c" cx="57.75" cy="57.75" r="57.75" transform="translate(-11.72 100.69) rotate(-76.72)"/><path class="d" d="M36.37,76.74l36.7,36.7c22.57-6.19,39.61-25.72,42.11-49.59l-17.29-17.29-61.52,30.18Z"/><g><path class="e" d="M17.47,66.54c-.64,0-1.15-.51-1.15-1.15v-15.47c0-.64,.51-1.15,1.15-1.15s1.15,.51,1.15,1.15v15.47c0,.64-.51,1.15-1.15,1.15Z"/><path class="f" d="M17.47,48.77c-.64,0-1.15,.51-1.15,1.15v15.47c0,.63,.51,1.15,1.15,1.15v-17.77Z"/><g><path class="e" d="M80.65,60.23v10.45c0,4.69-2.77,8.88-6.98,10.56l-4.73,1.87c-7.21,2.87-15.18,2.87-22.39,0l-4.73-1.87c-4.19-1.68-6.98-5.87-6.98-10.56v-10.45l14.95,5.78c5.14,1.96,10.78,1.96,15.9,0l14.95-5.78Z"/><path class="f" d="M96.39,45.85l-30.69-11.85c-5.12-1.98-10.76-1.98-15.9,0l-30.69,11.85c-3.71,1.43-3.71,6.89,0,8.31l15.74,6.07,14.95,5.78c5.14,1.96,10.78,1.96,15.9,0l14.95-5.78,15.74-6.07c3.71-1.43,3.71-6.89,0-8.31Z"/><path class="e" d="M23.2,77.15v.02c0,.97-.5,1.9-1.34,2.38-1.35,.77-2.83,1.21-4.38,1.21v-15.36c3.16,0,5.73,5.26,5.73,11.76Z"/><path class="f" d="M17.47,65.39v15.36c-1.57,0-3.05-.43-4.4-1.21-.83-.48-1.35-1.4-1.35-2.36v-.04c0-6.49,2.57-11.76,5.74-11.76Z"/></g></g></g></g><g id="b"/></svg>