<?xml version="1.0" encoding="UTF-8"?><svg xmlns="http://www.w3.org/2000/svg" viewBox="0 0 125 125"><defs><style>.c{fill:#f7f8db;}.d{fill:#fff;}.e{fill:#e5e3c6;}.f{fill:#b07e09;}.g{fill:#886f4b;}</style></defs><g id="a"><g><circle class="c" cx="62.5" cy="62.5" r="62.5" transform="translate(-5.91 118.47) rotate(-84.29)"/><path class="e" d="M124.29,71.94l-26.94-26.94,1.87,4.36-3.46-4.02-4.36-2.26-3.79-7-4.77-1.24H39.48l-4.15,2.07-2.07,5.91,.62,44.8-5.6,4.36,32.99,32.99c.41,0,.82,.03,1.23,.03,31.31,0,57.24-23.02,61.79-53.06Z"/><g><path class="g" d="M91.88,42.66v-.2c0-4.76-3.77-8.64-8.41-8.64H40.68c-4.64,0-8.41,3.88-8.41,8.64v6.82c0,.59,.48,1.07,1.07,1.07s1.07-.48,1.07-1.07v-6.82c0-3.59,2.81-6.5,6.27-6.5h42.79c3.46,0,6.27,2.92,6.27,6.5v.19h-18.1c-4.02,0-7.78,1.61-10.57,4.51-2.81,2.89-4.36,6.74-4.36,10.85,0,8.47,6.7,15.37,14.94,15.37h5.3c8.24,0,14.94-6.89,14.94-15.37v-13.22c3.34,.14,6.02,2.99,6.02,6.49v29.01c0,.57-.07,1.13-.21,1.68-.33,1.29-1.05,2.47-2.06,3.34-.48,.41-1.05,.81-1.65,1.02-.66,.23-1.39,.11-2.08,.11-1.02,0-2.04,0-3.06,.01-.39,0-.78,0-1.16,0-.14,0-.34-.04-.48,0-.56,.19-.86,.8-.67,1.36,.15,.44,.57,.72,1.01,.72,.77,0,1.53,0,2.3,0,1.1,0,2.2-.01,3.3-.02,.6,0,1.17,0,1.74-.21,.68-.27,1.29-.7,1.86-1.15,2.09-1.64,3.29-4.22,3.29-6.87v-29.01c0-4.68-3.64-8.49-8.15-8.63Zm-2.14,15.35c0,7.3-5.74,13.23-12.8,13.23h-5.3c-7.06,0-12.8-5.94-12.8-13.23,0-3.55,1.33-6.88,3.76-9.37,2.4-2.49,5.61-3.86,9.04-3.86h18.1v13.23Z"/><path class="g" d="M36.79,56.28v-6.07c0-1.89-1.51-3.4-3.4-3.4h0c-1.87,0-3.38,1.51-3.38,3.4v5.97s6.9-.03,6.78,.1Z"/><g><g><path class="f" d="M37.6,54.12c1.08,1.08,1.74,2.57,1.74,4.21v30.8c0,2.68-2.19,4.87-4.87,4.87h-2.14c-2.68,0-4.87-2.19-4.87-4.87v-30.8c0-3.28,2.65-5.95,5.93-5.95,1.64,0,3.13,.66,4.21,1.74Z"/><path class="g" d="M86.27,84.22c1.89,0,3.4,1.52,3.4,3.4,0,.93-.38,1.79-.99,2.4-.61,.61-1.46,.99-2.4,.99h-3.18l-.03-.03c.99-2.47,1.04-2.9,1.04-3.36,0-1.21-.36-2.34-.98-3.28l.18-.12h2.97Z"/><path class="f" d="M47.35,81.67h30.8c2.07,0,3.89,1.06,4.97,2.67,.61,.94,.98,2.07,.98,3.28,0,.46-.05,.89-1.04,3.36-.2,.3-.43,.58-.7,.84-1.08,1.08-2.57,1.74-4.21,1.74h-30.8c-2.68,0-4.87-2.19-4.87-4.89v-2.12c0-2.7,2.19-4.89,4.87-4.89Z"/></g><g><path class="d" d="M31.17,71.17c-.3,0-.53-.24-.53-.53v-12.08c0-1.54,1.26-2.79,2.8-2.79,.3,0,.53,.24,.53,.53s-.24,.53-.53,.53c-.96,0-1.74,.77-1.74,1.72v12.08c0,.3-.24,.53-.53,.53Z"/><path class="d" d="M31.17,75.56c-.3,0-.53-.24-.53-.53v-1.96c0-.3,.24-.53,.53-.53s.53,.24,.53,.53v1.96c0,.3-.24,.53-.53,.53Z"/><path class="d" d="M46.03,87.97c-.3,0-.53-.24-.53-.53,0-1.54,1.26-2.79,2.8-2.79h12.06c.3,0,.53,.24,.53,.53s-.24,.53-.53,.53h-12.06c-.96,0-1.74,.77-1.74,1.72,0,.3-.24,.53-.53,.53Z"/><path class="d" d="M64.75,85.71h-1.96c-.3,0-.53-.24-.53-.53s.24-.53,.53-.53h1.96c.3,0,.53,.24,.53,.53s-.24,.53-.53,.53Z"/></g></g></g></g></g><g id="b"/></svg>