<?xml version="1.0" encoding="UTF-8"?><svg xmlns="http://www.w3.org/2000/svg" viewBox="0 0 115.5 115.5"><defs><style>.c{fill:#fcbc22;}.d{fill:#e5a533;}.e{fill:#97c9dd;}.f{fill:#acd5ea;}.g{fill:#c7eafb;}</style></defs><g id="a"><g><circle class="c" cx="57.75" cy="57.75" r="57.75" transform="translate(-11.72 100.69) rotate(-76.72)"/><path class="d" d="M25.23,80.7l34.74,34.74c30.07-1.14,54.24-25.26,55.46-55.31l-25.05-25.05L25.23,80.7Z"/><g><polygon class="f" points="91.62 39.05 91.62 76.33 91.26 76.33 65.07 57.69 91.26 39.05 91.62 39.05"/><polygon class="f" points="24.25 39.05 50.43 57.69 24.25 76.33 23.88 76.33 23.88 39.05 24.25 39.05"/><path class="g" d="M86.36,33.1H29.16c-2.92,0-5.27,2.36-5.27,5.26v.69l26.54,18.64,2.88,2.05c2.66,1.89,6.22,1.89,8.88,0l2.89-2.05,26.54-18.64v-.69c0-2.9-2.36-5.26-5.26-5.26Z"/><path class="e" d="M91.26,76.33l-26.19-18.64-2.89,2.05c-2.66,1.89-6.22,1.89-8.88,0l-2.88-2.05-26.17,18.64h-.37v.82c0,2.9,2.36,5.26,5.27,5.26h57.2c2.9,0,5.26-2.36,5.26-5.26v-.82h-.35Z"/></g></g></g><g id="b"/></svg>