<?xml version="1.0" encoding="UTF-8"?><svg xmlns="http://www.w3.org/2000/svg" viewBox="0 0 125 125"><defs><style>.c{fill:#83c8dd;}.d{fill:#cee4ef;}.e{fill:#a99773;}.f{fill:#967a51;}.g{fill:#4fafcf;}</style></defs><g id="a"><g><circle class="e" cx="62.5" cy="62.5" r="62.5" transform="translate(-12.93 108.58) rotate(-76.42)"/><path class="f" d="M124.95,64.45L83.25,22.75l-14.17,8.89,9.64,8.71,2.18,22.71-6.84,11.82-12.92,.82s-2.94,17.84-3.88,17.53-12.76-.31-12.76-.31l-10.27,7.16,24.82,24.82c1.14,.06,2.29,.1,3.45,.1,33.86,0,61.42-26.94,62.45-60.55Z"/><g><g><path class="d" d="M76.09,32.12l-5.31,8.05c7.67,5.31,9.71,15.85,4.56,23.65l-.71,1.06c-3.22,4.89-8.52,7.59-13.96,7.7-1.66,.06-3.34-.14-4.98-.58-2.59-.71-3.73-3.75-2.24-5.99l6.43-9.73-8.07-5.33-9.04,13.71c-2.9,4.36-1.7,10.25,2.68,13.15,2.76,1.83,5.73,3.07,8.79,3.77l3.34-6.12c.64-1.18,1.8-1.97,3.11-2.14,.19-.02,.39-.04,.58-.04,1.53,0,2.95,.83,3.69,2.18l3.09,5.66c5.79-1.74,11.04-5.46,14.64-10.91l.71-1.08c8.09-12.26,4.81-28.77-7.3-37.02Z"/><g><path class="c" d="M88.89,94.9l-3.77-5.33c-.77-1.1-2.05-1.76-3.4-1.76h-10.05l-3.64-6.69-3.09-5.66c-.73-1.35-2.16-2.18-3.69-2.18-.19,0-.39,.02-.58,.04-1.31,.17-2.47,.97-3.11,2.14l-3.34,6.12-3.39,6.23h-10.05c-1.37,0-2.63,.66-3.42,1.76l-3.75,5.33c-.27,.39-.46,.77-.58,1.18l1.12,.1h54.53l.77-.1c-.12-.41-.31-.79-.58-1.18Z"/><path class="c" d="M59.71,43.08l4.42,2.92c1.08,.71,2.53,.42,3.22-.66l3.42-5.17,5.31-8.05,.6-.89c.42-.62,.95-1.16,1.58-1.58l5-3.46c1.22-.83,1.2-2.63-.02-3.44l-9.64-6.35c-1.24-.81-2.88-.14-3.17,1.31l-1.22,5.97c-.15,.73-.44,1.43-.85,2.07l-.58,.89-5.33,8.05-3.42,5.17c-.71,1.06-.42,2.51,.66,3.22Z"/></g><circle class="d" cx="61.13" cy="77.42" r="1.71"/><path class="g" d="M34.17,96.17h54.53l.77-.1c.81,2.55-1.08,5.41-4,5.41H37.05c-2.93,0-4.83-2.86-4-5.41l1.12,.1Z"/></g><path class="d" d="M66.39,61.67c-.24,0-.47-.07-.68-.21l-20.82-13.75c-.57-.38-.73-1.15-.35-1.72,.38-.57,1.15-.73,1.72-.35l20.82,13.75c.57,.38,.73,1.15,.35,1.72-.24,.36-.64,.56-1.04,.56Z"/></g></g></g><g id="b"/></svg>