<?xml version="1.0" encoding="UTF-8"?><svg xmlns="http://www.w3.org/2000/svg" viewBox="0 0 125 125"><defs><style>.bd{fill:#f15a29;}.be{fill:#f1f1f2;}.bf{fill:#939598;}.bg{fill:#d0d2d3;}.bh{fill:#9b3f34;}</style></defs><g id="a"/><g id="b"/><g id="c"/><g id="d"/><g id="e"/><g id="f"/><g id="g"/><g id="h"/><g id="i"/><g id="j"/><g id="k"/><g id="l"/><g id="m"/><g id="n"/><g id="o"/><g id="p"/><g id="q"/><g id="r"><g><circle class="bd" cx="62.5" cy="62.5" r="62.5" transform="translate(-12.69 108.97) rotate(-76.72)"/><path class="bh" d="M70.68,124.45c27.18-3.56,48.86-24.57,53.42-51.42l-36.52-36.52-20.66,10.48-32.18,41.53,35.94,35.94Z"/><g><path class="be" d="M83.41,71.06l-17.44,17.46c-8.59,8.57-22.63,8.57-31.22,0-8.59-8.59-8.59-22.65,0-31.22l17.44-17.46,.64,.64,12.16,12.16-.12,.1c-1.56,1.54-1.56,4.09,0,5.66,1.54,1.54,4.09,1.54,5.66,0l.1-.12,12.16,12.16,.62,.62Z"/><path class="bg" d="M87.15,36.09c4.29,4.31,6.45,9.96,6.45,15.62s-2.16,11.31-6.45,15.6l-3.75,3.75-.62-.62-12.16-12.16,8.3-8.3c.77-.77,1.18-1.8,1.18-2.82s-.41-2.05-1.18-2.82l8.23-8.24Z"/><path class="be" d="M55.93,36.09c8.59-8.59,22.65-8.59,31.22,0l-8.23,8.24c-1.54-1.56-4.09-1.56-5.66,0l-8.28,8.3-12.16-12.16-.64-.64,3.75-3.75Z"/><path class="bf" d="M86.7,35.63l-8.19,8.21c-.24,.24-.24,.64,0,.88,.12,.12,.28,.18,.44,.18s.32-.06,.44-.18l8.18-8.2-.88-.88Z"/><path class="bf" d="M84.16,70.93l-12.82-12.82c-.26-.26-.67-.26-.93,0s-.26,.67,0,.93l12.82,12.82,.93-.93Z"/><path class="bf" d="M65.5,52.27l-12.89-12.89-.93,.93,12.89,12.89c.13,.13,.3,.19,.47,.19,.17,0,.34-.06,.47-.19,.26-.26,.26-.67,0-.93Z"/><path class="bf" d="M78.93,44.33c-1.54-1.56-4.09-1.56-5.66,0l-8.28,8.3-.12,.1c-1.56,1.54-1.56,4.09,0,5.66,1.54,1.54,4.09,1.54,5.66,0l.1-.12,8.3-8.3c.77-.77,1.18-1.8,1.18-2.82s-.41-2.05-1.18-2.82Z"/></g></g></g><g id="s"/><g id="t"/><g id="u"/><g id="v"/><g id="w"/><g id="x"/><g id="y"/><g id="a`"/><g id="aa"/><g id="ab"/><g id="ac"/><g id="ad"/><g id="ae"/><g id="af"/><g id="ag"/><g id="ah"/><g id="ai"/><g id="aj"/><g id="ak"/><g id="al"/><g id="am"/><g id="an"/><g id="ao"/><g id="ap"/><g id="aq"/><g id="ar"/><g id="as"/><g id="at"/><g id="au"/><g id="av"/><g id="aw"/><g id="ax"/><g id="ay"/><g id="b`"/><g id="ba"/><g id="bb"/><g id="bc"/></svg>