<?xml version="1.0" encoding="UTF-8"?><svg xmlns="http://www.w3.org/2000/svg" viewBox="0 0 125 125"><defs><style>.c{fill:#f7f8db;}.d{fill:#f15a29;}.e{fill:#eae7cc;}</style></defs><g id="a"><g><circle class="c" cx="62.5" cy="62.5" r="62.5" transform="translate(-12.69 108.97) rotate(-76.72)"/><path class="e" d="M124.99,63.07L87.95,26.04l-38.99,16.18,.41,29.87v12.48l-20.74,9.92,30.42,30.42c1.14,.06,2.29,.1,3.45,.1,34.33,0,62.18-27.68,62.49-61.93Z"/><path class="d" d="M90.26,77.18h0V33.61h-.01v-2.48c0-4.86-4.66-8.32-9.31-6.94l-28.92,8.61c-3.06,.91-5.18,3.74-5.18,6.94v8.83h0v36c-2.02-1.93-5.09-3.16-8.54-3.16-6.08,0-11.03,3.86-11.03,8.61s4.94,8.61,11.03,8.61,10.9-3.77,11.01-8.45h.01V48.37l38.45-11.45v34.8c-2.02-1.93-5.1-3.16-8.54-3.16-6.1,0-11.03,3.84-11.03,8.61s4.92,8.59,11.03,8.59,10.74-3.64,11-8.21h.02v-.37Z"/></g></g><g id="b"/></svg>