<?xml version="1.0" encoding="UTF-8"?><svg xmlns="http://www.w3.org/2000/svg" viewBox="0 0 125 125"><defs><style>.c{fill:#929497;}.d{fill:#d1d3d4;}.e{fill:#248791;}.f{fill:#20aecd;}</style></defs><g id="a"><g><circle class="f" cx="62.5" cy="62.5" r="62.5" transform="translate(-25.89 62.5) rotate(-45)"/><g><path class="e" d="M40.99,94.78l29.68,29.68c29.31-3.83,52.23-27.95,54.19-57.82L88.9,30.69,40.99,94.78Z"/><path class="e" d="M40.99,94.78l29.68,29.68c29.31-3.83,52.23-27.95,54.19-57.82L88.9,30.69,40.99,94.78Z"/></g><g><path class="d" d="M47.35,29.02h37.51c3.23,0,5.86,2.63,5.86,5.86v55.24c0,3.23-2.63,5.86-5.86,5.86H47.35c2.64,0,4.81-2.14,4.81-4.81V33.81c0-2.64-2.16-4.79-4.81-4.79Z"/><path class="c" d="M52.22,91.26v4.72h-8.06c-2.49,0-4.5-2.02-4.5-4.5v-5.82h2.41c1.84,0,3.36-1.52,3.36-3.38v-.09c0-1.86-1.52-3.36-3.36-3.36h-2.41v-12.92h2.41c1.84,0,3.36-1.52,3.36-3.38v-.39c0-1.68-1.38-3.06-3.06-3.06h-2.71v-12.92h2.41c1.84,0,3.36-1.5,3.36-3.36v-.09c0-1.86-1.52-3.38-3.36-3.38h-2.41v-5.54c0-2.64,2.14-4.79,4.81-4.79h7.75v62.24Z"/><g><path class="d" d="M43.32,78.83h-4.38c-1.88,0-3.41,1.54-3.41,3.41h0c0,1.88,1.54,3.41,3.41,3.41h4.38c1.84,0,3.36-1.52,3.36-3.38v-.09c0-1.86-1.52-3.36-3.36-3.36Z"/><path class="d" d="M43.32,59.09h-4.41c-1.86,0-3.38,1.52-3.38,3.36v.09c0,1.86,1.52,3.38,3.38,3.38h4.41c1.84,0,3.36-1.52,3.36-3.38v-.09c0-1.84-1.52-3.36-3.36-3.36Z"/><path class="d" d="M43.32,39.35h-4.41c-1.86,0-3.38,1.52-3.38,3.38v.09c0,1.86,1.52,3.36,3.38,3.36h4.41c1.84,0,3.36-1.5,3.36-3.36v-.09c0-1.86-1.52-3.38-3.36-3.38Z"/></g></g></g></g><g id="b"/></svg>