<?xml version="1.0" encoding="UTF-8"?><svg xmlns="http://www.w3.org/2000/svg" viewBox="0 0 125 125"><defs><style>.c{fill:#eff8fb;}.d{fill:#bddbed;}.e{fill:#2cb69c;}.f{fill:#50998b;}</style></defs><g id="a"><g><circle class="e" cx="62.5" cy="62.5" r="62.5" transform="translate(-5.91 118.47) rotate(-84.29)"/><path class="f" d="M36.93,93.85l30.91,30.91c25.17-2.13,46.08-19.17,53.88-42.26l-42.47-42.47-42.31,53.82Z"/><g><g><path class="c" d="M89.91,54.35v35.1c0,3.75-3.03,6.78-6.78,6.78H41.87c-3.75,0-6.78-3.03-6.78-6.78V35.54c0-3.75,3.03-6.78,6.78-6.78h22.28c1.14,0,2.26,.23,3.28,.7v14.21c0,3.98,3.22,7.22,7.22,7.22h14.48c.5,1.08,.77,2.24,.77,3.46Z"/><path class="d" d="M89.14,50.9h-14.48c-4,0-7.22-3.24-7.22-7.22v-14.21c.97,.41,1.83,.98,2.59,1.74l17.4,17.22c.73,.71,1.31,1.56,1.72,2.47Z"/></g><g><path class="d" d="M82.61,58.22H41.87c-.34,0-.62-.28-.62-.62s.28-.62,.62-.62h40.74c.34,0,.62,.28,.62,.62s-.28,.62-.62,.62Z"/><path class="d" d="M82.61,67.89H41.87c-.34,0-.62-.28-.62-.62s.28-.62,.62-.62h40.74c.34,0,.62,.28,.62,.62s-.28,.62-.62,.62Z"/><path class="d" d="M60.52,38.85h-18.65c-.34,0-.62-.28-.62-.62s.28-.62,.62-.62h18.65c.34,0,.62,.28,.62,.62s-.28,.62-.62,.62Z"/><path class="d" d="M60.52,48.54h-18.65c-.34,0-.62-.28-.62-.62s.28-.62,.62-.62h18.65c.34,0,.62,.28,.62,.62s-.28,.62-.62,.62Z"/><path class="d" d="M82.61,77.57H41.87c-.34,0-.62-.28-.62-.62s.28-.62,.62-.62h40.74c.34,0,.62,.28,.62,.62s-.28,.62-.62,.62Z"/><path class="d" d="M82.61,87.24H41.87c-.34,0-.62-.28-.62-.62s.28-.62,.62-.62h40.74c.34,0,.62,.28,.62,.62s-.28,.62-.62,.62Z"/></g></g></g></g><g id="b"/></svg>