<?xml version="1.0" encoding="UTF-8"?><svg id="Layer_1" xmlns="http://www.w3.org/2000/svg" viewBox="0 0 124 124"><defs><style>.cls-1{fill:#f6f7da;}.cls-2{fill:#e4e2c5;}.cls-3{fill:#999b99;}.cls-4{fill:#b98e28;}.cls-5{fill:#9c887c;}.cls-6{fill:#bbbdbe;}.cls-7{fill:#948075;}.cls-8{fill:#716558;}.cls-9{fill:#756a5c;}</style></defs><circle class="cls-1" cx="62" cy="62" r="62"/><g><path class="cls-4" d="M53.73,59.04c10.91-12.64,23.84-22.72,38.58-30.53,2.15-1.14,4.39-2.43,5.02,1.52-8.26,15.62-18.47,29.72-32.29,40.97-3.77-3.98-7.54-7.97-11.31-11.95Z"/><path class="cls-6" d="M39.98,76.64c2.72-4.15,5.21-8.49,9.22-11.63,4.77,2.04,7.48,6.31,10.81,9.92-3.28,4.23-8.21,6.49-12.04,10.06-.97-.72-1.95-1.44-2.92-2.16l-1.87-1.97-1.04-1.01-2.16-3.21Z"/><path class="cls-3" d="M60,74.93c-3.33-3.61-6.05-7.88-10.81-9.92,.48-2.78,2.74-4.21,4.54-5.98,3.77,3.99,7.54,7.97,11.31,11.96-1.31,1.78-2.58,3.61-5.03,3.94Z"/><path class="cls-5" d="M39.98,76.64c.72,1.07,1.44,2.14,2.16,3.21-6.43,2.66-11.09,6.83-12.11,14.13-1.5,1.21-.97,2.28,.23,3.3-.08,.26-.15,.53-.21,.79-3.23-.88-3.43-3.23-2.63-5.84,.97-3.15,2.2-6.21,3.26-9.33,1.52-4.45,4.37-6.88,9.29-6.26Z"/><path class="cls-9" d="M30.26,97.27c-1.2-1.02-1.74-2.09-.23-3.3,.3,0,.61,0,.91-.01,1.56,1.9,3.07,.53,4.42-.21,4.51-2.48,7.97-5.95,9.7-10.92,.97,.72,1.95,1.44,2.92,2.16,.68,4.02-1.21,6.59-4.73,8.12-4.18,1.82-8.38,3.61-12.98,4.16Z"/><path class="cls-7" d="M45.05,82.83c-1.73,4.97-5.19,8.44-9.7,10.92-1.35,.74-2.86,2.11-4.42,.21,4.08-4.37,8.16-8.74,12.24-13.11l1.87,1.97Z"/><path class="cls-8" d="M43.18,80.85c-4.08,4.37-8.16,8.74-12.24,13.11-.3,0-.61,.01-.91,.01,1.02-7.29,5.68-11.47,12.11-14.13,.35,.33,.7,.67,1.05,1.01Z"/></g><path class="cls-2" d="M124,62c0-2.71-.19-5.36-.53-7.98-1.8-.3-2.79-1.79-3.97-2.96-5.99-5.94-11.92-11.93-17.91-17.85-1.26-1.25-2.24-2.94-4.27-3.19-8.26,15.62-18.47,29.72-32.29,40.97-1.31,1.78-2.58,3.61-5.03,3.94-3.28,4.23-8.21,6.49-12.04,10.06,.68,4.02-1.21,6.59-4.73,8.12-4.18,1.82-8.38,3.61-12.98,4.16-.08,.26-.15,.53-.21,.79,.03,2.1,1.73,3.09,2.97,4.34,5.67,5.73,11.4,11.4,17.08,17.12,1.13,1.14,2.59,2.09,2.88,3.81,2.95,.43,5.96,.66,9.02,.66,34.24,0,62-27.76,62-62Z"/></svg>