<?xml version="1.0" encoding="UTF-8"?><svg xmlns="http://www.w3.org/2000/svg" viewBox="0 0 125 125"><defs><style>.c{fill:#f06880;}.d{fill:#f15a29;}.e{fill:#e6e7e8;}.f{fill:#f1f1f2;}.g{fill:#384349;}</style></defs><g id="a"><g><circle class="d" cx="62.5" cy="62.5" r="62.5" transform="translate(-12.69 108.97) rotate(-76.72)"/><g><rect class="f" x="20.89" y="22.28" width="83.22" height="83.22" rx="28.96" ry="28.96"/><path class="e" d="M57.18,95.92c-20.96,0-24.82-3.78-34.58-9.57,4.02,11.16,14.7,19.14,27.25,19.14h25.3c15.99,0,28.96-12.97,28.96-28.96v-5.32s-14.42,24.71-46.93,24.71Z"/><path class="g" d="M41.83,23.41c-2.36-2.41-5.65-3.9-9.3-3.9-7.2,0-13.03,5.83-13.03,13.03,0,3.28,1.21,6.27,3.21,8.56,3.19-8.53,10.28-15.15,19.11-17.69Z"/><path class="g" d="M83.17,23.41c2.36-2.41,5.65-3.9,9.3-3.9,7.2,0,13.03,5.83,13.03,13.03,0,3.28-1.21,6.27-3.21,8.56-3.19-8.53-10.28-15.15-19.11-17.69Z"/><path class="g" d="M66.33,58.03h-7.67c-1.9,0-2.83,2.31-1.47,3.63l3.83,3.73c.82,.8,2.13,.8,2.95,0l3.83-3.73c1.36-1.32,.42-3.63-1.47-3.63Z"/><ellipse class="g" cx="62.5" cy="78.86" rx="6.47" ry="9.51"/><path class="c" d="M57.21,84.34c1.17,2.43,3.1,4.02,5.29,4.02s4.11-1.59,5.29-4.02c-.14-.04-.28-.08-.43-.12-3.73-.82-4.85,.3-4.85,.3,0,0-1.13-1.13-4.85-.3-.15,.03-.29,.07-.43,.12Z"/><path class="g" d="M27.93,48.37c-.34,1.38-.42,2.82-.3,4.24,.4,4.62,3.05,9.03,7.03,11.42,3.98,2.39,9.19,2.64,13.32,.51,3.46-1.78,5.99-5.05,7.48-8.64s2.02-7.51,2.23-11.39c.13-2.49,.13-5.05-.67-7.41s-2.54-4.53-4.92-5.27c-4.11-1.28-10.46-.54-14.62,2.9-3.98,3.29-8.27,8.52-9.54,13.64Z"/><path class="g" d="M97.07,48.37c.34,1.38,.42,2.82,.3,4.24-.4,4.62-3.05,9.03-7.03,11.42-3.98,2.39-9.19,2.64-13.32,.51-3.46-1.78-5.99-5.05-7.48-8.64-1.49-3.59-2.02-7.51-2.23-11.39-.13-2.49-.13-5.05,.67-7.41,.8-2.36,2.54-4.53,4.92-5.27,4.11-1.28,10.46-.54,14.62,2.9,3.98,3.29,8.27,8.52,9.54,13.64Z"/></g></g></g><g id="b"/></svg>