<?xml version="1.0" encoding="UTF-8"?><svg xmlns="http://www.w3.org/2000/svg" viewBox="0 0 125 125"><defs><style>.c{fill:#e6e7e8;}.d{fill:#f1f1f2;}.e{fill:#8f95d1;}.f{fill:#384349;}</style></defs><g id="a"><g><circle class="e" cx="62.5" cy="62.5" r="62.5" transform="translate(-5.91 118.47) rotate(-84.29)"/><g><rect class="d" x="20.89" y="22.28" width="83.22" height="83.22" rx="28.96" ry="28.96"/><path class="c" d="M57.18,95.92c-20.96,0-24.82-3.78-34.58-9.57,4.02,11.16,14.7,19.14,27.25,19.14h25.3c15.99,0,28.96-12.97,28.96-28.96v-5.32s-14.42,24.71-46.93,24.71Z"/><path class="f" d="M41.83,23.41c-2.36-2.41-5.65-3.9-9.3-3.9-7.2,0-13.03,5.83-13.03,13.03,0,3.28,1.21,6.27,3.21,8.56,3.19-8.53,10.28-15.15,19.11-17.69Z"/><path class="f" d="M83.17,23.41c2.36-2.41,5.65-3.9,9.3-3.9,7.2,0,13.03,5.83,13.03,13.03,0,3.28-1.21,6.27-3.21,8.56-3.19-8.53-10.28-15.15-19.11-17.69Z"/><path class="f" d="M27.93,48.37c-.34,1.38-.42,2.82-.3,4.24,.4,4.62,3.05,9.03,7.03,11.42,3.98,2.39,9.19,2.64,13.32,.51,3.46-1.78,5.99-5.05,7.48-8.64s2.02-7.51,2.23-11.39c.13-2.49,.13-5.05-.67-7.41-.8-2.36-2.54-4.53-4.92-5.27-4.11-1.28-10.46-.54-14.62,2.9s-8.27,8.52-9.54,13.64Z"/><path class="f" d="M97.07,48.37c.34,1.38,.42,2.82,.3,4.24-.4,4.62-3.05,9.03-7.03,11.42-3.98,2.39-9.19,2.64-13.32,.51-3.46-1.78-5.99-5.05-7.48-8.64s-2.02-7.51-2.23-11.39c-.13-2.49-.13-5.05,.67-7.41,.8-2.36,2.54-4.53,4.92-5.27,4.11-1.28,10.46-.54,14.62,2.9,3.98,3.29,8.27,8.52,9.54,13.64Z"/><path class="f" d="M66.33,58.03h-7.67c-1.9,0-2.83,2.31-1.47,3.63l3.83,3.73c.82,.8,2.13,.8,2.95,0l3.83-3.73c1.36-1.32,.42-3.63-1.47-3.63Z"/><path class="f" d="M68.89,70.34c-.56,.01-1.01,.48-1,1.04,0,.03,0,2.62-1.58,4.25-.9,.92-2.18,1.38-3.8,1.38s-2.89-.46-3.79-1.37c-1.6-1.63-1.59-4.21-1.59-4.26,0-.56-.44-1.03-1-1.04-.56-.01-1.03,.44-1.04,1,0,.14-.04,3.46,2.17,5.72,1.3,1.33,3.07,2,5.26,2s3.96-.67,5.26-2c2.21-2.26,2.17-5.58,2.17-5.72-.01-.56-.49-1.02-1.04-1Z"/></g></g></g><g id="b"/></svg>