<?xml version="1.0" encoding="UTF-8"?><svg xmlns="http://www.w3.org/2000/svg" viewBox="0 0 125 125"><defs><style>.c{fill:#e6e7e8;}.d{fill:#f1f1f2;}.e{fill:#384349;}.f{fill:#2cb69c;}</style></defs><g id="a"><g><circle class="f" cx="62.5" cy="62.5" r="62.5" transform="translate(-13.22 108.1) rotate(-76.06)"/><g><rect class="d" x="20.89" y="22.28" width="83.22" height="83.22" rx="28.96" ry="28.96"/><path class="c" d="M57.18,95.92c-20.96,0-24.82-3.78-34.58-9.57,4.02,11.16,14.7,19.14,27.25,19.14h25.3c15.99,0,28.96-12.97,28.96-28.96v-5.32s-14.42,24.71-46.93,24.71Z"/><path class="e" d="M41.83,23.41c-2.36-2.41-5.65-3.9-9.3-3.9-7.2,0-13.03,5.83-13.03,13.03,0,3.28,1.21,6.27,3.21,8.56,3.19-8.53,10.28-15.15,19.11-17.69Z"/><path class="e" d="M83.17,23.41c2.36-2.41,5.65-3.9,9.3-3.9,7.2,0,13.03,5.83,13.03,13.03,0,3.28-1.21,6.27-3.21,8.56-3.19-8.53-10.28-15.15-19.11-17.69Z"/><path class="e" d="M27.93,48.37c-.34,1.38-.42,2.82-.3,4.24,.4,4.62,3.05,9.03,7.03,11.42,3.98,2.39,9.19,2.64,13.32,.51,3.46-1.78,5.99-5.05,7.48-8.64s2.02-7.51,2.23-11.39c.13-2.49,.13-5.05-.67-7.41-.8-2.36-2.54-4.53-4.92-5.27-4.11-1.28-10.46-.54-14.62,2.9-3.98,3.29-8.27,8.52-9.54,13.64Z"/><path class="e" d="M97.07,48.37c.34,1.38,.42,2.82,.3,4.24-.4,4.62-3.05,9.03-7.03,11.42-3.98,2.39-9.19,2.64-13.32,.51-3.46-1.78-5.99-5.05-7.48-8.64-1.49-3.59-2.02-7.51-2.23-11.39-.13-2.49-.13-5.05,.67-7.41s2.54-4.53,4.92-5.27c4.11-1.28,10.46-.54,14.62,2.9,3.98,3.29,8.27,8.52,9.54,13.64Z"/><path class="e" d="M66.33,58.03h-7.67c-1.9,0-2.83,2.31-1.47,3.63l3.83,3.73c.82,.8,2.13,.8,2.95,0l3.83-3.73c1.36-1.32,.42-3.63-1.47-3.63Z"/><path class="e" d="M73.21,67.63h-.03c-.69-.15-1.37,.24-1.62,.89-.53,1.39-1.69,3.52-3.84,3.52-2.67,0-3.81-3.07-3.86-3.19-.21-.59-.78-.98-1.39-.96-.62,.02-1.16,.44-1.34,1.04,0,.03-.94,3.11-4.22,3.11-1.73,0-2.86-2.16-3.42-3.56-.26-.66-.97-1.03-1.66-.86l1.26-.32-1.26,.32h0l-.12,.03,.09-.02c-.84,.21-1.29,1.11-.97,1.91,.81,2.04,2.67,5.38,6.09,5.38,2.66,0,4.49-1.28,5.62-2.68,1.03,1.32,2.7,2.68,5.19,2.68,3.89,0,5.75-3.33,6.53-5.39,.31-.82-.19-1.71-1.04-1.89Z"/><ellipse class="c" cx="62.5" cy="78.13" rx="7.69" ry=".9"/></g></g></g><g id="b"/></svg>