<?xml version="1.0" encoding="UTF-8"?><svg xmlns="http://www.w3.org/2000/svg" viewBox="0 0 125 125"><defs><style>.c{fill:#00b1d1;}.d{fill:#e6e7e8;}.e{fill:#f1f1f2;}.f{fill:#384349;}</style></defs><g id="a"><g><circle class="c" cx="62.5" cy="62.5" r="62.5" transform="translate(-12.69 108.97) rotate(-76.72)"/><g><rect class="e" x="20.89" y="22.28" width="83.22" height="83.22" rx="28.96" ry="28.96"/><path class="d" d="M57.18,95.92c-20.96,0-24.82-3.78-34.58-9.57,4.02,11.16,14.7,19.14,27.25,19.14h25.3c15.99,0,28.96-12.97,28.96-28.96v-5.32s-14.42,24.71-46.93,24.71Z"/><path class="f" d="M41.83,23.41c-2.36-2.41-5.65-3.9-9.3-3.9-7.2,0-13.03,5.83-13.03,13.03,0,3.28,1.21,6.27,3.21,8.56,3.19-8.53,10.28-15.15,19.11-17.69Z"/><path class="f" d="M83.17,23.41c2.36-2.41,5.65-3.9,9.3-3.9,7.2,0,13.03,5.83,13.03,13.03,0,3.28-1.21,6.27-3.21,8.56-3.19-8.53-10.28-15.15-19.11-17.69Z"/><path class="f" d="M27.93,48.37c-.34,1.38-.42,2.82-.3,4.24,.4,4.62,3.05,9.03,7.03,11.42,3.98,2.39,9.19,2.64,13.32,.51,3.46-1.78,5.99-5.05,7.48-8.64,1.49-3.59,2.02-7.51,2.23-11.39,.13-2.49,.13-5.05-.67-7.41-.8-2.36-2.54-4.53-4.92-5.27-4.11-1.28-10.46-.54-14.62,2.9-3.98,3.29-8.27,8.52-9.54,13.64Z"/><path class="f" d="M97.07,48.37c.34,1.38,.42,2.82,.3,4.24-.4,4.62-3.05,9.03-7.03,11.42s-9.19,2.64-13.32,.51c-3.46-1.78-5.99-5.05-7.48-8.64-1.49-3.59-2.02-7.51-2.23-11.39-.13-2.49-.13-5.05,.67-7.41s2.54-4.53,4.92-5.27c4.11-1.28,10.46-.54,14.62,2.9s8.27,8.52,9.54,13.64Z"/><path class="f" d="M66.33,58.03h-7.67c-1.9,0-2.83,2.31-1.47,3.63l3.83,3.73c.82,.8,2.13,.8,2.95,0l3.83-3.73c1.36-1.32,.42-3.63-1.47-3.63Z"/><path class="f" d="M80.5,67.83c-5.7,3.91-13.33,4.97-18,4.97s-12.3-1.06-18-4.97c0,0-1.76-1.07-.66,1.07s7.3,3.63,7.36,4.43,6.17,3.73,11.3,3.73,11.24-2.93,11.3-3.73,6.26-2.29,7.36-4.43-.66-1.07-.66-1.07Z"/><path class="d" d="M71.97,78.43s-3.73,2.56-9.47,2.56-9.47-2.56-9.47-2.56c-1.66-.89-1.86,.64,1.37,2.56,3.24,1.92,5.97,2.56,8.09,2.56s4.86-.64,8.09-2.56,3.03-3.46,1.37-2.56Z"/></g></g></g><g id="b"/></svg>