<?xml version="1.0" encoding="utf-8"?>
<!-- Generator: Adobe Illustrator 26.3.1, SVG Export Plug-In . SVG Version: 6.00 Build 0)  -->
<svg version="1.1" id="Layer_1" xmlns="http://www.w3.org/2000/svg" xmlns:xlink="http://www.w3.org/1999/xlink" x="0px" y="0px"
	 viewBox="0 0 124 124" style="enable-background:new 0 0 124 124;" xml:space="preserve">
<style type="text/css">
	.st0{fill:#F3EDDE;}
	.st1{fill:#738F05;}
	.st2{fill:#728E05;}
	.st3{fill:#E4DDD0;}
	.st4{fill:#8CA632;}
	.st5{fill:#BCCD31;}
</style>
<circle class="st0" cx="62" cy="62" r="62"/>
<g>
	<path class="st1" d="M43,69c-0.5-0.1-0.9-0.1-1.4-0.2c0.1-0.3,0.2-0.6,0.5-0.8C42.4,68.4,42.7,68.7,43,69z"/>
	<path class="st2" d="M81,41c-0.7,0.9-1.4,1.8-2.2,2.6c-7.7,7.7-15.4,15.5-23.2,23.2c-0.8,0.8-1.7,2.7-3.1,1.4
		c-1.3-1.2,0.2-2.4,1.1-3.3c8.1-8.1,16.1-16.2,24.2-24.3c0.7-0.7,1.4-1.6,2.5-1.1C80.7,39.7,80.7,40.4,81,41z"/>
	<path class="st2" d="M64.3,66.7c-0.3-0.2-1-0.4-1-0.7c-0.1-0.6-0.1-1.5,0.3-1.8c4.5-4.6,9.1-9.1,13.7-13.6c0.3-0.3,1.3-0.3,1.8-0.1
		c0.8,0.3,0.6,1.2,0.2,1.7c-4.8,4.8-9.6,9.6-14.4,14.4C64.8,66.5,64.6,66.6,64.3,66.7z"/>
	<path class="st1" d="M44,70c-0.3-0.3-0.7-0.7-1-1C43.3,69.3,43.7,69.7,44,70z"/>
	<path class="st1" d="M45,71c-0.3-0.3-0.7-0.7-1-1C44.3,70.3,44.7,70.7,45,71z"/>
	<path class="st1" d="M46,72c-0.3-0.3-0.7-0.7-1-1C45.3,71.3,45.7,71.7,46,72z"/>
	<path class="st1" d="M47,73c-0.3-0.3-0.7-0.7-1-1C46.3,72.3,46.7,72.7,47,73z"/>
	<path class="st1" d="M48,74c-0.3-0.3-0.7-0.7-1-1C47.3,73.3,47.7,73.7,48,74z"/>
	<path class="st1" d="M49,75c-0.3-0.3-0.7-0.7-1-1C48.3,74.3,48.7,74.7,49,75z"/>
	<path class="st1" d="M50,76c-0.3-0.3-0.7-0.7-1-1C49.3,75.3,49.7,75.7,50,76z"/>
	<path class="st1" d="M51,77c-0.3-0.3-0.7-0.7-1-1C50.3,76.3,50.7,76.7,51,77z"/>
	<path class="st1" d="M52,78c-0.3-0.3-0.7-0.7-1-1C51.3,77.3,51.7,77.7,52,78z"/>
	<path class="st1" d="M53,79c-0.3-0.3-0.7-0.7-1-1C52.3,78.3,52.7,78.7,53,79z"/>
	<path class="st1" d="M54,80c-0.3-0.3-0.7-0.7-1-1C53.3,79.3,53.7,79.7,54,80z"/>
	<path class="st1" d="M55,81c-0.3-0.3-0.7-0.7-1-1C54.3,80.3,54.7,80.7,55,81z"/>
</g>
<path class="st3" d="M120.5,59.1c-5.6-5.6-11.1-11.3-16.8-16.7c-2.3-2.2-8.1-8.3-11.4-9.3c-0.6,10.3-8.5,15.7-14.9,22.2
	c-6.6,6.7-13.3,13.4-20,20c-1.1,1.1-1.9,2.8-3.8,2.9c-0.1,1-0.6,1.6-1.5,2c-3.4,3.6-6.2,7.1-9.6,10.7c-2.8,3-6.3,2.3-9.8,2.2
	c7.9,8,19.1,19.1,27,27.1c1.1,1.2,2.7,2.1,3.1,3.8c33.9-0.5,61.2-28,61.2-62c0,0,0-0.1,0-0.1C122.5,61.4,121.6,60.1,120.5,59.1z"/>
<g>
	<path class="st4" d="M45.9,92.7l46.9-46.9c0.8-0.8,0.8-2,0-2.8l-0.3-0.3c-0.8-0.8-0.8-2,0-2.8l0.9-0.9c2-2,2-5.1,0-7.1l-1.2-1.2
		c-2-2-5.1-2-7.1,0l-0.9,0.9c-0.8,0.8-2,0.8-2.8,0l-0.3-0.3c-0.8-0.8-2-0.8-2.8,0L31.5,78.3c-3.9,3.9-3.9,10.2,0,14.1l0.3,0.3
		C35.7,96.6,42,96.6,45.9,92.7z"/>
	<path class="st2" d="M81,40.3L52.5,68.9c-0.6,0.6-1.5,0.6-2.1,0c-0.6-0.6-0.6-1.5,0-2.1l28.5-28.5c0.6-0.6,1.5-0.6,2.1,0
		C81.6,38.8,81.6,39.7,81,40.3z"/>
	<path class="st2" d="M79.1,52.5L64.7,66.9c-0.6,0.6-1.5,0.6-2.1,0c-0.6-0.6-0.6-1.5,0-2.1L77,50.4c0.6-0.6,1.5-0.6,2.1,0
		C79.7,51,79.7,52,79.1,52.5z"/>
	<path class="st2" d="M91.8,37.7c-0.3,0.3-0.8,0.3-1.1,0l-4.3-4.3c-0.3-0.3-0.3-0.8,0-1.1c0.3-0.3,0.8-0.3,1.1,0l4.3,4.3
		C92.1,37,92.1,37.4,91.8,37.7z"/>
	<path class="st5" d="M41.9,67.9L31.5,78.3c-3.9,3.9-3.9,10.2,0,14.1l0.3,0.3c3.9,3.9,10.2,3.9,14.1,0l10.4-10.4L41.9,67.9z"/>
	
		<rect x="48.4" y="64.5" transform="matrix(0.7071 -0.7071 0.7071 0.7071 -38.445 56.7654)" class="st2" width="1.8" height="20.5"/>
</g>
</svg>
