<?xml version="1.0" encoding="UTF-8"?><svg id="Layer_1" xmlns="http://www.w3.org/2000/svg" viewBox="0 0 124 124"><defs><style>.cls-1{fill:#f9f0bd;}.cls-2{fill:#ecc705;}.cls-3{fill:#eb6428;}.cls-4{fill:#faea60;}.cls-5{fill:#ccd0d0;}.cls-6{fill:#ac9d43;}.cls-7{fill:#248791;}.cls-8{fill:#21aecc;}</style></defs><g><circle class="cls-8" cx="62" cy="62" r="62"/><path class="cls-4" d="M35.42,73.68c10.1-11.03,20.8-21.47,31.64-31.77,2.63,2.64,5.26,5.29,7.88,7.93-8.82,8.7-17.64,17.4-26.46,26.09-4.73,1.41-9.1,.78-13.06-2.25Z"/><path class="cls-3" d="M95.16,39.96c.25,6.78-5.76,9.05-9.37,13.04-4.96-4.98-9.92-9.97-14.88-14.95,.07-.15,.1-.34,.2-.45,10.92-11.63,11.41-13.25,24.05,2.36Z"/><path class="cls-1" d="M35.42,73.68c3.96,3.03,8.33,3.66,13.06,2.25-2.33,4.62-1.54,8.71,2.11,12.32-2.8,2.03-6.02,3.04-9.33,3.8-2.58-3.68-5.76-6.75-9.35-9.42,.68-3.18,1.66-6.24,3.51-8.95Z"/><path class="cls-5" d="M70.9,38.05c4.96,4.98,9.92,9.97,14.88,14.95-1.23,1.23-2.47,2.46-3.7,3.7-2.38-2.29-4.76-4.58-7.15-6.86-2.63-2.64-5.26-5.29-7.88-7.93,.99-1.58,2.28-2.85,3.85-3.85Z"/><path class="cls-6" d="M31.91,82.63c3.59,2.67,6.77,5.74,9.35,9.42-3.64,1.81-7.43,3.21-11.4,4.09-2.05-.97-2.27-2.63-1.56-4.5,1.15-3.02,2.4-6.01,3.61-9.01Z"/><path class="cls-2" d="M74.94,49.84c2.38,2.29,4.76,4.58,7.15,6.86-10.5,10.52-21,21.03-31.5,31.55-3.65-3.6-4.44-7.69-2.11-12.32,8.82-8.7,17.64-17.4,26.46-26.09Z"/></g><path class="cls-7" d="M123.74,67.6c-8.91-8.66-20.24-19.49-28.58-27.64,.25,6.78-5.76,9.05-9.37,13.04-1.23,1.23-2.47,2.46-3.7,3.7-10.5,10.52-21,21.03-31.5,31.55-2.8,2.03-6.02,3.04-9.33,3.8-3.64,1.81-7.43,3.21-11.4,4.09,7.41,7.59,18.27,18.77,26.9,27.63,1.73,.15,3.48,.24,5.24,.24,32.35,0,58.9-24.78,61.74-56.4Z"/></svg>