<?xml version="1.0" encoding="UTF-8"?><svg xmlns="http://www.w3.org/2000/svg" viewBox="0 0 125 125"><defs><style>.c{fill:#f15a29;}.d{fill:#eff8fb;}.e{fill:#bcbec0;}.f{fill:#bfd3d8;}.g{fill:#9b3f34;}</style></defs><g id="a"><g><circle class="c" cx="62.5" cy="62.5" r="62.5" transform="translate(-25.89 62.5) rotate(-45)"/><path class="g" d="M28.67,80.24l43.94,43.94c28.87-4.7,51.09-29.16,52.32-59.06l-28.75-28.75L28.67,80.24Z"/><g><g><g><path class="e" d="M75.79,92.29h-6.53c-1.57,0-2.84-1.27-2.84-2.84v-6.62h-7.84v6.62c0,1.57-1.27,2.84-2.84,2.84h-6.53c-1.65,0-3.15,1.19-3.32,2.84-.19,1.9,1.28,3.52,3.15,3.52h26.92c1.87,0,3.34-1.61,3.15-3.52-.16-1.64-1.66-2.84-3.32-2.84Z"/><path class="e" d="M66.42,30.27c0-1.08-.44-2.07-1.16-2.76-.7-.71-1.68-1.16-2.76-1.16-2.16,0-3.92,1.76-3.92,3.92v3.19h7.84v-3.19Z"/></g><path class="d" d="M89.86,33.46H35.14c-4.9,0-8.88,3.98-8.88,8.88v31.59c0,4.92,3.98,8.9,8.88,8.9h54.72c4.9,0,8.88-3.98,8.88-8.9v-31.59c0-4.9-3.98-8.88-8.88-8.88Z"/></g><g><path class="f" d="M88.72,42.73H36.49c-.34,0-.62-.28-.62-.62s.28-.62,.62-.62h52.23c.34,0,.62,.28,.62,.62s-.28,.62-.62,.62Z"/><path class="f" d="M77.14,50.07h-29.06c-.34,0-.62-.28-.62-.62s.28-.62,.62-.62h29.06c.34,0,.62,.28,.62,.62s-.28,.62-.62,.62Z"/><path class="f" d="M91.79,60.19H33.34c-.34,0-.62-.28-.62-.62s.28-.62,.62-.62h58.45c.34,0,.62,.28,.62,.62s-.28,.62-.62,.62Z"/><path class="f" d="M91.79,67.54H33.34c-.34,0-.62-.28-.62-.62s.28-.62,.62-.62h58.45c.34,0,.62,.28,.62,.62s-.28,.62-.62,.62Z"/><path class="f" d="M91.79,74.88H33.34c-.34,0-.62-.28-.62-.62s.28-.62,.62-.62h58.45c.34,0,.62,.28,.62,.62s-.28,.62-.62,.62Z"/></g></g></g></g><g id="b"/></svg>