<?xml version="1.0" encoding="utf-8"?>
<!-- Generator: Adobe Illustrator 26.3.1, SVG Export Plug-In . SVG Version: 6.00 Build 0)  -->
<svg version="1.1" id="Layer_1" xmlns="http://www.w3.org/2000/svg" xmlns:xlink="http://www.w3.org/1999/xlink" x="0px" y="0px"
	 viewBox="0 0 124 124" style="enable-background:new 0 0 124 124;" xml:space="preserve">
<style type="text/css">
	.st0{fill:#F05B2A;}
	.st1{fill:#F4D52B;}
	.st2{fill:#754C29;}
	.st3{fill:#9B4034;}
</style>
<circle class="st0" cx="62" cy="62" r="62"/>
<g>
	<path class="st1" d="M69.9,39.1c3.8-3.9,7.6-7.8,11.3-11.6c2.6-2.7,5.3-2.5,7.8,0.1c3.4,3.4,6.6,6.9,9.9,10.4
		c0.2,2.4-1.1,4-2.7,5.6C78.5,61.3,60.8,79,43,96.8c-1.5,1.5-3,2.7-5.2,2.5c-4.7-2.7-7.9-7-11.6-10.8c-1.9-1.9-1.7-4.4,0.2-6.2
		c9.4-8.7,17.7-18.5,27.4-26.9"/>
	<path class="st1" d="M55,54.1c4.5-4.6,8.8-9.5,13.9-13.6"/>
</g>
<g>
	<g>
		<path class="st2" d="M80.5,51.5c-0.2,0-0.5-0.1-0.7-0.3l-10.5-10c-0.4-0.4-0.4-1,0-1.4s1-0.4,1.4,0l10.5,10c0.4,0.4,0.4,1,0,1.4
			C81,51.4,80.8,51.5,80.5,51.5z"/>
		<path class="st2" d="M65.5,66.5c-0.2,0-0.5-0.1-0.7-0.3l-10.5-10c-0.4-0.4-0.4-1,0-1.4c0.4-0.4,1-0.4,1.4,0l10.5,10
			c0.4,0.4,0.4,1,0,1.4C66,66.4,65.8,66.5,65.5,66.5z"/>
		<path class="st2" d="M50,81c-0.3,0-0.5-0.1-0.7-0.3l-10-10c-0.4-0.4-0.4-1,0-1.4s1-0.4,1.4,0l10,10c0.4,0.4,0.4,1,0,1.4
			C50.5,80.9,50.3,81,50,81z"/>
		<path class="st2" d="M83.5,39.5c-0.2,0-0.5-0.1-0.7-0.3l-6-5.5c-0.4-0.4-0.4-1-0.1-1.4c0.4-0.4,1-0.4,1.4-0.1l6,5.5
			c0.4,0.4,0.4,1,0.1,1.4C84,39.4,83.8,39.5,83.5,39.5z"/>
		<path class="st2" d="M68.5,54.5c-0.2,0-0.5-0.1-0.7-0.3l-6-5.5c-0.4-0.4-0.4-1-0.1-1.4c0.4-0.4,1-0.4,1.4-0.1l6,5.5
			c0.4,0.4,0.4,1,0.1,1.4C69,54.4,68.8,54.5,68.5,54.5z"/>
		<path class="st2" d="M52.5,69.5c-0.3,0-0.5-0.1-0.7-0.3l-5-5.5c-0.4-0.4-0.3-1,0.1-1.4c0.4-0.4,1-0.3,1.4,0.1l5,5.5
			c0.4,0.4,0.3,1-0.1,1.4C53,69.4,52.7,69.5,52.5,69.5z"/>
		<path class="st2" d="M37.5,84.5c-0.3,0-0.6-0.1-0.8-0.4l-4.5-5.5c-0.3-0.4-0.3-1.1,0.1-1.4c0.4-0.3,1.1-0.3,1.4,0.1l4.5,5.5
			c0.3,0.4,0.3,1.1-0.1,1.4C37.9,84.4,37.7,84.5,37.5,84.5z"/>
	</g>
</g>
<path class="st3" d="M120.2,58.7C113.1,51.8,106,44.8,99,37.9c0.2,2.4-1.1,4-2.7,5.6C78.5,61.3,60.8,79,43,96.8
	c-1.5,1.5-3,2.7-5.2,2.5c0.6,2,2.3,3.2,3.7,4.6c6.5,6.7,13.1,13.3,19.6,20c0.3,0,0.6,0,0.9,0c34.2,0,62-27.8,62-62
	c0-0.1,0-0.2,0-0.2C122.4,61.2,121.4,59.8,120.2,58.7z"/>
</svg>
