<?xml version="1.0" encoding="UTF-8"?><svg xmlns="http://www.w3.org/2000/svg" viewBox="0 0 125 125"><defs><style>.bd{fill:#eae3d8;}.be{fill:#f4eedf;}.bf{fill:#20aecd;}.bg{fill:#6d6e70;}</style></defs><g id="a"/><g id="b"/><g id="c"/><g id="d"/><g id="e"/><g id="f"/><g id="g"/><g id="h"/><g id="i"/><g id="j"/><g id="k"/><g id="l"/><g id="m"/><g id="n"/><g id="o"/><g id="p"/><g id="q"/><g id="r"/><g id="s"/><g id="t"/><g id="u"/><g id="v"/><g id="w"/><g id="x"/><g id="y"><g><circle class="be" cx="62.5" cy="62.5" r="62.5" transform="translate(-13.22 108.1) rotate(-76.06)"/><path class="bd" d="M26.66,75.94l-1.17,8.92,40.06,40.06c32.09-1.54,57.83-27.28,59.38-59.37l-25.42-25.42-3.99-2.35-9.96-1.66-8.91,3.15-3.12-5.22-2.07-7.88-6.22-5.39-7.47,1.24-4.98,7.88-4.43,9.37-4.69-1.07-12.44-.41-5.73,2.36-.07,6.35,4.56,7.05,6.16,9.85-2.84,2.18-6.64,10.37Z"/><g><circle class="bf" cx="62.5" cy="62.5" r="9.17"/><g><path class="bg" d="M62.51,105.74c-5.93,0-11.09-7.29-14.15-20.01-1.07-4.44-1.83-9.35-2.23-14.6-.21-2.94-.31-5.84-.31-8.63s.11-5.69,.31-8.62c.41-5.26,1.16-10.17,2.23-14.61,3.06-12.72,8.22-20.01,14.15-20.01s11.09,7.29,14.15,20.01c1.07,4.46,1.83,9.38,2.23,14.62,.21,2.94,.31,5.84,.31,8.61s-.11,5.67-.31,8.6c-.41,5.25-1.16,10.17-2.23,14.63-3.06,12.72-8.22,20.01-14.15,20.01Zm0-83.99c-4.55,0-9.04,6.94-11.73,18.1-1.04,4.31-1.77,9.09-2.17,14.21-.2,2.87-.31,5.71-.31,8.44s.1,5.57,.31,8.45c.4,5.11,1.13,9.89,2.17,14.2,2.69,11.17,7.18,18.11,11.73,18.11s9.04-6.94,11.73-18.1c1.04-4.33,1.77-9.12,2.17-14.23,.2-2.87,.31-5.7,.31-8.42s-.1-5.55-.31-8.43c-.4-5.1-1.13-9.89-2.17-14.22-2.69-11.17-7.18-18.11-11.73-18.11Z"/><path class="bg" d="M89.09,89.17c-3.92,0-8.77-.88-14.02-2.55-4.26-1.35-8.67-3.17-13.12-5.4-2.68-1.32-5.4-2.81-8.08-4.43-2.48-1.51-4.91-3.1-7.22-4.74-3.95-2.82-7.49-5.73-10.51-8.65-9.78-9.38-13.76-18.08-10.65-23.26,1.7-2.82,5.31-4.31,10.43-4.31,3.92,0,8.77,.88,14.03,2.55,4.26,1.35,8.67,3.17,13.12,5.4,2.68,1.32,5.4,2.81,8.08,4.43,2.7,1.64,5.07,3.2,7.23,4.77,3.84,2.74,7.37,5.64,10.5,8.62,9.79,9.39,13.77,18.09,10.63,23.27-1.7,2.82-5.3,4.31-10.42,4.31ZM35.92,38.31c-2.93,0-6.75,.54-8.3,3.11-2.44,4.05,1.49,11.79,10.24,20.18,2.94,2.84,6.38,5.67,10.23,8.42,2.26,1.6,4.64,3.17,7.07,4.64,2.61,1.58,5.27,3.04,7.9,4.33,4.34,2.18,8.63,3.95,12.76,5.26,5.01,1.59,9.6,2.43,13.27,2.43,2.92,0,6.74-.54,8.29-3.11,2.45-4.05-1.47-11.78-10.22-20.18-3.04-2.9-6.48-5.73-10.23-8.4-2.12-1.53-4.43-3.06-7.07-4.66-2.61-1.58-5.27-3.04-7.9-4.33-4.34-2.18-8.63-3.95-12.76-5.26-5.01-1.59-9.6-2.43-13.28-2.43Z"/><path class="bg" d="M35.92,89.17h0c-5.12,0-8.73-1.49-10.43-4.31-3.12-5.19,.87-13.88,10.65-23.26,3.02-2.92,6.56-5.83,10.51-8.65,2.32-1.64,4.74-3.24,7.22-4.74,2.68-1.62,5.4-3.11,8.09-4.44,4.44-2.23,8.85-4.05,13.11-5.4,5.26-1.67,10.1-2.55,14.02-2.55,5.11,0,8.72,1.49,10.42,4.31,3.13,5.18-.84,13.88-10.63,23.26-3.13,2.99-6.66,5.89-10.51,8.63-2.15,1.56-4.52,3.12-7.22,4.76-2.68,1.62-5.4,3.11-8.09,4.44-4.44,2.23-8.85,4.05-13.11,5.4-5.26,1.67-10.11,2.55-14.03,2.55Zm53.17-50.86c-3.66,0-8.25,.84-13.27,2.43-4.13,1.31-8.42,3.08-12.75,5.25-2.64,1.3-5.3,2.76-7.91,4.34-2.42,1.47-4.8,3.03-7.07,4.64-3.85,2.74-7.29,5.58-10.22,8.41-8.76,8.4-12.68,16.13-10.24,20.19,1.55,2.56,5.37,3.1,8.3,3.1h0c3.67,0,8.26-.84,13.28-2.43,4.13-1.31,8.42-3.08,12.75-5.25,2.63-1.3,5.29-2.75,7.91-4.34,2.64-1.61,4.95-3.13,7.06-4.65,3.76-2.68,7.2-5.5,10.24-8.41,8.75-8.4,12.67-16.13,10.22-20.18-1.55-2.57-5.36-3.11-8.29-3.11Z"/></g></g></g></g><g id="a`"/><g id="aa"/><g id="ab"/><g id="ac"/><g id="ad"/><g id="ae"/><g id="af"/><g id="ag"/><g id="ah"/><g id="ai"/><g id="aj"/><g id="ak"/><g id="al"/><g id="am"/><g id="an"/><g id="ao"/><g id="ap"/><g id="aq"/><g id="ar"/><g id="as"/><g id="at"/><g id="au"/><g id="av"/><g id="aw"/><g id="ax"/><g id="ay"/><g id="b`"/><g id="ba"/><g id="bb"/><g id="bc"/></svg>