<?xml version="1.0" encoding="UTF-8"?><svg xmlns="http://www.w3.org/2000/svg" viewBox="0 0 125 125"><defs><style>.c{fill:#f8c2da;}.d{fill:#f05a28;}.e{fill:#fff;}.f{fill:#7479b7;}.g{fill:#8f95d1;}.h{fill:#93d3d8;}</style></defs><g id="a"><g><circle class="g" cx="62.5" cy="62.5" r="62.5" transform="translate(-25.89 62.5) rotate(-45)"/><path class="f" d="M34.36,79.16l43.85,43.85c22.27-5.77,39.71-23.51,45.07-45.94l-43.13-43.13-45.78,45.22Z"/><g><g><path class="h" d="M87.9,78.28c-4.05-4.05-4.05-10.62,0-14.67,4.05-4.05,10.64-4.05,14.69,0,4.05,4.05,4.05,10.62,0,14.67s-10.64,4.05-14.69,0Z"/><path class="c" d="M82.38,83.82c2.43,2.43,2.43,6.39,0,8.82-2.45,2.45-6.41,2.45-8.84,0-2.43-2.43-2.43-6.39,0-8.82,2.43-2.45,6.39-2.45,8.84,0Z"/><path class="d" d="M79.27,34.82c5.73,5.72,5.73,14.98,0,20.72-5.72,5.72-14.98,5.72-20.72,0-5.72-5.73-5.72-15,0-20.72,5.73-5.73,15-5.73,20.72,0Z"/><path class="h" d="M35.24,63.61c4.05-4.05,10.62-4.05,14.67,0s4.05,10.62,0,14.67c-4.05,4.05-10.62,4.05-14.67,0-4.05-4.05-4.05-10.62,0-14.67Z"/><path class="c" d="M30.03,49.53c2.43,2.45,2.43,6.41,0,8.84-2.43,2.45-6.39,2.45-8.84,0-2.43-2.43-2.43-6.39,0-8.84,2.45-2.43,6.41-2.43,8.84,0Z"/></g><g><path class="e" d="M103.47,62.73c-2.2-2.2-5.12-3.41-8.23-3.41-2.69,0-5.24,.91-7.3,2.58l-6.7-6.7c2.31-2.83,3.57-6.34,3.57-10.04,0-4.24-1.66-8.22-4.66-11.22-3-3.01-6.99-4.67-11.23-4.67s-8.24,1.66-11.25,4.67c-5.8,5.8-6.16,15.01-1.1,21.26l-6.7,6.7c-2.06-1.67-4.6-2.57-7.29-2.57s-5.22,.91-7.28,2.57l-3.6-3.6c2.07-2.92,1.82-7-.79-9.63-1.41-1.41-3.29-2.19-5.3-2.19s-3.88,.78-5.31,2.19c-2.91,2.93-2.91,7.69,0,10.6,1.42,1.42,3.31,2.2,5.31,2.2,1.58,0,3.08-.49,4.34-1.4l3.59,3.59c-1.67,2.06-2.58,4.61-2.58,7.3,0,3.1,1.21,6.02,3.41,8.22,2.2,2.2,5.12,3.41,8.22,3.41s6.02-1.21,8.22-3.41c2.2-2.2,3.41-5.11,3.41-8.22,0-2.68-.91-5.23-2.58-7.29l6.67-6.67c2.93,2.63,6.66,4.08,10.62,4.08s7.68-1.45,10.6-4.08l6.67,6.67c-3.42,4.24-3.42,10.34,0,14.58l-3.89,3.91c-1.26-.9-2.77-1.4-4.35-1.4-2,0-3.89,.78-5.29,2.2-2.92,2.92-2.92,7.67,0,10.58,1.41,1.42,3.29,2.21,5.3,2.21s3.89-.78,5.31-2.2c2.62-2.62,2.87-6.7,.79-9.62l3.9-3.92c2.06,1.67,4.61,2.57,7.3,2.57,3.11,0,6.03-1.21,8.23-3.41,2.2-2.2,3.41-5.11,3.41-8.22s-1.21-6.02-3.41-8.22Zm-81.41-5.23c-1.95-1.95-1.94-5.12,0-7.08,.95-.94,2.21-1.46,3.55-1.46s2.59,.52,3.53,1.46c1.95,1.96,1.95,5.14,0,7.09-.94,.95-2.19,1.47-3.53,1.47s-2.6-.52-3.55-1.47Zm26.97,19.91c-1.73,1.73-4.02,2.68-6.46,2.68s-4.73-.95-6.46-2.68c-1.73-1.73-2.68-4.02-2.68-6.46s.95-4.73,2.68-6.46c1.73-1.73,4.02-2.68,6.46-2.68s4.73,.95,6.46,2.68c1.73,1.73,2.68,4.02,2.68,6.46s-.95,4.73-2.68,6.46Zm19.88-18.82c-3.58,0-6.95-1.39-9.49-3.92-5.22-5.24-5.22-13.74,0-18.96,2.54-2.54,5.91-3.94,9.49-3.94s6.94,1.4,9.47,3.94c2.54,2.53,3.93,5.89,3.94,9.46,0,3.58-1.4,6.96-3.94,9.5s-5.89,3.92-9.47,3.92Zm12.58,33.19c-1.9,1.9-5.19,1.91-7.08,0-1.95-1.95-1.95-5.12,0-7.07,.94-.95,2.19-1.47,3.53-1.47s2.6,.52,3.55,1.47h0c1.95,1.95,1.95,5.12,0,7.06Zm20.22-14.37c-1.73,1.73-4.02,2.68-6.47,2.68s-4.74-.95-6.47-2.68c-3.56-3.56-3.56-9.35,0-12.91,1.73-1.73,4.02-2.68,6.47-2.68s4.74,.95,6.47,2.68c1.73,1.73,2.68,4.02,2.68,6.46s-.95,4.73-2.68,6.46Z"/><path class="e" d="M60.42,45.88c-.34,0-.62-.28-.62-.62,0-5.03,4.1-9.12,9.14-9.12,.34,0,.62,.28,.62,.62s-.28,.62-.62,.62c-4.35,0-7.89,3.53-7.89,7.87,0,.34-.28,.62-.62,.62Z"/><path class="e" d="M37.5,71.72c-.34,0-.62-.28-.62-.62,0-3.1,2.52-5.62,5.62-5.62,.34,0,.62,.28,.62,.62s-.28,.62-.62,.62c-2.41,0-4.38,1.96-4.38,4.38,0,.34-.28,.62-.62,.62Z"/><path class="e" d="M90,71.24c-.34,0-.62-.28-.62-.62,0-3.1,2.52-5.62,5.62-5.62,.34,0,.62,.28,.62,.62s-.28,.62-.62,.62c-2.41,0-4.38,1.96-4.38,4.38,0,.34-.28,.62-.62,.62Z"/></g></g></g></g><g id="b"/></svg>