<?xml version="1.0" encoding="utf-8"?>
<!-- Generator: Adobe Illustrator 26.3.1, SVG Export Plug-In . SVG Version: 6.00 Build 0)  -->
<svg version="1.1" id="Layer_1" xmlns="http://www.w3.org/2000/svg" xmlns:xlink="http://www.w3.org/1999/xlink" x="0px" y="0px"
	 viewBox="0 0 124 124" style="enable-background:new 0 0 124 124;" xml:space="preserve">
<style type="text/css">
	.st0{fill:#F6F7DA;}
	.st1{fill:#78D3F4;}
	.st2{fill:#06AEEC;}
	.st3{fill:#D0D2D2;}
	.st4{fill:#A7A9AB;}
	.st5{fill:#EFF5DC;}
	.st6{fill:#A1ADB3;}
	.st7{fill:#D9DFC7;}
	.st8{fill:#E4E2C5;}
</style>
<circle class="st0" cx="62" cy="62" r="62"/>
<g>
	<path class="st1" d="M73,64.8c-2.4,3.5-5.6,6.3-8.9,9c-2.3-2.3-4.6-4.6-7-7c-2.3-2.3-4.6-4.6-6.9-6.9c2.8-4.2,6.8-7.3,10.3-10.8
		c2.9-2.8,3.3-5.1,0.7-8.6c-4.8-6.3-3.3-14.9,3-19.3c6.1-4.4,14.9-2.9,19.6,3.2c1.9,2.5,2.3,5.4,2.3,8.5c0,1.9-1,4,1,5.6
		c-4.8,2.7-8.1,7.2-12,10.9C68.9,55.5,68.7,57.2,73,64.8z M72,39.9c4,0.1,7.8-3.5,7.8-7.5c0-3.5-3.3-7-7-7.2c-3.9-0.2-7.5,3-7.7,6.9
		C64.9,35.9,68.3,39.8,72,39.9z M64.9,62.2c-0.1-1.9-1-3-3-3c-1.7,0-2.8,1-2.8,2.7c-0.1,1.9,1,3.1,2.9,3.1
		C63.8,64.9,64.7,63.9,64.9,62.2z"/>
	<path class="st2" d="M73,64.8c-4.3-7.7-4.1-9.4,2.1-15.4c3.9-3.8,7.1-8.2,12-10.9c8.7-1.7,12.8,0.1,17.4,7.7
		c1.3,5.4,1.2,10.5-2.7,15c-4.1,4.6-11.8,6.4-16.7,2.6C80.1,59.8,76.7,60.9,73,64.8z M98.9,51.7c0-3.8-3.6-7.4-7.4-7.4
		c-3.5,0-7.1,3.6-7.2,7.1c-0.1,3.8,3.4,7.5,7.2,7.6C95.2,59.1,98.9,55.5,98.9,51.7z"/>
	<path class="st3" d="M50.2,59.9c2.3,2.3,4.6,4.6,6.9,6.9C48,76.6,38.9,86.2,28.8,95c-4.4-2.9-5.2-8.6-0.9-13.1
		C35.1,74.3,42.2,66.6,50.2,59.9z"/>
	<path class="st4" d="M28.8,95c10-8.8,19.2-18.4,28.3-28.1c2.3,2.3,4.6,4.6,7,7C56.9,81.3,49.7,88.7,42.3,96
		c-2.7,2.7-6.4,3.3-10.1,2.8C30.6,97.9,29,97.1,28.8,95z"/>
	<path class="st5" d="M72,39.9c-3.7-0.1-7.2-4-6.9-7.8c0.2-3.9,3.8-7.2,7.7-6.9c3.6,0.2,7,3.7,7,7.2C79.8,36.4,76,40,72,39.9z"/>
	<path class="st6" d="M64.9,62.2c-0.2,1.7-1.2,2.7-2.9,2.7c-2,0-3-1.1-2.9-3.1c0.1-1.7,1.1-2.7,2.8-2.7
		C63.9,59.1,64.8,60.3,64.9,62.2z"/>
	<path class="st7" d="M98.9,51.7c0,3.8-3.7,7.4-7.5,7.3c-3.8-0.1-7.3-3.8-7.2-7.6c0.1-3.5,3.8-7.1,7.2-7.1
		C95.3,44.3,98.9,47.9,98.9,51.7z"/>
</g>
<path class="st8" d="M123.9,65.3c0-0.4,0-0.9,0-1.3c-2-1.9-4-3.8-6.1-5.6c-4.5-4-7.9-9.2-13.3-12.2c1.3,5.4,1.2,10.5-2.7,15
	c-4.1,4.6-11.8,6.4-16.7,2.6c-5-3.9-8.4-2.8-12.2,1.1c-2.4,3.5-5.6,6.3-8.9,9C56.9,81.3,49.7,88.7,42.3,96
	c-2.7,2.7-6.4,3.3-10.1,2.8c6.1,7.9,13.9,14.1,20.6,21.4c1,1.1,2.5,2,3,3.5c2.1,0.2,4.1,0.3,6.3,0.3C95.1,124,122.2,98,123.9,65.3z"
	/>
</svg>
