<?xml version="1.0" encoding="utf-8"?>
<!-- Generator: Adobe Illustrator 26.3.1, SVG Export Plug-In . SVG Version: 6.00 Build 0)  -->
<svg version="1.1" id="Layer_1" xmlns="http://www.w3.org/2000/svg" xmlns:xlink="http://www.w3.org/1999/xlink" x="0px" y="0px"
	 viewBox="0 0 124 124" style="enable-background:new 0 0 124 124;" xml:space="preserve">
<style type="text/css">
	.st0{fill:#2DB69C;}
	.st1{fill:#E0E4E4;}
	.st2{fill:#51998B;}
	.st3{fill:#808285;}
	.st4{fill:#8C9192;}
</style>
<circle class="st0" cx="62" cy="62" r="62"/>
<g>
	<path class="st1" d="M87.8,35c0.1,17.1,0.3,34.2,0.2,51.4c0,5.6-3.5,9.5-8.9,9.5c-12.6,0.1-25.3,0.6-37.9-0.3c0,0-0.1,0.3-0.1,0.3
		c-0.4-0.3-0.8-0.6-1.2-0.9c-3.6-2.7-5-6.3-4.9-10.8c0.1-14.8,0-29.5,0.1-44.3c0-8,2.8-10.9,10.7-10.9c10.1,0,20.2,0.2,30.4-0.1
		C81.4,28.8,85.2,30.5,87.8,35z M82.1,60.5c0-7-0.1-14,0-20.9c0-3-0.8-4.7-4.2-4.7c-10.6,0.1-21.3,0-31.9,0c-3.3,0-4.8,1.6-4.8,4.9
		c0,13.8,0,27.6,0,41.4c0,3.2,1.4,4.9,4.8,4.8c10.5,0,20.9,0,31.4,0.2c3.4,0.1,4.8-1.3,4.7-4.7C82,74.4,82.1,67.5,82.1,60.5z
		 M63.9,90.2c-0.3-0.7-0.7-1.7-1.9-1.7c-1.3,0.1-2.2,0.8-2,2.3c0.1,1.2,1.1,1.7,2.1,1.7C63.3,92.4,63.8,91.5,63.9,90.2z"/>
	<path class="st2" d="M40,95c0.4,0.3,0.8,0.6,1.2,0.9C40.8,95.6,40.4,95.3,40,95z"/>
	<path class="st3" d="M82.1,60.5c0,7-0.1,14,0,20.9c0.1,3.4-1.3,4.8-4.7,4.7C67,86,56.5,85.9,46.1,86c-3.4,0-4.8-1.6-4.8-4.8
		c0-13.8,0-27.6,0-41.4c0-3.3,1.5-4.9,4.8-4.9c10.6,0,21.3,0.1,31.9,0c3.4,0,4.2,1.7,4.2,4.7C82.1,46.5,82.1,53.5,82.1,60.5z"/>
	<path class="st4" d="M63.9,90.2c-0.1,1.4-0.6,2.2-1.8,2.3c-1,0.1-1.9-0.5-2.1-1.7c-0.2-1.4,0.7-2.2,2-2.3
		C63.2,88.4,63.6,89.4,63.9,90.2z"/>
</g>
<path class="st2" d="M123.5,69.8c-2-1.9-3.9-3.7-5.9-5.6c-10-9.7-19.4-20-29.8-29.2c0.1,17.1,0.3,34.2,0.2,51.4
	c0,5.6-3.5,9.5-8.9,9.5c-12.6,0.1-25.3,0.6-37.9-0.3c0.5,1.9,1.9,3,3.2,4.3c6.6,6.6,13.3,13.3,19.9,19.9c1.2,1.2,2.6,2.3,3.3,4
	C96.6,121.1,119.9,98.5,123.5,69.8z"/>
</svg>
