<?xml version="1.0" encoding="UTF-8"?><svg xmlns="http://www.w3.org/2000/svg" viewBox="0 0 115.5 115.5"><defs><style>.c{fill:#f15a29;}.d{fill:#e5f4fa;}.e{fill:#8fb8c9;}.f{fill:#bbbdbf;}.g{fill:#9b3f34;}</style></defs><g id="a"><g><circle class="c" cx="57.75" cy="57.75" r="57.75" transform="translate(-11.72 100.69) rotate(-76.72)"/><path class="g" d="M26.79,80.38l34.97,34.97c28-1.92,50.52-23.79,53.42-51.5l-26.59-26.59L26.79,80.38Z"/><g><g><path class="d" d="M90.09,40.91v35.7c0,2.97-2.4,5.37-5.37,5.37H30.78c-2.97,0-5.37-2.4-5.37-5.37V40.91c0-2.96,2.4-5.37,5.37-5.37h24.43v5.3c0,1.28,1.04,2.34,2.32,2.34h3.34c1.27,0,2.32-1.05,2.32-2.34v-5.3h21.51c2.97,0,5.37,2.41,5.37,5.37Zm-38.03,26.93v-17.36c0-1.28-1.04-2.32-2.31-2.32h-14.25c-1.28,0-2.32,1.04-2.32,2.32v17.36c0,1.27,1.04,2.31,2.32,2.31h14.25c1.27,0,2.31-1.04,2.31-2.31Z"/><path class="f" d="M63.2,35.54v5.3c0,1.28-1.05,2.34-2.32,2.34h-3.34c-1.28,0-2.32-1.05-2.32-2.34v-5.3h7.99Z"/><path class="f" d="M63.2,28.95v6.59h-7.99v-6.59c0-1.28,1.04-2.32,2.32-2.32h3.34c1.27,0,2.32,1.04,2.32,2.32Z"/><path class="e" d="M52.05,50.48v17.36c0,1.27-1.04,2.31-2.31,2.31h-14.25c-1.28,0-2.32-1.04-2.32-2.31v-17.36c0-1.28,1.04-2.32,2.32-2.32h14.25c1.27,0,2.31,1.04,2.31,2.32Z"/></g><g><path class="f" d="M82.11,49.5h-22.9c-.29,0-.53-.24-.53-.55s.24-.55,.53-.55h22.9c.29,0,.53,.24,.53,.55s-.24,.55-.53,.55Z"/><path class="f" d="M82.11,59.72h-22.9c-.29,0-.53-.24-.53-.55s.24-.55,.53-.55h22.9c.29,0,.53,.24,.53,.55s-.24,.55-.53,.55Z"/><path class="f" d="M82.11,69.96h-22.9c-.29,0-.53-.24-.53-.55s.24-.55,.53-.55h22.9c.29,0,.53,.24,.53,.55s-.24,.55-.53,.55Z"/></g></g></g></g><g id="b"/></svg>