<?xml version="1.0" encoding="UTF-8"?><svg xmlns="http://www.w3.org/2000/svg" viewBox="0 0 125 125"><defs><style>.c{fill:#fffac0;}.d{fill:#fcbc22;}.e{fill:#ffcf01;}.f{fill:#a99773;}.g{fill:#967a51;}</style></defs><g id="a"><g><circle class="f" cx="62.5" cy="62.5" r="62.5" transform="translate(-5.61 118.83) rotate(-84.59)"/><path class="g" d="M76.87,123.32c21.71-5.11,39.04-21.52,45.45-42.7l-18.13-18.13-13.6,10.67-58.49,5.39,44.77,44.77Z"/><g><g><path class="c" d="M95.33,62.49h8.87c-1.15,14.08-12.93,25.59-27.26,25.59h-23.99c-13.41,0-25.01-10.08-26.11-23.44-1.32-16.26,12.64-29.69,29.04-27.48,10.29,1.39,18.79,9.12,21.29,19.2,1.24,5.03,.88,9.84-.57,14.17-.16,.46,.18,.96,.68,.96,5.29,0,9.39-3.93,10.27-9h7.79Zm-43.01,17.02c9.39,0,17.02-7.64,17.02-17.02s-7.63-17-17.02-17-17.01,7.63-17.01,17,7.63,17.02,17.01,17.02Z"/><path class="e" d="M52.32,45.49c9.39,0,17.02,7.63,17.02,17s-7.63,17.02-17.02,17.02-17.01-7.64-17.01-17.02,7.63-17,17.01-17Zm9,17c0-4.95-4.03-8.98-9-8.98s-8.98,4.03-8.98,8.98,4.03,9,8.98,9,9-4.03,9-9Z"/></g><g><path class="d" d="M52.32,80.03c-9.66,0-17.52-7.87-17.52-17.53s7.86-17.52,17.52-17.52,17.53,7.86,17.53,17.52-7.87,17.53-17.53,17.53Zm0-34.03c-9.09,0-16.49,7.4-16.49,16.49s7.4,16.51,16.49,16.51,16.51-7.41,16.51-16.51-7.41-16.49-16.51-16.49Z"/><path class="d" d="M52.32,72.51c-5.52,0-10.01-4.5-10.01-10.02s4.49-10.01,10.01-10.01,10.02,4.49,10.02,10.01-4.5,10.02-10.02,10.02Zm0-17.98c-4.39,0-7.95,3.57-7.95,7.95s3.57,7.97,7.95,7.97,7.97-3.58,7.97-7.97-3.58-7.95-7.97-7.95Z"/><path class="d" d="M78.19,80.03h-25.87c-.28,0-.51-.23-.51-.51s.23-.51,.51-.51h25.87c7.47,0,14.06-5.03,16.03-12.23,.37-1.39,.57-2.83,.59-4.28v-.12c0-1.37,.54-2.66,1.52-3.64,.95-.97,2.24-1.5,3.63-1.5h5.25c.28,0,.51,.23,.51,.51s-.23,.51-.51,.51h-5.25c-1.11,0-2.14,.43-2.9,1.2-.79,.79-1.22,1.83-1.22,2.92v.13c-.02,1.54-.23,3.07-.62,4.54-2.1,7.65-9.1,12.99-17.02,12.99Z"/></g></g></g></g><g id="b"/></svg>