<?xml version="1.0" encoding="UTF-8"?><svg xmlns="http://www.w3.org/2000/svg" viewBox="0 0 125 125"><defs><style>.bd{fill:#f7d92b;}.be{fill:#f15a29;}.bf{fill:#f26122;}.bg{fill:#fd0;}.bh{fill:#9b3f34;}.bi{fill:#26a9e0;}.bj{fill:#5a3b00;}</style></defs><g id="a"/><g id="b"/><g id="c"/><g id="d"/><g id="e"/><g id="f"/><g id="g"/><g id="h"/><g id="i"/><g id="j"/><g id="k"/><g id="l"/><g id="m"/><g id="n"/><g id="o"/><g id="p"/><g id="q"/><g id="r"/><g id="s"/><g id="t"/><g id="u"/><g id="v"/><g id="w"/><g id="x"/><g id="y"/><g id="a`"/><g id="aa"/><g id="ab"/><g id="ac"/><g id="ad"/><g id="ae"/><g id="af"/><g id="ag"><g><circle class="be" cx="62.5" cy="62.5" r="62.5" transform="translate(-5.91 118.47) rotate(-84.29)"/><path class="bh" d="M36.86,86.88l37.06,37.06c25.04-4.63,44.84-24.16,49.85-49.06l-34.44-34.44-52.47,46.44Z"/><g><g><path class="bf" d="M57.07,57.23l3.3-3.34c.5-.08,1.02-.14,1.54-.14,4.6,0,8.32,3.73,8.32,8.32s-3.73,8.3-8.32,8.3-8.32-3.73-8.32-8.3c0-.5,.06-.97,.14-1.45l3.34-3.4Z"/><path class="bg" d="M60.38,53.89l-3.3,3.34-3.34,3.4c-.08,.48-.14,.95-.14,1.45,0,4.58,3.73,8.3,8.32,8.3s8.32-3.73,8.32-8.3-3.73-8.32-8.32-8.32c-.52,0-1.04,.06-1.54,.14Z"/></g><g><path class="bg" d="M60.38,53.89l-3.3,3.34-3.34,3.4c-.08,.48-.14,.95-.14,1.45,0,4.58,3.73,8.3,8.32,8.3s8.32-3.73,8.32-8.3-3.73-8.32-8.32-8.32c-.52,0-1.04,.06-1.54,.14Z"/><path class="bi" d="M69.9,96.06c.81-.19,1.62-.4,2.41-.65h0c.76-.24,1.51-.51,2.25-.8,.2-.08,.4-.15,.6-.23,.7-.29,1.38-.59,2.06-.92,.2-.1,.4-.21,.6-.31,.56-.29,1.12-.59,1.67-.91,.17-.1,.35-.2,.52-.3,.65-.39,1.28-.81,1.89-1.24,.2-.14,.39-.28,.59-.42,.63-.46,1.24-.94,1.84-1.43,.14-.11,.27-.23,.41-.35,.64-.55,1.27-1.12,1.87-1.72l.03-.02c.14-.14,.27-.28,.4-.42,.26-.27,.52-.54,.78-.82,.22-.24,.42-.49,.63-.73,.16-.19,.33-.37,.48-.56,.23-.28,.45-.57,.67-.86,.12-.16,.25-.32,.37-.48,.23-.31,.45-.62,.67-.94,.1-.15,.21-.3,.31-.45,.22-.32,.42-.65,.62-.97,.1-.16,.2-.31,.29-.47,.19-.32,.37-.64,.55-.96,.1-.18,.2-.35,.3-.53,.16-.3,.32-.61,.47-.92,.1-.21,.21-.41,.31-.62,.13-.28,.26-.56,.38-.85,.11-.25,.22-.49,.32-.74,.1-.25,.2-.5,.3-.76,.11-.29,.22-.57,.33-.87,.08-.22,.15-.44,.23-.66,.11-.33,.22-.65,.32-.98,.06-.2,.11-.39,.17-.59,.1-.36,.2-.71,.29-1.07,.04-.18,.08-.36,.13-.54,.09-.37,.17-.75,.25-1.12,.04-.18,.06-.36,.1-.54,.07-.38,.14-.75,.19-1.14,.03-.2,.05-.39,.08-.59,.05-.36,.1-.73,.13-1.09,.02-.25,.04-.5,.06-.75,.02-.32,.05-.63,.07-.95,.02-.38,.02-.77,.03-1.15,0-.19,.01-.37,.01-.55,0-.17-.01-.34-.01-.52,0-.4-.01-.8-.03-1.19-.02-.38-.05-.75-.08-1.12-.02-.19-.02-.38-.04-.57-.04-.42-.1-.84-.15-1.26-.02-.14-.03-.28-.05-.42-.06-.44-.14-.88-.22-1.31-.02-.12-.04-.24-.06-.36-.09-.44-.18-.88-.29-1.31-.03-.11-.05-.23-.08-.34-.11-.43-.22-.85-.34-1.26-.04-.13-.07-.26-.11-.39-.12-.4-.25-.79-.38-1.18-.05-.15-.1-.3-.15-.46-.13-.36-.27-.72-.41-1.08-.07-.18-.14-.36-.21-.53-.13-.33-.28-.65-.42-.97-.09-.21-.18-.42-.28-.62-.14-.29-.28-.58-.43-.86-.12-.23-.23-.46-.35-.68-.14-.27-.29-.53-.44-.79-.13-.24-.27-.47-.41-.71-.15-.25-.31-.5-.47-.75-.15-.23-.29-.47-.45-.7-.17-.26-.35-.51-.53-.77-.15-.21-.29-.42-.44-.63-.22-.29-.44-.58-.67-.87-.13-.16-.25-.32-.38-.48-.31-.38-.64-.76-.97-1.13-.05-.06-.1-.11-.15-.17-.79-.87-1.63-1.71-2.5-2.5-.12-.11-.24-.2-.36-.31-.31-.27-.61-.54-.93-.8-.23-.19-.46-.36-.69-.54-.21-.16-.42-.33-.63-.49-.29-.21-.58-.42-.87-.62-.17-.12-.33-.24-.5-.35-.32-.22-.65-.42-.97-.62-.15-.09-.3-.19-.45-.28-.34-.21-.69-.4-1.03-.59-.15-.08-.29-.17-.44-.25-.35-.19-.7-.36-1.05-.54-.16-.08-.32-.16-.48-.24-.34-.16-.69-.32-1.04-.47-.18-.08-.35-.15-.53-.23-.34-.14-.68-.27-1.02-.4-.19-.07-.38-.15-.58-.22-.34-.12-.68-.23-1.02-.35-.2-.06-.4-.13-.6-.19-.35-.11-.7-.2-1.06-.3-.19-.05-.39-.11-.58-.16-.39-.1-.77-.18-1.16-.27-.16-.04-.32-.07-.49-.11-.46-.09-.92-.17-1.39-.25-.09-.01-.18-.03-.27-.05-2.68-.41-5.39-.5-8.09-.28h-.02c-.9,.07-1.8,.18-2.7,.33-.05,0-.1,.02-.15,.03-1.73,.28-3.43,.7-5.11,1.24-.07,.02-.13,.04-.2,.06-5,1.66-9.71,4.46-13.69,8.45-1.88,1.88-3.49,3.92-4.85,6.07l-.05,.08c-.92,1.47-1.72,2.99-2.41,4.55-.07,.15-.13,.3-.2,.45-.3,.72-.58,1.44-.83,2.18-.07,.2-.13,.41-.2,.61-.19,.6-.37,1.2-.53,1.81-.06,.22-.12,.43-.17,.65-.17,.7-.31,1.4-.44,2.11-.05,.29-.1,.57-.14,.86-.11,.71-.2,1.42-.26,2.14-.02,.27-.04,.54-.06,.81-.04,.65-.07,1.31-.08,1.96,0,.14-.02,.29-.02,.43,0,10.64,4.76,20.15,12.26,26.55,.03,.03,.07,.06,.1,.09,.66,.56,1.34,1.09,2.04,1.6,.1,.07,.2,.14,.3,.22,.67,.48,1.35,.93,2.05,1.36,.02,.01,.05,.03,.07,.04,.67,.41,1.37,.79,2.07,1.15,.18,.09,.35,.18,.53,.27,.68,.34,1.38,.66,2.09,.95,.14,.06,.28,.11,.42,.17,.64,.26,1.3,.5,1.96,.72,.13,.04,.26,.09,.4,.13,.76,.24,1.53,.46,2.3,.65,.12,.03,.23,.05,.35,.08,.77,.18,1.56,.34,2.35,.47,.01,0,.03,0,.04,0h0c1.82,.29,3.69,.45,5.6,.45,1.72,0,3.41-.13,5.07-.37h.01c.84-.12,1.67-.28,2.49-.46,.14-.03,.27-.06,.41-.09Z"/><path class="bd" d="M70.6,83.08c.1-.04,.2-.08,.3-.13,1.25-.54,2.46-1.19,3.61-1.96,.1-.07,.2-.14,.3-.21,.45-.31,.9-.64,1.33-.99,.12-.1,.25-.19,.37-.3,.51-.43,1-.87,1.48-1.35,.04-.04,.08-.09,.12-.13,.48-.49,.95-1,1.38-1.53,.23-.28,.42-.57,.64-.85,.23-.31,.47-.61,.69-.94,.22-.33,.41-.67,.62-1.01,.18-.3,.36-.59,.53-.89,.18-.34,.34-.69,.5-1.04,.15-.32,.31-.64,.45-.97,.14-.34,.25-.68,.37-1.02,.13-.36,.27-.71,.38-1.08,.1-.33,.17-.67,.26-1.01,.1-.38,.2-.76,.28-1.15,.08-.38,.12-.77,.18-1.16,.05-.35,.12-.69,.15-1.04,.07-.7,.1-1.4,.11-2.1,0-.05,0-.09,0-.14s0-.09,0-.14c0-.7-.04-1.4-.11-2.1-.03-.35-.1-.69-.15-1.04-.06-.39-.1-.78-.18-1.16-.08-.39-.18-.76-.28-1.14-.09-.34-.16-.68-.26-1.01-.11-.37-.25-.72-.38-1.08-.12-.34-.23-.68-.37-1.02-.14-.33-.3-.65-.45-.97-.16-.35-.32-.7-.5-1.04-.16-.31-.35-.6-.53-.89-.2-.34-.39-.68-.62-1.01-.22-.32-.46-.63-.69-.94-.21-.28-.41-.57-.63-.85-.44-.54-.91-1.05-1.4-1.55-.04-.04-.07-.08-.11-.12s-.08-.07-.11-.1c-.5-.49-1.01-.96-1.55-1.4-.28-.23-.57-.42-.85-.64-.31-.23-.61-.47-.94-.69-.33-.22-.67-.41-1.01-.61-.3-.18-.59-.37-.9-.53-.34-.18-.69-.34-1.04-.5-.33-.15-.64-.32-.98-.45-.33-.14-.68-.25-1.02-.37-.36-.13-.72-.27-1.09-.38-.33-.1-.67-.17-1.01-.26-.38-.1-.76-.2-1.15-.28-.38-.08-.77-.12-1.15-.18-.35-.05-.69-.12-1.04-.15-.7-.07-1.4-.1-2.1-.11-.05,0-.09,0-.14,0-.67,0-1.34,.04-1.99,.1-.16,.01-.32,.03-.48,.05-.55,.06-1.09,.14-1.63,.23-.13,.02-.25,.04-.38,.07-1.34,.27-2.64,.65-3.89,1.15-.13,.05-.26,.11-.4,.16-.58,.24-1.15,.5-1.71,.79-.05,.02-.09,.04-.14,.07-.49,.26-.97,.53-1.43,.82l-.07,.07c-1.41,.89-2.75,1.93-3.97,3.15-1.2,1.2-2.22,2.51-3.1,3.88l-.06,.06c-.31,.5-.6,1.01-.88,1.53-.02,.04-.04,.08-.06,.12-.3,.57-.57,1.16-.82,1.76-.04,.1-.08,.2-.13,.3-.5,1.26-.9,2.58-1.17,3.94-.02,.12-.04,.24-.07,.36-.1,.54-.18,1.09-.24,1.64-.02,.16-.04,.31-.05,.47-.06,.66-.1,1.32-.1,2,0,.06,0,.11,0,.17,0,.69,.04,1.38,.1,2.07,.03,.35,.1,.7,.15,1.05,.06,.38,.1,.77,.18,1.15,.08,.39,.18,.77,.28,1.15,.08,.34,.16,.68,.26,1.01,.11,.37,.25,.73,.38,1.09,.12,.34,.23,.68,.37,1.01,.14,.33,.3,.65,.45,.98,.16,.35,.32,.7,.5,1.04,.17,.31,.35,.6,.53,.9,.2,.34,.39,.68,.61,1.01,.22,.32,.46,.63,.69,.94,.21,.28,.41,.57,.63,.85,.44,.54,.91,1.05,1.4,1.55,.04,.04,.07,.08,.1,.11,.48,.48,.97,.92,1.48,1.34,.12,.1,.25,.2,.37,.3,.43,.35,.87,.67,1.32,.98,.1,.07,.21,.15,.31,.22,1.14,.76,2.33,1.4,3.56,1.94,.13,.06,.26,.11,.39,.16,.58,.24,1.17,.46,1.77,.65,.05,.02,.09,.03,.14,.05,.53,.16,1.06,.31,1.59,.43h.09c1.62,.37,3.31,.58,5.04,.58s3.35-.2,4.94-.55h.09c.57-.13,1.14-.29,1.7-.46,.04-.01,.08-.03,.12-.04,.62-.19,1.23-.42,1.83-.67Z"/><path class="bf" d="M67.81,67.94c.55-.55,.99-1.15,1.35-1.79,.03-.05,.06-.09,.08-.14,.08-.15,.15-.3,.22-.45,.05-.1,.1-.2,.14-.31,.04-.1,.08-.21,.12-.32,.06-.16,.12-.31,.16-.47,.02-.06,.03-.11,.04-.17,.2-.71,.31-1.45,.31-2.22,0-1.39-.34-2.69-.94-3.84,0-.01-.01-.03-.02-.04-.12-.23-.25-.45-.4-.67,0-.01-.01-.02-.02-.04-.47-.7-1.03-1.33-1.69-1.86-.04-.04-.09-.07-.13-.1-.17-.13-.34-.26-.52-.38-.1-.06-.19-.12-.29-.18-.13-.08-.26-.16-.4-.24-.12-.06-.24-.12-.37-.18-.12-.06-.24-.12-.36-.17-.14-.06-.28-.1-.42-.15-.11-.04-.22-.08-.34-.12-.17-.05-.34-.09-.51-.13-.09-.02-.18-.05-.27-.07-.97-.2-1.96-.21-2.93-.06-.09,.01-.17,.02-.26,.03h0c-1.59,.3-3.1,1.06-4.33,2.29-1.26,1.26-2.02,2.82-2.31,4.45h0c0,.06-.01,.12-.02,.18-.03,.17-.05,.34-.07,.51-.03,.25-.04,.5-.04,.76,0,2.79,1.39,5.26,3.52,6.77,.04,.03,.07,.07,.11,.09h.01c1.33,.91,2.94,1.44,4.68,1.44s3.42-.56,4.77-1.51h0c.07-.05,.14-.11,.21-.16,.12-.09,.23-.17,.35-.26,.19-.16,.38-.32,.56-.5Z"/></g><path class="bj" d="M62.8,61.19l-26.44-26.44v-8.81c0-.69-.56-1.24-1.24-1.24s-1.24,.56-1.24,1.24v6.32l-2.94-2.94v-8.93c0-.69-.56-1.24-1.24-1.24s-1.24,.56-1.24,1.24v7.91h-7.91c-.69,0-1.24,.56-1.24,1.24s.56,1.24,1.24,1.24h8.35l3.05,3.05h-5.95c-.69,0-1.24,.56-1.24,1.24s.56,1.24,1.24,1.24h8.44l26.62,26.62c.24,.24,.56,.36,.88,.36s.64-.12,.88-.36c.49-.49,.49-1.27,0-1.76Z"/></g></g></g><g id="ah"/><g id="ai"/><g id="aj"/><g id="ak"/><g id="al"/><g id="am"/><g id="an"/><g id="ao"/><g id="ap"/><g id="aq"/><g id="ar"/><g id="as"/><g id="at"/><g id="au"/><g id="av"/><g id="aw"/><g id="ax"/><g id="ay"/><g id="b`"/><g id="ba"/><g id="bb"/><g id="bc"/></svg>