<svg
        width="144"
        height="177"
        viewBox="0 0 144 177"
        fill="none"
        xmlns="http://www.w3.org/2000/svg"
>
  <path
          d="M106.629 6.50218C103.772 5.56086 102.277 0.15776 106.703 1.57995C111.129 3.00214 109.486 7.44351 106.629 6.50218Z"
          fill="white"
          stroke="#152633"
          strokeWidth="2"
          strokeLinejoin="round"
  />
  <path
          d="M121.477 37.8228C119.956 40.5697 118.912 40.2751 99.1282 36.0022L77.6497 24.0886L84.6499 6.08131C87.9979 3.63966 95.6069 3.02924 101.694 3.33445C107.781 3.63966 118.434 11.8802 123.912 17.6792C129.391 23.4781 122.999 35.076 121.477 37.8228Z"
          fill="white"
          stroke="#152633"
          strokeWidth="2"
          strokeLinejoin="round"
  />
  <path
          d="M121.478 37.8229C119.956 40.5697 117.412 39.7751 97.6289 35.5022L108.629 33.5022L114.629 17.6792C115.629 15.1792 113.107 9.5022 106.129 4.5022C112.216 7.5022 118.434 11.8803 123.913 17.6792C129.391 23.4781 122.999 35.076 121.478 37.8229Z"
          fill="#152633"
          stroke="#152633"
          strokeWidth="2"
          strokeLinejoin="round"
  />
  <path
          d="M79.1288 6.00215C66.0072 7.56861 68.1297 26.0022 73.1296 29.0022C76.1284 27.0022 92.2953 29.3571 101.629 32.0022C98.5853 30.7814 96.6289 27.5022 99.1289 20.5021C101.629 13.502 91.9115 4.47616 79.1288 6.00215Z"
          fill="#EDEDED"
  />
  <path
          d="M76.1291 2.00221C63.0075 3.56867 65.13 22.0023 70.1298 25.0023C73.1286 23.0023 87.7955 26.8572 97.1291 29.5023C94.0855 28.2815 92.8442 23.502 96.1292 16.5022C99.4141 9.50226 88.9117 0.476213 76.1291 2.00221Z"
          fill="#7BE8DF"
          stroke="#152633"
          strokeWidth="2"
          strokeLinejoin="round"
  />
  <path
          d="M75.6297 7.0022C66.3587 8.14409 69.0967 22.3153 72.6293 24.5022C76.6293 24.5022 84.5343 25.574 91.129 27.5022C88.9785 26.6122 88.3673 22.2369 90.4835 18.6611C94.1284 12.5021 84.6613 5.8898 75.6297 7.0022Z"
          stroke="#152633"
          strokeLinejoin="round"
  />
  <path
          d="M74.6304 12.0021C70.3768 13.7748 72.6752 23.3443 74.6297 24.5021C76.8428 24.5021 82.4803 25.4814 86.1289 26.5022C84.9391 26.0311 84.3675 22.4364 85.7718 19.8216C88.6285 14.5024 80.1298 9.71033 74.6304 12.0021Z"
          stroke="#152633"
          strokeLinejoin="round"
  />
  <path
          d="M119.629 39.0021C119.116 40.815 105.548 38.8559 92.5904 35.1722C79.6327 31.4885 73.1289 27.5022 70.1284 25.0023C74.6289 24.0022 81.4888 24.9234 94.4464 28.6071C107.404 32.2908 120.142 37.1892 119.629 39.0021Z"
          fill="#FEE28B"
          stroke="#152633"
          strokeWidth="2"
          strokeLinejoin="round"
  />
  <path
          d="M115.428 36.6655C115.097 37.8384 104.14 35.9515 93.5977 32.9544C83.0552 29.9573 74.7776 26.5769 75.1091 25.4041C75.4407 24.2313 84.2559 25.7102 94.7984 28.7073C105.341 31.7044 115.76 35.4927 115.428 36.6655Z"
          fill="#152633"
  />
  <path
          fillRule="evenodd"
          clipRule="evenodd"
          d="M87.0709 114.503C95.0709 119.003 104.072 113.502 110.57 110.502C120.57 108.502 115.568 169.502 89.0685 135.502C82.0684 135.502 77.1077 135.789 87.0709 114.503Z"
          fill="#537FEE"
          stroke="#152633"
          strokeWidth="2"
  />
  <path
          fillRule="evenodd"
          clipRule="evenodd"
          d="M27.3459 107.01C33.7955 115.684 37.6291 123.565 40.0681 132.003C41.5682 134.003 23.7636 144.571 19.5681 147.003C14.0681 141.502 7.35613 133.002 4.06818 123.503C7.06818 121.003 9.06818 118.503 7.35613 114.737C12.5251 110.888 19.1883 108.313 27.3459 107.01Z"
          fill="#EF3E60"
  />
  <path
          d="M9.06812 120.002C7.06812 121.502 6.06812 122.002 4.56812 123.002C6.06812 128.002 11.2681 139.702 20.0681 146.502C29.6681 142.102 37.4014 135.669 40.0681 133.002C40.2348 131.669 36.2681 120.502 35.0681 120.502C30.0681 135.002 18.5681 144.502 9.06812 120.002Z"
          fill="#E43154"
  />
  <path
          fillRule="evenodd"
          clipRule="evenodd"
          d="M27.3464 107.01C33.796 115.684 37.6303 123.064 40.0693 131.502C41.0192 134.791 23.9808 144.402 19.5706 147.002C14.5722 143.002 5.07007 129.002 4.06936 123.502C4.72175 123.013 5.88667 121.925 6.57007 122.002C7.98247 122.161 8.91534 124.024 10.0701 123.502C9.35662 121.502 7.49243 115.387 7.57007 114.502C12.739 110.654 19.1888 108.313 27.3464 107.01Z"
          stroke="#152633"
          strokeWidth="2"
          strokeLinejoin="round"
  />
  <path
          d="M37.5701 132.502C35.5681 135.502 23.5701 142.002 19.5681 144.002C19.5681 144.002 9.57007 132.502 5.57007 119.002L8.07007 117.002C12.0701 131.502 19.5681 140.002 19.5681 140.002C24.5701 137.502 31.0701 133.502 37.5701 132.502Z"
          fill="white"
          stroke="#152633"
          strokeWidth="2"
          strokeLinejoin="round"
  />
  <path
          d="M26.8906 115.886C25.3994 118.066 28.6419 121.255 35.0696 119.502C36.5676 122.002 37.5676 124.502 38.5676 126.502C42.8701 128.385 48.5286 125.112 54.0921 121.318C54.1034 120.734 55.2608 118.396 55.8451 117.228C54.0921 116.059 52.3391 114.306 52.0001 112.855C38.2723 110.771 28.3819 113.707 26.8906 115.886Z"
          fill="#2D3B45"
  />
  <path
          d="M37.0684 122.002C43.5684 128.002 51.0684 119.502 48.0684 112.502L55.8451 117.812C53.2535 122.132 49.3406 124.551 44.5684 126.502C38.3939 129.027 37.0684 122.002 37.0684 122.002Z"
          fill="#28343D"
  />
  <path
          d="M26.8909 115.887C25.3996 118.066 28.0679 121.252 34.0679 120.502C38.0679 120.002 37.5679 124.502 38.5679 126.502C42.8704 128.385 48.5289 125.112 54.0923 121.318C54.1036 120.734 55.261 118.397 55.8453 117.228C54.0923 116.059 52.3393 114.306 52.0003 112.855C38.2725 110.771 28.3822 113.707 26.8909 115.887Z"
          stroke="#152633"
          strokeWidth="2"
  />
  <path
          fillRule="evenodd"
          clipRule="evenodd"
          d="M96.1079 141.502C101.674 148.015 105.551 151.863 107.737 153.047C111.017 154.823 108.334 163.112 101.177 164C96.4061 164.592 89.3489 162.026 80.0057 156.303L96.1079 141.502Z"
          fill="#2D3B45"
  />
  <path
          d="M105.068 151.002L101.9 148.002C95.9004 155.85 83.4004 158.002 83.4004 158.002C92.7437 163.725 99.0684 164.502 104.068 163.002C95.5684 162.002 90.5684 159.502 105.068 151.002Z"
          fill="#28343D"
  />
  <path
          fillRule="evenodd"
          clipRule="evenodd"
          d="M96.1079 141.502C101.674 148.015 105.551 151.863 107.737 153.047C111.017 154.823 108.334 163.112 101.177 164C96.4061 164.592 89.3489 162.026 80.0057 156.303L96.1079 141.502Z"
          stroke="#152633"
          strokeWidth="2"
  />
  <path
          fillRule="evenodd"
          clipRule="evenodd"
          d="M56.6742 115.926C63.9027 118.347 72.1522 119.662 80.913 119.662C88.7221 119.662 96.5225 122.319 102.9 120.502C93.3996 130.502 119.568 152.502 78.7363 159.858C49.4795 159.858 46.711 137.212 56.6742 115.926Z"
          fill="white"
  />
  <path
          d="M94.8994 122.002C100.566 127.836 113.567 151.002 86.0674 158.502C121.067 136.502 75.1016 119.552 52.0674 129.002C52.0674 127.502 55.3994 118.836 56.3994 117.002L94.8994 122.002Z"
          fill="#EDEDED"
  />
  <path
          d="M98.5676 140.502C95.5684 140.002 89.0684 135.002 95.5684 132.002C95.0686 131.502 92.1681 128.502 90.5672 128.502C83.7672 139.702 92.7338 143.836 98.0672 144.502C98.5672 143.669 99.3673 141.702 98.5676 140.502Z"
          fill="#EDEDED"
  />
  <path
          d="M62.5598 120.502C63.3006 120.827 65.0787 121.793 65.5676 122.002C65.5676 122.002 64.5676 133.002 51.0676 138.002C51.0676 137.622 51.1401 136.734 51.2298 135.78C57.5676 135.002 62.5598 125.002 62.5598 120.502Z"
          fill="#EDEDED"
  />
  <path
          fillRule="evenodd"
          clipRule="evenodd"
          d="M56.6742 115.926C63.9027 118.347 72.1522 119.662 80.913 119.662C88.7221 119.662 96.5225 122.319 102.9 120.502C93.3996 130.502 120.068 152.502 78.7363 159.858C49.4795 159.858 46.711 137.212 56.6742 115.926Z"
          stroke="#152633"
          strokeWidth="2"
  />
  <path
          d="M101.57 147.502C81.5685 146.002 80.5703 129.002 89.0698 124.502C89.0698 124.502 93.0697 125.002 96.0697 124.502C85.0703 134.502 91.0703 142.502 102.57 143.502C102.57 145.002 102.07 146.502 101.57 147.502Z"
          fill="#6792FF"
  />
  <path
          d="M90.997 144.543C93.2575 145.514 100.145 147.029 100.531 143.242C101.188 143.354 101.869 143.441 102.57 143.502C102.569 145.002 102.069 146.502 101.569 147.502C97.1527 147.171 93.6627 146.084 90.997 144.543Z"
          fill="#537FEE"
  />
  <path
          d="M92.7987 124.724C93.8702 124.729 95.0296 124.675 96.069 124.502C88.1729 131.681 89.0681 139.002 96.0687 142.502C88.0681 141.502 85.5014 132.177 92.7987 124.724Z"
          fill="#537FEE"
  />
  <path
          d="M101.57 147.502C81.5685 146.002 80.5703 129.002 89.0698 124.502C89.0698 124.502 93.0697 125.002 96.0697 124.502C85.0703 134.502 91.0703 142.502 102.57 143.502C102.57 145.002 102.07 146.502 101.57 147.502Z"
          stroke="#152633"
          strokeWidth="2"
  />
  <path
          d="M51.5693 135.502C65.0694 128.502 62.0689 119.502 62.0689 119.502C60.9021 119.002 58.3689 117.902 57.5689 117.502C58.5689 123.002 56.0693 128.502 52.0692 130.002C52.0692 130.002 51.5693 134.502 51.5693 135.502Z"
          fill="#6792FF"
  />
  <path
          d="M60.1108 118.653C60.8516 118.978 61.5805 119.293 62.0694 119.502C62.0694 119.502 65.0698 128.502 51.5698 135.502C51.5698 135.122 51.6423 134.234 51.732 133.28C61.8468 127.046 60.4084 119.783 60.1108 118.653Z"
          fill="#537FEE"
  />
  <path
          d="M51.5693 135.502C65.0694 128.502 62.0689 119.502 62.0689 119.502C60.9021 119.002 58.3689 117.902 57.5689 117.502C58.5689 123.002 56.0693 128.502 52.0692 130.002C52.0692 130.002 51.5693 134.502 51.5693 135.502Z"
          stroke="#152633"
          strokeWidth="2"
          strokeLinejoin="round"
  />
  <path
          fillRule="evenodd"
          clipRule="evenodd"
          d="M60.9032 145.502C37.9023 140.502 45.7313 173.677 71.5665 165.34C97.4018 157.002 80.4018 143.002 60.9032 145.502Z"
          fill="#2D3B45"
  />
  <path
          d="M84.6963 155.144C84.6334 158.585 80.8884 162.331 71.5661 165.34C53.2386 171.254 43.9727 156.278 48.3465 148.859C47.368 156.62 56.4741 167.532 72.5661 162.339C79.2246 160.19 83.0378 157.665 84.6963 155.144Z"
          fill="#28343D"
  />
  <path
          d="M51.0646 152.518C51.8678 152.399 52.3979 151.488 52.2486 150.484C52.0993 149.48 51.3271 148.763 50.5239 148.882C49.7206 149.001 49.1905 149.912 49.3398 150.916C49.4891 151.92 50.2613 152.637 51.0646 152.518Z"
          fill="#53636F"
  />
  <path
          d="M55.7022 153.521C56.496 153.591 57.2099 152.843 57.2967 151.851C57.3835 150.858 56.8104 149.998 56.0165 149.928C55.2227 149.859 54.5089 150.607 54.422 151.599C54.3352 152.591 54.9084 153.452 55.7022 153.521Z"
          fill="#53636F"
  />
  <path
          d="M48.9016 158.002C49.4016 161.002 52.9016 165.252 61.9008 166.002C73.9008 167.002 47.0677 147.002 48.9016 158.002Z"
          fill="#53636F"
  />
  <path
          d="M61.6728 155.207C61.2986 156.103 60.4146 156.586 59.6983 156.286C58.9821 155.987 58.7048 155.019 59.079 154.123C59.4532 153.228 60.3372 152.745 61.0535 153.044C61.7697 153.344 62.047 154.312 61.6728 155.207Z"
          fill="#53636F"
  />
  <path
          fillRule="evenodd"
          clipRule="evenodd"
          d="M64.7045 163.69C65.4569 165.218 64.8596 166.249 61.8997 166.002C52.9005 165.252 49.2339 160.002 48.9005 158.002C48.6562 156.537 48.9207 155.622 49.5345 155.134C51.7978 159.728 57.0423 163.747 64.7045 163.69Z"
          fill="#48555E"
  />
  <path
          fillRule="evenodd"
          clipRule="evenodd"
          d="M60.9022 145.502C37.9013 140.502 45.7303 173.677 71.5655 165.34C97.4008 157.002 80.4008 143.002 60.9022 145.502Z"
          stroke="#152633"
          strokeWidth="2"
  />
  <path
          d="M57.9016 145.002C62.7016 145.402 65.9016 148.169 66.9016 149.502"
          stroke="#152633"
          strokeWidth="2"
          strokeLinecap="round"
  />
  <path
          fillRule="evenodd"
          clipRule="evenodd"
          d="M96.7704 124.968C97.7272 126.068 106.107 137.902 114.46 142.27C125.538 148.064 130.568 136.039 128.01 130.031C125.624 124.427 107.712 122.107 98.9845 122.639C96.4907 123.084 95.8136 123.867 96.7704 124.968Z"
          fill="#2D3B45"
  />
  <path
          d="M109.067 123.502C107.068 122.002 95.067 122.027 98.067 126.502C100.807 130.59 106.106 137.902 114.459 142.27C118.433 144.349 121.628 144.134 123.975 142.727C116.911 143.222 99.5684 128.669 109.067 123.502Z"
          fill="#28343D"
  />
  <path
          fillRule="evenodd"
          clipRule="evenodd"
          d="M96.7704 124.967C98.0608 126.629 106.107 137.902 114.46 142.27C125.538 148.064 130.568 136.039 128.01 130.031C125.624 124.427 111.906 122.692 98.9846 122.639C96.5804 122.63 95.9413 123.9 96.7704 124.967Z"
          stroke="#152633"
          strokeWidth="2"
  />
  <path
          d="M121.663 120.272C121.724 120.153 121.755 120.093 121.793 120.039C121.827 119.991 121.865 119.945 121.906 119.904C121.953 119.857 122.006 119.816 122.113 119.735L129.013 114.457C129.478 114.101 129.711 113.924 129.892 113.932C130.05 113.939 130.196 114.02 130.284 114.151C130.386 114.302 130.356 114.593 130.295 115.175L129.418 123.598C129.406 123.71 129.401 123.766 129.389 123.821C129.378 123.869 129.364 123.917 129.346 123.964C129.326 124.016 129.3 124.066 129.248 124.166L117.318 147.264C116.802 148.263 116.544 148.762 116.153 149.043C115.809 149.289 115.395 149.42 114.971 149.417C114.49 149.413 113.992 149.152 112.995 148.632L111.109 147.648C110.12 147.132 109.625 146.874 109.347 146.484C109.103 146.141 108.972 145.73 108.975 145.309C108.979 144.83 109.235 144.334 109.747 143.343L121.663 120.272Z"
          fill="#F6C446"
  />
  <path
          d="M122.162 123.507L121.7 119.806L129.187 114.398C129.526 114.153 129.998 114.408 129.979 114.826L129.564 123.969L125.4 125.357L124.938 122.582L122.162 123.507Z"
          fill="#F7D098"
  />
  <path
          d="M129.563 123.969C129.563 123.969 125.068 127.002 124.568 123.002L129.042 115.68C129.313 115.238 129.995 115.448 129.968 115.966L129.563 123.969Z"
          fill="#EFBD75"
  />
  <path
          d="M116.068 141.002L124.568 123.002L125.568 125.002L129.068 124.502C127.636 127.843 117.78 140.717 116.068 141.002Z"
          fill="#E2AF2E"
  />
  <path
          d="M121.665 120.27C121.726 120.152 121.757 120.093 121.795 120.039C121.829 119.99 121.866 119.945 121.908 119.904C121.955 119.857 122.008 119.817 122.114 119.736L129.015 114.457C129.48 114.101 129.713 113.924 129.894 113.932C130.052 113.939 130.197 114.02 130.286 114.151C130.388 114.302 130.358 114.593 130.297 115.175L129.42 123.597C129.409 123.709 129.403 123.766 129.391 123.82C129.38 123.869 129.366 123.917 129.348 123.964C129.328 124.016 129.302 124.067 129.249 124.167L117.164 147.488C116.648 148.485 116.389 148.984 115.998 149.263C115.654 149.509 115.24 149.64 114.817 149.636C114.336 149.632 113.838 149.372 112.843 148.852L110.957 147.868C109.967 147.352 109.472 147.093 109.193 146.703C108.949 146.36 108.819 145.948 108.822 145.526C108.826 145.047 109.083 144.551 109.597 143.559L121.665 120.27Z"
          stroke="#152633"
          strokeWidth="2"
          strokeLinejoin="round"
  />
  <path
          d="M109.864 142.987C110.12 142.484 110.249 142.232 110.444 142.091C110.617 141.966 110.824 141.9 111.037 141.902C111.278 141.903 111.529 142.034 112.029 142.295L116.752 144.76C117.244 145.017 117.49 145.145 117.629 145.339C117.751 145.51 117.817 145.715 117.816 145.924C117.815 146.163 117.689 146.41 117.437 146.905L117.154 147.459C116.641 148.466 116.385 148.969 115.993 149.252C115.648 149.5 115.233 149.633 114.809 149.63C114.325 149.627 113.825 149.365 112.823 148.843L110.938 147.859C109.953 147.345 109.461 147.088 109.183 146.7C108.939 146.359 108.808 145.949 108.809 145.529C108.811 145.052 109.063 144.558 109.567 143.568L109.864 142.987Z"
          fill="#FF8686"
  />
  <path
          d="M114.377 143.521L118.157 145.493L115.687 150.337L111.907 148.365L114.377 143.521Z"
          fill="#F46767"
  />
  <path
          d="M109.864 142.987C110.121 142.484 110.249 142.232 110.445 142.091C110.617 141.967 110.824 141.9 111.037 141.902C111.278 141.903 111.529 142.034 112.03 142.295L116.752 144.76C117.244 145.017 117.49 145.145 117.629 145.339C117.751 145.51 117.817 145.715 117.816 145.925C117.815 146.163 117.689 146.41 117.437 146.905L117.155 147.459C116.641 148.466 116.385 148.969 115.993 149.252C115.649 149.5 115.234 149.633 114.809 149.63C114.326 149.627 113.825 149.365 112.823 148.843L110.938 147.859C109.953 147.345 109.461 147.088 109.183 146.7C108.939 146.359 108.808 145.949 108.81 145.53C108.811 145.052 109.063 144.558 109.568 143.568L109.864 142.987Z"
          stroke="#152633"
          strokeWidth="2"
          strokeLinejoin="round"
  />
  <path
          d="M121.7 119.806L122.162 123.507L124.938 122.582L125.4 125.357L129.564 123.969"
          stroke="#152633"
          strokeWidth="2"
          strokeLinejoin="round"
  />
  <path
          d="M126.326 116.568L130.026 113.792V118.418C127.806 119.158 126.634 117.339 126.326 116.568Z"
          fill="#152633"
  />
  <path
          fillRule="evenodd"
          clipRule="evenodd"
          d="M127.119 127.327C130.918 133.017 129.395 144.397 119.152 144.966C104.609 141.173 114.757 122.269 127.119 127.327Z"
          fill="#2D3B45"
  />
  <path
          d="M128.423 133.845C123.502 145.184 112.697 141.295 114.031 129.985C111.15 135.6 110.967 142.591 120.044 144.752C126.958 143.888 128.688 137.837 128.423 133.845Z"
          fill="#28343D"
  />
  <path
          fillRule="evenodd"
          clipRule="evenodd"
          d="M127.121 127.327C130.919 133.017 128.828 144.966 119.154 144.397C104.611 140.604 114.759 122.268 127.121 127.327Z"
          stroke="#152633"
          strokeWidth="2"
  />
  <path
          fillRule="evenodd"
          clipRule="evenodd"
          d="M130.476 68.798C132.028 68.4669 133.732 67.8941 135.507 66.9437C142.334 63.2889 142.614 55.1406 142.584 53.0854C142.555 51.0298 141.939 41.0758 133.6 44.0409C128.215 45.9556 122.3 49.8217 118.783 52.3216C123.687 57.0839 127.654 62.7188 130.476 68.798Z"
          fill="#2D3B45"
  />
  <path
          d="M121.754 50.2886C120.649 51.0157 119.644 51.7096 118.783 52.3216C123.687 57.0839 127.654 62.7189 130.476 68.7981C134.856 67.8636 141.569 64.0022 142.569 56.0022C131.939 67.8949 130.883 59.6073 121.754 50.2886Z"
          fill="#28343D"
  />
  <path
          fillRule="evenodd"
          clipRule="evenodd"
          d="M130.476 68.798C132.028 68.4669 133.732 67.8941 135.507 66.9437C142.334 63.2889 142.614 55.1406 142.584 53.0854C142.555 51.0298 141.939 41.0758 133.6 44.0409C128.215 45.9556 122.3 49.8217 118.783 52.3216C123.687 57.0839 127.654 62.7188 130.476 68.798Z"
          stroke="#152633"
          strokeWidth="2"
  />
  <path
          fillRule="evenodd"
          clipRule="evenodd"
          d="M49.7826 47.0154C50.4857 47.8284 51.2117 48.5168 51.9351 49.1004C56.5982 45.3179 61.9339 42.2807 67.7202 40.2811C65.6462 37.1702 62.1154 32.3047 58.4088 29.1318C52.6002 24.1596 49.0228 31.998 48.363 33.6466C47.7031 35.2955 45.407 41.9543 49.7826 47.0154Z"
          fill="#2D3B45"
  />
  <path
          d="M50.8985 29.4626C45.7142 35.1358 45.9453 44.2685 51.9351 49.1005C56.5982 45.318 61.9339 42.2808 67.7202 40.2811C67.3591 39.7395 66.9538 39.1447 66.5111 38.5148C56.2493 42.8667 42.9324 45.3634 50.8985 29.4626Z"
          fill="#28343D"
  />
  <path
          fillRule="evenodd"
          clipRule="evenodd"
          d="M49.7826 47.0154C50.4857 47.8284 51.2117 48.5168 51.9351 49.1004C56.5982 45.318 61.9339 42.2807 67.7202 40.2811C65.6462 37.1702 62.1154 32.3047 58.4088 29.1318C52.6002 24.1596 49.0228 31.998 48.363 33.6466C47.7031 35.2955 45.407 41.9543 49.7826 47.0154Z"
          stroke="#152633"
          strokeWidth="2"
  />
  <path
          fillRule="evenodd"
          clipRule="evenodd"
          d="M33.6771 78.7166C29.4174 101.707 47.9225 117.845 76.4917 123.138C105.06 128.431 126.137 118.978 132.738 97.5544C139.866 74.4223 120.775 43.6035 92.2063 38.3107C63.6375 33.0181 38.1564 54.5371 33.6771 78.7166Z"
          fill="white"
  />
  <path
          d="M47.8618 111.842C54.8304 116.142 63.5523 119.296 73.4925 121.137C102.061 126.431 123.138 116.978 129.739 95.5543C135.037 78.3604 125.85 56.9196 109.052 44.8712C127.735 56.4169 138.345 79.3626 132.739 97.5543C126.138 118.978 105.061 128.431 76.4925 123.137C65.0693 121.021 55.2551 117.171 47.8618 111.842Z"
          fill="#EDEDED"
  />
  <path
          fillRule="evenodd"
          clipRule="evenodd"
          d="M33.6771 78.7166C29.4174 101.707 47.9225 117.845 76.4917 123.138C105.06 128.431 126.137 118.978 132.738 97.5544C139.866 74.4223 120.775 43.6035 92.2063 38.3107C63.6375 33.0181 38.1564 54.5371 33.6771 78.7166Z"
          stroke="#152633"
          strokeWidth="2"
  />
  <path
          fillRule="evenodd"
          clipRule="evenodd"
          d="M71.5599 98.9643C71.9453 96.8845 68.7967 94.5574 64.5282 93.7664C60.2591 92.9756 56.4862 94.0202 56.1007 96.1003C55.7157 98.1801 58.8638 100.507 63.1325 101.298C67.4016 102.089 71.1746 101.044 71.5599 98.9643Z"
          fill="#152633"
  />
  <path
          d="M63.0685 100.002C62.0685 101.502 63.0685 104.502 63.0685 104.502M63.0685 104.502C64.5685 107.502 72.5685 109.502 77.5685 105.502M63.0685 104.502C58.0685 107.002 52.5688 103.002 53.5685 101.002"
          stroke="#152633"
          strokeWidth="2"
          strokeLinecap="round"
  />
  <path
          fillRule="evenodd"
          clipRule="evenodd"
          d="M96.2147 107.412C86.1335 105.545 77.4925 92.2429 79.7673 79.9632C82.31 66.2366 92.9498 53.9031 101.727 55.5292C106.096 56.3382 110.707 60.6023 113.966 66.9746C117.264 73.4214 118.559 80.9022 117.44 86.9427C115.02 100.006 105.427 109.119 96.2147 107.412Z"
          fill="#2D3B45"
          stroke="#152633"
          strokeWidth="2"
  />
  <path
          fillRule="evenodd"
          clipRule="evenodd"
          d="M88.3002 78.9501C85.975 79.1913 84.3976 82.3496 84.7768 86.0032C85.1558 89.6575 87.3485 92.4235 89.6737 92.1823C91.999 91.9407 93.5765 88.7832 93.1974 85.1293C92.8179 81.4752 90.6253 78.7088 88.3002 78.9501Z"
          fill="white"
  />
  <path
          fillRule="evenodd"
          clipRule="evenodd"
          d="M58.7094 87.1088C55.0269 90.9109 51.3049 92.511 48.2451 92.0284C48.1904 92.02 48.1391 92.0114 48.0898 92.0022C45.9047 91.5973 43.3207 89.9579 41.8426 87.8676C38.2382 82.7728 37.2173 77.7271 38.6307 70.0982C40.8591 58.0702 55.1739 44.7038 63.8067 46.3029C65.6784 46.6497 67.0839 47.5682 68.0401 49.057C70.8863 53.489 70.1747 62.4775 66.7044 73.5899C65.2142 78.3638 62.3339 83.3663 58.7094 87.1088Z"
          fill="#2D3B45"
          stroke="#152633"
          strokeWidth="2"
  />
  <path
          fillRule="evenodd"
          clipRule="evenodd"
          d="M52.2722 77.0743C50.9096 79.7588 51.1893 82.6382 52.8976 83.5052C54.6061 84.3728 57.0954 82.8995 58.4583 80.2152C59.8213 77.5308 59.541 74.6517 57.8333 73.7844C56.1252 72.917 53.635 74.3904 52.2722 77.0743Z"
          fill="white"
  />
  <path
          d="M78.0694 112.502C76.5693 115.502 70.5693 112.002 70.0693 108.002C73.0675 108.002 74.5675 107.502 77.5675 105.502C75.0669 108.502 79.5694 109.502 78.0694 112.502Z"
          fill="#F49696"
          stroke="#152633"
          strokeWidth="2"
          strokeLinejoin="round"
  />
  <path
          fillRule="evenodd"
          clipRule="evenodd"
          d="M130.476 68.798C132.028 68.4669 133.732 67.8941 135.507 66.9437C142.334 63.2889 142.614 55.1406 142.584 53.0854C142.555 51.0298 141.939 41.0758 133.6 44.0409C128.215 45.9556 122.3 49.8217 118.783 52.3216C123.687 57.0839 127.654 62.7188 130.476 68.798Z"
          fill="#2D3B45"
  />
  <path
          d="M121.754 50.2886C120.649 51.0157 119.644 51.7096 118.783 52.3216C123.687 57.0839 127.654 62.7189 130.476 68.7981C134.856 67.8636 141.569 64.0022 142.569 56.0022C131.939 67.8949 130.883 59.6073 121.754 50.2886Z"
          fill="#28343D"
  />
  <path
          fillRule="evenodd"
          clipRule="evenodd"
          d="M130.476 68.798C132.028 68.4669 133.732 67.8941 135.507 66.9437C142.334 63.2889 142.614 55.1406 142.584 53.0854C142.555 51.0298 141.939 41.0758 133.6 44.0409C128.215 45.9556 122.3 49.8217 118.783 52.3216C123.687 57.0839 127.654 62.7188 130.476 68.798Z"
          stroke="#152633"
          strokeWidth="2"
  />
  <path
          fillRule="evenodd"
          clipRule="evenodd"
          d="M49.7826 47.0154C50.4857 47.8284 51.2117 48.5168 51.9351 49.1004C56.5982 45.3179 61.9339 42.2807 67.7202 40.2811C65.6462 37.1702 62.1154 32.3047 58.4088 29.1318C52.6002 24.1596 49.0228 31.998 48.363 33.6466C47.7031 35.2955 45.407 41.9543 49.7826 47.0154Z"
          fill="#2D3B45"
  />
  <path
          d="M50.8985 29.4626C45.7142 35.1358 45.9453 44.2685 51.9351 49.1005C56.5982 45.318 61.9339 42.2808 67.7202 40.2811C67.3591 39.7395 66.9538 39.1447 66.5111 38.5148C56.2493 42.8667 42.9324 45.3634 50.8985 29.4626Z"
          fill="#28343D"
  />
  <path
          fillRule="evenodd"
          clipRule="evenodd"
          d="M49.7826 47.0154C50.4857 47.8284 51.2117 48.5168 51.9351 49.1004C56.5982 45.318 61.9339 42.2807 67.7202 40.2811C65.6462 37.1702 62.1154 32.3047 58.4088 29.1318C52.6002 24.1596 49.0228 31.998 48.363 33.6466C47.7031 35.2955 45.407 41.9543 49.7826 47.0154Z"
          stroke="#152633"
          strokeWidth="2"
  />
  <path
          fillRule="evenodd"
          clipRule="evenodd"
          d="M33.6771 78.7166C29.4174 101.707 47.9225 117.845 76.4917 123.138C105.06 128.431 126.137 118.978 132.738 97.5544C139.866 74.4223 120.775 43.6035 92.2063 38.3107C63.6375 33.0181 38.1564 54.5371 33.6771 78.7166Z"
          fill="white"
  />
  <path
          fillRule="evenodd"
          clipRule="evenodd"
          d="M70.8706 113.248C72.0008 114.389 73.0771 115.007 74.0438 115.041C75.0444 115.076 75.9476 114.487 76.7278 113.29C77.1544 112.637 77.562 111.92 77.9417 111.192C75.1441 111.117 72.6456 111.671 70.8706 113.248ZM81.7245 105.666C80.999 107.763 79.9932 110.637 77.8041 113.992C76.7752 115.569 75.4596 116.376 73.9997 116.325C73.5955 116.311 73.1876 116.233 72.7768 116.091C70.7531 115.391 68.649 113.135 66.5026 109.37C64.3857 109.136 62.6807 108.662 61.5803 108.282C60.7677 108 60.2819 107.771 60.1965 107.73C59.3689 107.284 59.7365 106.221 60.7554 106.574C60.8441 106.617 69.291 110.56 78.8157 105.972C78.8439 105.958 79.893 105.552 80.7859 104.906C81.8954 104.015 82.2082 104.268 81.7245 105.666Z"
          fill="#152633"
  />
  <path
          d="M47.8618 111.842C106.067 142.002 165.067 95.5023 109.052 44.8712C127.735 56.4169 138.345 79.3626 132.739 97.5543C126.138 118.978 105.061 128.431 76.4925 123.137C65.0693 121.021 55.2551 117.171 47.8618 111.842Z"
          fill="#EDEDED"
  />
  <path
          fillRule="evenodd"
          clipRule="evenodd"
          d="M33.6771 78.7166C29.4174 101.707 47.9225 117.845 76.4917 123.138C105.06 128.431 126.137 118.978 132.738 97.5544C139.866 74.4223 120.775 43.6035 92.2063 38.3107C63.6375 33.0181 38.1564 54.5371 33.6771 78.7166Z"
          stroke="#152633"
          strokeWidth="2"
  />
  <path
          fillRule="evenodd"
          clipRule="evenodd"
          d="M71.5599 98.9643C71.9453 96.8845 68.7967 94.5574 64.5282 93.7664C60.2591 92.9756 56.4862 94.0202 56.1007 96.1003C55.7157 98.1801 58.8638 100.507 63.1325 101.298C67.4016 102.089 71.1746 101.044 71.5599 98.9643Z"
          fill="#152633"
  />
  <path
          fillRule="evenodd"
          clipRule="evenodd"
          d="M96.2147 107.412C86.1335 105.545 77.4925 92.2429 79.7673 79.9632C82.31 66.2366 92.9498 53.9031 101.727 55.5292C106.096 56.3382 110.707 60.6023 113.966 66.9746C117.264 73.4214 118.559 80.9022 117.44 86.9427C115.02 100.006 105.427 109.119 96.2147 107.412Z"
          fill="#2D3B45"
          stroke="#152633"
          strokeWidth="2"
  />
  <path
          fillRule="evenodd"
          clipRule="evenodd"
          d="M88.3004 79.95C85.9752 80.1912 84.3978 83.3495 84.7771 87.0031C85.156 90.6574 87.3488 93.4234 89.674 93.1822C91.9993 92.9406 93.5768 89.7831 93.1977 86.1292C92.8182 82.4751 90.6256 79.7087 88.3004 79.95Z"
          fill="white"
  />
  <path
          fillRule="evenodd"
          clipRule="evenodd"
          d="M58.7094 87.1088C55.0269 90.9109 51.3049 92.511 48.2451 92.0284C48.1904 92.02 48.1391 92.0114 48.0898 92.0022C45.9047 91.5973 43.3207 89.9579 41.8426 87.8676C38.2382 82.7728 37.2173 77.7271 38.6307 70.0982C40.8591 58.0702 55.1739 44.7038 63.8067 46.3029C65.6784 46.6497 67.0839 47.5682 68.0401 49.057C70.8863 53.489 70.1747 62.4775 66.7044 73.5899C65.2142 78.3638 62.3339 83.3663 58.7094 87.1088Z"
          fill="#2D3B45"
          stroke="#152633"
          strokeWidth="2"
  />
  <path
          fillRule="evenodd"
          clipRule="evenodd"
          d="M52.2722 77.0743C50.9096 79.7588 51.1893 82.6382 52.8976 83.5052C54.6061 84.3728 57.0954 82.8995 58.4583 80.2152C59.8213 77.5308 59.541 74.6517 57.8333 73.7844C56.1252 72.917 53.635 74.3904 52.2722 77.0743Z"
          fill="white"
  />
</svg>
