<svg width="18" height="18" viewBox="0 0 18 18" fill="none" xmlns="http://www.w3.org/2000/svg">
<path d="M10.2974 3.00003C10.1656 2.77272 9.97631 2.58404 9.7486 2.45288C9.52088 2.32172 9.26271 2.25269 8.99993 2.25269C8.73714 2.25269 8.47897 2.32172 8.25126 2.45288C8.02355 2.58404 7.83429 2.77272 7.70243 3.00003L1.70243 13.5C1.57084 13.7279 1.50153 13.9865 1.50146 14.2496C1.5014 14.5128 1.57057 14.7714 1.70204 14.9994C1.83351 15.2273 2.02265 15.4167 2.25047 15.5485C2.47828 15.6803 2.73675 15.7498 2.99993 15.75H14.9999C15.2631 15.7498 15.5216 15.6803 15.7494 15.5485C15.9772 15.4167 16.1663 15.2273 16.2978 14.9994C16.4293 14.7714 16.4985 14.5128 16.4984 14.2496C16.4983 13.9865 16.429 13.7279 16.2974 13.5L10.2974 3.00003Z" stroke="#273540" stroke-width="1.5" stroke-linecap="round" stroke-linejoin="round"/>
</svg>
