<svg width="18" height="18" viewBox="0 0 18 18" fill="none" xmlns="http://www.w3.org/2000/svg">
<g clip-path="url(#clip0_4232_25009)">
<path d="M2.02493 7.725C1.85689 7.89287 1.72359 8.09221 1.63264 8.31162C1.54169 8.53104 1.49487 8.76623 1.49487 9.00375C1.49487 9.24127 1.54169 9.47646 1.63264 9.69588C1.72359 9.9153 1.85689 10.1146 2.02493 10.2825L7.71743 15.975C7.8853 16.143 8.08464 16.2763 8.30405 16.3673C8.52347 16.4582 8.75866 16.5051 8.99618 16.5051C9.2337 16.5051 9.46889 16.4582 9.68831 16.3673C9.90773 16.2763 10.1071 16.143 10.2749 15.975L15.9674 10.2825C16.1355 10.1146 16.2688 9.9153 16.3597 9.69588C16.4507 9.47646 16.4975 9.24127 16.4975 9.00375C16.4975 8.76623 16.4507 8.53104 16.3597 8.31162C16.2688 8.09221 16.1355 7.89287 15.9674 7.725L10.2749 2.0325C10.1071 1.86446 9.90773 1.73116 9.68831 1.64021C9.46889 1.54926 9.2337 1.50244 8.99618 1.50244C8.75866 1.50244 8.52347 1.54926 8.30405 1.64021C8.08464 1.73116 7.8853 1.86446 7.71743 2.0325L2.02493 7.725Z" stroke="#273540" stroke-width="1.5" stroke-linecap="round" stroke-linejoin="round"/>
</g>
<defs>
<clipPath id="clip0_4232_25009">
<rect width="18" height="18" fill="white"/>
</clipPath>
</defs>
</svg>
