<svg width="18" height="18" viewBox="0 0 18 18" fill="none" xmlns="http://www.w3.org/2000/svg">
<g clip-path="url(#clip0_4232_25014)">
<path d="M9.00012 4.5V9L11.7331 10.3665M12.0001 14.25H16.5001M14.2501 12V16.5M16.4401 9.95023C16.6383 8.39826 16.3461 6.82317 15.6045 5.44551C14.8629 4.06785 13.7091 2.9566 12.3045 2.26735C10.8999 1.57811 9.31497 1.34538 7.77155 1.60175C6.22812 1.85812 4.80351 2.59075 3.69719 3.69707C2.59088 4.80339 1.85824 6.228 1.60187 7.77142C1.3455 9.31485 1.57823 10.8998 2.26748 12.3044C2.95672 13.709 4.06797 14.8628 5.44563 15.6044C6.82329 16.346 8.39838 16.6381 9.95035 16.44" stroke="#273540" stroke-width="1.5" stroke-linecap="round" stroke-linejoin="round"/>
</g>
<defs>
<clipPath id="clip0_4232_25014">
<rect width="18" height="18" fill="white"/>
</clipPath>
</defs>
</svg>
