<svg width="18" height="18" viewBox="0 0 18 18" fill="none" xmlns="http://www.w3.org/2000/svg">
<path d="M9.00006 4.5V9L12.0001 10.5M15.0001 9V12.75M15.0001 15.75H15.0076M15.9375 6.15002C15.3718 4.77105 14.408 3.59192 13.1692 2.76311C11.9304 1.93431 10.4727 1.49342 8.98217 1.49672C7.49167 1.50002 6.03595 1.94736 4.8008 2.78165C3.56565 3.61593 2.6071 4.79932 2.04748 6.18078C1.48786 7.56225 1.35255 9.07913 1.65883 10.5378C1.9651 11.9965 2.69907 13.3309 3.76705 14.3706C4.83503 15.4103 6.18859 16.1083 7.65498 16.3753C9.12137 16.6424 10.6341 16.4665 12 15.87" stroke="#273540" stroke-width="1.5" stroke-linecap="round" stroke-linejoin="round"/>
</svg>
