<svg width="18" height="18" viewBox="0 0 18 18" fill="none" xmlns="http://www.w3.org/2000/svg">
<path d="M9 12.75H9.0075M6.82498 6.74994C7.00497 6.25392 7.35356 5.83693 7.80983 5.57187C8.2661 5.3068 8.80101 5.21054 9.32106 5.29989C9.84112 5.38925 10.3132 5.65854 10.6548 6.0607C10.9965 6.46285 11.1859 6.97229 11.19 7.49994C11.19 8.99994 8.93998 9.74994 8.93998 9.74994M11.25 1.5H4.5C4.10218 1.5 3.72064 1.65804 3.43934 1.93934C3.15804 2.22064 3 2.60218 3 3V15C3 15.3978 3.15804 15.7794 3.43934 16.0607C3.72064 16.342 4.10218 16.5 4.5 16.5H13.5C13.8978 16.5 14.2794 16.342 14.5607 16.0607C14.842 15.7794 15 15.3978 15 15V5.25L11.25 1.5Z" stroke="#273540" stroke-width="1.5" stroke-linecap="round" stroke-linejoin="round"/>
</svg>
