<svg width="18" height="18" viewBox="0 0 18 18" fill="none" xmlns="http://www.w3.org/2000/svg">
<path d="M7.5 13.5L9.75 11.25M9.75 11.25L7.5 9M9.75 11.25H4.5C4.10218 11.25 3.72064 11.408 3.43934 11.6893C3.15804 11.9706 3 12.3522 3 12.75V15C3 15.3978 3.15804 15.7794 3.43934 16.0607C3.72064 16.342 4.10218 16.5 4.5 16.5H13.5C13.8978 16.5 14.2794 16.342 14.5607 16.0607C14.842 15.7794 15 15.3978 15 15V5.25L11.25 1.5H4.5C4.10218 1.5 3.72064 1.65804 3.43934 1.93934C3.15804 2.22064 3 2.60218 3 3V8.25M10.5 1.5V4.5C10.5 4.89782 10.658 5.27936 10.9393 5.56066C11.2206 5.84196 11.6022 6 12 6H15" stroke="#273540" stroke-width="1.5" stroke-linecap="round" stroke-linejoin="round"/>
</svg>
