<svg id="e8f8ba14-2ded-4e57-94c8-b8a36caadd0d" data-name="Layer 1" xmlns="http://www.w3.org/2000/svg" xmlns:xlink="http://www.w3.org/1999/xlink" viewBox="0 0 445.36 444.12"><defs><style>.a779e723-503f-4643-8f34-329727d546de,.b9b2e190-25cd-4f6f-b78d-e6b6f4c36525{fill:#ffe05c;}.af74c65c-f8f5-405f-961c-37abaa23ba38,.b9b2e190-25cd-4f6f-b78d-e6b6f4c36525{stroke:#f9c33d;stroke-miterlimit:10;stroke-width:10px;}.e4305fe9-8dbb-4253-8176-6a9010ac278e{fill:#dd366a;}.af74c65c-f8f5-405f-961c-37abaa23ba38{fill:none;}.bbc61f75-b98c-4822-8ddf-2b5060c89746{clip-path:url(#e3d36371-8c95-4ea9-9bdb-159bd2f51130);}.bfbed10d-0207-4b4d-ab23-2166953dfdfa{fill:#ffe780;}.aa6d56d5-25e2-414b-b37e-fb2255ec307f{fill:#a87136;}.bf89a93b-c125-4ef7-b5ef-65e4f6c8608c{fill:#ef7d9d;}.aa4f85a5-b568-4c73-a000-bedf83de3a24{clip-path:url(#a23b8fc4-72bf-4b67-8447-57b3ad4caa49);}</style><clipPath id="e3d36371-8c95-4ea9-9bdb-159bd2f51130" transform="translate(-726.09 -158.91)"><circle class="b9b2e190-25cd-4f6f-b78d-e6b6f4c36525" cx="949.16" cy="380.97" r="146.09"/></clipPath><clipPath id="a23b8fc4-72bf-4b67-8447-57b3ad4caa49" transform="translate(-726.09 -158.91)"><path class="e4305fe9-8dbb-4253-8176-6a9010ac278e" d="M974.39,384.39c0,19.48-19.74,35.28-44.08,35.28s-44.07-15.8-44.07-35.28"/></clipPath></defs><title>sunny</title><polygon class="b9b2e190-25cd-4f6f-b78d-e6b6f4c36525" points="330.27 39.72 262.3 78.97 330.27 118.21 330.27 39.72"/><polygon class="b9b2e190-25cd-4f6f-b78d-e6b6f4c36525" points="407.38 117.52 328.89 117.52 368.13 185.49 407.38 117.52"/><polygon class="b9b2e190-25cd-4f6f-b78d-e6b6f4c36525" points="435.36 222.06 367.39 182.82 367.39 261.3 435.36 222.06"/><polygon class="b9b2e190-25cd-4f6f-b78d-e6b6f4c36525" points="407.29 330.2 368.05 262.23 328.81 330.2 407.29 330.2"/><polygon class="b9b2e190-25cd-4f6f-b78d-e6b6f4c36525" points="331.27 405.39 331.27 326.91 263.3 366.15 331.27 405.39"/><polygon class="b9b2e190-25cd-4f6f-b78d-e6b6f4c36525" points="115.85 39.72 115.85 118.21 183.82 78.97 115.85 39.72"/><polygon class="b9b2e190-25cd-4f6f-b78d-e6b6f4c36525" points="36.73 119.21 75.97 187.18 115.21 119.21 36.73 119.21"/><polygon class="b9b2e190-25cd-4f6f-b78d-e6b6f4c36525" points="10 222.06 77.97 261.3 77.97 182.82 10 222.06"/><polygon class="b9b2e190-25cd-4f6f-b78d-e6b6f4c36525" points="38.07 326.2 116.55 326.2 77.31 258.23 38.07 326.2"/><polygon class="b9b2e190-25cd-4f6f-b78d-e6b6f4c36525" points="116.85 406.39 184.82 367.15 116.85 327.91 116.85 406.39"/><polygon class="b9b2e190-25cd-4f6f-b78d-e6b6f4c36525" points="223.06 434.12 262.3 366.15 183.82 366.15 223.06 434.12"/><polygon class="a779e723-503f-4643-8f34-329727d546de" points="223.06 10 183.82 77.97 262.3 77.97 223.06 10"/><polygon class="af74c65c-f8f5-405f-961c-37abaa23ba38" points="223.06 10 183.82 77.97 262.3 77.97 223.06 10"/><circle class="a779e723-503f-4643-8f34-329727d546de" cx="223.06" cy="222.06" r="146.09"/><g class="bbc61f75-b98c-4822-8ddf-2b5060c89746"><ellipse class="bfbed10d-0207-4b4d-ab23-2166953dfdfa" cx="919.92" cy="367.8" rx="152.55" ry="157.11" transform="translate(-755.78 -73.55) rotate(-5.23)"/></g><circle class="af74c65c-f8f5-405f-961c-37abaa23ba38" cx="223.06" cy="222.06" r="146.09"/><circle class="aa6d56d5-25e2-414b-b37e-fb2255ec307f" cx="150.93" cy="202.38" r="13.61"/><circle class="aa6d56d5-25e2-414b-b37e-fb2255ec307f" cx="257.51" cy="202.38" r="13.61"/><ellipse class="bf89a93b-c125-4ef7-b5ef-65e4f6c8608c" cx="126.57" cy="229.89" rx="19.35" ry="12.49"/><ellipse class="bf89a93b-c125-4ef7-b5ef-65e4f6c8608c" cx="281.87" cy="229.89" rx="19.35" ry="12.49"/><path class="e4305fe9-8dbb-4253-8176-6a9010ac278e" d="M974.39,384.39c0,19.48-19.74,35.28-44.08,35.28s-44.07-15.8-44.07-35.28" transform="translate(-726.09 -158.91)"/><g class="aa4f85a5-b568-4c73-a000-bedf83de3a24"><ellipse class="bf89a93b-c125-4ef7-b5ef-65e4f6c8608c" cx="204.22" cy="263.45" rx="44.07" ry="24.97"/></g></svg>