<?xml version="1.0" encoding="UTF-8"?>
<svg width="102px" height="150px" viewBox="0 0 102 150" version="1.1" xmlns="http://www.w3.org/2000/svg" xmlns:xlink="http://www.w3.org/1999/xlink">
    <!-- Generator: Sketch 52.6 (67491) - http://www.bohemiancoding.com/sketch -->
    <title>Illustrations/Errors/Permissions Lock@2x</title>
    <desc>Created with Sketch.</desc>
    <defs>
        <polygon id="path-1" points="0.9747 0.814 81.0257 0.814 81.0257 63.0746 0.9747 63.0746"></polygon>
        <polygon id="path-3" points="0 150.186 102 150.186 102 1 0 1"></polygon>
    </defs>
    <g id="Page-1" stroke="none" stroke-width="1" fill="none" fill-rule="evenodd">
        <g id="Illustrations" transform="translate(-151.000000, -382.000000)">
            <g id="Illustrations/Errors/Permissions-Lock" transform="translate(151.000000, 381.000000)">
                <g id="Group-15">
                    <path d="M28.1602,62.0747 L12.1602,62.0747 L12.1602,41.0257 C12.1602,19.6097 29.5842,2.1857 51.0002,2.1857 C72.4162,2.1857 89.8402,19.6097 89.8402,41.0257 L89.8402,61.2917 L73.8402,61.2917 L73.8402,41.0257 C73.8402,28.4317 63.5942,18.1857 51.0002,18.1857 C38.4062,18.1857 28.1602,28.4317 28.1602,41.0257 L28.1602,62.0747 Z" id="Fill-1" fill="#ECEEEF"></path>
                    <g id="Group-5" transform="translate(10.000000, 0.186000)">
                        <mask id="mask-2" fill="white">
                            <use xlink:href="#path-1"></use>
                        </mask>
                        <g id="Clip-4"></g>
                        <path d="M3.3457,60.7026 L16.9747,60.7026 L16.9747,40.8396 C16.9747,27.5916 27.7517,16.8136 40.9997,16.8136 C54.2477,16.8136 65.0257,27.5916 65.0257,40.8396 L65.0257,59.9196 L78.6547,59.9196 L78.6547,40.8396 C78.6547,20.0776 61.7627,3.1856 40.9997,3.1856 C20.2377,3.1856 3.3457,20.0776 3.3457,40.8396 L3.3457,60.7026 Z M19.3457,63.0746 L0.9747,63.0746 L0.9747,40.8396 C0.9747,18.7696 18.9297,0.8136 40.9997,0.8136 C63.0707,0.8136 81.0257,18.7696 81.0257,40.8396 L81.0257,62.2916 L62.6547,62.2916 L62.6547,40.8396 C62.6547,28.8996 52.9407,19.1856 40.9997,19.1856 C29.0597,19.1856 19.3457,28.8996 19.3457,40.8396 L19.3457,63.0746 Z" id="Fill-3" fill="#243038" mask="url(#mask-2)"></path>
                    </g>
                    <path d="M95,149.186 L7,149.186 C3.687,149.186 1,146.499 1,143.186 L1,65.186 C1,61.873 3.687,59.186 7,59.186 L95,59.186 C98.313,59.186 101,61.873 101,65.186 L101,143.186 C101,146.499 98.313,149.186 95,149.186" id="Fill-6" fill="#E5E7E9"></path>
                    <path d="M7,60.186 C4.243,60.186 2,62.429 2,65.186 L2,143.186 C2,145.943 4.243,148.186 7,148.186 L95,148.186 C97.757,148.186 100,145.943 100,143.186 L100,65.186 C100,62.429 97.757,60.186 95,60.186 L7,60.186 Z M95,150.186 L7,150.186 C3.141,150.186 0,147.046 0,143.186 L0,65.186 C0,61.326 3.141,58.186 7,58.186 L95,58.186 C98.859,58.186 102,61.326 102,65.186 L102,143.186 C102,147.046 98.859,150.186 95,150.186 Z" id="Fill-8" fill="#243038"></path>
                    <mask id="mask-4" fill="white">
                        <use xlink:href="#path-3"></use>
                    </mask>
                    <g id="Clip-11"></g>
                    <polygon id="Fill-10" fill="#B9D19A" mask="url(#mask-4)" points="1 139.186 101 139.186 101 69.186 1 69.186"></polygon>
                    <path d="M2,138.186 L100,138.186 L100,70.186 L2,70.186 L2,138.186 Z M0,140.186 L102,140.186 L102,68.186 L0,68.186 L0,140.186 Z" id="Fill-12" fill="#243038" mask="url(#mask-4)"></path>
                    <path d="M55.2363,105.8589 C58.2673,104.3139 60.3473,101.1699 60.3473,97.5339 C60.3473,92.3709 56.1623,88.1859 51.0003,88.1859 C45.8383,88.1859 41.6523,92.3709 41.6523,97.5339 C41.6523,101.1699 43.7323,104.3139 46.7633,105.8589 L41.9283,117.2749 C41.0583,119.3289 42.5663,121.6059 44.7983,121.6059 L57.2023,121.6059 C59.4333,121.6059 60.9413,119.3289 60.0713,117.2749 L55.2363,105.8589 Z" id="Fill-13" fill="#798792" mask="url(#mask-4)"></path>
                    <path d="M51,89.186 C46.397,89.186 42.652,92.931 42.652,97.534 C42.652,100.684 44.401,103.532 47.218,104.968 L48.048,105.391 L42.85,117.665 C42.568,118.33 42.635,119.056 43.034,119.658 C43.433,120.26 44.075,120.605 44.798,120.605 L57.202,120.605 C57.925,120.605 58.567,120.26 58.966,119.658 C59.365,119.056 59.432,118.33 59.15,117.665 L53.952,105.391 L54.782,104.968 C57.599,103.532 59.348,100.684 59.348,97.534 C59.348,92.931 55.603,89.186 51,89.186 M57.202,122.605 L44.798,122.605 C43.414,122.605 42.131,121.916 41.366,120.763 C40.603,119.609 40.468,118.159 41.008,116.884 L45.496,106.289 C42.486,104.402 40.652,101.126 40.652,97.534 C40.652,91.828 45.294,87.186 51,87.186 C56.706,87.186 61.348,91.828 61.348,97.534 C61.348,101.126 59.514,104.402 56.504,106.289 L60.992,116.884 C61.532,118.159 61.397,119.609 60.634,120.763 C59.869,121.916 58.586,122.605 57.202,122.605" id="Fill-14" fill="#243038" mask="url(#mask-4)"></path>
                </g>
            </g>
        </g>
    </g>
</svg>