<?xml version="1.0" encoding="utf-8"?>
<!-- Generator: Adobe Illustrator 22.1.0, SVG Export Plug-In . SVG Version: 6.00 Build 0)  -->
<svg version="1.1" id="Layer_1" xmlns="http://www.w3.org/2000/svg" xmlns:xlink="http://www.w3.org/1999/xlink" x="0px" y="0px"
	 viewBox="0 0 338.1 250" style="enable-background:new 0 0 338.1 250;" xml:space="preserve">
<style type="text/css">
	.st0{fill:#90D2F4;}
	.st1{fill:#8FDE99;}
	.st2{fill:#E6A8DB;}
	.st3{fill:#CFD4D8;}
	.st4{fill:#243038;}
	.st5{fill:#C0C6CB;}
	.st6{fill:#E5E7E9;}
	.st7{fill:#D0D4D8;}
	.st8{fill:#9AD6F5;}
	.st9{fill:#F77276;}
	.st10{fill:#F55157;}
	.st11{fill:#F3F5F6;}
	.st12{fill:#82909A;}
	.st13{fill:#FFFFFF;}
</style>
<path class="st0" d="M21.5,28.9c2.2,0.9,3.7,2.5,4.6,4.6c0.9-2.2,2.5-3.7,4.6-4.6c-2.2-0.9-3.7-2.5-4.6-4.6
	C25.3,26.5,23.7,28,21.5,28.9z"/>
<path class="st1" d="M283.9,15.9c3.8,1.3,6.4,3.9,7.7,7.7c1.3-3.8,3.9-6.4,7.7-7.7c-3.8-1.3-6.4-3.9-7.7-7.7
	C290.3,12.1,287.7,14.6,283.9,15.9z"/>
<path class="st2" d="M297.5,225.4c7.2,1.9,11.7,6.4,13.5,13.5c1.9-7.2,6.4-11.7,13.5-13.5c-7.2-1.9-11.7-6.4-13.5-13.5
	C309.1,219,304.7,223.5,297.5,225.4z"/>
<g>
	<g>
		<path class="st3" d="M217.2,130l-4.5-2.1c3.4-7.3,16.5-16.2,31.8-21.6c24.9-8.8,41.5-4.5,49.2-1.1l-2,4.6
			c-11.9-5.2-28.5-4.7-45.6,1.3C234.4,115.1,220.3,123.1,217.2,130z"/>
		<path class="st4" d="M217.7,131.3l-6.4-2.9l0.4-0.9c3.5-7.6,16.8-16.7,32.4-22.2c25.2-8.9,42.1-4.5,49.9-1.1l0.9,0.4l-2.8,6.4
			l-0.9-0.4c-11.7-5.1-28-4.6-44.8,1.3c-11.6,4.1-25.4,12.1-28.3,18.5L217.7,131.3z M214,127.4l2.7,1.3c4-6.9,17.7-14.6,29-18.6
			c16.8-5.9,33.3-6.5,45.4-1.6l1.2-2.8c-7.9-3.2-23.9-6.8-47.6,1.6C230.3,112.3,217.9,120.5,214,127.4z"/>
	</g>
	<path class="st4" d="M218.7,126.1l-2.2-2c0.2-0.3,0.5-0.5,0.7-0.8l2.2,2.1C219.1,125.6,218.9,125.9,218.7,126.1z M224.4,121
		l-1.8-2.4c0.3-0.2,0.5-0.4,0.8-0.6l1.7,2.4C224.9,120.6,224.6,120.8,224.4,121z M231,116.7l-1.5-2.6c0.3-0.2,0.6-0.3,0.9-0.5
		l1.5,2.6C231.5,116.4,231.2,116.6,231,116.7z M238,113.2l-1.2-2.7l0.9-0.4l1.2,2.7L238,113.2z M245.3,110.2l-1-2.8l1-0.3l1,2.8
		L245.3,110.2z M292,108.8c-0.3-0.1-0.6-0.3-0.9-0.4l1.1-2.8c0.3,0.1,0.6,0.3,1,0.4L292,108.8z M252.8,107.9L252,105
		c0.3-0.1,0.7-0.2,1-0.3l0.7,2.9C253.4,107.7,253.1,107.8,252.8,107.9z M284.7,106.4c-0.3-0.1-0.6-0.1-0.9-0.2l0.6-2.9
		c0.3,0.1,0.7,0.1,1,0.2L284.7,106.4z M260.5,106.2l-0.5-3l1-0.2l0.5,3L260.5,106.2z M277,105.2c-0.3,0-0.6,0-1-0.1l0.2-3
		c0.3,0,0.7,0,1,0.1L277,105.2z M268.2,105.2l-0.2-3c0.3,0,0.7,0,1-0.1l0.2,3C268.9,105.2,268.6,105.2,268.2,105.2z"/>
</g>
<g>
	<g>
		<path class="st5" d="M293.1,118.2c-6.7,2.5-10.6,9.2-9.7,16c0.2,1.8,2.1,2.9,3.7,2.3l22.4-8.3c1.7-0.6,2.4-2.7,1.4-4.2
			C307.1,118.3,299.8,115.7,293.1,118.2z"/>
		<path class="st4" d="M286.1,137.7c-0.7,0-1.4-0.2-2-0.6c-1-0.6-1.6-1.6-1.8-2.8c-0.9-7.4,3.3-14.5,10.4-17.1s14.9,0,19,6.2
			c0.6,1,0.8,2.2,0.4,3.3c-0.4,1.1-1.2,2-2.3,2.4l-22.4,8.3C287,137.6,286.5,137.7,286.1,137.7z M298.3,118.3
			c-1.6,0-3.3,0.3-4.9,0.9l0,0c-6.2,2.3-9.9,8.4-9.1,15c0.1,0.5,0.4,1,0.8,1.3c0.5,0.3,1,0.3,1.6,0.1l22.4-8.3
			c0.5-0.2,0.9-0.6,1.1-1.1s0.1-1.1-0.2-1.5C307.4,120.5,302.9,118.3,298.3,118.3z"/>
	</g>
	<g>
		<path class="st5" d="M310.3,111.8c-6.7,2.5-10.6,9.2-9.7,16c0.2,1.8,2.1,2.9,3.7,2.3l22.4-8.3c1.7-0.6,2.4-2.7,1.4-4.2
			C324.4,111.9,317,109.4,310.3,111.8z"/>
		<path class="st4" d="M303.4,131.3c-0.7,0-1.4-0.2-2-0.6c-1-0.6-1.6-1.6-1.8-2.8c-0.9-7.4,3.3-14.5,10.4-17.1l0,0
			c7-2.6,14.9,0,19,6.2c0.6,1,0.8,2.2,0.4,3.3c-0.4,1.1-1.2,2-2.3,2.4l-22.4,8.3C304.3,131.2,303.8,131.3,303.4,131.3z M310.7,112.8
			c-6.2,2.3-9.9,8.4-9.1,15c0.1,0.5,0.4,1,0.8,1.3c0.5,0.3,1,0.3,1.6,0.2l22.4-8.3c0.5-0.2,0.9-0.6,1.1-1.1s0.1-1.1-0.2-1.5
			C323.7,112.7,316.9,110.5,310.7,112.8L310.7,112.8z"/>
	</g>
	<g>
		<path class="st6" d="M318.7,124.8c-0.6-7-2.5-15.2-5.6-23.8c-7.8-21.2-20.6-36.1-28.5-33.2s-7.9,22.5-0.1,43.7
			c3.1,8.5,7.1,16,11.2,21.7L318.7,124.8z"/>
		<path class="st4" d="M295.3,134.5l-0.4-0.6c-4.3-6-8.2-13.6-11.3-21.9c-3.8-10.4-5.9-20.7-5.9-29.1c0-8.7,2.4-14.4,6.6-15.9
			c8.5-3.2,21.6,11.7,29.8,33.7c3.1,8.3,5,16.6,5.7,24l0.1,0.8L295.3,134.5z M286.7,68.5c-0.6,0-1.2,0.1-1.8,0.3
			c-3.3,1.2-5.3,6.4-5.3,14.1c0,8.1,2,18.2,5.8,28.4c2.9,7.9,6.6,15.1,10.6,20.9l21.6-8c-0.7-7-2.6-14.9-5.5-22.7
			C305.2,82.7,294.1,68.5,286.7,68.5z"/>
	</g>
	<g>
		<polygon class="st7" points="316.4,133.1 302.8,138.2 298.3,132.3 316.1,125.8 		"/>
		<path class="st4" d="M302.5,139.3l-5.8-7.5l20.4-7.5l0.4,9.4L302.5,139.3z M299.9,132.8l3.2,4.1l12.2-4.5l-0.2-5.3L299.9,132.8z"
			/>
	</g>
	<g>
		<circle class="st5" cx="298.4" cy="105.3" r="8.8"/>
		<path class="st4" d="M298.4,115.1c-4,0-7.7-2.4-9.2-6.4c-0.9-2.5-0.8-5.1,0.3-7.5c1.1-2.4,3-4.2,5.5-5.1
			c5.1-1.9,10.7,0.7,12.6,5.8c0.9,2.5,0.8,5.1-0.3,7.5c-1.1,2.4-3,4.2-5.5,5.1C300.7,114.9,299.5,115.1,298.4,115.1z M298.4,97.5
			c-0.9,0-1.8,0.2-2.7,0.5c-4,1.5-6.1,6-4.6,10s6,6.1,10,4.6s6.1-6,4.6-10l0,0C304.5,99.4,301.6,97.5,298.4,97.5z"/>
	</g>
	<g>
		<circle class="st8" cx="298.4" cy="105.3" r="6.1"/>
		<path class="st4" d="M298.4,112.4c-1,0-2-0.2-3-0.7c-1.7-0.8-3-2.2-3.7-4s-0.6-3.7,0.2-5.5c0.8-1.7,2.2-3,4-3.7
			c3.7-1.4,7.8,0.5,9.2,4.2c0.7,1.8,0.6,3.7-0.2,5.5c-0.8,1.7-2.2,3-4,3.7C300.1,112.3,299.2,112.4,298.4,112.4z M298.4,100.1
			c-0.6,0-1.2,0.1-1.8,0.3c-1.3,0.5-2.3,1.4-2.9,2.7c-0.6,1.2-0.6,2.6-0.2,3.9c0.5,1.3,1.4,2.3,2.7,2.9c1.2,0.6,2.6,0.6,3.9,0.2
			c1.3-0.5,2.3-1.4,2.9-2.7c0.6-1.2,0.6-2.6,0.2-3.9C302.5,101.4,300.5,100.1,298.4,100.1z"/>
	</g>
	
		<rect x="278.1" y="83.1" transform="matrix(0.9379 -0.3468 0.3468 0.9379 -11.1421 105.9758)" class="st4" width="24.9" height="2"/>
</g>
<g>
	<path class="st3" d="M86.3,238.3c-11.2,0-20.1-2-26.8-4.6c-14.1-5.4-24.7-15.2-29.9-27.8c-7-16.8-1.4-29.2,4-41.2
		c4.3-9.5,8.3-18.4,5.8-29.2c-2.7-11.6-10.2-16.1-18.2-20.8c-8.8-5.2-17.9-10.6-19.9-25.5c-2.2-17.1,3.1-31,14.8-39.1
		c12.2-8.5,29.8-9.2,43.8-1.8l-2.3,4.4c-12.4-6.5-28-5.9-38.6,1.5C8.9,61.2,4.4,73.4,6.3,88.6c1.6,12.5,8.9,16.8,17.4,21.8
		c8.1,4.8,17.4,10.2,20.5,23.9c2.9,12.4-1.7,22.6-6.1,32.4c-5.2,11.5-10.1,22.4-4,37.2c4.7,11.3,14.3,20.2,27,25
		c15.7,6,43.4,8.6,86.6-12.3l2.2,4.5C123.5,234,102.5,238.3,86.3,238.3z"/>
	<path class="st4" d="M86.3,239.3c-9.9,0-19.1-1.6-27.2-4.7c-14.3-5.4-25.1-15.5-30.5-28.3c-7.1-17.2-1.4-29.8,4.1-42
		c4.2-9.3,8.2-18.1,5.8-28.5c-2.6-11.2-9.9-15.5-17.7-20.1c-9-5.3-18.4-10.8-20.3-26.2C-1.7,72,3.7,57.8,15.7,49.4
		c12.5-8.7,30.5-9.4,44.9-1.9l0.9,0.5l-3.3,6.2l-0.9-0.5c-12.1-6.4-27.2-5.8-37.6,1.4C9.9,61.9,5.5,73.8,7.4,88.5
		c1.5,12,8.7,16.2,16.9,21.1c8.3,4.9,17.7,10.4,21,24.6c2.9,12.7-1.7,23-6.2,33c-5.1,11.3-9.9,22-4,36.5c4.6,11,14,19.7,26.5,24.5
		c15.5,5.9,42.9,8.5,85.8-12.3l0.9-0.4l3.1,6.3l-0.9,0.4C127,233.5,105.4,239.3,86.3,239.3z M39.3,44.2c-8.1,0-16.1,2.3-22.5,6.7
		C5.4,58.8,0.3,72.4,2.4,89.1c1.9,14.4,10.8,19.7,19.4,24.8c8.2,4.8,15.9,9.3,18.7,21.4c2.6,11.1-1.5,20.2-5.9,29.8
		c-5.3,11.8-10.8,24-4,40.4c5.1,12.3,15.5,22,29.3,27.2c7.9,3,16.8,4.5,26.5,4.5c18.5,0,39.5-5.6,62.4-16.5l-1.3-2.7
		c-43,20.6-70.7,17.9-86.4,11.9c-13-5-22.8-14-27.6-25.6c-6.3-15.2-1.3-26.3,4-38c4.4-9.7,8.9-19.6,6.1-31.7
		c-3.1-13.3-12.1-18.6-20.1-23.3c-8.7-5.1-16.3-9.6-17.9-22.5c-2-15.5,2.7-28.1,13.1-35.3c10.7-7.5,26.2-8.2,38.8-2l1.4-2.7
		C52.6,45.7,45.9,44.2,39.3,44.2z"/>
</g>
<g>
	<polygon class="st4" points="58.2,51.9 57.8,51.6 59.1,49 59.6,49.2 	"/>
	<path class="st4" d="M87.1,237.3v-3c0.3,0,0.7,0,1,0l0.1,3C87.8,237.2,87.4,237.2,87.1,237.3z M80,237c-0.3,0-0.7-0.1-1-0.1l0.3-3
		c0.3,0,0.6,0.1,1,0.1L80,237z M95.2,236.8l-0.3-3l1-0.1l0.3,3L95.2,236.8z M71.9,236c-0.3-0.1-0.7-0.1-1-0.2l0.6-2.9
		c0.3,0.1,0.6,0.1,1,0.2L71.9,236z M103.2,235.8l-0.5-3l1-0.2l0.5,3L103.2,235.8z M111.1,234.3l-0.7-2.9l1-0.2l0.7,2.9L111.1,234.3z
		 M64,234.1c-0.3-0.1-0.7-0.2-1-0.3l0.9-2.9c0.3,0.1,0.6,0.2,0.9,0.3L64,234.1z M118.9,232.2l-0.8-2.9l1-0.3l0.8,2.9L118.9,232.2z
		 M56.3,231.3c-0.3-0.1-0.6-0.3-0.9-0.4l1.3-2.7c0.3,0.1,0.6,0.3,0.9,0.4L56.3,231.3z M126.6,229.8l-1-2.8l0.9-0.3l1,2.8
		L126.6,229.8z M49.1,227.3c-0.3-0.2-0.6-0.4-0.9-0.6l1.7-2.5c0.3,0.2,0.5,0.4,0.8,0.5L49.1,227.3z M134.2,227l-1.1-2.8l0.9-0.4
		l1.1,2.8L134.2,227z M141.6,224l-1.2-2.7l0.9-0.4l1.2,2.7L141.6,224z M42.6,222.4c-0.3-0.2-0.5-0.5-0.8-0.7l2-2.2
		c0.2,0.2,0.5,0.4,0.7,0.7L42.6,222.4z M37,216.4c-0.2-0.3-0.4-0.5-0.6-0.8l2.4-1.8c0.2,0.3,0.4,0.5,0.6,0.8L37,216.4z M32.4,209.5
		c-0.2-0.3-0.3-0.6-0.5-0.9l2.7-1.4c0.1,0.3,0.3,0.6,0.4,0.9L32.4,209.5z M29.2,201.9c-0.1-0.3-0.2-0.7-0.3-1l2.9-0.8
		c0.1,0.3,0.2,0.6,0.3,0.9L29.2,201.9z M27.5,193.8c0-0.3-0.1-0.7-0.1-1l3-0.2c0,0.3,0,0.6,0.1,1L27.5,193.8z M30.7,185.9l-3-0.4
		c0-0.3,0.1-0.7,0.1-1l3,0.5C30.8,185.2,30.7,185.6,30.7,185.9z M32.4,178.4l-2.9-0.9c0.1-0.3,0.2-0.7,0.3-1l2.8,1
		C32.6,177.8,32.5,178.1,32.4,178.4z M35.2,171l-2.8-1.2l0.4-0.9l2.8,1.2L35.2,171z M38.4,163.8l-2.7-1.2l0.4-0.9l2.7,1.2
		L38.4,163.8z M41.5,156.3l-2.8-1c0.1-0.3,0.2-0.6,0.3-0.9l2.8,1C41.7,155.6,41.6,156,41.5,156.3z M43.7,148.4l-3-0.5
		c0.1-0.3,0.1-0.6,0.2-0.9l3,0.4C43.8,147.7,43.7,148,43.7,148.4z M41.2,140.2c0-0.3,0-0.6-0.1-0.9l3-0.3c0,0.3,0.1,0.7,0.1,1
		L41.2,140.2z M39.8,132.8c-0.1-0.3-0.2-0.6-0.3-0.9l2.8-1c0.1,0.3,0.2,0.7,0.3,1L39.8,132.8z M36.6,126c-0.2-0.3-0.4-0.5-0.5-0.8
		l2.4-1.8c0.2,0.3,0.4,0.6,0.6,0.9L36.6,126z M31.5,120.4c-0.2-0.2-0.5-0.4-0.7-0.6l1.9-2.3c0.3,0.2,0.5,0.4,0.8,0.7L31.5,120.4z
		 M25.2,115.9l-0.8-0.5l1.6-2.6l0.9,0.5L25.2,115.9z M18.4,111.8c-0.3-0.2-0.6-0.4-0.9-0.5l1.6-2.5c0.3,0.2,0.6,0.3,0.8,0.5
		L18.4,111.8z M11.7,107c-0.3-0.2-0.5-0.5-0.8-0.7l2-2.2c0.2,0.2,0.5,0.4,0.7,0.6L11.7,107z M6.2,100.6c-0.2-0.3-0.4-0.6-0.5-0.9
		l2.6-1.4c0.2,0.3,0.3,0.5,0.5,0.8L6.2,100.6z M3.1,92.8c-0.1-0.3-0.2-0.7-0.2-1l2.9-0.6c0.1,0.3,0.1,0.6,0.2,0.9L3.1,92.8z M2,84.7
		c0-0.3,0-0.7,0-1l3-0.1c0,0.3,0,0.6,0,1L2,84.7z M5.2,76.8l-3-0.3c0-0.3,0.1-0.7,0.1-1l3,0.4C5.3,76.2,5.3,76.5,5.2,76.8z
		 M6.8,69.3l-2.9-0.9c0.1-0.3,0.2-0.7,0.3-1l2.8,1C7,68.7,6.9,69,6.8,69.3z M10,62.4l-2.6-1.6c0.2-0.3,0.4-0.6,0.6-0.9l2.5,1.7
		C10.3,61.9,10.2,62.1,10,62.4z M14.7,56.5l-2.1-2.2c0.3-0.2,0.5-0.5,0.8-0.7l2,2.2C15.2,56.1,15,56.3,14.7,56.5z M20.8,51.9
		l-1.5-2.6c0.3-0.2,0.6-0.3,0.9-0.5l1.4,2.6C21.4,51.6,21.1,51.8,20.8,51.9z M51.5,49.1c-0.3-0.1-0.6-0.2-0.9-0.3l0.8-2.9
		c0.3,0.1,0.7,0.2,1,0.3L51.5,49.1z M27.8,48.9L26.9,46c0.3-0.1,0.7-0.2,1-0.3l0.8,2.9C28.4,48.7,28.1,48.8,27.8,48.9z M44,47.5
		c-0.3,0-0.6-0.1-1-0.1l0.3-3c0.3,0,0.7,0.1,1,0.1L44,47.5z M35.3,47.4l-0.3-3c0.3,0,0.7-0.1,1-0.1l0.2,3
		C36,47.4,35.7,47.4,35.3,47.4z"/>
	<polygon class="st4" points="149.1,220.5 147.8,217.8 148.3,217.6 149.6,220.3 	"/>
</g>
<g>
	<circle class="st9" cx="169.9" cy="148.3" r="95"/>
	<path class="st4" d="M169.9,53.3c52.5,0,95,42.5,95,95s-42.5,95-95,95s-95-42.5-95-95S117.4,53.3,169.9,53.3 M169.9,51.3
		c-53.5,0-97,43.5-97,97s43.5,97,97,97s97-43.5,97-97S223.4,51.3,169.9,51.3L169.9,51.3z"/>
</g>
<circle class="st10" cx="146.9" cy="166.9" r="33.5"/>
<ellipse transform="matrix(0.9892 -0.1463 0.1463 0.9892 -31.2326 29.1525)" class="st10" cx="182.6" cy="226.9" rx="24" ry="14.5"/>
<circle class="st10" cx="192.9" cy="132" r="12.5"/>
<ellipse transform="matrix(0.3121 -0.9501 0.9501 0.3121 53.6806 236.5133)" class="st10" cx="190.2" cy="81.2" rx="13.1" ry="16.7"/>
<ellipse transform="matrix(0.5 -0.866 0.866 0.5 41.8815 227.4162)" class="st10" cx="217.9" cy="77.4" rx="6" ry="10.7"/>
<ellipse transform="matrix(0.5401 -0.8416 0.8416 0.5401 20.7668 238.722)" class="st10" cx="228.8" cy="100.4" rx="9.2" ry="12.4"/>
<ellipse transform="matrix(0.2706 -0.9627 0.9627 0.2706 -56.1925 201.6629)" class="st10" cx="105" cy="137.9" rx="12.5" ry="9.1"/>
<ellipse transform="matrix(0.5623 -0.8269 0.8269 0.5623 -40.7377 131.0814)" class="st10" cx="103.5" cy="104" rx="20.7" ry="11.2"/>
<path class="st10" d="M263.5,164.7c-1.3-4.1-3.8-7.2-7.2-8.8c-9.3-4.2-22.5,4.8-29.4,20.1c-7,15.3-5.1,31.2,4.2,35.4
	c2.9,1.3,6.1,1.3,9.5,0.3C252.2,198.8,260.4,182.6,263.5,164.7z"/>
<g>
	<path class="st3" d="M69.3,78.8c-1.3,0.3-2.6-0.3-3.2-1.5c-0.8-1.4-0.2-3.2,1.2-4c6.2-3.3,7.7-6.4,5.8-11.8
		c-0.5-1.5,0.3-3.2,1.8-3.8c1.5-0.5,3.2,0.3,3.8,1.8c3.8,10.9-3,16-8.6,19C69.8,78.6,69.6,78.7,69.3,78.8z"/>
	<path class="st4" d="M68.7,79.8c-1.4,0-2.8-0.8-3.5-2.1c-1-1.9-0.3-4.3,1.6-5.3c5.8-3.1,7.1-5.6,5.3-10.6c-0.4-1-0.3-2.1,0.2-3
		c0.5-1,1.3-1.7,2.2-2c2.1-0.7,4.3,0.4,5,2.4c4.6,12.9-5.7,18.4-9,20.2c-0.3,0.2-0.7,0.3-1,0.4l0,0C69.2,79.8,69,79.8,68.7,79.8z
		 M75.8,58.5c-0.2,0-0.4,0-0.6,0.1c-0.5,0.2-0.9,0.5-1.1,1s-0.3,1-0.1,1.5c2.1,5.9,0.3,9.5-6.3,13c-0.9,0.5-1.3,1.7-0.8,2.6
		c0.4,0.8,1.3,1.2,2.1,1c0.2,0,0.3-0.1,0.5-0.2c5.6-3,11.6-7.7,8.1-17.8C77.4,59,76.6,58.5,75.8,58.5z"/>
</g>
<g>
	<circle class="st11" cx="76.5" cy="59.6" r="6"/>
	<path class="st4" d="M76.5,66.6c-3.2,0-6.2-2.3-6.9-5.5c-0.4-1.8,0-3.7,1-5.3s2.6-2.7,4.4-3c1.8-0.4,3.7,0,5.3,1
		c1.6,1,2.7,2.6,3,4.4l0,0c0.8,3.8-1.6,7.5-5.4,8.3C77.5,66.6,77,66.6,76.5,66.6z M76.5,54.6c-0.4,0-0.7,0-1.1,0.1
		c-1.3,0.3-2.4,1.1-3.2,2.2s-1,2.5-0.7,3.8c0.6,2.7,3.3,4.4,6,3.9c2.7-0.6,4.4-3.2,3.9-6l0,0c-0.3-1.3-1.1-2.4-2.2-3.2
		C78.4,54.9,77.4,54.6,76.5,54.6z"/>
</g>
<g>
	<circle class="st12" cx="71.8" cy="35.9" r="7.1"/>
	<path class="st4" d="M71.8,44c-3.7,0-7.1-2.6-7.9-6.4c-0.9-4.4,1.9-8.7,6.2-9.6c4.4-0.9,8.7,1.9,9.6,6.2l0,0
		c0.5,2.1,0.1,4.3-1.1,6.1s-3,3.1-5.1,3.5C72.9,43.9,72.3,44,71.8,44z M71.8,29.8c-0.4,0-0.9,0-1.3,0.1c-1.6,0.3-3,1.3-3.9,2.7
		c-0.9,1.4-1.2,3-0.8,4.6c0.3,1.6,1.3,3,2.7,3.9c1.4,0.9,3,1.2,4.6,0.8c1.6-0.3,3-1.3,3.9-2.7s1.2-3,0.8-4.6l0,0
		C77.1,31.7,74.6,29.8,71.8,29.8z"/>
</g>
<g>
	<path class="st11" d="M82.4,58.3l-11.8,2.5L65,38.2l13.7,1.2c0.7,0.1,1.2,0.6,1.3,1.3L82.4,58.3z"/>
	<path class="st4" d="M69.9,62l-6.2-24.9l15.1,1.4c1.2,0.1,2.1,1,2.2,2.1l2.5,18.5L69.9,62z M66.3,39.3l5,20.3l9.9-2.1L79,40.8
		c0-0.2-0.2-0.4-0.4-0.4L66.3,39.3z"/>
</g>
<g>
	<path class="st11" d="M61.9,57.7l7.5-1.6l-3.4-13l-7,1.5c-1.2,0.3-2,1.4-1.7,2.6l1.9,8.8C59.5,57.2,60.7,57.9,61.9,57.7z"/>
	<path class="st4" d="M61.4,58.7c-1.5,0-2.8-1-3.1-2.5l-1.9-8.8c-0.4-1.7,0.7-3.4,2.5-3.8l7.9-1.7l3.9,15l-8.5,1.8
		C61.9,58.7,61.6,58.7,61.4,58.7z M65.3,44.2l-6,1.3c-0.7,0.1-1.1,0.8-0.9,1.4l1.9,8.8c0.1,0.7,0.8,1.1,1.4,0.9l6.5-1.4L65.3,44.2z"
		/>
</g>
<g>
	<path class="st11" d="M85.1,49.9c-5,1.1-9.9,0.4-12.5-1c-1.4-0.8-2-2.5-1.2-4c0.8-1.4,2.5-2,4-1.2c1.7,0.9,8.4,1.6,13-1.4
		c1.4-0.9,3.2-0.5,4.1,0.9c0.9,1.4,0.5,3.2-0.9,4.1C89.6,48.6,87.3,49.4,85.1,49.9z"/>
	<path class="st4" d="M80.1,51.4c-3.4,0-6.3-0.7-8-1.6c-1.9-1-2.7-3.4-1.6-5.3c0.5-0.9,1.3-1.6,2.3-1.9c1-0.3,2.1-0.2,3,0.3
		c1.4,0.7,7.7,1.4,12-1.4c1.8-1.2,4.3-0.7,5.5,1.2c1.2,1.8,0.7,4.3-1.2,5.5c-2,1.3-4.3,2.2-6.8,2.8l0,0
		C83.5,51.2,81.8,51.4,80.1,51.4z M74,44.4c-0.7,0-1.4,0.4-1.7,1c-0.5,0.9-0.1,2.1,0.8,2.6c2.3,1.2,7,1.9,11.8,0.9l0,0
		c2.3-0.5,4.4-1.3,6.2-2.5c0.9-0.6,1.2-1.8,0.6-2.7s-1.8-1.2-2.7-0.6c-5,3.2-12.1,2.5-14,1.5C74.6,44.5,74.3,44.4,74,44.4z"/>
</g>
<g>
	<path class="st11" d="M82.5,80.4c-0.8,0.2-1.7,0-2.4-0.6c-1.3-1-1.5-2.9-0.5-4.1c1.3-1.7,1.7-3.4,1.1-5.3c-0.9-2.9-3.9-5.7-7.2-6.8
		c-1.5-0.5-2.4-2.2-1.9-3.7s2.2-2.4,3.7-1.9c5.2,1.7,9.6,6,11,10.7c1.1,3.7,0.4,7.5-2.2,10.7C83.8,79.9,83.2,80.3,82.5,80.4z"/>
	<path class="st4" d="M81.9,81.5c-0.9,0-1.7-0.3-2.4-0.9C78.7,79.9,78.2,79,78,78c-0.1-1,0.2-2.1,0.8-2.9c1.1-1.4,1.4-2.8,1-4.4
		c-0.8-2.5-3.6-5.2-6.6-6.1c-2.1-0.7-3.2-2.9-2.5-5c0.3-1,1-1.8,2-2.3c0.9-0.5,2-0.6,3-0.2c5.5,1.8,10.2,6.3,11.7,11.4
		c1.2,4,0.4,8.2-2.3,11.6c-0.6,0.7-1.4,1.2-2.3,1.4C82.4,81.5,82.2,81.5,81.9,81.5z M74.4,58.8c-0.3,0-0.6,0.1-0.9,0.2
		c-0.5,0.2-0.8,0.6-1,1.1s-0.1,1,0.1,1.5s0.6,0.8,1.1,1c3.6,1.2,6.9,4.3,7.9,7.5c0.7,2.2,0.2,4.3-1.3,6.2c-0.3,0.4-0.5,0.9-0.4,1.4
		s0.3,1,0.7,1.3c0.5,0.4,1,0.5,1.6,0.4l0,0c0.4-0.1,0.8-0.3,1.1-0.7c2.3-2.9,3-6.4,2-9.8c-1.3-4.4-5.5-8.4-10.4-10
		C74.8,58.9,74.6,58.8,74.4,58.8z"/>
</g>
<rect x="57.8" y="47.6" transform="matrix(0.9779 -0.2091 0.2091 0.9779 -8.7806 14.1307)" class="st4" width="9.3" height="2"/>
<rect x="85.2" y="43.5" transform="matrix(0.906 -0.4232 0.4232 0.906 -11.5881 40.8423)" class="st4" width="2" height="6"/>
<rect x="70.2" y="71.4" transform="matrix(0.8102 -0.5862 0.5862 0.8102 -30.0786 55.8248)" class="st4" width="2" height="5.9"/>
<rect x="81.9" y="72.9" transform="matrix(0.4333 -0.9013 0.9013 0.4333 -21.3439 117.7233)" class="st4" width="2" height="5.9"/>
<path class="st13" d="M74.9,33.7c-0.2,0-0.4,0-0.5-0.2c-1.9-1.2-2.9-0.9-4.5-0.5l-0.2,0.1c-0.5,0.1-1.1-0.2-1.2-0.7
	c-0.2-0.5,0.2-1.1,0.7-1.2l0.2-0.1c1.7-0.5,3.4-1,6.1,0.7c0.5,0.3,0.6,0.9,0.3,1.4C75.6,33.5,75.2,33.7,74.9,33.7z"/>
<path class="st4" d="M27.2,39.3h-2c0-6.5-2.9-9.4-9.4-9.4v-2c6.5,0,9.4-2.9,9.4-9.4h2c0,6.5,2.9,9.4,9.4,9.4v2
	C30.1,29.9,27.2,32.8,27.2,39.3z M21.5,28.9c2.2,0.9,3.7,2.5,4.6,4.6c0.9-2.2,2.5-3.7,4.6-4.6c-2.2-0.9-3.7-2.5-4.6-4.6
	C25.3,26.5,23.7,28,21.5,28.9z"/>
<path class="st4" d="M292.6,30.4h-2c0-9.2-4.3-13.5-13.5-13.5v-2c9.2,0,13.5-4.3,13.5-13.5h2c0,9.2,4.3,13.5,13.5,13.5v2
	C296.9,16.9,292.6,21.2,292.6,30.4z M283.9,15.9c3.8,1.3,6.4,3.9,7.7,7.7c1.3-3.8,3.9-6.4,7.7-7.7c-3.8-1.3-6.4-3.9-7.7-7.7
	C290.3,12.1,287.7,14.6,283.9,15.9z"/>
<path class="st4" d="M312,247.7h-2c0-14.5-6.8-21.3-21.3-21.3v-2c14.5,0,21.3-6.8,21.3-21.3h2c0,14.5,6.8,21.3,21.3,21.3v2
	C318.8,226.4,312,233.2,312,247.7z M297.5,225.4c7.2,1.9,11.7,6.4,13.5,13.5c1.9-7.2,6.4-11.7,13.5-13.5
	c-7.2-1.9-11.7-6.4-13.5-13.5C309.1,219,304.7,223.5,297.5,225.4z"/>
</svg>
