<?xml version="1.0" encoding="utf-8"?>
<!-- Generator: Adobe Illustrator 22.1.0, SVG Export Plug-In . SVG Version: 6.00 Build 0)  -->
<svg version="1.1" id="Layer_1" xmlns="http://www.w3.org/2000/svg" xmlns:xlink="http://www.w3.org/1999/xlink" x="0px" y="0px"
	 viewBox="0 0 282 211" style="enable-background:new 0 0 282 211;" xml:space="preserve">
<style type="text/css">
	.st0{fill:#7F8C97;}
	.st1{fill:#C0C6CB;}
	.st2{fill:#243038;}
	.st3{fill:#E5E7E9;}
	.st4{fill:#D0D4D8;}
	.st5{fill:#9AD6F5;}
	.st6{fill:#F99C9F;}
	.st7{fill:#99E1A2;}
</style>
<path class="st0" d="M262.7,210.6c-0.5,0-1,0-1.5-0.1l0.1-2c0.6,0,1.3,0.1,1.9,0l0.1,2C263.1,210.6,262.9,210.6,262.7,210.6z
	 M267.5,210.1l-0.5-1.9c0.6-0.1,1.2-0.3,1.8-0.5l0.7,1.9C268.8,209.7,268.2,209.9,267.5,210.1z M257.1,209.9c-0.7-0.2-1.3-0.4-2-0.6
	l0.6-1.9c0.6,0.2,1.2,0.4,1.9,0.5L257.1,209.9z M251.3,207.8c-0.6-0.3-1.2-0.6-1.8-1l1-1.7c0.6,0.3,1.1,0.6,1.7,0.9L251.3,207.8z
	 M273.3,207.5l-1.1-1.7c0.5-0.3,1-0.7,1.5-1.1l1.3,1.5C274.4,206.7,273.9,207.2,273.3,207.5z M246,204.6c-0.5-0.4-1.1-0.8-1.6-1.3
	l1.3-1.5c0.5,0.4,1,0.8,1.5,1.2L246,204.6z M277.8,203.2l-1.6-1.2c0.4-0.5,0.7-1,1.1-1.6l1.7,1C278.7,202.1,278.3,202.7,277.8,203.2
	z M241.3,200.6c-0.5-0.5-0.9-1-1.4-1.5l1.5-1.3c0.4,0.5,0.9,1,1.3,1.4L241.3,200.6z M280.9,197.7L279,197c0.2-0.5,0.4-1,0.5-1.5
	l1.9,0.6C281.3,196.7,281.1,197.2,280.9,197.7z M237.3,195.9c-0.4-0.5-0.8-1.1-1.2-1.7l1.7-1.1c0.4,0.5,0.8,1.1,1.1,1.6L237.3,195.9
	z M234,190.8c-0.3-0.6-0.7-1.2-1-1.8l1.8-0.9c0.3,0.6,0.6,1.2,0.9,1.7L234,190.8z M231.3,185.3c-0.3-0.6-0.5-1.3-0.7-1.9l1.9-0.7
	c0.2,0.6,0.5,1.2,0.7,1.8L231.3,185.3z"/>
<g>
	<path class="st1" d="M73,101.7c-3.5-6.3-8.6-11.1-14.5-14.3c-1.5,1.4-3,2.6-4.2,2.9c-3.7,1-7.7-2.3-11.3-3s-5.7,3-9.3,1.7
		c-1.9-0.7-2.3-2.6-2.3-4.9c-0.3,0.1-0.7,0.2-1,0.3c-4.2,1.2-6.2,6.1-4,10l28.9,51.2c2.2,3.8,7.4,4.7,10.6,1.7
		C78.1,135.9,81.6,117,73,101.7z"/>
	<path class="st2" d="M61.1,150c-0.4,0-0.8,0-1.3-0.1c-2.4-0.4-4.4-1.8-5.6-3.9L25.4,94.8c-1.2-2.1-1.3-4.6-0.4-6.8
		c0.9-2.2,2.8-3.9,5.1-4.6c0.3-0.1,0.6-0.2,0.8-0.2l1.4-0.4l0,1.3c0.1,2.5,0.5,3.6,1.7,4c1.6,0.6,2.7,0,4.2-0.7c1.4-0.7,3-1.4,5-1
		c1.5,0.3,3,0.9,4.5,1.6c2.3,1,4.5,2,6.4,1.4c0.6-0.2,1.7-0.8,3.7-2.7l0.5-0.5l0.6,0.3c6.2,3.4,11.4,8.5,14.9,14.7l0,0
		c8.7,15.5,5.7,34.7-7.4,46.7C64.9,149.3,63.1,150,61.1,150z M30.4,85.4c-1.6,0.5-2.9,1.7-3.6,3.3c-0.7,1.7-0.6,3.5,0.3,5.1L56,145
		c0.9,1.6,2.4,2.6,4.2,2.9c1.8,0.3,3.6-0.2,4.9-1.5c12.4-11.4,15.3-29.6,7-44.3c-3.2-5.7-7.9-10.4-13.5-13.6c-1.7,1.5-3,2.4-4,2.6
		c-2.6,0.7-5.2-0.4-7.8-1.5c-1.4-0.6-2.8-1.2-4-1.4c-1.4-0.3-2.5,0.3-3.8,0.9c-1.6,0.7-3.4,1.6-5.7,0.7
		C31.2,89.2,30.6,87.3,30.4,85.4z"/>
</g>
<g>
	<path class="st1" d="M95.2,141.2c-8.6-15.3-26.5-22.1-42.7-17.4c-4.2,1.2-6.2,6.1-4,10L77.3,185c2.2,3.8,7.4,4.7,10.6,1.7
		C100.4,175.3,103.8,156.5,95.2,141.2z"/>
	<path class="st2" d="M83.3,189.5c-0.4,0-0.8,0-1.3-0.1c-2.4-0.4-4.4-1.8-5.6-3.9l-28.9-51.2c-1.2-2.1-1.3-4.6-0.4-6.8
		c0.9-2.2,2.8-3.9,5.1-4.6c17.1-5,35.1,2.3,43.8,17.9s5.7,34.7-7.4,46.7C87.2,188.8,85.3,189.5,83.3,189.5z M63,123.3
		c-3.4,0-6.8,0.5-10.2,1.5c-1.7,0.5-3.1,1.7-3.8,3.4c-0.7,1.7-0.6,3.5,0.3,5.1l28.9,51.2c0.9,1.6,2.4,2.6,4.2,2.9
		c1.8,0.3,3.5-0.2,4.9-1.5c12.4-11.4,15.3-29.6,7-44.3C87.8,130.1,75.7,123.3,63,123.3z"/>
</g>
<g>
	<path class="st3" d="M67,166.6c16.8-4.2,36.1-12,55.5-22.9c48.5-27.3,79.6-64.1,69.4-82.1c-10.2-18-57.7-10.5-106.2,16.8
		c-19.4,10.9-36.1,23.4-48.4,35.6L67,166.6z"/>
	<path class="st2" d="M66.5,167.7l-30.4-53.9l0.5-0.5c12.9-12.7,29.7-25.1,48.6-35.7C108.7,64.2,132.8,55.1,153,52
		c20.5-3.2,34.6,0,39.7,9.1c5.1,9.1,0.6,22.9-12.8,38.7c-13.2,15.6-33.4,31.5-57,44.8c-18.9,10.6-38.2,18.6-55.7,23L66.5,167.7z
		 M38.6,114.1l28.9,51.3c17.2-4.4,36-12.2,54.5-22.6c23.3-13.2,43.4-28.9,56.4-44.3C191.2,83.3,195.7,70.3,191,62
		c-4.7-8.3-18.1-11.2-37.7-8.1c-19.9,3.2-43.8,12.1-67.1,25.3C67.7,89.6,51.2,101.7,38.6,114.1z"/>
</g>
<g>
	<path class="st1" d="M193.6,137.9c-10.8-5.9-24-6.2-35-0.5c-3.9,2-4.9,7.2-2,10.6l14.7,17.1C177.2,156.3,184.7,147.1,193.6,137.9z"
		/>
	<path class="st2" d="M171.3,166.8l-15.5-18.1c-1.6-1.8-2.2-4.2-1.7-6.6c0.5-2.4,1.9-4.4,4.1-5.5c11.3-5.9,24.8-5.7,36,0.5l1.1,0.6
		l-0.9,0.9c-8.7,9-16.2,18.1-22.3,27.1L171.3,166.8z M175.7,134.2c-5.7,0-11.4,1.4-16.6,4.1c-1.6,0.8-2.7,2.3-3,4.1
		c-0.3,1.8,0.1,3.6,1.3,4.9l13.8,16.1c5.8-8.4,12.8-16.9,20.9-25.3C186.8,135.6,181.2,134.2,175.7,134.2z"/>
</g>
<g>
	<polygon class="st4" points="45.9,164.3 28.3,133.2 40.7,119.9 63.6,160.6 	"/>
	<path class="st2" d="M45.4,165.4L27.1,133l13.8-14.8l24.3,43L45.4,165.4z M29.6,133.3l16.8,29.8l15.7-3.3l-21.6-38.3L29.6,133.3z"
		/>
</g>
<g>
	<circle class="st1" cx="106.4" cy="109.6" r="21.6"/>
	<path class="st2" d="M106.5,132.3c-7.9,0-15.6-4.1-19.7-11.5c-3-5.3-3.7-11.4-2.1-17.2c1.6-5.8,5.4-10.7,10.7-13.6
		c5.3-3,11.4-3.7,17.2-2.1c5.8,1.6,10.7,5.4,13.6,10.7c6.1,10.9,2.3,24.7-8.6,30.8l0,0C114,131.3,110.2,132.3,106.5,132.3z
		 M106.4,89c-3.5,0-7,0.9-10.1,2.7c-4.8,2.7-8.3,7.1-9.7,12.4c-1.5,5.3-0.8,10.9,1.9,15.7c5.6,9.9,18.2,13.4,28.1,7.8l0,0
		c9.9-5.6,13.4-18.2,7.8-28.1c-2.7-4.8-7.1-8.3-12.4-9.7C110.1,89.3,108.3,89,106.4,89z"/>
</g>
<g>
	<circle class="st5" cx="106.4" cy="109.6" r="15.1"/>
	<path class="st2" d="M106.5,125.7c-1.5,0-2.9-0.2-4.4-0.6c-4.1-1.2-7.6-3.9-9.7-7.6c-2.1-3.7-2.6-8.1-1.5-12.2s3.9-7.6,7.6-9.7
		s8.1-2.6,12.2-1.5c4.1,1.2,7.6,3.9,9.7,7.6s2.6,8.1,1.5,12.2s-3.9,7.6-7.6,9.7C111.9,125,109.2,125.7,106.5,125.7z M106.4,95.5
		c-2.4,0-4.8,0.6-6.9,1.8c-3.3,1.8-5.6,4.9-6.7,8.5c-1,3.6-0.6,7.4,1.3,10.7s4.9,5.6,8.5,6.7c3.6,1,7.4,0.6,10.7-1.3l0,0
		c3.3-1.8,5.6-4.9,6.7-8.5c1-3.6,0.6-7.4-1.3-10.7c-1.8-3.3-4.9-5.6-8.5-6.7C109,95.7,107.7,95.5,106.4,95.5z"/>
</g>
<rect x="153.8" y="51.8" transform="matrix(0.8712 -0.4909 0.4909 0.8712 -20.5153 86.595)" class="st2" width="2" height="61.1"/>
<g>
	<path class="st3" d="M18.3,65.9l-1.8-0.8C9.4,62,6.3,53.7,9.4,46.6l13-29.2c0.4-1,1.6-1.5,2.6-1l23.8,10.6c1,0.4,1.5,1.6,1,2.6
		l-13,29.2C33.7,65.9,25.4,69.1,18.3,65.9z"/>
	<path class="st2" d="M24,68.1c-2.1,0-4.1-0.4-6.1-1.3L16.1,66c-3.7-1.6-6.5-4.6-7.9-8.3C6.8,54,6.9,49.9,8.5,46.2l13-29.2
		c0.3-0.7,0.9-1.3,1.7-1.6c0.7-0.3,1.6-0.3,2.3,0.1L49.2,26c0.7,0.3,1.3,0.9,1.6,1.7c0.3,0.7,0.3,1.6-0.1,2.3l-13,29.2
		c-1.6,3.7-4.6,6.5-8.3,7.9C27.7,67.8,25.8,68.1,24,68.1z M24.2,17.2c-0.1,0-0.2,0-0.4,0.1c-0.2,0.1-0.4,0.3-0.6,0.5L10.3,47
		c-1.4,3.2-1.5,6.7-0.3,9.9s3.7,5.8,6.9,7.2l1.8,0.8c6.5,2.9,14.2,0,17.2-6.6l13-29.2c0.1-0.2,0.1-0.5,0-0.8
		c-0.1-0.2-0.3-0.4-0.5-0.6L24.6,17.3C24.5,17.2,24.4,17.2,24.2,17.2z"/>
</g>
<g>
	<rect x="23.5" y="25.9" transform="matrix(0.9138 0.4062 -0.4062 0.9138 14.8328 -11.0596)" class="st6" width="20" height="7"/>
	<path class="st2" d="M41.7,38l-20.1-8.9l3.7-8.2l20.1,8.9L41.7,38z M24.2,28l16.4,7.3l2-4.6l-16.4-7.3L24.2,28z"/>
</g>
<rect x="28.9" y="22.5" transform="matrix(0.4062 -0.9138 0.9138 0.4062 -16.4759 49.5584)" class="st2" width="2" height="30"/>
<g>
	<circle class="st3" cx="41.3" cy="11.6" r="4"/>
	<path class="st2" d="M41.3,16.6c-0.7,0-1.4-0.1-2-0.4c-2.5-1.1-3.7-4.1-2.5-6.6C37.8,7,40.8,5.9,43.3,7c2.5,1.1,3.7,4.1,2.5,6.6
		l0,0C45,15.4,43.2,16.6,41.3,16.6z M41.3,8.6c-0.4,0-0.7,0.1-1.1,0.2c-0.7,0.3-1.3,0.8-1.7,1.6c-0.7,1.5,0,3.3,1.5,4
		c1.5,0.7,3.3,0,4-1.5l0,0c0.7-1.5,0-3.3-1.5-4C42.1,8.6,41.7,8.6,41.3,8.6z"/>
</g>
<rect x="34.8" y="17.4" transform="matrix(0.4061 -0.9138 0.9138 0.4061 5.8969 45.8854)" class="st2" width="7" height="2"/>
<g>
	<path class="st3" d="M13.5,37.5C1.5,32.2-1.8,23.9,3.4,12.2l5.5,2.4C5,23.3,6.9,28,15.9,32L13.5,37.5z"/>
	<path class="st2" d="M14,38.8l-0.9-0.4C6.8,35.6,2.8,32,1,27.6c-1.8-4.4-1.3-9.7,1.4-15.8l0.4-0.9l7.3,3.2L9.8,15
		c-1.9,4.2-2.3,7.2-1.3,9.6c1,2.4,3.5,4.5,7.8,6.4l0.9,0.4L14,38.8z M3.9,13.5c-2.2,5.2-2.5,9.6-1,13.3c1.5,3.7,4.8,6.8,10.1,9.3
		l1.6-3.7c-4.3-2-6.8-4.3-8-7.1c-1.1-2.8-0.8-6,0.9-10.3L3.9,13.5z"/>
</g>
<path class="st2" d="M8.7,15c-1,0-2.1-0.2-3-0.7c-1.8-0.8-3.2-2.3-4-4.2C1,8.3,1.1,6.3,1.9,4.4C3,1.9,5.4,0.2,8.2,0l0.2,2
	c-2,0.2-3.8,1.4-4.6,3.3C3.1,6.6,3.1,8.1,3.6,9.5s1.6,2.5,2.9,3.1c1.3,0.6,2.8,0.6,4.2,0.1c1.4-0.5,2.5-1.6,3.1-2.9
	c0.9-2,0.5-4.4-1-6l1.5-1.4c2.1,2.2,2.6,5.4,1.4,8.2c-0.8,1.8-2.3,3.2-4.2,4C10.6,14.8,9.7,15,8.7,15z"/>
<path class="st2" d="M13.5,37.5c-0.7-0.3-1.3-0.6-2-0.9l2.7-5.3c0.5,0.3,1.1,0.5,1.7,0.8L13.5,37.5z M7.7,34.2
	c-0.6-0.5-1.3-1-1.8-1.5l4.1-4.4c0.4,0.4,0.8,0.7,1.3,1L7.7,34.2z M2.8,28.9c-0.4-0.7-0.8-1.5-1-2.3l5.7-1.9C7.6,25.1,7.8,25.6,8,26
	L2.8,28.9z M7,21.7l-6-0.1c0-0.8,0.1-1.6,0.2-2.4l5.9,0.9C7.1,20.7,7,21.2,7,21.7z M8,16.8l-5.7-2c0.2-0.7,0.5-1.4,0.8-2l5.5,2.3
	C8.4,15.7,8.2,16.3,8,16.8z"/>
<g>
	<path class="st3" d="M43.5,43.7c12,5.3,15.3,13.6,10.1,25.3l-5.5-2.4c3.8-8.7,1.9-13.4-7.1-17.4L43.5,43.7z"/>
	<path class="st2" d="M54.1,70.3l-7.3-3.2l0.4-0.9c3.6-8.2,2-12.2-6.5-16l-0.9-0.4l3.2-7.3l0.9,0.4c6.2,2.8,10.3,6.4,12,10.8
		c1.8,4.4,1.3,9.7-1.4,15.8L54.1,70.3z M49.4,66.1l3.7,1.6c2.2-5.2,2.5-9.6,1-13.3c-1.5-3.7-4.8-6.8-10.1-9.3l-1.6,3.7
		C50.8,52.7,52.9,57.7,49.4,66.1z"/>
</g>
<path class="st2" d="M48.8,81.2l-0.2-2c2-0.2,3.8-1.4,4.6-3.3c1.2-2.8,0-6-2.8-7.3l0.8-1.8c3.8,1.7,5.5,6.1,3.8,9.9
	C54,79.3,51.6,81,48.8,81.2z"/>
<path class="st2" d="M53.9,68.4l-5.5-2.3c0.2-0.6,0.5-1.1,0.7-1.7l5.7,2C54.4,67,54.2,67.7,53.9,68.4z M55.8,62l-5.9-0.9
	c0.1-0.5,0.1-1.1,0.1-1.6l6,0.1C56,60.3,55.9,61.1,55.8,62z M49.6,56.6c-0.2-0.4-0.4-0.9-0.6-1.3l5.2-3c0.4,0.7,0.8,1.5,1,2.3
	L49.6,56.6z M47,52.9c-0.4-0.4-0.8-0.7-1.3-1l3.5-4.8c0.6,0.5,1.3,1,1.8,1.5L47,52.9z M42.7,50c-0.5-0.3-1.1-0.5-1.7-0.8l2.4-5.5
	c0.7,0.3,1.3,0.6,2,0.9L42.7,50z"/>
<g>
	<path class="st3" d="M57,77.8c0.9,2.6,3.2,4.5,6.1,4.6c2.9,0.1,5.4-1.6,6.4-4.1L63.9,78c-0.6,0-1.1-0.5-1.1-1.1l0.1-2.4
		c0-0.6,0.5-1.1,1.1-1.1l5.6,0.2c-0.9-2.6-3.2-4.5-6.1-4.6c-2.9-0.1-5.4,1.6-6.4,4.1l-16.7-2.5c-1.3-0.2-2.4,0.8-2.5,2.1l-0.1,4.1
		c0,1.3,1.1,2.3,2.3,2.2L57,77.8z"/>
	<path class="st2" d="M63.3,83.4c-0.1,0-0.2,0-0.3,0c-2.9-0.1-5.5-1.9-6.7-4.5l-16.1,1.3c-0.9,0.1-1.8-0.2-2.4-0.9
		c-0.7-0.6-1-1.5-1-2.4l0.1-4.1c0-0.9,0.4-1.8,1.1-2.3s1.6-0.8,2.5-0.7l16,2.4c1.4-2.5,4.1-4.1,7-4c3.2,0.1,6,2.2,7,5.2l0.5,1.4
		l-7-0.2c0,0-0.1,0-0.1,0.1l-0.1,2.4c0,0,0,0.1,0.1,0.1l7,0.2l-0.5,1.3C69.2,81.5,66.4,83.4,63.3,83.4z M57.7,76.7l0.2,0.7
		c0.7,2.2,2.8,3.8,5.2,3.9c1.8,0.1,3.6-0.8,4.7-2.2L63.9,79c-0.6,0-1.1-0.3-1.5-0.7c-0.4-0.4-0.6-0.9-0.6-1.5l0.1-2.4
		c0-0.6,0.3-1.1,0.7-1.5c0.4-0.4,1-0.6,1.5-0.6l3.9,0.1c-1-1.5-2.7-2.4-4.5-2.5c-2.4-0.1-4.5,1.3-5.4,3.5l-0.3,0.7l-17.5-2.6
		c-0.3-0.1-0.7,0-0.9,0.3s-0.4,0.5-0.4,0.9l-0.1,4.1c0,0.3,0.1,0.7,0.4,0.9c0.2,0.2,0.6,0.4,0.9,0.3L57.7,76.7z"/>
</g>
<g>
	<path class="st3" d="M231.4,182.3l-1.9,0.7c-7.2,2.9-15.3-0.6-18.2-7.8l-11.9-29.7c-0.4-1,0.1-2.2,1.1-2.6l24.1-9.7
		c1-0.4,2.2,0.1,2.6,1.1l11.9,29.7C242,171.3,238.5,179.4,231.4,182.3z"/>
	<path class="st2" d="M224.3,185.1c-5.9,0-11.6-3.6-13.9-9.4L198.4,146c-0.6-1.5,0.1-3.3,1.7-3.9l24.1-9.7c0.7-0.3,1.6-0.3,2.3,0
		c0.7,0.3,1.3,0.9,1.6,1.6l11.9,29.7c3.1,7.7-0.7,16.4-8.3,19.5l-1.9,0.7C228,184.7,226.2,185.1,224.3,185.1z M225.3,134.2
		c-0.1,0-0.2,0-0.4,0.1l-24.1,9.7c-0.5,0.2-0.8,0.8-0.6,1.3l11.9,29.7c1.3,3.2,3.8,5.7,7,7.1c3.2,1.4,6.7,1.4,9.9,0.1l1.9-0.7
		c3.2-1.3,5.7-3.8,7.1-7c1.4-3.2,1.4-6.7,0.1-9.9l-11.9-29.7C226.1,134.4,225.7,134.2,225.3,134.2z"/>
</g>
<g>
	<rect x="205.7" y="142.5" transform="matrix(0.9279 -0.3728 0.3728 0.9279 -38.8961 90.949)" class="st7" width="20" height="7"/>
	<path class="st2" d="M207.2,154.3l-3.4-8.4l20.4-8.2l3.4,8.4L207.2,154.3z M206.4,147.1l1.9,4.6L225,145l-1.9-4.6L206.4,147.1z"/>
</g>
<rect x="204" y="153.2" transform="matrix(0.9278 -0.3731 0.3731 0.9278 -41.7212 92.831)" class="st2" width="30" height="2"/>
<g>
	<circle class="st3" cx="208.3" cy="128" r="4"/>
	<path class="st2" d="M208.3,133c-0.7,0-1.3-0.1-2-0.4c-1.2-0.5-2.2-1.5-2.7-2.7c-0.5-1.2-0.5-2.6,0-3.8s1.5-2.2,2.7-2.7
		c1.2-0.5,2.6-0.5,3.8,0c1.2,0.5,2.2,1.5,2.7,2.7v0c1,2.6-0.2,5.5-2.8,6.5C209.6,132.9,209,133,208.3,133z M208.3,125
		c-0.4,0-0.8,0.1-1.1,0.2c-0.7,0.3-1.3,0.9-1.6,1.6s-0.3,1.6,0,2.3c0.3,0.7,0.9,1.3,1.6,1.6c0.7,0.3,1.6,0.3,2.3,0
		c1.5-0.6,2.3-2.4,1.7-3.9l0,0c-0.3-0.7-0.9-1.3-1.6-1.6C209.1,125.1,208.7,125,208.3,125z"/>
</g>
<rect x="210.1" y="131.4" transform="matrix(0.9279 -0.3729 0.3729 0.9279 -35.092 88.4669)" class="st2" width="2" height="7"/>
<g>
	<path class="st3" d="M207.6,166c-12.2,4.9-20.4,1.5-25.2-10.4l5.6-2.2c3.5,8.8,8.2,10.7,17.4,7L207.6,166z"/>
	<path class="st2" d="M197.9,169.2c-7.4,0-12.9-4.4-16.4-13.1l-0.4-0.9l7.4-3l0.4,0.9c1.7,4.2,3.6,6.7,6,7.6c2.4,1,5.6,0.6,10-1.2
		l0.9-0.4l3,7.4l-0.9,0.4C204.3,168.4,200.9,169.2,197.9,169.2z M183.7,156.2c4.5,10.3,11.7,13.3,22.6,9.2l-1.5-3.7
		c-4.5,1.7-7.9,1.9-10.6,0.8c-2.8-1.1-4.9-3.6-6.8-7.8L183.7,156.2z"/>
</g>
<path class="st2" d="M182.8,156c-3,0-5.8-1.8-7-4.7c-1-2.6-0.6-5.5,1.2-7.6l1.5,1.3c-1.3,1.6-1.6,3.7-0.9,5.6c0.5,1.4,1.6,2.4,2.9,3
	c1.4,0.6,2.8,0.6,4.2,0c2.8-1.1,4.2-4.3,3.1-7.2c-0.2-0.6-0.5-1.1-0.9-1.5l1.5-1.3c0.5,0.6,1,1.3,1.3,2.1c1.5,3.8-0.3,8.2-4.2,9.8
	C184.6,155.8,183.7,156,182.8,156z"/>
<path class="st2" d="M198.9,168.2l-0.3-6c0.5,0,1.1-0.1,1.7-0.2l1,5.9C200.4,168,199.6,168.1,198.9,168.2z M194,167.7
	c-0.8-0.2-1.6-0.5-2.4-0.9l2.6-5.4c0.4,0.2,0.9,0.4,1.4,0.5L194,167.7z M205.5,166.8l-1.9-5.7c0.6-0.2,1.1-0.4,1.7-0.6l2.2,5.6
	C206.9,166.3,206.2,166.5,205.5,166.8z M187.5,163.9c-0.5-0.5-1.1-1.2-1.6-1.8l4.8-3.7c0.3,0.4,0.7,0.8,1.1,1.2L187.5,163.9z
	 M183.6,158.3c-0.3-0.6-0.6-1.3-0.9-2l5.5-2.3c0.2,0.6,0.5,1.1,0.8,1.6L183.6,158.3z"/>
<g>
	<path class="st3" d="M233,148.8c12.2-4.9,20.4-1.5,25.2,10.4l-5.6,2.2c-3.5-8.8-8.2-10.7-17.4-7L233,148.8z"/>
	<path class="st2" d="M252,162.7l-0.4-0.9c-3.3-8.3-7.4-10-16.1-6.5l-0.9,0.4l-3-7.4l0.9-0.4c12.6-5.1,21.5-1.4,26.5,10.9l0.4,0.9
		L252,162.7z M242.7,151.6c4.7,0,7.9,2.7,10.4,8.5l3.7-1.5c-4.5-10.3-11.7-13.3-22.6-9.2l1.5,3.7
		C238.4,152.1,240.7,151.6,242.7,151.6z"/>
</g>
<path class="st2" d="M257.7,173.8c-3-0.1-5.7-1.9-6.8-4.7c-1.5-3.8,0.3-8.2,4.2-9.8c3.8-1.5,8.2,0.3,9.8,4.2c1,2.6,0.6,5.5-1.2,7.6
	l-1.5-1.3c1.3-1.6,1.6-3.7,0.9-5.6c-1.1-2.8-4.3-4.2-7.2-3.1c-1.4,0.5-2.4,1.6-3,2.9c-0.6,1.4-0.6,2.8,0,4.2c0.8,2.1,2.8,3.4,5,3.5
	L257.7,173.8z"/>
<path class="st2" d="M252.4,160.9c-0.2-0.6-0.5-1.1-0.8-1.6l5.4-2.7c0.3,0.6,0.6,1.3,0.9,2L252.4,160.9z M249.8,156.3
	c-0.3-0.4-0.7-0.8-1.1-1.2l4.2-4.2c0.5,0.5,1.1,1.2,1.6,1.8L249.8,156.3z M235.2,154.4l-2.2-5.6c0.7-0.3,1.4-0.5,2-0.8l1.9,5.7
	C236.4,153.9,235.8,154.1,235.2,154.4z M246.4,153.4c-0.4-0.2-0.9-0.4-1.4-0.5l1.5-5.8c0.8,0.2,1.6,0.5,2.4,0.9L246.4,153.4z
	 M240.3,152.8l-1-5.9c0.8-0.1,1.6-0.2,2.3-0.3l0.3,6C241.5,152.7,240.9,152.7,240.3,152.8z"/>
<path class="st2" d="M42.8,78.9c-2.1-2.2-2.6-5.4-1.4-8.2c1.7-3.8,6.1-5.5,9.9-3.8l-0.8,1.8c-2.8-1.2-6,0-7.3,2.8
	c-0.9,2-0.5,4.4,1,6L42.8,78.9z"/>
</svg>
