<svg width="220" height="127" viewBox="0 0 220 127" fill="none" xmlns="http://www.w3.org/2000/svg">
<path fill-rule="evenodd" clip-rule="evenodd" d="M175.106 13.6626C175.106 17.9915 171.608 21.5004 167.292 21.5004C162.976 21.5004 159.478 17.9915 159.478 13.6626C159.478 9.33367 162.976 5.82422 167.292 5.82422C171.608 5.82422 175.106 9.33367 175.106 13.6626" fill="#FDD089"/>
<path fill-rule="evenodd" clip-rule="evenodd" d="M167.292 6.39932C163.298 6.39932 160.05 9.65765 160.05 13.663C160.05 17.6678 163.298 20.9262 167.292 20.9262C171.285 20.9262 174.533 17.6678 174.533 13.663C174.533 9.65765 171.285 6.39932 167.292 6.39932M167.292 22.0755C162.667 22.0755 158.904 18.3017 158.904 13.663C158.904 9.0238 162.667 5.25 167.292 5.25C171.916 5.25 175.679 9.0238 175.679 13.663C175.679 18.3017 171.916 22.0755 167.292 22.0755" fill="#FBB03B"/>
<path fill-rule="evenodd" clip-rule="evenodd" d="M167.292 27.3262C166.975 27.3262 166.719 27.0687 166.719 26.7515V21.5014C166.719 21.1842 166.975 20.9268 167.292 20.9268C167.608 20.9268 167.865 21.1842 167.865 21.5014V26.7515C167.865 27.0687 167.608 27.3262 167.292 27.3262" fill="#FBB03B"/>
<path fill-rule="evenodd" clip-rule="evenodd" d="M167.292 6.39942C166.975 6.39942 166.719 6.14197 166.719 5.82476V0.574661C166.719 0.257448 166.975 0 167.292 0C167.608 0 167.865 0.257448 167.865 0.574661V5.82476C167.865 6.14197 167.608 6.39942 167.292 6.39942" fill="#FBB03B"/>
<path fill-rule="evenodd" clip-rule="evenodd" d="M174.777 24.9589C174.596 24.9589 174.418 24.8739 174.307 24.7141L171.304 20.4134C171.123 20.153 171.186 19.795 171.446 19.6129C171.704 19.4307 172.062 19.4939 172.243 19.7537L175.245 24.0544C175.427 24.3147 175.364 24.6728 175.104 24.8549C175.005 24.925 174.89 24.9589 174.777 24.9589" fill="#FBB03B"/>
<path fill-rule="evenodd" clip-rule="evenodd" d="M162.81 7.81733C162.63 7.81733 162.451 7.73228 162.34 7.57253L159.338 3.27177C159.157 3.01145 159.219 2.65343 159.479 2.47126C159.737 2.2891 160.096 2.35231 160.277 2.61206L163.279 6.91282C163.46 7.17314 163.397 7.53115 163.138 7.71332C163.038 7.78343 162.923 7.81733 162.81 7.81733" fill="#FBB03B"/>
<path fill-rule="evenodd" clip-rule="evenodd" d="M179.553 18.714C179.489 18.714 179.422 18.7025 179.358 18.6789L174.439 16.8837C174.142 16.7751 173.988 16.4452 174.097 16.147C174.205 15.8493 174.535 15.6947 174.831 15.8033L179.749 17.5991C180.047 17.7077 180.2 18.0376 180.091 18.3353C180.007 18.5691 179.787 18.714 179.553 18.714" fill="#FBB03B"/>
<path fill-rule="evenodd" clip-rule="evenodd" d="M159.949 11.5568C159.884 11.5568 159.818 11.5453 159.753 11.5217L154.834 9.72593C154.537 9.61732 154.383 9.28747 154.492 8.98979C154.6 8.69154 154.93 8.53753 155.226 8.64614L160.145 10.442C160.442 10.5506 160.596 10.8804 160.487 11.1781C160.403 11.412 160.183 11.5568 159.949 11.5568" fill="#FBB03B"/>
<path fill-rule="evenodd" clip-rule="evenodd" d="M174.839 12.2096C174.587 12.2096 174.354 12.04 174.286 11.7832C174.205 11.4769 174.386 11.1619 174.691 11.0798L179.747 9.7207C180.054 9.6391 180.368 9.82069 180.449 10.127C180.531 10.4333 180.349 10.7488 180.044 10.8309L174.988 12.1894C174.938 12.2032 174.888 12.2096 174.839 12.2096" fill="#FBB03B"/>
<path fill-rule="evenodd" clip-rule="evenodd" d="M154.688 17.625C154.435 17.625 154.203 17.4555 154.135 17.1986C154.053 16.8923 154.234 16.5774 154.54 16.4952L159.595 15.1362C159.903 15.0534 160.215 15.2356 160.297 15.5425C160.379 15.8487 160.197 16.1642 159.892 16.2464L154.837 17.6049C154.787 17.6187 154.737 17.625 154.688 17.625" fill="#FBB03B"/>
<path fill-rule="evenodd" clip-rule="evenodd" d="M172.314 8.23353C172.184 8.23353 172.054 8.18928 171.946 8.09906C171.705 7.89505 171.672 7.53244 171.876 7.28936L175.241 3.26731C175.443 3.02538 175.805 2.99262 176.048 3.19663C176.29 3.40063 176.322 3.76324 176.118 4.0069L172.754 8.02838C172.64 8.16342 172.478 8.23353 172.314 8.23353" fill="#FBB03B"/>
<path fill-rule="evenodd" clip-rule="evenodd" d="M158.904 24.2638C158.774 24.2638 158.644 24.2196 158.536 24.1293C158.294 23.9253 158.262 23.5627 158.465 23.3196L161.83 19.2976C162.033 19.0557 162.395 19.0229 162.637 19.2269C162.879 19.4309 162.911 19.7935 162.708 20.0372L159.343 24.0586C159.23 24.1937 159.068 24.2638 158.904 24.2638" fill="#FBB03B"/>
<path fill-rule="evenodd" clip-rule="evenodd" d="M211.285 90.1125L201.033 86.6261L195.782 84.5096C195.695 84.4745 195.616 84.4222 195.55 84.3562L193.492 82.292C193.396 82.1949 193.272 82.1282 193.138 82.1018L191.339 81.7409C191.015 81.6754 190.781 81.3898 190.781 81.0582V60.7589C190.781 60.6215 190.741 60.487 190.665 60.3727L189.449 58.5441C189.32 58.3505 189.104 58.2344 188.872 58.2344H179.887C179.251 58.2344 178.735 58.7516 178.735 59.39V60.8048V63.981C178.735 64.4011 178.508 64.7878 178.142 64.9918L178.139 64.993C177.372 65.4205 176.428 64.8637 176.428 63.9821V61.0778C176.428 60.8985 176.386 60.7215 176.306 60.5612L175.465 58.8734C175.27 58.4815 174.87 58.2344 174.434 58.2344H159.182C158.899 58.2344 158.627 58.3384 158.416 58.5263L156.823 59.9463C156.577 60.1652 156.437 60.4801 156.437 60.81V75.5489C156.437 75.9787 156.239 76.3845 155.901 76.6482L154.13 78.0297L151.567 83.1867L146.953 86.0876L144.365 86.506C143.901 86.5807 143.507 86.8864 143.316 87.3174L142.083 90.1125H211.285Z" fill="#D4A082"/>
<path fill-rule="evenodd" clip-rule="evenodd" d="M103.627 90.1125L101.097 85.2658L92.9122 82.8252C92.6985 82.7614 92.5095 82.6327 92.372 82.4568L87.6803 76.4677C87.5761 76.3344 87.442 76.2275 87.2885 76.1562L80.6191 73.0341L77.9516 71.3619C77.3209 70.9665 76.9376 70.2734 76.9376 69.527V50.273C76.9376 50.0626 76.9066 49.8529 76.8471 49.6512L76.0186 46.8819C75.7448 45.9665 74.9049 45.3395 73.9521 45.3395H70.9082C70.0912 45.3395 69.3441 45.8032 68.9786 46.5359L67.9623 48.5754C67.8122 48.876 67.7348 49.207 67.7348 49.5431V76.7269H65.2472C64.8038 76.7269 64.4062 76.4551 64.244 76.0425L61.6012 69.3264C61.2752 68.5 60.4794 67.957 59.5942 67.957H56.6179C56.0227 67.957 55.5397 67.4726 55.5397 66.8749V45.7084C55.5397 45.3159 55.4337 44.9315 55.2321 44.5953L52.0266 39.236C51.637 38.5844 50.9346 38.1855 50.1766 38.1855H24.6813C24.1095 38.1855 23.5607 38.4137 23.1562 38.8194L20.9688 41.0135C20.5643 41.4192 20.3369 41.9697 20.3369 42.5438V81.1615C20.3369 81.5575 20.1209 81.9224 19.7748 82.1115L5.15112 90.1125H103.627Z" fill="#D4A082"/>
<mask id="mask0_87_25960" style="mask-type:alpha" maskUnits="userSpaceOnUse" x="0" y="0" width="220" height="127">
<path fill-rule="evenodd" clip-rule="evenodd" d="M0 126.556H219.82V0H0V126.556Z" fill="white"/>
</mask>
<g mask="url(#mask0_87_25960)">
<path fill-rule="evenodd" clip-rule="evenodd" d="M0 90.6679H218.854V89.5186H0V90.6679Z" fill="#243038"/>
<path fill-rule="evenodd" clip-rule="evenodd" d="M142.963 89.5373H207.811L200.849 87.1697L195.569 85.0423C195.411 84.9791 195.268 84.8849 195.145 84.7619L193.087 82.6977C193.07 82.6805 193.049 82.669 193.025 82.6644L191.226 82.3035C190.636 82.1851 190.208 81.661 190.208 81.0576V60.7583C190.208 60.7342 190.201 60.7106 190.188 60.6917L188.973 58.8625C188.95 58.8286 188.912 58.8085 188.872 58.8085H179.887C179.568 58.8085 179.308 59.0688 179.308 59.3895V63.9804C179.308 64.6085 178.968 65.1878 178.42 65.4935C177.877 65.7958 177.237 65.7866 176.706 65.4734C176.173 65.1591 175.855 64.6017 175.855 63.9816V61.0773C175.855 60.9882 175.834 60.898 175.794 60.8175L174.952 59.1297C174.854 58.9315 174.655 58.8085 174.434 58.8085H159.182C159.039 58.8085 158.902 58.8608 158.797 58.955L157.203 60.375C157.08 60.4854 157.01 60.6434 157.01 60.8095V75.5484C157.01 76.1506 156.726 76.731 156.252 77.1011L154.584 78.4027L152.007 83.5873L147.159 86.6359L144.456 87.0726C144.183 87.1169 143.953 87.295 143.84 87.5496L142.963 89.5373ZM214.759 90.6866H141.203L142.793 87.0841C143.062 86.4727 143.616 86.0445 144.274 85.9382L146.747 85.5383L151.126 82.7851L153.675 77.6556L155.549 76.1937C155.746 76.0403 155.864 75.7989 155.864 75.5484V60.8095C155.864 60.3147 156.075 59.8435 156.442 59.5159L158.036 58.0959C158.351 57.8143 158.758 57.6592 159.181 57.6592H174.434C175.093 57.6592 175.684 58.0258 175.977 58.616L176.819 60.3032C176.938 60.5428 177.001 60.8106 177.001 61.0773V63.9816C177.001 64.2816 177.201 64.4321 177.287 64.4827C177.373 64.5338 177.6 64.6356 177.861 64.4902C178.048 64.3862 178.162 64.1913 178.162 63.9804V59.3895C178.162 58.4355 178.936 57.6592 179.887 57.6592H188.872C189.296 57.6592 189.691 57.8707 189.926 58.2252L191.141 60.0532C191.28 60.2618 191.354 60.506 191.354 60.7583V81.0576C191.354 81.1151 191.395 81.1651 191.452 81.1766L193.25 81.5375C193.497 81.5869 193.721 81.7076 193.898 81.8857L195.955 83.9493L201.246 86.0922L214.759 90.6866Z" fill="#243038"/>
<path fill-rule="evenodd" clip-rule="evenodd" d="M191.424 65.8276C193.361 65.8276 194.931 67.4027 194.931 69.3457V75.6531C194.931 77.6237 197.458 79.5608 200.075 80.6015V47.8993C200.075 45.9564 201.644 44.3818 203.582 44.3818C205.519 44.3818 207.089 45.9564 207.089 47.8993V73.0327C209.705 71.992 212.232 70.0542 212.232 68.0837V57.9915C212.232 56.0486 213.803 54.474 215.74 54.474C217.677 54.474 219.247 56.0486 219.247 57.9915V68.0837C219.247 71.7541 217.143 75.1676 213.322 77.6961C211.44 78.9414 209.235 79.8798 207.089 80.3981V101.725H200.13L200.075 87.9675C197.928 87.4492 195.725 86.5108 193.843 85.2655C190.021 82.737 187.917 79.3235 187.917 75.6531V69.3457C187.917 67.4027 189.487 65.8276 191.424 65.8276" fill="#ABC885"/>
<path fill-rule="evenodd" clip-rule="evenodd" d="M200.7 101.151H206.516V79.9463L206.954 79.8406C209.074 79.328 211.223 78.3964 213.006 77.2172C216.661 74.7985 218.674 71.5551 218.674 68.0842V57.992C218.674 56.3691 217.358 55.0491 215.74 55.0491C214.122 55.0491 212.806 56.3691 212.806 57.992V68.0842C212.806 70.515 209.84 72.5573 207.3 73.5676L206.516 73.879V47.8998C206.516 46.2769 205.2 44.9569 203.582 44.9569C201.964 44.9569 200.647 46.2769 200.647 47.8998V81.4485L199.863 81.1364C197.323 80.1262 194.358 78.0838 194.358 75.6536V69.3461C194.358 67.7233 193.042 66.4027 191.424 66.4027C189.806 66.4027 188.49 67.7233 188.49 69.3461V75.6536C188.49 79.1245 190.502 82.3679 194.158 84.7861C195.941 85.9664 198.09 86.898 200.209 87.4094L200.645 87.5152L200.7 101.151ZM207.661 102.3H199.559L199.503 88.4157C197.402 87.8554 195.296 86.9158 193.527 85.7458C189.54 83.1081 187.344 79.5239 187.344 75.6536V69.3461C187.344 67.0894 189.174 65.2534 191.424 65.2534C193.674 65.2534 195.504 67.0894 195.504 69.3461V75.6536C195.504 77.1845 197.454 78.7516 199.501 79.7256V47.8998C199.501 45.6437 201.332 43.8076 203.582 43.8076C205.831 43.8076 207.661 45.6437 207.661 47.8998V72.1568C209.71 71.1827 211.66 69.6156 211.66 68.0842V57.992C211.66 55.7358 213.49 53.8998 215.74 53.8998C217.99 53.8998 219.82 55.7358 219.82 57.992V68.0842C219.82 71.9539 217.624 75.5381 213.637 78.1763C211.869 79.3464 209.763 80.2854 207.661 80.8462V102.3Z" fill="#243038"/>
<path fill-rule="evenodd" clip-rule="evenodd" d="M67.0351 124.494C66.81 124.494 66.5963 124.361 66.5052 124.138L62.4592 114.303L63.184 104.935L67.8378 98.3166L71.5308 94.6928C71.7565 94.471 72.1192 94.4756 72.3409 94.702C72.5615 94.9284 72.558 95.2928 72.3317 95.5146L68.6765 99.101L64.3017 105.338L63.6228 114.117L67.5651 123.701C67.6854 123.994 67.5462 124.33 67.2534 124.451C67.1824 124.48 67.1079 124.494 67.0351 124.494" fill="#243038"/>
<path fill-rule="evenodd" clip-rule="evenodd" d="M68.2381 99.3018C67.9631 99.3018 67.7202 99.1018 67.6738 98.8208C67.6222 98.5076 67.833 98.2122 68.1453 98.1605L71.5719 97.5922C71.8904 97.5427 72.1792 97.7531 72.2308 98.0657C72.2823 98.3789 72.0709 98.6742 71.7592 98.726L68.3321 99.2937C68.3 99.2995 68.269 99.3018 68.2381 99.3018" fill="#243038"/>
<path fill-rule="evenodd" clip-rule="evenodd" d="M66.263 102.12C66.0573 102.12 65.858 102.008 65.7554 101.813L64.4835 99.3881C64.3357 99.1077 64.4434 98.7595 64.723 98.6118C65.0026 98.4647 65.3498 98.5721 65.497 98.8526L66.7695 101.277C66.9173 101.557 66.809 101.906 66.5294 102.053C66.4441 102.098 66.353 102.12 66.263 102.12" fill="#243038"/>
<path fill-rule="evenodd" clip-rule="evenodd" d="M63.3833 110.355C63.2848 110.355 63.1851 110.329 63.094 110.275C62.8213 110.115 62.7296 109.763 62.8901 109.489L65.8463 104.434L68.4382 102.997C68.716 102.843 69.0638 102.944 69.2168 103.222C69.3697 103.5 69.2689 103.85 68.9922 104.002L66.6753 105.287L63.8778 110.071C63.7718 110.253 63.5798 110.355 63.3833 110.355" fill="#243038"/>
<path fill-rule="evenodd" clip-rule="evenodd" d="M63.5154 108.662C63.3217 108.662 63.1332 108.563 63.0255 108.386L60.8662 104.823C60.7018 104.552 60.7877 104.198 61.0581 104.033C61.3297 103.869 61.6809 103.956 61.8453 104.226L64.0046 107.788C64.1691 108.059 64.0826 108.413 63.8127 108.578C63.7193 108.635 63.6168 108.662 63.5154 108.662" fill="#243038"/>
<path fill-rule="evenodd" clip-rule="evenodd" d="M68.2582 106.87C68.2456 106.87 68.2318 106.869 68.2186 106.869L65.4921 106.682C65.1765 106.66 64.9381 106.385 64.9593 106.069C64.9811 105.753 65.2515 105.52 65.5706 105.535L68.2966 105.722C68.6122 105.743 68.8506 106.018 68.8294 106.334C68.8088 106.638 68.5567 106.87 68.2582 106.87" fill="#243038"/>
<path fill-rule="evenodd" clip-rule="evenodd" d="M65.5006 120.76C65.453 120.76 65.4055 120.755 65.3573 120.743C65.0508 120.663 64.8663 120.35 64.9448 120.043L67.2892 110.896L72.2031 104.2L77.7083 100.7L81.662 99.1745L83.34 96.1311C83.493 95.853 83.8419 95.7518 84.1181 95.9064C84.3948 96.0598 84.4956 96.4092 84.3426 96.6868L82.4629 100.097L78.1729 101.752L72.9989 105.054L68.3434 111.398L66.0551 120.329C65.9887 120.588 65.7555 120.76 65.5006 120.76" fill="#243038"/>
<path fill-rule="evenodd" clip-rule="evenodd" d="M63.747 116.499C63.7149 116.499 63.6828 116.496 63.6496 116.491L60.7621 115.995C60.4504 115.942 60.2407 115.645 60.2946 115.332C60.3473 115.019 60.64 114.81 60.9557 114.863L63.8432 115.358C64.1549 115.411 64.3646 115.708 64.3107 116.022C64.2632 116.301 64.0214 116.499 63.747 116.499" fill="#243038"/>
<path fill-rule="evenodd" clip-rule="evenodd" d="M78.3627 125.749L71.9225 123.23L65.6525 121.484C65.3477 121.399 65.1696 121.082 65.2538 120.777C65.3391 120.47 65.6537 120.294 65.9596 120.376L72.3115 122.148L78.3535 124.512L84.0598 122.183L88.9788 119.734C89.2613 119.592 89.6062 119.709 89.7465 119.993C89.8875 120.278 89.7718 120.623 89.4882 120.764L84.5307 123.231L78.3627 125.749Z" fill="#243038"/>
<path fill-rule="evenodd" clip-rule="evenodd" d="M79.2276 101.305C78.9348 101.305 78.6856 101.081 78.6575 100.784L78.4158 98.1678L80.8799 94.983C81.0741 94.733 81.4333 94.6865 81.6837 94.8813C81.934 95.0755 81.9793 95.437 81.7851 95.6875L79.5983 98.5137L79.7988 100.677C79.828 100.993 79.5966 101.273 79.2814 101.303C79.2631 101.304 79.2448 101.305 79.2276 101.305" fill="#243038"/>
<path fill-rule="evenodd" clip-rule="evenodd" d="M73.4597 104.654C73.1446 104.654 72.8885 104.399 72.8868 104.083L72.8696 101.065L74.4916 97.9794L75.638 95.9331C75.7926 95.6567 76.1416 95.5572 76.4183 95.7141C76.6944 95.8693 76.7918 96.2198 76.6371 96.4968L75.4982 98.5294L74.0166 101.346L74.0326 104.076C74.0344 104.394 73.78 104.652 73.4632 104.654H73.4597Z" fill="#243038"/>
<path fill-rule="evenodd" clip-rule="evenodd" d="M67.3451 113.561C67.1962 113.561 67.0478 113.503 66.9355 113.388L64.9801 111.384C64.759 111.157 64.763 110.794 64.9893 110.571C65.2156 110.349 65.5783 110.353 65.7994 110.58L67.7548 112.584C67.9759 112.811 67.9719 113.174 67.7456 113.397C67.6345 113.506 67.4895 113.561 67.3451 113.561" fill="#243038"/>
<path fill-rule="evenodd" clip-rule="evenodd" d="M66.464 116.998C66.315 116.998 66.1667 116.94 66.0544 116.826C65.8332 116.599 65.8372 116.235 66.0635 116.013L68.8359 113.322L72.9872 111.031L77.2016 106.894C77.4285 106.672 77.7911 106.677 78.0117 106.903C78.2328 107.13 78.2288 107.494 78.0031 107.716L73.6083 112L69.4569 114.291L66.8645 116.835C66.7533 116.944 66.6084 116.998 66.464 116.998" fill="#243038"/>
<path fill-rule="evenodd" clip-rule="evenodd" d="M69.4919 109.439C69.1791 109.439 68.9236 109.187 68.919 108.873C68.9144 108.555 69.1677 108.294 69.4833 108.289L72.4705 108.246L74.0363 106.71C74.2626 106.487 74.6253 106.492 74.8464 106.719C75.067 106.945 75.0635 107.309 74.8372 107.531L72.9449 109.388L69.5005 109.439H69.4919Z" fill="#243038"/>
<path fill-rule="evenodd" clip-rule="evenodd" d="M79.8497 103.855L76.4482 102.582C76.152 102.472 76.0014 102.141 76.1125 101.843C76.2225 101.546 76.5531 101.396 76.8493 101.506L79.9144 102.653L82.2393 102.058C82.5452 101.978 82.8575 102.166 82.936 102.473C83.0139 102.781 82.8288 103.093 82.5223 103.172L79.8497 103.855Z" fill="#243038"/>
<path fill-rule="evenodd" clip-rule="evenodd" d="M78.6759 120.11L71.7368 118.972L65.9841 118.809C65.6679 118.801 65.4181 118.536 65.4272 118.218C65.437 117.901 65.704 117.66 66.0162 117.66L71.884 117.831L78.5482 118.925L85.4026 116.197L88.8767 112.01L91.8811 108.796C92.0977 108.565 92.4597 108.554 92.6912 108.77C92.9215 108.988 92.9335 109.351 92.717 109.583L89.735 112.771L86.0964 117.158L78.6759 120.11Z" fill="#243038"/>
<path fill-rule="evenodd" clip-rule="evenodd" d="M77.7959 114.244L73.2573 114.071L71.0143 113.196C70.7192 113.081 70.5737 112.748 70.6883 112.452C70.8023 112.156 71.1352 112.009 71.4297 112.125L73.4933 112.93L77.1852 113.071L79.4849 109.479L81.2237 105.582L85.1367 103.07L86.2877 100.692C86.4258 100.406 86.7678 100.287 87.0531 100.426C87.3378 100.564 87.4564 100.908 87.3184 101.194L86.0264 103.864L82.13 106.366L80.4726 110.064L77.7959 114.244Z" fill="#243038"/>
<path fill-rule="evenodd" clip-rule="evenodd" d="M74.9585 110.474C74.8863 110.474 74.8124 110.461 74.742 110.431C74.4486 110.311 74.3083 109.976 74.428 109.682L75.6598 106.661L77.076 103.957C77.2233 103.677 77.5704 103.569 77.85 103.717C78.1302 103.865 78.2379 104.212 78.0901 104.493L76.6968 107.146L75.489 110.117C75.3985 110.339 75.1843 110.474 74.9585 110.474" fill="#243038"/>
<path fill-rule="evenodd" clip-rule="evenodd" d="M70.8929 122.921C70.6747 122.921 70.4673 122.795 70.371 122.584C70.2398 122.295 70.367 121.954 70.6552 121.823L74.2113 120.2L76.3987 121.474C76.6725 121.633 76.7659 121.985 76.6072 122.26C76.4479 122.534 76.0973 122.627 75.8235 122.468L74.1477 121.492L71.1296 122.869C71.0528 122.905 70.972 122.921 70.8929 122.921" fill="#243038"/>
<path fill-rule="evenodd" clip-rule="evenodd" d="M83.366 123.661C83.295 123.661 83.2233 123.648 83.154 123.62C82.8595 123.503 82.7163 123.168 82.8338 122.873L83.8725 120.263L87.3856 118.317L89.043 115.956L91.1691 114.643C91.4395 114.476 91.7919 114.561 91.9575 114.831C92.123 115.101 92.0394 115.456 91.7701 115.622L89.8445 116.811L88.1699 119.195L84.7845 121.07L83.8982 123.299C83.8083 123.524 83.5929 123.661 83.366 123.661" fill="#243038"/>
<path fill-rule="evenodd" clip-rule="evenodd" d="M74.4389 126.556C74.1914 126.556 73.9639 126.395 73.89 126.145L73.0902 123.448C72.9991 123.144 73.1721 122.824 73.4752 122.733C73.7806 122.642 74.0974 122.816 74.1879 123.12L74.9877 125.818C75.0782 126.122 74.9052 126.442 74.6021 126.532C74.5477 126.548 74.4927 126.556 74.4389 126.556" fill="#243038"/>
<path fill-rule="evenodd" clip-rule="evenodd" d="M69.7772 118.917C69.6283 118.917 69.4799 118.858 69.3676 118.744C69.1464 118.517 69.1505 118.153 69.3768 117.931L71.488 115.859L76.1985 116.506L79.5764 115.461L81.7185 114.52L84.0159 111.07L86.1741 105.776L88.7115 104.133L90.9728 104.547C91.2839 104.604 91.4902 104.903 91.4335 105.215C91.3768 105.528 91.0765 105.738 90.7672 105.678L88.9522 105.345L87.0982 106.546L85.0002 111.66L82.4851 115.438L79.9453 116.55L76.2936 117.679L71.889 117.074L70.1777 118.753C70.0665 118.862 69.9216 118.917 69.7772 118.917" fill="#243038"/>
<path fill-rule="evenodd" clip-rule="evenodd" d="M79.9895 110.328C79.7048 110.328 79.4579 110.115 79.4218 109.824C79.3822 109.509 79.6051 109.222 79.9191 109.183L81.4224 108.995L83.4964 106.959C83.7232 106.737 84.0853 106.741 84.3065 106.968C84.5276 107.195 84.5236 107.558 84.2979 107.78L81.9472 110.087L80.0612 110.323C80.0371 110.326 80.013 110.328 79.9895 110.328" fill="#243038"/>
<path fill-rule="evenodd" clip-rule="evenodd" d="M79.7771 116.575C79.7433 116.575 79.7101 116.573 79.6751 116.566C79.364 116.51 79.1566 116.212 79.2128 115.899L79.7594 112.84L81.9238 110.716C82.1507 110.493 82.5128 110.498 82.7339 110.724C82.9551 110.951 82.9511 111.316 82.7253 111.537L80.8221 113.404L80.3403 116.102C80.2904 116.38 80.0498 116.575 79.7771 116.575" fill="#243038"/>
<path fill-rule="evenodd" clip-rule="evenodd" d="M84.8756 111.051C84.6023 111.051 84.3611 110.855 84.3119 110.576C84.2574 110.263 84.4654 109.965 84.7771 109.911L86.8104 109.553L88.5933 107.803L90.5189 107.918C90.8345 107.937 91.0752 108.21 91.0562 108.526C91.0379 108.843 90.7681 109.083 90.4501 109.065L89.0321 108.98L87.3575 110.623L84.9753 111.043C84.9415 111.048 84.9089 111.051 84.8756 111.051" fill="#243038"/>
<path fill-rule="evenodd" clip-rule="evenodd" d="M81.0102 121.903C80.8904 121.903 80.7695 121.865 80.6658 121.787L78.2676 119.976C78.0144 119.785 77.9645 119.425 78.1547 119.171C78.3444 118.918 78.703 118.867 78.9568 119.058L81.3556 120.869C81.6083 121.06 81.6587 121.42 81.4685 121.674C81.3562 121.823 81.1843 121.903 81.0102 121.903" fill="#243038"/>
<path fill-rule="evenodd" clip-rule="evenodd" d="M84.5527 117.728C84.4931 117.728 84.4335 117.719 84.374 117.7C84.0732 117.601 83.9099 117.276 84.0084 116.974L84.7068 114.858L86.1168 112.018C86.2589 111.735 86.602 111.619 86.8856 111.76C87.1686 111.902 87.2844 112.248 87.1429 112.532L85.7513 115.333L85.097 117.333C85.0179 117.575 84.7939 117.728 84.5527 117.728" fill="#243038"/>
<path fill-rule="evenodd" clip-rule="evenodd" d="M92.2356 113.29C92.2139 113.29 92.1915 113.289 92.1692 113.286L89.2507 112.947C88.9362 112.911 88.7116 112.626 88.7477 112.311C88.7844 111.995 89.0691 111.767 89.3831 111.806L92.3009 112.145C92.6155 112.181 92.8406 112.466 92.804 112.782C92.7707 113.075 92.5227 113.29 92.2356 113.29" fill="#243038"/>
<path fill-rule="evenodd" clip-rule="evenodd" d="M7.39801 89.5373H102.681L100.702 85.7468L92.7488 83.3758C92.4183 83.2769 92.1324 83.0815 91.9204 82.8109L87.2299 76.8223C87.1812 76.7603 87.1176 76.7097 87.0466 76.6769L80.3148 73.5209L77.6473 71.8486C76.8441 71.3447 76.3646 70.4769 76.3646 69.5264V50.2724C76.3646 50.1184 76.3422 49.9644 76.2981 49.8144L75.4691 47.0469C75.2669 46.3688 74.6567 45.9136 73.952 45.9136H70.9081C70.3043 45.9136 69.7617 46.2504 69.4913 46.7923L68.4744 48.8323C68.3649 49.0513 68.3071 49.2972 68.3071 49.5426V77.301H65.2471C64.5636 77.301 63.9615 76.8896 63.7106 76.2523L61.0683 69.5368C60.8271 68.9259 60.2484 68.5311 59.5936 68.5311H56.6179C55.7075 68.5311 54.9667 67.7881 54.9667 66.8744V45.7079C54.9667 45.42 54.8888 45.1373 54.741 44.8907L51.5349 39.5309C51.2502 39.055 50.73 38.7597 50.1766 38.7597H24.6812C24.2641 38.7597 23.8562 38.9292 23.5611 39.2251L21.3737 41.4192C21.0741 41.7192 20.9097 42.1186 20.9097 42.5432V81.161C20.9097 81.7679 20.5797 82.3253 20.0486 82.6155L7.39801 89.5373ZM104.574 90.6866H2.90405L19.5003 81.6064C19.6624 81.5173 19.7638 81.3472 19.7638 81.161V42.5432C19.7638 41.8117 20.0474 41.1238 20.5631 40.6066L22.751 38.4126C23.2592 37.9023 23.9628 37.6104 24.6812 37.6104H50.1766C51.1305 37.6104 52.0271 38.1195 52.5175 38.9401L55.7235 44.2988C55.9779 44.7241 56.1125 45.2114 56.1125 45.7079V66.8744C56.1125 67.1542 56.3394 67.3818 56.6178 67.3818H59.5936C60.7217 67.3818 61.7185 68.0616 62.1333 69.1144L64.7762 75.8305C64.853 76.0258 65.0374 76.1517 65.2471 76.1517H67.1612V49.5426C67.1612 49.1197 67.2609 48.6961 67.4494 48.3174L68.4663 46.2785C68.9315 45.3447 69.8671 44.7643 70.9081 44.7643H73.952C75.1672 44.7643 76.2179 45.5487 76.5668 46.7164L77.3958 49.4857C77.472 49.7426 77.5104 50.0069 77.5104 50.2724V69.5264C77.5104 70.0781 77.7888 70.5821 78.2552 70.874L80.8929 72.5279L87.5307 75.6351C87.7639 75.7443 87.9724 75.9092 88.1311 76.1132L92.8222 82.1011C92.8869 82.1845 92.9746 82.2442 93.076 82.2741L101.492 84.7837L104.574 90.6866Z" fill="#243038"/>
<path fill-rule="evenodd" clip-rule="evenodd" d="M133.304 43.8603C130.057 43.8603 127.426 46.5003 127.426 49.7563V60.3283C127.426 63.6309 123.19 66.8772 118.805 68.6218V13.8124C118.805 10.5564 116.174 7.91699 112.927 7.91699C109.681 7.91699 107.049 10.5564 107.049 13.8124V55.9362C102.664 54.1915 98.4276 50.9447 98.4276 47.6421V30.727C98.4276 27.471 95.7961 24.8316 92.5494 24.8316C89.3033 24.8316 86.6719 27.471 86.6719 30.727V47.6421C86.6719 53.7933 90.1987 59.5146 96.6034 63.7522C99.7579 65.8393 103.453 67.4116 107.049 68.2811V104.024H118.713L118.805 80.9673C122.402 80.0984 126.095 78.525 129.25 76.4378C135.655 72.2008 139.181 66.4795 139.181 60.3283V49.7563C139.181 46.5003 136.55 43.8603 133.304 43.8603" fill="#ABC885"/>
<path fill-rule="evenodd" clip-rule="evenodd" d="M107.622 103.449H118.142L118.234 80.5133L118.671 80.4082C122.264 79.5399 125.909 77.9595 128.934 75.958C135.173 71.8308 138.608 66.2801 138.608 60.3278V49.7558C138.608 46.8216 136.229 44.4344 133.304 44.4344C130.379 44.4344 127.998 46.8216 127.998 49.7558V60.3278C127.998 63.9568 123.487 67.3766 119.017 69.1557L118.233 69.4678V13.8119C118.233 10.8783 115.852 8.49112 112.927 8.49112C110.002 8.49112 107.622 10.8783 107.622 13.8119V56.7821L106.838 56.4701C102.366 54.691 97.8545 51.2717 97.8545 47.6416V30.727C97.8545 27.7928 95.4746 25.4057 92.5493 25.4057C89.6245 25.4057 87.2452 27.7928 87.2452 30.727V47.6416C87.2452 53.5939 90.681 59.1446 96.9189 63.2718C99.9439 65.2728 103.589 66.8531 107.183 67.722L107.622 67.8277V103.449ZM119.283 104.599H106.476V68.7299C102.9 67.811 99.2976 66.2227 96.2881 64.2315C89.7179 59.8847 86.0994 53.9927 86.0994 47.6416V30.727C86.0994 27.159 88.9926 24.2564 92.5493 24.2564C96.1065 24.2564 99.0003 27.159 99.0003 30.727V47.6416C99.0003 50.5143 102.74 53.4129 106.476 55.0714V13.8119C106.476 10.2444 109.37 7.3418 112.927 7.3418C116.485 7.3418 119.378 10.2444 119.378 13.8119V67.7576C123.114 66.098 126.853 63.2 126.853 60.3278V49.7558C126.853 46.1877 129.746 43.2851 133.304 43.2851C136.86 43.2851 139.754 46.1877 139.754 49.7558V60.3278C139.754 66.6795 136.136 72.5709 129.565 76.9177C126.555 78.9095 122.953 80.4984 119.377 81.4167L119.283 104.599Z" fill="#243038"/>
</g>
</svg>
