<svg width="129" height="172" viewBox="0 0 129 172" fill="none" xmlns="http://www.w3.org/2000/svg">
<path d="M64.5 172C29.1538 172 0.5 166.627 0.5 160C0.5 153.373 29.1538 148 64.5 148C99.8462 148 128.5 153.373 128.5 160C128.5 166.627 99.8462 172 64.5 172Z" fill="black" fill-opacity="0.05"/>
<path fill-rule="evenodd" clip-rule="evenodd" d="M63.0934 144.332C66.2526 145.385 67.8322 148.807 67.8322 154.599C67.8322 162.893 95.8707 162.893 97.4503 155.784C99.03 148.676 94.686 133.274 87.9725 128.141C83.4969 124.718 75.2039 130.115 63.0934 144.332Z" fill="#2D3B45" stroke="#152633" stroke-width="2"/>
<g filter="url(#filter0_i_4937_74)">
<path fill-rule="evenodd" clip-rule="evenodd" d="M38.9395 118.217C30.3751 124.92 30.7475 136.091 31.8646 142.793C32.5111 146.673 31.4399 150.145 31.8646 155.454C33.5508 160.138 57.1854 164.39 65.0051 157.688C66.8669 149.868 62.7709 147.137 65.0051 140.062C51.9723 131.125 48.2487 139.814 38.9395 118.217Z" fill="#28343D"/>
</g>
<path fill-rule="evenodd" clip-rule="evenodd" d="M38.9395 118.217C30.3751 124.92 30.7475 136.091 31.8646 142.793C32.5111 146.673 31.4399 150.145 31.8646 155.454C33.5508 160.138 57.1854 164.39 65.0051 157.688C66.8669 149.868 62.7709 147.137 65.0051 140.062C51.9723 131.125 48.2487 139.814 38.9395 118.217Z" stroke="#152633" stroke-width="2"/>
<path fill-rule="evenodd" clip-rule="evenodd" d="M25.7122 93.3853C18.8199 108.965 29.3392 125.333 39.3408 126.982C49.3415 128.632 57.5762 121.729 54.9499 112.612C52.3228 103.494 42.3221 101.844 40.602 100.713C38.8822 99.5821 37.1897 95.7454 35.1246 92.1842C32.816 88.2029 28.2452 87.6608 25.7122 93.3853Z" fill="#2D3B45" stroke="#152633" stroke-width="2"/>
<path fill-rule="evenodd" clip-rule="evenodd" d="M116.576 59.6087C116.576 84.7756 93.891 98.2269 62.7057 98.2269C31.5204 98.2269 6.23955 83.04 6.23955 60.4766C6.23955 32.4385 31.5204 5.36975 62.7057 5.36975C93.891 5.36975 116.576 33.1401 116.576 59.6087Z" fill="white"/>
<path d="M60.7056 95.2269C91.891 95.2269 114.576 81.7756 114.576 56.6087C114.576 46.9486 111.554 37.1151 106.2 28.5215C112.796 37.7825 116.576 48.8041 116.576 59.6087C116.576 84.7756 93.891 98.2269 62.7056 98.2269C38.9436 98.2269 18.6096 89.4096 10.2755 75.2301C19.5779 87.6425 38.6674 95.2269 60.7056 95.2269Z" fill="#EDEDED"/>
<path fill-rule="evenodd" clip-rule="evenodd" d="M116.576 59.6087C116.576 84.7756 93.891 98.2269 62.7057 98.2269C31.5204 98.2269 6.23955 83.04 6.23955 60.4766C6.23955 32.4385 31.5204 5.36975 62.7057 5.36975C93.891 5.36975 116.576 33.1401 116.576 59.6087Z" stroke="#152633" stroke-width="2"/>
<path fill-rule="evenodd" clip-rule="evenodd" d="M57.3208 81.372C57.8151 80.3833 58.1177 81.5049 58.675 83.099C59.5303 85.2048 60.7234 86.6214 63.4439 87.3165C63.6266 87.3553 63.8149 87.3907 64.0087 87.423C64.0053 87.4296 64.002 87.4363 63.9986 87.443C65.1993 87.6903 66.6728 87.8149 68.5 87.8149H64.0087C63.3353 88.6805 62.5291 89.5495 61.7089 90.2632C61.3435 90.5898 60.942 90.9172 60.5055 91.2446C59.2886 92.1573 58.5803 92.2708 58.103 91.828C57.7642 91.6971 57.4945 91.4085 57.3208 90.9262C57.0295 90.1174 56.8657 88.8978 56.8042 87.5908C56.4517 85.0501 56.765 82.4836 57.3208 81.372Z" fill="#152633" stroke="#152633" stroke-linecap="round" stroke-linejoin="round"/>
<path fill-rule="evenodd" clip-rule="evenodd" d="M67.416 74.1932C67.416 76.6067 71.084 78.563 75.6092 78.563C80.1345 78.563 83.8025 76.6067 83.8025 74.1932C83.8025 71.7797 80.1345 69.8235 75.6092 69.8235C71.084 69.8235 67.416 71.7797 67.416 74.1932Z" fill="#152633"/>
<path fill-rule="evenodd" clip-rule="evenodd" d="M43.3823 23.8488C53.1196 23.8488 62.0461 38.9614 62.0461 53.9588C62.0461 67.3805 50.176 79.7479 39.0125 79.7479C28.8008 79.7479 20.3487 68.2331 20.3487 53.9588C20.3487 47.3605 23.211 39.7154 28.0077 33.5539C32.7535 27.4569 38.5331 23.8488 43.3823 23.8488Z" fill="#2D3B45" stroke="#152633" stroke-width="2"/>
<path fill-rule="evenodd" clip-rule="evenodd" d="M48.4175 65.3307C50.8804 66.0538 53.802 63.5156 54.9426 59.6617C56.0837 55.8079 55.0121 52.0977 52.5488 51.3751C50.086 50.652 47.1644 53.1903 46.0237 57.0441C44.8826 60.898 45.9546 64.6081 48.4175 65.3307Z" fill="white"/>
<path fill-rule="evenodd" clip-rule="evenodd" d="M89.4483 20.5714C98.8123 20.5714 111.206 37.5385 111.206 50.727C111.206 59.0884 109.154 64.2431 104.388 68.9371C102.427 70.8681 99.3965 72.1008 97.0231 72.1008C96.9628 72.1008 96.907 72.1 96.8493 72.0982C93.5448 72.0086 89.9492 69.5769 86.8271 64.8205C83.7581 60.1437 81.7129 54.2802 81.0783 48.9299C79.6013 36.4825 80.5997 26.8222 84.4514 22.6729C85.7507 21.2733 87.4118 20.5714 89.4483 20.5714Z" fill="#2D3B45" stroke="#152633" stroke-width="2"/>
<path fill-rule="evenodd" clip-rule="evenodd" d="M88.5271 57.7211C89.4142 60.6855 91.6869 62.638 93.6024 62.0818C95.5179 61.5256 96.3517 58.6717 95.4645 55.7074C94.577 52.743 92.3047 50.7905 90.3896 51.3467C88.4737 51.9029 87.6399 54.7568 88.5271 57.7211Z" fill="white"/>
<path fill-rule="evenodd" clip-rule="evenodd" d="M16.1336 30.4958C14.5933 29.8328 12.9433 28.8807 11.2911 27.51C4.93832 22.2379 6.20888 13.451 6.6324 11.2543C7.05592 9.05758 9.59703 -1.48666 17.6439 3.34611C22.8409 6.46721 28.2111 11.7841 31.3655 15.1614C25.3884 19.2912 20.2117 24.5413 16.1336 30.4958Z" fill="#2D3B45"/>
<path d="M9.03638 25.1008C10.4373 26.1607 11.825 26.9326 13.1336 27.4958C17.2117 21.5414 22.3883 16.2912 28.3655 12.1614C28.0452 11.8185 27.702 11.4556 27.3386 11.077C28.8842 12.5579 30.2607 13.9786 31.3655 15.1614C25.3883 19.2912 20.2117 24.5414 16.1336 30.4958C14.5933 29.8328 12.9432 28.8808 11.2911 27.51C10.3961 26.7673 9.65244 25.9548 9.03638 25.1008Z" fill="#28343D"/>
<path fill-rule="evenodd" clip-rule="evenodd" d="M16.1336 30.4958C14.5933 29.8328 12.9433 28.8807 11.2911 27.51C4.93832 22.2379 6.20888 13.451 6.6324 11.2543C7.05592 9.05758 9.59703 -1.48666 17.6439 3.34611C22.8409 6.46721 28.2111 11.7841 31.3655 15.1614C25.3884 19.2912 20.2117 24.5413 16.1336 30.4958Z" stroke="#152633" stroke-width="2"/>
<path fill-rule="evenodd" clip-rule="evenodd" d="M105.607 22.1969C104.715 22.9034 103.824 23.476 102.956 23.9412C98.8162 19.135 93.83 14.9709 88.1723 11.7937C90.9412 8.97349 95.571 4.61728 100.057 2.04562C107.087 -1.98489 109.308 6.80853 109.678 8.64058C110.048 10.4726 111.158 17.8004 105.607 22.1969Z" fill="#2D3B45"/>
<path d="M102.956 19.9412C103.824 19.4759 104.716 18.9034 105.607 18.1969C108.503 15.9033 109.586 12.8119 109.907 10.1192C110.232 13.0211 110.157 18.5935 105.607 22.1969C104.716 22.9034 103.824 23.4759 102.956 23.9412C98.8163 19.135 93.8301 14.9709 88.1724 11.7936C88.9005 11.052 89.7573 10.2042 90.7064 9.31049C95.3271 12.2523 99.4458 15.8659 102.956 19.9412Z" fill="#28343D"/>
<path fill-rule="evenodd" clip-rule="evenodd" d="M105.607 22.1969C104.715 22.9034 103.824 23.476 102.956 23.9412C98.8162 19.135 93.83 14.9709 88.1723 11.7937C90.9412 8.97349 95.571 4.61728 100.057 2.04562C107.087 -1.98489 109.308 6.80853 109.678 8.64058C110.048 10.4726 111.158 17.8004 105.607 22.1969Z" stroke="#152633" stroke-width="2"/>
<path fill-rule="evenodd" clip-rule="evenodd" d="M53 156.5L51 89.5L14 96.5L18 161L53 156.5Z" fill="#F0DBCE" stroke="#152633" stroke-width="2" stroke-linejoin="round"/>
<path d="M52 155.5C33.5 154.5 31 160 31 152C31 144 29.5 143 22.5 143C19.1957 143 17.7018 141.491 17.1351 139.809L17 136.5C16.795 137.388 16.7413 138.641 17.1351 139.809L18 161L52 157V155.5Z" fill="#94BC3C"/>
<path d="M23 97L16.5 98.5L17 105L23 97Z" fill="#5B354E"/>
<path d="M20.5 158L20 153L26.5 157.5L20.5 158Z" fill="#5B354E"/>
<path fill-rule="evenodd" clip-rule="evenodd" d="M36.2909 133.065C43.4909 135.065 44.2909 138.565 43.7909 140.065C42.4591 148.855 44.2488 147.57 47.6483 145.131C49.1022 144.088 50.8504 142.833 52.7749 142.065L51.9913 110.065C51.1483 109.375 50.2668 108.541 49.2909 107.565C48.3443 106.618 47.5606 105.687 46.843 104.833C43.391 100.729 41.4674 98.4419 30.2909 105.065C16.7909 113.065 27.2909 130.565 36.2909 133.065ZM38.5773 130.496C39.895 133.547 35.1526 131.785 34.3328 130.445C33.3081 128.771 37.2597 127.446 38.5773 130.496ZM46.7937 142.85C46.825 145.911 44.4169 145.134 44.2584 143.85C44.0601 142.246 46.7625 139.789 46.7937 142.85ZM45.8555 139.518C45.9065 140.489 45.0679 140.211 44.9965 139.802C44.9072 139.29 45.8045 138.547 45.8555 139.518ZM40.5964 102.325C43.2241 102.818 42.5306 106.846 39.5 107.5C40.2095 109.468 37.2519 113.18 35.7239 112.214C35.0436 111.784 35.8575 110.26 36.6658 108.747C37.6732 106.862 38.672 104.992 36.7601 105.274C33.3139 105.783 37.9687 101.832 40.5964 102.325ZM35.5331 106.416C36.9039 105.845 36.0884 107.954 35.4851 108.312C34.731 108.76 34.1624 106.986 35.5331 106.416ZM33.978 104.861C35.0711 104.801 34.7326 105.771 34.2705 105.854C33.6928 105.957 32.8849 104.921 33.978 104.861Z" fill="#94BC3C"/>
<path fill-rule="evenodd" clip-rule="evenodd" d="M53 156.5L51 89.5L14 96.5L18 161L53 156.5Z" stroke="#5B354E" stroke-width="2" stroke-linejoin="round"/>
<path fill-rule="evenodd" clip-rule="evenodd" d="M118 82V148L85.5 162V93L118 82Z" fill="#F0DBCE"/>
<path fill-rule="evenodd" clip-rule="evenodd" d="M97.2909 117.564C96.9766 117.507 96.677 117.455 96.3905 117.405C91.6635 116.581 90.5052 116.379 85.7909 105.064L85.4394 138.002C85.8323 137.989 86.427 138.049 87.2663 138.201C89.5216 138.611 93.5367 142.136 90.2663 141.201C88.5379 140.707 86.4438 139.726 85.4289 138.979L85.396 142.064C86.2883 141.012 87.7161 141.141 90.2909 143.564C98.7909 151.564 106.291 147.064 107.791 143.564C108.92 140.929 106.92 139.512 104.671 137.92C101.318 135.546 97.4126 132.781 102.5 125C103.907 122.185 105.934 119.928 107.633 118.034C110.765 114.545 112.788 112.291 107.791 110.064C106.356 109.661 106.008 110.911 105.559 112.516C104.823 115.153 103.818 118.751 97.2909 117.564ZM107.414 112.25C109.743 111.301 109.899 113.324 108.967 113.83C107.803 114.462 105.085 113.198 107.414 112.25ZM101.996 141.051C106.408 139.946 105.147 144.85 103.288 145.594C100.964 146.523 97.5842 142.155 101.996 141.051ZM100.996 138.455C102.236 137.474 102.537 139.208 102.055 139.71C101.451 140.336 99.7559 139.436 100.996 138.455Z" fill="#94BC3C"/>
<path d="M104.91 91C102.41 88 104.91 87 104.91 87H104.41L85.9095 93.5V95C91.5 91 98.5 92 100.5 95.5C103.458 100.676 107.41 94 104.91 91Z" fill="#94BC3C"/>
<path fill-rule="evenodd" clip-rule="evenodd" d="M118 82V148L85.5 162V93L118 82Z" stroke="#5B354E" stroke-width="2" stroke-linejoin="round"/>
<path fill-rule="evenodd" clip-rule="evenodd" d="M85.5 93V162L53 156.5L51 89.5L85.5 93Z" fill="#D4AF9C"/>
<path fill-rule="evenodd" clip-rule="evenodd" d="M85.7909 105.065C82.5824 97.3647 79.9916 99.7529 75.7725 103.642C73.4166 105.813 70.5531 108.453 66.7909 110.065C58.6523 113.492 55.6512 113.249 51.5 109.651L52.5 142.179C54.5963 141.285 56.9122 140.938 59.2909 142.065C61.8189 143.263 62.7575 138.308 63.5095 134.339C64.2866 130.237 64.8644 127.188 66.7909 133.065C67.5662 134.96 68.3119 136.9 69.0432 138.803C72.5564 147.942 75.7385 156.22 80.2909 154.565C82.587 153.73 83.2275 150.281 83.8129 147.128C84.2627 144.705 84.68 142.457 85.7909 141.704V105.065ZM80.4146 102.624C82.7435 100.254 82.8988 105.311 81.9672 106.575C80.8027 108.155 78.0856 104.994 80.4146 102.624ZM77.8125 105.891C77.3813 106.236 76.8918 106.34 76.7192 106.125C76.5467 105.909 76.7564 105.455 77.1876 105.11C77.6188 104.765 78.1084 104.66 78.2809 104.875C78.4534 105.091 78.2437 105.545 77.8125 105.891ZM77.5 151.5C75.9 151.1 74.1667 145.333 73.5 142.5C75.1513 138.867 76.1482 141.779 77.067 144.462C77.5392 145.841 77.9908 147.161 78.5 147.5C80 148.5 79.5 152 77.5 151.5ZM79.8556 145.518C79.9066 146.489 79.068 146.211 78.9966 145.802C78.9073 145.29 79.8046 144.547 79.8556 145.518Z" fill="#6F9128"/>
<path d="M69.5 95C72.5479 97.2606 82.1667 96.6667 86.5 94.5L85 93L52.5 89.5C52.1 92.3 54 93 57.5 93C61 93 64.5 91.2917 69.5 95Z" fill="#6F9028"/>
<path d="M86.5 162C84 157.5 82 156.5 76 157.5C70 158.5 69 156 66 153.5C63 151 62.5 153.5 55.5 155C52.6791 155.605 51.2386 155.641 50.5895 155.566C50.141 155.251 49.8454 155.481 50.5895 155.566C50.7206 155.659 50.8649 155.797 51 156C59.5 157 69.5 161.5 86.5 162Z" fill="#6F9128"/>
<path fill-rule="evenodd" clip-rule="evenodd" d="M85.5 93V162L53 156.5L51 89.5L85.5 93Z" stroke="#5B354E" stroke-width="2" stroke-linejoin="round"/>
<path d="M115.5 146V140L109.5 149L115.5 146Z" fill="#5B354E"/>
<path d="M115.5 86V91L109.5 87.5L115.5 86Z" fill="#5B354E"/>
<path d="M98 138.5C96.5 134.667 90 119.5 90 111.5C90 101.5 103 99.5 100.5 109.5C98 119.5 82.8142 130.802 71 120C53.5 104 37 153.5 58.5 140C80.7782 126.011 38 130 32 115.5" stroke="#5B354E" stroke-width="1.5" stroke-miterlimit="16" stroke-linecap="round" stroke-dasharray="4 4"/>
<circle cx="1.5" cy="1.5" r="1.5" transform="matrix(-1 0 0 1 33.5 114)" fill="#5B354E"/>
<circle cx="1.5" cy="1.5" r="1.5" transform="matrix(-1 0 0 1 99.5 137)" fill="#5B354E"/>
<path fill-rule="evenodd" clip-rule="evenodd" d="M108.289 112.543C108.923 109.184 110.585 106.388 112.711 104.663C112.47 104.477 112.294 104.269 112.212 104.034C111.396 101.706 112.759 100.128 114.796 99.5766C115.988 99.2536 119.774 99.8652 121.948 104.412C124.717 106.729 126.127 111.228 125.232 115.969C124.051 122.23 119.3 126.538 114.622 125.592C109.943 124.647 107.108 118.804 108.289 112.543Z" fill="#2D3B45"/>
<path d="M118.963 100.741C119.315 101.228 119.647 101.782 119.948 102.412C122.717 104.729 124.127 109.228 123.232 113.969C122.051 120.23 117.3 124.538 112.622 123.592C111.713 123.409 110.873 123.04 110.119 122.519C111.254 124.111 112.798 125.224 114.622 125.592C119.3 126.538 124.051 122.23 125.232 115.969C126.127 111.228 124.717 106.729 121.948 104.412C121.112 102.663 120.037 101.496 118.963 100.741Z" fill="#28343D"/>
<path fill-rule="evenodd" clip-rule="evenodd" d="M108.289 112.543C108.923 109.184 110.585 106.388 112.711 104.663C112.47 104.477 112.294 104.269 112.212 104.034C111.396 101.706 112.759 100.128 114.796 99.5766C115.988 99.2536 119.774 99.8652 121.948 104.412C124.717 106.729 126.127 111.228 125.232 115.969C124.051 122.23 119.3 126.538 114.622 125.592C109.943 124.647 107.108 118.804 108.289 112.543Z" stroke="#152633" stroke-width="2"/>
<path fill-rule="evenodd" clip-rule="evenodd" d="M24.711 115.543C24.0773 112.184 22.4154 109.388 20.289 107.663C20.5307 107.477 20.7054 107.269 20.788 107.034C21.6036 104.706 20.2414 103.128 18.2043 102.577C17.0115 102.254 13.2266 102.865 11.0518 107.412C8.28289 109.729 6.87317 114.228 7.76793 118.969C8.949 125.23 13.7002 129.538 18.3787 128.592C23.0575 127.647 25.8925 121.804 24.711 115.543Z" fill="#2D3B45"/>
<path d="M22.8733 110.674C23.2356 111.57 23.52 112.531 23.7109 113.543C24.8924 119.804 22.0574 125.647 17.3786 126.592C14.0564 127.264 10.6975 125.286 8.60632 121.841C10.4848 126.487 14.4573 129.385 18.3786 128.592C23.0574 127.647 25.8924 121.804 24.7109 115.543C24.3687 113.729 23.7266 112.079 22.8733 110.674Z" fill="#28343D"/>
<path fill-rule="evenodd" clip-rule="evenodd" d="M24.711 115.543C24.0773 112.184 22.4154 109.388 20.289 107.663C20.5307 107.477 20.7054 107.269 20.788 107.034C21.6036 104.706 20.2414 103.128 18.2043 102.577C17.0115 102.254 13.2266 102.865 11.0518 107.412C8.28289 109.729 6.87317 114.228 7.76793 118.969C8.949 125.23 13.7002 129.538 18.3787 128.592C23.0575 127.647 25.8925 121.804 24.711 115.543Z" stroke="#152633" stroke-width="2"/>
<defs>
<filter id="filter0_i_4937_74" x="30.2811" y="116.63" width="36.2245" height="45.5312" filterUnits="userSpaceOnUse" color-interpolation-filters="sRGB">
<feFlood flood-opacity="0" result="BackgroundImageFix"/>
<feBlend mode="normal" in="SourceGraphic" in2="BackgroundImageFix" result="shape"/>
<feColorMatrix in="SourceAlpha" type="matrix" values="0 0 0 0 0 0 0 0 0 0 0 0 0 0 0 0 0 0 127 0" result="hardAlpha"/>
<feOffset dx="-3" dy="-3"/>
<feComposite in2="hardAlpha" operator="arithmetic" k2="-1" k3="1"/>
<feColorMatrix type="matrix" values="0 0 0 0 0 0 0 0 0 0 0 0 0 0 0 0 0 0 0.12 0"/>
<feBlend mode="normal" in2="shape" result="effect1_innerShadow_4937_74"/>
</filter>
</defs>
</svg>
