<svg xmlns="http://www.w3.org/2000/svg" version="1" width="100%" height="100%" viewBox="0 0 350 175" overflow="visible"><path d="M22.622 73.44H0V45.588h23.262v-7.071c0-34.262 15.579-46.199 46.31-46.199 8.323 0 14.725 1.326 19.632 2.212l-2.346 27.408c-3.2-1.105-6.402-1.769-12.164-1.769-9.816 0-13.658 7.073-13.658 18.348v7.072h27.316V73.44H61.036v87.307H22.622V73.44zM108.41-5.029h38.413v165.776H108.41zM179.688-2.377h38.414V26.8h-38.414zM179.688 45.588h38.414v115.157h-38.414zM333.557 78.52c-7.043-4.417-14.085-6.408-23.262-6.408-16.646 0-29.45 11.936-29.45 31.83 0 18.347 14.939 30.28 31.584 30.28 8.751 0 17.502-1.987 23.903-5.524l.853 29.618c-9.604 3.318-21.127 5.086-31.37 5.086-36.709 0-64.664-22.104-64.664-60.122 0-38.24 27.955-60.342 64.663-60.342 11.525 0 21.767 1.99 30.518 6.41l-2.775 29.173zM353.193-5.029h38.412v99.026h.428l32.01-48.41h42.041l-38.626 52.827 41.828 62.333h-46.524l-30.73-57.026h-.427v57.026h-38.412V-5.03z" fill="#0063db"/><path d="M562.97 77.416c-4.268-1.324-8.537-1.324-13.017-1.324-17.925 0-27.957 13.481-27.957 36.028v48.627h-38.412V45.587h34.997v21.22h.428c6.614-14.59 16.218-23.872 32.865-23.872 4.478 0 9.174.663 13.019 1.325l-1.923 33.156z" fill="#ff0084"/></svg>