<svg enable-background="new 0 0 113 128" viewBox="0 0 113 128" xmlns="http://www.w3.org/2000/svg"><g stroke="#243038" stroke-miterlimit="10" stroke-width="2"><path d="m103.5 126h-94c-1.1 0-2-.9-2-2v-68c0-1.1.9-2 2-2h94c1.1 0 2 .9 2 2v68c0 1.1-.9 2-2 2z" fill="#80cbf2" stroke-linejoin="round"/><path d="m109.5 61h-106c-1.1 0-2-.9-2-2v-21c0-1.1.9-2 2-2h106c1.1 0 2 .9 2 2v21c0 1.1-.9 2-2 2z" fill="#80cbf2" stroke-linejoin="round"/><path d="m85.2 3.1c-4.9 0-9.4 1.3-13 3.5-.1 0-.1.1-.2.1-.3.2-.6.4-.9.6-19.4 13-22.5 28.7-22.5 28.7h36.6c11.7 0 21.2-7.4 21.2-16.5s-9.5-16.4-21.2-16.4z" fill="#e9b0df"/><path d="m87.1 16.9c-14.1 0-28 12.3-34 19.1h34c6.8 0 12.3-4.3 12.3-9.5 0-5.3-5.5-9.6-12.3-9.6z" fill="#db7eca"/><path d="m27.8 3.1c4.9 0 9.4 1.3 13 3.5.1 0 .1.1.2.1.3.2.6.4.9.6 19.4 13 22.5 28.7 22.5 28.7h-36.6c-11.7 0-21.2-7.4-21.2-16.5s9.5-16.4 21.2-16.4z" fill="#e9b0df"/><path d="m25.9 16.9c14.1 0 28 12.3 34 19.1h-34c-6.8 0-12.3-4.3-12.3-9.5 0-5.3 5.5-9.6 12.3-9.6z" fill="#db7eca"/><path d="m67.5 36c-2-4.1-6.2-6.8-11-6.8s-9 2.8-11 6.8z" fill="#e9b0df"/><path d="m43.5 36h26.1v25h-26.1z" fill="#e9b0df"/><path d="m45.5 61.1h22.1v64.9h-22.1z" fill="#db7eca"/></g></svg>