<svg xmlns="http://www.w3.org/2000/svg" viewBox="0 0 373.48 259.51"><defs><style>.cls-1,.cls-11{fill:#9be1a4;}.cls-1,.cls-10{opacity:0.49;}.cls-2,.cls-3,.cls-9{fill:#67c1f0;}.cls-11,.cls-2{opacity:0.24;}.cls-3,.cls-5{stroke:#000;}.cls-3,.cls-4,.cls-5{stroke-miterlimit:10;stroke-width:2px;}.cls-10,.cls-4,.cls-7{fill:#fc9aad;}.cls-4{stroke:#231f20;}.cls-5,.cls-8{fill:#fdbd99;}.cls-6{fill:#231f20;}.cls-9{opacity:0.18;}</style></defs><title>Asset 1</title><g id="Layer_2" data-name="Layer 2"><g id="Layer_2-2" data-name="Layer 2"><circle class="cls-1" cx="215.43" cy="10.92" r="10.92"/><circle class="cls-2" cx="287.78" cy="71.82" r="6.12"/><rect class="cls-3" x="105.24" y="119.51" width="163" height="129"/><rect class="cls-4" x="96.24" y="160.65" width="178" height="20.85"/><rect class="cls-3" x="96.03" y="103.44" width="182.54" height="50.23"/><rect class="cls-4" x="95.87" y="157.2" width="178" height="20.85" transform="translate(352.5 -17.24) rotate(90)"/><path class="cls-5" d="M176.1,107.47s-36.19,31.68-35.7,53.51l15.84-12.09,8,15.68s3.4-49.6,18.4-54.6Z"/><path class="cls-5" d="M191.82,107.48s39.37,31.59,38.87,49.08l-12.77-6.7-6.46,13.42s-11.13-49.79-26.13-53.79Z"/><path d="M185.32,102.2V108l-.55.28a38.21,38.21,0,0,1-15.44,3.2c-9.78,0-22.48-3.82-32.84-19.77l-.29-.45,11.48-26.59h.66a41.85,41.85,0,0,1,17.77,4.83C175,74.2,184.07,83.59,185.32,102.2Zm-1,5.14.55-.84-.55-.35v-3.88c-2.49-36.86-36-36.66-36-36.66L138.25,89a4.25,4.25,0,0,0-1.29.63l.65.83-.28.66c17.18,26.44,40.59,18.88,45.9,16.71l.56.36Z"/><path class="cls-6" d="M184.87,106.5l-.55.84v-1.19Z"/><path class="cls-6" d="M184.32,107.34l-.54.84-.56-.36C183.93,107.53,184.32,107.34,184.32,107.34Z"/><path class="cls-6" d="M184.32,106.15v1.19s-.39.19-1.1.48l-1-.66c.47-.18.85-.34,1.13-.46v-1.19C183.65,105.71,184,105.93,184.32,106.15Z"/><path d="M184.32,102.27v3.88c-.34-.22-.67-.44-1-.64v-3.24c-1-14.85-7.19-25.39-18.39-31.27A40,40,0,0,0,149,66.63l-9.51,22a6.89,6.89,0,0,0-1.23.34l10.09-23.38S181.83,65.41,184.32,102.27Z"/><path class="cls-6" d="M183.32,105.51v1.19c-.28.12-.66.28-1.13.46-31.37-20.07-41.92-17-43.72-16.12l0,0,1-2.36C144.22,87.68,156.47,88.32,183.32,105.51Z"/><path class="cls-7" d="M183.32,102.27v3.24c-26.86-17.19-39.11-17.83-43.85-16.86l9.51-22A40,40,0,0,1,164.93,71C176.13,76.88,182.32,87.42,183.32,102.27Z"/><path d="M182.19,107.16l1,.66c-5.31,2.17-28.71,9.73-45.9-16.71l.28-.66.58.74a1.4,1.4,0,0,1,.29-.15c7.86,11.84,17.84,18,29.7,18.44A37,37,0,0,0,182.19,107.16Z"/><path class="cls-8" d="M182.19,107.16a37,37,0,0,1-14,2.32c-11.86-.39-21.84-6.6-29.7-18.44C140.28,90.21,150.82,87.09,182.19,107.16Z"/><path class="cls-6" d="M139.48,88.65l-1,2.36,0,0a1.4,1.4,0,0,0-.29.15l-.58-.74.64-1.46A6.89,6.89,0,0,1,139.48,88.65Z"/><path class="cls-6" d="M138.25,89l-.64,1.46-.65-.83A4.25,4.25,0,0,1,138.25,89Z"/><path d="M185.33,102.55v5.75l.55.28a38.15,38.15,0,0,0,15.44,3.2c9.78,0,22.48-3.8,32.86-19.75l.29-.45L223,65h-.66C221.75,65,187.86,65.33,185.33,102.55Zm1,5.14-.55-.84.55-.35v-3.88c2.51-36.86,36-36.64,36-36.64l10.07,23.38a4.25,4.25,0,0,1,1.29.63l-.65.83.28.66c-17.2,26.44-40.6,18.86-45.9,16.69l-.56.36Z"/><path class="cls-6" d="M185.78,106.85l.55.84V106.5Z"/><path class="cls-6" d="M186.33,107.69l.54.84.56-.36C186.72,107.88,186.33,107.69,186.33,107.69Z"/><path class="cls-6" d="M186.33,106.5v1.19s.39.19,1.1.48l1-.66c-.47-.18-.85-.34-1.13-.46v-1.19C187,106.06,186.67,106.28,186.33,106.5Z"/><path d="M186.33,102.62v3.88c.34-.22.67-.44,1-.64v-3.24c1-14.85,7.21-25.39,18.41-31.26a40,40,0,0,1,16-4.37l9.48,22a7.91,7.91,0,0,1,1.24.35L222.34,66S188.84,65.76,186.33,102.62Z"/><path class="cls-6" d="M187.33,105.86v1.19c.28.12.66.28,1.13.46,31.33-20,41.88-16.94,43.71-16.11l0,0-1-2.37C226.43,88.05,214.17,88.7,187.33,105.86Z"/><path class="cls-7" d="M187.33,102.62v3.24C214.17,88.7,226.43,88.05,231.17,89l-9.48-22a40,40,0,0,0-16,4.37C194.53,77.23,188.34,87.77,187.33,102.62Z"/><path d="M188.46,107.51l-1,.66c5.31,2.17,28.71,9.75,45.9-16.69l-.28-.66-.58.74a1.34,1.34,0,0,0-.3-.15c-7.85,11.84-17.84,18-29.7,18.42A36.91,36.91,0,0,1,188.46,107.51Z"/><path class="cls-8" d="M188.46,107.51a36.91,36.91,0,0,0,14,2.32c11.86-.39,21.84-6.58,29.7-18.42h0C230.34,90.57,219.78,87.5,188.46,107.51Z"/><path class="cls-6" d="M231.17,89l1,2.37,0,0h0a1.34,1.34,0,0,1,.3.15l.58-.74-.64-1.46A7.91,7.91,0,0,0,231.17,89Z"/><path class="cls-6" d="M232.41,89.36l.64,1.46.65-.83A4.25,4.25,0,0,0,232.41,89.36Z"/><circle class="cls-5" cx="184.87" cy="108.53" r="8.25"/><ellipse class="cls-9" cx="186.74" cy="249.96" rx="186.74" ry="9.54"/><circle class="cls-10" cx="105.24" cy="72.88" r="10.92"/><circle class="cls-11" cx="157.78" cy="111.82" r="6.12"/></g></g></svg>