<?xml version="1.0" encoding="utf-8"?>
<!DOCTYPE svg PUBLIC "-//W3C//DTD SVG 1.1//EN" "http://www.w3.org/Graphics/SVG/1.1/DTD/svg11.dtd">
<svg version="1.1" xmlns:sketch="http://www.bohemiancoding.com/sketch/ns"
	 xmlns="http://www.w3.org/2000/svg" xmlns:xlink="http://www.w3.org/1999/xlink" x="0px" y="0px" viewBox="0 0 512 512"
	 enable-background="new 0 0 512 512" xml:space="preserve">
<title>check-plus</title>
<desc>Created with Sketch.</desc>
<g id="Page-1" sketch:type="MSPage">
	<g id="check-plus" sketch:type="MSArtboardGroup">
		<path id="Rectangle-1" sketch:type="MSShapeGroup" fill="#00AD18" d="M202.9,456.5c-3.5,3.3-7.9,5-12.7,5.3
			c-4.9,0.7-10.6-0.8-14.9-4.3L5.4,292.6c-6.9-6.1-7.1-16.9-1.1-23.4l60.5-62.8c7-7.2,17.8-7.4,24.4-1.1l96.6,92.6L420.6,55.4
			c6-6.9,16.7-7.1,23.4-1.1l62.7,61.7c6.9,6.1,7.1,16.9,1.1,23.4l-72.8,75.7c-4-1.4-8.3-2.2-12.8-2.2h-39.1
			c-21.6,0-39.1,17.5-39.1,39.1v41.8h-41.8c-21.6,0-39.1,17.5-39.1,39.1v39.1c0,6.3,1.5,12.3,4.2,17.6L202.9,456.5L202.9,456.5z
			 M379.5,329.5v-68.8c0-4.8,3.9-8.7,8.7-8.7h37.5c4.8,0,8.7,3.9,8.7,8.7v68.8h68.8c4.8,0,8.7,3.9,8.7,8.7v37.5
			c0,4.8-3.9,8.7-8.7,8.7h-68.8v68.8c0,4.8-3.9,8.7-8.7,8.7h-37.5c-4.8,0-8.7-3.9-8.7-8.7v-68.8h-68.8c-4.8,0-8.7-3.9-8.7-8.7v-37.5
			c0-4.8,3.9-8.7,8.7-8.7H379.5L379.5,329.5L379.5,329.5z"/>
	</g>
</g>
</svg>
