<?xml version="1.0" encoding="UTF-8" standalone="no"?>
<svg width="18px" height="15px" viewBox="0 0 18 15" version="1.1" xmlns="http://www.w3.org/2000/svg" xmlns:xlink="http://www.w3.org/1999/xlink" xmlns:sketch="http://www.bohemiancoding.com/sketch/ns">
    <!-- Generator: Sketch 3.2 (9964) - http://www.bohemiancoding.com/sketch -->
    <title>Rectangle-1</title>
    <desc>Created with Sketch.</desc>
    <defs></defs>
    <g id="Page-1" stroke="none" stroke-width="1" fill="none" fill-rule="evenodd" sketch:type="MSPage">
        <g id="icon-checkmark-plus-success" sketch:type="MSLayerGroup" fill="#00AD18">
            <g id="Page-1" sketch:type="MSShapeGroup">
                <g id="check-plus">
                    <path d="M7.13201868,14.8011218 C7.00899573,14.9212769 6.85433831,14.983175 6.68562112,14.9940981 C6.513389,15.0195856 6.31303734,14.9649696 6.16189486,14.8375324 L0.190009468,8.83342023 C-0.0525214866,8.61131541 -0.0595513693,8.21808065 0.151345113,7.98141158 L2.27788464,5.69482427 C2.52393054,5.43266776 2.90354421,5.42538564 3.13553034,5.65477258 L6.5309637,9.02639655 L14.784046,0.196819749 C14.9949425,-0.0544135698 15.3710413,-0.061695695 15.6065423,0.156768061 L17.8104106,2.40330368 C18.0529415,2.6254085 18.0599714,3.01864326 17.8490749,3.25531233 L15.2901976,6.01159672 C15.1495999,5.96062184 14.9984575,5.93149334 14.8402851,5.93149334 L13.465943,5.93149334 C12.7067157,5.93149334 12.091601,6.56867929 12.091601,7.35514881 L12.091601,8.87711298 L10.6223555,8.87711298 C9.86312812,8.87711298 9.24801338,9.51429893 9.24801338,10.3007685 L9.24801338,11.7244239 C9.24801338,11.9538109 9.3007375,12.1722746 9.39564092,12.3652509 L7.13201868,14.8011218 L7.13201868,14.8011218 Z M13.3394051,10.1769723 L13.3394051,7.67192126 C13.3394051,7.49715026 13.4764879,7.35514881 13.645205,7.35514881 L14.9633081,7.35514881 C15.1320252,7.35514881 15.269108,7.49715026 15.269108,7.67192126 L15.269108,10.1769723 L17.6873876,10.1769723 C17.8561048,10.1769723 17.9931875,10.3189738 17.9931875,10.4937448 L17.9931875,11.8591432 C17.9931875,12.0339143 17.8561048,12.1759157 17.6873876,12.1759157 L15.269108,12.1759157 L15.269108,14.6809668 C15.269108,14.8557378 15.1320252,14.9977392 14.9633081,14.9977392 L13.645205,14.9977392 C13.4764879,14.9977392 13.3394051,14.8557378 13.3394051,14.6809668 L13.3394051,12.1759157 L10.9211255,12.1759157 C10.7524083,12.1759157 10.6153256,12.0339143 10.6153256,11.8591432 L10.6153256,10.4937448 C10.6153256,10.3189738 10.7524083,10.1769723 10.9211255,10.1769723 L13.3394051,10.1769723 L13.3394051,10.1769723 Z" id="Rectangle-1"></path>
                </g>
            </g>
        </g>
    </g>
</svg>