<svg id="Layer_1" xmlns="http://www.w3.org/2000/svg" xmlns:xlink="http://www.w3.org/1999/xlink" viewBox="0 0 379.3 94.3">
  <style>
    .st0{fill:#e02d27}
  </style>
  <g>
    <g>
      <path class="st0" d="M13.7,47.1c0-7-5.2-12.7-12-13.5C0.6,37.9,0,42.4,0,47.1s0.6,9.2,1.7,13.5C8.5,59.8,13.7,54,13.7,47.1z"/>
      <path class="st0" d="M21.6,42.8c-2.4,0-4.3,1.9-4.3,4.3s1.9,4.3,4.3,4.3c2.4,0,4.3-1.9,4.3-4.3S24,42.8,21.6,42.8z"/>
      <path class="st0" d="M80.6,47.1c0,7,5.2,12.7,12,13.5c1.1-4.3,1.7-8.8,1.7-13.5s-0.6-9.2-1.7-13.5C85.8,34.4,80.6,40.1,80.6,47.1z"/>
      <path class="st0" d="M72.6,42.8c-2.4,0-4.3,1.9-4.3,4.3s1.9,4.3,4.3,4.3s4.3-1.9,4.3-4.3S75,42.8,72.6,42.8z"/>
      <path class="st0" d="M47,80.6c-7,0-12.7,5.2-13.5,12c4.3,1.1,8.8,1.7,13.5,1.7c4.7,0,9.2-0.6,13.5-1.7C59.7,85.9,54,80.6,47,80.6z"/>
      <path class="st0" d="M47,68.4c-2.4,0-4.3,1.9-4.3,4.3S44.6,77,47,77c2.4,0,4.3-1.9,4.3-4.3C51.3,70.4,49.4,68.4,47,68.4z"/>
      <path class="st0" d="M47,13.7c7,0,12.7-5.2,13.5-12C56.2,0.6,51.7,0,47,0c-4.7,0-9.2,0.6-13.5,1.7C34.3,8.5,40.1,13.7,47,13.7z"/>
      <path class="st0" d="M47,17.4c-2.4,0-4.3,1.9-4.3,4.3S44.6,26,47,26c2.4,0,4.3-1.9,4.3-4.3C51.3,19.3,49.4,17.4,47,17.4z"/>
      <path class="st0" d="M70.7,70.8c-4.9,4.9-5.3,12.6-1.1,18c7.9-4.6,14.5-11.2,19.1-19.1C83.4,65.5,75.6,65.9,70.7,70.8z"/>
      <path class="st0" d="M62.1,62.1c-1.7,1.7-1.7,4.4,0,6c1.7,1.7,4.4,1.7,6,0c1.7-1.7,1.7-4.4,0-6C66.5,60.5,63.8,60.5,62.1,62.1z"/>
      <path class="st0" d="M23.4,23.5c4.9-4.9,5.3-12.6,1.1-18C16.6,10.1,10,16.7,5.4,24.6C10.8,28.7,18.5,28.4,23.4,23.5z"/>
      <path class="st0" d="M26,26c-1.7,1.7-1.7,4.4,0,6c1.7,1.7,4.4,1.7,6,0c1.7-1.7,1.7-4.4,0-6C30.4,24.4,27.7,24.4,26,26z"/>
      <path class="st0" d="M70.7,23.4c4.9,4.9,12.6,5.3,18,1.1C84.1,16.6,77.5,10,69.6,5.4C65.4,10.8,65.8,18.5,70.7,23.4z"/>
      <path class="st0" d="M68.1,32c1.7-1.7,1.7-4.4,0-6c-1.7-1.7-4.4-1.7-6,0c-1.7,1.7-1.7,4.4,0,6C63.7,33.7,66.4,33.7,68.1,32z"/>
      <path class="st0" d="M23.4,70.7c-4.9-4.9-12.6-5.3-18-1.1c4.6,7.9,11.2,14.5,19.1,19.1C28.7,83.4,28.3,75.6,23.4,70.7z"/>
      <path class="st0" d="M26,62.1c-1.7,1.7-1.7,4.4,0,6c1.7,1.7,4.4,1.7,6,0c1.7-1.7,1.7-4.4,0-6C30.4,60.4,27.6,60.4,26,62.1z"/>
    </g>
    <g>
      <path class="st0" d="M156.7,67c0,9.2-6,12.7-15.1,12.7h-0.2c-9.1,0-15.1-3.3-15.1-12.7V31.1c0-8.9,6-12.7,15.1-12.7h0.2 c9.1,0,15.1,3.8,15.1,12.7v7.1h-9.9v-5.6c0-4.2-2.1-5.5-5.2-5.5s-5.2,1.3-5.2,5.5v32.8c0,4.2,2.1,5.5,5.2,5.5s5.2-1.3,5.2-5.5v-7 h9.9V67z"/>
      <path class="st0" d="M191.8,65.6h-10.9l-2.1,13.3h-9.6L180.3,19h12.5l11.3,59.9H194L191.8,65.6z M190.6,57.4l-4.2-26.6l-4.2,26.6 H190.6z"/>
      <path class="st0" d="M217.6,79V19.1h9.9l12.6,37v-37h9.1V79h-9.4l-13.1-38.9V79H217.6z"/>
      <path class="st0" d="M284.9,79H274l-11.3-59.9h10.1l6.9,44.4l6.9-44.4h9.6L284.9,79z"/>
      <path class="st0" d="M325.8,65.6h-10.9l-2.1,13.3h-9.6L314.3,19h12.5l11.3,59.9H328L325.8,65.6z M324.5,57.4l-4.2-26.6l-4.2,26.6 H324.5z"/>
      <path class="st0" d="M369.3,36.6v-4.5c0-3.8-2.1-5.1-5-5.1s-5,1.4-5,5.1v4.1c0,3.1,1,4.4,3.8,6.1l7,3.9c5.7,3.3,9.2,5.9,9.2,12.3 v8.6c0,9.2-5.7,12.5-14.8,12.5h-0.2c-9.1,0-14.8-3.2-14.8-12.5v-6.3h9.8v5c0,3.7,2.1,5.3,5.1,5.3s5.1-1.6,5.1-5.3v-4.7 c0-3.1-0.9-4.6-3.9-6.2l-6.9-3.9c-5.8-3.3-9.2-6.1-9.2-12.3v-7.9c0-8.9,6.5-12.3,14.7-12.3h0.2c8.2,0,14.7,3.4,14.7,12.3v5.9h-9.8 V36.6z"/>
    </g>
  </g>
</svg>
