<?xml version="1.0" encoding="UTF-8"?>
<svg width="84px" height="312px" viewBox="0 0 84 312" version="1.1" xmlns="http://www.w3.org/2000/svg" xmlns:xlink="http://www.w3.org/1999/xlink">
    <!-- Generator: Sketch 42 (36781) - http://www.bohemiancoding.com/sketch -->
    <title>Group</title>
    <desc>Created with Sketch.</desc>
    <defs>
        <rect id="path-1" x="1164" y="0" width="276" height="1024"></rect>
        <filter x="-50%" y="-50%" width="200%" height="200%" filterUnits="objectBoundingBox" id="filter-2">
            <feOffset dx="0" dy="0" in="SourceAlpha" result="shadowOffsetOuter1"></feOffset>
            <feGaussianBlur stdDeviation="10" in="shadowOffsetOuter1" result="shadowBlurOuter1"></feGaussianBlur>
            <feColorMatrix values="0 0 0 0 0   0 0 0 0 0   0 0 0 0 0  0 0 0 0.110733696 0" type="matrix" in="shadowBlurOuter1"></feColorMatrix>
        </filter>
        <rect id="path-3" x="0" y="-4.33976186e-14" width="84" height="52.3041463" rx="4"></rect>
        <mask id="mask-4" maskContentUnits="userSpaceOnUse" maskUnits="objectBoundingBox" x="0" y="0" width="84" height="52.3041463" fill="white">
            <use xlink:href="#path-3"></use>
        </mask>
        <rect id="path-5" x="0" y="63" width="84" height="52.3041463" rx="4"></rect>
        <mask id="mask-6" maskContentUnits="userSpaceOnUse" maskUnits="objectBoundingBox" x="0" y="0" width="84" height="52.3041463" fill="white">
            <use xlink:href="#path-5"></use>
        </mask>
        <rect id="path-7" x="0" y="127" width="84" height="52.3041463" rx="4"></rect>
        <mask id="mask-8" maskContentUnits="userSpaceOnUse" maskUnits="objectBoundingBox" x="0" y="0" width="84" height="52.3041463" fill="white">
            <use xlink:href="#path-7"></use>
        </mask>
    </defs>
    <g id="Page-1" stroke="none" stroke-width="1" fill="none" fill-rule="evenodd">
        <g id="Modules-drawer-open" transform="translate(-1254.000000, -453.000000)">
            <g id="Rectangle-13">
                <use fill="black" fill-opacity="1" filter="url(#filter-2)" xlink:href="#path-1"></use>
                <use fill="#FFFFFF" fill-rule="evenodd" xlink:href="#path-1"></use>
            </g>
            <g id="Group" transform="translate(1254.000000, 453.000000)">
                <path d="M15.7896277,256.991553 L41.8283827,269.193674 L67.8631552,256.991553 L41.8283827,244.789432 L15.7896277,256.991553 Z M41.8283827,277.986255 C41.2747904,277.986255 40.7251807,277.864486 40.2074324,277.625146 L4.3633217,260.829384 C2.92955727,260.153355 2.00159307,258.654333 2.00159307,256.991553 C2.00159307,255.328772 2.92955727,253.829751 4.3633217,253.15792 L40.2074324,236.362159 C41.2389463,235.87928 42.4138366,235.87928 43.4453504,236.362159 L79.2894611,253.15792 C80.7272082,253.829751 81.6551724,255.328772 81.6551724,256.991553 C81.6551724,258.654333 80.7272082,260.153355 79.2894611,260.829384 L43.4453504,277.625146 C42.9276021,277.864486 42.3779924,277.986255 41.8283827,277.986255 Z M81.6535793,266.894334 L81.6535793,276.119406 L43.4716361,294.414189 C42.9499051,294.661927 42.3883474,294.783696 41.8267897,294.783696 C41.3050587,294.783696 40.7833278,294.68712 40.2934583,294.464577 L2,277.635223 L2,268.544517 L41.7551014,286.007911 L81.6535793,266.894334 Z M81.6535793,283.690096 L81.6535793,292.915168 L43.4716361,311.209951 C42.9499051,311.457688 42.3883474,311.579458 41.8267897,311.579458 C41.3050587,311.579458 40.7833278,311.482882 40.2934583,311.260338 L2,294.430985 L2,285.340279 L41.7551014,302.803672 L81.6535793,283.690096 Z" id="module-outlined" fill="#2D3B45" opacity="0.2"></path>
                <path d="M42.1142241,15 C36.041694,15 31.1012931,19.6934254 31.1012931,25.4608293 C31.1012931,27.4774447 31.6970927,29.4033996 32.8336272,31.0817815 L30,35.9216585 L42.1142241,35.9216585 C48.1867543,35.9216585 53.1271552,31.2282331 53.1271552,25.4608293 C53.1271552,19.6934254 48.1867543,15 42.1142241,15" id="discussion" fill="#333333" opacity="0.2"></path>
                <use id="Rectangle" stroke="#2D3B45" mask="url(#mask-4)" stroke-width="14" opacity="0.2" xlink:href="#path-3"></use>
                <path d="M50.8232759,82.4869431 L42.012931,82.4869431 L40.4193599,80.2843574 C40.0460216,79.4974705 39.2839267,79 38.4491466,79 L32.1012931,79 C31.492278,79 31,79.5195545 31,80.1623144 L31,96.4347154 C31,97.7179105 31.9867586,98.7593442 33.2025862,98.7593442 L50.8232759,98.7593442 C52.0391034,98.7593442 53.0258621,97.7179105 53.0258621,96.4347154 L53.0258621,84.8115718 C53.0258621,83.5283768 52.0391034,82.4869431 50.8232759,82.4869431 L50.8232759,82.4869431 Z" id="folder" fill="#2D3B45" opacity="0.2"></path>
                <use id="Rectangle" stroke="#2D3B45" mask="url(#mask-6)" stroke-width="14" opacity="0.2" xlink:href="#path-5"></use>
                <path d="M50.924569,145.324629 C52.1403966,145.324629 53.1271552,146.366062 53.1271552,147.649257 L53.1271552,158.110087 L48.7219828,158.110087 L48.7219828,147.649257 C48.7219828,146.366062 49.7087414,145.324629 50.924569,145.324629 Z M50.924569,163.921659 L48.7219828,160.434715 L53.1271552,160.434715 L50.924569,163.921659 Z M43.2155172,143 C44.4302435,143 45.4181034,144.042596 45.4181034,145.324629 L45.4181034,161.59703 C45.4181034,162.879063 44.4302435,163.921659 43.2155172,163.921659 L32.2025862,163.921659 C30.9878599,163.921659 30,162.879063 30,161.59703 L30,145.324629 C30,144.042596 30.9878599,143 32.2025862,143 L43.2155172,143 Z M42.1142241,149.973886 L42.1142241,147.649257 L33.3038793,147.649257 L33.3038793,149.973886 L42.1142241,149.973886 Z M42.1142241,154.623144 L42.1142241,152.298515 L33.3038793,152.298515 L33.3038793,154.623144 L42.1142241,154.623144 Z M38.8103448,159.272401 L38.8103448,156.947772 L33.3038793,156.947772 L33.3038793,159.272401 L38.8103448,159.272401 Z" id="assignment-1x" fill="#2D3B45" opacity="0.2"></path>
                <use id="Rectangle" stroke="#2D3B45" mask="url(#mask-8)" stroke-width="14" opacity="0.2" xlink:href="#path-7"></use>
                <polygon id="Fill-1" fill="#D8D8D8" transform="translate(41.364286, 207.000000) scale(1, -1) translate(-41.364286, -207.000000) " points="56.7285723 205.364286 41.3642862 190 26 205.364286 30.6153094 209.979596 38.1011668 202.495815 38.1011668 224 44.6294826 224 44.6294826 202.495815 52.1132629 209.979596"></polygon>
            </g>
        </g>
    </g>
</svg>