<?xml version="1.0" encoding="UTF-8" standalone="no"?>
<svg width="123px" height="132px" viewBox="0 0 123 132" version="1.1" xmlns="http://www.w3.org/2000/svg" xmlns:xlink="http://www.w3.org/1999/xlink" xmlns:sketch="http://www.bohemiancoding.com/sketch/ns">
    <!-- Generator: Sketch 3.2.2 (9983) - http://www.bohemiancoding.com/sketch -->
    <title>sadpanda</title>
    <desc>Created with Sketch.</desc>
    <defs></defs>
    <g id="Page-1" stroke="none" stroke-width="1" fill="none" fill-rule="evenodd" sketch:type="MSPage">
        <g id="Version-1" sketch:type="MSArtboardGroup" transform="translate(-668.000000, -255.000000)">
            <g id="sadpanda" sketch:type="MSLayerGroup" transform="translate(668.000000, 256.000000)">
                <path d="M17.9,121.2 C15.4,120.9 12.4,119.3 9.5,119.9 C1.1,121.5 13,124 15.6,124.3 C31.9,125.7 48.1,129.7 64.5,130.3 C67,130.4 101.8,129.9 99.7,123.9 C98.7,120.9 84.7,123.7 81.8,123.6 C72.9,123.6 64.3,124.3 55.5,122.5 C39.7,119.3 21.4,116.2 5.6,120.9" id="Shape" fill="#E8E8E8" sketch:type="MSShapeGroup"></path>
                <path d="M14.3,118.2 C10.2,119.9 4,115.5 0,119.6 C0.9,122.9 9.6,120.8 12.3,121.2 C16.9,121.8 21.4,123.6 26.3,123.5 C32.1,123.4 37.5,123.5 43.3,124.1 C51.8,124.9 60,127.1 68.4,128.1 C75.3,128.9 123.9,124.3 122.5,118.1 C121.7,114.4 110,117.1 107.2,117.5 C96,118.9 85.2,119.2 74,118.8 C60,118.2 45.7,117.5 31.6,117.5 C27.9,117.5 7.9,119.5 6.3,116.8" id="Shape" fill="#BCBCBC" sketch:type="MSShapeGroup"></path>
                <path d="M23.8,53.5 C11.3,67.7 16.2,95.5 28.3,108.1 C44,124.5 78.8,127.3 95.3,110.7 C107.4,98.6 108.8,82.4 107.1,66.1 C106.9,63.9 103.1,48.4 98.8,50.9" id="Shape" stroke="#000000" stroke-width="3" fill="#FFFFFF" sketch:type="MSShapeGroup"></path>
                <path d="M22.4,28.4 C9.9,42.6 14.8,70.4 26.9,83 C42.6,99.4 77.4,102.2 93.9,85.6 C106,73.4 107.4,57.3 105.8,41 C105.6,38.8 101.8,23.3 97.5,25.8" id="Shape" fill="#000000" sketch:type="MSShapeGroup"></path>
                <path d="M76.5,4 C83.1,7.2 88.4,12.3 93.9,17.4 C99,22.1 102.1,29.8 101.5,37.5 C100,58.9 74.8,64.8 60.3,64.1 C50,63.7 37.7,61 28.9,54.3 C24.1,50.7 20.2,44.9 19.8,38.3 C19.5,33.9 20.8,29.5 22.9,25.9 C25.7,20.9 29.8,16.9 33.9,13.4 C43.1,5.5 53.4,-0.3 65.1,0.6 C68.6,0.9 72.5,2.1 76.5,4 L76.5,4 Z" id="Shape" stroke="#000000" stroke-width="3" fill="#FFFFFF" sketch:type="MSShapeGroup"></path>
                <g id="Group" transform="translate(77.000000, 0.000000)" fill="#000000" sketch:type="MSShapeGroup">
                    <path d="M6.9,1.8 L6.4,2.4 C6.5,2.3 6.6,2.2 6.8,2.2 C6.8,2 6.9,1.9 6.9,1.8 L6.9,1.8 Z" id="Shape"></path>
                    <path d="M15.8,0.8 C12.7,0.2 9.4,0.7 6.8,2.2 C6.4,3.1 5.6,3.8 4.7,4.5 L6.4,2.4 C5.1,3.2 3.9,4.4 3,5.8 C2.5,6.2 2.1,6.7 1.8,7.2 C0.7,9 0.4,11.5 0.7,13.5 C1.4,17.6 6,21.2 9.4,23.2 C16.4,27.4 23.5,24.3 24.5,16.3 C25.3,9.7 22.8,2.2 15.8,0.8 L15.8,0.8 Z" id="Shape"></path>
                </g>
                <g id="Group" transform="translate(19.000000, 0.000000)" fill="#000000" sketch:type="MSShapeGroup">
                    <path d="M18.5,1.8 L19,2.4 C18.9,2.3 18.8,2.2 18.6,2.2 C18.6,2 18.5,1.9 18.5,1.8 L18.5,1.8 Z" id="Shape"></path>
                    <path d="M9.6,0.8 C12.7,0.2 16,0.7 18.6,2.2 C19,3.1 19.8,3.8 20.7,4.5 L19,2.4 C20.3,3.2 21.5,4.4 22.4,5.8 C22.9,6.2 23.3,6.7 23.6,7.2 C24.7,9 25,11.5 24.7,13.5 C24,17.6 19.4,21.2 16,23.2 C9,27.4 1.9,24.3 0.9,16.3 C0.1,9.7 2.6,2.2 9.6,0.8 L9.6,0.8 Z" id="Shape"></path>
                </g>
                <path d="M56.3,55.9 C59.3,55.5 63.3,54.8 66,56.8 C70.1,59.8 64.8,60.8 61.8,61 C59.6,61.2 54.8,61.5 54.1,58.8 C53.3,55.7 57.1,55.3 59.2,55.3" id="Shape" fill="#000000" sketch:type="MSShapeGroup"></path>
                <path d="M34.2,41.1 C36.2,37.5 42,33 44.2,30.9 C51.2,24.4 54.5,44.2 50,48.9 C47.9,51.1 44.7,51.4 41.8,50.7 C38.7,50 33.2,47.1 33.5,43.1 C33.6,42.5 33.8,41.9 34.2,41.1 L34.2,41.1 Z" id="Shape" fill="#000000" sketch:type="MSShapeGroup"></path>
                <path d="M84.6,41.2 C81.1,37.9 78.1,34.2 74.7,31 C72.4,28.9 70.1,29.2 68.7,31.9 C67.4,34.2 67.7,41.2 68.4,43.7 C69.1,46.4 71,49.2 73.7,50.3 C78.9,52.3 91.5,47.6 84.6,41.2 L84.6,41.2 Z" id="Shape" fill="#000000" sketch:type="MSShapeGroup"></path>
                <path d="M33.9,37 C36,36.2 52,26.3 48.3,23.7" id="Shape" fill="#000000" sketch:type="MSShapeGroup"></path>
                <path d="M71,22.6 C72.4,31.2 79.1,33.5 85.9,37.9" id="Shape" fill="#000000" sketch:type="MSShapeGroup"></path>
                <path d="M16.5,37.3 C11.8,45.9 9.4,55.5 8.3,65.1 C7.7,69.8 7.6,74.8 9.7,79 C11.8,83 15.8,85.7 20.1,86.9 C23.1,87.7 26.5,87.8 29.1,86.2 C32.5,84.2 33.9,80 34.4,76.1 C34.9,71.6 34.5,67 33.2,62.7 C32.6,60.7 31.7,58.7 31.2,56.6 C30.4,53.6 30.3,50.5 29.5,47.6 C28.6,43.9 26.8,40.4 24.4,37.5 C23.7,36.6 22.9,35.8 21.8,35.3 C18.8,33.7 17.7,36 15.8,37.8" id="Shape" fill="#000000" sketch:type="MSShapeGroup"></path>
                <path d="M102.4,34.8 C94.7,41.2 76.1,94.4 98.6,91.5 C112.8,89.6 112.3,70.9 112.3,60.3 C112.3,55.4 110.9,34 102.4,34.8 L102.4,34.8 Z" id="Shape" fill="#000000" sketch:type="MSShapeGroup"></path>
                <path d="M39.4,110.5 C37.4,103.8 33.5,97.7 30.8,91.2 C29,86.9 25.9,77.4 20.3,76.9 L20.7,77.6 C20,77.2 19.2,77 18.3,77.2 C11.2,78.8 9.8,91.9 9.4,97.2 C9,103.5 9.3,112.2 12.3,118 C15.4,124.1 23,126.4 29.3,126.9 C32.9,127.2 38.5,126.8 40.5,123.1 C42.3,119.9 40.5,113.9 39.4,110.5 L39.4,110.5 Z" id="Shape" fill="#000000" sketch:type="MSShapeGroup"></path>
                <path d="M111.8,88.8 C111.2,84.9 110.6,78 106.8,75.9 L107.8,78.5 C101.1,77.1 98.2,74.6 93.8,81.7 C89.3,89.1 84.5,96.6 81.5,104.7 C79.7,109.6 76.8,118 79.6,122.9 C82.7,128.3 91.6,128.8 97.1,127.9 C99.9,127.5 104.1,126.1 106.2,124.5 C110,121.5 110,114.3 110.8,109.9 C112.1,102.9 112.9,95.8 111.8,88.8 L111.8,88.8 Z" id="Shape" fill="#000000" sketch:type="MSShapeGroup"></path>
                <path d="M12.5,82.9 C12.5,84.4 20.1,85.8 22.5,85.3 C26.8,84.4 29,80.5 30.1,76.7 C25.2,81.9 19.8,86 12.5,82.9 L12.5,82.9 Z" id="Shape" fill="#FFFFFF" sketch:type="MSShapeGroup"></path>
                <path d="M109.6,80.2 C107.9,82.9 102.3,86.6 97.9,87.2 C92.1,88 89.5,84.4 87,80 C93.4,85.9 103.2,85.9 109.6,80.2 L109.6,80.2 Z" id="Shape" fill="#FFFFFF" sketch:type="MSShapeGroup"></path>
                <path d="M20.6,37.9 C15.1,36.2 9.3,60.6 9.7,64.8 C12.9,60.2 13.7,53.5 15.6,48.2 C16.8,44.7 18.7,41.4 20,38.1 C19.8,37.5 20.9,38 20.6,37.9 L20.6,37.9 Z" id="Shape" fill="#3A3A3A" sketch:type="MSShapeGroup"></path>
                <path d="M15.6,86.5 C8.1,86.4 11.3,115 16.9,118.9 C18.7,117.1 16.4,113.4 15.8,111.3 C14.8,107.8 14.5,104.1 14.5,100.6 C14.6,98.7 20.4,83.3 15.6,86.5 L15.6,86.5 Z" id="Shape" fill="#3A3A3A" sketch:type="MSShapeGroup"></path>
                <path d="M85.7,49 C85.7,49.2 84.7,50.2 84.5,50.5 C84.2,51.1 83.8,51.8 83.8,52.5 C83.8,54.1 85.8,54.8 86.3,53 C86.6,51.7 85.8,50.3 85.7,49 L85.7,49 Z" id="Shape" fill="#4CC9F5" sketch:type="MSShapeGroup"></path>
            </g>
        </g>
    </g>
</svg>