<?xml version="1.0" encoding="UTF-8" standalone="no"?>
<svg width="24px" height="24px" viewBox="0 0 24 24" version="1.1" xmlns="http://www.w3.org/2000/svg" xmlns:xlink="http://www.w3.org/1999/xlink" xmlns:sketch="http://www.bohemiancoding.com/sketch/ns">
    <!-- Generator: Sketch 3.2 (9964) - http://www.bohemiancoding.com/sketch -->
    <title>Canvas Logo 3</title>
    <desc>Created with Sketch.</desc>
    <defs></defs>
    <g id="Styles" stroke="none" stroke-width="1" fill="none" fill-rule="evenodd" sketch:type="MSPage">
        <g id="Icons" sketch:type="MSArtboardGroup" transform="translate(-13.000000, -13.000000)" fill="#FFFFFF">
            <g id="Top-Nav" sketch:type="MSLayerGroup">
                <g id="Styles-Top" sketch:type="MSShapeGroup">
                    <g id="Canvas-Logo-3" transform="translate(13.000000, 13.000000)">
                        <path d="M3.46461476,11.9234443 C3.46461476,10.1601554 2.14126293,8.70756653 0.434625919,8.49777764 C0.150481479,9.5927517 0,10.7408369 0,11.9234443 C0,13.1060516 0.150481479,14.255022 0.434625919,15.3491109 C2.14214811,15.1402072 3.46461476,13.6885035 3.46461476,11.9234443" id="Fill-1"></path>
                        <path d="M5.47309991,10.8399776 C6.07148509,10.8399776 6.55656656,11.3250591 6.55656656,11.9234443 C6.55656656,12.5218294 6.07148509,13.0069109 5.47309991,13.0069109 C4.87471474,13.0069109 4.38963326,12.5218294 4.38963326,11.9234443 C4.38963326,11.3250591 4.87471474,10.8399776 5.47309991,10.8399776" id="Fill-2"></path>
                        <path d="M20.426533,11.9234443 C20.426533,13.6885035 21.75077,15.1402072 23.457407,15.3491109 C23.7406663,14.255022 23.892033,13.1060516 23.892033,11.9234443 C23.892033,10.7408369 23.7406663,9.59186651 23.457407,8.49777764 C21.7498848,8.70845171 20.426533,10.1610406 20.426533,11.9234443" id="Fill-3"></path>
                        <path d="M18.418933,10.8399776 C19.0173182,10.8399776 19.5023997,11.3250591 19.5023997,11.9234443 C19.5023997,12.5218294 19.0173182,13.0069109 18.418933,13.0069109 C17.8205479,13.0069109 17.3354664,12.5218294 17.3354664,11.9234443 C17.3354664,11.3250591 17.8205479,10.8399776 18.418933,10.8399776" id="Fill-4"></path>
                        <path d="M11.9225591,20.43627 C10.1601554,20.43627 8.70756653,21.7605071 8.49689246,23.4671441 C9.5927517,23.7495181 10.7399517,23.8999996 11.9243294,23.8999996 C13.107822,23.8999996 14.2559072,23.7495181 15.3499961,23.4671441 C15.1402072,21.7605071 13.6893887,20.43627 11.9225591,20.43627" id="Fill-5"></path>
                        <path d="M11.9243294,17.3425479 C12.5235998,17.3425479 13.0086813,17.8285145 13.0086813,18.4268997 C13.0086813,19.0261701 12.5235998,19.5112515 11.9243294,19.5112515 C11.3259443,19.5112515 10.8399776,19.0261701 10.8399776,18.4268997 C10.8399776,17.8285145 11.3259443,17.3425479 11.9243294,17.3425479" id="Fill-6"></path>
                        <path d="M11.9243294,3.46549994 C13.6893887,3.46549994 15.1402072,2.14214811 15.3499961,0.432855549 C14.255022,0.152251849 13.107822,0 11.9243294,0 C10.7399517,0 9.5927517,0.152251849 8.49689246,0.432855549 C8.70756653,2.14214811 10.1601554,3.46549994 11.9243294,3.46549994" id="Fill-7"></path>
                        <path d="M11.9243294,4.39140363 C12.5218294,4.39140363 13.0069109,4.87559992 13.0069109,5.4739851 C13.0069109,6.07148509 12.5218294,6.55656656 11.9243294,6.55656656 C11.3268294,6.55656656 10.841748,6.07148509 10.841748,5.4739851 C10.841748,4.87559992 11.3268294,4.39140363 11.9243294,4.39140363" id="Fill-8"></path>
                        <path d="M17.931196,17.9303108 C16.6848553,19.1775367 16.5936812,21.1382219 17.6497071,22.4934404 C19.6466849,21.3179145 21.3170293,19.6457997 22.4934404,17.6488219 C21.1382219,16.592796 19.1775367,16.6857405 17.931196,17.9303108" id="Fill-9"></path>
                        <path d="M16.511359,15.4270072 C17.1097442,15.4270072 17.5939405,15.9120886 17.5939405,16.5104738 C17.5939405,17.108859 17.1097442,17.5930553 16.511359,17.5930553 C15.9129738,17.5930553 15.4278923,17.108859 15.4278923,16.5104738 C15.4278923,15.9120886 15.9129738,15.4270072 16.511359,15.4270072" id="Fill-10"></path>
                        <path d="M5.93605176,5.93605176 C7.18150729,4.68971104 7.27356655,2.7281407 6.21665546,1.3729222 C4.2205629,2.55110366 2.55021848,4.22144808 1.3729222,6.21754064 C2.7281407,7.27445174 4.68971104,7.18150729 5.93605176,5.93605176" id="Fill-11"></path>
                        <path d="M7.35588877,6.27330731 C7.95427395,6.27330731 8.43935542,6.75838878 8.43935542,7.35677396 C8.43935542,7.95515913 7.95427395,8.44024061 7.35588877,8.44024061 C6.7575036,8.44024061 6.27242212,7.95515913 6.27242212,7.35677396 C6.27242212,6.75838878 6.7575036,6.27330731 7.35588877,6.27330731" id="Fill-12"></path>
                        <path d="M17.9241145,5.92454435 C19.1704552,7.17088507 21.1311404,7.26205914 22.4863589,6.20603323 C21.3099478,4.20905549 19.6396034,2.53871107 17.6426256,1.36229998 C16.5865997,2.71751848 16.6777738,4.67820363 17.9241145,5.92454435" id="Fill-13"></path>
                        <path d="M16.5042775,6.26091471 C17.1017775,6.26091471 17.586859,6.74599619 17.586859,7.34438136 C17.586859,7.94276654 17.1017775,8.42696283 16.5042775,8.42696283 C15.9058923,8.42696283 15.4208109,7.94276654 15.4208109,7.34438136 C15.4208109,6.74599619 15.9058923,6.26091471 16.5042775,6.26091471" id="Fill-14"></path>
                        <path d="M5.92985546,17.9179182 C4.68351474,16.6715775 2.72282959,16.5804034 1.3667259,17.6355442 C2.54402218,19.6325219 4.2143666,21.3046367 6.21134435,22.4810478 C7.26825544,21.1258293 7.17708137,19.1651441 5.92985546,17.9179182" id="Fill-15"></path>
                        <path d="M7.34969248,15.4154998 C7.94807765,15.4154998 8.43315912,15.9005812 8.43315912,16.4989664 C8.43315912,17.0964664 7.94807765,17.5815479 7.34969248,17.5815479 C6.7513073,17.5815479 6.26622583,17.0964664 6.26622583,16.4989664 C6.26622583,15.9005812 6.7513073,15.4154998 7.34969248,15.4154998" id="Fill-16"></path>
                    </g>
                </g>
            </g>
        </g>
    </g>
</svg>