<?xml version="1.0" encoding="UTF-8"?>
<svg id="Layer_2" data-name="Layer 2" xmlns="http://www.w3.org/2000/svg" viewBox="0 0 294.41 88.8">
  <defs>
    <style>
      .cls-1 {
        fill: #0077c0;
      }

      .cls-1, .cls-2, .cls-3, .cls-4, .cls-5, .cls-6 {
        stroke-width: 0px;
      }

      .cls-2 {
        fill: #ed1c24;
      }

      .cls-3 {
        fill: #f2a31f;
      }

      .cls-4 {
        fill: #f9a620;
      }

      .cls-5 {
        fill: #fff;
      }

      .cls-6 {
        fill: #4e4e50;
      }
    </style>
  </defs>
  <g id="Layer_1-2" data-name="Layer 1">
    <g>
      <g>
        <g>
          <path class="cls-2" d="M35.73,41.86v1.07c-1.64.05-2.72.3-3.27.76-.55.44-.83,1.48-.83,3.09v14.11c0,2.15.25,3.8.76,4.96.92,2.17,2.68,3.26,5.28,3.26,3.23,0,5.42-1.2,6.56-3.6.63-1.32.95-3.16.95-5.54v-12.88c0-1.51-.28-2.55-.84-3.12-.55-.56-1.64-.91-3.26-1.03v-1.07h9.25v1.07c-1.34.26-2.23.58-2.66.95-.43.39-.65,1.25-.65,2.61v13.47c0,3.58-.87,6.34-2.59,8.29-1.73,1.95-4.44,2.92-8.14,2.92-4.84,0-8.15-1.45-9.93-4.35-.95-1.53-1.42-3.52-1.42-5.94v-14.1c0-1.58-.21-2.58-.64-2.99-.41-.41-1.36-.7-2.82-.86v-1.07h14.23Z"/>
          <path class="cls-2" d="M51.91,71.14v-1.1c1.24-.05,2.12-.21,2.64-.5.8-.46,1.21-1.3,1.21-2.54v-20.99c0-1.26-.42-2.11-1.25-2.54-.48-.27-1.35-.44-2.6-.5v-1.1h24.95v8.73h-1.06c-.55-2.79-1.48-4.7-2.8-5.73-1.32-1.03-3.72-1.54-7.21-1.54-1.32,0-2.16.14-2.52.41-.36.28-.54.82-.54,1.65v10.02c2.47.03,4.14-.42,5.01-1.34.88-.93,1.54-2.62,2.01-5.07h1.1v14.63h-1.1c-.31-2.47-.94-4.2-1.89-5.21-.95-1.01-2.66-1.51-5.13-1.51v10.49c0,.92.23,1.55.71,1.87.48.34,1.44.5,2.91.5,2.76,0,5.01-.53,6.77-1.61,1.75-1.07,3.3-3.08,4.65-6.03h1.21l-1.75,9.01h-25.31Z"/>
          <path class="cls-2" d="M80.54,69.98c1.24-.04,2.11-.2,2.64-.51.8-.45,1.2-1.29,1.2-2.53v-20.92c0-1.26-.4-2.1-1.18-2.54-.48-.26-1.36-.44-2.66-.52v-1.1h24.5v8.72h-1.06c-.53-2.69-1.44-4.57-2.7-5.65-1.27-1.08-3.6-1.61-7.01-1.61-1.27,0-2.07.14-2.41.43-.34.29-.51.83-.51,1.61v10.01c2.34.04,3.91-.45,4.73-1.48.83-1.03,1.45-2.67,1.87-4.92h1.1v14.61h-1.1c-.29-2.34-.89-4.04-1.78-5.11-.9-1.06-2.51-1.61-4.82-1.61v10.07c0,1.33.39,2.18,1.17,2.54.78.37,1.97.53,3.57.5v1.1h-15.55v-1.1Z"/>
        </g>
        <g>
          <path class="cls-1" d="M.41,84.42h-.41v-1.1h.41v-2.48h2.83c.96,0,1.67.35,2.11,1.06.32.52.49,1.19.49,1.98,0,.86-.17,1.59-.53,2.18-.47.78-1.18,1.16-2.12,1.16H.41v-2.82ZM1.73,81.95v1.37h1.48v1.1h-1.48v1.71h1.3c.5,0,.88-.22,1.14-.68.21-.38.31-.86.31-1.48,0-.82-.17-1.39-.52-1.71-.22-.21-.54-.31-.94-.31h-1.28Z"/>
          <path class="cls-1" d="M8.31,85.93l-.44,1.31h-1.41l2.27-6.39h1.56l2.24,6.39h-1.45l-.4-1.31h-2.37ZM8.67,84.82h1.64l-.8-2.54-.84,2.54ZM10.06,87.78v1.03h-1.12v-1.03h1.12Z"/>
          <path class="cls-1" d="M14.67,80.85v6.39h-1.34v-6.39h1.34Z"/>
          <path class="cls-1" d="M22.46,84.37h-2.5v2.87h-1.33v-6.39h1.33v2.42h2.5v-2.42h1.34v6.39h-1.34v-2.87Z"/>
          <path class="cls-1" d="M25.08,84.03c0-.91.21-1.64.61-2.19.32-.45.75-.76,1.29-.95.39-.15.79-.21,1.19-.21s.79.06,1.16.2c.55.21.98.52,1.29.95.4.56.6,1.29.6,2.21s-.2,1.65-.6,2.21c-.31.44-.75.76-1.29.96-.38.14-.77.21-1.16.21s-.8-.07-1.18-.2c-.54-.2-.98-.52-1.29-.95-.41-.57-.62-1.31-.62-2.23ZM26.42,84.03c0,.81.2,1.41.6,1.8.3.3.69.45,1.15.45s.82-.15,1.13-.45c.39-.39.6-.99.6-1.8s-.2-1.39-.6-1.78c-.31-.3-.68-.45-1.13-.45s-.83.15-1.15.45c-.4.39-.6.99-.6,1.78ZM28.72,87.78v1.03h-1.12v-1.03h1.12Z"/>
          <path class="cls-1" d="M37.52,82.93h-1.34c-.09-.31-.2-.54-.33-.69-.25-.28-.6-.42-1.08-.42-.41,0-.75.15-1.03.44-.37.39-.55.99-.55,1.81,0,.62.12,1.13.36,1.51.28.44.69.66,1.22.66.37,0,.68-.1.92-.31.25-.2.41-.5.49-.88h1.34c-.14.72-.44,1.29-.88,1.7-.49.45-1.13.67-1.9.67-.87,0-1.57-.29-2.09-.85-.55-.6-.82-1.44-.82-2.51s.28-1.92.86-2.53c.53-.57,1.23-.85,2.08-.85s1.57.25,2.1.77c.44.44.66.93.66,1.49Z"/>
          <path class="cls-1" d="M42.87,85.06v2.18h-1.34v-6.39h1.34v2.6l2.44-2.6h1.73l-2.61,2.61,2.76,3.78h-1.71l-1.97-2.82-.62.64Z"/>
          <path class="cls-1" d="M49.37,80.85v6.39h-1.33v-6.39h1.33Z"/>
          <path class="cls-1" d="M54.66,80.85h1.25v6.39h-1.34l-2.59-4.56-.02,4.56h-1.25v-6.39h1.41l2.52,4.45.02-4.45Z"/>
          <path class="cls-1" d="M61.26,84.37h-2.49v2.87h-1.34v-6.39h1.34v2.42h2.49v-2.42h1.33v6.39h-1.33v-2.87Z"/>
          <path class="cls-1" d="M69.52,81.97v5.27h-1.34v-5.27h-1.94v-1.12h5.2v1.12h-1.92Z"/>
          <path class="cls-1" d="M77.21,80.85v1.12h-3.39v1.35h3.11v1.12h-3.11v1.66h3.54v1.14h-4.86v-6.39h4.7ZM75.48,78.91l1.02,1.29h-1l-.57-.73-.57.73h-.99l1.01-1.29h1.1ZM78.01,77.82l-1.31,1.3h-.89l.84-1.3h1.36Z"/>
          <path class="cls-1" d="M84.05,81.97v5.27h-1.33v-5.27h-1.94v-1.12h5.2v1.12h-1.92Z"/>
          <path class="cls-1" d="M88.23,85.93l-.44,1.31h-1.4l2.27-6.39h1.55l2.24,6.39h-1.44l-.41-1.31h-2.37ZM88.94,80.2l-1.32-1.29h1.37l.84,1.29h-.89ZM88.59,84.82h1.64l-.8-2.54-.84,2.54Z"/>
          <path class="cls-1" d="M94.59,80.85v6.39h-1.33v-6.39h1.33Z"/>
          <path class="cls-1" d="M104,82.93h-1.34c-.09-.31-.2-.54-.33-.69-.25-.28-.61-.42-1.08-.42-.42,0-.76.15-1.04.44-.37.39-.55.99-.55,1.81,0,.62.12,1.13.37,1.51.28.44.69.66,1.22.66.37,0,.67-.1.92-.31.25-.2.41-.5.49-.88h1.34c-.14.72-.44,1.29-.88,1.7-.49.45-1.12.67-1.9.67-.86,0-1.57-.29-2.09-.85-.55-.6-.83-1.44-.83-2.51s.29-1.92.86-2.53c.53-.57,1.23-.85,2.08-.85s1.58.25,2.1.77c.44.44.66.93.66,1.49Z"/>
          <path class="cls-1" d="M109.1,84.37h-2.5v2.87h-1.34v-6.39h1.34v2.42h2.5v-2.42h1.33v6.39h-1.33v-2.87Z"/>
          <path class="cls-1" d="M113.24,80.85v6.39h-1.33v-6.39h1.33ZM114.28,78.91l-1.32,1.29h-.88l.83-1.29h1.37Z"/>
          <path class="cls-1" d="M118.52,80.85h1.25v6.39h-1.34l-2.6-4.56v4.56h-1.26v-6.39h1.41l2.52,4.45.02-4.45Z"/>
          <path class="cls-1" d="M125.13,84.37h-2.49v2.87h-1.33v-6.39h1.33v2.42h2.49v-2.42h1.34v6.39h-1.34v-2.87Z"/>
        </g>
        <rect class="cls-1" x=".1" y="75.71" width="126.44" height=".6"/>
        <g>
          <rect class="cls-1" x="39.28" y="36.49" width="9.25" height=".91"/>
          <rect class="cls-1" x="77.27" y="36.49" width="9.61" height=".91"/>
          <g>
            <path class="cls-1" d="M63.47,16.89s-.07-.96.71-.57l7.43,2.31s.56.2.55.79v5.22s0,.65-.51.65l-6.75-1.65s-1.5-.24-1.43-1.5v-5.24Z"/>
            <path class="cls-1" d="M57.27,22.2c-.16-1.02.53-1.99,1.55-2.17.92-.17,1.78.38,2.05,1.24,0-.12,0-.24-.02-.36-.2-1.27-1.39-2.13-2.65-1.9-1.27.22-2.14,1.44-1.93,2.71.17,1.15,1.16,1.95,2.29,1.93-.65-.2-1.16-.74-1.28-1.46Z"/>
            <path class="cls-1" d="M52.6,16.22s-1.97-1.69,0-2.36l9.52-4.63s.59-.12.7-1.72c0,0,.58-6.55.77-.74l.07.64s-.04,1.61,1.21,2.01l9.35,4.53s2.49,1.19-.54,2.37c0,0,.69-.43-.98-1.03l-8.37-2.98s-1.1-.04-.96-2.13l.05-.98-10.68,5.39s-1.13.58-.14,1.62Z"/>
            <path class="cls-1" d="M53.74,16.96l9.08-2.92s.44-.39,1.34,0l8.01,2.79s1.76.56.09,1.57c0,0,.51-.33-1.4-.93l-6.92-2.17s-.48-.13-.46-.56v-.41l-9.29,2.99s-.67.03.51,1.5c0,0-.29,4.77-.2,5.81l-.49-5.91s-1.36-1.42-.28-1.77Z"/>
            <path class="cls-1" d="M54.41,18.64s6.14-2.12,6.71-1.69c0,0,.65.07-6.41,2.09l-.3-.4Z"/>
            <path class="cls-1" d="M63.14,28.84s4.18-1,4.54-.68c0,0,.28.2-4.54,1.27v-.59Z"/>
            <path class="cls-1" d="M54.01,18.72s-.08,5.9.49,5.91c0,0,.14.09.21-5.59l-.7-.32Z"/>
            <path class="cls-1" d="M61.88,23.71l-7.96,1.73s-.58.17-.59.58l-.02,11.39h.62v-10.73s-.08-.73.56-.88l7.25-1.57s1.09-.21,1.02.49v12.7h.77v-12.9s.05-1.22-1.66-.79Z"/>
            <path class="cls-1" d="M51.78,30.45l-2.18.44c.25-.24.51-.62.89-1.04,2.82-3.1,2.17-3.1,2.17-3.1-.85.59-3.8,4.04-3.8,4.04-.26.28-.67.72-.65,1.13l-.02,5.49h.62v-5.13s-.16-.61.57-.85l2.7-.66s1.91-.6-.32-.32Z"/>
            <path class="cls-1" d="M58.62,30.47s1.23-.24,1.86,2.06c-.57-3.38-2.36-3.06-2.36-3.06-2.68.26-2.09,7.94-2.09,7.94h.96c.09-1.34-.37-6.73,1.64-6.94Z"/>
            <path class="cls-1" d="M68.9,28s-1.09-.31-1.09,1.05v8.35h9.61l-.03-6.66s.18-.78-.76-.93l-7.74-1.82Z"/>
            <path class="cls-1" d="M64.71,24.09s-1.24-.29-.55.59l2.46,1.78s1.07.86,3.03,1.23l7.26,1.76s.94-.01.29-.58l-4.19-2.53s-.85-.56-2.34-.81l-5.97-1.42Z"/>
          </g>
          <path class="cls-1" d="M88.27,18.7s-2.74-12.15-16.18-17.14c0,0-9.93-4.18-20.57,1.12,0,0-9.42,4.16-13.16,14.73,0,0-3.87,8.83.89,19.95h1.06c-1.62-3.34-2.53-7.08-2.53-11.04C37.8,12.33,49.13.99,63.12.99s25.33,11.34,25.33,25.34c0,3.96-.91,7.71-2.53,11.04h.97s4.43-7.91,1.39-18.67Z"/>
        </g>
      </g>
      <g>
        <g>
          <rect class="cls-3" x="154.44" y="25.64" width="46.39" height="46.4"/>
          <g>
            <path class="cls-5" d="M188.14,45.4c-3.13-.8-3.9-1.19-3.9-2.37v-.07c0-.86.8-1.58,2.32-1.58,1.71.1,3.36.73,4.71,1.79l2.06-3c-1.9-1.53-4.28-2.35-6.72-2.3-3.69,0-6.33,2.17-6.33,5.46v.05c0,3.59,2.35,4.6,6.01,5.53,3.02.78,3.64,1.3,3.64,2.3v.05c0,1.06-.98,1.72-2.58,1.72-2.02-.02-3.95-.81-5.42-2.19l-.1-.09s-.26-.22-.43-.4c-.07-.06-.14-.14-.2-.21-.34,1.26-.89,2.44-1.64,3.51l.46.38c2.05,1.62,4.59,2.51,7.21,2.5,3.9,0,6.63-2.02,6.63-5.61v-.05c0-3.13-2.05-4.41-5.72-5.41"/>
            <path class="cls-5" d="M184.04,59.38l-9.75-7.92c-2.35,2.09-5.94,1.88-8.03-.47s-1.88-5.94.47-8.03c2.35-2.09,5.94-1.88,8.03.47.94,1.05,1.45,2.41,1.44,3.82-.01,1.03-.31,2.05-.86,2.92l2.84,2.35c2.91-4.26,1.82-10.07-2.44-12.99-4.26-2.91-10.07-1.82-12.98,2.44-2.91,4.26-1.82,10.07,2.44,12.99,2.83,1.94,6.49,2.17,9.54.6l8.94,4.25.35-.43Z"/>
          </g>
        </g>
        <g>
          <path class="cls-6" d="M227,54.92c-.34.72-.81,1.33-1.41,1.82-.6.49-1.32.87-2.16,1.13-.84.26-1.76.39-2.78.39-1.43,0-2.83-.25-4.21-.74-1.38-.49-2.63-1.25-3.75-2.26l2.44-2.92c.86.7,1.74,1.25,2.64,1.66.9.41,1.89.62,2.96.62.86,0,1.52-.16,2-.47.47-.31.71-.75.71-1.3v-.05c0-.27-.05-.5-.15-.71-.1-.21-.29-.4-.56-.58-.28-.18-.66-.36-1.15-.54-.49-.18-1.13-.37-1.92-.56-.95-.23-1.81-.49-2.58-.78-.77-.29-1.42-.64-1.96-1.06-.54-.42-.95-.94-1.25-1.57-.3-.63-.44-1.4-.44-2.33v-.05c0-.86.16-1.63.48-2.32.32-.69.77-1.28,1.34-1.78.58-.5,1.27-.88,2.07-1.15.8-.27,1.68-.4,2.65-.4,1.38,0,2.64.21,3.79.62,1.15.41,2.21,1,3.17,1.77l-2.14,3.11c-.84-.57-1.66-1.02-2.46-1.35-.8-.33-1.61-.5-2.41-.5s-1.41.16-1.81.47c-.4.31-.6.7-.6,1.17v.05c0,.3.06.57.17.79.12.22.33.42.63.6.3.18.72.35,1.25.51.53.16,1.2.35,2,.56.95.25,1.8.53,2.54.84.74.31,1.37.69,1.88,1.13.51.44.9.95,1.16,1.54.26.59.39,1.3.39,2.12v.05c0,.93-.17,1.76-.51,2.48Z"/>
          <path class="cls-6" d="M237.62,43.03v14.95h-4.13v-14.95h-5.71v-3.81h15.54v3.81h-5.71Z"/>
          <path class="cls-6" d="M256.96,58.05l-1.71-4.21h-7.93l-1.71,4.21h-4.21l8.04-18.89h3.8l8.04,18.89h-4.31ZM251.28,44.12l-2.49,6.08h4.98l-2.49-6.08Z"/>
          <path class="cls-6" d="M273.89,57.99l-4.02-6h-3.24v6h-4.13v-18.76h8.57c2.23,0,3.97.55,5.21,1.63,1.24,1.09,1.86,2.61,1.86,4.56v.05c0,1.52-.37,2.76-1.11,3.71-.74.96-1.71,1.66-2.91,2.1l4.58,6.7h-4.82ZM273.97,45.63c0-.89-.29-1.56-.86-2.01-.57-.45-1.37-.67-2.38-.67h-4.1v5.39h4.18c1.02,0,1.8-.24,2.34-.72.54-.48.82-1.13.82-1.93v-.05Z"/>
          <path class="cls-6" d="M293.87,54.92c-.34.72-.81,1.33-1.41,1.82-.6.49-1.32.87-2.16,1.13s-1.76.39-2.78.39c-1.43,0-2.83-.25-4.21-.74s-2.63-1.25-3.75-2.26l2.44-2.92c.86.7,1.74,1.25,2.64,1.66.9.41,1.89.62,2.96.62.86,0,1.52-.16,2-.47.47-.31.71-.75.71-1.3v-.05c0-.27-.05-.5-.15-.71-.1-.21-.29-.4-.56-.58-.28-.18-.66-.36-1.16-.54-.49-.18-1.13-.37-1.92-.56-.95-.23-1.81-.49-2.58-.78-.77-.29-1.42-.64-1.96-1.06-.54-.42-.95-.94-1.25-1.57-.3-.63-.44-1.4-.44-2.33v-.05c0-.86.16-1.63.48-2.32.32-.69.77-1.28,1.34-1.78.58-.5,1.27-.88,2.07-1.15.8-.27,1.68-.4,2.65-.4,1.38,0,2.64.21,3.79.62,1.15.41,2.21,1,3.17,1.77l-2.14,3.11c-.84-.57-1.66-1.02-2.46-1.35-.8-.33-1.61-.5-2.41-.5s-1.41.16-1.81.47c-.4.31-.6.7-.6,1.17v.05c0,.3.06.57.17.79.12.22.33.42.63.6.3.18.72.35,1.25.51.53.16,1.19.35,2,.56.95.25,1.8.53,2.54.84.74.31,1.37.69,1.88,1.13.51.44.9.95,1.15,1.54.26.59.39,1.3.39,2.12v.05c0,.93-.17,1.76-.51,2.48Z"/>
        </g>
        <g>
          <g>
            <rect class="cls-4" x="229.11" y="23.79" width="10.2" height="10.2"/>
            <path class="cls-5" d="M235.67,29.86l.47,1.42.21.64-.55-.4-1.21-.88,1.08-.79ZM235.02,27.87h0s.37,0,.37,0h2.26l-.05.04h0s-5.52,4.02-5.52,4.02l.21-.64.61-1.87-1.59-1.15-.54-.39h2.64s0,0,0,0h1.62ZM234.41,26l.46,1.42h-1.33l.46-1.42.21-.64.21.64Z"/>
          </g>
          <g>
            <rect class="cls-4" x="241.99" y="23.79" width="10.2" height="10.2"/>
            <path class="cls-5" d="M248.55,29.86l.47,1.42.21.64-.55-.4-1.21-.88,1.08-.79ZM247.9,27.87h0s.37,0,.37,0h2.26l-.05.04h0s-5.52,4.02-5.52,4.02l.21-.64.61-1.87-1.59-1.15-.54-.39h2.64s0,0,0,0h1.62ZM247.3,26l.46,1.42h-1.33l.46-1.42.21-.64.21.64Z"/>
          </g>
          <g>
            <rect class="cls-4" x="254.87" y="23.79" width="10.2" height="10.2"/>
            <path class="cls-5" d="M261.43,29.86l.47,1.42.21.64-.55-.4-1.21-.88,1.08-.79ZM260.78,27.87h0s.37,0,.37,0h2.26l-.05.04h0s-5.52,4.02-5.52,4.02l.21-.64.61-1.87-1.59-1.15-.54-.39h2.64s0,0,0,0h1.62ZM260.18,26l.46,1.42h-1.33l.46-1.42.21-.64.21.64Z"/>
          </g>
          <g>
            <rect class="cls-4" x="267.76" y="23.79" width="10.2" height="10.2"/>
            <path class="cls-5" d="M274.31,29.86l.47,1.42.21.64-.55-.4-1.21-.88,1.08-.79ZM273.67,27.87h0s.37,0,.37,0h2.26l-.05.04h0s-5.52,4.02-5.52,4.02l.21-.64.61-1.87-1.59-1.15-.54-.39h2.64s0,0,0,0h1.62ZM273.06,26l.46,1.42h-1.33l.46-1.42.21-.64.21.64Z"/>
          </g>
        </g>
        <g>
          <path class="cls-3" d="M217.08,70.49l-1.55-2.32h-1.25v2.32h-1.59v-7.24h3.31c.86,0,1.53.21,2.01.63.48.42.72,1.01.72,1.76v.02c0,.59-.14,1.06-.43,1.43-.29.37-.66.64-1.12.81l1.77,2.59h-1.86ZM217.11,65.72c0-.34-.11-.6-.33-.78-.22-.17-.53-.26-.92-.26h-1.58v2.08h1.61c.39,0,.69-.09.9-.28s.32-.43.32-.74v-.02Z"/>
          <path class="cls-3" d="M225.14,70.49l-.66-1.62h-3.06l-.66,1.62h-1.62l3.1-7.29h1.47l3.1,7.29h-1.66ZM222.95,65.11l-.96,2.35h1.92l-.96-2.35Z"/>
          <path class="cls-3" d="M230.78,64.72v5.77h-1.59v-5.77h-2.2v-1.47h6v1.47h-2.2Z"/>
          <path class="cls-3" d="M233.86,70.49v-7.24h1.59v7.24h-1.59Z"/>
          <path class="cls-3" d="M241.93,70.49l-3.5-4.6v4.6h-1.57v-7.24h1.47l3.39,4.46v-4.46h1.57v7.24h-1.35Z"/>
          <path class="cls-3" d="M249.85,70.28c-.51.22-1.1.34-1.76.34-.57,0-1.08-.09-1.55-.28s-.87-.44-1.2-.78c-.33-.33-.59-.72-.78-1.18-.19-.45-.28-.95-.28-1.49v-.02c0-.52.09-1,.28-1.45.19-.45.45-.85.79-1.19.34-.34.74-.61,1.2-.81.46-.2.97-.3,1.52-.3.32,0,.62.02.88.07s.51.11.74.19c.23.08.44.19.64.31.2.12.39.27.58.42l-1,1.21c-.14-.12-.28-.22-.41-.31-.14-.09-.28-.17-.43-.23-.15-.06-.31-.11-.48-.14-.17-.03-.36-.05-.57-.05-.29,0-.56.06-.81.18-.25.12-.47.28-.66.49s-.34.44-.44.72c-.11.27-.16.56-.16.88v.02c0,.33.05.64.16.92.11.28.26.52.45.73.2.21.43.37.69.48.27.11.56.17.88.17.59,0,1.09-.15,1.5-.44v-1.04h-1.6v-1.38h3.14v3.14c-.37.32-.81.59-1.33.81Z"/>
          <path class="cls-3" d="M260.02,69.3c-.13.28-.31.51-.54.7s-.51.33-.83.43c-.32.1-.68.15-1.07.15-.55,0-1.09-.09-1.62-.28-.53-.19-1.01-.48-1.45-.87l.94-1.13c.33.27.67.48,1.02.64.35.16.73.24,1.14.24.33,0,.59-.06.77-.18.18-.12.27-.29.27-.5v-.02c0-.1-.02-.19-.06-.27-.04-.08-.11-.15-.22-.22s-.26-.14-.45-.21-.44-.14-.74-.22c-.37-.09-.7-.19-1-.3-.3-.11-.55-.25-.76-.41s-.37-.36-.48-.6-.17-.54-.17-.9v-.02c0-.33.06-.63.18-.89.12-.27.3-.49.52-.69.22-.19.49-.34.8-.44.31-.1.65-.16,1.02-.16.53,0,1.02.08,1.46.24.44.16.85.39,1.22.68l-.83,1.2c-.32-.22-.64-.39-.95-.52-.31-.13-.62-.19-.93-.19s-.54.06-.7.18c-.16.12-.23.27-.23.45v.02c0,.12.02.22.07.31.05.09.13.16.24.23s.28.13.48.2c.2.06.46.13.77.22.37.1.69.2.98.33.29.12.53.27.73.43.2.17.35.37.45.59.1.23.15.5.15.82v.02c0,.36-.07.68-.2.96Z"/>
          <path class="cls-3" d="M264.82,67.6v2.89h-1.59v-2.85l-2.78-4.39h1.86l1.73,2.91,1.76-2.91h1.81l-2.78,4.35Z"/>
          <path class="cls-3" d="M273.21,69.3c-.13.28-.31.51-.54.7s-.51.33-.83.43c-.32.1-.68.15-1.07.15-.55,0-1.09-.09-1.62-.28-.53-.19-1.01-.48-1.45-.87l.94-1.13c.33.27.67.48,1.02.64.35.16.73.24,1.14.24.33,0,.59-.06.77-.18.18-.12.27-.29.27-.5v-.02c0-.1-.02-.19-.06-.27-.04-.08-.11-.15-.22-.22s-.26-.14-.45-.21-.44-.14-.74-.22c-.37-.09-.7-.19-1-.3-.3-.11-.55-.25-.76-.41s-.37-.36-.48-.6c-.11-.24-.17-.54-.17-.9v-.02c0-.33.06-.63.18-.89.12-.27.3-.49.52-.69.22-.19.49-.34.8-.44.31-.1.65-.16,1.02-.16.53,0,1.02.08,1.46.24.44.16.85.39,1.22.68l-.83,1.2c-.32-.22-.64-.39-.95-.52-.31-.13-.62-.19-.93-.19s-.54.06-.7.18c-.16.12-.23.27-.23.45v.02c0,.12.02.22.07.31.05.09.13.16.24.23s.28.13.48.2c.2.06.46.13.77.22.37.1.69.2.98.33.29.12.53.27.73.43.2.17.35.37.45.59.1.23.15.5.15.82v.02c0,.36-.07.68-.2.96Z"/>
          <path class="cls-3" d="M277.66,64.72v5.77h-1.59v-5.77h-2.2v-1.47h6v1.47h-2.2Z"/>
          <path class="cls-3" d="M280.66,70.49v-7.24h5.45v1.42h-3.88v1.47h3.41v1.42h-3.41v1.52h3.93v1.42h-5.5Z"/>
          <path class="cls-3" d="M292.84,70.49v-4.73l-2.04,3.09h-.04l-2.02-3.06v4.7h-1.57v-7.24h1.72l1.9,3.06,1.9-3.06h1.72v7.24h-1.57Z"/>
        </g>
      </g>
    </g>
  </g>
</svg>