<svg xmlns="http://www.w3.org/2000/svg" viewBox="0 0 180.92 282"><defs><style>.cls-1{fill:#fff;}.cls-2{fill:#c0c6cb;}.cls-3{fill:#798792;}.cls-4{fill:#3f5463;}.cls-5{fill:#e5e7e9;}.cls-6{fill:#d0d4d8;}.cls-7{fill:#67c1f0;}</style></defs><title></title><g id="Layer_2" data-name="Layer 2"><g id="Layer_1-2" data-name="Layer 1"><path class="cls-1" d="M105.5,222.06a21.23,21.23,0,0,0-15.17-20.33c0-.27,0-.55,0-.83A13.9,13.9,0,0,0,76.47,187a13.73,13.73,0,0,0-6.39,1.57V130.42h-15v63.06a20.34,20.34,0,0,0-18.55,14.93,25.45,25.45,0,1,0,6.25,42.23c5.14,3.59,12.68,5.86,21.08,5.86,14,0,25.63-6.3,27.73-14.53A21.2,21.2,0,0,0,105.5,222.06Z"/><path class="cls-2" d="M26,257.5A25.95,25.95,0,1,1,36.2,207.72,20.78,20.78,0,0,1,54.57,193V129.92h16v57.85a14.21,14.21,0,0,1,5.89-1.27,14.42,14.42,0,0,1,14.4,14.4c0,.16,0,.31,0,.47a21.7,21.7,0,0,1,1.15,41C89.63,250.85,77.86,257,63.85,257c-8,0-15.65-2.08-21.05-5.73A25.92,25.92,0,0,1,26,257.5Zm0-50.89a24.95,24.95,0,1,0,16.49,43.66l.29-.26.32.22c5.26,3.67,12.84,5.77,20.8,5.77,13.47,0,25.19-6.09,27.25-14.16l.06-.25.25-.09a20.7,20.7,0,0,0-1.22-39.29l-.39-.11,0-.62a5.63,5.63,0,0,0,0-.58,13.41,13.41,0,0,0-13.4-13.4A13.26,13.26,0,0,0,70.31,189l-.73.38V130.92h-14v63l-.47,0A19.77,19.77,0,0,0,37,208.54l-.16.57-.54-.25A24.84,24.84,0,0,0,26,206.61Z"/><path class="cls-3" d="M152.92,242h-32V149h32Zm-30-2h28V151h-28Z"/><rect class="cls-3" x="136.03" y="143.74" width="2" height="42.73" transform="translate(-76.61 145.25) rotate(-45)"/><rect class="cls-3" x="115.66" y="164.11" width="42.73" height="2" transform="translate(-76.61 145.25) rotate(-45)"/><rect class="cls-3" x="136.03" y="174.85" width="2" height="42.73" transform="translate(-98.61 154.36) rotate(-45)"/><rect class="cls-3" x="115.66" y="195.21" width="42.73" height="2" transform="translate(-98.61 154.36) rotate(-45)"/><rect class="cls-3" x="136.03" y="204.24" width="2" height="42.73" transform="translate(-119.39 162.97) rotate(-45)"/><rect class="cls-3" x="115.66" y="224.61" width="42.73" height="2" transform="translate(-119.39 162.97) rotate(-45)"/><rect class="cls-3" x="121.92" y="180.11" width="30" height="2"/><rect class="cls-3" x="121.92" y="210.11" width="30" height="2"/><path class="cls-2" d="M46.07,90.85a27,27,0,0,0-26.3,20.87,5,5,0,0,0,4.88,6.13H67.49a5,5,0,0,0,4.88-6.13A27,27,0,0,0,46.07,90.85Z"/><path class="cls-4" d="M67.49,118.85H24.65a6,6,0,0,1-5.85-7.35,28,28,0,0,1,54.55,0,6,6,0,0,1-5.86,7.35Zm-21.42-27A25.89,25.89,0,0,0,20.74,112a4,4,0,0,0,3.91,4.9H67.49A4,4,0,0,0,71.4,112,25.88,25.88,0,0,0,46.07,91.85Z"/><path class="cls-2" d="M79.07,90.85a27,27,0,0,0-26.3,20.87,5,5,0,0,0,4.88,6.13h42.84a5,5,0,0,0,4.88-6.13A27,27,0,0,0,79.07,90.85Z"/><path class="cls-4" d="M100.49,118.85H57.65a6,6,0,0,1-5.85-7.35,28,28,0,0,1,54.55,0,6,6,0,0,1-5.86,7.35Zm-21.42-27A25.89,25.89,0,0,0,53.74,112a4,4,0,0,0,3.91,4.9h42.84a4,4,0,0,0,3.91-4.9A25.88,25.88,0,0,0,79.07,91.85Z"/><path class="cls-5" d="M85.08,117.85c3.32-12.16,5.29-27.17,5.29-43.42C90.37,33.87,78.15,1,63.08,1s-27.3,32.87-27.3,73.43c0,16.25,2,31.26,5.29,43.42Z"/><path class="cls-4" d="M85.84,118.85H40.31l-.2-.74c-3.49-12.75-5.33-27.85-5.33-43.68C34.78,32.69,47.21,0,63.08,0S91.37,32.69,91.37,74.43c0,15.82-1.84,30.93-5.32,43.68Zm-44-2H84.31a167.89,167.89,0,0,0,5.06-42.42C89.37,34.49,77.57,2,63.08,2s-26.3,32.49-26.3,72.43A167.77,167.77,0,0,0,41.84,116.85Z"/><polygon class="cls-6" points="76.08 130.42 50.07 130.42 46.07 117.85 80.08 117.85 76.08 130.42"/><path class="cls-4" d="M76.81,131.42H49.34L44.7,116.85H81.45Zm-26-2H75.35l3.36-10.57H47.44Z"/><circle class="cls-2" cx="63.08" cy="72.43" r="15.75"/><path class="cls-4" d="M63.08,89.18A16.75,16.75,0,1,1,79.83,72.43,16.77,16.77,0,0,1,63.08,89.18Zm0-31.5A14.75,14.75,0,1,0,77.83,72.43,14.76,14.76,0,0,0,63.08,57.68Z"/><circle class="cls-7" cx="63.08" cy="72.43" r="11"/><path class="cls-4" d="M63.08,84.43a12,12,0,1,1,12-12A12,12,0,0,1,63.08,84.43Zm0-22a10,10,0,1,0,10,10A10,10,0,0,0,63.08,62.43Z"/><rect class="cls-4" x="40.8" y="30.98" width="44.55" height="2"/><path class="cls-6" d="M171.92,251h-160l3.75-9.37a1,1,0,0,1,.93-.63H167.24a1,1,0,0,1,.93.63Z"/><path class="cls-4" d="M173.4,252h-163l4.3-10.74A2,2,0,0,1,16.6,240H167.24a2,2,0,0,1,1.86,1.26Zm-160-2h157l-3.2-8H16.6Z"/><rect class="cls-5" x="11.92" y="251" width="160" height="11"/><path class="cls-4" d="M172.92,263h-162V250h162Zm-160-2h158v-9h-158Z"/><path class="cls-2" d="M15.92,281H4.5a1,1,0,0,1-.9-1.43L11.92,262h30Z"/><path class="cls-4" d="M16.25,282H4.5a2,2,0,0,1-1.81-2.86L11.29,261H45Zm-3.7-19-8,17H15.59l23.27-17Z"/><path class="cls-2" d="M167.5,281h11.42a1,1,0,0,0,.9-1.43L171.5,262h-30Z"/><path class="cls-4" d="M178.92,282H167.17l-28.73-21h33.69l8.6,18.14a2,2,0,0,1-1.81,2.86Zm-11.09-2h11.09l-8-17H144.56Z"/><path class="cls-2" d="M86.2,280.59A1,1,0,0,0,87,281H97.92c.73,0,15.58-19,15.58-19h-41Z"/><path class="cls-4" d="M97.92,282H87a2,2,0,0,1-1.61-.81L70.52,261h45l-1.26,1.62C99.14,282,98.52,282,97.92,282ZM74.48,263,87,280l-.81.59L87,280H97.6c1.47-1.39,8.71-10.45,13.85-17Z"/></g></g></svg>