<svg xmlns="http://www.w3.org/2000/svg" xmlns:xlink="http://www.w3.org/1999/xlink" version="1.1" width="200" height="200" x="0px" y="0px" viewBox="0 0 200 200" enable-background="new 0 0 200 200" xml:space="preserve">
<path fill="#FFFFFF" d="M43.4 64.2C56.6 38.5 83 20.7 113.8 20.7c8.2 0 15.9 1.6 23.4 3.9l-7.8 10.3c-5-1.2-10.2-2-15.6-2 c-26.8 0-49.9 15.9-60.6 38.7L50 68.4C48.1 66.6 45.6 65.5 43.4 64.2z M179.8 88.5c0.7 3.8 1.2 7.6 1.2 11.5 c0 34.7-26.6 63-60.4 66.5l-9.6 12.6c0.9 0 1.8 0.3 2.8 0.3c43.8 0 79.3-35.6 79.3-79.3c0-8.3-1.6-16.2-4-23.8L179.8 88.5z M156.2 19.7l-74 97.4L41.5 77.2c-9.5-9.3-24.8-9.3-34.3 0c-9.5 9.5-9.5 24.6 0 33.9l80.4 78.9L195.2 48.2c8-10.5 5.8-25.6-4.9-33.4 S164.2 9 156.2 19.7z"/>
</svg>
