<?xml version="1.0" standalone="no"?>
<!DOCTYPE svg PUBLIC "-//W3C//DTD SVG 1.1//EN" "http://www.w3.org/Graphics/SVG/1.1/DTD/svg11.dtd" >
<!--
2014-7-24: Created.
-->
<svg xmlns="http://www.w3.org/2000/svg">
<metadata>
Created by FontForge 20120731 at Thu Jul 24 12:13:21 2014
 By Colleen Palmer
Created by Colleen Palmer with FontForge 2.0 (http://fontforge.sf.net)
</metadata>
<defs>
<font id="canvas-icons" horiz-adv-x="512" >
  <font-face 
    font-family="canvas-icons"
    font-weight="500"
    font-stretch="normal"
    units-per-em="512"
    panose-1="2 0 6 9 0 0 0 0 0 0"
    ascent="448"
    descent="-64"
    bbox="-1.71191 -64.416 513.008 449.376"
    underline-thickness="25.6"
    underline-position="-51.2"
    unicode-range="U+F102-F236"
  />
    <missing-glyph />
    <glyph glyph-name="uniF19C" unicode="&#xf19c;" 
d="M25.6797 194.304c0 0 121.952 138.736 191.92 197.152v-116.832s266.721 0 266.721 -272.624c0 0 -99.4727 195.872 -266.721 116.832v-116.832c-11.9512 0 -191.92 192.304 -191.92 192.304z" />
    <glyph glyph-name="uniF193" unicode="&#xf193;" 
d="M256.192 413.056c125.504 0 227.248 -101.744 227.248 -227.248s-101.744 -227.248 -227.248 -227.248s-227.248 101.744 -227.248 227.248s101.744 227.248 227.248 227.248zM256.192 15.3438c94.1436 0 170.447 76.3047 170.447 170.448
s-76.3037 170.448 -170.447 170.448c-94.1445 0 -170.448 -76.3047 -170.448 -170.448s76.3037 -170.448 170.448 -170.448zM142.592 157.392v56.8008h227.248v-56.8008h-227.248z" />
    <glyph glyph-name="uniF1A4" unicode="&#xf1a4;" 
d="M75.9521 421.552v-0.015625h360.112v-164.16l-12.3203 13.2324c-6.12793 24.3359 -13.0244 41.7432 -20.4961 52.3838c-7.47168 10.6396 -17.7598 18.9922 -30.7842 25.3115c-7.28027 3.44043 -16.5439 6.67188 -34.7363 6.67188h-32.6875l0.240234 -302.063
c0 -19.9365 1.16797 -32.1445 3.37598 -37.1201c2.19141 -4.97559 6.60742 -9.34375 13.0234 -13.0723c6.41602 -3.72754 15.3604 -5.59961 26.4639 -5.59961l23.0566 -1.2959v-33.3926h-230.4v34.1279h33.4727c11.3115 0 15.8555 2.94434 22.752 6.95996
c4.97559 2.68848 8.99121 6.91211 11.8721 13.4248c2.11133 4.60742 -1.53613 24.7354 -1.53613 44.2715v293.76h-33.0879c-26.2402 0 -35.9365 -7.05566 -47.8086 -18.1592c-16.6562 -15.5049 -27.2803 -37.3926 -31.6641 -66.1279l-18.8477 -13.2969v164.16z" />
    <glyph glyph-name="uniF217" unicode="&#xf217;" 
d="M0 352h512v-32h-512v32zM96 288h320v-32h-320v32zM96 160h320v-32h-320v32zM96 32h320v-32h-320v32zM0 224h512v-32h-512v32zM0 96h512v-32h-512v32z" />
    <glyph glyph-name="uniF1D1" unicode="&#xf1d1;" 
d="M384.752 63.7441v96.1914h-160.32v96.1924h160.32v64.1279c58.7842 -48.0957 128.256 -128.256 128.256 -128.256s-117.552 -128.256 -128.256 -128.256zM320.624 368.336c0 0 -1.53613 16.0322 -16.0322 16.0322h-176.336v-64.1279
c0 -33.5684 -32.0635 -32.0645 -32.0635 -32.0645h-64.1279v-272.527s1.55176 -16.0322 16.0312 -16.0322h256.496c14.4639 0 16.0322 16.0322 16.0322 16.0322l0.591797 111.712h31.4727v-127.744c0 -17.6963 -14.3682 -32.0645 -32.0645 -32.0645h-288.56
c-17.6963 0 -32.0645 14.3359 -32.0645 32.0645v320.624l96.1924 96.1914h224.432c17.6963 0 32.0645 -14.3672 32.0645 -32.0635v-96.1924h-32.0645v80.1602z" />
    <glyph glyph-name="uniF1E7" unicode="&#xf1e7;" 
d="M429.984 307.968c0.015625 0.0166016 0.015625 0.0166016 0.03125 0.0322266c0.0322266 0.0478516 0.0322266 0.0957031 0.0488281 0.143555c-0.0322266 -0.0634766 -0.0322266 -0.12793 -0.0800781 -0.191406l0.015625 0.015625h-0.015625zM238.432 350.72h-0.015625
c32.2559 0 59.8877 -27.04 71.1201 -65.168h-142.225c11.2324 38.1279 38.8643 65.168 71.1201 65.168zM196.272 303.008h84.3037c-2.17578 3.53613 -4.52832 6.7998 -7.07227 9.77637h-70.1602c-2.52734 -2.95996 -4.89551 -6.24023 -7.07129 -9.77637zM292.528 134.368
l0.03125 -0.0166016c2.78418 -4.70312 4.43262 -9.40723 4.94434 -14.0957c0.511719 -4.6875 0.768555 -8.87988 0.768555 -12.5439c0 -3.23145 -0.816406 -7.31152 -2.43262 -12.2236s-4.51172 -9.71191 -8.6875 -14.416
c-4.17676 -4.68848 -9.79199 -8.87988 -16.832 -12.5439s-16.0645 -5.87207 -27.0723 -6.6084v-18.7041h-12.9922v18.7041c-16.4482 1.16797 -29.2959 6.24023 -38.5283 15.1836c-9.23145 8.94434 -14.6074 22.0801 -16.0635 39.4082h31.04
c-0.144531 -8.36816 2.06348 -14.96 6.60742 -19.8076c4.54492 -4.84766 10.1924 -7.93652 16.9443 -9.24805v46c-0.736328 0.303711 -1.72754 0.624023 -2.97559 0.992188s-2.62402 0.704102 -4.08008 0.992188c-5.44043 1.45605 -10.7998 3.18359 -16.0801 5.16797
c-5.28027 1.9834 -10 4.63965 -14.1924 7.93555c-4.17578 3.2959 -7.51953 7.4082 -10.0156 12.3203s-3.74414 11.04 -3.74414 18.3838c0 7.47168 1.42383 14.0957 4.28809 19.8076s6.63965 10.5283 11.3438 14.416c4.68848 3.88867 10.1279 6.89648 16.2881 9.02441
s12.5439 3.42383 19.1523 3.85547v16.9443h12.9922v-16.9443c6.5918 -0.735352 12.7998 -2.15918 18.5918 -4.28711c5.79199 -2.12891 10.8955 -5.05664 15.2959 -8.80078c4.39941 -3.74414 8 -8.41602 10.7842 -13.9834
c2.78418 -5.56836 4.39941 -12.1768 4.84766 -19.8086h-31.2637c-0.144531 5.87207 -1.98438 10.8799 -5.50391 14.9766c-3.52051 4.0957 -7.77637 6.16016 -12.7686 6.16016v-38.96c1.75977 -0.432617 3.56836 -0.880859 5.39258 -1.3125
c1.82324 -0.431641 3.75977 -0.944336 5.82324 -1.53613c10.8643 -2.92773 19.2324 -6.57617 25.1045 -10.8955c5.87207 -4.32031 10.208 -8.83203 12.9922 -13.5361zM230.24 164.752v35.8877c-2.49609 0 -4.91211 -0.367188 -7.26465 -1.10352
c-2.35156 -0.736328 -4.47949 -1.87207 -6.38379 -3.4082c-1.90332 -1.53613 -3.4082 -3.45605 -4.51172 -5.72754c-1.10449 -2.27246 -1.64844 -4.94434 -1.64844 -8.03223c0 -4.84863 1.55273 -8.5918 4.62402 -11.2324
c3.07227 -2.63965 8.14453 -4.76758 15.1846 -6.38379zM264.8 99.9199v-0.015625c1.45605 2.57617 2.19238 5.61523 2.19238 9.13574c0 5.72754 -1.79199 10.0156 -5.39258 12.8799c-3.59961 2.86426 -9.72754 5.47168 -18.3838 7.82422v-42.2725
c2.64062 0.288086 5.39258 0.912109 8.25586 1.87207c2.86426 0.959961 5.44043 2.32031 7.71191 4.08008c2.27246 1.75977 4.14453 3.91992 5.61621 6.49609zM456.528 421.552c15.0879 0 27.3115 -12.2402 27.3115 -27.3115v-402.769
c0 -15.0879 -12.2236 -27.3115 -27.3115 -27.3115h-402.769c-15.0879 0 -27.3115 12.2236 -27.3115 27.3115v402.769c0 15.0879 12.2402 27.3115 27.3115 27.3115h402.769zM440.864 38.5439l-0.0322266 0.015625c0.015625 0.0966797 0.0322266 0.176758 0.0322266 0.272461
c-3.56836 89.9355 -7.13672 179.856 -10.7041 269.792c0 -0.015625 -0.0166016 -0.0322266 -0.0166016 -0.0644531c0.0966797 2.43262 -9.75977 4.25684 -24.3359 4.25684h-62.6553c1.19922 -3.2002 2.33594 -6.44824 3.35938 -9.77637h59.2959
c0.736328 0 1.45605 0 2.14453 -0.015625l-17.6641 -13.8408c-2.94434 -1.34375 -15.5996 -3.61523 -31.7441 -3.61523h-27.5684c-12.0635 53.4561 -48.9912 92.4795 -92.5752 92.4795s-80.5127 -39.0234 -92.5762 -92.4795h-50.3838
c-0.736328 0 -1.45605 0 -2.14453 0.015625l17.6641 13.8398c2.12793 0.959961 9.32812 2.41602 19.2158 3.15234c1.04004 3.4082 2.17578 6.73535 3.4082 10.0156c-13.4082 -0.671875 -25.1836 -2.75195 -28.3203 -5.2002l-33.376 -26.1592
c-0.655273 -0.512695 -0.863281 -1.00879 -0.719727 -1.47266c-0.015625 0.0800781 -0.0644531 0.144531 -0.0644531 0.224609c1.77637 -44.9766 3.56836 -89.9199 5.34473 -134.896c1.77539 -44.9756 3.56738 -89.9199 5.34375 -134.896
c0 -0.144531 0.0644531 -0.304688 0.143555 -0.448242c0.0322266 -0.0644531 0.0966797 -0.112305 0.128906 -0.160156c0.0634766 -0.0957031 0.143555 -0.192383 0.239258 -0.288086c0.0644531 -0.0634766 0.160156 -0.112305 0.240234 -0.175781
c0.112305 -0.0800781 0.208008 -0.160156 0.352539 -0.240234c0.0957031 -0.0634766 0.239258 -0.112305 0.351562 -0.175781c0.160156 -0.0800781 0.288086 -0.144531 0.463867 -0.223633c0.144531 -0.0644531 0.303711 -0.128906 0.463867 -0.176758
c0.175781 -0.0634766 0.352539 -0.12793 0.560547 -0.191406c0.175781 -0.0478516 0.367188 -0.112305 0.55957 -0.160156c0.208008 -0.0644531 0.416016 -0.12793 0.65625 -0.192383c0.208008 -0.0634766 0.431641 -0.111328 0.65625 -0.160156
c0.239258 -0.0634766 0.495117 -0.12793 0.751953 -0.175781c0.239258 -0.0478516 0.479492 -0.0957031 0.751953 -0.143555c0.271484 -0.0478516 0.543945 -0.0966797 0.832031 -0.144531c0.12793 -0.015625 0.208008 -0.0478516 0.351562 -0.0634766
c0.144531 -0.0166016 0.303711 -0.0322266 0.448242 -0.0644531c0.383789 -0.0478516 0.78418 -0.111328 1.18359 -0.160156c0.160156 -0.015625 0.304688 -0.0478516 0.463867 -0.0634766c0.144531 -0.0166016 0.288086 -0.0322266 0.416016 -0.0478516
c0.256836 -0.0322266 0.52832 -0.0644531 0.800781 -0.0966797c0.191406 -0.015625 0.399414 -0.0478516 0.575195 -0.0634766c0.176758 -0.0166016 0.368164 -0.0322266 0.560547 -0.0478516c0.240234 -0.0166016 0.463867 -0.0478516 0.704102 -0.0644531
c0.12793 0 0.255859 -0.0322266 0.383789 -0.0322266c0.383789 -0.0478516 0.767578 -0.0634766 1.15234 -0.0957031c0.111328 -0.015625 0.223633 -0.015625 0.351562 -0.0322266h0.0322266c0.496094 -0.03125 0.992188 -0.0634766 1.50391 -0.0957031
c0.12793 -0.015625 0.271484 -0.015625 0.416016 -0.0322266c0.175781 -0.015625 0.351562 -0.015625 0.543945 -0.0322266c0.192383 -0.015625 0.368164 -0.03125 0.543945 -0.03125c0.480469 -0.0166016 0.975586 -0.0322266 1.47168 -0.0478516h0.0322266
c0.112305 -0.0166016 0.223633 -0.0166016 0.320312 -0.0166016c0.368164 0 0.735352 -0.015625 1.12012 -0.0322266c0.319336 0 0.655273 -0.015625 0.975586 -0.015625c0.112305 -0.015625 0.208008 -0.015625 0.320312 -0.015625h0.191406
c0.480469 -0.0166016 0.959961 -0.0166016 1.45605 -0.0166016h0.896484h263.104h0.543945c0.464844 0 0.928711 0.0166016 1.39258 0.0166016c0.399414 0 0.78418 0.015625 1.16797 0.015625h0.0800781h0.0478516c0.416016 0.015625 0.832031 0.015625 1.23145 0.0322266
c0.384766 0.015625 0.78418 0.015625 1.16895 0.0322266c0.175781 0 0.351562 0 0.527344 0.015625h0.255859c0.112305 0 0.208008 0.015625 0.320312 0.015625c0.368164 0.0166016 0.719727 0.0322266 1.08789 0.0478516
c0.368164 0.0166016 0.719727 0.0322266 1.07227 0.0488281c0.12793 0.015625 0.255859 0.015625 0.383789 0.03125c0.0800781 0.0166016 0.144531 0.0166016 0.223633 0.0166016c0.144531 0.015625 0.304688 0.015625 0.448242 0.0322266
c0.400391 0.015625 0.799805 0.0478516 1.21582 0.0634766s0.816406 0.0478516 1.2168 0.0800781h0.015625h0.112305c0.624023 0.0478516 1.23145 0.0957031 1.83984 0.143555c0.111328 0.0166016 0.208008 0.0322266 0.319336 0.0322266
c1.4082 0.112305 2.76855 0.240234 4.09668 0.383789c0.0800781 0 0.175781 0 0.255859 0.0166016c0.448242 0.0478516 0.864258 0.111328 1.31152 0.160156c0.272461 0.03125 0.543945 0.0634766 0.816406 0.0957031c0.0644531 0 0.12793 0 0.192383 0.015625
c0.655273 0.0800781 1.2959 0.160156 1.93555 0.255859c0.0644531 0.0166016 0.12793 0.0166016 0.192383 0.0322266c0.191406 0.0322266 0.383789 0.0644531 0.575195 0.0966797c0.400391 0.0478516 0.816406 0.111328 1.2002 0.175781
c0.160156 0.0322266 0.304688 0.0634766 0.448242 0.0800781c0.320312 0.0478516 0.624023 0.111328 0.927734 0.160156c0.208008 0.03125 0.448242 0.0634766 0.671875 0.111328v0c0.224609 0.0322266 0.416016 0.0800781 0.624023 0.112305
c0.272461 0.0478516 0.543945 0.112305 0.816406 0.160156c0.160156 0.0322266 0.320312 0.0634766 0.480469 0.0957031c0.303711 0.0644531 0.575195 0.12793 0.863281 0.192383c0.175781 0.0478516 0.368164 0.0800781 0.543945 0.12793
c0.0644531 0.015625 0.12793 0.0322266 0.192383 0.0478516c0.448242 0.0957031 0.879883 0.208008 1.2959 0.320312c0.0478516 0.015625 0.112305 0.03125 0.160156 0.0478516c0.0957031 0.03125 0.175781 0.0478516 0.271484 0.0800781
c0.224609 0.0478516 0.448242 0.111328 0.65625 0.175781c0.272461 0.0800781 0.511719 0.160156 0.751953 0.240234c0.0478516 0.015625 0.0957031 0.03125 0.144531 0.0478516c0.015625 0 0.03125 0.015625 0.0478516 0.015625
c0.271484 0.0957031 0.543945 0.192383 0.799805 0.288086c0.143555 0.0644531 0.288086 0.112305 0.431641 0.175781c0.0488281 0.0166016 0.0800781 0.0322266 0.12793 0.0478516c0.0488281 0.0166016 0.0966797 0.0322266 0.128906 0.0488281
c0.207031 0.0957031 0.415039 0.175781 0.607422 0.271484c0.112305 0.0478516 0.255859 0.144531 0.303711 0.160156c0.0488281 0.015625 0.0966797 0.0478516 0.12793 0.0644531c0.0322266 0.015625 0.0644531 0.03125 0.0966797 0.0478516
c0.160156 0.0800781 0.303711 0.175781 0.448242 0.271484c0.0957031 0.0644531 0.175781 0.112305 0.271484 0.192383l33.376 26.1602c0.0322266 0.03125 0.0644531 0.0478516 0.0957031 0.0800781c0.12793 0.0957031 0.240234 0.208008 0.304688 0.287109
c0.0634766 0.0800781 0.12793 0.160156 0.175781 0.240234c0 0.0166016 0.015625 0.0166016 0.015625 0.0322266s0.0166016 0.0322266 0.0166016 0.0322266c0.0478516 0.111328 0.0957031 0.208008 0.12793 0.303711z" />
    <glyph glyph-name="uniF1CD" unicode="&#xf1cd;" 
d="M160.496 416.496h64v-64h-64v64zM160.496 288.496h64v-64h-64v64zM160.496 160.496h64v-64h-64v64zM160.496 32.4961h64v-64h-64v64zM288.496 416.496h64v-64h-64v64zM288.496 288.496h64v-64h-64v64zM288.496 160.496h64v-64h-64v64zM288.496 32.4961h64v-64h-64v64z
" />
    <glyph glyph-name="uniF228" unicode="&#xf228;" 
d="M432 112c84.752 -12.4639 80 -55.7764 80 -70.9756v-72.9766h-288v-32h-128v96h-96v128h96v96h70.2236c-0.15918 1.13574 -0.303711 2.25586 -0.543945 3.48828c0 0 3.15234 57.2637 21.584 56.0957c0 0 14.8164 0 11.8887 13.1357
c-0.976562 21.9209 -0.608398 26.4805 0.863281 41.0889c1.47266 14.6074 7.74414 54.0635 38.4961 59.8877c30.752 5.83984 6.99219 2.92773 17.248 4.38379s-6.39941 7.2959 12.624 7.2959l30.4004 6.33594c19.04 0 31.2314 -26.4961 41.4717 -27.9521
c10.2402 -1.47168 3.55176 4.44824 24.5439 0.560547c30.752 -5.85645 21.8887 -47.6162 23.3604 -62.2246c1.47168 -14.6074 2.44824 -19.1836 -0.463867 -32.3359c-2.92871 -13.1357 22.2236 -11.6641 22.2236 -11.6641c21.9678 0 12.7842 -56.1113 12.7842 -56.1113
c-3.39258 -14.8486 -11.2002 -16.6406 -31.6318 -29.5205c-13.0078 -36.9434 -40.2881 -59.5996 -40.2881 -59.5996l1.21582 -24.9121s-4.75195 -19.5195 80 -32zM288 64v64h-96v96h-64v-96h-96v-64h96v-96h64v96h96z" />
    <glyph glyph-name="uniF20E" unicode="&#xf20e;" 
d="M399.28 32c8.84766 0 16 -7.18359 16 -16c0 -8.84766 -7.15234 -16 -16 -16h-160c-8.84863 0 -16 7.15234 -16 16c0 8.81641 7.15137 16 16 16h160zM160 352c18.3838 0 32 -13.6162 32 -32v-32c0 -18.3838 -13.6162 -32 -32 -32h-32c-18.3838 0 -32 13.6162 -32 32v32
c0 18.3838 13.6162 32 32 32h32zM160 224c18.3838 0 32 -13.6162 32 -32v-32c0 -18.3682 -13.6162 -32 -32 -32h-32c-18.3838 0 -32 13.6318 -32 32v32c0 18.3838 13.6162 32 32 32h32zM399.28 160c8.84766 0 16 -7.18359 16 -16c0 -8.84766 -7.15234 -16 -16 -16h-160
c-8.84863 0 -16 7.15234 -16 16c0 8.81641 7.15137 16 16 16h160zM160 96c18.3838 0 32 -13.6318 32 -32v-32c0 -18.3682 -13.6162 -32 -32 -32h-32c-18.3838 0 -32 13.6318 -32 32v32c0 18.3682 13.6162 32 32 32h32zM448 448c32 0 64 -32 64 -64v-384
c0 -35.3438 -28.6562 -64 -64 -64h-384c-35.3438 0 -64 32 -64 64v384c0 32 32 64 64 64h384zM480 32v320c0 32 -32 64 -64 64h-320c-32 0 -64 -32 -64 -64v-320c0 -31.3115 32.6719 -64 64 -64h320c31.3115 0 64 32.6885 64 64zM399.28 288c8.84766 0 16 -7.15234 16 -16
s-7.15234 -16 -16 -16h-160c-8.84863 0 -16 7.15234 -16 16s7.15137 16 16 16h160zM399.28 352c8.84766 0 16 -7.18359 16 -16c0 -8.84766 -7.15234 -16 -16 -16h-160c-8.84863 0 -16 7.15234 -16 16c0 8.81641 7.15137 16 16 16h160zM399.28 224
c8.84766 0 16 -7.15234 16 -16s-7.15234 -16 -16 -16h-160c-8.84863 0 -16 7.15234 -16 16s7.15137 16 16 16h160zM399.28 96c8.84766 0 16 -7.15234 16 -16s-7.15234 -16 -16 -16h-160c-8.84863 0 -16 7.15234 -16 16s7.15137 16 16 16h160z" />
    <glyph glyph-name="uniF1A5" unicode="&#xf1a5;" 
d="M348.8 254.096l-66.7998 -66.7998l68.0957 -68.0957l-27.2959 -27.2959l-68.0957 68.0957l-66.7998 -66.7998l-24.7041 24.7041l66.7998 66.7998l-68.0957 68.0957l27.2959 27.2959l68.0957 -68.0957l66.7998 66.7998zM256 413.552
c125.648 0 227.552 -101.903 227.552 -227.552s-101.903 -227.552 -227.552 -227.552s-227.552 101.903 -227.552 227.552s101.903 227.552 227.552 227.552zM256 15.3438c94.2559 0 170.656 76.4004 170.656 170.656s-76.4004 170.656 -170.656 170.656
s-170.656 -76.4004 -170.656 -170.656s76.4004 -170.656 170.656 -170.656z" />
    <glyph glyph-name="uniF1B2" unicode="&#xf1b2;" 
d="M448 415.936c0 0 32 32 32 0v-320s-32 0 -32 0c-96 96 -224 96 -224 96s-32 0 -32 32v64s0 32 32 32c0 0 128.992 -0.991211 224 96zM160 223.936v-32h-96c-32 0 -32 32 -32 32v64c0 32 32 32 32 32h96v-96zM245.328 138.944
c-21.3281 -20.8486 -21.3281 -20.8486 -21.3281 -20.8643c-0.496094 -34.9922 0 -140.4 0 -140.4s21.3115 0.0322266 21.3115 -20.8154c0 -20.8486 -21.792 -20.8486 -21.792 -20.8486h-82.623c-18.3369 0 -13.2324 20.8486 -13.2324 20.8486v161.248
c0 17.6953 -18.624 23.1201 -18.624 23.1201c-2.71973 -2.28809 -2.71973 18.5596 -2.71973 18.5596s96.3516 0 139.008 -20.8477z" />
    <glyph glyph-name="uniF1C2" unicode="&#xf1c2;" 
d="M416 0l0.223633 192.336l63.7764 63.6641v-256c0 -32 -32 -64 -64 -64l-351.776 0.335938c-32 0 -64 32 -64 64l-0.223633 383.664c0 32 32 64 64 64h288l-64 -64h-224v-384h352zM502.752 398.336c20.0322 -19.3281 0.719727 -33.8242 0.719727 -33.8242
l-38.416 -37.8398l-75.584 72.4961l39.5039 41.04c20.7363 20.0156 38.4326 -3.28027 38.4326 -3.28027zM436.608 307.664l-208.881 -199.648l-75.8232 62.96l209.279 205.601zM112.224 47.7764l10.4326 94.3516l81.2002 -61.8398z" />
    <glyph glyph-name="uniF1D7" unicode="&#xf1d7;" 
d="M416.272 23.9355c0 -12.5596 -0.112305 -48.9111 -0.112305 -48.9111s-85.1357 -0.624023 -160.16 -0.624023h-159.568v49.7598c0 45.6641 58 80.208 128.4 87.0723c-22.7998 16.1914 -38.7676 48.9912 -38.7676 87.248c0 54.208 31.3115 98.1592 70.0312 98.1592
c38.7041 0 70.0645 -43.9512 70.0645 -98.1592c0 -38.624 -16.0801 -71.6641 -39.2158 -87.6807c67.9355 -7.74414 129.344 -42.2402 129.344 -86.8477zM398.304 253.744h-0.015625c53.9043 -6.30371 82.1279 -33.5361 82.1279 -69.2959v-47.9043h-112.224
c-3.80859 0 -7.71191 -0.0478516 -11.6162 0.0322266c7.42383 19.2803 11.6162 40.8643 11.6162 63.8555c0 53.376 -22.5605 100.017 -56.0801 124.96c0.271484 46.1279 25.248 83.4404 56.0801 83.4404c31.0078 0 56.0957 -37.6641 56.0957 -84.1436
c0 -29.8242 -10.3838 -55.9844 -25.9844 -70.9443zM87.6963 324.688c0 46.4795 25.1201 84.1758 56.1113 84.1758c30.8164 0 55.8086 -37.2646 56.0801 -83.376c-33.5195 -24.96 -56.0801 -71.5205 -56.0801 -124.912c0 -22.9766 4.19238 -44.7041 11.6328 -64
c-3.93652 -0.0800781 -7.82422 -0.0322266 -11.6328 -0.0322266h-112.239v47.9043c0 35.2637 29.6797 62.1914 82.4473 69.0078c-15.792 14.8799 -26.3193 41.1836 -26.3193 71.2324z" />
    <glyph glyph-name="uniF1EE" unicode="&#xf1ee;" 
d="M320 320v-256l-128 128z" />
    <glyph glyph-name="uniF1C6" unicode="&#xf1c6;" 
d="M416 416c64 0 96 -32 96 -96v-192c0 -64 -32 -96 -96 -96h-192l-128 -96v96c-64 0 -96 32 -96 96v192c0 64 32 96 96 96h320zM128 192.288c17.6641 0 32 14.3037 32 32c0 17.6641 -14.3359 32 -32 32s-32 -14.3359 -32 -32c0 -17.6797 14.3359 -32 32 -32zM256 192.288
c17.6641 0 32 14.3037 32 32c0 17.6641 -14.3359 32 -32 32s-32 -14.3359 -32 -32c0 -17.6797 14.3359 -32 32 -32zM384 192.288c17.6641 0 32 14.3037 32 32c0 17.6641 -14.3359 32 -32 32s-32 -14.3359 -32 -32c0 -17.6797 14.3359 -32 32 -32z" />
    <glyph glyph-name="uniF1ED" unicode="&#xf1ed;" 
d="M128 256h256l-128 -128z" />
    <glyph glyph-name="uniF1AF" unicode="&#xf1af;" 
d="M256 416c123.712 0 224 -100.288 224 -224s-100.288 -224 -224 -224s-224 100.288 -224 224s100.288 224 224 224zM284 164h140v56h-140v140h-56v-140h-140v-56h140v-140h56v140z" />
    <glyph glyph-name="uniF1FF" unicode="&#xf1ff;" 
d="M348.912 284.48h0.0478516l-162.4 -162.385c-8.94336 -8.94336 -8.94336 -23.5195 0 -32.4639c8.95996 -8.95996 23.5205 -8.95996 32.4805 0l194.88 194.849c26.8477 26.8477 26.8643 70.5596 0 97.4238c-26.8643 26.8633 -70.5918 26.8633 -97.4395 0
l-204.641 -204.576l0.0166016 -0.0322266c-0.144531 -0.12793 -0.288086 -0.271484 -0.448242 -0.416016c-44.5283 -44.5283 -44.5283 -116.96 0 -161.488c44.5439 -44.5273 116.992 -44.5273 161.536 0c0.12793 0.12793 0.271484 0.288086 0.416016 0.416016
l139.664 139.633l32.4951 -32.4648l-139.663 -139.647l-0.0166016 0.015625c-0.160156 -0.143555 -0.271484 -0.288086 -0.416016 -0.431641c-62.5596 -62.5283 -163.968 -62.5283 -226.496 0c-62.5439 62.5283 -62.5439 163.904 0 226.448
c0.12793 0.12793 0.288086 0.271484 0.432617 0.416016l204.607 204.592c44.832 44.8477 117.552 44.8477 162.384 0c44.8643 -44.832 44.8643 -117.536 0 -162.368l-194.88 -194.848c-26.9121 -26.8965 -70.5273 -26.8965 -97.4395 0
c-26.9121 26.8955 -26.9121 70.5273 0 97.4238l162.399 162.368z" />
    <glyph glyph-name="uniF102" unicode="&#xf102;" 
d="M27.9043 127.952v57.0078h456.144v-57.0078h-456.144zM156.192 -43.1035l99.8076 115.056l99.7441 -115.056h-199.552zM27.9043 413.056h456.144v-57.0078h-456.144v57.0078zM27.9043 242v57.0078h456.144v-57.0078h-456.144z" />
    <glyph glyph-name="uniF1D4" unicode="&#xf1d4;" 
d="M64 -64v256s0.496094 32 32 32h384s32 -0.496094 32 -32v-256h-448zM32 -64l-32 32v352s32 32 32 32h112c32.6396 0 32 -32 32 -32c0 -30.8643 32 -32 32 -32h256s17.2002 -1.04004 17.2002 -15.04s-1.2002 -16.96 -1.2002 -16.96h-416c-31.1523 0 -32 -32 -32 -32v-288z
" />
    <glyph glyph-name="uniF188" unicode="&#xf188;" 
d="M27.3115 191.456c0 126.08 99.4883 229.792 225.921 229.792c126.432 0 231.472 -103.712 231.472 -229.792c0 -126.432 -102.288 -228.688 -228.688 -228.688c-126.432 0 -228.688 102.257 -228.688 228.688h-0.0166016zM157.984 256l98.0156 -163.344l98.0156 163.359
h-196.031v-0.015625z" />
    <glyph glyph-name="uniF218" unicode="&#xf218;" 
d="M0 352h512v-32h-512v32zM0 288h352v-32h-352v32zM0 224h512v-32h-512v32zM0 160h352v-32h-352v32zM0 96h512v-32h-512v32zM0 32h352v-32h-352v32z" />
    <glyph glyph-name="uniF1FD" unicode="&#xf1fd;" 
d="M128 448h256v-64h-64v-448h-64v448h-64v-448h-64v256c-70.6885 0 -128 57.3115 -128 128s57.3115 128 128 128zM512 352v-256l-128 128z" />
    <glyph glyph-name="uniF1D9" unicode="&#xf1d9;" 
d="M393.6 89.8398c62.1445 -9.13574 70.4004 -40.8643 70.4004 -52.0479v-69.4561h-240v-32.3359h-128v96h-96v128h96v5.67969c-36.7041 4.73633 -64 11.5684 -64 11.5684v55.0078c0 8.12793 5.96777 31.2959 51.7441 37.9521
c30.2236 4.40039 39.3594 10.4316 42.0957 14.0322c-0.351562 8.36816 -1.00781 17.8242 -1.00781 17.8242s-9.08789 9.95117 -16.0322 29.6631c-14.5439 5.85645 -12.624 9.60059 -14.0322 17.1523c0 0 1.66406 30.5605 11.5049 29.9365c0 0 7.90332 0 6.33594 7.00781
c-0.52832 11.6953 -0.335938 14.1436 0.447266 21.9355c0.78418 7.82422 4.14453 28.8643 20.5439 31.9844c16.4004 3.13574 3.72852 1.56738 9.2002 2.35156c5.47266 0.78418 -3.4082 3.88867 6.73633 3.88867l16.2402 3.3916c10.1436 0 16.6719 -14.1602 22.1279 -14.9277
c5.45605 -0.768555 1.8877 2.38379 13.0713 0.303711c16.4004 -3.12012 21.2002 -25.4238 21.9688 -33.2158c0.767578 -7.79199 1.2959 -10.2402 -0.272461 -17.248c-1.56836 -7.04004 2.35254 -6.25586 2.35254 -6.25586c11.7275 0 6.81543 -29.9521 6.81543 -29.9521
c-0.591797 -2.6084 -1.61621 -4.38379 -2.87988 -5.93652c-1.64844 -1.21582 -3.12012 -2.62402 -4.62402 -3.9834c-2.40039 -1.58398 -5.2959 -3.28027 -9.36035 -5.83984c-6.94336 -19.7119 -21.4873 -31.8086 -21.4873 -31.8086l0.639648 -13.2959
s-0.624023 -2.81543 5.05566 -6.46387c-1.05566 -7.66406 -1.8877 -15.7598 -2.22363 -24.752h25.5996c-0.303711 10.0156 0.0166016 13.9355 0.896484 22.7363c1.08789 10.7041 6.36816 36.8955 28.2559 43.8877c9.37598 2.99219 6.81641 3.12012 10.1279 4.19238
c7.21582 2.33594 -2.17578 4.36719 11.7764 4.36719l22.3037 4.62402c13.9521 0 22.8965 -19.4072 30.416 -20.4639c7.52051 -1.08789 2.5918 3.26465 17.9844 0.400391c22.5596 -4.27246 29.1035 -34.8965 30.1914 -45.584
c1.08789 -10.6885 1.80859 -14.0322 -0.351562 -23.6797c-2.14453 -9.61621 3.23145 -8.56055 3.23145 -8.56055c16.1123 0 9.37598 -41.0879 9.37598 -41.0879c-2.47949 -10.8799 -8.17578 -12.208 -23.1836 -21.6318
c-9.53613 -27.0566 -29.5518 -43.6641 -29.5518 -43.6641l0.912109 -18.2559s-3.48828 -14.3047 58.6553 -23.4404zM288 64v64h-96v96h-64v-96h-96v-64h96v-96h64v96h96zM460.8 270.128c45.2002 -6.65625 51.2002 -29.792 51.2158 -37.9199v-54.96s-64 -16 -128 -16
c-1.23145 0 -2.44727 0.0634766 -3.67969 0.0800781c-0.0957031 1.8877 -0.0957031 3.61621 0.12793 4.91211c29.0879 9.34375 29.2803 39.04 29.5684 57.7598c0.208008 13.1836 -9.47266 29.9678 -14.5127 32c3.93652 16.7363 -4.25586 44.8164 -4.5918 49.3115
c-1.05566 14.6084 -34.1436 38.6885 -56.1436 39.9365c-6.20801 0.351562 -11.248 2.30371 -15.9043 4.67188c0.352539 4.92773 2.57617 29.4561 11.4238 28.8965c0 0 7.9043 0 6.33594 7.00781c-0.527344 11.6953 -0.335938 14.1279 0.448242 21.9355
c0.78418 7.80859 4.14453 28.8643 20.5283 31.9844c16.3994 3.12012 3.72754 1.55176 9.2002 2.33594c5.47168 0.78418 -3.4082 3.8877 6.73535 3.8877l16.2246 3.39258c10.1436 0 16.6719 -14.1602 22.1279 -14.9287c5.45605 -0.767578 1.8877 2.38477 13.0713 0.304688
c16.4004 -3.12012 21.2002 -25.4248 21.9688 -33.2168c0.767578 -7.79199 1.2959 -10.2393 -0.272461 -17.2471c-1.56836 -7.04004 2.35254 -6.25684 2.35254 -6.25684c11.7275 0 6.81543 -29.9512 6.81543 -29.9512c-1.80762 -7.9209 -5.95215 -8.86426 -16.8643 -15.7441
c-6.94336 -19.7119 -21.4873 -31.8086 -21.4873 -31.8086l0.639648 -13.2959s-2.52832 -10.4316 42.6719 -17.0879z" />
    <glyph glyph-name="uniF20B" unicode="&#xf20b;" 
d="M288 323.808c224 0 281.76 -236.096 141.408 -387.808c56.8643 103.024 81.9678 260.16 -141.408 254.912v-126.912l-192 192l192 192v-124.192zM45.248 256l146.752 -146.752v-45.248l-192 192l192 192v-45.248z" />
    <glyph glyph-name="uniF1F6" unicode="&#xf1f6;" 
d="M319.888 210.048v45.9199h85.2158l-64.8154 -255.936h-50.1758l-34.1279 151.359l-38.1445 -151.359h-54.416l-56.5439 255.936h55.6963l28.9121 -159.008l38.5596 159.008h53.2803l33.168 -159.008l25.5039 113.088h-22.1123zM451.712 348.288h-0.015625
c15.5518 -15.5518 28.2881 -46.2881 28.2881 -68.2881v-304c0 -22 -18 -40 -40 -40h-368c-22 0 -40 18 -40 40v432c0 22 18 40 40 40h240c22 0 52.7354 -12.7363 68.2881 -28.2881zM429.088 325.664h0.015625l-71.4395 71.4238
c-1.56836 1.56836 -3.48828 3.12012 -5.66406 4.63965v-81.7275h81.7275c-1.51953 2.17578 -3.07129 4.0957 -4.63965 5.66406zM448 -24v304c0 2.41602 -0.303711 5.12012 -0.847656 8h-127.152v127.152c-2.87988 0.543945 -5.58398 0.847656 -8 0.847656h-240
c-4.33594 0 -8 -3.66406 -8 -8v-432c0 -4.33594 3.66406 -8 8 -8h368c4.33594 0 8 3.66406 8 8z" />
    <glyph glyph-name="uniF18C" unicode="&#xf18c;" 
d="M287.936 -64h-95.9355v256h-64v88.2236l64 0.0322266l-0.112305 51.9678c0 71.9688 19.5205 115.776 104.305 115.776h70.5918v-88.2402h-44.1123c-33.0234 0 -34.6074 -12.3359 -34.6074 -35.3438l-0.128906 -44.1602h79.3447l-9.34473 -88.2236l-69.9199 -0.0322266
l-0.0634766 -256h-0.0166016z" />
    <glyph glyph-name="uniF236" unicode="&#xf236;" 
d="M393.6 89.8398c62.1445 -9.13574 70.4004 -40.8643 70.4004 -52.0479v-69.4561h-240v-32.3359h-128v96h-96v128h96v5.67969c-36.7041 4.73633 -64 11.5684 -64 11.5684v55.0078c0 8.12793 5.96777 31.2959 51.7441 37.9521
c30.2236 4.40039 39.3594 10.4316 42.0957 14.0322c-0.351562 8.36816 -1.00781 17.8242 -1.00781 17.8242s-9.08789 9.95117 -16.0322 29.6631c-14.5439 5.85645 -12.624 9.60059 -14.0322 17.1523c0 0 1.66406 30.5605 11.5049 29.9365c0 0 7.90332 0 6.33594 7.00781
c-0.52832 11.6953 -0.335938 14.1436 0.447266 21.9355c0.78418 7.82422 4.14453 28.8643 20.5439 31.9844c16.4004 3.13574 3.72852 1.56738 9.2002 2.35156c5.47266 0.78418 -3.4082 3.88867 6.73633 3.88867l16.2402 3.3916c10.1436 0 16.6719 -14.1602 22.1279 -14.9277
c5.45605 -0.768555 1.8877 2.38379 13.0713 0.303711c16.4004 -3.12012 21.2002 -25.4238 21.9688 -33.2158c0.767578 -7.79199 1.2959 -10.2402 -0.272461 -17.248c-1.56836 -7.04004 2.35254 -6.25586 2.35254 -6.25586c11.7275 0 6.81543 -29.9521 6.81543 -29.9521
c-0.591797 -2.6084 -1.61621 -4.38379 -2.87988 -5.93652c-1.64844 -1.21582 -3.12012 -2.62402 -4.62402 -3.9834c-2.40039 -1.58398 -5.2959 -3.28027 -9.36035 -5.83984c-6.94336 -19.7119 -21.4873 -31.8086 -21.4873 -31.8086l0.639648 -13.2959
s-0.624023 -2.81543 5.05566 -6.46387c-1.05566 -7.66406 -1.8877 -15.7598 -2.22363 -24.752h25.5996c-0.303711 10.0156 0.0166016 13.9355 0.896484 22.7363c1.08789 10.7041 6.36816 36.8955 28.2559 43.8877c9.37598 2.99219 6.81641 3.12012 10.1279 4.19238
c7.21582 2.33594 -2.17578 4.36719 11.7764 4.36719l22.3037 4.62402c13.9521 0 22.8965 -19.4072 30.416 -20.4639c7.52051 -1.08789 2.5918 3.26465 17.9844 0.400391c22.5596 -4.27246 29.1035 -34.8965 30.1914 -45.584
c1.08789 -10.6885 1.80859 -14.0322 -0.351562 -23.6797c-2.14453 -9.61621 3.23145 -8.56055 3.23145 -8.56055c16.1123 0 9.37598 -41.0879 9.37598 -41.0879c-2.47949 -10.8799 -8.17578 -12.208 -23.1836 -21.6318
c-9.53613 -27.0566 -29.5518 -43.6641 -29.5518 -43.6641l0.912109 -18.2559s-3.48828 -14.3047 58.6553 -23.4404zM288 64v64h-96v96h-64v-96h-96v-64h96v-96h64v96h96zM460.8 270.128c45.2002 -6.65625 51.2002 -29.792 51.2158 -37.9199v-54.96s-64 -16 -128 -16
c-1.23145 0 -2.44727 0.0634766 -3.67969 0.0800781c-0.0957031 1.8877 -0.0957031 3.61621 0.12793 4.91211c29.0879 9.34375 29.2803 39.04 29.5684 57.7598c0.208008 13.1836 -9.47266 29.9678 -14.5127 32c3.93652 16.7363 -4.25586 44.8164 -4.5918 49.3115
c-1.05566 14.6084 -34.1436 38.6885 -56.1436 39.9365c-6.20801 0.351562 -11.248 2.30371 -15.9043 4.67188c0.352539 4.92773 2.57617 29.4561 11.4238 28.8965c0 0 7.9043 0 6.33594 7.00781c-0.527344 11.6953 -0.335938 14.1279 0.448242 21.9355
c0.78418 7.80859 4.14453 28.8643 20.5283 31.9844c16.3994 3.12012 3.72754 1.55176 9.2002 2.33594c5.47168 0.78418 -3.4082 3.8877 6.73535 3.8877l16.2246 3.39258c10.1436 0 16.6719 -14.1602 22.1279 -14.9287c5.45605 -0.767578 1.8877 2.38477 13.0713 0.304688
c16.4004 -3.12012 21.2002 -25.4248 21.9688 -33.2168c0.767578 -7.79199 1.2959 -10.2393 -0.272461 -17.2471c-1.56836 -7.04004 2.35254 -6.25684 2.35254 -6.25684c11.7275 0 6.81543 -29.9512 6.81543 -29.9512c-1.80762 -7.9209 -5.95215 -8.86426 -16.8643 -15.7441
c-6.94336 -19.7119 -21.4873 -31.8086 -21.4873 -31.8086l0.639648 -13.2959s-2.52832 -10.4316 42.6719 -17.0879z" />
    <glyph glyph-name="uniF1B0" unicode="&#xf1b0;" 
d="M384 416c26 0 32 -32 32 -32v-416c0 -24 -32 -32 -32 -32h-320c-56 0 -64 64 -64 64v416c0 17.6641 14.3359 32 32 32h288c17.6641 0 32 -14.3359 32 -32h32zM48 136.256v-39.0078h255.984v38.96c0 8.14355 -6 31.2637 -51.2002 37.9199
s-42.6719 17.0879 -42.6719 17.0879l-0.65625 13.2803s14.5596 12.1123 21.5039 31.8242c10.9121 6.84766 15.0723 7.82324 16.8643 15.7598c0 0 4.89551 29.9355 -6.81641 29.9355c0 0 -3.91992 -0.767578 -2.35156 6.25684
c1.56738 7.00781 1.05566 9.45508 0.271484 17.2471s-5.56738 30.0967 -21.9521 33.2168c-11.1992 2.06348 -7.61523 -1.10449 -13.0879 -0.320312c-5.47168 0.78418 -11.9678 14.9443 -22.1279 14.9443l-16.2236 -3.39258c-10.1602 0 -1.28027 -3.10352 -6.73633 -3.8877
c-5.47168 -0.768555 7.21582 0.78418 -9.2002 -2.33594s-19.7598 -24.1758 -20.5439 -31.9844c-0.783203 -7.80762 -0.959961 -10.2559 -0.447266 -21.9355c1.56738 -7.02441 -6.33594 -7.02441 -6.33594 -7.02441c-9.82422 0.624023 -11.5049 -29.9355 -11.5049 -29.9355
c1.4082 -7.53613 -0.511719 -11.2959 14.0488 -17.1367c6.92773 -19.7119 16.0312 -29.6631 16.0312 -29.6631s0.65625 -9.45605 0.992188 -17.8408c-2.73633 -3.59961 -11.8721 -9.61523 -42.0957 -14.0156c-45.7764 -6.67188 -51.7441 -29.8076 -51.7441 -37.9521z
M352 -32c34 0 32 32 32 32v384h-32v-352c0 -17.6641 -14.3359 -32 -32 -32h-288c0 -22 32 -32 32 -32h288z" />
    <glyph glyph-name="uniF1C8" unicode="&#xf1c8;" 
d="M254.816 233.056c12.8955 0 23.3438 -10.2881 23.3438 -22.9756c0 -12.7041 -10.4482 -22.9922 -23.3438 -22.9922c-12.8965 0 -23.3447 10.3037 -23.3447 22.9922c0 12.6875 10.4482 22.9756 23.3447 22.9756zM161.44 233.056
c12.8955 0 23.3438 -10.2715 23.3438 -22.9756s-10.4482 -22.9922 -23.3438 -22.9922c-12.8965 0 -23.3447 10.3037 -23.3447 22.9922c0 12.6875 10.4482 22.9756 23.3447 22.9756zM348.192 233.056c12.8955 0 23.3438 -10.2715 23.3438 -22.9756
s-10.4482 -22.9922 -23.3438 -22.9922c-12.8965 0 -23.3447 10.3037 -23.3447 22.9922c0 12.6875 10.4482 22.9756 23.3447 22.9756zM441.552 426.672c43.1045 0 43.1045 -43.2803 43.1045 -43.2803l2.36816 -382.848s0 -43.2158 -43.1045 -43.2158h-373.472
s-43.0879 43.2803 -43.0879 43.2803l-2.36816 382.848s0 43.2158 43.0879 43.2158h373.472zM441.168 140.928h0.015625v137.904c0 45.9678 -23.3115 68.9443 -70 68.9443h-233.392c-46.6885 0 -70.3682 -22.9922 -70.3682 -68.96v-137.904
c0 -45.9521 23.8877 -68.9443 69.9678 -68.9443v-68.9434l94.0801 68.6553h140.048c46.6885 0 69.6484 23.2959 69.6484 69.248z" />
    <glyph glyph-name="uniF1E2" unicode="&#xf1e2;" 
d="M511.504 160.032c0 -10.0322 -32 -20.832 -32 -32c0 -9.71191 32 -18.6406 32 -32v-64c0 -14.2246 -32 -23.3281 -32 -32v-32c0 -34.2559 -64 -32 -64 -32h-160s-96 32 -96 32v256h0.496094c36.4805 3.10352 114.384 90.0479 127.504 127.983
c13.1045 37.9688 32 64.0166 32 64.0166l34.9443 0.368164c61.0557 -0.368164 48.0635 -64.8809 48.0635 -64.3848c0 -47.2637 -51.0078 -95.9834 -51.0078 -95.9834c42.0957 0 85.248 -0.192383 85.248 -0.192383c43.1523 0 74.752 -31.8076 74.752 -31.8076
s0.112305 -13.2646 0.112305 -31.0078c0 -9.15234 -0.112305 -21.0244 -0.112305 -32.9922zM127.504 -60.832c-20.1758 -3.23242 -50.9922 -3.13574 -96 -3.13574c-22.7676 0 -31.1035 30.7676 -31.1035 30.7676l-0.400391 241.232s5.79199 16 16 16h111.504v-284.864z" />
    <glyph glyph-name="uniF196" unicode="&#xf196;" 
d="M256 421.6c126.8 0 229.6 -103.231 229.6 -230.592c0 -127.359 -102.8 -230.607 -229.6 -230.607s-229.6 103.312 -229.6 230.607s102.8 230.592 229.6 230.592zM256 9.80762c99.6484 0 180.4 81.1045 180.4 181.152s-80.752 181.2 -180.4 181.2
s-180.4 -81.1523 -180.4 -181.152s80.752 -181.2 180.4 -181.2zM154.704 216.4h202.592v-50.8008h-202.592v50.8008z" />
    <glyph glyph-name="uniF21D" unicode="&#xf21d;" 
d="M240 256c17.6797 0 16 -32 16 -32v-192s1.00781 -32 -16 -32c-14.9922 0 -16 32 -16 32v192s-1.66406 32 16 32zM416 352h-0.0322266c30.1123 0 64 -64 64 -64h-32h-32v-288c0 -60.9922 -64 -64 -64 -64h-224c-62 0 -64.416 62.9443 -64.416 62.9443v289.056h-31.584h-32
s32.8965 64 64 64h53.0078l11.0088 32s32 64 64 64h96c32 0 64 -64 64 -64l11.0078 -32h53.0078zM192 416c0 0 -32 -32 -32 -64h160c0 30.9922 -32 64 -32 64h-96zM352 -32c35.3438 0 32 -3.34375 32 32v288h-288v-288c0 -35.3438 -3.34375 -32 32 -32h224zM304 256
c17.6797 0 16 -32 16 -32v-192s1.67969 -32 -16 -32s-16 32 -16 32v192s-1.67969 32 16 32zM176 256c17.6641 0 16 -32 16 -32v-192c0 -17.6797 1.66406 -32 -16 -32s-16 32 -16 32v192s-1.66406 32 16 32z" />
    <glyph glyph-name="uniF1C1" unicode="&#xf1c1;" 
d="M510.72 286.72l1.28027 1.28027v-192l-96 -160v256l64 64h-147.2l28.1445 31.2637zM160 256l-96 -64h320v-256h-384v256l128 96l44.8965 -0.12793l25.5039 -31.8721h-38.4004zM160 128c-15.7441 -0.992188 -32.9922 -14.5283 -32 -32
c0.992188 -17.4883 14.2559 -32 32 -32h64c15.7441 0 32 14.5117 32 32c0 18.4961 -16.2559 32 -32 32h-64zM416 384l-144 -160l-144 160h96v64h96v-64h96z" />
    <glyph glyph-name="uniF19E" unicode="&#xf19e;" 
d="M420.992 236.128l0.015625 -0.015625c5.28027 -0.736328 61.1523 -9.39258 61.1523 -39.9199v-10.9922c0 -23.3926 -48.3359 -36.8965 -61.2158 -40.0645c-3.80859 -13.7598 -9.2002 -26.832 -16.1279 -38.96c2.86328 -3.75977 34.6719 -46.5762 13.0234 -68.2236
l-11.1357 -11.1846c-16.5918 -16.5596 -56.4482 8.20801 -66.5918 14.9922c-12.5762 -7.07129 -26.1445 -12.8154 -40.4326 -16.5273l2.12793 -0.464844s-7.96777 -60.6074 -40 -60.6074h-10.9912c-24.208 0 -37.8242 51.168 -40.3682 61.5039
c-14.208 3.98438 -27.6807 10.5762 -40.1279 17.8877l1.74414 -1.8877s-46.4326 -38.1758 -69.1045 -15.5205l-10.1123 8.33691c-17.0234 17.0234 9.04004 62.6875 14.8486 72.2559c-6.73633 11.8877 -12.4805 24.6553 -16.2246 38.0957
c-10.0312 2.44824 -61.5996 16.0645 -61.5996 40.3682v10.9922c0 28.1758 49.5996 37.7119 61.3604 39.5996c3.67969 13.5039 9.72754 26.3203 16.4316 38.2725c-5.85645 8.5752 -34.7676 52.9277 -17.584 70.1279l10.5762 8.87988
c19.7754 19.7754 60.8799 -7.2002 71.0078 -14.3682c12.1436 6.99219 25.2158 12.4316 39.0078 16.2715c3.05566 12.4961 16.5918 61.4404 40.1279 61.4404h10.9922c27.3604 0 37.1523 -47.248 39.4238 -61.0879c14.0166 -3.77637 27.2959 -9.13574 39.6318 -16.1602
c10.9766 6.63965 53.7441 30.7041 70.3203 14.1602l10 -10.5918c19.376 -19.4082 -8 -57.2646 -16.2402 -67.7119c6.89648 -12.1123 12.2881 -25.1523 16.0645 -38.8965zM255.52 113.04c42.2881 0 78.2246 35.376 78.2246 77.6641
c0 42.3203 -35.9365 76.6074 -78.2246 76.6074c-42.3193 0 -76.6074 -34.2871 -76.6074 -76.6074c0 -42.2881 34.2881 -77.6641 76.6074 -77.6641z" />
    <glyph glyph-name="uniF1CE" unicode="&#xf1ce;" 
d="M471.072 340.64c20.0156 -20.0156 0.719727 -35.04 0.719727 -35.04l-38.4316 -39.2158l-99.5684 97.1201l39.4883 42.5283c20.752 20.7354 38.4316 -3.39258 38.4316 -3.39258zM66.2236 99.04l239.296 241.04l105.425 -99.8076l-236.801 -234.097zM0 -64
l12.9443 44.7041l40.3193 -37.2959zM23.4883 9.34375l13.4717 59.8086l106.208 -89.0723l-58.0156 -22.9277z" />
    <glyph glyph-name="uniF226" unicode="&#xf226;" 
d="M445.504 267.968l0.0322266 -0.015625c38.1602 -9.28027 66.4961 -43.6963 66.4961 -84.7363c0 -48.1123 -38.9443 -87.1201 -87.0078 -87.2158h-104.992v-96h-128v96h-95.1357c-53.5049 0 -96.8643 43.3916 -96.8643 96.9277s43.3594 96.9287 96.8643 96.9287
c5.90332 0 11.6631 -0.560547 17.2793 -1.56836c-0.448242 3.08789 -0.6875 6.25586 -0.6875 9.47168c0 36.9287 29.9033 66.8643 66.8154 66.8643c21.5039 0 40.624 -10.1924 52.8486 -25.9844c21.792 27.6162 55.5195 45.3604 93.4238 45.3604
c64.7041 0 117.312 -51.6797 118.928 -116.032zM288 128h64l-96 96l-96 -96h64v-96h64v96z" />
    <glyph glyph-name="uniF19B" unicode="&#xf19b;" 
d="M416.88 30.7041l67.8242 -68.2402h-190.288v191.424l70.5283 -70.6553c28.0801 27.8232 45.8555 66.0479 45.8555 108.783c0 72.1445 -49.8242 132.208 -116.368 149.265v75.5996c107.521 -18.2402 190.433 -111.824 190.433 -225.072
c0 -63.2158 -26.4326 -119.855 -67.9678 -161.088zM27.168 192c0 63.2158 26.3682 119.216 67.8877 160.448l-67.7441 67.3916h190.288v-189.728l-70.5273 70.6719c-28.0801 -27.8242 -45.8564 -66.0479 -45.8564 -108.784c0 -72.1436 49.8242 -132.208 116.384 -149.264
v-75.6006c-107.52 18.2402 -190.432 111.616 -190.432 224.864z" />
    <glyph glyph-name="uniF19F" unicode="&#xf19f;" 
d="M253.616 339.76c82.0322 0 148.527 -66.4795 148.527 -148.527c0 -82.0488 -66.4951 -148.544 -148.527 -148.544c-82.0479 0 -148.544 66.5117 -148.544 148.544c0 82.0312 66.4961 148.527 148.544 148.527zM225.792 101.728h-0.015625
c18.5752 34.0801 75.8721 103.761 103.743 109.952c-10.8311 24.7686 -4.63965 44.8965 -3.08789 68.1123c-63.4717 -32.5117 -103.743 -130.064 -103.743 -130.064l-24.7686 48l-51.0879 -30.9756c21.6641 -7.72754 52.6396 -32.4961 78.96 -65.0244zM454.24 163.68
h0.0322266c-0.672852 0 -1.34473 0.0478516 -2.0166 0.0966797c-2.25586 -15.8408 -6.36816 -31.0723 -12.1436 -45.4727c0.576172 -0.288086 1.16797 -0.55957 1.74414 -0.895508c13.5518 -7.82422 18.1758 -25.1357 10.3672 -38.6885
c-7.80762 -13.5518 -25.1357 -18.1758 -38.6875 -10.3682c-0.576172 0.352539 -1.13574 0.720703 -1.67969 1.10449c-9.74414 -12.3682 -20.9121 -23.5361 -33.2803 -33.2803c0.383789 -0.543945 0.767578 -1.08789 1.10352 -1.67969
c7.80859 -13.5518 3.18457 -30.8643 -10.3682 -38.6885c-13.5518 -7.82324 -30.8633 -3.18359 -38.6875 10.3682c-0.335938 0.576172 -0.608398 1.16797 -0.896484 1.75977c-14.3994 -5.77539 -29.6318 -9.8877 -45.4717 -12.1436
c0.0478516 -0.671875 0.0957031 -1.34375 0.0957031 -2.01562c0 -15.6328 -12.6719 -28.3203 -28.3193 -28.3203c-15.6484 0 -28.3203 12.6875 -28.3203 28.3203c0 0.6875 0.0478516 1.34375 0.0957031 2.01562c-15.8398 2.25586 -31.0713 6.36816 -45.4717 12.1436
c-0.288086 -0.591797 -0.55957 -1.18359 -0.895508 -1.75977c-7.82422 -13.5361 -25.1367 -18.1758 -38.6885 -10.3682c-13.5518 7.80859 -18.1758 25.1367 -10.3682 38.6885c0.335938 0.576172 0.719727 1.13574 1.08789 1.67969
c-12.3516 9.74414 -23.5361 20.9121 -33.2637 33.2803c-0.55957 -0.383789 -1.10449 -0.767578 -1.69629 -1.10449c-13.5518 -7.80762 -30.8799 -3.18359 -38.6875 10.3682c-7.80859 13.5527 -3.18457 30.8643 10.3682 38.6885
c0.575195 0.335938 1.16797 0.607422 1.75977 0.895508c-5.75977 14.4004 -9.8877 29.6318 -12.1445 45.4727c-0.655273 -0.0488281 -1.32715 -0.0966797 -2 -0.0966797c-15.6318 0 -28.3193 12.6719 -28.3193 28.3203s12.6719 28.3203 28.3193 28.3203
c0.672852 0 1.32812 -0.0478516 2 -0.0966797c2.25684 15.8408 6.36816 31.0723 12.1445 45.4727c-0.591797 0.288086 -1.18457 0.55957 -1.75977 0.895508c-13.5527 7.82422 -18.1924 25.1357 -10.3682 38.6885c7.82422 13.5518 25.1357 18.1758 38.6875 10.3682
c0.591797 -0.336914 1.13672 -0.720703 1.69629 -1.08887c9.72754 12.3525 20.9121 23.5361 33.2637 33.2646c-0.368164 0.55957 -0.751953 1.10352 -1.08789 1.69531c-7.82422 13.5527 -3.18359 30.8809 10.3682 38.6885s30.8643 3.18359 38.6885 -10.3682
c0.335938 -0.576172 0.607422 -1.16797 0.895508 -1.75977c14.4004 5.75977 29.6318 9.8877 45.4717 12.1436c-0.0478516 0.65625 -0.0957031 1.32812 -0.0957031 2c0 15.6328 12.6885 28.3203 28.3203 28.3203s28.3193 -12.6719 28.3193 -28.3203
c0 -0.671875 -0.0478516 -1.32715 -0.0957031 -2c15.8398 -2.25586 31.0723 -6.36719 45.4717 -12.1436c0.288086 0.591797 0.560547 1.18359 0.896484 1.75977c7.82422 13.5518 25.1357 18.1924 38.6875 10.3682c13.5527 -7.82422 18.1768 -25.1357 10.3682 -38.6885
c-0.351562 -0.591797 -0.735352 -1.13574 -1.10352 -1.69531c12.3516 -9.72852 23.5361 -20.8965 33.2637 -33.2646c0.543945 0.368164 1.08789 0.751953 1.67969 1.08887c13.5527 7.82324 30.8643 3.18359 38.6885 -10.3682
c7.82422 -13.5527 3.18359 -30.8643 -10.3682 -38.6885c-0.576172 -0.335938 -1.16797 -0.607422 -1.75977 -0.895508c5.75977 -14.4004 9.8877 -29.6318 12.1436 -45.4727c0.672852 0.0488281 1.34473 0.0966797 2.0166 0.0966797
c15.6318 0 28.3193 -12.6885 28.3193 -28.3203s-12.6875 -28.3203 -28.3193 -28.3203zM253.616 23.9521l-0.0166016 -0.0166016c93.2002 0 168.736 75.5361 168.736 168.736s-75.5518 168.736 -168.736 168.736c-28.3193 0 -55.0078 -6.97656 -78.4473 -19.3125
c-1.26465 -1.07129 -2.64062 -2.06348 -4.12793 -2.92773c-1.66406 -0.959961 -3.39258 -1.72754 -5.15234 -2.32031c-21.8076 -13.2959 -40.3682 -31.4072 -54.1924 -52.8477c-0.624023 -2.38379 -1.55176 -4.75195 -2.84766 -7.00781
c-1.34375 -2.32031 -2.97559 -4.36816 -4.7998 -6.14453c-11.2324 -21.4561 -17.9844 -45.6318 -19.0078 -71.2637c0.671875 -2.41602 1.05566 -4.94434 1.05566 -7.56836c0 -2.55957 -0.368164 -5.02344 -1.00781 -7.3916
c1.24805 -26.4316 8.57617 -51.2803 20.624 -73.168c1.15137 -1.34375 2.20801 -2.7998 3.13574 -4.40039c0.816406 -1.40723 1.45605 -2.84766 2 -4.30371c29.8877 -47.3438 82.6562 -78.7998 142.784 -78.7998z" />
    <glyph glyph-name="uniF231" unicode="&#xf231;" 
d="M400.56 18.2559l-62.2871 -61.9521l-231.601 232.624l231.601 232.784l62.2871 -61.9521l-169.808 -170.672z" />
    <glyph glyph-name="uniF20A" unicode="&#xf20a;" 
d="M224 323.808c224 0 281.76 -236.096 141.408 -387.808c56.8643 103.024 81.9678 260.16 -141.408 254.912v-126.912l-192 192l192 192v-124.192z" />
    <glyph glyph-name="uniF22D" unicode="&#xf22d;" 
d="M304 192l112 -112l-48 -48l-112 112l-112 -112l-48 48l112 112l-112 112l48 48l112 -112l112 112l48 -48z" />
    <glyph glyph-name="uniF1B9" unicode="&#xf1b9;" 
d="M288 256v-32h-32v32h32zM224 256v-32h-32v32h32zM288 192v-32h-32v32h32zM288 128v-32h-32v32h32zM288 64v-32h-32v32h32zM352 128v-32h-32v32h32zM416 256v-32h-32v32h32zM416 192v-32h-32v32h32zM352 192v-32h-32v32h32zM416 416c35.3438 0 64 -28.6562 64 -64v-352
c0 -35.3438 -28.6562 -64 -64 -64h-352c-35.3438 0 -64 28.6562 -64 64v352c0 35.3438 28.6562 64 64 64h352zM448 16v272h-416v-272c0 -35.3438 12.6562 -48 48 -48h320c35.3438 0 48 12.6562 48 48zM416 128v-32h-32v32h32zM160 64v-32h-32v32h32zM96 128v-32h-32v32h32z
M96 192v-32h-32v32h32zM96 64v-32h-32v32h32zM160 128v-32h-32v32h32zM224 128v-32h-32v32h32zM224 64v-32h-32v32h32zM160 192v-32h-32v32h32zM224 192v-32h-32v32h32zM352 256v-32h-32v32h32z" />
    <glyph glyph-name="uniF19D" unicode="&#xf19d;" 
d="M250.864 387.728c109.296 0 209.68 -97.9199 209.68 -211.199c0 -113.28 -100.384 -211.889 -209.68 -211.889c-77.9199 0 -145.296 37.1367 -177.601 104.929c-13.0078 27.376 40.6719 39.1035 52.8799 15.5352c25.1045 -46.6553 71.8721 -54.6074 124.721 -54.6074
c79.5674 0 147.824 67.6797 147.824 146.032c0 81.1035 -69.5684 148.128 -147.824 148.128c-64.4482 0 -73.4561 -35.5361 -75.1201 -33.7598c16.7197 -17.7129 63.0078 -74.7529 63.0078 -74.7529c22.832 -23.6631 -0.832031 -28.5752 -0.832031 -28.5752l-173.36 1.67969
c-16.6875 -2.76758 -12.6875 16.3037 -12.6875 16.3037l0.160156 205.072c0.335938 24.4639 22.6875 -10.2725 22.6875 -10.2725l55.4404 -59.2637s42.3037 47.9844 120.704 46.6396z" />
    <glyph glyph-name="uniF230" unicode="&#xf230;" 
d="M256 64l-192 289.136h384z" />
    <glyph glyph-name="uniF1CF" unicode="&#xf1cf;" 
d="M430.976 50.9277v-0.015625c-19.6953 -41.0244 -54.6074 -73.5518 -87.4873 -73.5518c-25.2158 0 -60.0322 29.4072 -87.4883 29.4072c-29.9199 0.848633 -46.3838 -31.9355 -87.4883 -29.4072c-31.3281 1.93555 -58.8154 52.5918 -72.8955 73.5518
s-58.3359 74.5283 -58.3359 174.399c0 64.2402 66.4473 109.696 116.655 117.681c25.1367 3.9834 44.5762 -2.68848 63.2646 -9.44043c-43.9844 27.1045 -102.641 41.6318 -123.584 40.7998c25.6641 37.3604 75.6475 34.5283 102.08 29.4082
c23.6953 -4.57617 42.208 -50.6875 57.3594 -80.4316c0.751953 -0.0957031 1.52051 -0.160156 2.27246 -0.255859c-1.2002 20.3037 3.64746 44.9922 13.7754 59.7275c32.7207 47.5361 54.0322 -1.45605 51.0566 -4.28809
c-17.6006 -2.03125 -47.2324 -34.9434 -45.8086 -55.1357c-1.77539 25.4717 200.368 70 200.368 -98.0479c0 -109.664 -24.0635 -133.328 -43.7441 -174.4z" />
    <glyph glyph-name="uniF1A6" unicode="&#xf1a6;" 
d="M512 350.784h-0.015625c-14.0801 -21.0566 -31.8887 -39.5518 -52.416 -54.3682c0.208008 -4.49609 0.303711 -9.02441 0.303711 -13.584c0 -138.816 -105.648 -298.88 -298.864 -298.88c-59.3281 0 -114.544 17.3916 -161.023 47.2002
c8.22363 -0.976562 16.5752 -1.47266 25.0557 -1.47266c49.2158 0 94.5117 16.7842 130.464 44.96c-45.9678 0.848633 -84.7676 31.2168 -98.1279 72.9443c6.41602 -1.23242 12.9922 -1.8877 19.7598 -1.8877c9.58398 0 18.8643 1.2793 27.6807 3.67969
c-48.0488 9.64844 -84.2568 52.0957 -84.2568 102.992c0 0.448242 0 0.895508 0.0166016 1.32812c14.1758 -7.87207 30.3682 -12.5928 47.584 -13.1367c-28.1924 18.8486 -46.7363 50.9922 -46.7363 87.4404c0 19.2637 5.18457 37.2959 14.2246 52.8164
c51.8076 -63.5527 129.216 -105.376 216.512 -109.761c-1.79199 7.68066 -2.71973 15.6963 -2.71973 23.9365c0 58.0156 47.0234 105.04 105.04 105.04c30.208 0 57.5039 -12.752 76.6719 -33.168c23.9199 4.7041 46.3994 13.4561 66.7041 25.4873
c-7.85645 -24.5273 -24.5127 -45.1035 -46.1924 -58.1113c21.248 2.54395 41.5039 8.19141 60.3359 16.5439z" />
    <glyph glyph-name="uniF20D" unicode="&#xf20d;" 
d="M128 320c141.392 0 256 -114.624 256 -256c0 -10.8799 -0.896484 -21.5039 -2.20801 -32h-64.6719c1.75977 10.4316 2.87988 21.0557 2.87988 32c0 106.032 -85.9678 192 -192 192c-10.9277 0 -21.584 -1.12012 -32 -2.87988v64.6562
c10.4961 1.31152 21.1357 2.22363 32 2.22363zM128 448c212.08 0 384 -171.92 384 -384c0 -10.8164 -0.736328 -21.4238 -1.61621 -32h-64c1.05664 10.5283 1.61621 21.1836 1.61621 32c0 176.72 -143.264 320 -320 320c-10.7998 0 -21.4717 -0.55957 -32 -1.61621v64
c10.5762 0.879883 21.2002 1.61621 32 1.61621zM160 192v-96h96v-64h-96v-96h-64v96l-96 1.28027v62.7197h96v96h64z" />
    <glyph glyph-name="uniF1F2" unicode="&#xf1f2;" 
d="M369.504 189.44l112.624 123.088v-89.9199l-112.624 -118.513h-343.056v85.3281h343.056v0.0166016zM26.4482 54.6084h343.056l112.624 120.512v-89.9199l-112.624 -122.752h-343.056v92.1602zM141.376 419.84h340.752v-59.8242l-112.624 -121.088h-343.056v61.1367z" />
    <glyph glyph-name="uniF1D6" unicode="&#xf1d6;" 
d="M152.096 240.56l22.4639 -71.1191h-46.1758l23.2158 71.1191h0.496094zM416 416c0 0 32 -1.50391 32 -32v-416c0 -32 -32 -32 -32 -32h-320s-64 0 -64 64v416s0 32 32 32h288s32 0 32 -32c0 -0.496094 32 0 32 0zM224 224v-32h48v-48h32v48h48v32h-48v48h-32v-48h-48z
M132.128 288.336l-67.3916 -192.32h39.4238l13.9834 41.6484h66.6406l13.4883 -41.6641h40.6875l-66.6396 192.336h-40.1924zM416 0v368s-0.175781 16 -15.5039 16h-16.4961v-352s-0.015625 -32 -32 -32h-288l32 -32h288c22.0957 0 32 32 32 32z" />
    <glyph glyph-name="uniF22E" unicode="&#xf22e;" 
d="M430.768 -27.3115h-349.567c-30.0967 0 -54.752 24.4639 -54.752 54.5596v327.008c0 30.0957 24.6553 55.3438 54.752 55.3438h349.567c30.0967 0 54.7842 -25.248 54.7842 -55.3438v-327.008c0 -30.0957 -24.6719 -54.5596 -54.7842 -54.5596zM458.24 354.256
c0 15.0557 -12.416 28.0479 -27.4727 28.0479h-349.567c-15.0566 0 -27.4404 -12.9756 -27.4404 -28.0479v-327.008c0 -6.25586 2.57617 -11.7598 6.1123 -16.3682l89.4082 161.632l117.968 -38.3516l95.5039 191.68l95.5039 -134.176v162.576z" />
    <glyph glyph-name="uniF222" unicode="&#xf222;" 
d="M432.512 232.192h-0.03125c16.2715 0 29.4238 -13.1846 29.4238 -29.4248v-198.063c0 -16.2559 -13.168 -29.4238 -29.4238 -29.4238h-235.345c-16.2559 0 -29.4238 13.1836 -29.4238 29.4238v198.063c0 16.2568 13.1846 29.4248 29.4238 29.4248h29.4238v58.832
c0 29.4072 -29.4238 58.832 -58.832 58.832c-29.4072 0 -58.8311 -29.4082 -58.8311 -58.832v-58.832h-58.832v58.832c0 64.9912 52.6875 117.68 117.68 117.68s117.68 -52.6885 117.68 -117.68v-58.832h147.088z" />
    <glyph glyph-name="uniF20F" unicode="&#xf20f;" 
d="M448 448c32 0 64 -32 64 -64v-384c0 -35.3438 -28.6562 -64 -64 -64h-384c-35.3438 0 -64 32 -64 64v384c0 32 32 64 64 64h384zM192 48v32c0 18.3682 -13.6318 32 -32 32h-32c-18.3682 0 -32 -13.6318 -32 -32v-32c0 -18.3682 13.6318 -32 32 -32h32
c18.3682 0 32 13.6318 32 32zM192 176v32c0 18.3838 -13.6318 32 -32 32h-32c-18.3682 0 -32 -13.6162 -32 -32v-32c0 -18.3682 13.6318 -32 32 -32h32c18.3682 0 32 13.6318 32 32zM192 304v32c0 18.3682 -13.6318 32 -32 32h-32c-18.3682 0 -32 -13.6162 -32 -32v-32
c0 -18.3838 13.6318 -32 32 -32h32c18.3682 0 32 13.6162 32 32zM399.28 16c8.84766 0 16 7.15234 16 16s-7.15234 16 -16 16h-160c-8.83203 0 -16 -7.15234 -16 -16s7.16797 -16 16 -16h160zM399.28 80c8.84766 0 16 7.15234 16 16s-7.15234 16 -16 16h-160
c-8.83203 0 -16 -7.15234 -16 -16s7.16797 -16 16 -16h160zM399.28 144c8.84766 0 16 7.15234 16 16s-7.15234 16 -16 16h-160c-8.83203 0 -16 -7.15234 -16 -16s7.16797 -16 16 -16h160zM399.28 208c8.84766 0 16 7.15234 16 16c0 8.83203 -7.15234 16 -16 16h-160
c-8.83203 0 -16 -7.16797 -16 -16c0 -8.84766 7.16797 -16 16 -16h160zM399.28 272c8.84766 0 16 7.16797 16 16s-7.15234 16 -16 16h-160c-8.83203 0 -16 -7.16797 -16 -16s7.16797 -16 16 -16h160zM399.28 336c8.84766 0 16 7.16797 16 16s-7.15234 16 -16 16h-160
c-8.83203 0 -16 -7.16797 -16 -16s7.16797 -16 16 -16h160z" />
    <glyph glyph-name="uniF1AE" unicode="&#xf1ae;" 
d="M94.3516 192l290.801 192v-384z" />
    <glyph glyph-name="uniF1CC" unicode="&#xf1cc;" 
d="M445.504 267.968l0.0322266 -0.015625c38.1602 -9.28027 66.4961 -43.6963 66.4961 -84.7363c0 -48.1123 -38.9443 -87.1201 -87.0078 -87.2158h-59.7441l-109.248 -109.248l-109.248 109.248h-49.8877c-53.5049 0 -96.8643 43.3916 -96.8643 96.9277
s43.3594 96.9287 96.8643 96.9287c5.90332 0 11.6631 -0.560547 17.2793 -1.56836c-0.448242 3.08789 -0.6875 6.25586 -0.6875 9.47168c0 36.9287 29.9033 66.8643 66.8154 66.8643c21.5039 0 40.624 -10.1924 52.8486 -25.9844
c21.792 27.6162 55.5195 45.3604 93.4238 45.3604c64.7041 0 117.312 -51.6797 118.928 -116.032zM256 32l96 96h-64v96h-64v-96h-64z" />
    <glyph glyph-name="uniF1DB" unicode="&#xf1db;" 
d="M512 192h-64v-256h-128v128h-128v-128h-128v256h-64l256 256z" />
    <glyph glyph-name="uniF215" unicode="&#xf215;" 
d="M192 144l-128 -48v-64c0 -22.624 32 -32 32 -32h384c17.6641 0 32 -14.3359 32 -32s-14.3359 -32 -32 -32h-416c-63.8721 0 -64 64 -64 64v325.056c0 19.9521 30.9443 24.9443 30.9443 24.9443c19.9678 0 31.5996 -22.2881 31.5996 -22.2881l0.0957031 -9.08789
c0.800781 0.78418 1.36035 1.37598 1.36035 1.37598s-0.55957 -1.16797 -1.34375 -2.73633l1.34375 -141.264l128 48l128 -96l192 176v-80l-192 -176z" />
    <glyph glyph-name="uniF1F1" unicode="&#xf1f1;" 
d="M256 416c123.712 0 224 -100.288 224 -224s-100.288 -224 -224 -224s-224 100.288 -224 224s100.288 224 224 224zM88 164h336v56h-336v-56z" />
    <glyph glyph-name="uniF219" unicode="&#xf219;" 
d="M0 352h512v-32h-512v32zM160 288h352v-32h-352v32zM0 224h512v-32h-512v32zM160 160h352v-32h-352v32zM0 96h512v-32h-512v32zM160 32h352v-32h-352v32z" />
    <glyph glyph-name="uniF1BF" unicode="&#xf1bf;" 
d="M256 420.72c126.288 0 228.704 -102.416 228.704 -228.72s-102.4 -228.72 -228.704 -228.72s-228.72 102.416 -228.72 228.72s102.399 228.72 228.72 228.72zM255.6 20.4482c109.872 0 171.536 61.6797 171.536 171.552s-61.6641 171.552 -171.536 171.552
s-171.552 -61.6797 -171.552 -171.552s61.6797 -171.552 171.552 -171.552zM277.808 159.136l-59.5674 -69.0879c-8.44824 -8.44824 -24.3047 -6.12793 -35.4727 5.02441c-11.168 11.1514 -13.3271 27.1201 -4.87988 35.5674l48.9443 57.6807
c-0.143555 1.19922 -0.704102 2.43164 -0.704102 3.67969v114.368c0 15.792 13.2324 28.5918 29.0078 28.5918c15.7764 0 29.0078 -12.7998 29.0078 -28.5918v-115.216h0.224609c4 -10.2402 0.0478516 -25.3926 -6.57617 -32.0166h0.015625z" />
    <glyph glyph-name="uniF1F7" unicode="&#xf1f7;" 
d="M32 256h64l128 128v-384l-128 128h-64s-32 32 -32 32v64s0 32 32 32zM512 272l-80 -80l80 -80l-48 -48l-79.8721 80.1279l-80.1279 -80.1279l-48 48l80.208 80.208l-80.208 80.4482l48 47.3438l80 -80l80 80z" />
    <glyph glyph-name="uniF1DD" unicode="&#xf1dd;" 
d="M223.312 63.7441v96.1914h-192.319v96.1924h192.319v64.1279c58.7842 -48.0957 128.257 -128.256 128.257 -128.256s-117.553 -128.256 -128.257 -128.256zM160.064 288.192h-32.0645v96.1914c0 17.6963 14.3682 32.0645 32.0645 32.0645h224.432l96.1924 -96.1924
v-320.624c0 -17.7275 -14.3682 -32.0635 -32.0645 -32.0635h-288.56c-17.6963 0 -32.0645 14.3672 -32.0645 32.0635v127.744h31.4717l0.592773 -111.712s1.56738 -16.0322 16.0312 -16.0322h256.496c14.4805 0 16.0322 16.0322 16.0322 16.0322v272.528h-64.1279
s-32.0645 -1.50391 -32.0645 32.0635v64.1279h-176.336c-14.4961 0 -16.0312 -16.0322 -16.0312 -16.0322v-80.1592z" />
    <glyph glyph-name="uniF232" unicode="&#xf232;" 
d="M112 358.896l61.248 60.9434l227.6 -228.704l-227.6 -228.704l-61.248 60.9443l166.992 167.744z" />
    <glyph glyph-name="uniF208" unicode="&#xf208;" 
d="M477.872 137.312c0 -68.8799 -55.8076 -124.72 -124.784 -124.72h-235.536c-46.9277 6.76855 -83.1514 48.1758 -83.1514 97.0078c0 39.0244 23.168 72.4648 56.416 87.8242c-0.384766 3.16797 -0.976562 6.28809 -0.976562 9.52051
c0 45.9033 37.2002 83.1514 83.1201 83.1514c10.6084 0 20.6562 -2.16016 29.9844 -5.79199c10.3193 50.5439 54.9756 88.5928 108.592 88.5928c61.3115 0 110.896 -49.6484 110.896 -110.864c0 -6.84863 -0.81543 -13.4727 -2 -19.9844
c34.4805 -22.1914 57.4404 -60.7041 57.4404 -104.752v0.015625zM358.64 269.296c-12.208 9.00781 -29.6318 6.54395 -38.7832 -5.51953l-84.2568 -110.784l-46.1758 45.3115c-10.832 10.6406 -28.3682 10.6406 -39.2002 0c-10.832 -10.6074 -10.832 -27.8232 0 -38.4639
l91.4883 -89.7754l122.592 161.184c9.15234 12.0479 6.62402 29.0879 -5.66406 38.0479z" />
    <glyph glyph-name="uniF1BD" unicode="&#xf1bd;" 
d="M441.312 423.248c42.9443 0 42.5283 -42.6396 42.5283 -42.6396v-372.208s0.416016 -42.5283 -42.5283 -42.5283h-372.208c-42.9434 0 -42.6396 42.5283 -42.6396 42.5283v372.208s-0.303711 42.6396 42.6396 42.6396h372.208zM231.92 22.7197
c34.9121 63.6807 142.672 193.92 195.072 205.488c-20.3838 46.3037 -13.6484 94.6719 -10.7363 138.08c-119.392 -60.7842 -190.176 -253.856 -190.176 -253.856l-46.5762 89.7285l-96.0801 -57.8721c40.7686 -14.4805 98.9922 -60.7842 148.496 -121.568z" />
    <glyph glyph-name="uniF209" unicode="&#xf209;" 
d="M508 270.32v-157.296l-96 -157.297v251.664l79.6162 44.5928h-94.3838l31.4561 32h79.3115v-13.6807v0.0166016zM180 251.456l-97.3604 -63.4561h297.345v-248h-376v267.392l99.6152 44.5928h76.3848v-0.543945zM177.024 68h62.9277
c15.4717 0 31.4561 14.7998 31.4561 32c0 18.1758 -15.9678 32 -31.4561 32h-62.9121c-15.4717 0 -32.4316 -14.832 -31.4561 -32c0.975586 -17.2002 14 -32 31.4561 -32h-0.015625zM100.672 283.344l144 160l144 -160h-96v-64h-96v64h-96z" />
    <glyph glyph-name="uniF233" unicode="&#xf233;" 
d="M306.112 146.16c0 0 -45.8086 -35.0078 -102.353 0l-203.76 173.84s0.896484 32.2725 34.1602 32.2725h443.696s33.04 -0.624023 33.04 -32.624zM408.192 191.552l103.808 96.4482v-256s-1.79199 -32 -32 -32h-444.8s-35.2002 3.00781 -35.2002 32v256l103.008 -95.3438
l-69.3281 -152.992l99.6484 119.504l64.0156 -48.1602s58.7041 -38.3838 113.776 -0.992188l63.6641 49.9043l103.439 -128.128z" />
    <glyph glyph-name="uniF234" unicode="&#xf234;" 
d="M320 160h128l-189.152 -214.192l-194.848 214.192h128v128h128v-128zM0 448h512v-85.3438h-512v85.3438z" />
    <glyph glyph-name="uniF1A8" unicode="&#xf1a8;" 
d="M164.688 47.792h56.3193v-85.3281h-56.3193v85.3281zM348.272 419.84l0.015625 0.0166016l84.3682 -85.248v-342.416c0 -15.7764 -13.3281 -29.7285 -29.0879 -29.7285h-156.944v86.7998v30.96h-52.9121v27.3125h27.3125v29.0078h-27.3125v27.3125h27.3125v25.5996
h-27.3125v29.0078h27.3125v27.3125h-27.3125v29.0078h27.3125v27.3115h-27.3125v32.4326h27.3125v29.0078h-27.3125v27.3115h-29.0078v-27.3115h29.0078v-29.0078h-29.0078v-32.4326h29.0078v-27.3115h-29.0078v-29.0078h29.0078v-27.3125h-29.0078v-29.0078h29.0078
v-25.5996h-29.0078v-27.3125h29.0078v-29.0078h-29.0078v-27.3125h-27.3125v-117.76h-30.7354c-15.7598 0 -30.7041 13.9521 -30.7041 29.7285v399.472c0 15.7598 13.1514 28.1758 28.9277 28.1758h243.393zM403.552 302.08c20.96 0 -0.335938 30.5283 -0.335938 30.5283
l-57.4082 59.0557c-12.4795 12.4795 -29.2158 0 -29.2158 0v-57.0723c0 -29.8721 29.8887 -32.5117 29.8887 -32.5117h57.0713z" />
    <glyph glyph-name="uniF224" unicode="&#xf224;" 
d="M420.592 241.712v0.015625c34.4639 -22.1758 57.4082 -60.6719 57.4082 -104.688c0 -68.8477 -55.7764 -124.656 -124.704 -124.656h-235.392c-47.1846 0 -83.1045 48.1445 -83.1045 96.9443c0 39.0078 23.1523 72.416 56.3682 87.7754
c-0.383789 3.16895 -0.975586 6.27246 -0.975586 9.52051c0 45.8877 37.168 83.1035 83.0713 83.1035c10.6084 0 20.6406 -2.15918 29.9688 -5.79199c10.3037 50.5127 54.9434 88.5449 108.527 88.5449c61.2803 0 110.832 -49.6162 110.832 -110.801
c0 -6.84766 -0.832031 -13.4717 -2 -19.9678zM344.72 109.952l-40.0312 40.0322l40.0312 40.0312c10.8164 10.8164 10.8164 28.3525 0 39.168c-10.8154 10.8164 -28.3516 10.8164 -39.168 0l-40.0322 -40.0312l-40.0312 40.0312
c-10.8164 10.8164 -28.3525 10.8164 -39.168 0c-10.8164 -10.8154 -10.8164 -28.3516 0 -39.168l40.0312 -40.0312l-40.0312 -40.0322c-10.8164 -10.8164 -10.8164 -28.3525 0 -39.168c5.40723 -5.4082 12.4961 -8.1123 19.584 -8.1123s14.1758 2.7041 19.584 8.1123
l40.0312 40.0322l40.0322 -40.0322c5.4082 -5.4082 12.4961 -8.1123 19.584 -8.1123s14.1758 2.7041 19.584 8.1123c10.8164 10.8154 10.8164 28.3516 0 39.168z" />
    <glyph glyph-name="uniF22B" unicode="&#xf22b;" 
d="M206.112 192.048l0.015625 0.0166016c6.22363 -3.37598 12.2881 -7.00879 18.2559 -10.6562c-8.22363 -28.1279 -35.7598 -122.208 -47.248 -161.168c-24.2393 15.5518 -53.584 30.6562 -94 30.6562c-24.9922 0 -52.2881 -5.56836 -83.1357 -16.9766l44.9121 155.696
c4.5918 1.87207 9.05566 3.55176 13.4082 5.15137c16.416 5.72852 41.9355 13.0889 69.8721 15.4082c3.00781 0.255859 6 0.352539 8.97559 0.352539c21.9043 0 45.0879 -6.22461 68.9443 -18.4805zM264.176 152.464l0.0166016 0.0166016
c21.1992 -14.9287 54.7832 -30.4805 102.752 -30.4805c26.2881 0 54.416 4.7998 83.7275 14.2559l-43.1836 -150.992c-36.3047 -14.752 -67.5205 -21.9033 -95.4238 -21.9033c-34.5605 0 -79.6963 24.3516 -93.1045 32.0312zM146.416 263.6h-0.015625h-0.0644531
c-25.7275 0 -53.6475 -5.95117 -86.0479 -18.1758l44.2236 155.296c32.2559 12.9287 60.5439 19.4238 86.4482 19.9043c13.5996 0 26.416 -1.45605 38.6084 -4.30371c18.5273 -4.75195 44.1592 -18.7041 53.9355 -24.3047l-46.3838 -158.672
c-23.6318 15.1523 -52.1445 29.8564 -90.7041 30.2559zM512 348.944h-0.015625l-44.4648 -153.217l-1.87109 -0.447266l0.0957031 -1.10449c-29.7598 -13.5039 -59.248 -20.3359 -87.7285 -20.3359c-34.9121 0 -68.1758 10.0801 -99.0557 29.9365l45.9678 159.12
c21.9043 -15.2803 55.7119 -31.1846 101.553 -31.1846c27.4238 0 56.1113 5.82422 85.5195 17.2324z" />
    <glyph glyph-name="uniF1A1" unicode="&#xf1a1;" 
d="M429.728 421.552c28.9121 0 55.8242 -27.4561 55.8242 -56.3193v-346.448s-26.9121 -58.0322 -55.8242 -58.0322h-346.88s-58.0957 29.168 -58.0957 58.0322v346.448c0 28.8633 29.1836 56.3193 58.0957 56.3193h346.88zM427.968 -8.57617h0.0166016
s30.6553 27.3438 30.6719 56.2246c-12.6562 12.0635 -25.4082 17.584 -92.4004 27.4551c-66.9922 9.88867 -62.3359 44.1445 -62.8154 46.208c0.111328 5.26465 2.47949 27.5684 2.47949 27.5684s21.5684 17.9043 31.8398 47.1357
c16.1445 10.208 22.3047 11.6162 24.9766 23.376c0 0 7.26367 44.3848 -10.0967 44.3848c0 0 -19.8877 -1.15234 -17.5674 9.24805c2.31934 10.4316 1.55176 14.0479 0.368164 25.5996c-1.13672 11.5684 5.87109 44.6084 -18.4648 49.2324
c-16.5918 3.07129 -11.2793 -1.60059 -19.3594 -0.448242c-8.12793 1.16797 -17.7764 22.1113 -32.7998 22.1113l-24.0488 -4.99121c-15.0234 0 -1.87109 -4.64062 -10 -5.77637c-8.06348 -1.18359 10.7041 1.12012 -13.5996 -3.47168
c-24.3037 -4.62402 -29.2803 -35.8242 -30.4316 -47.3926c-1.15234 -11.5674 -1.45605 -15.1992 -0.671875 -32.5439c2.30371 -10.3994 -9.4082 -10.3994 -9.4082 -10.3994c-14.5762 0.927734 -17.0566 -44.3848 -17.0566 -44.3848
c2.08008 -11.1992 -0.767578 -16.752 20.8008 -25.4072c10.2715 -29.2002 36.416 -43.9521 36.416 -43.9521s1.2959 -18.752 1.69531 -32.1123c-2.20801 1.13574 -3.80762 -34.0957 -70.7998 -43.9844c-66.96 -9.85547 -81.1357 -15.3916 -93.7764 -27.4551
c0 -28.8643 24.7041 -56.2725 24.7041 -56.2725z" />
    <glyph glyph-name="uniF210" unicode="&#xf210;" 
d="M481.936 17.9521c18.7529 -18.752 18.7529 -49.1357 0 -67.8877c-18.752 -18.7529 -49.1191 -18.7529 -67.8711 0l-134.433 134.432c-26.3037 -13.5361 -56.0322 -21.2959 -87.6318 -21.2959c-106.032 0 -192 85.9521 -192 192c0 106.032 85.9678 192 192 192
s192 -85.9678 192 -192c0 -39.5361 -11.9844 -76.2881 -32.4805 -106.832zM64 255.2c0 -70.416 57.584 -128 128 -128s128 57.584 128 128c0 70.3994 -57.584 128 -128 128s-128 -57.6006 -128 -128z" />
    <glyph glyph-name="uniF1DE" unicode="&#xf1de;" 
d="M256 448h256v-64h-64v-448h-64v448h-64v-448h-64v256c-70.6885 0 -128 57.3115 -128 128s57.3115 128 128 128zM0 96v256l128 -128z" />
    <glyph glyph-name="uniF201" unicode="&#xf201;" 
d="M256.704 -54.752c-99.5039 0 -186.8 63.9521 -217.264 158.544l-2.7207 8.84766h68.1279l1.69629 -4.30371c25.8398 -59.7119 84.7842 -98.3682 150.16 -98.3682c76.3838 0 140.624 49.7598 158.848 123.152h-49.8398l80.8477 104.384l64.2725 -104.384h-29.4238
c-9.16797 -52.9121 -35.8242 -98.4805 -75.4404 -132.608c-41.2959 -35.5518 -94.3037 -55.2637 -149.279 -55.2637h0.015625zM0.719727 267.952h35.1367c12.3516 47.792 39.9834 89.4082 78.2236 120.208c40.4316 32.5596 91.0723 50.5762 142.624 50.5762
c92.5762 0 175.312 -54.7041 210.784 -140.097l3.72754 -8.49609h-70.832l-1.85547 2.84863c-29.1367 51.248 -82.1445 81.4883 -141.824 81.4883c-69.1523 0 -129.729 -41.6641 -153.44 -106.513h46.0479l-77.6631 -103.92zM213.104 117.952v0.015625
s55.585 151.536 149.248 199.216c-2.28711 -34.0957 -7.55176 -72.0312 8.41602 -108.367c-41.1035 -9.08887 -125.647 -111.297 -153.088 -161.265c-38.8477 47.6807 -84.5439 84.0479 -116.527 95.3926l75.4072 45.4395z" />
    <glyph glyph-name="uniF19A" unicode="&#xf19a;" 
d="M255.456 422.096c126.8 0 229.647 -102.8 229.647 -229.6s-102.8 -229.6 -229.6 -229.6s-229.6 102.848 -229.6 229.6s102.8 229.6 229.552 229.6zM255.456 12.0957c99.6475 0 180.4 80.8008 180.4 180.4s-80.7529 180.4 -180.4 180.4
c-99.6484 0 -180.4 -80.8008 -180.4 -180.4s80.752 -180.4 180.4 -180.4zM334.304 216.704v-0.015625c12.5127 0 22.6084 -10.1602 22.6084 -22.6562s-10.1123 -22.5918 -22.6084 -22.5918h-77.9521c-12.4951 0 -22.5918 10.1113 -22.5918 22.6074v3.95215v94.3516
c0 12.4961 10.0801 22.5928 22.5918 22.5928c12.5127 0 22.6084 -10.0967 22.6084 -22.5928v-75.6475h55.3438z" />
    <glyph glyph-name="uniF21A" unicode="&#xf21a;" 
d="M192 264c0 13.248 10.7363 24 24 24s24 -10.752 24 -24v-71.2158l19.6641 11.3594c11.4717 6.62402 26.1602 2.7041 32.7842 -8.7832c6.62402 -11.4727 2.6875 -26.1602 -8.78418 -32.7842l-55.4404 -32c-11.4717 -6.62402 -26.1592 -2.7041 -32.7832 8.78418
c-0.512695 0.879883 -0.832031 1.77539 -1.2168 2.6875c-0.15918 0.335938 -0.319336 0.688477 -0.463867 1.02441c-0.240234 0.639648 -0.416016 1.26367 -0.591797 1.8877c-0.6875 2.24023 -1.16797 4.57617 -1.16797 7.04004v112zM240 366.592
c107.984 -11.9521 192 -103.424 192 -214.592c0 -119.296 -96.7041 -216 -216 -216s-216 96.7041 -216 216c0 111.168 84.0156 202.64 192 214.592v33.4082s5.2002 16 -16 16h-32v32h144v-32h-32s-16 6.76758 -16 -16v-33.4082zM339.568 39.7441
c25.584 28.0156 42.0801 64.3994 44.0312 104.256h-31.5996v16h31.5996c-1.95117 39.8721 -18.4316 76.2402 -44.0312 104.256l-21.7441 -21.7275l-11.3125 11.3115l21.7441 21.7285c-28.0479 25.4873 -64.4482 41.9355 -104.256 44v-31.5684h-16v31.6162
c-40.0801 -1.82422 -76.5762 -18.1602 -104.64 -43.6807l22.1113 -22.1113l-11.3115 -11.3125l-22.1123 22.1123c-25.5039 -28.0322 -41.8555 -64.5439 -43.6797 -104.624h31.6318v-16h-31.584c2.06445 -39.8564 18.4482 -76.3203 43.9043 -104.368l21.8555 21.8398
l11.3125 -11.3115l-21.8721 -21.8721c28.0156 -25.5996 64.3994 -42.0645 104.384 -43.9043v31.6162h16v-31.5684c39.8076 2.06445 76.208 18.5127 104.24 44.0166l-21.7285 21.7119l11.3125 11.3115z" />
    <glyph glyph-name="uniF1CA" unicode="&#xf1ca;" 
d="M415.648 448.848l0.015625 -0.015625c63.9355 0 95.4883 -32.0479 95.4883 -96v-223.808c0 -63.9365 -31.5361 -96.6084 -95.4883 -96.6084h-191.84l-127.393 -95.2158v95.9199c-64.8477 0 -97.2793 31.9678 -97.2793 95.9199v223.808c0 63.9521 32.8154 96 96.7676 96
h319.729zM383.68 163.168l-79.9033 79.9043l79.9033 79.9033l-45.9033 47.2803l-81.4082 -79.7754l-79.7764 79.7754l-48.7041 -47.2803l80 -80.0156l-80 -78.3838l47.3125 -50.1123l80.5918 80.6084l80.5918 -80.6084z" />
    <glyph glyph-name="uniF205" unicode="&#xf205;" 
d="M448.656 158.384h-158.384v-158.384h-67.8721v158.384h-158.4v67.8887h158.4v158.384h67.8721v-158.384h158.384v-67.8887z" />
    <glyph glyph-name="uniF1F9" unicode="&#xf1f9;" 
d="M255.984 443.376c138.832 0 251.376 -112.56 251.376 -251.376s-112.544 -251.36 -251.376 -251.36c-138.816 0 -251.36 112.513 -251.36 251.36s112.544 251.376 251.36 251.376zM255.984 1.9043c42.624 0 81.9834 14.0479 113.695 37.7441l-96.2881 96.2871
c-24.9277 -31.9355 -46.2715 -65.0234 -58.2881 -86.9111c-41.2158 50.5752 -89.6797 89.1357 -123.6 101.168l79.9678 48.1758l38.7842 -74.6719s7.82422 22.1602 22.9766 52.3994l-129.601 129.601c-23.7119 -31.6963 -37.7441 -71.0566 -37.7441 -113.696
c0 -104.976 85.1201 -190.096 190.097 -190.096zM408.352 78.3203c23.6963 31.7119 37.7285 71.0557 37.7285 113.68c0 104.992 -85.1045 190.096 -190.096 190.096c-42.624 0 -81.9688 -14.0312 -113.681 -37.7275l118.896 -118.896
c25.3438 39.6006 59.8398 80.6406 102.735 102.48c-2.41602 -36.1279 3.82422 -59.6641 20.8008 -98.208c-22.6406 -3.63184 -49.6006 -24.7363 -75.6807 -52.1279z" />
    <glyph glyph-name="uniF1E1" unicode="&#xf1e1;" 
d="M400 200.112v-16.1123h-288v16.1123h288zM400 263.856v-16.1123h-288v16.1123h288zM448 224v-30.6396l64 30.6396v-256s-1.79199 -32 -32 -32h-448s-32 3.00781 -32 32v256l64 -30.7197v30.7197h-32s-32 0.799805 -32 32.7998l64 53.9043v57.2959s3.07227 32 32 32h74
l38 32s16 15.8877 47.5039 15.8877s48.4961 -15.8877 48.4961 -15.8877l37.8076 -32h74.1924c31.9199 0 32 -32 32 -32v-57.8398l64 -54.1602c0 -32.3037 -32 -32 -32 -32h-32zM480 -32c0 0 -40.9922 72.4805 -64 96s-104.496 64 -104.496 64l120.496 57.6963v182.304
s-2.94434 16 -14.9756 16h-321.44c-13.4082 0 -15.584 -16 -15.584 -16v-182.4l120 -57.5996s-85.376 -44.5283 -104 -64c-18.624 -19.4883 -64 -96 -64 -96l176 160s16.9922 16 48 16s48 -16 48 -16zM304 328.32v-16.1279h-192v16.1279h192z" />
    <glyph glyph-name="uniF1AA" unicode="&#xf1aa;" 
d="M385.152 192l-289.137 -192v384z" />
    <glyph glyph-name="uniF1E5" unicode="&#xf1e5;" 
d="M64 352v-256h96v-64h-160v320h64zM128 288v64h256v-64h-96v-256h-64v256h-96zM416 352h64v-320h-64v320z" />
    <glyph glyph-name="uniF198" unicode="&#xf198;" 
d="M255.456 422.096c126.8 0 229.647 -102.8 229.647 -229.6s-102.8 -229.6 -229.6 -229.6s-229.6 102.848 -229.6 229.6s102.8 229.6 229.552 229.6zM255.456 12.0957c99.6475 0 180.4 80.8008 180.4 180.4s-80.7529 180.4 -180.4 180.4
c-99.6484 0 -180.4 -80.8008 -180.4 -180.4s80.752 -180.4 180.4 -180.4zM344.048 180.752h-59.0557v-79.6484h-59.0566v79.6484h-59.0557l88.5439 110.145l88.5918 -110.145h0.0322266z" />
    <glyph glyph-name="uniF227" unicode="&#xf227;" 
d="M480 8.97559v-72.9756h-480v73.04c0 15.248 11.2002 58.624 97.0244 71.1035c56.6719 8.24023 73.8076 19.5361 78.9277 26.2568c-0.671875 15.6953 -1.9043 33.4238 -1.9043 33.4238s-17.0557 18.6396 -30.0479 55.584
c-27.2803 10.9277 -23.6797 17.9521 -26.3359 32.0801c0 0 3.15234 57.2637 21.584 56.0957c0 0 14.8164 0 11.8877 13.1357c-0.975586 21.9199 -0.607422 26.4805 0.864258 41.0879c1.47168 14.6084 7.75977 54.0645 38.5117 59.8887
c30.752 5.83984 6.99219 2.92773 17.248 4.38379s-6.39941 7.2959 12.6406 7.2959l30.3838 6.33594c19.0234 0 31.248 -26.4795 41.4717 -27.9355c10.2559 -1.47266 3.56836 4.44727 24.5439 0.55957c30.752 -5.83984 32.2559 -47.6162 33.6963 -62.2236
c1.47168 -14.5928 0.160156 -19.168 -2.75195 -32.3359c-2.94434 -13.1367 8.95996 -11.4561 8.95996 -11.4561c21.9678 0 17.9844 -56.3359 17.9844 -56.3359c-3.39258 -14.8486 -11.1846 -16.6406 -31.6328 -29.5205
c-12.9912 -36.9443 -40.2881 -59.5996 -40.2881 -59.5996l1.23242 -24.8643s-4.75195 -19.5195 80 -32c84.752 -12.4639 96 -55.7764 96 -71.0244z" />
    <glyph glyph-name="uniF1C5" unicode="&#xf1c5;" 
d="M448 240.816l64 31.1836v-176c0 -34.5439 -29.4238 -64 -64 -64h-160l-128 -96h-32v96h-64c-34.5762 0 -64 29.4561 -64 64v224c0 34.5439 29.4238 64 64 64h192v-64h-160c-17.6641 0 -32 -14.3359 -32 -32v-160c0 -17.6797 14.3359 -32 32 -32h80v-64l96 64h144
c17.6641 0 32 14.3359 32 32v112.816zM352 256v64h-64v64h64v64h64v-64h64v-64h-64v-64h-64z" />
    <glyph glyph-name="uniF1B3" unicode="&#xf1b3;" 
d="M395.744 175.952c0.671875 -77.4561 67.9355 -103.216 68.7041 -103.568c-0.591797 -1.79199 -10.7686 -36.7354 -35.4561 -72.8154c-21.3604 -31.2002 -43.4727 -62.2402 -78.3525 -62.8965c-34.3193 -0.639648 -45.3438 20.3359 -84.5273 20.3359
c-39.1846 0 -51.4561 -19.6797 -83.8721 -20.9756c-33.6641 -1.24805 -59.3125 33.6797 -80.8164 64.7842c-44.0156 63.5518 -77.5996 179.615 -32.4482 257.968c22.3682 38.9277 62.4482 63.5518 105.904 64.1914c33.0723 0.608398 64.3037 -22.2715 84.4805 -22.2715
c20.2393 0 58.1592 27.5039 98.0312 23.4717c16.6885 -0.704102 63.5361 -6.71973 93.6162 -50.7354c-2.38379 -1.55273 -55.9043 -32.6406 -55.2637 -97.4883zM331.28 366.24c-17.8887 -21.6162 -47.2158 -38.4639 -75.9521 -36.2246
c-3.8877 29.4082 10.6074 60.0322 27.1836 79.2168c18.4639 21.6152 49.6641 37.7119 75.4082 38.7676c3.2959 -30 -8.76758 -60.0801 -26.6396 -81.7598z" />
    <glyph glyph-name="uniF194" unicode="&#xf194;" 
d="M256 421.584c126.784 0 229.584 -102.8 229.584 -229.584s-102.8 -229.584 -229.584 -229.584s-229.584 102.8 -229.584 229.584s102.8 229.584 229.584 229.584zM256 48.5117c15.8721 0 28.7041 12.8486 28.7041 28.7041c0 15.8564 -12.8477 28.6885 -28.7041 28.6885
c-15.8398 0 -28.6885 -12.8164 -28.6885 -28.6885s12.8486 -28.7041 28.6885 -28.7041zM331.2 208.512l-0.0166016 0.0166016c7.37598 10.2559 11.0723 22.8799 11.0723 37.8721c0 24.4639 -8.52832 42.8799 -25.5361 55.3438s-38.416 18.6562 -64.1279 18.6562
c-19.584 0 -36.0957 -4.43262 -49.5361 -13.1846c-21.3115 -13.7119 -32.624 -39.2314 -34 -69.9521h51.168c0 6.83203 0.944336 18.8643 6.46484 27.7441c5.51953 8.87988 14.8633 13.3926 28.0312 13.3926c13.3926 0 22.6406 -3.64844 27.6807 -10.8486
c5.07129 -7.2002 7.59961 -15.248 7.59961 -24c0 -7.63184 -2.27246 -14.7041 -6.81641 -21.04c-2.47949 -3.69531 -5.75977 -7.2959 -9.85547 -10.3994l-12.4482 -10.2725c-12.2715 -9.67969 -23.4561 -19.04 -26.416 -26.4961
c-2.92773 -7.43945 -6.46387 -23.4395 -7.15234 -43.9199h57.3926c0.112305 10.2402 -1.34375 25.9199 0 30.2881c2.16016 6.92773 2.94434 8.20801 9.51953 13.4238l12.1123 9.50391c12.2402 9.69629 20.5439 17.6328 24.8643 23.8721z" />
    <glyph glyph-name="uniF1DC" unicode="&#xf1dc;" 
d="M448 320c64 0 64 -64 64 -64v-256c0 -64 -64 -64 -64 -64h-384c-64 0 -64 64 -64 64v256s0 64 64 64h384zM448 0v256h-384v-256h384zM288 158.688l128 -126.688h-320l65.248 192l94.4961 -123.04zM367.168 157.456c-18.2236 0 -33.0078 14.624 -33.0078 32.6719
s14.7676 32.6719 33.0078 32.6719c18.208 0 32.9922 -14.624 32.9922 -32.6719s-14.7686 -32.6719 -32.9922 -32.6719z" />
    <glyph glyph-name="uniF1B8" unicode="&#xf1b8;" 
d="M144 368c-8.83203 0 -16 7.16797 -16 16v48c0 8.83203 7.16797 16 16 16c8.84766 0 16 -7.16797 16 -16v-48c0 -8.83203 -7.15234 -16 -16 -16zM464 416c29.9199 0 48 -18.7197 48 -48v-384c0 -29.2803 -16.1279 -48 -48 -48h-416c-29.2803 0 -48 19.376 -48 48v384
c0 29.9199 16.7842 48 48 48h48v-32c0 -26.5117 21.5039 -48 48 -48s48 21.4883 48 48v32h128v-31.9844v-0.015625c0 -26.5117 21.5039 -48 48 -48s48 21.4883 48 48v32h48zM448 0v288h-384v-288h384zM234.912 139.696c6.75195 15.9199 16.4961 34.1602 31.0879 52.3037h-74
v32h128v-32c-10.1602 -9.15234 -21.168 -19.248 -27.9844 -29.9199c-8.25586 -12.9766 -11.1992 -17.7119 -15.9834 -33.6162c-3.77637 -12.3682 -7.71191 -47.5674 -9.02441 -64.4639h-43.0078c3.13574 23.5039 4.16016 59.7764 10.9121 75.6963zM368 368
c-8.84766 0 -16 7.16797 -16 16v48c0 8.83203 7.15234 16 16 16s16 -7.16797 16 -16v-48c0 -8.83203 -7.15234 -16 -16 -16z" />
    <glyph glyph-name="uniF1EF" unicode="&#xf1ef;" 
d="M192 64v256l128 -128z" />
    <glyph glyph-name="uniF1DF" unicode="&#xf1df;" 
d="M0 64v256l192 -128zM320 160v64h192v-64h-192zM224 352h288v-64h-288v64zM224 32v64h288v-64h-288z" />
    <glyph glyph-name="uniF1FA" unicode="&#xf1fa;" 
d="M479.984 170l0.015625 -42l-190.992 -160h-42h-151.008c-62.96 0 -64 64 -64 64v320s64 64 64 64h320s62.0957 -64 62.0957 -64s1.79199 -60.7842 1.88867 -182zM96 311.696v-16h320v16h-320zM96 248.384v-16h320v16h-320zM96 168.384h192v16h-192v-16zM285.968 1.77637
l143.312 124.256c-55.6807 -8.91211 -137.28 1.96777 -137.28 1.96777s7.36035 -79.2803 -6.03223 -126.224z" />
    <glyph glyph-name="uniF1EC" unicode="&#xf1ec;" 
d="M306.112 146.16c0 0 -45.8086 -35.0078 -102.353 0l-203.76 173.84s0.896484 32.2725 34.1602 32.2725h443.696s33.04 -0.624023 33.04 -32.624zM408.192 191.552l103.808 96.4482v-256s-1.79199 -32 -32 -32h-444.8s-35.2002 3.00781 -35.2002 32v256l103.008 -95.3438
l-69.3281 -152.992l99.6484 119.504l64.0156 -48.1602s58.7041 -38.3838 113.776 -0.992188l63.6641 49.9043l103.439 -128.128z" />
    <glyph glyph-name="uniF1E0" unicode="&#xf1e0;" 
d="M75.8721 192.56c0 -37.4561 -28.0957 -68.3193 -64.3838 -72.7676c-6.0166 23.248 -9.21582 47.6484 -9.21582 72.7676c0 25.1201 3.19922 49.5049 9.21582 72.7686c36.2715 -4.46387 64.3838 -35.2959 64.3838 -72.7686zM118.528 215.568
c12.7041 0 23.0078 -10.3047 23.0078 -23.0088c0 -12.7031 -10.3037 -23.0078 -23.0078 -23.0078c-12.6885 0 -22.9922 10.3047 -22.9922 23.0078c0 12.7041 10.2881 23.0088 22.9922 23.0088zM436.112 192.56c0 37.4727 28.0957 68.3047 64.3682 72.7686
c6.01562 -23.2637 9.23145 -47.6484 9.23145 -72.7686c0 -25.1191 -3.21582 -49.5195 -9.23145 -72.7676c-36.2725 4.44824 -64.3682 35.3115 -64.3682 72.7676zM393.456 215.568c12.7041 0 23.0078 -10.3047 23.0078 -23.0088
c0 -12.7031 -10.3037 -23.0078 -23.0078 -23.0078c-12.7197 0 -23.0078 10.3047 -23.0078 23.0078c0 12.7041 10.3037 23.0088 23.0078 23.0088zM255.52 11.792c37.4727 0 68.3203 -28.1123 72.7842 -64.3682c-23.2637 -6.01562 -47.6318 -9.23145 -72.7676 -9.23145
s-49.5039 3.21582 -72.7686 9.23145c4.44824 36.2559 35.2969 64.3682 72.752 64.3682zM255.536 77.4717c12.7041 0 23.0078 -10.3037 23.0078 -23.0234c0 -12.7207 -10.3203 -23.0078 -23.0078 -23.0078c-12.7041 0 -23.0078 10.3037 -23.0078 23.0078
s10.3037 23.0234 23.0078 23.0234zM255.536 372.208h0.015625c-37.4717 0 -68.3193 28.1123 -72.7842 64.3838c23.2803 6 47.6484 9.21582 72.7842 9.21582c25.1367 0 49.4883 -3.21582 72.752 -9.21582c-4.46387 -36.2715 -35.3115 -64.3838 -72.7676 -64.3838z
M255.536 352.56c12.7041 0 23.0078 -10.3037 23.0078 -23.0078c0 -12.6875 -10.3203 -22.9922 -23.0078 -22.9922c-12.7041 0 -23.0078 10.3047 -23.0078 22.9922c0 12.7041 10.3037 23.0078 23.0078 23.0078zM383.12 64.9922h-0.0166016
c26.4648 26.4482 68.1123 28.416 96.8965 5.9834c-24.9756 -42.3994 -60.4639 -77.9033 -102.864 -102.896c-22.4316 28.7842 -20.4795 70.4316 5.98438 96.9121zM336.672 111.408c8.99219 8.97559 23.5518 8.97559 32.5439 0c8.97656 -8.97656 8.97656 -23.5361 0 -32.5283
c-8.99219 -8.99219 -23.5518 -8.99219 -32.5439 0c-8.97559 8.97656 -8.97559 23.5518 0 32.5283zM128.352 319.744h0.0166016c-26.4639 -26.4639 -68.1279 -28.4326 -96.9121 -5.98438c24.9922 42.416 60.4639 77.8887 102.88 102.88
c22.4316 -28.7832 20.4805 -70.4316 -5.98438 -96.8955zM142.24 305.856c8.97559 8.97559 23.5518 8.97559 32.5273 0c8.97656 -8.99219 8.95996 -23.5684 0 -32.5449c-8.95996 -8.97559 -23.5352 -8.97559 -32.5273 0c-8.95996 8.99219 -8.95996 23.5527 0 32.5449z
M382.96 319.984h0.015625c-26.4639 26.4639 -28.4316 68.1279 -5.9834 96.8955c42.3994 -24.9922 77.8877 -60.4639 102.864 -102.88c-28.7842 -22.4482 -70.4326 -20.4805 -96.8965 5.98438zM369.072 273.552c-8.99219 -8.97559 -23.5684 -8.97559 -32.5439 0
c-8.97656 8.99219 -8.97656 23.5684 0 32.5439c8.97559 8.97656 23.5518 8.97656 32.5439 0c8.97559 -8.99219 8.97559 -23.5518 0 -32.5439zM128.208 65.2637h-0.015625c26.4795 -26.4795 28.4473 -68.1279 6 -96.9121c-42.416 24.9922 -77.8887 60.4805 -102.881 102.896
c28.7842 22.4316 70.4326 20.4639 96.8965 -5.98438zM142.112 111.68c8.99121 8.99219 23.5674 8.99219 32.5439 0c8.99219 -8.97559 8.97559 -23.5361 0 -32.5273c-8.97656 -8.99219 -23.5527 -8.99219 -32.5439 0c-8.95996 8.97559 -8.95996 23.5518 0 32.5273z" />
    <glyph glyph-name="uniF1B7" unicode="&#xf1b7;" 
d="M96 448h320v-512l-160 160l-160 -160v512z" />
    <glyph glyph-name="uniF1E6" unicode="&#xf1e6;" 
d="M255.792 422.4c127.104 0 230.192 -103.089 230.192 -230.192c0 -127.104 -103.088 -230.192 -230.192 -230.192c-127.12 0 -230.192 103.088 -230.192 230.192c0 127.104 103.072 230.192 230.192 230.192zM255.792 11.3438c99.8721 0 180.864 81.0244 180.864 180.864
s-80.9922 180.864 -180.864 180.864c-99.8877 0 -180.864 -81.0244 -180.864 -180.864s80.9766 -180.864 180.864 -180.864z" />
    <glyph glyph-name="uniF1C9" unicode="&#xf1c9;" 
d="M206.096 348.704c40.9766 0 74.4326 -32.4639 74.4326 -72.1758c0 -39.6963 -33.4727 -72.1602 -74.4326 -72.1602s-74.4961 32.4639 -74.4961 72.1602c0 39.7119 33.5205 72.1758 74.4961 72.1758zM414.64 448.848c64.0488 0 96.0801 -32.0312 96.0801 -96.0801
v-224.191c0 -64.0479 -32.0312 -96.0801 -96.0801 -96.0801h-192.159l-128.112 -96.0801v96.0801c-64.0479 0 -96.0801 32.0322 -96.0801 96.0801v224.191c0 64.0488 32.0322 96.0801 96.0801 96.0801h320.271zM374.768 104.48l-0.015625 -0.0166016
c10.9121 10.5762 10.9121 27.7119 0 38.2881l-75.9043 73.5684c11.9521 17.2314 18.9287 37.9355 18.9287 60.208c0 59.792 -50 108.271 -111.681 108.271c-61.6953 0 -111.712 -48.4795 -111.712 -108.271c0 -59.7607 50 -108.24 111.712 -108.24
c18.3359 0 35.4082 4.6875 50.6719 12.2881l78.4961 -76.0957c10.9121 -10.5762 28.5928 -10.5762 39.5039 0z" />
    <glyph glyph-name="uniF195" unicode="&#xf195;" 
d="M254.608 275.12h0.015625c20.9756 0 36.96 -7.08789 47.8564 -21.3125c10.96 -14.2236 16.3994 -34.3193 16.3994 -60.3516c0 -11.2959 -1.18359 -21.2324 -3.56836 -29.7285c-1.4873 -5.66309 -1.43945 -12.2715 -5.21582 -19.8076l-28.624 31.1045l-30.0156 -26.9121
l29.4238 -31.2324c-4.52832 -1.8877 -7.36035 -2.27148 -10.2559 -3.02344c-5.28027 -1.36035 -10.7842 -2.06445 -16.4805 -2.06445c-15.168 0 -28.208 4.46387 -39.0713 13.3604c-16.7998 13.7598 -25.2002 36.5117 -25.2002 68.3037
c0 27.168 5.87207 47.5684 17.5996 61.2158c11.7285 13.6484 27.4404 20.4482 47.1367 20.4482zM256 419.648c125.712 0 227.648 -101.937 227.648 -227.648s-101.937 -227.648 -227.648 -227.648s-227.648 101.937 -227.648 227.648s101.937 227.648 227.648 227.648z
M341.056 57.7275v0.0166016l30.3682 30.7842l-27.3438 25.0879c8.16016 8.81543 12.5596 18.0635 16.7197 31.376c5.16797 13.9521 7.79199 31.2637 7.79199 51.9355c0 39.0078 -12.0635 69.3926 -36.1758 91.1201c-20.8965 18.7842 -46.7041 28.1758 -77.4883 28.1758
c-30.5762 0 -56.1436 -8.89551 -76.6875 -26.624c-25.1846 -21.7275 -37.7764 -53.7432 -37.7764 -96.1436c0 -42.0801 12.2725 -73.9844 36.832 -95.6797c20.2559 -18.0488 45.9043 -27.0723 76.9277 -27.0723c14.8643 0 27.6162 1.75977 38.2881 5.2002
c6.36816 2.11133 11.2324 3.08789 19.9521 8.25586z" />
    <glyph glyph-name="uniF220" unicode="&#xf220;" 
d="M224 128l-128 -96v96h-32c-64 0 -64 64 -64 64v160s0.496094 64 64 64h256c63.5039 0 64 -64 64 -64v-160s-64 -64 -64 -64h-96zM511.008 248.064c0 -71.5049 0.992188 -152.064 0.992188 -152.064s-0.496094 -64 -64 -64h-32v-96l-128 96h-122.88l90.8799 64h96
c63.0078 0 64 64 64 64v160h32s63.0078 -0.431641 63.0078 -71.9355z" />
    <glyph glyph-name="uniF1D3" unicode="&#xf1d3;" 
d="M0 384h512v-384h-512v384zM96 32v64h-64v-64h64zM96 160v64h-64v-64h64zM96 288v64h-64v-64h64zM384 32v320h-256v-320h256zM480 32v64h-64v-64h64zM480 160v64h-64v-64h64zM480 288v64h-64v-64h64zM192 288l128 -96l-128 -96v192z" />
    <glyph glyph-name="uniF1C7" unicode="&#xf1c7;" 
d="M415.808 448c63.8408 0 95.7607 -31.9199 95.7607 -95.7598v-223.44c0 -63.8398 -31.9199 -95.7598 -95.7607 -95.7598h-191.52l-127.68 -95.7598v95.7598c-63.8408 0 -95.7607 31.9199 -95.7607 95.7598v223.44c0 63.8398 31.9199 95.7598 95.7607 95.7598h319.199z
M224.288 205.616c116.144 51.8076 191.52 -76.8164 191.52 -76.8164c0 178.736 -191.52 174.561 -191.52 174.561v80.7998l-127.68 -127.68l127.68 -127.681v76.8164z" />
    <glyph glyph-name="uniF18E" unicode="&#xf18e;" 
d="M287.952 323.792v-0.015625v124.208l192 -192l-192 -192v126.896c-223.36 5.24805 -198.256 -151.888 -141.408 -254.896c-140.336 151.712 -82.5918 387.808 141.408 387.808z" />
    <glyph glyph-name="uniF22C" unicode="&#xf22c;" 
d="M64 192c0 27.1035 5.96777 52.8477 16.624 76.0957l91.584 -244.384c-64.0479 30.3037 -108.208 94.2725 -108.208 168.288zM385.616 201.44l-0.0166016 0.015625c0 -16 -6.31934 -34.5762 -14.6074 -60.4482l-19.1523 -62.3193l-69.3916 201.008
c11.5518 0.591797 21.9678 1.77539 21.9678 1.77539c10.3516 1.18457 9.13574 16 -1.21582 15.4082c0 0 -31.0879 -2.38379 -51.168 -2.38379c-18.8643 0 -50.5605 2.38379 -50.5605 2.38379c-10.3516 0.591797 -11.5674 -14.8154 -1.21582 -15.4082
c0 0 9.80859 -1.18359 20.1445 -1.77539l29.9033 -79.8242l-42.0156 -122.736l-69.9199 202.561c11.5674 0.591797 21.9678 1.77539 21.9678 1.77539c10.3359 1.18457 9.12012 16 -1.23242 15.4082c0 0 -31.0879 -2.38379 -51.168 -2.38379
c-3.59961 0 -7.83984 0.0800781 -12.3516 0.223633c34.3203 50.7686 93.3438 84.2881 160.416 84.2881c49.9844 0 95.4883 -18.624 129.648 -49.1035c-0.816406 0.0478516 -1.63281 0.143555 -2.48047 0.143555c-18.8643 0 -32.2402 -16 -32.2402 -33.1836
c0 -15.4082 9.13672 -28.4482 18.8643 -43.8564c7.2959 -12.4482 15.8242 -28.4482 15.8242 -51.5674zM259.376 175.648v0.015625l59.0078 -157.472c0.383789 -0.928711 0.864258 -1.77637 1.37598 -2.57617c-19.9521 -6.84863 -41.4082 -10.6084 -63.7598 -10.6084
c-18.8477 0 -37.04 2.68848 -54.2402 7.61621zM424.48 281.712c14.9912 -26.624 23.5195 -57.2002 23.5195 -89.7119c0 -68.9922 -38.3838 -129.216 -95.4717 -161.632l58.6396 165.136c10.96 26.6719 14.6084 48.0156 14.6084 66.9766
c0 6.89551 -0.464844 13.2793 -1.2959 19.2314zM256 448c141.392 0 256 -114.608 256 -256s-114.608 -256 -256 -256s-256 114.608 -256 256s114.608 256 256 256zM256 -32c123.712 0 224 100.288 224 224s-100.288 224 -224 224s-224 -100.288 -224 -224
s100.288 -224 224 -224z" />
    <glyph glyph-name="uniF225" unicode="&#xf225;" 
d="M420.592 241.712v0.015625c34.4639 -22.1758 57.4082 -60.6719 57.4082 -104.688c0 -68.8477 -55.7764 -124.656 -124.704 -124.656h-235.392c-47.1846 0 -83.1045 48.1445 -83.1045 96.9443c0 39.0078 23.1523 72.416 56.3682 87.7754
c-0.383789 3.16895 -0.975586 6.27246 -0.975586 9.52051c0 45.8877 37.168 83.1035 83.0713 83.1035c10.6084 0 20.6406 -2.15918 29.9688 -5.79199c10.3037 50.5127 54.9434 88.5449 108.527 88.5449c61.2803 0 110.832 -49.6162 110.832 -110.801
c0 -6.84766 -0.832031 -13.4717 -2 -19.9678z" />
    <glyph glyph-name="uniF189" unicode="&#xf189;" 
d="M256 413.552c125.648 0 227.552 -101.903 227.552 -227.552s-101.903 -227.552 -227.552 -227.552s-227.552 101.903 -227.552 227.552s101.903 227.552 227.552 227.552zM256 15.3438c94.2559 0 170.656 76.4004 170.656 170.656s-76.4004 170.656 -170.656 170.656
s-170.656 -76.4004 -170.656 -170.656s76.4004 -170.656 170.656 -170.656z" />
    <glyph glyph-name="uniF1F3" unicode="&#xf1f3;" 
d="M90.4805 248.32c30.5439 0 55.3115 -24.7686 55.3115 -55.3125s-24.7676 -55.3115 -55.3115 -55.3115c-30.5449 0 -55.3125 24.7676 -55.3125 55.3115s24.7676 55.3125 55.3125 55.3125zM422.32 248.32c30.5439 0 55.3115 -24.7686 55.3115 -55.3125
s-24.7676 -55.3115 -55.3115 -55.3115s-55.3125 24.7676 -55.3125 55.3115s24.7686 55.3125 55.3125 55.3125zM256.4 248.32c30.5439 0 55.3115 -24.7686 55.3115 -55.3125s-24.7676 -55.3115 -55.3115 -55.3115s-55.3125 24.7676 -55.3125 55.3115
s24.7686 55.3125 55.3125 55.3125z" />
    <glyph glyph-name="uniF187" unicode="&#xf187;" 
d="M256.704 413.056c125.744 0 227.744 -101.952 227.744 -227.744s-102 -227.743 -227.744 -227.743c-125.792 0 -227.744 101.951 -227.744 227.743s102 227.744 227.744 227.744zM256.704 14.5439c94.3037 0 170.8 76.4482 170.8 170.8
c0 94.3525 -76.4482 170.8 -170.8 170.8c-94.3525 0 -170.8 -76.4473 -170.8 -170.8c0 -94.3516 76.4473 -170.8 170.8 -170.8zM369.296 253.696l0.015625 0.015625c11.2002 -10.8643 10.8486 -28.3516 -0.751953 -39.0557l-146.447 -133.408l-79.0566 98.752
c-9.69531 12.0957 -7.04004 29.4561 5.9043 38.752c12.9443 9.34375 31.248 7.08789 40.9443 -5.00781l39.2959 -49.1523l98.752 89.2002c11.5996 10.752 30.1436 10.7041 41.3438 -0.0957031z" />
    <glyph glyph-name="uniF18D" unicode="&#xf18d;" 
d="M302.096 365.456l-0.015625 0.015625c35.4395 -8.62402 111.616 1.37598 154.144 15.248l-0.751953 -212.992s-143.584 -33.7119 -168.256 -1.90332l-0.0800781 26.0156c-36.1436 5.00781 -147.695 -38.7197 -167.888 -49.3281
c-3.82422 -2.01562 -5.77637 -5.00781 -5.77637 -5.00781v-146.144l-26.1113 -28.6562l-31.6162 28.6562l0.255859 416.624c0 7.35938 36.4004 13.3115 43.7441 13.3115c6.46387 0 14.2881 -0.78418 15.5195 -0.639648c32.5127 3.96777 164.752 -14.752 164.752 -14.752
c5.34473 -10.1768 9.18457 -27.2002 11.8242 -36.5928c1.28027 -4.63965 -3.05566 -0.639648 10.2559 -3.85547zM117.728 162.576c27.6963 66.4795 38.8643 192.336 0.128906 224.096c-3.2002 8.95996 -4.35254 2.83203 -4.35254 1.93652v-227.824
s2.84766 -1.48828 4.22363 1.79199z" />
    <glyph glyph-name="uniF1E3" unicode="&#xf1e3;" 
d="M160 96c-8.7998 8.7998 -8.35156 23.6484 0.975586 32.9756l158.064 158.064c9.34375 9.34375 24.1758 9.77637 32.9756 0.975586c8.80078 -8.7998 8.35254 -23.6475 -0.975586 -32.9756l-158.064 -158.064c-9.34375 -9.34375 -24.1758 -9.77539 -32.9756 -0.975586z
M238.448 110.448l-0.0166016 0.015625l32.6719 32.6719c23.4404 -30.5273 21.2324 -74.7676 -6.67188 -102.672l-81.6953 -81.6963c-15.168 -15.168 -35.1523 -22.752 -55.1523 -22.752s-39.9844 7.58398 -55.1523 22.752l-49.6953 49.6963
c-30.3359 30.3359 -30.3359 79.9678 0 110.304l81.6953 81.6963c15.168 15.168 35.1523 22.752 55.1523 22.752c16.7998 0 33.584 -5.37598 47.5195 -16.0801l-32.6719 -32.6719c-4.52734 2.27246 -9.58398 3.48828 -14.8477 3.48828
c-8.7998 0 -17.0244 -3.37598 -23.1523 -9.50391l-81.6953 -81.6963c-6.12793 -6.12793 -9.50391 -14.3516 -9.50391 -23.1523c0 -8.7998 3.37598 -17.0234 9.50391 -23.1514l49.6953 -49.6963c6.12793 -6.1123 14.3525 -9.48828 23.1523 -9.48828
s17.0244 3.36035 23.1523 9.48828l81.6953 81.6963c6.12793 6.12793 9.50391 14.3516 9.50391 23.1514c0 5.26465 -1.19922 10.3203 -3.4873 14.8486zM489.248 375.552v-0.015625c30.3359 -30.3359 30.3359 -79.9678 0 -110.304l-81.6963 -81.6963
c-15.168 -15.168 -35.1514 -22.752 -55.1514 -22.752c-16.8008 0 -33.584 5.37598 -47.5205 16.0801l32.6719 32.6719c4.52832 -2.27246 9.58398 -3.48828 14.8486 -3.48828c8.7998 0 17.0234 3.37598 23.1514 9.50391l81.6963 81.6963
c6.1123 6.12793 9.48828 14.3516 9.48828 23.1523c0 8.7998 -3.36035 17.0234 -9.48828 23.1514l-49.6963 49.6963c-6.12793 6.12793 -14.3516 9.50391 -23.1514 9.50391c-8.80078 0 -17.0244 -3.37598 -23.1523 -9.50391l-81.6963 -81.6963
c-6.11133 -6.12793 -9.4873 -14.3516 -9.4873 -23.1514c0 -5.26465 1.21582 -10.3203 3.4873 -14.8486l-32.6719 -32.6719c-23.4395 30.5283 -21.2314 74.7686 6.67188 102.672l81.6963 81.6963c15.168 15.168 35.1523 22.752 55.1523 22.752
s39.9834 -7.58398 55.1514 -22.752z" />
    <glyph glyph-name="uniF212" unicode="&#xf212;" 
d="M443.728 -30.2881h0.0166016v170.672h34.1279v-170.672c0 -18.8643 -7.63184 -34.1279 -17.0723 -34.1279c-9.43945 0 -17.0723 15.2637 -17.0723 34.1279zM477.872 413.44h-0.015625v-34.1289h-34.1289v34.1289c0 18.8633 7.63281 34.1279 17.0723 34.1279
c9.44043 0 17.0723 -15.2646 17.0723 -34.1279zM477.872 345.168c18.8643 0 34.1279 -15.2637 34.1279 -34.1279v-102.4c0 -18.8633 -15.2637 -34.1279 -34.1279 -34.1279h-34.1279c-18.8643 0 -34.1279 15.2646 -34.1279 34.1279v102.4
c0 18.8643 15.2637 34.1279 34.1279 34.1279h34.1279zM238.928 -30.2881h0.0166016v34.1279h34.1279v-34.1279c0 -18.8643 -7.63184 -34.1279 -17.0723 -34.1279s-17.0723 15.2637 -17.0723 34.1279zM273.072 413.44h-0.0166016v-170.673h-34.1279v170.673
c0 18.8633 7.63184 34.1279 17.0723 34.1279s17.0723 -15.2646 17.0723 -34.1279zM273.072 208.64c18.8633 0 34.1279 -15.2637 34.1279 -34.1279v-102.399c0 -18.8643 -15.2646 -34.1279 -34.1279 -34.1279h-34.1279c-18.8643 0 -34.1279 15.2637 -34.1279 34.1279v102.399
c0 18.8643 15.2637 34.1279 34.1279 34.1279h34.1279zM34.1279 -30.2881h0.015625v102.4h34.1289v-102.4c0 -18.8643 -7.63281 -34.1279 -17.0723 -34.1279c-9.44043 0 -17.0723 15.2637 -17.0723 34.1279zM68.2725 413.44h-0.0166016v-102.4h-34.1279v102.4
c0 18.8633 7.63184 34.1279 17.0723 34.1279c9.43945 0 17.0723 -15.2646 17.0723 -34.1279zM68.2725 276.912c18.8633 0 34.1279 -15.2637 34.1279 -34.1279v-102.4c0 -18.8643 -15.2646 -34.1279 -34.1279 -34.1279h-34.1289
c-18.8633 0 -34.1279 15.2637 -34.1279 34.1279v102.4c0 18.8643 15.2646 34.1279 34.1279 34.1279h34.1289z" />
    <glyph glyph-name="uniF20C" unicode="&#xf20c;" 
d="M68.1436 72.5283c37.7285 0 68.2402 -30.6562 68.2402 -68.0322c0 -37.584 -30.5117 -67.9043 -68.2402 -67.9043c-37.5996 0 -68.1436 30.3203 -68.1436 67.9043c0 37.3604 30.5439 68.0322 68.1436 68.0322zM0.0800781 274.032
c186.288 0 337.936 -151.616 337.936 -338.032h-98.5596c0 64.1279 -24.9443 124.496 -70.1445 169.648c-45.2471 45.2637 -105.344 70.2559 -169.231 70.2559v98.1279zM0.192383 448c282.176 0 511.808 -229.76 511.808 -512h-98.4316
c0 228.16 -185.488 413.824 -413.376 413.824v98.1758z" />
    <glyph glyph-name="uniF191" unicode="&#xf191;" 
d="M256 418.928c125.424 0 227.12 -101.695 227.12 -227.12c0 -125.424 -101.696 -227.119 -227.12 -227.119s-227.12 101.695 -227.12 227.119c0 125.425 101.696 227.12 227.12 227.12zM264.256 346.112h0.0166016c-6.27246 -6.38477 -9.4248 -14.0967 -9.4248 -23.0723
c0 -9.04004 3.16797 -16.752 9.52051 -23.0723c6.38379 -6.36816 13.9834 -9.53613 22.8477 -9.53613c9.04004 0 16.7197 3.15234 23.0723 9.53613c6.36816 6.32031 9.53613 14.0322 9.53613 23.0723c0 8.99219 -3.13574 16.6875 -9.42383 23.0723
c-6.27246 6.31934 -14 9.53613 -23.1846 9.53613c-9.00781 0 -16.6719 -3.2168 -22.96 -9.53613zM223.568 29.5684l-0.0166016 0.015625c41.3604 0 75.0244 26.0156 97.3125 64.9121l-24.3359 11.1201c-9.3125 -14.3525 -17.2959 -24.2402 -23.9521 -29.6963
c-2.49609 -2.22363 -5.00781 -3.2959 -7.53613 -3.2959c-1.47168 0 -2.87988 0.767578 -4.20801 2.17578c-1.34375 1.39258 -2 3.05664 -2 4.68848c0 2.7998 1.28027 8.95996 3.77637 18l45.4717 160.239h-13.3125l-75.168 -14.752l-2.87988 -9.3916
c3.10449 0.143555 5.76074 0.223633 7.98438 0.223633c4.87988 0 8.71973 -1.2793 11.5361 -3.77539c2.78418 -2.52832 4.20801 -5.4082 4.20801 -8.65625c0 -5.18359 -1.47266 -12.8643 -4.43262 -23.0723l-30.832 -106.016
c-2.52734 -8.43164 -3.77539 -15.3916 -3.77539 -20.8477c0 -8.28809 -0.240234 -16.416 2.89551 -23.6006c3.66406 -8.46387 9.64844 -18.2715 19.2646 -18.2715z" />
    <glyph glyph-name="uniF1A3" unicode="&#xf1a3;" 
d="M256 416c125.648 0 227.504 -101.856 227.504 -227.504c0 -125.648 -101.855 -227.504 -227.504 -227.504s-227.504 101.855 -227.504 227.504c0 125.647 101.855 227.504 227.504 227.504zM278.704 8.0957l-0.015625 -0.015625
c82.1914 10.2402 147.344 75.5039 157.695 157.696h-66.7041v45.4072h66.7041c-10.3516 82.1924 -75.5039 147.345 -157.695 157.696v-66.5918h-45.3926v66.7041c-82.1924 -10.3525 -147.344 -75.5039 -157.696 -157.696h66.7041v-45.5039h-66.7041
c10.3525 -82.1924 75.5039 -147.44 157.601 -157.696v66.7041h45.5039v-66.7041z" />
    <glyph glyph-name="uniF21C" unicode="&#xf21c;" 
d="M64 -64c0 0 -64 0 -64 64v384s2 64 64 64h384.992s63.0078 0 63.0078 -64v-384s0 -64 -64 -64h-384zM64 352v-320c0 -17.6641 14.3359 -32 32 -32h320c17.6641 0 32 14.3359 32 32v320c0 17.6641 -14.3359 32 -32 32h-320v0v0c-17.6641 0 -32 -14.3359 -32 -32zM352 352
v-320l-160 160z" />
    <glyph glyph-name="uniF1D2" unicode="&#xf1d2;" 
d="M426.672 448c46.9443 0 85.3281 -38.4004 85.3281 -85.3438v-341.312c0 -46.9756 -38.3838 -85.3438 -85.3281 -85.3438h-341.328c-46.9434 0 -85.3438 38.3682 -85.3438 85.3438v341.312c0 46.9434 38.416 85.3438 85.3438 85.3438h341.328zM435.296 192
l12.7041 73.2803h-96l0.112305 39.6797c0 20.6885 2.62402 31.792 23.8721 31.7598h71.5674v79.2803h-87.6162c-76.0312 0 -103.936 -38.4482 -103.936 -103.12v-47.5996h-46.2559v-73.2803h46.2559v-224h96v224h83.2959z" />
    <glyph glyph-name="uniF22A" unicode="&#xf22a;" 
d="M501.168 20.4316c25.584 -46.4316 2.97559 -84.4316 -50.2559 -84.4316h-390.145c-53.1992 0 -75.8076 38 -50.2236 84.4316l198.784 360.801c25.584 46.4473 67.4395 46.4473 93.04 0zM255.856 -0.223633c17.6797 0 32 14.3359 32 32s-14.3203 32 -32 32
c-17.6641 0 -32 -14.3359 -32 -32s14.3359 -32 32 -32zM287.856 127.776v112c0 17.6641 -14.3203 32 -32 32c-17.6641 0 -32 -14.3359 -32 -32v-112c0 -17.6641 14.3359 -32 32 -32c17.6631 0 32 14.3359 32 32z" />
    <glyph glyph-name="uniF1E9" unicode="&#xf1e9;" 
d="M440.96 423.248c42.8799 0 42.8799 -43.3125 42.8799 -43.3125v-371.632s0 -42.4473 -42.8799 -42.4473h-371.632s-42.8799 42.4473 -42.8799 42.4473v371.632s0 43.3125 42.8799 43.3125h371.632zM370.976 54.8643v0.015625l85.792 22.7041l-83.0234 306.176
l-133.456 -35.3438l21.9521 -186.016l-74.3838 172.128l-133.456 -35.3447l83.0078 -306.159l85.8076 22.7197l-56.1914 207.248l94.3193 -197.152l71.5039 18.9277l-18.0635 217.345z" />
    <glyph glyph-name="uniF1EA" unicode="&#xf1ea;" 
d="M403.632 436.112l103.744 -382.561l-107.184 -28.3838l-70.2246 258.96l22.5605 -271.568l-89.3447 -23.6475l-117.84 246.32l70.1924 -258.944l-107.2 -28.4004l-103.728 382.544l166.752 44.1602l92.9277 -215.072l-27.4238 232.433z" />
    <glyph glyph-name="uniF229" unicode="&#xf229;" 
d="M480 448c32 0 32 -32 32 -32v-448s-32 -32 -32 -32h-448s-32 32 -32 32v448s32 32 32 32h448zM96 -32v64h-48v-64h48zM96 64v64h-48v-64h48zM96 160v64h-48v-64h48zM96 256v64h-48v-64h48zM96 352v64h-48v-64h48zM384 -32v192h-256v-192h256zM384 224v192h-256v-192h256z
M464 -32v64h-48v-64h48zM464 64v64h-48v-64h48zM464 160v64h-48v-64h48zM464 256v64h-48v-64h48zM464 352v64h-48v-64h48z" />
    <glyph glyph-name="uniF216" unicode="&#xf216;" 
d="M196.656 73.584h298.271v-89.4883h-298.271v89.4883zM196.656 371.856h298.271v-89.4883h-298.271v89.4883zM196.656 222.72h298.271v-89.4873h-298.271v89.4873zM141.344 395.392c8.73633 8.73633 22.8965 8.73633 31.6318 0
c8.73633 -8.73535 8.73633 -22.8955 0 -31.6318l-93.5518 -93.5518l-54.7041 54.7041c-8.73535 8.73633 -8.73535 22.8955 0 31.6318c8.73633 8.73633 22.8965 8.73633 31.6318 0l23.0723 -23.0723zM141.344 238.544v0.015625c8.73633 8.73633 22.8965 8.73633 31.6318 0
c8.73633 -8.73535 8.73633 -22.8955 0 -31.6318l-93.5518 -93.5674l-54.7041 54.7041c-8.73535 8.73535 -8.73535 22.8955 0 31.6318c8.73633 8.73535 22.8965 8.73535 31.6318 0l23.0723 -23.0723z" />
    <glyph glyph-name="uniF1FB" unicode="&#xf1fb;" 
d="M96 232.384v16h320v-16h-320zM416 415.984c32 0 64 -31.9844 64 -63.9844v-304c0 -79.04 -80 -80 -80 -80h-176.992l-191.008 160v32v10v182c0 32 32 64 64 64c86.4805 0 233.344 -0.015625 320 -0.015625zM448 48v288c0 47.7275 -48 48 -48 48h-288
c-48.416 0 -48 -48 -48 -48v-176c0 -49.1201 162.944 -24 162.944 -24s-15.0566 -136 29.0557 -136h144s48 0.78418 48 48zM96 296.384v16h320v-16h-320zM96 168.384v16h256v-16h-256z" />
    <glyph glyph-name="uniF1DA" unicode="&#xf1da;" 
d="M377.6 416c74.1924 0 134.4 -60.2236 134.4 -134.416c0 -146.112 -157.904 -191.424 -255.984 -339.712c-103.76 149.216 -256.016 188.784 -256.016 339.712c0 74.1924 60.208 134.416 134.4 134.416c53.8232 0 100.144 -43.7764 121.615 -89.5039
c21.4561 45.7275 67.7764 89.5039 121.584 89.5039z" />
    <glyph glyph-name="uniF1F4" unicode="&#xf1f4;" 
d="M371.52 256l-81.0879 -121.216l91.4883 -134.769h-70.2236l-55.6963 83.2803l-25.0723 -37.5039h30.2725v-45.792h-131.12l91.4883 134.768l-81.0879 121.232h67.6475l47.8721 -70.5117l47.8721 70.5117h67.6475zM451.712 348.288h-0.015625
c15.5518 -15.5518 28.2881 -46.2881 28.2881 -68.2881v-304c0 -22 -18 -40 -40 -40h-368c-22 0 -40 18 -40 40v432c0 22 18 40 40 40h240c22 0 52.7354 -12.7363 68.2881 -28.2881zM429.088 325.664h0.015625l-71.4395 71.4238
c-1.56836 1.56836 -3.48828 3.12012 -5.66406 4.63965v-81.7275h81.7275c-1.51953 2.17578 -3.07129 4.0957 -4.63965 5.66406zM448 -24v304c0 2.41602 -0.303711 5.12012 -0.847656 8h-127.152v127.152c-2.87988 0.543945 -5.58398 0.847656 -8 0.847656h-240
c-4.33594 0 -8 -3.66406 -8 -8v-432c0 -4.33594 3.66406 -8 8 -8h368c4.33594 0 8 3.66406 8 8z" />
    <glyph glyph-name="uniF1B4" unicode="&#xf1b4;" 
d="M256 353.136l192 -289.136h-384z" />
    <glyph glyph-name="uniF18F" unicode="&#xf18f;" 
d="M0 352h512v-64h-512v64zM0 32v64h512v-64h-512zM0 160v64h512v-64h-512z" />
    <glyph glyph-name="uniF203" unicode="&#xf203;" 
d="M479.104 286.816l-0.015625 -0.0166016c6.25586 -6.25586 0 -32.0635 0 -32.0635s-21.9521 -6.25586 -32.0635 0l-19.5361 19.5361l-1.93652 -1.93652l-110.319 -110.32l3.50391 -3.51953c53.0557 -55.0723 0 -128.32 0 -128.32l-96.208 96.1602l-160.368 -160.479
h-32.3037v32.2871l160.479 160.368l-96.1123 96.2246s74.2246 47.04 128.288 0l2 -2l110.336 110.336c0.671875 0.655273 1.2959 1.2959 1.91992 1.91992l-18.0312 18.0322c-6.27246 6.27148 0 32.0791 0 32.0791s25.8232 6.25684 32.0801 0z" />
    <glyph glyph-name="uniF1E4" unicode="&#xf1e4;" 
d="M379.44 222.864h-0.0166016c17.0566 0 30.8643 -13.8242 30.8643 -30.8643v-185.152c0 -17.04 -13.8076 -30.8633 -30.8643 -30.8633h-246.864c-17.04 0 -30.8633 13.8232 -30.8633 30.8633v185.152c0 17.04 13.8232 30.8643 30.8633 30.8643v61.7119
c0 68.1758 55.2646 123.439 123.44 123.439s123.44 -55.2793 123.44 -123.439v-61.7119zM194.288 222.864h-0.015625h123.439v61.7119c0 30.8477 -30.8643 61.7119 -61.7119 61.7119s-61.7119 -30.8477 -61.7119 -61.7119v-61.7119z" />
    <glyph glyph-name="uniF192" unicode="&#xf192;" 
d="M426.656 448c46.9434 0 85.3438 -38.4004 85.3438 -85.3438v-341.312c0 -46.9756 -38.4004 -85.3438 -85.3438 -85.3438h-341.312c-46.9434 0 -85.3438 38.3682 -85.3438 85.3438v341.312c0 46.9434 38.4004 85.3438 85.3438 85.3438h341.312zM157.392 19.3604v232.96
h-77.4238v-232.96h77.4238zM118.688 284.128c26.9912 0 43.8076 17.9043 43.8076 40.2725c-0.511719 22.8477 -16.7998 40.2393 -43.2959 40.2393s-43.8086 -17.3916 -43.8086 -40.2393c0 -22.3682 16.8008 -40.2725 42.7842 -40.2725h0.512695zM436.608 19.3604
l0.03125 0.015625v0v133.584c0 71.5361 -38.208 104.848 -89.1514 104.848c-41.1201 0 -59.5039 -22.6074 -69.792 -38.4795v33.0078h-77.4404c1.02441 -21.8555 0 -232.96 0 -232.96h77.4404v130.096c0 6.95996 0.496094 13.9043 2.54395 18.8799
c5.58398 13.9209 18.3359 28.3203 39.7275 28.3203c28.0166 0 39.2158 -21.3604 39.2158 -52.6719v-124.64h77.4248z" />
    <glyph glyph-name="uniF1A2" unicode="&#xf1a2;" 
d="M458.88 205.28v-0.0166016c36.0322 -36.0312 35.8242 -71.248 -0.208008 -107.279l-108.32 -107.28c-36.0312 -36.0322 -72.4951 -36.0322 -108.527 0l-217.072 216.192v179.039l36.6562 33.9043h181.28zM141.344 307.328c14.8486 14.8477 14.8486 38.8477 0 53.6963
c-14.8477 14.8477 -38.96 14.8477 -53.8076 0c-14.8799 -14.8486 -14.8799 -38.8486 0 -53.6963c14.8477 -14.8477 38.96 -14.8477 53.8076 0z" />
    <glyph glyph-name="uniF213" unicode="&#xf213;" 
d="M487.648 159.024h-0.0166016c15.3926 -22.5127 24.3525 -49.7441 24.3525 -79.04c0 -77.5039 -62.7842 -140.32 -140.288 -140.32c-27.2158 0 -52.5928 7.77637 -74.1445 21.1523c-13.8721 -2.5127 -28.1436 -3.93652 -42.7998 -3.93652
c-129.872 0 -235.088 104.72 -235.088 233.888c0 12.5439 0.992188 24.8486 2.91211 36.8643c-14.2881 21.9844 -22.5918 48.1924 -22.5918 76.3838c0 77.5039 62.7676 140.305 140.288 140.305c28.2715 0 54.5273 -8.38477 76.6074 -22.7686
c12.3203 2.0166 24.9766 3.07227 37.8721 3.07227c129.84 0 235.104 -104.72 235.104 -233.872c0 -10.752 -0.800781 -21.3281 -2.20801 -31.7275zM276.736 18.4004v-0.0166016c74.7676 3.88867 141.744 69.8721 115.52 132.017
c-26.208 62.1436 -98.9922 68.9111 -166.96 85.4238c-67.9355 16.5273 -30.7363 74.6562 24.2881 73.792c53.376 -0.848633 80.5762 -57.2646 104.784 -54.3525c24.3037 2.92871 44.9434 39.2959 6.7998 71.8242c-32.9922 28.1445 -74.7041 43.6797 -138.784 37.8564
c-50.2715 -4.56055 -98.0322 -36.8965 -103.855 -99.9688c-5.82422 -63.1035 68.9277 -95.1357 128.128 -103.903c41.4717 -6.08008 98.0322 -26.1758 64.0635 -65.0078c-31.2002 -35.6641 -90.2715 -13.584 -105.792 -3.9043
c-15.5361 9.72754 -33.0234 44.6875 -62.1436 42.7363c-29.1357 -1.95215 -43.5039 -40.2402 -7.74414 -73.8086c32.0322 -30.0479 66.9922 -46.5762 141.696 -42.6875z" />
    <glyph glyph-name="uniF1BC" unicode="&#xf1bc;" 
d="M161.632 223.728l66.96 -129.712s53.1846 237.824 224.736 325.664c0 -60.7197 1.05566 -84.8477 30.3682 -151.775c-75.3281 -16.752 -192.672 -211.553 -242.88 -303.601c-71.1201 87.8887 -153.92 161.216 -212.496 182.16l133.328 77.2637h-0.0166016z" />
    </font>
</defs>
</svg>
