<svg width="128" height="172" viewBox="0 0 128 172" fill="none" xmlns="http://www.w3.org/2000/svg">
<path d="M64 172C28.6538 172 0 166.627 0 160C0 153.373 28.6538 148 64 148C99.3462 148 128 153.373 128 160C128 166.627 99.3462 172 64 172Z" fill="black" fill-opacity="0.05"/>
<path fill-rule="evenodd" clip-rule="evenodd" d="M80.1721 97.1813C79.9672 97.2218 79.7575 97.2543 79.5516 97.2925C79.7575 97.2543 79.9672 97.2218 80.1721 97.1813Z" fill="black"/>
<path fill-rule="evenodd" clip-rule="evenodd" d="M80.1721 97.1813C79.9672 97.2218 79.7575 97.2543 79.5516 97.2925C79.7575 97.2543 79.9672 97.2218 80.1721 97.1813Z" stroke="black" stroke-width="4"/>
<path fill-rule="evenodd" clip-rule="evenodd" d="M62.5934 144.332C65.7526 145.385 67.3323 148.807 67.3323 154.599C67.3323 162.893 95.3707 162.893 96.9504 155.784C98.53 148.676 94.186 133.274 87.4726 128.141C82.997 124.718 74.7039 130.115 62.5934 144.332Z" fill="#2D3B45" stroke="#152633" stroke-width="2"/>
<path fill-rule="evenodd" clip-rule="evenodd" d="M26.4615 123.877C26.908 122.673 28.0669 121.815 29.4263 121.815C30.7857 121.815 31.9447 122.673 32.3911 123.877C33.6025 123.478 34.9868 123.841 35.8371 124.891C36.6978 125.954 36.7558 127.406 36.0881 128.513C37.1652 129.218 37.7435 130.543 37.4371 131.87C37.1319 133.192 36.039 134.127 34.7687 134.294C34.8883 135.567 34.2232 136.838 33.0064 137.432C31.7796 138.03 30.3552 137.762 29.4263 136.867C28.4975 137.762 27.073 138.03 25.8462 137.432C24.6294 136.838 23.9643 135.567 24.084 134.294C22.8136 134.127 21.7207 133.192 21.4155 131.87C21.1091 130.543 21.6875 129.218 22.7645 128.513C22.0968 127.406 22.1548 125.954 23.0156 124.891C23.8658 123.841 25.2501 123.478 26.4615 123.877Z" fill="#2D3B45" stroke="#152633" stroke-width="2"/>
<g filter="url(#filter0_i)">
<path fill-rule="evenodd" clip-rule="evenodd" d="M38.4395 118.217C29.8751 124.92 30.2475 136.091 31.3646 142.793C32.0111 146.673 30.9399 150.145 31.3646 155.454C33.0508 160.138 56.6854 164.39 64.5051 157.688C66.3669 149.868 62.2709 147.137 64.5051 140.062C51.4723 131.125 47.7487 139.814 38.4395 118.217Z" fill="#2D3B45"/>
</g>
<path fill-rule="evenodd" clip-rule="evenodd" d="M38.4395 118.217C29.8751 124.92 30.2475 136.091 31.3646 142.793C32.0111 146.673 30.9399 150.145 31.3646 155.454C33.0508 160.138 56.6854 164.39 64.5051 157.688C66.3669 149.868 62.2709 147.137 64.5051 140.062C51.4723 131.125 47.7487 139.814 38.4395 118.217Z" stroke="#152633" stroke-width="2"/>
<path fill-rule="evenodd" clip-rule="evenodd" d="M71.2686 93.2444C64.3763 108.824 74.8956 125.192 84.8972 126.842C94.8979 128.491 103.133 121.589 100.506 112.471C97.8792 103.353 87.8785 101.704 86.1583 100.573C84.4386 99.4413 82.746 95.6045 80.681 92.0433C78.3724 88.0621 73.8016 87.5199 71.2686 93.2444Z" fill="#2D3B45" stroke="#152633" stroke-width="2"/>
<path fill-rule="evenodd" clip-rule="evenodd" d="M48.2799 96.5068C43.5167 95.7094 38.9616 94.5764 34.6305 93.1877C23.6525 116.687 31.4816 143.577 61.1767 139.807C95.1804 135.489 88.283 110.783 80.8392 96.2758C71.3421 98.4377 60.251 98.511 48.2799 96.5068Z" fill="white" stroke="#152633" stroke-width="2"/>
<path fill-rule="evenodd" clip-rule="evenodd" d="M22.2122 94.3853C15.3199 109.965 25.8392 126.333 35.8408 127.982C45.8415 129.632 54.0762 122.729 51.4499 113.612C48.8228 104.494 38.8221 102.844 37.102 101.713C35.3822 100.582 33.6897 96.7454 31.6246 93.1842C29.316 89.2029 24.7452 88.6608 22.2122 94.3853Z" fill="#2D3B45" stroke="#152633" stroke-width="2"/>
<path fill-rule="evenodd" clip-rule="evenodd" d="M91.1795 112.187C91.1795 109.252 90.7979 106.402 90.0842 103.676C90.0091 103.701 89.9322 103.725 89.8571 103.75C94.8079 102.081 99.2337 99.8722 103.013 97.1344C111.669 99.6903 119.353 106.706 119.353 106.706L109.535 118.983C109.535 118.983 102.127 115.501 90.7266 117.69C91.0242 115.896 91.1795 114.059 91.1795 112.187Z" fill="#2D3B45" stroke="#152633" stroke-width="2"/>
<g filter="url(#filter1_i)">
<path fill-rule="evenodd" clip-rule="evenodd" d="M116.076 59.6087C116.076 84.7756 93.391 98.2269 62.2057 98.2269C31.0204 98.2269 5.73955 83.04 5.73955 60.4766C5.73955 32.4385 31.0204 5.36975 62.2057 5.36975C93.391 5.36975 116.076 33.1401 116.076 59.6087Z" fill="white"/>
</g>
<path fill-rule="evenodd" clip-rule="evenodd" d="M116.076 59.6087C116.076 84.7756 93.391 98.2269 62.2057 98.2269C31.0204 98.2269 5.73955 83.04 5.73955 60.4766C5.73955 32.4385 31.0204 5.36975 62.2057 5.36975C93.391 5.36975 116.076 33.1401 116.076 59.6087Z" stroke="#152633" stroke-width="2"/>
<path fill-rule="evenodd" clip-rule="evenodd" d="M56.8208 81.372C57.3151 80.3833 57.6177 81.5049 58.175 83.099C59.0303 85.2048 60.2234 86.6214 62.9439 87.3165C63.1266 87.3553 63.3149 87.3907 63.5087 87.423C63.5053 87.4296 63.502 87.4363 63.4986 87.443C64.6993 87.6903 66.1728 87.8149 68 87.8149H63.5087C62.8353 88.6805 62.0291 89.5495 61.2089 90.2632C60.8435 90.5898 60.442 90.9172 60.0055 91.2446C58.7886 92.1573 58.0803 92.2708 57.603 91.828C57.2642 91.6971 56.9945 91.4085 56.8208 90.9262C56.5295 90.1174 56.3657 88.8978 56.3042 87.5908C55.9517 85.0501 56.265 82.4836 56.8208 81.372Z" fill="#152633" stroke="#152633" stroke-linecap="round" stroke-linejoin="round"/>
<path fill-rule="evenodd" clip-rule="evenodd" d="M66.9159 74.1932C66.9159 76.6067 70.584 78.563 75.1092 78.563C79.6344 78.563 83.3025 76.6067 83.3025 74.1932C83.3025 71.7797 79.6344 69.8235 75.1092 69.8235C70.584 69.8235 66.9159 71.7797 66.9159 74.1932Z" fill="#152633"/>
<path fill-rule="evenodd" clip-rule="evenodd" d="M42.8823 23.8488C52.6196 23.8488 61.5461 38.9614 61.5461 53.9588C61.5461 67.3805 49.676 79.7479 38.5125 79.7479C28.3008 79.7479 19.8487 68.2331 19.8487 53.9588C19.8487 47.3605 22.711 39.7154 27.5077 33.5539C32.2535 27.4569 38.0331 23.8488 42.8823 23.8488Z" fill="#2D3B45" stroke="#152633" stroke-width="2"/>
<path fill-rule="evenodd" clip-rule="evenodd" d="M47.9175 65.3307C50.3804 66.0538 53.302 63.5156 54.4426 59.6617C55.5837 55.8079 54.5121 52.0977 52.0488 51.3751C49.586 50.652 46.6644 53.1903 45.5237 57.0441C44.3826 60.898 45.4546 64.6081 47.9175 65.3307Z" fill="white"/>
<path fill-rule="evenodd" clip-rule="evenodd" d="M88.9483 20.5714C98.3123 20.5714 110.706 37.5385 110.706 50.727C110.706 59.0884 108.654 64.2431 103.888 68.9371C101.927 70.8681 98.8965 72.1008 96.5231 72.1008C96.4628 72.1008 96.407 72.1 96.3493 72.0982C93.0448 72.0086 89.4492 69.5769 86.3271 64.8205C83.2581 60.1437 81.2129 54.2802 80.5783 48.9299C79.1013 36.4825 80.0997 26.8222 83.9514 22.6729C85.2507 21.2733 86.9118 20.5714 88.9483 20.5714Z" fill="#2D3B45" stroke="#152633" stroke-width="2"/>
<path fill-rule="evenodd" clip-rule="evenodd" d="M88.0271 57.7211C88.9142 60.6855 91.1869 62.638 93.1024 62.0818C95.0179 61.5256 95.8517 58.6717 94.9645 55.7074C94.077 52.743 91.8047 50.7905 89.8896 51.3467C87.9737 51.9029 87.1399 54.7568 88.0271 57.7211Z" fill="white"/>
<g filter="url(#filter2_i)">
<path fill-rule="evenodd" clip-rule="evenodd" d="M15.6336 30.4958C14.0933 29.8328 12.4433 28.8807 10.7911 27.51C4.43832 22.2379 5.70888 13.451 6.1324 11.2543C6.55592 9.05758 9.09703 -1.48666 17.1439 3.34611C22.3409 6.46721 27.7111 11.7841 30.8655 15.1614C24.8884 19.2912 19.7117 24.5413 15.6336 30.4958Z" fill="#2D3B45"/>
</g>
<path fill-rule="evenodd" clip-rule="evenodd" d="M15.6336 30.4958C14.0933 29.8328 12.4433 28.8807 10.7911 27.51C4.43832 22.2379 5.70888 13.451 6.1324 11.2543C6.55592 9.05758 9.09703 -1.48666 17.1439 3.34611C22.3409 6.46721 27.7111 11.7841 30.8655 15.1614C24.8884 19.2912 19.7117 24.5413 15.6336 30.4958Z" stroke="#152633" stroke-width="2"/>
<g filter="url(#filter3_i)">
<path fill-rule="evenodd" clip-rule="evenodd" d="M105.107 22.1969C104.215 22.9034 103.324 23.476 102.456 23.9412C98.3162 19.135 93.33 14.9709 87.6723 11.7937C90.4412 8.97349 95.071 4.61728 99.5569 2.04562C106.587 -1.98489 108.808 6.80853 109.178 8.64058C109.548 10.4726 110.658 17.8004 105.107 22.1969Z" fill="#2D3B45"/>
</g>
<path fill-rule="evenodd" clip-rule="evenodd" d="M105.107 22.1969C104.215 22.9034 103.324 23.476 102.456 23.9412C98.3162 19.135 93.33 14.9709 87.6723 11.7937C90.4412 8.97349 95.071 4.61728 99.5569 2.04562C106.587 -1.98489 108.808 6.80853 109.178 8.64058C109.548 10.4726 110.658 17.8004 105.107 22.1969Z" stroke="#152633" stroke-width="2"/>
<path fill-rule="evenodd" clip-rule="evenodd" d="M52.5 156.5L50.5 89.5L13.5 96.5L17.5 161L52.5 156.5Z" fill="#F0DBCE" stroke="#152633" stroke-width="2" stroke-linejoin="round"/>
<mask id="mask0" mask-type="alpha" maskUnits="userSpaceOnUse" x="12" y="88" width="42" height="74">
<path fill-rule="evenodd" clip-rule="evenodd" d="M52.5 156.5L50.5 89.5L13.5 96.5L17.5 161L52.5 156.5Z" fill="#F0DBCE" stroke="#152633" stroke-width="2" stroke-linejoin="round"/>
</mask>
<g mask="url(#mask0)">
<path d="M51.5 155.5C33 154.5 30.5 160 30.5 152C30.5 144 29 143 22 143C18.6957 143 17.2018 141.491 16.6351 139.809L16.5 136.5C16.295 137.388 16.2413 138.641 16.6351 139.809L17.5 161L51.5 157V155.5Z" fill="#94BC3C"/>
<path d="M22.5 97L16 98.5L16.5 105L22.5 97Z" fill="#5B354E"/>
<path d="M20 158L19.5 153L26 157.5L20 158Z" fill="#5B354E"/>
<path fill-rule="evenodd" clip-rule="evenodd" d="M85.2909 105.065C82.0824 97.3648 79.4916 99.7528 75.2725 103.642C72.9166 105.813 70.0531 108.453 66.2909 110.065C56.7909 114.065 54.2909 113.065 48.7909 107.565C47.8443 106.618 47.0606 105.687 46.343 104.833L46.343 104.833C42.891 100.729 40.9674 98.4419 29.7909 105.065C16.2909 113.065 26.7909 130.565 35.7909 133.065C42.9909 135.065 43.7909 138.565 43.2909 140.065C41.9591 148.855 43.7488 147.57 47.1483 145.131C50.1305 142.991 54.3515 139.962 58.7909 142.065C60.5103 141.85 61.3058 138.124 62.0115 134.82L62.0115 134.82C62.9474 130.436 63.7252 126.794 66.2909 133.065C67.0662 134.96 67.8119 136.9 68.5432 138.803L68.5432 138.803L68.5432 138.803C72.0563 147.942 75.2385 156.22 79.7909 154.565C82.087 153.73 82.7274 150.281 83.3128 147.128C84.1296 142.728 84.8394 138.905 89.7909 143.565C98.2909 151.565 105.791 147.065 107.291 143.565C107.868 142.22 107.631 140.726 107.349 138.943C106.898 136.088 106.329 132.49 108.791 127.565C112.791 119.565 110.791 108.565 107.291 110.065C105.96 110.635 104.919 112 103.837 113.418C102.072 115.731 100.2 118.185 96.7909 117.565C96.4766 117.508 96.177 117.456 95.8905 117.406C91.1635 116.581 90.0052 116.379 85.2909 105.065ZM38.0773 130.496C39.395 133.547 34.6526 131.785 33.8328 130.445C32.8081 128.771 36.7596 127.446 38.0773 130.496ZM46.2937 142.85C46.325 145.911 43.9169 145.134 43.7584 143.85C43.5601 142.246 46.2624 139.789 46.2937 142.85ZM45.3555 139.518C45.4065 140.489 44.5679 140.211 44.4965 139.802C44.4072 139.29 45.3045 138.547 45.3555 139.518ZM40.0964 102.325C42.7241 102.818 42.0306 106.846 39 107.5C39.7095 109.468 36.7519 113.18 35.2239 112.214C34.5436 111.784 35.3575 110.26 36.1658 108.747C37.1732 106.862 38.172 104.992 36.2601 105.274C32.8139 105.783 37.4687 101.832 40.0964 102.325ZM35.0331 106.416C36.4039 105.845 35.5884 107.954 34.9851 108.312C34.231 108.76 33.6624 106.986 35.0331 106.416ZM33.478 104.861C34.5711 104.801 34.2326 105.771 33.7705 105.854C33.1928 105.957 32.3849 104.921 33.478 104.861Z" fill="#94BC3C"/>
</g>
<path fill-rule="evenodd" clip-rule="evenodd" d="M52.5 156.5L50.5 89.5L13.5 96.5L17.5 161L52.5 156.5Z" stroke="#5B354E" stroke-width="2" stroke-linejoin="round"/>
<path fill-rule="evenodd" clip-rule="evenodd" d="M117.5 82V148L85 162V93L117.5 82Z" fill="#F0DBCE" stroke="#152633" stroke-width="2" stroke-linejoin="round"/>
<mask id="mask1" mask-type="alpha" maskUnits="userSpaceOnUse" x="84" y="81" width="35" height="82">
<path fill-rule="evenodd" clip-rule="evenodd" d="M117.5 82V148L85 162V93L117.5 82Z" fill="#F0DBCE" stroke="#152633" stroke-width="2" stroke-linejoin="round"/>
</mask>
<g mask="url(#mask1)">
<path fill-rule="evenodd" clip-rule="evenodd" d="M85.2909 105.065C82.0824 97.3648 79.4916 99.7528 75.2725 103.642C72.9166 105.813 70.0531 108.453 66.2909 110.065C56.7909 114.065 54.2909 113.065 48.7909 107.565C47.8443 106.618 47.0606 105.687 46.343 104.833L46.343 104.833C42.891 100.729 40.9674 98.4419 29.7909 105.065C16.2909 113.065 26.7909 130.565 35.7909 133.065C42.9909 135.065 43.7909 138.565 43.2909 140.065C41.9591 148.855 43.7488 147.57 47.1484 145.131C50.1305 142.991 54.3515 139.962 58.7909 142.065C60.5103 141.85 61.3059 138.124 62.0115 134.82L62.0115 134.82C62.9475 130.436 63.7253 126.794 66.2909 133.065C67.0662 134.96 67.8118 136.9 68.5431 138.802L68.5432 138.803C72.0564 147.942 75.2385 156.22 79.7909 154.565C82.087 153.73 82.7274 150.281 83.3128 147.128C84.1297 142.728 84.8395 138.905 89.7909 143.565C98.2909 151.565 105.791 147.065 107.291 143.565C108.42 140.929 106.42 139.513 104.171 137.92C100.818 135.546 96.9126 132.781 102 125C103.407 122.185 105.434 119.927 107.134 118.034C110.265 114.545 112.288 112.291 107.291 110.065C105.856 109.662 105.508 110.911 105.059 112.517C104.323 115.154 103.318 118.752 96.7909 117.565C96.4766 117.508 96.177 117.456 95.8906 117.406C91.1636 116.581 90.0052 116.379 85.2909 105.065ZM106.914 112.25C109.243 111.301 109.399 113.324 108.467 113.83C107.303 114.462 104.586 113.198 106.914 112.25ZM101.496 141.05C105.908 139.946 104.647 144.85 102.788 145.593C100.464 146.522 97.0842 142.155 101.496 141.05ZM100.496 138.455C101.736 137.475 102.037 139.209 101.555 139.71C100.951 140.337 99.2559 139.436 100.496 138.455ZM89.7663 141.201C86.2663 140.201 81.2663 137.201 86.7663 138.201C89.0216 138.611 93.0367 142.136 89.7663 141.201Z" fill="#94BC3C"/>
<path d="M104.409 91C101.909 88 104.409 87 104.409 87H103.909L85.4095 93.5V95C91 91 98 92 100 95.5C102.957 100.676 106.909 94 104.409 91Z" fill="#94BC3C"/>
</g>
<path fill-rule="evenodd" clip-rule="evenodd" d="M117.5 82V148L85 162V93L117.5 82Z" stroke="#5B354E" stroke-width="2" stroke-linejoin="round"/>
<path fill-rule="evenodd" clip-rule="evenodd" d="M85 93V162L52.5 156.5L50.5 89.5L85 93Z" fill="#D4AF9C" stroke="#152633" stroke-width="2" stroke-linejoin="round"/>
<mask id="mask2" mask-type="alpha" maskUnits="userSpaceOnUse" x="49" y="89" width="37" height="75">
<path fill-rule="evenodd" clip-rule="evenodd" d="M85 93.5V162.5L52.5 157L50.5 90L85 93.5Z" fill="#D4AF9C" stroke="#152633" stroke-width="2" stroke-linejoin="round"/>
</mask>
<g mask="url(#mask2)">
<path fill-rule="evenodd" clip-rule="evenodd" d="M85.2909 105.065C82.0824 97.3648 79.4916 99.7528 75.2725 103.642C72.9166 105.813 70.0531 108.453 66.2909 110.065C56.7909 114.065 54.2909 113.065 48.7909 107.565C47.8443 106.618 47.0606 105.687 46.343 104.833L46.343 104.833C42.891 100.729 40.9674 98.4419 29.7909 105.065C16.2909 113.065 26.7909 130.565 35.7909 133.065C42.9909 135.065 43.7909 138.565 43.2909 140.065C41.9591 148.855 43.7488 147.57 47.1483 145.131C50.1305 142.991 54.3515 139.962 58.7909 142.065C61.3189 143.263 62.2575 138.308 63.0095 134.339C63.7865 130.237 64.3643 127.188 66.2909 133.065C67.0662 134.96 67.8119 136.9 68.5432 138.803C72.0563 147.942 75.2385 156.22 79.7909 154.565C82.087 153.73 82.7274 150.281 83.3128 147.128C84.1296 142.728 84.8394 138.905 89.7909 143.565C98.2909 151.565 105.791 147.065 107.291 143.565C107.868 142.22 107.631 140.726 107.349 138.943C106.898 136.088 106.329 132.49 108.791 127.565C112.791 119.565 110.791 108.565 107.291 110.065C105.96 110.635 104.919 112 103.837 113.418C102.072 115.731 100.2 118.185 96.7909 117.565C96.4766 117.508 96.177 117.456 95.8905 117.406C91.1635 116.581 90.0052 116.379 85.2909 105.065ZM79.9145 102.624C82.2435 100.254 82.3987 105.31 81.4671 106.575C80.3026 108.155 77.5855 104.994 79.9145 102.624ZM77.3124 105.89C76.8812 106.236 76.3917 106.34 76.2192 106.125C76.0467 105.909 76.2564 105.455 76.6876 105.11C77.1188 104.765 77.6082 104.66 77.7808 104.875C77.9533 105.091 77.7436 105.545 77.3124 105.89ZM77 151.5C75.4 151.1 73.6667 145.333 73 142.5C74.6513 138.867 75.6482 141.779 76.567 144.462C77.0392 145.842 77.4908 147.16 78 147.5C79.5 148.5 79 152 77 151.5ZM79.3555 145.518C79.4065 146.489 78.5679 146.211 78.4965 145.802C78.4072 145.29 79.3045 144.547 79.3555 145.518Z" fill="#6F9128"/>
<path d="M69 95.0001C72.0479 97.2606 81.6667 96.6667 86 94.5001L84.5 93.0001L52 89.5001C51.6 92.3001 53.5 93.0001 57 93.0001C60.5 93.0001 64 91.2917 69 95.0001Z" fill="#6F9028"/>
<path d="M86 162C83.5 157.5 81.5 156.5 75.5 157.5C69.5 158.5 68.5 156 65.5 153.5C62.5 151 62 153.5 55 155C52.1791 155.605 50.7386 155.641 50.0895 155.566C49.641 155.251 49.3454 155.481 50.0895 155.566C50.2206 155.659 50.3649 155.797 50.5 156C59 157 69 161.5 86 162Z" fill="#6F9128"/>
</g>
<path fill-rule="evenodd" clip-rule="evenodd" d="M85 93V162L52.5 156.5L50.5 89.5L85 93Z" stroke="#5B354E" stroke-width="2" stroke-linejoin="round"/>
<path d="M115 146V140L109 149L115 146Z" fill="#5B354E"/>
<path d="M115 86V91L109 87.5L115 86Z" fill="#5B354E"/>
<path d="M97.5 138.5C96 134.667 89.5 119.5 89.5 111.5C89.5 101.5 102.5 99.5 100 109.5C97.5 119.5 82.3142 130.802 70.5 120C53 104 36.5 153.5 58 140C80.2782 126.011 37.5 130 31.5 115.5" stroke="#5B354E" stroke-width="1.5" stroke-miterlimit="16" stroke-linecap="round" stroke-dasharray="4 4"/>
<circle r="1.5" transform="matrix(-1 0 0 1 31.5 115.5)" fill="#5B354E"/>
<circle r="1.5" transform="matrix(-1 0 0 1 97.5 138.5)" fill="#5B354E"/>
<g filter="url(#filter4_i)">
<path fill-rule="evenodd" clip-rule="evenodd" d="M107.789 112.543C108.423 109.184 110.085 106.388 112.211 104.663C111.97 104.477 111.794 104.269 111.712 104.034C110.896 101.706 112.259 100.128 114.296 99.5766C115.488 99.2536 119.274 99.8652 121.448 104.412C124.217 106.729 125.627 111.228 124.732 115.969C123.551 122.23 118.8 126.538 114.122 125.592C109.443 124.647 106.608 118.804 107.789 112.543Z" fill="#2D3B45"/>
</g>
<path fill-rule="evenodd" clip-rule="evenodd" d="M107.789 112.543C108.423 109.184 110.085 106.388 112.211 104.663C111.97 104.477 111.794 104.269 111.712 104.034C110.896 101.706 112.259 100.128 114.296 99.5766C115.488 99.2536 119.274 99.8652 121.448 104.412C124.217 106.729 125.627 111.228 124.732 115.969C123.551 122.23 118.8 126.538 114.122 125.592C109.443 124.647 106.608 118.804 107.789 112.543Z" stroke="#152633" stroke-width="2"/>
<g filter="url(#filter5_i)">
<path fill-rule="evenodd" clip-rule="evenodd" d="M24.211 115.543C23.5773 112.184 21.9154 109.388 19.789 107.663C20.0307 107.477 20.2054 107.269 20.288 107.034C21.1036 104.706 19.7414 103.128 17.7043 102.577C16.5115 102.254 12.7266 102.865 10.5518 107.412C7.78289 109.729 6.37317 114.228 7.26793 118.969C8.449 125.23 13.2002 129.538 17.8787 128.592C22.5575 127.647 25.3925 121.804 24.211 115.543Z" fill="#2D3B45"/>
</g>
<path fill-rule="evenodd" clip-rule="evenodd" d="M24.211 115.543C23.5773 112.184 21.9154 109.388 19.789 107.663C20.0307 107.477 20.2054 107.269 20.288 107.034C21.1036 104.706 19.7414 103.128 17.7043 102.577C16.5115 102.254 12.7266 102.865 10.5518 107.412C7.78289 109.729 6.37317 114.228 7.26793 118.969C8.449 125.23 13.2002 129.538 17.8787 128.592C22.5575 127.647 25.3925 121.804 24.211 115.543Z" stroke="#152633" stroke-width="2"/>
<defs>
<filter id="filter0_i" x="29.7811" y="116.63" width="36.2245" height="45.5312" filterUnits="userSpaceOnUse" color-interpolation-filters="sRGB">
<feFlood flood-opacity="0" result="BackgroundImageFix"/>
<feBlend mode="normal" in="SourceGraphic" in2="BackgroundImageFix" result="shape"/>
<feColorMatrix in="SourceAlpha" type="matrix" values="0 0 0 0 0 0 0 0 0 0 0 0 0 0 0 0 0 0 127 0" result="hardAlpha"/>
<feOffset dx="-3" dy="-3"/>
<feComposite in2="hardAlpha" operator="arithmetic" k2="-1" k3="1"/>
<feColorMatrix type="matrix" values="0 0 0 0 0 0 0 0 0 0 0 0 0 0 0 0 0 0 0.12 0"/>
<feBlend mode="normal" in2="shape" result="effect1_innerShadow"/>
</filter>
<filter id="filter1_i" x="5.73956" y="5.36975" width="110.336" height="92.8571" filterUnits="userSpaceOnUse" color-interpolation-filters="sRGB">
<feFlood flood-opacity="0" result="BackgroundImageFix"/>
<feBlend mode="normal" in="SourceGraphic" in2="BackgroundImageFix" result="shape"/>
<feColorMatrix in="SourceAlpha" type="matrix" values="0 0 0 0 0 0 0 0 0 0 0 0 0 0 0 0 0 0 127 0" result="hardAlpha"/>
<feOffset dx="-4" dy="-2"/>
<feComposite in2="hardAlpha" operator="arithmetic" k2="-1" k3="1"/>
<feColorMatrix type="matrix" values="0 0 0 0 0 0 0 0 0 0 0 0 0 0 0 0 0 0 0.07 0"/>
<feBlend mode="normal" in2="shape" result="effect1_innerShadow"/>
</filter>
<filter id="filter2_i" x="4.73944" y="1.0921" width="27.6477" height="30.6474" filterUnits="userSpaceOnUse" color-interpolation-filters="sRGB">
<feFlood flood-opacity="0" result="BackgroundImageFix"/>
<feBlend mode="normal" in="SourceGraphic" in2="BackgroundImageFix" result="shape"/>
<feColorMatrix in="SourceAlpha" type="matrix" values="0 0 0 0 0 0 0 0 0 0 0 0 0 0 0 0 0 0 127 0" result="hardAlpha"/>
<feOffset dx="-3" dy="-3"/>
<feComposite in2="hardAlpha" operator="arithmetic" k2="-1" k3="1"/>
<feColorMatrix type="matrix" values="0 0 0 0 0 0 0 0 0 0 0 0 0 0 0 0 0 0 0.12 0"/>
<feBlend mode="normal" in2="shape" result="effect1_innerShadow"/>
</filter>
<filter id="filter3_i" x="86.0431" y="-0.000244141" width="24.4779" height="25.2015" filterUnits="userSpaceOnUse" color-interpolation-filters="sRGB">
<feFlood flood-opacity="0" result="BackgroundImageFix"/>
<feBlend mode="normal" in="SourceGraphic" in2="BackgroundImageFix" result="shape"/>
<feColorMatrix in="SourceAlpha" type="matrix" values="0 0 0 0 0 0 0 0 0 0 0 0 0 0 0 0 0 0 127 0" result="hardAlpha"/>
<feOffset dx="-3" dy="-3"/>
<feComposite in2="hardAlpha" operator="arithmetic" k2="-1" k3="1"/>
<feColorMatrix type="matrix" values="0 0 0 0 0 0 0 0 0 0 0 0 0 0 0 0 0 0 0.12 0"/>
<feBlend mode="normal" in2="shape" result="effect1_innerShadow"/>
</filter>
<filter id="filter4_i" x="106.521" y="98.5041" width="19.4782" height="28.2191" filterUnits="userSpaceOnUse" color-interpolation-filters="sRGB">
<feFlood flood-opacity="0" result="BackgroundImageFix"/>
<feBlend mode="normal" in="SourceGraphic" in2="BackgroundImageFix" result="shape"/>
<feColorMatrix in="SourceAlpha" type="matrix" values="0 0 0 0 0 0 0 0 0 0 0 0 0 0 0 0 0 0 127 0" result="hardAlpha"/>
<feOffset dx="-3" dy="-3"/>
<feComposite in2="hardAlpha" operator="arithmetic" k2="-1" k3="1"/>
<feColorMatrix type="matrix" values="0 0 0 0 0 0 0 0 0 0 0 0 0 0 0 0 0 0 0.12 0"/>
<feBlend mode="normal" in2="shape" result="effect1_innerShadow"/>
</filter>
<filter id="filter5_i" x="6.00079" y="101.504" width="19.4782" height="28.2191" filterUnits="userSpaceOnUse" color-interpolation-filters="sRGB">
<feFlood flood-opacity="0" result="BackgroundImageFix"/>
<feBlend mode="normal" in="SourceGraphic" in2="BackgroundImageFix" result="shape"/>
<feColorMatrix in="SourceAlpha" type="matrix" values="0 0 0 0 0 0 0 0 0 0 0 0 0 0 0 0 0 0 127 0" result="hardAlpha"/>
<feOffset dx="-3" dy="-3"/>
<feComposite in2="hardAlpha" operator="arithmetic" k2="-1" k3="1"/>
<feColorMatrix type="matrix" values="0 0 0 0 0 0 0 0 0 0 0 0 0 0 0 0 0 0 0.12 0"/>
<feBlend mode="normal" in2="shape" result="effect1_innerShadow"/>
</filter>
</defs>
</svg>
