<svg width="123" height="166" viewBox="0 0 123 166" fill="none" xmlns="http://www.w3.org/2000/svg">
<path d="M61.5 165.654C95.4655 165.654 123 162.52 123 158.654C123 154.788 95.4655 151.654 61.5 151.654C27.5345 151.654 0 154.788 0 158.654C0 162.52 27.5345 165.654 61.5 165.654Z" fill="black" fill-opacity="0.05"/>
<path fill-rule="evenodd" clip-rule="evenodd" d="M47 119.654L47 152.654C47 155.968 44.3137 158.654 41 158.654H16C12.6863 158.654 10 155.968 10 152.654L10 119.654H47Z" fill="#EBEDEE" stroke="#C7CDD1" stroke-width="2" stroke-linejoin="round"/>
<path fill-rule="evenodd" clip-rule="evenodd" d="M22 119.654L22 152.654C22 155.968 19.3137 158.654 16 158.654C12.6863 158.654 10 155.968 10 152.654L10 119.654H22Z" fill="white" stroke="#C7CDD1" stroke-width="2" stroke-linejoin="round"/>
<path fill-rule="evenodd" clip-rule="evenodd" d="M42 110.654H75C78.3137 110.654 81 113.34 81 116.654C81 119.968 78.3137 122.654 75 122.654H42V110.654Z" fill="#EBEDEE" stroke="#C7CDD1" stroke-width="2" stroke-linejoin="round"/>
<path fill-rule="evenodd" clip-rule="evenodd" d="M27 110.654H60C63.3137 110.654 66 113.34 66 116.654C66 119.968 63.3137 122.654 60 122.654H27V110.654Z" fill="white" stroke="#C7CDD1" stroke-width="2" stroke-linejoin="round"/>
<path fill-rule="evenodd" clip-rule="evenodd" d="M92 122.654V134.654H59C55.6863 134.654 53 131.968 53 128.654C53 125.34 55.6863 122.654 59 122.654H92Z" fill="white" stroke="#C7CDD1" stroke-width="2" stroke-linejoin="round"/>
<path fill-rule="evenodd" clip-rule="evenodd" d="M77 122.654V134.654H44C40.6863 134.654 38 131.968 38 128.654C38 125.34 40.6863 122.654 44 122.654H77Z" fill="white" stroke="#C7CDD1" stroke-width="2" stroke-linejoin="round"/>
<path fill-rule="evenodd" clip-rule="evenodd" d="M45 134.654H78C81.3137 134.654 84 137.34 84 140.654C84 143.968 81.3137 146.654 78 146.654H45V134.654Z" fill="#EBEDEE" stroke="#C7CDD1" stroke-width="2" stroke-linejoin="round"/>
<path fill-rule="evenodd" clip-rule="evenodd" d="M30 134.654H63C66.3137 134.654 69 137.34 69 140.654C69 143.968 66.3137 146.654 63 146.654H30V134.654Z" fill="white" stroke="#C7CDD1" stroke-width="2" stroke-linejoin="round"/>
<path fill-rule="evenodd" clip-rule="evenodd" d="M56 146.654H89C92.3137 146.654 95 149.34 95 152.654C95 155.968 92.3137 158.654 89 158.654H56V146.654Z" fill="#EBEDEE" stroke="#C7CDD1" stroke-width="2" stroke-linejoin="round"/>
<path fill-rule="evenodd" clip-rule="evenodd" d="M41 146.654H74C77.3137 146.654 80 149.34 80 152.654C80 155.968 77.3137 158.654 74 158.654H41V146.654Z" fill="white" stroke="#C7CDD1" stroke-width="2" stroke-linejoin="round"/>
<path fill-rule="evenodd" clip-rule="evenodd" d="M38.5 70.1541L48 73.6541L44 82.6541C35.6667 91.3207 30.5 92.8207 28.5 87.1541C26.5 81.4874 29.8333 75.8207 38.5 70.1541Z" fill="#2D3B45" stroke="#152633" stroke-width="2"/>
<path fill-rule="evenodd" clip-rule="evenodd" d="M86.5 70.1541C95.1667 75.8207 98.5 81.4874 96.5 87.1541C94.5 92.8207 89.3333 91.3207 81 82.6541L77 73.6541" fill="#2D3B45"/>
<path fill-rule="evenodd" clip-rule="evenodd" d="M82.586 74C76.2638 76.1053 69.0486 77.2497 61.3862 77.2497C54.5562 77.2497 48.2382 76.4438 42.6606 74.864C40.421 79.8791 37.884 86.3051 37.3285 90.7497C35.6943 102.187 45.6361 112.211 63.29 112.211C80.9438 112.211 90.1664 101.827 88.1515 91.0958C86.7627 83.703 84.5241 78.1178 82.586 74Z" fill="white"/>
<path d="M41.1865 103.865C45.6768 107.746 52.5351 110.211 61.2901 110.211C78.9439 110.211 88.1665 99.8266 86.1515 89.0958C85.0068 83.0024 83.2848 78.137 81.6296 74.309C81.9506 74.2085 82.2695 74.1054 82.5861 74C84.5242 78.1178 86.7628 83.703 88.1515 91.0958C90.1665 101.827 80.9439 112.211 63.2901 112.211C53.112 112.211 45.4973 108.879 41.1865 103.865Z" fill="#EDEDED"/>
<path fill-rule="evenodd" clip-rule="evenodd" d="M82.586 74C76.2638 76.1053 69.0486 77.2497 61.3862 77.2497C54.5562 77.2497 48.2382 76.4438 42.6606 74.864C40.421 79.8791 37.884 86.3051 37.3285 90.7497C35.6943 102.187 45.6361 112.211 63.29 112.211C80.9438 112.211 90.1664 101.827 88.1515 91.0958C86.7627 83.703 84.5241 78.1178 82.586 74Z" stroke="#152633" stroke-width="2"/>
<path fill-rule="evenodd" clip-rule="evenodd" d="M98.3342 23.3787C99.5931 22.8564 100.942 22.1062 102.292 21.0262C107.484 16.8724 106.446 9.94932 106.1 8.21855C105.754 6.48778 103.677 -1.81991 97.0998 1.98778C92.8521 4.44686 88.4629 8.63601 85.8848 11.2969C90.77 14.5507 95.0011 18.6873 98.3342 23.3787Z" fill="#2D3B45"/>
<path d="M101.292 17.0261C99.9418 18.1061 98.5931 18.8563 97.3342 19.3786C94.6802 15.6431 91.457 12.2595 87.7876 9.39306C87.082 10.077 86.4412 10.7225 85.8848 11.2968C90.77 14.5506 95.0011 18.6872 98.3342 23.3786C99.5931 22.8563 100.942 22.1061 102.292 21.0261C107.484 16.8723 106.446 9.94922 106.1 8.21845C106 7.72044 105.757 6.6779 105.305 5.53613C105.619 8.25445 105.589 13.5886 101.292 17.0261Z" fill="#28343D"/>
<path fill-rule="evenodd" clip-rule="evenodd" d="M98.3342 23.3787C99.5931 22.8564 100.942 22.1062 102.292 21.0262C107.484 16.8724 106.446 9.94932 106.1 8.21855C105.754 6.48778 103.677 -1.81991 97.0998 1.98778C92.8521 4.44686 88.4629 8.63601 85.8848 11.2969C90.77 14.5507 95.0011 18.6873 98.3342 23.3787Z" stroke="#152633" stroke-width="2"/>
<path fill-rule="evenodd" clip-rule="evenodd" d="M19 46.9233C19 67.0002 37.1478 77.731 62.0962 77.731C87.0445 77.731 107.269 65.6156 107.269 47.6156C107.269 25.2482 87.0445 3.65405 62.0962 3.65405C37.1478 3.65405 19 25.8079 19 46.9233Z" fill="white"/>
<path d="M29.6113 68.976C37.119 73.4336 47.2067 75.731 58.7503 75.731C83.6986 75.731 103.923 63.6156 103.923 45.6156C103.923 31.9708 96.3971 18.6139 84.8634 10.2712C98.0747 18.3641 106.923 32.8207 106.923 47.6156C106.923 65.6156 86.6986 77.731 61.7503 77.731C48.5897 77.731 37.3215 74.7449 29.6113 68.976Z" fill="#EDEDED"/>
<path fill-rule="evenodd" clip-rule="evenodd" d="M18.6541 46.9233C18.6541 67.0002 36.8019 77.731 61.7502 77.731C86.6986 77.731 106.923 65.6156 106.923 47.6156C106.923 25.2482 86.6986 3.65405 61.7502 3.65405C36.8019 3.65405 18.6541 25.8079 18.6541 46.9233Z" stroke="#152633" stroke-width="2"/>
<path fill-rule="evenodd" clip-rule="evenodd" d="M68.6541 58.6541C68.6541 60.311 65.7441 61.6541 62.1541 61.6541C58.5641 61.6541 55.6541 60.311 55.6541 58.6541C55.6541 56.9971 58.5641 55.6541 62.1541 55.6541C65.7441 55.6541 68.6541 56.9971 68.6541 58.6541Z" fill="#152633"/>
<path d="M60.5 69.6541H64" stroke="#152633" stroke-width="2" stroke-linecap="round"/>
<path fill-rule="evenodd" clip-rule="evenodd" d="M25.0868 23.3787C23.8282 22.8564 22.4792 22.1062 21.1289 21.0262C15.9366 16.8724 16.975 9.94932 17.3212 8.21855C17.6673 6.48778 19.7443 -1.81991 26.3212 1.98778C30.5688 4.44686 34.9581 8.63601 37.5362 11.2969C32.6513 14.5507 28.4203 18.6873 25.0868 23.3787Z" fill="#2D3B45"/>
<path d="M19.1289 18.0261C20.4793 19.1061 21.8282 19.8562 23.0868 20.3786C26.28 15.8847 30.2967 11.8999 34.9228 8.7124C35.9118 9.64814 36.7982 10.5351 37.5363 11.2968C32.6513 14.5506 28.4203 18.6872 25.0868 23.3786C23.8282 22.8562 22.4793 22.1061 21.1289 21.0261C19.6793 19.8664 18.7154 18.4909 18.0864 17.0728C18.4024 17.4034 18.749 17.7221 19.1289 18.0261Z" fill="#28343D"/>
<path fill-rule="evenodd" clip-rule="evenodd" d="M25.0868 23.3787C23.8282 22.8564 22.4792 22.1062 21.1289 21.0262C15.9366 16.8724 16.975 9.94932 17.3212 8.21855C17.6673 6.48778 19.7443 -1.81991 26.3212 1.98778C30.5688 4.44686 34.9581 8.63601 37.5362 11.2969C32.6513 14.5507 28.4203 18.6873 25.0868 23.3787Z" stroke="#152633" stroke-width="2"/>
<path fill-rule="evenodd" clip-rule="evenodd" d="M83.5769 19C76.0107 19 69 31.0036 69 42.9231C69 53.57 78.3146 63.3846 87.0385 63.3846C94.9935 63.3846 101.615 54.2612 101.615 42.9231C101.615 37.6814 99.3629 31.5975 95.5887 26.694C91.8648 21.8557 87.3417 19 83.5769 19Z" fill="#2D3B45" stroke="#152633" stroke-width="2"/>
<path fill-rule="evenodd" clip-rule="evenodd" d="M80.7871 52.9038C80.7871 55.2508 79.4141 57.1535 77.7206 57.1535C76.0271 57.1535 74.6541 55.2508 74.6541 52.9038C74.6541 50.5568 76.0271 48.6541 77.7206 48.6541C79.4141 48.6541 80.7871 50.5568 80.7871 52.9038Z" fill="white"/>
<path fill-rule="evenodd" clip-rule="evenodd" d="M37.231 63.0387C45.9548 63.0387 55.2694 53.224 55.2694 42.5771C55.2694 30.6575 48.2588 18.6541 40.6925 18.6541C36.9276 18.6541 32.4045 21.5096 28.6807 26.3481C24.9063 31.2514 22.6541 37.3349 22.6541 42.5771C22.6541 53.9152 29.2759 63.0387 37.231 63.0387Z" fill="#2D3B45" stroke="#152633" stroke-width="2"/>
<path fill-rule="evenodd" clip-rule="evenodd" d="M48.7871 52.9038C48.7871 55.2508 47.4141 57.1535 45.7206 57.1535C44.0271 57.1535 42.6541 55.2508 42.6541 52.9038C42.6541 50.5568 44.0271 48.6541 45.7206 48.6541C47.4141 48.6541 48.7871 50.5568 48.7871 52.9038Z" fill="white"/>
<path fill-rule="evenodd" clip-rule="evenodd" d="M44.3001 99.4124C46.2089 107.488 53.5639 111.586 63.2328 111.203C72.073 110.853 80.4403 106.695 82.6688 101.441C84.545 97.018 75.4279 91.7961 63.5164 90.2638C57.7161 89.5177 52.386 89.8588 48.8061 91.3018C44.9671 92.8492 43.3732 95.4911 44.3001 99.4124Z" fill="#2D3B45" stroke="#152633" stroke-width="2"/>
<path fill-rule="evenodd" clip-rule="evenodd" d="M65.5257 108.87L55.7569 108.018C56.571 118.532 53.5861 124.641 46.8022 126.346C17.4959 134.445 34.1842 95.6572 46.8022 93.0998C55.2142 91.3948 61.4554 96.6517 65.5257 108.87Z" fill="#2D3B45"/>
<path d="M53.7569 106.018L63.5257 106.87C61.9357 102.098 60.0145 98.3869 57.762 95.7385C60.8961 98.3642 63.484 102.742 65.5257 108.87L55.7569 108.018C56.5709 118.532 53.586 124.641 46.8022 126.346C38.643 128.601 34.049 127.221 31.9397 124.001C34.4994 125.678 38.6311 126.051 44.8022 124.346C51.586 122.641 54.5709 116.532 53.7569 106.018Z" fill="#28343D"/>
<path fill-rule="evenodd" clip-rule="evenodd" d="M65.5257 108.87L55.7569 108.018C56.571 118.532 53.5861 124.641 46.8022 126.346C17.4959 134.445 34.1842 95.6572 46.8022 93.0998C55.2142 91.3948 61.4554 96.6517 65.5257 108.87Z" stroke="#152633" stroke-width="2"/>
<path fill-rule="evenodd" clip-rule="evenodd" d="M58.5 108.87C62.5703 96.6517 68.8115 91.3948 77.2235 93.0998C89.8415 95.6572 106.53 134.445 77.2235 126.346C70.4396 124.641 67.4547 118.532 68.2688 108.018L58.5 108.87Z" fill="#2D3B45"/>
<path d="M70.6606 121.828C72.1705 124.12 74.3581 125.626 77.2235 126.346C102.664 133.376 93.4438 105.074 82.3143 95.8123C91.8479 106.986 97.3218 129.729 74.2235 123.346C72.8889 123.011 71.7012 122.505 70.6606 121.828Z" fill="#28343D"/>
<path fill-rule="evenodd" clip-rule="evenodd" d="M58.5 108.87C62.5703 96.6517 68.8115 91.3948 77.2235 93.0998C89.8415 95.6572 106.53 134.445 77.2235 126.346C70.4396 124.641 67.4547 118.532 68.2688 108.018L58.5 108.87Z" stroke="#152633" stroke-width="2"/>
<path fill-rule="evenodd" clip-rule="evenodd" d="M93.5 85.6541L105 94.1541L116 113.154L98 104.654L90 91.1541L93.5 85.6541Z" fill="white" stroke="#C7CDD1" stroke-width="2" stroke-linejoin="round"/>
<path fill-rule="evenodd" clip-rule="evenodd" d="M62 107.654V87.6541C66.6667 81.9875 73.1667 80.3208 81.5 82.6541C87.5 84.6541 89.5 87.6541 93 85.1541L98 96.1541L100.5 104.654L73.5 102.154L62 107.654Z" fill="white" stroke="#C7CDD1" stroke-width="2" stroke-linejoin="round"/>
<path fill-rule="evenodd" clip-rule="evenodd" d="M62 108.654C62.6667 97.6542 69.6667 93.6542 83 96.6542C92.5 98.6542 96.5 99.1542 98.5 96.6542L116.5 113.654C100.833 110.988 90.1667 108.654 84.5 106.654C78.8333 104.654 74.6667 105.654 72 109.654L62 108.654Z" fill="white" stroke="#C7CDD1" stroke-width="2" stroke-linejoin="round"/>
<path fill-rule="evenodd" clip-rule="evenodd" d="M30.5 85.6541L34 91.1541L26 104.654L8 113.154L19 94.1541L30.5 85.6541Z" fill="white" stroke="#C7CDD1" stroke-width="2" stroke-linejoin="round"/>
<path fill-rule="evenodd" clip-rule="evenodd" d="M62 107.654L50.5 102.154L23.5 104.654L26 96.1541L31 85.1541C34.5 87.6541 36.5 84.6541 42.5 82.6541C50.8333 80.3208 57.3333 81.9875 62 87.6541V107.654Z" fill="white" stroke="#C7CDD1" stroke-width="2" stroke-linejoin="round"/>
<path fill-rule="evenodd" clip-rule="evenodd" d="M62 108.654L52 109.654C49.3333 105.654 45.1667 104.654 39.5 106.654C33.8333 108.654 23.1667 110.988 7.5 113.654L25.5 96.6542C27.5 99.1542 31.5 98.6542 41 96.6542C54.3333 93.6542 61.3333 97.6542 62 108.654Z" fill="white" stroke="#C7CDD1" stroke-width="2" stroke-linejoin="round"/>
<path fill-rule="evenodd" clip-rule="evenodd" d="M89 76C84.0294 76 80.5 79.6835 80.5 84.6541C80.5 89.6246 84.0294 93 89 93C93.9706 93 97.5 89.6246 97.5 84.6541H95L91 79.6541L89 76Z" fill="#2D3B45"/>
<path d="M97.0572 83.6541C96.9421 80.3293 94.9911 77.0045 91.204 73.6797L90.5001 73.9998C93.1747 77.058 94.5001 80.1873 94.5001 83C94.5001 88 91.0001 91 85.0001 91C84.3496 91 83.7153 90.5851 83.104 90.454C84.6833 91.8246 86.7448 92.6541 89.0001 92.6541C94.6424 92.6541 96.8335 88.9279 97.0572 83.6541Z" fill="#28343D"/>
<path d="M88.5958 76.6641C84.3653 76.8746 81 80.3713 81 84.6541C81 89.0723 84.5817 92.6541 89 92.6541C93.2827 92.6541 96.7795 89.2887 96.99 85.0582C97.3129 82.4815 96.2893 76.5128 89.8496 72.5" stroke="#152633" stroke-width="2" stroke-linecap="round" stroke-linejoin="round"/>
<path fill-rule="evenodd" clip-rule="evenodd" d="M36 75.6541C40.9706 75.6541 45 79.6835 45 84.6541C45 89.6246 40.9706 93.6541 36 93.6541C31.0294 93.6541 27 89.6246 27 84.6541H30L34 79.6541L36 75.6541Z" fill="#2D3B45"/>
<path d="M27.6589 88.0408C28.997 91.3328 32.2274 93.6539 35.9999 93.6539C40.9705 93.6539 44.9999 89.6245 44.9999 84.6539C44.9999 82.157 43.9831 79.8975 42.3409 78.2671C42.7658 79.3125 42.9999 80.4559 42.9999 81.6539C42.9999 86.6245 38.9705 90.6539 33.9999 90.6539C31.5263 90.6539 29.2858 89.656 27.6589 88.0408Z" fill="#28343D"/>
<path d="M36.4042 76.6641C40.6346 76.8746 44 80.3713 44 84.654C44 89.0723 40.4183 92.654 36 92.654C31.7172 92.654 28.2205 89.2887 28.01 85.0582" stroke="#152633" stroke-width="2" stroke-linecap="round" stroke-linejoin="round"/>
</svg>
