<svg width="162" height="287" viewBox="0 0 162 287" fill="none" xmlns="http://www.w3.org/2000/svg">
<path d="M81 160.441C125.183 160.441 161 124.749 161 80.7203C161 36.692 125.183 1 81 1C36.8172 1 1 36.692 1 80.7203C1 124.749 36.8172 160.441 81 160.441Z" fill="#5DB9F2" stroke="#152633" stroke-width="2"/>
<path d="M151 80.7203C151 36.692 125.183 1 81 1C36.8172 1 11 36.692 11 80.7203" stroke="#152633" stroke-width="2"/>
<path d="M131 80.7203C131 46.657 115.183 1 81 1C46.8172 1 31 46.657 31 80.7203" stroke="#152633" stroke-width="2"/>
<path d="M111 80.7203C111 46.657 95.1828 1 81 1C66.8172 1 51 46.657 51 80.7203" stroke="#152633" stroke-width="2"/>
<path d="M81 1C81 31.438 81 58.0114 81 80.7203" stroke="#152633" stroke-width="2"/>
<path fill-rule="evenodd" clip-rule="evenodd" d="M81 160.441C125.183 160.441 161 124.749 161 80.7203C137.122 74.0769 110.455 70.7552 81 70.7552C51.5448 70.7552 24.8781 74.0769 1 80.7203C1 124.749 36.8172 160.441 81 160.441Z" fill="#152633" stroke="#152633" stroke-width="2"/>
<path fill-rule="evenodd" clip-rule="evenodd" d="M47.762 118.823C47.4095 117.622 46.4672 116.683 45.262 116.332C46.4672 115.981 47.4095 115.042 47.762 113.841C48.1145 115.042 49.0567 115.981 50.262 116.332C49.0567 116.683 48.1145 117.622 47.762 118.823Z" fill="#FFE896"/>
<path fill-rule="evenodd" clip-rule="evenodd" d="M77.762 108.858C77.4095 107.657 76.4672 106.718 75.262 106.367C76.4672 106.016 77.4095 105.077 77.762 103.876C78.1145 105.077 79.0567 106.016 80.262 106.367C79.0567 106.718 78.1145 107.657 77.762 108.858Z" fill="#FFE896"/>
<path fill-rule="evenodd" clip-rule="evenodd" d="M117.762 148.719C117.409 147.518 116.467 146.579 115.262 146.227C116.467 145.876 117.409 144.937 117.762 143.736C118.114 144.937 119.057 145.876 120.262 146.227C119.057 146.579 118.114 147.518 117.762 148.719Z" fill="#FFE896"/>
<path fill-rule="evenodd" clip-rule="evenodd" d="M137.762 97.8969C137.409 96.6958 136.467 95.7569 135.262 95.4056C136.467 95.0544 137.409 94.1154 137.762 92.9144C138.114 94.1154 139.057 95.0544 140.262 95.4056C139.057 95.7569 138.114 96.6958 137.762 97.8969Z" fill="#FFE896"/>
<path fill-rule="evenodd" clip-rule="evenodd" d="M106.762 125.799C106.55 125.078 105.985 124.515 105.262 124.304C105.985 124.093 106.55 123.53 106.762 122.809C106.973 123.53 107.539 124.093 108.262 124.304C107.539 124.515 106.973 125.078 106.762 125.799Z" fill="#FFE896"/>
<path fill-rule="evenodd" clip-rule="evenodd" d="M103.262 131.778C102.98 130.817 102.226 130.066 101.262 129.785C102.226 129.504 102.98 128.753 103.262 127.792C103.544 128.753 104.298 129.504 105.262 129.785C104.298 130.066 103.544 130.817 103.262 131.778Z" fill="#FFE896"/>
<path fill-rule="evenodd" clip-rule="evenodd" d="M6.67676 98.9358C6.46509 98.2153 5.89976 97.6516 5.17676 97.441C5.89976 97.2304 6.46509 96.6667 6.67676 95.9463C6.88842 96.6667 7.45376 97.2304 8.17676 97.441C7.45376 97.6516 6.88842 98.2153 6.67676 98.9358Z" fill="#FFE896"/>
<path fill-rule="evenodd" clip-rule="evenodd" d="M34.6448 100.166C34.2218 98.7246 33.0908 97.5975 31.6448 97.176C33.0908 96.7545 34.2218 95.6275 34.6448 94.1865C35.0678 95.6275 36.1988 96.7545 37.6448 97.176C36.1988 97.5975 35.0678 98.7246 34.6448 100.166Z" fill="#FFE896"/>
<path fill-rule="evenodd" clip-rule="evenodd" d="M43.9958 127.691C43.7847 126.971 43.2192 126.407 42.4958 126.196C43.2192 125.986 43.7847 125.423 43.9958 124.702C44.207 125.423 44.7725 125.986 45.4958 126.196C44.7725 126.407 44.207 126.971 43.9958 127.691Z" fill="#FFE896"/>
<path fill-rule="evenodd" clip-rule="evenodd" d="M68.0999 151.92C67.5359 149.999 66.0279 148.496 64.0999 147.934C66.0279 147.372 67.5359 145.869 68.0999 143.948C68.6639 145.869 70.1719 147.372 72.0999 147.934C70.1719 148.496 68.6639 149.999 68.0999 151.92Z" fill="#FFE896"/>
<path fill-rule="evenodd" clip-rule="evenodd" d="M13.5908 122.281C13.3088 121.32 12.5548 120.569 11.5908 120.288C12.5548 120.007 13.3088 119.256 13.5908 118.295C13.8728 119.256 14.6268 120.007 15.5908 120.288C14.6268 120.569 13.8728 121.32 13.5908 122.281Z" fill="#FFE896"/>
<path fill-rule="evenodd" clip-rule="evenodd" d="M60.3613 154.673C60.2203 154.193 59.8433 153.817 59.3613 153.677C59.8433 153.536 60.2203 153.161 60.3613 152.68C60.5023 153.161 60.8793 153.536 61.3613 153.677C60.8793 153.817 60.5023 154.193 60.3613 154.673Z" fill="#FFE896"/>
<path fill-rule="evenodd" clip-rule="evenodd" d="M50.3613 114.813C50.2203 114.333 49.8433 113.957 49.3613 113.817C49.8433 113.676 50.2203 113.3 50.3613 112.82C50.5023 113.3 50.8793 113.676 51.3613 113.817C50.8793 113.957 50.5023 114.333 50.3613 114.813Z" fill="#FFE896"/>
<path fill-rule="evenodd" clip-rule="evenodd" d="M110.361 93.8866C110.22 93.4063 109.843 93.0306 109.361 92.8901C109.843 92.7496 110.22 92.3739 110.361 91.8936C110.502 92.3739 110.879 92.7496 111.361 92.8901C110.879 93.0306 110.502 93.4063 110.361 93.8866Z" fill="#FFE896"/>
<path fill-rule="evenodd" clip-rule="evenodd" d="M114.361 98.8691C114.22 98.3888 113.843 98.0131 113.361 97.8726C113.843 97.7321 114.22 97.3564 114.361 96.8761C114.502 97.3564 114.879 97.7321 115.361 97.8726C114.879 98.0131 114.502 98.3888 114.361 98.8691Z" fill="#FFE896"/>
<path fill-rule="evenodd" clip-rule="evenodd" d="M109.361 102.855C109.22 102.375 108.843 101.999 108.361 101.859C108.843 101.718 109.22 101.342 109.361 100.862C109.502 101.342 109.879 101.718 110.361 101.859C109.879 101.999 109.502 102.375 109.361 102.855Z" fill="#FFE896"/>
<path fill-rule="evenodd" clip-rule="evenodd" d="M149.361 103.852C149.22 103.371 148.843 102.996 148.361 102.855C148.843 102.715 149.22 102.339 149.361 101.859C149.502 102.339 149.879 102.715 150.361 102.855C149.879 102.996 149.502 103.371 149.361 103.852Z" fill="#FFE896"/>
<path fill-rule="evenodd" clip-rule="evenodd" d="M129.361 133.747C129.22 133.266 128.843 132.891 128.361 132.75C128.843 132.61 129.22 132.234 129.361 131.754C129.502 132.234 129.879 132.61 130.361 132.75C129.879 132.891 129.502 133.266 129.361 133.747Z" fill="#FFE896"/>
<path fill-rule="evenodd" clip-rule="evenodd" d="M126.361 144.708C126.22 144.228 125.843 143.852 125.361 143.712C125.843 143.571 126.22 143.196 126.361 142.715C126.502 143.196 126.879 143.571 127.361 143.712C126.879 143.852 126.502 144.228 126.361 144.708Z" fill="#FFE896"/>
<path fill-rule="evenodd" clip-rule="evenodd" d="M72.3613 152.68C72.2203 152.2 71.8433 151.824 71.3613 151.684C71.8433 151.543 72.2203 151.168 72.3613 150.687C72.5023 151.168 72.8793 151.543 73.3613 151.684C72.8793 151.824 72.5023 152.2 72.3613 152.68Z" fill="#FFE896"/>
<path fill-rule="evenodd" clip-rule="evenodd" d="M11.3613 117.803C11.2203 117.322 10.8433 116.947 10.3613 116.806C10.8433 116.666 11.2203 116.29 11.3613 115.81C11.5023 116.29 11.8793 116.666 12.3613 116.806C11.8793 116.947 11.5023 117.322 11.3613 117.803Z" fill="#FFE896"/>
<path fill-rule="evenodd" clip-rule="evenodd" d="M30.3613 95.8796C30.2203 95.3993 29.8433 95.0236 29.3613 94.8831C29.8433 94.7426 30.2203 94.3669 30.3613 93.8866C30.5023 94.3669 30.8793 94.7426 31.3613 94.8831C30.8793 95.0236 30.5023 95.3993 30.3613 95.8796Z" fill="#FFE896"/>
<path fill-rule="evenodd" clip-rule="evenodd" d="M70.3613 95.8796C70.2203 95.3993 69.8433 95.0236 69.3613 94.8831C69.8433 94.7426 70.2203 94.3669 70.3613 93.8866C70.5023 94.3669 70.8793 94.7426 71.3613 94.8831C70.8793 95.0236 70.5023 95.3993 70.3613 95.8796Z" fill="#FFE896"/>
<path fill-rule="evenodd" clip-rule="evenodd" d="M29.7087 137.362C29.5677 136.882 29.1907 136.506 28.7087 136.366C29.1907 136.225 29.5677 135.85 29.7087 135.369C29.8497 135.85 30.2267 136.225 30.7087 136.366C30.2267 136.506 29.8497 136.882 29.7087 137.362Z" fill="#FFE896"/>
<path fill-rule="evenodd" clip-rule="evenodd" d="M21.0123 80.4296C33.0419 78.0375 45.7048 76.3999 59.001 75.5167C66.7837 74.9997 74.7833 74.7413 83 74.7413C91.2167 74.7413 99.2163 74.9997 106.999 75.5167C120.295 76.3999 132.958 78.0375 144.988 80.4296C150.366 81.5008 155.678 82.735 160.819 84.1109C161.549 84.3065 160.545 97.5087 159.367 98.384C157.45 99.8076 155.074 100.65 152.5 100.65C146.906 100.65 142.245 96.6699 141.213 91.3962C137.579 96.3991 131.671 99.6538 125 99.6538C115.468 99.6538 107.493 93.0089 105.487 84.114C102.08 93.1912 93.2975 99.6538 83 99.6538C72.7025 99.6538 63.9197 93.1912 60.5132 84.114C58.5065 93.0089 50.532 99.6538 41 99.6538C34.3289 99.6538 28.4207 96.3991 24.7872 91.3962C23.7554 96.6699 19.0942 100.65 13.5 100.65C9.3435 100.65 5.70204 98.4529 3.68167 95.1603C3.23199 91.7391 3 88.2497 3 84.7063C8.81226 83.0892 14.8696 81.653 21.0123 80.4296Z" fill="black" fill-opacity="0.25"/>
<path d="M23 86.6993C23 141.009 69 208.694 69 254.112" stroke="#EBEDEE" stroke-width="2"/>
<path d="M59 81.7168C59 136.026 77 208.694 77 254.112" stroke="#EBEDEE" stroke-width="2"/>
<path d="M103 81.7168C103 136.026 85 208.694 85 254.112" stroke="#EBEDEE" stroke-width="2"/>
<path d="M139 86.6993C139 141.009 93 208.694 93 254.112" stroke="#EBEDEE" stroke-width="2"/>
<path d="M160.945 83.4115C158.917 152.182 101 209.489 101 254.112" stroke="#EBEDEE" stroke-width="2"/>
<path d="M1.03442 82.6497C2.65457 151.758 61 209.325 61 254.112" stroke="#EBEDEE" stroke-width="2"/>
<path fill-rule="evenodd" clip-rule="evenodd" d="M19.0123 76.4436C31.0419 74.0515 43.7048 72.4139 57.001 71.5307C64.7837 71.0137 72.7833 70.7552 81 70.7552C89.2167 70.7552 97.2163 71.0137 104.999 71.5307C118.295 72.4139 130.958 74.0515 142.988 76.4436C149.13 77.667 155.188 79.1032 161 80.7203C161 84.2637 160.768 87.7531 160.318 91.1743C158.298 94.4669 154.656 96.6643 150.5 96.6643C144.906 96.6643 140.245 92.6839 139.213 87.4102C135.579 92.4131 129.671 95.6678 123 95.6678C113.468 95.6678 105.493 89.0229 103.487 80.128C100.08 89.2052 91.2975 95.6678 81 95.6678C70.7025 95.6678 61.9197 89.2052 58.5132 80.128C56.5065 89.0229 48.532 95.6678 39 95.6678C32.3289 95.6678 26.4207 92.4131 22.7872 87.4102C21.7554 92.6839 17.0942 96.6643 11.5 96.6643C7.3435 96.6643 3.70204 94.4669 1.68167 91.1743C1.23199 87.7531 1 84.2637 1 80.7203C6.81226 79.1032 12.8696 77.667 19.0123 76.4436Z" fill="#F23B5D" stroke="#152633" stroke-width="2"/>
<path d="M81 83.7098C85.9706 83.7098 90 79.6944 90 74.7413C90 69.7881 85.9706 65.7727 81 65.7727C76.0294 65.7727 72 69.7881 72 74.7413C72 79.6944 76.0294 83.7098 81 83.7098Z" fill="#FFE896" stroke="#152633" stroke-width="2"/>
<path d="M123 83.7098C126.866 83.7098 130 80.5867 130 76.7343C130 72.8818 126.866 69.7587 123 69.7587C119.134 69.7587 116 72.8818 116 76.7343C116 80.5867 119.134 83.7098 123 83.7098Z" fill="#FFE896" stroke="#152633" stroke-width="2"/>
<path d="M39 83.7098C42.866 83.7098 46 80.5867 46 76.7343C46 72.8818 42.866 69.7587 39 69.7587C35.134 69.7587 32 72.8818 32 76.7343C32 80.5867 35.134 83.7098 39 83.7098Z" fill="#FFE896" stroke="#152633" stroke-width="2"/>
<path d="M151.5 84.7063C153.985 84.7063 156 82.6986 156 80.222C156 77.7454 153.985 75.7378 151.5 75.7378C149.015 75.7378 147 77.7454 147 80.222C147 82.6986 149.015 84.7063 151.5 84.7063Z" fill="#FFE896" stroke="#152633" stroke-width="2"/>
<path d="M10.5 84.7063C12.9853 84.7063 15 82.6986 15 80.222C15 77.7454 12.9853 75.7378 10.5 75.7378C8.01472 75.7378 6 77.7454 6 80.222C6 82.6986 8.01472 84.7063 10.5 84.7063Z" fill="#FFE896" stroke="#152633" stroke-width="2"/>
<path fill-rule="evenodd" clip-rule="evenodd" d="M35.5686 15.0934C48.4729 6.20572 64.1263 1 81 1C97.8736 1 113.527 6.20572 126.431 15.0934C113.527 20.031 97.8736 22.9231 81 22.9231C64.1263 22.9231 48.4729 20.031 35.5686 15.0934Z" fill="#FFE896" stroke="#152633" stroke-width="2"/>
<path fill-rule="evenodd" clip-rule="evenodd" d="M58.7781 237.851C58.7781 248.076 67.9485 253.542 80.5555 253.542C93.1624 253.542 103.382 247.371 103.382 238.203C103.382 226.811 93.1624 215.813 80.5555 215.813C67.9485 215.813 58.7781 227.096 58.7781 237.851Z" fill="white"/>
<path d="M62.2542 247.21C66.138 250.722 72.2735 252.545 79.5555 252.545C92.1625 252.545 102.382 246.375 102.382 237.207C102.382 231.685 99.9811 226.255 96.0707 222.126C100.568 226.355 103.382 232.225 103.382 238.203C103.382 247.371 93.1625 253.542 80.5555 253.542C72.6133 253.542 66.0349 251.373 62.2542 247.21Z" fill="#EBEDEE"/>
<path fill-rule="evenodd" clip-rule="evenodd" d="M58.7781 237.851C58.7781 248.076 67.9485 253.542 80.5555 253.542C93.1624 253.542 103.382 247.371 103.382 238.203C103.382 226.811 93.1624 215.813 80.5555 215.813C67.9485 215.813 58.7781 227.096 58.7781 237.851Z" stroke="#152633"/>
<path fill-rule="evenodd" clip-rule="evenodd" d="M84.2746 243.933C84.2746 244.858 82.8445 245.608 81.0802 245.608C79.3159 245.608 77.8857 244.858 77.8857 243.933C77.8857 243.008 79.3159 242.258 81.0802 242.258C82.8445 242.258 84.2746 243.008 84.2746 243.933Z" fill="#152633"/>
<path fill-rule="evenodd" clip-rule="evenodd" d="M91.7054 223.612C88.0045 223.612 84.4939 229.602 84.4939 235.559C84.4939 240.853 89.1506 245.742 93.4747 245.742C97.3891 245.742 100.686 241.215 100.686 235.559C100.686 232.944 99.5536 229.895 97.6555 227.438C95.7932 225.027 93.5445 223.612 91.7054 223.612Z" fill="#2D3B45" stroke="#152633"/>
<path d="M89.3998 240.205C90.3817 240.205 91.1776 239.07 91.1776 237.67C91.1776 236.269 90.3817 235.134 89.3998 235.134C88.418 235.134 87.6221 236.269 87.6221 237.67C87.6221 239.07 88.418 240.205 89.3998 240.205Z" fill="white"/>
<path fill-rule="evenodd" clip-rule="evenodd" d="M68.5089 245.742C72.833 245.742 77.4897 240.853 77.4897 235.559C77.4897 229.602 73.9791 223.612 70.2781 223.612C68.439 223.612 66.1903 225.027 64.3281 227.438C62.4298 229.895 61.2974 232.944 61.2974 235.559C61.2974 241.215 64.5945 245.742 68.5089 245.742Z" fill="#2D3B45" stroke="#152633"/>
<path d="M72.6 240.205C73.5819 240.205 74.3778 239.07 74.3778 237.67C74.3778 236.269 73.5819 235.134 72.6 235.134C71.6182 235.134 70.8223 236.269 70.8223 237.67C70.8223 239.07 71.6182 240.205 72.6 240.205Z" fill="white"/>
<path fill-rule="evenodd" clip-rule="evenodd" d="M99.3999 225.966C100.043 225.7 100.569 225.178 101.259 224.628C103.913 222.512 103.382 218.986 103.205 218.105C103.029 217.223 101.967 212.992 98.6054 214.931C96.4344 216.184 94.3287 218.244 93.011 219.6C95.5079 221.257 97.6963 223.577 99.3999 225.966Z" fill="#2D3B45" stroke="#152633"/>
<path d="M99.7947 223.016C99.3146 223.417 98.8916 223.77 98.3999 223.973C97.0976 222.147 95.512 220.361 93.7219 218.88C93.4658 219.135 93.2277 219.377 93.011 219.6C95.5079 221.257 97.6963 223.577 99.3999 225.966C99.8916 225.763 100.315 225.41 100.795 225.009C100.943 224.886 101.097 224.758 101.259 224.628C103.913 222.512 103.382 218.986 103.205 218.105C103.113 217.646 102.781 216.279 102.01 215.347C102.111 215.676 102.173 215.95 102.205 216.112C102.382 216.993 102.913 220.519 100.259 222.635C100.097 222.765 99.9429 222.893 99.7947 223.016Z" fill="#28343D"/>
<path fill-rule="evenodd" clip-rule="evenodd" d="M99.3999 225.966C100.043 225.7 100.569 225.178 101.259 224.628C103.913 222.512 103.382 218.986 103.205 218.105C103.029 217.223 101.967 212.992 98.6054 214.931C96.4344 216.184 94.3287 218.244 93.011 219.6C95.5079 221.257 97.6963 223.577 99.3999 225.966Z" stroke="#152633"/>
<path fill-rule="evenodd" clip-rule="evenodd" d="M62.3444 225.966C61.7011 225.7 60.9773 225.178 60.2871 224.628C57.6332 222.512 58.164 218.986 58.3409 218.105C58.5178 217.223 59.5794 212.992 62.9409 214.931C65.1119 216.184 67.16 218.244 68.4777 219.6C65.981 221.257 64.0482 223.577 62.3444 225.966Z" fill="#2D3B45"/>
<path d="M59.3765 223.702C60.0395 224.226 60.7289 224.715 61.3444 224.97C63.0482 222.58 64.981 220.26 67.4778 218.603C67.3767 218.499 67.2712 218.391 67.1618 218.279C67.652 218.754 68.0956 219.207 68.4778 219.6C65.981 221.257 64.0482 223.577 62.3444 225.966C61.7011 225.7 60.9773 225.178 60.2871 224.628C59.9282 224.342 59.6276 224.03 59.3765 223.702Z" fill="#28343D"/>
<path fill-rule="evenodd" clip-rule="evenodd" d="M62.3444 225.966C61.7011 225.7 60.9773 225.178 60.2871 224.628C57.6332 222.512 58.164 218.986 58.3409 218.105C58.5178 217.223 59.5794 212.992 62.9409 214.931C65.1119 216.184 67.16 218.244 68.4777 219.6C65.981 221.257 64.0482 223.577 62.3444 225.966Z" stroke="#152633"/>
<path fill-rule="evenodd" clip-rule="evenodd" d="M61 254.112H101V275.78C101 279.334 100.629 280.623 99.9315 281.922C99.2342 283.221 98.2111 284.24 96.9074 284.935C95.6037 285.63 94.3105 286 90.7445 286H71.2555C67.6895 286 66.3963 285.63 65.0926 284.935C63.7889 284.24 62.7658 283.221 62.0685 281.922C61.3713 280.623 61 279.334 61 275.78V254.112Z" fill="#EAA962"/>
<path d="M62.4521 282.56C63.1217 283.558 64.0105 284.359 65.0926 284.935C66.3963 285.63 67.6894 286 71.2555 286H90.7444C94.3105 286 95.6036 285.63 96.9073 284.935C98.211 284.24 99.2342 283.221 99.9314 281.922C100.629 280.623 101 279.334 101 275.78V254.112H99V273.787C99 277.341 98.6287 278.63 97.9314 279.929C97.2342 281.228 96.211 282.247 94.9073 282.942C93.6036 283.637 92.3105 284.007 88.7444 284.007H69.2555C65.6894 284.007 64.3963 283.637 63.0926 282.942C62.8709 282.824 62.6574 282.697 62.4521 282.56Z" fill="#D38E41"/>
<path fill-rule="evenodd" clip-rule="evenodd" d="M61 254.112H101V275.78C101 279.334 100.629 280.623 99.9315 281.922C99.2342 283.221 98.2111 284.24 96.9074 284.935C95.6037 285.63 94.3105 286 90.7445 286H71.2555C67.6895 286 66.3963 285.63 65.0926 284.935C63.7889 284.24 62.7658 283.221 62.0685 281.922C61.3713 280.623 61 279.334 61 275.78V254.112Z" stroke="#152633" stroke-width="2"/>
<path d="M68 255.108V267.575" stroke="#152633" stroke-width="2" stroke-linecap="round"/>
<path d="M75 261.087V273.554" stroke="#152633" stroke-width="2" stroke-linecap="round"/>
<path d="M96 255.108V259.603" stroke="#152633" stroke-width="2" stroke-linecap="round"/>
<path d="M86 281.017V285.512" stroke="#152633" stroke-width="2" stroke-linecap="round"/>
<path d="M81 284.007V285.512" stroke="#152633" stroke-width="2" stroke-linecap="round"/>
<path d="M71 280.021V285.512" stroke="#152633" stroke-width="2" stroke-linecap="round"/>
<path d="M65 265.073H78.5" stroke="#152633" stroke-width="2" stroke-linecap="round"/>
<path d="M92 273.045H100.5" stroke="#152633" stroke-width="2" stroke-linecap="round"/>
<path fill-rule="evenodd" clip-rule="evenodd" d="M57 250.126H105V254.112H57V250.126Z" fill="#152633" stroke="#152633" stroke-width="2" stroke-linejoin="round"/>
</svg>
