<svg width="149" height="117" viewBox="0 0 149 117" fill="none" xmlns="http://www.w3.org/2000/svg">
<path d="M63.0639 117C78.4428 117 90.9099 114.071 90.9099 110.459C90.9099 106.846 78.4428 103.917 63.0639 103.917C47.6849 103.917 35.2178 106.846 35.2178 110.459C35.2178 114.071 47.6849 117 63.0639 117Z" fill="black" fill-opacity="0.05"/>
<path fill-rule="evenodd" clip-rule="evenodd" d="M55.4187 76.8239C52.7466 78.2609 46.6003 81.1795 40.7842 81.1585C33.0716 81.1308 33.7885 73.1469 36.9142 70.6133C39.8293 68.2498 46.2044 69.9684 54.8808 74.9221C55.0436 75.5536 55.2238 76.1881 55.4187 76.8239Z" fill="#2D3B45"/>
<path d="M39.6242 79.4141C45.4404 79.4351 51.5866 76.5164 54.2587 75.0794C54.1962 74.8754 54.1352 74.6716 54.0757 74.4679C54.3419 74.6161 54.6103 74.7675 54.881 74.9221C55.0438 75.5535 55.2241 76.188 55.4189 76.8238C52.7469 78.2608 46.6006 81.1795 40.7845 81.1584C37.5357 81.1467 35.7826 79.7234 35.0752 77.8903C36.0468 78.8082 37.5226 79.4065 39.6242 79.4141Z" fill="#28343D"/>
<path fill-rule="evenodd" clip-rule="evenodd" d="M55.4187 76.8239C52.7466 78.2609 46.6003 81.1795 40.7842 81.1585C33.0716 81.1308 33.7885 73.1469 36.9142 70.6133C39.8293 68.2498 46.2044 69.9684 54.8808 74.9221C55.0436 75.5536 55.2238 76.1881 55.4187 76.8239Z" stroke="#152633" stroke-width="2"/>
<path fill-rule="evenodd" clip-rule="evenodd" d="M80.7538 77.2088C81.1131 77.7525 81.4629 78.3114 81.8039 78.8819C84.6573 77.8532 90.9341 75.2281 94.8102 70.882C99.9504 65.1187 93.5511 60.3104 89.581 60.9432C85.878 61.5331 82.8865 67.4315 80.7538 77.2088Z" fill="#2D3B45"/>
<path d="M80.7798 77.0881C83.6927 76.0263 89.8341 73.4158 93.6495 69.1377C95.6713 66.8708 95.9079 64.7517 95.2092 63.0533C96.9889 64.9013 97.6026 67.7507 94.8098 70.8821C90.9337 75.2282 84.6569 77.8533 81.8035 78.882C81.4625 78.3114 81.1127 77.7526 80.7534 77.2089C80.7622 77.1686 80.771 77.1283 80.7798 77.0881Z" fill="#28343D"/>
<path fill-rule="evenodd" clip-rule="evenodd" d="M80.7538 77.2088C81.1131 77.7525 81.4629 78.3114 81.8039 78.8819C84.6573 77.8532 90.9341 75.2281 94.8102 70.882C99.9504 65.1187 93.5511 60.3104 89.581 60.9432C85.878 61.5331 82.8865 67.4315 80.7538 77.2088Z" stroke="#152633" stroke-width="2"/>
<path fill-rule="evenodd" clip-rule="evenodd" d="M75.2463 110.749C86.7764 98.1028 84.4833 88.4711 84.2574 86.6597C85.138 92.8279 75.7209 98.7288 66.5444 99.8471C66.6895 102.9 66.9795 105.08 67.4146 106.388C68.0673 108.351 70.4603 112.058 75.2463 110.749Z" fill="#2D3B45"/>
<path d="M83.2137 91.0647C82.5966 95.3988 80.4408 101.453 74.0859 108.424C70.737 109.339 68.5598 107.799 67.3306 106.119C67.3579 106.213 67.3859 106.303 67.4144 106.388C68.0671 108.351 70.4601 112.058 75.2462 110.749C86.1112 98.8322 84.7017 89.5921 84.3139 87.0502C84.2973 86.9415 84.2826 86.845 84.2708 86.7611C84.2666 86.7273 84.2621 86.6935 84.2572 86.6597C84.2612 86.6911 84.2657 86.7249 84.2708 86.7611C84.4541 88.2328 84.054 89.6878 83.2137 91.0647Z" fill="#28343D"/>
<path fill-rule="evenodd" clip-rule="evenodd" d="M75.2463 110.749C86.7764 98.1028 84.4833 88.4711 84.2574 86.6597C85.138 92.8279 75.7209 98.7288 66.5444 99.8471C66.6895 102.9 66.9795 105.08 67.4146 106.388C68.0673 108.351 70.4603 112.058 75.2463 110.749Z" stroke="#152633" stroke-width="2"/>
<path fill-rule="evenodd" clip-rule="evenodd" d="M51.2738 88.5088C47.1982 93.2881 44.3599 96.1122 42.7588 96.9812C40.3571 98.2846 42.3221 104.367 47.5621 105.019C51.0555 105.454 56.2227 103.571 63.0638 99.3708L51.2738 88.5088Z" fill="#2D3B45"/>
<path d="M42.231 101.107C43.1585 101.91 44.3633 102.512 45.8218 102.693C49.2344 103.118 54.2443 101.331 60.8516 97.3326L63.0639 99.3708C56.2228 103.571 51.0555 105.454 47.5622 105.019C44.8742 104.685 43.048 102.921 42.231 101.107Z" fill="#28343D"/>
<path fill-rule="evenodd" clip-rule="evenodd" d="M51.2738 88.5088C47.1982 93.2881 44.3599 96.1122 42.7588 96.9812C40.3571 98.2846 42.3221 104.367 47.5621 105.019C51.0555 105.454 56.2227 103.571 63.0638 99.3708L51.2738 88.5088Z" stroke="#152633" stroke-width="2"/>
<path fill-rule="evenodd" clip-rule="evenodd" d="M80.9667 74.99C76.8406 76.3671 72.0053 76.8797 67.0044 76.8797C62.5469 76.8797 58.752 75.878 55.1118 74.8446C53.6501 78.1251 51.7923 83.0391 51.4297 85.9465C50.3632 93.428 56.8517 99.9853 68.3734 99.9853C79.895 99.9853 85.9141 93.1923 84.599 86.173C83.6926 81.3371 82.2316 77.6836 80.9667 74.99Z" fill="white"/>
<path d="M52.5635 92.5129C55.3328 95.9418 60.3904 98.2409 67.2129 98.2409C78.7345 98.2409 84.7536 91.448 83.4385 84.4286C82.7251 80.6223 81.6681 77.5485 80.6336 75.0988C80.7451 75.0631 80.856 75.0269 80.9665 74.99C82.2314 77.6836 83.6924 81.3371 84.5988 86.173C85.9138 93.1924 79.8948 99.9853 68.3731 99.9853C60.4491 99.9853 54.9057 96.8837 52.5635 92.5129Z" fill="#EDEDED"/>
<path fill-rule="evenodd" clip-rule="evenodd" d="M80.9667 74.99C76.8406 76.3671 72.0053 76.8797 67.0044 76.8797C62.5469 76.8797 58.752 75.878 55.1118 74.8446C53.6501 78.1251 51.7923 83.0391 51.4297 85.9465C50.3632 93.428 56.8517 99.9853 68.3734 99.9853C79.895 99.9853 85.9141 93.1923 84.599 86.173C83.6926 81.3371 82.2316 77.6836 80.9667 74.99Z" stroke="#152633" stroke-width="2"/>
<path d="M61.9106 94.7008C61.9146 94.7277 61.9194 94.7546 61.925 94.7816C61.9259 94.7556 61.9276 94.7295 61.93 94.7035C61.9236 94.7026 61.9171 94.7017 61.9106 94.7008Z" fill="#EDEDED"/>
<path d="M63.0989 96.1943C63.1626 96.6286 63.4322 97.025 63.8556 97.232C64.3883 97.4924 65.0069 97.3759 65.4103 96.9862C65.8137 97.3759 66.4322 97.4924 66.965 97.232C67.4934 96.9737 67.7822 96.4203 67.7303 95.8664C68.2819 95.7937 68.7566 95.3867 68.8891 94.8114C69.0222 94.2337 68.771 93.657 68.3033 93.3502C68.5932 92.8683 68.568 92.2363 68.1942 91.7736C67.9682 91.4939 67.6552 91.3262 67.3258 91.2781C67.3709 91.5905 67.3079 91.9132 67.143 92.1873C67.6107 92.4941 67.8619 93.0708 67.7288 93.6485C67.5963 94.2238 67.1217 94.6308 66.57 94.7035C66.622 95.2574 66.3332 95.8108 65.8047 96.0691C65.272 96.3295 64.6534 96.213 64.25 95.8233C63.9457 96.1173 63.5189 96.2558 63.0989 96.1943Z" fill="#EDEDED"/>
<path fill-rule="evenodd" clip-rule="evenodd" d="M62.9626 90.1694C63.1565 89.6453 63.6598 89.2719 64.2501 89.2719C64.8405 89.2719 65.3438 89.6453 65.5376 90.1694C66.0637 89.9958 66.6649 90.1537 67.0341 90.6107C67.4079 91.0733 67.4331 91.7053 67.1431 92.1873C67.6108 92.494 67.862 93.0707 67.7289 93.6484C67.5964 94.2237 67.1218 94.6308 66.5701 94.7034C66.6221 95.2574 66.3333 95.8107 65.8048 96.069C65.2721 96.3295 64.6535 96.2129 64.2501 95.8232C63.8468 96.2129 63.2282 96.3295 62.6954 96.069C62.167 95.8107 61.8782 95.2574 61.9301 94.7034C61.3785 94.6308 60.9039 94.2237 60.7713 93.6484C60.6383 93.0707 60.8894 92.494 61.3571 92.1873C61.0672 91.7053 61.0924 91.0733 61.4662 90.6107C61.8354 90.1537 62.4366 89.9958 62.9626 90.1694Z" fill="#2D3B45" stroke="#152633" stroke-width="2"/>
<path d="M60.7505 93.5378C60.7544 93.5647 60.7592 93.5917 60.7648 93.6186C60.7657 93.5926 60.7674 93.5666 60.7699 93.5405C60.7634 93.5397 60.7569 93.5388 60.7505 93.5378Z" fill="#28343D"/>
<path d="M61.9387 95.0313C62.0025 95.4657 62.272 95.862 62.6954 96.069C63.2282 96.3295 63.8468 96.2129 64.2501 95.8232C64.6535 96.2129 65.2721 96.3295 65.8048 96.069C66.3333 95.8107 66.6221 95.2574 66.5701 94.7034C67.1218 94.6308 67.5964 94.2237 67.7289 93.6484C67.862 93.0707 67.6108 92.494 67.1431 92.1872C67.4331 91.7053 67.4079 91.0733 67.0341 90.6107C66.808 90.3309 66.4951 90.1632 66.1656 90.1151C66.2107 90.4275 66.1478 90.7502 65.9829 91.0243C66.4506 91.3311 66.7017 91.9078 66.5687 92.4855C66.4362 93.0608 65.9615 93.4679 65.4099 93.5405C65.4618 94.0945 65.173 94.6478 64.6446 94.9061C64.1118 95.1666 63.4932 95.05 63.0899 94.6603C62.7856 94.9543 62.3588 95.0928 61.9387 95.0313Z" fill="#28343D"/>
<path fill-rule="evenodd" clip-rule="evenodd" d="M62.9626 90.1694C63.1565 89.6453 63.6598 89.2719 64.2501 89.2719C64.8405 89.2719 65.3438 89.6453 65.5376 90.1694C66.0637 89.9958 66.6649 90.1537 67.0341 90.6107C67.4079 91.0733 67.4331 91.7053 67.1431 92.1873C67.6108 92.494 67.862 93.0707 67.7289 93.6484C67.5964 94.2237 67.1218 94.6308 66.5701 94.7034C66.6221 95.2574 66.3333 95.8107 65.8048 96.069C65.2721 96.3295 64.6535 96.2129 64.2501 95.8232C63.8468 96.2129 63.2282 96.3295 62.6954 96.069C62.167 95.8107 61.8782 95.2574 61.9301 94.7034C61.3785 94.6308 60.9039 94.2237 60.7713 93.6484C60.6383 93.0707 60.8894 92.494 61.3571 92.1873C61.0672 91.7053 61.0924 91.0733 61.4662 90.6107C61.8354 90.1537 62.4366 89.9958 62.9626 90.1694Z" stroke="#152633" stroke-width="2"/>
<path fill-rule="evenodd" clip-rule="evenodd" d="M44.4821 53.1804C43.6817 53.1448 42.7856 53.0013 41.8224 52.6755C38.1185 51.4218 37.9416 48.1891 37.7848 47.1609C37.628 46.1328 37.6066 40.5828 42.0058 41.3657C44.847 41.8713 46.9712 43.0273 48.9306 43.9811C46.8861 46.7674 45.3804 49.9107 44.4821 53.1804Z" fill="#2D3B45" stroke="#152633" stroke-width="2"/>
<path d="M40.6621 50.3496C41.6253 50.6755 42.5214 50.819 43.3218 50.8546C44.0809 48.0913 45.274 45.4182 46.8595 42.9746C47.3538 43.2045 47.8292 43.4391 48.2926 43.6678C48.5076 43.7739 48.72 43.8787 48.9305 43.9811C46.886 46.7674 45.3803 49.9107 44.482 53.1804C43.6816 53.1448 42.7855 53.0013 41.8223 52.6754C39.2731 51.8126 38.3946 50.0123 38.0435 48.6385C38.6227 49.3225 39.4552 49.9411 40.6621 50.3496Z" fill="#28343D"/>
<path fill-rule="evenodd" clip-rule="evenodd" d="M44.4821 53.1804C43.6817 53.1448 42.7856 53.0013 41.8224 52.6755C38.1185 51.4218 37.9416 48.1891 37.7848 47.1609C37.628 46.1328 37.6066 40.5828 42.0058 41.3657C44.847 41.8713 46.9712 43.0273 48.9306 43.9811C46.8861 46.7674 45.3804 49.9107 44.4821 53.1804Z" stroke="#152633" stroke-width="2"/>
<path fill-rule="evenodd" clip-rule="evenodd" d="M42.9292 58.2105C42.9292 70.4571 53.4314 77.0027 67.8691 77.0027C82.3069 77.0027 94.011 69.6125 94.011 58.6328C94.011 44.9891 82.3069 31.817 67.8691 31.817C53.4314 31.817 42.9292 45.3305 42.9292 58.2105Z" fill="white"/>
<path d="M46.8638 69.3665C51.3298 73.2464 58.1246 75.2583 66.129 75.2583C80.5667 75.2583 92.2708 67.8682 92.2708 56.8885C92.2708 50.2256 89.4796 43.6752 84.9419 38.7164C90.4959 43.8199 94.0112 51.1555 94.0112 58.6328C94.0112 69.6125 82.3071 77.0027 67.8694 77.0027C58.7411 77.0027 51.186 74.3862 46.8638 69.3665Z" fill="#EDEDED"/>
<path fill-rule="evenodd" clip-rule="evenodd" d="M42.9292 58.2105C42.9292 70.4571 53.4314 77.0027 67.8691 77.0027C82.3069 77.0027 94.011 69.6125 94.011 58.6328C94.011 44.9891 82.3069 31.817 67.8691 31.817C53.4314 31.817 42.9292 45.3305 42.9292 58.2105Z" stroke="#152633" stroke-width="2"/>
<path fill-rule="evenodd" clip-rule="evenodd" d="M87.0676 54.0571C88.0278 53.6578 89.0564 53.0843 90.0864 52.2587C94.0466 49.0832 93.2546 43.7908 92.9906 42.4677C92.7266 41.1446 91.1424 34.7936 86.1261 37.7045C82.8863 39.5843 81.0196 41.8844 79.0532 43.9185C82.3164 46.6986 86.1261 51.4411 87.0676 54.0571Z" fill="#2D3B45"/>
<path d="M89.5062 49.9329C88.4763 50.7586 87.4477 51.332 86.4874 51.7313C85.6868 49.5068 82.8122 45.7445 79.9633 42.9589C79.6587 43.2834 79.3571 43.6042 79.0532 43.9186C82.3164 46.6986 86.1261 51.4411 87.0676 54.0571C88.0278 53.6578 89.0564 53.0844 90.0864 52.2588C94.0466 49.0833 93.2546 43.7908 92.9906 42.4677C92.9251 42.1396 92.7784 41.5023 92.5184 40.7737C92.7957 42.6963 92.9946 47.1359 89.5062 49.9329Z" fill="#28343D"/>
<path fill-rule="evenodd" clip-rule="evenodd" d="M86.9113 54.1579C87.8716 53.7586 88.9002 53.1852 89.9301 52.3596C93.8904 49.1841 93.0984 43.8916 92.8343 42.5685C92.5703 41.2454 90.9862 34.8944 85.9698 37.8053C82.7301 39.6852 80.8634 41.9852 78.897 44.0194C82.1602 46.7994 85.9698 51.5419 86.9113 54.1579Z" stroke="#152633" stroke-width="2"/>
<path fill-rule="evenodd" clip-rule="evenodd" d="M96.7108 18.4436L96.0146 10.2451L123.977 1L96.7108 18.4436Z" fill="#EBEDEE" stroke="#152633" stroke-width="2" stroke-linecap="round" stroke-linejoin="round"/>
<path fill-rule="evenodd" clip-rule="evenodd" d="M96.7109 18.4436L98.7994 13.036L113.245 6.40747L109.068 11.2917L96.7109 18.4436Z" fill="#C7CDD1" stroke="#152633" stroke-width="2" stroke-linecap="round" stroke-linejoin="round"/>
<path fill-rule="evenodd" clip-rule="evenodd" d="M98.9736 13.0361L123.977 1L106.457 18.9669L98.9736 13.0361Z" fill="white" stroke="#152633" stroke-width="2" stroke-linecap="round" stroke-linejoin="round"/>
<path fill-rule="evenodd" clip-rule="evenodd" d="M95.8408 10.2451L89.7495 5.53534L123.977 1L95.8408 10.2451Z" fill="white" stroke="#152633" stroke-width="2" stroke-linecap="round" stroke-linejoin="round"/>
<path d="M97.7694 56.2765L96.8129 55.6182C97.7067 54.3137 98.605 53.0435 99.5071 51.8079L100.443 52.4947C99.5482 53.7209 98.6566 54.9815 97.7694 56.2765ZM104.675 46.9889L103.775 46.2556C104.774 45.0231 105.776 43.8337 106.779 42.6878L107.651 43.455C106.657 44.5897 105.665 45.7678 104.675 46.9889ZM112.39 38.3811L111.571 37.5578C112.703 36.4264 113.833 35.3527 114.96 34.3375L115.735 35.2023C114.623 36.204 113.508 37.2638 112.39 38.3811ZM121.071 30.8176L120.38 29.8829C121.685 28.9146 122.978 28.0318 124.253 27.236L124.866 28.2233C123.618 29.0024 122.351 29.8675 121.071 30.8176ZM130.951 25.0467L130.508 23.9719C132.067 23.3261 133.574 22.8361 135.014 22.5036L135.274 23.6368C133.899 23.9545 132.453 24.4247 130.951 25.0467ZM141.944 23.4272L142.205 22.2939C143.95 22.6968 145.418 23.4831 146.54 24.6181L145.716 25.4367C144.753 24.4631 143.482 23.7822 141.944 23.4272ZM147.84 31.4139L149 31.4232C148.988 32.8949 148.739 34.4873 148.253 36.1749L147.139 35.8525C147.596 34.2629 147.829 32.775 147.84 31.4139ZM144.416 42.1447L145.426 42.7168C144.694 44.0157 143.852 45.3418 142.903 46.6894L141.955 46.0183C142.883 44.7021 143.704 43.4089 144.416 42.1447ZM137.631 51.4444L138.498 52.217C137.496 53.3463 136.427 54.4828 135.291 55.6246L134.469 54.8033C135.59 53.6772 136.644 52.5568 137.631 51.4444ZM129.392 59.5444L130.153 60.4218C129.008 61.4203 127.815 62.4195 126.574 63.4184L125.847 62.5116C127.077 61.5222 128.258 60.5328 129.392 59.5444ZM120.309 66.7332L120.988 67.6761C119.752 68.5701 118.48 69.4622 117.17 70.3518L116.519 69.3891C117.819 68.5059 119.083 67.6205 120.309 66.7332ZM110.674 73.1868L111.286 74.1748C109.988 74.9824 108.66 75.7869 107.302 76.5878L106.714 75.5856C108.064 74.7892 109.384 73.9895 110.674 73.1868ZM100.68 79.0116L101.236 80.0323C99.8925 80.7671 98.5239 81.4982 97.1299 82.2254L96.5943 81.1938C97.9815 80.4702 99.3434 79.7427 100.68 79.0116ZM90.3986 84.3226L90.9092 85.3669C89.5062 86.056 88.1122 86.7292 86.7273 87.3864L86.2308 86.3354C87.6109 85.6804 89.0003 85.0094 90.3986 84.3226ZM79.8991 89.258L80.3728 90.3196C78.9394 90.9622 77.5172 91.5868 76.1065 92.1932L75.6492 91.1244C77.0544 90.5204 78.4711 89.8982 79.8991 89.258ZM69.2392 93.7865L69.6697 94.8664C68.2115 95.4503 66.7676 96.0134 65.3383 96.5557L64.9276 95.4681C66.3502 94.9283 67.7876 94.3678 69.2392 93.7865ZM58.4043 97.8334L58.7822 98.9329C57.2918 99.4475 55.8203 99.9374 54.3681 100.403L54.0148 99.295C55.4587 98.8324 56.9221 98.3452 58.4043 97.8334ZM47.3627 101.291L47.6737 102.412C46.146 102.838 44.6443 103.234 43.1697 103.599L42.8913 102.47C44.3548 102.107 45.8456 101.714 47.3627 101.291ZM36.1134 103.971L36.3335 105.113C34.7621 105.418 33.2296 105.682 31.7379 105.907L31.5652 104.757C33.0408 104.535 34.5575 104.273 36.1134 103.971ZM24.6943 105.532L24.7761 106.692C23.1488 106.807 21.5878 106.865 20.0964 106.865L20.096 105.702C21.5597 105.702 23.0936 105.645 24.6943 105.532ZM13.2382 105.217L13.0592 106.366C11.3749 106.102 9.83547 105.735 8.449 105.268L8.81896 104.166C10.1407 104.611 11.6166 104.963 13.2382 105.217ZM3.14838 100.779L2.29978 101.572C1.13199 100.317 0.359242 98.8594 0 97.231L1.13289 96.9799C1.44698 98.4037 2.12075 99.6742 3.14838 100.779ZM1.84334 90.4173L0.755747 90.0122C1.26429 88.6406 1.9677 87.2149 2.86313 85.7431L3.85373 86.3486C2.99555 87.7591 2.32492 89.1183 1.84334 90.4173ZM7.96908 80.8113L7.09438 80.0473C8.07085 78.9243 9.14174 77.7843 10.3055 76.63L11.1216 77.4566C9.97774 78.5912 8.92638 79.7103 7.96908 80.8113ZM16.2634 72.7779L15.5171 71.8875C16.6699 70.9168 17.8821 69.9398 19.1529 68.9576L19.8614 69.8785C18.6033 70.8509 17.4037 71.8178 16.2634 72.7779ZM25.477 65.7717L24.8164 64.8157C26.0629 63.9504 27.3519 63.0829 28.6829 62.214L29.3162 63.1884C27.9943 64.0514 26.7144 64.9127 25.477 65.7717ZM35.2272 59.4871L34.6302 58.49C35.9361 57.7045 37.2749 56.9188 38.646 56.1335L39.2217 57.1431C37.8577 57.9244 36.526 58.7059 35.2272 59.4871Z" fill="#008EE2"/>
<path d="M79.3429 30.5539L78.6914 29.5916L82.5317 26.9797L83.1832 27.942L79.3429 30.5539ZM88.9437 24.0241L88.2922 23.0618L92.1326 20.45L92.784 21.4122L88.9437 24.0241Z" fill="#008EE2"/>
</svg>
