<?xml version="1.0" standalone="no"?>
<!DOCTYPE svg PUBLIC "-//W3C//DTD SVG 1.1//EN" "http://www.w3.org/Graphics/SVG/1.1/DTD/svg11.dtd" >
<!--
2016-9-2: Created with FontForge (http://fontforge.org)
-->
<svg xmlns="http://www.w3.org/2000/svg" xmlns:xlink="http://www.w3.org/1999/xlink" version="1.1">
<metadata>
Created by FontForge 20150504 at Fri Sep  2 12:34:17 2016
 By Pam Hiett
Copyright (c) 2016, Pam Hiett
</metadata>
<defs>
<font id="canvas-icons" horiz-adv-x="512" >
  <font-face 
    font-family="canvas-icons"
    font-weight="400"
    font-stretch="normal"
    units-per-em="512"
    panose-1="2 0 5 3 0 0 0 0 0 0"
    ascent="448"
    descent="-64"
    bbox="-1.71191 -64.416 513.729 449.392"
    underline-thickness="25.6"
    underline-position="-51.2"
    unicode-range="U+0020-F1BE"
  />
    <missing-glyph />
    <glyph glyph-name="space" unicode=" " horiz-adv-x="200" 
 />
    <glyph glyph-name="uniF182" unicode="&#xf182;" 
d="M25.6797 194.304c0 0 121.952 138.721 191.92 197.152v-116.832s266.721 0 266.721 -272.64c0 0 -99.4727 195.888 -266.721 116.848v-116.832c-11.9512 0 -191.92 192.32 -191.92 192.32v-0.0166016z" />
    <glyph glyph-name="uniF16F" unicode="&#xf16f;" 
d="M256.192 413.056h-0.0322266c125.488 0 227.248 -101.744 227.248 -227.248c0 -125.487 -101.76 -227.248 -227.248 -227.248s-227.216 101.761 -227.216 227.248c0 125.488 101.744 227.248 227.248 227.248zM256.192 15.3438h-0.0322266
c94.1279 0 170.448 76.3203 170.448 170.448s-76.3203 170.448 -170.448 170.448s-170.416 -76.3203 -170.416 -170.464c0 -94.1445 76.3037 -170.433 170.448 -170.433zM142.592 157.376v56.7998h227.248v-56.7998h-227.248z" />
    <glyph glyph-name="uniF197" unicode="&#xf197;" 
d="M75.9521 421.552l0.015625 -0.015625h360.097v-164.176l-12.3203 13.2314c-6.1123 24.3359 -13.0078 41.7441 -20.4805 52.3838c-7.47168 10.6406 -17.7598 18.9922 -30.7998 25.3281c-7.26367 3.44043 -16.5283 6.68848 -34.7197 6.68848h-32.6885l0.240234 -302.08
c0 -19.9365 1.16797 -32.1602 3.36035 -37.1201c2.19141 -4.97559 6.60742 -9.34375 13.0234 -13.0723c6.41602 -3.72754 15.3604 -5.59961 26.4805 -5.59961l23.04 -1.28027v-33.4082h-230.4v34.1279h33.4727c11.3115 0 15.8711 2.95996 22.752 6.95996
c4.99121 2.68848 8.99121 6.91211 11.8721 13.4404c2.11133 4.5918 -1.53613 24.752 -1.53613 44.2725v293.76h-33.0879c-26.2402 0 -35.9521 -7.05664 -47.792 -18.1758c-16.6729 -15.5049 -27.2969 -37.3926 -31.6807 -66.1445l-18.8477 -13.2803v164.16z" />
    <glyph glyph-name="uniF1BC" unicode="&#xf1bc;" 
d="M256 221.527c-14.0615 0 -25.5195 -11.458 -25.5195 -25.5205v-41.5977h51.0391v41.5977c0 14.0625 -11.458 25.5205 -25.5195 25.5205zM358.081 26.7979v127.602h-25.5215v41.5977c0 42.2363 -34.3496 76.5596 -76.5596 76.5596
c-42.2109 0 -76.5605 -34.3232 -76.5605 -76.5596v-41.5986h-25.5205v-127.601h204.162zM460.162 333.04c28.1738 0 51.04 -22.8662 51.04 -51.04v-255.203c0 -28.1738 -22.8662 -51.04 -51.04 -51.04h-408.324c-28.1738 0 -51.04 22.8662 -51.04 51.041v357.283
c0 14.1133 11.4072 25.5195 25.5205 25.5195h147.098c17.4053 -0.00390625 37.8594 -12.6377 45.6562 -28.1992l36.9277 -48.3613h204.162z" />
    <glyph glyph-name="uniF131" unicode="&#xf131;" 
d="M384.752 63.7441v96.1914h-160.32v96.1924h160.32v64.1279c58.7676 -48.0957 128.256 -128.256 128.256 -128.256s-117.552 -128.256 -128.256 -128.256zM320.64 368.32c0 0 -1.55176 16.0479 -16.0479 16.0479h-176.319v-64.1279
c0 -33.5684 -32.0801 -32.0645 -32.0801 -32.0645h-64.1279v-272.496s1.55176 -16.0312 16.0312 -16.0312h256.48c14.4795 0 16.0479 16.0312 16.0479 16.0312l0.576172 111.712h31.4717v-127.743c-0.00878906 -17.6914 -14.373 -32.0557 -32.0635 -32.0645h-288.561
c-17.6729 0.00878906 -32.0303 14.3594 -32.0479 32.0322v320.64l96.1924 96.1602h224.447c17.6807 0 32.0488 -14.3516 32.0488 -32.0479v-96.208h-32.0488v80.1602z" />
    <glyph glyph-name="uniF156" unicode="&#xf156;" 
d="M429.984 307.968l0.03125 0.0322266c0.0322266 0.0478516 0.0322266 0.0957031 0.0488281 0.160156c-0.0488281 -0.0800781 -0.0488281 -0.160156 -0.0966797 -0.208008zM238.432 350.72h-0.03125c32.2559 0 59.8877 -27.04 71.1514 -65.168h-142.24
c11.2324 38.1279 38.8643 65.168 71.1201 65.168zM196.272 303.008h-0.0322266h84.3193c-2.17578 3.52051 -4.51172 6.7998 -7.07129 9.75977h-70.1445c-2.52734 -2.94336 -4.89551 -6.23926 -7.07129 -9.75977zM292.528 134.368l0.0478516 -0.0322266
c2.7998 -4.6875 4.44824 -9.37598 4.95996 -14.0801s0.767578 -8.86426 0.767578 -12.5439c0 -3.23145 -0.81543 -7.34375 -2.43164 -12.2402c-1.61621 -4.89551 -4.52832 -9.69531 -8.68848 -14.3994c-4.19141 -4.7041 -9.79199 -8.87988 -16.832 -12.5439
s-16.0635 -5.87207 -27.0713 -6.6084v-18.7197h-13.0078v18.7197c-16.4482 1.16797 -29.2969 6.25586 -38.5283 15.2002c-9.23242 8.94434 -14.6084 22.0801 -16.0479 39.4082h31.04c-0.144531 -8.36816 2.06348 -14.96 6.60742 -19.8086
c4.54395 -4.84766 10.208 -7.93555 16.9287 -9.24805v45.9844c-1.90039 0.701172 -5.05371 1.59082 -7.04004 1.98438c-5.44043 1.45605 -10.8008 3.18359 -16.0801 5.16797c-5.28027 1.9834 -10 4.63965 -14.1924 7.93555
c-4.17578 3.2959 -7.51953 7.3916 -10.0156 12.3203c-2.49609 4.92773 -3.74414 11.04 -3.74414 18.3682c0 7.4873 1.3916 14.1436 4.27148 19.8398c2.87988 5.69531 6.65625 10.5117 11.3604 14.3994c4.6875 3.88867 10.1279 6.92871 16.2881 9.04004
c6.16016 2.1123 12.5439 3.4082 19.1523 3.83984v16.96h12.9912v-16.96c6.59277 -0.751953 12.8008 -2.12793 18.5928 -4.27148c5.79199 -2.14453 10.8955 -5.07227 15.2959 -8.7998c4.38379 -3.74414 8.01562 -8.41602 10.7832 -13.9844
c2.76855 -5.56836 4.40039 -12.1758 4.84863 -19.8076h-31.2646c-0.143555 5.85547 -1.96777 10.8955 -5.4873 14.9756c-3.52051 4.08008 -7.79199 6.16016 -12.7998 6.16016v-38.96l5.3916 -1.32812c1.82422 -0.431641 3.74414 -0.944336 5.82422 -1.55176
c10.8477 -2.91211 19.2158 -6.56055 25.0879 -10.8799c5.87207 -4.32031 10.208 -8.83203 12.9922 -13.5361zM230.24 164.768v35.8887c-2.49609 0 -4.87988 -0.383789 -7.24805 -1.12012s-4.48047 -1.87207 -6.40039 -3.4082
c-1.90332 -1.53613 -3.4082 -3.45605 -4.51172 -5.72754c-1.10449 -2.27246 -1.64844 -4.94434 -1.64844 -8.03223c0 -4.83203 1.52051 -8.5918 4.6084 -11.2324c3.08789 -2.63965 8.16016 -4.76758 15.2002 -6.36816zM264.8 99.9199h0.0166016
c1.45605 2.56055 2.19141 5.59961 2.19141 9.12012c0 5.72754 -1.79199 10 -5.3916 12.8799c-3.60059 2.87988 -9.72852 5.47168 -18.4004 7.83984v-42.3037c2.65625 0.271484 5.37598 0.912109 8.25586 1.87207c2.86426 0.959961 5.48828 2.33594 7.72852 4.0957
s4.12793 3.93652 5.59961 6.49609zM456.528 421.552c15.0879 0 27.3115 -12.2402 27.3115 -27.3115v-402.769c0 -15.0879 -12.2236 -27.3115 -27.3115 -27.3115h-402.769c-15.0879 0 -27.3115 12.2236 -27.3115 27.3115v402.769c0 15.0879 12.2402 27.3115 27.3115 27.3115
h402.769zM440.848 38.5439l-0.015625 -0.015625c0.015625 0.111328 0.0478516 0.175781 0.0478516 0.271484l-10.7197 269.809l-0.0322266 -0.0644531c0.112305 2.43164 -9.75977 4.24023 -24.3203 4.24023h-62.6553c1.19922 -3.2002 2.33594 -6.43262 3.35938 -9.75977
h61.4404l-17.6641 -13.8408c-2.92773 -1.34375 -15.5996 -3.61523 -31.7285 -3.61523h-27.5674c-12.0645 53.4395 -48.9766 92.4795 -92.5762 92.4795s-80.5117 -39.04 -92.5596 -92.4795h-50.4004c-0.719727 0 -1.45605 0 -2.16016 0.03125l17.6797 13.8408
c2.1123 0.959961 9.3125 2.41602 19.2002 3.13574c0.857422 2.79395 2.3916 7.28125 3.42383 10.0156c-13.4395 -0.671875 -25.1992 -2.75195 -28.3193 -5.2002l-33.3926 -26.1592c-0.655273 -0.512695 -0.879883 -0.992188 -0.719727 -1.47266
c-0.015625 0.0800781 -0.0644531 0.144531 -0.0644531 0.240234l5.3125 -134.864c1.77637 -44.96 3.58398 -89.9199 5.34375 -134.88c0.00683594 -0.12793 0.0644531 -0.321289 0.12793 -0.431641c0.0478516 -0.0800781 0.112305 -0.12793 0.160156 -0.160156
c0.0576172 -0.0957031 0.165039 -0.238281 0.240234 -0.320312l0.255859 -0.160156l0.368164 -0.255859l0.320312 -0.160156l0.479492 -0.223633c0.121094 -0.0517578 0.322266 -0.123047 0.448242 -0.160156l0.55957 -0.191406l0.543945 -0.160156l0.671875 -0.208008
c0.174805 -0.0517578 0.461914 -0.123047 0.640625 -0.160156c0.206055 -0.0517578 0.542969 -0.124023 0.751953 -0.160156l0.751953 -0.12793l0.847656 -0.160156c0.112305 -0.015625 0.160156 -0.0634766 0.320312 -0.0634766l0.479492 -0.0644531l1.16895 -0.160156
c0.15918 -0.015625 0.319336 -0.0634766 0.479492 -0.0634766l0.416016 -0.0644531l0.799805 -0.0957031l0.576172 -0.0800781c0.175781 -0.015625 0.368164 -0.0478516 0.576172 -0.0478516c0.223633 -0.0166016 0.463867 -0.0644531 0.704102 -0.0644531
l0.383789 -0.03125c0.368164 -0.0488281 0.767578 -0.0644531 1.16797 -0.0966797c0.0957031 -0.0322266 0.208008 -0.0322266 0.320312 -0.0322266h0.03125l1.50488 -0.0957031c0.12793 -0.0322266 0.255859 -0.0322266 0.416016 -0.0322266
c0.175781 -0.03125 0.335938 0 0.543945 -0.03125c0.208008 -0.0322266 0.367188 -0.0322266 0.527344 -0.0322266l1.47266 -0.0644531h0.367188l1.12012 -0.0478516h0.959961c0.112305 -0.0322266 0.208008 -0.0322266 0.320312 -0.0322266h266.272l1.3916 0.0322266
h1.28027c0.431641 0.0322266 0.832031 0.0322266 1.23145 0.0322266c0.383789 0.015625 0.78418 0.015625 1.15234 0.0478516h1.10352c0.368164 0.015625 0.720703 0.0478516 1.08789 0.0478516l1.07227 0.0478516l0.400391 0.0488281h0.223633
c0.144531 0.03125 0.303711 0.03125 0.432617 0.03125l1.21582 0.0644531c0.431641 0.015625 0.81543 0.0634766 1.23145 0.0634766h0.0966797l1.83984 0.160156c0.111328 0.0322266 0.208008 0.0322266 0.319336 0.0322266
c1.4082 0.112305 2.76855 0.240234 4.09668 0.400391h0.255859l1.31152 0.15918l0.800781 0.112305h0.223633l1.91992 0.255859c0.0644531 0.0322266 0.12793 0.0322266 0.192383 0.0322266l0.575195 0.0957031c0.400391 0.0322266 0.816406 0.112305 1.2002 0.192383
c0.160156 0.0322266 0.288086 0.0800781 0.448242 0.0800781l0.927734 0.160156l0.671875 0.0957031l0.640625 0.112305l0.799805 0.160156l0.480469 0.0957031l0.879883 0.191406l0.543945 0.128906c0.0478516 0.015625 0.12793 0.0478516 0.208008 0.0478516
c0.355469 0.0791016 0.928711 0.222656 1.2793 0.319336l0.160156 0.0478516l0.288086 0.0966797c0.178711 0.0361328 0.46582 0.108398 0.640625 0.160156l0.735352 0.223633l0.160156 0.0478516h0.0478516c0.22168 0.0859375 0.580078 0.229492 0.799805 0.320312
l0.432617 0.160156c0.0478516 0.015625 0.0800781 0.0478516 0.12793 0.0478516l0.12793 0.0478516c0.208008 0.112305 0.431641 0.175781 0.591797 0.272461c0.12793 0.0478516 0.272461 0.15918 0.320312 0.15918l0.111328 0.0488281l0.0966797 0.0478516
l0.448242 0.255859l0.271484 0.191406l33.376 26.1602l0.0957031 0.0800781c0.15625 0.125 0.371094 0.361328 0.480469 0.52832c0 0.0322266 0.0322266 0 0.0322266 0.0322266v0.03125c0.0478516 0.112305 0.111328 0.208008 0.111328 0.320312z" />
    <glyph glyph-name="uniF128" unicode="&#xf128;" horiz-adv-x="511" 
d="M160 416.48h64v-64h-64v64zM160 288.48h64v-64h-64v64zM160 160.48h64v-64h-64v64zM160 32.4805h64v-64h-64v64zM288 416.48h64v-64h-64v64zM288 288.48h64v-64h-64v64zM288 160.48h64v-64h-64v64zM288 32.4805h64v-64h-64v64z" />
    <glyph glyph-name="uniF1BD" unicode="&#xf1bd;" 
d="M466 276c23.2002 0 42 -18.7998 42 -42v-210c0 -23.2002 -18.7998 -42 -42 -42h-420c-23.2002 0 -42 18.7998 -42 42v210c0 23.2002 18.7998 42 42 42h189v21c0 34.7002 28.2998 63 63 63h21c11.5996 0 21 9.40039 21 21v21h42v-21c0 -34.7002 -28.2998 -63 -63 -63h-21
c-11.5996 0 -21 -9.40039 -21 -21v-21h189zM382 213v-42h42v42h-42zM319 213v-42h42v42h-42zM382 150h-42v-42h42v42zM256 213v-42h42v42h-42zM319 150h-42v-42h42v42zM256 150h-42v-42h42v42zM193 213v-42h42v42h-42zM130 213v-42h42v42h-42zM193 150h-42v-42h42v42z
M67 213v-42h42v42h-42zM130 150h-42v-42h42v42zM109 45v42h-42v-42h42zM361 45v42h-231v-42h231zM424 45v42h-42v-42h42zM445 108v42h-42v-42h42z" />
    <glyph glyph-name="uniF188" unicode="&#xf188;" 
d="M399.28 32c8.83203 0 16 -7.16797 16 -16s-7.16797 -16 -16 -16h-160c-8.83203 0 -16 7.16797 -16 16s7.16797 16 16 16h160zM160 352c18.4004 0 32 -13.5996 32 -32v-32c0 -18.4004 -13.5996 -32 -32 -32h-32c-18.4004 0 -32 13.5996 -32 32v32
c0 18.4004 13.5996 32 32 32h32zM160 224c18.4004 0 32 -13.5996 32 -32v-32c0 -18.3682 -13.5996 -32 -32 -32h-32c-18.4004 0 -32 13.6318 -32 32v32c0 18.4004 13.5996 32 32 32h32zM399.28 160c8.83203 0 16 -7.16797 16 -16s-7.16797 -16 -16 -16h-160
c-8.83203 0 -16 7.16797 -16 16s7.16797 16 16 16h160zM160 96c18.4004 0 32 -13.6318 32 -32v-32c0 -18.3682 -13.5996 -32 -32 -32h-32c-18.4004 0 -32 13.6318 -32 32v32c0 18.3682 13.5996 32 32 32h32zM448 448c32 0 64 -32 64 -64v-384
c0 -35.3281 -28.6719 -64 -64 -64h-384c-35.3604 0 -64 32 -64 64v384c0 32 32 64 64 64h384zM480 32v320c0 32 -32 64 -64 64h-320c-32 0 -64 -32 -64 -64v-320c0 -31.3115 32.6719 -64 64 -64h320c31.3115 0 64 32.6885 64 64zM399.28 288c8.83203 0 16 -7.16797 16 -16
s-7.16797 -16 -16 -16h-160c-8.83203 0 -16 7.16797 -16 16s7.16797 16 16 16h160zM399.28 352c8.83203 0 16 -7.16797 16 -16s-7.16797 -16 -16 -16h-160c-8.83203 0 -16 7.16797 -16 16s7.16797 16 16 16h160zM399.28 224c8.83203 0 16 -7.16797 16 -16
s-7.16797 -16 -16 -16h-160c-8.83203 0 -16 7.16797 -16 16s7.16797 16 16 16h160zM399.28 96c8.83203 0 16 -7.16797 16 -16s-7.16797 -16 -16 -16h-160c-8.83203 0 -16 7.16797 -16 16s7.16797 16 16 16h160z" />
    <glyph glyph-name="uniF1A1" unicode="&#xf1a1;" 
d="M348.8 254.08l-66.7842 -66.7842l68.0801 -68.0957l-27.2959 -27.2959l-68.0801 68.0957l-66.8154 -66.7998l-24.7041 24.7197l66.7998 66.7842l-68.0801 68.0957l27.2959 27.2959l68.0801 -68.0957l66.7998 66.7998zM256 413.568v-0.0166016
c125.632 0 227.552 -101.903 227.552 -227.552c0 -125.632 -101.92 -227.552 -227.552 -227.552s-227.552 101.936 -227.552 227.567c0 125.633 101.903 227.553 227.552 227.553zM256 15.3604c94.2402 0 170.656 76.3838 170.656 170.64s-76.416 170.64 -170.656 170.64
s-170.656 -76.3838 -170.656 -170.64s76.416 -170.64 170.656 -170.64z" />
    <glyph glyph-name="uniF104" unicode="&#xf104;" 
d="M448 415.936c0 0 32 32 32 0v-320c0 -32 -32 0 -32 0c-96 96 -224 96 -224 96s-32 0 -32 32v64s0 32 32 32c0 0 128.992 -0.991211 224 96zM160 223.936v-32h-96c-32 0 -32 32 -32 32v64c0 32 32 32 32 32h96v-96zM245.328 138.944l-21.3281 -20.8643
c-0.480469 -34.9922 0 -140.4 0 -140.4s21.3115 0.0322266 21.3115 -20.7998c0 -20.8799 -21.792 -20.8799 -21.792 -20.8799h-82.623c-18.3369 0 -13.2324 20.8643 -13.2324 20.8643v161.248c0 17.6953 -18.6396 23.1201 -18.6396 23.1201
c-2.7207 -2.28809 -2.7207 18.5596 -2.7207 18.5596s96.3525 0 139.008 -20.8477h0.0166016z" />
    <glyph glyph-name="uniF11C" unicode="&#xf11c;" 
d="M416 0l0.223633 192.32l63.7764 63.6797v-256c0 -32 -32 -64 -64 -64l-351.776 0.320312c-32 0 -64 32 -64 64l-0.223633 383.68c0 32 32 64 64 64h288l-64 -64h-224v-384h352zM502.752 398.336c20.0322 -19.3281 0.719727 -33.8242 0.719727 -33.8242l-38.3994 -37.8398
l-75.6006 72.4805l39.5205 41.0557c20.7197 20 38.3994 -3.28027 38.3994 -3.28027zM436.608 307.68l-208.881 -199.68l-75.8398 62.9756l209.28 205.601l75.4717 -68.8965h-0.03125zM112.224 47.7598l10.4326 94.3525l81.2002 -61.8398l-91.6162 -32.5127h-0.0166016z" />
    <glyph glyph-name="uniF142" unicode="&#xf142;" 
d="M416.272 23.9355c0 -12.5596 -0.112305 -48.9111 -0.112305 -48.9111s-85.1201 -0.640625 -160.16 -0.640625h-159.568v49.7598c0 45.6641 58 80.208 128.4 87.0723c-22.7998 16.1924 -38.7676 48.9922 -38.7676 87.248c0 54.208 31.2959 98.1602 70.0156 98.1602
s70.0801 -43.9521 70.0801 -98.1602c0 -38.624 -16.0957 -71.6797 -39.2324 -87.6797c67.9365 -7.74414 129.345 -42.2402 129.345 -86.8486zM398.304 253.76l-0.015625 -0.0322266c53.9043 -6.28711 82.1279 -33.5195 82.1279 -69.2793v-47.9043h-112.224
c-3.80859 0 -7.71191 -0.0478516 -11.6162 0.0478516c6.41211 16.8477 11.6172 45.1514 11.6172 63.1787c0 0.182617 -0.000976562 0.478516 -0.000976562 0.661133c0 53.376 -22.5605 100 -56.0801 124.96c0.271484 46.1279 25.248 83.4561 56.0801 83.4561
c31.0078 0 56.0957 -37.6797 56.0957 -84.1592c0 -29.8086 -10.3838 -55.9844 -25.9844 -70.9287zM87.6797 324.672l0.0166016 0.0166016c0 46.4795 25.1201 84.1592 56.1113 84.1592c30.8008 0 55.8086 -37.248 56.0801 -83.3594
c-33.5195 -24.96 -56.0801 -71.5205 -56.0801 -124.912c0 -0.186523 -0.000976562 -0.490234 -0.000976562 -0.676758c0 -18.0674 5.21191 -46.4365 11.6338 -63.3232c-3.95215 -0.0800781 -7.82422 -0.0322266 -11.6328 -0.0322266h-112.239v47.9043
c0 35.2637 29.6797 62.1914 82.4473 68.9922c-15.7754 14.8799 -26.3359 41.1836 -26.3359 71.2314z" />
    <glyph glyph-name="uniF15D" unicode="&#xf15d;" 
d="M320 320v-256l-128 128z" />
    <glyph glyph-name="uniF121" unicode="&#xf121;" 
d="M416 416c64 0 96 -32 96 -96v-192c0 -64 -32 -96 -96 -96h-192l-128 -96v96c-64 0 -96 32 -96 96v192c0 64 32 96 96 96h320zM128 192.288c17.6641 0 32 14.3359 32 32s-14.3359 32 -32 32s-32 -14.3359 -32 -32s14.3359 -32 32 -32zM256 192.288
c17.6641 0 32 14.3359 32 32s-14.3359 32 -32 32s-32 -14.3359 -32 -32s14.3359 -32 32 -32zM384 192.288c17.6641 0 32 14.3359 32 32s-14.3359 32 -32 32s-32 -14.3359 -32 -32s14.3359 -32 32 -32z" />
    <glyph glyph-name="uniF15C" unicode="&#xf15c;" 
d="M128 256h256l-128 -128z" />
    <glyph glyph-name="uniF100" unicode="&#xf100;" 
d="M256 416c123.712 0 224 -100.288 224 -224s-100.288 -224 -224 -224s-224 100.288 -224 224s100.288 224 224 224zM284 164h140v56h-140v140h-56v-140h-140v-56h140v-140h56v140z" />
    <glyph glyph-name="uniF189" unicode="&#xf189;" 
d="M448 448c32 0 64 -32 64 -64v-384c0 -35.3281 -28.6719 -64 -64 -64h-384c-35.3604 0 -64 32 -64 64v384c0 32 32 64 64 64h384zM192 48v32c0 18.3682 -13.6318 32 -32 32h-32c-18.3682 0 -32 -13.6318 -32 -32v-32c0 -18.3682 13.6318 -32 32 -32h32
c18.3682 0 32 13.6318 32 32zM192 176v32c0 18.4004 -13.6318 32 -32 32h-32c-18.3682 0 -32 -13.5996 -32 -32v-32c0 -18.3682 13.6318 -32 32 -32h32c18.3682 0 32 13.6318 32 32zM192 304v32c0 18.3682 -13.6318 32 -32 32h-32c-18.3682 0 -32 -13.5996 -32 -32v-32
c0 -18.4004 13.6318 -32 32 -32h32c18.3682 0 32 13.5996 32 32zM399.28 16c8.83203 0 16 7.16797 16 16s-7.16797 16 -16 16h-160c-8.83203 0 -16 -7.16797 -16 -16s7.16797 -16 16 -16h160zM399.28 80c8.83203 0 16 7.16797 16 16s-7.16797 16 -16 16h-160
c-8.83203 0 -16 -7.16797 -16 -16s7.16797 -16 16 -16h160zM399.28 144c8.83203 0 16 7.16797 16 16s-7.16797 16 -16 16h-160c-8.83203 0 -16 -7.16797 -16 -16s7.16797 -16 16 -16h160zM399.28 208c8.83203 0 16 7.16797 16 16s-7.16797 16 -16 16h-160
c-8.83203 0 -16 -7.16797 -16 -16s7.16797 -16 16 -16h160zM399.28 272c8.83203 0 16 7.16797 16 16s-7.16797 16 -16 16h-160c-8.83203 0 -16 -7.16797 -16 -16s7.16797 -16 16 -16h160zM399.28 336c8.83203 0 16 7.16797 16 16s-7.16797 16 -16 16h-160
c-8.83203 0 -16 -7.16797 -16 -16s7.16797 -16 16 -16h160z" />
    <glyph glyph-name="uniF114" unicode="&#xf114;" 
d="M475.2 444.8c0 -67.2002 1.59961 -94.3994 33.5996 -169.6c-83.2002 -17.6006 -214.399 -235.2 -270.399 -337.601c-80 97.6006 -171.2 179.2 -236.801 203.2l148.801 86.4004l75.1992 -144s59.2002 264 249.601 361.6z" />
    <glyph glyph-name="uniF16E" unicode="&#xf16e;" 
d="M348.912 284.48h0.0478516l-162.4 -162.368c-8.95996 -8.95996 -8.95996 -23.5205 0 -32.4805s23.5205 -8.95996 32.4805 0l194.88 194.849c26.8477 26.8477 26.8799 70.5918 0 97.4395s-70.5918 26.8477 -97.4395 0l-204.656 -204.592v-0.0478516l-0.448242 -0.416016
c-18.4355 -18.4727 -33.3975 -54.6465 -33.3975 -80.7441c0 -26.0986 14.9619 -62.2715 33.3975 -80.7441c18.4814 -18.4385 54.6689 -33.4033 80.7764 -33.4033c26.1064 0 62.2939 14.9648 80.7754 33.4033c0.12793 0.12793 0.255859 0.288086 0.416016 0.416016
l139.681 139.648l32.4795 -32.4805l-139.68 -139.648v0.0322266c-0.160156 -0.143555 -0.272461 -0.271484 -0.400391 -0.431641c-62.5596 -62.5283 -163.968 -62.5283 -226.496 0c-62.5596 62.5283 -62.5596 163.888 0 226.448
c0.112305 0.12793 0.272461 0.271484 0.432617 0.399414l204.592 204.608c18.5645 18.5703 54.9414 33.6416 81.2002 33.6416c26.2578 0 62.6357 -15.0713 81.1992 -33.6416c18.5732 -18.5586 33.6455 -54.9287 33.6455 -81.1846
c0 -26.2549 -15.0723 -62.625 -33.6455 -81.1836l-194.88 -194.848c-26.9121 -26.8799 -70.5273 -26.8965 -97.4395 0c-26.9121 26.8955 -26.9121 70.5273 0 97.4072l162.399 162.4z" />
    <glyph glyph-name="uniF13C" unicode="&#xf13c;" 
d="M64 -64v256s0.480469 32 32 32h384s32 -0.480469 32 -32v-256h-448zM32 -64l-32 32v352c0 31.5195 32 32 32 32h112c32.6396 0 32 -32 32 -32c0 -30.8799 32 -32 32 -32h256s17.2002 -1.04004 17.2002 -15.04s-1.2002 -16.96 -1.2002 -16.96h-416
c-31.1523 0 -32 -32 -32 -32v-288z" />
    <glyph glyph-name="uniF129" unicode="&#xf129;" 
d="M27.3115 191.456c0 126.08 99.4883 229.792 225.921 229.792c126.432 0 231.472 -103.712 231.472 -229.792c0 -126.432 -102.288 -228.688 -228.688 -228.688c-126.399 0 -228.672 102.24 -228.672 228.688h-0.0322266zM157.984 256l98.0156 -163.36l98.0156 163.36
h-196.031z" />
    <glyph glyph-name="uniF199" unicode="&#xf199;" 
d="M0 352h512v-32h-512v32zM0 288h352v-32h-352v32zM0 224h512v-32h-512v32zM0 160h352v-32h-352v32zM0 96h512v-32h-512v32zM0 32h352v-32h-352v32z" />
    <glyph glyph-name="uniF16C" unicode="&#xf16c;" 
d="M128 448h256v-64h-64v-448h-64v448h-64v-448h-64v256c-70.6562 0 -128 57.3438 -128 128s57.3438 128 128 128zM512 352v-256l-128 128z" />
    <glyph glyph-name="uniF198" unicode="&#xf198;" 
d="M0 352h512v-32h-512v32zM96 288h320v-32h-320v32zM96 160h320v-32h-320v32zM96 32h320v-32h-320v32zM0 224h512v-32h-512v32zM0 96h512v-32h-512v32z" />
    <glyph glyph-name="uniF157" unicode="&#xf157;" 
d="M262.624 110.928l-0.015625 -0.015625c4.15918 -3.2959 6.17578 -8.25586 6.17578 -14.8799c0 -4.08008 -0.848633 -7.58398 -2.56055 -10.5605c-1.71191 -2.97559 -3.83984 -5.4873 -6.46387 -7.51953c-2.63965 -2.03223 -5.51953 -3.58398 -8.84766 -4.7041
s-6 -1.85645 -9.4082 -2.17578v48.8955c10.2402 -2.71973 16.96 -5.72754 21.1201 -9.04004zM210.4 196.768c2.20801 1.79199 4.63965 3.10449 7.35938 3.95215c2.7207 0.848633 4.97656 1.28027 8.38379 1.28027v-41.5039
c-8.52734 1.85547 -13.9512 4.30371 -17.5352 7.36035c-3.58398 3.05566 -5.34473 7.40723 -5.34473 13.0078c0 3.55176 0.65625 6.65527 1.91992 9.2793c1.26465 2.62402 3.00879 4.86426 5.2168 6.62402zM457.52 326.912l0.0322266 0.0957031l12.3682 -312.111
c0 -0.128906 0.0322266 -0.208008 0 -0.320312s-0.0957031 -0.240234 -0.160156 -0.352539c0 -0.03125 0.0322266 -0.03125 0 -0.03125s-0.0322266 -0.0322266 -0.0322266 -0.0322266l-0.208008 -0.288086c-0.09375 -0.0917969 -0.250977 -0.235352 -0.351562 -0.320312
c-0.0322266 -0.0322266 -0.0800781 -0.0800781 -0.112305 -0.0800781l-38.6396 -30.2715l-0.320312 -0.240234l-0.527344 -0.320312l-0.12793 -0.0634766l-0.160156 -0.0957031c-0.112305 -0.0322266 -0.208008 -0.0966797 -0.320312 -0.160156l-0.704102 -0.320312
l-0.12793 -0.0322266c-0.0634766 -0.0322266 -0.112305 -0.0634766 -0.160156 -0.0634766c-0.393555 -0.165039 -1.03809 -0.416016 -1.43945 -0.560547h-0.0478516l-0.160156 -0.0478516l-0.864258 -0.271484c-0.255859 -0.0488281 -0.496094 -0.12793 -0.736328 -0.208008
l-0.319336 -0.112305l-0.192383 -0.0478516c-0.496094 -0.12793 -0.992188 -0.272461 -1.50391 -0.383789c-0.0644531 -0.0322266 -0.160156 -0.0322266 -0.223633 -0.0322266l-0.640625 -0.160156l-0.992188 -0.223633l-0.543945 -0.128906l-0.927734 -0.15918
l-0.704102 -0.160156l-0.799805 -0.160156l-1.07227 -0.160156l-0.511719 -0.0800781c-0.448242 -0.0478516 -0.927734 -0.143555 -1.37598 -0.208008l-0.671875 -0.0957031c-0.0800781 -0.0322266 -0.160156 -0.0322266 -0.240234 -0.0322266l-2.24023 -0.320312h-0.223633
l-0.927734 -0.111328l-1.52051 -0.192383h-0.288086c-1.55176 -0.160156 -3.12012 -0.288086 -4.75195 -0.399414c-0.12793 -0.0322266 -0.240234 0 -0.368164 0c-0.704102 -0.0488281 -1.40723 0.03125 -2.11133 0c-0.0644531 0 -0.112305 0.255859 -0.160156 0.255859
c-0.448242 0 -0.959961 -0.335938 -1.4082 -0.368164s-0.927734 -0.320312 -1.4082 -0.352539c-0.175781 -0.015625 -0.368164 -0.015625 -0.527344 -0.0478516h-0.272461c-0.12793 -0.0322266 -0.288086 -0.0322266 -0.448242 -0.0322266l-1.21582 -0.0791016
c-0.431641 -0.0322266 -0.864258 -0.0644531 -1.28027 -0.0644531l-0.367188 -0.0322266l-0.288086 -0.0478516c-0.208008 0 -0.416016 -0.112305 -0.608398 -0.112305c-0.448242 -0.015625 -0.895508 -0.208008 -1.32812 -0.208008
c-0.479492 -0.015625 -0.959961 -0.383789 -1.43945 -0.383789h-0.0800781c-0.0322266 0 -0.0644531 0.192383 -0.0966797 0.192383c-0.447266 0 -0.879883 0.160156 -1.35938 0.160156c-0.512695 -0.0322266 -1.05664 -0.352539 -1.60059 -0.352539h-305.04
c-0.351562 0 -0.704102 0.320312 -1.05566 0.320312c-0.576172 0 -1.13574 0.320312 -1.69629 0.320312c-0.0800781 0.03125 -0.143555 0 -0.239258 0c-0.112305 0.015625 -0.224609 -0.0322266 -0.384766 -0.0322266c-0.351562 0 -0.735352 -0.0957031 -1.12012 -0.0957031
c-0.416016 0 -0.847656 -0.160156 -1.2793 -0.160156c-0.12793 0 -0.255859 -0.384766 -0.368164 -0.384766h-0.0322266c-0.576172 0 -1.13574 0.416016 -1.69629 0.448242c-0.208008 0 -0.383789 0.368164 -0.607422 0.400391
c-0.224609 0.0322266 -0.432617 0.0322266 -0.640625 0.0322266c-0.15918 0.03125 -0.319336 0.03125 -0.479492 0.03125l-1.72852 0.112305h-0.03125l-0.432617 0.0322266c-0.447266 0.015625 -0.895508 0.0634766 -1.32812 0.0957031l-0.447266 0.0322266
l-0.799805 0.0800781c-0.208008 0.0478516 -0.448242 0.0478516 -0.640625 0.0478516l-0.671875 0.0800781l-0.912109 0.0957031l-0.479492 0.0478516c-0.176758 0.0322266 -0.368164 0.0800781 -0.52832 0.0800781l-1.36035 0.192383l-0.511719 0.0800781
l-0.416016 0.0800781l-0.959961 0.191406l-0.864258 0.160156l-0.863281 0.192383c-0.427734 0.0742188 -1.10938 0.246094 -1.52051 0.383789l-0.639648 0.192383l-0.640625 0.239258c-0.175781 0.0478516 -0.367188 0.144531 -0.527344 0.208008l-0.52832 0.255859
l-0.416016 0.224609c-0.160156 0.0800781 -0.272461 0.175781 -0.431641 0.271484l-0.288086 0.224609c-0.112305 0.0800781 -0.208008 0.191406 -0.272461 0.319336c-0.0634766 0.0488281 -0.12793 0.0966797 -0.160156 0.160156
c-0.0957031 0.175781 -0.15918 0.368164 -0.15918 0.52832l-6.17676 156.063c-2.06348 52.0488 -4.11133 104.049 -6.19141 156.049c0 -0.0966797 0.0478516 -0.176758 0.0800781 -0.256836c-0.160156 0.560547 0.0800781 1.10449 0.847656 1.68066l38.624 30.2881
c3.63184 2.83203 17.2637 5.23145 32.752 6.03125c-1.42383 -3.79199 -2.75195 -7.64746 -3.93555 -11.584c-11.4561 -0.847656 -19.7764 -2.51172 -22.2402 -3.63184l-20.4326 -15.9678c0.800781 0 1.63281 0.0644531 2.48047 0.0644531h58.2881
c13.9521 61.4395 56.7041 106.96 107.104 106.96c50.4004 0 93.1201 -45.5361 107.072 -106.992h31.8877c18.6719 0 33.3125 2.65625 36.7207 4.20801l20.4639 16.0479c-0.799805 0.015625 -1.61621 0.223633 -2.48047 0.223633h-68.5918
c-1.2002 3.4082 -2.49609 6.83203 -3.87207 10.2402h72.4805c16.8477 0 28.2393 -1.77637 28.1592 -4.5918v0.416016zM235.68 375.776c-37.3115 0 -69.2793 -31.04 -82.2715 -75.4082h164.544c-12.9922 44.3682 -44.96 75.4082 -82.2725 75.4082zM302.08 80.3682
l-0.0322266 0.015625c1.85645 5.68066 2.81641 10.4004 2.81641 14.1279c0 4.25586 -0.240234 9.05664 -0.879883 14.4961c-0.640625 5.44043 -2.5127 10.8799 -5.76074 16.3203c-3.23145 5.43945 -8.20801 10.624 -15.0078 15.6475
c-6.7998 5.02441 -16.4482 9.23242 -29.0078 12.6406c-2.36816 0.639648 -4.57617 1.26367 -6.68848 1.75977c-2.11133 0.496094 -4.38379 1.00781 -6.11133 1.52051v45.0713c5.12012 0 10.5596 -2.39941 14.6396 -7.15137s6.08008 -10.5127 6.24023 -17.3447h36.1602
c-0.512695 8.54395 -2.33594 16.4961 -5.56836 22.9443c-3.23145 6.44824 -7.36035 11.8564 -12.4482 16.208c-5.10352 4.33594 -10.9277 7.74414 -17.6318 10.1924c-6.7041 2.44727 -14.5439 4.11133 -21.376 4.95996v19.1035h-15.3594v-19.1035
c-6.83203 -0.496094 -14.9922 -2.0166 -22.1123 -4.44824s-13.3926 -5.95215 -18.7998 -10.4316c-5.44043 -4.52832 -9.79199 -10.0801 -13.1201 -16.6885s-4.95996 -14.2881 -4.95996 -22.9277c0 -8.48047 1.43945 -15.6162 4.31934 -21.2803
c2.88086 -5.66406 6.75195 -10.4004 11.584 -14.2402c4.83203 -3.82422 10.3047 -6.86328 16.416 -9.16797c6.1123 -2.30371 12.3047 -4.28809 18.5928 -5.9834c1.69531 -0.368164 3.26367 -0.751953 4.7041 -1.16797c1.43945 -0.416016 3.40723 -0.800781 3.40723 -1.12012
v-53.2646c-8.52734 1.53613 -14.3037 4.80078 -19.5674 10.4004c-5.26465 5.59961 -7.77637 14.0957 -7.61621 22.6084h-35.8877c1.67969 -18.7686 7.85547 -34.9121 18.5596 -45.2803s25.7764 -15.9199 44.5283 -17.2803v-21.04h15.3594v21.0557
c11.9521 0.864258 23.04 3.4082 31.2002 7.64844c8.12793 4.24023 14.4639 9.07227 19.3281 14.5117c4.86426 5.44043 8.20801 10.9922 10.0801 16.6885zM457.312 326.208c0 0 0 -0.0322266 -0.03125 -0.0322266l0.0800781 0.208008
c0 -0.0800781 0 -0.12793 -0.0488281 -0.160156v-0.015625z" />
    <glyph glyph-name="uniF143" unicode="&#xf143;" 
d="M393.6 89.8398c62.1445 -9.13574 70.4004 -40.8477 70.4004 -52.0479v-69.4717h-240v-32.3203h-128v96h-96v128h96v5.67969c-36.7041 4.73633 -64 11.5684 -64 11.5684v55.0078c0 8.12793 5.95215 31.2959 51.7598 37.9521
c30.208 4.40039 39.3604 10.4316 42.0801 14.0322c-0.368164 8.36816 -1.00781 17.8398 -1.00781 17.8398s-9.08789 9.91992 -16.0156 29.6641c-14.5283 5.85547 -12.6084 9.59961 -14.0488 17.168c0 0 1.68066 30.5596 11.5205 29.9199c0 0 7.9043 0 6.33594 7.00781
c-0.511719 11.6797 -0.351562 14.1445 0.448242 21.9199c0.78418 7.83984 4.14355 28.8799 20.5439 32c16.416 3.13672 3.77539 1.55176 9.21582 2.33594s-3.42383 3.88867 6.71973 3.88867l16.2725 3.40723c10.1279 0 16.6719 -14.1914 22.1279 -14.9434
s1.8877 2.39941 13.0557 0.319336c16.4004 -3.11914 21.2002 -25.3916 21.9678 -33.1992c0.768555 -7.80859 1.29688 -10.2402 -0.271484 -17.2803s2.35156 -6.24023 2.35156 -6.24023c11.7285 0 7.20898 -28.1221 6.81641 -29.9521
c-0.392578 -1.8291 -1.68262 -4.48145 -2.87988 -5.91992c-1.64844 -1.23145 -3.12012 -2.63965 -4.64062 -4c-2.39941 -1.58398 -5.2959 -3.2793 -9.35938 -5.83984c-6.92773 -19.7119 -21.4883 -31.8076 -21.4883 -31.8076l0.639648 -13.3125
s-0.624023 -2.81543 5.07227 -6.46387c-1.07227 -7.66406 -1.91992 -15.7598 -2.24023 -24.752h25.6006c-0.303711 10.0156 0.015625 13.9199 0.895508 22.7197c1.08789 10.7041 6.36816 36.8965 28.2559 43.8887c9.37598 2.99121 6.81641 3.11914 10.1289 4.19141
c7.21582 2.33594 -2.16016 4.35254 11.7598 4.35254l22.3193 4.63965c13.9209 0 22.8809 -19.4082 30.4004 -20.4482c7.52051 -1.08789 2.5918 3.26465 17.9844 0.416016c22.5596 -4.28809 29.1035 -34.9121 30.1914 -45.5996
c1.08789 -10.6885 1.80859 -14.0322 -0.351562 -23.6797c-2.14453 -9.61621 3.23145 -8.56055 3.23145 -8.56055c16.1123 0 9.39258 -41.0879 9.39258 -41.0879c-2.49609 -10.8799 -8.19238 -12.1924 -23.2002 -21.6318
c-9.55176 -27.04 -29.5518 -43.6807 -29.5518 -43.6807l0.912109 -18.2393s-3.48828 -14.3203 58.6553 -23.4404zM288 64v64h-96v96h-64v-96h-96v-64h96v-96h64v96h96zM460.8 270.128l0.0322266 0.0322266c45.2002 -6.65625 51.2002 -29.792 51.2002 -37.9199v-54.96
s-64 -16 -128 -16c-1.21582 0 -2.43262 0.0800781 -3.68066 0.0800781c-0.0791016 1.87207 -0.0791016 3.63184 0.160156 4.91211c29.0879 9.34375 29.2803 39.0391 29.5684 57.7598c0.208008 13.1836 -9.47168 29.9678 -14.5117 32
c3.93555 16.7354 -4.25684 44.832 -4.57617 49.3115c-1.07227 14.6084 -34.1602 38.6885 -56.1602 39.9365c-6.20801 0.351562 -11.2637 2.30371 -15.9043 4.67188c0.352539 4.92773 2.57617 29.4561 11.4238 28.8955c0 0 7.9043 0 6.33691 7.00879
c-0.512695 11.6797 -0.336914 14.0791 0.447266 21.9199c0.78418 7.83984 4.14453 28.8799 20.5127 32c16.416 3.13574 3.77539 1.55176 9.21582 2.33594c5.43945 0.78418 -3.42383 3.8877 6.71973 3.8877l16.208 3.3916c10.1279 0 16.6719 -14.1592 22.1279 -14.9277
c5.45605 -0.767578 1.8877 2.36816 13.0557 0.288086c16.4004 -3.12012 21.2002 -25.3916 21.9688 -33.2002c0.767578 -7.80762 1.2959 -10.2402 -0.272461 -17.2793c-1.56836 -7.04004 2.35254 -6.24023 2.35254 -6.24023c11.7275 0 6.81543 -29.9521 6.81543 -29.9521
c-1.82422 -7.9043 -5.95215 -8.86426 -16.8643 -15.7441c-6.92773 -19.7119 -21.4873 -31.8076 -21.4873 -31.8076l0.639648 -13.3125s-2.52832 -10.4316 42.6719 -17.0879z" />
    <glyph glyph-name="uniF1B9" unicode="&#xf1b9;" 
d="M352 416h160c0 -203.7 -71.5996 -288 -160 -288c-36 0 -69.2998 10.7002 -96 28.7998c-26.7002 -18.0996 -60 -28.7998 -96 -28.7998c-22.7998 0 -44.4004 5.59961 -64 17.4004v-206.4c0 -1.7002 -1.2998 -3 -3 -3h-58c-1.7002 0 -3 1.2998 -3 3v285
c-20.0996 45.7998 -32 109 -32 192h32v29c0 1.7002 1.2998 3 3 3h58c1.7002 0 3 -1.2998 3 -3v-29h64c36 0 69.2998 -10.7002 96 -28.7998c26.7002 18.0996 60 28.7998 96 28.7998zM163.9 248.2c33.8994 0 67.8994 35.8994 67.8994 35.8994s-34 35.9004 -67.8994 35.9004
c-33.9004 0 -67.9004 -35.9004 -67.9004 -35.9004s34 -35.8994 67.9004 -35.8994zM355.9 248.2c33.8994 0 67.8994 35.8994 67.8994 35.8994s-34 35.9004 -67.8994 35.9004c-33.9004 0 -67.9004 -35.9004 -67.9004 -35.9004s34 -35.8994 67.9004 -35.8994z" />
    <glyph glyph-name="uniF184" unicode="&#xf184;" 
d="M288 323.808c224 0 281.76 -236.096 141.408 -387.808c56.8643 103.04 81.9521 260.16 -141.408 254.912v-126.912l-192 192l192 192v-124.192zM45.248 256l146.752 -146.752v-45.248l-192 192l192 192v-45.248z" />
    <glyph glyph-name="uniF165" unicode="&#xf165;" 
d="M319.888 210.048v45.9199h85.2002l-64.7998 -255.936h-50.1758l-34.1123 151.359l-38.1758 -151.359h-54.4004l-56.5439 255.936h55.6963l28.9121 -159.008l38.5596 159.008h53.2803l33.1523 -159.008l25.5195 113.088h-22.1123zM451.728 348.288h-0.0478516
c15.5684 -15.5518 28.3203 -46.2881 28.3203 -68.2881v-304c0 -22 -18.0156 -40 -40 -40h-368c-22.0322 0 -40 18 -40 40v432c0.0615234 22.0186 17.9814 39.9385 40 40h240c21.9844 0 52.7197 -12.7363 68.2725 -28.2881zM429.088 325.664h0.015625l-71.4395 71.4238
c-1.56836 1.56836 -3.48828 3.12012 -5.66406 4.63965v-81.7275h81.7275c-1.51953 2.17578 -3.07129 4.0957 -4.63965 5.66406zM448 -24v304c0 2.40039 -0.303711 5.12012 -0.847656 8h-127.152v127.152c-2.87988 0.527344 -5.59961 0.847656 -8 0.847656h-240
c-4.32031 0 -8 -3.67969 -8 -8v-432c0 -4.32031 3.67969 -8 8 -8h368c4.32031 0 8 3.67969 8 8z" />
    <glyph glyph-name="uniF133" unicode="&#xf133;" 
d="M287.936 -64h-95.9355v256h-64v88.2236l64 0.0322266l-0.112305 51.9678c0 71.9688 19.5205 115.776 104.32 115.776h70.5596v-88.2402h-44.0957c-33.0234 0 -34.6074 -12.3193 -34.6074 -35.3594l-0.128906 -44.1602h79.3604l-9.36035 -88.208l-69.9355 -0.0322266
l-0.0478516 -256h-0.0166016z" />
    <glyph glyph-name="uniF144" unicode="&#xf144;" 
d="M393.6 89.8398c62.1445 -9.13574 70.4004 -40.8477 70.4004 -52.0479v-69.4717h-240v-32.3203h-128v96h-96v128h96v5.67969c-36.7041 4.73633 -64 11.5684 -64 11.5684v55.0078c0 8.12793 5.95215 31.2959 51.7598 37.9521
c30.208 4.40039 39.3604 10.4316 42.0801 14.0322c-0.368164 8.36816 -1.00781 17.8398 -1.00781 17.8398s-9.08789 9.91992 -16.0156 29.6641c-14.5283 5.85547 -12.6084 9.59961 -14.0488 17.168c0 0 1.68066 30.5596 11.5205 29.9199c0 0 7.9043 0 6.33594 7.00781
c-0.511719 11.6797 -0.351562 14.1445 0.448242 21.9199c0.78418 7.83984 4.14355 28.8799 20.5439 32c16.416 3.13672 3.77539 1.55176 9.21582 2.33594s-3.42383 3.88867 6.71973 3.88867l16.2725 3.40723c10.1279 0 16.6719 -14.1914 22.1279 -14.9434
s1.8877 2.39941 13.0557 0.319336c16.4004 -3.11914 21.2002 -25.3916 21.9678 -33.1992c0.768555 -7.80859 1.29688 -10.2402 -0.271484 -17.2803s2.35156 -6.24023 2.35156 -6.24023c11.7285 0 7.20898 -28.1221 6.81641 -29.9521
c-0.392578 -1.8291 -1.68262 -4.48145 -2.87988 -5.91992c-1.64844 -1.23145 -3.12012 -2.63965 -4.64062 -4c-2.39941 -1.58398 -5.2959 -3.2793 -9.35938 -5.83984c-6.92773 -19.7119 -21.4883 -31.8076 -21.4883 -31.8076l0.639648 -13.3125
s-0.624023 -2.81543 5.07227 -6.46387c-1.07227 -7.66406 -1.91992 -15.7598 -2.24023 -24.752h25.6006c-0.303711 10.0156 0.015625 13.9199 0.895508 22.7197c1.08789 10.7041 6.36816 36.8965 28.2559 43.8887c9.37598 2.99121 6.81641 3.11914 10.1289 4.19141
c7.21582 2.33594 -2.16016 4.35254 11.7598 4.35254l22.3193 4.63965c13.9209 0 22.8809 -19.4082 30.4004 -20.4482c7.52051 -1.08789 2.5918 3.26465 17.9844 0.416016c22.5596 -4.28809 29.1035 -34.9121 30.1914 -45.5996
c1.08789 -10.6885 1.80859 -14.0322 -0.351562 -23.6797c-2.14453 -9.61621 3.23145 -8.56055 3.23145 -8.56055c16.1123 0 9.39258 -41.0879 9.39258 -41.0879c-2.49609 -10.8799 -8.19238 -12.1924 -23.2002 -21.6318
c-9.55176 -27.04 -29.5518 -43.6807 -29.5518 -43.6807l0.912109 -18.2393s-3.48828 -14.3203 58.6553 -23.4404zM288 64v64h-96v96h-64v-96h-96v-64h96v-96h64v96h96zM460.8 270.128l0.0322266 0.0322266c45.2002 -6.65625 51.2002 -29.792 51.2002 -37.9199v-54.96
s-64 -16 -128 -16c-1.21582 0 -2.43262 0.0800781 -3.68066 0.0800781c-0.0791016 1.87207 -0.0791016 3.63184 0.160156 4.91211c29.0879 9.34375 29.2803 39.0391 29.5684 57.7598c0.208008 13.1836 -9.47168 29.9678 -14.5117 32
c3.93555 16.7354 -4.25684 44.832 -4.57617 49.3115c-1.07227 14.6084 -34.1602 38.6885 -56.1602 39.9365c-6.20801 0.351562 -11.2637 2.30371 -15.9043 4.67188c0.352539 4.92773 2.57617 29.4561 11.4238 28.8955c0 0 7.9043 0 6.33691 7.00879
c-0.512695 11.6797 -0.336914 14.0791 0.447266 21.9199c0.78418 7.83984 4.14453 28.8799 20.5127 32c16.416 3.13574 3.77539 1.55176 9.21582 2.33594c5.43945 0.78418 -3.42383 3.8877 6.71973 3.8877l16.208 3.3916c10.1279 0 16.6719 -14.1592 22.1279 -14.9277
c5.45605 -0.767578 1.8877 2.36816 13.0557 0.288086c16.4004 -3.12012 21.2002 -25.3916 21.9688 -33.2002c0.767578 -7.80762 1.2959 -10.2402 -0.272461 -17.2793c-1.56836 -7.04004 2.35254 -6.24023 2.35254 -6.24023c11.7275 0 6.81543 -29.9521 6.81543 -29.9521
c-1.82422 -7.9043 -5.95215 -8.86426 -16.8643 -15.7441c-6.92773 -19.7119 -21.4873 -31.8076 -21.4873 -31.8076l0.639648 -13.3125s-2.52832 -10.4316 42.6719 -17.0879z" />
    <glyph glyph-name="uniF17E" unicode="&#xf17e;" 
d="M255.456 422.08h-0.015625c126.8 0 229.68 -102.816 229.68 -229.6c0 -126.784 -102.816 -229.601 -229.601 -229.601c-126.815 0 -229.6 102.816 -229.6 229.601c0 126.783 102.784 229.6 229.536 229.6zM255.456 12.0957c99.6475 0 180.384 80.7686 180.384 180.385
c0 99.6152 -80.7363 180.432 -180.368 180.432s-180.416 -80.8164 -180.416 -180.416s80.752 -180.4 180.4 -180.4zM344.048 207.744h-0.0322266l-88.5918 -110.145l-88.5439 110.145h59.04v79.6475h59.0879v-79.6475h59.04z" />
    <glyph glyph-name="uniF101" unicode="&#xf101;" 
d="M384 416c26 0 32 -32 32 -32v-416c0 -24 -32 -32 -32 -32h-320c-56 0 -64 64 -64 64v416c0 17.6641 14.3359 32 32 32h288c17.6641 0 32 -14.3359 32 -32h32zM48 136.256v-39.0078h256.016v38.96c0 8.16016 -6 31.248 -51.1992 37.9199
c-45.2002 6.67188 -42.6729 17.0723 -42.6729 17.0723l-0.671875 13.2803s14.5605 12.1279 21.5039 31.8398c10.9121 6.84766 15.0723 7.82324 16.8809 15.7598c0 0 4.89551 29.9521 -6.81641 29.9521c0 0 -3.91992 -0.799805 -2.35156 6.24023
c1.55176 7.00781 1.05566 9.45508 0.271484 17.2471s-5.56836 30.0967 -21.9678 33.2002c-11.2002 2.08008 -7.60059 -1.10352 -13.0879 -0.319336c-5.48828 0.783203 -11.9688 14.9434 -22.1279 14.9434l-16.2402 -3.3916c-10.1445 0 -1.28027 -3.08789 -6.71973 -3.8877
c-5.47266 -0.768555 7.21582 0.81543 -9.2002 -2.32031s-19.7764 -24.1924 -20.5439 -32c-0.768555 -7.80859 -0.959961 -10.2402 -0.448242 -21.9199c1.56836 -7.04004 -6.32031 -7.04004 -6.32031 -7.04004c-9.83984 0.607422 -11.5195 -29.9521 -11.5195 -29.9521
c1.3916 -7.52051 -0.52832 -11.2803 14.0322 -17.1201c6.92773 -19.7275 16.0479 -29.6475 16.0479 -29.6475s0.639648 -9.45605 0.959961 -17.8408c-2.7207 -3.61523 -11.8398 -9.61523 -42.0801 -14.0156c-45.7764 -6.67188 -51.7441 -29.792 -51.7441 -37.9521zM352 -32
c34 0 32 32 32 32v384h-32v-352c0 -17.6641 -14.3359 -32 -32 -32h-288c0 -22 32 -32 32 -32h288z" />
    <glyph glyph-name="uniF123" unicode="&#xf123;" 
d="M254.816 233.056c12.8955 0 23.3594 -10.2881 23.3594 -22.9756c0 -12.7041 -10.4639 -22.9922 -23.3594 -22.9922c-12.8965 0 -23.3604 10.3037 -23.3604 22.9922c0 12.6875 10.4639 22.9756 23.3604 22.9756zM161.44 233.056
c12.8955 0 23.3594 -10.2715 23.3594 -22.9756s-10.4639 -22.9922 -23.3594 -22.9922c-12.8965 0 -23.3604 10.3037 -23.3604 22.9922c0 12.6875 10.4639 22.9756 23.3604 22.9756zM348.192 233.056c12.8955 0 23.3594 -10.2715 23.3594 -22.9756
s-10.4639 -22.9922 -23.3594 -22.9922c-12.8965 0 -23.3604 10.3037 -23.3604 22.9922c0 12.6875 10.4639 22.9756 23.3604 22.9756zM441.552 426.656l-0.015625 0.015625c43.0879 0 43.0879 -43.2637 43.0879 -43.2637l2.40039 -382.88s0 -43.2002 -43.1045 -43.2002
h-373.472c-43.0879 0 -43.0879 43.2803 -43.0879 43.2803l-2.36816 382.848s0.015625 43.2002 43.0879 43.2002h373.472zM441.168 140.928h0.015625v137.889c0 45.9834 -23.3115 68.96 -69.9834 68.96h-233.408c-46.6885 0 -70.3682 -22.9922 -70.3682 -68.96v-137.889
c0 -45.9678 23.8877 -68.96 69.9678 -68.96v-68.9277l94.0801 68.6396h140.048c46.6885 0 69.6484 23.2959 69.6484 69.248z" />
    <glyph glyph-name="uniF150" unicode="&#xf150;" 
d="M511.52 160.032c0 -10.0322 -32 -20.832 -32 -32c0 -9.71191 32 -18.6406 32 -32v-64c0 -14.2402 -32 -23.3281 -32 -32v-32c0 -34.2402 -64 -32 -64 -32h-160c-36 0 -96 32 -96 32v256h0.480469c36.4805 3.10352 114.4 90.0479 127.52 128c13.0889 37.9521 32 64 32 64
l34.9287 0.368164c61.0713 -0.368164 48.0635 -64.8809 48.0635 -64.4004c0 -47.248 -51.0078 -95.9678 -51.0078 -95.9678c42.0801 0 85.2324 -0.192383 85.2324 -0.192383c43.1514 0 74.752 -31.8076 74.752 -31.8076s0.0957031 -13.2803 0.0957031 -31.0078
c0 -9.15234 -0.112305 -21.0244 -0.112305 -32.9922h0.0478516zM127.52 -60.832c-20.1914 -3.23242 -51.0078 -3.13574 -96 -3.13574c-22.7832 0 -31.1191 30.7676 -31.1191 30.7676l-0.400391 241.232s5.79199 16 16 16h111.52v-284.864z" />
    <glyph glyph-name="uniF17B" unicode="&#xf17b;" 
d="M256 421.6c126.8 0 229.6 -103.231 229.6 -230.592c0 -127.359 -102.8 -230.607 -229.6 -230.607s-229.6 103.312 -229.6 230.607s102.8 230.592 229.6 230.592zM256 9.80762c99.6484 0 180.4 81.1045 180.4 181.152s-80.752 181.2 -180.4 181.2
s-180.4 -81.1523 -180.4 -181.152s80.752 -181.2 180.4 -181.2zM154.72 216.4h202.561v-50.8008h-202.561v50.8008z" />
    <glyph glyph-name="uniF1A0" unicode="&#xf1a0;" 
d="M479 352c0.599609 0 1 -0.400391 1 -1v-95h-64v-319c0 -0.599609 -0.400391 -1 -1 -1h-350c-0.5 0 -1 0.400391 -1 1v319h-64v95c0 0.599609 0.400391 1 1 1h127v94c0 1.09961 0.900391 2 2 2h220c1.09961 0 2 -0.900391 2 -2v-94h127zM160 1v254c0 0.5 -0.5 1 -1 1h-30
c-0.5 0 -1 -0.400391 -1 -1v-254c0 -0.5 0.5 -1 1 -1h30c0.5 0 1 0.400391 1 1zM256 1v254c0 0.5 -0.5 1 -1 1h-30c-0.5 0 -1 -0.400391 -1 -1v-254c0 -0.5 0.5 -1 1 -1h30c0.5 0 1 0.400391 1 1zM352 1v254c0 0.5 -0.5 1 -1 1h-30c-0.5 0 -1 -0.400391 -1 -1v-254
c0 -0.5 0.5 -1 1 -1h30c0.5 0 1 0.400391 1 1z" />
    <glyph glyph-name="uniF11A" unicode="&#xf11a;" 
d="M510.72 286.72l1.28027 1.28027v-192l-96 -160v256l64 64h-147.2l28.1602 31.2637zM160 256l-96 -64h320v-256h-384v256l128 96l44.8965 -0.12793l25.5039 -31.8721h-38.4004zM160 128c-15.7441 -0.992188 -32.9922 -14.5283 -32 -32
c0.992188 -17.4883 14.2402 -32 32 -32h64c15.7441 0 32 14.5117 32 32c0 18.4961 -16.2559 32 -32 32h-64zM416 384l-144 -160l-144 160h96v64h96v-64h96z" />
    <glyph glyph-name="uniF18C" unicode="&#xf18c;" 
d="M479.7 240c17.7998 0 32.2998 -14.2002 32.2002 -32v-32.0996c0 -17.7002 -14.2002 -32 -32.3008 -32h-37.6992c-4.5 -17.6006 -11.5 -34.2002 -20.5 -49.5l26.6992 -26.7002c12.6006 -12.6006 12.8008 -32.7998 0.200195 -45.4004l-22.7002 -22.7002
c-12.3994 -12.5 -32.5996 -12.5996 -45.3994 0.200195l-26.7002 26.7002c-15.2002 -9 -31.9004 -16 -49.5 -20.5v-37.5996c0 -17.8008 -14.2002 -32.3008 -32 -32.3008h-32.0996c-17.7002 0 -32 14.2002 -32 32.3008v37.6992c-17.6006 4.5 -34.2002 11.5 -49.5 20.5
l-26.7002 -26.6992c-12.6006 -12.6006 -32.7998 -12.8008 -45.4004 -0.200195l-22.7002 22.7002c-12.5 12.3994 -12.5996 32.5996 0.200195 45.3994l26.7002 26.7002c-9 15.2002 -16 31.9004 -20.5 49.5h-37.7002c-17.7998 0 -32.2998 14.2002 -32.2998 32v32
c0 17.7002 14.2002 32 32.2998 32.0996h37.7002c4.5 17.6006 11.5 34.2002 20.5 49.5l-26.7002 26.7002c-12.5996 12.6006 -12.7998 32.7998 -0.200195 45.4004l22.8008 22.7002c12.3994 12.5 32.5996 12.5996 45.3994 -0.200195l26.7002 -26.7002
c15.2002 9 31.9004 16 49.5 20.5v37.7002c0 17.7998 14.2002 32.2998 32 32.2998h32c17.7002 0 32 -14.2002 32.0996 -32.2998v-37.7998c17.6006 -4.5 34.2002 -11.5 49.5 -20.5l26.7002 26.6992c12.6006 12.6006 32.7998 12.8008 45.4004 0.200195l22.7002 -22.7002
c12.5 -12.3994 12.5996 -32.5996 -0.200195 -45.3994l-26.7002 -26.7002c9 -15.2002 16 -31.9004 20.5 -49.5h37.7002zM256 96c53 0 96 43 96 96s-43 96 -96 96s-96 -43 -96 -96s43 -96 96 -96z" />
    <glyph glyph-name="uniF12A" unicode="&#xf12a;" 
d="M471.072 340.64c20 -20 0.719727 -35.04 0.719727 -35.04l-38.4316 -39.1992l-99.5684 97.1191l39.4883 42.5127c20.752 20.7354 38.4316 -3.39258 38.4316 -3.39258zM66.2402 99.04l239.264 241.04l105.44 -99.8076l-236.801 -234.08l-107.936 92.8477h0.0322266zM0 -64
l12.96 44.7041l40.3203 -37.2803zM23.4883 9.34375l13.4717 59.8086l106.208 -89.0723l-58.0156 -22.9277z" />
    <glyph glyph-name="uniF1B7" unicode="&#xf1b7;" 
d="M75.2637 192.012c0 -62.4834 51.2002 -113.7 114.688 -113.7h93.1836v-75.2871h-93.1836c-104.448 0 -189.952 84.5078 -189.952 188.987c0 104.481 85.5039 188.988 189.952 188.988h93.6963v-75.2881h-93.1846c-63.4883 0 -115.2 -51.2158 -115.2 -113.7z
M75.2637 192.012c0 -62.4834 51.2002 -113.7 114.688 -113.7h93.1836v-75.2871h-93.1836c-104.448 0 -189.952 84.5078 -189.952 188.987c0 104.481 85.5039 188.988 189.952 188.988h93.6963v-75.2881h-93.1846c-63.4883 0 -115.2 -51.2158 -115.2 -113.7zM512 192.012
v-0.00195312l-153.088 -135.208v90.1406h-161.28c-25.0879 0 -45.0557 19.9736 -45.0557 45.0693c0 25.0967 19.9678 45.0703 45.0557 45.0703h161.28v90.1396zM512 192.012v-0.00195312l-153.088 -135.208v90.1406h-161.28c-25.0879 0 -45.0557 19.9736 -45.0557 45.0693
c0 25.0967 19.9678 45.0703 45.0557 45.0703h161.28v90.1396z" />
    <glyph glyph-name="uniF180" unicode="&#xf180;" 
d="M416.88 30.7197l67.8398 -68.2559h-190.319v191.424l70.5596 -70.6553c28.0645 27.8398 45.8398 66.0479 45.8398 108.8c0 72.1279 -49.8242 132.191 -116.368 149.248v75.5996c107.521 -18.2402 190.433 -111.84 190.433 -225.072
c0 -63.1992 -26.4326 -119.84 -67.9678 -161.088h-0.0166016zM27.168 192c0 63.2002 26.3682 119.2 67.8877 160.448l-67.7275 67.3916h190.271v-189.728l-70.5273 70.6875c-28.0801 -27.8398 -45.8564 -66.0801 -45.8564 -108.8
c0 -72.1602 49.8242 -132.208 116.384 -149.28v-75.584c-107.52 18.2402 -190.432 111.616 -190.432 224.864z" />
    <glyph glyph-name="uniF190" unicode="&#xf190;" 
d="M253.6 339.76c80.793 -1.18555 146.364 -67.7266 146.364 -148.527c0 -80.8018 -65.5713 -147.343 -146.364 -148.528c-0.601562 -0.00878906 -1.57812 -0.015625 -2.17969 -0.015625c-81.9961 0 -148.544 66.5469 -148.544 148.544
c0 81.9961 66.5479 148.544 148.544 148.544c0.601562 0 1.57812 -0.0078125 2.17969 -0.0166016zM225.792 101.728h-0.015625c18.5752 34.0801 75.8721 103.761 103.743 109.952c-10.8311 24.7686 -4.63965 44.8965 -3.08789 68.1279
c-63.4717 -32.5273 -103.743 -130.08 -103.743 -130.08l-24.7686 48l-51.0879 -30.9756c21.6797 -7.74414 52.6396 -32.4961 78.96 -65.0244zM454.24 163.68h0.0322266c-0.672852 0 -1.34473 0.0478516 -2.0166 0.0966797
c-2.24023 -15.8408 -6.36816 -31.0723 -12.1602 -45.4727c0.592773 -0.288086 1.18457 -0.576172 1.76074 -0.895508c7.81738 -4.5127 14.1611 -15.502 14.1611 -24.5283c0 -15.6338 -12.6875 -28.3213 -28.3213 -28.3213c-4.18945 0 -10.5322 1.69922 -14.1602 3.79297
c-0.478516 0.285156 -1.23828 0.772461 -1.69629 1.08887c-8.09473 -10.2754 -23.0049 -25.1855 -33.2803 -33.2803c0.400391 -0.543945 0.800781 -1.08789 1.12012 -1.66406c2.09473 -3.62793 3.79395 -9.97168 3.79395 -14.1602
c0 -15.6338 -12.6875 -28.3223 -28.3213 -28.3223c-9.02637 0 -20.0156 6.34473 -24.5283 14.1621c-0.335938 0.560547 -0.608398 1.15234 -0.896484 1.75977c-14.3994 -5.79199 -29.6318 -9.91992 -45.4717 -12.1592
c0.0478516 -0.672852 0.0957031 -1.34473 0.0957031 -2.04883c0.000976562 -0.0810547 0.00195312 -0.212891 0.00195312 -0.294922c0 -15.6328 -12.6875 -28.3193 -28.3203 -28.3193c-15.6318 0 -28.3193 12.6865 -28.3193 28.3193
c0 0.639648 0.0419922 1.6748 0.09375 2.31152c-15.8398 2.27148 -31.0713 6.39941 -45.4717 12.1602c-0.288086 -0.592773 -0.576172 -1.18457 -0.895508 -1.76074c-4.51367 -7.82031 -15.5059 -14.168 -24.5361 -14.168c-15.6377 0 -28.3291 12.6904 -28.3291 28.3281
c0 4.18848 1.69922 10.5322 3.79297 14.1602c0.351562 0.576172 0.735352 1.13574 1.12012 1.69629c-12.3682 9.72754 -23.5527 20.8955 -33.2803 33.2803c-0.576172 -0.400391 -1.10449 -0.800781 -1.69629 -1.12012c-3.62695 -2.09473 -9.9707 -3.79395 -14.1602 -3.79395
c-15.6328 0 -28.3213 12.6875 -28.3213 28.3213c0 9.02637 6.34473 20.0156 14.1621 24.5283c0.575195 0.335938 1.16797 0.608398 1.75977 0.896484c-5.75977 14.3994 -9.8877 29.6318 -12.1602 45.4717c-0.641602 -0.0527344 -1.68555 -0.0957031 -2.33008 -0.0957031
c-15.6328 0 -28.3193 12.6865 -28.3193 28.3193s12.6865 28.3203 28.3193 28.3203c0.644531 0 1.68848 -0.0429688 2.33008 -0.0957031c2.27246 15.8398 6.40039 31.0713 12.1602 45.4717c-0.591797 0.288086 -1.18457 0.576172 -1.75977 0.895508
c-7.81738 4.51367 -14.1621 15.502 -14.1621 24.5283c0 15.6338 12.6885 28.3223 28.3213 28.3223c4.18945 0 10.5332 -1.7002 14.1602 -3.79395c0.591797 -0.335938 1.13672 -0.719727 1.68066 -1.08789c8.09375 10.2764 23.0029 25.1855 33.2793 33.2793
c-0.368164 0.560547 -0.767578 1.10449 -1.08789 1.71191c-2.09375 3.62793 -3.79395 9.97168 -3.79395 14.1602c0 15.6338 12.6885 28.3223 28.3223 28.3223c9.02637 0 20.0146 -6.34473 24.5283 -14.1621c0.335938 -0.591797 0.607422 -1.18359 0.895508 -1.75977
c14.4004 5.75977 29.6318 9.87207 45.4717 12.1602c-0.0527344 0.641602 -0.0957031 1.68555 -0.0957031 2.33008c0 15.6318 12.6875 28.3193 28.3203 28.3193s28.3193 -12.6875 28.3193 -28.3193c0 -0.644531 -0.0429688 -1.68848 -0.0957031 -2.33008
c15.8398 -2.27246 31.0723 -6.40039 45.4717 -12.1602c0.288086 0.591797 0.576172 1.18359 0.896484 1.75977c4.5127 7.81738 15.502 14.1621 24.5283 14.1621c15.6338 0 28.3213 -12.6885 28.3213 -28.3223c0 -4.18848 -1.69922 -10.5322 -3.79395 -14.1602
c-0.351562 -0.591797 -0.735352 -1.13574 -1.12012 -1.67969c10.2803 -8.09082 25.1895 -23 33.2803 -33.2803c0.543945 0.368164 1.08789 0.768555 1.66406 1.08887c3.62793 2.09375 9.97168 3.79297 14.1602 3.79297c15.6338 0 28.3223 -12.6875 28.3223 -28.3213
c0 -9.02637 -6.34473 -20.0156 -14.1621 -24.5283c-0.560547 -0.335938 -1.15234 -0.607422 -1.75977 -0.895508c5.75977 -14.4004 9.91992 -29.6318 12.1592 -45.4727c0.672852 0.0488281 1.34473 0.0966797 2.0166 0.0966797c15.6328 0 28.3193 -12.6875 28.3193 -28.3203
s-12.6865 -28.3203 -28.3193 -28.3203zM253.6 23.9521v0.015625c93.2168 0 168.736 75.5205 168.736 168.736s-75.5518 168.736 -168.736 168.736h-0.167969c-22.9268 0 -57.9961 -8.67383 -78.2793 -19.3604c-2.28516 -1.9375 -6.44238 -4.28809 -9.28027 -5.24805
c-18.2959 -11.1621 -42.5742 -34.8379 -54.1924 -52.8477c-0.607422 -2.36816 -1.56738 -4.76855 -2.84766 -7.00879c-1.34375 -2.30371 -2.97559 -4.38379 -4.7998 -6.14355c-9.67773 -18.4873 -18.1934 -50.4131 -19.0078 -71.2637
c0.578125 -2.05371 1.05176 -5.45117 1.05566 -7.58398c0 -2.56055 -0.368164 -5.00879 -1.00781 -7.36035c1 -21.5195 10.2471 -54.2988 20.6396 -73.168c1.85059 -2.14453 4.14453 -6.04395 5.12012 -8.7041c27.375 -43.498 91.3047 -78.7998 142.699 -78.7998h0.0683594z
" />
    <glyph glyph-name="uniF108" unicode="&#xf108;" 
d="M400.56 18.2402l-62.2871 -61.9199l-231.601 232.592l231.601 232.8l62.2871 -61.9678l-169.808 -170.672z" />
    <glyph glyph-name="uniF1AC" unicode="&#xf1ac;" 
d="M432 112v-0.015625c84.752 -12.4648 80 -55.792 80 -70.9922v-72.96h-288v-32h-128v96h-96v128h96v96h70.2236c-0.15918 1.13574 -0.303711 2.25586 -0.55957 3.47168c0 0 3.16797 57.2637 21.5996 56.1123c0 0 14.8164 0 11.8887 13.1201
c-0.976562 21.9199 -0.624023 26.4639 0.847656 41.0879s7.74414 54.0635 38.4961 59.9033c30.752 5.82422 6.95996 2.92871 17.2314 4.38477c10.2725 1.45605 -6.39941 7.31152 12.6406 7.31152l30.3994 6.33594c19.04 0 31.2324 -26.5117 41.4727 -27.9521
c10.2402 -1.47168 3.55176 4.44824 24.5439 0.576172c30.752 -5.87207 21.8877 -47.6318 23.3594 -62.2402c1.47266 -14.6074 2.44824 -19.1992 -0.479492 -32.3193c-2.91211 -13.1523 22.2402 -11.6807 22.2402 -11.6807c21.9678 0 12.7998 -56.1113 12.7998 -56.1113
c-3.39258 -14.8486 -11.2002 -16.6406 -31.6318 -29.5205c-13.0078 -36.9434 -40.2881 -59.5996 -40.2881 -59.5996l1.21582 -24.9121s-4.75195 -19.5195 80 -32zM288 64v64h-96v96h-64v-96h-96v-64h96v-96h64v96h96z" />
    <glyph glyph-name="uniF183" unicode="&#xf183;" 
d="M224 323.808c224 0 281.76 -236.096 141.408 -387.808c56.8643 103.04 81.9521 260.16 -141.408 254.912v-126.912l-192 192l192 192v-124.192z" />
    <glyph glyph-name="uniF1B1" unicode="&#xf1b1;" 
d="M304 192l112 -112l-48 -48l-112 112l-112 -112l-48 48l112 112l-112 112l48 48l112 -112l112 112l48 -48z" />
    <glyph glyph-name="uniF111" unicode="&#xf111;" 
d="M288 256v-32h-32v32h32zM224 256v-32h-32v32h32zM288 192v-32h-32v32h32zM288 128v-32h-32v32h32zM288 64v-32h-32v32h32zM352 128v-32h-32v32h32zM416 256v-32h-32v32h32zM416 192v-32h-32v32h32zM352 192v-32h-32v32h32zM416 416c35.3281 0 64 -28.6719 64 -64v-352
c0 -35.3281 -28.6719 -64 -64 -64h-352c-35.3281 0 -64 28.6719 -64 64v352c0 35.3281 28.6719 64 64 64h352zM448 16v272h-416v-272c0 -35.3604 12.6396 -48 48 -48h320c35.3604 0 48 12.6396 48 48zM416 128v-32h-32v32h32zM160 64v-32h-32v32h32zM96 128v-32h-32v32h32z
M96 192v-32h-32v32h32zM96 64v-32h-32v32h32zM160 128v-32h-32v32h32zM224 128v-32h-32v32h32zM224 64v-32h-32v32h32zM160 192v-32h-32v32h32zM224 192v-32h-32v32h32zM352 256v-32h-32v32h32z" />
    <glyph glyph-name="uniF185" unicode="&#xf185;" 
d="M250.88 387.728c109.28 0 209.664 -97.9199 209.664 -211.199c0 -113.28 -100.384 -211.889 -209.664 -211.889c-77.9199 0 -145.312 37.1201 -177.6 104.929c-13.0244 27.3594 40.6396 39.1035 52.8633 15.5195c25.1201 -46.6396 71.8721 -54.5918 124.721 -54.5918
c79.5518 0 147.808 67.6797 147.808 146.032c0 81.1201 -69.5684 148.128 -147.84 148.128c-64.4316 0 -73.4404 -35.5205 -75.1045 -33.7598c16.7207 -17.6963 63.0088 -74.7207 63.0088 -74.7207c22.832 -23.6797 -0.832031 -28.5918 -0.832031 -28.5918l-173.36 1.67969
c-16.6875 -2.76758 -12.6875 16.3203 -12.6875 16.3203l0.15918 205.056c0.320312 24.4805 22.6885 -10.2715 22.6885 -10.2715l55.4395 -59.2646s42.3047 48 120.704 46.6406z" />
    <glyph glyph-name="uniF106" unicode="&#xf106;" 
d="M256 64l-192 289.12h384z" />
    <glyph glyph-name="uniF1AA" unicode="&#xf1aa;" 
d="M445.504 267.968l0.0322266 -0.015625c36.8086 -8.91113 66.6826 -46.8799 66.6826 -84.752c0 -48.1318 -39.0635 -87.1973 -87.1943 -87.2002h-104.992v-96h-128v96h-95.1357c-53.4697 0.0175781 -96.8643 43.4268 -96.8643 96.8955v0.0322266v0.0117188
c0 53.4863 43.4092 96.8965 96.8955 96.8965c4.79883 0 12.5264 -0.693359 17.248 -1.54785c-0.375977 2.61426 -0.681641 6.87891 -0.681641 9.51953c0 36.8877 29.9385 66.8291 66.8262 66.832c18.1123 -0.000976562 41.7812 -11.6494 52.832 -26
c19.6787 25.0391 61.4951 45.3604 93.3418 45.3604h0.0654297c64.0557 -0.0146484 117.343 -51.9971 118.944 -116.032zM288 128h64l-96 96l-96 -96h64v-96h64v96z" />
    <glyph glyph-name="uniF12B" unicode="&#xf12b;" 
d="M430.976 50.9277h0.0322266c-19.6963 -41.0234 -54.6074 -73.5518 -87.4883 -73.5518c-25.2158 0 -60.0312 29.4082 -87.4873 29.4082c-29.9199 0.832031 -46.3682 -31.9365 -87.4883 -29.4082c-31.3281 1.93555 -58.8164 52.5918 -72.8955 73.5518
c-14.0801 20.96 -58.3369 74.5283 -58.3369 174.4c0 64.2402 66.4482 109.68 116.641 117.68c25.1357 4 44.5762 -2.6875 63.2637 -9.43945c-43.9834 27.1035 -102.64 41.6318 -123.6 40.7998c25.6797 37.3594 75.6797 34.5283 102.08 29.4082
c23.6953 -4.59277 42.208 -50.6729 57.3594 -80.4326l2.27246 -0.255859c-1.2002 20.3037 3.64746 45.0078 13.792 59.7285c32.7041 47.5518 54.0156 -1.45605 51.04 -4.28809c-17.6006 -2.03223 -47.248 -34.9443 -45.8086 -55.1523
c-1.77539 25.4717 200.368 70 200.368 -98.0479c0 -109.664 -24.0635 -133.328 -43.7441 -174.4z" />
    <glyph glyph-name="uniF1A2" unicode="&#xf1a2;" 
d="M512 350.784v-0.0166016c-11.7812 -17.5967 -35.2783 -41.9395 -52.4482 -54.3359c0.208008 -4.51172 0.320312 -9.04004 0.320312 -13.5996c0 -138.816 -105.664 -298.88 -298.88 -298.88h-0.274414c-48.1875 0 -120.196 21.1455 -160.733 47.2002
c8.22363 -0.976562 16.5752 -1.48828 25.0557 -1.48828h0.366211c40.1992 0 98.4902 20.1416 130.113 44.96c-41.4805 0.772461 -85.4424 33.459 -98.1279 72.96c5.42676 -1.04199 14.3154 -1.88672 19.8408 -1.88672c7.74805 0 20.1055 1.64844 27.584 3.67871
c-46.498 9.41113 -84.2373 55.5518 -84.2402 102.992v1.31152c12.2539 -6.80859 33.5723 -12.6855 47.584 -13.1201c-25.8076 17.209 -46.752 56.3486 -46.752 87.3672v0.0732422v0.116211c0 15.6035 6.37891 39.2051 14.2402 52.6836
c46.2617 -56.9258 143.266 -106.105 216.527 -109.775c-1.79199 7.67969 -2.71973 15.6953 -2.71973 23.9355c0 57.9824 47.0576 105.04 105.04 105.04h0.015625h0.108398c25.0791 0 59.3584 -14.8447 76.5156 -33.1357c19.627 3.86328 49.5176 15.2812 66.7207 25.4873
c-6.71582 -20.8291 -27.4023 -46.8633 -46.1768 -58.1113c17.3359 2.06152 44.3584 9.47363 60.3203 16.5439z" />
    <glyph glyph-name="uniF187" unicode="&#xf187;" 
d="M128 320c141.392 0 256 -114.624 256 -256c0 -10.8799 -0.896484 -21.5039 -2.20801 -32h-64.6719c1.75977 10.4316 2.87988 21.0557 2.87988 32c0 106.032 -85.9678 192 -192 192c-10.9277 0 -21.5996 -1.12012 -32 -2.87988v64.6396
c8.79297 1.16992 23.1289 2.17383 32 2.24023zM128 448c212.08 0 384 -171.92 384 -384c0 -10.8164 -0.736328 -21.4404 -1.59961 -32h-64c1.04004 10.5283 1.59961 21.1836 1.59961 32c0 176.72 -143.264 320 -320 320c-10.7998 0 -21.4717 -0.55957 -32 -1.59961v64
c10.5596 0.847656 21.2002 1.59961 32 1.59961zM160 192v-96h96v-64h-96v-96h-64v96l-96 1.28027v62.7197h96v96h64z" />
    <glyph glyph-name="uniF161" unicode="&#xf161;" 
d="M369.504 189.44l112.64 123.088v-89.9199l-112.64 -118.513h-343.04v85.3447h343.04zM26.4639 54.6084h343.04l112.64 120.512v-89.9199l-112.64 -122.752h-343.04v92.1602zM141.36 419.84h0.015625h340.752v-59.8242l-112.64 -121.071h-343.04v61.1201z" />
    <glyph glyph-name="uniF13F" unicode="&#xf13f;" 
d="M152.096 240.56h-0.015625l22.4639 -71.1191h-46.1758l23.248 71.1191h0.479492zM416 416c0 0 32 -1.50391 32 -32v-416c0 -32 -32 -32 -32 -32h-320s-64 0 -64 64v416s0 32 32 32h288s32 0 32 -32c0 -0.480469 32 0 32 0zM224 224v-32h48v-48h32v48h48v32h-48v48h-32
v-48h-48zM132.128 288.32l-67.3916 -192.32h39.4238l13.9678 41.6641h66.6562l13.4883 -41.6641h40.6875l-66.6396 192.32h-40.1924zM416 0v368s-0.160156 16 -15.5195 16h-16.4805v-352s0 -32 -32 -32h-288l32 -32h288c22.0801 0 32 32 32 32z" />
    <glyph glyph-name="uniF102" unicode="&#xf102;" 
d="M430.768 -27.3115h-349.567c-30.0801 0 -54.752 24.4795 -54.752 54.5596v326.992c0 30.1113 24.6396 55.3594 54.752 55.3594h349.567c30.0801 0 54.7842 -25.248 54.7842 -55.3594v-326.992c0 -30.0801 -24.6719 -54.5596 -54.7842 -54.5596zM458.24 354.24
c0 15.0713 -12.416 28.0635 -27.4727 28.0635h-349.567c-15.04 0 -27.4404 -12.96 -27.4404 -28.0479v-326.992c0 -6.23926 2.56055 -11.7598 6.1123 -16.3672l89.4082 161.615l117.968 -38.3516l95.5195 191.68l95.4883 -134.176v162.576h-0.015625z" />
    <glyph glyph-name="uniF1A5" unicode="&#xf1a5;" 
d="M432.512 232.192l-0.03125 -0.0166016c16.2324 0 29.4219 -13.1748 29.4395 -29.4082v-198.079c0 -16.251 -13.1895 -29.4404 -29.4395 -29.4404h-235.328c-16.251 0 -29.4404 13.1895 -29.4404 29.4404v198.048c0 16.2324 13.1748 29.4219 29.4082 29.4395h29.4395
v58.8486c0 29.3916 -29.4395 58.832 -58.832 58.832c-29.3916 0 -58.8311 -29.4082 -58.8311 -58.8164v-58.8477h-58.8164v58.8477c0 64.959 52.7207 117.68 117.68 117.68c64.96 0 117.681 -52.7207 117.681 -117.68v-58.8477h147.071z" />
    <glyph glyph-name="uniF1B3" unicode="&#xf1b3;" 
d="M397 94v-11.5234l-11.5234 11.5234h11.5234zM393.615 10.9082c-9.91016 -32.9248 -40.46 -56.9082 -76.6152 -56.9082h-210c-44.1826 0 -80 35.8174 -80 80.0098v305.98c0 44.1895 35.8135 80.0098 80 80.0098h210c44.1826 0 80 -35.8174 80 -80.0098v-14.5137l-50 -50
v53.5273c0 22.0957 -17.9102 39.9961 -40.0029 39.9961h-189.994c-22.0928 0 -40.0029 -17.9072 -40.0029 -39.9961v-286.008c0 -22.0957 17.9102 -39.9961 40.0029 -39.9961h189.994c22.0928 0 40.0029 17.9072 40.0029 39.9961v14.5273zM347 192.88v0.120117h54.6104
l-31.8467 31.8447l38.8906 38.8906l97.582 -97.5801l-0.155273 -0.155273l0.15625 -0.155273l-97.5801 -97.5801l-38.8926 38.8906l30.8457 30.8447h-53.6104v0.192383c-10.2676 0.169922 -47.6582 -1.08008 -71.4971 -26.6182
c-27.8467 -29.8301 -22.4795 -68.6768 -22.4795 -68.6768h-62.9258s-4.12988 70.5898 38.8477 113.645c38.2373 38.3076 104.015 37.0752 118.055 36.3379z" />
    <glyph glyph-name="uniF107" unicode="&#xf107;" 
d="M94.3516 192l290.801 192v-384z" />
    <glyph glyph-name="uniF1B6" unicode="&#xf1b6;" 
d="M197.381 261.628c3.21875 15.7725 19.6992 28.5518 36.7588 28.5518h167.896c17.0596 0 28.3252 -12.7793 25.1064 -28.584l-32.5107 -158.851c-3.21875 -15.7725 -19.6992 -28.584 -36.7588 -28.584h-167.896c-17.0605 0 -28.3262 12.7793 -25.1074 28.584
l32.5107 158.818v0.0644531zM368.302 383.784c1.38477 6.75879 8.46582 12.2314 15.7725 12.2314h55.2363c7.30664 0 12.1025 -5.47266 10.7188 -12.2314l-10.6553 -52.3066c-1.38379 -6.75977 -8.43262 -12.2324 -15.708 -12.2324h-55.2676
c-7.30664 0 -12.1025 5.47266 -10.7188 12.2324l10.6865 52.3066h-0.0644531zM67.918 277.915c1.35156 6.75977 8.36914 12.2324 15.708 12.2324h55.2354c7.30664 0 12.1035 -5.47266 10.7188 -12.2324l-10.6865 -52.3379
c-1.38379 -6.75977 -8.46484 -12.2324 -15.7725 -12.2324h-55.2031c-7.30664 0 -12.1348 5.47266 -10.7188 12.2324l10.6865 52.3379h0.0322266zM50.2139 169.891c1.38477 6.75977 8.43359 12.2959 15.708 12.2959h55.2686c7.30664 0 12.1025 -5.47168 10.7188 -12.2314
l-10.6865 -52.3389c-1.38477 -6.75977 -8.46582 -12.2314 -15.7725 -12.2314h-55.2363c-7.27441 0 -12.1025 5.47168 -10.6865 12.2314zM307.337 45.3203c1.38379 6.75977 8.43359 12.2314 15.708 12.2314h55.2676c7.30664 0 12.1035 -5.47168 10.7188 -12.2314
l-10.6865 -52.2744c-1.38379 -6.75879 -8.46582 -12.2314 -15.7725 -12.2314h-55.1709c-7.30664 0 -12.1035 5.4082 -10.6865 12.2314l10.6865 52.2744h-0.0644531zM214.279 19.248c0.483398 2.25293 2.89746 4.08789 5.24707 4.08789h35.3428
c2.44629 0 4.02344 -1.83496 3.54102 -4.05566l-6.75977 -33.3799c-0.482422 -2.25293 -2.89648 -4.02344 -5.27832 -4.02344h-35.3438c-2.41406 0 -4.02344 1.83496 -3.54102 4.02344l6.75977 33.4121zM71.459 53.5283c0.482422 2.25391 2.89648 4.05566 5.24609 4.05566
h35.3115c2.47852 0 4.05566 -1.80176 3.60449 -4.02344l-6.82324 -33.3789c-0.451172 -2.25391 -2.83301 -4.05664 -5.21484 -4.05664h-35.4072c-2.38184 0 -3.99219 1.83496 -3.54102 4.05664l6.82422 33.3789v-0.0322266zM162.134 379.535
c0.483398 2.25293 2.89746 4.05566 5.24707 4.05566h35.3428c2.44629 0 4.02344 -1.86719 3.54102 -4.08789l-6.69531 -33.3477c-0.482422 -2.25293 -2.89648 -4.05566 -5.2793 -4.05566h-35.4072c-2.41406 0 -4.02344 1.83496 -3.54102 4.05566l6.75977 33.3799h0.0322266z
M217.917 342.1c0.514648 2.31738 2.89648 4.18457 5.31055 4.18457h19.8604c2.44727 0 4.05664 -1.93164 3.60547 -4.18457l-3.8623 -18.7656c-0.451172 -2.25391 -2.80078 -4.08887 -5.2793 -4.08887h-19.8604c-2.44629 0 -4.02344 1.83496 -3.54102 4.08887
l3.79883 18.7979zM346.864 443.912c0.451172 2.25293 2.80078 4.08789 5.24707 4.08789h19.8604c2.44629 0 4.05566 -1.86719 3.54102 -4.08789l-3.79883 -18.8301c-0.482422 -2.25391 -2.83203 -4.08789 -5.31055 -4.08789h-19.8604
c-2.44727 0 -4.05664 1.93066 -3.60547 4.12012l3.8623 18.8301zM137.768 443.912c0.482422 2.25293 2.83203 4.08789 5.27832 4.08789h19.8604c2.47852 0 4.08789 -1.86719 3.6377 -4.08789l-3.8623 -18.8301c-0.451172 -2.25391 -2.83301 -4.12012 -5.2793 -4.12012
h-19.8926c-2.44629 0 -4.05566 1.93066 -3.54102 4.12012zM4.69922 290.212c0.451172 2.25293 2.80078 4.12012 5.24707 4.12012h19.8604c2.44629 0 4.05566 -1.86719 3.54102 -4.12012l-3.79883 -18.7988c-0.514648 -2.25293 -2.89648 -4.08789 -5.31055 -4.08789h-19.8604
c-2.44629 0 -4.05566 1.83496 -3.60547 4.08789l3.8623 18.7988h0.0644531zM12.3281 -41.0098c0.451172 2.25391 2.80078 4.12109 5.24707 4.12109h19.8926c2.44629 0 4.05566 -1.86719 3.54004 -4.12109l-3.79785 -18.7979
c-0.482422 -2.25293 -2.83301 -4.08789 -5.2793 -4.08789h-19.8604c-2.44629 0 -4.05566 1.83496 -3.60449 4.08789zM204.076 -35.7949c0.417969 2.25293 2.76758 4.08789 5.24609 4.08789h19.8604c2.44629 0 4.05566 -1.83496 3.60547 -4.08789l-3.8623 -18.7979
c-0.451172 -2.25293 -2.80078 -4.12012 -5.2793 -4.12012h-19.8926c-2.41406 0 -4.02344 1.86719 -3.54102 4.12012z" />
    <glyph glyph-name="uniF127" unicode="&#xf127;" 
d="M445.504 267.968l0.0322266 -0.015625c36.8086 -8.91113 66.6826 -46.8799 66.6826 -84.752c0 -48.1318 -39.0635 -87.1973 -87.1943 -87.2002h-59.7441l-109.248 -109.248l-109.248 109.248h-49.8877c-53.4697 0.0175781 -96.8643 43.4268 -96.8643 96.8955v0.0322266
v0.0117188c0 53.4863 43.4092 96.8965 96.8955 96.8965c4.79883 0 12.5264 -0.693359 17.248 -1.54785c-0.375977 2.61426 -0.681641 6.87891 -0.681641 9.51953c0 36.8877 29.9385 66.8291 66.8262 66.832c18.1123 -0.000976562 41.7812 -11.6494 52.832 -26
c19.6787 25.0391 61.4951 45.3604 93.3418 45.3604h0.0654297c64.0557 -0.0146484 117.343 -51.9971 118.944 -116.032zM256 32l96 96h-64v96h-64v-96h-64z" />
    <glyph glyph-name="uniF147" unicode="&#xf147;" 
d="M512 192h-64v-256h-128v128h-128v-128h-128v256h-64l256 256z" />
    <glyph glyph-name="uniF1B8" unicode="&#xf1b8;" 
d="M512 448v-416h-64v-96h-448v448h96v64h416zM160 384v-288h288v288h-288zM96 32v288h-32v-320h320v32h-288zM416 288h-160v-32h128v-96h-192v32h160v32h-128v96h192v-32z" />
    <glyph glyph-name="uniF137" unicode="&#xf137;" 
d="M0 192c0 141.385 114.615 256 256 256s256 -114.615 256 -256s-114.615 -256 -256 -256s-256 114.615 -256 256zM51.2002 192c0 -113.108 91.6914 -204.8 204.8 -204.8s204.8 91.6914 204.8 204.8s-91.6914 204.8 -204.8 204.8s-204.8 -91.6914 -204.8 -204.8z
M196.267 277.333h114.986v-30.2334h-79.0186v-37.8027h68.4971v-27.9463h-68.4971v-67.584h-35.9678v163.566z" />
    <glyph glyph-name="uniF117" unicode="&#xf117;" 
d="M512 176c0 -79.6797 -64.4482 -144 -144.064 -144h-271.936c-54.208 7.67969 -96 55.6797 -96 112c0 45.1201 26.752 83.5195 65.1201 101.44c-0.448242 3.51953 -1.12012 7.35938 -1.12012 10.8799c0 53.1201 42.9121 96 95.9678 96
c12.2246 0 23.8398 -2.56055 34.624 -6.7207c11.9043 58.5605 63.4561 102.4 125.376 102.4c70.7842 0 128.032 -57.2803 128.032 -128c0 -8 -0.959961 -15.6797 -2.33594 -23.04c39.8398 -25.5996 66.3359 -70.0801 66.3359 -120.96zM336 224v32
c0 35.3438 -28.6562 64 -64 64s-64 -28.6562 -64 -64v-32c-8.84766 0 -16 -7.15234 -16 -16v-96c0 -8.84766 7.15234 -16 16 -16h128c8.83203 0 16 7.15234 16 16v96c0 8.84766 -7.16797 16 -16 16zM304 224h-64v32c0 16 16 32 32 32s32 -16 32 -32v-32z" />
    <glyph glyph-name="uniF141" unicode="&#xf141;" 
d="M320 160h128l-189.152 -214.192l-194.848 214.192h128v128h128v-128zM0 448h512v-85.3438h-512v85.3438z" />
    <glyph glyph-name="uniF160" unicode="&#xf160;" 
d="M256 416c123.712 0 224 -100.288 224 -224s-100.288 -224 -224 -224s-224 100.288 -224 224s100.288 224 224 224zM88 164h336v56h-336v-56z" />
    <glyph glyph-name="uniF19A" unicode="&#xf19a;" 
d="M0 352h512v-32h-512v32zM160 288h352v-32h-352v32zM0 224h512v-32h-512v32zM160 160h352v-32h-352v32zM0 96h512v-32h-512v32zM160 32h352v-32h-352v32z" />
    <glyph glyph-name="uniF116" unicode="&#xf116;" 
d="M256 420.72c126.304 0 228.704 -102.399 228.704 -228.72s-102.4 -228.72 -228.704 -228.72c-126.32 0 -228.72 102.399 -228.72 228.72s102.399 228.72 228.72 228.72zM255.6 20.4482c109.872 0 171.521 61.6797 171.521 171.552s-61.6484 171.552 -171.521 171.552
s-171.552 -61.6797 -171.552 -171.552s61.6797 -171.552 171.552 -171.552zM277.808 159.136l-59.5674 -69.0879c-8.44824 -8.44824 -24.3203 -6.12793 -35.4727 5.02441c-11.1514 11.1514 -13.3271 27.1201 -4.87988 35.5674l48.96 57.6807
c-0.15918 1.19922 -0.719727 2.43164 -0.719727 3.67969v114.368c0 15.792 13.2324 28.5918 29.0078 28.5918c15.7764 0 29.0078 -12.7998 29.0078 -28.5918v-115.2h0.208008c4 -10.2402 0.0488281 -25.4082 -6.55957 -32.0322h0.015625z" />
    <glyph glyph-name="uniF166" unicode="&#xf166;" 
d="M32 256h64l128 128v-384l-128 128h-64c-32 0 -32 32 -32 32v64s0 32 32 32zM512 272l-80 -80l80 -80l-48 -48l-79.8721 80.1279l-80.1279 -80.1279l-48 48l80.208 80.208l-80.208 80.4316l48 47.3604l80 -80l80 80z" />
    <glyph glyph-name="uniF14A" unicode="&#xf14a;" 
d="M223.312 63.7441v96.1914h-192.319v96.1924h192.319v64.1279c58.7686 -48.0957 128.257 -128.256 128.257 -128.256s-117.553 -128.256 -128.257 -128.256zM160.064 288.192h-32.0645v96.1914c0 17.6963 14.3682 32.0645 32.0645 32.0645h224.416l96.208 -96.1924
v-320.64c-0.00976562 -17.6904 -14.374 -32.0479 -32.0645 -32.0479h-288.576c-17.6816 0.0175781 -32.0391 14.3818 -32.0479 32.0635v127.729h31.4717l0.592773 -111.681s1.56738 -16.0479 16.0312 -16.0479h256.48c14.4961 0 16.0479 16.0322 16.0479 16.0322v272.496
h-64.1602s-32.0479 -1.50391 -32.0479 32.0635v64.1602h-176.32c-14.5117 0 -16.0479 -16.0322 -16.0479 -16.0322v-80.1592h0.0166016z" />
    <glyph glyph-name="uniF109" unicode="&#xf109;" 
d="M112 358.88l61.248 60.96l227.6 -228.704l-227.6 -228.704l-61.248 60.96l166.992 167.729z" />
    <glyph glyph-name="uniF178" unicode="&#xf178;" 
d="M477.872 137.312v0c0 -68.8447 -55.875 -124.72 -124.72 -124.72h-0.0800781h-235.504c-46.9287 6.76855 -83.1523 48.1602 -83.1523 97.0078c0 39.04 23.168 72.4805 56.416 87.8408c-0.383789 3.15137 -0.959961 6.27148 -0.959961 9.50391v0
c0 45.8643 37.2236 83.1094 83.0879 83.1357c10.6084 0 20.6396 -2.14453 29.9844 -5.75977c10.0381 48.8838 58.6875 88.5664 108.592 88.5762h0.0634766c61.1885 0 110.849 -49.6602 110.849 -110.849v-0.0322266c0 -6.83203 -0.799805 -13.4395 -2 -19.9678
c34.4795 -22.1914 57.4395 -60.7041 57.4395 -104.752zM358.64 269.312c-4.08105 2.99512 -11.502 5.42578 -16.5645 5.42578c-7.625 0 -17.5791 -4.91016 -22.2188 -10.9609l-84.2402 -110.784l-46.1758 45.3115c-4.51367 4.4043 -13.2949 7.97852 -19.6006 7.97852
s-15.0869 -3.57422 -19.5996 -7.97852c-4.4834 -4.36133 -8.12207 -12.9775 -8.12207 -19.2314c0 -6.25488 3.63867 -14.8711 8.12207 -19.2324l91.4717 -89.7598l122.592 161.168c3.03027 3.97656 5.48926 11.2617 5.48926 16.2617
c0 7.59375 -5.00391 17.3535 -11.1689 21.7861z" />
    <glyph glyph-name="uniF113" unicode="&#xf113;" 
d="M441.312 423.248h-0.03125c42.9434 0 42.5273 -42.6396 42.5273 -42.6396v-372.208s0.416016 -42.5283 -42.5273 -42.5283h-372.177c-42.96 0 -42.6396 42.5283 -42.6396 42.5283v372.208s-0.288086 42.6396 42.6562 42.6396h372.191zM231.92 22.7197h0.015625
c34.8809 63.6807 142.656 193.92 195.04 205.488c-20.3672 46.3037 -13.6318 94.6719 -10.7197 138.08c-119.392 -60.7842 -190.191 -253.856 -190.191 -253.856l-46.5605 89.7285l-96.0635 -57.8721c40.752 -14.4805 98.9756 -60.7686 148.479 -121.568z" />
    <glyph glyph-name="uniF181" unicode="&#xf181;" 
d="M508 270.32v-157.28l-96 -157.312v251.681l79.6162 44.5762h-94.4004l31.4727 32h79.3115v-13.6963v0.0322266zM180 251.44l-97.3604 -63.4404h297.36v-248h-376v267.392l99.5996 44.5928h76.3848v-0.560547zM177.024 68h62.9277c15.4717 0 31.4561 14.7998 31.4561 32
c0 18.1758 -15.9678 32 -31.4561 32h-62.9121c-15.4717 0 -32.4316 -14.832 -31.4561 -32c0.959961 -17.2002 13.9844 -32 31.4404 -32zM100.672 283.36l144 160l144 -160h-96v-64h-96v64h-96z" />
    <glyph glyph-name="uniF1B4" unicode="&#xf1b4;" 
d="M172.252 409.914c1.03125 0.0478516 2.70703 0.0859375 3.74023 0.0859375h0.0078125h210c44.1826 0 80 -35.8174 80 -80.0098v-305.98c0 -44.1895 -35.8135 -80.0098 -80 -80.0098h-210c-44.1826 0 -80 35.8174 -80 80.0098v71.7002l50 -50v-12.7139
c0 -22.0957 17.9102 -39.9961 40.0029 -39.9961h189.994c22.0928 0 40.0029 17.9072 40.0029 39.9961v286.008c0 22.0957 -17.9102 39.9961 -40.0029 39.9961h-161.024l-42.7197 50.9141h-0.000976562zM190.144 253.99h0.120117v-54.6104l31.8457 31.8457l38.8896 -38.8896
l-97.5801 -97.5801l-0.15625 0.154297l-0.154297 -0.155273l-97.582 97.5801l38.8896 38.8896l30.8457 -30.8438v53.6104h0.192383c0.169922 10.2676 -1.08008 47.6582 -26.6182 71.498c-29.8301 27.8457 -68.6758 22.4795 -68.6758 22.4795v62.9238
s70.5898 4.13086 113.644 -38.8477c38.3076 -38.2373 37.0752 -104.014 36.3379 -118.054z" />
    <glyph glyph-name="uniF12C" unicode="&#xf12c;" 
d="M255.2 159.8l-251.601 191c5.30078 10.2002 16 17.2002 28.4004 17.2002h448c12.2998 0 23.0996 -7 28.4004 -17.2002l-251.601 -191c-0.399414 -0.299805 -1.2002 -0.299805 -1.59961 0zM281.7 130l230.3 172.7v-254.8c0 -17.6006 -14.2002 -31.9004 -32 -31.9004h-448
c-17.7002 0 -32 14.2002 -32 31.7998v254.9l230.2 -172.7c14 -10.5 37.2998 -10.7002 51.5 0z" />
    <glyph glyph-name="uniF130" unicode="&#xf130;" 
d="M320 160h128l-189.152 -214.192l-194.848 214.192h128v128h128v-128zM0 448h512v-85.3438h-512v85.3438z" />
    <glyph glyph-name="uniF1B2" unicode="&#xf1b2;" 
d="M164.688 47.792h56.3193v-85.3281h-56.3193v85.3281zM348.272 419.84l0.03125 0.0166016l84.3525 -85.2803v-342.4c0 -15.7754 -13.3281 -29.7275 -29.0723 -29.7275h-156.96v117.824h-52.9121v27.2959h27.3125v29.0078h-27.3125v27.2959h27.3125v25.5996h-27.3125
v29.0088h27.3125v27.2959h-27.3125v29.0078h27.3125v27.2959h-27.3125v32.4795h27.3125v28.96h-27.3125v27.3604h-29.0078v-27.3604h29.0078v-28.96h-29.0078v-32.4795h29.0078v-27.2959h-29.0078v-29.0244h29.0078v-27.2959h-29.0078v-29.0234h29.0078v-25.6006h-29.0078
v-27.2959h29.0078v-29.0244h-29.0078v-27.3271h-27.3125v-117.761h-30.7197c-15.7754 0 -30.7197 13.9521 -30.7197 29.7285v399.52c0 15.7441 13.1514 28.1602 28.9277 28.1602h243.393zM403.552 302.08v-0.015625c20.96 0 -0.351562 30.5273 -0.351562 30.5273
l-57.3926 59.0879c-12.4795 12.4805 -29.2158 0 -29.2158 0v-57.0879c0 -29.8721 29.8887 -32.5117 29.8887 -32.5117h57.0713z" />
    <glyph glyph-name="uniF1A7" unicode="&#xf1a7;" 
d="M420.592 241.712h-0.0322266c34.4648 -22.1758 57.4082 -60.6875 57.4082 -104.688v-0.0322266c0 -68.8018 -55.8389 -124.641 -124.64 -124.641h-0.0800781h-235.36c-47.1836 0 -83.1035 48.1602 -83.1035 96.96c0 38.9922 23.1514 72.4326 56.3516 87.792
c-0.368164 3.16895 -0.959961 6.27246 -0.959961 9.52051v0.0322266c0 45.8555 37.2168 83.0713 83.0723 83.0713h0.015625c8.57324 -0.0361328 21.999 -2.63086 29.9688 -5.79199c10.0205 48.8701 58.6406 88.5381 108.527 88.5449h0.0478516
c61.1533 0 110.784 -49.6318 110.784 -110.784v-0.0166016c-0.0576172 -5.56055 -0.953125 -14.5059 -2 -19.9678zM344.72 109.952h-0.015625l-40.0322 40.0322l40.0322 40.0312c4.47754 4.47852 8.1123 13.252 8.1123 19.584c0 15.2881 -12.4082 27.6963 -27.6963 27.6963
c-6.33301 0 -15.1064 -3.63379 -19.584 -8.1123l-40.0322 -40.0312l-40.0322 40.0312c-4.47754 4.47852 -13.251 8.1123 -19.584 8.1123c-15.2881 0 -27.6953 -12.4082 -27.6953 -27.6963c0 -6.33203 3.63379 -15.1055 8.11133 -19.584l40.0322 -40.0312l-40.0322 -40.0322
c-4.48145 -4.47656 -8.11816 -13.25 -8.11816 -19.584s3.63672 -15.1074 8.11816 -19.584c5.4082 -5.39258 12.4961 -8.1123 19.6006 -8.1123c7.10352 0 14.1758 2.7041 19.584 8.1123l40.0312 40.0322l40.0322 -40.0322c4.47852 -4.47754 13.252 -8.1123 19.584 -8.1123
c15.2881 0 27.6963 12.4082 27.6963 27.6963c0 6.33203 -3.63379 15.1064 -8.1123 19.584z" />
    <glyph glyph-name="uniF1AF" unicode="&#xf1af;" 
d="M206.112 192.048l0.0478516 0.0166016c5.11035 -2.81152 13.2812 -7.58496 18.2402 -10.6562c-8.22461 -28.1279 -35.7441 -122.208 -47.2646 -161.168c-24.2393 15.5518 -53.584 30.6396 -94 30.6396c-24.9922 0 -52.2881 -5.55176 -83.1357 -16.96l44.9121 155.696
c4.60742 1.87207 9.05566 3.55176 13.4082 5.15137c16.4316 5.72852 41.9355 13.0889 69.8721 15.4082c3.00781 0.255859 6 0.352539 8.95996 0.352539c21.9199 0 45.1201 -6.22461 68.96 -18.4805zM264.192 152.464c21.1992 -14.9443 54.7832 -30.4639 102.752 -30.4639
c26.3037 0 54.416 4.7998 83.7441 14.2402l-43.2002 -150.977c-36.3047 -14.7676 -67.5205 -21.9199 -95.4082 -21.9199c-34.5605 0 -79.7119 24.3525 -93.1201 32.0322zM146.432 263.584l-0.03125 0.015625h-0.0644531c-25.7275 0 -53.6475 -5.95117 -86.0479 -18.1592
l44.2236 155.279c32.2559 12.9287 60.5283 19.4404 86.4482 19.9199c0.177734 0.000976562 0.46582 0.00195312 0.643555 0.00195312c10.6143 0 27.6221 -1.93652 37.9648 -4.32129c18.5273 -4.75195 44.1592 -18.7207 53.9512 -24.3203l-46.3994 -158.656
c-23.6484 15.1367 -52.1279 29.8398 -90.6885 30.2402zM512 348.96l-44.4961 -153.232l-1.87207 -0.431641l0.112305 -1.12012c-29.7598 -13.5039 -59.2637 -20.3193 -87.7441 -20.3193c-34.8799 0 -68.1602 10.0791 -99.04 29.9199l45.9678 159.136
c21.9043 -15.2959 55.7119 -31.2002 101.553 -31.2002c27.4395 0 56.1113 5.82422 85.5195 17.248z" />
    <glyph glyph-name="uniF193" unicode="&#xf193;" 
d="M429.728 421.552c28.9121 0 55.8408 -27.4717 55.8408 -56.3193v-346.448c0 -28.8799 -26.9287 -58.0322 -55.8408 -58.0322h-346.88c-28.9121 0 -58.0801 29.168 -58.0801 58.0322v346.448c0 28.8633 29.168 56.3193 58.0801 56.3193h346.88zM427.968 -8.57617
l0.0800781 0.0322266s30.6719 27.3438 30.6719 56.2236c-12.6553 12.0645 -25.4082 17.584 -92.416 27.4561c-66.9756 9.88867 -62.3359 44.1279 -62.8154 46.208c0.111328 5.26465 2.47949 27.5684 2.47949 27.5684s21.5684 17.9043 31.8398 47.1523
c16.1602 10.1914 22.3047 11.5996 24.96 23.3594c0 0 7.28027 44.3838 -10.0791 44.3838c0 0 -19.8887 -1.15137 -17.5684 9.24805c2.32031 10.4326 1.55176 14.0479 0.368164 25.6006c-1.13672 11.5674 5.87207 44.6074 -18.4805 49.2158
c-16.5762 3.07227 -11.2637 -1.59961 -19.3594 -0.448242c-8.1123 1.15234 -17.7607 22.1123 -32.8008 22.1123l-24.0479 -5.00781c-15.0234 0 -1.87207 -4.64062 -10 -5.76074c-8.06348 -1.18359 10.7197 1.12012 -13.5996 -3.47168
c-24.3037 -4.62402 -29.3281 -35.8242 -30.4482 -47.3916c-1.12012 -11.5684 -1.44043 -15.2002 -0.639648 -32.5283c2.28809 -10.4004 -9.44043 -10.4004 -9.44043 -10.4004c-14.5762 0.928711 -17.0557 -44.3838 -17.0557 -44.3838
c2.08008 -11.2002 -0.768555 -16.7676 20.7998 -25.4082c10.2725 -29.1992 36.4004 -43.9512 36.4004 -43.9512s1.2959 -18.752 1.69531 -32.0967c-2.20801 1.12012 -3.80762 -34.1113 -70.7998 -44c-66.96 -9.85547 -81.1523 -15.3916 -93.792 -27.4561
c0 -28.8799 24.7197 -56.3037 24.7197 -56.3037z" />
    <glyph glyph-name="uniF18A" unicode="&#xf18a;" 
d="M481.92 17.9521h-0.015625c7.75781 -7.75977 14.0537 -22.9639 14.0537 -33.9365s-6.2959 -26.1758 -14.0537 -33.9355c-18.7207 -18.7686 -49.1201 -18.7686 -67.8398 0l-134.433 134.4c-22.7461 -11.7471 -61.9844 -21.2803 -87.584 -21.2803h-0.0478516
c-106.032 0 -192 85.9521 -192 192c0 106.032 85.9678 192 192 192s192 -85.9678 192 -192v-0.268555c0 -32.1475 -14.5508 -79.8955 -32.4805 -106.58zM64 255.2c0 -70.4004 57.5996 -128 128 -128s128 57.5996 128 128c0 70.3994 -57.5996 128 -128 128
s-128 -57.6006 -128 -128z" />
    <glyph glyph-name="uniF14B" unicode="&#xf14b;" 
d="M256 448h256v-64h-64v-448h-64v448h-64v-448h-64v256c-70.6562 0 -128 57.3438 -128 128s57.3438 128 128 128zM0 96v256l128 -128z" />
    <glyph glyph-name="uniF171" unicode="&#xf171;" 
d="M256.704 -54.752h-0.205078c-91.8789 0 -189.128 71.0352 -217.075 158.56l-2.71973 8.83203h68.1602l1.67969 -4.31934c23.5664 -54.291 90.7256 -98.3525 149.91 -98.3525h0.234375c76.3838 0 140.64 49.7598 158.848 123.152h-49.8398l80.8477 104.384
l64.2725 -104.384h-29.4404c-9.15234 -52.9121 -35.8076 -98.4805 -75.4238 -132.608c-35.5117 -30.5059 -102.327 -55.2637 -149.143 -55.2637h-0.137695h0.0322266zM0.704102 267.968h35.1523c12.3672 47.7764 40 89.3926 78.2393 120.192
c34.46 27.7773 98.3477 50.4277 142.608 50.5596c92.5762 0 175.296 -54.6719 210.784 -140.063l3.72754 -8.48047h-70.8154l-1.85645 2.83203c-29.1201 51.248 -82.1436 81.4883 -141.824 81.4883c-69.1514 0 -129.728 -41.6641 -153.439 -106.512h46.0479
l-77.6641 -103.92l-70.9277 103.903h-0.0322266zM213.12 117.92l-0.0166016 0.0322266s55.585 151.52 149.248 199.2c-2.30371 -34.1123 -7.55176 -72.0322 8.41602 -108.353c-41.0879 -9.12012 -125.647 -111.312 -153.088 -161.28
c-38.8477 47.6807 -84.5273 84.0322 -116.527 95.3926l75.4072 45.4395z" />
    <glyph glyph-name="uniF17F" unicode="&#xf17f;" 
d="M255.456 422.08h-0.015625c126.8 0 229.68 -102.816 229.68 -229.6c0 -126.784 -102.816 -229.601 -229.601 -229.601c-126.815 0 -229.6 102.816 -229.6 229.601c0 126.783 102.784 229.6 229.536 229.6zM255.456 12.0957c99.6475 0 180.384 80.7686 180.384 180.385
c0 99.6152 -80.7363 180.432 -180.368 180.432s-180.416 -80.8164 -180.416 -180.416s80.752 -180.4 180.4 -180.4zM334.304 216.704v-0.015625c12.4883 0 22.624 -10.1357 22.624 -22.624c0 -12.4893 -10.1357 -22.624 -22.624 -22.624h-77.9521
c-12.5117 0 -22.5918 10.1279 -22.5918 22.6074v98.3037c0 12.5127 10.0801 22.5928 22.5918 22.5928c12.5127 0 22.5928 -10.1123 22.5928 -22.5928v-75.6475h55.3594z" />
    <glyph glyph-name="uniF19B" unicode="&#xf19b;" 
d="M192 264c0 13.248 10.752 24 24 24s24 -10.752 24 -24v-71.2002l19.6797 11.3604c3.0752 1.77344 8.45117 3.21289 12 3.21289c13.2559 0 24.0137 -10.7578 24.0137 -24.0127c0 -7.65625 -5.38184 -16.9746 -12.0137 -20.8008l-55.4561 -32
c-3.0752 -1.77637 -8.45312 -3.21777 -12.0049 -3.21777c-7.65625 0 -16.9727 5.38379 -20.7949 12.0186c-0.479492 0.879883 -0.799805 1.75977 -1.2002 2.6875l-0.479492 1.02441c-0.240234 0.639648 -0.416016 1.2793 -0.591797 1.8877
c-0.612305 1.89453 -1.12793 5.04883 -1.15234 7.04004v112zM240 366.592c108 -11.9521 192 -103.424 192 -214.592c0 -119.296 -96.7041 -216 -216 -216s-216 96.7041 -216 216c0 111.168 84 202.64 192 214.592v33.4082s5.2002 16 -16 16h-32v32h144v-32h-32
s-16 6.76758 -16 -16v-33.4082zM339.568 39.7441c25.5996 28 42.0801 64.3994 44.0312 104.256h-31.5996v16h31.5996c-1.95117 39.8721 -18.4316 76.2402 -44.0312 104.256l-21.7607 -21.7275l-11.2959 11.3115l21.7607 21.7285
c-28.0645 25.4873 -64.4805 41.9199 -104.272 44v-31.5684h-16v31.6162c-40.0801 -1.82422 -76.5762 -18.1602 -104.64 -43.6807l22.1113 -22.1113l-11.3115 -11.3125l-22.1123 22.1123c-25.4883 -28.0479 -41.8555 -64.5596 -43.6797 -104.624h31.6318v-16h-31.584
c2.08008 -39.8398 18.4482 -76.3203 43.9043 -104.368l21.8555 21.8398l11.3125 -11.3115l-21.8721 -21.8721c28 -25.5996 64.3994 -42.0801 104.384 -43.9043v31.6162h16v-31.5684c39.8076 2.08008 76.208 18.5127 104.24 44l-21.7285 21.7285l11.3125 11.3115
l21.7598 -21.7275h-0.015625z" />
    <glyph glyph-name="uniF1BE" unicode="&#xf1be;" 
d="M424.6 219.3l-29.7998 29.6006l27.2998 27.2998h-54.5c-60.2998 0 -72.2998 -17.2998 -88.8994 -41.1006c-10.1006 -14.5 -21.4004 -30.6992 -42.7998 -43.2998c21.3994 -12.5 32.6992 -28.7998 42.7998 -43.2998c16.5996 -23.9004 28.5996 -41.0996 88.8994 -41.0996
h54.5l-27.2998 27.2998l29.7998 29.7998l78.1006 -78.2002l-78.1006 -78.2002l-29.7998 29.8008l27.2998 27.2998h-54.5c-82.2998 0 -104.199 31.5 -123.5 59.2002c-17.2998 24.8994 -32.2998 46.3994 -108.399 46.3994h-126.5v42.2002h126.5
c76.0996 0 91.0996 21.5 108.399 46.4004c19.3008 27.7998 41.2002 59.1992 123.5 59.1992h54.5l-27.2998 27.3008l29.7998 29.7998l78.1006 -78.2002z" />
    <glyph glyph-name="uniF11F" unicode="&#xf11f;" 
d="M448 448c35.2002 0 64 -28.7998 64 -64v-288c0 -35.2002 -28.7998 -64 -64 -64h-204.8l-115.2 -96v96h-64c-35.2002 0 -64 28.7998 -64 64v288c0 35.2002 28.7998 64 64 64h384zM435.2 320c6.39941 3.2002 6.39941 12.7998 0 16l-44.7998 44.7998
c-6.40039 3.2002 -12.8008 3.2002 -16 -3.2002l-172.801 -172.8l-70.3994 67.2002c-6.40039 6.40039 -12.7998 6.40039 -19.2002 0l-44.7998 -44.7998c-3.2002 -3.2002 -3.2002 -12.7998 0 -16l124.8 -118.4c3.2002 -3.2002 6.40039 -3.2002 9.59961 -3.2002
c3.2002 0 6.40039 0 9.60059 3.2002z" />
    <glyph glyph-name="uniF175" unicode="&#xf175;" 
d="M448.64 158.4h-158.367v-158.4h-67.8721v158.4h-158.4v67.8398h158.4v158.399h67.8721v-158.399h158.399z" />
    <glyph glyph-name="uniF168" unicode="&#xf168;" 
d="M256 443.36c138.816 0 251.36 -112.544 251.36 -251.36s-112.544 -251.36 -251.36 -251.36c-138.848 0 -251.36 112.48 -251.36 251.36s112.513 251.36 251.36 251.36zM256 1.91992v-0.0322266h0.186523c34.7979 0 85.6426 16.9307 113.493 37.792l-96.2881 96.2881
c-24.9277 -31.9355 -46.2881 -65.0234 -58.2881 -86.9121c-41.2158 50.5762 -89.6631 89.1367 -123.584 101.185l79.9688 48.1602l38.752 -74.7041s7.82422 22.1602 22.9922 52.3994l-129.601 129.601c-23.7275 -31.6963 -37.7598 -71.0566 -37.7598 -113.696
c0 -104.96 85.1201 -190.08 190.128 -190.08zM408.352 78.3203v0.015625c23.6963 31.7119 37.7285 71.0557 37.7285 113.68c0 104.992 -85.1201 190.112 -190.08 190.112h-0.245117c-34.7842 0 -85.6104 -16.9238 -113.451 -37.7764l118.912 -118.88
c25.3281 39.6006 59.8398 80.6406 102.72 102.48c-2.39941 -36.1123 3.84082 -59.6641 20.8008 -98.1924c-22.6406 -3.64746 -49.6006 -24.752 -75.6807 -52.1602z" />
    <glyph glyph-name="uniF14F" unicode="&#xf14f;" 
d="M400 200.112v-16.1123h-288v16.1123h288zM400 263.856v-0.0166016v-16.0801h-288v16.0967h288zM448 224v-30.6396l64 30.6396v-256s-1.79199 -32 -32 -32h-448s-32 3.00781 -32 32v256l64 -30.7197v30.7197h-32s-32 0.799805 -32 32.7998l64 53.9199v57.2803
s3.07227 32 32 32h74l38 32s16.0322 15.8877 47.5195 15.8877c31.4883 0 48.4805 -15.8877 48.4805 -15.8877l37.8076 -32h74.1924c31.9199 0 32 -32 32 -32v-57.8398l64 -54.1602c0 -32.3203 -32 -32 -32 -32h-32zM480 -32c0 0 -40.9922 72.4805 -64 96
s-104.48 64 -104.48 64l120.48 57.6963v182.304s-2.94434 16 -14.9756 16h-321.44c-13.4082 0 -15.584 -16 -15.584 -16v-182.4l120 -57.5996s-85.376 -44.5283 -104 -64c-18.624 -19.4883 -64 -96 -64 -96l176 160s16.9922 16 48 16s48 -16 48 -16zM304 328.32v-16.1279
h-192v16.1279h192z" />
    <glyph glyph-name="uniF10A" unicode="&#xf10a;" 
d="M385.152 192l-289.12 -192v384z" />
    <glyph glyph-name="uniF154" unicode="&#xf154;" 
d="M64 352v-256h96v-64h-160v320h64zM128 288v64h256v-64h-96v-256h-64v256h-96zM416 352h64v-320h-64v320z" />
    <glyph glyph-name="uniF17D" unicode="&#xf17d;" 
d="M255.456 422.08h-0.015625c126.8 0 229.68 -102.816 229.68 -229.6c0 -126.784 -102.816 -229.601 -229.601 -229.601c-126.815 0 -229.6 102.816 -229.6 229.601c0 126.783 102.784 229.6 229.536 229.6zM255.456 12.0957c99.6475 0 180.384 80.7686 180.384 180.385
c0 99.6152 -80.7363 180.432 -180.368 180.432s-180.416 -80.8164 -180.416 -180.416s80.752 -180.4 180.4 -180.4zM344.048 180.752h-59.04v-79.6484h-59.0879v79.6328h-59.04l88.5439 110.144l88.5918 -110.128h0.0322266z" />
    <glyph glyph-name="uniF1AB" unicode="&#xf1ab;" 
d="M480 8.95996v-72.96h-480v73.04c0 15.248 11.2002 58.624 97.0244 71.1035c56.6719 8.22461 73.8076 19.5205 78.9277 26.2402c-0.671875 15.6807 -1.91992 33.4404 -1.91992 33.4404s-17.0244 18.624 -30.0322 55.5674
c-27.2803 10.9287 -23.6797 17.9521 -26.3359 32.0801c0 0 3.15234 57.2803 21.5996 56.0967c0 0 14.8008 0 11.8721 13.1201c-0.959961 21.9199 -0.607422 26.4951 0.864258 41.1191s7.75977 54.0488 38.5117 59.8721c30.752 5.83984 6.99219 2.92871 17.248 4.38477
c10.2559 1.45508 -6.39941 7.2959 12.6406 7.2959l30.3994 6.33594c19.0078 0 31.2324 -26.4805 41.4404 -27.9365c10.2715 -1.47168 3.58398 4.44824 24.5596 0.560547c30.752 -5.82422 32.2559 -47.6006 33.6963 -62.208
c1.47168 -14.5928 0.160156 -19.168 -2.75195 -32.3203c-2.94434 -13.1523 8.95996 -11.4717 8.95996 -11.4717c21.9678 0 17.9844 -56.3203 17.9844 -56.3203c-3.39258 -14.8799 -11.2002 -16.6396 -31.6328 -29.5361c-12.96 -36.96 -40.2715 -59.6162 -40.2715 -59.6162
l1.21582 -24.8477s-4.75195 -19.5195 80 -32s96 -55.7764 96 -71.04z" />
    <glyph glyph-name="uniF120" unicode="&#xf120;" 
d="M448 240.8l64 31.2002v-176c0 -34.5596 -29.4404 -64 -64 -64h-160l-128 -96h-32v96h-64c-34.5596 0 -64 29.4404 -64 64v224c0 34.5596 29.4404 64 64 64h192v-64h-160c-17.6641 0 -32 -14.3359 -32 -32v-160c0 -17.6641 14.3359 -32 32 -32h80v-64l96 64h144
c17.6641 0 32 14.3359 32 32v112.8zM352 256v64h-64v64h64v64h64v-64h64v-64h-64v-64h-64z" />
    <glyph glyph-name="uniF105" unicode="&#xf105;" 
d="M395.744 175.952v0.015625c0.671875 -77.4561 67.9355 -103.216 68.7041 -103.567c-0.576172 -1.79199 -10.7686 -36.7363 -35.4561 -72.832c-21.3604 -31.2002 -43.4727 -62.2402 -78.3525 -62.8799c-34.3193 -0.640625 -45.3438 20.3193 -84.5273 20.3193
c-39.1846 0 -51.4561 -19.6797 -83.8721 -20.96c-33.6641 -1.24805 -59.3125 33.6797 -80.7998 64.7686c-44.0322 63.5674 -77.6006 179.615 -32.4805 257.968c22.4004 38.9121 62.4639 63.5518 105.92 64.1914c33.0723 0.608398 64.3203 -22.2715 84.4805 -22.2715
c20.2393 0 58.1592 27.5039 98.0479 23.4561c16.6719 -0.688477 63.5195 -6.71973 93.5996 -50.7197c-2.38379 -1.55273 -55.9043 -32.6406 -55.2637 -97.4883zM331.264 366.24h0.0166016c-17.8887 -21.6162 -47.2158 -38.4482 -75.9688 -36.208
c-3.87109 29.3916 10.624 60 27.2002 79.2002c18.4482 21.6152 49.6484 37.7119 75.4082 38.7676c3.3125 -30 -8.75195 -60.0801 -26.6562 -81.7598z" />
    <glyph glyph-name="uniF179" unicode="&#xf179;" 
d="M256 421.6c126.768 0 229.6 -102.815 229.6 -229.6s-102.815 -229.6 -229.6 -229.6c-126.768 0 -229.6 102.832 -229.6 229.6s102.815 229.6 229.6 229.6zM256 48.5117c15.8359 0 28.6885 12.8525 28.6885 28.6885s-12.8525 28.6875 -28.6885 28.6875
s-28.6885 -12.8516 -28.6885 -28.6875s12.8525 -28.6885 28.6885 -28.6885zM331.2 208.512v-0.03125c7.35938 10.2559 11.04 22.8799 11.04 37.8711c0 24.4805 -8.52832 42.8965 -25.5361 55.3604s-38.416 18.6562 -64.1279 18.6562
c-19.584 0 -36.1123 -4.43262 -49.5518 -13.2002c-21.3125 -13.6963 -32.624 -39.2002 -34 -69.9199h51.168c0 6.83203 0.943359 18.8643 6.46387 27.7441c5.51953 8.87988 14.8633 13.3916 28.0322 13.3916c13.3916 0 22.6396 -3.64746 27.6797 -10.8477
c5.07227 -7.2002 7.59961 -15.248 7.59961 -24c0 -7.63184 -2.27148 -14.7041 -6.7998 -21.04c-2.47949 -3.67969 -5.75977 -7.2959 -9.83984 -10.4004l-12.4805 -10.2715c-12.2559 -9.68066 -23.4395 -19.04 -26.3994 -26.4805
c-2.92871 -7.43945 -6.46387 -23.4395 -7.15234 -43.9199h57.3926c0.111328 10.2402 -1.34473 25.9199 0 30.2725c2.17578 6.94336 2.94336 8.22363 9.53516 13.4395l12.1123 9.50391c12.2236 9.69629 20.5439 17.6328 24.8643 23.8721z" />
    <glyph glyph-name="uniF149" unicode="&#xf149;" 
d="M448 320c64 0 64 -64 64 -64v-256c0 -64 -64 -64 -64 -64h-384c-64 0 -64 64 -64 64v256s0 64 64 64h384zM448 0v256h-384v-256h384zM288 158.688l128 -126.688h-320l65.248 192l94.4961 -123.04zM367.168 157.456v0.015625c-18.2236 0 -33.0078 14.624 -33.0078 32.6719
c0 18.0488 14.7676 32.6729 33.0078 32.6729c18.208 0 32.9922 -14.624 32.9922 -32.6729c0 -18.0479 -14.752 -32.6875 -32.9922 -32.6875z" />
    <glyph glyph-name="uniF10F" unicode="&#xf10f;" 
d="M144 368c-8.83203 0 -16 7.16797 -16 16v48c0 8.83203 7.16797 16 16 16s16 -7.16797 16 -16v-48c0 -8.83203 -7.16797 -16 -16 -16zM464 416c29.9199 0 48 -18.7197 48 -48v-384c0 -29.2803 -16.1279 -48 -48 -48h-416c-29.2803 0 -48 19.3604 -48 48v384
c0 29.9199 16.7998 48 48 48h48v-32c0 -26.4961 21.5039 -48 48 -48s48 21.5039 48 48v32h128v-32c0 -26.4961 21.5039 -48 48 -48s48 21.5039 48 48v32h48zM448 0v288h-384v-288h384zM234.912 139.68c6.56445 15.6387 20.4922 39.0771 31.0879 52.3203h-74v32h128v-32
c-10.1602 -9.15234 -21.168 -19.248 -27.9678 -29.9199c-8.27246 -12.96 -11.2002 -17.7119 -16 -33.5996c-3.77637 -12.3848 -7.71191 -47.584 -9.02441 -64.4805h-43.0078c3.13574 23.5195 4.16016 59.7764 10.9121 75.6797zM368 368c-8.83203 0 -16 7.16797 -16 16v48
c0 8.83203 7.16797 16 16 16s16 -7.16797 16 -16v-48c0 -8.83203 -7.16797 -16 -16 -16z" />
    <glyph glyph-name="uniF15E" unicode="&#xf15e;" 
d="M192 64v256l128 -128z" />
    <glyph glyph-name="uniF14C" unicode="&#xf14c;" 
d="M0 64v256l192 -128zM320 160v64h192v-64h-192zM224 352h288v-64h-288v64zM224 32v64h288v-64h-288z" />
    <glyph glyph-name="uniF169" unicode="&#xf169;" 
d="M480 170v-42l-190.992 -160h-193.008c-62.96 0 -64 64 -64 64v320c0 64 64 64 64 64h320c64 0 62.0801 -64 62.0801 -64s1.79199 -60.7998 1.91992 -182zM96 311.68v-16h320v16h-320zM96 248.384v-16h320v16h-320zM96 168.384h192v16h-192v-16zM285.968 1.75977
v0.0166016l143.312 124.256c-55.6807 -8.91211 -137.28 1.96777 -137.28 1.96777s7.36035 -79.2803 -6.03223 -126.24z" />
    <glyph glyph-name="uniF1BA" unicode="&#xf1ba;" 
d="M0 416h512v-448h-512v448zM160 0v96h-128v-96h128zM160 128v96h-128v-96h128zM160 256v96h-128v-96h128zM320 0v96h-128v-96h128zM320 128v96h-128v-96h128zM320 256v96h-128v-96h128zM480 0v96h-128v-96h128zM480 128v96h-128v-96h128zM480 256v96h-128v-96h128z" />
    <glyph glyph-name="uniF15B" unicode="&#xf15b;" 
d="M255.2 159.8l-251.601 191c5.30078 10.2002 16 17.2002 28.4004 17.2002h448c12.2998 0 23.0996 -7 28.4004 -17.2002l-251.601 -191c-0.399414 -0.299805 -1.2002 -0.299805 -1.59961 0zM281.7 130l230.3 172.7v-254.8c0 -17.6006 -14.2002 -31.9004 -32 -31.9004h-448
c-17.7002 0 -32 14.2002 -32 31.7998v254.9l230.2 -172.7c14 -10.5 37.2998 -10.7002 51.5 0z" />
    <glyph glyph-name="uniF138" unicode="&#xf138;" 
d="M0 192c0 141.385 114.615 256 256 256s256 -114.615 256 -256s-114.615 -256 -256 -256s-256 114.615 -256 256zM51.2002 192c0 -113.108 91.6914 -204.8 204.8 -204.8s204.8 91.6914 204.8 204.8s-91.6914 204.8 -204.8 204.8s-204.8 -91.6914 -204.8 -204.8z
M325.034 258.509v-103.083h-29.252v-122.401h-79.5479v122.394h-29.252v103.082c0 4.50586 1.60449 8.32031 4.7959 11.4688c2.59863 2.61133 7.69824 4.73047 11.3818 4.73047c0.0761719 0 0.198242 -0.000976562 0.274414 -0.00292969h105.147
c4.2666 0 8.08105 -1.57031 11.4346 -4.72754c3.32812 -3.15723 5.01758 -6.97168 5.01758 -11.4688v0.00878906zM220.331 323.328c0 23.6797 11.8867 35.541 35.6689 35.541s35.6523 -11.8438 35.6523 -35.5498c0 -23.415 -11.8867 -35.123 -35.6523 -35.123
s-35.6689 11.708 -35.6689 35.1143v0.0175781z" />
    <glyph glyph-name="uniF132" unicode="&#xf132;" 
d="M256 17c-141.385 0 -256 175 -256 175s114.615 175 256 175s256 -175 256 -175s-114.615 -175 -256 -175zM256.533 97.0303c52.1357 0 94.3994 42.2793 94.3994 94.4355s-42.2637 94.4365 -94.3994 94.4365c-52.1348 0 -94.4004 -42.2803 -94.4004 -94.4365
c0 -52.1553 42.2656 -94.4355 94.4004 -94.4355zM256 124.774c-37.1143 0 -67.2002 30.0977 -67.2002 67.2256s30.0859 67.2256 67.2002 67.2256s67.2002 -30.0977 67.2002 -67.2256s-30.0859 -67.2256 -67.2002 -67.2256z" />
    <glyph glyph-name="uniF14E" unicode="&#xf14e;" 
d="M75.2002 192c0 -36.7998 -28.7998 -68.7998 -64 -72c-6.40039 24 -9.60059 48 -9.60059 72s3.2002 49.5996 9.60059 72c36.7998 -3.2002 64 -35.2002 64 -72zM96 192c0 12.3711 10.0293 22.4004 22.4004 22.4004s22.3994 -10.0293 22.3994 -22.4004
s-10.0283 -22.4004 -22.3994 -22.4004s-22.4004 10.0293 -22.4004 22.4004zM436.8 192c0 36.7998 27.2002 68.7998 64 72c6.40039 -22.4004 9.60059 -48 9.60059 -72s-3.2002 -48 -9.60059 -72c-35.2002 3.2002 -64 35.2002 -64 72zM393.6 216
c12.8008 0 22.4004 -11.2002 22.4004 -22.4004c0 -12.7998 -9.59961 -22.3994 -22.4004 -22.3994c-12.7998 0 -22.3994 9.59961 -22.3994 22.3994c0 12.8008 9.59961 22.4004 22.3994 22.4004zM256 11.2002c36.7998 0 67.2002 -27.2002 72 -64
c-22.4004 -6.40039 -48 -9.60059 -72 -9.60059s-48 3.2002 -72 9.60059c3.2002 36.7998 35.2002 64 72 64zM256 76.7998c11.2002 0 20.7998 -9.59961 22.4004 -22.3994c0 -12.8008 -9.60059 -24 -22.4004 -24h-1.59961c-12.8008 0 -22.4004 11.1992 -22.4004 24
c0 12.7998 11.2002 22.3994 24 22.3994zM256 372.8c-36.7998 0 -68.7998 27.2002 -73.5996 64c24 6.40039 48 9.60059 73.5996 9.60059s49.5996 -3.2002 73.5996 -9.60059c-4.7998 -35.2002 -36.7998 -64 -73.5996 -64zM256 352
c11.2002 0 22.4004 -9.59961 22.4004 -20.7998c0 -12.7998 -9.60059 -24 -22.4004 -24s-22.4004 9.59961 -22.4004 22.3994c0 12.8008 9.60059 22.4004 22.4004 22.4004zM382.4 65.5996c27.1992 25.6006 68.7998 28.8008 96 4.80078
c-24 -41.6006 -59.2002 -76.8008 -102.4 -102.4c-22.4004 30.4004 -19.2002 72 6.40039 97.5996zM128 320c-25.5996 -25.5996 -67.2002 -28.7998 -96 -6.40039c24 43.2002 59.2002 78.4004 102.4 102.4c22.3994 -28.7998 20.7998 -70.4004 -6.40039 -96zM142.4 305.6z
M382.4 320c-25.6006 25.5996 -28.8008 67.2002 -4.80078 96c41.6006 -24 76.8008 -59.2002 102.4 -102.4c-30.4004 -22.3994 -72 -19.1992 -97.5996 6.40039zM369.6 273.6c-9.59961 -8 -22.3994 -8 -30.3994 0c-9.60059 8 -9.60059 22.4004 -1.60059 32
c8 8 22.4004 8 30.4004 0c9.59961 -8 9.59961 -22.3994 1.59961 -32zM334.4 110.4c9.59961 8 22.3994 8 30.3994 0c9.60059 -8 9.60059 -22.4004 1.60059 -32c0 -1.60059 -1.60059 -1.60059 -1.60059 -1.60059c-9.59961 -8 -24 -8 -32 1.60059c-8 9.59961 -8 24 1.60059 32z
M142.4 307.2c8 8 22.3994 8 32 0c8 -8 9.59961 -22.4004 0 -32c-8 -9.60059 -22.4004 -8 -32 0c-9.60059 8 -9.60059 22.3994 0 32zM128 65.5996c25.5996 -27.1992 28.7998 -68.7998 4.7998 -96c-41.5996 24 -76.7998 59.2002 -102.399 102.4
c30.3994 22.4004 72 19.2002 97.5996 -6.40039zM142.4 112c8 8 24 8 32 0c9.59961 -8 9.59961 -22.4004 0 -32c-8 -9.59961 -22.4004 -8 -32 0c-9.60059 8 -9.60059 22.4004 0 32z" />
    <glyph glyph-name="uniF10E" unicode="&#xf10e;" 
d="M96 448h320v-512l-160 160l-160 -160v512z" />
    <glyph glyph-name="uniF155" unicode="&#xf155;" 
d="M255.792 422.4c127.088 0 230.192 -103.089 230.192 -230.192c0 -127.104 -103.088 -230.192 -230.192 -230.192c-127.12 0 -230.192 103.088 -230.192 230.192c0 127.104 103.072 230.192 230.192 230.192zM255.792 11.3604h0.015625
c99.8721 0 180.849 81.0078 180.849 180.848s-80.9922 180.864 -180.864 180.864c-99.9043 0 -180.864 -81.0244 -180.864 -180.864s80.9766 -180.848 180.864 -180.848z" />
    <glyph glyph-name="uniF124" unicode="&#xf124;" 
d="M206.08 348.704h0.0322266c40.9912 0 74.4316 -32.4805 74.4316 -72.1602c0 -39.7119 -33.4883 -72.1602 -74.4482 -72.1602s-74.4961 32.4482 -74.4961 72.1602c0 39.6797 33.5205 72.1602 74.4805 72.1602zM414.64 448.864v-0.0166016
c64.0488 0 96.0801 -32.0312 96.0801 -96.0801v-224.176c0 -64.0479 -32.0312 -96.0957 -96.0801 -96.0957h-192.159l-128.112 -96.0801v96.0645c-64.0479 0 -96.0801 32.0312 -96.0801 96.0791v224.192c0 64.0479 32.0322 96.0957 96.0801 96.1123h320.271zM374.768 104.48
v-0.0166016c10.9121 10.5762 10.9121 27.7285 0 38.2881l-75.9033 73.5684c10.4395 14.9697 18.9121 41.9326 18.9121 60.1826v0.0253906c0 59.792 -49.9844 108.271 -111.681 108.271c-61.6797 0 -111.68 -48.4795 -111.68 -108.271
c0 -59.7607 49.9844 -108.24 111.68 -108.24c14.7881 0.0820312 37.4893 5.58789 50.6719 12.2881l78.4805 -76.0957c10.9277 -10.5605 28.6084 -10.5605 39.5195 0z" />
    <glyph glyph-name="uniF17A" unicode="&#xf17a;" 
d="M254.608 275.12l0.03125 0.015625c20.96 0 36.96 -7.07129 47.8408 -21.3115c10.96 -14.2246 16.3994 -34.3203 16.3994 -60.3682c0 -11.2959 -1.16797 -21.248 -3.56836 -29.7285c-1.4873 -5.66309 -1.43945 -12.2871 -5.19922 -19.8076l-28.6406 31.1201
l-30.0156 -26.9121l29.4082 -31.2314c-4.5127 -1.88867 -7.36035 -2.27246 -10.2402 -3.00879c-5.28027 -1.37598 -10.7842 -2.08008 -16.4805 -2.08008c-15.168 0 -28.1914 4.46484 -39.0713 13.3604c-16.7998 13.7598 -25.2002 36.5117 -25.2002 68.2881
c0 27.168 5.87207 47.5684 17.5996 61.2158c11.7285 13.6484 27.4561 20.4482 47.1367 20.4482zM256 419.648c125.728 0 227.648 -101.921 227.648 -227.648s-101.937 -227.648 -227.648 -227.648c-125.728 0 -227.648 101.921 -227.648 227.648
s101.937 227.648 227.648 227.648zM341.056 57.7275h-0.03125l30.3994 30.7686l-27.3594 25.1201c8.15918 8.7998 12.5596 18.0479 16.7197 31.3594c5.16797 13.9521 7.77539 31.2646 7.77539 51.9365c0 39.0078 -12.0479 69.376 -36.1592 91.1357
c-20.8965 18.7686 -46.7041 28.1602 -77.4883 28.1602c-30.5762 0 -56.1445 -8.89648 -76.6885 -26.624c-25.1836 -21.7275 -37.7598 -53.7598 -37.7598 -96.1602c0 -42.0801 12.2559 -73.9678 36.7998 -95.6797c20.2725 -18.0322 45.9199 -27.04 76.96 -27.04
c14.8643 0 27.6162 1.75977 38.2881 5.2002c6.36816 2.11133 11.2324 3.08789 19.9688 8.25586z" />
    <glyph glyph-name="uniF1A4" unicode="&#xf1a4;" 
d="M224 128l-128 -96v96h-32c-64 0 -64 64 -64 64v160s0.480469 64 64 64h256c63.5195 0 64 -64 64 -64v-160c0 -63.5195 -64 -64 -64 -64h-96zM511.008 248.064c0 -71.5205 0.992188 -152.064 0.992188 -152.064s-0.480469 -64 -64 -64h-32v-96l-128 96h-122.88l90.8799 64
h96c63.0078 0 64 64 64 64v160h32s63.0078 -0.431641 63.0078 -71.9355z" />
    <glyph glyph-name="uniF13A" unicode="&#xf13a;" 
d="M0 384h512v-384h-512v384zM96 32v64h-64v-64h64zM96 160v64h-64v-64h64zM96 288v64h-64v-64h64zM384 32v320h-256v-320h256zM480 32v64h-64v-64h64zM480 160v64h-64v-64h64zM480 288v64h-64v-64h64zM192 288l128 -96l-128 -96v192z" />
    <glyph glyph-name="uniF122" unicode="&#xf122;" 
d="M415.808 448c63.8408 0 95.7607 -31.9199 95.7607 -95.7598v-223.44c0 -63.8398 -31.9199 -95.7598 -95.7607 -95.7598h-191.52l-127.68 -95.7598v95.7598c-63.8408 0 -95.7607 31.9199 -95.7607 95.7598v223.44c0 63.8398 31.9199 95.7598 95.7607 95.7598h319.199z
M224.288 205.6c116.16 51.8408 191.52 -76.7998 191.52 -76.7998c0 178.72 -191.52 174.561 -191.52 174.561v80.7998l-127.68 -127.68l127.68 -127.681v76.7998z" />
    <glyph glyph-name="uniF13D" unicode="&#xf13d;" 
d="M287.952 323.792v-0.015625v124.224l192 -192l-192 -192v126.88c-223.36 5.24805 -198.256 -151.888 -141.393 -254.88c-140.367 151.68 -82.6074 387.792 141.393 387.792z" />
    <glyph glyph-name="uniF1B0" unicode="&#xf1b0;" 
d="M64 192v0.0517578c0 21.9932 7.45508 56.0605 16.6396 76.0439l91.5684 -244.384c-64.0479 30.3037 -108.208 94.2725 -108.208 168.288zM385.6 201.44l0.0166016 0.0478516c0 -16 -6.32031 -34.5762 -14.6084 -60.4482l-19.1514 -62.3203l-69.3926 201.024
c11.5684 0.576172 21.9678 1.75977 21.9678 1.75977c10.3525 1.16797 9.13672 16 -1.21582 15.4082c0 0 -31.0879 -2.40039 -51.168 -2.40039c-18.8799 0 -50.5596 2.40039 -50.5596 2.40039c-10.3359 0.591797 -11.5684 -14.8164 -1.21582 -15.4082
c0 0 9.80762 -1.18359 20.1279 -1.75977l29.9199 -79.8398l-42.0166 -122.721l-69.9199 202.561c11.5518 0.576172 21.9521 1.75977 21.9521 1.75977c10.3359 1.18457 9.12012 16 -1.23242 15.4238c0 0 -31.0879 -2.39941 -51.168 -2.39941
c-3.59961 0 -7.83984 0.0634766 -12.3516 0.223633c34.3359 50.7676 93.3438 84.2881 160.416 84.2881c0.148438 0 0.389648 0.000976562 0.538086 0.000976562c40.7988 0 98.6406 -22.0205 129.11 -49.1533c-0.816406 0.0644531 -1.63281 0.160156 -2.48047 0.160156
c-18.8643 0 -32.2559 -16 -32.2559 -33.2002c0 -15.3916 9.15234 -28.4316 18.8799 -43.8398c7.2959 -12.4482 15.8076 -28.4482 15.8076 -51.5674zM259.36 175.648l-0.0166016 0.015625l59.04 -157.488c0.317383 -0.740234 0.933594 -1.88672 1.37598 -2.55957
c-17.1143 -5.86816 -45.6875 -10.6309 -63.7793 -10.6309c-15.2607 0 -39.5518 3.41504 -54.2207 7.62305zM424.48 281.728v-0.015625c14.9912 -26.624 23.5195 -57.2002 23.5195 -89.7119c0 -68.9922 -38.4004 -129.216 -95.4717 -161.648l58.6396 165.152
c10.96 26.6562 14.5918 48.0156 14.5918 66.9766c0 6.89551 -0.448242 13.2793 -1.2793 19.2471zM256 448c141.392 0 256 -114.608 256 -256s-114.608 -256 -256 -256s-256 114.608 -256 256s114.608 256 256 256zM256 -32c123.712 0 224 100.288 224 224
s-100.288 224 -224 224s-224 -100.288 -224 -224s100.288 -224 224 -224z" />
    </font>
</defs>
</svg>
