<svg width="229" height="151" viewBox="0 0 229 151" fill="none" xmlns="http://www.w3.org/2000/svg">
<path d="M117.017 150.999C153.126 150.999 182.398 146.93 182.398 141.909C182.398 136.889 153.126 132.819 117.017 132.819C80.9079 132.819 51.6357 136.889 51.6357 141.909C51.6357 146.93 80.9079 150.999 117.017 150.999Z" fill="black" fill-opacity="0.05"/>
<path fill-rule="evenodd" clip-rule="evenodd" d="M34.9844 73.8452C55.086 87.1223 81.2477 93.3302 113.469 92.4688C140.57 91.7442 179.982 83.6004 199.493 73.8452L162.56 65.3791C117.036 71.9999 84.857 71.2745 66.0237 63.2031L34.9844 73.8452Z" fill="#3062BB" stroke="#152633" stroke-width="2"/>
<path d="M199 74L220.94 65" stroke="#152633" stroke-width="2" stroke-linecap="round"/>
<path d="M162.245 65.4871L227.509 47.6416" stroke="#152633" stroke-width="2" stroke-linecap="round"/>
<path d="M66.0233 63.2029L25.7617 52.7725" stroke="#152633" stroke-width="2" stroke-linecap="round"/>
<path d="M35.4277 73.845L1 58.7051" stroke="#152633" stroke-width="2" stroke-linecap="round"/>
<path fill-rule="evenodd" clip-rule="evenodd" d="M121.008 82.2704C125.442 69.559 132.241 64.0902 141.405 65.8639C155.151 68.5244 168.897 94.6861 141.405 96.9032C136.084 97.4944 132.832 92.3212 131.65 81.3835L121.008 82.2704Z" fill="#28343D" stroke="#152633" stroke-width="2"/>
<path fill-rule="evenodd" clip-rule="evenodd" d="M128.989 68.0808C141.405 74.7321 141.79 83.8647 140.633 86.8928C139.017 91.1252 107.273 113.188 86.2595 104.441C65.2458 95.6941 71.7116 73.538 86.2595 73.538C98.8348 73.538 99.1364 65.8069 111.515 64.8037" fill="white"/>
<path d="M106.5 74.5C97.9955 80.1699 90.167 83.1667 87.0004 83.5C86.3337 82.3333 85.6003 81.3 86.0003 80.5C98.8003 78.1 109 68.8333 112.5 64.5C112.834 63.8333 114.1 62.6 116.5 63C124.5 63.5 137.5 73 137 75C135.8 75 135.167 75.3333 134.5 76C122.5 65 117 67.5 106.5 74.5Z" fill="#EDEDED"/>
<path fill-rule="evenodd" clip-rule="evenodd" d="M128.989 68.0808C141.405 74.7321 141.79 83.8647 140.633 86.8928C139.017 91.1252 107.273 113.188 86.2595 104.441C65.2458 95.6941 71.7116 73.538 86.2595 73.538C98.8348 73.538 99.1364 65.8069 111.515 64.8037" stroke="#152633" stroke-width="2"/>
<path fill-rule="evenodd" clip-rule="evenodd" d="M34.9844 73.7617C55.086 86.8105 81.2477 92.9116 113.469 92.065C145.691 91.2184 174.366 85.1173 199.493 73.7617C158.255 91.9419 148.056 118.187 111.696 119.961C75.3355 121.735 48.2869 82.4776 34.9844 73.7617Z" fill="#5DB9F2"/>
<path d="M42.7923 78.3219C40.0953 76.91 37.4927 75.39 34.9844 73.7617C38.3605 75.9737 42.6219 80.1529 47.6963 85.1293C62.6161 99.7611 84.5634 121.285 111.696 119.961C132.91 118.926 145.219 109.561 159.983 98.327C170.234 90.5269 181.669 81.8262 198.091 74.3881C198.559 74.1811 199.027 73.9723 199.493 73.7617C199.021 73.9695 198.554 74.1783 198.091 74.3881C191.458 77.319 184.58 79.8876 177.457 82.0938C170.533 86.5386 164.581 91.0671 158.983 95.327C144.219 106.561 131.91 115.926 110.696 116.961C83.5634 118.285 61.6161 96.7611 46.6963 82.1293C45.3361 80.7954 44.0343 79.5187 42.7923 78.3219Z" fill="#42ACEE"/>
<path fill-rule="evenodd" clip-rule="evenodd" d="M34.9844 73.7617C55.086 86.8105 81.2477 92.9116 113.469 92.065C145.691 91.2184 174.366 85.1173 199.493 73.7617C158.255 91.9419 148.056 118.187 111.696 119.961C75.3355 121.735 48.2869 82.4776 34.9844 73.7617Z" stroke="#152633" stroke-width="2"/>
<path d="M51.834 82.7139L61.1458 92.0257" stroke="#152633" stroke-width="2" stroke-linecap="round"/>
<path d="M59.3721 85.374L62.0326 88.0345" stroke="#152633" stroke-width="2" stroke-linecap="round"/>
<path d="M127.215 107.102C126.624 110.945 125.885 113.309 124.998 114.196" stroke="#152633" stroke-width="2" stroke-linecap="round"/>
<path d="M129.876 108.433C129.581 111.093 129.137 112.719 128.546 113.31" stroke="#152633" stroke-width="2" stroke-linecap="round"/>
<path fill-rule="evenodd" clip-rule="evenodd" d="M87.355 77.5684C87.355 77.5684 83.6435 76.2176 85.9433 81.7734C103.935 122.769 69.5743 122.531 68.4054 103.703C67.2366 84.8741 74.8915 76.8071 87.355 77.5684Z" fill="#2D3B45"/>
<path d="M85 90.5C82 85 79 83.5 70 88.5C70 87 70.6 83.4 73 81C75.8 81.8 82.5 81.3333 85.5 81L89.5 90.5C91.5 94.5 94 111 84.5 115C90 108 88 96 85 90.5Z" fill="#28343D"/>
<path fill-rule="evenodd" clip-rule="evenodd" d="M87.355 77.5684C87.355 77.5684 83.6435 76.2176 85.9433 81.7734C103.935 122.769 69.5743 122.531 68.4054 103.703C67.2366 84.8741 74.8915 76.8071 87.355 77.5684Z" stroke="#152633" stroke-width="2"/>
<path fill-rule="evenodd" clip-rule="evenodd" d="M29.2346 36.8447C28.5804 34.9114 25.8563 25.3888 34.6459 25.3994C39.3966 25.4052 44.9415 26.567 49.0412 27.6342C45.3104 33.6127 44.1206 40.5134 44.7942 47.6383C43.4787 47.7395 42.0291 47.7107 40.4551 47.4712C32.8522 46.3134 29.889 38.7784 29.2346 36.8447Z" fill="#2D3B45"/>
<path d="M32.3205 42.5518C34.0926 44.7845 36.7115 46.9013 40.4555 47.4714C42.0296 47.711 43.4791 47.7397 44.7946 47.6386C44.121 40.5137 45.3108 33.6129 49.0416 27.6344C47.8483 27.3238 39.0818 25.5649 34 25.5006C30.9697 25.4623 30.8607 27.1543 30 27.0006C42.5 31.0006 39.2158 37.5162 39.7946 43.6386C38.4791 43.7397 37.0296 43.711 35.4555 43.4714C34.3074 43.2966 33.265 42.9763 32.3205 42.5518Z" fill="#28343D"/>
<path fill-rule="evenodd" clip-rule="evenodd" d="M29.2346 36.8447C28.5804 34.9114 25.8563 25.3888 34.6459 25.3994C39.3966 25.4052 44.9415 26.567 49.0412 27.6342C45.3104 33.6127 44.1206 40.5134 44.7942 47.6383C43.4787 47.7395 42.0291 47.7107 40.4551 47.4712C32.8522 46.3134 29.889 38.7784 29.2346 36.8447Z" stroke="#152633" stroke-width="2" stroke-linecap="round"/>
<path fill-rule="evenodd" clip-rule="evenodd" d="M114.451 32.2865C124.217 49.2025 115.649 67.1053 97.9589 76.2397C80.269 85.3742 63.8066 80.94 52.2777 67.194C40.7488 53.448 36.071 28.93 57.0914 16.7939C78.1118 4.65773 104.179 14.4956 114.451 32.2865Z" fill="white"/>
<path d="M116 58.5C69.0005 51.5 64.0005 43 50.5005 39.5C46.0005 38.3333 43.5005 41.5 44.0006 50C40.0005 40 44.5005 31.5 44.5005 31.5C76.5006 47 99.5006 52 117.285 55C117.285 56.5 117.5 57.5 116 58.5Z" fill="#EDEDED"/>
<path fill-rule="evenodd" clip-rule="evenodd" d="M114.451 32.2865C124.217 49.2025 115.649 67.1053 97.9589 76.2397C80.269 85.3742 63.8066 80.94 52.2777 67.194C40.7488 53.448 36.071 28.93 57.0914 16.7939C78.1118 4.65773 104.179 14.4956 114.451 32.2865Z" stroke="#152633" stroke-width="2"/>
<path fill-rule="evenodd" clip-rule="evenodd" d="M97.2073 55.5966C96.3238 54.0663 97.2788 51.861 100.42 50.0475C103.561 48.234 106.363 47.8811 107.247 49.4114C108.13 50.9417 107.097 54.3587 103.956 56.1722C100.815 57.9857 98.0909 57.1269 97.2073 55.5966Z" fill="#152633"/>
<path fill-rule="evenodd" clip-rule="evenodd" d="M86.2741 39.3871C91.9311 49.1852 89.481 58.2457 82.4306 62.3163C75.4081 66.3708 63.4494 65.5679 57.9726 55.727C47.8784 37.5896 57.9797 27.5732 61.3493 25.6278C68.5217 21.4867 80.7897 29.8877 86.2741 39.3871Z" fill="#2D3B45"/>
<path d="M89.5004 53.5C77.1004 50.7 60.3336 43.6667 54.0003 40.5C53.667 39.5 53.2003 37.3 54.0003 36.5C57.6003 38.9 78.8336 45.5 89.0003 48.5C89.5003 49.3333 90.0004 50.5 89.5004 53.5Z" fill="#28343D"/>
<path fill-rule="evenodd" clip-rule="evenodd" d="M77.9023 49.9656C77.1095 47.0073 79.9877 44.1358 83.3174 45.9094L77.9023 49.9656Z" stroke="#152633" stroke-width="2" stroke-linecap="round"/>
<path fill-rule="evenodd" clip-rule="evenodd" d="M86.2741 39.3871C91.9311 49.1852 89.481 58.2457 82.4306 62.3163C75.4081 66.3708 63.4494 65.5679 57.9726 55.727C47.8784 37.5896 57.9797 27.5732 61.3493 25.6278C68.5217 21.4867 80.7897 29.8877 86.2741 39.3871Z" stroke="#152633" stroke-width="2"/>
<path fill-rule="evenodd" clip-rule="evenodd" d="M124.555 91.1385C128.989 78.4272 135.788 72.9584 144.952 74.732C158.698 77.3925 176.878 117.744 144.952 109.319C137.562 107.545 134.31 101.189 135.197 90.2517L124.555 91.1385Z" fill="#2D3B45"/>
<path d="M137.738 104.526C139.385 106.962 141.789 108.56 144.951 109.319C172.218 116.514 162.937 88.1329 151.085 78.0371C161.271 89.7826 166.856 112.891 141.951 106.319C140.354 105.935 138.949 105.337 137.738 104.526Z" fill="#28343D"/>
<path fill-rule="evenodd" clip-rule="evenodd" d="M124.555 91.1385C128.989 78.4272 135.788 72.9584 144.952 74.732C158.698 77.3925 176.878 117.744 144.952 109.319C137.562 107.545 134.31 101.189 135.197 90.2517L124.555 91.1385Z" stroke="#152633" stroke-width="2"/>
<path fill-rule="evenodd" clip-rule="evenodd" d="M79.1439 46.1403C48.633 36.2267 25.7395 22.5259 28.0098 15.5386C30.28 8.55142 56.8544 10.9237 87.3653 20.8373C117.876 30.7509 140.77 44.4517 138.499 51.4389C136.229 58.4261 109.655 56.0538 79.1439 46.1403Z" fill="#FFC100"/>
<path d="M118.5 51.5C137 52 133.5 47.5 120.5 37.5L119.5 33.5C119.833 33.8333 120.7 34.6 121.5 35C135 41 155.5 59.5 115 54.5C82.4326 50.4793 52.3333 35.8333 41.5 29.5C54.3333 34.6667 96.0511 50.8933 118.5 51.5Z" fill="#F1B700"/>
<path fill-rule="evenodd" clip-rule="evenodd" d="M79.1439 46.1403C48.633 36.2267 25.7395 22.5259 28.0098 15.5386C30.28 8.55142 56.8544 10.9237 87.3653 20.8373C117.876 30.7509 140.77 44.4517 138.499 51.4389C136.229 58.4261 109.655 56.0538 79.1439 46.1403Z" stroke="#152633" stroke-width="2" stroke-linecap="round" stroke-linejoin="round"/>
<path fill-rule="evenodd" clip-rule="evenodd" d="M80.6929 40.1456C58.3183 32.8756 41.5157 22.8716 43.1633 17.801C44.8108 12.7304 64.2846 14.5133 86.6592 21.7833C109.034 29.0532 125.836 39.0572 124.189 44.1278C122.541 49.1984 103.068 47.4155 80.6929 40.1456Z" fill="#01B9A3" stroke="#152633" stroke-width="2" stroke-linecap="round" stroke-linejoin="round"/>
<path fill-rule="evenodd" clip-rule="evenodd" d="M81.5135 37.1422C62.0082 30.8045 47.3725 22.0456 48.8239 17.5788C50.2753 13.1119 66.4955 -5.30774 92.9773 3.22941C119.459 11.7666 120.911 36.0627 119.459 40.5295C118.008 44.9964 101.019 43.4798 81.5135 37.1422Z" fill="#FFC100"/>
<path d="M49.5957 20.4513C55.038 24.7951 65.73 29.9887 78.5137 34.1424C98.0191 40.4801 115.008 41.9967 116.459 37.5298C117.464 34.4365 117.077 21.8342 107.95 11.541C119.986 22.225 120.565 37.1279 119.459 40.5298C118.008 44.9967 101.019 43.4801 81.5137 37.1424C65.6112 31.9754 52.9456 25.199 49.5957 20.4513Z" fill="#F1B700"/>
<path fill-rule="evenodd" clip-rule="evenodd" d="M81.5135 37.1422C62.0082 30.8045 47.3725 22.0456 48.8239 17.5788C50.2753 13.1119 66.4955 -5.30774 92.9773 3.22941C119.459 11.7666 120.911 36.0627 119.459 40.5295C118.008 44.9964 101.019 43.4798 81.5135 37.1422Z" stroke="#152633" stroke-width="2" stroke-linecap="round" stroke-linejoin="round"/>
<path d="M81.1 1.12402C73.1185 3.19331 67.2062 9.10556 63.3633 18.8608" stroke="#152633" stroke-width="2" stroke-linecap="round"/>
<path d="M60.2598 11.3232C62.4769 13.5403 66.911 16.6443 71.3452 17.9745" stroke="#152633" stroke-width="2" stroke-linecap="round"/>
<path d="M61.3916 16.4209C62.9698 17.5677 64.8544 18.7127 66.8347 19.6031" stroke="#152633" stroke-width="2" stroke-linecap="round"/>
<path d="M105.488 9.5498C107.8 15.3142 107.8 19.7484 107.262 22.4089" stroke="#152633" stroke-width="2" stroke-linecap="round"/>
<path d="M110.366 20.1916C108.149 20.1916 103.271 18.418 103.271 18.418" stroke="#152633" stroke-width="2" stroke-linecap="round"/>
<path d="M93.5163 27.2861C93.8385 32.4426 92.5212 37.599 91.7773 40.0316" stroke="#152633" stroke-width="2" stroke-linecap="round"/>
<path d="M89.082 33.4941C90.8557 34.1593 93.5162 34.8244 96.6201 34.8244" stroke="#152633" stroke-width="2" stroke-linecap="round"/>
<path d="M86.8643 28.1729C92.1853 30.5378 96.7673 31.4246 100.61 30.8334" stroke="#152633" stroke-width="2" stroke-linecap="round"/>
<path fill-rule="evenodd" clip-rule="evenodd" d="M128.545 65.4201C129.876 74.7319 122.781 81.8266 114.356 78.2793C109.505 76.2947 108.623 72.4824 109.035 68.5241C111.696 65.8636 114.06 62.464 116.13 58.3254" fill="#2D3B45"/>
<path d="M120.5 62C114.5 61.5 117 70 109.5 72C109 71.5 108.5 70 109 68.5C111.8 65.7 114.833 60.6667 116 58.5H121C125.5 58.5 131 63.5 128.5 68.5C126.5 65.5 125.227 62.3939 120.5 62Z" fill="#28343D"/>
<path fill-rule="evenodd" clip-rule="evenodd" d="M128.545 65.4201C129.876 74.7319 122.781 81.8266 114.356 78.2793C109.505 76.2947 108.623 72.4824 109.035 68.5241C111.696 65.8636 114.06 62.464 116.13 58.3254" stroke="#152633" stroke-width="2"/>
<path d="M100.61 66.3074C97.063 68.6723 92.9244 68.6723 88.1946 66.3074C85.5341 64.9772 86.421 71.185 91.2986 67.6377" stroke="#152633" stroke-width="2" stroke-linecap="round"/>
<path d="M89.5248 67.1943C82.1345 70.4461 76.2223 77.6886 71.7881 88.9218" stroke="#FFC100" stroke-width="2" stroke-linecap="round"/>
<path d="M87.751 66.3076C88.6378 66.8988 89.8203 67.3423 91.2983 67.6379" stroke="#152633" stroke-width="2" stroke-linecap="round"/>
<path fill-rule="evenodd" clip-rule="evenodd" d="M78.1268 84.8554C77.0989 84.4457 76.4793 83.8466 76.268 83.0581C76.0568 82.2696 76.2938 81.441 76.9791 80.5723C78.007 80.9819 78.6266 81.581 78.8379 82.3695C79.0492 83.158 78.8121 83.9866 78.1268 84.8554Z" stroke="#FFC100" stroke-width="2"/>
<path fill-rule="evenodd" clip-rule="evenodd" d="M75.2597 80.3668C74.85 81.3947 74.2509 82.0143 73.4624 82.2256C72.6739 82.4369 71.8453 82.1998 70.9766 81.5145C71.3862 80.4866 71.9853 79.867 72.7738 79.6557C73.5623 79.4445 74.3909 79.6815 75.2597 80.3668Z" stroke="#FFC100" stroke-width="2"/>
<path fill-rule="evenodd" clip-rule="evenodd" d="M73.4862 83.9137C73.0766 84.9416 72.4775 85.5612 71.689 85.7725C70.9005 85.9837 70.0719 85.7467 69.2031 85.0614C69.6128 84.0335 70.2119 83.4139 71.0004 83.2026C71.7889 82.9913 72.6175 83.2284 73.4862 83.9137Z" stroke="#FFC100" stroke-width="2"/>
<path fill-rule="evenodd" clip-rule="evenodd" d="M71.7128 87.4616C71.3031 88.4895 70.704 89.109 69.9155 89.3203C69.127 89.5316 68.2984 89.2946 67.4297 88.6092C67.8394 87.5813 68.4384 86.9617 69.2269 86.7505C70.0154 86.5392 70.8441 86.7762 71.7128 87.4616Z" stroke="#FFC100" stroke-width="2"/>
<path fill-rule="evenodd" clip-rule="evenodd" d="M76.3534 88.4032C75.3255 87.9935 74.7059 87.3945 74.4946 86.606C74.2833 85.8175 74.5204 84.9888 75.2057 84.1201C76.2336 84.5298 76.8532 85.1289 77.0645 85.9174C77.2757 86.7059 77.0387 87.5345 76.3534 88.4032Z" stroke="#FFC100" stroke-width="2"/>
<path fill-rule="evenodd" clip-rule="evenodd" d="M74.5789 91.9501C73.551 91.5404 72.9315 90.9413 72.7202 90.1528C72.5089 89.3643 72.7459 88.5357 73.4313 87.667C74.4592 88.0767 75.0788 88.6758 75.29 89.4642C75.5013 90.2527 75.2643 91.0814 74.5789 91.9501Z" stroke="#FFC100" stroke-width="2"/>
</svg>
