<svg width="165" height="213" viewBox="0 0 165 213" fill="none" xmlns="http://www.w3.org/2000/svg">
<rect x="68" y="45" width="18" height="20" rx="2" fill="#C7CDD1"/>
<rect x="68" y="83" width="18" height="20" rx="2" fill="#C7CDD1"/>
<path d="M78 141C83.5228 141 88 136.523 88 131C88 125.477 83.5228 121 78 121C72.4772 121 68 125.477 68 131C68 136.523 72.4772 141 78 141Z" fill="#C7CDD1"/>
<rect x="68" y="7" width="18" height="20" rx="2" fill="#C7CDD1"/>
<rect x="62" y="1" width="102" height="32" rx="3" stroke="#C7CDD1"/>
<rect x="62" y="39" width="102" height="32" rx="3" stroke="#C7CDD1"/>
<rect x="62" y="77" width="102" height="32" rx="3" stroke="#C7CDD1"/>
<rect x="62" y="115" width="102" height="32" rx="3" stroke="#C7CDD1"/>
<rect x="92" y="8" width="18" height="8" rx="1" fill="#C7CDD1"/>
<rect x="92" y="46" width="18" height="8" rx="1" fill="#C7CDD1"/>
<rect x="92" y="84" width="18" height="8" rx="1" fill="#C7CDD1"/>
<rect x="92" y="18" width="60" height="8" rx="1" fill="#C7CDD1"/>
<rect x="92" y="56" width="60" height="8" rx="1" fill="#C7CDD1"/>
<rect x="92" y="94" width="60" height="8" rx="1" fill="#C7CDD1"/>
<rect x="92" y="122" width="18" height="8" rx="1" fill="#C7CDD1"/>
<rect x="92" y="132" width="60" height="8" rx="1" fill="#C7CDD1"/>
<path d="M53.5059 212.931C81.1201 212.931 103.506 208.454 103.506 202.931C103.506 197.408 81.1201 192.931 53.5059 192.931C25.8916 192.931 3.50586 197.408 3.50586 202.931C3.50586 208.454 25.8916 212.931 53.5059 212.931Z" fill="black" fill-opacity="0.05"/>
<path fill-rule="evenodd" clip-rule="evenodd" d="M75.6751 150.649C74.6428 150.916 73.5922 151.16 72.5282 151.385C72.5962 156.354 73.3056 167.477 77.9564 175.796C84.1237 186.829 94.9711 179.473 96.111 172.984C97.1747 166.933 89.6522 159.158 75.6751 150.649Z" fill="#2D3B45"/>
<path d="M74.7124 149.861C74.9586 155.435 76.0122 164.85 80.0779 172.122C84.2395 179.567 90.5323 178.638 94.5353 175.254C91.2186 180.452 82.8347 184.02 77.6978 174.831C73.0469 166.511 72.3376 155.388 72.2696 150.419C73.0927 150.246 73.9077 150.06 74.7124 149.861Z" fill="#28343D"/>
<path fill-rule="evenodd" clip-rule="evenodd" d="M75.6751 150.649C74.6428 150.916 73.5922 151.16 72.5282 151.385C72.5962 156.354 73.3056 167.477 77.9564 175.796C84.1237 186.829 94.9711 179.473 96.111 172.984C97.1747 166.933 89.6522 159.158 75.6751 150.649Z" stroke="#152633" stroke-width="2"/>
<path fill-rule="evenodd" clip-rule="evenodd" d="M32.6309 150.956C33.341 155.875 34.3804 166.972 31.0883 175.916C26.7228 187.778 14.8582 182.209 12.7174 175.979C10.72 170.168 16.9336 161.312 29.4076 150.721C30.469 150.824 31.5448 150.901 32.6309 150.956Z" fill="#2D3B45"/>
<path d="M12.3501 173.808C12.3614 174.572 12.4827 175.297 12.7172 175.979C14.8581 182.209 26.7227 187.778 31.0881 175.916C34.3803 166.972 33.3409 155.875 32.6308 150.956C31.8246 150.915 31.0241 150.862 30.231 150.795C30.5753 156.312 30.3969 163.643 28.0881 169.916C24.6808 179.174 16.7051 177.814 12.3501 173.808Z" fill="#28343D"/>
<path fill-rule="evenodd" clip-rule="evenodd" d="M32.6309 150.956C33.341 155.875 34.3804 166.972 31.0883 175.916C26.7228 187.778 14.8582 182.209 12.7174 175.979C10.72 170.168 16.9336 161.312 29.4076 150.721C30.469 150.824 31.5448 150.901 32.6309 150.956Z" stroke="#152633" stroke-width="2"/>
<path fill-rule="evenodd" clip-rule="evenodd" d="M73.7646 152.52C67.003 154.771 59.2861 155.995 51.091 155.995C43.7862 155.995 37.4712 154.209 31.5059 152.52C29.1105 157.883 25.955 165.68 25.3608 170.434C23.613 182.666 34.2461 193.387 53.1272 193.387C72.0083 193.387 81.872 182.281 79.717 170.804C78.2317 162.897 75.8375 156.924 73.7646 152.52Z" fill="white"/>
<path d="M34.6973 188.833C38.7215 190.457 43.5666 191.387 49.127 191.387C68.0082 191.387 77.8719 180.281 75.7168 168.804C74.5289 162.48 72.7597 157.393 71.0385 153.357C71.963 153.096 72.8721 152.817 73.7645 152.52C75.8373 156.924 78.2315 162.897 79.7168 170.804C81.8719 182.281 72.0082 193.387 53.127 193.387C45.5768 193.387 39.3454 191.673 34.6973 188.833Z" fill="#EDEDED"/>
<path fill-rule="evenodd" clip-rule="evenodd" d="M73.7646 152.52C67.003 154.771 59.2861 155.995 51.091 155.995C43.7862 155.995 37.4712 154.209 31.5059 152.52C29.1105 157.883 25.955 165.68 25.3608 170.434C23.613 182.666 34.2461 193.387 53.1272 193.387C72.0083 193.387 81.872 182.281 79.717 170.804C78.2317 162.897 75.8375 156.924 73.7646 152.52Z" stroke="#152633" stroke-width="2"/>
<path fill-rule="evenodd" clip-rule="evenodd" d="M89.7449 198.797C86.7832 183.619 80.2401 174.561 79.8699 171.599C81.313 181.684 73.3672 191.472 58.3293 193.3L58.6466 194.725C59.7573 200.649 61.9786 202.87 65.6808 203.98C73.8256 206.942 91.596 205.832 89.7449 198.797Z" fill="#2D3B45"/>
<path d="M79.8378 176.469C82.0671 181.163 85.0161 187.937 86.7448 196.797C88.5959 203.832 70.8255 204.942 62.6807 201.98C62.2948 201.865 61.9249 201.737 61.5708 201.594C62.6669 202.766 64.0259 203.484 65.6807 203.98C73.8255 206.942 91.5959 205.832 89.7448 198.797C87.7603 188.627 84.1679 181.204 81.9019 176.523C80.8158 174.279 80.0344 172.664 79.8809 171.678C80.1043 173.294 80.0867 174.901 79.8378 176.469Z" fill="#28343D"/>
<path fill-rule="evenodd" clip-rule="evenodd" d="M89.7449 198.797C86.7832 183.619 80.2401 174.561 79.8699 171.599C81.313 181.684 73.3672 191.472 58.3293 193.3L58.6466 194.725C59.7573 200.649 61.9786 202.87 65.6808 203.98C73.8256 206.942 91.596 205.832 89.7449 198.797Z" stroke="#152633" stroke-width="2"/>
<path fill-rule="evenodd" clip-rule="evenodd" d="M25.1984 171.771C24.7738 174.733 18.1099 183.618 15.1481 198.797C13.297 205.831 31.0675 206.942 39.2123 203.98C42.9145 202.87 45.1358 200.648 46.2464 194.725L46.5482 193.491L46.5637 193.151C32.3129 191.051 24.351 182.056 25.1984 171.771Z" fill="#2D3B45"/>
<path d="M15.1274 200.646C16.5918 206.006 31.8425 206.66 39.2122 203.98C42.9144 202.87 45.1357 200.648 46.2464 194.725L46.5481 193.491L46.5636 193.151C45.3623 192.974 44.2057 192.748 43.0953 192.476C41.9399 197.839 39.7536 199.918 36.2122 200.98C30.5615 203.035 20.2776 203.13 15.1274 200.646Z" fill="#28343D"/>
<path fill-rule="evenodd" clip-rule="evenodd" d="M25.1984 171.771C24.7738 174.733 18.1099 183.618 15.1481 198.797C13.297 205.831 31.0675 206.942 39.2123 203.98C42.9145 202.87 45.1358 200.648 46.2464 194.725L46.5482 193.491L46.5637 193.151C32.3129 191.051 24.351 182.056 25.1984 171.771Z" stroke="#152633" stroke-width="2"/>
<path fill-rule="evenodd" clip-rule="evenodd" d="M13.9753 116.86C12.6636 116.802 11.1952 116.568 9.61671 116.035C3.54695 113.985 3.25701 108.7 3.00007 107.019C2.74313 105.337 2.70802 96.2632 9.91729 97.5433C14.5733 98.37 18.0543 100.26 21.2653 101.82C17.9149 106.375 15.4473 111.514 13.9753 116.86Z" fill="#2D3B45"/>
<path d="M6.6166 112.035C8.19505 112.568 9.66354 112.802 10.9752 112.861C12.2869 108.097 14.389 103.497 17.2019 99.3286C17.8941 99.6546 18.5643 99.9846 19.2198 100.307C19.5721 100.481 19.9202 100.652 20.2652 100.82C16.9148 105.375 14.4472 110.515 12.9752 115.861C11.6635 115.802 10.195 115.568 8.6166 115.035C5.26465 113.903 3.67535 111.784 2.88086 109.831C3.78686 110.709 4.99562 111.488 6.6166 112.035Z" fill="#28343D"/>
<path fill-rule="evenodd" clip-rule="evenodd" d="M13.9753 116.86C12.6636 116.802 11.1952 116.568 9.61671 116.035C3.54695 113.985 3.25701 108.7 3.00007 107.019C2.74313 105.337 2.70802 96.2632 9.91729 97.5433C14.5733 98.37 18.0543 100.26 21.2653 101.82C17.9149 106.375 15.4473 111.514 13.9753 116.86Z" stroke="#152633" stroke-width="2"/>
<path fill-rule="evenodd" clip-rule="evenodd" d="M11.2944 125.154C11.2944 145.177 28.505 155.879 52.1648 155.879C75.8247 155.879 95.0048 143.796 95.0048 125.844C95.0048 103.536 75.8247 82 52.1648 82C28.505 82 11.2944 104.095 11.2944 125.154Z" fill="white"/>
<path d="M37.9614 154.421C42.3299 155.388 47.0995 155.879 52.1648 155.879C75.8246 155.879 95.0048 143.796 95.0048 125.844C95.0048 104.611 77.6287 84.0772 55.5525 82.1475C74.6969 86.8849 89.0048 105.577 89.0048 124.844C89.0048 142.796 69.8246 154.879 46.1648 154.879C43.3317 154.879 40.5911 154.725 37.9614 154.421Z" fill="#EDEDED"/>
<path fill-rule="evenodd" clip-rule="evenodd" d="M11.2944 125.154C11.2944 145.177 28.505 155.879 52.1648 155.879C75.8247 155.879 95.0048 143.796 95.0048 125.844C95.0048 103.536 75.8247 82 52.1648 82C28.505 82 11.2944 104.095 11.2944 125.154Z" stroke="#152633" stroke-width="2"/>
<path fill-rule="evenodd" clip-rule="evenodd" d="M83.7624 118.294C85.336 117.641 87.0217 116.703 88.7095 115.353C95.1994 110.161 93.9014 101.508 93.4688 99.3448C93.0361 97.1815 90.4401 86.7976 82.2196 91.5569C76.9104 94.6305 73.8514 98.3911 70.6289 101.717C75.9765 106.262 82.2196 114.016 83.7624 118.294Z" fill="#2D3B45"/>
<path d="M82.4094 115.52C83.0049 116.54 83.4688 117.479 83.7624 118.293C85.336 117.641 87.0216 116.703 88.7094 115.353C95.1993 110.161 93.9014 101.508 93.4687 99.3446C93.1463 97.7324 91.6224 91.5546 87.4643 90.4814C89.4086 92.7681 90.2402 96.2023 90.4687 97.3446C90.9014 99.5079 92.1993 108.161 85.7094 113.353C84.598 114.242 83.4876 114.952 82.4094 115.52Z" fill="#28343D"/>
<path fill-rule="evenodd" clip-rule="evenodd" d="M83.7624 118.294C85.336 117.641 87.0217 116.703 88.7095 115.353C95.1994 110.161 93.9014 101.508 93.4688 99.3448C93.0361 97.1815 90.4401 86.7976 82.2196 91.5569C76.9104 94.6305 73.8514 98.3911 70.6289 101.717C75.9765 106.262 82.2196 114.016 83.7624 118.294Z" stroke="#152633" stroke-width="2"/>
<path d="M47.1064 186.634C47.1625 187.533 47.6908 188.377 48.5643 188.8C49.5748 189.289 50.748 189.07 51.5131 188.338C52.2782 189.07 53.4514 189.289 54.4619 188.8C55.4641 188.314 56.0119 187.275 55.9134 186.235C56.9597 186.098 57.8599 185.334 58.1112 184.253C58.3636 183.168 57.8872 182.085 57.0001 181.509C57.5501 180.604 57.5023 179.417 56.7934 178.548C56.315 177.962 55.6314 177.638 54.9281 177.595C54.9593 178.113 54.8337 178.635 54.5592 179.087C55.4463 179.663 55.9227 180.746 55.6703 181.831C55.419 182.911 54.5187 183.676 53.4724 183.812C53.571 184.853 53.0232 185.892 52.021 186.377C51.0105 186.866 49.8372 186.647 49.0722 185.915C48.5475 186.417 47.8309 186.678 47.1064 186.634Z" fill="#EDEDED"/>
<path fill-rule="evenodd" clip-rule="evenodd" d="M48.7162 177.698C49.0175 176.885 49.7996 176.306 50.7171 176.306C51.6345 176.306 52.4166 176.885 52.7179 177.698C53.5355 177.429 54.4697 177.673 55.0435 178.382C55.6244 179.099 55.6635 180.079 55.213 180.827C55.9398 181.302 56.3301 182.196 56.1233 183.092C55.9174 183.984 55.1798 184.615 54.3225 184.728C54.4032 185.587 53.9544 186.445 53.1332 186.845C52.3052 187.249 51.3439 187.068 50.7171 186.464C50.0902 187.068 49.1289 187.249 48.3009 186.845C47.4797 186.445 47.0309 185.587 47.1116 184.728C46.2543 184.615 45.5167 183.984 45.3108 183.092C45.104 182.196 45.4943 181.302 46.2212 180.827C45.7706 180.079 45.8097 179.099 46.3906 178.382C46.9644 177.673 47.8987 177.429 48.7162 177.698Z" fill="#2D3B45"/>
<path d="M47.1064 185.058C47.1524 185.8 47.5852 186.496 48.301 186.845C49.1289 187.249 50.0902 187.068 50.7171 186.464C51.344 187.068 52.3053 187.249 53.1332 186.845C53.9544 186.445 54.4033 185.587 54.3225 184.728C55.1798 184.615 55.9174 183.984 56.1234 183.092C56.3302 182.196 55.9399 181.302 55.213 180.827C55.6636 180.079 55.6245 179.099 55.0436 178.382C54.6516 177.898 54.0915 177.63 53.5152 177.595C53.5408 178.023 53.4379 178.454 53.213 178.827C53.9399 179.302 54.3302 180.196 54.1234 181.092C53.9174 181.984 53.1798 182.615 52.3225 182.728C52.4033 183.587 51.9544 184.445 51.1332 184.845C50.3053 185.249 49.344 185.068 48.7171 184.464C48.2872 184.879 47.7 185.094 47.1064 185.058Z" fill="#28343D"/>
<path fill-rule="evenodd" clip-rule="evenodd" d="M48.7162 177.698C49.0175 176.885 49.7996 176.306 50.7171 176.306C51.6345 176.306 52.4166 176.885 52.7179 177.698C53.5355 177.429 54.4697 177.673 55.0435 178.382C55.6244 179.099 55.6635 180.079 55.213 180.827C55.9398 181.302 56.3301 182.196 56.1233 183.092C55.9174 183.984 55.1798 184.615 54.3225 184.728C54.4032 185.587 53.9544 186.445 53.1332 186.845C52.3052 187.249 51.3439 187.068 50.7171 186.464C50.0902 187.068 49.1289 187.249 48.3009 186.845C47.4797 186.445 47.0309 185.587 47.1116 184.728C46.2543 184.615 45.5167 183.984 45.3108 183.092C45.104 182.196 45.4943 181.302 46.2212 180.827C45.7706 180.079 45.8097 179.099 46.3906 178.382C46.9644 177.673 47.8987 177.429 48.7162 177.698Z" stroke="#152633" stroke-width="2"/>
</svg>
