<svg width="151" height="150" viewBox="0 0 151 150" fill="none" xmlns="http://www.w3.org/2000/svg">
<path d="M81.0002 149.962C65.5999 149.962 53.1155 146.966 53.1155 143.269C53.1155 139.573 65.5999 136.577 81.0002 136.577C96.4004 136.577 108.885 139.573 108.885 143.269C108.885 146.966 96.4004 149.962 81.0002 149.962Z" fill="black" fill-opacity="0.05"/>
<path fill-rule="evenodd" clip-rule="evenodd" d="M54.6958 39.2373C54.9754 37.8388 56.6539 31.1249 61.9689 34.2021C64.8416 35.8653 67.791 38.5055 69.8989 40.5835C65.5527 42.8978 62.4218 46.6579 60.3403 51.2046C59.5089 50.8063 58.6418 50.2824 57.773 49.5876C53.5769 46.2308 54.4163 40.636 54.6958 39.2373Z" fill="#2D3B45"/>
<path d="M57.804 33.8174C56.9049 35.2241 56.4948 36.934 56.3688 37.5642C56.0893 38.9629 55.2499 44.5578 59.446 47.9145C60.0891 48.4289 60.7314 48.8496 61.3589 49.195C60.9949 49.8453 60.6555 50.5159 60.3402 51.2046C59.5088 50.8063 58.6417 50.2825 57.7729 49.5876C53.5768 46.2308 54.4162 40.636 54.6957 39.2373C54.8827 38.3019 55.6956 34.9883 57.804 33.8174Z" fill="#28343D"/>
<path fill-rule="evenodd" clip-rule="evenodd" d="M54.4933 39.2522C54.7756 37.8501 56.4707 31.1191 61.8383 34.2041C64.7394 35.8715 67.7179 38.5185 69.8467 40.6018C65.4575 42.922 62.2957 46.6917 60.1936 51.25C59.354 50.8506 58.4783 50.3254 57.6009 49.6288C53.3634 46.2635 54.211 40.6544 54.4933 39.2522Z" stroke="#152633" stroke-width="1.5" stroke-linecap="round"/>
<path fill-rule="evenodd" clip-rule="evenodd" d="M92.2594 86.4275C95.1224 85.8139 97.5831 84.8372 99.6155 83.5093C98.6735 86.185 96.8209 88.7452 93.9661 90.3794C93.5112 89.0221 92.908 87.693 92.2594 86.4275Z" fill="#28343D" stroke="#152633" stroke-width="1.5"/>
<path fill-rule="evenodd" clip-rule="evenodd" d="M67.1756 111.319C66.4534 113.396 65.2632 116.271 61.9025 117.726C58.7632 119.085 52.3365 114.138 57.9377 105.581C64.6189 95.3731 67.9639 108.278 67.1756 111.319Z" fill="#28343D" stroke="#152633" stroke-width="1.5"/>
<path fill-rule="evenodd" clip-rule="evenodd" d="M85.3533 113.673C83.9414 115.32 78.2939 116.261 77.1173 111.319C75.9407 106.378 82.7648 107.79 82.7648 107.79L85.3533 113.673Z" fill="#28343D" stroke="#152633" stroke-width="1.5"/>
<path fill-rule="evenodd" clip-rule="evenodd" d="M108.885 66.164C108.885 79.8122 99.3718 87.1069 82.412 87.1069C65.4523 87.1069 57.0547 79.4286 57.0547 67.1923C57.0547 51.9871 63.7439 37.8652 80.7037 37.8652C97.6634 37.8652 108.885 51.8099 108.885 66.164Z" fill="white"/>
<path d="M100.631 83.3481C96.6074 85.0968 91.5815 85.9914 85.6424 85.9914C68.6827 85.9914 60.285 78.3131 60.285 66.0769C60.285 55.0312 63.815 44.5573 72.2479 39.6533C62.2025 43.9162 58.0543 55.2183 58.0543 67.1922C58.0543 79.4285 66.4519 87.1068 83.4116 87.1068C90.5043 87.1068 96.2946 85.831 100.631 83.3481Z" fill="#EDEDED"/>
<path fill-rule="evenodd" clip-rule="evenodd" d="M108.885 66.164C108.885 79.8122 99.3718 87.1069 82.412 87.1069C65.4523 87.1069 57.0547 79.4286 57.0547 67.1923C57.0547 51.9871 63.7439 37.8652 80.7037 37.8652C97.6634 37.8652 108.885 51.8099 108.885 66.164Z" stroke="#152633" stroke-width="1.5"/>
<path fill-rule="evenodd" clip-rule="evenodd" d="M87.0437 82.0412C87.4426 82.7426 87.9318 83.1059 88.4975 83.121C89.0436 83.1349 89.6719 82.8233 90.3484 82.2183C89.4018 81.2681 88.0115 80.87 86.431 80.8161C86.6201 81.2397 86.8256 81.6581 87.0437 82.0412ZM85.5408 77.5003C85.5737 77.521 85.6071 77.5403 85.6401 77.5608C85.7838 77.6493 85.9274 77.7352 86.0704 77.8159C86.0862 77.8248 86.1017 77.8333 86.1173 77.842C91.3318 80.7568 96.2315 78.8225 96.2828 78.8011L96.5586 79.4727C96.5087 79.4932 96.227 79.6054 95.759 79.7363C95.1253 79.9134 94.1473 80.1217 92.9454 80.1812C91.6055 82.2313 90.3414 83.4309 89.1761 83.7564C88.9394 83.8225 88.7064 83.8526 88.4784 83.8467C87.6529 83.8248 86.9385 83.3248 86.4124 82.4002C85.2932 80.4325 84.5193 77.6857 84.487 77.5697L84.2171 76.604L85.0426 77.1732C85.2087 77.2878 85.3749 77.3963 85.5408 77.5003Z" fill="#152633"/>
<path fill-rule="evenodd" clip-rule="evenodd" d="M91.1681 73.0045C91.1681 74.2392 92.5164 75.7106 95.0508 75.7106C97.5851 75.7106 99.4041 74.0039 99.4041 72.7692C99.4041 71.5345 97.5851 70.769 95.0508 70.769C92.5164 70.769 91.1681 71.7698 91.1681 73.0045Z" fill="#152633"/>
<path fill-rule="evenodd" clip-rule="evenodd" d="M89.3538 60.8273C89.3538 68.7326 82.4834 75.0989 76.7949 75.0989C71.129 75.0989 66.3955 68.6956 66.5195 60.8273C66.7478 46.3255 76.3597 43.7935 79.0783 43.7935C84.8652 43.7935 89.3538 53.163 89.3538 60.8273Z" fill="#2D3B45" stroke="#152633" stroke-width="1.5"/>
<path d="M80.5921 64.3039C80.2974 62.207 81.063 60.3659 82.3021 60.1918C83.5412 60.0176 84.7846 61.5764 85.0793 63.6733" stroke="#152633" stroke-width="1.5" stroke-linecap="round"/>
<path fill-rule="evenodd" clip-rule="evenodd" d="M108.203 72.2726C107.343 72.6545 106.455 72.8519 105.72 72.8519C105.683 72.8519 105.646 72.8514 105.61 72.8503C103.765 72.8008 101.596 71.5704 99.6588 68.6534C97.7996 65.8534 96.7424 62.5259 96.4141 59.7908C95.7072 53.9031 95.887 47.7859 98.4103 45.0991C98.5731 44.9259 98.7479 44.7746 98.9291 44.6353C105.135 50.336 108.885 58.462 108.885 66.3747C108.885 68.4951 108.655 70.4623 108.203 72.2726Z" fill="#2D3B45" stroke="#152633" stroke-width="1.5"/>
<path d="M101.098 64.5105C100.83 62.6042 101.385 60.9502 102.339 60.8163C103.292 60.6823 104.282 62.1191 104.55 64.0254" stroke="#152633" stroke-width="1.5" stroke-linecap="round"/>
<path fill-rule="evenodd" clip-rule="evenodd" d="M103.259 48.2856C103.058 48.4461 102.858 48.5911 102.658 48.7278C100.495 45.8885 97.8317 43.3871 94.7675 41.4284C96.27 39.9741 98.2635 38.2309 100.21 37.104C104.072 34.8678 105.292 39.747 105.495 40.7636C105.699 41.7801 106.309 45.8461 103.259 48.2856Z" fill="#2D3B45"/>
<path d="M104.515 46.9267C104.188 47.4112 103.776 47.8718 103.259 48.2855C103.058 48.446 102.858 48.591 102.658 48.7277C100.495 45.8884 97.8317 43.387 94.7675 41.4283C95.3006 40.9123 95.8956 40.3599 96.5283 39.8115C99.5557 41.7618 102.189 44.2425 104.332 47.0546C104.393 47.0128 104.454 46.9702 104.515 46.9267Z" fill="#28343D"/>
<path fill-rule="evenodd" clip-rule="evenodd" d="M103.259 48.2856C103.058 48.4461 102.858 48.5911 102.658 48.7278C100.495 45.8885 97.8317 43.3871 94.7675 41.4284C96.27 39.9741 98.2635 38.2309 100.21 37.104C104.072 34.8678 105.292 39.747 105.495 40.7636C105.699 41.7801 106.309 45.8461 103.259 48.2856Z" stroke="#152633" stroke-width="1.5" stroke-linecap="round"/>
<path fill-rule="evenodd" clip-rule="evenodd" d="M82.6821 110.427C82.2493 110.866 81.1591 110.812 80.8234 111.192C86.4118 113.999 88.0098 117.591 94.4638 114.364C99.0815 112.055 98.2201 105.081 94.812 100.147C93.6665 104.028 90.2051 107.657 82.6821 110.427Z" fill="#2D3B45"/>
<path d="M97.3743 110.71C96.9488 112.285 96.0157 113.588 94.4637 114.365C89.649 116.772 86.856 115.106 84.3464 113.712C83.2969 113.022 82.2427 111.905 80.8233 111.192C80.9864 111.008 81.3275 110.926 81.6848 110.84C82.0631 110.748 82.4595 110.653 82.6821 110.427C83.0654 110.286 83.4382 110.143 83.8007 109.997C84.4354 110.382 85.018 110.765 85.5696 111.128C88.6522 113.153 90.7644 114.541 95.5791 112.134C96.3114 111.768 96.9059 111.284 97.3743 110.71Z" fill="#28343D"/>
<path fill-rule="evenodd" clip-rule="evenodd" d="M80.4426 110.644C80.4426 110.644 87.9714 118.731 94.4638 114.364C99.0815 112.055 98.2201 105.081 94.812 100.147C92.6064 107.619 80.4426 110.644 80.4426 110.644Z" stroke="#152633" stroke-width="1.5"/>
<path fill-rule="evenodd" clip-rule="evenodd" d="M60.6458 104.025C62.5186 107.948 68.4596 110.657 74.8599 110.991C74.7368 111.392 74.5998 111.798 74.4358 112.214C71.069 120.762 60.7084 117.395 58.8953 112.214C57.8514 109.231 58.8157 106.058 60.4947 103.715C60.5432 103.82 60.5926 103.925 60.6458 104.025Z" fill="#2D3B45" stroke="#152633" stroke-width="1.5"/>
<path d="M73.2402 114.419C68.802 117.61 62.0042 114.644 60.5682 110.541C59.8473 108.481 60.0842 106.33 60.8529 104.425C60.7791 104.293 60.7099 104.159 60.6456 104.025C60.5924 103.925 60.543 103.82 60.4945 103.715C58.8156 106.058 57.8513 109.231 58.8951 112.214C60.5281 116.88 69.0944 120.075 73.2402 114.419Z" fill="#28343D"/>
<path fill-rule="evenodd" clip-rule="evenodd" d="M60.6458 104.025C62.5186 107.948 68.4596 110.657 74.8599 110.991C74.7368 111.392 74.5998 111.798 74.4358 112.214C71.069 120.762 60.7084 117.395 58.8953 112.214C57.8514 109.231 58.8157 106.058 60.4947 103.715C60.5432 103.82 60.5926 103.925 60.6458 104.025Z" stroke="#152633" stroke-width="1.5"/>
<path fill-rule="evenodd" clip-rule="evenodd" d="M64.4107 82.8467C66.8156 83.6176 71.1811 86.0702 73.8258 86.5129C80.4722 87.6259 86.6304 87.5849 91.903 86.3846C96.0359 94.4394 99.202 106.825 80.9859 110.554C72.6467 112.261 63.1139 109.196 60.6457 104.025C58.6429 100.254 59.9856 92.5536 64.4107 82.8467Z" fill="white"/>
<path fill-rule="evenodd" clip-rule="evenodd" d="M68.8817 87.0825C63.7048 97.201 66.7792 108.809 79.3054 108.809C86.1321 108.809 87.9484 107.949 91.0388 105.904C89.2552 108.253 85.7686 109.519 80.986 110.554C73.5826 112.156 63.1137 109.196 60.6458 104.025C59.1158 101.144 59.5405 95.9689 61.7979 89.3594L62.5283 88.3767L68.8817 87.0825Z" fill="#2D3B45"/>
<path d="M90.2021 106.74C88.4463 107.739 86.0511 108.361 83.231 108.971C75.8276 110.573 65.3444 107.523 62.8764 102.352C61.3784 99.5312 61.7542 94.5111 63.8891 88.0991L62.5281 88.3764L61.7977 89.359C59.5404 95.9685 59.1156 101.144 60.6456 104.025C63.1136 109.196 73.5825 112.156 80.9859 110.553C85.2014 109.641 88.3305 108.629 90.2021 106.74Z" fill="#28343D"/>
<path fill-rule="evenodd" clip-rule="evenodd" d="M64.4107 82.8467C66.8156 83.6176 71.1811 86.0702 73.8258 86.5129C80.4722 87.6259 86.6304 87.5849 91.903 86.3846C96.0359 94.4394 99.202 106.825 80.9859 110.554C72.6467 112.261 63.1139 109.196 60.6457 104.025C58.6429 100.254 59.9856 92.5536 64.4107 82.8467Z" stroke="#152633" stroke-width="1.5"/>
<path fill-rule="evenodd" clip-rule="evenodd" d="M71.9287 77.7104C68.7075 73.5599 63.1456 73.2833 60.932 77.675C58.7185 82.0664 61.9395 86.2169 62.1949 87.2526C62.4502 88.2885 61.7423 90.3433 61.2728 92.4248C60.7478 94.7517 62.2945 96.5681 65.2741 95.2839C73.3827 91.7892 75.1495 81.8605 71.9287 77.7104Z" fill="#2D3B45"/>
<path d="M68.2329 93.533C67.3617 94.2151 66.3766 94.809 65.2744 95.284C62.2948 96.5683 60.7481 94.7519 61.2731 92.425C61.3946 91.8863 61.5321 91.3493 61.6647 90.8314C62.0445 89.3481 62.3845 88.0206 62.1952 87.2528C62.1445 87.0473 61.977 86.719 61.7583 86.2905C60.8753 84.5601 59.1581 81.195 60.9323 77.6752C61.6199 76.311 62.6306 75.3973 63.7938 74.9102C63.3363 75.3589 62.934 75.9079 62.6054 76.5598C60.8312 80.0796 62.5484 83.4447 63.4314 85.1751C63.6501 85.6036 63.8176 85.9319 63.8683 86.1374C64.0575 86.9052 63.7176 88.2327 63.3378 89.716C63.2052 90.234 63.0677 90.7709 62.9462 91.3096C62.4212 93.6365 63.9678 95.4529 66.9475 94.1687C67.3952 93.9757 67.8236 93.7631 68.2329 93.533Z" fill="#28343D"/>
<path fill-rule="evenodd" clip-rule="evenodd" d="M71.9287 77.7104C68.7075 73.5599 63.1456 73.2833 60.932 77.675C58.7185 82.0664 61.9395 86.2169 62.1949 87.2526C62.4502 88.2885 61.7423 90.3433 61.2728 92.4248C60.7478 94.7517 62.2945 96.5681 65.2741 95.2839C73.3827 91.7892 75.1495 81.8605 71.9287 77.7104Z" stroke="#152633" stroke-width="1.5"/>
<path d="M45.6981 109.121L49.898 111.051C50.2807 111.227 50.3378 111.751 50.0189 112.026C46.2039 115.315 45.3071 119.511 45.3464 121.971C45.3536 122.416 44.8885 122.757 44.4843 122.571L40.2257 120.614C39.5387 120.299 39.0387 119.655 39.0306 118.9C38.9885 114.951 41.4786 111.425 43.4159 109.475C44.0141 108.873 44.9268 108.767 45.6981 109.121Z" fill="#FF6242" stroke="#152633" stroke-width="1.5" stroke-linejoin="round"/>
<path d="M25.4359 63.8778L22.0826 61.281C21.7477 61.0217 21.8131 60.4949 22.1888 60.2992C26.2358 58.1911 27.8944 54.688 28.3758 52.4625C28.4705 52.025 29.0059 51.7936 29.3598 52.0677L32.7624 54.7027C33.3533 55.1603 33.6962 55.8891 33.5354 56.619C32.764 60.1212 29.8624 62.7127 27.7193 64.0531C27.0061 64.4992 26.101 64.3929 25.4359 63.8778Z" fill="#BF8DF2" stroke="#152633" stroke-width="1.5" stroke-linejoin="round"/>
<path d="M122.78 29.8693L125.876 26.9701C126.185 26.6806 126.695 26.8287 126.828 27.2307C128.268 31.5607 131.464 33.7538 133.585 34.5821C134.002 34.7449 134.146 35.3102 133.819 35.6162L130.678 38.5579C130.132 39.0688 129.358 39.2918 128.663 39.0173C125.327 37.7003 123.229 34.4245 122.245 32.096C121.918 31.3211 122.166 30.4443 122.78 29.8693Z" fill="#BF8DF2" stroke="#152633" stroke-width="1.5" stroke-linejoin="round"/>
<path d="M12.5781 73.0953L12.5781 77.1407C12.5781 77.5615 12.1272 77.8324 11.7432 77.6601C7.60302 75.8025 3.82175 76.6153 1.77309 77.5702C1.37021 77.758 0.866587 77.4764 0.866587 77.0319L0.866586 72.9216C0.866586 72.1643 1.2429 71.439 1.93171 71.1244C5.14878 69.6552 8.93629 70.3311 11.2979 71.1731C12.0985 71.4585 12.5781 72.2453 12.5781 73.0953Z" fill="#FF8A14" stroke="#152633" stroke-width="1.5" stroke-linejoin="round"/>
<path d="M142.035 101.098L142.281 105.136C142.307 105.556 141.873 105.853 141.48 105.705C137.234 104.103 133.509 105.144 131.523 106.222C131.132 106.434 130.612 106.183 130.585 105.739L130.335 101.637C130.289 100.881 130.62 100.134 131.289 99.7781C134.41 98.116 138.232 98.5602 140.64 99.2569C141.457 99.4931 141.984 100.249 142.035 101.098Z" fill="#FF8A14" stroke="#152633" stroke-width="1.5" stroke-linejoin="round"/>
<path d="M34.7636 91.3865L37.4249 95.7646C37.6466 96.1294 37.3911 96.6009 36.9663 96.6422C31.834 97.1407 28.7278 100.201 27.3953 102.342C27.1569 102.725 26.5685 102.755 26.334 102.369L23.642 97.9407C23.2597 97.3117 23.1966 96.5234 23.5839 95.8974C25.7462 92.4036 29.9428 90.8808 32.7215 90.3966C33.5403 90.2539 34.3319 90.6762 34.7636 91.3865Z" fill="#00F5BC" stroke="#152633" stroke-width="1.5" stroke-linejoin="round"/>
<path d="M21.408 117.498L19.6013 122.648C19.4568 123.06 18.9118 123.155 18.6131 122.836C15.2532 119.253 11.1694 118.872 8.7511 119.258C8.2946 119.331 7.87469 118.886 8.02771 118.45L9.85037 113.254C10.083 112.591 10.6123 112.057 11.3043 111.935C15.2639 111.238 18.921 113.502 20.9319 115.352C21.5214 115.894 21.6731 116.742 21.408 117.498Z" fill="#FFF48C" stroke="#152633" stroke-width="1.5" stroke-linejoin="round"/>
<path d="M119.142 83.6726L115.267 79.8288C114.957 79.5214 115.106 78.9885 115.522 78.8556C120.201 77.3608 122.299 73.8364 122.989 71.4867C123.119 71.0432 123.702 70.8552 124.03 71.1807L127.939 75.0585C128.438 75.5534 128.693 76.2607 128.506 76.938C127.434 80.8132 123.819 83.1431 121.285 84.1645C120.542 84.464 119.711 84.2367 119.142 83.6726Z" fill="#FFF48C" stroke="#152633" stroke-width="1.5" stroke-linejoin="round"/>
<path d="M25.3092 39.1133L20.6432 40.1435C20.2227 40.2364 19.8572 39.8351 19.9593 39.4168C21.0645 34.8888 19.3675 31.3508 17.8859 29.5489C17.5965 29.197 17.7576 28.6202 18.2025 28.522L22.9224 27.4799C23.6286 27.324 24.3831 27.5079 24.846 28.0633C27.2423 30.9386 27.3133 34.9679 26.8928 37.529C26.76 38.3377 26.1095 38.9367 25.3092 39.1133Z" fill="#FF6196" stroke="#152633" stroke-width="1.5" stroke-linejoin="round"/>
<path d="M113.809 116.632L109.143 117.663C108.723 117.755 108.357 117.354 108.459 116.936C109.564 112.408 107.867 108.87 106.386 107.068C106.097 106.716 106.258 106.139 106.702 106.041L111.422 104.999C112.129 104.843 112.883 105.027 113.346 105.582C115.742 108.458 115.813 112.487 115.393 115.048C115.26 115.857 114.609 116.456 113.809 116.632Z" fill="#FF6196" stroke="#152633" stroke-width="1.5" stroke-linejoin="round"/>
<path d="M72.0375 3.86569L75.4944 1.24614C75.8336 0.989128 76.3275 1.19257 76.4163 1.60874C77.3653 6.05301 80.3038 8.54184 82.3308 9.57251C82.7318 9.77642 82.8188 10.3577 82.4602 10.6294L78.9551 13.2855C78.3649 13.7328 77.5804 13.8763 76.9207 13.5399C73.7209 11.9086 71.9895 8.42853 71.2706 6.00852C71.0328 5.20796 71.3719 4.37008 72.0375 3.86569Z" fill="#4AEFF7" stroke="#152633" stroke-width="1.5" stroke-linejoin="round"/>
<path d="M146.508 70.0596L142.857 72.4007C142.498 72.6304 142.022 72.389 141.966 71.9671C141.368 67.4623 138.633 64.7512 136.693 63.5651C136.309 63.3305 136.267 62.7442 136.646 62.5013L140.348 60.1276C140.972 59.7278 141.765 59.6461 142.396 60.0331C145.459 61.9096 146.913 65.5145 147.44 67.9833C147.615 68.8 147.211 69.6088 146.508 70.0596Z" fill="#4AEFF7" stroke="#152633" stroke-width="1.5" stroke-linejoin="round"/>
</svg>
