<svg width="174" height="172" viewBox="0 0 174 172" fill="none" xmlns="http://www.w3.org/2000/svg">
<path d="M87 168C131.183 168 167 162.627 167 156C167 152.245 155.502 148.893 137.5 146.693H36.5C18.4976 148.893 7 152.245 7 156C7 162.627 42.8172 168 87 168Z" fill="#152633" stroke="#152633" stroke-width="2"/>
<path fill-rule="evenodd" clip-rule="evenodd" d="M73.9467 167.5C82.0076 163.267 88.0067 152.051 86.0667 141.579C83.524 127.852 72.8842 115.519 64.1075 117.145C59.7384 117.954 55.1274 122.218 51.8679 128.59C48.5702 135.037 47.2754 142.518 48.3943 148.558C49.9551 156.983 54.4989 163.765 60 167.061C65 167.5 69.5 168 73.9467 167.5Z" fill="#2D3B45"/>
<path d="M42.454 166.068C40.5203 163.124 38.973 159.818 37.847 156.164C30.7193 133.032 49.81 102.213 78.3792 96.9201C106.948 91.6275 132.429 113.146 136.908 137.326C137.49 140.467 137.647 143.48 137.412 146.355L137.372 146.801C136.649 154.291 133.247 160.832 127.745 166.239C115.593 167.356 101.298 168 86 168C81.4918 168 77.0708 167.944 72.766 167.837C81.2895 164.008 87.8328 152.334 85.8186 141.461C83.276 127.734 72.6362 115.401 63.8594 117.027C59.4904 117.836 54.8794 122.1 51.6199 128.472C48.3221 134.919 47.0273 142.4 48.1462 148.441C49.7793 157.255 54.6781 164.272 60.5221 167.379C54.0963 167.055 48.0348 166.612 42.454 166.068Z" fill="white" stroke="#152633" stroke-width="2"/>
<path fill-rule="evenodd" clip-rule="evenodd" d="M93.8576 159.447C93.4722 157.367 96.6207 155.04 100.889 154.249C105.158 153.458 108.931 154.503 109.317 156.583C109.702 158.662 106.554 160.989 102.285 161.78C98.0159 162.571 94.2429 161.526 93.8576 159.447Z" fill="#152633"/>
<path fill-rule="evenodd" clip-rule="evenodd" d="M77.2855 140.448C79.6107 140.689 81.1881 143.847 80.8089 147.501C80.4299 151.155 78.2371 153.921 75.912 153.68C73.5867 153.438 72.0092 150.281 72.3883 146.627C72.7678 142.973 74.9604 140.207 77.2855 140.448Z" fill="white"/>
<path fill-rule="evenodd" clip-rule="evenodd" d="M110.876 147.607C114.559 151.409 118.281 153.009 121.34 152.526C121.395 152.518 121.446 152.509 121.496 152.5C123.681 152.095 126.265 150.456 127.743 148.366C131.347 143.271 132.368 138.225 130.955 130.596C128.726 118.568 114.412 105.202 105.779 106.801C103.907 107.148 102.502 108.066 101.545 109.555C98.6991 113.987 99.4108 122.975 102.881 134.088C104.371 138.862 107.252 143.864 110.876 147.607Z" fill="#2D3B45" stroke="#152633" stroke-width="2"/>
<path fill-rule="evenodd" clip-rule="evenodd" d="M117.313 137.572C118.676 140.257 118.396 143.136 116.688 144.003C114.979 144.871 112.49 143.397 111.127 140.713C109.764 138.029 110.044 135.15 111.752 134.282C113.46 133.415 115.95 134.888 117.313 137.572Z" fill="white"/>
<path fill-rule="evenodd" clip-rule="evenodd" d="M40.1099 127.296C38.5578 126.965 36.8538 126.392 35.0789 125.442C28.2516 121.787 27.9723 113.638 28.0017 111.583C28.0305 109.528 28.6467 99.5736 36.9858 102.539C42.3713 104.453 48.2862 108.32 51.8029 110.819C46.8992 115.582 42.9316 121.217 40.1099 127.296Z" fill="#2D3B45" stroke="#152633" stroke-width="2"/>
<path fill-rule="evenodd" clip-rule="evenodd" d="M120.803 105.513C120.1 106.326 119.374 107.015 118.651 107.598C113.988 103.816 108.652 100.779 102.866 98.7789C104.94 95.668 108.471 90.8025 112.177 87.6296C117.986 82.6574 121.563 90.4958 122.223 92.1444C122.883 93.7933 125.179 100.452 120.803 105.513Z" fill="#2D3B45" stroke="#152633" stroke-width="2"/>
<path d="M36.5 146.8C18.4976 149 7 152.352 7 156.107C7 162.735 42.8172 168.107 87 168.107C131.183 168.107 167 162.735 167 156.107C167 152.352 155.502 149 137.5 146.8" stroke="#152633" stroke-width="2"/>
<ellipse cx="56" cy="25.5" rx="40" ry="22.5" fill="white" stroke="#152633" stroke-width="2"/>
<path d="M47.3201 13.92C51.4374 13.4934 55.2774 13.28 58.8401 13.28C60.9307 13.28 62.4667 13.7707 63.4481 14.752C64.4294 15.7334 64.9201 17.2694 64.9201 19.36V20.8C64.9201 22.4 64.6001 23.616 63.9601 24.448C63.3201 25.3014 62.2001 26.0054 60.6001 26.56L57.4001 27.68V29.28H51.6401V24.8L59.1601 22.08V19.36C59.1601 18.8694 59.0107 18.4854 58.7121 18.208C58.4347 17.9094 57.9441 17.76 57.2401 17.76C55.9601 17.76 54.2961 17.824 52.2481 17.952C50.2214 18.08 48.5787 18.176 47.3201 18.24V13.92ZM51.6401 31.2H57.4001V36H51.6401V31.2Z" fill="#152633"/>
<ellipse cx="33" cy="60" rx="7" ry="4" fill="white" stroke="#152633" stroke-width="2"/>
<ellipse cx="40" cy="75" rx="5" ry="3" fill="white" stroke="#152633" stroke-width="2"/>
<ellipse cx="52" cy="84.5" rx="4" ry="2.5" fill="white" stroke="#152633" stroke-width="2"/>
</svg>
