<svg width="94" height="123" viewBox="0 0 94 123" fill="none" xmlns="http://www.w3.org/2000/svg">
<path d="M47.3538 123C69.4366 123 87.3384 119.211 87.3384 114.538C87.3384 109.864 69.4366 106.075 47.3538 106.075C25.2709 106.075 7.36914 109.864 7.36914 114.538C7.36914 119.211 25.2709 123 47.3538 123Z" fill="black" fill-opacity="0.05"/>
<path fill-rule="evenodd" clip-rule="evenodd" d="M39.1092 99.7905H39.1089C38.0372 99.1663 37.0164 98.4742 36.0534 97.7199C36.0519 97.7186 36.0503 97.7174 36.0485 97.7162C34.8947 96.8116 33.8242 95.8187 32.8496 94.7478C32.8472 94.7456 32.8447 94.7429 32.8423 94.7401C32.03 93.847 31.2839 92.9004 30.6119 91.9059C28.9732 99.5583 19.7845 114.706 40.9185 115.015C49.5807 115.142 50.4135 109.76 50.4135 109.76L49.6579 103.344C45.824 102.857 42.2484 101.618 39.1092 99.7905Z" fill="#28343D" stroke="#152633" stroke-width="2"/>
<path fill-rule="evenodd" clip-rule="evenodd" d="M54.3445 114.563C54.3445 114.563 61.0544 117.681 68.6794 116.122C76.3044 114.563 78.4394 110.823 79.0494 107.706C80.0229 102.73 60.1395 106.147 60.1395 106.147L54.3445 114.563Z" fill="#28343D" stroke="#152633" stroke-width="2"/>
<path fill-rule="evenodd" clip-rule="evenodd" d="M26.3499 79.4092C26.3499 77.3396 26.62 75.3297 27.1251 73.4073C27.1783 73.4253 27.2326 73.4417 27.2858 73.4596C23.7822 72.2827 20.6501 70.7249 17.9756 68.7942C11.8495 70.5966 6.41187 75.544 6.41187 75.544L13.36 84.202C13.36 84.202 18.6025 81.7462 26.6705 83.2898C26.4599 82.0251 26.3499 80.7295 26.3499 79.4092Z" fill="#28343D" stroke="#152633" stroke-width="2"/>
<path fill-rule="evenodd" clip-rule="evenodd" d="M8.7312 42.331C8.7312 60.0788 24.785 69.5646 46.8546 69.5646C68.9242 69.5646 86.8152 58.8548 86.8152 42.943C86.8152 23.1705 68.9242 4.08154 46.8546 4.08154C24.785 4.08154 8.7312 23.6653 8.7312 42.331Z" fill="white"/>
<path d="M14.8989 58.6658C21.6829 64.9098 32.5323 68.1542 45.4393 68.1542C67.5089 68.1542 85.3999 57.4443 85.3999 41.5326C85.3999 31.9324 81.1823 22.4934 74.3165 15.3221C82.0135 22.6395 86.8153 32.6995 86.8153 42.943C86.8153 58.8548 68.9243 69.5646 46.8547 69.5646C33.0086 69.5646 21.5304 65.8309 14.8989 58.6658Z" fill="#EDEDED"/>
<path fill-rule="evenodd" clip-rule="evenodd" d="M8.7312 42.331C8.7312 60.0788 24.785 69.5646 46.8546 69.5646C68.9242 69.5646 86.8152 58.8548 86.8152 42.943C86.8152 23.1705 68.9242 4.08154 46.8546 4.08154C24.785 4.08154 8.7312 23.6653 8.7312 42.331Z" stroke="#152633" stroke-width="2"/>
<path fill-rule="evenodd" clip-rule="evenodd" d="M46.2781 60.9464C46.9412 62.8384 46.5907 64.6087 45.4948 64.9012C44.399 65.1933 42.9732 63.8967 42.3101 62.0047C41.6471 60.1126 41.998 58.3424 43.0934 58.0499C44.1893 57.7577 45.6155 59.0544 46.2781 60.9464Z" fill="#152633"/>
<path fill-rule="evenodd" clip-rule="evenodd" d="M43.521 52.6161C43.521 54.3181 40.9251 55.6977 37.7226 55.6977C34.5202 55.6977 31.9243 54.3181 31.9243 52.6161C31.9243 50.9141 34.5202 49.5345 37.7226 49.5345C40.9251 49.5345 43.521 50.9141 43.521 52.6161Z" fill="#152633"/>
<path fill-rule="evenodd" clip-rule="evenodd" d="M60.5293 17.113C53.6383 17.113 47.321 27.7705 47.321 38.3467C47.321 47.8117 55.7215 56.5333 63.6218 56.5333C70.8485 56.5333 76.83 48.413 76.83 38.3467C76.83 33.6936 74.8044 28.3022 71.4098 23.9571C68.0512 19.6575 63.961 17.113 60.5293 17.113Z" fill="#2D3B45" stroke="#152633" stroke-width="2"/>
<path fill-rule="evenodd" clip-rule="evenodd" d="M56.966 46.3663C55.2231 46.8762 53.1555 45.0862 52.3482 42.3685C51.5407 39.6507 52.299 37.0343 54.0423 36.5247C55.7853 36.0148 57.8529 37.8048 58.6601 40.5226C59.4676 43.2403 58.709 45.8567 56.966 46.3663Z" fill="white"/>
<path fill-rule="evenodd" clip-rule="evenodd" d="M27.9289 14.8018C21.302 14.8018 12.5312 26.767 12.5312 36.0675C12.5312 41.964 13.9832 45.5992 17.3558 48.9094C18.7437 50.2711 20.8886 51.1404 22.5682 51.1404C22.6109 51.1404 22.6504 51.1398 22.6912 51.1385C25.0298 51.0754 27.5744 49.3605 29.7839 46.0063C31.9558 42.7082 33.4031 38.5732 33.8522 34.8002C34.8975 26.0223 34.191 19.2098 31.4651 16.2837C30.5457 15.2968 29.3701 14.8018 27.9289 14.8018Z" fill="#2D3B45" stroke="#152633" stroke-width="2"/>
<path fill-rule="evenodd" clip-rule="evenodd" d="M28.5808 40.9999C27.953 43.0903 26.3446 44.4673 24.9891 44.075C23.6335 43.6828 23.0434 41.6702 23.6713 39.5798C24.2994 37.4893 25.9075 36.1124 27.2627 36.5046C28.6186 36.8968 29.2087 38.9094 28.5808 40.9999Z" fill="white"/>
<path fill-rule="evenodd" clip-rule="evenodd" d="M79.8132 21.8005C80.9032 21.333 82.071 20.6616 83.2402 19.6949C87.736 15.977 86.8368 9.7805 86.5371 8.23137C86.2374 6.68224 84.439 -0.753582 78.7444 2.6545C75.0665 4.85551 71.266 8.60502 69.0337 10.9867C73.2637 13.899 76.9271 17.6014 79.8132 21.8005Z" fill="#2D3B45"/>
<path d="M82.5325 17.5792C81.3633 18.5459 80.1956 19.2173 79.1055 19.6848C76.5924 16.0284 73.4899 12.7486 69.9371 10.0391C69.6139 10.3724 69.3116 10.6901 69.0337 10.9866C73.2637 13.8989 76.9271 17.6014 79.8132 21.8004C80.9032 21.3329 82.071 20.6615 83.2402 19.6949C87.736 15.9769 86.8368 9.78043 86.5371 8.2313C86.438 7.71923 86.1752 6.56396 85.662 5.36975C85.7403 5.67967 85.7948 5.93689 85.8294 6.1157C86.1291 7.66482 87.0283 13.8613 82.5325 17.5792Z" fill="#28343D"/>
<path fill-rule="evenodd" clip-rule="evenodd" d="M79.8132 21.8005C80.9032 21.333 82.071 20.6616 83.2402 19.6949C87.736 15.977 86.8368 9.7805 86.5371 8.23137C86.2374 6.68224 84.439 -0.753582 78.7444 2.6545C75.0665 4.85551 71.266 8.60502 69.0337 10.9867C73.2637 13.899 76.9271 17.6014 79.8132 21.8005Z" stroke="#152633" stroke-width="2"/>
<path fill-rule="evenodd" clip-rule="evenodd" d="M16.4935 15.9481C17.1246 16.4464 17.7553 16.8501 18.37 17.1782C21.2994 13.7889 24.8281 10.8523 28.8321 8.61171C26.8725 6.62292 23.596 3.55091 20.4214 1.73738C15.446 -1.10495 13.8747 5.09619 13.6129 6.38816C13.351 7.68012 12.5654 12.8477 16.4935 15.9481Z" fill="#2D3B45"/>
<path d="M16.9547 15.0626C16.34 14.7345 15.7093 14.3307 15.0782 13.8325C14.7586 13.5802 14.4702 13.3143 14.2102 13.0379C14.6864 14.082 15.411 15.0936 16.4936 15.9481C17.1247 16.4464 17.7554 16.8501 18.3701 17.1782C21.2995 13.7888 24.8282 10.8523 28.8322 8.61171C28.2916 8.06308 27.6508 7.43203 26.9396 6.7677C23.1321 8.97184 19.7672 11.8085 16.9547 15.0626Z" fill="#28343D"/>
<path fill-rule="evenodd" clip-rule="evenodd" d="M16.4935 15.9481C17.1246 16.4464 17.7553 16.8501 18.37 17.1782C21.2994 13.7889 24.8281 10.8523 28.8321 8.61171C26.8725 6.62292 23.596 3.55091 20.4214 1.73738C15.446 -1.10495 13.8747 5.09619 13.6129 6.38816C13.351 7.68012 12.5654 12.8477 16.4935 15.9481Z" stroke="#152633" stroke-width="2"/>
<path fill-rule="evenodd" clip-rule="evenodd" d="M45.7167 75.5754C38.8999 75.5754 32.6604 74.6608 27.2949 72.8695C26.7852 74.7732 26.5127 76.7635 26.5127 78.8129C26.5127 92.4261 38.4543 103.462 53.185 103.462C67.9157 103.462 79.8572 92.4261 79.8572 78.8129C79.8572 74.3206 78.5562 70.1098 76.2844 66.4832C68.9878 72.2225 58.0034 75.5754 45.7167 75.5754Z" fill="white" stroke="#152633" stroke-width="2"/>
<path d="M57.5308 62.7922C57.0587 63.0165 56.601 63.2401 56.1586 63.4617C56.4581 63.2815 56.7659 63.1002 57.0822 62.9181C62.596 59.7443 70.6474 56.3703 80.8963 55.4711L80.8828 56.5246C71.6245 57.0653 63.4316 59.9887 57.5308 62.7922Z" fill="white" stroke="#C7CDD1"/>
<path fill-rule="evenodd" clip-rule="evenodd" d="M81.4034 54.9272C60.2066 56.5914 48.1597 68.7943 48.1597 68.7943C48.1597 68.7943 62.6492 57.9248 81.3768 56.9987L81.4034 54.9272Z" fill="white" stroke="#C7CDD1" stroke-width="2"/>
<path d="M85.5022 56.9926L85.4025 58.2459C76.304 57.5941 67.1484 60.1428 60.2496 62.8613C56.732 64.2474 53.79 65.6821 51.7266 66.7707C51.3987 66.9437 51.0929 67.108 50.8105 67.2619C50.9962 67.1436 51.1922 67.0202 51.3982 66.8923C53.2988 65.712 56.0518 64.146 59.4551 62.6075C66.1523 59.5799 75.3435 56.6698 85.5022 56.9926ZM48.6642 68.9233C48.6847 68.9561 48.7074 68.9923 48.7325 69.0323L48.6642 68.9233L48.6642 68.9233Z" fill="white" stroke="#C7CDD1"/>
<path fill-rule="evenodd" clip-rule="evenodd" d="M48.7325 69.0323C48.7325 69.0323 67.5572 57.2331 85.8614 58.7832L86.042 56.5123C65.1041 55.6216 48.1597 68.4596 48.1597 68.4596L48.6312 117.329C48.6388 117.324 48.6477 117.319 48.6554 117.314L48.7325 69.0323Z" fill="white" stroke="#C7CDD1" stroke-width="2"/>
<path fill-rule="evenodd" clip-rule="evenodd" d="M48.1597 120.41L48.242 68.8435C48.242 68.8435 70.4217 55.506 89.9076 59.5389L85.2409 109.843C85.2409 109.843 63.6517 112.431 48.1597 120.41Z" fill="white" stroke="#C7CDD1" stroke-width="2"/>
<path fill-rule="evenodd" clip-rule="evenodd" d="M48.1597 120.41L48.242 68.8435C48.242 68.8435 70.4217 55.506 89.9076 59.5389L85.2409 109.843C85.2409 109.843 63.6517 112.431 48.1597 120.41Z" fill="white" stroke="#C7CDD1" stroke-width="2" stroke-linejoin="round"/>
<path d="M42.9853 114.459L43.7911 114.723L43.6321 113.89L42.59 108.428L43.8562 106.255L43.9976 106.012L43.8638 105.765L42.3506 102.971L42.7481 102.848L43.0434 102.756L43.0934 102.451L43.6458 99.074L43.6605 98.9841L43.6426 98.8948L42.9924 95.6615L43.9895 92.8784L44.0792 92.628L43.9218 92.4137L42.1833 90.0473L43.4002 87.354L43.5533 87.0151L43.2727 86.7709L41.4086 85.1489L40.9985 83.3733L43.2846 82.5193L43.9303 82.2782L43.5006 81.7393L42.2949 80.2271L43.286 78.0536L43.4116 77.7782L43.2258 77.5392L41.7167 75.5987L41.5694 75.4093L41.3295 75.4057L39.5849 75.3794L39.4908 75.378L39.4027 75.4108L37.1043 76.2678L35.6687 74.6847L35.5328 74.5349L35.331 74.5216L32.1864 74.3154L32.1521 74.3132L32.1178 74.3157L29.35 74.5149L27.1713 71.6405L27.0629 71.4976L26.8884 71.4561L24.4736 70.8822L24.3298 70.848L24.1906 70.8975L22.3734 71.5434L19.781 69.8858L18.7254 68.6422L18.5927 68.4859L18.3885 68.4678L15.9445 68.2503L15.9004 68.2463L15.8563 68.2502L14.6096 68.3601L14.631 67.6861L14.6502 67.0816L14.0529 67.1763L13.0663 67.3328C13.0129 67.2777 12.9511 67.2145 12.885 67.1485C12.6978 66.9614 12.4299 66.7037 12.2329 66.5749L11.2905 65.9589L11.4654 67.0711L11.8505 69.5206L11.0588 71.7446L10.9693 71.996L11.1284 72.2103L12.6168 74.2149L11.9199 75.5568L11.8172 75.7543L11.8954 75.9627L12.9311 78.7256L12.9396 78.7483L12.9502 78.77L13.7233 80.3489L11.9782 82.5769L11.8571 82.7316L11.8736 82.9274L12.3541 88.6101L12.3573 88.6474L12.366 88.6839L13.0561 91.58L11.915 93.6609L11.8239 93.8271L11.8658 94.0118L12.6067 97.2816L11.8918 97.8974L11.5747 98.1706L11.7878 98.5308L13.0813 100.717L13.0402 100.9C12.9895 101.127 12.922 101.43 12.8548 101.737C12.7877 102.043 12.7206 102.354 12.671 102.594C12.6462 102.714 12.6252 102.819 12.6106 102.899C12.6034 102.938 12.5969 102.975 12.5924 103.007C12.5901 103.022 12.5876 103.041 12.5857 103.061C12.5855 103.064 12.5785 103.124 12.5882 103.192L12.6421 103.571L13.0221 103.618L14.4416 103.793C14.4455 103.799 14.4495 103.806 14.4535 103.812C14.5423 103.956 14.6694 104.152 14.8223 104.363C15.1081 104.756 15.5411 105.282 16.0246 105.546C16.0297 105.552 16.0391 105.563 16.0522 105.582C16.0855 105.63 16.1257 105.703 16.1696 105.805C16.2573 106.008 16.338 106.27 16.4072 106.543C16.4757 106.812 16.5291 107.074 16.5655 107.271C16.5836 107.369 16.5974 107.45 16.6066 107.506C16.6111 107.534 16.6145 107.555 16.6168 107.57L16.6192 107.586L16.6198 107.589L16.6199 107.59L16.6199 107.59L16.6199 107.59L16.6199 107.59L16.7415 108.411L17.4105 107.92L19.2332 106.581L21.3296 109.227L21.5623 109.521L21.9095 109.38L24.2377 108.436L26.2929 109.713L26.3047 109.72L26.317 109.727L29.173 111.287L29.4644 111.446L29.7241 111.239L31.0114 110.214L31.4714 111.294L31.5087 111.381L31.5754 111.449L33.5463 113.447L33.8298 113.734L34.1704 113.518L35.3268 112.783L38.3022 114.696L38.589 114.881L38.8654 114.681L40.363 113.599L42.9853 114.459ZM10.6407 107.385L6.2319 58.2549C6.67699 58.5466 7.28779 58.9293 8.06382 59.3767C9.86497 60.415 12.5564 61.8018 16.1323 63.2065C23.2022 65.9838 33.7267 68.8302 47.6589 69.1954L47.5782 119.864C47.5023 119.856 47.4187 119.848 47.3274 119.838C46.8087 119.783 46.0428 119.691 45.0597 119.545C43.0935 119.253 40.2591 118.744 36.7967 117.877C29.9232 116.155 20.5798 113.025 10.6407 107.385Z" fill="white" stroke="#C7CDD1"/>
<path fill-rule="evenodd" clip-rule="evenodd" d="M43.141 113.984L40.2767 113.045L38.5727 114.276L35.3284 112.19L33.9023 113.096L31.9314 111.098L31.2139 109.414L29.4127 110.848L26.5567 109.288L24.2855 107.877L21.7215 108.917L19.3258 105.892L17.1145 107.517C17.1145 107.517 16.7997 105.391 16.2774 105.114C15.5174 104.71 14.7464 103.327 14.7464 103.327L13.0832 103.122C13.0706 103.033 13.6126 100.633 13.6126 100.633L12.2182 98.2762L13.1607 97.4643L12.3534 93.9013L13.5871 91.6515L12.8524 88.568L12.3719 82.8852L14.3102 80.4105L13.3993 78.5501L12.3636 75.7872L13.2047 74.1679L11.5298 71.9123L12.3642 69.5685L11.9593 66.9934C12.2514 67.1843 12.885 67.8678 12.885 67.8678L14.1313 67.6702L14.0919 68.9077L15.9002 68.7483L18.3442 68.9658L19.4485 70.2666L22.3103 72.0964L24.358 71.3686L26.7728 71.9426L29.1154 75.0331L32.1537 74.8144L35.2983 75.0206L36.9615 76.8546L39.5773 75.8793L41.322 75.9056L42.8311 77.8462L41.7127 80.2989L43.1096 82.051L40.4126 83.0584L40.958 85.4196L42.9445 87.1481L41.6073 90.1077L43.5188 92.7097L42.4748 95.6238L43.1524 98.9933L42.5999 102.371L41.6211 102.674L43.4241 106.003L42.0638 108.338L43.141 113.984ZM5.63867 57.2384L10.1661 107.69C30.3088 119.187 48.0773 120.41 48.0773 120.41L48.1597 68.7073C19.9354 68.0893 5.63867 57.2384 5.63867 57.2384Z" stroke="#C7CDD1" stroke-width="2" stroke-linejoin="round"/>
<path d="M84.3952 65.5033C84.515 65.4941 84.6236 65.486 84.7207 65.4791L84.2233 71.2214C76.5265 71.285 68.8811 73.229 63.1362 75.1669C60.2035 76.1562 57.7591 77.1463 56.0469 77.8895C55.2005 78.2569 54.5327 78.5641 54.0728 78.7814L54.0803 74.1889C59.4575 70.4007 67.173 68.2102 73.6273 66.9683C76.8869 66.3412 79.8067 65.9593 81.9114 65.7342C82.9635 65.6217 83.8112 65.5484 84.3952 65.5033Z" fill="#C7CDD1" stroke="#C7CDD1"/>
<path d="M83.0041 77.0131C83.0653 77.0111 83.1229 77.0093 83.1767 77.0078L82.6825 82.6996C72.259 83.2796 62.8888 85.9179 54.0728 89.6105L54.0802 85.0816C60.773 81.0584 68.1347 79.0346 73.8604 78.0185C76.7548 77.5047 79.2249 77.2496 80.9698 77.1229C81.8421 77.0596 82.5327 77.0284 83.0041 77.0131Z" fill="#C7CDD1" stroke="#C7CDD1"/>
<path d="M82.8689 87.8861C82.9789 87.8726 83.0797 87.8605 83.1708 87.8497L82.6742 93.4642C77.1455 93.5511 69.9338 95.3191 64.0805 97.0705C61.0637 97.9731 58.3927 98.8761 56.4758 99.5534C55.5172 99.8921 54.7468 100.175 54.2156 100.372C54.1659 100.391 54.1183 100.409 54.0727 100.426L54.0804 95.8576C58.6504 92.9403 65.9617 90.9245 72.2327 89.634C75.4081 88.9805 78.2955 88.5169 80.3891 88.2168C81.4357 88.0668 82.2834 87.9577 82.8689 87.8861Z" fill="#C7CDD1" stroke="#C7CDD1"/>
<path d="M82.0626 98.7255C82.1841 98.7046 82.2951 98.6856 82.3951 98.6686L81.9008 104.29C73.6875 105.134 66.6085 106.907 61.5579 108.48C58.9899 109.28 56.945 110.029 55.5403 110.578C54.9251 110.819 54.4327 111.021 54.0728 111.173L54.0803 106.643C55.7916 105.559 58.3594 104.518 61.3052 103.564C64.3708 102.572 67.8058 101.685 71.0276 100.943C74.2484 100.201 77.2498 99.6058 79.4463 99.196C80.5444 98.9912 81.4409 98.8327 82.0626 98.7255Z" fill="#C7CDD1" stroke="#C7CDD1"/>
<path fill-rule="evenodd" clip-rule="evenodd" d="M13.1801 81.0708C12.7313 78.7022 11.5552 76.7306 10.0504 75.514C10.2215 75.3825 10.3454 75.2359 10.4038 75.0705C10.981 73.4288 10.0168 72.3158 8.57545 71.927C7.73128 71.6992 5.05246 72.1304 3.51341 75.337C1.55391 76.9707 0.556584 80.1434 1.18949 83.4868C2.02561 87.9023 5.38769 90.9404 8.69851 90.2734C12.0096 89.6063 14.0162 85.486 13.1801 81.0708Z" fill="#2D3B45"/>
<path d="M8.63501 74.1037C10.1398 75.3203 11.3159 77.2918 11.7647 79.6604C12.6008 84.0756 10.5942 88.196 7.28308 88.863C5.81498 89.1588 4.3368 88.726 3.07324 87.7677C4.55254 89.6661 6.63545 90.689 8.69847 90.2734C12.0096 89.6064 14.0162 85.486 13.18 81.0708C12.7313 78.7022 11.5552 76.7307 10.0504 75.5141C10.2214 75.3825 10.3454 75.2359 10.4038 75.0705C10.9136 73.6205 10.2209 72.583 9.05914 72.0925C9.20431 72.5394 9.19763 73.065 8.98841 73.6601C8.93 73.8255 8.80605 73.9721 8.63501 74.1037Z" fill="#28343D"/>
<path fill-rule="evenodd" clip-rule="evenodd" d="M13.1801 81.0708C12.7313 78.7022 11.5552 76.7306 10.0504 75.514C10.2215 75.3825 10.3454 75.2359 10.4038 75.0705C10.981 73.4288 10.0168 72.3158 8.57545 71.927C7.73128 71.6992 5.05246 72.1304 3.51341 75.337C1.55391 76.9707 0.556584 80.1434 1.18949 83.4868C2.02561 87.9023 5.38769 90.9404 8.69851 90.2734C12.0096 89.6063 14.0162 85.486 13.1801 81.0708Z" stroke="#152633" stroke-width="2"/>
<path fill-rule="evenodd" clip-rule="evenodd" d="M80.8198 81.0708C81.2683 78.7022 82.4444 76.7306 83.9492 75.514C83.7782 75.3825 83.6545 75.2359 83.5961 75.0705C83.0189 73.4288 83.9829 72.3158 85.4245 71.927C86.2687 71.6992 88.9472 72.1304 90.4863 75.337C92.4458 76.9707 93.4435 80.1434 92.8103 83.4871C91.9744 87.9023 88.612 90.9404 85.3011 90.2734C81.99 89.6063 79.9837 85.486 80.8198 81.0708Z" fill="#2D3B45"/>
<path d="M82.115 88.1063C82.9181 89.2287 84.0105 90.0133 85.3011 90.2733C88.612 90.9403 91.9744 87.9022 92.8103 83.4871C93.4435 80.1434 92.4458 76.9707 90.4863 75.337C89.8942 74.1035 89.1336 73.2806 88.3736 72.748C88.6226 73.0914 88.8577 73.4823 89.0709 73.9266C91.0304 75.5603 92.0281 78.733 91.3949 82.0767C90.559 86.4918 87.1966 89.5299 83.8857 88.8629C83.2425 88.7333 82.6485 88.4734 82.115 88.1063Z" fill="#28343D"/>
<path fill-rule="evenodd" clip-rule="evenodd" d="M80.8198 81.0708C81.2683 78.7022 82.4444 76.7306 83.9492 75.514C83.7782 75.3825 83.6545 75.2359 83.5961 75.0705C83.0189 73.4288 83.9829 72.3158 85.4245 71.927C86.2687 71.6992 88.9472 72.1304 90.4863 75.337C92.4458 76.9707 93.4435 80.1434 92.8103 83.4871C91.9744 87.9023 88.612 90.9404 85.3011 90.2734C81.99 89.6063 79.9837 85.486 80.8198 81.0708Z" stroke="#152633" stroke-width="2"/>
</svg>
