<svg width="100" height="64" viewBox="0 0 100 64" fill="none" xmlns="http://www.w3.org/2000/svg">
<path fill-rule="evenodd" clip-rule="evenodd" d="M99.0778 25.0651C99.0778 20.6362 95.0582 19.331 95.0582 19.331C95.0582 19.331 99.0778 18.2214 99.0778 13.7932C99.0778 9.36426 95.0582 8.1123 95.0582 8.1123H13.6619V44.511H52.351V46.0068C52.351 49.0097 54.2655 51.5633 56.9474 52.5477L75.5126 62.5008C75.5126 62.5008 80.2191 63.5651 82.6727 59.0577C84.0169 56.5884 83.6046 54.4332 82.9582 52.9871L95.0582 53.0137C95.0582 53.0137 99.0778 51.9041 99.0778 47.4759C99.0778 43.047 95.0582 41.7418 95.0582 41.7418C95.0582 41.7418 99.0778 40.6322 99.0778 36.2033C99.0778 32.2101 95.8184 30.8035 95.1756 30.5648C95.8184 30.3498 99.0778 29.059 99.0778 25.0651Z" fill="#FDDFBB"/>
<path fill-rule="evenodd" clip-rule="evenodd" d="M75.7614 61.8163C76.3897 61.927 80.0303 62.3988 82.0353 58.7155C83.0165 56.9135 83.1034 55.0841 82.2962 53.2777L81.8433 52.2645L94.9491 52.2933C95.494 52.112 98.3534 50.9931 98.3534 47.4753C98.3534 43.6123 94.8679 42.4358 94.8332 42.4243L92.5563 41.6851L94.8643 41.0487C95.0042 41.0084 98.3534 40.011 98.3534 36.2026C98.3534 32.6891 95.4947 31.4508 94.9216 31.238L93.015 30.5304L94.944 29.8832C95.5136 29.6926 98.3534 28.5622 98.3534 25.0645C98.3534 21.2022 94.8679 20.0257 94.8332 20.0142L92.5563 19.275L94.8643 18.6379C95.0042 18.5983 98.3534 17.6009 98.3534 13.7926C98.3534 10.2783 95.5114 9.04507 94.9353 8.83078H14.3868V43.7913H53.0752V46.0061C53.0752 48.6093 54.7324 50.9672 57.1991 51.8726L57.2926 51.9143L75.7614 61.8163ZM76.6933 63.3178C75.8955 63.3178 75.3687 63.2049 75.352 63.2013L75.1687 63.133L56.6469 53.2029C53.6418 52.0768 51.6259 49.191 51.6259 46.0061V45.2295H12.9375V7.39258L95.2759 7.42566C96.8411 7.91393 99.8027 9.87204 99.8027 13.7926C99.8027 16.6812 98.1991 18.4524 96.7237 19.362C98.1947 20.3335 99.8027 22.1766 99.8027 25.0645C99.8027 28.1207 98.0991 29.7688 96.7831 30.5865C98.094 31.4436 99.8027 33.1465 99.8027 36.2026C99.8027 39.0913 98.1991 40.8624 96.7237 41.7721C98.1947 42.7443 99.8027 44.5874 99.8027 47.4753C99.8027 51.4102 96.8259 53.2712 95.252 53.7056L95.1571 53.7322L83.9933 53.7077C84.4288 55.2006 84.5136 57.1875 83.3107 59.3987C81.4694 62.7806 78.4346 63.3178 76.6933 63.3178Z" fill="#243038"/>
<path fill-rule="evenodd" clip-rule="evenodd" d="M47.2587 46.9174H30.3101C29.5101 46.9174 28.8608 46.2731 28.8608 45.4792V7.6423C28.8608 6.8477 29.5101 6.2041 30.3101 6.2041H47.2587C48.0587 6.2041 48.7079 6.8477 48.7079 7.6423V45.4792C48.7079 46.2731 48.0587 46.9174 47.2587 46.9174Z" fill="#75848F"/>
<path fill-rule="evenodd" clip-rule="evenodd" d="M30.3101 6.92258C29.9101 6.92258 29.5855 7.24545 29.5855 7.64168V45.4786C29.5855 45.8748 29.9101 46.1977 30.3101 46.1977H47.2587C47.658 46.1977 47.9833 45.8748 47.9833 45.4786V7.64168C47.9833 7.24545 47.658 6.92258 47.2587 6.92258H30.3101ZM47.2587 47.6359H30.3101C29.1116 47.6359 28.1362 46.668 28.1362 45.4786V7.64168C28.1362 6.45229 29.1116 5.48438 30.3101 5.48438H47.2587C48.4572 5.48438 49.4326 6.45229 49.4326 7.64168V45.4786C49.4326 46.668 48.4572 47.6359 47.2587 47.6359Z" fill="#3F5463"/>
<path fill-rule="evenodd" clip-rule="evenodd" d="M19.1215 46.9177H2.17364C1.37364 46.9177 0.724365 46.2733 0.724365 45.4795V2.15793C0.724365 1.36332 1.37364 0.719727 2.17364 0.719727H19.1215C19.9215 0.719727 20.5707 1.36332 20.5707 2.15793V45.4795C20.5707 46.2733 19.9215 46.9177 19.1215 46.9177Z" fill="#F4F5F6"/>
<path fill-rule="evenodd" clip-rule="evenodd" d="M2.17391 1.4382C1.77391 1.4382 1.44928 1.76108 1.44928 2.1573V45.4788C1.44928 45.8751 1.77391 46.1979 2.17391 46.1979H19.1217C19.521 46.1979 19.8464 45.8751 19.8464 45.4788V2.1573C19.8464 1.76108 19.521 1.4382 19.1217 1.4382H2.17391ZM19.1217 47.6361H2.17391C0.975362 47.6361 0 46.6682 0 45.4788V2.1573C0 0.96791 0.975362 0 2.17391 0H19.1217C20.3203 0 21.2957 0.96791 21.2957 2.1573V45.4788C21.2957 46.6682 20.3203 47.6361 19.1217 47.6361Z" fill="#243038"/>
<path fill-rule="evenodd" clip-rule="evenodd" d="M52.3509 26.0619C52.3509 33.4967 46.277 39.5242 38.7842 39.5242C31.2922 39.5242 25.219 33.4967 25.219 26.0619C25.219 18.6271 31.2922 12.5996 38.7842 12.5996C46.277 12.5996 52.3509 18.6271 52.3509 26.0619Z" fill="#75848F"/>
<path fill-rule="evenodd" clip-rule="evenodd" d="M38.7845 13.3191C31.704 13.3191 25.9432 19.0359 25.9432 26.0623C25.9432 33.0893 31.704 38.8054 38.7845 38.8054C45.8649 38.8054 51.6265 33.0893 51.6265 26.0623C51.6265 19.0359 45.8649 13.3191 38.7845 13.3191ZM38.7845 40.2436C30.9048 40.2436 24.4939 33.8825 24.4939 26.0623C24.4939 18.2427 30.9048 11.8809 38.7845 11.8809C46.6649 11.8809 53.0758 18.2427 53.0758 26.0623C53.0758 33.8825 46.6649 40.2436 38.7845 40.2436Z" fill="#3F5463"/>
<path fill-rule="evenodd" clip-rule="evenodd" d="M50.0892 26.0624C50.0892 32.2582 45.0283 37.2811 38.7841 37.2811C32.5406 37.2811 27.4797 32.2582 27.4797 26.0624C27.4797 19.8667 32.5406 14.8438 38.7841 14.8438C45.0283 14.8438 50.0892 19.8667 50.0892 26.0624Z" fill="white"/>
<path fill-rule="evenodd" clip-rule="evenodd" d="M38.7843 15.5622C32.9503 15.5622 28.2039 20.2723 28.2039 26.0618C28.2039 31.8513 32.9503 36.5614 38.7843 36.5614C44.6184 36.5614 49.3648 31.8513 49.3648 26.0618C49.3648 20.2723 44.6184 15.5622 38.7843 15.5622ZM38.7843 37.9996C32.1517 37.9996 26.7546 32.6445 26.7546 26.0618C26.7546 19.4792 32.1517 14.124 38.7843 14.124C45.417 14.124 50.8141 19.4792 50.8141 26.0618C50.8141 32.6445 45.417 37.9996 38.7843 37.9996Z" fill="#3F5463"/>
<mask id="mask0_3658_15757" style="mask-type:luminance" maskUnits="userSpaceOnUse" x="0" y="0" width="100" height="64">
<path fill-rule="evenodd" clip-rule="evenodd" d="M0 63.3183H99.8029V0H0V63.3183Z" fill="white"/>
</mask>
<g mask="url(#mask0_3658_15757)">
<path fill-rule="evenodd" clip-rule="evenodd" d="M37.697 17.9014H39.8709V14.8438H37.697V17.9014Z" fill="#3F5463"/>
<path fill-rule="evenodd" clip-rule="evenodd" d="M37.697 37.2803H39.8709V34.2227H37.697V37.2803Z" fill="#3F5463"/>
<path fill-rule="evenodd" clip-rule="evenodd" d="M27.4797 27.1407H30.5609V24.9834H27.4797V27.1407Z" fill="#3F5463"/>
<path fill-rule="evenodd" clip-rule="evenodd" d="M47.0081 27.1407H50.0892V24.9834H47.0081V27.1407Z" fill="#3F5463"/>
<path fill-rule="evenodd" clip-rule="evenodd" d="M38.7852 27.1412C38.3642 27.1412 37.9635 26.8974 37.7859 26.489L34.2693 18.3861C34.0316 17.8389 34.2859 17.2046 34.8374 16.9688C35.3895 16.7315 36.0279 16.986 36.2656 17.5333L39.783 25.6354C40.02 26.1826 39.7664 26.8169 39.2149 27.0527C39.0743 27.1124 38.9279 27.1412 38.7852 27.1412Z" fill="#3F5463"/>
<path fill-rule="evenodd" clip-rule="evenodd" d="M43.3055 30.957C43.0563 30.957 42.807 30.8729 42.6019 30.7003L38.0802 26.8833C37.6229 26.4971 37.5671 25.8168 37.9563 25.3631C38.3454 24.9093 39.0324 24.8547 39.4882 25.2401L44.0106 29.0564C44.4679 29.4426 44.5237 30.1235 44.1345 30.5773C43.9193 30.8283 43.6135 30.957 43.3055 30.957Z" fill="#3F5463"/>
<path fill-rule="evenodd" clip-rule="evenodd" d="M42.8039 34.3995C42.6713 34.3995 42.5437 34.3268 42.48 34.201L38.4604 26.2233C38.3713 26.0457 38.443 25.8299 38.622 25.7408C38.8024 25.653 39.0184 25.7235 39.1082 25.9018L43.1278 33.8788C43.2169 34.0564 43.1452 34.2729 42.9662 34.3613C42.9133 34.3872 42.8582 34.3995 42.8039 34.3995Z" fill="#F1070F"/>
<path fill-rule="evenodd" clip-rule="evenodd" d="M40.7942 26.0624C40.7942 27.1641 39.8949 28.0565 38.7848 28.0565C37.6747 28.0565 36.7747 27.1641 36.7747 26.0624C36.7747 24.9608 37.6747 24.0684 38.7848 24.0684C39.8949 24.0684 40.7942 24.9608 40.7942 26.0624Z" fill="#96A0A8"/>
<path fill-rule="evenodd" clip-rule="evenodd" d="M38.7844 24.7868C38.0757 24.7868 37.4996 25.3585 37.4996 26.0618C37.4996 26.7651 38.0757 27.3375 38.7844 27.3375C39.493 27.3375 40.0691 26.7651 40.0691 26.0618C40.0691 25.3585 39.493 24.7868 38.7844 24.7868ZM38.7844 28.7757C37.2764 28.7757 36.0503 27.5583 36.0503 26.0618C36.0503 24.5661 37.2764 23.3486 38.7844 23.3486C40.2923 23.3486 41.5184 24.5661 41.5184 26.0618C41.5184 27.5583 40.2923 28.7757 38.7844 28.7757Z" fill="#3F5463"/>
<path fill-rule="evenodd" clip-rule="evenodd" d="M13.662 7.19792C13.662 8.89572 12.275 10.2721 10.5641 10.2721C8.85253 10.2721 7.46558 8.89572 7.46558 7.19792C7.46558 5.49941 8.85253 4.12305 10.5641 4.12305C12.275 4.12305 13.662 5.49941 13.662 7.19792Z" fill="white"/>
<path fill-rule="evenodd" clip-rule="evenodd" d="M10.5639 4.8425C9.25522 4.8425 8.19073 5.89958 8.19073 7.19827C8.19073 8.49697 9.25522 9.55333 10.5639 9.55333C11.8726 9.55333 12.9371 8.49697 12.9371 7.19827C12.9371 5.89958 11.8726 4.8425 10.5639 4.8425ZM10.5639 10.9915C8.45595 10.9915 6.74146 9.29014 6.74146 7.19827C6.74146 5.10641 8.45595 3.4043 10.5639 3.4043C12.6719 3.4043 14.3864 5.10641 14.3864 7.19827C14.3864 9.29014 12.6719 10.9915 10.5639 10.9915Z" fill="#243038"/>
<path fill-rule="evenodd" clip-rule="evenodd" d="M82.9583 53.7058H76.2061C75.8054 53.7058 75.4814 53.3836 75.4814 52.9867C75.4814 52.5897 75.8054 52.2676 76.2061 52.2676H82.9583C83.359 52.2676 83.6829 52.5897 83.6829 52.9867C83.6829 53.3836 83.359 53.7058 82.9583 53.7058Z" fill="#243038"/>
</g>
</svg>
