<svg width="18" height="18" viewBox="0 0 18 18" fill="none" xmlns="http://www.w3.org/2000/svg">
<rect width="18" height="18" fill="white"/>
<path d="M2 0H5V1H2C1.44772 1 1 1.44772 1 2V5H0V2C0 0.89543 0.895431 0 2 0Z" fill="#2D3B45"/>
<path d="M0 13V16C0 17.1046 0.89543 18 2 18H5V17H2C1.44772 17 1 16.5523 1 16V13H0Z" fill="#2D3B45"/>
<path d="M17 13V16C17 16.5523 16.5523 17 16 17H13V18H16C17.1046 18 18 17.1046 18 16V13H17Z" fill="#2D3B45"/>
<path d="M18 5V2C18 0.895431 17.1046 0 16 0H13V1H16C16.5523 1 17 1.44772 17 2V5H18Z" fill="#2D3B45"/>
<path fill-rule="evenodd" clip-rule="evenodd" d="M12 7.37143V10.4571L14.8543 11.925C14.9208 11.9593 15 11.911 15 11.8361V6.15567C15 6.08284 14.9247 6.03444 14.8584 6.06472L12 7.37143ZM13 9.84693L14 10.3612V7.55668L13 8.01382V9.84693Z" fill="#2D3B45"/>
<path fill-rule="evenodd" clip-rule="evenodd" d="M3 6.5C3 6.22386 3.22386 6 3.5 6H10.5C10.7761 6 11 6.22386 11 6.5V11.5C11 11.7761 10.7761 12 10.5 12H3.5C3.22386 12 3 11.7761 3 11.5V6.5ZM4 11V7H10V11H4Z" fill="#2D3B45"/>
<defs>
<clipPath id="clip0_255_470">
<rect width="18" height="18" fill="white"/>
</clipPath>
</defs>
</svg>
