<svg viewBox="0 0 1920 1920" xmlns="http://www.w3.org/2000/svg">
    <path d="M1468.214 0v564.698h-112.94V112.94H112.94v1694.092h1242.334v-225.879h112.94v338.819H0V0h1468.214Zm129.428 581.311c22.137-22.136 57.825-22.136 79.962 0l225.879 225.879c22.023 22.023 22.023 57.712 0 79.848l-677.638 677.637c-10.616 10.504-24.96 16.49-39.98 16.49h-225.88c-31.17 0-56.469-25.299-56.469-56.47v-225.88c0-15.02 5.986-29.364 16.49-39.867Zm-155.291 314.988-425.895 425.895v146.031h146.03l425.895-425.895-146.03-146.03Zm-764.714 346.047v112.94H338.82v-112.94h338.818Zm225.88-225.88v112.94H338.818v-112.94h564.697Zm734.106-315.44-115.424 115.425 146.03 146.03 115.425-115.423-146.031-146.031ZM1129.395 338.83v451.758H338.82V338.83h790.576Zm-112.94 112.94H451.759v225.878h564.698V451.77Z" fill-rule="evenodd"/>
</svg>
