<svg width="12" height="12" viewBox="0 0 12 12" fill="none" xmlns="http://www.w3.org/2000/svg">
<path fill-rule="evenodd" clip-rule="evenodd" d="M5.99999 9.28638C3.82203 9.28638 1.82159 8.02186 0.741877 5.97439C1.82159 3.92692 3.82203 2.6624 5.99999 2.6624C8.17796 2.6624 10.1784 3.92692 11.2581 5.97439C10.1784 8.02186 8.17796 9.28638 5.99999 9.28638ZM11.9271 5.82667C10.754 3.46655 8.48333 2 6 2C3.51667 2 1.24597 3.46655 0.0728638 5.82667L0 5.97439L0.0728638 6.1221C1.24597 8.48223 3.51667 9.94878 6 9.94878C8.48333 9.94878 10.754 8.48223 11.9271 6.1221L12 5.97439L11.9271 5.82667ZM5.99999 7.29918C5.26937 7.29918 4.6752 6.70501 4.6752 5.97438C4.6752 5.24376 5.26937 4.64959 5.99999 4.64959C6.73062 4.64959 7.32479 5.24376 7.32479 5.97438C7.32479 6.70501 6.73062 7.29918 5.99999 7.29918ZM6.00001 3.9872C4.9044 3.9872 4.01281 4.87878 4.01281 5.97439C4.01281 7.07 4.9044 7.96158 6.00001 7.96158C7.09561 7.96158 7.9872 7.07 7.9872 5.97439C7.9872 4.87878 7.09561 3.9872 6.00001 3.9872Z" fill="#2D3B45"/>
</svg>
