<svg width="96" height="119" viewBox="0 0 96 119" fill="none" xmlns="http://www.w3.org/2000/svg">
<path d="M22.657 104.25C33.7317 104.25 42.7096 101.804 42.7096 98.7869C42.7096 95.7698 33.7317 93.324 22.657 93.324C11.5822 93.324 2.60437 95.7698 2.60437 98.7869C2.60437 101.804 11.5822 104.25 22.657 104.25Z" fill="black" fill-opacity="0.05"/>
<path fill-rule="evenodd" clip-rule="evenodd" d="M20.2285 91.0627C21.6282 91.5267 22.3281 93.0345 22.3281 95.5862C22.3281 99.2398 34.7505 99.2398 35.4504 96.1081C36.1502 92.9765 34.2256 86.1913 31.2512 83.9296C29.2683 82.4217 25.5941 84.7995 20.2285 91.0627Z" fill="#28343D" stroke="#152633" stroke-width="2"/>
<path fill-rule="evenodd" clip-rule="evenodd" d="M39.0983 84.7804C37.6986 78.2625 30.8948 80.0885 28.7284 80.5684C28.7663 80.5601 28.8063 80.5547 28.8437 80.5462C30.2826 83.3345 27.9007 89.781 33.6744 90.9631C39.6232 92.1809 39.5729 86.9904 39.0983 84.7804Z" fill="#28343D" stroke="#152633" stroke-width="2"/>
<path fill-rule="evenodd" clip-rule="evenodd" d="M6.09726 84.3904C6.29505 83.86 6.80853 83.4819 7.41081 83.4819C8.01309 83.4819 8.52657 83.86 8.72436 84.3904C9.26106 84.2147 9.8744 84.3745 10.2511 84.8371C10.6324 85.3054 10.6581 85.945 10.3623 86.4328C10.8395 86.7433 11.0958 87.3271 10.96 87.9118C10.8248 88.4941 10.3406 88.9061 9.77774 88.9797C9.83073 89.5403 9.53608 90.1004 8.99698 90.3619C8.45344 90.6255 7.82234 90.5075 7.41081 90.1131C6.99928 90.5075 6.36818 90.6255 5.82464 90.3619C5.28554 90.1004 4.99089 89.5403 5.04388 88.9797C4.48107 88.9061 3.99683 88.4941 3.86163 87.9118C3.72587 87.3271 3.98212 86.7433 4.45929 86.4328C4.16348 85.945 4.18917 85.3054 4.57052 84.8371C4.94722 84.3745 5.56056 84.2147 6.09726 84.3904Z" fill="#28343D" stroke="#152633" stroke-width="2"/>
<path fill-rule="evenodd" clip-rule="evenodd" d="M11.1041 81.3943C7.07995 84.5259 7.25491 89.7453 7.7798 92.8769C8.0836 94.6895 7.58024 96.3118 7.7798 98.7922C8.5721 100.981 19.6773 102.968 23.3516 99.8361C24.2264 96.1826 22.3018 94.9063 23.3516 91.6007C17.2278 87.4252 15.4782 91.4851 11.1041 81.3943Z" fill="#2D3B45"/>
<path d="M7.91507 99.0424C9.41111 101.125 19.8179 102.848 23.3516 99.8362C23.7821 98.0381 23.5346 96.8158 23.2973 95.644C23.0524 94.4349 22.8185 93.2795 23.3516 91.6008C22.7539 91.1933 22.1979 90.8642 21.6771 90.5928C21.1782 92.2259 21.4084 93.3627 21.6491 94.5514C21.8864 95.7232 22.134 96.9455 21.7034 98.7436C18.8243 101.198 11.3824 100.509 7.91507 99.0424Z" fill="#28343D"/>
<path fill-rule="evenodd" clip-rule="evenodd" d="M11.1041 81.3943C7.07995 84.5259 7.25491 89.7453 7.7798 92.8769C8.0836 94.6895 7.58024 96.3118 7.7798 98.7922C8.5721 100.981 19.6773 102.968 23.3516 99.8361C24.2264 96.1826 22.3018 94.9063 23.3516 91.6007C17.2278 87.4252 15.4782 91.4851 11.1041 81.3943Z" stroke="#152633" stroke-width="2" stroke-linejoin="round"/>
<path fill-rule="evenodd" clip-rule="evenodd" d="M25.1012 91.1372C35.774 88.7015 35.1366 76.1814 31.6432 69.4116C29.6503 66.0841 38.3984 69.2158 29.3003 66.4321C20.2022 63.6484 6.20512 80.0025 10.0543 86.4398C13.9035 92.877 20.5521 92.3551 25.1012 91.1372Z" fill="white" stroke="#152633" stroke-width="2" stroke-linejoin="round"/>
<path d="M15.8334 79.1204C17.9987 83.3165 28.744 83.764 31.7656 83.4908C30.3922 87.8612 26.9036 90.5927 20.7779 91.1372C17.4947 91.429 16.1976 91.3912 12.675 89.5289C16.4916 92.639 21.4665 92.1102 25.1012 91.1372C30.4471 89.9171 32.9554 86.167 33.6885 81.8767C30.3922 81.8767 27.9199 81.8519 24.6236 80.7593C21.9485 80.213 13.5276 75.2707 15.8334 79.1204Z" fill="#EDEDED"/>
<path fill-rule="evenodd" clip-rule="evenodd" d="M25.1012 91.1372C35.774 88.7015 35.1366 76.1814 31.6432 69.4116C29.6503 66.0841 38.3984 69.2158 29.3003 66.4321C20.2022 63.6484 6.20512 80.0025 10.0543 86.4398C13.9035 92.877 20.5521 92.3551 25.1012 91.1372Z" stroke="#152633" stroke-width="2" stroke-linejoin="round"/>
<path fill-rule="evenodd" clip-rule="evenodd" d="M6.55695 76.8647C3.93732 85.4575 10.5287 93.3444 15.897 93.5649C21.2648 93.7855 25.1511 89.6456 23.1805 85.0446C21.2094 80.4433 15.8416 80.223 14.8636 79.7419C13.8858 79.2605 12.7475 77.3621 11.4311 75.6317C9.95941 73.6973 7.51973 73.7073 6.55695 76.8647Z" fill="#2D3B45"/>
<path d="M11.0924 91.5453C12.6217 92.7671 14.3126 93.5 15.897 93.565C21.2648 93.7856 25.1511 89.6458 23.1805 85.0447C22.3665 83.1444 20.9731 81.9914 19.5488 81.2585C20.3404 81.9326 21.0416 82.8066 21.5323 83.9521C23.503 88.5532 19.6166 92.693 14.2488 92.4724C13.2172 92.4301 12.1404 92.1046 11.0924 91.5453Z" fill="#28343D"/>
<path fill-rule="evenodd" clip-rule="evenodd" d="M6.55695 76.8647C3.93732 85.4575 10.5287 93.3444 15.897 93.5649C21.2648 93.7855 25.1511 89.6456 23.1805 85.0446C21.2094 80.4433 15.8416 80.223 14.8636 79.7419C13.8858 79.2605 12.7475 77.3621 11.4311 75.6317C9.95941 73.6973 7.51973 73.7073 6.55695 76.8647Z" stroke="#152633" stroke-width="2"/>
<path fill-rule="evenodd" clip-rule="evenodd" d="M54.8017 66.9047C52.716 79.2937 40.3393 84.0402 24.8573 81.4628C9.37541 78.8856 0.421833 70.241 1.02902 58.2128C1.68481 45.2254 17.0716 33.175 32.5537 35.7525C48.0355 38.3299 56.9955 53.8752 54.8017 66.9047Z" fill="white"/>
<path d="M23.7585 79.824C39.2406 82.4015 51.6172 77.6549 53.7029 65.266C54.7506 59.0438 53.2546 52.2479 49.7195 46.5645C54.0354 52.5479 55.9521 60.0723 54.8017 66.9048C52.716 79.2938 40.3393 84.0404 24.8573 81.4629C14.6993 79.772 7.35171 75.469 3.67107 69.3121C7.61756 74.5938 14.5276 78.2874 23.7585 79.824Z" fill="#EDEDED"/>
<path fill-rule="evenodd" clip-rule="evenodd" d="M54.8017 66.9047C52.716 79.2937 40.3393 84.0402 24.8573 81.4628C9.37541 78.8856 0.421833 70.241 1.02902 58.2128C1.68481 45.2254 17.0716 33.175 32.5537 35.7525C48.0355 38.3299 56.9955 53.8752 54.8017 66.9047Z" stroke="#152633" stroke-width="2"/>
<path fill-rule="evenodd" clip-rule="evenodd" d="M28.858 70.1614C28.6694 71.2819 30.3918 72.5027 32.7053 72.8879C35.0185 73.2731 37.0468 72.6768 37.2356 71.5561C37.4242 70.4352 35.7018 69.2146 33.3884 68.8294C31.0751 68.4444 29.0467 69.0407 28.858 70.1614Z" fill="#152633"/>
<path fill-rule="evenodd" clip-rule="evenodd" d="M14.6795 70.4309L14.6795 70.4309C20.1376 71.3397 26.9778 66.2156 28.0912 59.6033C29.336 52.2108 26.2153 44.0346 21.4653 43.2439C19.1009 42.8501 15.9747 44.1544 13.1443 46.7707C10.2803 49.418 8.24164 52.9548 7.69387 56.2077C6.5094 63.2428 9.69295 69.6009 14.6795 70.4309Z" fill="#2D3B45" stroke="#152633" stroke-width="2"/>
<path fill-rule="evenodd" clip-rule="evenodd" d="M23.9554 57.5254C25.0912 58.0744 25.3085 59.9587 24.4408 61.7334C23.5732 63.5086 21.9488 64.502 20.813 63.953C19.6771 63.4038 19.4596 61.52 20.3273 59.745C21.1952 57.9701 22.8195 56.9764 23.9554 57.5254Z" fill="white"/>
<path fill-rule="evenodd" clip-rule="evenodd" d="M39.6941 67.3078C40.86 69.9013 42.4517 71.3909 44.0911 71.7088C44.1203 71.7146 44.1479 71.7197 44.1745 71.7241C45.3563 71.9208 46.9687 71.5685 48.1034 70.7862C50.8726 68.8779 52.322 66.5204 53.0137 62.4118C54.1042 55.9348 49.3092 46.5618 44.6367 45.7838C43.6248 45.6154 42.7441 45.8203 41.9856 46.3946C39.7245 48.1068 38.4255 52.7732 38.134 59.0182C38.0085 61.7006 38.5462 64.7538 39.6941 67.3078Z" fill="#2D3B45" stroke="#152633" stroke-width="2"/>
<path fill-rule="evenodd" clip-rule="evenodd" d="M44.808 63.4285C45.0037 65.0341 44.3297 66.4362 43.3022 66.5601C42.2745 66.6841 41.283 65.483 41.087 63.8774C40.8911 62.2719 41.5654 60.8699 42.5926 60.7459C43.6201 60.6218 44.6121 61.8232 44.808 63.4285Z" fill="white"/>
<path fill-rule="evenodd" clip-rule="evenodd" d="M7.51208 44.0553C6.78531 43.6029 6.02606 43.0007 5.30057 42.1948C2.50984 39.0953 3.8737 34.9305 4.26838 33.8983C4.66284 32.8659 6.81499 27.9541 10.5007 30.9832C12.881 32.9393 15.1696 35.9778 16.493 37.886C13.1234 39.3892 10.0679 41.5048 7.51208 44.0553Z" fill="#2D3B45"/>
<path d="M4.75118 40.5558C5.47667 41.3617 6.23592 41.9639 6.96269 42.4163C9.39863 39.9855 12.2884 37.9497 15.4714 36.4626C15.8536 36.977 16.1973 37.4597 16.493 37.8859C13.1234 39.389 10.0679 41.5047 7.51208 44.0552C6.7853 43.6028 6.02605 43.0006 5.30057 42.1947C4.41487 41.211 3.94765 40.12 3.73509 39.0559C3.98696 39.571 4.31933 40.0761 4.75118 40.5558Z" fill="#28343D"/>
<path fill-rule="evenodd" clip-rule="evenodd" d="M7.51208 44.0553C6.78531 43.6029 6.02606 43.0007 5.30057 42.1948C2.50984 39.0953 3.8737 34.9305 4.26838 33.8983C4.66284 32.8659 6.81499 27.9541 10.5007 30.9832C12.881 32.9393 15.1696 35.9778 16.493 37.886C13.1234 39.3892 10.0679 41.5048 7.51208 44.0553Z" stroke="#152633" stroke-width="2"/>
<path fill-rule="evenodd" clip-rule="evenodd" d="M52.8131 47.9459C52.3059 48.2272 51.8102 48.4413 51.3351 48.603C49.6666 45.8367 47.519 43.323 44.9509 41.2503C46.5786 40.061 49.2702 38.2535 51.7383 37.3328C55.606 35.89 55.9738 40.5043 56.0041 41.4578C56.0345 42.4115 55.9697 46.1949 52.8131 47.9459Z" fill="#2D3B45"/>
<path d="M51.0257 46.9037C51.5008 46.742 51.9966 46.5279 52.5038 46.2466C55.6604 44.4956 55.7251 40.7122 55.6948 39.7585C55.6868 39.5077 55.6555 39.0036 55.5433 38.4231C56.1287 39.5175 56.2289 40.9188 56.2442 41.3974C56.2745 42.3511 56.2098 46.1345 53.0532 47.8855C52.546 48.1668 52.0502 48.3809 51.5751 48.5426C49.9067 45.7763 47.7591 43.2626 45.1909 41.1899C45.418 41.024 45.6658 40.8461 45.9307 40.6602C47.9352 42.4971 49.6446 44.6138 51.0257 46.9037Z" fill="#28343D"/>
<path fill-rule="evenodd" clip-rule="evenodd" d="M52.8131 47.9459C52.3059 48.2272 51.8102 48.4413 51.3351 48.603C49.6666 45.8367 47.519 43.323 44.9509 41.2503C46.5786 40.061 49.2702 38.2535 51.7383 37.3328C55.606 35.89 55.9738 40.5043 56.0041 41.4578C56.0345 42.4115 55.9697 46.1949 52.8131 47.9459Z" stroke="#152633" stroke-width="2"/>
<path fill-rule="evenodd" clip-rule="evenodd" d="M25.4967 73.2947C25.967 74.4439 26.6235 75.217 28.1199 75.5959C28.2188 75.6165 28.3207 75.6355 28.4255 75.6529C28.4236 75.6567 28.4217 75.6604 28.4198 75.6642C29.0802 75.799 29.8895 75.867 30.893 75.867H28.4255C27.8541 76.5975 25.3911 79.3334 24.7513 77.5667C24.2298 76.1267 24.0648 73.7125 24.7513 72.3473C25.0233 71.8063 25.1896 72.4217 25.4967 73.2947Z" fill="#152633" stroke="#152633" stroke-linecap="round" stroke-linejoin="round"/>
<path fill-rule="evenodd" clip-rule="evenodd" d="M48.3258 21.1174L45.2734 22.8518L45.7822 20.0182C41.8699 18.0194 39.4132 15.1341 39.4132 11.9259C39.4132 5.8917 48.1041 1 58.8249 1C69.5456 1 78.2365 5.8917 78.2365 11.9259C78.2365 17.9601 69.5456 22.8518 58.8249 22.8518C54.9566 22.8518 51.3526 22.215 48.3258 21.1174Z" fill="white" stroke="#152633" stroke-width="2"/>
<path fill-rule="evenodd" clip-rule="evenodd" d="M60.5582 7.32935L60.0302 14.0642H57.6481L57.4035 7.32935H60.5582ZM60.1332 16.0359C60.1332 16.2237 60.0968 16.3987 60.0238 16.5609C59.9508 16.7231 59.8532 16.865 59.7309 16.9866C59.6085 17.1083 59.4658 17.2043 59.3027 17.2747C59.1396 17.3451 58.9658 17.3803 58.7812 17.3803C58.5924 17.3803 58.4164 17.3451 58.2533 17.2747C58.0902 17.2043 57.9475 17.1083 57.8252 16.9866C57.7029 16.865 57.6063 16.7231 57.5355 16.5609C57.4646 16.3987 57.4292 16.2237 57.4292 16.0359C57.4292 15.8524 57.4646 15.6774 57.5355 15.511C57.6063 15.3445 57.7029 15.2005 57.8252 15.0789C57.9475 14.9572 58.0902 14.8601 58.2533 14.7876C58.4164 14.715 58.5924 14.6787 58.7812 14.6787C58.9658 14.6787 59.1396 14.715 59.3027 14.7876C59.4658 14.8601 59.6085 14.9572 59.7309 15.0789C59.8532 15.2005 59.9508 15.3445 60.0238 15.511C60.0968 15.6774 60.1332 15.8524 60.1332 16.0359Z" fill="#152633"/>
<path d="M81.9907 119C89.7278 119 96 117.655 96 115.995C96 114.336 89.7278 112.991 81.9907 112.991C74.2535 112.991 67.9813 114.336 67.9813 115.995C67.9813 117.655 74.2535 119 81.9907 119Z" fill="black" fill-opacity="0.05"/>
<path d="M73.3119 106.928C72.3515 103.989 73.0628 101.999 75.4459 100.958" stroke="#152633" stroke-width="2" stroke-linecap="round"/>
<path fill-rule="evenodd" clip-rule="evenodd" d="M80.4764 113.148C76.2906 112.108 74.3208 112.108 74.5054 107.517C74.6359 104.273 70.7505 104.334 70.2581 108.007C69.7656 111.679 71.1814 117.923 85.7702 116.209C95.3729 114.74 91.1871 112.781 87.7399 112.903C84.2928 113.026 80.4764 113.148 80.4764 113.148Z" fill="#01B9A3" stroke="#152633" stroke-width="2"/>
<path fill-rule="evenodd" clip-rule="evenodd" d="M81.976 114.356C82.6308 117.923 87.9862 117.923 91.1255 111.618C94.4216 104.999 89.2173 90.8681 80.8457 100.294C72.4741 109.721 78.0757 116.76 83.8004 113.699" fill="#FFE79B"/>
<path d="M81.976 114.356C82.6308 117.923 87.9862 117.923 91.1255 111.618C94.4216 104.999 89.2173 90.8681 80.8457 100.294C72.4741 109.721 78.0757 116.76 83.8004 113.699C89.5251 110.639 88.9711 102.314 84.5391 101.763C80.107 101.213 77.1524 109.231 81.9537 110.394C81.9537 110.394 85.3393 111.067 82.9386 105.375" stroke="#152633" stroke-width="2" stroke-linecap="round"/>
<path d="M72.1017 106.845C69.9042 104.66 69.6295 102.566 71.2776 100.562" stroke="#152633" stroke-width="2" stroke-linecap="round"/>
</svg>
