<svg width="162" height="168" viewBox="0 0 162 168" fill="none" xmlns="http://www.w3.org/2000/svg">
<path d="M81 166C125.183 166 161 160.627 161 154C161 150.245 149.502 146.893 131.5 144.693H30.5C12.4976 146.893 1 150.245 1 154C1 160.627 36.8172 166 81 166Z" fill="#152633" stroke="#152633" stroke-width="2"/>
<path d="M36.453 164.068C34.5193 161.124 32.972 157.818 31.846 154.164C24.7183 131.032 43.8091 100.213 72.3782 94.9201C100.947 89.6274 126.428 111.146 130.907 135.326C131.489 138.467 131.646 141.48 131.411 144.355L131.371 144.801C130.648 152.291 127.246 158.832 121.744 164.239C94.499 167.5 54.499 166 36.453 164.068Z" fill="white"/>
<path d="M81.3164 166.147C95.29 166.187 109.752 165.674 121.744 164.239C127.245 158.832 130.648 152.291 131.37 144.801L131.41 144.355C131.646 141.48 131.489 138.467 130.907 135.326C126.811 113.215 105.152 93.329 79.6309 94.1353C103.833 94.9006 123.972 114.087 127.907 135.326C128.489 138.467 128.646 141.48 128.41 144.355L128.37 144.801C127.648 152.291 124.245 158.832 118.744 164.239C107.608 165.572 94.3429 166.109 81.3164 166.147Z" fill="#EDEDED"/>
<path d="M36.453 164.068C34.5193 161.124 32.972 157.818 31.846 154.164C24.7183 131.032 43.8091 100.213 72.3782 94.9201C100.947 89.6274 126.428 111.146 130.907 135.326C131.489 138.467 131.646 141.48 131.411 144.355L131.371 144.801C130.648 152.291 127.246 158.832 121.744 164.239C94.499 167.5 54.499 166 36.453 164.068Z" stroke="#152633" stroke-width="2"/>
<path fill-rule="evenodd" clip-rule="evenodd" d="M87.8581 157.447C87.4727 155.367 90.6212 153.04 94.8898 152.249C99.1589 151.458 102.932 152.503 103.317 154.583C103.702 156.663 100.554 158.99 96.2855 159.78C92.0164 160.571 88.2434 159.526 87.8581 157.447Z" fill="#152633"/>
<path fill-rule="evenodd" clip-rule="evenodd" d="M67.9467 165.5C76.0076 161.267 82.0067 150.051 80.0667 139.579C77.524 125.852 66.8842 113.519 58.1075 115.145C53.7384 115.954 49.1274 120.218 45.8679 126.59C42.5702 133.037 41.2754 140.518 42.3943 146.558C43.9551 154.983 48.4989 161.765 54 165.061C59 165.5 63.5 166 67.9467 165.5Z" fill="#2D3B45" stroke="#152633" stroke-width="2"/>
<path fill-rule="evenodd" clip-rule="evenodd" d="M71.2855 138.448C73.6107 138.689 75.1881 141.847 74.8089 145.501C74.4299 149.155 72.2371 151.921 69.912 151.68C67.5867 151.438 66.0092 148.281 66.3883 144.627C66.7678 140.973 68.9604 138.207 71.2855 138.448Z" fill="white"/>
<path fill-rule="evenodd" clip-rule="evenodd" d="M104.877 145.607C108.559 149.409 112.281 151.009 115.341 150.526C115.395 150.518 115.447 150.509 115.496 150.5C117.681 150.095 120.265 148.456 121.743 146.365C125.348 141.271 126.369 136.225 124.955 128.596C122.727 116.568 108.412 103.202 99.7792 104.801C97.9076 105.147 96.502 106.066 95.5458 107.555C92.6996 111.987 93.4113 120.975 96.8815 132.088C98.3717 136.862 101.252 141.864 104.877 145.607Z" fill="#2D3B45" stroke="#152633" stroke-width="2"/>
<path fill-rule="evenodd" clip-rule="evenodd" d="M111.314 135.572C112.676 138.257 112.397 141.136 110.688 142.003C108.98 142.871 106.491 141.397 105.128 138.713C103.765 136.029 104.045 133.15 105.753 132.282C107.461 131.415 109.951 132.888 111.314 135.572Z" fill="white"/>
<path fill-rule="evenodd" clip-rule="evenodd" d="M34.1099 125.296C32.5578 124.965 30.8538 124.392 29.0789 123.442C22.2516 119.787 21.9723 111.638 22.0017 109.583C22.0305 107.528 22.6467 97.5736 30.9858 100.539C36.3713 102.453 42.2862 106.319 45.8029 108.819C40.8992 113.582 36.9316 119.217 34.1099 125.296Z" fill="#2D3B45"/>
<path d="M27.0783 119.442C28.8532 120.392 30.5572 120.965 32.1093 121.296C34.6248 115.876 38.0509 110.81 42.2392 106.4C43.5791 107.267 44.79 108.1 45.8023 108.819C40.8986 113.582 36.931 119.217 34.1093 125.296C32.5572 124.965 30.8532 124.392 29.0783 123.442C25.6259 121.593 23.8479 118.596 22.9375 115.819C23.9407 117.209 25.2831 118.481 27.0783 119.442Z" fill="#28343D"/>
<path fill-rule="evenodd" clip-rule="evenodd" d="M34.1099 125.296C32.5578 124.965 30.8538 124.392 29.0789 123.442C22.2516 119.787 21.9723 111.638 22.0017 109.583C22.0305 107.528 22.6467 97.5736 30.9858 100.539C36.3713 102.453 42.2862 106.319 45.8029 108.819C40.8992 113.582 36.9316 119.217 34.1099 125.296Z" stroke="#152633" stroke-width="2"/>
<path fill-rule="evenodd" clip-rule="evenodd" d="M114.803 103.513C114.1 104.326 113.374 105.015 112.65 105.598C107.987 101.816 102.652 98.7785 96.8652 96.7789C98.9392 93.668 102.47 88.8025 106.177 85.6296C111.985 80.6574 115.563 88.4958 116.222 90.1444C116.882 91.7933 119.178 98.4521 114.803 103.513Z" fill="#2D3B45"/>
<path d="M111.65 101.598C112.374 101.014 113.1 100.326 113.803 99.5131C116.354 96.5618 116.637 93.0671 116.299 90.3394C117.037 92.2658 119.022 98.6324 114.803 103.513C114.1 104.326 113.374 105.014 112.65 105.598C107.987 101.816 102.652 98.7784 96.8652 96.7788C97.4294 95.9326 98.1013 94.9566 98.8552 93.9202C103.495 95.8623 107.802 98.4764 111.65 101.598Z" fill="#28343D"/>
<path fill-rule="evenodd" clip-rule="evenodd" d="M114.803 103.513C114.1 104.326 113.374 105.015 112.65 105.598C107.987 101.816 102.652 98.7785 96.8652 96.7789C98.9392 93.668 102.47 88.8025 106.177 85.6296C111.985 80.6574 115.563 88.4958 116.222 90.1444C116.882 91.7933 119.178 98.4521 114.803 103.513Z" stroke="#152633" stroke-width="2"/>
<ellipse cx="50" cy="23.5" rx="40" ry="22.5" fill="white" stroke="#152633" stroke-width="2"/>
<path d="M41.3203 11.92C45.4376 11.4934 49.2776 11.28 52.8403 11.28C54.931 11.28 56.467 11.7707 57.4483 12.752C58.4296 13.7334 58.9203 15.2694 58.9203 17.36V18.8C58.9203 20.4 58.6003 21.616 57.9603 22.448C57.3203 23.3014 56.2003 24.0054 54.6003 24.56L51.4003 25.68V27.28H45.6403V22.8L53.1603 20.08V17.36C53.1603 16.8694 53.011 16.4854 52.7123 16.208C52.435 15.9094 51.9443 15.76 51.2403 15.76C49.9603 15.76 48.2963 15.824 46.2483 15.952C44.2216 16.08 42.579 16.176 41.3203 16.24V11.92ZM45.6403 29.2H51.4003V34H45.6403V29.2Z" fill="#152633"/>
<ellipse cx="27" cy="58" rx="7" ry="4" fill="white" stroke="#152633" stroke-width="2"/>
<ellipse cx="34" cy="73" rx="5" ry="3" fill="white" stroke="#152633" stroke-width="2"/>
<ellipse cx="46" cy="82.5" rx="4" ry="2.5" fill="white" stroke="#152633" stroke-width="2"/>
</svg>
