<svg width="74" height="78" viewBox="0 0 74 78" fill="none" xmlns="http://www.w3.org/2000/svg">
<path fill-rule="evenodd" clip-rule="evenodd" d="M59.5005 76.8782C58.2715 76.8782 57.0645 76.2882 56.3255 75.1932L32.1625 39.4322L7.9995 75.1932C6.8165 76.9442 4.4375 77.4052 2.6865 76.2222C0.935499 75.0392 0.474499 72.6602 1.6575 70.9082L32.1625 25.7612L62.6675 70.9082C63.8515 72.6602 63.3905 75.0392 61.6395 76.2222C60.9815 76.6662 60.2365 76.8782 59.5005 76.8782" fill="#C0C6CB"/>
<mask id="maskOut0" mask-type="alpha" maskUnits="userSpaceOnUse" x="0" y="23" width="65" height="55">
<path fill-rule="evenodd" clip-rule="evenodd" d="M0.000244141 23.9761H64.3251V77.8796H0.000244141V23.9761Z" fill="white"/>
</mask>
<g mask="url(#maskOut0)">
<path fill-rule="evenodd" clip-rule="evenodd" d="M32.1627 27.5481L2.4857 71.4691C2.0627 72.0941 1.9097 72.8471 2.0537 73.5891C2.1967 74.3301 2.6207 74.9711 3.2457 75.3941C3.8717 75.8171 4.6277 75.9701 5.3657 75.8271C6.1067 75.6831 6.7487 75.2591 7.1707 74.6341L32.1627 37.6471L57.1537 74.6341C57.9967 75.8801 59.8257 76.2431 61.0797 75.3941C61.7047 74.9711 62.1287 74.3301 62.2717 73.5891C62.4157 72.8471 62.2627 72.0941 61.8397 71.4691L32.1627 27.5481ZM4.8177 77.8801C3.8647 77.8801 2.9337 77.5961 2.1267 77.0511C1.0587 76.3291 0.334698 75.2351 0.0896983 73.9691C-0.155302 72.7031 0.106698 71.4171 0.829698 70.3491L32.1627 23.9761L63.4957 70.3491C64.2187 71.4171 64.4807 72.7031 64.2357 73.9691C63.9907 75.2351 63.2667 76.3291 62.1987 77.0511C61.3967 77.5921 60.4647 77.8791 59.5007 77.8791C57.8917 77.8791 56.3957 77.0841 55.4967 75.7541L32.1627 41.2191L8.8277 75.7541C8.1067 76.8221 7.0127 77.5451 5.7457 77.7901C5.4367 77.8501 5.1267 77.8801 4.8177 77.8801V77.8801Z" fill="#243038"/>
</g>
<path fill-rule="evenodd" clip-rule="evenodd" d="M59.4966 41.3438C59.4966 56.4398 47.2586 68.6778 32.1626 68.6778C17.0666 68.6778 4.8286 56.4398 4.8286 41.3438C4.8286 26.2478 17.0666 14.0098 32.1626 14.0098C47.2586 14.0098 59.4966 26.2478 59.4966 41.3438" fill="white"/>
<path fill-rule="evenodd" clip-rule="evenodd" d="M32.1627 15.0098C17.6417 15.0098 5.8287 26.8228 5.8287 41.3438C5.8287 55.8638 17.6417 67.6778 32.1627 67.6778C46.6837 67.6778 58.4967 55.8638 58.4967 41.3438C58.4967 26.8228 46.6837 15.0098 32.1627 15.0098M32.1627 69.6778C16.5397 69.6778 3.8287 56.9678 3.8287 41.3438C3.8287 25.7198 16.5397 13.0098 32.1627 13.0098C47.7857 13.0098 60.4967 25.7198 60.4967 41.3438C60.4967 56.9678 47.7857 69.6778 32.1627 69.6778" fill="#243038"/>
<path fill-rule="evenodd" clip-rule="evenodd" d="M52.3902 41.3437C52.3902 52.5147 43.3332 61.5707 32.1622 61.5707C20.9922 61.5707 11.9352 52.5147 11.9352 41.3437C11.9352 30.1727 20.9922 21.1167 32.1622 21.1167C43.3332 21.1167 52.3902 30.1727 52.3902 41.3437" fill="#F1070F"/>
<path fill-rule="evenodd" clip-rule="evenodd" d="M32.1627 22.1167C21.5597 22.1167 12.9347 30.7417 12.9347 41.3437C12.9347 51.9457 21.5597 60.5707 32.1627 60.5707C42.7657 60.5707 51.3907 51.9457 51.3907 41.3437C51.3907 30.7417 42.7657 22.1167 32.1627 22.1167M32.1627 62.5707C20.4577 62.5707 10.9347 53.0487 10.9347 41.3437C10.9347 29.6387 20.4577 20.1167 32.1627 20.1167C43.8677 20.1167 53.3907 29.6387 53.3907 41.3437C53.3907 53.0487 43.8677 62.5707 32.1627 62.5707" fill="#243038"/>
<path fill-rule="evenodd" clip-rule="evenodd" d="M45.2828 41.3436C45.2828 48.5896 39.4088 54.4646 32.1628 54.4646C24.9168 54.4646 19.0428 48.5896 19.0428 41.3436C19.0428 34.0976 24.9168 28.2236 32.1628 28.2236C39.4088 28.2236 45.2828 34.0976 45.2828 41.3436" fill="white"/>
<path fill-rule="evenodd" clip-rule="evenodd" d="M32.1627 29.2236C25.4797 29.2236 20.0427 34.6606 20.0427 41.3436C20.0427 48.0266 25.4797 53.4646 32.1627 53.4646C38.8457 53.4646 44.2827 48.0266 44.2827 41.3436C44.2827 34.6606 38.8457 29.2236 32.1627 29.2236M32.1627 55.4646C24.3767 55.4646 18.0427 49.1296 18.0427 41.3436C18.0427 33.5576 24.3767 27.2236 32.1627 27.2236C39.9487 27.2236 46.2827 33.5576 46.2827 41.3436C46.2827 49.1296 39.9487 55.4646 32.1627 55.4646" fill="#243038"/>
<path fill-rule="evenodd" clip-rule="evenodd" d="M38.7232 41.3437C38.7232 44.9667 35.7852 47.9047 32.1622 47.9047C28.5392 47.9047 25.6022 44.9667 25.6022 41.3437C25.6022 37.7207 28.5392 34.7837 32.1622 34.7837C35.7852 34.7837 38.7232 37.7207 38.7232 41.3437" fill="#F1070F"/>
<path fill-rule="evenodd" clip-rule="evenodd" d="M32.1627 35.7837C29.0967 35.7837 26.6017 38.2777 26.6017 41.3437C26.6017 44.4097 29.0967 46.9047 32.1627 46.9047C35.2287 46.9047 37.7237 44.4097 37.7237 41.3437C37.7237 38.2777 35.2287 35.7837 32.1627 35.7837M32.1627 48.9047C27.9937 48.9047 24.6017 45.5127 24.6017 41.3437C24.6017 37.1757 27.9937 33.7837 32.1627 33.7837C36.3317 33.7837 39.7237 37.1757 39.7237 41.3437C39.7237 45.5127 36.3317 48.9047 32.1627 48.9047" fill="#243038"/>
<path fill-rule="evenodd" clip-rule="evenodd" d="M64.3736 4.24219L49.7546 18.8622L41.2326 10.3402V32.6652H63.5586L55.0356 24.1432L69.6556 9.52419L64.3736 4.24219Z" fill="#243038"/>
<path fill-rule="evenodd" clip-rule="evenodd" d="M64.3736 0L62.2526 2.121L49.7546 14.619L43.3536 8.219L38.2326 3.098V10.34V32.665V35.665H41.2326H63.5576H70.8006L65.6796 30.544L59.2786 24.144L71.7766 11.646L73.8976 9.524L71.7766 7.403L66.4946 2.121L64.3736 0ZM64.3736 4.242L69.6556 9.524L55.0356 24.144L63.5576 32.665H41.2326V10.34L49.7546 18.862L64.3736 4.242Z" fill="white"/>
</svg>
