<svg id="star" width="12" height="12" viewBox="0 0 12 12" fill="none" xmlns="http://www.w3.org/2000/svg">
<path fill-rule="evenodd" clip-rule="evenodd" d="M11.9744 4.54412C11.9059 4.32464 11.7118 4.17684 11.4909 4.17684H7.66571L6.48408 0.368023V0.367284C6.4149 0.1478 6.22078 0 5.99985 0C5.77961 0 5.58479 0.1478 5.51632 0.368023L4.33398 4.17684H0.508838C0.287898 4.17684 0.0937825 4.32464 0.0253125 4.54412C-0.0431574 4.7636 0.0302537 5.00304 0.209546 5.13976L3.30481 7.49421L2.12247 11.3038C2.054 11.524 2.12953 11.7634 2.30882 11.8987C2.39776 11.9659 2.50223 11.9999 2.6067 11.9999C2.71117 11.9999 2.81564 11.9659 2.90529 11.8979L5.99985 9.5442L9.0937 11.8979C9.27229 12.0339 9.51299 12.0339 9.69158 11.8987C9.87087 11.7634 9.94569 11.524 9.87722 11.303L8.69488 7.49421L11.7909 5.13976C11.9694 5.00304 12.0436 4.7636 11.9744 4.54412Z" />
</svg>
