<svg aria-hidden="true" id="Layer_1" xmlns="http://www.w3.org/2000/svg" viewBox="0 0 354 200.6">
  <style>
    .st1{fill:#fddfbb;stroke:#243038;stroke-width:2;stroke-miterlimit:10}.st2{fill:#243038}.st11,.st4,.st5,.st6,.st7,.st8,.st9{stroke:#243038;stroke-width:2;stroke-miterlimit:10}.st4{stroke-linecap:round;fill:none}.st11,.st5,.st6,.st7,.st8,.st9{fill:#d3b3ab}.st11,.st6,.st7,.st8,.st9{fill:none}.st11,.st7,.st8,.st9{fill:#526573}.st11,.st8,.st9{fill:#fbb5b7}.st11,.st9{fill:#e8d4b6}.st11{fill:#f2f3f5}.st12{fill:#b2bac1}.st13{fill:#f55157;stroke:#243038;stroke-width:2;stroke-miterlimit:10}
  </style>
  <title>
    Closed-Discussions-400x250
  </title>
  <path d="M223 167.6c-19.3 0-35 9.9-35 22v10h70v-10c0-12.1-15.7-22-35-22z" fill="#fff" stroke="#243038" stroke-width="2" stroke-miterlimit="10"/>
  <path class="st1" d="M230 172.6l-7 11-7-11v-18h14zM202 135.9h42c2.8 0 5 2.2 5 5v.1c0 2.8-2.2 5-5 5h-42c-2.8 0-5-2.2-5-5v-.1c0-2.7 2.2-5 5-5z"/>
  <path class="st1" d="M202.7 145.4c0 11.2 9.1 20.3 20.3 20.3 11.2 0 20.3-9.1 20.3-20.3v-8.8c0-11.2-9.1-20.3-20.3-20.3s-20.3 9.1-20.3 20.3v8.8z"/>
  <circle class="st2" cx="214.2" cy="140" r="3.4"/>
  <circle class="st2" cx="231.8" cy="140" r="3.4"/>
  <path d="M223 150.3c1.5 0 2.7-1.2 2.7-2.7h-5.4c0 1.5 1.2 2.7 2.7 2.7z" fill="#f7931e"/>
  <path class="st4" d="M218.2 156.1c2.1 2.6 5.9 3.1 8.5 1 .4-.3.7-.6 1-1"/>
  <path class="st5" d="M239 120.7h3.9v15.1H239z"/>
  <path class="st5" d="M202.7 136.6v-19.5c0-2.2 1.8-4 4-4H249c0 11.5-6.7 14-13.8 14-4.3 0-13.9-1-20.7-1.7-3.8-.4-7.3 2.4-7.7 6.2v5h-4.1z"/>
  <path class="st6" d="M209.2 169.4l-1.6 2.9c-.8 1.5-.8 3.2-.1 4.7l7.1 13.7c.5 1 1.7 1.4 2.7.9.2-.1.4-.3.6-.4l5.1-5.6M236.8 169.4l1.6 2.9c.8 1.5.8 3.2.1 4.7l-7.1 13.7c-.5 1-1.7 1.4-2.7.9-.2-.1-.4-.3-.6-.4l-5.1-5.6"/>
  <circle class="st2" cx="223" cy="194.1" r="2"/>
  <path class="st6" d="M236 199.6v-5.5h12v5.5"/>
  <circle class="st7" cx="129" cy="84.3" r="13.6"/>
  <circle class="st8" cx="129" cy="94.9" r="12"/>
  <path class="st8" d="M129 143.6c-19.3 0-32 9.9-32 22v10h64v-10c0-12.2-12.7-22-32-22z"/>
  <path class="st9" d="M143.9 145.7c-2.6-.8-5.2-1.3-7.9-1.7v-6.4c0-3.9-3.1-7-7-7s-7 3.1-7 7v6.4c-2.7.3-5.3.9-7.9 1.6-.1.6-.1 1.3-.1 1.9 0 8.3 15 19 15 19s15-10.7 15-19c0-.6 0-1.2-.1-1.8zM108 109.9h42c2.8 0 5 2.2 5 5v.1c0 2.8-2.2 5-5 5h-42c-2.8 0-5-2.2-5-5v-.1c0-2.8 2.2-5 5-5z"/>
  <path class="st9" d="M108.7 119.3c0 11.2 9.1 20.3 20.3 20.3s20.3-9.1 20.3-20.3v-8.8c0-11.2-9.1-20.3-20.3-20.3s-20.3 9.1-20.3 20.3v8.8z"/>
  <path class="st7" d="M129 87.6c12 0 21.9 9.5 22.3 21.5-7-1.4-16.5-5.1-16.5-15.1 0 8.5-16.9 15.9-28 15.9-.1-12.3 9.9-22.3 22.2-22.3z"/>
  <circle class="st2" cx="120.2" cy="113.9" r="3.4"/>
  <circle class="st2" cx="137.8" cy="113.9" r="3.4"/>
  <path d="M129 124.2c1.5 0 2.7-1.2 2.7-2.7h-5.4c0 1.5 1.2 2.7 2.7 2.7z" fill="#c49449"/>
  <path class="st4" d="M124.2 130c2 2.6 5.8 3.1 8.4 1.1.4-.3.8-.7 1.1-1.1"/>
  <path class="st11" d="M223 101h16l-6 20 33-20h87V40H223z"/>
  <path class="st12" d="M233 63h100v5H233zM233 73h110v5H233zM233 83h92v5h-92z"/>
  <path class="st11" d="M131 79h-16l6 20-33-20H1V18h130z"/>
  <path class="st12" d="M11 41h100v5H11zM11 51h110v5H11zM11 61h92v5H11z"/>
  <path class="st13" d="M12 14h24v19H12z"/>
  <path class="st6" d="M17 14V8c0-3.9 3.1-7 7-7s7 3.1 7 7v6M12 20.5h24M12 26.5h24"/>
  <path class="st13" d="M234 36h24v19h-24z"/>
  <path class="st6" d="M239 36v-6c0-3.9 3.1-7 7-7s7 3.1 7 7v6M234 42.5h24M234 48.5h24"/>
</svg>
