<svg id="Layer_1" xmlns="http://www.w3.org/2000/svg" viewBox="0 0 234 112" enable-background="new 0 0 234 112">
  <style>
    .st0{fill:#fefefe}.st1{fill:#3f5463}.st3{fill:#3094d1}.st5{fill:#87c987}.st8{fill:#b74799}.st9{fill:#ec1d24}.st10{fill:#da9dc6}
  </style>
  <path id="Fill-1" class="st0" d="M63.4 30.2h33.1c1.9 0 3.8 1.4 5.2 3.5l15.6 27.1c.7 1.2-.7 3.5-3.5 3.5H97.1l2.9 5.2c.7 1.2-.7 3.5-3.5 3.5l-30.3.4c-1.9 0-5-1.7-6.1-3.5l-16.6-28c-.8-1.5.2-3.5 3.5-3.5l15.6-.2-2.6-4.6c-.8-1.5.1-3.4 3.4-3.4"/>
  <path id="Fill-24" class="st1" d="M66.7 47l-5.1-8.8H51.5l5.2 8.8z"/>
  <path id="Fill-27" class="st1" d="M91.8 38.2l5.1 8.8h10l-5.1-8.8h-10l-5.1-8.8h-10l5.1 8.8z"/>
  <path id="Fill-33" class="st1" d="M96.8 46.9H86.7l5.2 8.8h-9.8l5.1 8.8h10l-5.1-8.8h9.8z"/>
  <path id="Fill-36" class="st1" d="M81.8 55.7l-5.1-8.8H66.6l5.2 8.8H62l5.1 8.9h10.1L72 55.7z"/>
  <path id="Fill-39" class="st1" d="M56.5 46.9H45.6l5.1 8.8h11z"/>
  <path id="Fill-42" class="st1" d="M112.2 55.7h-10l5.1 8.9h10.1z"/>
  <path id="Fill-45" class="st1" d="M77.1 64.4l5.2 8.9h10l-5.2-8.9z"/>
  <path id="Fill-48" class="st1" d="M55.6 64.4l5.5 9.3h11.4L67 64.4z"/>
  <path id="Fill-52" class="st1" d="M64.3 27.3c-3 0-5.5 1.2-6.8 3.4-1 1.7-.8 4.1-1.1 4h-7.9c-3 0-6.4 1.2-7.7 3.4-1.1 1.8-1.1 4.1 0 6v.2l15.6 26.4c1.7 2.9 6 5.3 9.3 5.3h29.8c2.9 0 6-.9 7.3-3.2 1-1.7 1.4-2.9.6-4.5h15.9c0 .1-2-1.4-.6-3.6 1.1-1.9-1.5-4-2.5-5.8l-14.8-26-.1-.2-.1-.1c-2.2-3.2-2.6-5.2-3.3-5.2l-33.6-.1zm-.9 2.9h33.1c1.9 0 3.8 1.4 5.2 3.5l15.6 27.1c.7 1.2-.7 3.5-3.5 3.5H97.1l2.9 5.2c.7 1.2-.7 3.5-3.5 3.5l-30.3.4c-1.9 0-5-1.7-6.1-3.5l-16.6-28c-.8-1.5.2-3.5 3.5-3.5l15.6-.2-2.6-4.6c-.8-1.5.1-3.4 3.4-3.4z"/>
  <path id="Fill-54" class="st1" d="M143.7 111.1c-.6 0-1.2-.3-1.5-.9L96.5 29.8c-.5-.8-.2-1.9.7-2.4 1.1 0 1.9-.2 2.4.7l45.8 80.4c.5.8.2 1.9-.7 2.4-.4.2-.7.2-1 .2"/>
  <path id="Fill-56" class="st0" d="M63.4 30.2h33.1c1.9 0 3.8 1.4 5.2 3.5l15.6 27.1c.7 1.2-.7 3.5-3.5 3.5H97.1l2.9 5.2c.7 1.2-.7 3.5-3.5 3.5l-30.3.4c-1.9 0-5-1.7-6.1-3.5l-16.6-28c-.8-1.5.2-3.5 3.5-3.5l15.6-.2-2.6-4.6c-.8-1.5.1-3.4 3.4-3.4"/>
  <path id="Fill-80" class="st1" d="M66.7 47l-5.1-8.8H51.5l5.2 8.8z"/>
  <path id="Fill-83" class="st1" d="M91.8 38.2l5.1 8.8h10l-5.1-8.8h-10l-5.1-8.8h-10l5.1 8.8z"/>
  <path id="Fill-86" class="st1" d="M71.6 38.2l5.2 8.8h10l-5.2-8.8h-9.9l-5.1-8.8h-7.3l-1.2 2.5 3.6 6.3z"/>
  <path id="Fill-89" class="st1" d="M96.8 46.9H86.7l5.2 8.8h-9.8l5.1 8.8h10l-5.1-8.8h9.8z"/>
  <path id="Fill-92" class="st1" d="M81.8 55.7l-5.1-8.8H66.6l5.2 8.8H62l5.1 8.9h10.1L72 55.7z"/>
  <path id="Fill-95" class="st1" d="M56.5 46.9H45.6l5.1 8.8h11z"/>
  <path id="Fill-98" class="st1" d="M112.2 55.7h-10l5.1 8.9h10.1z"/>
  <path id="Fill-101" class="st1" d="M77.1 64.4l5.2 8.9h10l-5.2-8.9z"/>
  <path id="Fill-104" class="st1" d="M55.6 64.4l5.5 9.3h11.4L67 64.4z"/>
  <path id="Fill-110" class="st1" d="M143.7 111.1c-.6 0-1.2-.3-1.5-.9L96.5 29.8c-.5-.8-.2-1.9.7-2.4 1 0 1.9-.2 2.4.7l45.8 80.4c.5.8.2 1.9-.7 2.4-.4.2-.7.2-1 .2"/>
  <path id="Fill-112" class="st0" d="M177.1 30.2H144c-1.9 0-3.8 1.4-5.2 3.5l-15.6 27.1c-.7 1.2.7 3.5 3.5 3.5h16.7l-2.9 5.2c-.7 1.2.7 3.5 3.5 3.5l30.3.4c1.9 0 5-1.7 6.1-3.5l16.6-28c.8-1.5-.2-3.5-3.5-3.5l-15.6-.2 2.6-4.6c.8-1.5-.1-3.4-3.4-3.4"/>
  <path id="Fill-136" class="st1" d="M173.8 47l5.1-8.8h10l-5.1 8.8z"/>
  <path id="Fill-139" class="st1" d="M148.7 38.2l-5.1 8.8h-10l5.1-8.8h9.9l5.1-8.8h10.1l-5.2 8.8z"/>
  <path id="Fill-142" class="st1" d="M168.8 38.2l-5.1 8.8h-10l5.1-8.8h9.9l5.1-8.8h6.9l1.4 3-3.4 5.8z"/>
  <path id="Fill-145" class="st1" d="M143.7 46.9h10l-5.1 8.8h9.8l-5.2 8.8h-10l5.2-8.8h-9.8z"/>
  <path id="Fill-148" class="st1" d="M158.6 55.7l5.2-8.8h10l-5.1 8.8h9.8l-5.2 8.9h-10l5.1-8.9z"/>
  <path id="Fill-151" class="st1" d="M183.9 46.9h11l-5.2 8.8h-10.9z"/>
  <path id="Fill-154" class="st1" d="M128.2 55.7h10.1l-5.2 8.9h-10z"/>
  <path id="Fill-157" class="st1" d="M163.3 64.4l-5.1 8.9h-10l5.1-8.9z"/>
  <path id="Fill-160" class="st1" d="M184.9 64.4l-5.5 9.3H168l5.4-9.3z"/>
  <path id="Fill-164" class="st1" d="M176.1 27.3l-33.6-.1c-.7 0-1.1 1.9-3.3 5.2l-.1.1-.1.2-14.8 26c-1 1.7-3.5 3.9-2.5 5.8 1.3 2.3-.6 3.7-.6 3.6H137c-.8 1.7-.4 2.8.6 4.5 1.3 2.3 4.4 3.2 7.3 3.2h29.8c3.3 0 7.6-2.4 9.3-5.3l15.6-26.4V44c1-1.9 1.1-4.1 0-6-1.3-2.1-4.6-3.4-7.7-3.4H184c-.3 0-.1-2.3-1.1-4-1.3-2.1-3.7-3.3-6.8-3.3m1 2.9c3.3 0 4.2 1.9 3.4 3.4l-2.6 4.6 15.6.2c3.3 0 4.3 2 3.5 3.5l-16.6 28c-1.1 1.8-4.2 3.5-6.1 3.5L144 73c-2.8 0-4.2-2.3-3.5-3.5l2.9-5.2h-16.7c-2.8 0-4.2-2.3-3.5-3.5l15.6-27.1c1.4-2.1 3.3-3.5 5.2-3.5h33.1"/>
  <path id="Fill-166" class="st1" d="M96.7 111.1c.6 0 1.2-.3 1.5-.9L144 29.8c.5-.8.2-2.1-.7-2.6-1.4 0-1.9 0-2.4.9l-45.8 80.4c-.5.8-.2 1.9.7 2.4.3.2.6.2.9.2"/>
  <path id="Fill-168" fill="#fce5e6" d="M23.8 41.9l4.1-2-3.9-2.6-4.1 2z"/>
  <path id="Fill-170" class="st3" d="M4.7 49l2.5-3.8-4.6-.3L0 48.7z"/>
  <path id="Fill-172" fill="#f1d6e7" d="M36.9 21.7l1.1-4.4-5.6 1.1-1 4.4z"/>
  <path id="Fill-174" class="st5" d="M16.3 21.8l-1.1-3.3-2.4 2.7 1.1 3.3z"/>
  <path id="Fill-176" fill="#f38286" d="M118 36.7l4.5.6-1.7-4.3-4.6-.6z"/>
  <path id="Fill-178" fill="#cbe9f9" d="M103.7 18.5l4.2-1.8-3.7-2.8-4.2 1.7z"/>
  <path id="Fill-180" class="st8" d="M126.6 11l3.3-3.1-5.2-2.2-3.4 3.1z"/>
  <path id="Fill-182" class="st8" d="M32.8 58.2l4.5-.8-3.2-4.7-4.5.7z"/>
  <path id="Fill-184" class="st9" d="M59.1 18.3l4.1-1.9-3.9-2.7-4.1 2z"/>
  <path id="Fill-186" class="st3" d="M48.1 5l2.5-3.8L46 .9l-2.6 3.8z"/>
  <path id="Fill-189" class="st10" d="M82.8 11.1l4.5.4-1.9-5.4-4.6-.3z"/>
  <path id="Fill-191" fill="#f9b387" d="M20 67.3l1.3-3.4-3.6.6-1.4 3.3z"/>
  <path id="Fill-193" class="st10" d="M214.6 35.8l-4.1-2 3.9-2.6 4.1 2z"/>
  <path id="Fill-195" class="st3" d="M228.5 49l-2.5-3.8 4.6-.3 2.6 3.8z"/>
  <path id="Fill-197" class="st5" d="M203.8 8.7l1.1-3.3 2.4 2.7-1.1 3.4z"/>
  <path id="Fill-199" fill="#feefe7" d="M199.2 24.3l1-3.5 2.6 2.7-1 3.5z"/>
  <path id="Fill-201" fill="#f16a21" d="M223.3 65.6l-3.5 3.1-.9-4.6 3.4-3z"/>
  <path id="Fill-203" fill="#cce6cd" d="M210.2 56.2l-2.6-2.3 3.4-1.1 2.6 2.3z"/>
  <path id="Fill-205" class="st9" d="M184.5 21l-4.1-2 3.9-2.6 4.1 2z"/>
  <path id="Fill-207" class="st5" d="M134.3 22.5l2.6-2.5.9 3.5-2.6 2.6z"/>
  <path id="Fill-209" fill="#fde0cf" d="M156.5 15.5l-4.5.4 1.9-5.4 4.6-.4z"/>
  <path id="Fill-211" fill="#19b14b" d="M172.7 7.7L170 5.4l3.5-1.2 2.6 2.4z"/>
</svg>
