<svg xmlns="http://www.w3.org/2000/svg" id="Layer_1" enable-background="new 0 0 366 85" viewBox="0 0 366 85">
  <style>
    .st5{fill:#fff}
  </style>
  <g id="_x32_.0-Discussions-05" transform="translate(-701 -259)">
    <g id="Pinned---Module" transform="translate(339 167)">
      <g id="background" transform="translate(12 66)">
        <g id="Pin-Illustration" transform="translate(350 26)">
          <path id="Stroke-1" fill="none" stroke="#b2bac1" stroke-dasharray="10 15" stroke-linecap="round" stroke-linejoin="round" stroke-width="6" d="M64 10.6C71 3 75.2 3 82.1 3h265.8c7.9 0 14.3 6.5 14.3 14.3v34.8c0 7.9-6.5 14.3-14.3 14.3h-38.2"/>
          <path id="Fill-3" fill="#c8cacf" d="M319.9 84.1H8c-2.2 0-4-1.8-4-4V23.3c0-2.2 1.8-4 4-4h311.9c2.2 0 4 1.8 4 4v56.9c0 2.1-1.8 3.9-4 3.9"/>
          <path id="Fill-5" fill="#f5f6f5" d="M316.9 81.1H5c-2.2 0-4-1.8-4-4V20.3c0-2.2 1.8-4 4-4h311.9c2.2 0 4 1.8 4 4v56.9c0 2.1-1.8 3.9-4 3.9"/>
          <path id="Stroke-7" fill="none" stroke="#3f5463" stroke-width="2" d="M316.9 81.1H5c-2.2 0-4-1.8-4-4V20.3c0-2.2 1.8-4 4-4h311.9c2.2 0 4 1.8 4 4v56.9c0 2.1-1.8 3.9-4 3.9z"/>
          <defs>
            <filter id="Adobe_OpacityMaskFilter" width="39.7" height="3" x="47.9" y="48.2" filterUnits="userSpaceOnUse">
              <feColorMatrix values="1 0 0 0 0 0 1 0 0 0 0 0 1 0 0 0 0 0 1 0"/>
            </filter>
          </defs>
          <mask id="mask-2_1_" width="39.7" height="3" x="47.9" y="48.2" maskUnits="userSpaceOnUse">
            <g filter="url(#Adobe_OpacityMaskFilter)">
              <path id="path-1_1_" d="M0 84.1h365.2V0H0z" class="st5"/>
            </g>
          </mask>
          <path id="Fill-9" fill="#3f5463" d="M47.9 51.2h39.7v-3H47.9z" mask="url(#mask-2_1_)"/>
          <defs>
            <filter id="Adobe_OpacityMaskFilter_1_" width="232.9" height="3" x="47.9" y="61.2" filterUnits="userSpaceOnUse">
              <feColorMatrix values="1 0 0 0 0 0 1 0 0 0 0 0 1 0 0 0 0 0 1 0"/>
            </filter>
          </defs>
          <mask id="mask-2_2_" width="232.9" height="3" x="47.9" y="61.2" maskUnits="userSpaceOnUse">
            <g filter="url(#Adobe_OpacityMaskFilter_1_)">
              <path id="path-1_2_" d="M0 84.1h365.2V0H0z" class="st5"/>
            </g>
          </mask>
          <path id="Fill-11" fill="#3f5463" d="M47.9 64.2h232.9v-3H47.9z" mask="url(#mask-2_2_)"/>
          <defs>
            <filter id="Adobe_OpacityMaskFilter_2_" width="87.9" height="3" x="47.9" y="34.2" filterUnits="userSpaceOnUse">
              <feColorMatrix values="1 0 0 0 0 0 1 0 0 0 0 0 1 0 0 0 0 0 1 0"/>
            </filter>
          </defs>
          <mask id="mask-2_3_" width="87.9" height="3" x="47.9" y="34.2" maskUnits="userSpaceOnUse">
            <g filter="url(#Adobe_OpacityMaskFilter_2_)">
              <path id="path-1_3_" d="M0 84.1h365.2V0H0z" class="st5"/>
            </g>
          </mask>
          <path id="Fill-12" fill="#3f5463" d="M47.9 37.2h87.9v-3H47.9z" mask="url(#mask-2_3_)"/>
          <defs>
            <filter id="Adobe_OpacityMaskFilter_3_" width="7" height="7" x="20.3" y="50.3" filterUnits="userSpaceOnUse">
              <feColorMatrix values="1 0 0 0 0 0 1 0 0 0 0 0 1 0 0 0 0 0 1 0"/>
            </filter>
          </defs>
          <mask id="mask-2_4_" width="7" height="7" x="20.3" y="50.3" maskUnits="userSpaceOnUse">
            <g filter="url(#Adobe_OpacityMaskFilter_3_)">
              <path id="path-1_4_" d="M0 84.1h365.2V0H0z" class="st5"/>
            </g>
          </mask>
          <path id="Fill-13" fill="#d3d4d8" d="M27.2 53.8c0 1.9-1.6 3.5-3.5 3.5s-3.5-1.6-3.5-3.5 1.6-3.5 3.5-3.5c2 0 3.5 1.5 3.5 3.5" mask="url(#mask-2_4_)"/>
          <defs>
            <filter id="Adobe_OpacityMaskFilter_4_" width="48.1" height="48.1" x="22.3" y="6.1" filterUnits="userSpaceOnUse">
              <feColorMatrix values="1 0 0 0 0 0 1 0 0 0 0 0 1 0 0 0 0 0 1 0"/>
            </filter>
          </defs>
          <mask id="mask-2_5_" width="48.1" height="48.1" x="22.3" y="6.1" maskUnits="userSpaceOnUse">
            <g filter="url(#Adobe_OpacityMaskFilter_4_)">
              <path id="path-1_5_" d="M0 84.1h365.2V0H0z" class="st5"/>
            </g>
          </mask>
          <path id="Fill-14" fill="#3f5463" d="M64.2 27.4c-.6.6-1.5.6-2 0l-.5-.5-12-12-.5-.5c-.6-.6-.6-1.5 0-2l2.1-2.1 15.1 15.1-2.2 2zm-12.9 7.8c-.2-.2-.3-.5-.5-.7L42 25.8c-.2-.2-.4-.4-.7-.5l7.3-7.3 10 10-7.3 7.2zm-2.6 11.5l-.4.4-18.9-18.9.4-.4c2.7-2.7 7.5-2.7 10.2 0l8.7 8.7c1.4 1.4 2.1 3.2 2.1 5.1 0 2-.7 3.8-2.1 5.1zm2.6-40.6l-4.2 4.2c-1.5 1.5-1.6 3.8-.4 5.5l-7.6 7.6c-.1.1-.2.2-.2.3-3.7-1.5-8.2-.9-11.1 2l-2.5 2.5 10.5 10.5-13 13c-.6.6-.6 1.5 0 2 .3.3.6.4 1 .4s.7-.1 1-.4l13-13 10.5 10.5 2.5-2.5c1.9-1.9 2.9-4.4 2.9-7.1 0-1.4-.3-2.8-.8-4 .1 0 .1-.1.2-.1l7.7-7.7c.7.5 1.6.9 2.5.9 1.1 0 2.2-.4 3.1-1.3l4.2-4.2L51.3 6.1z" mask="url(#mask-2_5_)"/>
          <defs>
            <filter id="Adobe_OpacityMaskFilter_5_" width="21.5" height="21.4" x="29.4" y="25.8" filterUnits="userSpaceOnUse">
              <feColorMatrix values="1 0 0 0 0 0 1 0 0 0 0 0 1 0 0 0 0 0 1 0"/>
            </filter>
          </defs>
          <mask id="mask-2_6_" width="21.5" height="21.4" x="29.4" y="25.8" maskUnits="userSpaceOnUse">
            <g filter="url(#Adobe_OpacityMaskFilter_5_)">
              <path id="path-1_6_" d="M0 84.1h365.2V0H0z" class="st5"/>
            </g>
          </mask>
          <path id="Fill-15" fill="#c265a7" d="M48.7 46.7l-.4.4-18.9-18.9.4-.4c2.7-2.7 7.5-2.7 10.2 0l8.7 8.7c1.4 1.4 2.1 3.2 2.1 5.1 0 2-.7 3.8-2.1 5.1" mask="url(#mask-2_6_)"/>
          <defs>
            <filter id="Adobe_OpacityMaskFilter_6_" width="17.3" height="17.2" x="41.3" y="17.9" filterUnits="userSpaceOnUse">
              <feColorMatrix values="1 0 0 0 0 0 1 0 0 0 0 0 1 0 0 0 0 0 1 0"/>
            </filter>
          </defs>
          <mask id="mask-2_7_" width="17.3" height="17.2" x="41.3" y="17.9" maskUnits="userSpaceOnUse">
            <g filter="url(#Adobe_OpacityMaskFilter_6_)">
              <path id="path-1_7_" d="M0 84.1h365.2V0H0z" class="st5"/>
            </g>
          </mask>
          <path id="Fill-16" fill="#b74799" d="M51.3 35.2c-.2-.2-.3-.5-.5-.7L42 25.8c-.2-.2-.4-.4-.7-.5l7.3-7.3 10 10-7.3 7.2z" mask="url(#mask-2_7_)"/>
          <defs>
            <filter id="Adobe_OpacityMaskFilter_7_" width="17.7" height="17.7" x="48.7" y="10.2" filterUnits="userSpaceOnUse">
              <feColorMatrix values="1 0 0 0 0 0 1 0 0 0 0 0 1 0 0 0 0 0 1 0"/>
            </filter>
          </defs>
          <mask id="mask-2_8_" width="17.7" height="17.7" x="48.7" y="10.2" maskUnits="userSpaceOnUse">
            <g filter="url(#Adobe_OpacityMaskFilter_7_)">
              <path id="path-1_8_" d="M0 84.1h365.2V0H0z" class="st5"/>
            </g>
          </mask>
          <path id="Fill-17" fill="#c265a7" d="M64.2 27.4c-.6.6-1.5.6-2 0l-.5-.5-12-12-.5-.5c-.6-.6-.6-1.5 0-2l2.1-2.1 15.1 15.1-2.2 2z" mask="url(#mask-2_8_)"/>
        </g>
      </g>
    </g>
  </g>
</svg>
