<svg xmlns="http://www.w3.org/2000/svg" xmlns:xlink="http://www.w3.org/1999/xlink" width="234" height="111">
  <defs>
    <path id="a" d="M.09.537h61.066v56.815H.091z"/>
  </defs>
  <g fill="none" fill-rule="evenodd">
    <path fill="#19B14B" d="M232.334 109.463H147v-22.47c0-7.534 6.163-13.697 13.696-13.697h57.942c7.533 0 13.696 6.163 13.696 13.696v22.471z"/>
    <path stroke="#3F5463" stroke-width="2" d="M232.334 109.463H147v-22.47c0-7.534 6.163-13.697 13.696-13.697h57.942c7.533 0 13.696 6.163 13.696 13.696v22.471z"/>
    <path fill="#F5F6F5" d="M158.167 23.963l-2 26.5H159v9.166s.667 4.834 5.667 4.834h5l-.667 20.5s29.667 2.666 29.667-11.834L191.5 22.963l-33.333 1z"/>
    <path stroke="#3F5463" stroke-width="2" d="M158.167 23.963l-2 26.5H159v9.166s.667 4.834 5.667 4.834h5l-.667 20.5s29.667 2.666 29.667-11.834L191.5 22.963l-33.333 1z"/>
    <g transform="translate(152 -.537)">
      <mask id="b" fill="#fff">
        <use xlink:href="#a"/>
      </mask>
      <path fill="#3F5463" d="M61.084 25.916c-1.125-21-24.75-16.375-24.75-16.375s1.75-9.25-10.625-9-15.75 6.5-15.75 6.5-19.125 0-4.125 19.375c0 0 1.25 10.875 22.75 11.5 0 0 .17.104.447.288a5.615 5.615 0 0 1 4.428-2.163 5.622 5.622 0 1 1 .123 11.244c.182 3.561 1.365 8.145 7.627 9.506 8.625 1.875 11.75-1 8.625-7.875 0 0 12.375-2 11.25-23" mask="url(#b)"/>
    </g>
    <path fill="#00AC18" fill-opacity=".4" d="M1 109.463h85.334v-12.47c0-7.534-6.163-13.697-13.696-13.697H14.696C7.163 83.296 1 89.46 1 96.992v12.471z"/>
    <path stroke="#3F5463" stroke-width="2" d="M1 109.463h85.334v-12.47c0-7.534-6.163-13.697-13.696-13.697H14.696C7.163 83.296 1 89.46 1 96.992v12.471z"/>
    <path fill="#F5F6F5" d="M75.167 33.963l2 26.5h-2.833v9.166s-.667 4.834-5.667 4.834h-5l.667 20.5S34.667 97.63 34.667 83.13l7.167-50.166 33.333 1z"/>
    <path stroke="#3F5463" stroke-width="2" d="M75.167 33.963l2 26.5h-2.833v9.166s-.667 4.834-5.667 4.834h-5l.667 20.5S34.667 97.63 34.667 83.13l7.167-50.166 33.333 1z"/>
    <path fill="#3F5463" d="M20.25 35.38c1.125-21 23-25.626 35.375-25.376S80.667 15.796 75.5 35.88c0 0-1.25 10.875-22.75 11.5 0 0-.171.104-.447.288a5.615 5.615 0 0 0-4.428-2.163 5.622 5.622 0 1 0-.123 11.244c-.182 3.561-10.585 15.84-12.043 24.381-1.46 8.542-7.334-15.875-4.21-22.75 0 0-12.374-2-11.25-23"/>
    <path fill="#F5F6F5" d="M146.834 49.713h-7.167l-.125 11.375-11.583-11.375h-20.46V17.796h39.335z"/>
    <path stroke="#C8CACF" stroke-dasharray="8 4" stroke-width="2" d="M146.834 49.713h-7.167l-.125 11.375-11.583-11.375h-20.46V17.796h39.335z"/>
    <path fill="#F5F6F5" d="M85.5 59.713h7.167l.125 11.375 11.583-11.375h20.459V27.796H85.5z"/>
    <path stroke="#C8CACF" stroke-dasharray="8 4" stroke-width="2" d="M85.5 59.713h7.167l.125 11.375 11.583-11.375h20.459V27.796H85.5z"/>
    <path fill="#3F5463" d="M38.334 66.63s-3.25 12-4.5 16.25 5 10.5 10.5 11c0 0-24.375 12.874-25.75-10-.632-10.508 1.75-49.876 1.75-49.876"/>
    <path fill="#3F5463" d="M18.646 69.754s-1.937 11-7.312 13.5h8.874V70.13l-1.562-.375z"/>
  </g>
</svg>
