<?xml version="1.0" encoding="utf-8"?>
<!-- Generator: Adobe Illustrator 24.0.3, SVG Export Plug-In . SVG Version: 6.00 Build 0)  -->
<svg version="1.1" id="Layer_1" xmlns="http://www.w3.org/2000/svg" xmlns:xlink="http://www.w3.org/1999/xlink" x="0px" y="0px"
	 viewBox="0 0 120 120" style="enable-background:new 0 0 120 120;" xml:space="preserve">
<style type="text/css">
	.st0{fill:#9DBF71;}
	.st1{fill:#243038;}
	.st2{fill:#4EB7ED;}
	.st3{fill:#9AD6F5;}
	.st4{fill:#E2E5E8;}
	.st5{fill:#FFFFFF;}
	.st6{fill:#FFBC00;}
	.st7{fill:#F77276;}
	.st8{fill:#454F56;}
</style>
<g>
	<g>
		<path class="st0" d="M70.31,116.92l-4.02-0.1c0.92-35.61,8.76-60.53,25.42-80.83l3.11,2.55C78.76,58.09,71.21,82.27,70.31,116.92z
			"/>
		<path class="st1" d="M71.29,117.95l-6.04-0.16l0.03-1.01c0.93-35.84,8.84-60.96,25.65-81.44l0.64-0.78l4.67,3.83l-0.64,0.78
			c-15.89,19.37-23.38,43.35-24.28,77.76L71.29,117.95z M67.32,115.83l2.01,0.05c1.01-33.9,8.46-57.79,24.07-77.2l-1.56-1.28
			C75.93,57.18,68.34,81.46,67.32,115.83z"/>
	</g>
	<g>
		<path class="st0" d="M68.62,102.89c4.23-13.78,13.81-21.04,24.63-21.04C94.97,88.68,86.31,101.15,68.62,102.89z"/>
		<path class="st1" d="M67.22,104.04l0.44-1.44c4.18-13.62,13.75-21.75,25.6-21.75h0.79l0.19,0.76c0.76,3.02-0.26,6.8-2.78,10.39
			c-2.2,3.12-8.81,10.53-22.73,11.9L67.22,104.04z M92.42,82.87c-10.11,0.36-18.34,7.32-22.35,18.83
			c12.04-1.65,17.78-8.09,19.74-10.87C91.74,88.09,92.68,85.18,92.42,82.87z"/>
	</g>
	<g>
		<path class="st0" d="M61.71,94.15c-9.98-10.4-21.8-12.57-31.47-7.69C31.78,93.34,45.14,100.57,61.71,94.15z"/>
		<path class="st1" d="M49.06,97.66c-6.16,0-10.54-1.83-12.64-2.95c-3.87-2.07-6.48-4.99-7.16-8.03l-0.17-0.77l0.7-0.35
			c10.58-5.34,22.79-2.39,32.65,7.89l1.05,1.09l-1.41,0.55C57.16,96.99,52.78,97.66,49.06,97.66z M31.45,87
			c0.81,2.18,2.96,4.35,5.92,5.93c3,1.6,11.03,4.76,22.52,0.81C51.12,85.27,40.63,82.77,31.45,87z"/>
	</g>
	<g>
		<path class="st0" d="M66.4,118.99h4.03c0-0.08,0-0.15-0.01-0.23c-1.48-31.61-14.83-52.45-15.4-53.33l-3.32,2.16
			c-5.38-11.13-11.88-23.69-19.47-37.6c-0.65-1.19-1.09-2-1.28-2.37l-3.57,1.86c0.19,0.37,0.65,1.21,1.32,2.43
			c13.68,25.08,36.47,69.2,37.7,86.96C66.39,118.91,66.39,118.95,66.4,118.99z M52,68.21c1.06,1.78,4.31,7.5,7.46,16.21
			C57.29,79.42,54.8,74.01,52,68.21z"/>
		<path class="st1" d="M70.43,120h-5.01l-0.03-1.08c-1.22-17.59-24.07-61.76-37.58-86.53l-0.13-0.25c-0.6-1.1-1.01-1.85-1.19-2.2
			l-0.47-0.89l5.35-2.79l0.47,0.89c0.19,0.36,0.63,1.17,1.27,2.35c7.31,13.4,13.7,25.72,19,36.62l3.2-2.08l0.55,0.84
			c0.57,0.88,14.07,21.94,15.56,53.84l0.07,1.21L70.43,120z M67.33,117.99h2.04C67.88,90.24,57.25,71.06,54.7,66.83l-1.69,1.1
			c1.32,2.23,4.38,7.82,7.4,16.14l-1.87,0.75c-2.17-4.98-4.67-10.42-7.45-16.18l0,0l-0.3-0.62C45.41,56.9,38.87,44.26,31.34,30.46
			c-0.33-0.6-0.6-1.1-0.82-1.5l-1.78,0.93c0.19,0.35,0.42,0.78,0.7,1.28l0.13,0.25C42.96,55.97,65.47,99.5,67.33,117.99z"/>
	</g>
	<g>
		<g>
			<g>
				<g>
					<path class="st2" d="M40,41.21c2.68,5.74,3.03,11.25,0.79,12.29s-6.23-2.76-8.9-8.51s-2.8-16.6-2.8-16.6S37.32,35.47,40,41.21z
						"/>
					<path class="st1" d="M39.99,54.69c-3.06,0-6.76-4.45-9.01-9.27c-2.74-5.87-2.89-16.56-2.9-17.01c0-0.4,0.22-0.76,0.58-0.92
						c0.36-0.17,0.78-0.11,1.08,0.15c0.34,0.29,8.43,7.28,11.17,13.15v0c1.35,2.89,2.18,5.82,2.33,8.27
						c0.18,2.76-0.54,4.67-2.03,5.36C40.83,54.6,40.41,54.69,39.99,54.69z M30.19,30.76c0.2,3.47,0.8,9.92,2.61,13.81
						c2.7,5.79,6.29,8.62,7.57,8.02c0.65-0.3,0.98-1.61,0.87-3.41c-0.14-2.2-0.91-4.88-2.15-7.55v0
						C37.28,37.76,32.72,33.14,30.19,30.76z"/>
				</g>
				<g>
					<path class="st2" d="M26.42,12.09c-2.68-5.74-6.67-9.55-8.9-8.51s-1.88,6.55,0.79,12.29s10.91,12.81,10.91,12.81
						S29.1,17.84,26.42,12.09z"/>
					<path class="st1" d="M29.22,29.7c-0.24,0-0.47-0.08-0.66-0.24c-0.34-0.29-8.43-7.28-11.17-13.15
						c-1.35-2.89-2.18-5.82-2.33-8.27c-0.18-2.76,0.54-4.67,2.03-5.36c3.22-1.5,7.69,3.51,10.24,9c2.74,5.87,2.89,16.56,2.9,17.01
						c0,0.4-0.22,0.76-0.58,0.92C29.51,29.67,29.37,29.7,29.22,29.7z M18.33,4.42c-0.15,0-0.28,0.03-0.39,0.08
						c-0.65,0.3-0.98,1.61-0.87,3.41c0.14,2.2,0.91,4.88,2.15,7.55c1.81,3.88,6.37,8.5,8.9,10.88c-0.2-3.47-0.8-9.92-2.61-13.81
						c0,0,0,0,0,0C23.05,7.24,19.85,4.42,18.33,4.42z"/>
				</g>
			</g>
			<g>
				<g>
					<path class="st3" d="M44.34,35.44c4.85,4.07,7.5,8.91,5.91,10.8s-6.81,0.13-11.67-3.95s-9.55-13.86-9.55-13.86
						S39.48,31.37,44.34,35.44z"/>
					<path class="st1" d="M48.22,48.01c-0.85,0-1.82-0.18-2.9-0.54c-2.32-0.78-4.94-2.35-7.38-4.39
						c-4.96-4.17-9.62-13.78-9.81-14.19c-0.17-0.36-0.12-0.78,0.14-1.08c0.25-0.3,0.66-0.43,1.04-0.32
						c0.44,0.12,10.72,3.03,15.68,7.2c2.44,2.05,4.43,4.36,5.61,6.51c1.33,2.43,1.48,4.46,0.43,5.71
						C50.4,47.64,49.44,48.01,48.22,48.01z M31.03,30.12c1.64,3.06,4.92,8.66,8.2,11.41c2.25,1.89,4.65,3.32,6.73,4.03
						c1.7,0.58,3.05,0.59,3.51,0.04s0.21-1.87-0.65-3.45c-1.06-1.93-2.88-4.04-5.14-5.93l0,0C40.41,33.46,34.33,31.21,31.03,30.12z"
						/>
				</g>
				<g>
					<path class="st2" d="M19.73,14.79c-4.85-4.07-10.08-5.84-11.67-3.95s1.06,6.73,5.91,10.8s15.3,7,15.3,7
						S24.58,18.86,19.73,14.79z"/>
					<path class="st1" d="M29.28,29.65c-0.09,0-0.18-0.01-0.27-0.04c-0.44-0.12-10.72-3.03-15.68-7.2
						c-2.44-2.05-4.43-4.36-5.61-6.51c-1.33-2.43-1.48-4.46-0.43-5.71c2.29-2.73,8.45-0.06,13.08,3.82l0,0
						c4.96,4.17,9.62,13.78,9.81,14.19c0.17,0.36,0.12,0.78-0.14,1.08C29.86,29.53,29.57,29.65,29.28,29.65z M10.06,11.09
						c-0.59,0-1.01,0.14-1.23,0.4c-0.46,0.55-0.21,1.87,0.65,3.45c1.06,1.93,2.88,4.04,5.14,5.93c3.29,2.76,9.37,5.01,12.66,6.1
						c-1.64-3.06-4.92-8.66-8.2-11.41C15.37,12.45,11.91,11.09,10.06,11.09z"/>
				</g>
			</g>
			<g>
				<g>
					<path class="st2" d="M44.2,21.35c6.24-1.1,11.65-0.02,12.08,2.41s-4.28,5.3-10.52,6.4C39.51,31.26,29,28.57,29,28.57
						S37.96,22.45,44.2,21.35z"/>
					<path class="st1" d="M42.26,31.43c-6.06,0-13.15-1.79-13.51-1.89c-0.38-0.1-0.67-0.41-0.74-0.8c-0.07-0.39,0.1-0.78,0.42-1.01
						c0.37-0.26,9.21-6.26,15.59-7.38c3.14-0.55,6.19-0.59,8.59-0.11c2.72,0.54,4.37,1.73,4.65,3.34c0.62,3.51-5.38,6.51-11.34,7.57
						C44.8,31.35,43.56,31.43,42.26,31.43z M31.56,28.12c3.4,0.71,9.79,1.79,14.01,1.05c6.29-1.11,9.95-3.84,9.71-5.23
						c-0.12-0.71-1.3-1.37-3.07-1.72c-2.16-0.43-4.95-0.39-7.85,0.12C40.15,23.08,34.52,26.29,31.56,28.12z"/>
				</g>
				<g>
					<path class="st2" d="M12.56,26.93c-6.24,1.1-10.95,3.97-10.52,6.4s5.84,3.51,12.08,2.41c6.24-1.1,15.2-7.22,15.2-7.22
						S18.8,25.83,12.56,26.93z"/>
					<path class="st1" d="M9.45,37.17c-4.27,0-7.95-1.1-8.4-3.66C0.43,30,6.43,26.99,12.38,25.94l0,0
						c6.38-1.12,16.74,1.49,17.18,1.61c0.38,0.1,0.67,0.41,0.74,0.8c0.07,0.39-0.1,0.78-0.42,1.01c-0.37,0.26-9.21,6.26-15.59,7.38
						C12.68,37.02,11.02,37.17,9.45,37.17z M12.73,27.92c-6.29,1.11-9.95,3.84-9.71,5.23c0.25,1.39,4.62,2.71,10.91,1.6
						c4.22-0.74,9.86-3.95,12.81-5.78C23.35,28.27,16.96,27.18,12.73,27.92L12.73,27.92z"/>
				</g>
			</g>
			<g>
				<g>
					<path class="st2" d="M33.31,12.4c3.17-5.49,7.47-8.94,9.61-7.7c2.14,1.24,1.31,6.69-1.86,12.17
						c-3.17,5.49-11.99,11.81-11.99,11.81S30.14,17.88,33.31,12.4z"/>
					<path class="st1" d="M29.08,29.69c-0.17,0-0.35-0.04-0.5-0.13c-0.34-0.2-0.54-0.58-0.5-0.97c0.04-0.45,1.13-11.08,4.37-16.69
						l0,0c3.03-5.24,7.91-9.85,10.99-8.07c3.08,1.78,1.53,8.31-1.49,13.55C38.7,22.99,30.03,29.24,29.66,29.5
						C29.49,29.63,29.28,29.69,29.08,29.69z M34.19,12.9c-2.14,3.71-3.31,10.09-3.81,13.53c2.73-2.15,7.67-6.35,9.81-10.06
						c3.19-5.53,3.45-10.09,2.23-10.8C41.2,4.86,37.38,7.37,34.19,12.9L34.19,12.9z"/>
				</g>
				<g>
					<path class="st2" d="M17.25,40.22c-3.17,5.49-4,10.94-1.86,12.17c2.14,1.24,6.44-2.21,9.61-7.7s4.24-16.29,4.24-16.29
						S20.42,34.73,17.25,40.22z"/>
					<path class="st1" d="M16.37,53.66c-0.53,0-1.03-0.12-1.49-0.39c-3.08-1.78-1.53-8.31,1.49-13.55l0,0
						c3.24-5.61,11.91-11.86,12.27-12.13c0.32-0.23,0.75-0.25,1.09-0.05c0.34,0.2,0.54,0.58,0.5,0.97
						c-0.04,0.45-1.13,11.08-4.37,16.69C23.3,49.66,19.38,53.66,16.37,53.66z M18.12,40.72c-3.19,5.53-3.45,10.09-2.23,10.8
						c1.23,0.71,5.04-1.8,8.24-7.33c2.14-3.71,3.31-10.09,3.81-13.53C25.21,32.81,20.26,37.01,18.12,40.72L18.12,40.72z"/>
				</g>
			</g>
			<g>
				<g>
					<path class="st3" d="M33.63,44.61c0,6.34-2,11.47-4.47,11.47s-4.47-5.14-4.47-11.47s4.47-16.22,4.47-16.22
						S33.63,38.27,33.63,44.61z"/>
					<path class="st1" d="M29.16,57.09c-3.56,0-5.48-6.43-5.48-12.48c0-6.48,4.38-16.23,4.56-16.64c0.16-0.36,0.52-0.59,0.92-0.59
						c0.4,0,0.75,0.23,0.92,0.59c0.19,0.41,4.56,10.16,4.56,16.64C34.64,50.66,32.72,57.09,29.16,57.09z M29.16,30.99
						c-1.29,3.23-3.47,9.33-3.47,13.62c0,6.39,2.05,10.47,3.47,10.47c1.41,0,3.47-4.08,3.47-10.47
						C32.62,40.32,30.44,34.22,29.16,30.99z"/>
				</g>
				<g>
					<path class="st3" d="M33.63,12.48c0-6.34-2-11.47-4.47-11.47s-4.47,5.14-4.47,11.47s4.47,16.22,4.47,16.22
						S33.63,18.82,33.63,12.48z"/>
					<path class="st1" d="M29.16,29.71c-0.4,0-0.75-0.23-0.92-0.59c-0.19-0.41-4.56-10.16-4.56-16.64C23.67,6.43,25.6,0,29.16,0
						c3.56,0,5.48,6.43,5.48,12.48c0,6.48-4.38,16.23-4.56,16.64C29.91,29.48,29.55,29.71,29.16,29.71z M29.16,2.01
						c-1.41,0-3.47,4.08-3.47,10.47c0,4.29,2.18,10.39,3.47,13.62c1.29-3.23,3.47-9.33,3.47-13.62C32.62,6.09,30.57,2.01,29.16,2.01
						z"/>
				</g>
			</g>
			<g>
				<g>
					<path class="st2" d="M45.83,28.38c6.12,1.64,10.56,4.91,9.93,7.29c-0.64,2.39-6.12,2.99-12.24,1.35S29,28.5,29,28.5
						S39.71,26.74,45.83,28.38z"/>
					<path class="st1" d="M49.98,38.94c-2.12,0-4.49-0.34-6.73-0.94c-6.26-1.68-14.54-8.43-14.89-8.72
						c-0.31-0.25-0.44-0.66-0.33-1.04c0.1-0.38,0.42-0.67,0.81-0.73c0.45-0.07,11-1.78,17.25-0.1c3.08,0.82,5.86,2.08,7.83,3.53
						c2.23,1.64,3.23,3.42,2.8,5C56.16,38.05,53.39,38.94,49.98,38.94z M31.52,29.18c2.78,2.08,8.12,5.77,12.26,6.88
						c6.17,1.65,10.64,0.72,11.01-0.64c0.19-0.69-0.6-1.79-2.05-2.85c-1.78-1.3-4.32-2.44-7.16-3.2l0,0
						C41.43,28.24,34.97,28.77,31.52,29.18z"/>
				</g>
				<g>
					<path class="st3" d="M14.8,20.07c-6.12-1.64-11.6-1.03-12.24,1.35s3.8,5.65,9.93,7.29s16.83-0.12,16.83-0.12
						S20.92,21.71,14.8,20.07z"/>
					<path class="st1" d="M19.24,30.42c-2.46,0-4.97-0.19-7.02-0.74C6.38,28.12,0.66,24.6,1.58,21.16
						c0.92-3.44,7.63-3.63,13.47-2.06l0,0c6.26,1.68,14.54,8.43,14.89,8.72c0.31,0.25,0.44,0.66,0.33,1.04
						c-0.1,0.38-0.42,0.67-0.81,0.73C29.17,29.63,24.3,30.42,19.24,30.42z M8.37,20.15c-2.81,0-4.61,0.68-4.84,1.52
						c-0.37,1.37,3.04,4.41,9.21,6.06c4.15,1.11,10.61,0.58,14.05,0.17c-2.78-2.08-8.12-5.77-12.26-6.88l0,0
						C12.19,20.41,10.09,20.15,8.37,20.15z"/>
				</g>
			</g>
			<g>
				<g>
					<path class="st3" d="M39.75,15.67c5.19-3.63,10.55-4.94,11.97-2.92c1.42,2.02-1.64,6.61-6.83,10.25s-15.86,5.64-15.86,5.64
						S34.56,19.3,39.75,15.67z"/>
					<path class="st1" d="M29.03,29.64c-0.32,0-0.63-0.16-0.82-0.43c-0.23-0.32-0.24-0.75-0.04-1.09c0.23-0.39,5.7-9.57,11.01-13.28
						l0,0c2.61-1.83,5.36-3.15,7.74-3.73c2.69-0.66,4.69-0.28,5.63,1.07c0.94,1.34,0.61,3.35-0.92,5.65
						c-1.36,2.04-3.54,4.17-6.15,5.99c-5.31,3.72-15.8,5.72-16.25,5.81C29.15,29.64,29.09,29.64,29.03,29.64z M40.33,16.49
						c-3.51,2.46-7.26,7.75-9.17,10.65c3.38-0.8,9.63-2.51,13.15-4.97c2.41-1.69,4.41-3.63,5.63-5.46c1-1.5,1.36-2.79,0.95-3.38
						c-0.41-0.59-1.76-0.69-3.51-0.26C45.24,13.59,42.74,14.8,40.33,16.49L40.33,16.49z"/>
				</g>
				<g>
					<path class="st3" d="M13.43,34.09c-5.19,3.63-8.25,8.22-6.83,10.25s6.77,0.72,11.97-2.92s10.72-12.97,10.72-12.97
						S18.62,30.46,13.43,34.09z"/>
					<path class="st1" d="M9.04,46.3c-1.5,0-2.63-0.47-3.27-1.38C3.73,42,7.9,36.74,12.85,33.27c5.31-3.72,15.8-5.72,16.25-5.81
						c0.39-0.07,0.78,0.09,1.01,0.41s0.24,0.75,0.04,1.09c-0.23,0.39-5.7,9.57-11.01,13.28c-2.61,1.83-5.36,3.15-7.74,3.73
						C10.54,46.19,9.75,46.3,9.04,46.3z M27.15,29.95c-3.38,0.8-9.63,2.51-13.15,4.97l0,0c-5.23,3.66-7.4,7.69-6.59,8.84
						c0.41,0.59,1.76,0.69,3.51,0.26c2.14-0.52,4.65-1.74,7.06-3.43C21.5,38.14,25.25,32.85,27.15,29.95z"/>
				</g>
			</g>
		</g>
		<g>
			<circle class="st4" cx="29.16" cy="28.55" r="11.67"/>
			<path class="st1" d="M29.16,41.22c-6.99,0-12.67-5.69-12.67-12.67c0-6.99,5.69-12.67,12.67-12.67c6.99,0,12.67,5.69,12.67,12.67
				C41.83,35.53,36.14,41.22,29.16,41.22z M29.16,17.89c-5.88,0-10.66,4.78-10.66,10.66s4.78,10.66,10.66,10.66
				s10.66-4.78,10.66-10.66S35.03,17.89,29.16,17.89z"/>
		</g>
	</g>
	<g>
		<g>
			<path class="st5" d="M101.65,31.4c-1.16,2.86-8.4,5.86-8.4,5.86s-3.11-7.19-1.96-10.05c3.21-7.94,12-14.75,12-14.75
				S104.78,23.67,101.65,31.4z"/>
			<path class="st1" d="M92.73,38.57l-0.39-0.91c-0.34-0.78-3.25-7.67-1.97-10.83c3.28-8.1,11.94-14.88,12.31-15.17l1.38-1.07
				l0.23,1.74c0.06,0.47,1.49,11.56-1.71,19.45c-1.28,3.16-8.16,6.09-8.94,6.41L92.73,38.57z M102.48,14.46
				c-2.58,2.27-7.94,7.44-10.24,13.13c-0.65,1.6,0.5,5.62,1.56,8.34c2.66-1.21,6.28-3.3,6.92-4.9l0,0
				C102.97,25.47,102.74,17.92,102.48,14.46z"/>
		</g>
		<g>
			<path class="st5" d="M103.34,39.05c-2.84,1.2-10.08-1.79-10.08-1.79s2.88-7.29,5.72-8.49c7.89-3.34,18.91-1.95,18.91-1.95
				S111.02,35.8,103.34,39.05z"/>
			<path class="st1" d="M101.6,40.34c-3.42,0-8.09-1.88-8.73-2.15l-0.92-0.38l0.36-0.92c0.31-0.79,3.13-7.72,6.27-9.05
				c8.04-3.41,18.97-2.08,19.43-2.02l1.74,0.22l-1.06,1.39c-0.29,0.38-7.13,9.23-14.96,12.55l0,0
				C103.13,40.23,102.4,40.34,101.6,40.34z M94.58,36.7c2.74,1.02,6.78,2.1,8.36,1.43l0,0c5.51-2.34,10.69-7.84,12.95-10.47
				c-3.43-0.22-10.88-0.35-16.52,2.04C97.78,30.37,95.75,34.02,94.58,36.7z"/>
		</g>
		<g>
			<path class="st5" d="M99.12,45.66c-2.86-1.16-5.86-8.4-5.86-8.4s7.19-3.11,10.05-1.96c7.94,3.21,14.75,12,14.75,12
				S106.85,48.79,99.12,45.66z"/>
			<path class="st1" d="M111.76,48.67c-3.9,0-8.9-0.41-13.02-2.08l0,0c-3.16-1.28-6.09-8.16-6.41-8.94l-0.38-0.92l0.91-0.39
				c0.78-0.34,7.67-3.24,10.83-1.97c8.1,3.28,14.88,11.94,15.17,12.31l1.07,1.38l-1.74,0.23C117.97,48.33,115.32,48.67,111.76,48.67
				z M99.49,44.73c5.55,2.25,13.1,2.01,16.56,1.75c-2.27-2.58-7.44-7.94-13.13-10.24c-1.6-0.65-5.62,0.5-8.34,1.56
				C95.81,40.46,97.89,44.08,99.49,44.73L99.49,44.73z"/>
		</g>
		<g>
			<path class="st5" d="M91.46,47.34c-1.2-2.84,1.79-10.08,1.79-10.08s7.29,2.88,8.49,5.72c3.34,7.89,1.95,18.91,1.95,18.91
				S94.72,55.02,91.46,47.34z"/>
			<path class="st1" d="M104.47,63.76l-1.39-1.06c-0.37-0.29-9.23-7.13-12.55-14.96C89.21,44.6,92,37.66,92.33,36.88l0.38-0.92
				l0.92,0.36c0.79,0.31,7.72,3.13,9.05,6.27c3.41,8.05,2.08,18.97,2.02,19.43L104.47,63.76z M93.82,38.59
				c-1.02,2.74-2.1,6.77-1.43,8.36l0,0c2.34,5.51,7.84,10.69,10.47,12.95c0.22-3.43,0.35-10.88-2.04-16.53
				C100.15,41.79,96.49,39.76,93.82,38.59z"/>
		</g>
		<g>
			<path class="st5" d="M84.86,43.12c1.16-2.86,8.4-5.86,8.4-5.86s3.11,7.19,1.96,10.05c-3.21,7.94-12,14.75-12,14.75
				S81.73,50.85,84.86,43.12z"/>
			<path class="st1" d="M82.45,63.93l-0.23-1.74c-0.06-0.47-1.49-11.57,1.71-19.45l0,0c1.28-3.16,8.16-6.09,8.94-6.41l0.92-0.38
				l0.39,0.91c0.34,0.78,3.24,7.67,1.97,10.83c-3.28,8.1-11.94,14.88-12.31,15.17L82.45,63.93z M92.72,38.6
				c-2.66,1.21-6.28,3.3-6.92,4.9l0,0c-2.25,5.55-2.01,13.1-1.75,16.56c2.58-2.26,7.94-7.44,10.24-13.13
				C94.93,45.34,93.78,41.32,92.72,38.6z"/>
		</g>
		<g>
			<path class="st5" d="M83.17,35.47c2.84-1.2,10.08,1.79,10.08,1.79s-2.88,7.29-5.72,8.49c-7.89,3.34-18.91,1.95-18.91,1.95
				S75.49,38.72,83.17,35.47z"/>
			<path class="st1" d="M74.15,49c-3.17,0-5.45-0.28-5.66-0.3l-1.74-0.22l1.06-1.39c0.29-0.38,7.13-9.23,14.96-12.55l0,0
				c3.14-1.33,10.08,1.47,10.86,1.79l0.92,0.38l-0.36,0.92c-0.31,0.79-3.13,7.72-6.27,9.05C83.46,48.57,78.11,49,74.15,49z
				 M70.61,46.87c3.42,0.22,10.88,0.36,16.52-2.04c1.59-0.67,3.62-4.33,4.79-7c-2.74-1.02-6.78-2.1-8.36-1.43l0,0
				C78.05,38.73,72.88,44.23,70.61,46.87z"/>
		</g>
		<g>
			<path class="st5" d="M87.4,28.86c2.86,1.16,5.86,8.4,5.86,8.4s-7.19,3.11-10.05,1.96c-7.94-3.21-14.75-12-14.75-12
				S79.66,25.74,87.4,28.86z"/>
			<path class="st1" d="M84.82,40.47c-0.75,0-1.43-0.09-1.99-0.32c-8.1-3.28-14.88-11.94-15.17-12.31l-1.07-1.38l1.74-0.23
				c0.47-0.06,11.56-1.49,19.45,1.71l0,0c3.16,1.28,6.09,8.16,6.41,8.94l0.38,0.92l-0.91,0.39C93.02,38.46,88.25,40.47,84.82,40.47z
				 M70.45,28.04c2.27,2.58,7.44,7.94,13.13,10.24c1.6,0.65,5.62-0.5,8.34-1.56c-1.21-2.66-3.3-6.28-4.9-6.92l0,0
				C81.47,27.55,73.91,27.78,70.45,28.04z"/>
		</g>
		<g>
			<path class="st5" d="M95.05,27.18c1.2,2.84-1.79,10.08-1.79,10.08s-7.29-2.88-8.49-5.72c-3.34-7.89-1.95-18.91-1.95-18.91
				S91.8,19.5,95.05,27.18z"/>
			<path class="st1" d="M93.81,38.56l-0.92-0.36c-0.79-0.31-7.72-3.13-9.05-6.27c-3.41-8.05-2.08-18.97-2.02-19.43l0.22-1.74
				l1.39,1.06c0.38,0.29,9.23,7.13,12.55,14.96l0,0c1.33,3.14-1.47,10.08-1.79,10.86L93.81,38.56z M83.65,14.62
				c-0.22,3.43-0.35,10.88,2.04,16.53c0.67,1.59,4.33,3.62,7,4.79c1.02-2.74,2.1-6.78,1.43-8.36l0,0
				C91.79,22.06,86.28,16.88,83.65,14.62z"/>
		</g>
		<g>
			<circle class="st6" cx="93.26" cy="37.26" r="5.59"/>
			<path class="st1" d="M93.26,43.86c-0.84,0-1.67-0.16-2.47-0.49c-1.63-0.66-2.91-1.92-3.6-3.54s-0.7-3.41-0.04-5.05
				c0.66-1.63,1.92-2.91,3.54-3.6c1.62-0.69,3.41-0.7,5.05-0.04c1.63,0.66,2.91,1.92,3.6,3.54c0.69,1.62,0.7,3.41,0.04,5.05
				c-0.66,1.63-1.92,2.91-3.54,3.6C95,43.68,94.13,43.86,93.26,43.86z M93.26,32.68c-0.61,0-1.21,0.12-1.79,0.37
				c-1.13,0.48-2,1.36-2.46,2.5s-0.45,2.38,0.03,3.5c0.48,1.13,1.36,2,2.5,2.46c1.14,0.46,2.38,0.45,3.5-0.03
				c1.13-0.48,2-1.36,2.46-2.5v0c0.46-1.13,0.45-2.38-0.03-3.5c-0.48-1.13-1.36-2-2.5-2.46C94.42,32.79,93.84,32.68,93.26,32.68z"/>
		</g>
	</g>
	<g>
		<g>
			<path class="st7" d="M70.77,60.31c2.97-4.37,1.63-10.57-3.07-13.98c-4.29-3.12-9.93-2.85-13.35,0.41
				c-3.21-4.28-9.6-4.98-14.34-1.53c-4.75,3.45-6.06,9.75-2.97,14.13c-0.2,0.05-0.4,0.11-0.59,0.17c-5.15,1.67-7.84,7.59-6.01,13.21
				c1.77,5.44,7.12,8.62,12.13,7.3c0,0.07-0.01,0.15-0.01,0.22c0,5.41,4.79,9.8,10.71,9.8c5.78,0,10.49-4.2,10.7-9.45
				c5.04,1.39,10.46-1.79,12.24-7.27C77.97,67.91,75.54,62.23,70.77,60.31z"/>
			<path class="st1" d="M53.27,91.04c-6.09,0-11.12-4.32-11.66-9.81c-5.17,0.69-10.34-2.71-12.12-8.21
				c-1.92-5.92,0.78-12.16,6.04-14.26c-2.46-4.72-0.87-10.91,3.9-14.38c4.84-3.51,11.35-3.04,15.05,0.92
				c3.85-2.97,9.49-2.94,13.82,0.2c4.81,3.5,6.4,9.61,3.91,14.36c4.57,2.48,6.74,8.29,4.97,13.75c-1.81,5.58-7.07,8.98-12.3,8.18
				C64.04,87.07,59.18,91.04,53.27,91.04z M42.57,79.01c0.22,0,0.45,0.08,0.63,0.22c0.25,0.2,0.39,0.5,0.38,0.82l-0.01,0.19
				c0,4.85,4.35,8.8,9.7,8.8c5.25,0,9.51-3.72,9.69-8.48c0.01-0.31,0.16-0.59,0.41-0.77c0.25-0.18,0.57-0.24,0.86-0.16
				c4.56,1.26,9.4-1.64,11.01-6.61c1.58-4.87-0.55-10.03-4.86-11.76c-0.28-0.11-0.5-0.35-0.59-0.64c-0.09-0.29-0.04-0.61,0.13-0.86
				c2.69-3.96,1.45-9.5-2.82-12.6c-3.86-2.8-8.93-2.67-12.06,0.32c-0.21,0.2-0.49,0.3-0.78,0.27c-0.29-0.02-0.55-0.17-0.72-0.4
				c-2.87-3.83-8.68-4.42-12.95-1.32c-4.28,3.11-5.5,8.82-2.74,12.73c0.19,0.27,0.24,0.62,0.12,0.93c-0.11,0.31-0.37,0.55-0.69,0.63
				c-0.18,0.05-0.36,0.1-0.53,0.15c-4.61,1.5-7.02,6.86-5.37,11.94c1.6,4.91,6.39,7.82,10.92,6.64
				C42.4,79.02,42.49,79.01,42.57,79.01z"/>
		</g>
		<g>
			<path class="st1" d="M53.33,67.53c-0.28,0-0.55-0.12-0.74-0.33l-8.82-9.65l1.49-1.36l7.7,8.42l2.54-7.01l1.89,0.69l-3.1,8.57
				c-0.12,0.33-0.4,0.58-0.75,0.64C53.46,67.53,53.39,67.53,53.33,67.53z"/>
			<g>
				<path class="st1" d="M43.11,58.15c-0.71-0.77-0.65-1.97,0.12-2.67c0.77-0.71,1.97-0.65,2.67,0.12c0.71,0.77,0.65,1.97-0.12,2.67
					S43.81,58.92,43.11,58.15z"/>
			</g>
			<g>
				<path class="st1" d="M58.21,58.6c0.36-0.98-0.15-2.07-1.13-2.42c-0.98-0.36-2.07,0.15-2.42,1.13c-0.36,0.98,0.15,2.07,1.13,2.42
					C56.77,60.09,57.85,59.58,58.21,58.6z"/>
			</g>
		</g>
		<g>
			<path class="st1" d="M64.5,72.94l-11.6-5.5c-0.31-0.14-0.52-0.43-0.57-0.77l-1.85-13.14l1.99-0.28l1.78,12.61l11.12,5.27
				L64.5,72.94z"/>
			<g>
				<path class="st1" d="M49.6,53.65c-0.15-1.03,0.57-1.99,1.61-2.14c1.03-0.15,1.99,0.57,2.14,1.61c0.15,1.03-0.57,1.99-1.61,2.14
					C50.7,55.4,49.75,54.68,49.6,53.65z"/>
			</g>
			<g>
				<path class="st1" d="M64.12,73.74c0.94,0.45,2.07,0.05,2.52-0.9s0.05-2.07-0.9-2.52c-0.94-0.45-2.07-0.05-2.52,0.9
					C62.77,72.16,63.18,73.29,64.12,73.74z"/>
			</g>
		</g>
		<g>
			<path class="st1" d="M41.54,68.34l-0.14-2.01l11.51-0.79l10.54-9.42l1.34,1.5L54,67.28c-0.17,0.15-0.38,0.24-0.6,0.25
				L41.54,68.34z"/>
			<g>
				<path class="st1" d="M62.87,55.46c0.78-0.7,1.98-0.63,2.67,0.15c0.7,0.78,0.63,1.98-0.15,2.67c-0.78,0.7-1.98,0.63-2.67-0.15
					C62.02,57.36,62.09,56.16,62.87,55.46z"/>
			</g>
			<g>
				<path class="st1" d="M41.34,65.45c-1.04,0.07-1.83,0.97-1.76,2.02c0.07,1.04,0.97,1.83,2.02,1.76c1.04-0.07,1.83-0.97,1.76-2.02
					S42.38,65.38,41.34,65.45z"/>
			</g>
		</g>
		<g>
			<path class="st1" d="M52.79,76.84l-1.99-0.3l1.53-10.17c0.07-0.45,0.43-0.8,0.89-0.85l11.74-1.28l0.22,2l-10.96,1.2L52.79,76.84z
				"/>
			<g>
				<path class="st1" d="M64.86,63.36c1.04-0.11,1.97,0.64,2.09,1.68c0.11,1.04-0.64,1.97-1.68,2.09c-1.04,0.11-1.97-0.64-2.09-1.68
					C63.07,64.41,63.82,63.47,64.86,63.36z"/>
			</g>
			<g>
				<path class="st1" d="M49.92,76.41c-0.16,1.03,0.56,2,1.59,2.15c1.03,0.16,2-0.56,2.15-1.59c0.16-1.03-0.56-2-1.59-2.15
					S50.08,75.38,49.92,76.41z"/>
			</g>
		</g>
		<g>
			<path class="st1" d="M57.63,77.62l-4.62-9.45l-8.27,7.43l-1.35-1.5l9.26-8.32c0.24-0.21,0.55-0.3,0.86-0.24
				c0.31,0.06,0.57,0.26,0.71,0.55l5.2,10.65L57.63,77.62z"/>
			<g>
				<path class="st1" d="M45.33,76.25c-0.78,0.7-1.97,0.63-2.67-0.14c-0.7-0.78-0.63-1.97,0.14-2.67c0.78-0.7,1.97-0.63,2.67,0.14
					C46.17,74.35,46.11,75.55,45.33,76.25z"/>
			</g>
			<g>
				<path class="st1" d="M56.83,78.01c0.46,0.94,1.59,1.33,2.53,0.87c0.94-0.46,1.33-1.59,0.87-2.53c-0.46-0.94-1.59-1.33-2.53-0.87
					S56.37,77.07,56.83,78.01z"/>
			</g>
		</g>
		<g>
			<circle class="st8" cx="53.33" cy="66.53" r="3.99"/>
			<path class="st1" d="M53.33,71.52c-2.76,0-5-2.24-5-5c0-2.76,2.24-5,5-5s5,2.24,5,5C58.33,69.28,56.08,71.52,53.33,71.52z
				 M53.33,63.54c-1.65,0-2.99,1.34-2.99,2.99s1.34,2.99,2.99,2.99s2.99-1.34,2.99-2.99S54.97,63.54,53.33,63.54z"/>
		</g>
	</g>
</g>
</svg>
