<?xml version="1.0" encoding="utf-8"?>
<!-- Generator: Adobe Illustrator 24.0.3, SVG Export Plug-In . SVG Version: 6.00 Build 0)  -->
<svg version="1.1" id="Layer_1" xmlns="http://www.w3.org/2000/svg" xmlns:xlink="http://www.w3.org/1999/xlink" x="0px" y="0px"
	 viewBox="0 0 120 120" style="enable-background:new 0 0 120 120;" xml:space="preserve">
<style type="text/css">
	.st0{fill:#9DBF71;}
	.st1{fill:#243038;}
</style>
<g>
	<g>
		<path class="st0" d="M79.57,59.79c8.17,1.08,17.49,0.9,25.48-2.86c7.33-3.46,10.47-12.2,7.02-19.53
			c-1.14-2.42-2.87-4.37-4.92-5.79c0.21-2.49-0.2-5.06-1.34-7.48c-3.46-7.33-12.2-10.47-19.53-7.02
			c-8.06,3.8-14.17,10.98-18.54,18.02c1.11-8.22,0.97-17.64-2.83-25.7C61.44,2.1,52.7-1.05,45.37,2.41
			c-2.42,1.14-4.37,2.87-5.79,4.92c-2.49-0.21-5.06,0.2-7.48,1.34c-7.33,3.46-10.47,12.2-7.02,19.53
			c3.76,7.98,10.84,14.05,17.83,18.42c-8.17-1.08-17.49-0.9-25.47,2.86c-7.33,3.46-10.47,12.2-7.02,19.53
			c1.14,2.42,2.87,4.37,4.92,5.79c-0.21,2.49,0.2,5.06,1.34,7.48c3.46,7.33,12.2,10.47,19.53,7.02c3.58-1.69,6.77-4.04,9.6-6.76
			c-7.41,10.56-16.68,19.45-28.21,23.4c-1.27,0.43-1.88,1.87-1.28,3.07l4.34,8.74c0.52,1.04,1.75,1.51,2.82,1.07
			c14.76-6.04,24.6-22.15,30.68-38.57c0.04,5.68,0.96,11.49,3.43,16.72c3.46,7.33,12.2,10.47,19.53,7.02
			c2.42-1.14,4.37-2.87,5.79-4.92c2.49,0.21,5.06-0.2,7.48-1.34c7.33-3.46,10.47-12.2,7.02-19.53
			C93.63,70.23,86.55,64.16,79.57,59.79z"/>
		<path class="st1" d="M22.64,120c-1.19,0-2.33-0.66-2.89-1.79l-4.34-8.74c-0.41-0.82-0.44-1.79-0.09-2.64
			c0.35-0.86,1.06-1.53,1.95-1.83c8.17-2.8,15.84-8.41,22.87-16.72c-1.15,0.72-2.32,1.37-3.51,1.93c-7.82,3.69-17.18,0.32-20.86-7.5
			c-1.09-2.31-1.59-4.86-1.47-7.42c-2.05-1.53-3.7-3.55-4.79-5.85c-1.79-3.79-1.99-8.04-0.57-11.99c1.42-3.94,4.28-7.09,8.07-8.88
			c6.07-2.86,13.45-3.99,21.98-3.37c-6.97-4.94-11.95-10.51-14.81-16.58c-3.68-7.82-0.32-17.18,7.5-20.86
			c2.31-1.09,4.86-1.59,7.42-1.47c1.53-2.05,3.55-3.7,5.85-4.79c3.79-1.79,8.04-1.99,11.98-0.57C60.87,2.35,64.02,5.21,65.8,9
			c2.88,6.12,4.01,13.56,3.35,22.16c4.97-7.05,10.57-12.07,16.69-14.96c7.82-3.69,17.18-0.32,20.86,7.5
			c1.09,2.31,1.59,4.86,1.47,7.42c2.05,1.53,3.7,3.55,4.79,5.85c1.79,3.79,1.99,8.04,0.57,11.98c-1.42,3.94-4.28,7.09-8.07,8.88
			c-6.08,2.86-13.46,3.99-21.98,3.37c6.97,4.94,11.95,10.51,14.81,16.58c1.79,3.79,1.99,8.04,0.57,11.99
			c-1.42,3.94-4.28,7.09-8.07,8.88c-2.31,1.09-4.86,1.6-7.42,1.47c-1.53,2.05-3.55,3.7-5.86,4.79c-3.78,1.78-8.04,1.99-11.98,0.57
			s-7.09-4.28-8.88-8.07c-1.73-3.66-2.82-7.84-3.28-12.47c-5.54,13.37-14.85,28.81-29.54,34.82C23.45,119.92,23.04,120,22.64,120z
			 M45.11,81.83l1.51,1.3c-8.55,12.18-18.21,20.18-28.71,23.77c-0.34,0.12-0.61,0.37-0.75,0.7c-0.13,0.32-0.12,0.67,0.04,0.99
			l4.34,8.74c0.28,0.57,0.96,0.83,1.55,0.59c15.63-6.4,25.01-24.19,30.12-37.99l1.9-5.12l0.04,5.46c0.05,6.22,1.17,11.7,3.33,16.3
			c1.56,3.3,4.31,5.8,7.75,7.04c3.44,1.23,7.15,1.06,10.45-0.5c2.16-1.02,4.03-2.6,5.4-4.58l0.33-0.48l0.58,0.05
			c2.4,0.2,4.81-0.23,6.97-1.25c3.3-1.56,5.8-4.31,7.04-7.75c1.24-3.44,1.06-7.15-0.5-10.45c-3.14-6.67-9.02-12.72-17.45-18
			l-3.9-2.44l4.57,0.6c9.87,1.3,18.25,0.37,24.92-2.77c3.3-1.56,5.8-4.31,7.04-7.75c1.24-3.44,1.06-7.15-0.5-10.46
			c-1.02-2.16-2.6-4.03-4.58-5.4l-0.48-0.33l0.05-0.58c0.2-2.4-0.23-4.81-1.25-6.97c-3.22-6.82-11.39-9.76-18.2-6.54
			c-6.72,3.17-12.81,9.1-18.12,17.64l-2.47,3.97l0.62-4.63c1.34-9.96,0.42-18.42-2.75-25.14c-1.56-3.3-4.31-5.8-7.75-7.04
			c-3.44-1.23-7.15-1.06-10.46,0.5c-2.16,1.02-4.03,2.6-5.4,4.58l-0.33,0.48l-0.58-0.05c-2.39-0.2-4.81,0.23-6.97,1.25
			c-6.82,3.22-9.76,11.38-6.54,18.2c3.14,6.67,9.01,12.72,17.45,18l3.9,2.44l-4.56-0.6c-9.87-1.3-18.25-0.37-24.92,2.78
			c-6.82,3.21-9.76,11.38-6.54,18.2c1.02,2.16,2.6,4.03,4.58,5.4l0.48,0.33l-0.05,0.58c-0.2,2.4,0.23,4.81,1.25,6.97
			c3.22,6.82,11.38,9.75,18.2,6.54C39.01,86.88,42.15,84.66,45.11,81.83z"/>
	</g>
	<path class="st1" d="M25.4,72.77c-0.53,0-0.97-0.42-1-0.95c-0.03-0.55,0.4-1.02,0.95-1.04c5.28-0.24,29.28-9.68,32.35-17.19
		c-0.73-6.62-6.59-23.48-14.02-34.44c-0.31-0.46-0.19-1.08,0.27-1.39c0.46-0.31,1.08-0.19,1.39,0.27
		c7.81,11.53,13.73,28.79,14.38,35.61c0.01,0.15,0,0.29-0.05,0.43c-3.08,8.57-28.31,18.45-34.22,18.72
		C25.43,72.77,25.42,72.77,25.4,72.77z"/>
	<path class="st1" d="M77.75,91.58c-0.25,0-0.5-0.09-0.69-0.28C63.23,77.99,57.97,54.91,57.76,53.93c-0.07-0.31,0.01-0.64,0.22-0.88
		c5.22-5.97,27.65-13.56,39.31-13.33c0.55,0.01,0.99,0.47,0.98,1.02s-0.47,0.98-1.02,0.98C86.42,41.5,65.29,48.51,59.83,54
		c0.86,3.48,6.33,24.03,18.62,35.86c0.4,0.38,0.41,1.02,0.03,1.41C78.28,91.48,78.02,91.58,77.75,91.58z"/>
	<path class="st1" d="M46.6,83.15L45,81.95l0.52-0.69c3.83-5.04,10.91-14.35,12.16-27.1c-2.15-1.57-7.46-3.89-15.12-6.6l0.67-1.89
		c5.95,2.1,13.57,5.07,16.15,7.28l0.39,0.33l-0.04,0.51c-1.15,13.6-8.89,23.78-12.61,28.67L46.6,83.15z"/>
	<path class="st1" d="M59.67,54.05l-1.88-0.68c2.19-6.09,8.78-18.21,9.06-18.73l1.76,0.96C68.54,35.73,61.81,48.11,59.67,54.05z"/>
	<path class="st1" d="M79.09,60.67c-4.34-2.35-15.61-5.64-20.43-5.96l0.13-2c5.12,0.34,16.64,3.7,21.24,6.2L79.09,60.67z"/>
	<path class="st1" d="M54.14,81.27c-0.05,0-0.1,0-0.15-0.01c-0.55-0.08-0.92-0.59-0.84-1.14c0.31-2.04,0.52-4.05,0.72-6
		c0.38-3.63,0.74-7.07,1.66-10.3c0.15-0.53,0.7-0.84,1.23-0.69c0.53,0.15,0.84,0.7,0.69,1.24c-0.87,3.07-1.22,6.42-1.59,9.96
		c-0.21,1.97-0.42,4-0.73,6.08C55.06,80.91,54.63,81.27,54.14,81.27z"/>
</g>
</svg>
