<?xml version="1.0" encoding="utf-8"?>
<!-- Generator: Adobe Illustrator 24.0.3, SVG Export Plug-In . SVG Version: 6.00 Build 0)  -->
<svg version="1.1" id="Layer_1" xmlns="http://www.w3.org/2000/svg" xmlns:xlink="http://www.w3.org/1999/xlink" x="0px" y="0px"
	 viewBox="0 0 120 120" style="enable-background:new 0 0 120 120;" xml:space="preserve">
<style type="text/css">
	.st0{fill:#EAB6E1;}
	.st1{fill:#243038;}
	.st2{fill:#DB80CB;}
	.st3{fill:#FFFFFF;}
</style>
<g>
	<g>
		<path class="st0" d="M94.53,109.68c-22.84,16.06-56.17,8.15-74.31-17.64C7.99,74.66,8.61,59.7,11.92,48.43l-1.32-0.82
			c-4.57-2.84-5.97-8.86-3.13-13.43c2.84-4.57,8.86-5.97,13.43-3.13l8.05,5.01c4.1,2.55,5.72,7.73,3.79,12.16
			c-3.87,8.9-6.13,19.01,3.44,32.61c11.95,16.99,33.1,22.78,47.15,12.91S99.06,62,87.11,45c-9.56-13.59-19.84-14.89-29.52-14.26
			c-4.82,0.31-9.15-2.95-10.16-7.68l-1.99-9.27C44.3,8.54,47.65,3.35,52.91,2.22c5.26-1.13,10.45,2.22,11.58,7.48l0.34,1.57
			c20.84,1.37,31.69,13.22,38.23,22.51C121.2,59.57,117.37,93.62,94.53,109.68z"/>
		<path class="st1" d="M54.97,2c4.5,0,8.54,3.13,9.52,7.7l0.34,1.57c20.84,1.37,31.69,13.22,38.23,22.51
			c18.14,25.79,14.31,59.84-8.53,75.9c-8.01,5.63-17.31,8.32-26.79,8.32c-17.56,0-35.75-9.21-47.52-25.95
			C7.99,74.66,8.61,59.7,11.92,48.43l-1.32-0.82c-4.57-2.84-5.97-8.86-3.13-13.43c1.85-2.97,5.03-4.6,8.29-4.6
			c1.76,0,3.54,0.48,5.14,1.47l8.05,5.01c4.1,2.55,5.72,7.73,3.79,12.16c-3.87,8.9-6.13,19.01,3.44,32.61
			c8,11.37,20.12,17.73,31.47,17.73c5.61,0,11.03-1.55,15.68-4.82C97.36,83.86,99.06,62,87.11,45
			c-8.39-11.92-17.33-14.38-25.93-14.38c-1.21,0-2.4,0.05-3.59,0.13c-0.21,0.01-0.43,0.02-0.64,0.02c-4.56,0-8.55-3.18-9.52-7.7
			l-1.99-9.27C44.3,8.54,47.65,3.35,52.91,2.22C53.6,2.07,54.29,2,54.97,2 M54.97,0L54.97,0c-0.83,0-1.66,0.09-2.48,0.26
			c-6.33,1.36-10.38,7.62-9.01,13.96l1.99,9.27c1.16,5.38,5.98,9.28,11.48,9.28c0.25,0,0.51-0.01,0.77-0.02
			c1.26-0.08,2.39-0.12,3.46-0.12c7.31,0,15.91,1.61,24.29,13.53c5.51,7.84,8.17,16.98,7.49,25.73c-0.67,8.61-4.51,15.79-10.8,20.22
			c-4.15,2.92-9.17,4.46-14.53,4.46c-11.08,0-22.51-6.47-29.83-16.88c-8.49-12.08-7.44-20.99-3.24-30.66
			c2.3-5.3,0.34-11.6-4.57-14.65l-8.05-5.01c-1.87-1.16-4.01-1.78-6.2-1.78c-4.09,0-7.82,2.07-9.98,5.54
			c-3.42,5.5-1.73,12.76,3.77,16.18l0.05,0.03c-4.03,15.17-1.07,29.54,9,43.86c11.8,16.78,30.18,26.8,49.16,26.8
			c10.2,0,19.86-3,27.94-8.68c11.52-8.1,18.79-20.79,20.47-35.71c1.67-14.84-2.4-30.1-11.45-42.97
			C98.28,23.51,87.38,11.3,66.47,9.39l-0.02-0.12C65.29,3.9,60.46,0,54.97,0L54.97,0z"/>
	</g>
	<path class="st2" d="M91.47,105.33c-20.44,14.38-50.45,7.04-66.9-16.35C12.2,71.4,14.43,56.58,18.29,46.14l-4.89-3.04
		c-2.08-1.29-2.71-4.03-1.42-6.1c1.29-2.08,4.03-2.71,6.1-1.42l8.05,5.01c1.86,1.16,2.6,3.51,1.72,5.53
		c-4.27,9.83-7.14,22,3.96,37.78c13.64,19.39,38.11,25.76,54.56,14.2s18.72-36.75,5.09-56.14c-11.1-15.78-23.53-17.2-34.22-16.51
		c-2.19,0.14-4.16-1.34-4.62-3.49l-1.99-9.27c-0.52-2.39,1-4.75,3.4-5.26c2.39-0.51,4.75,1.01,5.26,3.4l1.21,5.63
		c11.13-0.11,25.83,2.81,38.2,20.4C115.16,60.23,111.91,90.96,91.47,105.33z"/>
	<g>
		<circle class="st3" cx="88.58" cy="101.95" r="6.27"/>
		<path class="st1" d="M88.59,109.22c-2.29,0-4.54-1.08-5.96-3.08c-1.12-1.59-1.55-3.52-1.21-5.43c0.33-1.91,1.39-3.58,2.98-4.7
			c3.28-2.3,7.82-1.51,10.13,1.76l0,0c2.3,3.28,1.51,7.82-1.76,10.13C91.49,108.79,90.03,109.22,88.59,109.22z M88.57,96.68
			c-1.05,0-2.1,0.31-3.02,0.96c-1.15,0.81-1.92,2.02-2.16,3.41c-0.24,1.39,0.07,2.78,0.88,3.94c1.67,2.38,4.97,2.95,7.34,1.28
			c2.38-1.67,2.95-4.96,1.28-7.34l0,0C91.86,97.46,90.23,96.68,88.57,96.68z"/>
	</g>
	<g>
		<circle class="st3" cx="103.49" cy="80.7" r="6.27"/>
		<path class="st1" d="M103.5,87.97c-2.29,0-4.54-1.07-5.96-3.08c-2.31-3.28-1.51-7.82,1.76-10.13c1.59-1.12,3.52-1.55,5.43-1.21
			c1.91,0.33,3.58,1.39,4.7,2.98l0,0c2.31,3.28,1.51,7.82-1.76,10.13C106.4,87.54,104.95,87.97,103.5,87.97z M103.48,75.43
			c-1.08,0-2.12,0.33-3.02,0.96c-2.38,1.67-2.95,4.96-1.28,7.34c1.67,2.38,4.97,2.95,7.34,1.28s2.95-4.96,1.28-7.34l0,0
			c-0.81-1.15-2.02-1.92-3.41-2.16C104.09,75.46,103.78,75.43,103.48,75.43z"/>
	</g>
	<g>
		<circle class="st3" cx="101.97" cy="53.71" r="6.27"/>
		<path class="st1" d="M101.98,60.98c-2.29,0-4.54-1.08-5.96-3.08c-2.3-3.28-1.51-7.82,1.76-10.13c1.59-1.12,3.52-1.55,5.43-1.22
			c1.91,0.33,3.58,1.39,4.7,2.98s1.55,3.52,1.22,5.43c-0.33,1.91-1.39,3.58-2.98,4.7C104.88,60.55,103.42,60.98,101.98,60.98z
			 M101.96,48.44c-1.08,0-2.12,0.33-3.02,0.96c-2.38,1.67-2.95,4.96-1.28,7.34c1.67,2.38,4.96,2.95,7.34,1.28
			c1.15-0.81,1.92-2.02,2.16-3.41c0.24-1.39-0.07-2.78-0.88-3.94l0,0c-0.81-1.15-2.02-1.92-3.41-2.16
			C102.57,48.47,102.26,48.44,101.96,48.44z"/>
	</g>
	<g>
		<circle class="st3" cx="39.04" cy="97.97" r="6.27"/>
		<path class="st1" d="M39.06,105.24c-0.42,0-0.84-0.04-1.26-0.11c-1.91-0.33-3.58-1.39-4.7-2.98c-1.12-1.59-1.55-3.52-1.22-5.43
			c0.33-1.91,1.39-3.58,2.98-4.7c1.59-1.12,3.52-1.55,5.43-1.21c1.91,0.33,3.58,1.39,4.7,2.98l0,0c2.31,3.28,1.51,7.82-1.76,10.13
			C41.99,104.78,40.54,105.24,39.06,105.24z M39.04,92.7c-1.05,0-2.1,0.31-3.02,0.96c-1.15,0.81-1.92,2.02-2.16,3.41
			c-0.24,1.39,0.07,2.78,0.88,3.94s2.02,1.92,3.41,2.16c1.39,0.24,2.78-0.07,3.94-0.88c2.38-1.67,2.95-4.96,1.28-7.34l0,0
			C42.33,93.48,40.7,92.7,39.04,92.7z"/>
	</g>
	<g>
		<circle class="st3" cx="64.46" cy="108.15" r="6.27"/>
		<path class="st1" d="M64.47,115.42c-0.42,0-0.84-0.04-1.26-0.11c-1.91-0.33-3.58-1.39-4.7-2.98c-2.31-3.28-1.51-7.82,1.76-10.13
			c3.28-2.3,7.82-1.51,10.13,1.76l0,0c2.31,3.28,1.51,7.82-1.76,10.13C67.4,114.97,65.96,115.42,64.47,115.42z M64.45,102.88
			c-1.05,0-2.1,0.31-3.02,0.96c-2.38,1.67-2.95,4.96-1.28,7.34c0.81,1.15,2.02,1.92,3.41,2.16c1.39,0.24,2.78-0.07,3.94-0.88
			c2.38-1.67,2.95-4.96,1.28-7.34l0,0C67.74,103.66,66.11,102.88,64.45,102.88z"/>
	</g>
</g>
</svg>
