<?xml version="1.0" encoding="utf-8"?>
<!-- Generator: Adobe Illustrator 24.0.3, SVG Export Plug-In . SVG Version: 6.00 Build 0)  -->
<svg version="1.1" id="Layer_1" xmlns="http://www.w3.org/2000/svg" xmlns:xlink="http://www.w3.org/1999/xlink" x="0px" y="0px"
	 viewBox="0 0 120 120" style="enable-background:new 0 0 120 120;" xml:space="preserve">
<style type="text/css">
	.st0{fill:#243038;}
	.st1{fill:#F77276;}
	.st2{fill:#F6F7F6;}
	.st3{fill:#80CBF2;}
	.st4{fill:#E2CAA4;}
</style>
<g>
	<path class="st0" d="M70.19,102.57H51.11c-0.32,0-0.62-0.15-0.81-0.41L39.07,86.62l1.62-1.17l10.93,15.12h18.06l11-15.12l1.62,1.18
		L71,102.16C70.81,102.42,70.51,102.57,70.19,102.57z"/>
	<g>
		<path class="st1" d="M54.93,110.99c0,2.11-1.71,3.82-3.82,3.82s-3.82-1.71-3.82-3.82c0-2.11,3.82-6.61,3.82-6.61
			S54.93,108.88,54.93,110.99z"/>
		<path class="st0" d="M51.11,115.81c-2.66,0-4.82-2.16-4.82-4.82c0-2.36,3.38-6.46,4.06-7.26c0.38-0.45,1.14-0.45,1.52,0
			c0.68,0.8,4.06,4.9,4.06,7.26C55.93,113.65,53.77,115.81,51.11,115.81z M51.11,105.97c-1.35,1.74-2.82,4.01-2.82,5.02
			c0,1.56,1.27,2.82,2.82,2.82s2.82-1.27,2.82-2.82C53.93,109.99,52.46,107.71,51.11,105.97z"/>
	</g>
	<g>
		<path class="st1" d="M74.01,110.99c0,2.11-1.71,3.82-3.82,3.82c-2.11,0-3.82-1.71-3.82-3.82c0-2.11,3.82-6.61,3.82-6.61
			S74.01,108.88,74.01,110.99z"/>
		<path class="st0" d="M70.19,115.81c-2.66,0-4.82-2.16-4.82-4.82c0-2.36,3.38-6.46,4.06-7.26c0.38-0.45,1.14-0.45,1.52,0
			c0.68,0.8,4.06,4.9,4.06,7.26C75.01,113.65,72.85,115.81,70.19,115.81z M70.19,105.97c-1.35,1.74-2.82,4.01-2.82,5.02
			c0,1.56,1.27,2.82,2.82,2.82c1.56,0,2.82-1.27,2.82-2.82C73.01,109.99,71.54,107.71,70.19,105.97z"/>
	</g>
	<g>
		<path class="st2" d="M81.59,80.73c7.83-17.27,14.88-35.23,14.88-43.99C96.47,17,80.47,1,60.73,1C41,1,25,17,25,36.74
			c0,8.76,7.04,26.72,14.88,43.99H81.59z"/>
		<path class="st0" d="M81.59,81.73H39.88c-0.39,0-0.75-0.23-0.91-0.59C29.04,59.25,24,44.31,24,36.73C24,16.48,40.48,0,60.73,0
			s36.74,16.48,36.74,36.73c0,7.57-5.04,22.51-14.96,44.41C82.34,81.5,81.99,81.73,81.59,81.73z M40.52,79.73h40.43
			c9.5-21.02,14.52-35.88,14.52-42.99C95.47,17.58,79.89,2,60.73,2C41.58,2,26,17.58,26,36.73C26,43.85,31.02,58.71,40.52,79.73z"/>
	</g>
	<g>
		<path class="st3" d="M60.79,80.8V1.07c-9.95,4.62-18.17,20.6-18.17,38.66c0,14.69,9.09,41,9.09,41L60.79,80.8z"/>
		<path class="st0" d="M60.79,81.8C60.78,81.8,60.78,81.8,60.79,81.8l-9.09-0.08c-0.42,0-0.8-0.27-0.94-0.67
			c-0.37-1.08-9.14-26.64-9.14-41.33c0-17.6,8.06-34.6,18.75-39.56c0.31-0.14,0.67-0.12,0.96,0.06c0.29,0.18,0.46,0.5,0.46,0.84
			V80.8c0,0.27-0.11,0.52-0.3,0.71C61.3,81.7,61.05,81.8,60.79,81.8z M52.42,79.73l7.37,0.06V2.72c-9.31,5.46-16.17,20.94-16.17,37
			C43.61,52.79,51.02,75.55,52.42,79.73z"/>
	</g>
	<g>
		<path class="st3" d="M81.59,80.73c7.83-17.27,14.88-35.23,14.88-43.99c0-19.38-15.43-35.14-34.67-35.71v0.04
			c9.95,4.62,18.17,20.6,18.17,38.66c0,14.69-9.09,41-9.09,41H81.59z"/>
		<path class="st0" d="M81.59,81.73H70.89c-0.32,0-0.63-0.16-0.81-0.42c-0.19-0.26-0.24-0.6-0.13-0.91
			c0.09-0.26,9.03-26.33,9.03-40.68c0-16.87-7.56-33.1-17.59-37.75c-0.35-0.16-0.58-0.52-0.58-0.91c0-0.27,0.11-0.55,0.3-0.74
			c0.19-0.19,0.46-0.32,0.73-0.3c19.99,0.59,35.64,16.71,35.64,36.71c0,7.57-5.04,22.51-14.96,44.41
			C82.34,81.5,81.99,81.73,81.59,81.73z M72.28,79.73h8.67c9.5-21.02,14.52-35.88,14.52-42.99c0-17.52-12.71-31.9-29.61-34.35
			c8.83,6.73,15.11,21.81,15.11,37.34C80.97,52.7,74.14,74.15,72.28,79.73z"/>
	</g>
	<rect x="33.73" y="65.56" class="st0" width="54" height="2"/>
	<g>
		<path class="st4" d="M68.1,119H53.19c-1.15,0-2.08-0.93-2.08-2.08V102.3c0-1.15,0.93-2.08,2.08-2.08H68.1
			c1.15,0,2.08,0.93,2.08,2.08v14.62C70.19,118.07,69.25,119,68.1,119z"/>
		<path class="st0" d="M68.1,120H53.19c-1.7,0-3.08-1.38-3.08-3.08v-14.62c0-1.7,1.38-3.08,3.08-3.08H68.1
			c1.7,0,3.08,1.38,3.08,3.08v14.62C71.19,118.62,69.8,120,68.1,120z M53.19,101.21c-0.6,0-1.08,0.49-1.08,1.08v14.62
			c0,0.6,0.49,1.08,1.08,1.08H68.1c0.6,0,1.08-0.49,1.08-1.08v-14.62c0-0.6-0.49-1.08-1.08-1.08H53.19z"/>
	</g>
	<rect x="51.11" y="103.38" class="st0" width="19.08" height="2"/>
	<rect x="51.11" y="113.77" class="st0" width="19.08" height="2"/>
	
		<rect x="65.03" y="111.88" transform="matrix(0.7071 -0.7071 0.7071 0.7071 -59.8866 81.1797)" class="st0" width="6.05" height="2"/>
	
		<rect x="58.61" y="109.22" transform="matrix(0.7071 -0.7071 0.7071 0.7071 -58.7853 78.521)" class="st0" width="13.57" height="2"/>
	
		<rect x="53.07" y="108.7" transform="matrix(0.7071 -0.7071 0.7071 0.7071 -59.8221 74.977)" class="st0" width="15.04" height="2"/>
	
		<rect x="49.14" y="108.13" transform="matrix(0.7071 -0.7071 0.7071 0.7071 -60.8063 71.4545)" class="st0" width="13.42" height="2"/>
	
		<rect x="50.24" y="105.47" transform="matrix(0.7071 -0.7071 0.7071 0.7071 -59.705 68.7958)" class="st0" width="5.9" height="2"/>
	<g>
		<rect x="39.88" y="80.73" class="st3" width="41.61" height="5.31"/>
		<path class="st0" d="M81.48,87.04h-41.6c-0.55,0-1-0.45-1-1v-5.31c0-0.55,0.45-1,1-1h41.6c0.55,0,1,0.45,1,1v5.31
			C82.48,86.59,82.03,87.04,81.48,87.04z M40.88,85.04h39.6v-3.31h-39.6V85.04z"/>
	</g>
	
		<rect x="52.78" y="85.74" transform="matrix(0.9597 -0.281 0.281 0.9597 -24.0034 18.8651)" class="st0" width="2" height="14.77"/>
	
		<rect x="60.67" y="92.12" transform="matrix(0.2812 -0.9597 0.9597 0.2812 -40.4519 132.246)" class="st0" width="14.77" height="2"/>
</g>
</svg>
