<?xml version="1.0" encoding="utf-8"?>
<!-- Generator: Adobe Illustrator 24.0.3, SVG Export Plug-In . SVG Version: 6.00 Build 0)  -->
<svg version="1.1" id="Layer_1" xmlns="http://www.w3.org/2000/svg" xmlns:xlink="http://www.w3.org/1999/xlink" x="0px" y="0px"
	 viewBox="0 0 120 120" style="enable-background:new 0 0 120 120;" xml:space="preserve">
<style type="text/css">
	.st0{fill:#41B2EC;}
	.st1{fill:#243038;}
	.st2{fill:#9AD6F5;}
	.st3{fill:#FFD970;}
	.st4{fill:#FFF7E0;}
</style>
<g>
	<g>
		<polygon class="st0" points="3,1 50.46,95.85 70.13,86 27.6,1 		"/>
		<path class="st1" d="M50.46,96.85c-0.11,0-0.21-0.02-0.32-0.05c-0.25-0.08-0.46-0.26-0.58-0.5L2.11,1.45
			C1.95,1.14,1.97,0.77,2.15,0.47S2.65,0,3,0h24.6c0.38,0,0.72,0.21,0.89,0.55l42.53,85c0.12,0.24,0.14,0.51,0.05,0.76
			c-0.08,0.25-0.26,0.46-0.5,0.58l-19.67,9.84C50.77,96.81,50.61,96.85,50.46,96.85z M4.62,2l46.29,92.5l17.89-8.95L26.98,2H4.62z"
			/>
	</g>
	<g>
		<polygon class="st2" points="92.99,1 50.46,86 70.13,95.85 117.59,1 		"/>
		<path class="st1" d="M70.13,96.85c-0.15,0-0.31-0.04-0.45-0.11L50.01,86.9c-0.49-0.25-0.69-0.85-0.45-1.34l42.53-85
			C92.27,0.21,92.61,0,92.99,0h24.6c0.35,0,0.67,0.18,0.85,0.47c0.18,0.29,0.2,0.66,0.04,0.97L71.03,96.29
			c-0.12,0.24-0.33,0.42-0.58,0.5C70.35,96.83,70.24,96.85,70.13,96.85z M51.8,85.55l17.89,8.95L115.97,2H93.61L51.8,85.55z"/>
	</g>
	<g>
		<g>
			<circle class="st3" cx="60.3" cy="90.92" r="28.74"/>
			<path class="st1" d="M60.3,120.66c-16.4,0-29.74-13.34-29.74-29.74S43.9,61.19,60.3,61.19s29.74,13.34,29.74,29.74
				S76.69,120.66,60.3,120.66z M60.3,63.19c-15.29,0-27.74,12.44-27.74,27.74S45,118.66,60.3,118.66s27.74-12.44,27.74-27.74
				S75.59,63.19,60.3,63.19z"/>
		</g>
		<g>
			<polygon class="st4" points="60.3,99.88 71.44,106.26 68.95,93.59 78.33,85.07 65.64,83.42 60.3,71.97 54.95,83.42 42.26,85.07 
				51.64,93.59 49.15,106.26 			"/>
			<path class="st1" d="M47.75,108.22l2.8-14.27l-10.56-9.6l14.28-1.86L60.3,69.6l6.02,12.89l14.28,1.86l-10.56,9.6l2.8,14.27
				l-12.55-7.19L47.75,108.22z M60.3,98.73l9.74,5.58l-2.17-11.07l8.2-7.45l-11.09-1.44L60.3,74.33l-4.67,10.01l-11.09,1.44
				l8.2,7.45l-2.18,11.07L60.3,98.73z"/>
		</g>
	</g>
</g>
</svg>
