<?xml version="1.0" encoding="utf-8"?>
<!-- Generator: Adobe Illustrator 24.0.3, SVG Export Plug-In . SVG Version: 6.00 Build 0)  -->
<svg version="1.1" id="Layer_1" xmlns="http://www.w3.org/2000/svg" xmlns:xlink="http://www.w3.org/1999/xlink" x="0px" y="0px"
	 viewBox="0 0 120 120" style="enable-background:new 0 0 120 120;" xml:space="preserve">
<style type="text/css">
	.st0{fill:#60717E;}
	.st1{fill:#243038;}
	.st2{fill:#FFFFFF;}
	.st3{fill:#9DBF71;}
</style>
<g>
	<path class="st0" d="M30.23,98.09C17.02,99.1,11,109.06,11,114.16c0,5.1,8.72,4.81,8.72,4.81c6.82,0,44.7,0,44.7,0L30.23,98.09z"/>
	<path class="st1" d="M19.43,119.98c-1.18,0-5.67-0.15-7.99-2.4c-0.96-0.92-1.44-2.07-1.44-3.42c0-5.24,6.09-15.99,20.16-17.07
		l0.32-0.02l0.28,0.17l37.22,22.74H19.72C19.69,119.97,19.59,119.98,19.43,119.98z M29.99,99.11C17.44,100.22,12,109.58,12,114.16
		c0,0.79,0.27,1.44,0.83,1.98c1.68,1.63,5.52,1.87,6.85,1.84l41.18,0L29.99,99.11z"/>
</g>
<g>
	<ellipse class="st2" cx="64.42" cy="85.85" rx="37.74" ry="33.12"/>
	<path class="st1" d="M64.42,119.97c-21.36,0-38.74-15.31-38.74-34.12s17.38-34.12,38.74-34.12s38.74,15.31,38.74,34.12
		S85.78,119.97,64.42,119.97z M64.42,53.73c-20.26,0-36.74,14.41-36.74,32.12c0,17.71,16.48,32.12,36.74,32.12
		c20.26,0,36.74-14.41,36.74-32.12C101.16,68.14,84.68,53.73,64.42,53.73z"/>
</g>
<g>
	<g>
		<circle class="st0" cx="37.31" cy="14.06" r="13.06"/>
		<path class="st1" d="M37.31,28.12c-7.75,0-14.06-6.31-14.06-14.06C23.25,6.31,29.56,0,37.31,0c7.75,0,14.06,6.31,14.06,14.06
			C51.38,21.82,45.07,28.12,37.31,28.12z M37.31,2c-6.65,0-12.06,5.41-12.06,12.06s5.41,12.06,12.06,12.06s12.06-5.41,12.06-12.06
			S43.97,2,37.31,2z"/>
	</g>
	<g>
		<circle class="st0" cx="91.52" cy="14.06" r="13.06"/>
		<path class="st1" d="M91.52,28.12c-7.75,0-14.06-6.31-14.06-14.06C77.46,6.31,83.77,0,91.52,0c7.75,0,14.06,6.31,14.06,14.06
			C105.58,21.82,99.27,28.12,91.52,28.12z M91.52,2c-6.65,0-12.06,5.41-12.06,12.06s5.41,12.06,12.06,12.06
			c6.65,0,12.06-5.41,12.06-12.06S98.17,2,91.52,2z"/>
	</g>
</g>
<g>
	<path class="st3" d="M41.24,101.95l15.57-10.91c0.67,0.41,1.55,0.42,2.24-0.07c0.92-0.65,1.14-1.92,0.5-2.84l-2-2.85
		c-0.65-0.92-1.92-1.14-2.84-0.5c-0.69,0.48-0.98,1.31-0.82,2.08L38.32,97.78c-0.67-0.41-1.55-0.42-2.24,0.07
		c-0.92,0.65-1.14,1.92-0.5,2.84l2,2.85c0.65,0.92,1.92,1.14,2.84,0.5C41.1,103.55,41.4,102.72,41.24,101.95z"/>
	<path class="st1" d="M39.25,105.4c-0.96,0-1.9-0.45-2.49-1.29l-2-2.85c-0.47-0.66-0.64-1.47-0.5-2.27c0.14-0.8,0.58-1.49,1.25-1.96
		c0.8-0.56,1.8-0.69,2.7-0.39l14.64-10.26c0.02-0.95,0.49-1.85,1.29-2.41c0.66-0.47,1.47-0.65,2.27-0.5c0.8,0.14,1.5,0.58,1.96,1.25
		l2,2.85c0.96,1.37,0.63,3.27-0.74,4.23c-0.8,0.56-1.81,0.69-2.7,0.39l-14.63,10.26c-0.02,0.95-0.49,1.85-1.29,2.41
		C40.46,105.22,39.85,105.4,39.25,105.4z M37.25,98.48c-0.21,0-0.42,0.06-0.59,0.19c-0.23,0.16-0.38,0.4-0.43,0.67
		c-0.05,0.27,0.01,0.55,0.17,0.77l2,2.85c0.33,0.47,0.98,0.58,1.44,0.25c0.34-0.24,0.5-0.65,0.42-1.06l-0.13-0.64l16.65-11.67
		l0.56,0.34c0.35,0.22,0.8,0.21,1.14-0.03c0.47-0.33,0.58-0.98,0.25-1.45l-2-2.85c-0.16-0.23-0.4-0.38-0.67-0.43
		c-0.27-0.05-0.55,0.01-0.77,0.17c-0.34,0.24-0.5,0.65-0.42,1.06L55,87.31L38.35,98.98l-0.56-0.34
		C37.62,98.53,37.44,98.48,37.25,98.48z"/>
</g>
<g>
	<path class="st0" d="M45.48,57.2C24.25,55.32,4.1,75.36,37.42,99.48c12.91,8.39,18.5,0.38,13.03-9.38S40.03,71.82,39.17,61.23
		L45.48,57.2z"/>
	<path class="st1" d="M46.85,104.01c-2.79,0-6.21-1.24-9.98-3.69c-19.75-14.3-19.24-25.67-17.19-31.18
		c3.19-8.54,14.07-13.98,25.89-12.93l2.92,0.26l-8.27,5.28c0.94,9.76,5.42,17.74,10.58,26.95l0.51,0.91
		c2.88,5.14,2.96,10.12,0.2,12.71C50.31,103.45,48.72,104.01,46.85,104.01z M42.25,58.08c-9.66,0.12-18.09,4.79-20.69,11.76
		C19.7,74.81,19.36,85.18,38,98.67c5.34,3.47,9.89,4.3,12.14,2.19c2.03-1.9,1.8-6.03-0.57-10.27l-0.51-0.91
		c-5.39-9.6-10.04-17.89-10.88-28.36l-0.05-0.6L42.25,58.08z"/>
</g>
<g>
	<path class="st0" d="M69.23,84.32c3.55-7.41,15.58-6.77,10.25-19.06c-3.04-7,11.16-9.48,11.16-9.48s10.38,1.26,13.51,9.15
		s4.86,26.89-20.29,26.85C66.35,91.75,69.23,84.32,69.23,84.32z"/>
	<path class="st1" d="M83.95,92.78c-0.03,0-0.06,0-0.09,0c-7.88-0.01-12.9-1.51-14.9-4.44c-1.49-2.18-0.69-4.29-0.66-4.38l0.03-0.07
		c1.39-2.89,3.96-4.66,6.23-6.22c3.97-2.73,7.1-4.88,4.01-12c-0.72-1.65-0.68-3.23,0.1-4.69c2.41-4.48,11.42-6.11,11.8-6.17
		l0.15-0.03l0.15,0.02c0.45,0.05,11.01,1.42,14.32,9.77c2.13,5.38,3.12,13.88-1.13,20.12C100.3,90.05,93.57,92.78,83.95,92.78z
		 M70.16,84.7c-0.06,0.21-0.36,1.34,0.48,2.55c0.92,1.31,3.86,3.51,13.23,3.53c0.03,0,0.06,0,0.08,0c8.92,0,15.09-2.43,18.35-7.22
		c3.81-5.6,2.88-13.33,0.92-18.26c-2.68-6.76-11.35-8.32-12.56-8.5c-2.45,0.46-8.64,2.17-10.23,5.12c-0.49,0.91-0.5,1.87-0.03,2.94
		c3.75,8.64-0.55,11.59-4.71,14.45C73.54,80.79,71.32,82.32,70.16,84.7z"/>
</g>
<g>
	<path class="st2" d="M79.48,65.26H49.36c-13.36,0-23.52-11.99-21.33-25.17l1.57-9.47c1.88-11.3,11.65-19.59,23.11-19.59H76.6
		c11.89,0,21.9,8.91,23.27,20.72l1.09,9.38C102.46,53.99,92.41,65.26,79.48,65.26z"/>
	<path class="st1" d="M79.48,66.26H49.36c-6.66,0-12.95-2.91-17.26-8c-4.31-5.08-6.15-11.77-5.06-18.34l1.57-9.47
		c1.97-11.83,12.1-20.42,24.1-20.42H76.6c12.4,0,22.83,9.29,24.27,21.61l1.09,9.38c0.75,6.41-1.29,12.84-5.58,17.66
		C92.09,63.5,85.93,66.26,79.48,66.26z M52.71,12.03c-11.02,0-20.32,7.89-22.13,18.75l-1.57,9.47c-1,5.99,0.69,12.08,4.61,16.72
		c3.93,4.63,9.66,7.29,15.74,7.29h30.12c5.88,0,11.49-2.52,15.4-6.91c3.91-4.39,5.76-10.26,5.08-16.1l-1.09-9.38
		C97.56,20.56,87.98,12.03,76.6,12.03H52.71z"/>
</g>
<g>
	<path class="st3" d="M63.16,86.58l15.57-10.91c0.67,0.41,1.55,0.42,2.24-0.07c0.92-0.65,1.14-1.92,0.5-2.84l-2-2.85
		c-0.65-0.92-1.92-1.14-2.84-0.5c-0.69,0.48-0.98,1.31-0.82,2.08L60.24,82.41C59.57,82,58.69,82,58,82.48
		c-0.92,0.65-1.14,1.92-0.5,2.84l2,2.85c0.65,0.92,1.92,1.14,2.84,0.5C63.03,88.18,63.32,87.35,63.16,86.58z"/>
	<path class="st1" d="M61.17,90.03c-0.96,0-1.9-0.45-2.49-1.29l-2-2.85c-0.47-0.66-0.64-1.47-0.5-2.27c0.14-0.8,0.58-1.5,1.25-1.96
		c0.8-0.56,1.8-0.69,2.7-0.39L74.77,71c0.02-0.95,0.49-1.85,1.29-2.41c0.66-0.46,1.47-0.64,2.27-0.5c0.8,0.14,1.5,0.58,1.96,1.25
		l2,2.85c0.47,0.66,0.64,1.47,0.5,2.27c-0.14,0.8-0.58,1.5-1.25,1.96c-0.8,0.56-1.8,0.69-2.71,0.39L64.21,87.07
		c-0.02,0.95-0.49,1.85-1.29,2.41C62.38,89.85,61.78,90.03,61.17,90.03z M59.17,83.11c-0.21,0-0.41,0.06-0.59,0.19
		c-0.23,0.16-0.38,0.4-0.43,0.67c-0.05,0.27,0.01,0.55,0.17,0.77l2,2.85c0.33,0.47,0.97,0.58,1.44,0.25
		c0.34-0.24,0.5-0.65,0.42-1.06l-0.13-0.64L78.7,74.47l0.56,0.34c0.36,0.22,0.8,0.2,1.14-0.03c0.23-0.16,0.38-0.4,0.43-0.67
		c0.05-0.27-0.01-0.55-0.17-0.77l-2-2.85c-0.16-0.23-0.4-0.38-0.67-0.43c-0.27-0.05-0.55,0.01-0.77,0.17
		c-0.34,0.24-0.5,0.65-0.42,1.06l0.13,0.64L60.28,83.61l-0.56-0.34C59.55,83.16,59.36,83.11,59.17,83.11z"/>
</g>
<g>
	<path class="st3" d="M85.13,71.18l15.57-10.91c0.67,0.41,1.55,0.42,2.24-0.07c0.92-0.65,1.14-1.92,0.5-2.84l-2-2.85
		c-0.65-0.92-1.92-1.14-2.84-0.5c-0.69,0.48-0.98,1.31-0.82,2.08L82.21,67.01c-0.67-0.41-1.55-0.42-2.24,0.07
		c-0.92,0.65-1.14,1.92-0.5,2.84l2,2.85c0.65,0.92,1.92,1.14,2.84,0.5C84.99,72.78,85.29,71.95,85.13,71.18z"/>
	<path class="st1" d="M83.14,74.63c-0.96,0-1.9-0.45-2.49-1.29l-2-2.85c-0.46-0.66-0.64-1.47-0.5-2.27c0.14-0.8,0.58-1.5,1.25-1.96
		c0.8-0.56,1.8-0.69,2.7-0.39l14.64-10.26c0.02-0.95,0.49-1.85,1.29-2.41c0.66-0.46,1.47-0.65,2.27-0.5c0.8,0.14,1.5,0.58,1.96,1.25
		l2,2.85c0.96,1.37,0.63,3.27-0.74,4.23c-0.8,0.56-1.8,0.69-2.7,0.39L86.17,71.67c-0.02,0.95-0.49,1.85-1.29,2.41
		C84.35,74.45,83.74,74.63,83.14,74.63z M81.14,67.71c-0.21,0-0.41,0.06-0.59,0.19c-0.23,0.16-0.38,0.4-0.43,0.67
		c-0.05,0.27,0.01,0.55,0.17,0.77l2,2.85c0.33,0.47,0.98,0.58,1.45,0.25c0.34-0.24,0.5-0.65,0.42-1.06l-0.13-0.64l16.65-11.67
		l0.56,0.34c0.35,0.22,0.8,0.2,1.14-0.03c0.47-0.33,0.58-0.98,0.25-1.45l-2-2.85c-0.16-0.23-0.4-0.38-0.67-0.43
		c-0.27-0.05-0.55,0.01-0.77,0.17c-0.34,0.24-0.5,0.65-0.42,1.06l0.13,0.64L82.24,68.21l-0.56-0.34
		C81.52,67.76,81.33,67.71,81.14,67.71z"/>
</g>
<g>
	<path class="st3" d="M57.26,62.7c10-1.92,15.69,4.17,17.14,8.76C66.26,75.13,60.56,70.1,57.26,62.7z"/>
	<path class="st1" d="M69.17,73.69c-1.32,0-2.6-0.24-3.84-0.7c-3.61-1.38-6.72-4.79-8.98-9.88l-0.51-1.15l1.24-0.24
		c10.58-2.03,16.73,4.53,18.28,9.44l0.27,0.85l-0.81,0.37C72.87,73.25,70.98,73.69,69.17,73.69z M58.74,63.48
		c1.49,2.97,3.86,6.32,7.31,7.64c2.16,0.82,4.54,0.75,7.09-0.21C71.48,67.03,66.67,62.5,58.74,63.48z"/>
</g>
<g>
	<g>
		<g>
			<circle class="st0" cx="49.47" cy="32.63" r="12.05"/>
			<path class="st1" d="M49.47,45.68c-7.2,0-13.05-5.86-13.05-13.05c0-7.2,5.86-13.05,13.05-13.05s13.05,5.86,13.05,13.05
				C62.52,39.82,56.67,45.68,49.47,45.68z M49.47,21.57c-6.09,0-11.05,4.96-11.05,11.05s4.96,11.05,11.05,11.05
				s11.05-4.96,11.05-11.05S55.56,21.57,49.47,21.57z"/>
		</g>
		<g>
			<circle class="st2" cx="50.44" cy="35.87" r="3.57"/>
			<path class="st1" d="M50.44,40.44c-2.52,0-4.57-2.05-4.57-4.57c0-2.52,2.05-4.57,4.57-4.57c2.52,0,4.57,2.05,4.57,4.57
				C55.01,38.39,52.96,40.44,50.44,40.44z M50.44,33.3c-1.42,0-2.57,1.15-2.57,2.57c0,1.42,1.15,2.57,2.57,2.57
				c1.42,0,2.57-1.15,2.57-2.57C53.01,34.46,51.86,33.3,50.44,33.3z"/>
		</g>
	</g>
	<g>
		<g>
			<circle class="st0" cx="79.36" cy="32.63" r="12.05"/>
			<path class="st1" d="M79.36,45.68c-7.2,0-13.05-5.86-13.05-13.05c0-7.2,5.86-13.05,13.05-13.05c7.2,0,13.05,5.86,13.05,13.05
				C92.42,39.82,86.56,45.68,79.36,45.68z M79.36,21.57c-6.09,0-11.05,4.96-11.05,11.05s4.96,11.05,11.05,11.05
				s11.05-4.96,11.05-11.05S85.46,21.57,79.36,21.57z"/>
		</g>
		<g>
			<circle class="st2" cx="78.39" cy="35.87" r="3.57"/>
			<path class="st1" d="M78.39,40.44c-2.52,0-4.57-2.05-4.57-4.57c0-2.52,2.05-4.57,4.57-4.57s4.57,2.05,4.57,4.57
				C82.96,38.39,80.91,40.44,78.39,40.44z M78.39,33.3c-1.42,0-2.57,1.15-2.57,2.57c0,1.42,1.15,2.57,2.57,2.57
				c1.42,0,2.57-1.15,2.57-2.57C80.96,34.46,79.81,33.3,78.39,33.3z"/>
		</g>
	</g>
</g>
<path class="st1" d="M62.62,54.63l-4.14-3.7c-1.85-1.66-0.68-4.73,1.8-4.73h8.28c2.49,0,3.66,3.07,1.8,4.73l-4.14,3.7
	C65.19,55.55,63.64,55.55,62.62,54.63z"/>
<g>
	<path class="st0" d="M64.42,118.97c-7.25-7.63-1.14-16.85,4.64-18.77c5.78-1.92,27.14-4.5,32.06-6.61s4.83,24.36-8.23,24.36
		S64.42,118.97,64.42,118.97z"/>
	<path class="st1" d="M64.01,120l-0.32-0.34c-3.07-3.23-4.22-7.18-3.23-11.13c1.05-4.19,4.45-8.01,8.28-9.28
		c2.74-0.91,8.67-1.93,14.95-3.01c7.12-1.22,14.49-2.49,17.03-3.58c0.9-0.39,1.83-0.21,2.55,0.5c2.51,2.47,2.46,11.36-0.1,17.61
		c-2.15,5.27-5.81,8.17-10.28,8.17c-12.87,0-28.24,1-28.4,1.01L64.01,120z M101.64,94.47c-0.04,0-0.09,0.02-0.14,0.04
		c-2.76,1.18-10.24,2.47-17.48,3.71c-5.93,1.02-12.06,2.07-14.66,2.93c-2.71,0.9-5.98,3.89-6.97,7.87
		c-0.56,2.23-0.57,5.56,2.43,8.92c2.71-0.17,16.39-0.99,28.05-0.99c4.63,0,7.14-3.77,8.43-6.93c2.48-6.07,2.1-13.91,0.55-15.43
		C101.77,94.51,101.71,94.47,101.64,94.47z"/>
</g>
</svg>
