<?xml version="1.0" encoding="utf-8"?>
<!-- Generator: Adobe Illustrator 24.0.1, SVG Export Plug-In . SVG Version: 6.00 Build 0)  -->
<svg version="1.1" id="Layer_1" xmlns="http://www.w3.org/2000/svg" xmlns:xlink="http://www.w3.org/1999/xlink" x="0px" y="0px"
	 viewBox="0 0 120 120" style="enable-background:new 0 0 120 120;" xml:space="preserve">
<style type="text/css">
	.st0{display:none;fill:#EE2D77;}
	.st1{fill:#243038;}
	.st2{fill:#FFFFFF;}
</style>
<ellipse transform="matrix(0.6672 -0.7449 0.7449 0.6672 -113.0222 -201.3608)" class="st0" cx="-281.9" cy="25.8" rx="2.8" ry="2.2"/>
<ellipse transform="matrix(0.7449 -0.6672 0.6672 0.7449 -86.067 -173.4678)" class="st0" cx="-269.9" cy="25.8" rx="2.2" ry="2.8"/>
<g>
	<g>
		<path class="st1" d="M53.9,118.3c-11.1,0-20.1-9-20.1-20.1s9-20.1,20.1-20.1c11.1,0,20.1,9,20.1,20.1S64.9,118.3,53.9,118.3z
			 M53.9,79.7c-10.2,0-18.6,8.3-18.6,18.6s8.3,18.6,18.6,18.6c10.2,0,18.6-8.3,18.6-18.6S64.1,79.7,53.9,79.7z"/>
		
			<rect x="53.2" y="78.9" transform="matrix(0.7071 -0.7071 0.7071 0.7071 -53.6402 66.8908)" class="st1" width="1.5" height="38.6"/>
		
			<rect x="34.6" y="97.5" transform="matrix(0.7071 -0.7071 0.7071 0.7071 -53.6402 66.8908)" class="st1" width="38.6" height="1.5"/>
		
			<rect x="53.2" y="78.9" transform="matrix(0.2456 -0.9694 0.9694 0.2456 -54.5062 126.3539)" class="st1" width="1.5" height="38.6"/>
		
			<rect x="34.6" y="97.5" transform="matrix(0.2455 -0.9694 0.9694 0.2455 -54.5042 126.3637)" class="st1" width="38.6" height="1.5"/>
		
			<rect x="34.6" y="97.5" transform="matrix(0.9535 -0.3014 0.3014 0.9535 -27.0846 20.8149)" class="st1" width="38.6" height="1.5"/>
		
			<rect x="53.2" y="78.9" transform="matrix(0.9535 -0.3014 0.3014 0.9535 -27.0916 20.8223)" class="st1" width="1.5" height="38.6"/>
	</g>
	<path class="st1" d="M38.9,69.7c0,0-3.4,5,0,6.8s9.5,2.2,9.2,6.3c-0.2,4.1,0,18.5,0,18.5s0.5,4.8,6.3,4.8s6.5-5.4,6.5-5.4v-30
		L38.9,69.7z"/>
	<g>
		<path class="st2" d="M38.1,48.3c0,0-3.6,3.1-3.8,8.1c-0.2,5-0.8,15.2,6.3,16c7.1,0.8,16.5,1,17.6,0.8c1.1-0.2,10.7-2.2,11.2-9.6
			s2.7-15.8-3.1-17.5C60.6,44.5,38.1,48.3,38.1,48.3z"/>
		<path class="st1" d="M56.3,73.8c-3.4,0-10.3-0.2-15.8-0.9c-7.3-0.8-6.9-10.7-6.7-15.9l0-0.6c0.2-5.1,3.8-8.3,4-8.5l0.1-0.1l0.1,0
			c0.9-0.2,22.6-3.8,28.5-2.1c5.2,1.5,4.5,7.8,3.8,14c-0.1,1.3-0.3,2.7-0.4,4c-0.5,8.2-11.6,10-11.7,10.1
			C58.1,73.8,57.4,73.8,56.3,73.8z M38.4,48.8c-0.6,0.5-3.4,3.4-3.5,7.6l0,0.6c-0.2,4.9-0.5,14.2,5.9,14.9c7,0.8,16.4,1,17.5,0.8
			c0.1,0,10.3-1.7,10.8-9.1c0.1-1.3,0.2-2.7,0.4-4c0.6-6,1.2-11.7-3.1-12.9C60.9,45.1,40.3,48.5,38.4,48.8z"/>
	</g>
	<g>
		<path class="st1" d="M44.2,18.9c0,0-1.6-0.6-3.2,1.5s-7.8,16.8-7.8,16.8s-3.2,5.6,1.4,10.3s7.3,6.8,7.3,6.8s3.6,5.5,7.1,1.2
			c1.5-1.9,2.5-3.2,2.5-3.2s1-1.2,2.6-0.1s12.8,10.2,16.2,3c3.5-7.2,1.7-8.9,1.7-8.9S82.4,50,86.4,43c4.1-6.9-1.5-11.8-3.3-11.1
			c-1.9,0.6-2.6,2.2-4.3,1.7c-1.7-0.5-3.1-4.8-3.6-7.6c-0.5-2.7-2-7.5-5.8-7.3S44.2,18.9,44.2,18.9z"/>
		<path class="st2" d="M86.4,41.4c-0.7,0-1.3-0.3-1.6-0.5c-5.2-3.4-3.8-5.9-3.7-6c0.1-0.2,0.4-0.3,0.7-0.2c0.2,0.1,0.3,0.4,0.2,0.7
			c0,0.1-0.8,1.8,3.4,4.7c0.1,0,1.1,0.8,1.9,0c0.2-0.2,2.2-1.8,2.4-1.6c0.2,0.2-1.5,2.2-1.7,2.3C87.5,41.2,86.9,41.4,86.4,41.4z"/>
		<path class="st2" d="M50.8,54.7c-0.1,0-0.2,0-0.3-0.1c-0.2-0.2-0.2-0.5-0.1-0.7c2.1-2.5,3-4.7,2.8-6.7c-0.2-1.9-1.5-2.8-1.6-2.8
			c-1.3-1.2-2.5-2.3-3.5-3.4c-4.8-4.9-1.5-10.8-1.4-10.9c0.1-0.2,0.4-0.3,0.7-0.2c0.2,0.1,0.3,0.4,0.2,0.7c-0.1,0.2-3,5.3,1.3,9.7
			c1,1.1,2.2,2.2,3.4,3.3c0,0,1.6,1.2,1.9,3.5c0.3,2.3-0.7,4.8-3,7.5C51.1,54.6,50.9,54.7,50.8,54.7z"/>
	</g>
	<g>
		<ellipse transform="matrix(0.7685 -0.6398 0.6398 0.7685 6.2815 30.2049)" class="st1" cx="44.9" cy="6.4" rx="4.7" ry="3.4"/>
		<ellipse transform="matrix(0.6398 -0.7685 0.7685 0.6398 18.2557 51.7948)" class="st1" cx="64.4" cy="6.4" rx="3.4" ry="4.7"/>
		<g>
			<g>
				<path class="st2" d="M42.8,15.3c0,0-2,2.5,2.2,4c4.2,1.5,12.9,5.4,17.8,4.7c5-0.7,6.4-3.6,6.4-4.3s-1.5-2.1-1.1-5.1
					c0.7-4.4-1.1-6.4-3.1-7.4c-2-1-0.2-1.7-3.1-2.9c-3.6-1.5-6.1-2.1-8.6-1.6c-4.2,0.9-8.7,4.2-9.7,10.3
					C43.6,14.1,42.8,15.3,42.8,15.3z"/>
				<path class="st1" d="M61.6,24.5c-4.1,0-9.7-2.2-13.9-3.8c-1-0.4-2-0.8-2.8-1c-1.7-0.6-2.6-1.4-2.9-2.4c-0.3-1.1,0.3-2.1,0.5-2.3
					c0.1-0.2,0.7-1.2,0.8-2.1c1.1-6.6,6.1-9.9,10.1-10.7c2.7-0.6,5.2,0.1,8.9,1.6c1.7,0.7,2,1.3,2.3,2c0.1,0.3,0.2,0.6,0.9,0.9
					c1.9,1,4.1,3.1,3.3,8c-0.3,2,0.3,3.2,0.7,4c0.2,0.4,0.4,0.7,0.4,1c0,1-1.7,4-6.9,4.8C62.5,24.5,62.1,24.5,61.6,24.5z M43.2,15.6
					c0,0-0.5,0.7-0.3,1.4c0.2,0.7,1,1.3,2.3,1.8c0.8,0.3,1.7,0.6,2.8,1.1c4.3,1.7,10.9,4.2,14.8,3.6c4.8-0.7,6-3.4,6-3.8
					c0-0.1-0.1-0.4-0.3-0.6c-0.4-0.9-1.2-2.3-0.8-4.6c0.5-3.4-0.4-5.7-2.8-6.9c-1-0.5-1.2-1-1.4-1.5c-0.1-0.4-0.3-0.8-1.7-1.4
					c-3.5-1.4-5.9-2.1-8.3-1.6c-3.8,0.8-8.3,3.8-9.3,9.9C44,14.3,43.3,15.5,43.2,15.6L43.2,15.6z"/>
			</g>
			<path class="st1" d="M54.7,9.1c0,0-2.4,1.7-2.1,3.1c0.2,1.4,3.8,2.4,4.5,1.1c0.6-1.3,1-3.8,0-4.9C56.1,7.2,54.7,9.1,54.7,9.1z"/>
			<path class="st1" d="M61.5,12.1h3.2c0.4,0,0.7,0.5,0.5,0.8l-0.6,1c-0.2,0.4-0.8,0.6-1.2,0.3c0,0-1.3-1-2.1-1.6
				C60.5,12,61.5,12.1,61.5,12.1z"/>
			<path class="st1" d="M66.4,17C66.4,17,66.3,17,66.4,17c-1.2-0.2-1.9-1.1-2.4-1.9c-0.2,0.4-0.5,0.8-0.9,1c-1.4,1-3.5,0.4-3.6,0.4
				c-0.3-0.1-0.4-0.4-0.3-0.6c0.1-0.3,0.4-0.4,0.6-0.3c0,0,1.7,0.5,2.7-0.2c0.5-0.4,0.8-1.1,0.8-2.1l1-0.1c0,0,0.5,2.6,2.1,2.9
				c0.3,0,0.5,0.3,0.4,0.6C66.8,16.9,66.6,17,66.4,17z"/>
			<path class="st1" d="M63,9.4l1.6,1.5c0,0,1.7,0.5,1.7-0.5S63.6,7.2,63,7.2C62.2,7.2,62.1,8.5,63,9.4z"/>
		</g>
	</g>
	<path class="st1" d="M39.3,62.7c0,0,1.2-6.1,11.4-3.7c6.8,1.6,15.5,5.7,15.7,9.4c0.2,3.7,0.6,9.4-2,14.7c-2.6,5.3-4.3,9.3-10,8.4
		s-5.6-6.7-3.5-11.3c2.2-4.6,1.2-7.9-2.5-9.2C44.7,69.9,37.3,68.5,39.3,62.7z"/>
	<path class="st2" d="M54.4,91.2c-1.8-0.3-3.1-1.1-3.9-2.5c-1.1-2-0.8-5.2,0.7-8.3c1.3-2.6,1.5-5,0.8-6.7c-0.1-0.2-0.2-0.3-0.3-0.5
		h-0.9c0.2,0.2,0.3,0.5,0.5,0.8c0.7,1.6,0.4,3.7-0.8,6.1c-1.6,3.4-1.8,6.7-0.7,8.9c0.8,1.6,2.3,2.5,4.4,2.9c0.5,0.1,1.1,0.1,1.5,0.1
		c2.3,0,3.8-0.6,5.1-2l0.6-1.7C60.1,90.4,57.6,91.7,54.4,91.2z"/>
</g>
</svg>
