<svg width="155" height="167" viewBox="0 0 155 167" fill="none" xmlns="http://www.w3.org/2000/svg">
  <path fill-rule="evenodd" clip-rule="evenodd" d="M67.7127 158.896C66.7617 158.611 66.7627 157.264 67.7141 156.98L126.511 139.436L154.161 147.017C155.129 147.282 155.146 148.649 154.185 148.939L97.3911 166.067C95.5128 166.634 93.5093 166.635 91.6302 166.071L67.7127 158.896Z" fill="black" fill-opacity="0.05"/>
  <path fill-rule="evenodd" clip-rule="evenodd" d="M62.3242 154.782C30.844 154.782 5.32422 150.753 5.32422 145.782C5.32422 140.812 30.844 136.782 62.3242 136.782C93.8045 136.782 119.324 140.812 119.324 145.782C119.324 150.753 93.8045 154.782 62.3242 154.782Z" fill="black" fill-opacity="0.05"/>
  <path fill-rule="evenodd" clip-rule="evenodd" d="M37.4991 95.748C38.3671 96.3675 39.2602 96.9722 40.1731 97.5633C38.3289 102.178 33.6806 112.308 26.3572 118.408C16.6459 126.497 9.15512 115.743 10.4162 109.277C11.5918 103.246 21.401 98.683 37.4991 95.748Z" fill="#2D3B45"/>
  <path d="M15.7031 120.301C18.5238 121.88 22.2401 121.836 26.3551 118.408C33.6785 112.308 38.3268 102.178 40.171 97.5633C39.2582 96.9722 38.3651 96.3675 37.4971 95.748C36.8214 95.8712 36.1568 95.9973 35.5034 96.1262C35.7247 96.2727 36.2733 97.4184 36.4971 97.5633C34.4971 104 30.6785 111.308 23.3551 117.408C20.9719 119.393 17.7224 120.243 15.7031 120.301Z" fill="#28343D"/>
  <path fill-rule="evenodd" clip-rule="evenodd" d="M37.4991 95.748C38.3671 96.3675 39.2602 96.9722 40.1731 97.5633C38.3289 102.178 33.6806 112.308 26.3572 118.408C16.6459 126.497 9.15512 115.743 10.4162 109.277C11.5918 103.246 21.401 98.683 37.4991 95.748Z" stroke="#152633" stroke-width="2"/>
  <path fill-rule="evenodd" clip-rule="evenodd" d="M81.4609 96.6209C91.1558 83.4386 99.5568 76.6223 105.493 78.2095C111.857 79.9105 118.24 91.3578 106.712 96.54C98.0186 100.448 86.8763 100.185 81.9203 99.82C81.7892 98.7405 81.6372 97.6726 81.4609 96.6209Z" fill="#2D3B45"/>
  <path d="M81.5117 96.9185C81.6672 97.8738 81.8032 98.842 81.9219 99.8198C86.8779 100.185 98.0202 100.448 106.713 96.5398C115.237 92.7083 113.969 85.452 110.157 81.2422C112.069 85.3525 111.444 90.5141 104.713 93.5398C96.8543 97.0729 86.9935 97.1971 81.5117 96.9185Z" fill="#28343D"/>
  <path fill-rule="evenodd" clip-rule="evenodd" d="M81.4609 96.6209C91.1558 83.4386 99.5568 76.6223 105.493 78.2095C111.857 79.9105 118.24 91.3578 106.712 96.54C98.0186 100.448 86.8763 100.185 81.9203 99.82C81.7892 98.7405 81.6372 97.6726 81.4609 96.6209Z" stroke="#152633" stroke-width="2"/>
  <path fill-rule="evenodd" clip-rule="evenodd" d="M40.9835 91.9897C48.1267 94.3685 56.2789 95.6615 64.9365 95.6615C72.6535 95.6615 75.8449 92.0799 82.1468 90.2949C88.3611 95.6615 91.4909 105.893 92.1186 110.915C93.965 123.837 82.732 135.163 62.7854 135.163C42.8389 135.163 32.4186 123.43 34.6952 111.306C36.2643 102.953 38.7936 96.6424 40.9835 91.9897Z" fill="white"/>
  <path d="M38.3984 125.644C42.9591 131.267 51.2903 135.163 62.7852 135.163C82.7317 135.163 93.9648 123.837 92.1184 110.915C91.4906 105.893 88.3609 95.6615 82.1466 90.2949C82.0974 90.3089 82.0483 90.3229 81.9995 90.3371C86.3347 95.9273 88.5953 103.73 89.1184 107.915C90.9648 120.837 79.7317 132.163 59.7852 132.163C50.4719 132.163 43.2354 129.606 38.3984 125.644Z" fill="#EDEDED"/>
  <path fill-rule="evenodd" clip-rule="evenodd" d="M40.9835 91.9897C48.1267 94.3685 56.2789 95.6615 64.9365 95.6615C72.6535 95.6615 75.8449 92.0799 82.1468 90.2949C88.3611 95.6615 91.4909 105.893 92.1186 110.915C93.965 123.837 82.732 135.163 62.7854 135.163C42.8389 135.163 32.4186 123.43 34.6952 111.306C36.2643 102.953 38.7936 96.6424 40.9835 91.9897Z" stroke="#152633" stroke-width="2"/>
  <path fill-rule="evenodd" clip-rule="evenodd" d="M34.5002 112.5C32.9757 123.154 41.4046 133.14 57.2911 135.072L56.9559 136.577C55.7825 142.835 53.4359 145.182 49.5248 146.355C40.9204 149.484 22.1472 148.311 24.1027 140.88C26.1886 130.189 29.5407 120.844 34.5002 112.5Z" fill="#2D3B45"/>
  <path d="M28.4883 146.52C34.21 148.601 43.9797 148.372 49.5253 146.355C53.4364 145.182 55.783 142.835 56.9564 136.577L57.2915 135.072C55.8764 134.9 54.5204 134.664 53.2253 134.369L52.9564 135.577C51.783 141.835 49.4364 144.182 45.5253 145.355C41.1276 146.954 34.0735 147.429 28.4883 146.52Z" fill="#28343D"/>
  <path fill-rule="evenodd" clip-rule="evenodd" d="M34.5002 112.5C32.9757 123.154 41.4046 133.14 57.2911 135.072L56.9559 136.577C55.7825 142.835 53.4359 145.182 49.5248 146.355C40.9204 149.484 22.1472 148.311 24.1027 140.88C26.1886 130.189 29.5407 120.844 34.5002 112.5Z" stroke="#152633" stroke-width="2"/>
  <path fill-rule="evenodd" clip-rule="evenodd" d="M92.5709 112L92.6284 112.001C93.0195 115.13 100.059 124.516 103.188 140.552C105.144 147.983 86.3706 149.156 77.7663 146.027C73.8552 144.854 71.5085 142.507 70.3352 136.25L70.0164 134.946L70 134.587C85.055 132.369 93.4661 122.866 92.5709 112Z" fill="#2D3B45"/>
  <path d="M72.8867 143.544C74.0874 144.955 75.6063 145.79 77.4868 146.354C86.0912 149.483 104.864 148.31 102.909 140.879C100.809 130.119 96.9492 122.353 94.5181 117.462C93.3261 115.064 92.4776 113.357 92.349 112.328L92.2915 112.327C92.3668 113.242 92.3464 115.608 92.2915 116.5C94.7815 121.697 97.2346 127.91 99.184 138.153C101.198 146.001 82.8617 147.24 73.9991 143.936C73.6137 143.817 73.243 143.688 72.8867 143.544Z" fill="#28343D"/>
  <path fill-rule="evenodd" clip-rule="evenodd" d="M92.2896 112.327L92.3471 112.328C92.7382 115.457 99.7782 124.843 102.907 140.879C104.863 148.31 86.0894 149.483 77.485 146.354C73.5739 145.181 71.2273 142.834 70.0539 136.577L69.7352 135.273L69.7188 134.914C84.7737 132.696 93.1849 123.193 92.2896 112.327Z" stroke="#152633" stroke-width="2"/>
  <path fill-rule="evenodd" clip-rule="evenodd" d="M109.907 52.3262C114.167 75.3168 95.6619 91.4544 67.0928 96.7472C38.5242 102.04 17.4475 92.5875 10.846 71.164C3.71832 48.0319 22.8091 17.2131 51.3782 11.9203C79.9469 6.62768 105.428 28.1467 109.907 52.3262Z" fill="white"/>
  <path d="M63.8234 82.7822C63.3234 85.2822 67.3234 89.2822 73.3234 86.2822" stroke="#152633" stroke-width="2" stroke-linecap="round"/>
  <path d="M63.0915 95.7474C91.6606 90.4546 110.166 74.317 105.906 51.3264C102.65 33.7475 88.2926 17.5749 69.7188 12.0889C90.2072 16.2953 106.419 33.5048 109.906 52.3264C114.166 75.317 95.6606 91.4546 67.0915 96.7474C55.4061 98.9124 44.9741 98.6104 36.2734 96.0312C44.1084 97.6456 53.146 97.59 63.0915 95.7474Z" fill="#EDEDED"/>
  <path fill-rule="evenodd" clip-rule="evenodd" d="M109.907 52.3262C114.167 75.3168 95.6619 91.4544 67.0928 96.7472C38.5242 102.04 17.4475 92.5875 10.846 71.164C3.71831 48.0319 22.8091 17.2131 51.3782 11.9203C79.9469 6.62768 105.428 28.1467 109.907 52.3262Z" stroke="#152633" stroke-width="2"/>
  <path fill-rule="evenodd" clip-rule="evenodd" d="M66.8561 74.4464C66.4707 72.3667 69.6193 70.0396 73.8878 69.2485C78.1569 68.4577 81.9298 69.5024 82.3153 71.5824C82.7004 73.6623 79.5522 75.9893 75.2835 76.7799C71.0144 77.5707 67.2414 76.5258 66.8561 74.4464Z" fill="#152633"/>
  <path fill-rule="evenodd" clip-rule="evenodd" d="M42.3693 83.9102C52.4505 82.0428 61.0915 68.7407 58.8167 56.461C56.274 42.7344 45.6342 30.4009 36.8575 32.027C32.4884 32.836 27.8774 37.1001 24.6179 43.4724C21.3202 49.9193 20.0254 57.4 21.1443 63.4405C23.5645 76.5041 33.1571 85.6172 42.3693 83.9102Z" fill="#2D3B45" stroke="#152633" stroke-width="2"/>
  <path fill-rule="evenodd" clip-rule="evenodd" d="M50.2855 55.4478C52.6107 55.689 54.1881 58.8473 53.8089 62.5009C53.4299 66.1552 51.2371 68.9212 48.912 68.68C46.5867 68.4384 45.0092 65.2809 45.3883 61.627C45.7678 57.9729 47.9604 55.2065 50.2855 55.4478Z" fill="white"/>
  <path fill-rule="evenodd" clip-rule="evenodd" d="M83.8746 62.6066C87.5571 66.4087 91.2791 68.0088 94.3389 67.5262C94.3935 67.5178 94.4449 67.5092 94.4942 67.5C96.6792 67.0951 99.2633 65.4557 100.741 63.3654C104.346 58.2706 105.367 53.2249 103.953 45.596C101.725 33.568 87.4101 20.2016 78.7773 21.8007C76.9056 22.1475 75.5001 23.066 74.5439 24.5548C71.6977 28.9868 72.4093 37.9753 75.8796 49.0877C77.3697 53.8616 80.25 58.8641 83.8746 62.6066Z" fill="#2D3B45" stroke="#152633" stroke-width="2"/>
  <path fill-rule="evenodd" clip-rule="evenodd" d="M90.3118 52.5719C91.6744 55.2564 91.3947 58.1357 89.6864 59.0028C87.9779 59.8703 85.4886 58.3971 84.1257 55.7127C82.7627 53.0284 83.0429 50.1493 84.7507 49.282C86.4588 48.4146 88.949 49.8879 90.3118 52.5719Z" fill="white"/>
  <path fill-rule="evenodd" clip-rule="evenodd" d="M13.1099 42.2956C11.5578 41.9644 9.85376 41.3916 8.07886 40.4413C1.25162 36.7865 0.972322 28.6382 1.00168 26.5829C1.03053 24.5274 1.6467 14.5733 9.98578 17.5385C15.3713 19.4531 21.2862 23.3192 24.8029 25.8191C19.8992 30.5815 15.9316 36.2164 13.1099 42.2956Z" fill="#2D3B45"/>
  <path d="M6.07723 37.4413C7.85214 38.3917 9.55615 38.9645 11.1082 39.2956C13.7413 33.6229 17.372 28.3371 21.8301 23.7861C22.9356 24.5132 23.9403 25.2072 24.8013 25.8192C19.8975 30.5815 15.9299 36.2164 13.1082 42.2956C11.5562 41.9645 9.85214 41.3917 8.07723 40.4413C5.45091 39.0354 3.79356 36.9645 2.75 34.8313C3.63567 35.8222 4.72872 36.7194 6.07723 37.4413Z" fill="#28343D"/>
  <path fill-rule="evenodd" clip-rule="evenodd" d="M13.1099 42.2956C11.5578 41.9644 9.85376 41.3916 8.07886 40.4413C1.25162 36.7865 0.972322 28.6382 1.00168 26.5829C1.03053 24.5274 1.6467 14.5733 9.98578 17.5385C15.3713 19.4531 21.2862 23.3192 24.8029 25.8191C19.8992 30.5815 15.9316 36.2164 13.1099 42.2956Z" stroke="#152633" stroke-width="2"/>
  <path fill-rule="evenodd" clip-rule="evenodd" d="M93.8048 20.5132C93.1017 21.3262 92.3757 22.0146 91.6523 22.5982C86.9892 18.8158 81.6535 15.7785 75.8672 13.7789C77.9412 10.668 81.472 5.80253 85.1786 2.62957C90.9872 -2.34259 94.5646 5.49582 95.2244 7.14437C95.8843 8.79329 98.1804 15.4521 93.8048 20.5132Z" fill="#2D3B45"/>
  <path d="M89.6523 19.5983C90.3757 19.0147 91.1017 18.3263 91.8048 17.5133C96.1804 12.4522 93.8843 5.79337 93.2244 4.14444C93.1192 3.88153 92.9397 3.46117 92.6889 2.96045C94.067 4.4685 94.9321 6.41403 95.2244 7.14444C95.8843 8.79337 98.1804 15.4522 93.8048 20.5133C93.1017 21.3263 92.3757 22.0147 91.6523 22.5983C86.9892 18.8158 81.6535 15.7786 75.8672 13.7789C76.2283 13.2373 76.6336 12.6425 77.0763 12.0126C81.6328 13.945 85.8645 16.5258 89.6523 19.5983Z" fill="#28343D"/>
  <path fill-rule="evenodd" clip-rule="evenodd" d="M93.8048 20.5132C93.1017 21.3262 92.3757 22.0146 91.6523 22.5982C86.9892 18.8158 81.6535 15.7785 75.8672 13.7789C77.9412 10.668 81.472 5.80253 85.1786 2.62957C90.9872 -2.34259 94.5646 5.49582 95.2244 7.14437C95.8843 8.79329 98.1804 15.4521 93.8048 20.5132Z" stroke="#152633" stroke-width="2"/>
  <path fill-rule="evenodd" clip-rule="evenodd" d="M128.512 129.936L145.512 124.936V146.936L128.512 151.936V129.936Z" fill="#FFA639" stroke="#152633" stroke-width="1.5" stroke-linejoin="round"/>
  <path fill-rule="evenodd" clip-rule="evenodd" d="M128.512 107.936L145.512 102.936V124.936L128.512 129.936V107.936Z" fill="#EF3A5A" stroke="#152633" stroke-width="1.5" stroke-linejoin="round"/>
  <path fill-rule="evenodd" clip-rule="evenodd" d="M111.512 102.936L128.512 97.9355L145.512 102.936L128.512 107.936L111.512 102.936Z" fill="#FF5A78" stroke="#152633" stroke-width="1.5" stroke-linejoin="round"/>
  <path fill-rule="evenodd" clip-rule="evenodd" d="M111.512 134.936L128.512 129.936V151.936L111.512 156.936V134.936Z" fill="#FFE991" stroke="#152633" stroke-width="1.5" stroke-linejoin="round"/>
  <path fill-rule="evenodd" clip-rule="evenodd" d="M111.512 112.936L128.512 107.936V129.936L111.512 134.936V112.936Z" fill="#409ED8" stroke="#152633" stroke-width="1.5" stroke-linejoin="round"/>
  <path fill-rule="evenodd" clip-rule="evenodd" d="M94.5117 107.936L111.512 102.936L128.512 107.936L111.512 112.936L94.5117 107.936Z" fill="#409ED8" stroke="#152633" stroke-width="1.5" stroke-linejoin="round"/>
  <path fill-rule="evenodd" clip-rule="evenodd" d="M94.5117 107.936L111.512 112.936V134.936L94.5117 129.936V107.936Z" fill="#82CFFF" stroke="#152633" stroke-width="1.5" stroke-linejoin="round"/>
  <path fill-rule="evenodd" clip-rule="evenodd" d="M94.5117 139.936L111.512 134.936V156.936L94.5117 161.936V139.936Z" fill="#1C9D8D" stroke="#152633" stroke-width="1.5" stroke-linejoin="round"/>
  <path fill-rule="evenodd" clip-rule="evenodd" d="M77.5117 134.936L94.5117 129.936L111.512 134.936L94.5117 139.936L77.5117 134.936Z" fill="#13C2AD" stroke="#152633" stroke-width="1.5" stroke-linejoin="round"/>
  <path fill-rule="evenodd" clip-rule="evenodd" d="M77.5117 134.936L94.5117 139.936V161.936L77.5117 156.936V134.936Z" fill="#13C2AD" stroke="#152633" stroke-width="1.5" stroke-linejoin="round"/>
  <path fill-rule="evenodd" clip-rule="evenodd" d="M118.464 77.2623L111.301 98.0637L96.8555 87.8014L104.018 67L118.464 77.2623Z" fill="#9B67CD" stroke="#152633" stroke-width="1.5" stroke-linejoin="round"/>
  <path fill-rule="evenodd" clip-rule="evenodd" d="M136.167 78.0693L118.466 77.2623L104.02 67L121.721 67.8071L136.167 78.0693Z" fill="#9B67CD" stroke="#152633" stroke-width="1.5" stroke-linejoin="round"/>
  <path fill-rule="evenodd" clip-rule="evenodd" d="M136.169 78.0693L129.006 98.8707L111.305 98.0636L118.467 77.2622L136.169 78.0693Z" fill="#764B9F" stroke="#152633" stroke-width="1.5" stroke-linejoin="round"/>
</svg>
