<svg width="162" height="287" viewBox="0 0 162 287" fill="none" xmlns="http://www.w3.org/2000/svg">
<path d="M81 160.441C125.183 160.441 161 124.749 161 80.7203C161 36.692 125.183 1 81 1C36.8172 1 1 36.692 1 80.7203C1 124.749 36.8172 160.441 81 160.441Z" fill="#5DB9F2" stroke="#152633" stroke-width="2"/>
<path d="M151 80.7203C151 36.692 125.183 1 81 1C36.8172 1 11 36.692 11 80.7203" stroke="#152633" stroke-width="2"/>
<path d="M131 80.7203C131 46.657 115.183 1 81 1C46.8172 1 31 46.657 31 80.7203" stroke="#152633" stroke-width="2"/>
<path d="M111 80.7203C111 46.657 95.1828 1 81 1C66.8172 1 51 46.657 51 80.7203" stroke="#152633" stroke-width="2"/>
<path d="M81 1C81 31.438 81 58.0114 81 80.7203" stroke="#152633" stroke-width="2"/>
<path fill-rule="evenodd" clip-rule="evenodd" d="M81 160.441C125.183 160.441 161 124.749 161 80.7204C137.122 74.077 110.455 70.7554 81 70.7554C51.5448 70.7554 24.8781 74.077 1 80.7204C1 124.749 36.8172 160.441 81 160.441Z" fill="#152633" stroke="#152633" stroke-width="2"/>
<path fill-rule="evenodd" clip-rule="evenodd" d="M47.7617 118.823C47.4092 117.622 46.467 116.683 45.2617 116.332C46.467 115.981 47.4092 115.042 47.7617 113.841C48.1142 115.042 49.0564 115.981 50.2617 116.332C49.0564 116.683 48.1142 117.622 47.7617 118.823Z" fill="#FFE896"/>
<path fill-rule="evenodd" clip-rule="evenodd" d="M77.7617 108.858C77.4092 107.657 76.467 106.719 75.2617 106.367C76.467 106.016 77.4092 105.077 77.7617 103.876C78.1142 105.077 79.0564 106.016 80.2617 106.367C79.0564 106.719 78.1142 107.657 77.7617 108.858Z" fill="#FFE896"/>
<path fill-rule="evenodd" clip-rule="evenodd" d="M117.762 148.718C117.409 147.517 116.467 146.578 115.262 146.227C116.467 145.876 117.409 144.937 117.762 143.736C118.114 144.937 119.056 145.876 120.262 146.227C119.056 146.578 118.114 147.517 117.762 148.718Z" fill="#FFE896"/>
<path fill-rule="evenodd" clip-rule="evenodd" d="M137.762 97.8971C137.409 96.696 136.467 95.7571 135.262 95.4058C136.467 95.0545 137.409 94.1156 137.762 92.9146C138.114 94.1156 139.056 95.0545 140.262 95.4058C139.056 95.7571 138.114 96.696 137.762 97.8971Z" fill="#FFE896"/>
<path fill-rule="evenodd" clip-rule="evenodd" d="M106.762 125.799C106.55 125.078 105.985 124.515 105.262 124.304C105.985 124.094 106.55 123.53 106.762 122.81C106.973 123.53 107.539 124.094 108.262 124.304C107.539 124.515 106.973 125.078 106.762 125.799Z" fill="#FFE896"/>
<path fill-rule="evenodd" clip-rule="evenodd" d="M103.262 131.778C102.98 130.817 102.226 130.066 101.262 129.785C102.226 129.504 102.98 128.753 103.262 127.792C103.544 128.753 104.297 129.504 105.262 129.785C104.297 130.066 103.544 130.817 103.262 131.778Z" fill="#FFE896"/>
<path fill-rule="evenodd" clip-rule="evenodd" d="M6.67578 98.9358C6.46411 98.2153 5.89878 97.6516 5.17578 97.441C5.89878 97.2305 6.46411 96.6668 6.67578 95.9463C6.88745 96.6668 7.45278 97.2305 8.17578 97.441C7.45278 97.6516 6.88745 98.2153 6.67578 98.9358Z" fill="#FFE896"/>
<path fill-rule="evenodd" clip-rule="evenodd" d="M34.6445 100.166C34.2215 98.7246 33.0905 97.5976 31.6445 97.176C33.0905 96.7545 34.2215 95.6275 34.6445 94.1865C35.0675 95.6275 36.1985 96.7545 37.6445 97.176C36.1985 97.5976 35.0675 98.7246 34.6445 100.166Z" fill="#FFE896"/>
<path fill-rule="evenodd" clip-rule="evenodd" d="M43.9961 127.691C43.785 126.971 43.2195 126.407 42.4961 126.196C43.2195 125.986 43.785 125.423 43.9961 124.702C44.2072 125.423 44.7727 125.986 45.4961 126.196C44.7727 126.407 44.2072 126.971 43.9961 127.691Z" fill="#FFE896"/>
<path fill-rule="evenodd" clip-rule="evenodd" d="M68.1016 151.92C67.5376 149.999 66.0296 148.496 64.1016 147.934C66.0296 147.372 67.5376 145.87 68.1016 143.948C68.6656 145.87 70.1736 147.372 72.1016 147.934C70.1736 148.496 68.6656 149.999 68.1016 151.92Z" fill="#FFE896"/>
<path fill-rule="evenodd" clip-rule="evenodd" d="M13.5898 122.281C13.3078 121.32 12.5538 120.569 11.5898 120.288C12.5538 120.007 13.3078 119.256 13.5898 118.295C13.8718 119.256 14.6258 120.007 15.5898 120.288C14.6258 120.569 13.8718 121.32 13.5898 122.281Z" fill="#FFE896"/>
<path fill-rule="evenodd" clip-rule="evenodd" d="M60.3594 154.673C60.2184 154.193 59.8414 153.817 59.3594 153.677C59.8414 153.536 60.2184 153.16 60.3594 152.68C60.5004 153.16 60.8774 153.536 61.3594 153.677C60.8774 153.817 60.5004 154.193 60.3594 154.673Z" fill="#FFE896"/>
<path fill-rule="evenodd" clip-rule="evenodd" d="M50.3594 114.813C50.2184 114.333 49.8414 113.957 49.3594 113.817C49.8414 113.676 50.2184 113.301 50.3594 112.82C50.5004 113.301 50.8774 113.676 51.3594 113.817C50.8774 113.957 50.5004 114.333 50.3594 114.813Z" fill="#FFE896"/>
<path fill-rule="evenodd" clip-rule="evenodd" d="M110.359 93.8866C110.218 93.4062 109.841 93.0306 109.359 92.8901C109.841 92.7496 110.218 92.3739 110.359 91.8936C110.5 92.3739 110.877 92.7496 111.359 92.8901C110.877 93.0306 110.5 93.4062 110.359 93.8866Z" fill="#FFE896"/>
<path fill-rule="evenodd" clip-rule="evenodd" d="M114.359 98.869C114.218 98.3887 113.841 98.013 113.359 97.8725C113.841 97.732 114.218 97.3563 114.359 96.876C114.5 97.3563 114.877 97.732 115.359 97.8725C114.877 98.013 114.5 98.3887 114.359 98.869Z" fill="#FFE896"/>
<path fill-rule="evenodd" clip-rule="evenodd" d="M109.359 102.855C109.218 102.375 108.841 101.999 108.359 101.859C108.841 101.718 109.218 101.343 109.359 100.862C109.5 101.343 109.877 101.718 110.359 101.859C109.877 101.999 109.5 102.375 109.359 102.855Z" fill="#FFE896"/>
<path fill-rule="evenodd" clip-rule="evenodd" d="M149.359 103.851C149.218 103.371 148.841 102.995 148.359 102.855C148.841 102.714 149.218 102.339 149.359 101.858C149.5 102.339 149.877 102.714 150.359 102.855C149.877 102.995 149.5 103.371 149.359 103.851Z" fill="#FFE896"/>
<path fill-rule="evenodd" clip-rule="evenodd" d="M129.359 133.747C129.218 133.267 128.841 132.891 128.359 132.75C128.841 132.61 129.218 132.234 129.359 131.754C129.5 132.234 129.877 132.61 130.359 132.75C129.877 132.891 129.5 133.267 129.359 133.747Z" fill="#FFE896"/>
<path fill-rule="evenodd" clip-rule="evenodd" d="M126.359 144.708C126.218 144.228 125.841 143.852 125.359 143.712C125.841 143.571 126.218 143.196 126.359 142.715C126.5 143.196 126.877 143.571 127.359 143.712C126.877 143.852 126.5 144.228 126.359 144.708Z" fill="#FFE896"/>
<path fill-rule="evenodd" clip-rule="evenodd" d="M72.3594 152.681C72.2184 152.2 71.8414 151.825 71.3594 151.684C71.8414 151.543 72.2184 151.168 72.3594 150.688C72.5004 151.168 72.8774 151.543 73.3594 151.684C72.8774 151.825 72.5004 152.2 72.3594 152.681Z" fill="#FFE896"/>
<path fill-rule="evenodd" clip-rule="evenodd" d="M11.3594 117.803C11.2184 117.322 10.8414 116.947 10.3594 116.806C10.8414 116.666 11.2184 116.29 11.3594 115.81C11.5004 116.29 11.8774 116.666 12.3594 116.806C11.8774 116.947 11.5004 117.322 11.3594 117.803Z" fill="#FFE896"/>
<path fill-rule="evenodd" clip-rule="evenodd" d="M30.3594 95.8797C30.2184 95.3994 29.8414 95.0237 29.3594 94.8832C29.8414 94.7427 30.2184 94.367 30.3594 93.8867C30.5004 94.367 30.8774 94.7427 31.3594 94.8832C30.8774 95.0237 30.5004 95.3994 30.3594 95.8797Z" fill="#FFE896"/>
<path fill-rule="evenodd" clip-rule="evenodd" d="M70.3594 95.8797C70.2184 95.3994 69.8414 95.0237 69.3594 94.8832C69.8414 94.7427 70.2184 94.367 70.3594 93.8867C70.5004 94.367 70.8774 94.7427 71.3594 94.8832C70.8774 95.0237 70.5004 95.3994 70.3594 95.8797Z" fill="#FFE896"/>
<path fill-rule="evenodd" clip-rule="evenodd" d="M29.707 137.362C29.566 136.882 29.189 136.506 28.707 136.366C29.189 136.225 29.566 135.849 29.707 135.369C29.848 135.849 30.225 136.225 30.707 136.366C30.225 136.506 29.848 136.882 29.707 137.362Z" fill="#FFE896"/>
<path fill-rule="evenodd" clip-rule="evenodd" d="M21.0123 80.4295C33.0419 78.0375 45.7048 76.3998 59.001 75.5166C66.7837 74.9997 74.7833 74.7412 83 74.7412C91.2167 74.7412 99.2163 74.9997 106.999 75.5166C120.295 76.3998 132.958 78.0375 144.988 80.4295C150.366 81.5007 155.678 82.7349 160.819 84.1109C161.549 84.3065 160.545 97.5087 159.367 98.3839C157.45 99.8076 155.074 100.65 152.5 100.65C146.906 100.65 142.245 96.6699 141.213 91.3962C137.579 96.3991 131.671 99.6538 125 99.6538C115.468 99.6538 107.493 93.0089 105.487 84.114C102.08 93.1912 93.2975 99.6538 83 99.6538C72.7025 99.6538 63.9197 93.1912 60.5132 84.114C58.5065 93.0089 50.532 99.6538 41 99.6538C34.3289 99.6538 28.4207 96.3991 24.7872 91.3962C23.7554 96.6699 19.0942 100.65 13.5 100.65C9.3435 100.65 5.70204 98.4529 3.68167 95.1602C3.23199 91.7391 3 88.2497 3 84.7062C8.81226 83.0892 14.8696 81.653 21.0123 80.4295Z" fill="black" fill-opacity="0.25"/>
<path d="M23 86.6992C23 141.009 69 208.694 69 254.112" stroke="#EBEDEE" stroke-width="2"/>
<path d="M59 81.7168C59 136.026 77 208.694 77 254.112" stroke="#EBEDEE" stroke-width="2"/>
<path d="M103 81.7168C103 136.026 85 208.694 85 254.112" stroke="#EBEDEE" stroke-width="2"/>
<path d="M139 86.6992C139 141.009 93 208.694 93 254.112" stroke="#EBEDEE" stroke-width="2"/>
<path d="M160.945 83.4116C158.917 152.182 101 209.49 101 254.112" stroke="#EBEDEE" stroke-width="2"/>
<path d="M1.03516 82.6499C2.6553 151.759 61.0008 209.325 61.0008 254.112" stroke="#EBEDEE" stroke-width="2"/>
<path fill-rule="evenodd" clip-rule="evenodd" d="M19.0123 76.4437C31.0419 74.0516 43.7048 72.414 57.001 71.5308C64.7837 71.0138 72.7833 70.7554 81 70.7554C89.2167 70.7554 97.2163 71.0138 104.999 71.5308C118.295 72.414 130.958 74.0516 142.988 76.4437C149.13 77.6672 155.188 79.1033 161 80.7204C161 84.2638 160.768 87.7532 160.318 91.1744C158.298 94.467 154.656 96.6645 150.5 96.6645C144.906 96.6645 140.245 92.6841 139.213 87.4103C135.579 92.4132 129.671 95.668 123 95.668C113.468 95.668 105.493 89.023 103.487 80.1281C100.08 89.2053 91.2975 95.668 81 95.668C70.7025 95.668 61.9197 89.2053 58.5132 80.1281C56.5065 89.023 48.532 95.668 39 95.668C32.3289 95.668 26.4207 92.4132 22.7872 87.4103C21.7554 92.6841 17.0942 96.6645 11.5 96.6645C7.3435 96.6645 3.70204 94.467 1.68167 91.1744C1.23199 87.7532 1 84.2638 1 80.7204C6.81226 79.1033 12.8696 77.6672 19.0123 76.4437Z" fill="#F23B5D" stroke="#152633" stroke-width="2"/>
<path d="M81 83.71C85.9706 83.71 90 79.6947 90 74.7415C90 69.7883 85.9706 65.7729 81 65.7729C76.0294 65.7729 72 69.7883 72 74.7415C72 79.6947 76.0294 83.71 81 83.71Z" fill="#FFE896" stroke="#152633" stroke-width="2"/>
<path d="M123 83.7098C126.866 83.7098 130 80.5868 130 76.7343C130 72.8818 126.866 69.7588 123 69.7588C119.134 69.7588 116 72.8818 116 76.7343C116 80.5868 119.134 83.7098 123 83.7098Z" fill="#FFE896" stroke="#152633" stroke-width="2"/>
<path d="M39 83.7098C42.866 83.7098 46 80.5868 46 76.7343C46 72.8818 42.866 69.7588 39 69.7588C35.134 69.7588 32 72.8818 32 76.7343C32 80.5868 35.134 83.7098 39 83.7098Z" fill="#FFE896" stroke="#152633" stroke-width="2"/>
<path d="M151.5 84.7063C153.985 84.7063 156 82.6987 156 80.2221C156 77.7455 153.985 75.7378 151.5 75.7378C149.015 75.7378 147 77.7455 147 80.2221C147 82.6987 149.015 84.7063 151.5 84.7063Z" fill="#FFE896" stroke="#152633" stroke-width="2"/>
<path d="M10.5 84.7063C12.9853 84.7063 15 82.6987 15 80.2221C15 77.7455 12.9853 75.7378 10.5 75.7378C8.01472 75.7378 6 77.7455 6 80.2221C6 82.6987 8.01472 84.7063 10.5 84.7063Z" fill="#FFE896" stroke="#152633" stroke-width="2"/>
<path fill-rule="evenodd" clip-rule="evenodd" d="M35.5703 15.0934C48.4746 6.20572 64.1281 1 81.0017 1C97.8753 1 113.529 6.20572 126.433 15.0934C113.529 20.031 97.8753 22.9231 81.0017 22.9231C64.1281 22.9231 48.4746 20.031 35.5703 15.0934Z" fill="#FFE896" stroke="#152633" stroke-width="2"/>
<path fill-rule="evenodd" clip-rule="evenodd" d="M58.7773 237.851C58.7773 248.076 67.9478 253.542 80.5547 253.542C93.1616 253.542 103.382 247.371 103.382 238.203C103.382 226.811 93.1616 215.812 80.5547 215.812C67.9478 215.812 58.7773 227.096 58.7773 237.851Z" fill="white"/>
<path d="M62.2539 247.21C66.1377 250.721 72.2732 252.545 79.5553 252.545C92.1622 252.545 102.382 246.374 102.382 237.207C102.382 231.684 99.9809 226.255 96.0704 222.125C100.568 226.354 103.382 232.225 103.382 238.203C103.382 247.371 93.1622 253.542 80.5553 253.542C72.613 253.542 66.0347 251.372 62.2539 247.21Z" fill="#EBEDEE"/>
<path fill-rule="evenodd" clip-rule="evenodd" d="M58.7773 237.851C58.7773 248.076 67.9478 253.542 80.5547 253.542C93.1616 253.542 103.382 247.371 103.382 238.203C103.382 226.811 93.1616 215.812 80.5547 215.812C67.9478 215.812 58.7773 227.096 58.7773 237.851Z" stroke="#152633"/>
<path fill-rule="evenodd" clip-rule="evenodd" d="M84.2756 243.933C84.2756 244.858 82.8455 245.608 81.0812 245.608C79.3168 245.608 77.8867 244.858 77.8867 243.933C77.8867 243.008 79.3168 242.258 81.0812 242.258C82.8455 242.258 84.2756 243.008 84.2756 243.933Z" fill="#152633"/>
<path fill-rule="evenodd" clip-rule="evenodd" d="M91.7037 223.612C88.0028 223.612 84.4922 229.602 84.4922 235.558C84.4922 240.852 89.1489 245.742 93.473 245.742C97.3874 245.742 100.684 241.215 100.684 235.558C100.684 232.944 99.5519 229.895 97.6538 227.438C95.7915 225.027 93.5427 223.612 91.7037 223.612Z" fill="#2D3B45" stroke="#152633"/>
<path d="M89.3989 240.205C90.3807 240.205 91.1767 239.07 91.1767 237.669C91.1767 236.269 90.3807 235.134 89.3989 235.134C88.417 235.134 87.6211 236.269 87.6211 237.669C87.6211 239.07 88.417 240.205 89.3989 240.205Z" fill="white"/>
<path fill-rule="evenodd" clip-rule="evenodd" d="M68.5084 245.742C72.8325 245.742 77.4892 240.852 77.4892 235.558C77.4892 229.602 73.9786 223.612 70.2776 223.612C68.4385 223.612 66.1898 225.027 64.3276 227.438C62.4293 229.895 61.2969 232.943 61.2969 235.558C61.2969 241.215 64.594 245.742 68.5084 245.742Z" fill="#2D3B45" stroke="#152633"/>
<path d="M72.5981 240.205C73.5799 240.205 74.3759 239.07 74.3759 237.669C74.3759 236.269 73.5799 235.134 72.5981 235.134C71.6163 235.134 70.8203 236.269 70.8203 237.669C70.8203 239.07 71.6163 240.205 72.5981 240.205Z" fill="white"/>
<path fill-rule="evenodd" clip-rule="evenodd" d="M99.4006 225.966C100.044 225.7 100.57 225.178 101.26 224.628C103.914 222.512 103.383 218.986 103.206 218.104C103.029 217.223 101.968 212.991 98.6062 214.931C96.4352 216.183 94.3294 218.244 93.0117 219.599C95.5086 221.257 97.697 223.577 99.4006 225.966Z" fill="#2D3B45" stroke="#152633"/>
<path d="M99.7954 223.016C99.3153 223.417 98.8923 223.77 98.4006 223.973C97.0983 222.146 95.5128 220.36 93.7227 218.88C93.4665 219.134 93.2285 219.376 93.0117 219.599C95.5086 221.257 97.697 223.576 99.4006 225.966C99.8923 225.763 100.315 225.41 100.795 225.009C100.944 224.885 101.097 224.757 101.26 224.628C103.914 222.512 103.383 218.986 103.206 218.104C103.114 217.645 102.782 216.279 102.011 215.347C102.112 215.675 102.174 215.95 102.206 216.111C102.383 216.993 102.914 220.519 100.26 222.635C100.097 222.764 99.9436 222.892 99.7954 223.016Z" fill="#28343D"/>
<path fill-rule="evenodd" clip-rule="evenodd" d="M99.4006 225.966C100.044 225.7 100.57 225.178 101.26 224.628C103.914 222.512 103.383 218.986 103.206 218.104C103.029 217.223 101.968 212.991 98.6062 214.931C96.4352 216.183 94.3294 218.244 93.0117 219.599C95.5086 221.257 97.697 223.577 99.4006 225.966Z" stroke="#152633"/>
<path fill-rule="evenodd" clip-rule="evenodd" d="M62.3434 225.966C61.7001 225.7 60.9763 225.178 60.2861 224.628C57.6323 222.512 58.163 218.986 58.3399 218.104C58.5169 217.223 59.5784 212.991 62.9399 214.931C65.111 216.183 67.159 218.244 68.4768 219.599C65.98 221.257 64.0472 223.577 62.3434 225.966Z" fill="#2D3B45"/>
<path d="M59.375 223.702C60.038 224.226 60.7274 224.715 61.343 224.97C63.0467 222.58 64.9796 220.26 67.4763 218.603C67.3752 218.499 67.2698 218.391 67.1603 218.279C67.6505 218.754 68.0941 219.207 68.4763 219.6C65.9796 221.257 64.0467 223.577 62.343 225.966C61.6997 225.7 60.9758 225.178 60.2856 224.628C59.9268 224.342 59.6261 224.03 59.375 223.702Z" fill="#28343D"/>
<path fill-rule="evenodd" clip-rule="evenodd" d="M62.3434 225.966C61.7001 225.7 60.9763 225.178 60.2861 224.628C57.6323 222.512 58.163 218.986 58.3399 218.104C58.5169 217.223 59.5784 212.991 62.9399 214.931C65.111 216.183 67.159 218.244 68.4768 219.599C65.98 221.257 64.0472 223.577 62.3434 225.966Z" stroke="#152633"/>
<path fill-rule="evenodd" clip-rule="evenodd" d="M61 254.112H101V275.78C101 279.334 100.629 280.622 99.9315 281.922C99.2342 283.221 98.2111 284.24 96.9074 284.935C95.6037 285.63 94.3105 286 90.7445 286H71.2555C67.6895 286 66.3963 285.63 65.0926 284.935C63.7889 284.24 62.7658 283.221 62.0685 281.922C61.3713 280.622 61 279.334 61 275.78V254.112Z" fill="#EAA962"/>
<path d="M62.4531 282.56C63.1227 283.558 64.0115 284.358 65.0936 284.935C66.3973 285.63 67.6904 286 71.2565 286H90.7454C94.3115 286 95.6046 285.63 96.9083 284.935C98.212 284.24 99.2352 283.221 99.9324 281.922C100.63 280.622 101.001 279.334 101.001 275.78V254.112H99.0009V273.787C99.0009 277.341 98.6296 278.629 97.9324 279.929C97.2352 281.228 96.212 282.247 94.9083 282.942C93.6046 283.637 92.3115 284.007 88.7454 284.007H69.2565C65.6904 284.007 64.3973 283.637 63.0936 282.942C62.8719 282.824 62.6583 282.696 62.4531 282.56Z" fill="#D38E41"/>
<path fill-rule="evenodd" clip-rule="evenodd" d="M61 254.112H101V275.78C101 279.334 100.629 280.622 99.9315 281.922C99.2342 283.221 98.2111 284.24 96.9074 284.935C95.6037 285.63 94.3105 286 90.7445 286H71.2555C67.6895 286 66.3963 285.63 65.0926 284.935C63.7889 284.24 62.7658 283.221 62.0685 281.922C61.3713 280.622 61 279.334 61 275.78V254.112Z" stroke="#152633" stroke-width="2"/>
<path d="M68 255.108V267.575" stroke="#152633" stroke-width="2" stroke-linecap="round"/>
<path d="M75 261.087V273.554" stroke="#152633" stroke-width="2" stroke-linecap="round"/>
<path d="M96 255.108V259.603" stroke="#152633" stroke-width="2" stroke-linecap="round"/>
<path d="M86 281.018V285.512" stroke="#152633" stroke-width="2" stroke-linecap="round"/>
<path d="M81 284.007V285.512" stroke="#152633" stroke-width="2" stroke-linecap="round"/>
<path d="M71 280.021V285.512" stroke="#152633" stroke-width="2" stroke-linecap="round"/>
<path d="M65 265.074H78.5" stroke="#152633" stroke-width="2" stroke-linecap="round"/>
<path d="M92 273.045H100.5" stroke="#152633" stroke-width="2" stroke-linecap="round"/>
<path fill-rule="evenodd" clip-rule="evenodd" d="M57 250.126H105V254.112H57V250.126Z" fill="#152633" stroke="#152633" stroke-width="2" stroke-linejoin="round"/>
</svg>
