<svg width="217" height="234" viewBox="0 0 217 234" fill="none" xmlns="http://www.w3.org/2000/svg">
<path fill-rule="evenodd" clip-rule="evenodd" d="M11.724 7.52158H207.724V123.522H11.724V7.52158Z" fill="#FFD960" stroke="#152633" stroke-width="2"/>
<path fill-rule="evenodd" clip-rule="evenodd" d="M20.5639 13.1644H199.436C200.328 13.1644 200.651 13.2573 200.977 13.4316C201.303 13.6059 201.559 13.8617 201.733 14.1876C201.907 14.5135 202 14.8368 202 15.7283V114.601C202 115.492 201.907 115.815 201.733 116.141C201.559 116.467 201.303 116.723 200.977 116.897C200.651 117.072 200.328 117.164 199.436 117.164H20.5639C19.6724 117.164 19.3491 117.072 19.0232 116.897C18.6972 116.723 18.4414 116.467 18.2671 116.141C18.0928 115.815 18 115.492 18 114.601V15.7283C18 14.8368 18.0928 14.5135 18.2671 14.1876C18.4414 13.8617 18.6972 13.6059 19.0232 13.4316C19.3491 13.2573 19.6724 13.1644 20.5639 13.1644Z" fill="white" stroke="#152633" stroke-width="2"/>
<path fill-rule="evenodd" clip-rule="evenodd" d="M66.724 23.5216H83.224L84.724 24.5216L85.724 23.5216H90.724V47.5216H66.724V23.5216Z" fill="black" fill-opacity="0.07"/>
<path fill-rule="evenodd" clip-rule="evenodd" d="M64.724 21.5216H81.224L82.724 22.5216L83.724 21.5216H88.724V45.5216H64.724V21.5216Z" fill="white" stroke="#152633" stroke-width="2"/>
<path d="M78.5961 37.5216L78.0629 35.6642H75.2972L74.7582 37.5216H72.5668L75.4086 29.0665H78.0394L80.8812 37.5216H78.5961ZM76.6566 30.8595L75.7133 34.1173H77.641L76.7035 30.8595H76.6566Z" fill="#C51717"/>
<path fill-rule="evenodd" clip-rule="evenodd" d="M70.224 24.0216L71.657 19.2716L70.224 24.0216Z" stroke="#152633" stroke-width="2" stroke-linecap="round" stroke-linejoin="round"/>
<path fill-rule="evenodd" clip-rule="evenodd" d="M69.492 20.5216C70.1823 21.7173 71.7113 22.127 72.907 21.4367C74.1028 20.7463 74.5125 19.2173 73.8221 18.0216C73.1317 16.8259 71.6028 16.4162 70.407 17.1065C69.2113 17.7969 68.8016 19.3259 69.492 20.5216Z" fill="white" stroke="#152633" stroke-width="2"/>
<path fill-rule="evenodd" clip-rule="evenodd" d="M40.0639 20.6962L62.156 11.3187L65.2151 17.5254L65.0871 20.5797L67.1389 23.0577L71.5336 33.4108L55.76 40.1063L52.1293 39.7985L48.4415 43.7883L47.5928 36.0773L45.7208 34.0229L40.0639 20.6962Z" fill="black" fill-opacity="0.07"/>
<path fill-rule="evenodd" clip-rule="evenodd" d="M37.0639 19.6962L59.156 10.3187L62.2151 16.5254L62.0871 19.5797L64.139 22.0577L68.5336 32.4108L52.76 39.1063L49.1293 38.7985L45.4415 42.7883L44.5928 35.0773L42.7208 33.0229L37.0639 19.6962Z" fill="white" stroke="#152633" stroke-width="2"/>
<path d="M50.7009 19.7533L56.6278 17.5216" stroke="#152633" stroke-width="2"/>
<path d="M50.7009 23.7533L55.2484 22.7941L58.6278 20.5216" stroke="#152633" stroke-width="2"/>
<path d="M53.724 27.5216L60.8166 24.0507" stroke="#152633" stroke-width="2"/>
<path d="M47.2292 26.1852L49.6919 26.9381C51.5242 27.4983 52.2749 28.8904 51.6839 30.8236C51.0916 32.7609 49.6659 33.5612 47.8378 33.0023L45.3752 32.2494L47.2292 26.1852ZM48.3912 27.9007L47.2978 31.477L48.0164 31.6967C49.0208 32.0038 49.7451 31.5589 50.1151 30.3486C50.4633 29.2097 50.0848 28.4184 49.1098 28.1204L48.3912 27.9007ZM55.1282 33.2506L54.613 34.9358L53.2976 34.5337L53.8128 32.8485L52.2075 32.3577L52.5994 31.0759L54.2047 31.5667L54.7199 29.8815L56.0353 30.2837L55.5201 31.9689L57.1213 32.4584L56.7294 33.7402L55.1282 33.2506Z" fill="#C51717"/>
<path fill-rule="evenodd" clip-rule="evenodd" d="M48.224 25.0216L44.224 22.0216L48.224 25.0216Z" stroke="#152633" stroke-width="2" stroke-linecap="round" stroke-linejoin="round"/>
<path fill-rule="evenodd" clip-rule="evenodd" d="M42.7201 24.0188C43.8228 24.8497 45.3903 24.6294 46.2212 23.5267C47.0521 22.424 46.8318 20.8565 45.7292 20.0256C44.6265 19.1946 43.059 19.4149 42.228 20.5176C41.3971 21.6203 41.6174 23.1878 42.7201 24.0188Z" fill="white" stroke="#152633" stroke-width="2"/>
<path fill-rule="evenodd" clip-rule="evenodd" d="M16.724 17.2722H33.224L34.724 18.2722L35.724 17.2722H40.724V41.2722H16.724V17.2722Z" fill="black" fill-opacity="0.07"/>
<path fill-rule="evenodd" clip-rule="evenodd" d="M14.724 15.2722H31.224L32.724 16.2722L33.724 15.2722H38.724V39.2722H14.724V15.2722Z" fill="white" stroke="#152633" stroke-width="2"/>
<path d="M16.724 24.5216L28.224 23.0216L33.724 23.5216" stroke="#152633" stroke-width="2"/>
<path d="M18.724 28.5216L25.224 27.0216L33.724 27.5216" stroke="#152633" stroke-width="2"/>
<path d="M27.4999 35.9118L24.6546 36.9473L22.4858 30.9885L25.2567 29.9799C26.4295 29.5531 27.3415 29.8618 27.6767 30.7827C27.9202 31.4517 27.6103 32.1677 26.9826 32.4991L26.9946 32.5321C27.8134 32.2762 28.6673 32.6435 28.9559 33.4364C29.3361 34.4811 28.7759 35.4473 27.4999 35.9118ZM24.3921 31.5105L24.8851 32.865L25.6656 32.5809C26.2148 32.381 26.4505 32.0006 26.2941 31.5712C26.1423 31.1541 25.7548 31.0145 25.2469 31.1994L24.3921 31.5105ZM25.7794 35.3221L26.6796 34.9944C27.3032 34.7675 27.5508 34.3687 27.3675 33.8649C27.1901 33.3776 26.7358 33.2343 26.1122 33.4612L25.2203 33.7859L25.7794 35.3221Z" fill="#C51717"/>
<path fill-rule="evenodd" clip-rule="evenodd" d="M26.224 18.5216L24.724 14.0216L26.224 18.5216Z" stroke="#152633" stroke-width="2" stroke-linecap="round" stroke-linejoin="round"/>
<path fill-rule="evenodd" clip-rule="evenodd" d="M22.492 15.2722C23.1823 16.4679 24.7113 16.8776 25.907 16.1872C27.1028 15.4969 27.5125 13.9679 26.8221 12.7722C26.1317 11.5764 24.6028 11.1668 23.407 11.8571C22.2113 12.5475 21.8016 14.0764 22.492 15.2722Z" fill="white" stroke="#152633" stroke-width="2"/>
<path fill-rule="evenodd" clip-rule="evenodd" d="M42.724 95.2722L57.724 96.0216L64.724 95.2722V98.0216L66.724 98.5216V119.272H42.724L42.4617 102.858L43.724 97.0216L42.724 95.2722Z" fill="white" stroke="#152633" stroke-width="2"/>
<path d="M53.9066 111.272L53.3734 109.415H50.6078L50.0687 111.272H47.8773L50.7191 102.817H53.35L56.1918 111.272H53.9066ZM51.9672 104.61L51.0238 107.868H52.9515L52.014 104.61H51.9672ZM60.9789 108.723H57.1234V106.942H60.9789V108.723Z" fill="#C51717"/>
<path fill-rule="evenodd" clip-rule="evenodd" d="M56.4707 98.8L55.1963 93.6595L56.4707 98.8Z" stroke="#152633" stroke-width="2" stroke-linecap="round" stroke-linejoin="round"/>
<path fill-rule="evenodd" clip-rule="evenodd" d="M52.492 94.2722C53.1823 95.4679 54.7113 95.8776 55.907 95.1872C57.1028 94.4969 57.5125 92.9679 56.8221 91.7722C56.1317 90.5764 54.6028 90.1668 53.407 90.8571C52.2113 91.5475 51.8016 93.0764 52.492 94.2722Z" fill="white" stroke="#152633" stroke-width="2"/>
<path fill-rule="evenodd" clip-rule="evenodd" d="M123.714 13.2794L143.732 16.901L139.628 38.2751L118.99 33.7412L123.714 13.2794Z" fill="black" fill-opacity="0.07"/>
<path fill-rule="evenodd" clip-rule="evenodd" d="M121.714 10.2794L141.732 13.901L137.628 35.2751L116.99 30.7412L121.714 10.2794Z" fill="white" stroke="#152633" stroke-width="2"/>
<path d="M123.12 28.1721C121.998 27.5246 121.7 26.4357 122.397 25.228C123.094 24.0203 124.188 23.7381 125.307 24.3841C126.273 24.9422 126.641 25.9933 126.119 26.903L125.089 26.3083C125.304 25.8776 125.192 25.4443 124.819 25.2289C124.377 24.9741 123.873 25.2037 123.495 25.8583C123.112 26.5205 123.163 27.0708 123.61 27.3287C123.98 27.5425 124.406 27.4263 124.684 27.0217L125.714 27.6164C125.181 28.5268 124.107 28.7419 123.12 28.1721ZM127.868 29.4284L127.289 30.4306L126.376 29.9032L126.954 28.901L126.003 28.3517L126.513 27.4688L127.464 28.0181L128.043 27.0159L128.956 27.5432L128.378 28.5454L129.329 29.0948L128.819 29.9777L127.868 29.4284Z" fill="#C51717"/>
<path fill-rule="evenodd" clip-rule="evenodd" d="M126.389 14.2357L126.474 9.08859L126.389 14.2357Z" stroke="#152633" stroke-width="2" stroke-linecap="round" stroke-linejoin="round"/>
<path fill-rule="evenodd" clip-rule="evenodd" d="M125.224 11.2536C126.42 11.944 127.949 11.5343 128.639 10.3386C129.329 9.14285 128.92 7.61388 127.724 6.92352C126.528 6.23316 124.999 6.64285 124.309 7.83858C123.619 9.03431 124.028 10.5633 125.224 11.2536Z" fill="white" stroke="#152633" stroke-width="2"/>
<path d="M124.224 17.5216L131.724 19.0216" stroke="#152633" stroke-width="2"/>
<path d="M124.224 20.5216L131.724 22.0216" stroke="#152633" stroke-width="2"/>
<path fill-rule="evenodd" clip-rule="evenodd" d="M189.27 107.684L209.257 103.891L213.085 125.317L192.193 128.48L189.27 107.684Z" fill="white" stroke="#152633" stroke-width="2"/>
<path d="M194.209 113.546L201.748 112.259" stroke="#152633" stroke-width="2"/>
<path d="M193.417 117.063L200.956 115.776" stroke="#152633" stroke-width="2"/>
<path d="M195.784 120.439L203.682 120.086" stroke="#152633" stroke-width="2"/>
<path d="M206.591 118.076L204.116 117.684L204.888 112.813L207.281 113.192C208.277 113.35 208.789 113.898 208.669 114.657C208.58 115.218 208.088 115.572 207.513 115.554L207.509 115.581C208.164 115.702 208.636 116.286 208.534 116.93C208.399 117.785 207.634 118.241 206.591 118.076ZM206.164 114.022L206.01 114.991L206.564 115.078C206.932 115.137 207.192 114.981 207.238 114.687C207.286 114.387 207.099 114.17 206.738 114.113L206.164 114.022ZM205.703 116.929L206.314 117.025C206.757 117.095 207.041 116.936 207.1 116.568C207.155 116.221 206.93 115.977 206.502 115.91L205.88 115.811L205.703 116.929Z" fill="#C51717"/>
<path fill-rule="evenodd" clip-rule="evenodd" d="M94.448 13.213L115.466 17.8346L113.893 19.8215L114.64 22.1375L112.191 23.4794L112.917 30.1147L110.492 32.328L111.001 34.8834L110.363 38.2087L89.724 33.6748L94.448 13.213Z" fill="black" fill-opacity="0.07"/>
<path fill-rule="evenodd" clip-rule="evenodd" d="M92.448 12.213L113.466 16.8346L111.893 18.8215L112.64 21.1375L110.191 22.4794L110.917 29.1147L108.492 31.328L109.001 33.8834L108.363 37.2087L87.724 32.6748L92.448 12.213Z" fill="white" stroke="#152633" stroke-width="2"/>
<path d="M99.3496 30.228L96.8503 30.4028L96.5063 25.4827L98.9237 25.3137C99.9296 25.2433 100.552 25.6624 100.605 26.4295C100.645 26.9955 100.245 27.4518 99.6806 27.5632L99.6825 27.5905C100.349 27.561 100.939 28.0234 100.985 28.6746C101.045 29.5373 100.403 30.1544 99.3496 30.228ZM98.0214 26.3738L98.0898 27.3524L98.649 27.3133C99.0206 27.2873 99.2389 27.0767 99.2181 26.7801C99.1969 26.4766 98.9658 26.3078 98.601 26.3333L98.0214 26.3738ZM98.2266 29.3095L98.8438 29.2664C99.2904 29.2351 99.5321 29.0161 99.5061 28.6444C99.4816 28.2932 99.2081 28.1068 98.7751 28.1371L98.1477 28.1809L98.2266 29.3095Z" fill="#C51717"/>
<path fill-rule="evenodd" clip-rule="evenodd" d="M105.724 17.5216L107.208 13.0222L105.724 17.5216Z" stroke="#152633" stroke-width="2" stroke-linecap="round" stroke-linejoin="round"/>
<path fill-rule="evenodd" clip-rule="evenodd" d="M105.958 15.1872C107.154 15.8776 108.683 15.4679 109.373 14.2722C110.063 13.0764 109.654 11.5475 108.458 10.8571C107.262 10.1668 105.733 10.5764 105.043 11.7722C104.353 12.9679 104.762 14.4969 105.958 15.1872Z" fill="white" stroke="#152633" stroke-width="2"/>
<path d="M94.9581 19.4552L102.458 20.9552" stroke="#152633" stroke-width="2"/>
<path fill-rule="evenodd" clip-rule="evenodd" d="M180.362 43.1016L193.508 27.5759L207.954 40.6644L207.454 41.6644L208.454 43.6644L195.72 57.4235L180.362 43.1016Z" fill="black" fill-opacity="0.07"/>
<path fill-rule="evenodd" clip-rule="evenodd" d="M180.408 40.1015L193.554 24.5758L210.013 38.817L195.767 54.4235L180.408 40.1015Z" fill="white" stroke="#152633" stroke-width="2"/>
<path fill-rule="evenodd" clip-rule="evenodd" d="M195.724 31.0216L198.133 26.0387L195.724 31.0216Z" stroke="#152633" stroke-width="2" stroke-linecap="round" stroke-linejoin="round"/>
<path fill-rule="evenodd" clip-rule="evenodd" d="M199.506 28.6122C200.702 27.9219 201.112 26.3929 200.421 25.1971C199.731 24.0014 198.202 23.5917 197.006 24.2821C195.81 24.9724 195.401 26.5014 196.091 27.6971C196.781 28.8929 198.31 29.3026 199.506 28.6122Z" fill="white" stroke="#152633" stroke-width="2"/>
<path d="M195.656 42.2264L194.944 41.505L193.641 42.257L193.91 43.2347L192.631 43.973L191.559 38.8967L193.134 37.9875L196.994 41.4539L195.656 42.2264ZM192.874 39.4517L193.358 41.2403L194.205 40.7516L192.898 39.4381L192.874 39.4517ZM198.729 38.8186L196.778 39.9448L196.183 38.9147L198.134 37.7885L198.729 38.8186Z" fill="#C51717"/>
<path fill-rule="evenodd" clip-rule="evenodd" d="M191.507 60.0694L196.69 62.6147L199.921 60.9572L209.89 62.009L207.841 80.644L190.706 79.8544L191.507 60.0694Z" fill="black" fill-opacity="0.07"/>
<path fill-rule="evenodd" clip-rule="evenodd" d="M191.628 58.0588L197.05 60.5832L200.443 58.9115L210.886 59.9219L208.661 78.5723L190.706 77.8544L191.628 58.0588Z" fill="white" stroke="#152633" stroke-width="2"/>
<path d="M199.583 72.2579C197.648 72.4272 196.345 71.3458 196.162 69.2619C195.98 67.1781 197.081 65.8908 199.011 65.7219C200.679 65.5759 202.035 66.5513 202.176 68.1182L200.399 68.2737C200.292 67.5596 199.782 67.1234 199.139 67.1797C198.377 67.2463 197.954 67.9626 198.053 69.0921C198.153 70.2347 198.689 70.8671 199.46 70.7997C200.099 70.7438 200.522 70.2348 200.515 69.4987L202.292 69.3432C202.422 70.92 201.286 72.1089 199.583 72.2579Z" fill="#C51717"/>
<path fill-rule="evenodd" clip-rule="evenodd" d="M203.631 62.5925L206.267 58.4576L203.631 62.5925Z" stroke="#152633" stroke-width="2" stroke-linecap="round" stroke-linejoin="round"/>
<path fill-rule="evenodd" clip-rule="evenodd" d="M205.21 60.7234C206.461 61.3069 207.949 60.7655 208.532 59.5142C209.116 58.2628 208.575 56.7754 207.323 56.1918C206.072 55.6083 204.584 56.1497 204.001 57.4011C203.417 58.6524 203.959 60.1399 205.21 60.7234Z" fill="white" stroke="#152633" stroke-width="2"/>
<path fill-rule="evenodd" clip-rule="evenodd" d="M60.1273 51.8075L84.7044 52.7552L84.6273 73.3075L60.1273 74.8075L60.1273 51.8075Z" fill="#EDEDED"/>
<path fill-rule="evenodd" clip-rule="evenodd" d="M58.1273 49.8075L82.7044 50.7552L82.6273 71.3075L58.1273 72.8075L58.1273 49.8075Z" fill="white" stroke="#152633" stroke-width="2"/>
<path d="M62.1267 59.4294L70.3765 59.198" stroke="#152633" stroke-width="2"/>
<path d="M62.1267 63.4294L67.3879 63.4595" stroke="#152633" stroke-width="2"/>
<path d="M73.8273 67.5659L73.4865 66.611L71.9883 66.742L71.8184 67.7416L70.3475 67.8703L71.5213 62.8166L73.3328 62.6582L75.3664 67.4312L73.8273 67.5659ZM72.4786 63.8754L72.1614 65.701L73.1352 65.6158L72.5058 63.873L72.4786 63.8754ZM78.0521 65.7758L75.8083 65.9721L75.7046 64.7872L77.9485 64.5909L78.0521 65.7758Z" fill="#C51717"/>
<path fill-rule="evenodd" clip-rule="evenodd" d="M77.224 55.0216L77.224 50.5216L77.224 55.0216Z" stroke="#152633" stroke-width="2" stroke-linecap="round" stroke-linejoin="round"/>
<path fill-rule="evenodd" clip-rule="evenodd" d="M76.0281 52.5567C77.2795 53.1402 78.7669 52.5988 79.3505 51.3475C79.934 50.0961 79.3926 48.6087 78.1412 48.0252C76.8899 47.4416 75.4024 47.983 74.8189 49.2344C74.2354 50.4857 74.7768 51.9732 76.0281 52.5567Z" fill="white" stroke="#152633" stroke-width="2"/>
<path fill-rule="evenodd" clip-rule="evenodd" d="M129.169 59.8075L153.746 60.7552L153.669 83.3075L129.169 82.8075L129.169 59.8075Z" fill="black" fill-opacity="0.07"/>
<path fill-rule="evenodd" clip-rule="evenodd" d="M127.169 57.8075L151.746 58.7552L151.669 81.3075L127.169 80.8075L127.169 57.8075Z" fill="white" stroke="#152633" stroke-width="2"/>
<path d="M138.289 71.7041L135.436 71.9536L134.945 66.3384L137.704 66.097C138.852 65.9966 139.571 66.463 139.648 67.3386C139.704 67.9845 139.257 68.5139 138.614 68.6524L138.617 68.6836C139.377 68.6366 140.062 69.1532 140.127 69.8964C140.213 70.8809 139.491 71.5989 138.289 71.7041ZM136.694 67.3264L136.792 68.4432L137.43 68.3874C137.854 68.3503 138.099 68.1053 138.07 67.7668C138.04 67.4205 137.772 67.2321 137.356 67.2685L136.694 67.3264ZM136.987 70.6769L137.692 70.6153C138.201 70.5707 138.473 70.3156 138.436 69.8914C138.401 69.4906 138.085 69.283 137.591 69.3262L136.875 69.3889L136.987 70.6769ZM143.732 69.6045L143.867 71.1416L142.466 71.2642L142.331 69.7271L140.872 69.8547L140.753 68.5005L142.213 68.3729L142.078 66.8358L143.479 66.7132L143.614 68.2503L145.073 68.1226L145.191 69.4768L143.732 69.6045Z" fill="#C51717"/>
<path fill-rule="evenodd" clip-rule="evenodd" d="M130.884 50.4687L145.714 43.2356L147.5 43.4768L147.961 42.1397L152.455 39.9478L158.592 52.5309L158.11 56.1041L161.222 57.9237L160.762 59.2609L162.099 59.7213L162.976 61.5189L155.785 65.0258L147.729 65.6172L146.37 67.3928L144.562 69.3875L140.769 68.4556L139.673 66.2086L137.898 64.8494L132.418 53.6145L132.659 51.8279L130.884 50.4687Z" fill="black" fill-opacity="0.07"/>
<path fill-rule="evenodd" clip-rule="evenodd" d="M129.884 48.4687L144.714 41.2356L146.5 41.4768L146.961 40.1397L151.455 37.9478L157.592 50.5309L157.11 54.1041L160.222 55.9237L159.762 57.2609L161.099 57.7213L161.976 59.5189L154.785 63.0258L146.729 63.6172L145.37 65.3928L143.562 67.3875L139.769 66.4556L138.673 64.2086L136.898 62.8494L131.418 51.6145L131.659 49.8279L129.884 48.4687Z" fill="white" stroke="#152633" stroke-width="2"/>
<path fill-rule="evenodd" clip-rule="evenodd" d="M138.685 46.5359L139.129 41.4072L138.685 46.5359Z" stroke="#152633" stroke-width="2" stroke-linecap="round" stroke-linejoin="round"/>
<path fill-rule="evenodd" clip-rule="evenodd" d="M137.731 43.4798C138.875 44.2519 140.429 43.9498 141.201 42.8052C141.973 41.6605 141.671 40.1067 140.527 39.3346C139.382 38.5625 137.828 38.8646 137.056 40.0092C136.284 41.1539 136.586 42.7077 137.731 43.4798Z" fill="white" stroke="#152633" stroke-width="2"/>
<path d="M137.424 54.8044L142.817 52.1742L148.21 49.5439" stroke="#152633" stroke-width="2"/>
<path d="M135.671 51.2092L138.817 49.6749L141.962 48.1406" stroke="#152633" stroke-width="2"/>
<path d="M140.931 57.9948L147.223 54.9262L153.514 51.8576" stroke="#152633" stroke-width="2"/>
<path d="M145.1 44.3344L147.204 44.4815C148.697 44.5859 149.514 45.4962 149.404 47.0715C149.294 48.6467 148.35 49.5058 146.86 49.4016L144.756 49.2545L145.1 44.3344ZM146.466 45.5845L146.282 48.2065L146.736 48.2382C147.459 48.2888 147.868 47.8754 147.931 46.9685C147.989 46.1399 147.611 45.6646 146.919 45.6162L146.466 45.5845Z" fill="#C51717"/>
<path fill-rule="evenodd" clip-rule="evenodd" d="M36.7397 38.1645L43.724 43.6187L46.2159 49.1794L45.7587 50.9233L47.3554 52.4887L46.1155 55.0309L48.6577 56.2708L51.2622 63.835L50.0223 66.3771L51.7818 68.4154L51.4874 70.632L53.4096 73.143L54.6807 73.7629L56.7969 79.9088L55.557 82.451L25.7731 92.7064L22.3084 92.5242L21.9339 90.5837L20.216 90.3893L17.8366 89.6222L13.9298 78.276L15.0069 75.261L12.4648 74.0211L12.7592 71.8045L10.6741 68.8208L4 49.4377L36.7397 38.1645Z" fill="#EDEDED"/>
<path fill-rule="evenodd" clip-rule="evenodd" d="M34.7397 37.0673L41.724 42.5216L44.2159 48.0823L43.7587 49.8261L45.3554 51.3916L44.1155 53.9338L46.6577 55.1737L49.2622 62.7378L48.0223 65.28L49.7818 67.3182L49.4874 69.5348L51.4096 72.0458L52.6807 72.6658L54.7969 78.8116L53.557 81.3538L23.7731 91.6092L20.3084 91.4271L19.9339 89.4865L18.216 89.2922L15.8366 88.5251L11.9298 77.1788L13.0069 74.1639L10.4648 72.924L10.7592 70.7074L8.67415 67.7237L2 48.3405L34.7397 37.0673Z" fill="white" stroke="#152633" stroke-width="2"/>
<path d="M34.724 37.0216L36.224 44.0216L42.224 42.5216" stroke="#152633" stroke-width="2"/>
<path d="M10.724 59.0216L18.224 56.5216" stroke="#152633" stroke-width="2"/>
<path d="M12.724 65.5216L20.224 63.0216L24.724 62.0216L28.224 60.0216L33.724 58.5216" stroke="#152633" stroke-width="2"/>
<path d="M14.724 69.5216L21.224 68.0216L30.224 64.0216L38.224 62.5216" stroke="#152633" stroke-width="2"/>
<path d="M16.724 74.5216L24.224 72.0216L31.724 69.5216L43.224 66.0216" stroke="#152633" stroke-width="2"/>
<path d="M18.724 79.5216L24.724 78.5216L34.224 74.0216L39.724 72.5216" stroke="#152633" stroke-width="2"/>
<path d="M21.724 85.5216L29.224 83.0216" stroke="#152633" stroke-width="2"/>
<path d="M28.724 45.5216L26.224 41.0216" stroke="#152633" stroke-width="2" stroke-linecap="round"/>
<path d="M26.224 43.5216C27.6047 43.5216 28.724 42.4023 28.724 41.0216C28.724 39.6409 27.6047 38.5216 26.224 38.5216C24.8433 38.5216 23.724 39.6409 23.724 41.0216C23.724 42.4023 24.8433 43.5216 26.224 43.5216Z" fill="white" stroke="#152633" stroke-width="2"/>
<path d="M40.376 81.4059L38.0754 84.1476L32.6779 79.6186L34.9032 76.9666C35.8291 75.8632 36.877 75.6398 37.7186 76.346C38.3395 76.867 38.4116 77.7306 37.966 78.4212L37.996 78.4463C38.6267 77.7326 39.6881 77.5843 40.4026 78.1838C41.3489 78.9778 41.3458 80.2501 40.376 81.4059ZM35.0972 78.946L36.1707 79.8468L36.6854 79.2334C37.0275 78.8256 37.0277 78.3924 36.7023 78.1193C36.3694 77.84 35.9666 77.9099 35.6307 78.3101L35.0972 78.946ZM38.3177 81.6484L38.8858 80.9713C39.2969 80.4813 39.3116 80.0156 38.9039 79.6735C38.5187 79.3502 38.0557 79.4462 37.6571 79.9212L37.0796 80.6095L38.3177 81.6484ZM43.0457 75.0793L40.9774 77.5443L39.6757 76.4521L41.7441 73.9871L43.0457 75.0793Z" fill="#C51717"/>
<path fill-rule="evenodd" clip-rule="evenodd" d="M191.5 65.5216L197.616 80.4338L201.522 91.78L201 94.0216L202.987 96.0348L203 100.522L205.5 101.522L208.5 108.022L175 120.022L172.5 113.522L169 104.022L166 95.5216L159 77.0216L191.5 65.5216Z" fill="black" fill-opacity="0.07"/>
<path fill-rule="evenodd" clip-rule="evenodd" d="M188.724 64.5216L194.84 79.4338L198.746 90.78L198.224 93.0216L200.211 95.0348L200.224 99.5216L202.724 100.522L205.724 107.022L172.224 119.022L169.724 112.522L166.224 103.022L163.224 94.5216L156.224 76.0216L188.724 64.5216Z" fill="white" stroke="#152633" stroke-width="2"/>
<path d="M163.448 84.5216L170.948 82.0216" stroke="#152633" stroke-width="2"/>
<path d="M165.448 89.5216L178.948 85.0216" stroke="#152633" stroke-width="2"/>
<path d="M167.448 94.0216L174.948 91.5216L179.448 90.5216L182.948 88.5216L188.448 87.0216" stroke="#152633" stroke-width="2"/>
<path d="M169.448 99.0216L175.448 98.0216L184.948 93.5216L190.448 92.0216" stroke="#152633" stroke-width="2"/>
<path d="M180.717 108.462L179.834 107.712L178.426 108.698L178.829 109.784L177.447 110.752L175.721 105.08L177.423 103.888L182.163 107.45L180.717 108.462ZM177.273 105.581L178.002 107.569L178.917 106.928L177.299 105.563L177.273 105.581ZM184.167 104.073L185.052 105.337L183.9 106.143L183.015 104.879L181.815 105.719L181.035 104.606L182.235 103.766L181.35 102.502L182.502 101.695L183.387 102.959L184.587 102.119L185.366 103.232L184.167 104.073Z" fill="#C51717"/>
<path fill-rule="evenodd" clip-rule="evenodd" d="M127.149 42.7714L134.568 55.8562L133.727 58.4705L120.146 91.1446L90.4477 79.4322L87.8696 77.1102L85.4479 75.0216L86.2208 72.0407L90.325 60.7644L91.8641 56.5358L93.7452 51.3675L100.757 32.1038L127.149 42.7714Z" fill="black" fill-opacity="0.07"/>
<path fill-rule="evenodd" clip-rule="evenodd" d="M126.149 39.7714L133.568 52.8562L132.727 55.4705L119.146 88.1446L89.4477 76.4322L86.8697 74.1102L84.448 72.0216L85.2208 69.0407L89.3251 57.7644L90.8642 53.5358L92.7453 48.3675L99.7567 29.1038L126.149 39.7714Z" fill="white" stroke="#152633" stroke-width="2"/>
<path d="M125.76 39.4568L125.629 48.358L133.568 52.8562" stroke="#152633" stroke-width="2"/>
<path d="M99.8147 42.8948L107.217 45.6718" stroke="#152633" stroke-width="2"/>
<path d="M97.4262 50.6113L104.828 53.3884L118.152 58.387" stroke="#152633" stroke-width="2"/>
<path d="M95.6861 54.3492L118.354 63.6982" stroke="#152633" stroke-width="2"/>
<path d="M94.0938 59.4936L108.756 65.5406" stroke="#152633" stroke-width="2"/>
<path d="M92.5015 64.638L99.9034 67.415" stroke="#152633" stroke-width="2"/>
<path d="M104.239 34.2532L105.128 29.1828" stroke="#152633" stroke-width="2" stroke-linecap="round"/>
<path d="M103.555 31.1257C104.628 31.9946 106.202 31.8291 107.071 30.7561C107.94 29.6831 107.774 28.1088 106.701 27.2399C105.628 26.371 104.054 26.5365 103.185 27.6095C102.316 28.6825 102.482 30.2567 103.555 31.1257Z" fill="white" stroke="#152633" stroke-width="2"/>
<path d="M116.659 49.0783L117.018 47.6751L115.139 46.6335L114.14 47.6816L112.295 46.659L117.722 41.6115L119.994 42.8709L118.59 50.1483L116.659 49.0783ZM118.01 43.6301L116.176 45.5389L117.397 46.2159L118.044 43.6491L118.01 43.6301Z" fill="#C51717"/>
<path fill-rule="evenodd" clip-rule="evenodd" d="M133.11 90.5481L141.907 95.95L141.5 123.164L100.5 119.664L102.082 89.8697L133.11 90.5481Z" fill="black" fill-opacity="0.07"/>
<path fill-rule="evenodd" clip-rule="evenodd" d="M131.11 87.5481L139.907 92.95L139.735 125.646L97.7428 122.839L100.082 86.8697L131.11 87.5481Z" fill="white" stroke="#152633" stroke-width="2"/>
<path d="M130.637 87.3853L133.559 95.7946L138.967 93.292" stroke="#152633" stroke-width="2"/>
<path d="M102.647 98.039L110.553 98.1169" stroke="#152633" stroke-width="2"/>
<path d="M125.507 120.035L133.413 120.113" stroke="#152633" stroke-width="2"/>
<path d="M102.358 104.228L109.921 103.366L113.944 104.342L124.493 104.446" stroke="#152633" stroke-width="2"/>
<path d="M101.404 109.617L125.902 110.649" stroke="#152633" stroke-width="2"/>
<path d="M107.733 117.044L123.579 117.712" stroke="#152633" stroke-width="2"/>
<path d="M107.997 122.423L115.902 122.501" stroke="#152633" stroke-width="2"/>
<path d="M108.634 89.8564L107.735 84.7876" stroke="#152633" stroke-width="2" stroke-linecap="round"/>
<path d="M106.921 87.1514C108.227 87.601 109.649 86.9071 110.099 85.6016C110.548 84.2961 109.855 82.8734 108.549 82.4238C107.244 81.9743 105.821 82.6682 105.371 83.9737C104.922 85.2792 105.616 86.7019 106.921 87.1514Z" fill="white" stroke="#152633" stroke-width="2"/>
<path d="M130.081 112.353L129.137 111.254L127.206 112.196L127.492 113.616L125.596 114.54L124.574 107.199L126.909 106.061L132.065 111.385L130.081 112.353ZM126.393 108.121L126.904 110.719L128.159 110.106L126.428 108.104L126.393 108.121ZM134.799 107.803L131.907 109.213L131.162 107.686L134.054 106.275L134.799 107.803Z" fill="#C51717"/>
<path fill-rule="evenodd" clip-rule="evenodd" d="M187.724 14.5216L189.224 52.5216L153.724 52.5216L153.724 43.0216L155.724 39.5216L152.224 33.5216L151.724 19.5216L159.724 13.5216L187.724 14.5216Z" fill="black" fill-opacity="0.07"/>
<path fill-rule="evenodd" clip-rule="evenodd" d="M185.724 12.5216L187.224 50.5216L151.724 50.5216L151.724 41.0216L153.724 37.5216L150.224 31.5216L149.724 17.5216L157.724 11.5216L185.724 12.5216Z" fill="white" stroke="#152633" stroke-width="2"/>
<path d="M150.224 17.5216L156.224 17.5216L157.724 11.5216" stroke="#152633" stroke-width="2"/>
<path d="M155.669 23.4291L163.552 22.8178" stroke="#152633" stroke-width="2"/>
<path d="M156.766 29.4321L164.648 28.8208L178.836 27.7204" stroke="#152633" stroke-width="2"/>
<path d="M156.769 33.5552L175.442 31.9968" stroke="#152633" stroke-width="2"/>
<path d="M158.231 44.2258L166.113 43.6145" stroke="#152633" stroke-width="2"/>
<path d="M179.224 16.5216L181.69 11.7563" stroke="#152633" stroke-width="2" stroke-linecap="round"/>
<path d="M181.085 14.1821C182.425 14.5161 183.782 13.7008 184.116 12.3611C184.45 11.0214 183.635 9.6646 182.295 9.33057C180.955 8.99655 179.598 9.81181 179.264 11.1515C178.93 12.4912 179.746 13.848 181.085 14.1821Z" fill="white" stroke="#152633" stroke-width="2"/>
<path d="M178.272 46.9496C176.119 46.799 174.876 45.3857 175.038 43.0671C175.201 40.7486 176.632 39.5271 178.78 39.6773C180.636 39.8071 181.954 41.1132 181.837 42.8573L179.86 42.719C179.867 41.9168 179.383 41.3494 178.667 41.2993C177.819 41.2401 177.231 41.9527 177.143 43.2094C177.054 44.4807 177.533 45.268 178.39 45.3279C179.101 45.3777 179.654 44.8926 179.774 44.0836L181.752 44.2218C181.619 45.9747 180.166 47.0821 178.272 46.9496Z" fill="#C51717"/>
<path fill-rule="evenodd" clip-rule="evenodd" d="M82 67.381L97.8608 71.929L99.0271 73.3037L100.264 72.6181L105.07 73.9962L98.455 97.0665L75.3847 90.4512L82 67.381Z" fill="black" fill-opacity="0.07"/>
<path fill-rule="evenodd" clip-rule="evenodd" d="M80.1518 64.381L96.0126 68.929L97.1789 70.3037L98.4158 69.6181L103.222 70.9962L96.6068 94.0665L73.5365 87.4512L80.1518 64.381Z" fill="white" stroke="#152633" stroke-width="2"/>
<path d="M84.901 83.0144L81.6483 82.0817L83.5905 75.3087L86.7493 76.2145C88.1011 76.6021 88.7159 77.4693 88.4145 78.5206C88.2059 79.2481 87.4851 79.7069 86.7387 79.5995L86.7131 79.6887C87.5868 79.99 88.0742 80.8765 87.8265 81.7401C87.486 82.9276 86.3514 83.4302 84.901 83.0144ZM84.9644 77.0183L84.5216 78.5625L85.4322 78.8236C86.0612 79.004 86.5107 78.818 86.648 78.3392C86.7866 77.8558 86.5274 77.4665 85.9407 77.2983L84.9644 77.0183ZM83.7195 81.3599L84.7615 81.6587C85.4749 81.8633 85.9547 81.6605 86.1189 81.0879C86.2777 80.5341 85.9676 80.1099 85.2541 79.9053L84.2215 79.6092L83.7195 81.3599ZM92.4418 82.9873L91.9021 84.8695L90.433 84.4482L90.9727 82.5661L89.1797 82.052L89.5902 80.6204L91.3832 81.1345L91.9229 79.2524L93.392 79.6736L92.8523 81.5558L94.6406 82.0686L94.2301 83.5001L92.4418 82.9873Z" fill="#C51717"/>
<path fill-rule="evenodd" clip-rule="evenodd" d="M86.224 72.0216L87.5707 67.2885L86.224 72.0216Z" stroke="#152633" stroke-width="2" stroke-linecap="round" stroke-linejoin="round"/>
<path fill-rule="evenodd" clip-rule="evenodd" d="M85.1451 67.8933C85.4791 69.233 86.8359 70.0483 88.1756 69.7143C89.5153 69.3802 90.3306 68.0234 89.9965 66.6837C89.6625 65.344 88.3057 64.5288 86.966 64.8628C85.6263 65.1968 84.811 66.5536 85.1451 67.8933Z" fill="white" stroke="#152633" stroke-width="2"/>
<path fill-rule="evenodd" clip-rule="evenodd" d="M158.724 45.2722L173.724 46.0216L180.724 45.2722V48.0216L182.724 48.5216V69.2722H158.724L158.462 52.8577L158.724 45.2722Z" fill="black" fill-opacity="0.07"/>
<path fill-rule="evenodd" clip-rule="evenodd" d="M156.724 43.2722L171.724 44.0216L178.724 43.2722V46.0216L180.724 46.5216V67.2722H156.724L156.462 50.8577L156.724 43.2722Z" fill="white" stroke="#152633" stroke-width="2"/>
<path d="M179.448 71.0216L176.948 66.5216" stroke="#152633" stroke-width="2" stroke-linecap="round"/>
<path d="M176.948 69.0216C178.329 69.0216 179.448 67.9023 179.448 66.5216C179.448 65.1409 178.329 64.0216 176.948 64.0216C175.567 64.0216 174.448 65.1409 174.448 66.5216C174.448 67.9023 175.567 69.0216 176.948 69.0216Z" fill="white" stroke="#152633" stroke-width="2"/>
<path d="M167.088 59.2722H163.724V52.2263H167C168.387 52.2263 169.222 52.8952 169.222 53.9841C169.222 54.7751 168.626 55.405 167.845 55.5124V55.5515C168.797 55.5954 169.549 56.3034 169.549 57.2409C169.549 58.4763 168.597 59.2722 167.088 59.2722ZM165.516 53.4958V55.0974H166.439C167.088 55.0974 167.479 54.7898 167.479 54.282C167.479 53.7888 167.127 53.4958 166.527 53.4958H165.516ZM165.516 58.0027H166.58C167.318 58.0027 167.728 57.6804 167.728 57.0847C167.728 56.5085 167.308 56.1862 166.571 56.1862H165.516V58.0027ZM173.621 57.1482H170.409V55.6638H173.621V57.1482Z" fill="#C51717"/>
<path fill-rule="evenodd" clip-rule="evenodd" d="M170.471 46.8L169.196 41.6595L170.471 46.8Z" stroke="#152633" stroke-width="2" stroke-linecap="round" stroke-linejoin="round"/>
<path fill-rule="evenodd" clip-rule="evenodd" d="M166.492 42.2722C167.182 43.4679 168.711 43.8776 169.907 43.1872C171.103 42.4969 171.512 40.9679 170.822 39.7722C170.132 38.5764 168.603 38.1668 167.407 38.8571C166.211 39.5475 165.802 41.0764 166.492 42.2722Z" fill="white" stroke="#152633" stroke-width="2"/>
<path fill-rule="evenodd" clip-rule="evenodd" d="M64.724 86.5216H81.224L82.724 87.5216L83.724 86.5216H88.724V110.522H64.724V86.5216Z" fill="black" fill-opacity="0.07"/>
<path fill-rule="evenodd" clip-rule="evenodd" d="M62.724 84.5216H79.224L80.724 85.5216L81.724 84.5216H86.724V108.522H62.724V84.5216Z" fill="white" stroke="#152633" stroke-width="2"/>
<path d="M71.097 92.0665H74.5306C77.0853 92.0665 78.5853 93.5489 78.5853 96.2442C78.5853 98.9454 77.0795 100.522 74.5306 100.522H71.097V92.0665ZM73.2474 93.8009V98.7872H74.2494C75.6498 98.7872 76.3998 97.9376 76.3998 96.2501C76.3998 94.6622 75.6088 93.8009 74.2494 93.8009H73.2474Z" fill="#C51717"/>
<path fill-rule="evenodd" clip-rule="evenodd" d="M68.0099 89.6867L70.657 85.2716L68.0099 89.6867Z" stroke="#152633" stroke-width="2" stroke-linecap="round" stroke-linejoin="round"/>
<path fill-rule="evenodd" clip-rule="evenodd" d="M68.492 86.5216C69.1823 87.7173 70.7113 88.127 71.907 87.4367C73.1028 86.7463 73.5125 85.2173 72.8221 84.0216C72.1317 82.8259 70.6028 82.4162 69.407 83.1065C68.2113 83.7969 67.8016 85.3259 68.492 86.5216Z" fill="white" stroke="#152633" stroke-width="2"/>
<path fill-rule="evenodd" clip-rule="evenodd" d="M142.724 74.1644L163.742 78.786L162.169 80.7729L160.467 84.4308L161.193 91.0661L159.277 95.8349L158.639 99.1601L138 94.6262L142.724 74.1644Z" fill="black" fill-opacity="0.07"/>
<path fill-rule="evenodd" clip-rule="evenodd" d="M141.448 72.213L162.466 76.8346L160.893 78.8215L159.191 82.4794L159.917 89.1147L158.001 93.8834L157.363 97.2087L136.724 92.6748L141.448 72.213Z" fill="white" stroke="#152633" stroke-width="2"/>
<path fill-rule="evenodd" clip-rule="evenodd" d="M156.724 78.5216L156.208 73.0222L156.724 78.5216Z" stroke="#152633" stroke-width="2" stroke-linecap="round" stroke-linejoin="round"/>
<path fill-rule="evenodd" clip-rule="evenodd" d="M154.958 75.1872C156.154 75.8776 157.683 75.4679 158.373 74.2722C159.063 73.0764 158.654 71.5475 157.458 70.8571C156.262 70.1668 154.733 70.5764 154.043 71.7722C153.353 72.9679 153.762 74.4969 154.958 75.1872Z" fill="white" stroke="#152633" stroke-width="2"/>
<path d="M143.958 79.4552L151.458 80.9552" stroke="#152633" stroke-width="2"/>
<path d="M142.958 83.4552L150.458 84.9552" stroke="#152633" stroke-width="2"/>
<path d="M152.35 92.228L149.85 92.4028L149.506 87.4827L151.924 87.3136C152.93 87.2433 153.552 87.6624 153.605 88.4295C153.645 88.9955 153.245 89.4518 152.681 89.5632L152.683 89.5905C153.349 89.561 153.939 90.0234 153.985 90.6746C154.045 91.5373 153.403 92.1544 152.35 92.228ZM151.021 88.3738L151.09 89.3524L151.649 89.3133C152.021 89.2873 152.239 89.0767 152.218 88.7801C152.197 88.4766 151.966 88.3078 151.601 88.3333L151.021 88.3738ZM151.227 91.3095L151.844 91.2663C152.29 91.2351 152.532 91.0161 152.506 90.6444C152.482 90.2932 152.208 90.1068 151.775 90.137L151.148 90.1809L151.227 91.3095Z" fill="#C51717"/>
<path d="M163.224 109.522H146.724L147.724 111.522L146.724 113.022V123.522H170.724V109.522H165.724L164.724 110.522L163.224 109.522Z" fill="black" fill-opacity="0.07"/>
<path fill-rule="evenodd" clip-rule="evenodd" d="M144.724 107.522H161.224L162.724 108.522L163.724 107.522H168.724V121.522L166.724 124.522L168.724 127.522L167.724 128.522L168.724 129.522V131.522H160.724L153.224 128.522L151.224 129.522L148.724 130.522L145.724 128.022V125.522L144.724 123.522V111.022L145.724 109.522L144.724 107.522Z" fill="white" stroke="#152633" stroke-width="2"/>
<path fill-rule="evenodd" clip-rule="evenodd" d="M149.01 109.687L151.657 105.272L149.01 109.687Z" stroke="#152633" stroke-width="2" stroke-linecap="round" stroke-linejoin="round"/>
<path fill-rule="evenodd" clip-rule="evenodd" d="M149.492 106.522C150.182 107.717 151.711 108.127 152.907 107.437C154.103 106.746 154.512 105.217 153.822 104.022C153.132 102.826 151.603 102.416 150.407 103.107C149.211 103.797 148.802 105.326 149.492 106.522Z" fill="white" stroke="#152633" stroke-width="2"/>
<path d="M148.724 120.522H153.724H158.724" stroke="#152633" stroke-width="2"/>
<path d="M148.724 116.522H154.724H160.724" stroke="#152633" stroke-width="2"/>
<path d="M148.724 112.522H152.224H155.724" stroke="#152633" stroke-width="2"/>
<path d="M148.724 124.522H155.724H162.724" stroke="#152633" stroke-width="2"/>
<path d="M153.724 128.522H156.724H159.724" stroke="#152633" stroke-width="2"/>
<path d="M160.063 116.06L157.893 114.807L160.359 110.536L162.458 111.748C163.331 112.252 163.612 112.947 163.228 113.613C162.944 114.104 162.358 114.259 161.827 114.036L161.814 114.06C162.382 114.408 162.614 115.121 162.287 115.687C161.855 116.436 160.977 116.588 160.063 116.06ZM161.117 112.122L160.626 112.971L161.112 113.252C161.435 113.438 161.733 113.386 161.882 113.128C162.034 112.865 161.937 112.595 161.62 112.412L161.117 112.122ZM159.646 114.671L160.181 114.98C160.569 115.204 160.892 115.157 161.078 114.835C161.254 114.53 161.132 114.222 160.756 114.005L160.211 113.691L159.646 114.671Z" fill="#C51717"/>
<path fill-rule="evenodd" clip-rule="evenodd" d="M32.1418 87.8896L40.1418 89.3896L50.8042 88.7899L49.5787 107.44L30.6236 106.722L31.1025 100.782L31.3689 97.477L31.6648 93.8066L32.1418 87.8896Z" fill="black" fill-opacity="0.07"/>
<path fill-rule="evenodd" clip-rule="evenodd" d="M30.224 86.0216L38.224 87.5216L48.8863 86.9219L47.6609 105.572L28.7058 104.854L29.1847 98.9137L29.4511 95.609L29.747 91.9386L30.224 86.0216Z" fill="white" stroke="#152633" stroke-width="2"/>
<path d="M37.0327 99.2833L36.6918 98.3284L35.1936 98.4595L35.0237 99.459L33.5528 99.5877L34.7267 94.5341L36.5381 94.3756L38.5717 99.1486L37.0327 99.2833ZM35.6839 95.5929L35.3667 97.4185L36.3405 97.3333L35.7112 95.5905L35.6839 95.5929ZM41.5673 97.4661L41.685 98.8111L40.4592 98.9183L40.3415 97.5734L39.0647 97.6851L38.961 96.5001L40.2379 96.3884L40.1202 95.0435L41.346 94.9362L41.4637 96.2812L42.7405 96.1695L42.8442 97.3544L41.5673 97.4661Z" fill="#C51717"/>
<path fill-rule="evenodd" clip-rule="evenodd" d="M41.6306 89.5925L44.2666 85.4576L41.6306 89.5925Z" stroke="#152633" stroke-width="2" stroke-linecap="round" stroke-linejoin="round"/>
<path fill-rule="evenodd" clip-rule="evenodd" d="M43.21 87.7234C44.4614 88.3069 45.9488 87.7655 46.5323 86.5142C47.1159 85.2628 46.5745 83.7754 45.3231 83.1919C44.0718 82.6084 42.5843 83.1497 42.0008 84.4011C41.4173 85.6524 41.9587 87.1399 43.21 87.7234Z" fill="white" stroke="#152633" stroke-width="2"/>
<path fill-rule="evenodd" clip-rule="evenodd" d="M15.224 96.5216L30.4803 104.766L31.4703 106.272L32.7816 105.743L37.3841 107.696L31.9139 120.583L15 123.664L12 123.664L11.5 110.164L15.224 96.5216Z" fill="black" fill-opacity="0.07"/>
<path fill-rule="evenodd" clip-rule="evenodd" d="M14.224 93.5216L29.4803 101.766L30.4703 103.272L31.7816 102.743L36.3841 104.696L30.9139 117.583L27.0066 126.788L19.6425 123.662L4.22401 115.522L14.224 93.5216Z" fill="white" stroke="#152633" stroke-width="2"/>
<path fill-rule="evenodd" clip-rule="evenodd" d="M17.3912 98.9863L21.553 95.9565L17.3912 98.9863Z" stroke="#152633" stroke-width="2" stroke-linecap="round" stroke-linejoin="round"/>
<path fill-rule="evenodd" clip-rule="evenodd" d="M19.0716 96.2612C19.2399 97.6316 20.4872 98.6061 21.8577 98.4379C23.2281 98.2696 24.2026 97.0222 24.0344 95.6518C23.8661 94.2814 22.6187 93.3069 21.2483 93.4751C19.8779 93.6434 18.9034 94.8907 19.0716 96.2612Z" fill="white" stroke="#152633" stroke-width="2"/>
<path d="M12.8945 108.848L15.497 109.802L19.6429 111.713L23.0996 112.755" stroke="#152633" stroke-width="2"/>
<path d="M14.4574 105.166L19.9804 107.511L25.5035 109.855" stroke="#152633" stroke-width="2"/>
<path d="M16.0203 101.484L19.2421 102.852L22.4639 104.219" stroke="#152633" stroke-width="2"/>
<path d="M11.3316 112.53L15.6868 114.055L17.7751 116.265L22.2186 118" stroke="#152633" stroke-width="2"/>
<path d="M23.3367 120.604L23.9659 119.809L23.0608 118.608L22.1231 118.993L21.2345 117.814L26.1423 116.132L27.2366 117.584L24.2665 121.838L23.3367 120.604ZM25.7517 117.504L24.0354 118.203L24.6237 118.984L25.7681 117.526L25.7517 117.504Z" fill="#C51717"/>
<path d="M80.5059 233.095C108.12 233.095 130.506 228.618 130.506 223.095C130.506 217.573 108.12 213.095 80.5059 213.095C52.8916 213.095 30.5059 217.573 30.5059 223.095C30.5059 228.618 52.8916 233.095 80.5059 233.095Z" fill="black" fill-opacity="0.05"/>
<path fill-rule="evenodd" clip-rule="evenodd" d="M104.299 171.703C103.238 171.801 102.161 171.875 101.075 171.926C100.347 176.842 99.2681 187.935 102.528 196.892C106.851 208.768 118.735 203.243 120.899 197.02C122.917 191.217 116.735 182.338 104.299 171.703Z" fill="#2D3B45"/>
<path d="M103.475 170.771C102.826 176.312 102.36 185.775 105.21 193.604C108.127 201.619 114.487 201.709 118.98 199.008C114.875 203.608 106.028 205.789 102.427 195.897C99.1672 186.94 100.246 175.847 100.974 170.931C101.814 170.892 102.649 170.839 103.475 170.771Z" fill="#28343D"/>
<path fill-rule="evenodd" clip-rule="evenodd" d="M104.299 171.703C103.238 171.801 102.161 171.875 101.075 171.926C100.347 176.842 99.2681 187.935 102.528 196.892C106.851 208.768 118.735 203.243 120.899 197.02C122.917 191.217 116.735 182.338 104.299 171.703Z" stroke="#152633" stroke-width="2"/>
<path fill-rule="evenodd" clip-rule="evenodd" d="M59.6309 171.121C60.341 176.039 61.3804 187.136 58.0883 196.081C53.7228 207.942 41.8582 202.373 39.7174 196.143C37.72 190.332 43.9336 181.476 56.4076 170.886C57.469 170.988 58.5448 171.065 59.6309 171.121Z" fill="#2D3B45"/>
<path d="M39.3501 193.973C39.3614 194.737 39.4827 195.461 39.7172 196.143C41.8581 202.373 53.7227 207.942 58.0881 196.081C61.3803 187.136 60.3409 176.039 59.6308 171.121C58.8246 171.08 58.0241 171.026 57.231 170.96C57.5753 176.476 57.3969 183.808 55.0881 190.081C51.6808 199.338 43.7051 197.978 39.3501 193.973Z" fill="#28343D"/>
<path fill-rule="evenodd" clip-rule="evenodd" d="M59.6309 171.121C60.341 176.039 61.3804 187.136 58.0883 196.081C53.7228 207.942 41.8582 202.373 39.7174 196.143C37.72 190.332 43.9336 181.476 56.4076 170.886C57.469 170.988 58.5448 171.065 59.6309 171.121Z" stroke="#152633" stroke-width="2"/>
<path fill-rule="evenodd" clip-rule="evenodd" d="M100.765 172.684C94.003 174.935 86.2861 176.159 78.091 176.159C70.7862 176.159 64.4712 174.373 58.5059 172.684C56.1105 178.047 52.955 185.844 52.3608 190.598C50.613 202.83 61.2461 213.551 80.1272 213.551C99.0083 213.551 108.872 202.445 106.717 190.968C105.232 183.061 102.837 177.088 100.765 172.684Z" fill="white"/>
<path d="M61.6973 208.997C65.7215 210.622 70.5666 211.551 76.127 211.551C95.0082 211.551 104.872 200.445 102.717 188.968C101.529 182.645 99.7597 177.558 98.0385 173.521C98.963 173.26 99.8721 172.981 100.764 172.684C102.837 177.088 105.232 183.061 106.717 190.968C108.872 202.445 99.0082 213.551 80.127 213.551C72.5768 213.551 66.3454 211.837 61.6973 208.997Z" fill="#EDEDED"/>
<path fill-rule="evenodd" clip-rule="evenodd" d="M100.765 172.684C94.003 174.935 86.2861 176.159 78.091 176.159C70.7862 176.159 64.4712 174.373 58.5059 172.684C56.1105 178.047 52.955 185.844 52.3608 190.598C50.613 202.83 61.2461 213.551 80.1272 213.551C99.0083 213.551 108.872 202.445 106.717 190.968C105.232 183.061 102.837 177.088 100.765 172.684Z" stroke="#152633" stroke-width="2"/>
<path fill-rule="evenodd" clip-rule="evenodd" d="M116.745 218.962C113.783 203.783 107.24 194.725 106.87 191.764C108.313 201.849 100.367 211.636 85.3293 213.465L85.6466 214.89C86.7573 220.813 88.9786 223.034 92.6808 224.145C100.826 227.107 118.596 225.996 116.745 218.962Z" fill="#2D3B45"/>
<path d="M106.838 196.634C109.067 201.328 112.016 208.102 113.745 216.962C115.596 223.996 97.8255 225.107 89.6807 222.145C89.2948 222.029 88.9249 221.901 88.5708 221.759C89.6669 222.93 91.0259 223.649 92.6807 224.145C100.825 227.107 118.596 225.996 116.745 218.962C114.76 208.791 111.168 201.369 108.902 196.687C107.816 194.443 107.034 192.829 106.881 191.843C107.104 193.459 107.087 195.066 106.838 196.634Z" fill="#28343D"/>
<path fill-rule="evenodd" clip-rule="evenodd" d="M116.745 218.962C113.783 203.783 107.24 194.725 106.87 191.764C108.313 201.849 100.367 211.636 85.3293 213.465L85.6466 214.89C86.7573 220.813 88.9786 223.034 92.6808 224.145C100.826 227.107 118.596 225.996 116.745 218.962Z" stroke="#152633" stroke-width="2"/>
<path fill-rule="evenodd" clip-rule="evenodd" d="M52.1984 191.935C51.7738 194.898 45.1099 203.783 42.1481 218.962C40.297 225.996 58.0675 227.107 66.2123 224.145C69.9145 223.034 72.1358 220.813 73.2464 214.889L73.5482 213.655L73.5637 213.315C59.3129 211.216 51.351 202.22 52.1984 191.935Z" fill="#2D3B45"/>
<path d="M42.1274 220.81C43.5918 226.17 58.8425 226.825 66.2122 224.145C69.9144 223.034 72.1357 220.813 73.2464 214.889L73.5481 213.655L73.5636 213.315C72.3623 213.138 71.2057 212.912 70.0953 212.641C68.9399 218.004 66.7536 220.082 63.2122 221.145C57.5615 223.2 47.2776 223.294 42.1274 220.81Z" fill="#28343D"/>
<path fill-rule="evenodd" clip-rule="evenodd" d="M52.1984 191.935C51.7738 194.898 45.1099 203.783 42.1481 218.962C40.297 225.996 58.0675 227.107 66.2123 224.145C69.9145 223.034 72.1358 220.813 73.2464 214.889L73.5482 213.655L73.5637 213.315C59.3129 211.216 51.351 202.22 52.1984 191.935Z" stroke="#152633" stroke-width="2"/>
<path fill-rule="evenodd" clip-rule="evenodd" d="M40.9753 137.025C39.6636 136.967 38.1952 136.732 36.6167 136.199C30.547 134.15 30.257 128.864 30.0001 127.183C29.7431 125.502 29.708 116.428 36.9173 117.708C41.5733 118.535 45.0543 120.425 48.2653 121.984C44.9149 126.54 42.4473 131.679 40.9753 137.025Z" fill="#2D3B45"/>
<path d="M33.6166 132.199C35.195 132.732 36.6635 132.967 37.9752 133.025C39.2869 128.261 41.389 123.662 44.2019 119.493C44.8941 119.819 45.5643 120.149 46.2198 120.472C46.5721 120.645 46.9202 120.817 47.2652 120.984C43.9148 125.54 41.4472 130.679 39.9752 136.025C38.6635 135.967 37.195 135.732 35.6166 135.199C32.2647 134.067 30.6754 131.949 29.8809 129.995C30.7869 130.874 31.9956 131.652 33.6166 132.199Z" fill="#28343D"/>
<path fill-rule="evenodd" clip-rule="evenodd" d="M40.9753 137.025C39.6636 136.967 38.1952 136.732 36.6167 136.199C30.547 134.15 30.257 128.864 30.0001 127.183C29.7431 125.502 29.708 116.428 36.9173 117.708C41.5733 118.535 45.0543 120.425 48.2653 121.984C44.9149 126.54 42.4473 131.679 40.9753 137.025Z" stroke="#152633" stroke-width="2"/>
<path fill-rule="evenodd" clip-rule="evenodd" d="M38.2944 145.318C38.2944 165.341 55.505 176.043 79.1648 176.043C102.825 176.043 122.005 163.96 122.005 146.009C122.005 123.701 102.825 102.164 79.1648 102.164C55.505 102.164 38.2944 124.259 38.2944 145.318Z" fill="white"/>
<path d="M64.9614 174.585C69.3299 175.553 74.0995 176.043 79.1648 176.043C102.825 176.043 122.005 163.96 122.005 146.009C122.005 124.776 104.629 104.242 82.5525 102.312C101.697 107.05 116.005 125.741 116.005 145.009C116.005 162.96 96.8246 175.043 73.1648 175.043C70.3317 175.043 67.5911 174.89 64.9614 174.585Z" fill="#EDEDED"/>
<path fill-rule="evenodd" clip-rule="evenodd" d="M38.2944 145.318C38.2944 165.341 55.505 176.043 79.1648 176.043C102.825 176.043 122.005 163.96 122.005 146.009C122.005 123.701 102.825 102.164 79.1648 102.164C55.505 102.164 38.2944 124.259 38.2944 145.318Z" stroke="#152633" stroke-width="2"/>
<path fill-rule="evenodd" clip-rule="evenodd" d="M110.762 138.458C112.336 137.805 114.022 136.868 115.709 135.518C122.199 130.326 120.901 121.673 120.469 119.509C120.036 117.346 117.44 106.962 109.22 111.721C103.91 114.795 100.851 118.556 97.6289 121.882C102.976 126.427 109.22 134.181 110.762 138.458Z" fill="#2D3B45"/>
<path d="M109.409 135.685C110.005 136.704 110.469 137.644 110.762 138.458C112.336 137.805 114.022 136.868 115.709 135.518C122.199 130.326 120.901 121.673 120.469 119.509C120.146 117.897 118.622 111.719 114.464 110.646C116.409 112.933 117.24 116.367 117.469 117.509C117.901 119.673 119.199 128.326 112.709 133.518C111.598 134.407 110.488 135.117 109.409 135.685Z" fill="#28343D"/>
<path fill-rule="evenodd" clip-rule="evenodd" d="M110.762 138.458C112.336 137.805 114.022 136.868 115.709 135.518C122.199 130.326 120.901 121.673 120.469 119.509C120.036 117.346 117.44 106.962 109.22 111.721C103.91 114.795 100.851 118.556 97.6289 121.882C102.976 126.427 109.22 134.181 110.762 138.458Z" stroke="#152633" stroke-width="2"/>
<path d="M74.1064 206.799C74.1625 207.697 74.6908 208.541 75.5643 208.964C76.5748 209.453 77.748 209.234 78.5131 208.502C79.2782 209.234 80.4514 209.453 81.4619 208.964C82.4641 208.479 83.0119 207.44 82.9134 206.399C83.9597 206.263 84.8599 205.498 85.1112 204.418C85.3636 203.333 84.8872 202.25 84.0001 201.674C84.5501 200.768 84.5023 199.581 83.7934 198.713C83.315 198.126 82.6314 197.802 81.9281 197.76C81.9593 198.277 81.8337 198.799 81.5592 199.251C82.4463 199.827 82.9227 200.91 82.6703 201.995C82.419 203.076 81.5187 203.84 80.4724 203.977C80.571 205.017 80.0232 206.056 79.021 206.541C78.0105 207.031 76.8372 206.812 76.0722 206.08C75.5475 206.582 74.8309 206.842 74.1064 206.799Z" fill="#EDEDED"/>
<path fill-rule="evenodd" clip-rule="evenodd" d="M75.7162 197.862C76.0175 197.05 76.7996 196.47 77.7171 196.47C78.6345 196.47 79.4166 197.05 79.7179 197.862C80.5355 197.593 81.4697 197.838 82.0435 198.546C82.6244 199.264 82.6635 200.244 82.213 200.991C82.9398 201.466 83.3301 202.361 83.1233 203.256C82.9174 204.148 82.1798 204.78 81.3225 204.892C81.4032 205.751 80.9544 206.609 80.1332 207.01C79.3052 207.413 78.3439 207.233 77.7171 206.629C77.0902 207.233 76.1289 207.413 75.3009 207.01C74.4797 206.609 74.0309 205.751 74.1116 204.892C73.2543 204.78 72.5167 204.148 72.3108 203.256C72.104 202.361 72.4943 201.466 73.2212 200.991C72.7706 200.244 72.8097 199.264 73.3906 198.546C73.9644 197.838 74.8987 197.593 75.7162 197.862Z" fill="#2D3B45"/>
<path d="M74.1064 205.222C74.1524 205.964 74.5852 206.661 75.301 207.01C76.1289 207.413 77.0902 207.233 77.7171 206.629C78.344 207.233 79.3053 207.413 80.1332 207.01C80.9544 206.609 81.4033 205.751 81.3225 204.892C82.1798 204.78 82.9174 204.148 83.1234 203.256C83.3302 202.361 82.9399 201.466 82.213 200.991C82.6636 200.244 82.6245 199.264 82.0436 198.546C81.6516 198.062 81.0915 197.795 80.5152 197.76C80.5408 198.187 80.4379 198.618 80.213 198.991C80.9399 199.466 81.3302 200.361 81.1234 201.256C80.9174 202.148 80.1798 202.78 79.3225 202.892C79.4033 203.751 78.9544 204.609 78.1332 205.01C77.3053 205.413 76.344 205.233 75.7171 204.629C75.2872 205.043 74.7 205.258 74.1064 205.222Z" fill="#28343D"/>
<path fill-rule="evenodd" clip-rule="evenodd" d="M75.7162 197.862C76.0175 197.05 76.7996 196.47 77.7171 196.47C78.6345 196.47 79.4166 197.05 79.7179 197.862C80.5355 197.593 81.4697 197.838 82.0435 198.546C82.6244 199.264 82.6635 200.244 82.213 200.991C82.9398 201.466 83.3301 202.361 83.1233 203.256C82.9174 204.148 82.1798 204.78 81.3225 204.892C81.4032 205.751 80.9544 206.609 80.1332 207.01C79.3052 207.413 78.3439 207.233 77.7171 206.629C77.0902 207.233 76.1289 207.413 75.3009 207.01C74.4797 206.609 74.0309 205.751 74.1116 204.892C73.2543 204.78 72.5167 204.148 72.3108 203.256C72.104 202.361 72.4943 201.466 73.2212 200.991C72.7706 200.244 72.8097 199.264 73.3906 198.546C73.9644 197.838 74.8987 197.593 75.7162 197.862Z" stroke="#152633" stroke-width="2"/>
</svg>
