<svg width="220" height="170" viewBox="0 0 220 170" fill="none" xmlns="http://www.w3.org/2000/svg">
<path d="M124.463 169.848C171.365 169.848 209.387 131.826 209.387 84.924C209.387 38.0218 171.365 0 124.463 0C77.5606 0 39.5388 38.0218 39.5388 84.924C39.5388 131.826 77.5606 169.848 124.463 169.848Z" fill="#152633"/>
<path d="M62.9937 87.0008L52.3838 88.3795C48.433 57.9759 57.8825 39.2622 80.7543 34.6879C97.4795 31.3429 114.35 39.4782 122.722 54.2946C131.706 70.1957 129.193 90.1096 114.251 107.702L106.096 100.776C118.216 86.5069 120.118 71.4352 113.407 59.5577C107.269 48.6953 94.9572 42.7583 82.8526 45.1792C66.3213 48.4855 59.6943 61.6095 62.9937 87.0008Z" fill="white"/>
<path d="M52.1022 86.0262L59.9936 85.0008C56.6942 59.6096 63.3212 46.4855 79.8525 43.1792C87.9553 41.5587 96.151 43.6832 102.525 48.5232C96.6824 45.1278 89.734 43.8029 82.8525 45.1792C66.3212 48.4855 59.6942 61.6096 62.9936 87.0008L52.3838 88.3795C52.2808 87.5871 52.1869 86.8027 52.1022 86.0262Z" fill="#EDEDED"/>
<path d="M111.521 105.383L114.251 107.702C129.193 90.1096 131.706 70.1957 122.722 54.2946C119.235 48.1241 114.275 43.1124 108.464 39.6061C112.983 42.9217 116.852 47.2156 119.722 52.2946C128.652 68.0996 126.223 87.8692 111.521 105.383Z" fill="#EDEDED"/>
<path d="M62.9937 87.0008L52.3838 88.3795C48.433 57.9759 57.8825 39.2622 80.7543 34.6879C97.4795 31.3428 114.35 39.4782 122.722 54.2946C131.706 70.1957 129.193 90.1096 114.251 107.702L106.096 100.776C118.216 86.5069 120.118 71.4352 113.407 59.5577C107.269 48.6953 94.9572 42.7583 82.8526 45.1792C66.3213 48.4855 59.6943 61.6095 62.9937 87.0008Z" stroke="#152633" stroke-width="2"/>
<path d="M72.3047 49.8176C68.5155 47.1429 66.6208 44.0223 66.6208 40.4559" stroke="#152633" stroke-width="2"/>
<path d="M79.9695 45.9159C77.5344 43.1675 76.6513 39.7872 77.3199 35.7751" stroke="#152633" stroke-width="2"/>
<path d="M89.0221 44.4681C88.3534 42.1276 89.0221 36.1094 91.3625 33.769" stroke="#152633" stroke-width="2"/>
<path d="M98.7181 46.1398C99.3868 42.462 100.724 39.1186 103.399 37.1125" stroke="#152633" stroke-width="2"/>
<path d="M107.077 51.8237C107.411 49.1489 111.089 44.8024 115.101 44.4681" stroke="#152633" stroke-width="2"/>
<path d="M113.429 59.1793C115.435 56.5046 119.782 54.1641 122.791 54.8328" stroke="#152633" stroke-width="2"/>
<path d="M116.438 67.8724C118.445 65.5319 125.466 65.1976 127.138 66.2006" stroke="#152633" stroke-width="2"/>
<path d="M117.442 75.5623C120.451 75.5623 125.132 76.231 127.472 78.2371" stroke="#152633" stroke-width="2"/>
<path d="M115.435 84.924C120.116 85.9271 123.794 88.2675 124.797 89.6049" stroke="#152633" stroke-width="2"/>
<path d="M111.758 92.614C115.101 93.2827 120.785 96.9605 120.785 98.6322" stroke="#152633" stroke-width="2"/>
<path fill-rule="evenodd" clip-rule="evenodd" d="M63.4775 121.459C61.8792 125.458 57.8507 134.237 51.5039 139.524C43.0876 146.534 36.5957 137.214 37.6886 131.61C38.7074 126.383 47.2086 122.429 61.1601 119.885C61.9123 120.422 62.6864 120.946 63.4775 121.459Z" fill="white"/>
<path d="M48.5039 138.524C54.8507 133.237 58.8792 124.458 60.4775 120.459C60.3002 120.344 60.1238 120.229 59.9484 120.113C60.3476 120.036 60.7515 119.96 61.1601 119.885C61.9123 120.422 62.6864 120.946 63.4775 121.459C61.8792 125.458 57.8507 134.237 51.5039 139.524C47.8099 142.601 44.4867 142.532 42.0128 141.012C43.9429 141.169 46.148 140.486 48.5039 138.524Z" fill="#EDEDED"/>
<path fill-rule="evenodd" clip-rule="evenodd" d="M63.4775 121.459C61.8792 125.458 57.8507 134.237 51.5039 139.524C43.0876 146.534 36.5957 137.214 37.6886 131.61C38.7074 126.383 47.2086 122.429 61.1601 119.885C61.9123 120.422 62.6864 120.946 63.4775 121.459Z" stroke="#152633" stroke-width="2"/>
<path fill-rule="evenodd" clip-rule="evenodd" d="M113.932 95.8818C104.948 89.7349 102.313 98.7878 100.853 100.922C106.426 106.495 109.317 117.016 101.222 127.352C109.933 123.471 116.14 119.68 119.842 115.977C124.259 111.561 122.916 102.029 113.932 95.8818Z" fill="white"/>
<path d="M104.968 94.965C104.59 95.608 104.251 96.2276 103.944 96.7887C103.513 97.5776 102.824 99.1626 102.5 99.6234C107.375 103.06 111.465 112.094 108.5 121.067C111 120 115 118.689 121.5 112.5C118 120.5 104.051 126.092 101.222 127.352C109.317 117.016 106.426 106.495 100.853 100.922C101.065 100.612 101.301 100.157 101.579 99.6234C102.319 98.1984 103.348 96.2164 104.968 94.965Z" fill="#EDEDED"/>
<path fill-rule="evenodd" clip-rule="evenodd" d="M113.932 95.8818C104.948 89.7349 102.313 98.7878 100.853 100.922C106.426 106.495 109.317 117.016 101.222 127.352C109.933 123.471 116.14 119.68 119.842 115.977C124.259 111.561 122.916 102.029 113.932 95.8818Z" stroke="#152633" stroke-width="2"/>
<path fill-rule="evenodd" clip-rule="evenodd" d="M86.9796 94.6902C86.721 93.7839 86.446 92.8904 86.1526 92.0141C92.6641 79.4159 98.9311 72.4423 104.227 72.9961C109.906 73.5893 116.921 82.5227 107.756 88.5215C100.845 93.0453 91.2713 94.331 86.9796 94.6902Z" fill="white"/>
<path d="M86.744 90.884C86.824 91.1515 86.9024 91.4203 86.9795 91.6902C91.2712 91.331 100.844 90.0453 107.756 85.5215C110.282 83.8678 111.579 81.991 112.014 80.1274C112.629 82.8768 111.661 85.9655 107.756 88.5215C100.844 93.0453 91.2712 94.331 86.9795 94.6902C86.7209 93.7839 86.446 92.8905 86.1525 92.0141C86.3499 91.6322 86.5471 91.2555 86.744 90.884Z" fill="#EDEDED"/>
<path fill-rule="evenodd" clip-rule="evenodd" d="M86.9796 94.6902C86.721 93.7839 86.446 92.8904 86.1526 92.0141C92.6641 79.4159 98.9311 72.4423 104.227 72.9961C109.906 73.5893 116.921 82.5227 107.756 88.5215C100.845 93.0453 91.2713 94.331 86.9796 94.6902Z" stroke="#152633" stroke-width="2"/>
<path fill-rule="evenodd" clip-rule="evenodd" d="M62.339 147.475C56.1921 138.491 65.2449 135.856 67.3794 134.396C72.9524 139.969 83.4735 142.86 93.8095 134.765C89.9284 143.476 86.1368 149.683 82.4346 153.385C78.0182 157.801 68.4859 156.458 62.339 147.475Z" fill="white"/>
<path d="M61.7042 138.733C62.3284 138.325 62.931 137.956 63.4768 137.623C64.2441 137.154 65.7943 136.391 66.2391 136.044C69.905 140.75 79.1243 144.402 87.9449 141.011C86.9993 143.559 85.8812 147.617 80.0107 154.406C87.8339 150.527 92.7516 136.326 93.875 133.44C83.9385 142.021 73.291 139.637 67.4575 134.337C67.1582 134.564 66.7146 134.822 66.195 135.124C64.8071 135.932 62.8766 137.055 61.7042 138.733Z" fill="#EDEDED"/>
<path fill-rule="evenodd" clip-rule="evenodd" d="M62.339 147.475C56.1921 138.491 65.2449 135.856 67.3794 134.396C72.9524 139.969 83.4735 142.86 93.8095 134.765C89.9284 143.476 86.1368 149.683 82.4346 153.385C78.0182 157.801 68.4859 156.458 62.339 147.475Z" stroke="#152633" stroke-width="2"/>
<path fill-rule="evenodd" clip-rule="evenodd" d="M78.909 154.287C77.4634 156.43 72.6926 155.74 68.2531 152.745C63.8136 149.751 61.3866 145.586 62.8322 143.443C64.2778 141.3 69.0486 141.99 73.4881 144.984C77.9276 147.979 80.3546 152.144 78.909 154.287Z" fill="white" stroke="#152633" stroke-width="2"/>
<path fill-rule="evenodd" clip-rule="evenodd" d="M120.739 112.456C118.596 113.902 114.431 111.475 111.437 107.036C108.442 102.596 107.752 97.8253 109.895 96.3797C112.039 94.9341 116.204 97.3611 119.198 101.801C122.192 106.24 122.883 111.011 120.739 112.456Z" fill="white" stroke="#152633" stroke-width="2"/>
<path fill-rule="evenodd" clip-rule="evenodd" d="M85.7122 92.8801C82.9484 98.4036 78.9694 103.883 73.9473 108.905C69.4708 113.381 64.8017 116.994 60.1106 119.614C61.9297 124.369 64.4787 130.244 67.0276 133.521C73.4527 142.088 86.5389 142.142 98.1095 130.571C109.68 119.001 108.919 106.15 100.565 100.437C94.8092 96.5021 89.6814 94.3087 85.7122 92.8801Z" fill="white"/>
<path fill-rule="evenodd" clip-rule="evenodd" d="M72.8555 138.251C79.4142 139.706 87.5826 137.098 95.1096 129.571C106.68 118.001 105.919 105.15 97.5648 99.4373C93.1416 96.4131 89.0891 94.4175 85.6483 93.0073C85.6697 92.9649 85.691 92.9225 85.7122 92.8801C89.6814 94.3087 94.8092 96.5021 100.565 100.437C108.919 106.15 109.68 119.001 98.1096 130.571C89.3847 139.296 79.7981 141.411 72.8555 138.251Z" fill="#EDEDED"/>
<path fill-rule="evenodd" clip-rule="evenodd" d="M85.7122 92.8801C82.9484 98.4036 78.9694 103.883 73.9473 108.905C69.4708 113.381 64.8017 116.994 60.1106 119.614C61.9297 124.369 64.4787 130.244 67.0276 133.521C73.4527 142.088 86.5389 142.142 98.1095 130.571C109.68 119.001 108.919 106.15 100.565 100.437C94.8092 96.5021 89.6814 94.3087 85.7122 92.8801Z" stroke="#152633" stroke-width="2"/>
<path d="M74.7083 109.099L75.654 108.154L98.3502 130.85L97.4045 131.795L74.7083 109.099Z" fill="#152633"/>
<path d="M89.3663 68.908C90.672 67.6023 88.4491 63.2625 84.4015 59.2149C80.3538 55.1672 76.014 52.9444 74.7083 54.2501C73.4026 55.5558 75.6254 59.8956 79.6731 63.9432C83.7208 67.9909 88.0606 70.2137 89.3663 68.908Z" fill="white" stroke="#152633" stroke-width="2"/>
<path d="M36.4085 121.866C37.7142 120.56 35.4914 116.22 31.4437 112.173C27.396 108.125 23.0562 105.902 21.7505 107.208C20.4448 108.514 22.6676 112.853 26.7153 116.901C30.763 120.949 35.1028 123.171 36.4085 121.866Z" fill="white" stroke="#152633" stroke-width="2"/>
<path fill-rule="evenodd" clip-rule="evenodd" d="M27.9706 115.319C40.9489 128.298 58.6383 124.482 74.7203 108.4C90.8023 92.3176 95.062 72.3944 83.4262 60.7587C68.9672 46.2997 42.9166 44.432 26.8346 60.514C10.7526 76.596 14.3209 101.67 27.9706 115.319Z" fill="white"/>
<path d="M36.8483 121.372C48.4152 126.114 62.0653 121.055 74.7203 108.4C90.8023 92.3177 95.062 72.3945 83.4262 60.7587C78.748 56.0805 72.8564 52.7204 66.4815 50.8599C71.6985 52.8218 76.4915 55.824 80.4262 59.7587C92.062 71.3945 87.8023 91.3177 71.7203 107.4C60.1436 118.976 47.734 124.197 36.8483 121.372Z" fill="#EDEDED"/>
<path fill-rule="evenodd" clip-rule="evenodd" d="M27.9706 115.319C40.9489 128.298 58.6383 124.482 74.7203 108.4C90.8023 92.3176 95.062 72.3944 83.4262 60.7587C68.9672 46.2997 42.9166 44.432 26.8346 60.514C10.7526 76.596 14.3209 101.67 27.9706 115.319Z" stroke="#152633" stroke-width="2"/>
<path fill-rule="evenodd" clip-rule="evenodd" d="M27.1578 111.669C16.9898 101.501 16.9804 80.1746 31.6332 65.5218C46.286 50.869 68.5631 49.389 79.3341 60.16C88.0019 68.8278 72.5008 77.0837 57.8479 91.7365C43.1951 106.389 36.8258 121.337 27.1578 111.669Z" fill="#2D3B45" stroke="#152633" stroke-width="2"/>
<path opacity="0.6" fill-rule="evenodd" clip-rule="evenodd" d="M26.0183 88.7794C28.0145 90.7756 29.4922 79.607 37.8666 71.2326C46.2411 62.8581 57.7471 60.9307 55.8071 58.9907C54.3144 57.498 43.6404 60.2575 35.266 68.6319C26.8916 77.0064 24.7981 87.5592 26.0183 88.7794Z" fill="#F2F2F2"/>
<path fill-rule="evenodd" clip-rule="evenodd" d="M145.571 24.7417C145.005 22.8074 143.493 21.2952 141.559 20.7295C143.493 20.1638 145.005 18.6517 145.571 16.7173C146.137 18.6517 147.649 20.1638 149.583 20.7295C147.649 21.2952 146.137 22.8074 145.571 24.7417Z" fill="#FFD960"/>
<path fill-rule="evenodd" clip-rule="evenodd" d="M150.252 16.0486C150.063 15.4038 149.559 14.8998 148.915 14.7112C149.559 14.5227 150.063 14.0186 150.252 13.3738C150.441 14.0186 150.945 14.5227 151.589 14.7112C150.945 14.8998 150.441 15.4038 150.252 16.0486Z" fill="#FFD960"/>
<path fill-rule="evenodd" clip-rule="evenodd" d="M160.282 80.9119C159.905 79.6223 158.897 78.6142 157.608 78.2371C158.897 77.8599 159.905 76.8519 160.282 75.5623C160.659 76.8519 161.668 77.8599 162.957 78.2371C161.668 78.6142 160.659 79.6223 160.282 80.9119Z" fill="#FFD960"/>
<path fill-rule="evenodd" clip-rule="evenodd" d="M186.361 129.058C185.796 127.123 184.283 125.611 182.349 125.046C184.283 124.48 185.796 122.968 186.361 121.033C186.927 122.968 188.439 124.48 190.373 125.046C188.439 125.611 186.927 127.123 186.361 129.058Z" fill="#FFD960"/>
<path fill-rule="evenodd" clip-rule="evenodd" d="M140.89 143.769C140.136 141.19 138.12 139.174 135.541 138.419C138.12 137.665 140.136 135.649 140.89 133.07C141.644 135.649 143.661 137.665 146.24 138.419C143.661 139.174 141.644 141.19 140.89 143.769Z" fill="#FFD960"/>
<path fill-rule="evenodd" clip-rule="evenodd" d="M84.0513 160.486C83.7685 159.519 83.0124 158.763 82.0452 158.48C83.0124 158.197 83.7685 157.441 84.0513 156.474C84.3342 157.441 85.0902 158.197 86.0574 158.48C85.0902 158.763 84.3342 159.519 84.0513 160.486Z" fill="#FFD960"/>
<path fill-rule="evenodd" clip-rule="evenodd" d="M129.857 153.131C129.432 151.68 128.298 150.546 126.848 150.122C128.298 149.697 129.432 148.563 129.857 147.112C130.281 148.563 131.415 149.697 132.866 150.122C131.415 150.546 130.281 151.68 129.857 153.131Z" fill="#FFD960"/>
<path fill-rule="evenodd" clip-rule="evenodd" d="M122.501 144.438C122.171 143.309 121.289 142.427 120.161 142.097C121.289 141.767 122.171 140.885 122.501 139.757C122.831 140.885 123.713 141.767 124.842 142.097C123.713 142.427 122.831 143.309 122.501 144.438Z" fill="#FFD960"/>
<path fill-rule="evenodd" clip-rule="evenodd" d="M122.501 52.158C122.171 51.0297 121.289 50.1476 120.161 49.8176C121.289 49.4876 122.171 48.6055 122.501 47.4772C122.831 48.6055 123.713 49.4876 124.842 49.8176C123.713 50.1476 122.831 51.0297 122.501 52.158Z" fill="#FFD960"/>
<path fill-rule="evenodd" clip-rule="evenodd" d="M73.3522 22.7356C72.7865 20.8013 71.2744 19.2891 69.3401 18.7234C71.2744 18.1577 72.7865 16.6455 73.3522 14.7112C73.918 16.6455 75.4301 18.1577 77.3644 18.7234C75.4301 19.2891 73.918 20.8013 73.3522 22.7356Z" fill="#FFD960"/>
<path fill-rule="evenodd" clip-rule="evenodd" d="M191.711 48.8146C191.145 46.8803 189.633 45.3682 187.699 44.8024C189.633 44.2367 191.145 42.7246 191.711 40.7903C192.277 42.7246 193.789 44.2367 195.723 44.8024C193.789 45.3682 192.277 46.8803 191.711 48.8146Z" fill="#FFD960"/>
<path fill-rule="evenodd" clip-rule="evenodd" d="M183.018 52.8267C182.641 51.5372 181.633 50.5291 180.343 50.1519C181.633 49.7748 182.641 48.7667 183.018 47.4772C183.395 48.7667 184.403 49.7748 185.693 50.1519C184.403 50.5291 183.395 51.5372 183.018 52.8267Z" fill="#FFD960"/>
<path fill-rule="evenodd" clip-rule="evenodd" d="M211.103 115.015C209.972 111.147 206.947 108.122 203.079 106.991C206.947 105.859 209.972 102.835 211.103 98.9666C212.234 102.835 215.259 105.859 219.127 106.991C215.259 108.122 212.234 111.147 211.103 115.015Z" fill="#FFD960"/>
<path fill-rule="evenodd" clip-rule="evenodd" d="M202.41 119.696C202.033 118.407 201.025 117.398 199.735 117.021C201.025 116.644 202.033 115.636 202.41 114.346C202.787 115.636 203.795 116.644 205.085 117.021C203.795 117.398 202.787 118.407 202.41 119.696Z" fill="#FFD960"/>
</svg>
