<svg viewBox="0 0 907 155" xmlns="http://www.w3.org/2000/svg" xmlns:xlink="http://www.w3.org/1999/xlink">
    <title>Nothing Planned</title>
    <defs>
        <polygon id="path-1" points="0 155 906.934 155 906.934 0.53 0 0.53"></polygon>
        <polygon id="path-3" points="3.31954245e-15 20.2987 3.31954245e-15 0.3897 60.0788 0.3897 60.0788 20.2987"></polygon>
    </defs>
    <g id="Page-1" stroke="none" stroke-width="1" fill="none" fill-rule="evenodd">
        <g id="Planner-All-Copy-5" transform="translate(-211.000000, -558.000000)">
            <g id="Page-1" transform="translate(211.000000, 557.000000)">
                <path d="M555.8474,1.9767 C555.8474,1.9767 568.4744,4.7397 571.1954,19.5987 C571.1954,19.5987 579.9854,10.7897 594.1324,13.8887" id="Stroke-1" stroke="#231F20" stroke-width="2"></path>
                <path d="M586.655,31.0329 C586.655,31.0329 596.373,31.9749 599.744,42.8759 C599.744,42.8759 605.549,35.4819 616.436,36.5409" id="Stroke-3" stroke="#231F20" stroke-width="2"></path>
                <path d="M524.0818,10.7331 C524.0818,10.7331 533.8448,10.8721 538.1018,21.4591 C538.1018,21.4591 543.2768,13.6121 554.2158,13.7711" id="Stroke-5" stroke="#231F20" stroke-width="2"></path>
                <polygon id="Fill-7" fill="#67C1F0" points="175.8982 127.1037 218.0932 127.1037 196.9962 64.5077"></polygon>
                <polygon id="Stroke-9" stroke="#231F20" stroke-width="2" points="175.8982 127.1037 218.0932 127.1037 196.9962 64.5077"></polygon>
                <path d="M196.9958,83.5641 L196.9958,154.2551" id="Stroke-11" stroke="#0E1D25" stroke-width="2"></path>
                <path d="M206.3718,111.4899 L196.9958,120.0019" id="Stroke-13" stroke="#0E1D25" stroke-width="2"></path>
                <polygon id="Fill-15" fill="#67C1F0" points="254.7302 137.1032 296.9252 137.1032 275.8282 52.2232"></polygon>
                <polygon id="Stroke-17" stroke="#231F20" stroke-width="2" points="254.7302 137.1032 296.9252 137.1032 275.8282 52.2232"></polygon>
                <path d="M275.8279,81.5407 L275.8279,154.2557" id="Stroke-19" stroke="#0E1D25" stroke-width="2"></path>
                <path d="M283.6413,119.2033 L275.8283,124.3613" id="Stroke-21" stroke="#0E1D25" stroke-width="2"></path>
                <path d="M263.3005,102.6237 L275.8275,116.2137" id="Stroke-23" stroke="#0E1D25" stroke-width="2"></path>
                <polyline id="Stroke-25" stroke="#C0C6CB" stroke-width="2" points="583.5876 154.028 723.4326 16.083 779.8546 70.368"></polyline>
                <polyline id="Stroke-27" stroke="#C0C6CB" stroke-width="2" points="685.6267 153.8805 814.7367 37.2595 866.8267 83.1525"></polyline>
                <polygon id="Fill-29" fill="#9BE1A4" points="857.5886 114.192 905.6816 114.192 881.6356 8.272"></polygon>
                <polygon id="Stroke-31" stroke="#231F20" stroke-width="2" points="857.5886 114.192 905.6816 114.192 881.6356 8.272"></polygon>
                <path d="M881.6355,42.3053 L881.6355,154.8093" id="Stroke-33" stroke="#0E1D25" stroke-width="2"></path>
                <path d="M872.0818,83.3708 L880.6778,91.5128" id="Stroke-35" stroke="#0E1D25" stroke-width="2"></path>
                <path d="M890.0535,61.0631 L881.6355,72.5701" id="Stroke-37" stroke="#0E1D25" stroke-width="2"></path>
                <polygon id="Fill-39" fill="#67C1F0" points="827.0925 127.1403 869.2875 127.1403 848.1905 64.5453"></polygon>
                <polygon id="Stroke-41" stroke="#231F20" stroke-width="2" points="827.0925 127.1403 869.2875 127.1403 848.1905 64.5453"></polygon>
                <path d="M848.1902,83.6012 L848.1902,154.2912" id="Stroke-43" stroke="#0E1D25" stroke-width="2"></path>
                <path d="M857.5671,111.527 L848.1901,120.039" id="Stroke-45" stroke="#0E1D25" stroke-width="2"></path>
                <g id="Group-91" transform="translate(0.000000, 0.470000)">
                    <path d="M889.9939,146.9144 C889.9939,151.1264 886.5629,154.5564 882.3439,154.5564 L866.3249,154.5564 L866.3249,153.7744 L882.3439,153.7744 C886.1409,153.7744 889.2119,150.7044 889.2119,146.9144 C889.2119,143.1164 886.1409,140.0464 882.3439,140.0464 C882.0779,140.0464 881.8199,140.0614 881.5619,140.0934 C881.4999,139.8354 881.4299,139.5854 881.3359,139.3354 C881.6719,139.2884 882.0079,139.2654 882.3439,139.2654 C886.5629,139.2654 889.9939,142.6944 889.9939,146.9144 Z" id="Fill-47" fill="#231F20"></path>
                    <path d="M882.3435,140.0463 C886.1415,140.0463 889.2115,143.1163 889.2115,146.9143 C889.2115,150.7043 886.1415,153.7753 882.3435,153.7753 L866.3245,153.7753 L866.4185,152.9933 L882.3435,152.9933 C885.7035,152.9933 888.4305,150.2673 888.4305,146.9143 C888.4305,143.5543 885.7035,140.8273 882.3435,140.8273 C882.1325,140.8273 881.9215,140.8353 881.7185,140.8583 C881.6795,140.6013 881.6325,140.3433 881.5625,140.0933 C881.8205,140.0623 882.0775,140.0463 882.3435,140.0463" id="Fill-49" fill="#231F20"></path>
                    <path d="M881.5623,140.0931 C881.6323,140.3431 881.6793,140.6011 881.7183,140.8591 C881.4683,140.8901 881.2183,140.9291 880.9763,140.9841 L880.8823,140.5931 L880.7963,140.2181 C881.0463,140.1631 881.3043,140.1161 881.5623,140.0931" id="Fill-51" fill="#231F20"></path>
                    <path d="M881.531,144.391 C881.726,143.671 881.82,142.921 881.82,142.171 C881.82,141.726 881.789,141.288 881.718,140.859 C881.922,140.835 882.133,140.828 882.343,140.828 C885.704,140.828 888.43,143.554 888.43,146.914 C888.43,150.267 885.704,152.994 882.343,152.994 L866.419,152.994 L866.434,152.822 L876.858,143.671 L880.773,144.188 L880.781,144.188 L881.531,144.391 Z" id="Fill-53" fill="#9BE1A4"></path>
                    <path d="M881.5623,140.0931 C881.3043,140.1161 881.0463,140.1631 880.7963,140.2181 L880.6253,139.4601 C880.8593,139.4061 881.1013,139.3591 881.3353,139.3351 C881.4293,139.5851 881.5003,139.8351 881.5623,140.0931" id="Fill-55" fill="#231F20"></path>
                    <path d="M881.7185,140.8588 C881.7885,141.2888 881.8205,141.7258 881.8205,142.1708 C881.8205,142.9218 881.7265,143.6718 881.5315,144.3908 L880.7815,144.1878 C880.9525,143.5468 881.0385,142.8668 881.0385,142.1708 C881.0385,141.6318 880.9845,141.1008 880.8825,140.5928 L880.9765,140.9838 C881.2185,140.9288 881.4685,140.8898 881.7185,140.8588" id="Fill-57" fill="#9BE1A4"></path>
                    <path d="M880.8826,140.5931 C880.9846,141.1011 881.0386,141.6321 881.0386,142.1711 C881.0386,142.8661 880.9526,143.5461 880.7806,144.1881 L880.7736,144.1881 L880.0236,143.9841 C880.1796,143.3981 880.2576,142.7881 880.2576,142.1711 C880.2576,141.7021 880.2106,141.2411 880.1246,140.8041 L880.7886,140.2261 C880.8276,140.3431 880.8516,140.4681 880.8826,140.5931" id="Fill-59" fill="#9BE1A4"></path>
                    <path d="M880.7888,140.2181 L880.7968,140.2181 L880.8828,140.5931 C880.8508,140.4681 880.8278,140.3431 880.7888,140.2261 L880.7888,140.2181 Z" id="Fill-61" fill="#9BE1A4"></path>
                    <path d="M880.7732,144.1879 L876.8582,143.6709 L880.1252,140.8039 C880.2112,141.2419 880.2572,141.7029 880.2572,142.1709 C880.2572,142.7889 880.1792,143.3979 880.0232,143.9839 L880.7732,144.1879 Z" id="Fill-63" fill="#9BE1A4"></path>
                    <path d="M873.1931,135.1 C876.6161,135.1 879.4841,137.553 880.1251,140.804 L876.8581,143.671 L867.1691,142.406 C866.8401,142.179 866.4971,141.984 866.1371,141.828 C866.3171,138.084 869.4121,135.1 873.1931,135.1" id="Fill-65" fill="#9BE1A4"></path>
                    <path d="M876.8582,143.6713 L866.4342,152.8213 L867.5042,143.6873 L868.0512,143.1323 C867.7782,142.8593 867.4812,142.6163 867.1692,142.4053 L876.8582,143.6713 Z" id="Fill-67" fill="#9BE1A4"></path>
                    <path d="M880.6248,139.4603 L880.7968,140.2183 L880.7888,140.2183 C879.9298,136.8263 876.8578,134.3183 873.1928,134.3183 C869.0758,134.3183 865.6998,137.4903 865.3718,141.5303 C865.1218,141.4523 864.8638,141.3903 864.6058,141.3433 C865.0208,136.9753 868.7168,133.5373 873.1928,133.5373 C876.9598,133.5373 880.1718,135.9673 881.3358,139.3353 C881.1018,139.3583 880.8588,139.4053 880.6248,139.4603" id="Fill-69" fill="#231F20"></path>
                    <path d="M873.1931,135.1 C869.4121,135.1 866.3171,138.084 866.1371,141.828 C865.8871,141.703 865.6301,141.609 865.3721,141.531 C865.7001,137.491 869.0761,134.319 873.1931,134.319 C876.8581,134.319 879.9291,136.827 880.7891,140.218 L880.7891,140.226 L880.1251,140.804 C879.4841,137.553 876.6161,135.1 873.1931,135.1" id="Fill-71" fill="#231F20"></path>
                    <path d="M867.5046,143.6869 L866.4346,152.8219 L866.2386,152.9939 L865.3486,152.9939 L863.3796,152.9939 C860.5666,152.9939 858.2766,150.7049 858.2766,147.8909 C858.2766,145.0789 860.5666,142.7889 863.3796,142.7889 C864.7316,142.7889 865.9966,143.3039 866.9576,144.2429 L867.5046,143.6869 Z" id="Fill-73" fill="#9BE1A4"></path>
                    <path d="M867.1687,142.4056 L865.3487,142.1716 L866.1297,142.1716 C866.1297,142.0536 866.1297,141.9366 866.1377,141.8276 C866.4967,141.9836 866.8407,142.1786 867.1687,142.4056" id="Fill-75" fill="#231F20"></path>
                    <polygon id="Fill-77" fill="#9BE1A4" points="866.4343 152.8217 866.4183 152.9937 866.3253 152.9937 866.2393 152.9937"></polygon>
                    <polygon id="Fill-79" fill="#231F20" points="866.4187 152.9935 866.3247 153.7745 866.3247 152.9935"></polygon>
                    <mask id="mask-2" fill="white">
                        <use xlink:href="#path-1"></use>
                    </mask>
                    <g id="Clip-82"></g>
                    <polygon id="Fill-81" fill="#231F20" mask="url(#mask-2)" points="865.348 154.556 866.325 154.556 866.325 153.775 865.348 153.775"></polygon>
                    <polygon id="Fill-83" fill="#231F20" mask="url(#mask-2)" points="866.325 152.9935 866.325 153.7745 865.348 153.7745 866.239 152.9935"></polygon>
                    <polygon id="Fill-84" fill="#231F20" mask="url(#mask-2)" points="866.239 152.9935 865.348 153.7745 865.348 152.9935"></polygon>
                    <path d="M866.1375,141.8275 C866.1295,141.9365 866.1295,142.0545 866.1295,142.1715 L865.3485,142.1715 C865.3485,141.9525 865.3565,141.7415 865.3715,141.5305 C865.6295,141.6085 865.8875,141.7025 866.1375,141.8275" id="Fill-85" fill="#231F20" mask="url(#mask-2)"></path>
                    <path d="M865.3718,141.5306 C865.3558,141.7416 865.3488,141.9526 865.3488,142.1716 L864.7468,142.1716 C864.6848,142.1476 864.6298,142.1396 864.5668,142.1246 C864.5668,141.8586 864.5828,141.6006 864.6058,141.3436 C864.8638,141.3896 865.1218,141.4526 865.3718,141.5306" id="Fill-86" fill="#231F20" mask="url(#mask-2)"></path>
                    <path d="M865.3484,142.1713 L867.1684,142.4053 C867.4814,142.6163 867.7784,142.8583 868.0514,143.1323 L867.5044,143.6873 C866.7544,142.9523 865.8014,142.4133 864.7464,142.1713 L865.3484,142.1713 Z" id="Fill-87" fill="#231F20" mask="url(#mask-2)"></path>
                    <path d="M864.7468,142.1713 L864.5668,142.1713 L864.5668,142.1243 C864.6298,142.1403 864.6848,142.1483 864.7468,142.1713" id="Fill-88" fill="#231F20" mask="url(#mask-2)"></path>
                    <path d="M864.5671,142.1713 L864.7471,142.1713 C865.8011,142.4133 866.7551,142.9523 867.5051,143.6873 L866.9581,144.2423 C865.9971,143.3043 864.7311,142.7883 863.3801,142.7883 C860.5661,142.7883 858.2771,145.0783 858.2771,147.8913 C858.2771,150.7043 860.5661,152.9933 863.3801,152.9933 L865.3481,152.9933 L865.3481,153.7753 L863.3871,153.7753 C860.1361,153.7753 857.4951,151.1423 857.4951,147.8913 C857.4951,144.6413 860.1361,142.0073 863.3871,142.0073 C863.7941,142.0073 864.1841,142.0463 864.5671,142.1243 L864.5671,142.1713 Z" id="Fill-89" fill="#231F20" mask="url(#mask-2)"></path>
                    <path d="M863.3796,154.556 C859.7066,154.556 856.7136,151.572 856.7136,147.891 C856.7136,144.219 859.7066,141.226 863.3796,141.226 C863.7936,141.226 864.2076,141.265 864.6066,141.343 C864.5826,141.601 864.5666,141.859 864.5666,142.124 C864.1846,142.046 863.7936,142.007 863.3876,142.007 C860.1366,142.007 857.4946,144.641 857.4946,147.891 C857.4946,151.142 860.1366,153.775 863.3876,153.775 L865.3486,153.775 L865.3486,154.556 L863.3796,154.556 Z" id="Fill-90" fill="#231F20" mask="url(#mask-2)"></path>
                </g>
                <polyline id="Stroke-92" stroke="#C0C6CB" stroke-width="2" points="681.7205 57.2282 703.2505 67.1002 720.5295 57.2282 746.2275 64.6502 766.1975 57.2282"></polyline>
                <polyline id="Stroke-94" stroke="#C0C6CB" stroke-width="2" points="797.6345 52.7072 821.8495 59.3252 830.1845 52.7072"></polyline>
                <g id="Group-98" transform="translate(0.000000, 71.470000)">
                    <mask id="mask-4" fill="white">
                        <use xlink:href="#path-3"></use>
                    </mask>
                    <g id="Clip-97"></g>
                    <path d="M50.5818,20.2987 L9.4978,20.2987 C4.2738,20.2987 -0.0002,16.0247 -0.0002,10.8007 L-0.0002,9.8867 C-0.0002,4.6637 4.2738,0.3897 9.4978,0.3897 L50.5818,0.3897 C55.8058,0.3897 60.0788,4.6637 60.0788,9.8867 L60.0788,10.8007 C60.0788,16.0247 55.8058,20.2987 50.5818,20.2987" id="Fill-96" fill="#E5E7E9" mask="url(#mask-4)"></path>
                </g>
                <path d="M48.657,68.5963 C47.771,68.5963 46.908,68.6973 46.08,68.8883 L46.08,68.9023 C44.642,63.2543 39.524,59.0773 33.429,59.0773 C26.22,59.0773 20.376,64.9213 20.376,72.1313 L23.962,74.6553 C22.196,72.9253 19.779,71.8593 17.112,71.8593 C11.705,71.8593 7.322,76.2423 7.322,81.6493 C7.322,87.0563 11.705,91.4403 17.112,91.4403 L45.394,91.4403 L48.657,91.4403 C54.966,91.4403 60.079,86.3263 60.079,80.0183 C60.079,73.7103 54.966,68.5963 48.657,68.5963" id="Fill-99" fill="#E5E7E9"></path>
                <path d="M39.0173,78.8019 C39.0173,85.7819 44.6753,91.4399 51.6553,91.4399 C58.6343,91.4399 64.2923,85.7819 64.2923,78.8019 C64.2923,71.8229 58.6343,66.1639 51.6553,66.1639 C44.6753,66.1639 39.0173,71.8229 39.0173,78.8019" id="Fill-101" fill="#E5E7E9"></path>
                <polygon id="Fill-103" fill="#9BE1A4" points="49.3122 113.6378 91.5072 113.6378 70.4102 28.7568"></polygon>
                <polygon id="Stroke-105" stroke="#231F20" stroke-width="2" points="49.3122 113.6378 91.5072 113.6378 70.4102 28.7568"></polygon>
                <path d="M78.2234,95.7375 L70.4104,100.8955" id="Stroke-110" stroke="#0E1D25" stroke-width="2"></path>
                <path d="M57.8825,79.1579 L70.4095,92.7479" id="Stroke-112" stroke="#0E1D25" stroke-width="2"></path>
                <path d="M191.1101,23.7868 C191.1101,12.3308 200.3971,3.0438 211.8531,3.0438 C223.3101,3.0438 232.5971,12.3308 232.5971,23.7868 C232.5971,25.6318 232.3561,27.4198 231.9041,29.1218" id="Stroke-114" stroke="#C0C6CB" stroke-width="2"></path>
                <path d="M196.8093,27.7975 C194.0033,25.0495 190.1623,23.3555 185.9243,23.3555 C177.3323,23.3555 170.3673,30.3205 170.3673,38.9135 C170.3673,47.5055 177.3323,54.4705 185.9243,54.4705 L236.0523,54.4705" id="Stroke-116" stroke="#C0C6CB" stroke-width="2"></path>
                <path d="M231.9568,18.6335 C233.2728,18.3305 234.6448,18.1695 236.0528,18.1695 C246.0768,18.1695 254.2028,26.2965 254.2028,36.3205 C254.2028,46.3445 246.0768,54.4705 236.0528,54.4705 L230.8668,54.4705" id="Stroke-118" stroke="#C0C6CB" stroke-width="2"></path>
                <polygon id="Fill-120" fill="#9BE1A4" points="148.903 113.6378 196.996 113.6378 172.949 7.7178"></polygon>
                <polygon id="Stroke-122" stroke="#231F20" stroke-width="2" points="148.903 113.6378 196.996 113.6378 172.949 7.7178"></polygon>
                <path d="M172.9489,41.7506 L172.9489,154.2556" id="Stroke-124" stroke="#0E1D25" stroke-width="2"></path>
                <path d="M70,56 L70,155" id="Stroke-124" stroke="#0E1D25" stroke-width="2"></path>
                <path d="M161.0515,82.8166 L169.6475,90.9586" id="Stroke-126" stroke="#0E1D25" stroke-width="2"></path>
                <path d="M181.3679,60.5089 L172.9489,72.0159" id="Stroke-128" stroke="#0E1D25" stroke-width="2"></path>
                <polygon id="Fill-130" fill="#FDBD99" points="69.6286 127.2921 59.2976 130.0271 63.3646 132.7621"></polygon>
                <polygon id="Stroke-132" stroke="#231F20" stroke-width="2" points="69.6286 127.2921 59.2976 130.0271 63.3646 132.7621"></polygon>
                <polygon id="Fill-134" fill="#FDBD99" points="172.9489 129.4479 175.8979 139.2199 179.4139 135.1059"></polygon>
                <polygon id="Stroke-136" stroke="#231F20" stroke-width="2" points="172.9489 129.4479 175.8979 139.2199 179.4139 135.1059"></polygon>
                <path d="M155.5007,131.9806 C155.5007,135.4896 152.6557,138.3356 149.1467,138.3356 C145.6377,138.3356 142.7917,135.4896 142.7917,131.9806 C142.7917,128.4716 145.6377,125.6266 149.1467,125.6266 C152.6557,125.6266 155.5007,128.4716 155.5007,131.9806" id="Fill-138" fill="#C0C6CB"></path>
                <path d="M155.5007,131.9806 C155.5007,135.4896 152.6557,138.3356 149.1467,138.3356 C145.6377,138.3356 142.7917,135.4896 142.7917,131.9806 C142.7917,128.4716 145.6377,125.6266 149.1467,125.6266 C152.6557,125.6266 155.5007,128.4716 155.5007,131.9806 Z" id="Stroke-140" stroke="#C0C6CB" stroke-width="2"></path>
                <path d="M72.9616,126.5109 C72.9616,126.5109 89.1626,146.4359 117.2936,147.2179 C145.4236,147.9999 169.6126,128.2829 169.6126,128.2829 C169.6126,128.2829 128.2326,136.2889 118.0746,135.5029 C107.9166,134.7159 72.9616,126.5109 72.9616,126.5109" id="Fill-142" fill="#FDBD99"></path>
                <path d="M72.9616,126.5109 C72.9616,126.5109 89.1626,146.4359 117.2936,147.2179 C145.4236,147.9999 169.6126,128.2829 169.6126,128.2829 C169.6126,128.2829 128.2326,136.2889 118.0746,135.5029 C107.9166,134.7159 72.9616,126.5109 72.9616,126.5109 Z" id="Stroke-144" stroke="#231F20" stroke-width="2"></path>
            </g>
        </g>
    </g>
</svg>
