<svg id="Layer_1" xmlns="http://www.w3.org/2000/svg" viewBox="0 0 400 250"><style>.st3{fill:#cfd4d8}.st4{fill:#243038}.st5{fill:#c0c6cb}.st10{fill:#f55157}.st11{fill:#f3f5f6}</style><path d="M68.4 28.9c2.2.9 3.7 2.5 4.6 4.6.9-2.2 2.5-3.7 4.6-4.6-2.2-.9-3.7-2.5-4.6-4.6-.8 2.2-2.4 3.7-4.6 4.6z" fill="#90d2f4"/><path d="M330.8 15.9c3.8 1.3 6.4 3.9 7.7 7.7 1.3-3.8 3.9-6.4 7.7-7.7-3.8-1.3-6.4-3.9-7.7-7.7-1.3 3.9-3.9 6.4-7.7 7.7z" fill="#8fde99"/><path d="M344.4 225.4c7.2 1.9 11.7 6.4 13.5 13.5 1.9-7.2 6.4-11.7 13.5-13.5-7.2-1.9-11.7-6.4-13.5-13.5-1.9 7.1-6.3 11.6-13.5 13.5z" fill="#e6a8db"/><path class="st3" d="M264.1 130l-4.5-2.1c3.4-7.3 16.5-16.2 31.8-21.6 24.9-8.8 41.5-4.5 49.2-1.1l-2 4.6c-11.9-5.2-28.5-4.7-45.6 1.3-11.7 4-25.8 12-28.9 18.9z"/><path class="st4" d="M264.6 131.3l-6.4-2.9.4-.9c3.5-7.6 16.8-16.7 32.4-22.2 25.2-8.9 42.1-4.5 49.9-1.1l.9.4-2.8 6.4-.9-.4c-11.7-5.1-28-4.6-44.8 1.3-11.6 4.1-25.4 12.1-28.3 18.5l-.4.9zm-3.7-3.9l2.7 1.3c4-6.9 17.7-14.6 29-18.6 16.8-5.9 33.3-6.5 45.4-1.6l1.2-2.8c-7.9-3.2-23.9-6.8-47.6 1.6-14.4 5-26.8 13.2-30.7 20.1z"/><path class="st4" d="M265.6 126.1l-2.2-2c.2-.3.5-.5.7-.8l2.2 2.1c-.3.2-.5.5-.7.7zm5.7-5.1l-1.8-2.4c.3-.2.5-.4.8-.6l1.7 2.4c-.2.2-.5.4-.7.6zm6.6-4.3l-1.5-2.6c.3-.2.6-.3.9-.5l1.5 2.6c-.4.2-.7.4-.9.5zm7-3.5l-1.2-2.7.9-.4 1.2 2.7-.9.4zm7.3-3l-1-2.8 1-.3 1 2.8-1 .3zm46.7-1.4c-.3-.1-.6-.3-.9-.4l1.1-2.8c.3.1.6.3 1 .4l-1.2 2.8zm-39.2-.9l-.8-2.9c.3-.1.7-.2 1-.3l.7 2.9-.9.3zm31.9-1.5c-.3-.1-.6-.1-.9-.2l.6-2.9c.3.1.7.1 1 .2l-.7 2.9zm-24.2-.2l-.5-3 1-.2.5 3-1 .2zm16.5-1c-.3 0-.6 0-1-.1l.2-3c.3 0 .7 0 1 .1l-.2 3zm-8.8 0l-.2-3c.3 0 .7 0 1-.1l.2 3c-.3.1-.6.1-1 .1z"/><path class="st5" d="M340 118.2c-6.7 2.5-10.6 9.2-9.7 16 .2 1.8 2.1 2.9 3.7 2.3l22.4-8.3c1.7-.6 2.4-2.7 1.4-4.2-3.8-5.7-11.1-8.3-17.8-5.8z"/><path class="st4" d="M333 137.7c-.7 0-1.4-.2-2-.6-1-.6-1.6-1.6-1.8-2.8-.9-7.4 3.3-14.5 10.4-17.1 7.1-2.6 14.9 0 19 6.2.6 1 .8 2.2.4 3.3-.4 1.1-1.2 2-2.3 2.4l-22.4 8.3c-.4.2-.9.3-1.3.3zm12.2-19.4c-1.6 0-3.3.3-4.9.9-6.2 2.3-9.9 8.4-9.1 15 .1.5.4 1 .8 1.3.5.3 1 .3 1.6.1l22.4-8.3c.5-.2.9-.6 1.1-1.1.2-.5.1-1.1-.2-1.5-2.6-4.2-7.1-6.4-11.7-6.4z"/><path class="st5" d="M357.2 111.8c-6.7 2.5-10.6 9.2-9.7 16 .2 1.8 2.1 2.9 3.7 2.3l22.4-8.3c1.7-.6 2.4-2.7 1.4-4.2-3.7-5.7-11.1-8.2-17.8-5.8z"/><path class="st4" d="M350.3 131.3c-.7 0-1.4-.2-2-.6-1-.6-1.6-1.6-1.8-2.8-.9-7.4 3.3-14.5 10.4-17.1 7-2.6 14.9 0 19 6.2.6 1 .8 2.2.4 3.3-.4 1.1-1.2 2-2.3 2.4l-22.4 8.3c-.4.2-.9.3-1.3.3zm7.3-18.5c-6.2 2.3-9.9 8.4-9.1 15 .1.5.4 1 .8 1.3.5.3 1 .3 1.6.2l22.4-8.3c.5-.2.9-.6 1.1-1.1.2-.5.1-1.1-.2-1.5-3.6-5.7-10.4-7.9-16.6-5.6z"/><path d="M365.6 124.8c-.6-7-2.5-15.2-5.6-23.8-7.8-21.2-20.6-36.1-28.5-33.2-7.9 2.9-7.9 22.5-.1 43.7 3.1 8.5 7.1 16 11.2 21.7l23-8.4z" fill="#e5e7e9"/><path class="st4" d="M342.2 134.5l-.4-.6c-4.3-6-8.2-13.6-11.3-21.9-3.8-10.4-5.9-20.7-5.9-29.1 0-8.7 2.4-14.4 6.6-15.9 8.5-3.2 21.6 11.7 29.8 33.7 3.1 8.3 5 16.6 5.7 24l.1.8-24.6 9zm-8.6-66c-.6 0-1.2.1-1.8.3-3.3 1.2-5.3 6.4-5.3 14.1 0 8.1 2 18.2 5.8 28.4 2.9 7.9 6.6 15.1 10.6 20.9l21.6-8c-.7-7-2.6-14.9-5.5-22.7-6.9-18.8-18-33-25.4-33z"/><path fill="#d0d4d8" d="M363.3 133.1l-13.6 5.1-4.5-5.9 17.8-6.5z"/><path class="st4" d="M349.4 139.3l-5.8-7.5 20.4-7.5.4 9.4-15 5.6zm-2.6-6.5l3.2 4.1 12.2-4.5-.2-5.3-15.2 5.7z"/><circle class="st5" cx="345.3" cy="105.3" r="8.8"/><path class="st4" d="M345.3 115.1c-4 0-7.7-2.4-9.2-6.4-.9-2.5-.8-5.1.3-7.5 1.1-2.4 3-4.2 5.5-5.1 5.1-1.9 10.7.7 12.6 5.8.9 2.5.8 5.1-.3 7.5-1.1 2.4-3 4.2-5.5 5.1-1.1.4-2.3.6-3.4.6zm0-17.6c-.9 0-1.8.2-2.7.5-4 1.5-6.1 6-4.6 10s6 6.1 10 4.6 6.1-6 4.6-10c-1.2-3.2-4.1-5.1-7.3-5.1z"/><circle cx="345.3" cy="105.3" r="6.1" fill="#9ad6f5"/><path class="st4" d="M345.3 112.4c-1 0-2-.2-3-.7-1.7-.8-3-2.2-3.7-4-.7-1.8-.6-3.7.2-5.5.8-1.7 2.2-3 4-3.7 3.7-1.4 7.8.5 9.2 4.2.7 1.8.6 3.7-.2 5.5-.8 1.7-2.2 3-4 3.7-.8.4-1.7.5-2.5.5zm0-12.3c-.6 0-1.2.1-1.8.3-1.3.5-2.3 1.4-2.9 2.7-.6 1.2-.6 2.6-.2 3.9.5 1.3 1.4 2.3 2.7 2.9 1.2.6 2.6.6 3.9.2 1.3-.5 2.3-1.4 2.9-2.7.6-1.2.6-2.6.2-3.9-.7-2.1-2.7-3.4-4.8-3.4z"/><path transform="rotate(-20.292 337.508 84.114)" class="st4" d="M325 83.1h24.9v2H325z"/><path class="st3" d="M133.2 238.3c-11.2 0-20.1-2-26.8-4.6-14.1-5.4-24.7-15.2-29.9-27.8-7-16.8-1.4-29.2 4-41.2 4.3-9.5 8.3-18.4 5.8-29.2-2.7-11.6-10.2-16.1-18.2-20.8-8.8-5.2-17.9-10.6-19.9-25.5-2.2-17.1 3.1-31 14.8-39.1 12.2-8.5 29.8-9.2 43.8-1.8l-2.3 4.4c-12.4-6.5-28-5.9-38.6 1.5-10.1 7-14.6 19.2-12.7 34.4 1.6 12.5 8.9 16.8 17.4 21.8 8.1 4.8 17.4 10.2 20.5 23.9 2.9 12.4-1.7 22.6-6.1 32.4-5.2 11.5-10.1 22.4-4 37.2 4.7 11.3 14.3 20.2 27 25 15.7 6 43.4 8.6 86.6-12.3l2.2 4.5c-26.4 12.9-47.4 17.2-63.6 17.2z"/><path class="st4" d="M133.2 239.3c-9.9 0-19.1-1.6-27.2-4.7-14.3-5.4-25.1-15.5-30.5-28.3-7.1-17.2-1.4-29.8 4.1-42 4.2-9.3 8.2-18.1 5.8-28.5-2.6-11.2-9.9-15.5-17.7-20.1-9-5.3-18.4-10.8-20.3-26.2-2.2-17.5 3.2-31.7 15.2-40.1 12.5-8.7 30.5-9.4 44.9-1.9l.9.5-3.3 6.2-.9-.5c-12.1-6.4-27.2-5.8-37.6 1.4-9.8 6.8-14.2 18.7-12.3 33.4 1.5 12 8.7 16.2 16.9 21.1 8.3 4.9 17.7 10.4 21 24.6 2.9 12.7-1.7 23-6.2 33-5.1 11.3-9.9 22-4 36.5 4.6 11 14 19.7 26.5 24.5 15.5 5.9 42.9 8.5 85.8-12.3l.9-.4 3.1 6.3-.9.4c-23.5 11.3-45.1 17.1-64.2 17.1zm-47-195.1c-8.1 0-16.1 2.3-22.5 6.7-11.4 7.9-16.5 21.5-14.4 38.2 1.9 14.4 10.8 19.7 19.4 24.8 8.2 4.8 15.9 9.3 18.7 21.4 2.6 11.1-1.5 20.2-5.9 29.8-5.3 11.8-10.8 24-4 40.4 5.1 12.3 15.5 22 29.3 27.2 7.9 3 16.8 4.5 26.5 4.5 18.5 0 39.5-5.6 62.4-16.5l-1.3-2.7c-43 20.6-70.7 17.9-86.4 11.9-13-5-22.8-14-27.6-25.6-6.3-15.2-1.3-26.3 4-38 4.4-9.7 8.9-19.6 6.1-31.7-3.1-13.3-12.1-18.6-20.1-23.3-8.7-5.1-16.3-9.6-17.9-22.5-2-15.5 2.7-28.1 13.1-35.3 10.7-7.5 26.2-8.2 38.8-2l1.4-2.7c-6.3-3.1-13-4.6-19.6-4.6z"/><path class="st4" d="M105.1 51.9l-.4-.3L106 49l.5.2zM134 237.3v-3h1l.1 3c-.4-.1-.8-.1-1.1 0zm-7.1-.3c-.3 0-.7-.1-1-.1l.3-3c.3 0 .6.1 1 .1l-.3 3zm15.2-.2l-.3-3 1-.1.3 3-1 .1zm-23.3-.8c-.3-.1-.7-.1-1-.2l.6-2.9c.3.1.6.1 1 .2l-.6 2.9zm31.3-.2l-.5-3 1-.2.5 3-1 .2zm7.9-1.5l-.7-2.9 1-.2.7 2.9-1 .2zm-47.1-.2c-.3-.1-.7-.2-1-.3l.9-2.9.9.3-.8 2.9zm54.9-1.9l-.8-2.9 1-.3.8 2.9-1 .3zm-62.6-.9c-.3-.1-.6-.3-.9-.4l1.3-2.7c.3.1.6.3.9.4l-1.3 2.7zm70.3-1.5l-1-2.8.9-.3 1 2.8-.9.3zM96 227.3l-.9-.6 1.7-2.5c.3.2.5.4.8.5l-1.6 2.6zm85.1-.3l-1.1-2.8.9-.4 1.1 2.8-.9.4zm7.4-3l-1.2-2.7.9-.4 1.2 2.7-.9.4zm-99-1.6c-.3-.2-.5-.5-.8-.7l2-2.2c.2.2.5.4.7.7l-1.9 2.2zm-5.6-6c-.2-.3-.4-.5-.6-.8l2.4-1.8c.2.3.4.5.6.8l-2.4 1.8zm-4.6-6.9c-.2-.3-.3-.6-.5-.9l2.7-1.4c.1.3.3.6.4.9l-2.6 1.4zm-3.2-7.6c-.1-.3-.2-.7-.3-1l2.9-.8.3.9-2.9.9zm-1.7-8.1c0-.3-.1-.7-.1-1l3-.2c0 .3 0 .6.1 1l-3 .2zm3.2-7.9l-3-.4c0-.3.1-.7.1-1l3 .5c0 .2-.1.6-.1.9zm1.7-7.5l-2.9-.9c.1-.3.2-.7.3-1l2.8 1c0 .3-.1.6-.2.9zm2.8-7.4l-2.8-1.2.4-.9 2.8 1.2-.4.9zm3.2-7.2l-2.7-1.2.4-.9 2.7 1.2-.4.9zm3.1-7.5l-2.8-1 .3-.9 2.8 1c-.1.2-.2.6-.3.9zm2.2-7.9l-3-.5c.1-.3.1-.6.2-.9l3 .4c-.1.3-.2.6-.2 1zm-2.5-8.2c0-.3 0-.6-.1-.9l3-.3c0 .3.1.7.1 1l-3 .2zm-1.4-7.4l-.3-.9 2.8-1c.1.3.2.7.3 1l-2.8.9zm-3.2-6.8c-.2-.3-.4-.5-.5-.8l2.4-1.8.6.9-2.5 1.7zm-5.1-5.6c-.2-.2-.5-.4-.7-.6l1.9-2.3c.3.2.5.4.8.7l-2 2.2zm-6.3-4.5l-.8-.5 1.6-2.6.9.5-1.7 2.6zm-6.8-4.1c-.3-.2-.6-.4-.9-.5l1.6-2.5c.3.2.6.3.8.5l-1.5 2.5zm-6.7-4.8c-.3-.2-.5-.5-.8-.7l2-2.2c.2.2.5.4.7.6l-1.9 2.3zm-5.5-6.4c-.2-.3-.4-.6-.5-.9l2.6-1.4c.2.3.3.5.5.8l-2.6 1.5zM50 92.8c-.1-.3-.2-.7-.2-1l2.9-.6c.1.3.1.6.2.9l-2.9.7zm-1.1-8.1v-1l3-.1v1l-3 .1zm3.2-7.9l-3-.3c0-.3.1-.7.1-1l3 .4c0 .3 0 .6-.1.9zm1.6-7.5l-2.9-.9c.1-.3.2-.7.3-1l2.8 1c0 .3-.1.6-.2.9zm3.2-6.9l-2.6-1.6.6-.9 2.5 1.7c-.2.3-.3.5-.5.8zm4.7-5.9l-2.1-2.2c.3-.2.5-.5.8-.7l2 2.2c-.2.3-.4.5-.7.7zm6.1-4.6l-1.5-2.6c.3-.2.6-.3.9-.5l1.4 2.6c-.2.2-.5.4-.8.5zm30.7-2.8l-.9-.3.8-2.9c.3.1.7.2 1 .3l-.9 2.9zm-23.7-.2l-.9-2.9c.3-.1.7-.2 1-.3l.8 2.9-.9.3zm16.2-1.4c-.3 0-.6-.1-1-.1l.3-3c.3 0 .7.1 1 .1l-.3 3zm-8.7-.1l-.3-3c.3 0 .7-.1 1-.1l.2 3c-.2.1-.5.1-.9.1zM196 220.5l-1.3-2.7.5-.2 1.3 2.7z"/><circle cx="216.8" cy="148.3" r="95" fill="#f77276"/><path class="st4" d="M216.8 53.3c52.5 0 95 42.5 95 95s-42.5 95-95 95-95-42.5-95-95 42.5-95 95-95m0-2c-53.5 0-97 43.5-97 97s43.5 97 97 97 97-43.5 97-97-43.5-97-97-97z"/><circle class="st10" cx="193.8" cy="166.9" r="33.5"/><ellipse transform="rotate(-8.413 229.575 226.926)" class="st10" cx="229.5" cy="226.9" rx="24" ry="14.5"/><circle class="st10" cx="239.8" cy="132" r="12.5"/><ellipse transform="rotate(-71.815 237.073 81.214)" class="st10" cx="237.1" cy="81.2" rx="13.1" ry="16.7"/><ellipse transform="rotate(-60 264.838 77.409)" class="st10" cx="264.8" cy="77.4" rx="6" ry="10.7"/><ellipse transform="rotate(-57.31 275.678 100.353)" class="st10" cx="275.7" cy="100.4" rx="9.2" ry="12.4"/><ellipse transform="rotate(-74.3 151.911 137.904)" class="st10" cx="151.9" cy="137.9" rx="12.5" ry="9.1"/><ellipse transform="rotate(-55.784 150.416 104.03)" class="st10" cx="150.4" cy="104" rx="20.7" ry="11.2"/><path class="st10" d="M310.4 164.7c-1.3-4.1-3.8-7.2-7.2-8.8-9.3-4.2-22.5 4.8-29.4 20.1-7 15.3-5.1 31.2 4.2 35.4 2.9 1.3 6.1 1.3 9.5.3 11.6-12.9 19.8-29.1 22.9-47z"/><g><path class="st3" d="M116.2 78.8c-1.3.3-2.6-.3-3.2-1.5-.8-1.4-.2-3.2 1.2-4 6.2-3.3 7.7-6.4 5.8-11.8-.5-1.5.3-3.2 1.8-3.8 1.5-.5 3.2.3 3.8 1.8 3.8 10.9-3 16-8.6 19-.3.1-.5.2-.8.3z"/><path class="st4" d="M115.6 79.8c-1.4 0-2.8-.8-3.5-2.1-1-1.9-.3-4.3 1.6-5.3 5.8-3.1 7.1-5.6 5.3-10.6-.4-1-.3-2.1.2-3 .5-1 1.3-1.7 2.2-2 2.1-.7 4.3.4 5 2.4 4.6 12.9-5.7 18.4-9 20.2-.3.2-.7.3-1 .4h-.8zm7.1-21.3c-.2 0-.4 0-.6.1-.5.2-.9.5-1.1 1-.2.5-.3 1-.1 1.5 2.1 5.9.3 9.5-6.3 13-.9.5-1.3 1.7-.8 2.6.4.8 1.3 1.2 2.1 1 .2 0 .3-.1.5-.2 5.6-3 11.6-7.7 8.1-17.8-.2-.7-1-1.2-1.8-1.2z"/></g><g><circle class="st11" cx="123.4" cy="59.6" r="6"/><path class="st4" d="M123.4 66.6c-3.2 0-6.2-2.3-6.9-5.5-.4-1.8 0-3.7 1-5.3 1-1.6 2.6-2.7 4.4-3 1.8-.4 3.7 0 5.3 1 1.6 1 2.7 2.6 3 4.4.8 3.8-1.6 7.5-5.4 8.3-.4.1-.9.1-1.4.1zm0-12c-.4 0-.7 0-1.1.1-1.3.3-2.4 1.1-3.2 2.2s-1 2.5-.7 3.8c.6 2.7 3.3 4.4 6 3.9 2.7-.6 4.4-3.2 3.9-6-.3-1.3-1.1-2.4-2.2-3.2-.8-.5-1.8-.8-2.7-.8z"/></g><g><circle cx="118.7" cy="35.9" r="7.1" fill="#82909a"/><path class="st4" d="M118.7 44c-3.7 0-7.1-2.6-7.9-6.4-.9-4.4 1.9-8.7 6.2-9.6 4.4-.9 8.7 1.9 9.6 6.2.5 2.1.1 4.3-1.1 6.1-1.2 1.8-3 3.1-5.1 3.5-.6.1-1.2.2-1.7.2zm0-14.2c-.4 0-.9 0-1.3.1-1.6.3-3 1.3-3.9 2.7-.9 1.4-1.2 3-.8 4.6.3 1.6 1.3 3 2.7 3.9 1.4.9 3 1.2 4.6.8 1.6-.3 3-1.3 3.9-2.7.9-1.4 1.2-3 .8-4.6-.7-2.9-3.2-4.8-6-4.8z"/></g><g><path class="st11" d="M129.3 58.3l-11.8 2.5-5.6-22.6 13.7 1.2c.7.1 1.2.6 1.3 1.3l2.4 17.6z"/><path class="st4" d="M116.8 62l-6.2-24.9 15.1 1.4c1.2.1 2.1 1 2.2 2.1l2.5 18.5-13.6 2.9zm-3.6-22.7l5 20.3 9.9-2.1-2.2-16.7c0-.2-.2-.4-.4-.4l-12.3-1.1z"/></g><g><path class="st11" d="M108.8 57.7l7.5-1.6-3.4-13-7 1.5c-1.2.3-2 1.4-1.7 2.6l1.9 8.8c.3 1.2 1.5 1.9 2.7 1.7z"/><path class="st4" d="M108.3 58.7c-1.5 0-2.8-1-3.1-2.5l-1.9-8.8c-.4-1.7.7-3.4 2.5-3.8l7.9-1.7 3.9 15-8.5 1.8h-.8zm3.9-14.5l-6 1.3c-.7.1-1.1.8-.9 1.4l1.9 8.8c.1.7.8 1.1 1.4.9l6.5-1.4-2.9-11z"/></g><g><path class="st11" d="M132 49.9c-5 1.1-9.9.4-12.5-1-1.4-.8-2-2.5-1.2-4 .8-1.4 2.5-2 4-1.2 1.7.9 8.4 1.6 13-1.4 1.4-.9 3.2-.5 4.1.9.9 1.4.5 3.2-.9 4.1-2 1.3-4.3 2.1-6.5 2.6z"/><path class="st4" d="M127 51.4c-3.4 0-6.3-.7-8-1.6-1.9-1-2.7-3.4-1.6-5.3.5-.9 1.3-1.6 2.3-1.9 1-.3 2.1-.2 3 .3 1.4.7 7.7 1.4 12-1.4 1.8-1.2 4.3-.7 5.5 1.2 1.2 1.8.7 4.3-1.2 5.5-2 1.3-4.3 2.2-6.8 2.8-1.8.2-3.5.4-5.2.4zm-6.1-7c-.7 0-1.4.4-1.7 1-.5.9-.1 2.1.8 2.6 2.3 1.2 7 1.9 11.8.9 2.3-.5 4.4-1.3 6.2-2.5.9-.6 1.2-1.8.6-2.7s-1.8-1.2-2.7-.6c-5 3.2-12.1 2.5-14 1.5-.4-.1-.7-.2-1-.2z"/></g><g><path class="st11" d="M129.4 80.4c-.8.2-1.7 0-2.4-.6-1.3-1-1.5-2.9-.5-4.1 1.3-1.7 1.7-3.4 1.1-5.3-.9-2.9-3.9-5.7-7.2-6.8-1.5-.5-2.4-2.2-1.9-3.7s2.2-2.4 3.7-1.9c5.2 1.7 9.6 6 11 10.7 1.1 3.7.4 7.5-2.2 10.7-.3.5-.9.9-1.6 1z"/><path class="st4" d="M128.8 81.5c-.9 0-1.7-.3-2.4-.9-.8-.7-1.3-1.6-1.5-2.6-.1-1 .2-2.1.8-2.9 1.1-1.4 1.4-2.8 1-4.4-.8-2.5-3.6-5.2-6.6-6.1-2.1-.7-3.2-2.9-2.5-5 .3-1 1-1.8 2-2.3.9-.5 2-.6 3-.2 5.5 1.8 10.2 6.3 11.7 11.4 1.2 4 .4 8.2-2.3 11.6-.6.7-1.4 1.2-2.3 1.4h-.9zm-7.5-22.7c-.3 0-.6.1-.9.2-.5.2-.8.6-1 1.1-.2.5-.1 1 .1 1.5s.6.8 1.1 1c3.6 1.2 6.9 4.3 7.9 7.5.7 2.2.2 4.3-1.3 6.2-.3.4-.5.9-.4 1.4.1.5.3 1 .7 1.3.5.4 1 .5 1.6.4.4-.1.8-.3 1.1-.7 2.3-2.9 3-6.4 2-9.8-1.3-4.4-5.5-8.4-10.4-10-.1 0-.3-.1-.5-.1z"/></g><path transform="rotate(-12.068 109.326 48.543)" class="st4" d="M104.7 47.6h9.3v2h-9.3z"/><path transform="rotate(-25.035 133.134 46.513)" class="st4" d="M132.1 43.5h2v6h-2z"/><path transform="rotate(-35.887 118.09 74.394)" class="st4" d="M117.1 71.4h2v5.9h-2z"/><path transform="rotate(-64.324 129.859 75.88)" class="st4" d="M128.9 72.9h2v5.9h-2z"/><path d="M121.8 33.7c-.2 0-.4 0-.5-.2-1.9-1.2-2.9-.9-4.5-.5l-.2.1c-.5.1-1.1-.2-1.2-.7-.2-.5.2-1.1.7-1.2l.2-.1c1.7-.5 3.4-1 6.1.7.5.3.6.9.3 1.4-.2.3-.6.5-.9.5z" fill="#fff"/><path class="st4" d="M74.1 39.3h-2c0-6.5-2.9-9.4-9.4-9.4v-2c6.5 0 9.4-2.9 9.4-9.4h2c0 6.5 2.9 9.4 9.4 9.4v2c-6.5 0-9.4 2.9-9.4 9.4zm-5.7-10.4c2.2.9 3.7 2.5 4.6 4.6.9-2.2 2.5-3.7 4.6-4.6-2.2-.9-3.7-2.5-4.6-4.6-.8 2.2-2.4 3.7-4.6 4.6zM339.5 30.4h-2c0-9.2-4.3-13.5-13.5-13.5v-2c9.2 0 13.5-4.3 13.5-13.5h2c0 9.2 4.3 13.5 13.5 13.5v2c-9.2 0-13.5 4.3-13.5 13.5zm-8.7-14.5c3.8 1.3 6.4 3.9 7.7 7.7 1.3-3.8 3.9-6.4 7.7-7.7-3.8-1.3-6.4-3.9-7.7-7.7-1.3 3.9-3.9 6.4-7.7 7.7zM358.9 247.7h-2c0-14.5-6.8-21.3-21.3-21.3v-2c14.5 0 21.3-6.8 21.3-21.3h2c0 14.5 6.8 21.3 21.3 21.3v2c-14.5 0-21.3 6.8-21.3 21.3zm-14.5-22.3c7.2 1.9 11.7 6.4 13.5 13.5 1.9-7.2 6.4-11.7 13.5-13.5-7.2-1.9-11.7-6.4-13.5-13.5-1.9 7.1-6.3 11.6-13.5 13.5z"/></svg>
