<svg width="18" height="18" viewBox="0 0 18 18" fill="none" xmlns="http://www.w3.org/2000/svg">
<path fill-rule="evenodd" clip-rule="evenodd" d="M2.05882 4.2353V2.64707C2.05882 2.35483 2.29706 2.11765 2.58823 2.11765H4.17647V2.64707C4.17647 2.9393 4.41364 3.17648 4.70588 3.17648C4.99811 3.17648 5.23529 2.9393 5.23529 2.64707V2.11765H12.6471V2.64707C12.6471 2.9393 12.8842 3.17648 13.1765 3.17648C13.4687 3.17648 13.7059 2.9393 13.7059 2.64707V2.11765H15.2941C15.5853 2.11765 15.8235 2.35483 15.8235 2.64707V4.2353H2.05882ZM2.05882 16.9412H15.8235V5.29411H2.05882V16.9412ZM15.2941 1.05882H13.7059V0.529412C13.7059 0.237177 13.4687 0 13.1765 0C12.8842 0 12.6471 0.237177 12.6471 0.529412V1.05882H5.23529V0.529412C5.23529 0.237177 4.99812 0 4.70588 0C4.41365 0 4.17647 0.237177 4.17647 0.529412V1.05882H2.58824C1.71259 1.05882 1 1.77141 1 2.64706V4.23529V5.29412V18H16.8824V5.29412V4.23529V2.64706C16.8824 1.77141 16.1698 1.05882 15.2941 1.05882Z" fill="#2D3B45"/>
<path fill-rule="evenodd" clip-rule="evenodd" d="M8.97188 10.3041L6.22202 7.5542L5.5542 8.22202L8.30406 10.9719L5.5542 13.7217L6.22202 14.3896L8.97188 11.6397L11.7217 14.3896L12.3896 13.7217L9.63971 10.9719L12.3896 8.22202L11.7217 7.5542L8.97188 10.3041Z" fill="#2D3B45"/>
</svg>
