<svg xmlns="http://www.w3.org/2000/svg" width="32" height="32" viewBox="0 0 32 32"><title>Address Book</title>
<path d="M24 2h-2a2 2 0 0 0-2-2H2a2 2 0 0 0-2 2v26s.5 4 4 4h20s2-.5 2-2V4s-.375-2-2-2zM3 19.484c0-.51.373-1.955 3.234-2.372 1.89-.275 2.46-.65 2.63-.876-.02-.524-.06-1.115-.06-1.115s-.57-.62-1.003-1.853c-.91-.365-.79-.6-.877-1.07 0 0 .105-1.91.72-1.872 0 0 .493 0 .395-.44-.032-.73-.02-.882.028-1.37s.258-1.804 1.284-2 .233-.097.575-.145c.34-.05-.214-.243.42-.243l1.015-.212c.635 0 1.04.885 1.383.934s.118-.15.818-.02c1.025.194 1.324 1.588 1.373 2.075s.08.64-.017 1.078c-.098.44.147.39.147.39.732 0 .426 1.872.426 1.872-.113.496-.373.557-1.055.985-.434 1.232-1.344 1.99-1.344 1.99l.042.83s-.158.65 2.667 1.067 3.2 1.86 3.2 2.37v2.435H3v-2.438zM22 30H4s-2-.625-2-2h18a2 2 0 0 0 2-2V4h2v24s.125 2-2 2z"/></svg>
