<?xml version="1.0" encoding="utf-8"?>

<!DOCTYPE svg PUBLIC "-//W3C//DTD SVG 1.1//EN" "http://www.w3.org/Graphics/SVG/1.1/DTD/svg11.dtd">
<svg version="1.1" xmlns="http://www.w3.org/2000/svg" xmlns:xlink="http://www.w3.org/1999/xlink" width="32" height="32" viewBox="0 0 32 32">
<g>
</g>
	<path d="M26.923 29.707h-21.848c-1.881 0-3.422-1.529-3.422-3.41v-20.438c0-1.881 1.541-3.459 3.422-3.459h21.848c1.881 0 3.424 1.578 3.424 3.459v20.438c0 1.881-1.542 3.41-3.424 3.41zM28.64 5.859c0-0.941-0.776-1.753-1.717-1.753h-21.848c-0.941 0-1.715 0.811-1.715 1.753v20.438c0 0.391 0.161 0.735 0.382 1.023l5.588-10.102 7.373 2.397 5.969-11.98 5.969 8.386v-10.161z" fill="#000000"></path>
</svg>
