<svg xmlns="http://www.w3.org/2000/svg" width="32" height="32" viewBox="0 0 32 32"><title>Android</title>
<path d="M27 10c-1.1 0-2 .9-2 2v8c0 1.1.9 2 2 2s2-.9 2-2v-8c0-1.1-.9-2-2-2zM3 10c-1.1 0-2 .9-2 2v8c0 1.1.9 2 2 2s2-.9 2-2v-8c0-1.1-.9-2-2-2zm3 13a3 3 0 0 0 3 3h1v4c0 1.1.9 2 2 2s2-.9 2-2v-4h2v4c0 1.1.9 2 2 2s2-.9 2-2v-4h1a3 3 0 0 0 3-3V12H6v11zM18.706 2.797l1.266-2.43a.25.25 0 1 0-.443-.232l-1.286 2.468C17.238 2.213 16.144 2 15 2s-2.237.214-3.244.603L10.47.135a.25.25 0 1 0-.442.23L11.294 2.8A9.007 9.007 0 0 0 6.056 10h17.89a9.007 9.007 0 0 0-5.24-7.202zM11 8.45a1.45 1.45 0 1 1 0-2.9 1.45 1.45 0 0 1 0 2.9zm8 0a1.45 1.45 0 1 1 0-2.9 1.45 1.45 0 0 1 0 2.9z"/></svg>
