<?xml version="1.0" encoding="utf-8"?>

<!DOCTYPE svg PUBLIC "-//W3C//DTD SVG 1.1//EN" "http://www.w3.org/Graphics/SVG/1.1/DTD/svg11.dtd">
<svg version="1.1" xmlns="http://www.w3.org/2000/svg" xmlns:xlink="http://www.w3.org/1999/xlink" width="32" height="32" viewBox="0 0 32 32">
<g>
</g>
	<path d="M28 2.004c0 0 2-2 2 0 0 0 0 18 0 20s-2 0-2 0c-6-6-14-6-14-6s-2 0-2-2v-4c0 0 0-2 2-2 0 0 8.062 0.062 14-6zM10 14.004c0 2 0 2 0 2h-6c-2 0-2-2-2-2v-4c0-2 2-2 2-2h6v6zM15.333 19.316c-1.333 1.303-1.333 1.303-1.333 1.304-0.031 2.187 0 8.775 0 8.775s1.332-0.002 1.332 1.301c0 1.303-1.362 1.303-1.362 1.303h-5.164c-1.146 0-0.827-1.303-0.827-1.303v-10.078c0-1.106-1.164-1.445-1.164-1.445-0.17 0.143-0.17-1.16-0.17-1.16s6.022 0 8.688 1.303z" fill="#000000"></path>
</svg>
