<svg xmlns="http://www.w3.org/2000/svg" width="32" height="32" viewBox="0 0 32 32"><title>Apple</title><path d="M24.734 17.003c-.04-4.053 3.305-5.996 3.454-6.093-1.88-2.75-4.808-3.127-5.85-3.17-2.493-.253-4.863 1.466-6.128 1.466-1.26 0-3.213-1.43-5.28-1.392-2.716.04-5.22 1.58-6.62 4.012-2.82 4.897-.722 12.15 2.03 16.123 1.343 1.943 2.946 4.126 5.05 4.048 2.026-.08 2.793-1.31 5.242-1.31s3.138 1.31 5.283 1.27c2.18-.04 3.562-1.98 4.897-3.93 1.543-2.256 2.18-4.44 2.216-4.552-.048-.022-4.252-1.632-4.294-6.473zM20.704 5.11C21.823 3.755 22.577 1.875 22.37 0c-1.61.066-3.56 1.072-4.713 2.423-1.036 1.2-1.942 3.113-1.7 4.95 1.797.14 3.63-.912 4.748-2.263z"/></svg>
