<?xml version="1.0" encoding="utf-8"?>

<!DOCTYPE svg PUBLIC "-//W3C//DTD SVG 1.1//EN" "http://www.w3.org/Graphics/SVG/1.1/DTD/svg11.dtd">
<svg version="1.1" xmlns="http://www.w3.org/2000/svg" xmlns:xlink="http://www.w3.org/1999/xlink" width="32" height="32" viewBox="0 0 32 32">
<g>
</g>
	<path d="M27.996 8l-7.995-7.996-14.005-0.004c0 0-2 0.062-2 2s0 28 0 28 0 2 2 2h20c0 0 2.008-0.027 2.008-2.277s-0.008-21.723-0.008-21.723zM15.996 29l-1-3-4.734 0.099-0.878 2.845h-2.833l4.626-13.040h3.064l4.755 13.096h-3zM25.996 24h-2v2h-2v-2h-2v-2h2v-2h2v2h2v2zM25.996 10h-6c-2.015 0-2-2-2-2s0-5.055 0-6 1-1 1-1l8 8c0 0-0.014 1-1 1zM10.996 24l3.321-0.112-1.637-5.050-1.684 5.162z" fill="#000000"></path>
</svg>
