<svg xmlns="http://www.w3.org/2000/svg" width="32" height="32" viewBox="0 0 32 32"><title>Calendar Days</title><path d="M9 5a1 1 0 0 0 1-1V1a1 1 0 0 0-2 0v3a1 1 0 0 0 1 1zm20-3h-3v2a3 3 0 0 1-6 0V2h-8v2a3 3 0 0 1-6 0V2H3C1.05 2 0 3.13 0 5v24c0 1.79 1.17 3 3 3h26c1.992 0 3-1.17 3-3V5c0-1.83-1.13-3-3-3zm-1 26H4V10h24v18zm-13.318-8.73c-.422.994-.486 3.26-.682 4.73h2.688c.082-1.056.328-3.256.564-4.03.3-.993.483-1.29 1-2.1.425-.667 1.113-1.298 1.748-1.87v-2h-8v2h4.625a13.758 13.758 0 0 0-1.943 3.27zM23 5a1 1 0 0 0 1-1V1a1 1 0 0 0-2 0v3a1 1 0 0 0 1 1z"/></svg>
