<svg xmlns="http://www.w3.org/2000/svg" width="32" height="32" viewBox="0 0 32 32"><title>Calendar Month</title><path d="M18 12h-2v2h2v-2zm-4 0h-2v2h2v-2zm4 4h-2v2h2v-2zm0 4h-2v2h2v-2zm0 4h-2v2h2v-2zm4-4h-2v2h2v-2zm4-8h-2v2h2v-2zm0 4h-2v2h2v-2zm-4 0h-2v2h2v-2zm4-14H4a4 4 0 0 0-4 4v22a4 4 0 0 0 4 4h22a4 4 0 0 0 4-4V6a4 4 0 0 0-4-4zm2 25c0 2.21-.79 3-3 3H5c-2.21 0-3-.79-3-3V10h26v17zm-2-7h-2v2h2v-2zm-16 4H8v2h2v-2zm-4-4H4v2h2v-2zm0-4H4v2h2v-2zm0 8H4v2h2v-2zm4-4H8v2h2v-2zm4 0h-2v2h2v-2zm0 4h-2v2h2v-2zm-4-8H8v2h2v-2zm4 0h-2v2h2v-2zm8-4h-2v2h2v-2z"/></svg>
