<svg xmlns="http://www.w3.org/2000/svg" width="32" height="32" viewBox="0 0 32 32"><title>Clock</title><path d="M16 1.705C8.105 1.705 1.705 8.105 1.705 16S8.105 30.295 16 30.295c7.894 0 14.294-6.4 14.294-14.295S23.894 1.705 16 1.705zm-.025 25.017C9.108 26.722 5.253 22.867 5.253 16S9.108 5.278 15.975 5.278c6.867 0 10.72 3.855 10.72 10.722s-3.853 10.722-10.72 10.722zm1.388-8.668l-3.723 4.318c-.528.528-1.52.383-2.217-.314s-.833-1.695-.305-2.223l3.06-3.605c-.01-.075-.045-.152-.045-.23V8.852c0-.987.827-1.787 1.813-1.787s1.813.8 1.813 1.787v7.2h.013c.25.64.003 1.588-.41 2.002z"/></svg>
