<svg width="512" height="416" viewBox="0 0 512 416" xmlns="http://www.w3.org/2000/svg"><title>Cloud Lock</title><path d="M512 272c0 79.68-64.448 144-144.064 144H96c-54.208-7.68-96-55.68-96-112 0-45.12 26.752-83.52 65.12-101.44-.448-3.52-1.12-7.36-1.12-10.88 0-53.12 42.912-96 95.968-96 12.224 0 23.84 2.56 34.624 6.72C206.496 43.84 258.048 0 319.968 0 390.752 0 448 57.28 448 128c0 8-.96 15.68-2.336 23.04C485.504 176.64 512 221.12 512 272zm-176-48v-32c0-35.344-28.656-64-64-64s-64 28.656-64 64v32c-8.848 0-16 7.152-16 16v96c0 8.848 7.152 16 16 16h128c8.832 0 16-7.152 16-16v-96c0-8.848-7.168-16-16-16zm-32 0h-64v-32c0-16 16-32 32-32s32 16 32 32v32z" fill="#4D4E4C" fill-rule="evenodd"/></svg>
