<?xml version="1.0" encoding="UTF-8" standalone="no"?>
<svg width="512px" height="512px" viewBox="0 0 512 512" version="1.1" xmlns="http://www.w3.org/2000/svg" xmlns:xlink="http://www.w3.org/1999/xlink" xmlns:sketch="http://www.bohemiancoding.com/sketch/ns">
    <!-- Generator: Sketch 3.2.2 (9983) - http://www.bohemiancoding.com/sketch -->
    <title>Slice 1</title>
    <desc>Created with Sketch.</desc>
    <defs>
        <path id="path-1" d="M75.264,188.987838 C75.264,126.504054 126.976,75.2878378 190.464,75.2878378 L283.648,75.2878378 L283.648,0 L189.952,0 C85.504,0 0,84.5067568 0,188.987838 C0,293.468919 85.504,377.975676 189.952,377.975676 L283.136,377.975676 L283.136,302.687838 L189.952,302.687838 C126.464,302.687838 75.264,251.471622 75.264,188.987838 L75.264,188.987838 Z"></path>
        <path id="path-2" d="M512,188.987838 L358.912,53.777027 L358.912,143.917568 L197.632,143.917568 C172.544,143.917568 152.576,163.891892 152.576,188.987838 C152.576,214.083784 172.544,234.058108 197.632,234.058108 L358.912,234.058108 L358.912,324.198649 L512,188.987838 L512,188.987838 Z"></path>
    </defs>
    <g id="Page-1" stroke="none" stroke-width="1" fill="none" fill-rule="evenodd" sketch:type="MSPage">
        <g id="icon_commons" sketch:type="MSLayerGroup" transform="translate(0.000000, 67.000000)">
            <g id="Group">
                <g id="Shape">
                    <use fill="#000000" fill-rule="evenodd" sketch:type="MSShapeGroup" xlink:href="#path-1"></use>
                    <use fill="none" xlink:href="#path-1"></use>
                </g>
                <g id="Shape">
                    <use fill="#000000" fill-rule="evenodd" sketch:type="MSShapeGroup" xlink:href="#path-2"></use>
                    <use fill="none" xlink:href="#path-2"></use>
                </g>
            </g>
        </g>
    </g>
</svg>