<svg xmlns="http://www.w3.org/2000/svg" width="32" height="32" viewBox="0 0 32 32"><title>Complete</title><path d="M16.044 2.184c-7.86 0-14.234 6.372-14.234 14.234s6.372 14.234 14.234 14.234c7.86 0 14.234-6.372 14.234-14.234S23.903 2.184 16.044 2.184zm0 24.907c-5.897 0-10.675-4.777-10.675-10.674S10.146 5.74 16.043 5.74 26.72 10.52 26.72 16.417 21.937 27.09 16.043 27.09zm7.037-14.946c-.7-.675-1.858-.678-2.583-.006l-6.172 5.575-2.456-3.072c-.607-.755-1.75-.896-2.56-.312-.81.58-.975 1.666-.37 2.422l4.942 6.172 9.153-8.338c.725-.67.747-1.762.047-2.44z"/></svg>
