<?xml version="1.0" encoding="utf-8"?>

<!DOCTYPE svg PUBLIC "-//W3C//DTD SVG 1.1//EN" "http://www.w3.org/Graphics/SVG/1.1/DTD/svg11.dtd">
<svg version="1.1" xmlns="http://www.w3.org/2000/svg" xmlns:xlink="http://www.w3.org/1999/xlink" width="32" height="32" viewBox="0 0 32 32">
<g>
</g>
	<path d="M26 28l0.014-12.021 3.986-3.979v16c0 2-2 4-4 4l-21.986-0.021c-2 0-4-2-4-4l-0.014-23.979c0-2 2-4 4-4h18l-4 4h-14v24h22zM31.422 3.104c1.252 1.208 0.045 2.114 0.045 2.114l-2.401 2.365-4.724-4.531 2.469-2.565c1.296-1.251 2.402 0.205 2.402 0.205l2.209 2.412zM27.288 8.771l-13.055 12.478-4.739-3.935 13.080-12.85 4.714 4.307zM7.014 25.014l0.652-5.897 5.075 3.865-5.727 2.032z" fill="#000000"></path>
</svg>
