<svg xmlns="http://www.w3.org/2000/svg" width="32" height="32" viewBox="0 0 32 32"><title>Copy Course</title><path d="M28 28h-6v2a2 2 0 0 1-2 2H2a2 2 0 0 1-2-2V6a2 2 0 0 1 2-2h6V2a2 2 0 0 1 2-2h13.844L30 6v20a2 2 0 0 1-2 2zM3 6c-.9-.046-1 1-1 1v21.286C2 29.232 2.732 30 3.637 30H19c.903 0 1-1 1-1v-1H10a2 2 0 0 1-2-2v-8H4v-6c1.46 0 2.803.008 4 .02V6H3zm25 2h-4s-2 .094-2-2V2H11c-.904 0-1 1-1 1v9.05a224.2 224.2 0 0 1 4.03.097L14 8c3.667 3 10 8 10 8s-9.333 8-10 8v-6h-4v7c0 .947 1 1 1 1h16c.903 0 1-1 1-1V8z"/></svg>
