<?xml version="1.0" encoding="utf-8"?>

<!DOCTYPE svg PUBLIC "-//W3C//DTD SVG 1.1//EN" "http://www.w3.org/Graphics/SVG/1.1/DTD/svg11.dtd">
<svg version="1.1" xmlns="http://www.w3.org/2000/svg" xmlns:xlink="http://www.w3.org/1999/xlink" width="32" height="32" viewBox="0 0 32 32">
<g>
</g>
	<path d="M25.978-0.053h-19.983c-3.997 0-6.048 2.003-6.048 6v13.988c0 3.997 2.027 5.995 6.080 5.995v5.995l7.962-5.951h11.99c3.997 0 5.968-2.042 5.968-6.038v-13.988c0-3.997-1.972-6-5.968-6zM23.98 17.802l-2.956 3.044-5.037-5.038-5.037 5.038-2.957-3.132 5-4.899-5-5.001 3.044-2.955 4.986 4.986 5.088-4.986 2.869 2.955-4.994 4.994 4.994 4.994z" fill="#000000"></path>
</svg>
