<svg xmlns="http://www.w3.org/2000/svg" width="32" height="32" viewBox="0 0 32 32"><title>Discussion Reply</title><path d="M15.926 13.434c-.806 0-1.46.643-1.46 1.436s.654 1.437 1.46 1.437 1.46-.643 1.46-1.437c0-.793-.654-1.436-1.46-1.436zm-5.836 0c-.806 0-1.46.643-1.46 1.436s.654 1.437 1.46 1.437c.806 0 1.46-.643 1.46-1.437s-.654-1.436-1.46-1.436zm11.672 0c-.806 0-1.46.643-1.46 1.436s.654 1.437 1.46 1.437c.806 0 1.46-.643 1.46-1.437s-.654-1.436-1.46-1.436zm5.835-12.1H4.255c-2.692 0-2.693 2.7-2.693 2.7l.148 23.928s0 2.705 2.693 2.705h23.342c2.694 0 2.694-2.7 2.694-2.7l-.15-23.93s0-2.704-2.693-2.704zm-.024 17.858c0 2.872-1.435 4.328-4.353 4.328h-8.753l-5.88 4.29v-4.308c-2.88 0-4.373-1.437-4.373-4.31v-8.618c0-2.873 1.48-4.31 4.398-4.31H23.2c2.917 0 4.374 1.436 4.374 4.31v8.618z"/></svg>
