<svg xmlns="http://www.w3.org/2000/svg" width="32" height="32" viewBox="0 0 32 32"><title>Discussion Search</title><path d="M12.88 6.206c-2.56 0-4.655 2.03-4.655 4.51 0 2.482 2.096 4.51 4.656 4.51s4.653-2.028 4.653-4.51c0-2.48-2.09-4.51-4.652-4.51zm13.035-6.26H5.898C1.895-.053-.107 1.95-.107 5.953v14.012c0 4.003 2.002 6.005 6.005 6.005v6.004l8.007-6.005h12.01c4.003 0 6.005-2.003 6.005-6.006V5.952c0-4.003-2.002-6.005-6.005-6.005zM23.423 21.47c-.682.66-1.787.66-2.47 0l-4.905-4.756a7.077 7.077 0 0 1-3.167.768c-3.856 0-6.98-3.03-6.98-6.765 0-3.737 3.125-6.767 6.98-6.767 3.856 0 6.98 3.03 6.98 6.767a6.576 6.576 0 0 1-1.182 3.763l4.744 4.598c.682.66.682 1.732 0 2.393z"/></svg>
