<?xml version="1.0" encoding="utf-8"?>

<!DOCTYPE svg PUBLIC "-//W3C//DTD SVG 1.1//EN" "http://www.w3.org/Graphics/SVG/1.1/DTD/svg11.dtd">
<svg version="1.1" xmlns="http://www.w3.org/2000/svg" xmlns:xlink="http://www.w3.org/1999/xlink" width="32" height="32" viewBox="0 0 32 32">
<g>
</g>
	<path d="M15.926 13.434c-0.806 0-1.459 0.643-1.459 1.436s0.653 1.437 1.459 1.437 1.459-0.643 1.459-1.437c0-0.793-0.653-1.436-1.459-1.436zM10.090 13.434c-0.806 0-1.459 0.643-1.459 1.436s0.653 1.437 1.459 1.437c0.806 0 1.459-0.643 1.459-1.437s-0.653-1.436-1.459-1.436zM21.762 13.434c-0.806 0-1.459 0.643-1.459 1.436s0.653 1.437 1.459 1.437c0.806 0 1.459-0.643 1.459-1.437s-0.653-1.436-1.459-1.436zM27.597 1.333c-5.336 0-20.649 0-23.342 0s-2.693 2.701-2.693 2.701l0.148 23.928c0 0 0 2.705 2.693 2.705s20.649 0 23.342 0c2.694 0 2.694-2.701 2.694-2.701l-0.148-23.928c0 0 0-2.705-2.694-2.705zM27.573 19.192c0 2.872-1.435 4.328-4.353 4.328h-8.753l-5.88 4.291v-4.309c-2.88 0-4.373-1.437-4.373-4.309v-8.619c0-2.873 1.48-4.31 4.398-4.31l14.587 0c2.918 0 4.375 1.436 4.375 4.309l-0 8.619z" fill="#000000"></path>
</svg>
