<svg xmlns="http://www.w3.org/2000/svg" width="32" height="32" viewBox="0 0 32 32"><title>Educators</title><path d="M26.936 24.817c1.23-2.567 2.734-4.046 2.734-10.9 0-10.503-12.634-7.72-12.523-6.128-.09-1.263 1.763-3.32 2.863-3.447.186-.177-1.146-3.24-3.19-.268-.634.92-.937 2.464-.862 3.733l-.142-.016c-.947-1.86-2.104-4.74-3.585-5.027-1.65-.32-4.775-.497-6.38 1.838 1.31-.052 4.976.856 7.725 2.55-1.168-.422-2.383-.84-3.954-.59-3.137.5-7.29 3.34-7.29 7.355 0 6.242 2.766 9.59 3.646 10.9s2.598 4.476 4.556 4.597c2.57.158 3.598-1.89 5.468-1.838 1.716 0 3.892 1.838 5.468 1.838 2.055 0 4.237-2.033 5.468-4.597z"/></svg>
