<svg width="512" height="493" viewBox="0 0 512 493" xmlns="http://www.w3.org/2000/svg"><path d="M105.144 396.56c15.155-32.938 27.216-73.047 36.184-120.415 8.967-47.28 13.45-97.382 13.45-150.262 0-9.77-.133-21.063-.447-33.745-.313-12.727-.76-23.528-1.344-32.266h-28.92c-16.366 0-29.504 2.868-39.458 8.738-9.864 5.826-18.024 13.534-24.526 22.99-5.246 7.484-9.416 17.12-12.285 28.86-2.915 11.742-4.932 24.47-6.277 38.182H12.375c-.897-9.187-1.793-18.24-2.33-27.202-.63-8.963-.898-19.18-.898-30.608 0-11.07 1.973-22.183 5.963-33.297 4.036-11.07 10.76-21.96 19.998-32.714 8.07-9.86 19.01-18.104 32.955-24.782C81.963 3.316 97.477 0 114.47 0H512v59.737H407.663V379.89c0 19.583 5.83 35.133 17.397 46.74 11.658 11.562 28.248 17.388 49.904 17.388 4.35 0 9.506-.18 15.56-.448 6.007-.448 11.343-.717 16.006-1.03v31.37c-14.572 5.198-29.145 9.59-43.627 13.175-14.527 3.585-32.597 5.377-54.254 5.377-29.37 0-51.43-9.5-66.09-28.412-14.708-18.956-22.06-44.724-22.06-77.35V59.783H198.54l.897 31.056c.314 12.234.45 25.41.45 39.437 0 40.467-3.454 84.698-10.404 132.65-6.95 47.95-17.262 89.27-30.848 123.866-13.316 33.925-28.472 60.05-45.465 78.56C96.132 483.723 76.403 493 53.805 493c-18.563 0-32.148-6.274-40.802-18.822C4.35 461.63 0 448.455 0 434.742 0 423 4.035 411.438 12.285 400.235c8.206-11.204 20.357-16.895 36.41-16.895 9.863 0 20.175 1.703 30.847 5.154 10.67 3.405 19.28 6.094 25.737 8.066h-.136z" fill="#000000" fill-rule="evenodd"/></svg>