<svg width="448" height="509" viewBox="0 0 448 509" xmlns="http://www.w3.org/2000/svg"><path d="M196.224 185.28c3.2-15.68 19.584-28.384 36.544-28.384H399.68c16.96 0 28.16 12.704 24.96 28.416l-32.32 157.92c-3.2 15.68-19.584 28.416-36.544 28.416H188.864c-16.96 0-28.16-12.704-24.96-28.416l32.32-157.888v-.064zm169.92-121.44c1.376-6.72 8.416-12.16 15.68-12.16h54.912c7.264 0 12.032 5.44 10.656 12.16l-10.592 52c-1.376 6.72-8.384 12.16-15.616 12.16H366.24c-7.264 0-12.032-5.44-10.656-12.16l10.624-52h-.064zM67.52 169.088c1.344-6.72 8.32-12.16 15.616-12.16h54.912c7.264 0 12.032 5.44 10.656 12.16L138.08 221.12c-1.376 6.72-8.416 12.16-15.68 12.16H67.52c-7.264 0-12.064-5.44-10.656-12.16l10.624-52.032h.032zM49.92 276.48c1.376-6.72 8.384-12.224 15.616-12.224h54.944c7.264 0 12.032 5.44 10.656 12.16l-10.624 52.032c-1.376 6.72-8.416 12.16-15.68 12.16H49.92c-7.232 0-12.032-5.44-10.624-12.16L49.92 276.48zm255.616 123.84c1.376-6.72 8.384-12.16 15.616-12.16h54.944c7.264 0 12.032 5.44 10.656 12.16l-10.624 51.968c-1.376 6.72-8.416 12.16-15.68 12.16H305.6c-7.264 0-12.032-5.376-10.624-12.16L305.6 400.32h-.064zm-92.512 25.92c.48-2.24 2.88-4.064 5.216-4.064h35.136c2.432 0 4 1.824 3.52 4.032l-6.72 33.184c-.48 2.24-2.88 4-5.248 4h-35.136c-2.4 0-4-1.824-3.52-4l6.72-33.216.032.064zM71.04 392.16c.48-2.24 2.88-4.032 5.216-4.032h35.104c2.464 0 4.032 1.792 3.584 4l-6.784 33.184c-.448 2.24-2.816 4.032-5.184 4.032h-35.2c-2.368 0-3.968-1.824-3.52-4.032l6.784-33.184v.032zm90.144-324.096c.48-2.24 2.88-4.032 5.216-4.032h35.136c2.432 0 4 1.856 3.52 4.064l-6.656 33.152c-.48 2.24-2.88 4.032-5.248 4.032h-35.2c-2.4 0-4-1.824-3.52-4.032l6.72-33.184h.032zm55.456 37.216c.512-2.304 2.88-4.16 5.28-4.16h19.744c2.432 0 4.032 1.92 3.584 4.16l-3.84 18.656c-.448 2.24-2.784 4.064-5.248 4.064h-19.744c-2.432 0-4-1.824-3.52-4.064l3.776-18.688-.032.032zM344.832 4.064C345.28 1.824 347.616 0 350.048 0h19.744c2.432 0 4.032 1.856 3.52 4.064l-3.776 18.72c-.48 2.24-2.816 4.064-5.28 4.064h-19.744c-2.432 0-4.032-1.92-3.584-4.096l3.84-18.72.064.032zm-207.872 0c.48-2.24 2.816-4.064 5.248-4.064h19.744c2.464 0 4.064 1.856 3.616 4.064l-3.84 18.72c-.448 2.24-2.816 4.096-5.248 4.096h-19.776c-2.432 0-4.032-1.92-3.52-4.096l3.776-18.72zM4.672 156.864c.448-2.24 2.784-4.096 5.216-4.096h19.744c2.432 0 4.032 1.856 3.52 4.096l-3.776 18.688c-.512 2.24-2.88 4.064-5.28 4.064H4.352c-2.432 0-4.032-1.824-3.584-4.064l3.84-18.688h.064zm7.584 329.28c.448-2.24 2.784-4.096 5.216-4.096h19.776c2.432 0 4.032 1.856 3.52 4.096l-3.776 18.688c-.48 2.24-2.816 4.064-5.248 4.064H12c-2.432 0-4.032-1.824-3.584-4.064l3.84-18.688zm190.624-5.184c.416-2.24 2.752-4.064 5.216-4.064h19.744c2.432 0 4.032 1.824 3.584 4.064l-3.84 18.688c-.448 2.24-2.784 4.096-5.248 4.096H202.56c-2.4 0-4-1.856-3.52-4.096l3.84-18.688z" fill="#000000" fill-rule="evenodd"/></svg>