<?xml version="1.0" encoding="UTF-8" standalone="no"?>
<svg width="512px" height="512px" viewBox="0 0 512 512" version="1.1" xmlns="http://www.w3.org/2000/svg" xmlns:xlink="http://www.w3.org/1999/xlink" xmlns:sketch="http://www.bohemiancoding.com/sketch/ns">
    <!-- Generator: Sketch 3.2.2 (9983) - http://www.bohemiancoding.com/sketch -->
    <title>icon-name</title>
    <desc>Created with Sketch.</desc>
    <defs></defs>
    <g id="Page-1" stroke="none" stroke-width="1" fill="none" fill-rule="evenodd" sketch:type="MSPage">
        <g id="icon-name" sketch:type="MSArtboardGroup" fill="#000000">
            <g id="export-5" sketch:type="MSLayerGroup" transform="translate(27.000000, 28.000000)">
                <path d="M370,326 L370,337.523341 L370,337.523341 L358.476659,326 L370,326 Z M366.615251,409.09191 C356.704398,442.017204 326.155276,466 290.000314,466 L79.9996858,466 C35.8170794,466 0,430.183458 0,385.991119 L0,80.008881 C0,35.8211962 35.8133444,0 79.9996858,0 L290.000314,0 C334.182921,0 370,35.8165421 370,80.008881 L370,94.5233406 L370,94.5233406 L320,144.523341 L320,90.9963311 C320,68.9007019 302.0901,51 279.99712,51 L90.0028802,51 C67.9114535,51 50,68.9069674 50,90.9963311 L50,377.003669 C50,399.099298 67.9098995,417 90.0028802,417 L279.99712,417 C302.088547,417 320,399.093033 320,377.003669 L320,362.476659 L366.615251,409.09191 L366.615251,409.09191 Z" id="Rectangle-43" sketch:type="MSShapeGroup"></path>
                <path d="M320,227.120693 L320,227 L374.609127,227 L342.764196,195.155069 L381.655069,156.264196 L479.235804,253.844931 L479.080736,254 L479.235804,254.155069 L381.655069,351.735804 L342.764196,312.844931 L373.609127,282 L373.609127,282 L320,282 L320,281.808283 C309.732331,281.639029 272.342283,282.888457 248.502929,308.425785 C220.656249,338.255863 226.022461,377.102542 226.022461,377.102542 L163.0979,377.102542 C163.0979,377.102542 158.96875,306.512696 201.945312,263.458008 C240.183069,225.150741 305.959291,226.383156 320,227.120693 Z" id="Rectangle-49" sketch:type="MSShapeGroup"></path>
            </g>
        </g>
    </g>
</svg>