<svg xmlns="http://www.w3.org/2000/svg" width="32" height="32" viewBox="0 0 32 32"><title>Export Content</title><path d="M24.047 24.016v-6.012h-10.02v-6.012h10.02V7.984C27.72 10.99 32.063 16 32.063 16s-7.347 8.016-8.016 8.016zM20.04 4.98s-.097-1.003-1.003-1.003H8.017v4.008c0 2.098-2.005 2.004-2.005 2.004H2.004V27.02s.097 1.002 1.002 1.002h16.03c.905 0 1.003-1.002 1.003-1.002l.036-6.982h1.967v7.984a2.005 2.005 0 0 1-2.004 2.004H2.003A2.004 2.004 0 0 1 0 28.024V7.984l6.012-6.01H20.04c1.105 0 2.003.897 2.003 2.003V9.99H20.04V4.98z"/></svg>
