<svg width="512" height="512" viewBox="0 0 512 512" xmlns="http://www.w3.org/2000/svg"><title>Export</title><g fill="#000" fill-rule="evenodd"><path d="M397 354v11.523L385.477 354H397zm-3.385 83.092C383.705 470.017 353.155 494 317 494H107c-44.183 0-80-35.817-80-80.01V108.01C27 63.82 62.813 28 107 28h210c44.183 0 80 35.817 80 80.01v14.513l-50 50v-53.527C347 96.9 329.09 79 306.997 79H117.003C94.91 79 77 96.907 77 118.996v286.008C77 427.1 94.91 445 117.003 445h189.994C329.09 445 347 427.093 347 405.004v-14.527l46.615 46.615z"/><path d="M347 255.12V255h54.61l-31.846-31.845 38.89-38.89 97.582 97.58-.155.155.156.155-97.58 97.58-38.892-38.89L400.61 310H347v-.192c-10.268-.17-47.658 1.08-71.497 26.618-27.847 29.83-22.48 68.677-22.48 68.677h-62.925s-4.13-70.59 38.847-113.645C267.183 253.15 332.96 254.383 347 255.12z"/></g></svg>
