<svg width="512" height="512" viewBox="0 0 512 512" xmlns="http://www.w3.org/2000/svg"><title>Eye</title><path d="M256 431c141.385 0 256-175 256-175S397.385 81 256 81 0 256 0 256s114.615 175 256 175zm.533-80.03c52.136 0 94.4-42.28 94.4-94.436 0-52.156-42.264-94.436-94.4-94.436-52.135 0-94.4 42.28-94.4 94.436 0 52.155 42.265 94.436 94.4 94.436zM256 323.226c37.114 0 67.2-30.098 67.2-67.226s-30.086-67.226-67.2-67.226c-37.114 0-67.2 30.098-67.2 67.226s30.086 67.226 67.2 67.226z" fill="#000" fill-rule="evenodd"/></svg>
