<svg width="60" height="60" viewBox="0 0 60 60" xmlns="http://www.w3.org/2000/svg"><title>Files Obtained Permission</title><g fill="none" fill-rule="evenodd"><circle fill="#000" cx="30" cy="30" r="30"/><circle fill="#FFF" cx="30" cy="30" r="24"/><path d="M38.09 22.206v12.08h-3.428V48.63H25.34V34.287h-3.428v-12.08c0-.528.188-.975.562-1.344a1.882 1.882 0 0 1 1.366-.554h12.322c.5 0 .947.184 1.34.554.39.37.588.817.588 1.344zM25.82 14.61c0-2.775 1.393-4.165 4.18-4.165s4.178 1.388 4.178 4.166c0 2.744-1.393 4.116-4.178 4.116s-4.18-1.372-4.18-4.115z" fill="#000"/></g></svg>
