<svg width="60" height="60" viewBox="0 0 60 60" xmlns="http://www.w3.org/2000/svg"><title>Files Creative Commons</title><g fill="none" fill-rule="evenodd"><circle fill="#000" cx="30" cy="30" r="30"/><circle fill="#FFF" cx="30" cy="30" r="24"/><path d="M29.887 24.627l-4.287 2.23c-.458-.952-1.02-1.62-1.685-2-.667-.38-1.286-.572-1.858-.572-2.856 0-4.286 1.885-4.286 5.657 0 1.714.363 3.084 1.086 4.113.724 1.03 1.79 1.544 3.2 1.544 1.868 0 3.182-.916 3.945-2.744l3.943 2c-.838 1.563-2 2.79-3.486 3.686-1.484.896-3.123 1.343-4.914 1.343-2.857 0-5.163-.875-6.915-2.63-1.752-1.75-2.628-4.19-2.628-7.312 0-3.048.886-5.466 2.657-7.257 1.77-1.79 4.01-2.686 6.715-2.686 3.963-.002 6.8 1.54 8.515 4.627zm18.457 0l-4.23 2.23c-.456-.952-1.02-1.62-1.685-2-.67-.38-1.308-.572-1.915-.572-2.857 0-4.287 1.885-4.287 5.657 0 1.714.363 3.084 1.086 4.113.723 1.03 1.79 1.544 3.2 1.544 1.866 0 3.18-.916 3.942-2.744l4 2c-.875 1.563-2.057 2.79-3.54 3.686a9.233 9.233 0 0 1-4.858 1.343c-2.896 0-5.21-.875-6.94-2.63-1.737-1.75-2.603-4.19-2.603-7.312 0-3.048.885-5.466 2.658-7.257C34.943 20.896 37.18 20 39.886 20c3.962-.002 6.783 1.54 8.458 4.627z" fill="#000"/></g></svg>
