<svg width="60" height="60" viewBox="0 0 60 60" xmlns="http://www.w3.org/2000/svg"><title>Files Public Domain</title><g fill="none" fill-rule="evenodd"><circle fill="#000" cx="30" cy="30" r="30"/><circle fill="#FFF" cx="30" cy="30" r="24"/><path d="M15.91 37.556v-16.35h8.25c4.07 0 6.107 1.844 6.107 5.537 0 .634-.098 1.24-.294 1.82-.196.58-.536 1.16-1.018 1.742-.482.58-1.205 1.055-2.17 1.424-.963.367-2.106.553-3.427.553H20.09v5.274h-4.18zm4.125-13.293v4.96h3.536c.857 0 1.5-.24 1.93-.714.43-.474.644-1.064.644-1.768 0-1.653-.893-2.48-2.68-2.48h-3.428zM31.39 37.556v-16.35h6.432c2.64 0 4.712.667 6.214 2.003 1.498 1.336 2.248 3.393 2.248 6.17 0 2.78-.75 4.838-2.248 6.172-1.502 1.336-3.573 2.004-6.214 2.004h-6.43zm4.13-12.923v9.496h2.408c1.465 0 2.527-.43 3.188-1.294.66-.862.99-2.012.99-3.454 0-1.442-.33-2.593-.99-3.456-.66-.86-1.74-1.29-3.24-1.29l-2.357-.003z" fill="#000"/></g></svg>
