<svg width="60" height="60" viewBox="0 0 60 60" xmlns="http://www.w3.org/2000/svg"><title>Files Copyright</title><g fill="none" fill-rule="evenodd"><circle fill="#000" cx="30" cy="30" r="30"/><circle fill="#FFF" cx="30" cy="30" r="24"/><path d="M38.09 24.432l-4.096 2.135c-.438-.91-.974-1.55-1.61-1.915-.638-.364-1.23-.547-1.775-.547-2.73 0-4.096 1.805-4.096 5.418 0 1.642.346 2.954 1.036 3.94.692.986 1.71 1.48 3.06 1.48 1.782 0 3.038-.877 3.767-2.628l3.766 1.915c-.8 1.498-1.91 2.674-3.33 3.53-1.42.86-2.984 1.288-4.696 1.288-2.73 0-4.932-.84-6.606-2.52-1.673-1.677-2.51-4.012-2.51-7.004 0-2.92.846-5.236 2.54-6.95C25.23 20.857 27.37 20 29.953 20c3.786-.002 6.497 1.476 8.135 4.432z" fill="#000"/></g></svg>
