<svg xmlns="http://www.w3.org/2000/svg" width="32" height="32" viewBox="0 0 32 32"><title>Flag</title><path d="M18.88 5.16c-.83-.202-.56.048-.64-.242-.165-.587-.405-1.65-.74-2.287 0 0-8.264-1.17-10.296-.92-.077.008-.566-.04-.97-.04-.46 0-2.734.37-2.734.83l-.016 26.04 1.976 1.79 1.632-1.79v-9.134s.122-.187.36-.313c1.263-.663 8.235-3.396 10.494-3.083l.005 1.626c1.543 1.988 10.517-.12 10.517-.12l.047-13.31c-2.658.866-7.42 1.49-9.634.952zM7.36 17.84c-.086.204-.264.11-.264.11V3.713c0-.056.072-.44.272.12 2.42 1.986 1.723 9.852-.008 14.007z"/></svg>
