<svg width="512" height="512" viewBox="0 0 512 512" xmlns="http://www.w3.org/2000/svg"><title>icon-folder-locked</title><g fill="#000" fill-rule="evenodd"><path d="M256 226.473c-14.062 0-25.52 11.458-25.52 25.52v41.598h51.04v-41.598c0-14.062-11.458-25.52-25.52-25.52"/><path d="M358.081 421.202H153.919v-127.6h25.52v-41.599c0-42.236 34.35-76.56 76.561-76.56 42.21 0 76.56 34.324 76.56 76.56v41.598h25.521v127.601zM460.162 114.96H256l-36.928-48.361a51.08 51.08 0 0 0-45.656-28.2H26.318c-14.113 0-25.52 11.407-25.52 25.52v357.283c0 28.175 22.866 51.041 51.04 51.041h408.324c28.174 0 51.04-22.866 51.04-51.04V166c0-28.174-22.866-51.04-51.04-51.04z"/></g></svg>