<svg xmlns="http://www.w3.org/2000/svg" width="32" height="32" viewBox="0 0 32 32"><title>Group</title><path d="M26.017 26.504c0 .785-.007 3.057-.007 3.057s-5.32.04-10.01.04H6.027v-3.11c0-2.854 3.625-5.013 8.025-5.442-1.425-1.012-2.423-3.062-2.423-5.453 0-3.388 1.956-6.135 4.376-6.135 2.42 0 4.38 2.747 4.38 6.135 0 2.414-1.006 4.48-2.452 5.48 4.246.484 8.084 2.64 8.084 5.428zM24.894 12.14c.975-.934 1.624-2.57 1.624-4.433 0-2.905-1.568-5.26-3.506-5.26-1.927 0-3.488 2.333-3.505 5.216 2.095 1.56 3.505 4.474 3.505 7.81a11.1 11.1 0 0 1-.726 3.99c.244.006.488.003.726.003h7.014v-2.994c0-2.235-1.764-3.937-5.133-4.33zM5.48 7.708c0 1.878.66 3.522 1.646 4.452-3.298.425-5.153 2.108-5.153 4.312v2.994h7.015c.238 0 .48.003.727-.002a11.135 11.135 0 0 1-.727-4c0-3.337 1.41-6.247 3.505-7.807-.017-2.882-1.58-5.21-3.505-5.21-1.937 0-3.507 2.355-3.507 5.26z"/></svg>
