<svg xmlns="http://www.w3.org/2000/svg" width="32" height="32" viewBox="0 0 32 32"><title>Hour Glass</title><path d="M26.335 5.107c.21-.208.32-.426.32-.65 0-1.436-4.54-2.606-10.226-2.663a20.45 20.45 0 0 0-.43-.002c-5.885 0-10.656 1.193-10.656 2.664 0 .225.112.443.322.65a1.108 1.108 0 0 0-.026.237c0 3.552 6.216 6.684 6.216 10.656 0 3.55-6.216 5.327-6.216 10.655 0 2.654 5.202 3.54 10.36 3.552 5.2.01 10.36-.878 10.36-3.552 0-5.328-6.216-7.104-6.216-10.656 0-3.973 6.216-7.105 6.216-10.657 0-.08-.01-.16-.025-.237zM13.928 16c0-1.27-.527-2.455-1.316-3.595 1.076 1.14 2.025 2.324 2.025 3.595 0 1.37 1.762 5.854.628 7-1.47 1.483-5.918 2.967-7.227 3.473.133-5.186 5.89-6.962 5.89-10.473zm10.035 10.624c-1.526-.245-5.505-1.933-7.18-3.624-1.132-1.145.58-5.633.58-7 0-1.284.96-2.48 2.048-3.63-.8 1.15-1.34 2.346-1.34 3.63 0 3.545 5.87 5.32 5.893 10.624zM20.84 10.606l-.03.033c-3.06.106-3.577 1.39-4.754 1.364-1.28-.03-1.804-1.26-4.81-1.302l-.085-.096C9.85 9.15 8.567 7.733 8.166 6.26h.002c.12.034.243.065.37.096.002 0 .005 0 .007.002l.384.09.01.002c.132.03.265.057.402.085l.01.002.422.08h.006c.582.106 1.208.197 1.87.27l.01.002.487.05.03.003c.158.015.318.03.48.043l.043.003.48.035c.017 0 .034.002.05.003l.486.03.054.003c.164.01.33.017.495.024l.053.002c.17.007.34.012.51.017h.044c.177.006.355.01.535.012h.027a53.4 53.4 0 0 0 1.138 0h.027c.18-.002.358-.006.535-.01l.043-.002c.17-.005.342-.01.51-.017l.054-.002.494-.023c.018 0 .036 0 .054-.002l.485-.03c.017 0 .034-.002.05-.003.163-.01.323-.023.48-.036l.045-.004c.162-.013.32-.028.48-.043l.03-.003.486-.05.01-.002a28.205 28.205 0 0 0 2.297-.352l.014-.002c.136-.027.268-.055.398-.084l.013-.003a21.817 21.817 0 0 0 .758-.186h.003c-.4 1.472-1.686 2.89-2.996 4.345z"/></svg>
