<svg width="512" height="512" viewBox="0 0 512 512" xmlns="http://www.w3.org/2000/svg"><title>Import</title><g fill="#000" fill-rule="evenodd"><path d="M172.252 38.086A81.354 81.354 0 0 1 176 38h210c44.183 0 80 35.817 80 80.01v305.98c0 44.19-35.813 80.01-80 80.01H176c-44.183 0-80-35.817-80-80.01v-71.7l50 50v12.714C146 437.1 163.91 455 186.003 455h189.994C398.09 455 416 437.093 416 415.004V128.996C416 106.9 398.09 89 375.997 89H214.973l-42.72-50.914z"/><path d="M190.144 194.01h.12v54.61l31.845-31.846 38.89 38.89-97.58 97.58-.156-.154-.155.155-97.582-97.58 38.89-38.89 30.846 30.844v-53.61h.192c.17-10.268-1.08-47.658-26.618-71.498-29.83-27.846-68.676-22.48-68.676-22.48V37.107s70.59-4.13 113.644 38.848c38.307 38.237 37.075 104.014 36.338 118.054z"/></g></svg>
