<svg xmlns="http://www.w3.org/2000/svg" width="32" height="32" viewBox="0 0 32 32"><title>Import Content</title><path d="M13.957 24.016v-6.012H1.937v-6.012h12.02V7.984C17.63 10.99 21.973 16 21.973 16s-7.347 8.016-8.016 8.016zM10.004 9.988H8V3.976c0-1.106.898-2.004 2.004-2.004H24.03l6.013 6.012v20.04a2.004 2.004 0 0 1-2.004 2.003H10.003A2.005 2.005 0 0 1 8 28.023V20.04h1.967l.037 6.98s.098 1.003 1.002 1.003h16.03c.906 0 1.003-1.002 1.003-1.002V9.99h-4.01s-2.003.094-2.003-2.004V3.976h-11.02c-.907 0-1.003 1.002-1.003 1.002v5.01z"/></svg>
