<svg xmlns="http://www.w3.org/2000/svg" width="32" height="32" viewBox="0 0 32 32"><title>Info</title><path d="M16 1.817c-7.84 0-14.195 6.356-14.195 14.195S8.16 30.207 16 30.207s14.195-6.356 14.195-14.195c0-7.84-6.356-14.195-14.195-14.195zm.516 4.55a1.952 1.952 0 0 1 1.435-.595c.575 0 1.058.2 1.45.596.393.4.59.88.59 1.442 0 .565-.2 1.047-.597 1.442-.397.4-.877.596-1.442.596a1.95 1.95 0 0 1-1.427-.596 1.96 1.96 0 0 1-.595-1.442c0-.56.197-1.043.59-1.442zm-2.543 19.785c-.6 0-.975-.613-1.204-1.142-.197-.45-.182-.957-.182-1.475 0-.34.078-.776.236-1.303l1.927-6.626c.186-.638.278-1.118.278-1.442 0-.203-.09-.383-.263-.54-.176-.157-.416-.237-.72-.237-.14 0-.306.005-.5.014l.18-.586 4.698-.922h.832l-2.842 10.015c-.156.565-.236.95-.236 1.125 0 .102.04.206.125.293.083.088.17.136.263.136.158 0 .315-.066.47-.205.417-.34.916-.96 1.498-1.856l1.52.694c-1.392 2.43-3.496 4.057-6.08 4.057z"/></svg>
