<svg xmlns="http://www.w3.org/2000/svg" width="32" height="32" viewBox="0 0 32 32"><title>Instructure</title><path d="M4.742 15.965c0 2.34-1.756 4.27-4.024 4.548-.376-1.453-.576-2.978-.576-4.548s.2-3.094.576-4.548a4.585 4.585 0 0 1 4.024 4.548zm2.666-1.438a1.437 1.437 0 1 0 0 2.875 1.437 1.437 0 0 0 0-2.875zm19.85 1.438c0 2.34 1.755 4.27 4.022 4.548.376-1.453.577-2.978.577-4.548s-.2-3.094-.577-4.548a4.584 4.584 0 0 0-4.023 4.548zm-2.667-1.438a1.438 1.438 0 1 0 0 2.876 1.438 1.438 0 0 0 0-2.876zm-8.62 12.736a4.584 4.584 0 0 0-4.547 4.023c1.454.376 2.977.577 4.548.577s3.095-.2 4.55-.577a4.586 4.586 0 0 0-4.55-4.023zm0-4.105a1.44 1.44 0 1 0 .003 2.878 1.44 1.44 0 0 0-.002-2.878zm0-18.42c2.342 0 4.27-1.758 4.55-4.025C19.064.338 17.542.137 15.97.137s-3.094.2-4.55.576a4.586 4.586 0 0 0 4.55 4.024zm0 1.227a1.438 1.438 0 1 0 0 2.876 1.438 1.438 0 0 0 0-2.875zm7.975 17.973a4.586 4.586 0 0 0-.374 6.057 18.194 18.194 0 0 0 6.43-6.43 4.586 4.586 0 0 0-6.056.373zm-2.903-2.9zM8.022 8.015a4.585 4.585 0 0 0 .374-6.056 18.186 18.186 0 0 0-6.43 6.43 4.585 4.585 0 0 0 6.057-.374zm.868.868a1.438 1.438 0 1 0 0 0zM23.935 8a4.584 4.584 0 0 0 6.056.375 18.183 18.183 0 0 0-6.428-6.43A4.584 4.584 0 0 0 23.936 8zm-.868 2.903a1.44 1.44 0 0 0-2.034-2.034 1.44 1.44 0 0 0 2.034 2.033zM8.013 23.92a4.586 4.586 0 0 0-6.056-.373 18.19 18.19 0 0 0 6.43 6.43 4.584 4.584 0 0 0-.375-6.056zm.87-2.9a1.438 1.438 0 1 0 2.034 2.034A1.438 1.438 0 0 0 8.88 21.02z"/></svg>
