<svg xmlns="http://www.w3.org/2000/svg" width="32" height="32" viewBox="0 0 32 32"><title>Instructure</title><path d="M4.7 16c0 2.3-1.8 4.3-4 4.5-.4-1.5-.6-3-.6-4.5s.2-3.1.6-4.5c2.3.2 4 2.2 4 4.5z"/><circle cx="7.4" cy="16" r="1.4"/><path d="M27.3 16c0 2.3 1.8 4.3 4 4.5.4-1.5.6-3 .6-4.5s-.2-3.1-.6-4.5c-2.3.2-4 2.2-4 4.5zM24.6 14.5c-.8 0-1.4.6-1.4 1.4 0 .8.6 1.4 1.4 1.4.8 0 1.4-.6 1.4-1.4 0-.7-.6-1.4-1.4-1.4zM16 27.3c-2.3 0-4.3 1.7-4.5 4 1.5.4 3 .6 4.5.6s3.1-.2 4.5-.6c-.3-2.3-2.2-4-4.5-4zM16 23.2c-.8 0-1.5.6-1.5 1.4s.6 1.5 1.4 1.5h.1c.8 0 1.4-.7 1.4-1.5-.1-.8-.7-1.4-1.4-1.4zM16 4.7c2.3 0 4.3-1.8 4.6-4-1.5-.4-3-.6-4.6-.6s-3.1.2-4.6.6c.3 2.3 2.3 4 4.6 4zM16 6c-.8 0-1.4.6-1.4 1.4s.6 1.4 1.4 1.4c.8 0 1.4-.7 1.4-1.5 0-.7-.7-1.3-1.4-1.3zM23.9 23.9c-1.6 1.6-1.8 4.2-.4 6.1 2.7-1.6 4.9-3.8 6.4-6.4-1.7-1.5-4.3-1.3-6 .3zM8 8c1.7-1.6 1.8-4.2.4-6C5.7 3.5 3.5 5.7 2 8.4 3.8 9.8 6.4 9.6 8 8zM8.9 8.9zM23.9 8c1.6 1.6 4.2 1.8 6.1.4-1.6-2.7-3.8-4.9-6.4-6.4-1.5 1.8-1.3 4.4.3 6zM23.1 10.9c.5-.6.5-1.5-.1-2-.5-.5-1.4-.5-1.9 0-.5.6-.5 1.5.1 2 .5.5 1.3.5 1.9 0zM20.9 21.1c-.6.5-.6 1.4-.1 2 .5.6 1.4.6 2 .1 0 0 .1 0 .1-.1.5-.6.5-1.5-.1-2-.5-.5-1.3-.5-1.9 0zM8.9 8.8c-.6.6-.6 1.5 0 2s1.5.6 2 0c.6-.6.5-1.5 0-2-.6-.5-1.5-.5-2 0zM8 23.9c-1.6-1.6-4.2-1.8-6.1-.4 1.6 2.7 3.8 4.9 6.4 6.4 1.5-1.7 1.3-4.3-.3-6zM8.9 21c-.6.6-.6 1.5 0 2s1.5.6 2 0c.6-.6.6-1.5 0-2-.5-.5-1.5-.5-2 0z"/></svg>