<svg xmlns="http://www.w3.org/2000/svg" width="32" height="32" viewBox="0 0 32 32"><title>Invitation</title><path d="M25 15.493H7V16.5h18v-1.007zm0-3.984H7v1.006h18V11.51zM28 14h2s2 .02 2-2l-4-3.385V5s-.005-2-2-2h-4.637L19 1S17.938.007 15.97.007 13 1 13 1l-2.375 2H6C4.192 3 4 5 4 5v3.58l-4 3.37c0 2 2 2.05 2 2.05h2v1.92L0 14v16c0 1.812 2 2 2 2h28c1.888 0 2-2 2-2V14l-4 1.915V14zm2 16L19 20s-1.062-1-3-1-3 1-3 1L2 30s2.836-4.782 4-6c1.164-1.217 6.5-4 6.5-4L5 16.4V5s.136-1 .974-1h20.09C26.816 4 27 5 27 5v11.394L19.47 20s5.092 2.53 6.53 4 4 6 4 6zM19 7.48H7v1.008h12V7.48z"/></svg>
