<svg xmlns="http://www.w3.org/2000/svg" width="512" height="512" viewBox="0 0 512 512"><path fill="#333" d="M466 172H277v-21c0-11.6 9.4-21 21-21h21c34.7 0 63-28.3 63-63V46h-42v21c0 11.6-9.4 21-21 21h-21c-34.7 0-63 28.3-63 63v21H46c-23.2 0-42 18.8-42 42v210c0 23.2 18.8 42 42 42h420c23.2 0 42-18.8 42-42V214c0-23.2-18.8-42-42-42zm-84 63h42v42h-42v-42zm-63 0h42v42h-42v-42zm63 63v42h-42v-42h42zm-126-63h42v42h-42v-42zm63 63v42h-42v-42h42zm-63 0v42h-42v-42h42zm-63-63h42v42h-42v-42zm-63 0h42v42h-42v-42zm63 63v42h-42v-42h42zM67 235h42v42H67v-42zm63 63v42H88v-42h42zm-21 105H67v-42h42v42zm252 0H130v-42h231v42zm63 0h-42v-42h42v42zm21-63h-42v-42h42v42z"/></svg>