<svg id="Layer_1" data-name="Layer 1" xmlns="http://www.w3.org/2000/svg" viewBox="0 0 512 512"><defs><style>.cls-1{fill:#231f20;}</style></defs><title>keyboard-shortcuts</title><path class="cls-1" d="M460.8 0H51.2A51.25 51.25 0 0 0 0 51.2v409.6A51.25 51.25 0 0 0 51.2 512h409.6a51.25 51.25 0 0 0 51.2-51.2V51.2A51.25 51.25 0 0 0 460.8 0zM179.2 358.4H128v-51.2H76.8v51.2H25.6V179.12a25.61 25.61 0 0 1 25.6-25.6h102.4a25.61 25.61 0 0 1 25.6 25.6V358.4zm153.6 0h-128V153.6H256v153.6h76.8v51.2zm153.6-153.6h-51.2v153.6H384V204.8h-51.2v-51.2h153.6v51.2z"/><path class="cls-1" d="M76.8 204.72H128V256H76.8z"/></svg>