<svg xmlns="http://www.w3.org/2000/svg" width="32" height="32" viewBox="0 0 32 32"><title>Like</title><path d="M31.97 17.998c0 .627-2 1.302-2 2 0 .607 2 1.165 2 2v4c0 .89-2 1.458-2 2v2c0 2.14-4 2-4 2h-10c-2.25 0-6-2-6-2v-16H10c2.28-.194 7.15-5.628 7.97-8 .818-2.372 2-4 2-4l2.183-.023C25.97 1.998 25.157 6.03 25.157 6c0 2.953-3.188 5.998-3.188 5.998 2.63 0 5.327.012 5.327.012 2.697 0 4.672 1.988 4.672 1.988s.006.83.006 1.938c0 .572-.007 1.314-.007 2.062zm-24 13.804c-1.262.202-3.188.196-6 .196-1.424 0-1.945-1.923-1.945-1.923L0 14.998s.362-1 1-1h6.97v17.804z"/></svg>
