<svg xmlns="http://www.w3.org/2000/svg" width="32" height="32" viewBox="0 0 32 32"><title>Link</title><path d="M10 22c.55.55 1.477.523 2.06-.06l9.88-9.88c.583-.583.61-1.51.06-2.06s-1.476-.524-2.06.06l-9.88 9.88c-.582.582-.61 1.51-.06 2.06zm4.903-.903c.143.283.218.6.218.928 0 .55-.21 1.064-.593 1.447L9.42 28.578c-.382.383-.896.593-1.446.593s-1.064-.21-1.447-.592L3.42 25.472c-.382-.383-.593-.897-.593-1.447s.21-1.064.594-1.447l5.107-5.106a2.03 2.03 0 0 1 1.447-.594c.33 0 .645.076.928.218l2.042-2.042a4.87 4.87 0 0 0-2.97-1.005c-1.25 0-2.5.473-3.447 1.42L1.42 20.578a4.89 4.89 0 0 0 0 6.894l3.107 3.107C5.475 31.525 6.724 32 7.974 32s2.5-.475 3.447-1.423l5.107-5.106c1.744-1.743 1.882-4.508.417-6.416l-2.042 2.042zm15.675-16.57l-3.106-3.105C26.524.474 25.275 0 24.025 0s-2.5.474-3.447 1.422l-5.106 5.106c-1.744 1.744-1.882 4.51-.417 6.417l2.042-2.042a2.064 2.064 0 0 1-.218-.928c0-.55.21-1.064.592-1.447l5.106-5.106c.383-.383.897-.594 1.447-.594s1.064.21 1.447.594l3.106 3.106c.383.383.593.897.593 1.447s-.21 1.064-.592 1.447l-5.106 5.106a2.03 2.03 0 0 1-1.447.594c-.33 0-.645-.076-.928-.218l-2.042 2.042a4.87 4.87 0 0 0 2.97 1.005c1.25 0 2.5-.473 3.447-1.42l5.106-5.107a4.89 4.89 0 0 0 0-6.894z"/></svg>
