<svg xmlns="http://www.w3.org/2000/svg" width="32" height="32" viewBox="0 0 32 32"><title>Linkedin</title><path d="M26.666 0H5.334C2.4 0 0 2.4 0 5.334v21.332C0 29.602 2.4 32 5.334 32h21.332C29.6 32 32 29.602 32 26.666V5.334C32 2.4 29.6 0 26.666 0zM9.836 26.79H5V12.23h4.84v14.56zM7.42 10.242h-.032c-1.624 0-2.674-1.12-2.674-2.517 0-1.428 1.082-2.515 2.738-2.515s2.674 1.087 2.706 2.515c0 1.398-1.05 2.517-2.738 2.517zm19.87 16.548h-4.84V19c0-1.957-.7-3.292-2.45-3.292-1.337 0-2.134.9-2.483 1.77-.128.31-.16.745-.16 1.18v8.13h-4.84s.065-13.193 0-14.56h4.84v2.064c.644-.992 1.793-2.405 4.363-2.405 3.184 0 5.572 2.082 5.572 6.553v8.35z"/></svg>
