<svg xmlns="http://www.w3.org/2000/svg" viewBox="0 0 512 512"><title>Masquerade</title><path d="M352 32c-36 0-69.3 10.7-96 28.8C229.3 42.7 196 32 160 32H96V3c0-1.7-1.3-3-3-3H35c-1.7 0-3 1.3-3 3v29H0c0 83 11.9 146.2 32 192v285c0 1.7 1.3 3 3 3h58c1.7 0 3-1.3 3-3V302.6c19.6 11.8 41.2 17.4 64 17.4 36 0 69.3-10.7 96-28.8 26.7 18.1 60 28.8 96 28.8 88.4 0 160-84.3 160-288H352zM163.9 199.8c-33.9 0-67.9-35.9-67.9-35.9s34-35.9 67.9-35.9 67.9 35.9 67.9 35.9-34 35.9-67.9 35.9zm192 0c-33.9 0-67.9-35.9-67.9-35.9s34-35.9 67.9-35.9c33.9 0 67.9 35.9 67.9 35.9s-34 35.9-67.9 35.9z"/></svg>
