<svg xmlns="http://www.w3.org/2000/svg" width="512" height="512" viewBox="0 0 512 512"><path d="M424.6 228.7l78.1-78.2-78.1-78.2-29.8 29.8 27.3 27.3h-54.5c-82.3 0-104.2 31.4-123.5 59.2-17.3 24.9-32.3 46.4-108.4 46.4H9.2v42.2h126.5c76.1 0 91.1 21.5 108.4 46.4 19.3 27.7 41.2 59.2 123.5 59.2h54.5l-27.3 27.3 29.8 29.8 78.1-78.2-78.1-78.2-29.8 29.8 27.3 27.3h-54.5c-60.3 0-72.3-17.2-88.9-41.1-10.1-14.5-21.4-30.8-42.8-43.3 21.4-12.6 32.7-28.8 42.8-43.3 16.6-23.8 28.6-41.1 88.9-41.1h54.5l-27.3 27.3 29.8 29.6z"/></svg>