<svg xmlns="http://www.w3.org/2000/svg" width="32" height="32" viewBox="0 0 32 32"><title>Materials Required</title><path d="M16.414 21.067c-.26-.207-.68-.395-1.32-.565v3.056c.213-.02.38-.066.588-.136s.388-.167.553-.294c.164-.127.297-.284.404-.47s.16-.405.16-.66c0-.414-.126-.724-.386-.93zm-3.264-5.365c-.138.11-.247.25-.326.414s-.12.358-.12.58c0 .35.11.622.334.813s.563.344 1.096.46v-2.594c-.213 0-.354.027-.524.08s-.322.135-.46.247zm15.445-8.134v.026c.005-.176-.707-.287-1.76-.287h-4.53c.086.213.167.427.242.64h4.287c.054 0 .105.013.155.014L25.71 8.964c-.213.097-1.128.263-2.295.263h-1.993C20.55 5.386 17.88 2.54 14.73 2.54S8.908 5.385 8.036 9.225H4.393c-.053 0-.105.004-.155.004l1.277-.998c.154-.07.674-.174 1.39-.227.074-.246.157-.487.246-.724-.968.05-1.82.2-2.047.377L2.69 9.55c-.048.036-.063.07-.053.105-.002-.005-.005-.01-.005-.016.13 3.25.258 6.5.387 9.753l.386 9.754c0 .01.004.022.01.033.002.004.006.007.01.01.004.008.01.015.017.02l.018.014c.01.006.017.012.027.017l.026.014.033.016c.01.004.022.01.033.013l.04.015.04.012a.647.647 0 0 0 .095.024l.054.012.054.01.06.012.026.005.032.005.085.012c.01 0 .022.003.033.005l.03.003.057.006.042.005c.012 0 .027 0 .04.003l.05.005.028.002c.027.002.055.005.083.006l.027.002h.002l.108.007c.01 0 .02 0 .03.002.013 0 .026 0 .04.002s.025.025.038.025c.035.002.07.028.106.028h.002c.007 0 .015-.024.023-.024.027 0 .054-.01.08-.01.024 0 .048-.006.07-.006.01 0 .017-.003.024-.002.006 0 .01-.002.015 0 .035 0 .07.02.106.02.022 0 .044.02.066.02H24.23c.034 0 .068-.02.1-.022.03 0 .057.01.085.01.002 0 .004.012.006.012h.005c.03 0 .06-.023.09-.024.027 0 .055-.012.083-.013.012 0 .025-.007.038-.007l.018-.003.023-.002c.026 0 .053-.002.08-.004l.076-.005c.01 0 .02 0 .028-.002h.017c.01-.002.022-.002.033-.003.03-.002.06-.02.088-.022s.06-.023.088-.023c.003 0 .006.016.01.016.044-.002.088.003.132 0 .008 0 .015.002.023 0 .102-.007.2-.015.297-.025h.018l.095-.012.058-.007h.014l.14-.02c.005 0 .01 0 .015-.002l.042-.006c.028-.004.058-.01.086-.013l.032-.005.067-.01.05-.01.044-.01.058-.01.034-.008.062-.014.04-.01c.004 0 .01 0 .014-.002.032-.007.063-.016.094-.024l.012-.003.02-.007c.015-.005.03-.01.046-.013l.054-.017.01-.003h.003a1.862 1.862 0 0 0 .09-.035c.003 0 .006-.002.01-.004l.008-.002.044-.02c.007-.004.013-.008.02-.01l.01-.006.008-.004.033-.02.02-.015 2.415-1.892c.002 0 .005-.003.007-.005a.447.447 0 0 0 .022-.02l.013-.018s0-.002.002-.002 0 0 0-.002c.004-.007.008-.015.01-.022s0-.012 0-.02l-.773-19.507zM14.73 4.514c2.332 0 4.33 1.94 5.142 4.713H9.588c.812-2.773 2.81-4.713 5.142-4.713zm4.15 18.463c-.117.356-.326.703-.63 1.043s-.7.642-1.208.907c-.51.265-1.203.424-1.95.478v1.316h-.96v-1.315c-1.172-.085-2.114-.432-2.783-1.08s-1.055-1.657-1.16-2.83h2.243c-.01.532.147 1.063.476 1.413s.69.554 1.223.65V20.23c0-.02-.123-.044-.213-.07s-.188-.05-.294-.073c-.393-.106-.78-.23-1.162-.374s-.724-.334-1.026-.573c-.302-.24-.544-.536-.724-.89s-.27-.8-.27-1.33c0-.54.102-1.02.31-1.433s.48-.76.82-1.043c.338-.28.73-.5 1.175-.652s.955-.247 1.382-.278V12.32h.96v1.194c.427.053.917.157 1.336.31s.783.366 1.102.637c.318.272.576.61.778 1.013s.316.9.348 1.434h-2.26c-.01-.427-.135-.787-.39-1.084s-.595-.447-.915-.447v2.817c.108.032.25.064.382.095s.27.07.418.11c.785.213 1.388.476 1.813.79s.736.638.938.978c.203.34.32.68.36 1.02s.055.64.055.906c0 .233-.06.528-.176.883zm9.702-15.365s0 .002-.002.002l.005-.013c0 .005 0 .008-.003.01z"/></svg>
