<svg xmlns="http://www.w3.org/2000/svg" width="32" height="32" viewBox="0 0 32 32"><title>MS PowerPoint</title><path d="M19 16a5 5 0 1 0 0 10 5 5 0 0 0 0-10zm0 5v-4c2.205 0 4 1.794 4 4h-4zM6 16h6v2H6zm0 4h6v2H6zm0 4h6v2H6zM28.232 6.232l-4.465-4.464C22.795.796 20.874 0 19.5 0h-15A2.507 2.507 0 0 0 2 2.5v27C2 30.875 3.123 32 4.5 32h23c1.374 0 2.5-1.125 2.5-2.5v-19c0-1.375-.797-3.296-1.77-4.268zm-1.414 1.414c.098.098.195.218.29.354H22V2.892c.136.095.256.192.354.29l4.465 4.464zM28 29.5c0 .27-.23.5-.5.5h-23c-.27 0-.5-.23-.5-.5v-27c0-.27.23-.5.5-.5h15c.15 0 .32.02.5.053V10h7.947c.034.18.053.35.053.5v19z"/></svg>
