<?xml version="1.0" encoding="utf-8"?>

<!DOCTYPE svg PUBLIC "-//W3C//DTD SVG 1.1//EN" "http://www.w3.org/Graphics/SVG/1.1/DTD/svg11.dtd">
<svg version="1.1" xmlns="http://www.w3.org/2000/svg" xmlns:xlink="http://www.w3.org/1999/xlink" width="32" height="32" viewBox="0 0 32 32">
<g>
</g>
	<path d="M28 32c0 0-19.969 0-24 0s-4-4-4-4v-4h4v2c0 1.104 0.896 2 2 2h20c1.104 0 2-0.896 2-2v-2h4v4c0 3.972-4 4-4 4zM20 16h6l-10 10-10-10h6c0 0 0.99-11.916 11.823-12.083 0 0 1.427-0.333 4.177 2.083 0 0-8-4-8 10z" fill="#000000"></path>
</svg>
