<svg xmlns="http://www.w3.org/2000/svg" width="32" height="32" viewBox="0 0 32 32"><title>PDF</title><path d="M26.313 18.42c-.427-.42-1.372-.642-2.812-.66-.973-.012-2.146.074-3.38.247-.55-.32-1.12-.665-1.567-1.083-1.202-1.122-2.205-2.68-2.83-4.394.04-.16.074-.3.107-.444 0 0 .677-3.846.498-5.146a1.526 1.526 0 0 0-.088-.37l-.06-.15c-.183-.425-.544-.875-1.11-.85l-.34-.01c-.632 0-1.147.322-1.282.804-.41 1.514.013 3.778.78 6.71l-.196.48c-.55 1.34-1.238 2.688-1.846 3.88l-.08.154a65.82 65.82 0 0 1-1.744 3.213l-.543.288c-.04.02-.97.513-1.19.645-1.85 1.106-3.078 2.36-3.28 3.357-.066.318-.018.725.312.913l.525.264c.228.114.468.172.714.172 1.32 0 2.85-1.644 4.96-5.325a49.318 49.318 0 0 1 7.638-1.815c1.852 1.043 4.13 1.767 5.567 1.767.255 0 .475-.024.654-.072a1.11 1.11 0 0 0 .65-.444c.278-.42.334-.997.26-1.59-.024-.175-.164-.392-.316-.54zm-19.7 7.02c.24-.66 1.193-1.96 2.6-3.112.09-.072.307-.276.507-.466-1.472 2.348-2.458 3.283-3.106 3.577zm8.338-19.2c.425 0 .666 1.07.686 2.07s-.214 1.705-.505 2.225c-.24-.77-.356-1.984-.356-2.778 0 0-.018-1.517.177-1.517zm-2.486 13.682c.295-.53.603-1.086.917-1.677a31.984 31.984 0 0 0 1.61-3.51c.716 1.302 1.608 2.41 2.656 3.296.13.112.27.223.415.334-2.13.422-3.973.935-5.595 1.558zm13.44-.12c-.13.08-.503.128-.742.128-.772 0-1.727-.353-3.066-.927.515-.038.986-.057 1.41-.057.773 0 1.003-.003 1.76.19s.767.585.637.667zm2.328-13.57l-4.465-4.464C22.795.796 20.874 0 19.5 0h-15A2.507 2.507 0 0 0 2 2.5v27C2 30.875 3.123 32 4.5 32h23c1.374 0 2.5-1.125 2.5-2.5v-19c0-1.375-.797-3.296-1.77-4.268zm-1.414 1.414c.098.098.195.218.29.354H22V2.892c.136.095.256.192.354.29l4.465 4.464zM28 29.5c0 .27-.23.5-.5.5h-23c-.27 0-.5-.23-.5-.5v-27c0-.27.23-.5.5-.5h15c.15 0 .32.02.5.053V10h7.947c.034.18.053.35.053.5v19z"/></svg>
