<svg xmlns="http://www.w3.org/2000/svg" width="32" height="32" viewBox="0 0 32 32"><title>Peer Review</title><path d="M26.796 25.013H14.224l-7.13 5.375v-5.375h-1.85c-1.94 0-3.59-1.666-3.59-3.605V5.245c0-1.938 1.65-3.592 3.59-3.592h21.63c1.94 0 3.472 1.653 3.472 3.592v16.163c0 1.938-1.61 3.605-3.55 3.605zM15.404 12.845c-.745-.26-1.377-.353-2.124-.417v-.898c1.387-.676 1.82-1.72 1.82-3.592 0-2.5-1.488-4.606-3.575-4.606s-3.58 2.105-3.58 4.606c0 1.856.428 2.906 1.814 3.592v.898c-3.414.314-4.473.11-4.503 2.694-.01.838-.006 1.8-.006 1.8l.893 1.798h6.286c0-4.587 3.86-3.744 3.86-3.744-.562-.25-.796-1.095-.886-2.13zm6.943 3.176v-.897c1.28-.676 1.776-1.72 1.776-3.592 0-2.5-1.515-4.49-3.602-4.49s-3.593 1.99-3.593 4.49c0 1.858.514 2.907 1.794 3.593v.898c-3.306.315-4.487 0-4.49 2.695l-.002.887.897 1.785H25.9l.92-1.785c-.03-3.592-2.55-3.4-4.47-3.58z"/></svg>
