<svg xmlns="http://www.w3.org/2000/svg" width="32" height="32" viewBox="0 0 32 32"><title>Peer Graded</title><path d="M16.044 31.422a14.242 14.242 0 0 1-13.58-9.91l-.17-.552h4.26l.105.27a10.214 10.214 0 0 0 9.384 6.147c4.774 0 8.79-3.11 9.928-7.697h-3.115l5.053-6.524 4.017 6.524h-1.84c-.572 3.307-2.238 6.155-4.714 8.288a14.305 14.305 0 0 1-9.33 3.454zm-16-20.17h2.197c.773-2.986 2.5-5.587 4.89-7.512A14.27 14.27 0 0 1 16.044.58C21.83.58 27 3.997 29.218 9.334l.233.53h-4.426l-.116-.177c-1.82-3.203-5.134-5.093-8.864-5.093-4.322 0-8.108 2.604-9.59 6.657h2.878l-4.854 6.495-4.433-6.494zM13.32 20.63l-2.285-4.402-4.713 2.84c2 .71 4.855 2.982 7.283 5.962 1.715-3.123 7-9.51 9.568-10.08-.998-2.27-.67-4.64-.526-6.772-5.854 2.98-9.328 12.45-9.328 12.45z"/></svg>
