<?xml version="1.0" encoding="utf-8"?>

<!DOCTYPE svg PUBLIC "-//W3C//DTD SVG 1.1//EN" "http://www.w3.org/Graphics/SVG/1.1/DTD/svg11.dtd">
<svg version="1.1" xmlns="http://www.w3.org/2000/svg" xmlns:xlink="http://www.w3.org/1999/xlink" width="32" height="32" viewBox="0 0 32 32">
<g>
</g>
	<path d="M29.944 10.074l-8.018-8.018c-0.391-0.391-2.005 0-2.005 0s-0.392 1.613 0 2.005l1.127 1.127c-0.039 0.039-0.078 0.079-0.12 0.12l-6.896 6.896-0.125-0.125c-3.379-2.94-8.018 0-8.018 0l6.007 6.014-10.030 10.023v2.018h2.019l10.023-10.030 6.013 6.010c0 0 3.316-4.578 0-8.020l-0.219-0.22 6.895-6.895c0.042-0.042 0.082-0.082 0.121-0.121l1.221 1.221c0.632 0.391 2.004-0 2.004-0s0.391-1.613 0-2.004z" fill="#000000"></path>
</svg>
