<svg xmlns="http://www.w3.org/2000/svg" width="32" height="32" viewBox="0 0 32 32"><title>Pinterest</title><path d="M26.667 0H5.333A5.334 5.334 0 0 0 0 5.334v21.332A5.333 5.333 0 0 0 5.333 32h21.334A5.334 5.334 0 0 0 32 26.666V5.334A5.333 5.333 0 0 0 26.667 0zM17.55 21.38c-1.453-.114-2.063-.834-3.202-1.526-.627 3.287-1.393 6.438-3.66 8.084-.7-4.968 1.027-8.7 1.83-12.66-1.37-2.303.164-6.94 3.05-5.796 3.55 1.405-3.075 8.563 1.373 9.457 4.645.932 6.54-8.06 3.662-10.983-4.16-4.222-12.112-.096-11.135 5.95.238 1.477 1.765 1.925.61 3.965-2.663-.59-3.458-2.69-3.356-5.49.166-4.585 4.12-7.794 8.085-8.237 5.015-.56 9.722 1.84 10.372 6.56.732 5.324-2.264 11.09-7.627 10.676z"/></svg>
