<svg xmlns="http://www.w3.org/2000/svg" width="32" height="32" viewBox="0 0 32 32"><title>Prerequisite</title><path d="M28.416 1.63l-24.99-.01c-.992 0-1.772.8-1.772 1.798v9.886c0 .997.772 1.79 1.765 1.79h25.163c.993 0 1.765-.793 1.765-1.79V3.418c0-.997-.938-1.788-1.93-1.788zm-9.803 11.65h-6.42c0-.533.072-.944.22-1.322s.345-.71.597-1.007c.25-.297.547-.57.887-.82s.698-.506 1.076-.766c.193-.134.398-.27.616-.408s.416-.29.597-.46c.18-.167.33-.355.453-.565s.183-.447.183-.716c0-.428-.124-.76-.37-1s-.565-.36-.95-.36c-.26 0-.482.062-.66.184s-.327.28-.435.478c-.11.197-.187.395-.233.633s-.07.476-.07.69h-1.71c-.017-.428.042-.95.176-1.384s.336-.8.605-1.122c.27-.323.606-.57 1.013-.75s.874-.268 1.402-.268c.403 0 .786.064 1.15.19s.687.307.964.542c.276.235.497.525.66.87s.245.728.245 1.156c0 .445-.073.826-.215 1.145s-.332.6-.567.85-.5.47-.8.672c-.297.2-.597.4-.9.598s-.595.418-.88.644c-.285.226-.537.48-.755.8h4.12v1.494zm-1.706 2.773h3.627v1.707h-3.627v-1.707zM6.133 17.76H9.76v-1.707H6.133v1.707zm5.334 0h3.627v-1.707h-3.627v1.707zm14.4-1.707H22.24v1.707h3.627v-1.707zm4.48 5.334h-1.813v3.627h1.813v-3.627zm-2.667-3.59s.853.02.853.9v.876h1.813v-1.776s.033-1.744-1.765-1.744h-.9v1.744zm-17.067 12.55v-1.813H6.986v1.813h3.627zm15.254-1.814H23.2v1.813h2.667v-1.813zm-24.214-3.52h1.813v-3.627H1.653v3.627zm3.52 3.52h-.857c-.873 0-.85-.85-.85-.85v-.963H1.653v1.853s-.014 1.773 1.765 1.773h1.755v-1.813zm23.36-1.813v.963s-.107.9-.853.9v1.764h.752c1.948 0 1.915-1.773 1.915-1.773V26.72h-1.813zm-7.146 1.813H17.76v1.813h3.627v-1.813zm-5.44 0h-3.52v1.813h3.52v-1.813zm-12.48-8.96v-.877c0-.822.853-.9.853-.9v-1.743h-.902c-.993 0-1.765.694-1.765 1.69v1.83h1.813zm13.44 8.107v-8.853H15.44c-.052.427-.157.642-.316.868-.16.226-.355.42-.585.56-.232.137-.495.24-.784.294-.29.054-.582.083-.902.075v1.295h2.24v5.76h1.813z"/></svg>
