<?xml version="1.0" encoding="utf-8"?>

<!DOCTYPE svg PUBLIC "-//W3C//DTD SVG 1.1//EN" "http://www.w3.org/Graphics/SVG/1.1/DTD/svg11.dtd">
<svg version="1.1" xmlns="http://www.w3.org/2000/svg" xmlns:xlink="http://www.w3.org/1999/xlink" width="32" height="32" viewBox="0 0 32 32">
<g>
</g>
	<path d="M30.289 12.908c0.353 0.392 0.431 0.858 0.431 1.288v5.292c0 0.432-0.079 0.874-0.431 1.246-0.353 0.373-0.628 0.599-1.019 0.599h-2.999l1.352 7.467h-22.931l1.352-7.467h-2.999c-0.392 0-0.877-0.226-1.23-0.599-0.353-0.372-0.642-0.814-0.642-1.246v-5.292c0-0.431 0.29-0.896 0.642-1.288s0.838-0.642 1.23-0.642h26.223c0.391 0 0.666 0.25 1.019 0.642zM2.723 10.28c-0.020-0.313 0.088-0.492 0.323-0.571 3.724-1.293 5.742-1.923 6.056-1.923h1.351v-4.48h11.307v4.48h1.453c0.313 0 2.332 0.618 6.056 1.911 0.235 0.079 0.343 0.283 0.323 0.597s-0.226 0.479-0.617 0.479l-25.635-0c-0.392 0-0.598-0.179-0.617-0.493zM24.566 25.813l-2.058-9.813h-12.7l-2.058 9.813h16.816z" fill="#000000"></path>
</svg>
