<svg xmlns="http://www.w3.org/2000/svg" width="32" height="32" viewBox="0 0 32 32"><title>Printer</title><path d="M30.29 12.908c.352.392.43.858.43 1.288v5.292c0 .432-.08.874-.43 1.246-.354.373-.63.6-1.02.6h-3l1.353 7.466H4.693l1.35-7.467H3.046c-.392 0-.877-.226-1.23-.6-.353-.37-.642-.813-.642-1.245v-5.292c0-.43.29-.896.642-1.288s.838-.642 1.23-.642h26.223c.39 0 .666.25 1.02.642zM2.722 10.28c-.02-.313.088-.492.323-.57C6.77 8.415 8.788 7.785 9.102 7.785h1.35v-4.48H21.76v4.48h1.453c.313 0 2.332.618 6.056 1.91.234.08.342.284.322.598s-.226.48-.617.48H3.34c-.392 0-.598-.18-.617-.494zm21.843 15.533L22.508 16h-12.7L7.75 25.813h16.816z"/></svg>
