<svg xmlns="http://www.w3.org/2000/svg" width="32" height="32" viewBox="0 0 32 32"><title>Publish</title><path d="M29.867 19.418a7.795 7.795 0 0 1-7.8 7.795H7.348c-2.933-.423-5.197-3.01-5.197-6.063 0-2.44 1.448-4.53 3.526-5.49-.024-.197-.06-.392-.06-.594A5.196 5.196 0 0 1 10.81 9.87c.663 0 1.29.134 1.874.36a6.93 6.93 0 0 1 6.787-5.536 6.928 6.928 0 0 1 6.932 6.93c0 .427-.05.84-.125 1.248 2.155 1.387 3.59 3.794 3.59 6.547zm-7.452-8.25a1.75 1.75 0 0 0-2.424.346l-5.265 6.924-2.886-2.832a1.754 1.754 0 0 0-2.45 0 1.677 1.677 0 0 0 0 2.404l5.717 5.61 7.662-10.073a1.677 1.677 0 0 0-.355-2.378z"/></svg>
