<svg xmlns="http://www.w3.org/2000/svg" width="32" height="32" viewBox="0 0 32 32"><title>Question</title><path d="M16 1.65C8.076 1.65 1.65 8.077 1.65 16S8.077 30.35 16 30.35c7.924 0 14.35-6.426 14.35-14.35S23.923 1.65 16 1.65zm0 23.318a1.793 1.793 0 1 1 0-3.586 1.793 1.793 0 0 1 0 3.586zm4.7-10c-.27.39-.79.886-1.554 1.492l-.757.594c-.412.326-.46.406-.596.84-.084.272.007 1.252 0 1.892h-3.587c.043-1.28.264-2.28.447-2.745.185-.465.884-1.05 1.65-1.655l.78-.642c.255-.194.46-.42.615-.65.283-.396.425-.838.425-1.315 0-.547-.158-1.05-.475-1.5-.315-.45-.893-.678-1.73-.678-.823 0-1.407.282-1.752.837s-.404 1.307-.404 1.734h-3.198c.086-1.92.793-3.514 2.125-4.37.84-.548 1.873-.825 3.097-.825 1.607 0 2.945.387 4.008 1.166s1.596 1.93 1.596 3.46c0 .937-.23 1.726-.69 2.367z"/></svg>
