<svg xmlns="http://www.w3.org/2000/svg" width="32" height="32" viewBox="0 0 32 32"><title>Quiz</title><path d="M15.913 10.805c-1.23 0-2.213.425-2.946 1.278s-1.1 2.128-1.1 3.826c0 1.986.525 3.408 1.575 4.268.68.556 1.494.835 2.442.835.356 0 .7-.044 1.03-.13.18-.046.358-.07.64-.188l-1.838-1.952 1.876-1.682 1.79 1.945c.235-.47.232-.884.325-1.238.15-.53.223-1.152.223-1.858 0-1.628-.34-2.884-1.025-3.773-.68-.89-1.68-1.332-2.99-1.332zM16 1.772C8.143 1.772 1.772 8.142 1.772 16S8.142 30.228 16 30.228c7.857 0 14.228-6.37 14.228-14.228S23.858 1.772 16 1.772zm5.316 22.62L19.53 22.74c-.546.323-.85.384-1.248.516-.667.215-1.464.325-2.393.325-1.94 0-3.543-.563-4.81-1.69-1.534-1.357-2.3-3.35-2.3-5.98 0-2.65.786-4.652 2.36-6.01 1.284-1.108 2.882-1.664 4.793-1.664 1.924 0 3.537.587 4.843 1.76 1.507 1.36 2.26 3.258 2.26 5.696 0 1.292-.163 2.374-.486 3.246-.26.832-.535 1.41-1.045 1.96l1.71 1.57-1.9 1.923z"/></svg>
