<svg xmlns="http://www.w3.org/2000/svg" width="32" height="32" viewBox="0 0 32 32"><title>Quiz Stats Time</title><path d="M15.966 1.62C8.044 1.62 1.62 8.046 1.62 15.97s6.424 14.35 14.35 14.35c7.924 0 14.35-6.426 14.35-14.35S23.89 1.62 15.965 1.62zm0 25.624c-6.228 0-11.275-5.05-11.275-11.275S9.74 4.693 15.967 4.693 27.24 9.744 27.24 15.97s-5.046 11.274-11.274 11.274z"/><path d="M20.894 14.456h-3.46V9.728c0-.78-.63-1.412-1.412-1.412s-1.412.63-1.412 1.412v6.144c0 .78.63 1.413 1.412 1.413h4.872a1.413 1.413 0 0 0 0-2.828z"/></svg>
