<svg xmlns="http://www.w3.org/2000/svg" width="32" height="32" viewBox="0 0 32 32"><title>Reset</title><path d="M15.68 3.767c6.83 0 13.104 6.12 13.104 13.2S22.51 30.21 15.68 30.21c-4.87 0-9.082-2.32-11.1-6.558-.814-1.71 2.54-2.444 3.304-.97 1.57 2.915 4.492 3.412 7.795 3.412 4.972 0 9.238-4.23 9.238-9.127 0-5.07-4.348-9.258-9.24-9.258-4.027 0-4.59 2.22-4.694 2.11 1.045 1.106 3.938 4.67 3.938 4.67 1.427 1.48-.052 1.787-.052 1.787l-10.835-.105c-1.043.173-.793-1.02-.793-1.02l.01-12.816c.02-1.53 1.418.642 1.418.642l3.465 3.704s2.644-3 7.544-2.915z"/></svg>
