<svg xmlns="http://www.w3.org/2000/svg" width="32" height="32" viewBox="0 0 32 32"><title>Rubric</title><path d="M24.955 26h-10a1 1 0 0 0 0 2h10a1 1 0 0 0 0-2zM10 6H8c-1.15 0-2 .85-2 2v2c0 1.15.85 2 2 2h2c1.15 0 2-.85 2-2V8c0-1.15-.85-2-2-2zm0 8H8c-1.15 0-2 .85-2 2v2c0 1.148.85 2 2 2h2c1.15 0 2-.852 2-2v-2c0-1.15-.85-2-2-2zm14.955 4h-10a1 1 0 0 0 0 2h10a1 1 0 0 0 0-2zM10 22H8c-1.15 0-2 .852-2 2v2c0 1.148.85 2 2 2h2c1.15 0 2-.852 2-2v-2c0-1.148-.85-2-2-2zM28 0H4C2 0 0 2 0 4v24c0 2 1.79 4 4 4h24a4 4 0 0 0 4-4V4c0-2-2-4-4-4zm2 26c0 1.957-2.043 4-4 4H6c-1.958 0-4-2.043-4-4V6c0-2 2-4 4-4h20c2 0 4 2 4 4v20zm-5.045-16h-10a1 1 0 0 0 0 2h10a1 1 0 0 0 0-2zm0-4h-10a1 1 0 0 0 0 2h10a1 1 0 0 0 0-2zm0 8h-10a1 1 0 0 0 0 2h10a1 1 0 0 0 0-2zm0 8h-10a1 1 0 0 0 0 2h10a1 1 0 0 0 0-2z"/></svg>
