<svg xmlns="http://www.w3.org/2000/svg" width="32" height="32" viewBox="0 0 32 32"><title>Rubric</title><path d="M28 0H4C2 0 0 2 0 4v24c0 2 1.79 4 4 4h24a4 4 0 0 0 4-4V4c0-2-2-4-4-4zM12 25c0 1.148-.852 2-2 2H8c-1.148 0-2-.852-2-2v-2c0-1.148.852-2 2-2h2c1.148 0 2 .852 2 2v2zm0-8c0 1.148-.852 2-2 2H8c-1.148 0-2-.852-2-2v-2c0-1.15.852-2 2-2h2c1.148 0 2 .85 2 2v2zm0-8c0 1.15-.852 2-2 2H8c-1.148 0-2-.85-2-2V7c0-1.15.852-2 2-2h2c1.148 0 2 .852 2 2v2zm12.955 18h-10a1 1 0 0 1 0-2h10a1 1 0 0 1 0 2zm0-4h-10a1 1 0 0 1 0-2h10a1 1 0 0 1 0 2zm0-4h-10a1 1 0 0 1 0-2h10a1 1 0 0 1 0 2zm0-4h-10a1 1 0 0 1 0-2h10a1 1 0 0 1 0 2zm0-4h-10a1 1 0 0 1 0-2h10a1 1 0 0 1 0 2zm0-4h-10a1 1 0 0 1 0-2h10a1 1 0 0 1 0 2z"/></svg>
