<?xml version="1.0" encoding="utf-8"?>

<!DOCTYPE svg PUBLIC "-//W3C//DTD SVG 1.1//EN" "http://www.w3.org/Graphics/SVG/1.1/DTD/svg11.dtd">
<svg version="1.1" xmlns="http://www.w3.org/2000/svg" xmlns:xlink="http://www.w3.org/1999/xlink" width="32" height="32" viewBox="0 0 32 32">
<g>
</g>
	<path d="M30.121 26.878l-8.151-8.151c1.281-1.909 2.030-4.206 2.030-6.677 0-6.627-5.373-12-12-12s-12 5.373-12 12c0 6.628 5.373 12 12 12 1.975 0 3.833-0.485 5.477-1.331l8.402 8.402c1.172 1.172 3.070 1.172 4.242 0s1.172-3.071 0-4.243zM4 12.050c0-4.4 3.599-8 8-8s8 3.6 8 8c0 4.401-3.599 8-8 8s-8-3.599-8-8z" fill="#000000"></path>
</svg>
