<svg xmlns="http://www.w3.org/2000/svg" width="32" height="32" viewBox="0 0 32 32"><title>Search Address Book</title><path d="M12.818 11c-2.267 0-4.12 1.8-4.12 4s1.854 4 4.12 4c2.268 0 4.12-1.8 4.12-4s-1.852-4-4.12-4zM24 0H4C.5 0 0 4 0 4v26a2 2 0 0 0 2 2h18a2 2 0 0 0 2-2h2c1.625 0 2-2 2-2V2c0-1.5-2-2-2-2zM12.818 21a6.3 6.3 0 0 1-2.82-.665l-4.328 4.2c-.603.586-1.582.586-2.185 0s-.604-1.535 0-2.12l4.2-4.076A5.842 5.842 0 0 1 6.637 15c0-3.313 2.768-6 6.18-6S19 11.687 19 15s-2.768 6-6.182 6zM24 4v24h-2V6a2 2 0 0 0-2-2H2c0-1.375 2-2 2-2h18c2.125 0 2 2 2 2z"/></svg>
