<svg xmlns="http://www.w3.org/2000/svg" width="32" height="32" viewBox="0 0 32 32"><title>Settings</title><path d="M27.733 29.893c0 1.18.477 2.133 1.067 2.133s1.067-.954 1.067-2.133V19.226h-2.133v10.667zM29.867 2.16C29.867.98 29.39.027 28.8.027S27.733.98 27.733 2.16v2.133h2.133V2.16zm0 4.267h-2.133c-1.18 0-2.133.954-2.133 2.133v6.4c0 1.18.955 2.133 2.134 2.133h2.133c1.18 0 2.133-.954 2.133-2.133v-6.4c0-1.18-.954-2.133-2.133-2.133zM14.933 29.893c0 1.18.477 2.133 1.067 2.133s1.067-.954 1.067-2.133V27.76h-2.133v2.133zM17.067 2.16C17.067.98 16.59.027 16 .027S14.933.98 14.933 2.16v10.667h2.133V2.16zm0 12.8h-2.133c-1.18 0-2.133.954-2.133 2.133v6.4c0 1.18.955 2.133 2.134 2.133h2.133c1.18 0 2.133-.954 2.133-2.133v-6.4c0-1.18-.954-2.133-2.133-2.133zM2.133 29.893c0 1.18.477 2.133 1.067 2.133s1.067-.954 1.067-2.133v-6.4H2.134v6.4zM4.267 2.16C4.267.98 3.79.027 3.2.027S2.133.98 2.133 2.16v6.4h2.133v-6.4zm0 8.533H2.134c-1.18 0-2.133.954-2.133 2.133v6.4c0 1.18.955 2.133 2.134 2.133h2.133c1.18 0 2.133-.955 2.133-2.134v-6.4c0-1.18-.954-2.133-2.133-2.133z"/></svg>
