<svg xmlns="http://www.w3.org/2000/svg" viewBox="0 0 512 512"><title>Settings</title><path d="M479.7 208H442c-4.5-17.6-11.5-34.3-20.5-49.5l26.7-26.7c12.8-12.8 12.7-33 .2-45.4l-22.7-22.7c-12.6-12.6-32.8-12.4-45.4.2l-26.7 26.7c-15.3-9-31.9-16-49.5-20.5V32.3C304 14.2 289.7 0 272 0h-32c-17.8 0-32 14.5-32 32.3V70c-17.6 4.5-34.3 11.5-49.5 20.5l-26.7-26.7c-12.8-12.8-33-12.7-45.4-.2L63.6 86.3c-12.6 12.6-12.4 32.8.2 45.4l26.7 26.7c-9 15.3-16 31.9-20.5 49.5H32.3C14.2 208 0 222.3 0 240v32c0 17.8 14.5 32 32.3 32H70c4.5 17.6 11.5 34.3 20.5 49.5l-26.7 26.7c-12.8 12.8-12.7 33-.2 45.4l22.7 22.7c12.6 12.6 32.8 12.4 45.4-.2l26.7-26.7c15.3 9 31.9 16 49.5 20.5v37.7c0 18.1 14.3 32.3 32 32.3H272c17.8 0 32-14.5 32-32.3V442c17.6-4.5 34.3-11.5 49.5-20.5l26.7 26.7c12.8 12.8 33 12.7 45.4.2l22.7-22.7c12.6-12.6 12.4-32.8-.2-45.4l-26.7-26.7c9-15.3 16-31.9 20.5-49.5h37.7c18.1 0 32.3-14.3 32.3-32V240c.1-17.8-14.4-32-32.2-32zM256 352c-53 0-96-43-96-96s43-96 96-96 96 43 96 96-43 96-96 96z"/></svg>
