<svg xmlns="http://www.w3.org/2000/svg" width="32" height="32" viewBox="0 0 32 32"><title>Skype</title><path d="M30.478 18.06c.088-.65.138-1.31.138-1.982 0-8.072-6.58-14.617-14.694-14.617-.806 0-1.597.067-2.367.193A8.766 8.766 0 0 0 0 9c0 1.762.52 3.4 1.412 4.774-.12.75-.18 1.52-.18 2.304 0 8.073 6.575 14.618 14.692 14.618.916 0 1.808-.09 2.675-.246A8.768 8.768 0 0 0 32 23c0-1.832-.56-3.534-1.52-4.94zm-13.182 8.79c-4.67.243-6.854-.79-8.856-2.668-2.235-2.098-1.337-4.49.484-4.613 1.82-.123 2.913 2.062 3.884 2.67.97.605 4.662 1.985 6.612-.244 2.123-2.427-1.412-3.683-4.004-4.063-3.7-.548-8.372-2.55-8.008-6.494.364-3.943 3.35-5.964 6.49-6.25 4.006-.363 6.613.608 8.675 2.367 2.384 2.033 1.094 4.306-.425 4.49-1.513.18-3.213-3.345-6.55-3.398-3.438-.055-5.763 3.578-1.517 4.61 4.25 1.033 8.798 1.456 10.436 5.34 1.64 3.884-2.547 8.008-7.22 8.25z"/></svg>
