<svg xmlns="http://www.w3.org/2000/svg" width="32" height="32" viewBox="0 0 32 32"><title>Standards</title><path d="M15.85 6.765a9.284 9.284 0 1 0 0 18.566 9.284 9.284 0 0 0 0-18.566zm-1.738 14.877c-1.645-2.033-3.58-3.58-4.935-4.064l3.193-1.936 1.548 3s2.517-6.097 6.484-8.13c-.097 1.452-.484 2.71.193 4.258-1.742.387-5.323 4.742-6.484 6.872zM28.39 17.77a1.77 1.77 0 0 0 0-3.54c-.042 0-.084.003-.126.006-.14-.99-.4-1.942-.76-2.842.038-.018.075-.035.11-.056a1.77 1.77 0 0 0-1.77-3.066c-.036.02-.07.045-.104.068a12.43 12.43 0 0 0-2.08-2.08c.024-.034.048-.068.07-.105a1.77 1.77 0 0 0-3.066-1.77c-.02.036-.038.073-.056.11-.9-.36-1.852-.618-2.842-.76a1.77 1.77 0 1 0-3.528 0c-.99.143-1.942.4-2.842.76-.018-.036-.035-.073-.056-.11a1.77 1.77 0 0 0-3.066 1.77c.02.038.045.072.068.107a12.467 12.467 0 0 0-2.08 2.08c-.034-.023-.068-.047-.105-.068a1.77 1.77 0 0 0-1.77 3.066c.036.02.073.038.11.056-.36.9-.618 1.852-.76 2.842a1.77 1.77 0 1 0 0 3.528c.142.99.4 1.942.76 2.842-.037.018-.074.035-.11.056a1.77 1.77 0 0 0 1.77 3.066c.037-.02.07-.045.106-.07.608.774 1.307 1.472 2.08 2.08-.024.035-.048.07-.07.106a1.77 1.77 0 0 0 3.067 1.77c.02-.036.038-.073.056-.11.9.36 1.852.618 2.842.76a1.77 1.77 0 1 0 3.534.126c0-.044-.003-.086-.006-.128.99-.14 1.942-.398 2.842-.76.018.038.035.075.056.11a1.77 1.77 0 0 0 3.066-1.77c-.02-.036-.045-.07-.07-.104a12.48 12.48 0 0 0 2.08-2.08 1.9 1.9 0 0 0 .106.068 1.77 1.77 0 0 0 1.77-3.066c-.036-.02-.073-.038-.11-.056.362-.9.62-1.852.76-2.842.042.003.084.006.126.006zm-12.54 8.733a10.538 10.538 0 0 1-8.923-4.925 1.76 1.76 0 0 0-.32-.544 10.488 10.488 0 0 1-1.29-4.573c.04-.147.063-.3.063-.46a1.76 1.76 0 0 0-.066-.474 10.486 10.486 0 0 1 1.188-4.454c.114-.11.216-.24.3-.384.08-.14.14-.29.178-.438a10.6 10.6 0 0 1 3.387-3.303 1.778 1.778 0 0 0 .58-.328A10.496 10.496 0 0 1 15.85 5.41c5.824 0 10.546 4.72 10.546 10.546s-4.72 10.546-10.546 10.546z"/></svg>
