<?xml version="1.0" encoding="utf-8"?>

<!DOCTYPE svg PUBLIC "-//W3C//DTD SVG 1.1//EN" "http://www.w3.org/Graphics/SVG/1.1/DTD/svg11.dtd">
<svg version="1.1" xmlns="http://www.w3.org/2000/svg" xmlns:xlink="http://www.w3.org/1999/xlink" width="32" height="32" viewBox="0 0 32 32">
<g>
</g>
	<path d="M26.858 1.653c-1.807 0-19.873 0-21.68 0s-3.631 1.716-3.631 3.52 0 19.849 0 21.653c0 1.804 1.824 3.627 3.631 3.627s19.873 0 21.68 0c1.807 0 3.489-1.822 3.489-3.627s0-19.849 0-21.653-1.682-3.52-3.489-3.52zM26.748 28.536l-21.833 0.003c0 0-1.544-1.713-1.544-3.517 0.79-0.754 1.676-1.1 5.861-1.716 4.187-0.618 4.287-2.82 4.425-2.749-0.025-0.835-0.106-2.007-0.106-2.007s-1.634-0.922-2.276-2.747c-1.348-0.541-1.17-0.888-1.3-1.588 0 0 0.155-2.832 1.066-2.774 0 0 0.732 0 0.588-0.65-0.049-1.084-0.030-1.311 0.042-2.034s0.383-2.673 1.902-2.962c1.519-0.287 0.346-0.143 0.85-0.217 0.508-0.071-0.314-0.361 0.625-0.361l1.503-0.312c0.939 0 1.542 1.309 2.050 1.382 0.505 0.072 0.173-0.22 1.21-0.028 1.521 0.289 1.083 2.354 1.154 3.077 0.074 0.722 0.122 0.948-0.023 1.6-0.145 0.65 1.098 0.578 1.098 0.578 1.085 0 0.631 2.774 0.631 2.774-0.167 0.735-0.552 0.823-1.561 1.461-0.642 1.827-1.99 2.946-1.99 2.946s-0.148 1.394-0.155 1.723c0.030 0.129-0.261 2.27 3.926 2.888 4.187 0.617 4.984 0.962 5.775 1.716-0.001 1.805-1.917 3.514-1.917 3.514z" fill="#000000"></path>
</svg>
