<svg xmlns="http://www.w3.org/2000/svg" width="32" height="32" viewBox="0 0 32 32"><title>Student View</title><path d="M26.858 1.653H5.178c-1.807 0-3.63 1.716-3.63 3.52v21.653c0 1.804 1.823 3.627 3.63 3.627h21.68c1.807 0 3.49-1.822 3.49-3.627V5.173c0-1.803-1.683-3.52-3.49-3.52zm-.11 26.883l-21.833.003S3.37 26.825 3.37 25.02c.79-.754 1.677-1.1 5.862-1.716 4.187-.618 4.287-2.82 4.425-2.75-.025-.834-.106-2.006-.106-2.006s-1.633-.922-2.275-2.747c-1.348-.54-1.17-.888-1.3-1.588 0 0 .155-2.832 1.066-2.774 0 0 .733 0 .59-.65-.05-1.083-.03-1.31.04-2.033s.384-2.673 1.903-2.962c1.52-.287.346-.143.85-.217.508-.07-.314-.36.625-.36l1.503-.313c.94 0 1.543 1.31 2.05 1.382.506.072.174-.22 1.21-.028 1.522.288 1.084 2.353 1.155 3.076.074.722.122.948-.023 1.6-.145.65 1.098.578 1.098.578 1.085 0 .63 2.774.63 2.774-.166.735-.55.823-1.56 1.46-.642 1.828-1.99 2.947-1.99 2.947s-.148 1.394-.155 1.723c.03.13-.26 2.27 3.926 2.888 4.188.617 4.985.962 5.776 1.716 0 1.805-1.917 3.514-1.917 3.514z"/></svg>
