<?xml version="1.0" encoding="utf-8"?>

<!DOCTYPE svg PUBLIC "-//W3C//DTD SVG 1.1//EN" "http://www.w3.org/Graphics/SVG/1.1/DTD/svg11.dtd">
<svg version="1.1" xmlns="http://www.w3.org/2000/svg" xmlns:xlink="http://www.w3.org/1999/xlink" width="32" height="32" viewBox="0 0 32 32">
<g>
</g>
	<path d="M12.291 23.401h18.642v5.593h-18.642zM12.291 4.759h18.642v5.593h-18.642zM12.291 14.080h18.642v5.593h-18.642zM8.834 3.288l-3.87 3.87-1.442-1.442c-0.546-0.546-1.431-0.546-1.977 0s-0.546 1.431 0 1.977l3.419 3.419 5.847-5.847c0.546-0.546 0.546-1.431 0-1.977s-1.431-0.546-1.977 0zM8.834 13.091l-3.87 3.87-1.442-1.442c-0.546-0.546-1.431-0.546-1.977 0s-0.546 1.431 0 1.977l3.419 3.419 5.847-5.848c0.546-0.546 0.546-1.431 0-1.977s-1.431-0.546-1.977 0z" fill="#000000"></path>
</svg>
