<svg xmlns="http://www.w3.org/2000/svg" width="32" height="32" viewBox="0 0 32 32"><title>Text</title><path d="M4.747 1.653v10.26l1.178-.83c.274-1.797.938-3.165 1.98-4.134.74-.695 1.347-1.136 2.987-1.136h2.068v18.36c0 1.22.228 2.48.096 2.767-.18.408-.43.672-.742.84-.43.25-.715.435-1.422.435H8.8v2.133h14.4V28.26l-1.44-.08c-.695 0-1.254-.117-1.655-.35s-.677-.506-.814-.817c-.137-.31-.21-1.074-.21-2.32l-.015-18.88h2.043c1.137 0 1.716.203 2.17.418.815.396 1.458.918 1.925 1.583s.898 1.753 1.28 3.274l.77.827V1.654H4.748z"/></svg>
