<svg xmlns="http://www.w3.org/2000/svg" width="32" height="32" viewBox="0 0 32 32"><title>Timer</title><path d="M12 11.5a1.5 1.5 0 0 1 3 0v4.45l1.23-.71a1.5 1.5 0 1 1 1.5 2.6l-3.466 2a1.5 1.5 0 0 1-2.05-.55c-.03-.055-.05-.11-.075-.168l-.03-.064c-.015-.04-.026-.08-.037-.118A1.49 1.49 0 0 1 12 18.5v-7zm3-6.412c6.75.747 12 6.464 12 13.412C27 25.956 20.956 32 13.5 32S0 25.956 0 18.5C0 11.552 5.25 5.835 12 5.088V3s.325-1-1-1H9V0h9v2h-2s-1-.423-1 1v2.088zm6.223 20.428c1.6-1.75 2.63-4.025 2.752-6.516H22v-1h1.975c-.122-2.492-1.152-4.765-2.752-6.516l-1.36 1.358-.706-.707 1.36-1.358c-1.754-1.593-4.03-2.62-6.517-2.75V10h-1V8.024c-2.505.114-4.786 1.135-6.54 2.73l1.382 1.382-.707.707-1.382-1.382C4.16 13.214 3.137 15.496 3.023 18H5v1H3.026c.13 2.49 1.153 4.77 2.744 6.523l1.366-1.365.707.707-1.367 1.367c1.75 1.6 4.025 2.63 6.524 2.744V27h1v1.973c2.488-.13 4.763-1.157 6.515-2.75l-1.358-1.358.707-.707 1.36 1.358z"/></svg>
