<svg viewBox="0 0 499 499" xmlns="http://www.w3.org/2000/svg"><title>Tour-Info</title><path d="M249.5 0C111.713 0 0 111.713 0 249.5S111.713 499 249.5 499 499 387.287 499 249.5 387.287 0 249.5 0zm33.992 361.245c-10.43 4.162-18.79 7.307-25.032 9.5-6.242 2.175-13.48 3.255-21.713 3.255-12.69 0-22.55-3.097-29.566-9.308-7.032-6.226-10.54-14.104-10.54-23.666 0-3.717.27-7.513.79-11.39.522-3.89 1.375-8.26 2.545-13.15l13.068-46.524a206.322 206.322 0 0 0 2.956-12.66c.79-3.986 1.184-7.623 1.184-10.91 0-5.958-1.217-10.103-3.65-12.438-2.434-2.335-7.096-3.51-13.986-3.51-3.398 0-6.858.54-10.414 1.604s-6.606 2.08-9.134 3.018l3.477-14.327c8.58-3.527 16.782-6.514 24.604-9.007 7.84-2.51 15.235-3.733 22.22-3.733 12.595 0 22.298 3.034 29.124 9.15 6.827 6.098 10.24 14.04 10.24 23.824 0 2.018-.237 5.56-.726 10.658-.475 5.1-1.328 9.8-2.608 14.026l-13.037 46.364c-1.06 3.717-2.023 7.974-2.86 12.755-.854 4.78-1.265 8.386-1.265 10.832 0 6.162 1.375 10.34 4.11 12.595 2.75 2.208 7.49 3.336 14.253 3.336 3.162 0 6.75-.555 10.763-1.683 3.998-1.096 6.89-2.08 8.707-2.923l-3.508 14.31zm-2.55-188.693c-6.057 5.643-13.34 8.448-21.863 8.448-8.526 0-15.824-2.805-21.926-8.448-6.103-5.626-9.154-12.45-9.154-20.473 0-8.008 3.05-14.864 9.154-20.553 6.102-5.69 13.4-8.527 21.925-8.527 8.523 0 15.805 2.837 21.86 8.527 6.04 5.69 9.06 12.545 9.06 20.552 0 8.02-3.02 14.846-9.06 20.472z" fill="#4E4E4C" fill-rule="evenodd"/></svg>
