<svg xmlns="http://www.w3.org/2000/svg" width="32" height="32" viewBox="0 0 32 32"><title>Twitter</title><path d="M26.667 0H5.334C2.4 0 0 2.4 0 5.334v21.332C0 29.602 2.4 32 5.334 32h21.333C29.6 32 32 29.602 32 26.666V5.334C32 2.4 29.6 0 26.667 0zm-.478 10.682c.01.23.014.46.014.692 0 7.07-5.288 15.22-14.958 15.22-2.97 0-5.732-.885-8.06-2.403a10.43 10.43 0 0 0 7.783-2.215c-2.298-.042-4.24-1.59-4.91-3.714a5.19 5.19 0 0 0 2.374-.092c-2.404-.49-4.216-2.653-4.216-5.244v-.067c.71.4 1.52.64 2.38.67A5.372 5.372 0 0 1 4.26 9.072c0-.98.26-1.9.712-2.69 2.593 3.238 6.467 5.367 10.836 5.59-.09-.392-.136-.8-.136-1.22 0-2.953 2.354-5.348 5.257-5.348 1.512 0 2.88.65 3.838 1.69a10.406 10.406 0 0 0 3.338-1.3 5.354 5.354 0 0 1-2.31 2.96 10.368 10.368 0 0 0 3.018-.84 10.786 10.786 0 0 1-2.622 2.768z"/></svg>
