<?xml version="1.0" encoding="utf-8"?>

<!DOCTYPE svg PUBLIC "-//W3C//DTD SVG 1.1//EN" "http://www.w3.org/Graphics/SVG/1.1/DTD/svg11.dtd">
<svg version="1.1" xmlns="http://www.w3.org/2000/svg" xmlns:xlink="http://www.w3.org/1999/xlink" width="32" height="32" viewBox="0 0 32 32">
<g>
</g>
	<path d="M26.667 0h-21.333c-2.934 0-5.334 2.4-5.334 5.334v21.332c0 2.936 2.4 5.334 5.334 5.334h21.333c2.934 0 5.333-2.398 5.333-5.334v-21.332c0-2.934-2.399-5.334-5.333-5.334zM26.189 10.682c0.010 0.229 0.015 0.46 0.015 0.692 0 7.069-5.288 15.221-14.958 15.221-2.969 0-5.732-0.886-8.059-2.404 0.411 0.050 0.83 0.075 1.254 0.075 2.463 0 4.73-0.855 6.529-2.29-2.3-0.043-4.242-1.59-4.911-3.715 0.321 0.063 0.65 0.096 0.989 0.096 0.479 0 0.944-0.066 1.385-0.188-2.405-0.492-4.217-2.654-4.217-5.245 0-0.023 0-0.045 0-0.067 0.709 0.401 1.519 0.641 2.381 0.669-1.411-0.959-2.339-2.597-2.339-4.453 0-0.98 0.259-1.899 0.712-2.689 2.593 3.237 6.467 5.366 10.836 5.589-0.090-0.392-0.136-0.8-0.136-1.219 0-2.954 2.354-5.349 5.257-5.349 1.512 0 2.879 0.65 3.838 1.689 1.198-0.24 2.323-0.685 3.338-1.298-0.393 1.249-1.226 2.298-2.311 2.96 1.063-0.129 2.077-0.417 3.019-0.842-0.705 1.073-1.596 2.015-2.623 2.769z" fill="#000000"></path>
</svg>
