<svg xmlns="http://www.w3.org/2000/svg" width="32" height="32" viewBox="0 0 32 32"><title>Twitter</title><path d="M32 6.076a13.14 13.14 0 0 1-3.77 1.034 6.592 6.592 0 0 0 2.886-3.632 13.15 13.15 0 0 1-4.17 1.593A6.557 6.557 0 0 0 22.157 3a6.565 6.565 0 0 0-6.566 6.565c0 .515.058 1.016.17 1.496A18.64 18.64 0 0 1 2.228 4.2a6.536 6.536 0 0 0-.89 3.3 6.563 6.563 0 0 0 2.922 5.465 6.54 6.54 0 0 1-2.974-.82v.082a6.568 6.568 0 0 0 5.265 6.437 6.578 6.578 0 0 1-2.964.112 6.57 6.57 0 0 0 6.133 4.56 13.172 13.172 0 0 1-8.155 2.81c-.53 0-1.052-.032-1.566-.093a18.58 18.58 0 0 0 10.063 2.95c12.076 0 18.68-10.004 18.68-18.68 0-.285-.007-.568-.02-.85A13.347 13.347 0 0 0 32 6.077z"/></svg>
