<svg xmlns="http://www.w3.org/2000/svg" width="32" height="32" viewBox="0 0 32 32"><title>Unmuted</title><path d="M25.364 28.968l-2.635-3.02a11.987 11.987 0 0 0 5.282-9.945 11.99 11.99 0 0 0-5.3-9.957l2.642-3.014c4.027 2.905 6.658 7.626 6.658 12.97 0 5.342-2.626 10.06-6.648 12.966zm-4.76-5.456l-2.64-3.024c1.246-1.1 2.05-2.69 2.05-4.484 0-1.808-.817-3.41-2.082-4.51l2.65-3.02a9.973 9.973 0 0 1 .022 15.037zm-18.638-3.51c-2.25 0-1.953-2-1.953-2v-4c0-1.874 1.89-1.937 1.89-1.937l4.11-.062 8-8v24l-8-8H1.966z"/></svg>
