<svg xmlns="http://www.w3.org/2000/svg" width="32" height="32" viewBox="0 0 32 32"><title>Unpublish</title><path d="M26.287 12.893a7.02 7.02 0 0 0 .125-1.248 6.924 6.924 0 0 0-6.927-6.925 6.925 6.925 0 0 0-6.783 5.534 5.14 5.14 0 0 0-1.873-.362 5.192 5.192 0 0 0-5.193 5.194c0 .203.037.397.06.595-2.075.96-3.522 3.05-3.522 5.487 0 3.05 2.245 6.06 5.194 6.06h14.71a7.79 7.79 0 0 0 7.795-7.792c0-2.75-1.434-5.157-3.588-6.543zm-4.742 8.235a1.73 1.73 0 0 1-2.448 2.448l-2.502-2.502-2.502 2.502c-.338.338-.78.507-1.224.507s-.887-.17-1.225-.507a1.73 1.73 0 0 1 0-2.448l2.502-2.502-2.502-2.502a1.73 1.73 0 0 1 2.448-2.448l2.502 2.502 2.502-2.502a1.73 1.73 0 0 1 2.448 2.448l-2.502 2.502 2.502 2.502z"/></svg>
