<svg xmlns="http://www.w3.org/2000/svg" width="32" height="32" viewBox="0 0 32 32"><title>User</title><path d="M30 27.44V32H0v-4.565c0-.953.7-3.664 6.064-4.444 3.542-.514 4.613-1.22 4.933-1.64-.042-.98-.12-2.09-.12-2.09S9.813 18.097 9 15.788c-1.705-.683-1.48-1.122-1.646-2.005 0 0 .197-3.58 1.35-3.506 0 0 .925 0 .742-.82-.06-1.37-.038-1.656.054-2.57s.485-3.378 2.407-3.742c1.922-.365.437-.183 1.078-.274s-.4-.456.79-.456l1.9-.396c1.188 0 1.952 1.655 2.59 1.746.642.092.224-.278 1.535-.035 1.922.364 2.016 2.975 2.106 3.888.092.912.01 1.198-.172 2.02-.184.822.56.717.56.717 1.373 0 1.124 3.52 1.124 3.52-.212.93-.7 1.04-1.977 1.846-.81 2.31-2.517 3.726-2.517 3.726L19 21s-.297 1.22 5 2 6 3.486 6 4.44z"/></svg>
