<?xml version="1.0" encoding="utf-8"?>

<!DOCTYPE svg PUBLIC "-//W3C//DTD SVG 1.1//EN" "http://www.w3.org/Graphics/SVG/1.1/DTD/svg11.dtd">
<svg version="1.1" xmlns="http://www.w3.org/2000/svg" xmlns:xlink="http://www.w3.org/1999/xlink" width="32" height="32" viewBox="0 0 32 32">
<g>
</g>
	<path d="M30 27.439c0 3.443 0 4.561 0 4.561h-30c0 0 0-1.119 0-4.565 0-0.953 0.7-3.664 6.064-4.444 3.542-0.515 4.613-1.221 4.933-1.641-0.042-0.981-0.119-2.089-0.119-2.089s-1.066-1.165-1.878-3.474c-1.705-0.683-1.48-1.122-1.646-2.005 0 0 0.197-3.579 1.349-3.506 0 0 0.926 0 0.743-0.821-0.061-1.37-0.038-1.655 0.054-2.568s0.485-3.379 2.407-3.743c1.922-0.365 0.437-0.183 1.078-0.274s-0.4-0.456 0.79-0.456l1.899-0.396c1.189 0 1.953 1.655 2.592 1.746 0.641 0.092 0.223-0.278 1.534-0.035 1.922 0.365 2.016 2.976 2.106 3.889 0.092 0.912 0.010 1.198-0.172 2.021-0.184 0.821 0.56 0.716 0.56 0.716 1.373 0 1.124 3.521 1.124 3.521-0.212 0.928-0.699 1.040-1.977 1.845-0.812 2.309-2.518 3.725-2.518 3.725l0.077 1.554c0 0-0.297 1.22 5 2 5.297 0.779 6 3.486 6 4.439z" fill="#000000"></path>
</svg>
