<svg xmlns="http://www.w3.org/2000/svg" width="32" height="32" viewBox="0 0 32 32"><title>User Add</title><path d="M27 21c-5.297-.78-5-2-5-2l-.076-1.557s1.705-1.416 2.518-3.725c1.277-.805 1.765-.917 1.977-1.845 0 0 .573-3.507-.8-3.507 0 0-1.572.092-1.39-.73.183-.82.122-1.107.03-2.02s.462-3.523-1.46-3.89c-1.312-.242-.894.128-1.534.036-.64-.09-1.402-1.747-2.592-1.747l-1.9.396c-1.19 0-.148.366-.79.457s.845-.09-1.077.274c-1.922.365-2.314 2.83-2.406 3.744s-.114 1.198-.053 2.568c.183.82-.743.82-.743.82-1.152-.072-1.35 3.507-1.35 3.507.016.076.025.146.035.217H6v6H0v8h6v6h8v-2h18v-4.56c0-.95.297-3.658-5-4.437zm-9 3h-6v6H8v-6H2v-4h6v-6h4v6h6v4z"/></svg>
