<svg xmlns="http://www.w3.org/2000/svg" width="32" height="32" viewBox="0 0 32 32"><title>Windows</title><path d="M12.882 15.997c-1.49-.766-2.94-1.155-4.31-1.155-.185 0-.372.006-.56.022-1.746.145-3.34.605-4.367.963-.272.1-.55.205-.838.322L0 25.88c1.928-.713 3.634-1.06 5.196-1.06 2.526 0 4.36.943 5.875 1.915.72-2.435 2.44-8.315 2.954-10.073a25.58 25.58 0 0 0-1.14-.666zm3.63 2.474l-2.827 9.818c.838.48 3.66 2.002 5.82 2.002 1.743 0 3.694-.447 5.963-1.37l2.7-9.436c-1.833.59-3.59.89-5.234.89-2.998 0-5.097-.97-6.422-1.904zm-7.36-6.945c2.41.025 4.19.944 5.668 1.89l2.9-9.916c-.612-.35-2.214-1.223-3.372-1.52a10.558 10.558 0 0 0-2.413-.27c-1.62.03-3.387.437-5.403 1.245L3.768 12.66c2.025-.763 3.77-1.135 5.378-1.135h.004zM32 6.19c-1.838.714-3.63 1.078-5.345 1.078-2.865 0-4.978-.994-6.347-1.95l-2.873 9.946c1.93 1.24 4.01 1.87 6.19 1.87 1.78 0 3.624-.426 5.484-1.27l-.007-.07.117-.027L32 6.19z"/></svg>
