<svg xmlns="http://www.w3.org/2000/svg" width="32" height="32" viewBox="0 0 32 32"><title>Wordpress</title><path d="M4 16c0 4.626 2.76 8.624 6.763 10.518L5.04 11.244A11.38 11.38 0 0 0 4 16zm20.1-.59c0-1.445-.532-2.445-.988-3.223-.608-.963-1.18-1.778-1.18-2.74 0-1.075.837-2.075 2.016-2.075.053 0 .104.006.155.01A12.134 12.134 0 0 0 16 4.31c-4.192 0-7.88 2.095-10.026 5.268.282.01.547.014.772.014 1.255 0 3.198-.15 3.198-.15.647-.036.723.89.077.964 0 0-.65.074-1.372.11l4.37 12.66 2.626-7.67-1.87-4.99c-.645-.036-1.258-.11-1.258-.11-.647-.037-.57-1 .076-.963 0 0 1.98.15 3.16.15 1.255 0 3.198-.15 3.198-.15.647-.037.723.89.076.963 0 0-.65.074-1.373.11l4.337 12.564 1.197-3.895c.518-1.617.913-2.778.913-3.778zm-7.89 1.612l-3.6 10.19a12.29 12.29 0 0 0 7.375-.188 1.028 1.028 0 0 1-.086-.16l-3.69-9.843zm10.32-6.63c.052.373.08.772.08 1.203 0 1.185-.227 2.52-.912 4.186l-3.665 10.322C25.6 24.076 28 20.312 28 16c0-2.032-.533-3.943-1.47-5.607zM16 0C7.163 0 0 7.163 0 16s7.163 16 16 16 16-7.163 16-16S24.837 0 16 0zm0 30C8.268 30 2 23.732 2 16S8.268 2 16 2s14 6.268 14 14-6.268 14-14 14z"/></svg>
