<svg xmlns="http://www.w3.org/2000/svg" width="32" height="32" viewBox="0 0 32 32"><title>Zipped</title><path d="M10.293 25.013h3.52v5.333h-3.52zM21.767 1.76H6.555c-.986 0-1.808.776-1.808 1.76V28.49c0 .986.934 1.858 1.92 1.858h1.92v-7.36h1.707V21.28h1.813v-1.814h-1.813V17.76h1.813v-1.6h-1.813v-1.814h1.813V12.64h-1.813v-1.814h1.813V9.12h-1.813V7.09h1.813V5.28h-1.813V3.57h1.813V5.28h1.707V7.09h-1.707V9.12h1.707v1.706h-1.707v1.813h1.707v1.706h-1.707v1.813h1.707v1.6h-1.707v1.706h1.707v1.813h-1.707v1.706h3.307V30.347h9.81c.984 0 1.817-.872 1.817-1.858v-21.4l-5.272-5.33zm3.455 7.36h-3.567s-1.868-.165-1.868-2.032V3.52s1.046-.78 1.826 0L25.2 7.213s1.332 1.908.022 1.908z"/></svg>
