<svg id="Layer_1" data-name="Layer 1" xmlns="http://www.w3.org/2000/svg" viewBox="0 0 139.25 24.29"><title>NoTM_SM_Company_Logo_2C</title><path d="M27.29,8c-.16-1.92-.94-3.38-2.89-3.38a2.41,2.41,0,0,0-2.58,2.47c0,4.24,7.55,4.29,7.55,10.33,0,3-1.72,4.79-4.81,4.79-2.94,0-4.71-2.16-4.76-5.31h1.87c.05,2.21,1.09,3.59,3.1,3.59,1.69,0,2.78-1.09,2.78-3.1,0-4.27-7.55-4.76-7.55-10.13a4.19,4.19,0,0,1,4.53-4.37C27.24,2.88,29,4.7,29.16,8Z" transform="translate(-0.41 -0.07)" style="fill:#343741"/><path d="M40.54,3.14V4.85H36.69V21.92h-2V4.85H30.81V3.14Z" transform="translate(-0.41 -0.07)" style="fill:#343741"/><path d="M42.85,3.14h4.53c3,0,5.15,1.77,5.15,4.87a4.51,4.51,0,0,1-3,4.6l3.17,9.32H50.56l-3-8.9-2.65.1v8.8h-2Zm2,8.22h1.77c2.91,0,3.85-1.15,3.85-3.25s-.94-3.25-3.85-3.25H44.88Z" transform="translate(-0.41 -0.07)" style="fill:#343741"/><path d="M60.13,22.18c-3.17,0-5.31-2.65-5.31-9.65S57,2.88,60.13,2.88s5.31,2.65,5.31,9.65S63.31,22.18,60.13,22.18Zm0-17.59c-1.82,0-3.28,1.56-3.28,7.94s1.46,7.94,3.28,7.94,3.28-1.56,3.28-7.94S62,4.59,60.13,4.59Z" transform="translate(-0.41 -0.07)" style="fill:#343741"/><path d="M71.49,3.14,76.33,17h.05V3.14h2V21.92H76.21L70.39,5.58h-.05V21.92h-2V3.14Z" transform="translate(-0.41 -0.07)" style="fill:#343741"/><path d="M89.31,8.91c-.16-2.45-.89-4.32-2.94-4.32-2.26,0-3.36,2-3.36,7.94s1.09,7.94,3.36,7.94a2.66,2.66,0,0,0,2.94-3V14.85H86.75V13.13h4.58v8.8H90l-.26-1.4a4,4,0,0,1-3.41,1.66c-3.31,0-5.39-2.55-5.39-9.65s2.08-9.65,5.39-9.65c3.46,0,4.71,3,5,6Z" transform="translate(-0.41 -0.07)" style="fill:#343741"/><path d="M107.29,3.14V21.92h-2.82V7.25h-.05l-2.91,14.68H100L97,7.25H97V21.92H94.17V3.14h4.24l2.29,11h.05l2.29-11Z" transform="translate(-0.41 -0.07)" style="fill:#fdb515"/><path d="M110.41,21.92V3.14h3.23V21.92Z" transform="translate(-0.41 -0.07)" style="fill:#fdb515"/><path d="M116.76,21.92V3.14h3l3.94,10.75h.05V3.14h2.91V21.92h-2.81l-4.11-11.74h-.05V21.92Z" transform="translate(-0.41 -0.07)" style="fill:#fdb515"/><path d="M129.77,3.14h4.79c3.33,0,5.1,1.82,5.1,5.67v7.44c0,3.85-1.77,5.67-5.1,5.67h-4.79ZM133,19.27h1.12c1.72,0,2.32-.65,2.32-2.63V8.42c0-2-.6-2.63-2.32-2.63H133Z" transform="translate(-0.41 -0.07)" style="fill:#fdb515"/><polygon points="9.96 8.14 7.8 8.49 7.27 2.88 4.58 10.11 6.79 9.74 7.28 15.35 9.96 8.14" style="fill:#343741"/><rect x="3.62" y="20.48" width="7.38" height="1.45" style="fill:#343741"/><path d="M10.23,22.91h-5v.7h0v0a.73.73,0,0,0,.73.73H9.5a.73.73,0,0,0,.73-.73v0h0Z" transform="translate(-0.41 -0.07)" style="fill:#343741"/><rect x="3.62" y="18.12" width="7.38" height="1.45" style="fill:#343741"/><path d="M13.73,3A6.63,6.63,0,0,0,9.49.27a7.85,7.85,0,0,0-3.56,0A6.6,6.6,0,0,0,1.7,3,7.39,7.39,0,0,0,.82,9.63a16.37,16.37,0,0,0,1.71,3.49,12.5,12.5,0,0,1,1.33,2.73A4.39,4.39,0,0,1,4,17.11H5.81a7,7,0,0,0-.57-2.6C4.67,13.35,4,12.22,3.4,11.09A8.34,8.34,0,0,1,2.19,7.64,5,5,0,0,1,4.11,3a6.1,6.1,0,0,1,7.2,0,5,5,0,0,1,1.92,4.62A8.34,8.34,0,0,1,12,11.09c-.63,1.13-1.26,2.26-1.84,3.43a7,7,0,0,0-.57,2.6h1.78a4.39,4.39,0,0,1,.17-1.27,12.5,12.5,0,0,1,1.33-2.73A16.3,16.3,0,0,0,14.6,9.63,7.36,7.36,0,0,0,13.73,3Z" transform="translate(-0.41 -0.07)" style="fill:#fdb515"/></svg>