<?xml version="1.0" encoding="UTF-8" standalone="no"?>
<svg width="51px" height="44px" viewBox="0 0 51 44" version="1.1" xmlns="http://www.w3.org/2000/svg" xmlns:xlink="http://www.w3.org/1999/xlink">
    <!-- Generator: Sketch 3.8.1 (29687) - http://www.bohemiancoding.com/sketch -->
    <title>user group wifi</title>
    <desc>Created with Sketch.</desc>
    <defs></defs>
    <g id="Collaborations" stroke="none" stroke-width="1" fill="none" fill-rule="evenodd">
        <g id="collaborations-" transform="translate(-746.000000, -141.000000)">
            <g id="user-group-wifi" transform="translate(746.000000, 135.000000)">
                <g id="Group">
                    <g id="Frame_-_24px">
                        <rect id="Rectangle-path" x="0" y="2.07792" width="50.2153846" height="49.92"></rect>
                    </g>
                    <g id="Filled_Icons" transform="translate(0.000000, 6.240000)" fill="#FFFFFF">
                        <g id="Group">
                            <g transform="translate(8.369231, 0.000000)" id="Shape">
                                <path d="M3.93981538,10.09008 L0.738584615,7.40896 C4.73070769,2.69984 10.5661538,1.16884287e-13 16.7531077,1.16884287e-13 C22.9191385,1.16884287e-13 28.7441231,2.68944 32.7362462,7.37776 L29.5433846,10.06096 C26.3484308,6.3128 21.6867692,4.16 16.7531077,4.16 C11.8048,4.16 7.13267692,6.32112 3.93981538,10.09008 L3.93981538,10.09008 Z"></path>
                                <path d="M23.4526769,15.81008 C21.8541538,13.69264 19.4124308,12.47792 16.7531077,12.47792 C14.0958769,12.47792 11.6562462,13.69264 10.0577231,15.808 L6.71003077,13.30992 C9.07015385,10.18368 12.8237538,8.32 16.7531077,8.32 C20.7431385,8.32 24.4046769,10.14208 26.8003692,13.31616 L23.4526769,15.81008 L23.4526769,15.81008 Z"></path>
                            </g>
                            <g transform="translate(0.000000, 16.640000)">
                                <path d="M8.37132308,22.88 C8.37132308,21.41984 8.63704615,20.02416 9.10363077,18.72 L6.97784615,18.72 C3.12590769,18.72 0.00209230769,21.13072 0.00209230769,24.96 L0.00209230769,27.04 L8.37132308,27.04 L8.37132308,22.88 L8.37132308,22.88 Z" id="Shape"></path>
                                <path d="M15.8868923,11.45664 C15.8868923,11.4504 15.8889846,11.44416 15.8889846,11.43792 C15.8889846,8.56544 13.5456,6.23792 10.6561231,6.23792 C7.76873846,6.23792 5.42744615,8.56544 5.42744615,11.43792 C5.42744615,14.1232 7.48,16.30512 10.1037538,16.58384 C11.4386462,14.32496 13.4598154,12.51952 15.8868923,11.45664 L15.8868923,11.45664 Z" id="Shape"></path>
                                <path d="M39.9484308,6.24 C37.0610462,6.24 34.7197538,8.56752 34.7197538,11.44 C34.7197538,11.5128 34.7385846,11.58144 34.7406769,11.65216 C37.0003692,12.74 38.8792615,14.47264 40.1388308,16.62128 C42.9383385,16.51936 45.1812923,14.24592 45.1812923,11.44 C45.1812923,8.56752 42.8379077,6.24 39.9484308,6.24 L39.9484308,6.24 Z" id="Shape"></path>
                                <path d="M43.2417231,18.72 L41.1159385,18.72 C41.5825231,20.02416 41.8482462,21.41984 41.8482462,22.88 L41.8482462,27.04 L50.2174769,27.04 L50.2174769,24.96 C50.2174769,21.13072 47.0936615,18.72 43.2417231,18.72 L43.2417231,18.72 Z" id="Shape"></path>
                                <path d="M12.5559385,27.04 L37.6636308,27.04 L37.6636308,22.88 C37.6636308,18.89472 34.8411077,15.57296 31.0791385,14.75968 C29.3822769,15.93696 27.3297231,16.64 25.1097846,16.64 C22.8898462,16.64 20.8352,15.93696 19.1404308,14.75968 C15.3784615,15.57296 12.5559385,18.89264 12.5559385,22.88 L12.5559385,27.04 L12.5559385,27.04 Z" id="Shape"></path>
                                <ellipse id="Oval" cx="25.1097846" cy="6.24" rx="6.27692308" ry="6.24"></ellipse>
                            </g>
                        </g>
                    </g>
                </g>
            </g>
        </g>
    </g>
</svg>