<svg id="Layer_1" xmlns="http://www.w3.org/2000/svg" viewBox="0 0 512 512"><style>.st0{fill:#394B58;}</style><title>Solid/lock</title><g id="Page-1"><g id="Solid_x2F_lock"><path id="icon-lock" class="st0" d="M329.7 231.4H182.3v-98.3c0-40.6 33.1-73.7 73.7-73.7s73.7 33.1 73.7 73.7v98.3zm-73.7 172c-20.3 0-36.8-16.5-36.8-36.8s16.5-36.8 36.8-36.8 36.8 16.5 36.8 36.8-16.5 36.8-36.8 36.8zm122.8-172v-98.3c0-67.7-55.1-122.8-122.8-122.8S133.2 65.4 133.2 133.2v98.3c-27.1 0-49.1 22-49.1 49.1v172c0 27.1 22 49.1 49.1 49.1h245.7c27.1 0 49.1-22 49.1-49.1v-172c0-27.2-22.1-49.2-49.2-49.2z"/></g></g></svg>