<svg id="sm-icon" data-name="sm-icon" xmlns="http://www.w3.org/2000/svg" x="98" y="0" viewBox="0 0 124 200" width="200" height="200" xml:space="preserve"><title>SM_Lightbulb_Icon_2C_White</title><polygon points="82.02 66.99 64.21 69.86 59.87 23.74 37.66 83.21 55.88 80.18 59.92 126.35 82.02 66.99" style="fill:#fff"/><rect x="29.81" y="168.59" width="60.72" height="11.98" style="fill:#fff"/><path d="M119.14,188H77.76v5.78h0c0,.07,0,.14,0,.21a6,6,0,0,0,6,6h29.4a6,6,0,0,0,6-6c0-.07,0-.14,0-.21h0Z" transform="translate(-38.28)" style="fill:#fff"/><rect x="29.81" y="149.15" width="60.72" height="11.98" style="fill:#fff"/><path d="M147.91,23.76C139.41,11.57,127.27,4.66,113,1.68A77.19,77.19,0,0,0,98.41,0,77.19,77.19,0,0,0,83.77,1.68c-14.23,3-26.37,9.9-34.87,22.08C37.09,40.68,35.85,59.3,41.65,78.69c3.09,10.34,8.68,19.48,14.05,28.7,4.21,7.23,8.61,14.39,11,22.49a36.18,36.18,0,0,1,1.39,10.44H82.75c0-10.76-4.48-20.85-4.7-21.31-4.71-9.57-10-18.86-15.11-28.2-4.91-8.92-9.25-18-10-28.44-1-15.34,3.38-28.54,15.79-38a46.28,46.28,0,0,1,29.63-9.68A46.28,46.28,0,0,1,128,24.33c12.4,9.51,16.83,22.71,15.79,38-.71,10.39-5,19.52-10,28.44-5.14,9.34-10.41,18.63-15.11,28.2-.22.45-4.7,10.55-4.7,21.31h14.67a36.18,36.18,0,0,1,1.39-10.44c2.38-8.11,6.78-15.27,11-22.49,5.37-9.22,11-18.36,14.05-28.7C161,59.3,159.72,40.68,147.91,23.76Z" transform="translate(-38.28)" style="fill:#fdb515"/></svg>