<svg xmlns="http://www.w3.org/2000/svg" xmlns:xlink="http://www.w3.org/1999/xlink" version="1.1" class="ic-icon-svg ic-icon-svg--accounts" x="0" y="0" viewBox="0 0 200 224" enable-background="new 0 0 200 224" xml:space="preserve"><path d="M100 224l-3.1-1.5C31.5 190.2 0 145.8 0 85.9V36.8c0-4.6 2.3-8.4 5.4-11.5C15.4 17.6 43.8 0 100 0c55.4 0 84.6 17.6 94.6 25.3 3.8 3.1 5.4 6.9 5.4 11.5v49.1c0 59.8-31.5 104.3-96.9 136.5L100 224zM15.4 37.6v48.3c0 52.2 27.7 92.1 84.6 121.2 56.9-29.2 84.6-68.3 84.6-121.2V37.6c-7.7-5.4-33.1-21.5-84.6-21.5S23.1 32.2 15.4 37.6zM100 131.2l-36.2 19.2 6.9-40.7L41.5 81.3l40-5.4L100 39.1l18.5 36.8 40 5.4 -29.2 28.4 6.9 40.7L100 131.2z"/></svg>