<svg xmlns="http://www.w3.org/2000/svg" class="ic-icon-svg ic-icon-svg--grades" version="1.1" x="0" y="0" viewBox="0 0 215 280" enable-background="new 0 0 215 280" xml:space="preserve"><path d="M204.2 280H33.8C15.2 280 0 265.2 0 246.9V28.6c0 0 0 0 0 0C0 12.8 13.1 0 29.2 0H195c5.9 0 10.8 4.8 10.8 10.8v25c5.2 0.7 9.2 5.2 9.2 10.7v222.8C215 275.2 210.2 280 204.2 280zM21.5 56.2v190.8c0 6.5 5.4 11.5 12.3 11.5h159.7V57.2H29.2C26.5 57.2 23.9 56.8 21.5 56.2zM29.2 21.5c-4.2 0-7.7 3.2-7.7 7.1 0 3.9 3.4 7.1 7.7 7.1h155.1V21.5H29.2zM97.4 186.3c0.8 1.7 1.5 3 2.1 3.8 0.7 0.8 1.5 1.5 2.4 2 1 0.5 2.1 0.7 3.5 0.7 2.3 0 4.3-0.8 5.9-2.5 1.6-1.6 2.5-3.4 2.5-5.4 0-1.9-0.9-4.9-2.6-9.1L89 121.1c-1-2.7-1.9-4.9-2.6-6.6 -0.7-1.6-1.5-3.2-2.5-4.6 -1-1.4-2.3-2.6-3.9-3.5 -1.6-0.9-3.6-1.4-6-1.4 -2.3 0-4.3 0.5-5.9 1.4 -1.6 0.9-2.9 2.1-3.9 3.6 -1 1.5-1.9 3.3-2.8 5.5 -0.9 2.2-1.6 4.1-2.2 5.7l-21.7 55.1c-0.9 2.2-1.5 3.9-1.9 5.1 -0.4 1.2-0.6 2.4-0.6 3.6 0 2 0.8 3.8 2.5 5.4 1.7 1.6 3.6 2.4 5.7 2.4 2.5 0 4.4-0.7 5.5-2.2 1.1-1.5 2.5-4.3 4-8.6l4-10.9h34.4l4 10.6C96 183 96.6 184.5 97.4 186.3L97.4 186.3zM74 123.2l12.8 35H61.5L74 123.2 74 123.2zM158.9 157.1h22.2v-15.2h-22.2v-22.2H144v22.2h-22.1v15.2H144v22h14.9V157.1L158.9 157.1z"/></svg>