<svg xmlns="http://www.w3.org/2000/svg" xmlns:xlink="http://www.w3.org/1999/xlink" version="1.1" class="ic-icon-svg ic-icon-svg--groups" x="0" y="0" viewBox="0 0 200 135" enable-background="new 0 0 200 135" xml:space="preserve"><path d="M134.5 129.4c0-1.1 0-19.8-6.2-31.1 -4.5-8.5-16.4-12.4-35-19.2 -1.7-0.6-3.4-1.1-5.1-1.7v-8.5c5.6-5.1 8.5-12.4 8.5-20.3V29.4C96.6 13 83.6 0 67.2 0 50.8 0 37.9 13 37.9 29.4v19.2c0 7.3 3.4 14.7 8.5 20.3v8.5c-1.7 0.6-3.4 1.1-5.1 1.7 -18.6 6.2-30.5 10.7-35 19.2C0 109.6 0 128.8 0 129.4c0 3.4 2.3 5.6 5.6 5.6h123.7C132.8 135 135 132.7 134.5 129.4zM11.3 123.7c0.6-5.6 1.7-14.7 3.4-19.8 2.3-5.1 15.3-9.6 28.8-14.1 2.8-1.1 5.6-2.3 9-3.4 2.3-0.6 4-2.8 4-5.1V66.7c0-1.7-0.6-3.4-1.7-4.5 -4-3.4-6.2-8.5-6.2-13.6V29.4c0-10.2 7.9-18.1 18.1-18.1s18.1 7.9 18.1 18.1v19.2c0 5.1-2.3 10.2-6.2 13.6 -1.1 1.1-1.7 2.8-1.7 4.5v14.7c0 2.3 1.7 4.5 4 5.1 2.8 1.1 6.2 2.3 9 3.4 13.6 5.1 26.6 9.6 28.8 14.1 2.8 5.1 4 13.6 4.5 19.8H11.3zM196 79.1c-2.8-6.2-11.3-9.6-22.6-13.6l-1.7-0.6v-3.4c4.5-4 6.8-9.6 6.8-15.8V35c0-12.4-9.6-22-22-22 -12.4 0-22 10.2-22 22v10.7c0 6.2 2.3 11.9 6.8 15.8V65l-1.7 0.6c-7.3 2.8-13 4.5-16.9 7.3 -1.7 1.1-2.3 2.8-2.3 5.1 0.6 1.7 1.7 3.4 3.4 4.5 7.9 4 12.4 7.3 14.1 10.7 2.3 4.5 4 10.2 5.1 18.1 0.6 2.3 2.8 4.5 5.6 4.5h45.8c3.4 0 5.6-2.8 5.6-5.1C200 106.8 200 86.4 196 79.1zM153.1 104.5c-1.1-6.8-2.8-12.4-5.1-16.9 -1.7-4-5.1-6.8-9.6-10.2 1.7-1.1 3.4-1.7 5.1-2.3l5.6-2.3c1.7-0.6 3.4-2.8 3.4-5.1v-9.6c0-1.7-0.6-3.4-2.3-4.5 -2.8-1.7-4.5-5.1-4.5-8.5V34.5c0-6.2 4.5-10.7 10.7-10.7s10.7 5.1 10.7 10.7v10.7c0 3.4-1.7 6.2-4.5 8.5 -1.1 1.1-2.3 2.8-2.3 4.5v10.2c0 2.3 1.1 4.5 3.4 5.1l5.6 2.3c6.8 2.3 15.3 5.6 16.4 7.9 1.7 2.8 2.8 12.4 2.8 20.9H153.1z"/></svg>