<svg version="1.1" class="svg-canvas-logo" xmlns="http://www.w3.org/2000/svg" xmlns:xlink="http://www.w3.org/1999/xlink" x="0px" y="0px" viewBox="0 0 115 27" width="115" height="27" enable-background="new 0 0 115 27" xml:space="preserve">
  <g class="svg-logo-canvas__logomark">
    <path id="Shape" fill="#D64027" d="M3.9,13.5c0-2-1.5-3.6-3.4-3.8C0.2,10.9,0,12.1,0,13.5s0.2,2.6,0.5,3.8C2.4,17.1,3.9,15.4,3.9,13.5L3.9,13.5z"/><circle id="Oval" fill="#D64027" cx="6.2" cy="13.4" r="1.2"/>
    <path id="Shape_1_" fill="#D64027" d="M22.8,13.5c0,2,1.5,3.6,3.4,3.8c0.3-1.2,0.5-2.5,0.5-3.8s-0.2-2.6-0.5-3.8C24.3,9.9,22.8,11.5,22.8,13.5L22.8,13.5z"/><circle id="Oval_1_" fill="#D64027" cx="20.2" cy="13.4" r="1.2"/>
    <path id="Shape_2_" fill="#D64027" d="M13.3,23c-2,0-3.6,1.5-3.8,3.4c1.2,0.3,2.5,0.5,3.8,0.5c1.3,0,2.6-0.2,3.8-0.5C16.9,24.5,15.3,23,13.3,23L13.3,23z"/><circle id="Oval_2_" fill="#D64027" cx="13.2" cy="20.4" r="1.2"/>
    <path id="Shape_3_" fill="#D64027" d="M13.3,4c2,0,3.6-1.5,3.8-3.4c-1.2-0.3-2.5-0.5-3.8-0.5c-1.3,0-2.6,0.2-3.8,0.5C9.7,2.5,11.3,4,13.3,4L13.3,4z"/><circle id="Oval_3_" fill="#D64027" cx="13.2" cy="6.4" r="1.2"/>
    <path id="Shape_4_" fill="#D64027" d="M20,20.2c-1.4,1.4-1.5,3.6-0.3,5.1c2.2-1.3,4.1-3.2,5.4-5.4C23.6,18.7,21.4,18.8,20,20.2L20,20.2z"/><circle id="Oval_4_" fill="#D64027" cx="18.2" cy="18.4" r="1.2"/>
    <path id="Shape_5_" fill="#D64027" d="M6.6,6.8C8,5.4,8.1,3.2,6.9,1.7C4.7,3,2.8,4.9,1.5,7.1C3,8.3,5.2,8.2,6.6,6.8L6.6,6.8z"/>
    <circle id="Oval_5_" fill="#D64027" cx="8.2" cy="8.4" r="1.2"/><path id="Shape_6_" fill="#D64027" d="M20,6.8c1.4,1.4,3.6,1.5,5.1,0.3c-1.3-2.2-3.2-4.1-5.4-5.4C18.5,3.2,18.6,5.4,20,6.8L20,6.8z"/><circle id="Oval_6_" fill="#D64027" cx="18.2" cy="8.4" r="1.2"/>
    <path id="Shape_7_" fill="#D64027" d="M6.6,20.2c-1.4-1.4-3.6-1.5-5.1-0.3c1.3,2.2,3.2,4.1,5.4,5.4C8.1,23.7,8,21.6,6.6,20.2L6.6,20.2z"/>
    <circle id="Oval_7_" fill="#D64027" cx="8.2" cy="18.4" r="1.2"/>
  </g>
  <g class="svg-logo-canvas__logotype" transform="translate(37.000000, 8.000000)">
    <path id="Shape_8_" fill="#FFFFFF" d="M5.8,12.2c-3,0-5.8-1.8-5.8-6.7s2.9-6.7,5.8-6.7c1.8,0,3.1,0.5,4.3,1.8L8.4,2.4C7.5,1.5,6.9,1.1,5.8,1.1c-1,0-1.9,0.4-2.4,1.2C2.8,3,2.6,4,2.6,5.5S2.8,8,3.4,8.7C4,9.4,4.8,9.9,5.8,9.9c1,0,1.7-0.3,2.5-1.2l1.8,1.7C8.9,11.7,7.7,12.2,5.8,12.2L5.8,12.2z"/>
    <path id="Shape_9_" fill="#FFFFFF" d="M20.3,12.1v-1.2c-1,1-1.9,1.3-3.5,1.3c-1.6,0-2.7-0.4-3.5-1.2c-0.7-0.7-1-1.7-1-2.8c0-2.2,1.5-3.8,4.5-3.8h3.5V3.5c0-1.7-0.8-2.5-2.9-2.5c-1.4,0-2.1,0.3-2.9,1.3l-1.7-1.6c1.2-1.4,2.5-1.9,4.7-1.9c3.6,0,5.4,1.5,5.4,4.5v8.8H20.3L20.3,12.1z M20.3,6.3h-3.1c-1.6,0-2.4,0.7-2.4,1.9s0.8,1.9,2.4,1.9c1,0,1.8-0.1,2.5-0.8c0.4-0.4,0.6-1,0.6-1.9V6.3L20.3,6.3z"/>
    <path id="Shape_10_" fill="#FFFFFF" d="M35.2,12.1v-8c0-2-1.2-2.9-2.6-2.9c-1.5,0-2.7,0.9-2.7,2.9v8h-2.6V-1.1h2.6v1.3c0.9-1,2.2-1.5,3.5-1.5c1.3,0,2.5,0.4,3.2,1.2c1,1,1.3,2.2,1.3,3.7v8.4L35.2,12.1L35.2,12.1z"/><path id="Shape_11_" fill="#FFFFFF" d="M47.3,12.1h-2.1L40.3-1.1h2.8l3.1,9.2l3.1-9.2h2.8L47.3,12.1L47.3,12.1z"/>
    <path id="Shape_12_" fill="#FFFFFF" d="M61.6,12.1v-1.2c-1,1-1.9,1.3-3.5,1.3c-1.6,0-2.7-0.4-3.5-1.2c-0.7-0.7-1-1.7-1-2.8c0-2.2,1.5-3.8,4.5-3.8h3.5V3.5c0-1.7-0.8-2.5-2.9-2.5c-1.4,0-2.1,0.3-2.9,1.3l-1.7-1.6c1.2-1.4,2.5-1.9,4.7-1.9c3.6,0,5.4,1.5,5.4,4.5v8.8H61.6L61.6,12.1z M61.6,6.3h-3.1c-1.6,0-2.4,0.7-2.4,1.9s0.8,1.9,2.4,1.9c1,0,1.8-0.1,2.5-0.8c0.4-0.4,0.6-1,0.6-1.9V6.3L61.6,6.3z"/>
    <path id="Shape_13_" fill="#FFFFFF" d="M72.4,12.2c-2.1,0-4-0.4-5.5-1.9l1.7-1.7c1.1,1.1,2.5,1.4,3.8,1.4c1.6,0,2.9-0.6,2.9-1.8c0-0.9-0.5-1.4-1.8-1.6l-2.1-0.2c-2.5-0.2-3.9-1.3-3.9-3.6c0-2.6,2.2-4,4.9-4c2,0,3.6,0.4,4.9,1.5l-1.7,1.7c-0.8-0.7-2-1-3.2-1C70.8,1,70,1.7,70,2.7c0,0.8,0.4,1.4,1.8,1.5l2.1,0.2c2.5,0.2,3.9,1.4,3.9,3.7C77.8,10.8,75.5,12.2,72.4,12.2L72.4,12.2z"/>
  </g>
</svg>