<svg xmlns="http://www.w3.org/2000/svg" class="ic-icon-svg ic-icon-svg--arrow-right" version="1.1" x="0" y="0" viewBox="0 0 280 280" enable-background="new 0 0 280 280" xml:space="preserve"><defs><rect x="-580" y="-372" width="1440" height="1024"/></defs><clipPath><use overflow="visible"/></clipPath><g clip-path="url(#SVGID_2_)"><defs><path d="M-557-42h-3v-3h3V-42zM-572-57h27v27h-27V-57z"/></defs><clipPath><use overflow="visible"/></clipPath><rect x="-560" y="-45" clip-path="url(#SVGID_4_)" fill="none" stroke="#FFFFFF" stroke-width="4" stroke-linecap="round" stroke-linejoin="round" stroke-miterlimit="10" width="3" height="3"/></g><defs><rect x="-580" y="-372" width="1440" height="1024"/></defs><clipPath><use overflow="visible"/></clipPath><g clip-path="url(#SVGID_6_)"><defs><path d="M-557-24h-3v-3h3V-24zM-572-39h27v27h-27V-39z"/></defs><clipPath><use overflow="visible"/></clipPath><rect x="-560" y="-27" clip-path="url(#SVGID_8_)" fill="none" stroke="#FFFFFF" stroke-width="4" stroke-linecap="round" stroke-linejoin="round" stroke-miterlimit="10" width="3" height="3"/></g><defs><rect x="-580" y="-372" width="1440" height="1024"/></defs><clipPath><use overflow="visible"/></clipPath><g clip-path="url(#SVGID_10_)"><defs><path d="M-539-33h-3v-3h3V-33zM-554-48h27v27h-27V-48z"/></defs><clipPath><use overflow="visible"/></clipPath><rect x="-542" y="-36" clip-path="url(#SVGID_12_)" fill="none" stroke="#FFFFFF" stroke-width="4" stroke-linecap="round" stroke-linejoin="round" stroke-miterlimit="10" width="3" height="3"/></g><defs><rect x="-580" y="-372" width="1440" height="1024"/></defs><clipPath><use overflow="visible"/></clipPath><g clip-path="url(#SVGID_14_)"><defs><path d="M-539-42h-3v-3h3V-42zM-554-57h27v27h-27V-57z"/></defs><clipPath><use overflow="visible"/></clipPath><rect x="-542" y="-45" clip-path="url(#SVGID_16_)" fill="none" stroke="#FFFFFF" stroke-width="4" stroke-linecap="round" stroke-linejoin="round" stroke-miterlimit="10" width="3" height="3"/></g><defs><rect x="-580" y="-372" width="1440" height="1024"/></defs><clipPath><use overflow="visible"/></clipPath><g clip-path="url(#SVGID_18_)"><defs><path d="M-539-24h-3v-3h3V-24zM-554-39h27v27h-27V-39z"/></defs><clipPath><use overflow="visible"/></clipPath><rect x="-542" y="-27" clip-path="url(#SVGID_20_)" fill="none" stroke="#FFFFFF" stroke-width="4" stroke-linecap="round" stroke-linejoin="round" stroke-miterlimit="10" width="3" height="3"/></g><defs><rect x="-580" y="-372" width="1440" height="1024"/></defs><clipPath><use overflow="visible"/></clipPath><g clip-path="url(#SVGID_22_)"><defs><path d="M-557-33h-3v-3h3V-33zM-572-48h27v27h-27V-48z"/></defs><clipPath><use overflow="visible"/></clipPath><rect x="-560" y="-36" clip-path="url(#SVGID_24_)" fill="none" stroke="#FFFFFF" stroke-width="4" stroke-linecap="round" stroke-linejoin="round" stroke-miterlimit="10" width="3" height="3"/></g><defs><rect x="-580" y="-372" width="1440" height="1024"/></defs><clipPath><use overflow="visible"/></clipPath><g clip-path="url(#SVGID_26_)"><defs><path d="M-548-42h-3v-3h3V-42zM-563-57h27v27h-27V-57z"/></defs><clipPath><use overflow="visible"/></clipPath><rect x="-551" y="-45" clip-path="url(#SVGID_28_)" fill="none" stroke="#FFFFFF" stroke-width="4" stroke-linecap="round" stroke-linejoin="round" stroke-miterlimit="10" width="3" height="3"/></g><defs><rect x="-580" y="-372" width="1440" height="1024"/></defs><clipPath><use overflow="visible"/></clipPath><g clip-path="url(#SVGID_30_)"><defs><path d="M-548-24h-3v-3h3V-24zM-563-39h27v27h-27V-39z"/></defs><clipPath><use overflow="visible"/></clipPath><rect x="-551" y="-27" clip-path="url(#SVGID_32_)" fill="none" stroke="#FFFFFF" stroke-width="4" stroke-linecap="round" stroke-linejoin="round" stroke-miterlimit="10" width="3" height="3"/></g><defs><rect x="-580" y="-372" width="1440" height="1024"/></defs><clipPath><use overflow="visible"/></clipPath><g clip-path="url(#SVGID_34_)"><defs><path d="M-548-33h-3v-3h3V-33zM-563-48h27v27h-27V-48z"/></defs><clipPath><use overflow="visible"/></clipPath><rect x="-551" y="-36" clip-path="url(#SVGID_36_)" fill="none" stroke="#FFFFFF" stroke-width="4" stroke-linecap="round" stroke-linejoin="round" stroke-miterlimit="10" width="3" height="3"/></g><path d="M169.2 251c-4.7 0-9.3-1.9-12.8-5.5 -6.6-7.1-6.2-18.2 0.8-24.8l61.1-57.3H17.5c-9.7 0-17.5-7.9-17.5-17.5 0-9.7 7.8-17.5 17.5-17.5H222l-65.6-69.8c-6.6-7-6.3-18.1 0.8-24.8 7-6.6 18.1-6.3 24.7 0.8l93.3 99.3c3.2 3.4 4.9 7.9 4.7 12.6s-2.1 9.1-5.5 12.2l-93.3 87.6C177.8 249.4 173.5 251 169.2 251z"/></svg>