<svg version="1.1" class="menu-item__icon svg-icon-mail" xmlns="http://www.w3.org/2000/svg" xmlns:xlink="http://www.w3.org/1999/xlink" x="0px" y="0px" viewBox="0 0 52 36" enable-background="new 0 0 52 36" xml:space="preserve">
  <title>icon-inbox</title>
  <path d="M50.5,2.6c0-0.2-0.1-0.4-0.3-0.6c-0.2-0.3-0.5-0.5-0.9-0.5c-0.8-0.6-1.9-0.9-3.1-0.9H5.7c-1.2,0-2.2,0.4-3.1,0.9C2.3,1.5,2,1.7,1.7,2C1.6,2.2,1.5,2.4,1.5,2.6c-0.6,0.8-1,1.9-1,3v24.7c0,2.9,2.2,5.2,5.2,5.2h40.6c3,0,5.2-2.2,5.2-5.2V5.7C51.5,4.5,51.1,3.5,50.5,2.6z M45.9,3.5L26,19.3L6.1,3.5H45.9z M48.5,30.3c0,1.3-0.9,2.2-2.2,2.2H5.7c-1.3,0-2.2-0.9-2.2-2.2V5.7c0-0.1,0-0.2,0-0.3l21.5,17.1c0.3,0.2,0.6,0.3,0.9,0.3s0.7-0.1,0.9-0.3L48.5,5.3c0,0.1,0,0.2,0,0.3V30.3z"/>
</svg>