<svg xmlns="http://www.w3.org/2000/svg" class="ic-icon-svg ic-icon-svg--help" version="1.1" x="0" y="0" viewBox="0 0 280 280" enable-background="new 0 0 280 280" xml:space="preserve"><defs><rect x="-580" y="-372" width="1440" height="1024"/></defs><clipPath><use overflow="visible"/></clipPath><g clip-path="url(#SVGID_2_)"><defs><path d="M-557-42h-3v-3h3V-42zM-572-57h27v27h-27V-57z"/></defs><clipPath><use overflow="visible"/></clipPath><rect x="-560" y="-45" clip-path="url(#SVGID_4_)" fill="none" stroke="#FFFFFF" stroke-width="4" stroke-linecap="round" stroke-linejoin="round" stroke-miterlimit="10" width="3" height="3"/></g><defs><rect x="-580" y="-372" width="1440" height="1024"/></defs><clipPath><use overflow="visible"/></clipPath><g clip-path="url(#SVGID_6_)"><defs><path d="M-557-24h-3v-3h3V-24zM-572-39h27v27h-27V-39z"/></defs><clipPath><use overflow="visible"/></clipPath><rect x="-560" y="-27" clip-path="url(#SVGID_8_)" fill="none" stroke="#FFFFFF" stroke-width="4" stroke-linecap="round" stroke-linejoin="round" stroke-miterlimit="10" width="3" height="3"/></g><defs><rect x="-580" y="-372" width="1440" height="1024"/></defs><clipPath><use overflow="visible"/></clipPath><g clip-path="url(#SVGID_10_)"><defs><path d="M-539-33h-3v-3h3V-33zM-554-48h27v27h-27V-48z"/></defs><clipPath><use overflow="visible"/></clipPath><rect x="-542" y="-36" clip-path="url(#SVGID_12_)" fill="none" stroke="#FFFFFF" stroke-width="4" stroke-linecap="round" stroke-linejoin="round" stroke-miterlimit="10" width="3" height="3"/></g><defs><rect x="-580" y="-372" width="1440" height="1024"/></defs><clipPath><use overflow="visible"/></clipPath><g clip-path="url(#SVGID_14_)"><defs><path d="M-539-42h-3v-3h3V-42zM-554-57h27v27h-27V-57z"/></defs><clipPath><use overflow="visible"/></clipPath><rect x="-542" y="-45" clip-path="url(#SVGID_16_)" fill="none" stroke="#FFFFFF" stroke-width="4" stroke-linecap="round" stroke-linejoin="round" stroke-miterlimit="10" width="3" height="3"/></g><defs><rect x="-580" y="-372" width="1440" height="1024"/></defs><clipPath><use overflow="visible"/></clipPath><g clip-path="url(#SVGID_18_)"><defs><path d="M-539-24h-3v-3h3V-24zM-554-39h27v27h-27V-39z"/></defs><clipPath><use overflow="visible"/></clipPath><rect x="-542" y="-27" clip-path="url(#SVGID_20_)" fill="none" stroke="#FFFFFF" stroke-width="4" stroke-linecap="round" stroke-linejoin="round" stroke-miterlimit="10" width="3" height="3"/></g><defs><rect x="-580" y="-372" width="1440" height="1024"/></defs><clipPath><use overflow="visible"/></clipPath><g clip-path="url(#SVGID_22_)"><defs><path d="M-557-33h-3v-3h3V-33zM-572-48h27v27h-27V-48z"/></defs><clipPath><use overflow="visible"/></clipPath><rect x="-560" y="-36" clip-path="url(#SVGID_24_)" fill="none" stroke="#FFFFFF" stroke-width="4" stroke-linecap="round" stroke-linejoin="round" stroke-miterlimit="10" width="3" height="3"/></g><defs><rect x="-580" y="-372" width="1440" height="1024"/></defs><clipPath><use overflow="visible"/></clipPath><g clip-path="url(#SVGID_26_)"><defs><path d="M-548-42h-3v-3h3V-42zM-563-57h27v27h-27V-57z"/></defs><clipPath><use overflow="visible"/></clipPath><rect x="-551" y="-45" clip-path="url(#SVGID_28_)" fill="none" stroke="#FFFFFF" stroke-width="4" stroke-linecap="round" stroke-linejoin="round" stroke-miterlimit="10" width="3" height="3"/></g><defs><rect x="-580" y="-372" width="1440" height="1024"/></defs><clipPath><use overflow="visible"/></clipPath><g clip-path="url(#SVGID_30_)"><defs><path d="M-548-24h-3v-3h3V-24zM-563-39h27v27h-27V-39z"/></defs><clipPath><use overflow="visible"/></clipPath><rect x="-551" y="-27" clip-path="url(#SVGID_32_)" fill="none" stroke="#FFFFFF" stroke-width="4" stroke-linecap="round" stroke-linejoin="round" stroke-miterlimit="10" width="3" height="3"/></g><defs><rect x="-580" y="-372" width="1440" height="1024"/></defs><clipPath><use overflow="visible"/></clipPath><g clip-path="url(#SVGID_34_)"><defs><path d="M-548-33h-3v-3h3V-33zM-563-48h27v27h-27V-48z"/></defs><clipPath><use overflow="visible"/></clipPath><rect x="-551" y="-36" clip-path="url(#SVGID_36_)" fill="none" stroke="#FFFFFF" stroke-width="4" stroke-linecap="round" stroke-linejoin="round" stroke-miterlimit="10" width="3" height="3"/></g><path d="M140 20c32.1 0 62.2 12.5 84.9 35.1C247.5 77.8 260 107.9 260 140s-12.5 62.2-35.1 84.9C202.2 247.5 172.1 260 140 260s-62.2-12.5-84.9-35.1C32.5 202.2 20 172.1 20 140s12.5-62.2 35.1-84.9C77.8 32.5 107.9 20 140 20M140 0C62.7 0 0 62.7 0 140s62.7 140 140 140 140-62.7 140-140S217.3 0 140 0L140 0z"/><path d="M94.7 109.3c0-5.7 1.8-11.5 5.5-17.4 3.7-5.9 9.1-10.8 16.1-14.6 7.1-3.9 15.3-5.8 24.7-5.8 8.7 0 16.5 1.6 23.2 4.8 6.7 3.2 11.9 7.6 15.5 13.2 3.7 5.6 5.5 11.6 5.5 18.1 0 5.1-1 9.6-3.1 13.5 -2.1 3.9-4.6 7.2-7.4 10 -2.9 2.8-8 7.5-15.4 14.2 -2.1 1.9-3.7 3.5-4.9 4.9 -1.2 1.4-2.2 2.7-2.8 3.9 -0.6 1.2-1.1 2.4-1.4 3.5 -0.3 1.2-0.8 3.2-1.5 6.2 -1.1 6.3-4.7 9.4-10.8 9.4 -3.1 0-5.8-1-7.9-3.1 -2.1-2.1-3.2-5.1-3.2-9.1 0-5.1 0.8-9.5 2.4-13.2 1.6-3.7 3.7-7 6.2-9.8 2.6-2.8 6.1-6.1 10.5-10 3.9-3.4 6.7-5.9 8.4-7.6 1.7-1.7 3.2-3.6 4.3-5.7 1.2-2.1 1.8-4.4 1.8-6.9 0-4.8-1.8-8.9-5.4-12.2 -3.6-3.3-8.2-5-13.9-5 -6.6 0-11.5 1.7-14.7 5 -3.1 3.3-5.8 8.3-8 14.8 -2.1 6.8-5.9 10.2-11.7 10.2 -3.4 0-6.2-1.2-8.6-3.6C95.9 114.7 94.7 112.1 94.7 109.3zM138.9 208.5c-3.7 0-6.9-1.2-9.6-3.6 -2.7-2.4-4.1-5.7-4.1-10 0-3.8 1.3-7 4-9.6 2.7-2.6 5.9-3.9 9.8-3.9 3.8 0 7 1.3 9.6 3.9 2.6 2.6 3.9 5.8 3.9 9.6 0 4.2-1.4 7.5-4.1 10C145.6 207.3 142.5 208.5 138.9 208.5z"/></svg>