<svg version="1.1" class="menu-item__icon svg-icon-calendar" xmlns="http://www.w3.org/2000/svg" xmlns:xlink="http://www.w3.org/1999/xlink" x="0px" y="0px" viewBox="0 0 44 45" enable-background="new 0 0 44 45" xml:space="preserve"><title>icon-calendar</title>
  <path fill="#FFFFFF" d="M43.6,23.5v-3h-0.1V6c0-0.8-0.7-1.5-1.5-1.5h-5.5V2c0-0.8-0.7-1.5-1.5-1.5h-5c-0.8,0-1.5,0.7-1.5,1.5v2.5h-14V2c0-0.8-0.7-1.5-1.5-1.5H8C7.2,0.5,6.5,1.2,6.5,2v2.5H2C1.2,4.5,0.5,5.2,0.5,6v37c0,0.8,0.7,1.5,1.5,1.5h40c0.8,0,1.5-0.7,1.5-1.5v-5.5h0.1v-3h-0.1v-4h0.1v-3h-0.1v-4H43.6z M3.5,23.5h7v4h-7V23.5z M13.5,23.5h7v4h-7V23.5z M13.5,20.5v-4h7v4H13.5z M10.5,20.5h-7v-4h7V20.5z M3.5,30.5h7v4h-7V30.5z M13.5,30.5h7v4h-7V30.5z M20.5,37.5v4h-7v-4H20.5z M23.5,37.5h7v4h-7V37.5z M23.5,34.5v-4h7v4H23.5z M23.5,27.5v-4h7v4H23.5z M23.5,20.5v-4h7v4H23.5z M33.5,16.5h7v4h-7V16.5z M31.5,3.5h2v4h-2V3.5z M11.5,3.5v4h-2V6c0,0,0,0,0,0s0,0,0,0V3.5H11.5z M6.5,7.5V9c0,0.8,0.7,1.5,1.5,1.5h5c0.8,0,1.5-0.7,1.5-1.5V7.5h14V9c0,0.8,0.7,1.5,1.5,1.5h5c0.8,0,1.5-0.7,1.5-1.5V7.5h4v6h-37v-6H6.5z M3.5,37.5h7v4h-7V37.5z M40.5,41.5h-7v-4h7V41.5z M40.5,34.5h-7v-4h7V34.5z M40.5,27.5h-7v-4h7V27.5z"/>
</svg>