<svg xmlns="http://www.w3.org/2000/svg" class="ic-icon-svg ic-icon-svg--dashboard" version="1.1" x="0" y="0" viewBox="0 0 280 200" enable-background="new 0 0 280 200" xml:space="preserve"><path d="M231.6 94.2c-2.5-4.9-8.5-6.9-13.4-4.5l-57.3 28.6c-5.4-5.2-12.7-8.4-20.8-8.4 -16.6 0-30 13.5-30 30 0 16.6 13.5 30 30 30 16.6 0 30-13.5 30-30 0-1.3-0.1-2.5-0.2-3.8l57.3-28.6C232 105.2 234 99.2 231.6 94.2zM140 150c-5.5 0-10-4.5-10-10s4.5-10 10-10c5.5 0 10 4.5 10 10S145.6 150 140 150zM70 150H50c-5.5 0-10-4.5-10-10s4.5-10 10-10h20c5.5 0 10 4.5 10 10S75.5 150 70 150zM140 80c-5.5 0-10-4.5-10-10V50c0-5.5 4.5-10 10-10 5.5 0 10 4.5 10 10v20C150 75.5 145.5 80 140 80zM105 89.6c-3.5 0-6.8-1.8-8.7-5l-10-17.3c-2.8-4.8-1.1-10.9 3.7-13.7 4.8-2.8 10.9-1.1 13.7 3.7l10 17.3c2.8 4.8 1.1 10.9-3.7 13.7C108.4 89.1 106.7 89.6 105 89.6zM79.4 115.4c-1.7 0-3.4-0.4-5-1.3l-17.3-10c-4.8-2.8-6.4-8.9-3.7-13.7 2.8-4.8 8.9-6.4 13.7-3.7l17.3 10c4.8 2.8 6.4 8.9 3.7 13.7C86.2 113.6 82.8 115.4 79.4 115.4zM173.6 89.6c-1.7 0-3.4-0.4-5-1.3 -4.8-2.8-6.4-8.9-3.7-13.7l10-17.3c2.8-4.8 8.9-6.4 13.7-3.7 4.8 2.8 6.4 8.9 3.7 13.7l-10 17.3C180.4 87.8 177.1 89.6 173.6 89.6zM140 0C62.8 0 0 63 0 140.5V190c0 5.5 4.5 10 10 10h260c5.5 0 10-4.5 10-10v-49.5C280 63 217.2 0 140 0zM260 180H20v-39.5C20 74.1 73.8 20 140 20c66.2 0 120 54.1 120 120.5V180zM230 150h-20c-5.5 0-10-4.5-10-10s4.5-10 10-10h20c5.5 0 10 4.5 10 10S235.5 150 230 150z"/></svg>