<svg id="Layer_1" xmlns="http://www.w3.org/2000/svg" viewBox="0 0 1920 1920"><style>.st0{fill:#00AC18;}</style><path class="st0" d="M341.1 800C412.4 524.4 662.4 320 960 320c281 0 519.6 182.2 605.5 434.5L1360 960h480V480l-151.4 151.4C1562.9 353.9 1283.9 160 960 160c-386.3 0-709.5 275.3-783.8 640h164.9zm1237.8 320c-71.4 275.6-321.4 480-618.9 480-280.9 0-519.6-182.2-605.5-434.5L560 960H80v480l151.4-151.4C357.1 1566.1 636.1 1760 960 1760c386.3 0 709.5-275.3 783.9-640h-165zm-686.1 234.2l-323.5-323.4 141.4-141.4L867.3 1046l331.4-463.9 162.7 116.2-468.6 655.9z"/></svg>