<svg xmlns="http://www.w3.org/2000/svg" class="ic-icon-svg ic-icon-svg--apps" version="1.1" x="0" y="0" viewBox="0 0 280 280" enable-background="new 0 0 280 280" xml:space="preserve"><defs><rect x="-580" y="-372" width="1440" height="1024"/></defs><clipPath><use overflow="visible"/></clipPath><g clip-path="url(#SVGID_2_)"><defs><path d="M-557-42h-3v-3h3V-42zM-572-57h27v27h-27V-57z"/></defs><clipPath><use overflow="visible"/></clipPath><rect x="-560" y="-45" clip-path="url(#SVGID_4_)" fill="none" stroke="#FFFFFF" stroke-width="4" stroke-linecap="round" stroke-linejoin="round" stroke-miterlimit="10" width="3" height="3"/></g><defs><rect x="-580" y="-372" width="1440" height="1024"/></defs><clipPath><use overflow="visible"/></clipPath><g clip-path="url(#SVGID_6_)"><defs><path d="M-557-24h-3v-3h3V-24zM-572-39h27v27h-27V-39z"/></defs><clipPath><use overflow="visible"/></clipPath><rect x="-560" y="-27" clip-path="url(#SVGID_8_)" fill="none" stroke="#FFFFFF" stroke-width="4" stroke-linecap="round" stroke-linejoin="round" stroke-miterlimit="10" width="3" height="3"/></g><defs><rect x="-580" y="-372" width="1440" height="1024"/></defs><clipPath><use overflow="visible"/></clipPath><g clip-path="url(#SVGID_10_)"><defs><path d="M-539-33h-3v-3h3V-33zM-554-48h27v27h-27V-48z"/></defs><clipPath><use overflow="visible"/></clipPath><rect x="-542" y="-36" clip-path="url(#SVGID_12_)" fill="none" stroke="#FFFFFF" stroke-width="4" stroke-linecap="round" stroke-linejoin="round" stroke-miterlimit="10" width="3" height="3"/></g><defs><rect x="-580" y="-372" width="1440" height="1024"/></defs><clipPath><use overflow="visible"/></clipPath><g clip-path="url(#SVGID_14_)"><defs><path d="M-539-42h-3v-3h3V-42zM-554-57h27v27h-27V-57z"/></defs><clipPath><use overflow="visible"/></clipPath><rect x="-542" y="-45" clip-path="url(#SVGID_16_)" fill="none" stroke="#FFFFFF" stroke-width="4" stroke-linecap="round" stroke-linejoin="round" stroke-miterlimit="10" width="3" height="3"/></g><defs><rect x="-580" y="-372" width="1440" height="1024"/></defs><clipPath><use overflow="visible"/></clipPath><g clip-path="url(#SVGID_18_)"><defs><path d="M-539-24h-3v-3h3V-24zM-554-39h27v27h-27V-39z"/></defs><clipPath><use overflow="visible"/></clipPath><rect x="-542" y="-27" clip-path="url(#SVGID_20_)" fill="none" stroke="#FFFFFF" stroke-width="4" stroke-linecap="round" stroke-linejoin="round" stroke-miterlimit="10" width="3" height="3"/></g><defs><rect x="-580" y="-372" width="1440" height="1024"/></defs><clipPath><use overflow="visible"/></clipPath><g clip-path="url(#SVGID_22_)"><defs><path d="M-557-33h-3v-3h3V-33zM-572-48h27v27h-27V-48z"/></defs><clipPath><use overflow="visible"/></clipPath><rect x="-560" y="-36" clip-path="url(#SVGID_24_)" fill="none" stroke="#FFFFFF" stroke-width="4" stroke-linecap="round" stroke-linejoin="round" stroke-miterlimit="10" width="3" height="3"/></g><defs><rect x="-580" y="-372" width="1440" height="1024"/></defs><clipPath><use overflow="visible"/></clipPath><g clip-path="url(#SVGID_26_)"><defs><path d="M-548-42h-3v-3h3V-42zM-563-57h27v27h-27V-57z"/></defs><clipPath><use overflow="visible"/></clipPath><rect x="-551" y="-45" clip-path="url(#SVGID_28_)" fill="none" stroke="#FFFFFF" stroke-width="4" stroke-linecap="round" stroke-linejoin="round" stroke-miterlimit="10" width="3" height="3"/></g><defs><rect x="-580" y="-372" width="1440" height="1024"/></defs><clipPath><use overflow="visible"/></clipPath><g clip-path="url(#SVGID_30_)"><defs><path d="M-548-24h-3v-3h3V-24zM-563-39h27v27h-27V-39z"/></defs><clipPath><use overflow="visible"/></clipPath><rect x="-551" y="-27" clip-path="url(#SVGID_32_)" fill="none" stroke="#FFFFFF" stroke-width="4" stroke-linecap="round" stroke-linejoin="round" stroke-miterlimit="10" width="3" height="3"/></g><defs><rect x="-580" y="-372" width="1440" height="1024"/></defs><clipPath><use overflow="visible"/></clipPath><g clip-path="url(#SVGID_34_)"><defs><path d="M-548-33h-3v-3h3V-33zM-563-48h27v27h-27V-48z"/></defs><clipPath><use overflow="visible"/></clipPath><rect x="-551" y="-36" clip-path="url(#SVGID_36_)" fill="none" stroke="#FFFFFF" stroke-width="4" stroke-linecap="round" stroke-linejoin="round" stroke-miterlimit="10" width="3" height="3"/></g><path fill-rule="evenodd" clip-rule="evenodd" d="M78 23C78 10.3 67.7 0 55 0H22C9.3 0-1 10.3-1 23v33c0 12.7 10.3 23 23 23h33c12.7 0 23-10.3 23-23V23zM61 62H16V17h45V62zM78 224c0-12.7-10.3-23-23-23H22c-12.7 0-23 10.3-23 23v33c0 12.7 10.3 23 23 23h33c12.7 0 23-10.3 23-23V224zM61 263H16v-45h45V263zM280 23c0-12.7-10.3-23-23-23h-33c-12.7 0-23 10.3-23 23v33c0 12.7 10.3 23 23 23h33c12.7 0 23-10.3 23-23V23zM263 62h-45V17h45V62zM179 23c0-12.7-10.3-23-23-23h-33c-12.7 0-23 10.3-23 23v33c0 12.7 10.3 23 23 23h33c12.7 0 23-10.3 23-23V23zM162 62h-45V17h45V62zM179 124c0-12.7-10.3-23-23-23h-33c-12.7 0-23 10.3-23 23v33c0 12.7 10.3 23 23 23h33c12.7 0 23-10.3 23-23V124zM162 163h-45v-45h45V163zM179 224c0-12.7-10.3-23-23-23h-33c-12.7 0-23 10.3-23 23v33c0 12.7 10.3 23 23 23h33c12.7 0 23-10.3 23-23V224zM162 263h-45v-45h45V263zM280 224c0-12.7-10.3-23-23-23h-33c-12.7 0-23 10.3-23 23v33c0 12.7 10.3 23 23 23h33c12.7 0 23-10.3 23-23V224zM263 263h-45v-45h45V263zM78 124c0-12.7-10.3-23-23-23H22c-12.7 0-23 10.3-23 23v33c0 12.7 10.3 23 23 23h33c12.7 0 23-10.3 23-23V124zM61 163H16v-45h45V163zM280 124c0-12.7-10.3-23-23-23h-33c-12.7 0-23 10.3-23 23v33c0 12.7 10.3 23 23 23h33c12.7 0 23-10.3 23-23V124zM263 163h-45v-45h45V163z"/></svg>