<svg version="1.1" class="menu-item__icon svg-icon-courses" xmlns="http://www.w3.org/2000/svg" xmlns:xlink="http://www.w3.org/1999/xlink" x="0px" y="0px" viewBox="0 0 51 44" enable-background="new 0 0 51 44" xml:space="preserve">
  <path d="M46.8,30.2l0-6.4c0-0.1,0.1-3.2-2.6-4.6c0,0,0,0-0.1,0l-1.2-0.5l6.4-3.4c1.1-0.6,1.7-1.5,1.7-2.5c0-1-0.7-1.9-1.9-2.4L28.5,1c-1.6-0.7-4.3-0.7-5.9,0L1.9,10.4c-1.2,0.5-1.8,1.4-1.9,2.4s0.6,1.9,1.7,2.5l8.9,4.7L7.4,31.2c-0.5,1.9,0.4,4,2.1,4.9l12.9,6.8c0.7,0.4,1.7,0.6,2.7,0.6c1,0,1.9-0.2,2.7-0.6l12.7-6.8c1.7-0.9,2.6-3.1,2.1-4.9l-2.7-9.3l-5.3-2l-7.4,4c-0.8,0.4-2.4,0.4-3.2,0L3.5,12.9l20.3-9.2c0.9-0.4,2.7-0.4,3.5,0l20.2,9.1l-8.2,4.4l-13.4-5.5c-0.6-0.2-1.3,0-1.5,0.6c-0.2,0.6,0,1.3,0.6,1.5l11.6,4.8l0,0l0.8,0.3l5.7,2.3c1.3,0.7,1.3,2.3,1.3,2.4v6.5l-3.6,8.5c-0.2,0.4-0.1,0.8,0.1,1.1c0.2,0.3,0.6,0.5,1,0.5h7.4c0,0,0,0,0,0c0.6,0,1.2-0.5,1.2-1.2c0-0.2-0.1-0.4-0.2-0.6L46.8,30.2L46.8,30.2z M26.5,27c0.7-0.1,1.4-0.3,2-0.6l8.3-4.5L39.7,32c0.1,0.5-0.2,1.2-0.6,1.5l-12.6,6.7V27L26.5,27z M22.5,26.4c0.3,0.2,0.6,0.3,1,0.4v13.4l-12.7-6.7c-0.5-0.2-0.8-1-0.6-1.5l3-10.5L22.5,26.4L22.5,26.4z M43.7,38l1.9-4.6l1.9,4.6H43.7L43.7,38z"/>
</svg>