<svg xmlns="http://www.w3.org/2000/svg" class="ic-icon-svg ic-icon-svg--inbox" version="1.1" x="0" y="0" viewBox="0 0 280 280" enable-background="new 0 0 280 280" xml:space="preserve"><path d="M93.3 105c0-6.4 5.2-11.7 11.7-11.7h70c6.4 0 11.7 5.2 11.7 11.7s-5.2 11.7-11.7 11.7h-70C98.6 116.7 93.3 111.4 93.3 105zM105 70h23.3c6.4 0 11.7-5.2 11.7-11.7s-5.2-11.7-11.7-11.7H105c-6.4 0-11.7 5.2-11.7 11.7S98.6 70 105 70zM280 198.3v70c0 6.4-5.2 11.7-11.7 11.7H11.7C5.2 280 0 274.8 0 268.3v-69.8c0-1.1 0.1-2.2 0.4-3.3 0.3-1.1 0.8-2.1 1.3-3L36.7 134c2.1-3.5 5.9-5.7 10-5.7h11.7V11.7C58.3 5.2 63.6 0 70 0h140c6.4 0 11.7 5.2 11.7 11.7v116.7h11.7c4.1 0 7.9 2.1 10 5.7l35 58.3c0.1 0.2 0.1 0.5 0.3 0.7 0.4 0.7 0.6 1.4 0.8 2.2 0.2 0.8 0.4 1.5 0.5 2.3C279.9 197.8 280 198.1 280 198.3zM32.3 186.7h67.9c6.4 0 11.7 5.2 11.7 11.7V210c0 7.8 3.5 7.8 6 7.8h48.7c5.7 0 10.5-3.6 10.5-7.8v-11.7c0-6.4 5.2-11.7 11.7-11.7h59l-21-35h-5.1v11.7c0 6.4-5.2 11.7-11.7 11.7s-11.7-5.2-11.7-11.7v-140H81.7v140c0 6.4-5.2 11.7-11.7 11.7s-11.7-5.2-11.7-11.7v-11.7h-5.1L32.3 186.7zM256.7 210h-56.3c0 17.2-15.2 31.1-33.8 31.1h-48.7c-17.6 0-29.4-12.5-29.4-31.1H23.3v46.7h233.3V210zM175 163.3c6.4 0 11.7-5.2 11.7-11.7 0-6.4-5.2-11.7-11.7-11.7h-70c-6.4 0-11.7 5.2-11.7 11.7 0 6.4 5.2 11.7 11.7 11.7H175z"/></svg>