<svg version="1.1" id="Layer_1" xmlns="http://www.w3.org/2000/svg" xmlns:xlink="http://www.w3.org/1999/xlink" x="0px" y="0px"
	 viewBox="0 0 28 28" style="enable-background:new 0 0 28 28;" xml:space="preserve">
<style type="text/css">
	.st0{fill:#384A58;}
</style>
<title>icon-folder-locked</title>
<g>
	<path class="st0" d="M23.7,14c0-1.2-1.2-2.2-2.6-2.2c-1.4,0-2.6,1-2.6,2.2v1.1h-1.3V19c0,0.9,0.9,1.7,2,1.7H23c1.1,0,2-0.7,2-1.7
		v-3.9h-1.3V14z M19.7,14c0.1-0.6,0.7-1.1,1.4-1c0.6,0,1.2,0.5,1.2,1v1.1h-2.6L19.7,14z M23.7,19c0,0.3-0.3,0.6-0.7,0.6h-3.9
		c-0.4,0-0.7-0.2-0.7-0.6v-2.7h5.2V19z M14.2,6.2H25v5.6h-1.3V7.3H5.4V6.2h7.3L10.9,4H4.1v13.9c0,0.3,0.3,0.6,0.7,0.6h11.1v1.1H4.7
		c-1.1,0-2-0.8-2-1.7v-15h8.8L14.2,6.2z"/>
</g>
</svg>
