<?xml version="1.0" encoding="UTF-8" standalone="no"?>
<svg width="28px" height="28px" viewBox="0 0 512 512" version="1.1" xmlns="http://www.w3.org/2000/svg" xmlns:xlink="http://www.w3.org/1999/xlink">
    <!-- Generator: Sketch 3.7.2 (28276) - http://www.bohemiancoding.com/sketch -->
    <title>icon-folder-locked</title>
    <desc>Created with Sketch.</desc>
    <defs></defs>
    <g id="Page-1" stroke="none" stroke-width="1" fill="none" fill-rule="evenodd">
        <g id="icon-folder-locked">
            <g id="icon-folder-locked-copy" transform="translate(0.000000, 38.000000)">
                <path d="M256,188.472783 C241.938343,188.472783 230.479751,199.931374 230.479751,213.993032 L230.479751,255.591038 L281.520249,255.591038 L281.520249,213.993032 C281.520249,199.931374 270.061657,188.472783 256,188.472783" id="Fill-173" fill="#384A58"></path>
                <path d="M358.080997,383.202492 L153.919003,383.202492 L153.919003,255.601246 L179.439252,255.601246 L179.439252,214.00324 C179.439252,171.767227 213.789508,137.442492 256,137.442492 C298.210492,137.442492 332.560748,171.767227 332.560748,214.00324 L332.560748,255.601246 L358.080997,255.601246 L358.080997,383.202492 Z M460.161994,76.9595016 L256,76.9595016 L219.072199,28.5986293 C210.420835,11.3214206 192.735302,0.398753894 173.416474,0.398753894 L26.317757,0.398753894 C12.2050592,0.398753894 0.797507788,11.8063053 0.797507788,25.9190031 L0.797507788,383.202492 C0.797507788,411.376847 23.6636511,434.242991 51.8380062,434.242991 L460.161994,434.242991 C488.336349,434.242991 511.202492,411.376847 511.202492,383.202492 L511.202492,128 C511.202492,99.8256449 488.336349,76.9595016 460.161994,76.9595016 L460.161994,76.9595016 Z" id="Fill-174" fill="#384A58"></path>
            </g>
        </g>
    </g>
</svg>