<svg width="28" height="28" viewBox="0 0 512 512" xmlns="http://www.w3.org/2000/svg"><title>icon-folder-locked</title><g fill="#384A58" fill-rule="evenodd"><path d="M26.11,17.23a3.23,3.23,0,0,0-6.46,0v1.62H18V24.5a2.43,2.43,0,0,0,2.42,2.42h4.85a2.43,2.43,0,0,0,2.42-2.42V18.85H26.11Zm-4.85,0a1.62,1.62,0,0,1,3.23,0v1.62H21.27Zm4.85,7.27a.81.81,0,0,1-.81.81H20.46a.81.81,0,0,1-.81-.81v-4h6.46ZM14.43,5.92h13.3V14H26.11V7.54H3.5V5.92h9L10.34,2.69H1.89V22.88a.81.81,0,0,0,.81.81h13.7v1.62H2.69A2.43,2.43,0,0,1,.27,22.88V1.08H11.2Z" /></g></svg>
