<?xml version="1.0" encoding="UTF-8" standalone="no"?>
<svg width="28px" height="36px" viewBox="0 0 28 36" version="1.1" xmlns="http://www.w3.org/2000/svg" xmlns:xlink="http://www.w3.org/1999/xlink" xmlns:sketch="http://www.bohemiancoding.com/sketch/ns">
    <!-- Generator: Sketch 3.1 (8751) - http://www.bohemiancoding.com/sketch -->
    <title>html</title>
    <desc>Created with Sketch.</desc>
    <defs></defs>
    <g id="Icons" stroke="none" stroke-width="1" fill="none" fill-rule="evenodd" sketch:type="MSPage">
        <g id="html" sketch:type="MSArtboardGroup">
            <g id="icon-file-base-2" sketch:type="MSLayerGroup">
                <path d="M0,2 L0,34 C0,35.105 0.899,36 1.993,36 L26.006,36 C27.107,36 28,35.11 28,34 L28,10 L18,0 L1.993,0 C0.892,0 0,0.89 0,2 Z" fill="#FFFFFF" sketch:type="MSShapeGroup"></path>
                <path d="M0,2 L0,34 C0,35.105 0.899,36 1.993,36 L26.006,36 C27.107,36 28,35.11 28,34 L28,10 L18,0 L1.993,0 C0.892,0 0,0.89 0,2 Z M1.993,35 C1.445,35 1,34.552 1,34 L1,2 C1,1.448 1.445,1 1.993,1 L16.5,1 L16.5,9 C16.5,10.379 17.621,11.5 18.999,11.5 L27,11.5 L27,34 C27,34.552 26.554,35 26.006,35 L1.993,35 Z M27,10.5 L18.999,10.5 C18.173,10.5 17.5,9.827 17.5,9 L17.5,1 L17.585,1 L27,10.414 L27,10.5 L27,10.5 Z" id="icon-file-base" fill="#FFFFFF" sketch:type="MSShapeGroup"></path>
                <path d="M0,2 L0,34 C0,35.105 0.899,36 1.993,36 L26.006,36 C27.107,36 28,35.11 28,34 L28,10 L18,0 L1.993,0 C0.892,0 0,0.89 0,2 Z M1.993,35 C1.445,35 1,34.552 1,34 L1,2 C1,1.448 1.445,1 1.993,1 L16.5,1 L16.5,9 C16.5,10.379 17.621,11.5 18.999,11.5 L27,11.5 L27,34 C27,34.552 26.554,35 26.006,35 L1.993,35 Z M27,10.5 L18.999,10.5 C18.173,10.5 17.5,9.827 17.5,9 L17.5,1 L17.585,1 L27,10.414 L27,10.5 L27,10.5 Z" fill="#384A58" sketch:type="MSShapeGroup"></path>
            </g>
            <path d="M4.8745,17.574 L4.8745,24 L6.1705,24 L6.1705,21.147 L7.6825,21.147 L7.6825,24 L8.9785,24 L8.9785,17.574 L7.6825,17.574 L7.6825,20.031 L6.1705,20.031 L6.1705,17.574 L4.8745,17.574 Z M13.6405,17.574 L9.5365,17.574 L9.5365,18.636 L10.9405,18.636 L10.9405,24 L12.2365,24 L12.2365,18.636 L13.6405,18.636 L13.6405,17.574 Z M14.2255,17.574 L14.2255,24 L15.4135,24 L15.4135,18.87 L15.4315,18.87 L16.5745,24 L17.5825,24 L18.7255,18.87 L18.7435,18.87 L18.7435,24 L19.9315,24 L19.9315,17.574 L18.0145,17.574 L17.0875,22.11 L17.0695,22.11 L16.1515,17.574 L14.2255,17.574 Z M20.8585,24 L24.4495,24 L24.4495,22.938 L22.1545,22.938 L22.1545,17.574 L20.8585,17.574 L20.8585,24 Z" id="HTML" fill="#384A58" sketch:type="MSShapeGroup"></path>
        </g>
    </g>
</svg>