<?xml version="1.0" encoding="UTF-8" standalone="no"?>
<svg width="28px" height="36px" viewBox="0 0 28 36" version="1.1" xmlns="http://www.w3.org/2000/svg" xmlns:xlink="http://www.w3.org/1999/xlink" xmlns:sketch="http://www.bohemiancoding.com/sketch/ns">
    <!-- Generator: Sketch 3.1 (8751) - http://www.bohemiancoding.com/sketch -->
    <title>pdf</title>
    <desc>Created with Sketch.</desc>
    <defs></defs>
    <g id="Icons" stroke="none" stroke-width="1" fill="none" fill-rule="evenodd" sketch:type="MSPage">
        <g id="pdf" sketch:type="MSArtboardGroup">
            <g id="icon-file-base-2" sketch:type="MSLayerGroup">
                <path d="M0,2 L0,34 C0,35.105 0.899,36 1.993,36 L26.006,36 C27.107,36 28,35.11 28,34 L28,10 L18,0 L1.993,0 C0.892,0 0,0.89 0,2 Z" fill="#FFFFFF" sketch:type="MSShapeGroup"></path>
                <path d="M0,2 L0,34 C0,35.105 0.899,36 1.993,36 L26.006,36 C27.107,36 28,35.11 28,34 L28,10 L18,0 L1.993,0 C0.892,0 0,0.89 0,2 Z M1.993,35 C1.445,35 1,34.552 1,34 L1,2 C1,1.448 1.445,1 1.993,1 L16.5,1 L16.5,9 C16.5,10.379 17.621,11.5 18.999,11.5 L27,11.5 L27,34 C27,34.552 26.554,35 26.006,35 L1.993,35 Z M27,10.5 L18.999,10.5 C18.173,10.5 17.5,9.827 17.5,9 L17.5,1 L17.585,1 L27,10.414 L27,10.5 L27,10.5 Z" id="icon-file-base" fill="#FFFFFF" sketch:type="MSShapeGroup"></path>
                <path d="M0,2 L0,34 C0,35.105 0.899,36 1.993,36 L26.006,36 C27.107,36 28,35.11 28,34 L28,10 L18,0 L1.993,0 C0.892,0 0,0.89 0,2 Z M1.993,35 C1.445,35 1,34.552 1,34 L1,2 C1,1.448 1.445,1 1.993,1 L16.5,1 L16.5,9 C16.5,10.379 17.621,11.5 18.999,11.5 L27,11.5 L27,34 C27,34.552 26.554,35 26.006,35 L1.993,35 Z M27,10.5 L18.999,10.5 C18.173,10.5 17.5,9.827 17.5,9 L17.5,1 L17.585,1 L27,10.414 L27,10.5 L27,10.5 Z" fill="#384A58" sketch:type="MSShapeGroup"></path>
            </g>
            <path d="M7.32227736,28.4264545 L7.32227736,28.4264545 C7.10248788,28.4264545 6.89111946,28.3513182 6.71175104,28.2105455 C6.05490894,27.6940909 5.96732999,27.1180455 6.00859315,26.7259545 C6.12396157,25.6481364 7.3930142,24.5202273 9.78375104,23.3707273 C10.7319616,21.1891818 11.6346984,18.5006818 12.1719616,16.2543636 C11.5429089,14.8164091 10.9315405,12.9509545 11.3778563,11.8567273 C11.5336458,11.4732727 11.8081721,11.2029545 12.1719616,11.076 C12.3159616,11.0250455 12.4565931,11 12.5896458,11 C12.9079616,11 13.191751,11.1459545 13.3904879,11.4102273 C13.5765931,11.6598182 14.1365931,12.4094545 13.2936458,16.1351818 C14.14333,17.9781818 15.3475405,19.8557273 16.5020668,21.1416818 C17.3290142,20.9845 18.0405931,20.9041818 18.6199616,20.9041818 C19.607751,20.9041818 20.2064879,21.1468636 20.4506984,21.6434545 C20.6519616,22.0554091 20.5694353,22.5364545 20.2039616,23.0736364 C19.8528037,23.5900909 19.3685931,23.8621364 18.8035405,23.8621364 C18.0363826,23.8621364 17.143751,23.3534545 16.1475405,22.3490455 C14.3580668,22.742 12.2679616,23.4424091 10.5795405,24.2179545 C10.0523826,25.3925 9.54711946,26.3381818 9.07638262,27.0316818 C8.43132999,27.9825455 7.8738563,28.4264545 7.32227736,28.4264545 L7.32227736,28.4264545 Z M9.00059315,25.0332273 C7.65238262,25.8286364 7.10332999,26.4815455 7.06375104,26.8503182 C7.0570142,26.9099091 7.04017209,27.0705455 7.33575104,27.3080455 C7.43006683,27.2769545 7.97827736,27.0144091 9.00059315,25.0332273 L9.00059315,25.0332273 Z M17.4999616,22.1063636 C18.0128037,22.5209091 18.4675405,22.7480455 18.8035405,22.7480455 C18.951751,22.7480455 19.1462774,22.7117727 19.3408037,22.4250455 C19.4342774,22.2868636 19.47133,22.1987727 19.4848037,22.1512727 C19.4081721,22.1080909 19.1808037,22.0191364 18.6199616,22.0191364 C18.3016458,22.0191364 17.9235405,22.0485 17.4999616,22.1063636 L17.4999616,22.1063636 Z M12.8902774,17.7346364 C12.4389089,19.3729545 11.8435405,21.1408182 11.2035405,22.7428636 C12.5214353,22.2056818 13.9546984,21.7375909 15.3012247,21.4050909 C14.4498563,20.367 13.5984879,19.0706818 12.8902774,17.7346364 L12.8902774,17.7346364 Z M12.5685931,12.1166818 C12.5542774,12.1192727 12.5349089,12.1235909 12.5079616,12.1330909 C12.4456458,12.1546818 12.3959616,12.1900909 12.3538563,12.2945909 C12.19133,12.6927273 12.3201721,13.4492727 12.567751,14.2628182 C12.7740668,12.8611364 12.6645931,12.2660909 12.5685931,12.1166818 L12.5685931,12.1166818 Z" id="Imported-Layers" fill="#384A58" sketch:type="MSShapeGroup"></path>
        </g>
    </g>
</svg>