<?xml version="1.0" encoding="UTF-8" standalone="no"?>
<svg width="28px" height="36px" viewBox="0 0 28 36" version="1.1" xmlns="http://www.w3.org/2000/svg" xmlns:xlink="http://www.w3.org/1999/xlink" xmlns:sketch="http://www.bohemiancoding.com/sketch/ns">
    <!-- Generator: Sketch 3.1 (8751) - http://www.bohemiancoding.com/sketch -->
    <title>ppt</title>
    <desc>Created with Sketch.</desc>
    <defs></defs>
    <g id="Icons" stroke="none" stroke-width="1" fill="none" fill-rule="evenodd" sketch:type="MSPage">
        <g id="ppt" sketch:type="MSArtboardGroup">
            <g id="icon-file-base-2" sketch:type="MSLayerGroup">
                <path d="M0,2 L0,34 C0,35.105 0.899,36 1.993,36 L26.006,36 C27.107,36 28,35.11 28,34 L28,10 L18,0 L1.993,0 C0.892,0 0,0.89 0,2 Z" fill="#FFFFFF" sketch:type="MSShapeGroup"></path>
                <path d="M0,2 L0,34 C0,35.105 0.899,36 1.993,36 L26.006,36 C27.107,36 28,35.11 28,34 L28,10 L18,0 L1.993,0 C0.892,0 0,0.89 0,2 Z M1.993,35 C1.445,35 1,34.552 1,34 L1,2 C1,1.448 1.445,1 1.993,1 L16.5,1 L16.5,9 C16.5,10.379 17.621,11.5 18.999,11.5 L27,11.5 L27,34 C27,34.552 26.554,35 26.006,35 L1.993,35 Z M27,10.5 L18.999,10.5 C18.173,10.5 17.5,9.827 17.5,9 L17.5,1 L17.585,1 L27,10.414 L27,10.5 L27,10.5 Z" id="icon-file-base" fill="#FFFFFF" sketch:type="MSShapeGroup"></path>
                <path d="M0,2 L0,34 C0,35.105 0.899,36 1.993,36 L26.006,36 C27.107,36 28,35.11 28,34 L28,10 L18,0 L1.993,0 C0.892,0 0,0.89 0,2 Z M1.993,35 C1.445,35 1,34.552 1,34 L1,2 C1,1.448 1.445,1 1.993,1 L16.5,1 L16.5,9 C16.5,10.379 17.621,11.5 18.999,11.5 L27,11.5 L27,34 C27,34.552 26.554,35 26.006,35 L1.993,35 Z M27,10.5 L18.999,10.5 C18.173,10.5 17.5,9.827 17.5,9 L17.5,1 L17.585,1 L27,10.414 L27,10.5 L27,10.5 Z" fill="#384A58" sketch:type="MSShapeGroup"></path>
            </g>
            <path d="M14,24 C14,26.7614237 11.7614237,29 9,29 C6.23857625,29 4,26.7614237 4,24 C4,21.2385763 6.23857625,19 9,19 L9,24 L14,24 Z" id="Oval-2" fill="#384A58" sketch:type="MSShapeGroup"></path>
            <rect id="Rectangle-12" fill="#384A58" sketch:type="MSShapeGroup" x="19.0159167" y="19" width="4.98408334" height="2"></rect>
            <rect id="Rectangle-12" fill="#384A58" sketch:type="MSShapeGroup" x="4" y="15" width="20" height="2"></rect>
            <rect id="Rectangle-13" fill="#384A58" sketch:type="MSShapeGroup" x="19.0159167" y="23" width="4.98408334" height="2"></rect>
            <rect id="Rectangle-14" fill="#384A58" sketch:type="MSShapeGroup" x="19.0159167" y="27" width="4.98408334" height="2"></rect>
            <rect id="Rectangle-17" fill="#384A58" sketch:type="MSShapeGroup" x="16.003418" y="19" width="2.04377318" height="2"></rect>
            <rect id="Rectangle-16" fill="#384A58" sketch:type="MSShapeGroup" x="16.003418" y="23" width="2.04377318" height="2"></rect>
            <rect id="Rectangle-15" fill="#384A58" sketch:type="MSShapeGroup" x="16.003418" y="27" width="2.04377318" height="2"></rect>
        </g>
    </g>
</svg>