<?xml version="1.0" encoding="UTF-8" standalone="no"?>
<svg width="28px" height="36px" viewBox="0 0 28 36" version="1.1" xmlns="http://www.w3.org/2000/svg" xmlns:xlink="http://www.w3.org/1999/xlink" xmlns:sketch="http://www.bohemiancoding.com/sketch/ns">
    <!-- Generator: Sketch 3.1 (8751) - http://www.bohemiancoding.com/sketch -->
    <title>zip</title>
    <desc>Created with Sketch.</desc>
    <defs></defs>
    <g id="Icons" stroke="none" stroke-width="1" fill="none" fill-rule="evenodd" sketch:type="MSPage">
        <g id="zip" sketch:type="MSArtboardGroup">
            <g id="icon-file-base-2" sketch:type="MSLayerGroup">
                <path d="M0,2 L0,34 C0,35.105 0.899,36 1.993,36 L26.006,36 C27.107,36 28,35.11 28,34 L28,10 L18,0 L1.993,0 C0.892,0 0,0.89 0,2 Z" fill="#FFFFFF" sketch:type="MSShapeGroup"></path>
                <path d="M0,2 L0,34 C0,35.105 0.899,36 1.993,36 L26.006,36 C27.107,36 28,35.11 28,34 L28,10 L18,0 L1.993,0 C0.892,0 0,0.89 0,2 Z M1.993,35 C1.445,35 1,34.552 1,34 L1,2 C1,1.448 1.445,1 1.993,1 L16.5,1 L16.5,9 C16.5,10.379 17.621,11.5 18.999,11.5 L27,11.5 L27,34 C27,34.552 26.554,35 26.006,35 L1.993,35 Z M27,10.5 L18.999,10.5 C18.173,10.5 17.5,9.827 17.5,9 L17.5,1 L17.585,1 L27,10.414 L27,10.5 L27,10.5 Z" id="icon-file-base" fill="#FFFFFF" sketch:type="MSShapeGroup"></path>
                <path d="M0,2 L0,34 C0,35.105 0.899,36 1.993,36 L26.006,36 C27.107,36 28,35.11 28,34 L28,10 L18,0 L1.993,0 C0.892,0 0,0.89 0,2 Z M1.993,35 C1.445,35 1,34.552 1,34 L1,2 C1,1.448 1.445,1 1.993,1 L16.5,1 L16.5,9 C16.5,10.379 17.621,11.5 18.999,11.5 L27,11.5 L27,34 C27,34.552 26.554,35 26.006,35 L1.993,35 Z M27,10.5 L18.999,10.5 C18.173,10.5 17.5,9.827 17.5,9 L17.5,1 L17.585,1 L27,10.414 L27,10.5 L27,10.5 Z" fill="#384A58" sketch:type="MSShapeGroup"></path>
            </g>
            <path d="M12,1 L12,22 L16,22 L16,1 L12,1 Z M14,9 L14,10 L15,10 L15,11 L14,11 L14,12 L15,12 L15,13 L14,13 L14,14 L15,14 L15,15 L14,15 L14,16 L15,16 L15,17 L14,17 L14,18 L13,18 L13,17 L14,17 L14,16 L13,16 L13,15 L14,15 L14,14 L13,14 L13,13 L14,13 L14,12 L13,12 L13,11 L14,11 L14,10 L13,10 L13,9 L14,9 L14,9 Z M14,2 L15,2 L15,3 L14,3 L14,4 L15,4 L15,5 L14,5 L14,6 L15,6 L15,7 L14,7 L14,8 L15,8 L15,9 L14,9 L14,8 L13,8 L13,7 L14,7 L14,6 L13,6 L13,5 L14,5 L14,4 L13,4 L13,3 L14,3 L14,2 L13,2 L13,1 L14,1 L14,2 Z M13,19 L15,19 L15,21 L13,21 L13,19 Z" id="Fill-750" fill="#384A58" sketch:type="MSShapeGroup"></path>
        </g>
    </g>
</svg>