<?xml version="1.0" encoding="utf-8"?>
<!-- Generator: Adobe Illustrator 24.0.1, SVG Export Plug-In . SVG Version: 6.00 Build 0)  -->
<svg version="1.1" id="Layer_1" xmlns="http://www.w3.org/2000/svg" xmlns:xlink="http://www.w3.org/1999/xlink" x="0px" y="0px"
	 viewBox="0 0 128 125" style="enable-background:new 0 0 128 125;" xml:space="preserve">
<style type="text/css">
	.st0{fill-rule:evenodd;clip-rule:evenodd;fill:#81CBF3;}
	.st1{fill:#243038;}
	.st2{fill-rule:evenodd;clip-rule:evenodd;fill:#E9B0DF;}
	.st3{fill-rule:evenodd;clip-rule:evenodd;fill:#DB7ECA;}
</style>
<g>
	<path class="st0" d="M111,123.5H17c-1.1,0-2-0.9-2-2V54c0-1.1,0.9-2,2-2h94c1.1,0,2,0.9,2,2v67.5C113,122.6,112.1,123.5,111,123.5"
		/>
	<path class="st1" d="M112,121.5c0,0.5-0.4,1-1,1v2c1.7,0,3-1.3,3-3H112z M112,54v67.5h2V54H112z M111,53c0.6,0,1,0.4,1,1h2
		c0-1.6-1.3-3-3-3V53z M17,53h94v-2H17V53z M16,54c0-0.5,0.4-1,1-1v-2c-1.7,0-3,1.3-3,3H16z M16,121.5V54h-2v67.5H16z M17,122.5
		c-0.6,0-1-0.4-1-1h-2c0,1.6,1.3,3,3,3V122.5z M111,122.5H17v2h94V122.5z"/>
	<path class="st0" d="M117,59H11c-1.1,0-2-0.9-2-2V36.1c0-1.1,0.9-2,2-2h106c1.1,0,2,0.9,2,2V57C119,58.1,118.1,59,117,59"/>
	<path class="st1" d="M118,57c0,0.5-0.4,1-1,1v2c1.7,0,3-1.3,3-3H118z M118,36.1V57h2V36.1H118z M117,35.2c0.6,0,1,0.4,1,1h2
		c0-1.6-1.3-3-3-3V35.2z M11,35.2h106v-2H11V35.2z M10,36.1c0-0.5,0.4-1,1-1v-2c-1.7,0-3,1.3-3,3H10z M10,57V36.1H8V57H10z M11,58
		c-0.6,0-1-0.4-1-1H8c0,1.6,1.3,3,3,3V58z M117,58H11v2h106V58z"/>
	<path class="st2" d="M92.7,1.5c-4.9,0-9.4,1.3-13,3.5l0,0c-0.1,0-0.1,0.1-0.2,0.1c-0.3,0.2-0.6,0.4-0.9,0.6
		C59.2,18.6,56.1,34.2,56.1,34.2h36.6c11.7,0,21.2-7.3,21.2-16.3C113.9,8.8,104.4,1.5,92.7,1.5"/>
	<path class="st1" d="M114.9,17.8c0-9.8-10.2-17.3-22.2-17.3v2c11.4,0,20.2,7.1,20.2,15.3H114.9z M92.7,35.2
		c12,0,22.2-7.5,22.2-17.3h-2c0,8.3-8.8,15.3-20.2,15.3V35.2z M56.1,35.2h36.6v-2H56.1V35.2z M78,4.9c-9.8,6.5-15.5,13.8-18.8,19.4
		c-1.6,2.8-2.6,5.2-3.3,6.9c-0.3,0.9-0.5,1.5-0.6,2c-0.1,0.2-0.1,0.4-0.1,0.6c0,0.1,0,0.1,0,0.1c0,0,0,0,0,0c0,0,0,0,0,0
		c0,0,0,0,0,0c0,0,0,0,0,0c0,0,0,0,1,0.2c1,0.2,1,0.2,1,0.2c0,0,0,0,0,0c0,0,0,0,0,0c0,0,0,0,0,0c0,0,0,0,0,0c0,0,0-0.1,0-0.1
		c0-0.1,0.1-0.3,0.1-0.5c0.1-0.4,0.3-1.1,0.6-1.9c0.6-1.6,1.5-3.9,3.1-6.6c3.1-5.4,8.6-12.4,18.2-18.7L78,4.9z M79,4.2
		c-0.3,0.2-0.7,0.4-1,0.7l1.1,1.6c0.3-0.2,0.6-0.4,0.9-0.6L79,4.2z M79.1,4.1c0,0-0.1,0.1-0.1,0.1c0,0,0,0-0.1,0L80,5.9
		c0,0,0.1-0.1,0.1-0.1c0,0,0,0,0.1,0L79.1,4.1z M80.6,4.6L80.6,4.6l-1.9,0.8l0,0L80.6,4.6z M92.7,0.5c-5.1,0-9.8,1.3-13.6,3.6l1,1.7
		c3.4-2.1,7.8-3.3,12.5-3.3V0.5z M56.1,34.2l-1-0.2l-0.2,1.2h1.2V34.2z M78.5,5.7l0.6,0.8l0,0l0,0L78.5,5.7z M79.5,5.1L80,5.9l0,0
		L79.5,5.1z M79.7,4.9l0.9-0.4l-0.5-1.1l-1,0.6L79.7,4.9z M79.7,5l-0.9,0.4l0.4,1.1l1-0.6L79.7,5z"/>
	<path class="st3" d="M94.6,15.2c-14.1,0-28,12.3-34,18.9h34c6.8,0,12.3-4.2,12.3-9.5S101.4,15.2,94.6,15.2"/>
	<path class="st1" d="M107.9,24.7c0-6-6.2-10.5-13.3-10.5v2c6.5,0,11.3,4,11.3,8.5H107.9z M94.6,35.2c7.1,0,13.3-4.5,13.3-10.5h-2
		c0,4.5-4.8,8.5-11.3,8.5V35.2z M60.6,35.2h34v-2h-34V35.2z M94.6,14.2c-7.3,0-14.5,3.2-20.6,7.1c-6.1,4-11.1,8.7-14.2,12.1l1.5,1.3
		c3-3.3,7.9-8,13.8-11.8c5.9-3.8,12.7-6.8,19.5-6.8V14.2z M60.6,34.2l-0.7-0.7l-1.5,1.7h2.2V34.2z"/>
	<path class="st2" d="M35.3,1.5c4.9,0,9.4,1.3,13,3.5l0,0c0.1,0,0.1,0.1,0.2,0.1c0.3,0.2,0.6,0.4,0.9,0.6
		c19.3,12.9,22.5,28.5,22.5,28.5H35.3c-11.7,0-21.2-7.3-21.2-16.3C14.1,8.8,23.6,1.5,35.3,1.5"/>
	<path class="st1" d="M15.1,17.8c0-8.3,8.8-15.3,20.2-15.3v-2c-12,0-22.2,7.5-22.2,17.3H15.1z M35.3,33.2
		c-11.4,0-20.2-7.1-20.2-15.3h-2c0,9.8,10.2,17.3,22.2,17.3V33.2z M71.9,33.2H35.3v2h36.6V33.2z M48.9,6.5
		c9.5,6.4,15,13.4,18.2,18.7c1.6,2.7,2.5,5,3.1,6.6c0.3,0.8,0.5,1.4,0.6,1.9c0.1,0.2,0.1,0.4,0.1,0.5c0,0.1,0,0.1,0,0.1c0,0,0,0,0,0
		c0,0,0,0,0,0c0,0,0,0,0,0c0,0,0,0,0,0c0,0,0,0,1-0.2c1-0.2,1-0.2,1-0.2c0,0,0,0,0,0c0,0,0,0,0,0c0,0,0,0,0,0c0,0,0,0,0,0
		c0,0,0-0.1,0-0.1c0-0.1-0.1-0.3-0.1-0.6c-0.1-0.5-0.3-1.2-0.6-2c-0.6-1.7-1.6-4.1-3.3-6.9c-3.3-5.6-9-12.9-18.8-19.4L48.9,6.5z
		 M48,5.9c0.3,0.2,0.6,0.4,0.9,0.6L50,4.9c-0.3-0.2-0.6-0.4-1-0.7L48,5.9z M47.8,5.8C47.8,5.8,47.8,5.8,47.8,5.8
		c0.1,0.1,0.1,0.1,0.2,0.1l1.1-1.7c0,0,0,0-0.1,0c0,0-0.1,0-0.1-0.1L47.8,5.8z M49.3,5.3L49.3,5.3l-1.8-0.8l0,0L49.3,5.3z M35.3,2.5
		c4.7,0,9.1,1.3,12.5,3.3l1-1.7c-3.8-2.3-8.5-3.6-13.6-3.6V2.5z M71.9,34.2v1h1.2L72.9,34L71.9,34.2z M49.5,5.7l-0.6,0.8l0,0l0,0
		L49.5,5.7z M48.5,5.1L48,5.9l0,0L48.5,5.1z M48.3,4.9l0.5-0.8l-1-0.6l-0.5,1.1L48.3,4.9z M48.3,5l-0.5,0.8l1,0.6l0.4-1.1L48.3,5z"
		/>
	<path class="st3" d="M33.4,15.2c14.1,0,28,12.3,34,18.9h-34c-6.8,0-12.3-4.2-12.3-9.5S26.6,15.2,33.4,15.2"/>
	<path class="st1" d="M22.1,24.7c0-4.5,4.8-8.5,11.3-8.5v-2c-7.1,0-13.3,4.5-13.3,10.5H22.1z M33.4,33.2c-6.5,0-11.3-4-11.3-8.5h-2
		c0,6,6.2,10.5,13.3,10.5V33.2z M67.4,33.2h-34v2h34V33.2z M33.4,16.2c6.8,0,13.6,3,19.5,6.8c5.9,3.8,10.8,8.5,13.8,11.8l1.5-1.3
		c-3-3.4-8.1-8.2-14.2-12.1c-6.1-3.9-13.3-7.1-20.6-7.1V16.2z M67.4,34.2v1h2.2l-1.5-1.7L67.4,34.2z"/>
	<path class="st2" d="M75,34.2c-2-4-6.2-6.8-11-6.8c-4.8,0-9,2.8-11,6.8H75z"/>
	<path class="st1" d="M53,35.2H75v-2H53V35.2z M64,26.4c-5.2,0-9.8,3-11.9,7.3l1.8,0.9c1.9-3.7,5.7-6.2,10.1-6.2V26.4z M75.9,33.7
		c-2.2-4.3-6.7-7.3-11.9-7.3v2c4.4,0,8.3,2.5,10.1,6.2L75.9,33.7z M53,34.2l-0.9-0.4l-0.7,1.4H53V34.2z M75,34.2v1h1.6l-0.7-1.4
		L75,34.2z"/>
	<rect x="51" y="34.2" class="st2" width="26.1" height="24.8"/>
	<path class="st1" d="M50,34.2V59h2V34.2H50z M77,33.2H51v2H77V33.2z M78,59V34.2h-2V59H78z M51,60H77v-2H51V60z M51,34.2v-1h-1v1
		H51z M77,34.2h1v-1h-1V34.2z M77,59v1h1v-1H77z M51,59h-1v1h1V59z"/>
	<rect x="53" y="59.1" class="st3" width="22.1" height="64.4"/>
	<path class="st1" d="M52,59.1v64.4h2V59.1H52z M75,58.1H53v2H75V58.1z M76,123.5V59.1h-2v64.4H76z M53,124.5H75v-2H53V124.5z
		 M53,59.1v-1h-1v1H53z M75,59.1h1v-1h-1V59.1z M75,123.5v1h1v-1H75z M53,123.5h-1v1h1V123.5z"/>
</g>
</svg>
