<?xml version="1.0" encoding="utf-8"?>
<!-- Generator: Adobe Illustrator 24.0.3, SVG Export Plug-In . SVG Version: 6.00 Build 0)  -->
<svg version="1.1" id="Layer_1" xmlns="http://www.w3.org/2000/svg" xmlns:xlink="http://www.w3.org/1999/xlink" x="0px" y="0px"
	 viewBox="0 0 120 120" style="enable-background:new 0 0 120 120;" xml:space="preserve">
<style type="text/css">
	.st0{fill:#FDDFBB;}
	.st1{fill:#243038;}
	.st2{fill:#71C5F1;}
	.st3{fill:#F5474D;}
	.st4{fill:#8C98A1;}
	.st5{fill:#FFBC00;}
	.st6{fill:#F77276;}
	.st7{fill:#DFE2E5;}
</style>
<g>
	<g>
		<circle class="st0" cx="28.72" cy="67.92" r="3.47"/>
		<path class="st1" d="M28.72,72.39c-1.53,0-3.02-0.79-3.86-2.2c-1.25-2.12-0.54-4.87,1.58-6.12c1.03-0.61,2.23-0.77,3.39-0.48
			c1.16,0.3,2.13,1.03,2.73,2.06c1.25,2.12,0.54,4.87-1.58,6.12C30.28,72.19,29.49,72.39,28.72,72.39z M28.71,65.45
			c-0.44,0-0.87,0.12-1.25,0.34c-1.18,0.69-1.57,2.21-0.88,3.39c0.69,1.18,2.21,1.57,3.39,0.88c1.18-0.69,1.57-2.21,0.88-3.39h0
			c-0.34-0.57-0.87-0.97-1.51-1.14C29.13,65.47,28.92,65.45,28.71,65.45z"/>
	</g>
	<g>
		<path class="st2" d="M68.79,51.79c6.03,1.79,19.95,11.47,13.69,23.23s-11.51-1.24-11.51-1.24L68.79,51.79z"/>
		<path class="st1" d="M77.06,80.94c-0.07,0-0.15,0-0.22-0.01c-4.02-0.21-6.52-6.11-6.79-6.78l-0.07-0.28l-2.32-23.47l1.42,0.42
			c4.5,1.34,12.09,6.24,14.9,12.95c1.64,3.92,1.43,7.86-0.61,11.7C81.44,79.11,79.32,80.94,77.06,80.94z M71.95,73.53
			c0.67,1.58,2.71,5.29,5,5.41c1.87,0.11,3.56-2.34,4.66-4.39c1.75-3.29,1.93-6.66,0.54-10c-2.25-5.38-8.11-9.59-12.2-11.29
			L71.95,73.53z"/>
	</g>
	<g>
		<path class="st2" d="M49.25,83.22C39.22,82.59,29,75.24,25.72,69.68l5.77-3.4c6.27,2.2,19.59,8.49,19.59,8.49L49.25,83.22z"/>
		<path class="st1" d="M50.05,84.26l-0.85-0.05c-10.88-0.68-21.12-8.58-24.33-14.03l-0.51-0.86l7.03-4.14l0.44,0.15
			c6.24,2.19,19.14,8.27,19.68,8.53l0.72,0.34L50.05,84.26z M27.12,70.01c3.34,4.76,12.14,11.22,21.34,12.14l1.48-6.82
			c-2.77-1.3-12.9-6-18.34-7.96L27.12,70.01z"/>
	</g>
	<g>
		
			<rect x="52.93" y="60.85" transform="matrix(0.8615 -0.5077 0.5077 0.8615 -33.5494 46.9682)" class="st2" width="32.79" height="48.27"/>
		<path class="st1" d="M67.1,115.47L41.58,72.16L71.55,54.5l25.52,43.31L67.1,115.47z M44.31,72.87l23.5,39.87L94.34,97.1
			l-23.5-39.87L44.31,72.87z"/>
	</g>
	<g>
		<path class="st0" d="M63.65,41.9L34.38,59.14c-1.92,1.13-4.4,0.49-5.54-1.43l-0.04-0.08c-1.13-1.92-0.49-4.4,1.43-5.54L59.5,34.85
			c1.92-1.13,4.4-0.49,5.54,1.43l0.04,0.08C66.21,38.28,65.57,40.76,63.65,41.9z"/>
		<path class="st1" d="M32.34,60.7c-0.42,0-0.85-0.05-1.27-0.16c-1.3-0.34-2.4-1.16-3.08-2.32c-0.73-1.23-0.92-2.59-0.58-3.9
			c0.34-1.3,1.16-2.4,2.32-3.08l29.26-17.25c1.16-0.68,2.52-0.88,3.82-0.54c1.3,0.34,2.4,1.16,3.08,2.32
			c1.46,2.47,0.66,5.57-1.74,6.98L34.89,60C34.1,60.47,33.23,60.7,32.34,60.7z M61.54,35.29c-0.54,0-1.07,0.14-1.54,0.42
			L30.74,52.96c-0.7,0.41-1.2,1.08-1.4,1.86c-0.2,0.79-0.09,1.61,0.33,2.31c0.46,0.78,1.12,1.28,1.91,1.48
			c0.79,0.2,1.61,0.09,2.31-0.33l29.26-17.25c1.45-0.85,1.93-2.72,1.08-4.17c-0.46-0.78-1.12-1.27-1.91-1.48
			C62.06,35.32,61.8,35.29,61.54,35.29z"/>
	</g>
	<g>
		<path class="st0" d="M34.62,58.39c4.6,7.8,14.65,10.4,22.45,5.8s10.4-14.65,5.8-22.45l-3.61-6.12c-4.6-7.8-13.53-8.5-21.33-3.9
			s-11.52,12.75-6.92,20.55L34.62,58.39z"/>
		<path class="st1" d="M48.78,67.47c-1.46,0-2.93-0.19-4.38-0.56c-4.5-1.16-8.27-4.01-10.63-8.01l-3.61-6.12
			c-4.61-7.83-1.69-16.63,7.27-21.91c8.96-5.28,18.08-3.57,22.69,4.25l3.61,6.12c4.87,8.26,2.11,18.94-6.15,23.81
			C54.87,66.65,51.84,67.47,48.78,67.47z M35.48,57.89c2.09,3.54,5.43,6.06,9.41,7.09c3.98,1.03,8.13,0.45,11.67-1.64
			c3.54-2.09,6.06-5.43,7.09-9.41c1.03-3.98,0.45-8.13-1.64-11.67l-3.61-6.12c-4.63-7.85-13.36-7.44-19.96-3.55
			c-6.6,3.89-11.19,11.33-6.57,19.18L35.48,57.89z"/>
	</g>
	<circle class="st1" cx="40.41" cy="49.91" r="2.73"/>
	<circle class="st1" cx="52.65" cy="42.69" r="2.73"/>
	<path class="st3" d="M50.74,53.45c1.89-1.12,2.52-3.56,1.41-5.45l-6.86,4.04C46.41,53.94,48.85,54.57,50.74,53.45z"/>
	<g>
		
			<rect x="57.56" y="87.47" transform="matrix(0.8615 -0.5077 0.5077 0.8615 -36.8987 50.4086)" class="st4" width="32.79" height="10.75"/>
		<path class="st1" d="M62.21,107.17l-6.47-10.98l29.97-17.66l6.47,10.98L62.21,107.17z M58.47,96.89l4.45,7.55L89.45,88.8L85,81.26
			L58.47,96.89z"/>
	</g>
	<g>
		
			<rect x="66.73" y="87.47" transform="matrix(0.8615 -0.5077 0.5077 0.8615 -36.8987 50.4086)" class="st5" width="14.46" height="10.75"/>
		<path class="st1" d="M70.11,102.51l-6.47-10.98l14.17-8.35l6.47,10.98L70.11,102.51z M66.37,92.24l4.45,7.55l10.74-6.33
			l-4.45-7.55L66.37,92.24z"/>
	</g>
	<g>
		<path class="st6" d="M58.33,34.04C46.17,13.41,24.21-1.22,19.99,1.27s-2.06,28.79,10.1,49.42L58.33,34.04z"/>
		<path class="st1" d="M30.09,51.69c-0.08,0-0.17-0.01-0.25-0.03c-0.26-0.07-0.48-0.23-0.61-0.46C17.21,30.81,14.24,3.5,19.48,0.41
			C22.6-1.43,30.47,3.23,36.8,8.2c8.83,6.94,17,16.18,22.39,25.33c0.28,0.47,0.12,1.09-0.35,1.36L30.59,51.55
			C30.44,51.64,30.26,51.69,30.09,51.69z M21.24,1.97c-0.32,0-0.57,0.05-0.75,0.15c-3.02,1.78-2.08,26.17,9.95,47.2l26.52-15.63
			c-5.27-8.67-13.02-17.35-21.39-23.92C28.4,4.14,23.31,1.97,21.24,1.97z"/>
	</g>
	<g>
		<path class="st7" d="M72.45,90.29c15.44-9.1-0.19-44.03-11.39-51.62c1.83,8.03-6.27,14.06-9.59,16.02
			c-3.32,1.96-12.52,6.12-18.66,0.63C34.03,68.8,57.02,99.39,72.45,90.29z"/>
		<path class="st1" d="M66.32,92.94c-2.73,0-5.65-0.78-8.68-2.33c-12.57-6.45-24.91-25.05-25.83-35.19l-0.23-2.52l1.88,1.68
			c6.13,5.48,15.64,0.34,17.49-0.75c1.84-1.09,10.95-6.91,9.12-14.94l-0.56-2.46l2.09,1.42c8.43,5.71,18.72,25.52,18.28,39.64
			c-0.2,6.38-2.6,11.11-6.94,13.66l0,0C70.94,92.34,68.71,92.94,66.32,92.94z M34.19,57.53c2.31,9.92,13.52,25.74,24.37,31.3
			c5.11,2.62,9.62,2.83,13.39,0.6l0,0c3.77-2.22,5.78-6.26,5.96-12.01c0.39-12.18-8.02-29.65-15.58-36.48
			c0.06,8.02-8.48,13.5-10.35,14.6C50.11,56.65,41.18,61.47,34.19,57.53z"/>
	</g>
	<g>
		<path class="st7" d="M54.08,40.44l-3.68,1.02c-1.3,0.36-2.65-0.4-3.01-1.7l-0.11-0.4c-0.36-1.3,0.4-2.65,1.7-3.01l3.68-1.02
			c1.3-0.36,2.65,0.4,3.01,1.7l0.11,0.4C56.14,38.73,55.38,40.07,54.08,40.44z"/>
		<path class="st1" d="M49.75,42.54c-1.51,0-2.89-1-3.32-2.52l-0.11-0.4c-0.25-0.89-0.13-1.81,0.32-2.61
			c0.45-0.8,1.19-1.38,2.07-1.62l3.68-1.02c1.83-0.51,3.73,0.57,4.24,2.4l0.11,0.4c0.51,1.83-0.57,3.73-2.4,4.24l-3.68,1.02
			C50.36,42.5,50.05,42.54,49.75,42.54z M53.31,36.23c-0.13,0-0.26,0.02-0.39,0.05l-3.68,1.02c-0.77,0.21-1.22,1.01-1.01,1.78
			l0.11,0.4c0.21,0.77,1.01,1.22,1.78,1.01l3.68-1.02c0.77-0.21,1.22-1.01,1.01-1.78l-0.11-0.4C54.53,36.65,53.95,36.23,53.31,36.23
			z"/>
	</g>
	<g>
		<path class="st7" d="M40.41,47.34l-2.67,2.72c-0.95,0.96-2.49,0.98-3.46,0.03l-0.3-0.29c-0.96-0.95-0.98-2.49-0.03-3.46l2.67-2.72
			c0.95-0.96,2.49-0.98,3.46-0.03l0.3,0.29C41.34,44.83,41.36,46.38,40.41,47.34z"/>
		<path class="st1" d="M35.99,51.79c-0.91,0-1.76-0.35-2.41-0.99l-0.3-0.29c-0.66-0.64-1.02-1.51-1.03-2.42
			c-0.01-0.92,0.34-1.79,0.99-2.44l2.67-2.72c1.33-1.35,3.51-1.37,4.87-0.04l0.3,0.29c1.35,1.33,1.37,3.51,0.04,4.87l-2.67,2.72
			c-0.64,0.66-1.51,1.02-2.42,1.03C36.02,51.79,36,51.79,35.99,51.79z M38.37,43.89c-0.37,0-0.75,0.14-1.03,0.43l-2.67,2.72
			c-0.27,0.28-0.42,0.64-0.41,1.03c0,0.39,0.16,0.75,0.43,1.02l0.3,0.29c0.28,0.27,0.63,0.42,1.03,0.41c0.39,0,0.75-0.16,1.02-0.43
			l2.67-2.72c0.56-0.57,0.55-1.49-0.02-2.05l-0.3-0.29C39.1,44.03,38.74,43.89,38.37,43.89z"/>
	</g>
	<g>
		<g>
			<path class="st4" d="M67.76,106.77c2.32-1.37,5.02-1.53,7.37-0.68l4.95-2.91l2.8,4.75l-3.24,1.91l-4.45,2.63l-10.48,6.17
				C62.26,114.51,63.63,109.2,67.76,106.77z"/>
			<path class="st1" d="M64.34,120l-0.51-0.86c-1.31-2.22-1.68-4.82-1.03-7.32c0.65-2.5,2.23-4.6,4.45-5.91
				c2.36-1.39,5.16-1.71,7.76-0.91l5.41-3.19l3.81,6.46L64.34,120z M72.15,106.57c-1.35,0-2.69,0.36-3.89,1.06l0,0
				c-1.77,1.04-3.02,2.7-3.53,4.69c-0.43,1.66-0.29,3.37,0.37,4.92l16.4-9.67l-1.78-3.03l-4.49,2.65l-0.44-0.16
				C73.93,106.72,73.04,106.57,72.15,106.57z"/>
		</g>
		<g>
			<path class="st4" d="M89.14,94.17c-2.32,1.37-3.77,3.65-4.16,6.12l-4.95,2.91l2.8,4.75l3.24-1.91l4.45-2.63l10.48-6.17
				C98.58,93.11,93.27,91.74,89.14,94.17z"/>
			<path class="st1" d="M82.48,109.31l-3.81-6.46l5.41-3.19c0.56-2.66,2.2-4.96,4.55-6.35l0,0c2.22-1.31,4.82-1.68,7.32-1.03
				c2.5,0.65,4.6,2.23,5.91,4.45l0.51,0.86L82.48,109.31z M81.4,103.55l1.78,3.03l16.4-9.67c-1.03-1.33-2.47-2.28-4.13-2.7
				c-1.98-0.51-4.05-0.22-5.81,0.82c-1.98,1.17-3.32,3.14-3.68,5.41l-0.07,0.46L81.4,103.55z"/>
		</g>
	</g>
	<path class="st1" d="M50,61.02c-0.34,0-0.67-0.18-0.86-0.49c-0.28-0.47-0.12-1.09,0.35-1.36l6.86-4.04
		c0.48-0.28,1.09-0.12,1.36,0.35c0.28,0.47,0.12,1.09-0.35,1.36l-6.86,4.04C50.34,60.98,50.17,61.02,50,61.02z"/>
</g>
</svg>
