<?xml version="1.0" encoding="utf-8"?>
<!-- Generator: Adobe Illustrator 24.0.1, SVG Export Plug-In . SVG Version: 6.00 Build 0)  -->
<svg version="1.1" id="Layer_1" xmlns="http://www.w3.org/2000/svg" xmlns:xlink="http://www.w3.org/1999/xlink" x="0px" y="0px"
	 viewBox="0 0 120 120" style="enable-background:new 0 0 120 120;" xml:space="preserve">
<style type="text/css">
	.st0{fill:#C0C6CB;}
	.st1{fill:#243038;}
	.st2{fill:#E5E7E9;}
	.st3{fill:#D0D4D8;}
	.st4{fill:none;stroke:#D3D3D3;stroke-width:1.788174e-02;stroke-miterlimit:10;}
	.st5{fill:none;stroke:#BBB774;stroke-width:0.1431;stroke-miterlimit:10;}
	.st6{fill:none;stroke:#BBB774;stroke-width:7.152696e-02;stroke-miterlimit:10;}
	.st7{fill:none;stroke:#BBB774;stroke-width:0.2861;stroke-miterlimit:10;}
	.st8{fill:#7F742E;}
	.st9{fill:#BBB774;}
</style>
<g>
	<g>
		<path class="st0" d="M37.7,57.6c-9.3-9.3-23.6-10.6-34.3-4c-2.8,1.8-3.2,5.7-0.9,8l31.1,31.2c2.3,2.3,6.2,1.9,8-0.9
			C48.3,81.1,47,66.9,37.7,57.6z"/>
		<path class="st1" d="M37.3,95.3c-1.6,0-3.2-0.6-4.3-1.8L1.8,62.3c-1.3-1.3-2-3.2-1.8-5c0.2-1.9,1.2-3.5,2.8-4.5
			c11.4-7.1,26-5.4,35.5,4.1l0,0C48,66.4,49.6,81,42.5,92.4c-1,1.6-2.6,2.6-4.5,2.8C37.8,95.3,37.5,95.3,37.3,95.3z M18.1,50.4
			c-4.9,0-9.8,1.3-14.1,4.1c-1.1,0.7-1.8,1.8-1.9,3c-0.2,1.3,0.3,2.5,1.2,3.4l31.1,31.2c0.9,0.9,2.1,1.3,3.4,1.2
			c1.3-0.1,2.4-0.8,3-1.9c6.6-10.6,5-24.2-3.8-33.1C31.8,53.1,25,50.4,18.1,50.4z"/>
	</g>
	<g>
		<path class="st0" d="M61.7,81.6c-9.3-9.3-23.6-10.6-34.3-3.9c-2.8,1.8-3.2,5.7-0.9,8l31.2,31.2c2.3,2.3,6.2,1.9,8-0.9
			C72.3,105.1,71,90.9,61.7,81.6z"/>
		<path class="st1" d="M61.3,119.3c-1.6,0-3.2-0.6-4.3-1.8L25.8,86.3c-1.3-1.3-2-3.2-1.8-5.1c0.2-1.9,1.2-3.5,2.9-4.5
			c11.4-7.1,26-5.4,35.5,4.1l0,0l0,0c9.5,9.5,11.2,24.1,4.1,35.5c-1,1.6-2.6,2.6-4.5,2.8C61.8,119.2,61.5,119.3,61.3,119.3z
			 M42.1,74.4c-4.9,0-9.8,1.3-14.1,4.1c-1.1,0.7-1.8,1.8-1.9,3c-0.1,1.3,0.3,2.5,1.2,3.4l31.1,31.2c0.9,0.9,2.1,1.3,3.4,1.2
			c1.3-0.1,2.4-0.8,3-1.9c6.6-10.6,5.1-24.2-3.8-33.1l0,0C55.8,77.1,49,74.4,42.1,74.4z"/>
	</g>
	<g>
		<path class="st2" d="M46.5,105.6c11.3-6.4,23.6-15.9,35.4-27.7c29.5-29.5,44.5-62.3,33.5-73.2S71.7,8.6,42.2,38.1
			C30.4,50,20.9,62.3,14.5,73.6L46.5,105.6z"/>
		<path class="st1" d="M46.3,106.8L13.2,73.7l0.4-0.7C20.3,61.3,30,48.9,41.5,37.4C55.8,23.1,71.4,11.7,85.3,5.3
			c14.2-6.5,25.2-7,30.8-1.4c5.6,5.6,5.1,16.5-1.4,30.8c-6.4,13.9-17.8,29.5-32.1,43.9C71.1,90,58.8,99.7,47,106.4L46.3,106.8z
			 M15.7,73.4l30.9,30.9c11.4-6.6,23.4-16,34.5-27.2c14.2-14.2,25.4-29.5,31.7-43.3c6.1-13.2,6.7-23.6,1.8-28.5
			C109.8,0.4,99.4,1,86.2,7.1c-13.7,6.3-29.1,17.6-43.3,31.7C31.7,50,22.3,61.9,15.7,73.4z"/>
	</g>
	<g>
		<polygon class="st3" points="30.8,108.2 11.9,89.2 18.1,77.2 42.8,101.9 		"/>
		<path class="st1" d="M30.6,109.4l-20-20l7.2-13.9l26.7,26.7L30.6,109.4z M13.1,89L31,106.9l10.2-5.3L18.3,78.9L13.1,89z"/>
	</g>
	<g>
		<path class="st1" d="M63.5,73.7c-4.4,0-8.8-1.7-12.2-5c-6.7-6.7-6.7-17.6,0-24.3c6.7-6.7,17.6-6.7,24.3,0c6.7,6.7,6.7,17.6,0,24.3
			l0,0C72.3,72,67.9,73.7,63.5,73.7z"/>
	</g>
	<rect x="91.9" y="4.2" transform="matrix(0.7071 -0.7071 0.7071 0.7071 8.0342 73.6224)" class="st1" width="2" height="45.8"/>
</g>
<path class="st4" d="M81.9,49.5"/>
<g>
	<g>
		<path class="st5" d="M47.5,62.1c0,0,8.9-22.3,25.3-19.8"/>
		<path class="st6" d="M46.1,55c0,0,16.9-13.8,33.5-3.2"/>
		<path class="st7" d="M47.5,50.5c0,0,19-12,32.1,1.3"/>
		<path class="st5" d="M55,41.9c-3.4,3.6,2.7,20.2,23.5,21.8c0,0,1-3.7,0.2-7.5"/>
		<path class="st6" d="M61.3,39.6c0,0,19.6,13.8,13.4,29.2"/>
		<path class="st6" d="M72.9,42.4c0,0,6.3,23.3-8.5,30.8"/>
		<path class="st6" d="M77.8,47.7c0,0-4.7,23.5-21.3,24.1"/>
		<path class="st5" d="M80.1,54.4c0,0-13.9,19.5-29.3,13.2"/>
		<path class="st6" d="M76.5,66.8c0,0-24,3.5-30.4-11.8"/>
		<path class="st7" d="M70.6,71.5c0,0-23-6.8-22-23.4"/>
		<path class="st6" d="M64.4,73.1c0,0-18.7-15-11.6-30"/>
		<path class="st7" d="M56.7,71.8c0,0-10-21.8,3.1-32"/>
		<path class="st6" d="M50.8,67.6c0,0-1.5-23.1,15.6-27.9"/>
	</g>
	<line class="st6" x1="61.8" y1="41.7" x2="59.1" y2="40.4"/>
	<line class="st6" x1="60.4" y1="42.6" x2="57.6" y2="41.8"/>
	<line class="st6" x1="58.8" y1="43.9" x2="56.3" y2="43.6"/>
	<line class="st6" x1="57.5" y1="45.2" x2="55.3" y2="45.3"/>
	<path class="st6" d="M54.3,64.9c1.6,1.4,3.7,1.8,3.7,1.8"/>
	<path class="st6" d="M55,66.7c1.4,0.8,2.9,0.9,4,1.1"/>
	<path class="st6" d="M56,70.2c0,0,3.1,0.3,7.6-1.6"/>
	<path class="st6" d="M59.8,72.8c0,0,3.9-0.9,6.8-2.7"/>
	<line class="st6" x1="66.5" y1="42.6" x2="63.2" y2="39.4"/>
	<path class="st6" d="M77,58c0,0,0.8,3.9,0.2,5.7"/>
	<path class="st6" d="M74.5,63.2c0,0,0.2-1.3-0.2-2.4"/>
</g>
<path class="st8" d="M55.5,59.8c0,0,0.5,0.9,3-0.2c2.1-1,4-2.2,4.8-2.3c0.8-0.1,0.8,0.7,0.8,0.7s0.9-0.9,0.3-1.5
	c-0.7-0.7-1.3-0.8-2-0.5c-0.7,0.3-5,2.6-5,2.6c0.3-0.1-2.4,0.5-1.9-0.2C56.2,57.5,54.6,59.2,55.5,59.8z"/>
<path class="st8" d="M66.1,51.2c0,0,0.3,0.6,0.7,0.8c0.4,0.2,0.6,0.5,1.1,0.1c0.4-0.3,1.2-1.3,0.8-1.5
	C68.5,50.4,67.1,50.3,66.1,51.2z"/>
<path class="st9" d="M68.9,50.7c0,0-0.1-0.2-0.3-0.3c-0.4-0.2-0.6-0.4-0.7-0.6c-0.5-0.9-1.8,0.1-3.6,1.4c-1.2,0.8-8.2,6.5-8.8,7.1
	c-0.6,0.6-0.5,1.2,0,1.6c1,0.7,2.2,0,2.2,0s-1.7,0.1-0.7-0.7c0.6-0.5,7.4-5.9,8.2-6.6C65.9,52,68,50.3,68.9,50.7z"/>
<path class="st9" d="M62.8,61.5c-1.6,0-2-0.9-0.5-2c2.4-1.8,2.8-2.3,2.3-3c-0.4-0.7-1-0.9-1.6-0.7c0,0,0.3,0,0.5,0.3
	c0.3,0.5-1.2,1.4-2.1,2.1c-1.7,1.4-1.8,2-1.4,2.7c0.3,0.6,1.8,1.8,3.7,1.5s1.8-1.4,1.3-1.3"/>
<g>
	<path class="st1" d="M63.5,74.7c-4.9,0-9.4-1.9-12.9-5.3c-7.1-7.1-7.1-18.6,0-25.7c7.1-7.1,18.6-7.1,25.7,0
		c7.1,7.1,7.1,18.6,0,25.7C72.9,72.8,68.3,74.7,63.5,74.7z M63.5,40.3c-4.1,0-8.3,1.6-11.5,4.7c-6.3,6.3-6.3,16.6,0,22.9
		c3.1,3.1,7.1,4.7,11.5,4.7c4.3,0,8.4-1.7,11.5-4.7c6.3-6.3,6.3-16.6,0-22.9C71.8,41.9,67.6,40.3,63.5,40.3z"/>
</g>
</svg>
