<?xml version="1.0" encoding="utf-8"?>
<!-- Generator: Adobe Illustrator 24.0.3, SVG Export Plug-In . SVG Version: 6.00 Build 0)  -->
<svg version="1.1" id="Layer_1" xmlns="http://www.w3.org/2000/svg" xmlns:xlink="http://www.w3.org/1999/xlink" x="0px" y="0px"
	 viewBox="0 0 120 120" style="enable-background:new 0 0 120 120;" xml:space="preserve">
<style type="text/css">
	.st0{fill:#243038;}
	.st1{fill:#8FDE99;}
	.st2{fill:#E6A8DB;}
	.st3{fill:#9AD6F5;}
	.st4{fill:#41B2EC;}
	.st5{fill:#C7DAAE;}
	.st6{fill:#96BA67;}
	.st7{fill:#FCD4A5;}
	.st8{fill:#F9AE56;}
	.st9{fill:#E9B0DF;}
	.st10{fill:#D56AC2;}
	.st11{fill:#D3B3AB;}
	.st12{fill:#AC7161;}
	.st13{fill:#F99C9F;}
	.st14{fill:#F4454B;}
	.st15{fill:#90D2F4;}
</style>
<path class="st0" d="M61.7,118.97c-1.1,0-2-0.89-2-2V50.53c0-1.1,0.89-2,2-2c1.1,0,2,0.89,2,2v66.44
	C63.7,118.07,62.81,118.97,61.7,118.97z"/>
<g>
	<circle class="st1" cx="105.53" cy="15.8" r="14.47"/>
	<path class="st0" d="M106.53,30.27h-2c0-9.19-4.28-13.47-13.47-13.47v-2c9.19,0,13.47-4.28,13.47-13.47h2
		c0,9.19,4.28,13.47,13.47,13.47v2C110.81,16.8,106.53,21.08,106.53,30.27z M97.88,15.8c3.8,1.3,6.35,3.85,7.65,7.65
		c1.3-3.8,3.85-6.35,7.65-7.65c-3.8-1.3-6.35-3.85-7.65-7.65C104.23,11.95,101.68,14.51,97.88,15.8z"/>
</g>
<g>
	<path class="st2" d="M16.08,43.93c-4.59,4.59-4.59,8.99,0,13.58c-4.59-4.59-8.99-4.59-13.58,0c4.59-4.59,4.59-8.99,0-13.58
		C7.09,48.51,11.5,48.51,16.08,43.93z"/>
	<path class="st0" d="M15.38,58.21c-4.21-4.21-7.96-4.21-12.17,0L1.8,56.8c2.12-2.12,3.15-4.11,3.15-6.08s-1.03-3.96-3.15-6.08
		l1.41-1.41c4.21,4.21,7.96,4.21,12.17,0l1.41,1.41c-2.12,2.12-3.15,4.11-3.15,6.08s1.03,3.97,3.15,6.08L15.38,58.21z M9.29,53.07
		c0.98,0,1.94,0.18,2.9,0.55c-0.37-0.96-0.55-1.92-0.55-2.9c0-0.98,0.18-1.95,0.55-2.91c-1.93,0.74-3.87,0.74-5.8,0
		c0.37,0.96,0.55,1.93,0.55,2.91c0,0.98-0.18,1.94-0.55,2.9C7.36,53.25,8.32,53.07,9.29,53.07z"/>
</g>
<g>
	<g>
		<path class="st3" d="M36.14,44.11c14.87-3.76,23.18-2.97,23.18-2.97l2.38,9.39l-23.02,5.82C38.68,56.35,21.27,47.87,36.14,44.11z"
			/>
		<path class="st0" d="M38.68,57.35c-0.15,0-0.3-0.03-0.44-0.1c-0.98-0.48-9.55-4.79-9.09-9.21c0.23-2.21,2.44-3.82,6.75-4.91l0,0
			c14.87-3.76,23.18-3.03,23.52-3c0.42,0.04,0.77,0.34,0.87,0.75l2.38,9.39c0.06,0.26,0.03,0.53-0.11,0.76
			c-0.14,0.23-0.36,0.39-0.61,0.46l-23.02,5.82C38.84,57.34,38.76,57.35,38.68,57.35z M57.24,42.07c-3.27,0-10.46,0.38-20.85,3l0,0
			c-3.26,0.82-5.12,1.95-5.25,3.17c-0.24,2.29,4.85,5.62,7.65,7.04l21.7-5.49l-1.95-7.71C58.22,42.08,57.78,42.07,57.24,42.07z"/>
	</g>
	<g>
		<path class="st4" d="M61.7,50.53L20.87,60.86c2.45-9.84,6.65-14.57,15.27-16.75C44.76,41.93,51.63,48.98,61.7,50.53z"/>
		<path class="st0" d="M20.87,61.86c-0.26,0-0.52-0.1-0.71-0.29c-0.25-0.25-0.35-0.61-0.26-0.95c2.57-10.32,7.06-15.22,16-17.48
			c5.43-1.37,10.14,0.67,15.13,2.83c3.36,1.46,6.84,2.96,10.83,3.58c0.47,0.07,0.82,0.47,0.85,0.94c0.02,0.47-0.29,0.9-0.75,1.02
			L21.12,61.83C21.04,61.85,20.95,61.86,20.87,61.86z M39.49,44.69c-1.01,0-2.04,0.12-3.1,0.39c-7.73,1.96-11.68,5.92-14.11,14.4
			l35.16-8.89c-2.55-0.76-4.9-1.78-7.2-2.78C46.44,46.16,43.05,44.69,39.49,44.69z"/>
	</g>
	<g>
		<g>
			<path class="st5" d="M43.36,69.45c4.18-14.76,9.02-21.56,9.02-21.56l9.32,2.64l-6.47,22.85C55.23,73.38,39.18,84.21,43.36,69.45z
				"/>
			<path class="st0" d="M45.82,78.2c-0.96,0-1.83-0.21-2.54-0.72c-1.8-1.3-2.09-4.02-0.88-8.3l0,0c4.18-14.76,8.97-21.58,9.17-21.87
				c0.24-0.34,0.68-0.5,1.09-0.38l9.32,2.64c0.25,0.07,0.47,0.24,0.6,0.47c0.13,0.23,0.16,0.5,0.09,0.76l-6.47,22.85
				c-0.06,0.23-0.21,0.42-0.4,0.56C55.07,74.7,49.74,78.2,45.82,78.2z M44.32,69.72c-0.92,3.23-0.87,5.41,0.12,6.13
				c1.72,1.24,6.72-1.01,9.93-3.11l6.1-21.53l-7.66-2.17C51.6,50.98,47.72,57.71,44.32,69.72L44.32,69.72z"/>
		</g>
		<g>
			<path class="st6" d="M61.7,50.53L50.23,91.05c-7.3-7.05-9.29-13.05-6.87-21.6C45.78,60.9,55.32,58.48,61.7,50.53z"/>
			<path class="st0" d="M50.23,92.05c-0.26,0-0.51-0.1-0.69-0.28c-7.65-7.38-9.65-13.72-7.14-22.59c1.53-5.39,5.65-8.45,10.01-11.69
				c2.94-2.18,5.99-4.44,8.51-7.59c0.3-0.37,0.82-0.48,1.24-0.26c0.42,0.22,0.63,0.7,0.5,1.16L51.19,91.32
				c-0.1,0.34-0.36,0.6-0.7,0.69C50.4,92.04,50.32,92.05,50.23,92.05z M59.61,54.25c-1.94,1.83-4,3.36-6.01,4.85
				c-4.26,3.16-7.94,5.89-9.28,10.63c-2.17,7.67-0.71,13.07,5.41,19.42L59.61,54.25z"/>
		</g>
	</g>
	<g>
		<g>
			<path class="st7" d="M68.92,75.88c-10.69-11-14.16-18.59-14.16-18.59l6.95-6.75l16.55,17.03C78.26,67.56,79.61,86.88,68.92,75.88
				z"/>
			<path class="st0" d="M74.39,80.27c-1.74,0-3.78-1.22-6.19-3.7c-10.69-11-14.21-18.56-14.36-18.87c-0.18-0.38-0.09-0.84,0.21-1.13
				l6.95-6.75c0.19-0.18,0.44-0.28,0.7-0.28c0,0,0.01,0,0.01,0c0.27,0,0.52,0.11,0.7,0.3l16.55,17.03c0.16,0.17,0.26,0.39,0.28,0.63
				c0.08,1.09,0.63,10.66-3.43,12.47C75.37,80.17,74.89,80.27,74.39,80.27z M55.98,57.49c1.06,2.01,4.95,8.73,13.66,17.69l0,0
				c2.34,2.41,4.25,3.46,5.37,2.96c1.93-0.86,2.48-6.33,2.27-10.15l-15.6-16.05L55.98,57.49z"/>
		</g>
		<g>
			<path class="st8" d="M61.7,50.53l29.36,30.2c-9.75,2.8-15.94,1.52-22.14-4.85C62.72,69.5,65.4,60.03,61.7,50.53z"/>
			<path class="st0" d="M82.41,83.13c-5.51,0-9.87-2.1-14.21-6.56c-3.9-4.02-4.49-9.12-5.12-14.52c-0.42-3.64-0.85-7.4-2.32-11.16
				c-0.17-0.44-0.01-0.95,0.39-1.2c0.4-0.26,0.92-0.2,1.26,0.14l29.36,30.2c0.24,0.25,0.34,0.61,0.25,0.95
				c-0.09,0.34-0.35,0.61-0.69,0.7C88.01,82.64,85.07,83.13,82.41,83.13z M63.88,54.2c0.61,2.59,0.91,5.14,1.2,7.63
				c0.61,5.27,1.13,9.82,4.56,13.35c5.56,5.72,10.97,7.15,19.52,5.02L63.88,54.2z"/>
		</g>
	</g>
	<g>
		<g>
			<path class="st9" d="M87.26,56.95c-14.87,3.76-23.18,2.97-23.18,2.97l-2.38-9.39l23.02-5.82
				C84.73,44.71,102.13,53.19,87.26,56.95z"/>
			<path class="st0" d="M66.27,61c-1.41,0-2.19-0.07-2.29-0.08c-0.42-0.04-0.77-0.34-0.87-0.75l-2.38-9.39
				c-0.06-0.26-0.03-0.53,0.11-0.76c0.14-0.23,0.36-0.39,0.61-0.46l23.02-5.82c0.23-0.06,0.47-0.03,0.68,0.07
				c0.98,0.48,9.55,4.79,9.09,9.21c-0.23,2.21-2.44,3.82-6.75,4.91C76.96,60.59,69.72,61,66.27,61z M64.87,58.97
				c2.27,0.08,10.04,0.08,22.15-2.98l0,0c3.26-0.82,5.12-1.95,5.25-3.17c0.22-2.11-4.24-5.32-7.65-7.04l-21.7,5.49L64.87,58.97z"/>
		</g>
		<g>
			<path class="st10" d="M61.7,50.53l40.83-10.33c-2.45,9.84-6.65,14.57-15.27,16.75C78.64,59.13,71.78,52.08,61.7,50.53z"/>
			<path class="st0" d="M83.93,58.37c-3.99,0-7.69-1.6-11.55-3.27c-3.36-1.46-6.84-2.96-10.83-3.58c-0.47-0.07-0.82-0.47-0.85-0.94
				c-0.02-0.47,0.29-0.9,0.75-1.02l40.83-10.33c0.34-0.09,0.7,0.01,0.95,0.26c0.25,0.25,0.35,0.61,0.26,0.95
				c-2.57,10.32-7.06,15.22-16,17.48C86.28,58.23,85.09,58.37,83.93,58.37z M65.97,50.48c2.55,0.76,4.9,1.78,7.2,2.78
				c4.87,2.11,9.07,3.93,13.84,2.72c7.73-1.95,11.68-5.92,14.11-14.39L65.97,50.48z"/>
		</g>
	</g>
	<g>
		<g>
			<path class="st11" d="M80.04,31.61c-4.18,14.76-9.02,21.56-9.02,21.56l-9.32-2.64l6.47-22.85
				C68.17,27.68,84.22,16.85,80.04,31.61z"/>
			<path class="st0" d="M71.03,54.17c-0.09,0-0.18-0.01-0.27-0.04l-9.32-2.64c-0.25-0.07-0.47-0.24-0.6-0.47
				c-0.13-0.23-0.16-0.5-0.09-0.76l6.47-22.85c0.06-0.23,0.21-0.42,0.4-0.56c0.9-0.61,8.92-5.87,12.52-3.27
				c1.8,1.3,2.09,4.02,0.88,8.3c-4.18,14.76-8.96,21.59-9.17,21.87C71.65,54.02,71.34,54.17,71.03,54.17z M62.94,49.84l7.66,2.17
				c1.21-1.93,5.09-8.65,8.49-20.67l0,0c0.92-3.23,0.87-5.41-0.12-6.13c-1.86-1.35-7.29,1.39-9.93,3.11L62.94,49.84z"/>
		</g>
		<g>
			<path class="st12" d="M61.7,50.53l11.47-40.52c7.3,7.05,9.29,13.05,6.87,21.6S68.08,42.58,61.7,50.53z"/>
			<path class="st0" d="M61.7,51.53c-0.16,0-0.31-0.04-0.46-0.11c-0.42-0.22-0.63-0.7-0.5-1.16L72.21,9.74
				c0.1-0.34,0.36-0.6,0.7-0.69c0.34-0.09,0.7,0,0.95,0.25c7.65,7.38,9.65,13.72,7.14,22.59c-1.52,5.39-5.65,8.45-10.01,11.69
				c-2.94,2.18-5.99,4.44-8.51,7.59C62.29,51.4,62,51.53,61.7,51.53z M73.67,11.92l-9.88,34.89c1.94-1.83,4-3.36,6.01-4.85
				c4.26-3.16,7.94-5.89,9.28-10.63C81.26,23.66,79.8,18.26,73.67,11.92z"/>
		</g>
	</g>
	<g>
		<g>
			<path class="st13" d="M54.49,25.18c10.69,11,14.16,18.59,14.16,18.59l-6.95,6.75L45.15,33.5C45.15,33.5,43.79,14.19,54.49,25.18z
				"/>
			<path class="st0" d="M61.7,51.53c0,0-0.01,0-0.01,0c-0.27,0-0.52-0.11-0.7-0.3L44.43,34.2c-0.16-0.17-0.26-0.39-0.28-0.63
				c-0.08-1.09-0.63-10.66,3.43-12.47c2.03-0.91,4.52,0.2,7.62,3.39c10.69,11,14.21,18.56,14.36,18.87
				c0.18,0.38,0.09,0.84-0.21,1.13l-6.95,6.75C62.21,51.43,61.96,51.53,61.7,51.53z M46.12,33.07l15.6,16.05l5.7-5.55
				c-1.06-2.01-4.95-8.73-13.66-17.69c-2.34-2.41-4.25-3.46-5.37-2.96C46.46,23.79,45.91,29.25,46.12,33.07z"/>
		</g>
		<g>
			<path class="st14" d="M61.7,50.53l-29.36-30.2c9.75-2.8,15.94-1.52,22.14,4.85S58.01,41.03,61.7,50.53z"/>
			<path class="st0" d="M61.7,51.53c-0.26,0-0.52-0.1-0.72-0.3l-29.36-30.2c-0.24-0.25-0.34-0.61-0.25-0.95
				c0.09-0.34,0.35-0.61,0.69-0.7c10.22-2.93,16.71-1.5,23.13,5.11c3.9,4.02,4.49,9.12,5.12,14.52c0.42,3.64,0.85,7.4,2.32,11.16
				c0.17,0.44,0.01,0.95-0.39,1.2C62.08,51.48,61.89,51.53,61.7,51.53z M34.25,20.86l25.28,26c-0.61-2.59-0.91-5.14-1.2-7.63
				c-0.61-5.27-1.13-9.83-4.56-13.35C48.21,20.16,42.81,18.73,34.25,20.86z"/>
		</g>
	</g>
	<g>
		<circle class="st0" cx="61.7" cy="50.53" r="5"/>
		<path class="st0" d="M61.69,56.53c-1.07,0-2.12-0.29-3.06-0.85c-1.38-0.82-2.35-2.13-2.74-3.68c-0.39-1.55-0.16-3.16,0.66-4.54
			c0.82-1.38,2.13-2.35,3.68-2.74c3.2-0.81,6.47,1.14,7.28,4.34c0,0,0,0,0,0c0.39,1.55,0.16,3.16-0.66,4.54
			c-0.82,1.38-2.13,2.35-3.68,2.74C62.68,56.47,62.18,56.53,61.69,56.53z M61.7,46.53c-0.32,0-0.65,0.04-0.98,0.12
			c-1.04,0.26-1.91,0.91-2.45,1.83c-0.55,0.92-0.7,1.99-0.44,3.03c0.26,1.03,0.91,1.91,1.83,2.45c0.92,0.55,1.99,0.7,3.03,0.44
			c1.04-0.26,1.91-0.91,2.45-1.83c0.55-0.92,0.7-1.99,0.44-3.03C65.12,47.74,63.49,46.53,61.7,46.53z"/>
	</g>
</g>
<g>
	<polygon class="st15" points="9.69,16.05 12.72,23.08 16.46,16.4 24.09,15.69 18.89,10.07 20.58,2.6 13.62,5.8 7.04,1.89 7.94,9.5 
		2.18,14.55 	"/>
	<path class="st0" d="M12.6,25.34l-3.62-8.41L0,15.14l6.88-6.04L5.81,0l7.87,4.68L22,0.84l-2.02,8.93l6.22,6.73l-9.12,0.84
		L12.6,25.34z M4.36,13.97l6.04,1.2l2.44,5.66l3.01-5.37l6.13-0.57l-4.18-4.52l1.36-6.01l-5.59,2.58l-5.3-3.15L8.99,9.9L4.36,13.97z
		"/>
</g>
</svg>
