<?xml version="1.0" encoding="utf-8"?>
<!-- Generator: Adobe Illustrator 24.0.3, SVG Export Plug-In . SVG Version: 6.00 Build 0)  -->
<svg version="1.1" id="Layer_1" xmlns="http://www.w3.org/2000/svg" xmlns:xlink="http://www.w3.org/1999/xlink" x="0px" y="0px"
	 viewBox="0 0 120 120" style="enable-background:new 0 0 120 120;" xml:space="preserve">
<style type="text/css">
	.st0{fill:#DABCA5;}
	.st1{fill:#243038;}
	.st2{fill:#FCC878;}
	.st3{fill:#F1070F;}
</style>
<g>
	<g>
		<path class="st0" d="M104.04,116.69L114.51,6.24c0.25-2.6-1.71-4.91-4.32-5.06C89.33,0.02,67.9,4.29,48.06,14.71
			S12.55,40.35,1.67,58.18c-1.36,2.23-0.57,5.15,1.71,6.43l96.88,54.06C101.87,119.57,103.86,118.52,104.04,116.69z"/>
		<path class="st1" d="M101.51,120c-0.59,0-1.19-0.15-1.73-0.45L2.89,65.48c-1.35-0.75-2.31-1.99-2.71-3.49
			c-0.39-1.49-0.17-3.02,0.63-4.33C12.13,39.12,28.31,23.96,47.6,13.83C66.89,3.69,88.55-1.02,110.24,0.18
			c1.53,0.09,2.92,0.77,3.92,1.94c1.01,1.17,1.49,2.67,1.34,4.21l-10.47,110.45c-0.11,1.2-0.82,2.24-1.88,2.8
			C102.64,119.86,102.07,120,101.51,120z M103.58,2C84.46,2,65.55,6.65,48.53,15.6c-18.97,9.96-34.88,24.87-46,43.11
			c-0.51,0.84-0.65,1.82-0.4,2.78c0.25,0.97,0.87,1.77,1.75,2.25l96.88,54.06c0.46,0.26,1,0.27,1.47,0.02
			c0.47-0.25,0.77-0.69,0.82-1.22v0L113.51,6.14c0.09-0.99-0.21-1.96-0.87-2.72c-0.64-0.75-1.54-1.19-2.52-1.24
			C107.94,2.06,105.76,2,103.58,2z"/>
	</g>
	<g>
		<path class="st2" d="M104.04,116.69l9-94.93c-18.55-1.78-37.8,1.62-55.53,10.93C39.78,42,26.06,55.93,17,72.21l83.27,46.46
			C101.87,119.57,103.86,118.52,104.04,116.69z"/>
		<path class="st1" d="M101.51,120c-0.59,0-1.19-0.15-1.73-0.45L15.64,72.59l0.49-0.87c9.48-17.03,23.63-30.83,40.92-39.92
			c17.29-9.08,36.67-12.9,56.09-11.04l0.99,0.1l-9.09,95.92c-0.11,1.2-0.82,2.24-1.88,2.8C102.63,119.86,102.07,120,101.51,120z
			 M18.36,71.82l82.39,45.97c0.46,0.26,1,0.27,1.47,0.02c0.47-0.25,0.77-0.69,0.82-1.22l8.9-93.93
			c-18.69-1.6-37.33,2.17-53.97,10.91C41.33,42.32,27.65,55.53,18.36,71.82z"/>
	</g>
	<path class="st3" d="M40.46,62.57c-6.14,3.23-9.86,9.25-10.44,15.68l31.36,17.5c7.63-5.69,10.23-16.22,5.66-24.91
		C61.98,61.22,50.08,57.51,40.46,62.57z"/>
	<path class="st3" d="M103.46,111.54l3.62-38.22c-2.27,0.29-4.54,0.96-6.69,2.08c-9.62,5.06-13.33,16.96-8.27,26.58
		C94.6,106.72,98.75,110.01,103.46,111.54z"/>
	<path class="st3" d="M85.6,30.18c-9.62,5.06-13.33,16.96-8.27,26.58c5.06,9.62,16.96,13.33,26.58,8.27
		c1.58-0.83,2.99-1.86,4.24-3.02l2.47-26.03C104.96,28.24,94.35,25.58,85.6,30.18z"/>
</g>
</svg>
