<?xml version="1.0" encoding="utf-8"?>
<!-- Generator: Adobe Illustrator 24.0.3, SVG Export Plug-In . SVG Version: 6.00 Build 0)  -->
<svg version="1.1" id="Layer_1" xmlns="http://www.w3.org/2000/svg" xmlns:xlink="http://www.w3.org/1999/xlink" x="0px" y="0px"
	 viewBox="0 0 120 120" style="enable-background:new 0 0 120 120;" xml:space="preserve">
<style type="text/css">
	.st0{fill:#C0C6CB;}
	.st1{fill:#243038;}
	.st2{fill:#E5E7E9;}
	.st3{fill:#D0D4D8;}
	.st4{fill:#9AD6F5;}
</style>
<g>
	<g>
		<path class="st0" d="M37.72,57.56c-9.31-9.31-23.59-10.63-34.3-3.95c-2.81,1.75-3.25,5.67-0.91,8l31.15,31.15
			c2.34,2.34,6.25,1.9,8-0.91C48.34,81.14,47.03,66.87,37.72,57.56z"/>
		<path class="st1" d="M37.29,95.27c-1.62,0-3.17-0.64-4.34-1.8L1.8,62.32c-1.33-1.33-1.98-3.17-1.76-5.05
			c0.21-1.87,1.25-3.51,2.85-4.51c11.41-7.11,26.02-5.43,35.54,4.09l0,0c9.52,9.52,11.2,24.13,4.09,35.54
			c-0.99,1.59-2.64,2.63-4.51,2.85C37.77,95.26,37.53,95.27,37.29,95.27z M18.1,50.38c-4.87,0-9.76,1.34-14.15,4.07
			c-1.07,0.67-1.77,1.78-1.92,3.04C1.88,58.76,2.32,60,3.22,60.9l31.15,31.15c0.9,0.9,2.14,1.33,3.41,1.19
			c1.26-0.14,2.37-0.84,3.04-1.92c6.62-10.61,5.05-24.21-3.81-33.07C31.82,53.07,24.99,50.38,18.1,50.38z"/>
	</g>
	<g>
		<path class="st0" d="M61.71,81.55c-9.31-9.31-23.59-10.63-34.3-3.95c-2.81,1.75-3.25,5.67-0.91,8l31.15,31.15
			c2.34,2.34,6.25,1.9,8-0.91C72.34,105.14,71.02,90.86,61.71,81.55z"/>
		<path class="st1" d="M61.29,119.27c-1.62,0-3.17-0.64-4.34-1.8L25.8,86.31c-1.33-1.33-1.98-3.17-1.76-5.05
			c0.21-1.87,1.25-3.51,2.85-4.51c11.4-7.11,26.02-5.43,35.54,4.09l0,0l0,0c9.52,9.52,11.2,24.13,4.09,35.54
			c-1,1.59-2.64,2.63-4.51,2.85C61.76,119.25,61.53,119.27,61.29,119.27z M42.09,74.38c-4.86,0-9.76,1.34-14.15,4.07
			c-1.07,0.67-1.77,1.78-1.92,3.04c-0.14,1.27,0.29,2.51,1.19,3.41l31.15,31.15c0.9,0.9,2.14,1.33,3.41,1.19
			c1.26-0.14,2.37-0.84,3.04-1.92c6.61-10.61,5.05-24.21-3.81-33.07l0,0C55.81,77.06,48.99,74.38,42.09,74.38z"/>
	</g>
	<g>
		<path class="st2" d="M46.45,105.55c11.26-6.43,23.6-15.91,35.42-27.73c29.49-29.49,44.5-62.28,33.54-73.24S71.67,8.64,42.18,38.13
			c-11.82,11.82-21.3,24.16-27.73,35.42L46.45,105.55z"/>
		<path class="st1" d="M46.28,106.8L13.2,73.72l0.38-0.66c6.74-11.8,16.38-24.12,27.89-35.63C55.82,23.08,71.39,11.67,85.33,5.28
			c14.24-6.52,25.18-7.02,30.79-1.4c5.62,5.62,5.12,16.55-1.4,30.79c-6.38,13.94-17.8,29.51-32.14,43.86
			c-11.51,11.51-23.83,21.15-35.63,27.89L46.28,106.8z M15.7,73.39l30.92,30.92C58.06,97.67,70,88.28,81.16,77.12
			c14.18-14.18,25.45-29.55,31.74-43.27c6.06-13.23,6.72-23.64,1.81-28.55C109.8,0.38,99.39,1.04,86.16,7.1
			c-13.73,6.29-29.1,17.56-43.27,31.74C31.72,50.01,22.33,61.94,15.7,73.39z"/>
	</g>
	<g>
		<polygon class="st3" points="30.77,108.15 11.86,89.23 18.09,77.19 42.81,101.92 		"/>
		<path class="st1" d="M30.58,109.37L10.63,89.42l7.19-13.91l26.66,26.66L30.58,109.37z M13.08,89.04l17.88,17.88l10.18-5.27
			l-22.79-22.8L13.08,89.04z"/>
	</g>
	<g>
		<circle class="st0" cx="63.48" cy="56.52" r="16.2"/>
		<path class="st1" d="M63.48,73.71c-4.4,0-8.81-1.68-12.16-5.03c-6.7-6.71-6.7-17.61,0-24.32c6.7-6.7,17.61-6.71,24.32,0
			c6.7,6.7,6.7,17.61,0,24.32l0,0C72.29,72.03,67.88,73.71,63.48,73.71z M63.48,41.33c-3.89,0-7.78,1.48-10.75,4.44
			c-5.92,5.92-5.92,15.57,0,21.49c5.93,5.92,15.57,5.92,21.49,0s5.92-15.57,0-21.49C71.26,42.82,67.37,41.33,63.48,41.33z"/>
	</g>
	<g>
		<circle class="st4" cx="63.48" cy="56.52" r="11.31"/>
		<path class="st1" d="M63.48,68.83c-3.29,0-6.38-1.28-8.71-3.61c-2.33-2.33-3.61-5.42-3.61-8.71s1.28-6.38,3.61-8.71
			s5.42-3.61,8.71-3.61c3.29,0,6.38,1.28,8.71,3.61c4.8,4.8,4.8,12.61,0,17.41C69.86,67.55,66.77,68.83,63.48,68.83z M63.48,46.21
			c-2.75,0-5.34,1.07-7.29,3.02s-3.02,4.54-3.02,7.29s1.07,5.34,3.02,7.29c1.95,1.95,4.54,3.02,7.29,3.02
			c2.75,0,5.34-1.07,7.29-3.02c4.02-4.02,4.02-10.56,0-14.58C68.82,47.28,66.23,46.21,63.48,46.21z"/>
	</g>
	<rect x="91.89" y="4.21" transform="matrix(0.7071 -0.7071 0.7071 0.7071 8.0316 73.6226)" class="st1" width="2" height="45.81"/>
</g>
</svg>
