<svg xmlns="http://www.w3.org/2000/svg" width="116" height="13" viewBox="0 0 116.3 13"><title>By Instructure</title><path class="ic-Instructure-Logo" d="M3.4 12.1H1.6V.7h1.7l.1 11.4zm12.5 0h-1.6l-5.1-8v8.1H7.4V.7H9l5.2 8v-8H16v11.4h-.1zm11.2-3.3c0 .5-.1 1-.3 1.4-.2.4-.4.8-.9 1.1-.3.3-.8.5-1.3.7-.5.1-1.1.2-1.6.2-.9 0-1.6-.1-2.3-.3-.7-.2-1.2-.7-1.7-1.2l1.2-1.1c.2.2.5.4.9.7.3.2.7.3 1 .3.3.1.8.1 1.1.1.8 0 1.3-.1 1.7-.4.4-.3.7-.8.7-1.3s-.1-.9-.4-1.2c-.1-.1-.3-.2-.4-.3-.2-.1-.4-.1-.8-.2l-1.3-.2c-1-.1-1.6-.4-2.2-.9-.5-.5-.9-1.2-.9-2.2 0-.7.1-1.2.4-1.7.3-.5.8-.9 1.3-1.2.5-.3 1.2-.4 2.1-.4.8 0 1.4.1 2 .3s1.1.5 1.5 1l-1.1 1.1c-.2-.2-.4-.4-.8-.5-.2-.1-.5-.2-.8-.3-.3.1-.7.1-1 .1-.4 0-.8.1-1.1.2-.3.1-.5.3-.8.7-.2.2-.2.5-.2.9s.1.8.4 1.1c.1.1.3.2.5.3.2.1.4.1.8.1l1.3.2c.5.1 1 .2 1.3.3.3.1.7.3.9.5.6.4.8 1.1.8 2.1zm10.4-6.6h-3.2V12h-1.7V2.2h-3.2V.7h8v1.5h.1zm11.3 9.9h-2l-2.4-4.8h-2.2v4.8h-1.7V.7H45c.7 0 1.3.1 1.9.4.5.3 1 .7 1.2 1.2.3.5.4 1.1.4 1.8 0 .8-.2 1.4-.7 2-.4.5-1 .9-1.6 1.1l2.6 4.9zM46.7 4c0-.5-.2-1-.5-1.3-.3-.3-.9-.4-1.4-.4h-2.5v3.6h2.5c.5 0 1.1-.1 1.4-.4.3-.5.5-1 .5-1.5zm13.2 4.3c0 .8-.2 1.4-.5 2.1-.3.5-.9 1.1-1.4 1.4-.7.3-1.3.5-2.1.5s-1.4-.1-2.1-.5c-.7-.3-1.1-.8-1.4-1.4-.3-.5-.5-1.3-.5-2.1V.7h1.7v7.4c0 .5.1 1 .3 1.3.2.3.4.7.9.9.3.2.8.3 1.2.3.4 0 .9-.1 1.2-.3.3-.2.7-.4.9-.9.2-.3.3-.8.3-1.3V.7h1.7v7.5l-.2.1zm11.7.4c-.1.5-.2 1.1-.5 1.5-.2.4-.5.8-.9 1.1-.3.3-.8.5-1.2.7-.4.1-1 .2-1.4.2-.4 0-.8 0-1.1-.1-.3-.1-.7-.2-1-.4-.3-.2-.7-.4-.9-.7-.3-.3-.7-.8-.8-1.2-.1-.4-.2-.9-.3-1.3 0-.4-.1-1.2-.1-2.1V4.8c0-.4.1-.8.1-1.1l.3-1c.1-.3.3-.5.7-.9.4-.4.9-.7 1.3-.9.5-.2 1.1-.3 1.6-.3 1.1 0 2 .3 2.7.9.8.7 1.2 1.4 1.4 2.6h-1.7c-.1-.5-.4-1.1-.8-1.4-.5-.3-1-.5-1.6-.5-.3 0-.7.1-1 .2-.3.1-.5.3-.8.5-.1.2-.2.3-.3.5-.1.2-.1.4-.2.7 0 .3-.1.5-.1 1v2.8c0 .3 0 .7.1 1 0 .3.1.5.2.7.1.2.2.3.3.5.2.2.4.3.8.5.3.1.7.2 1 .2.4 0 .8-.1 1.1-.2.3-.1.5-.4.8-.7.2-.3.3-.7.4-1h1.9v-.2zm10.3-6.5h-3.2V12H77V2.2h-3.2V.7h8v1.5h.1zm11 6.1c0 .8-.2 1.4-.5 2.1-.3.5-.9 1.1-1.4 1.4-.7.3-1.3.5-2.1.5s-1.4-.1-2.1-.5c-.7-.3-1.1-.8-1.4-1.4-.3-.5-.5-1.3-.5-2.1V.7h1.7v7.4c0 .5.1 1 .3 1.3.2.3.4.7.9.9.3.2.8.3 1.2.3.4 0 .9-.1 1.2-.3.3-.2.7-.4.9-.9.2-.3.3-.8.3-1.3V.7h1.7v7.5l-.2.1zm12.1 3.8h-2l-2.4-4.8h-2.2v4.8h-1.7V.7h4.5c.7 0 1.3.1 1.9.4.5.3 1 .7 1.2 1.2.3.5.4 1.1.4 1.8 0 .8-.2 1.4-.7 2-.4.5-1 .9-1.6 1.1l2.6 4.9zM103 4c0-.5-.2-1-.5-1.3-.3-.3-.9-.4-1.4-.4h-2.5v3.6h2.5c.5 0 1.1-.1 1.4-.4.3-.5.5-1 .5-1.5zm12.5 8.1h-7.3V.7h7.3v1.5H110v3.3h4.7V7H110v3.4h5.6l-.1 1.7z"/></svg>
