<svg width="141" height="13" viewBox="0 0 141 13" xmlns="http://www.w3.org/2000/svg">
  <title>By Instructure</title>
  <path class="ic-Instructure-Logo" d="M8.172 8.91c0 .654-.11 1.31-.437 1.746-.328.437-.655.874-1.2 1.092-.547.218-1.093.328-1.748.328H.2V.718h4.477c.656 0 1.31.11 1.857.328.546.218.873.655 1.2 1.092.33.437.438.983.438 1.638 0 .437-.11.765-.218 1.092-.11.328-.328.655-.547.874-.218.218-.436.437-.764.546.437.218.874.546 1.2.983.11.328.33.984.33 1.64zM6.206 3.884c0-.327-.11-.655-.218-.873-.11-.22-.328-.437-.655-.546-.328-.11-.656-.22-.983-.22H1.838v3.277H4.35c.546 0 .983-.11 1.31-.436.328-.328.546-.656.546-1.202zm.22 4.915c0-.328-.11-.656-.22-.874-.11-.22-.327-.437-.655-.655-.327-.11-.654-.218-.982-.218h-2.73v3.495h2.73c.437 0 .765-.11.983-.22.33-.108.547-.326.656-.654.11-.218.22-.546.22-.873zM18.873.718L15.49 7.38v4.696h-1.75V7.38L10.357.718h1.856l2.403 5.024L17.017.718h1.857zm9.173 11.358H26.3V.718h1.747v11.358zm12.56 0h-1.64l-5.132-7.972v8.08h-1.747V.72h1.638l5.242 7.972V.718h1.747v11.358h-.11zM51.743 8.8c0 .546-.11.982-.327 1.42-.22.436-.437.764-.874 1.09-.327.33-.764.547-1.31.656-.546.11-1.092.22-1.638.22-.874 0-1.638-.11-2.294-.33-.654-.217-1.2-.654-1.746-1.2l1.2-1.092c.22.218.547.437.875.655.327.218.654.327.982.327.327.11.764.11 1.092.11.764 0 1.31-.11 1.747-.438.438-.328.656-.765.656-1.31 0-.547-.11-.875-.436-1.203-.11-.11-.328-.218-.437-.327-.22-.11-.437-.11-.765-.22l-1.31-.217c-.983-.11-1.638-.437-2.184-.874-.546-.547-.874-1.202-.874-2.185 0-.655.11-1.2.437-1.747.328-.546.764-.874 1.31-1.2C46.393.607 47.05.5 47.922.5c.765 0 1.42.11 1.966.328.546.218 1.092.546 1.53.982l-1.093 1.092c-.22-.218-.437-.436-.765-.546-.218-.11-.546-.218-.764-.327-.328.108-.655.108-.983.108-.437 0-.764.11-1.092.218-.327.11-.545.328-.763.656-.22.218-.22.546-.22.873 0 .437.11.765.438 1.092.11.11.328.22.546.328.22.11.438.11.765.11l1.31.218c.547.11.984.218 1.31.327.33.11.657.328.875.546.546.546.764 1.31.764 2.294zM62.12 2.247H58.95v9.83h-1.747v-9.83h-3.167V.717h7.972v1.53h.11zm11.356 9.83H71.51L69.108 7.27h-2.184v4.806h-1.747V.718h4.477c.655 0 1.31.11 1.856.437.546.328.983.655 1.202 1.2.327.547.437 1.094.437 1.75 0 .763-.22 1.418-.657 1.964-.437.545-.983.873-1.638 1.09l2.62 4.916zM71.4 3.994c0-.546-.217-.983-.545-1.31-.327-.33-.873-.438-1.42-.438h-2.51V5.85h2.51c.547 0 1.093-.108 1.42-.436.328-.437.546-.873.546-1.42zm13.215 4.26c0 .763-.218 1.418-.546 2.073-.33.546-.875 1.092-1.42 1.42-.656.328-1.31.546-2.076.546-.764 0-1.42-.11-2.074-.546-.656-.328-1.093-.764-1.42-1.42-.328-.546-.546-1.31-.546-2.074V.718h1.747v7.426c0 .546.11.983.33 1.31.217.328.436.656.872.874.328.22.765.328 1.202.328.436 0 .873-.11 1.2-.328.328-.218.656-.436.875-.873.217-.328.326-.765.326-1.31V.717h1.747v7.536h-.218zM96.3 8.69c-.11.546-.22 1.092-.546 1.53-.22.436-.546.764-.874 1.09-.327.33-.764.547-1.2.656-.438.11-.984.22-1.42.22-.438 0-.765 0-1.093-.11-.327-.11-.655-.22-.983-.437-.327-.22-.655-.438-.873-.656-.327-.328-.654-.765-.764-1.202-.11-.436-.218-.873-.327-1.31 0-.437-.11-1.2-.11-2.075V4.76c0-.438.11-.765.11-1.093l.326-.983c.11-.328.328-.546.656-.874.436-.436.873-.655 1.31-.873.546-.22 1.092-.328 1.638-.328 1.092 0 1.966.327 2.73.873.765.655 1.2 1.42 1.42 2.62h-1.747c-.11-.545-.437-1.09-.765-1.42-.546-.327-.983-.545-1.638-.545-.328 0-.655.11-.983.218-.327.11-.546.328-.764.546-.11.22-.22.328-.328.547-.11.217-.11.435-.218.654 0 .327-.11.546-.11.983v2.84c0 .327 0 .654.11.982 0 .326.11.545.218.654.11.218.22.328.328.546.218.218.437.328.764.546.328.11.655.218.983.218.437 0 .765-.11 1.092-.218.328-.11.546-.437.765-.655.218-.327.327-.654.436-.982H96.3V8.69zm10.265-6.443h-3.167v9.83h-1.747v-9.83h-3.166V.717h7.972v1.53h.11zm11.03 6.007c0 .764-.22 1.42-.546 2.074-.33.546-.875 1.092-1.42 1.42-.656.328-1.31.546-2.076.546-.764 0-1.42-.11-2.075-.546-.656-.328-1.093-.764-1.42-1.42-.328-.546-.546-1.31-.546-2.074V.718h1.747v7.426c0 .546.11.983.328 1.31.22.328.437.656.874.874.328.22.765.328 1.2.328.438 0 .875-.11 1.203-.328.327-.218.655-.436.873-.873.22-.328.328-.765.328-1.31V.717h1.747v7.536h-.218zm12.12 3.822h-1.964L125.35 7.27h-2.184v4.806h-1.747V.718h4.477c.655 0 1.31.11 1.857.437.547.328.984.655 1.202 1.2.328.547.437 1.094.437 1.75 0 .763-.22 1.418-.656 1.964-.437.545-.983.873-1.64 1.09l2.622 4.916zm-2.074-8.08c0-.547-.217-.984-.545-1.312-.327-.328-.873-.437-1.42-.437h-2.51V5.85h2.51c.547 0 1.093-.108 1.42-.436.328-.437.546-.873.546-1.42zm12.56 8.08h-7.317V.718h7.317v1.53h-5.57v3.275h4.696v1.53h-4.695v3.385h5.57v1.638z"/>
</svg>
