<svg xmlns="http://www.w3.org/2000/svg" version="1.1" x="0" y="0" viewBox="0 0 119 120" xml:space="preserve"><path d="M104.6 19.2c0.3 0 0.5 0.1 0.8 0.2l5.1 3.4 -1.7-6c-0.1-0.5 0-1 0.3-1.3l4.5-4.5h-4.9c-0.5 0-1-0.3-1.2-0.8l-2.9-5.8 -2.9 5.8c-0.2 0.5-0.7 0.8-1.2 0.8h-4.9l4.5 4.5c0.4 0.4 0.5 0.9 0.3 1.3l-1.7 6 5.1-3.4C104.1 19.2 104.4 19.2 104.6 19.2M112.8 27.4c-0.3 0-0.5-0.1-0.8-0.2l-7.4-5 -7.4 5c-0.5 0.3-1.1 0.3-1.6 0 -0.5-0.3-0.7-0.9-0.5-1.5l2.5-8.8 -6.2-6.3c-0.4-0.4-0.5-1-0.3-1.5 0.2-0.5 0.7-0.8 1.3-0.8h7.3l3.7-7.5c0.5-0.9 2-0.9 2.4 0l3.7 7.5h7.3c0.6 0 1 0.3 1.3 0.8 0.2 0.5 0.1 1.1-0.3 1.5l-6.2 6.3 2.5 8.8c0.2 0.6 0 1.1-0.5 1.5C113.4 27.3 113.1 27.4 112.8 27.4zM86.8 119.6c-0.2 0-0.4-0.1-0.5-0.2l-5-3.4 -5 3.4c-0.3 0.2-0.7 0.2-1.1 0 -0.3-0.2-0.5-0.6-0.3-1l1.7-6 -4.2-4.3c-0.3-0.3-0.3-0.7-0.2-1 0.1-0.3 0.5-0.6 0.9-0.6h5l2.5-5.1c0.3-0.6 1.3-0.6 1.7 0l2.5 5.1h5c0.4 0 0.7 0.2 0.9 0.6 0.1 0.3 0.1 0.7-0.2 1l-4.2 4.3 1.7 6c0.1 0.4 0 0.8-0.3 1C87.2 119.5 87 119.6 86.8 119.6zM81.2 114c0.2 0 0.4 0.1 0.5 0.2l3.5 2.3 -1.2-4.1c-0.1-0.3 0-0.7 0.2-0.9l3-3.1H84c-0.4 0-0.7-0.2-0.8-0.5l-1.9-3.9 -1.9 3.9c-0.2 0.3-0.5 0.5-0.8 0.5h-3.3l3 3.1c0.2 0.2 0.3 0.6 0.2 0.9l-1.2 4.1 3.5-2.3C80.9 114.1 81.1 114 81.2 114zM30.8 21.6c-0.2 0-0.4-0.1-0.5-0.2l-5-3.4 -5 3.4c-0.3 0.2-0.7 0.2-1.1 0 -0.3-0.2-0.5-0.6-0.3-1l1.7-6 -4.2-4.3c-0.3-0.3-0.3-0.7-0.2-1 0.1-0.3 0.5-0.6 0.9-0.6h5l2.5-5.1c0.3-0.6 1.3-0.6 1.7 0l2.5 5.1h5c0.4 0 0.7 0.2 0.9 0.6 0.1 0.3 0.1 0.7-0.2 1L30 14.4l1.7 6c0.1 0.4 0 0.8-0.3 1C31.2 21.5 31 21.6 30.8 21.6zM25.2 16c0.2 0 0.4 0.1 0.5 0.2l3.5 2.3 -1.2-4.1c-0.1-0.3 0-0.7 0.2-0.9l3-3.1H28c-0.4 0-0.7-0.2-0.8-0.5L25.2 6l-1.9 3.9c-0.2 0.3-0.5 0.5-0.8 0.5h-3.3l3 3.1c0.2 0.2 0.3 0.6 0.2 0.9l-1.2 4.1 3.5-2.3C24.9 16.1 25.1 16 25.2 16zM76.3 22.6c1.1 0.8 1.7 2.1 1.7 3.4v51.8c0 1.3-0.6 2.6-1.7 3.4 -0.8 0.6-1.7 0.9-2.7 0.9 -0.4 0-0.7 0-1.1-0.1L26 70.4v6l12.1 16.1 -6.9 5.2 -13-17.3c-0.6-0.7-0.9-1.7-0.9-2.6v-8.6H8.7c-4.8 0-8.7-3.9-8.7-8.6V43.3c0-4.8 3.9-8.6 8.7-8.6h12.5l51.5-12.8C73.9 21.5 75.3 21.8 76.3 22.6zM69.3 72.2V31.5L26 42.3v19.2L69.3 72.2zM8.7 43.3v17.3h8.7V43.3H8.7zM82.3 39.7c5 1.8 8.7 6.5 8.7 12.1 0 5.6-3.6 10.4-8.7 12.2V39.7z"/></svg>
