<svg xmlns="http://www.w3.org/2000/svg" version="1.1" x="0" y="0" viewBox="0 0 146 139" xml:space="preserve"><path d="M140.2 27.7c-0.3 0-0.5-0.1-0.8-0.2l-7.6-5 -7.6 5c-0.5 0.3-1.1 0.3-1.6 0 -0.5-0.3-0.7-0.9-0.5-1.5l2.6-8.9 -6.4-6.4c-0.4-0.4-0.5-1-0.3-1.5 0.2-0.5 0.7-0.9 1.3-0.9h7.5l3.8-7.6c0.5-0.9 2-0.9 2.5 0l3.8 7.6h7.5c0.6 0 1.1 0.3 1.3 0.9 0.2 0.5 0.1 1.1-0.3 1.5L139 17l2.6 8.9c0.2 0.6 0 1.2-0.5 1.5C140.8 27.6 140.5 27.7 140.2 27.7zM33.4 139c-0.2 0-0.3-0.1-0.5-0.2l-4.9-3.3 -4.9 3.3c-0.3 0.2-0.7 0.2-1 0 -0.3-0.2-0.4-0.6-0.3-1l1.7-5.8 -4.1-4.1c-0.3-0.3-0.3-0.6-0.2-1 0.1-0.3 0.5-0.6 0.8-0.6h4.8l2.5-4.9c0.3-0.6 1.3-0.6 1.6 0l2.5 4.9h4.8c0.4 0 0.7 0.2 0.8 0.6 0.1 0.3 0.1 0.7-0.2 1l-4.1 4.1 1.7 5.8c0.1 0.4 0 0.8-0.3 1C33.8 138.9 33.6 139 33.4 139zM137.2 120.7c-0.3 0-0.5-0.1-0.8-0.2l-7.6-5 -7.6 5c-0.5 0.3-1.1 0.3-1.6 0 -0.5-0.3-0.7-0.9-0.5-1.5l2.6-8.9 -6.4-6.4c-0.4-0.4-0.5-1-0.3-1.5 0.2-0.5 0.7-0.9 1.3-0.9h7.5l3.8-7.6c0.5-0.9 2-0.9 2.5 0l3.8 7.6h7.5c0.6 0 1.1 0.3 1.3 0.9 0.2 0.5 0.1 1.1-0.3 1.5L136 110l2.6 8.9c0.2 0.6 0 1.2-0.5 1.5C137.8 120.6 137.5 120.7 137.2 120.7zM128.9 112.4c0.3 0 0.5 0.1 0.8 0.2l5.2 3.5 -1.7-6.1c-0.1-0.5 0-1 0.4-1.4l4.6-4.6h-5c-0.5 0-1-0.3-1.2-0.8l-2.9-5.8 -2.9 5.8c-0.2 0.5-0.7 0.8-1.2 0.8h-5l4.6 4.6c0.4 0.4 0.5 0.9 0.4 1.4l-1.7 6.1 5.2-3.5C128.3 112.4 128.6 112.4 128.9 112.4zM16.6 27.8c-0.2 0-0.4-0.1-0.6-0.2l-5.7-3.8 -5.7 3.8c-0.4 0.2-0.8 0.2-1.2 0 -0.4-0.3-0.5-0.7-0.4-1.1l1.9-6.7L0.3 15c-0.3-0.3-0.4-0.7-0.2-1.1 0.2-0.4 0.5-0.6 1-0.6h5.6l2.8-5.7c0.4-0.7 1.5-0.7 1.9 0l2.8 5.7h5.6c0.4 0 0.8 0.3 1 0.6 0.2 0.4 0.1 0.8-0.2 1.1l-4.8 4.8 1.9 6.7c0.1 0.4 0 0.9-0.4 1.1C17.1 27.7 16.9 27.8 16.6 27.8zM10.4 21.5c0.2 0 0.4 0.1 0.6 0.2l3.9 2.6 -1.3-4.6c-0.1-0.4 0-0.8 0.3-1l3.4-3.4h-3.7c-0.4 0-0.8-0.2-0.9-0.6l-2.2-4.4 -2.2 4.4C8 15 7.7 15.3 7.3 15.3H3.6L7 18.7c0.3 0.3 0.4 0.7 0.3 1l-1.3 4.6 3.9-2.6C10 21.6 10.2 21.5 10.4 21.5zM93.3 62.9c4.3 0 7.8 3.5 7.8 7.8v31c0 4.3-3.5 7.8-7.8 7.8H69.9v3.9h11.7v7.8H50.4v-7.8h11.7v-3.9H38.7c-4.3 0-7.8-3.5-7.8-7.8v-31c0-4.3 3.5-7.8 7.8-7.8H93.3zM38.7 101.6h54.6l0-3.9H38.7V101.6zM93.3 70.6H38.7V90h54.6L93.3 70.6zM46.5 39.6c0 4.3-3.5 7.8-7.8 7.8 -4.3 0-7.8-3.5-7.8-7.8s3.5-7.8 7.8-7.8C43 31.9 46.5 35.3 46.5 39.6zM38.7 47.4c6.5 0 11.7 5.2 11.7 11.6H27C27 52.6 32.2 47.4 38.7 47.4zM73.8 35.8c0 4.3-3.5 7.8-7.8 7.8 -4.3 0-7.8-3.5-7.8-7.8S61.7 28 66 28C70.3 28 73.8 31.5 73.8 35.8zM66 43.5c6.5 0 11.7 5.2 11.7 11.6H54.3C54.3 48.7 59.5 43.5 66 43.5zM101.1 39.6c0 4.3-3.5 7.8-7.8 7.8 -4.3 0-7.8-3.5-7.8-7.8s3.5-7.8 7.8-7.8C97.6 31.9 101.1 35.3 101.1 39.6zM93.3 47.4c6.5 0 11.7 5.2 11.7 11.6H81.6C81.6 52.6 86.8 47.4 93.3 47.4z"/></svg>
