<svg xmlns="http://www.w3.org/2000/svg" version="1.1" x="0" y="0" viewBox="0 0 164 155" xml:space="preserve"><path d="M77.1 33.6V24C50.6 24 29 45.5 29 72c0 26.5 21.6 48 48.1 48v-9.6c-5.1 0-10-1-14.4-2.8V91.2h14.4v-9.6H62.7V62.4h14.4v-9.6H62.7V36.4C67.1 34.6 72 33.6 77.1 33.6zM53 101.9c-3.7-3-6.8-6.6-9.2-10.7H53V101.9zM53 81.6H39.9c-0.8-3.1-1.3-6.3-1.3-9.6 0-3.3 0.5-6.5 1.3-9.6H53V81.6zM53 52.8h-9.2c2.4-4.1 5.5-7.8 9.2-10.7V52.8zM106 24c-8 0-14.4 6.5-14.4 14.4S98 52.8 106 52.8s14.4-6.5 14.4-14.4S113.9 24 106 24zM106 43.2c-2.7 0-4.8-2.2-4.8-4.8 0-2.6 2.2-4.8 4.8-4.8s4.8 2.2 4.8 4.8C110.8 41 108.6 43.2 106 43.2zM106 52.8c-13.3 0-24 10.8-24 24v14.4c0 2.6 2.2 4.8 4.8 4.8h4.8v19.2c0 2.6 2.2 4.8 4.8 4.8h19.2c2.7 0 4.8-2.2 4.8-4.8V96h4.8c2.7 0 4.8-2.2 4.8-4.8V76.8C130 63.6 119.2 52.8 106 52.8zM120.4 86.4h-4.8c-2.7 0-4.8 2.2-4.8 4.8v19.2h-9.6V91.2c0-2.6-2.2-4.8-4.8-4.8h-4.8v-9.6c0-7.9 6.5-14.4 14.4-14.4s14.4 6.5 14.4 14.4V86.4zM158.2 27.7c-0.3 0-0.5-0.1-0.8-0.2l-7.6-5 -7.6 5c-0.5 0.3-1.1 0.3-1.6 0 -0.5-0.3-0.7-0.9-0.5-1.5l2.6-8.9 -6.4-6.4c-0.4-0.4-0.5-1-0.3-1.5 0.2-0.5 0.7-0.9 1.3-0.9h7.5l3.8-7.6c0.5-0.9 2-0.9 2.5 0l3.8 7.6h7.5c0.6 0 1.1 0.3 1.3 0.9 0.2 0.5 0.1 1.1-0.3 1.5L157 17l2.6 8.9c0.2 0.6 0 1.2-0.5 1.5C158.8 27.6 158.5 27.7 158.2 27.7zM53.4 155c-0.2 0-0.3-0.1-0.5-0.2l-4.9-3.3 -4.9 3.3c-0.3 0.2-0.7 0.2-1 0 -0.3-0.2-0.4-0.6-0.3-1l1.7-5.8 -4.1-4.1c-0.3-0.3-0.3-0.6-0.2-1 0.1-0.3 0.5-0.6 0.8-0.6h4.8l2.5-4.9c0.3-0.6 1.3-0.6 1.6 0l2.5 4.9h4.8c0.4 0 0.7 0.2 0.8 0.6 0.1 0.3 0.1 0.7-0.2 1l-4.1 4.1 1.7 5.8c0.1 0.4 0 0.8-0.3 1C53.8 154.9 53.6 155 53.4 155zM27.6 132.1c-0.2-0.5-0.7-0.9-1.3-0.9h-7.5l-3.8-7.6c-0.5-0.9-2-0.9-2.5 0l-3.8 7.6H1.4c-0.6 0-1.1 0.3-1.3 0.9 -0.2 0.5-0.1 1.1 0.3 1.5l6.4 6.4 -2.6 8.9c-0.2 0.6 0 1.2 0.5 1.5 0.5 0.3 1.1 0.4 1.6 0l7.6-5 7.6 5c0.2 0.2 0.5 0.2 0.8 0.2 0.3 0 0.6-0.1 0.8-0.3 0.5-0.3 0.7-0.9 0.5-1.5L21 140l6.4-6.4C27.7 133.2 27.9 132.6 27.6 132.1zM18.4 138.6c-0.4 0.4-0.5 0.9-0.4 1.4l1.7 6.1 -5.2-3.5c-0.2-0.2-0.5-0.2-0.8-0.2s-0.5 0.1-0.8 0.2l-5.2 3.5 1.7-6.1c0.1-0.5 0-1-0.4-1.4L4.7 134h5c0.5 0 1-0.3 1.2-0.8l2.9-5.8 2.9 5.8c0.2 0.5 0.7 0.8 1.2 0.8h5L18.4 138.6zM27.7 6.8c-0.2-0.4-0.5-0.6-1-0.6h-5.6l-2.8-5.7c-0.4-0.7-1.5-0.7-1.9 0l-2.8 5.7H8c-0.4 0-0.8 0.3-1 0.6C6.9 7.2 7 7.7 7.3 8l4.8 4.8 -1.9 6.7c-0.1 0.4 0 0.9 0.4 1.1 0.4 0.3 0.8 0.3 1.2 0l5.7-3.8 5.7 3.8c0.2 0.1 0.4 0.2 0.6 0.2 0.2 0 0.4-0.1 0.6-0.2 0.4-0.3 0.5-0.7 0.4-1.1l-1.9-6.7L27.5 8C27.8 7.7 27.9 7.2 27.7 6.8zM20.8 11.7c-0.3 0.3-0.4 0.7-0.3 1l1.3 4.6L18 14.7c-0.2-0.1-0.4-0.2-0.6-0.2s-0.4 0.1-0.6 0.2l-3.9 2.6 1.3-4.6c0.1-0.4 0-0.8-0.3-1l-3.4-3.4h3.7c0.4 0 0.8-0.2 0.9-0.6l2.2-4.4 2.2 4.4c0.2 0.4 0.5 0.6 0.9 0.6h3.7L20.8 11.7z"/></svg>
