<svg xmlns="http://www.w3.org/2000/svg" version="1.1" x="0" y="0" viewBox="0 0 157 166" xml:space="preserve"><path d="M151.2 27.7c-0.3 0-0.5-0.1-0.8-0.2l-7.6-5 -7.6 5c-0.5 0.3-1.1 0.3-1.6 0 -0.5-0.3-0.7-0.9-0.5-1.5l2.6-8.9 -6.4-6.4c-0.4-0.4-0.5-1-0.3-1.5 0.2-0.5 0.7-0.9 1.3-0.9h7.5l3.8-7.6c0.5-0.9 2-0.9 2.5 0l3.8 7.6h7.5c0.6 0 1.1 0.3 1.3 0.9 0.2 0.5 0.1 1.1-0.3 1.5L150 17l2.6 8.9c0.2 0.6 0 1.2-0.5 1.5C151.8 27.6 151.5 27.7 151.2 27.7zM64.4 155.3c-0.2 0-0.3-0.1-0.5-0.2l-4.9-3.3 -4.9 3.3c-0.3 0.2-0.7 0.2-1 0 -0.3-0.2-0.4-0.6-0.3-1l1.7-5.8 -4.1-4.1c-0.3-0.3-0.3-0.6-0.2-1 0.1-0.3 0.5-0.6 0.8-0.6h4.8l2.5-4.9c0.3-0.6 1.3-0.6 1.6 0l2.5 4.9h4.8c0.4 0 0.7 0.2 0.8 0.6 0.1 0.3 0.1 0.7-0.2 1l-4.1 4.1 1.7 5.8c0.1 0.4 0 0.8-0.3 1C64.7 155.3 64.6 155.3 64.4 155.3zM31.9 165.1c-0.3 0-0.5-0.1-0.8-0.2l-7.6-5 -7.6 5c-0.5 0.3-1.1 0.3-1.6 0 -0.5-0.3-0.7-0.9-0.5-1.5l2.6-8.9 -6.4-6.4c-0.4-0.4-0.5-1-0.3-1.5 0.2-0.5 0.7-0.9 1.3-0.9h7.5l3.8-7.6c0.5-0.9 2-0.9 2.5 0l3.8 7.6h7.5c0.6 0 1.1 0.3 1.3 0.9 0.2 0.5 0.1 1.1-0.3 1.5l-6.4 6.4 2.6 8.9c0.2 0.6 0 1.2-0.5 1.5C32.5 165 32.2 165.1 31.9 165.1zM23.6 156.7c0.3 0 0.5 0.1 0.8 0.2l5.2 3.5 -1.7-6.1c-0.1-0.5 0-1 0.4-1.4l4.6-4.6h-5c-0.5 0-1-0.3-1.2-0.8l-2.9-5.8 -2.9 5.8c-0.2 0.5-0.7 0.8-1.2 0.8h-5L19 153c0.4 0.4 0.5 0.9 0.4 1.4l-1.7 6.1 5.2-3.5C23.1 156.8 23.3 156.7 23.6 156.7zM16.6 20.8c-0.2 0-0.4-0.1-0.6-0.2l-5.7-3.8 -5.7 3.8c-0.4 0.2-0.8 0.2-1.2 0 -0.4-0.3-0.5-0.7-0.4-1.1l1.9-6.7L0.3 8C0 7.7-0.1 7.2 0.1 6.8c0.2-0.4 0.5-0.6 1-0.6h5.6l2.8-5.7c0.4-0.7 1.5-0.7 1.9 0l2.8 5.7h5.6c0.4 0 0.8 0.3 1 0.6 0.2 0.4 0.1 0.8-0.2 1.1l-4.8 4.8 1.9 6.7c0.1 0.4 0 0.9-0.4 1.1C17.1 20.7 16.9 20.8 16.6 20.8zM10.4 14.5c0.2 0 0.4 0.1 0.6 0.2l3.9 2.6 -1.3-4.6c-0.1-0.4 0-0.8 0.3-1l3.4-3.4h-3.7c-0.4 0-0.8-0.2-0.9-0.6l-2.2-4.4L8.2 7.7C8 8 7.7 8.3 7.3 8.3H3.6L7 11.7c0.3 0.3 0.4 0.7 0.3 1l-1.3 4.6 3.9-2.6C10 14.6 10.2 14.5 10.4 14.5zM129 126H87.7c-17.7 0-32.1-13.5-32.1-30S70 66 87.7 66c17.7 0 32.1 13.5 32.1 30 0 4.1-0.9 8.2-2.7 11.9L129 126zM87.7 76c-12.3 0-22.2 9-22.2 20s10 20 22.2 20h22.9l-5.1-7.7 1.7-2.7c1.8-3 2.7-6.2 2.7-9.6C109.9 85 99.9 76 87.7 76zM45.7 101H14l18.6-18.9c-4.4-6.3-6.7-13.6-6.7-21.1 0-22.1 19.9-40 44.5-40 22.1 0 41 14.8 44 34.4l-9.8 1.5c-2.3-14.8-17-26-34.3-26 -19.1 0-34.6 13.5-34.6 30 0 6.6 2.5 12.9 7.1 18.2l3.1 3.5L37.8 91h7.8V101z"/></svg>
