<svg xmlns="http://www.w3.org/2000/svg" version="1.1" x="0" y="0" viewBox="0 0 169 177" xml:space="preserve"><path d="M126.4 37.2H44.7c-2.5 0-4.5 2.1-4.5 4.6v92c0 2.5 2 4.6 4.5 4.6h81.7c2.5 0 4.5-2.1 4.5-4.6v-92C130.9 39.3 128.9 37.2 126.4 37.2L126.4 37.2zM49.3 46.4h9.1v82.8h-9.1V46.4L49.3 46.4zM121.9 129.2H67.4V46.4h54.5V129.2L121.9 129.2zM91.2 74.6v6.3H85V58.8c0-1.7 1.4-3.2 3.1-3.2h12.5c1.7 0 3.1 1.4 3.1 3.2v22.1h-6.2v-6.3H91.2zM97.5 61.9h-6.2v6.3h6.2V61.9zM82.9 115.4H71.9V90.1h10.9c4.3 0 7.8 3.5 7.8 7.9 0 1.8-0.6 3.4-1.6 4.7 1 1.3 1.6 3 1.6 4.7C90.7 111.8 87.2 115.4 82.9 115.4zM82.9 96.4L82.9 96.4h-4.7v3.2h4.7c0.9 0 1.6-0.7 1.6-1.6S83.7 96.4 82.9 96.4zM82.9 109.1c0.9 0 1.6-0.7 1.6-1.6 0-0.9-0.7-1.6-1.6-1.6h-4.7v3.2H82.9zM98.6 99.6c0-5.2 4.2-9.5 9.4-9.5h9.4v6.3H108c-1.7 0-3.1 1.4-3.1 3.2v6.3c0 1.8 1.4 3.2 3.1 3.2h9.4v6.3H108c-5.2 0-9.4-4.3-9.4-9.5V99.6zM162.2 29.7c-0.3 0-0.6-0.1-0.8-0.2l-8.1-5.4 -8.1 5.4c-0.5 0.3-1.2 0.3-1.7 0 -0.5-0.4-0.7-1-0.6-1.6l2.7-9.6 -6.8-6.8c-0.4-0.4-0.6-1.1-0.3-1.6 0.2-0.6 0.8-0.9 1.4-0.9h8l4.1-8.1c0.5-1 2.2-1 2.7 0l4.1 8.1h8c0.6 0 1.1 0.4 1.4 0.9 0.2 0.6 0.1 1.2-0.3 1.6l-6.8 6.8 2.7 9.6c0.2 0.6 0 1.2-0.6 1.6C162.8 29.6 162.5 29.7 162.2 29.7zM69 166.6c-0.2 0-0.4-0.1-0.5-0.2l-5.3-3.5 -5.3 3.5c-0.3 0.2-0.8 0.2-1.1 0 -0.3-0.2-0.5-0.7-0.4-1l1.8-6.2 -4.4-4.4c-0.3-0.3-0.4-0.7-0.2-1.1 0.1-0.4 0.5-0.6 0.9-0.6h5.2l2.6-5.3c0.3-0.7 1.4-0.7 1.7 0l2.6 5.3h5.2c0.4 0 0.7 0.2 0.9 0.6 0.1 0.4 0.1 0.8-0.2 1.1l-4.4 4.4 1.8 6.2c0.1 0.4 0 0.8-0.4 1C69.4 166.5 69.2 166.6 69 166.6zM34.2 177c-0.3 0-0.6-0.1-0.8-0.2l-8.1-5.4 -8.1 5.4c-0.5 0.3-1.2 0.3-1.7 0 -0.5-0.4-0.7-1-0.6-1.6l2.7-9.6 -6.8-6.8c-0.4-0.4-0.6-1.1-0.3-1.6 0.2-0.6 0.8-0.9 1.4-0.9h8l4.1-8.1c0.5-1 2.2-1 2.7 0l4.1 8.1h8c0.6 0 1.1 0.4 1.4 0.9 0.2 0.6 0.1 1.2-0.3 1.6l-6.8 6.8 2.7 9.6c0.2 0.6 0 1.2-0.6 1.6C34.8 176.9 34.5 177 34.2 177zM25.3 168.1c0.3 0 0.6 0.1 0.8 0.2l5.6 3.7 -1.9-6.5c-0.2-0.5 0-1.1 0.4-1.5l4.9-4.9h-5.3c-0.6 0-1.1-0.3-1.3-0.8l-3.1-6.3 -3.1 6.3c-0.3 0.5-0.8 0.8-1.3 0.8h-5.3l4.9 4.9c0.4 0.4 0.5 0.9 0.4 1.5l-1.9 6.5 5.6-3.7C24.7 168.2 25 168.1 25.3 168.1zM17.8 22.3c-0.2 0-0.4-0.1-0.6-0.2l-6.1-4 -6.1 4c-0.4 0.3-0.9 0.2-1.3 0 -0.4-0.3-0.5-0.8-0.4-1.2l2-7.2L0.3 8.5C0 8.2-0.1 7.7 0.1 7.3c0.2-0.4 0.6-0.7 1-0.7h6l3-6.1c0.4-0.8 1.6-0.8 2 0l3 6.1h6c0.5 0 0.9 0.3 1 0.7 0.2 0.4 0.1 0.9-0.2 1.2l-5.1 5.1 2 7.2c0.1 0.4 0 0.9-0.4 1.2C18.3 22.2 18.1 22.3 17.8 22.3zM11.2 15.6c0.2 0 0.4 0.1 0.6 0.2l4.2 2.8 -1.4-4.9c-0.1-0.4 0-0.8 0.3-1.1l3.7-3.7h-4c-0.4 0-0.8-0.2-1-0.6l-2.3-4.7L8.8 8.3c-0.2 0.4-0.6 0.6-1 0.6h-4l3.7 3.7c0.3 0.3 0.4 0.7 0.3 1.1l-1.4 4.9 4.2-2.8C10.7 15.6 10.9 15.6 11.2 15.6z"/></svg>
