<svg xmlns="http://www.w3.org/2000/svg" version="1.1" x="0" y="0" viewBox="0 0 162 138" xml:space="preserve"><path d="M156.2 70.7c-0.3 0-0.5-0.1-0.8-0.2l-7.6-5 -7.6 5c-0.5 0.3-1.1 0.3-1.6 0 -0.5-0.3-0.7-0.9-0.5-1.5l2.6-8.9 -6.4-6.4c-0.4-0.4-0.5-1-0.3-1.5 0.2-0.5 0.7-0.9 1.3-0.9h7.5l3.8-7.6c0.5-0.9 2-0.9 2.5 0l3.8 7.6h7.5c0.6 0 1.1 0.3 1.3 0.9 0.2 0.5 0.1 1.1-0.3 1.5L155 60l2.6 8.9c0.2 0.6 0 1.2-0.5 1.5C156.8 70.6 156.5 70.7 156.2 70.7zM14.4 61c-0.2 0-0.3-0.1-0.5-0.2L9 57.6l-4.9 3.3c-0.3 0.2-0.7 0.2-1 0 -0.3-0.2-0.4-0.6-0.3-1L4.4 54l-4.1-4.1c-0.3-0.3-0.3-0.6-0.2-1 0.1-0.3 0.5-0.6 0.8-0.6h4.8l2.5-4.9c0.3-0.6 1.3-0.6 1.6 0l2.5 4.9h4.8c0.4 0 0.7 0.2 0.8 0.6 0.1 0.3 0.1 0.7-0.2 1L13.6 54l1.7 5.8c0.1 0.4 0 0.8-0.3 1C14.8 60.9 14.6 61 14.4 61zM130.4 21c-0.2 0-0.3-0.1-0.5-0.2l-4.9-3.3 -4.9 3.3c-0.3 0.2-0.7 0.2-1 0 -0.3-0.2-0.4-0.6-0.3-1l1.7-5.8 -4.1-4.1c-0.3-0.3-0.3-0.6-0.2-1 0.1-0.3 0.5-0.6 0.8-0.6h4.8l2.5-4.9c0.3-0.6 1.3-0.6 1.6 0l2.5 4.9h4.8c0.4 0 0.7 0.2 0.8 0.6 0.1 0.3 0.1 0.7-0.2 1l-4.1 4.1 1.7 5.8c0.1 0.4 0 0.8-0.3 1C130.8 20.9 130.6 21 130.4 21zM59.2 27.7c-0.3 0-0.5-0.1-0.8-0.2l-7.6-5 -7.6 5c-0.5 0.3-1.1 0.3-1.6 0 -0.5-0.3-0.7-0.9-0.5-1.5l2.6-8.9 -6.4-6.4c-0.4-0.4-0.5-1-0.3-1.5 0.2-0.5 0.7-0.9 1.3-0.9h7.5l3.8-7.6c0.5-0.9 2-0.9 2.5 0l3.8 7.6h7.5c0.6 0 1.1 0.3 1.3 0.9 0.2 0.5 0.1 1.1-0.3 1.5L58 17l2.6 8.9c0.2 0.6 0 1.2-0.5 1.5C59.8 27.6 59.5 27.7 59.2 27.7zM50.9 19.4c0.3 0 0.5 0.1 0.8 0.2l5.2 3.5L55.1 17c-0.1-0.5 0-1 0.4-1.4L60 11h-5c-0.5 0-1-0.3-1.2-0.8l-2.9-5.8L48 10.3c-0.2 0.5-0.7 0.8-1.2 0.8h-5l4.6 4.6c0.4 0.4 0.5 0.9 0.4 1.4l-1.7 6.1 5.2-3.5C50.3 19.4 50.6 19.4 50.9 19.4zM76.6 59.8L66.5 69.9l-6.2-6.2L81 43l20.7 20.7 -6.2 6.2L85.4 59.8v37.8h-8.8V59.8zM96.8 102H125v35.2H37V102h28.2l8.8 8.8h14L96.8 102zM116.2 128.4v-17.6h-15.8l-8.8 8.8H70.4l-8.8-8.8H45.8v17.6H116.2z"/></svg>
