<svg xmlns="http://www.w3.org/2000/svg" version="1.1" x="0" y="0" viewBox="0 0 84 312" xml:space="preserve">
  <path d="M81.7 266.9v9.2l-38.2 18.3c-0.5 0.2-1.1 0.4-1.6 0.4 -0.5 0-1.1-0.1-1.5-0.3L2 277.6v-9.1L41.8 286 81.7 266.9zM81.7 283.7v9.2l-38.2 18.3c-0.5 0.2-1.1 0.4-1.6 0.4 -0.5 0-1.1-0.1-1.5-0.3L2 294.4v-9.1l39.8 17.5L81.7 283.7zM42.1 15c-6.1 0-11 4.7-11 10.5 0 2 0.6 3.9 1.7 5.6L30 35.9h12.1c6.1 0 11-4.7 11-10.5S48.2 15 42.1 15M50.8 82.5H42l-1.6-2.2c-0.4-0.8-1.1-1.3-2-1.3h-6.4c-0.6 0-1.1 0.5-1.1 1.2v16.3c0 1.3 1 2.3 2.2 2.3h17.6c1.2 0 2.2-1 2.2-2.3V84.8C53 83.5 52 82.5 50.8 82.5L50.8 82.5zM50.9 145.3c1.2 0 2.2 1 2.2 2.3v10.5h-4.4v-10.5C48.7 146.4 49.7 145.3 50.9 145.3zM50.9 163.9l-2.2-3.5h4.4L50.9 163.9zM43.2 143c1.2 0 2.2 1 2.2 2.3v16.3c0 1.3-1 2.3-2.2 2.3h-11c-1.2 0-2.2-1-2.2-2.3v-16.3c0-1.3 1-2.3 2.2-2.3H43.2zM42.1 150v-2.3h-8.8v2.3H42.1zM42.1 154.6v-2.3h-8.8v2.3H42.1zM38.8 159.3v-2.3h-5.5v2.3H38.8zM56.7 208.6L41.4 224 26 208.6l4.6-4.6 7.5 7.5V190h6.5v21.5l7.5-7.5L56.7 208.6zM74 4c3.3 0 6 2.7 6 6v32.3c0 3.3-2.7 6-6 6H10c-3.3 0-6-2.7-6-6V10c0-3.3 2.7-6 6-6H74M74 0H10C4.5 0 0 4.5 0 10v32.3c0 5.5 4.5 10 10 10h64c5.5 0 10-4.5 10-10V10C84 4.5 79.5 0 74 0L74 0zM74 67c3.3 0 6 2.7 6 6v32.3c0 3.3-2.7 6-6 6H10c-3.3 0-6-2.7-6-6V73c0-3.3 2.7-6 6-6H74M74 63H10C4.5 63 0 67.5 0 73v32.3c0 5.5 4.5 10 10 10h64c5.5 0 10-4.5 10-10V73C84 67.5 79.5 63 74 63L74 63zM74 131.3c3.3 0 6 2.7 6 6v32.3c0 3.3-2.7 6-6 6H10c-3.3 0-6-2.7-6-6v-32.3c0-3.3 2.7-6 6-6H74M74 127.3H10c-5.5 0-10 4.5-10 10v32.3c0 5.5 4.5 10 10 10h64c5.5 0 10-4.5 10-10v-32.3C84 131.8 79.5 127.3 74 127.3L74 127.3zM79.3 253.2l-35.8-16.8c-1-0.5-2.2-0.5-3.2 0L4.4 253.2C2.9 253.8 2 255.3 2 257s0.9 3.2 2.4 3.8l35.9 16.8c0.5 0.2 1.1 0.4 1.6 0.4 0.5 0 1.1-0.1 1.6-0.4l35.8-16.8c1.4-0.7 2.4-2.2 2.4-3.8S80.7 253.8 79.3 253.2zM41.8 269.2l-26-12.2 26-12.2 26 12.2L41.8 269.2z"/>
</svg>
