<svg xmlns="http://www.w3.org/2000/svg" version="1.1" x="0" y="0" viewBox="0 0 143 151" xml:space="preserve"><path d="M130.2 27.7c-0.3 0-0.5-0.1-0.8-0.2l-7.6-5 -7.6 5c-0.5 0.3-1.1 0.3-1.6 0 -0.5-0.3-0.7-0.9-0.5-1.5l2.6-8.9 -6.4-6.4c-0.4-0.4-0.5-1-0.3-1.5 0.2-0.5 0.7-0.9 1.3-0.9h7.5l3.8-7.6c0.5-0.9 2-0.9 2.5 0l3.8 7.6h7.5c0.6 0 1.1 0.3 1.3 0.9 0.2 0.5 0.1 1.1-0.3 1.5L129 17l2.6 8.9c0.2 0.6 0 1.2-0.5 1.5C130.8 27.6 130.5 27.7 130.2 27.7zM46.4 151c-0.2 0-0.3-0.1-0.5-0.2l-4.9-3.3 -4.9 3.3c-0.3 0.2-0.7 0.2-1 0 -0.3-0.2-0.4-0.6-0.3-1l1.7-5.8 -4.1-4.1c-0.3-0.3-0.3-0.6-0.2-1 0.1-0.3 0.5-0.6 0.8-0.6h4.8l2.5-4.9c0.3-0.6 1.3-0.6 1.6 0l2.5 4.9h4.8c0.4 0 0.7 0.2 0.8 0.6 0.1 0.3 0.1 0.7-0.2 1l-4.1 4.1 1.7 5.8c0.1 0.4 0 0.8-0.3 1C46.8 150.9 46.6 151 46.4 151zM22.2 146.7c-0.3 0-0.5-0.1-0.8-0.2l-7.6-5 -7.6 5c-0.5 0.3-1.1 0.3-1.6 0 -0.5-0.3-0.7-0.9-0.5-1.5l2.6-8.9 -6.4-6.4c-0.4-0.4-0.5-1-0.3-1.5 0.2-0.5 0.7-0.9 1.3-0.9h7.5l3.8-7.6c0.5-0.9 2-0.9 2.5 0l3.8 7.6h7.5c0.6 0 1.1 0.3 1.3 0.9 0.2 0.5 0.1 1.1-0.3 1.5L21 136l2.6 8.9c0.2 0.6 0 1.2-0.5 1.5C22.8 146.6 22.5 146.7 22.2 146.7zM13.9 138.4c0.3 0 0.5 0.1 0.8 0.2l5.2 3.5 -1.7-6.1c-0.1-0.5 0-1 0.4-1.4L23 130h-5c-0.5 0-1-0.3-1.2-0.8l-2.9-5.8 -2.9 5.8c-0.2 0.5-0.7 0.8-1.2 0.8h-5l4.6 4.6c0.4 0.4 0.5 0.9 0.4 1.4l-1.7 6.1 5.2-3.5C13.3 138.4 13.6 138.4 13.9 138.4zM138.6 123.8c-0.2 0-0.4-0.1-0.6-0.2l-5.7-3.8 -5.7 3.8c-0.4 0.2-0.8 0.2-1.2 0 -0.4-0.3-0.5-0.7-0.4-1.1l1.9-6.7 -4.8-4.8c-0.3-0.3-0.4-0.7-0.2-1.1 0.2-0.4 0.5-0.6 1-0.6h5.6l2.8-5.7c0.4-0.7 1.5-0.7 1.9 0l2.8 5.7h5.6c0.4 0 0.8 0.3 1 0.6 0.2 0.4 0.1 0.8-0.2 1.1l-4.8 4.8 1.9 6.7c0.1 0.4 0 0.9-0.4 1.1C139.1 123.7 138.9 123.8 138.6 123.8zM132.4 117.5c0.2 0 0.4 0.1 0.6 0.2l3.9 2.6 -1.3-4.6c-0.1-0.4 0-0.8 0.3-1l3.4-3.4h-3.7c-0.4 0-0.8-0.2-0.9-0.6l-2.2-4.4 -2.2 4.4c-0.2 0.4-0.5 0.6-0.9 0.6h-3.7l3.4 3.4c0.3 0.3 0.4 0.7 0.3 1l-1.3 4.6 3.9-2.6C132 117.6 132.2 117.5 132.4 117.5zM104 42c5 0 9 4 9 9v31.5c0 3.7-1.9 8.3-4.5 10.9l-25.1 25.1c-2.6 2.6-7.2 4.5-10.9 4.5H41c-5 0-9-4-9-9V51c0-5 4-9 9-9H104zM81.5 107.6l16.1-16.1H86c-2.5 0-4.5 2-4.5 4.5V107.6zM41 114h31.5V96c0-7.4 6.1-13.5 13.5-13.5h18V51H41V114z"/></svg>
