<svg fill="none" viewBox="0 0 198 218" xmlns="http://www.w3.org/2000/svg"><g clip-rule="evenodd" fill-rule="evenodd"><path d="m1 7.39999c0-2.2402 0-3.3603.43597-4.21595.3835-.75265.99542-1.36457 1.74807-1.74807.85565-.43597 1.97575-.43597 4.21596-.43597h183.2c2.24 0 3.36 0 4.216.43597.753.3835 1.365.99542 1.748 1.74807.436.85565.436 1.97575.436 4.21596v123.2c0 2.24 0 3.36-.436 4.216-.383.753-.995 1.365-1.748 1.748-.856.436-1.976.436-4.216.436h-183.20001c-2.2402 0-3.3603 0-4.21595-.436-.75265-.383-1.36457-.995-1.74807-1.748-.43597-.856-.43597-1.976-.43597-4.216z" fill="#cfcfcf" stroke="#152633" stroke-width="2"/><path d="m9.56388 7h178.87212c.892 0 1.215.11068 1.541.3185.326.20783.582.51281.756.90141.174.38861.267.77406.267 1.83699v117.8861c0 1.063-.093 1.448-.267 1.837s-.43.694-.756.901c-.326.208-.649.319-1.541.319h-178.87212c-.89151 0-1.2148-.111-1.54073-.319-.32592-.207-.58171-.512-.75602-.901-.1743-.389-.26713-.774-.26713-1.837v-117.8861c0-1.06293.09283-1.44838.26713-1.83699.17431-.3886.4301-.69358.75602-.90141.32593-.20782.64922-.3185 1.54073-.3185z" fill="#fff" stroke="#152633" stroke-width="2"/><path d="m136 79.0001c-9.941 0-18 8.0588-18 18 0 9.9409 8.059 17.9999 18 17.9999s18-8.059 18-17.9999c0-9.9412-8.059-18-18-18zm-22 18c0-12.1503 9.85-22 22-22s22 9.8497 22 22c0 12.1499-9.85 21.9999-22 21.9999s-22-9.85-22-21.9999z" fill="#ebebeb"/><path d="m143.496 86.1924c.76-.8013 2.026-.8347 2.828-.0744 6.01 5.7016 6.26 15.196.558 21.206s-15.196 6.26-21.206.558c-.801-.76-.834-2.026-.074-2.827.76-.802 2.026-.835 2.827-.075 4.408 4.182 11.37 3.998 15.551-.409 4.181-4.408 3.998-11.3699-.409-15.5511-.802-.7603-.835-2.0261-.075-2.8275z" fill="#5f4dce"/><path d="m148.657 84.3432c-7.03-7.0294-18.427-7.0294-25.456 0-.781.7811-2.048.7811-2.829 0-.781-.781-.781-2.0473 0-2.8284 8.592-8.5915 22.522-8.5915 31.113 0 8.592 8.5916 8.592 22.5212 0 31.1132-.781.781-2.047.781-2.828 0-.781-.782-.781-2.048 0-2.829 7.029-7.029 7.029-18.4263 0-25.4558z" fill="#bf32a4"/></g><path d="m129.741 90.4621-25.699 78.9759c-.508 1.559-2.207 2.387-3.747 1.826-1.5407-.562-2.3088-2.288-1.694-3.809z" fill="#b78762" stroke="#152633" stroke-linejoin="round" stroke-width="2"/><path d="m37.28 46.3837c-4.9333-1.88-10.4587 3.7598-16.28 3.7598v39.8565h74v-33.3393c-7.3013 0-13.4856 24.8778-22.4643 24.8778s-11.8717-24.0005-16.7064-28.6377c-4.8346-4.6372-5.1396 14.3001-10.8533 12.7836-6.6107-1.7546-2.7627-17.4208-7.696-19.3007z" fill="#ebf1ff"/><path clip-rule="evenodd" d="m26.0618 50.2444c-1.5572.7097-3.2867 1.3065-5.0618 1.3065-.8284 0-1.5-.6716-1.5-1.5s.6716-1.5 1.5-1.5c1.1355 0 2.3987-.3897 3.8176-1.0364.9557-.4356 1.873-.9325 2.8231-1.4472.4871-.2639.9829-.5325 1.4968-.7999 1.427-.7423 2.9885-1.4696 4.5193-1.6947 1.6316-.2399 3.2866.0868 4.679 1.4668 1.3554 1.3431 1.9705 3.4907 2.3536 5.5338.271 1.4453.4606 3.0763.6444 4.6573.0819.7043.1626 1.3987.2488 2.0624.2925 2.2503.6515 4.1932 1.2777 5.5894.6024 1.3431 1.3091 1.9004 2.2496 1.9847.6136.055 1.0486-.0703 1.3976-.2812.3718-.2247.7369-.6034 1.0938-1.1835.742-1.2061 1.2404-2.9168 1.7669-4.8401.0295-.1079.0593-.217.0892-.3269.4632-1.6994.9852-3.6143 1.8122-4.9495.4608-.744 1.1125-1.4762 2.0604-1.8519.9827-.3896 2.0296-.2972 3.0616.12 1.2175.4923 2.0947 1.5235 2.7552 2.6358.6722 1.132 1.2288 2.534 1.7227 4.0411.6322 1.9286 1.2159 4.2131 1.8085 6.5324.3213 1.2579.6453 2.526.9811 3.753.983 3.5927 2.0871 6.9296 3.5827 9.352 1.4797 2.3965 3.1632 3.6317 5.2939 3.6317 2.2286 0 4.2279-1.255 6.17-3.5488 1.9445-2.2966 3.6414-5.4134 5.2778-8.678.3521-.7024.7026-1.4144 1.0522-2.1247 1.2375-2.5141 2.4647-5.0073 3.718-6.982.8098-1.2759 1.6896-2.4348 2.6713-3.2868.9907-.8598 2.1831-1.489 3.575-1.489.8284 0 1.5.6716 1.5 1.5s-.6716 1.5-1.5 1.5c-.4334 0-.9541.1867-1.6086.7547-.6636.5759-1.361 1.4568-2.1048 2.6287-1.1575 1.8238-2.2843 4.1119-3.5078 6.5964-.3616.7341-.7316 1.4855-1.1133 2.247-1.6355 3.2628-3.4698 6.6733-5.6702 9.2722-2.2028 2.6017-4.962 4.6103-8.4596 4.6103-3.5955 0-6.0885-2.2084-7.8465-5.0557-1.742-2.8214-2.9365-6.5284-3.9237-10.1362-.3691-1.3489-.7074-2.6746-1.034-3.9548-.5721-2.2421-1.1086-4.3447-1.7127-6.188-.4681-1.4281-.9442-2.5895-1.4515-3.4438-.519-.8739-.9681-1.2519-1.3002-1.3862-.5176-.2093-.7441-.1471-.8317-.1124-.1225.0486-.3382.1952-.6154.6426-.5905.9535-1.0114 2.4909-1.5453 4.4415l-.013.0474c-.4998 1.8259-1.0964 3.9801-2.1051 5.6199-.5185.8427-1.1926 1.6323-2.0973 2.1791-.9276.5606-2.0064.8103-3.2172.7017-2.4275-.2176-3.8692-1.85-4.7191-3.745-.8262-1.8419-1.2236-4.1854-1.5153-6.4304-.0987-.7591-.1854-1.5061-.2702-2.2367-.1767-1.5235-.3452-2.9756-.5967-4.3168-.3807-2.0305-.8811-3.326-1.5166-3.9558-.5985-.5931-1.2464-.7597-2.131-.6296-.9854.1449-2.1535.6506-3.5712 1.3881-.4194.2181-.866.4599-1.3291.7105-1.0035.543-2.0841 1.1277-3.1311 1.605z" fill="#4a7dff" fill-rule="evenodd"/><rect fill="#ffe176" height="19" rx="1" width="8" x="118" y="40"/><rect fill="#f5356f" height="29" rx="1" width="8" x="128" y="30"/><rect fill="#4a7dff" height="17" rx="1" width="8" x="138" y="42"/><rect fill="#ffe176" height="23" rx="1" width="8" x="148" y="36"/><rect fill="#f5356f" height="37" rx="1" width="8" x="158" y="22"/><rect fill="#4a7dff" height="27" rx="1" width="8" x="168" y="32"/><path d="m63.5059 217.931c27.6142 0 50.0001-4.477 50.0001-10s-22.3859-10-50.0001-10c-27.6143 0-50 4.477-50 10s22.3857 10 50 10z" fill="#000" fill-opacity=".05"/><path d="m73.5293 145.816c.9724.076 1.9662.115 2.9766.115 11.598 0 21-5.149 21-11.5 0-1.98-.9135-3.843-2.5224-5.469" opacity=".5" stroke="#dfb271" stroke-width="2"/><path clip-rule="evenodd" d="m80.5527 161.246c-.0091 1.066-.0447 2.144-.1031 3.23 4.8172 1.221 15.7447 3.414 24.9844 1.075 12.253-3.102 7.955-15.483 1.983-18.264-5.571-2.594-15.0276 2.66-26.8643 13.959z" fill="#2d3b45" fill-rule="evenodd"/><path d="m79.5426 161.972c5.4473 1.205 14.8143 2.624 22.8914.579 8.268-2.093 9-8.412 6.766-13.154 4.163 4.549 5.44 13.571-4.766 16.154-9.2396 2.339-20.1671.146-24.9843-1.075.0451-.84.0767-1.675.0929-2.504z" fill="#28343d"/><path clip-rule="evenodd" d="m80.5527 161.246c-.0091 1.066-.0447 2.144-.1031 3.23 4.8172 1.221 15.7447 3.414 24.9844 1.075 12.253-3.102 7.955-15.483 1.983-18.264-5.571-2.594-15.0276 2.66-26.8643 13.959z" fill-rule="evenodd" stroke="#152633" stroke-width="2"/><path clip-rule="evenodd" d="m42.6309 155.956c.7101 4.919 1.7495 16.016-1.5426 24.96-4.3655 11.861-16.2301 6.293-18.3709.063-1.9974-5.811 4.2162-14.667 16.6902-25.258 1.0614.103 2.1372.18 3.2233.235z" fill="#2d3b45" fill-rule="evenodd"/><path d="m22.3501 178.808c.0113.764.1326 1.489.3671 2.171 2.1409 6.23 14.0055 11.799 18.3709-.063 3.2922-8.944 2.2528-20.041 1.5427-24.96-.8062-.041-1.6067-.094-2.3998-.161.3443 5.517.1659 12.848-2.1429 19.121-3.4073 9.258-11.383 7.898-15.738 3.892z" fill="#28343d"/><path clip-rule="evenodd" d="m42.6309 155.956c.7101 4.919 1.7495 16.016-1.5426 24.96-4.3655 11.861-16.2301 6.293-18.3709.063-1.9974-5.811 4.2162-14.667 16.6902-25.258 1.0614.103 2.1372.18 3.2233.235z" fill-rule="evenodd" stroke="#152633" stroke-width="2"/><path clip-rule="evenodd" d="m83.7646 157.519c-6.7616 2.252-14.4785 3.476-22.6736 3.476-7.3048 0-13.6198-1.786-19.5851-3.476-2.3954 5.364-5.5509 13.161-6.1451 17.914-1.7478 12.233 8.8853 22.954 27.7664 22.954s28.7448-11.107 26.5898-22.583c-1.4853-7.907-3.8795-13.881-5.9524-18.285z" fill="#fff" fill-rule="evenodd"/><path d="m44.6973 193.833c4.0242 1.624 8.8693 2.554 14.4297 2.554 18.8812 0 28.7449-11.107 26.5898-22.583-1.1879-6.324-2.9571-11.411-4.6783-15.447.9245-.261 1.8336-.541 2.726-.838 2.0728 4.404 4.467 10.378 5.9523 18.285 2.1551 11.476-7.7086 22.583-26.5898 22.583-7.5502 0-13.7816-1.714-18.4297-4.554z" fill="#ededed"/><path clip-rule="evenodd" d="m83.7646 157.519c-6.7616 2.252-14.4785 3.476-22.6736 3.476-7.3048 0-13.6198-1.786-19.5851-3.476-2.3954 5.364-5.5509 13.161-6.1451 17.914-1.7478 12.233 8.8853 22.954 27.7664 22.954s28.7448-11.107 26.5898-22.583c-1.4853-7.907-3.8795-13.881-5.9524-18.285z" fill-rule="evenodd" stroke="#152633" stroke-width="2"/><path clip-rule="evenodd" d="m99.7449 203.798c-2.9617-15.179-9.5048-24.237-9.875-27.199 1.4431 10.085-6.5027 19.873-21.5406 21.701l.3173 1.425c1.1107 5.924 3.332 8.145 7.0342 9.256 8.1448 2.961 25.9152 1.851 24.0641-5.183z" fill="#2d3b45" fill-rule="evenodd"/><path d="m89.8378 181.469c2.2293 4.694 5.1783 11.469 6.907 20.329 1.8511 7.034-15.9193 8.144-24.0641 5.183-.3859-.116-.7558-.244-1.1099-.387 1.0961 1.172 2.4551 1.89 4.1099 2.387 8.1448 2.961 25.9153 1.851 24.0641-5.183-1.9845-10.171-5.5769-17.593-7.8429-22.275-1.0861-2.244-1.8675-3.859-2.021-4.844.2234 1.615.2058 3.223-.0431 4.79z" fill="#28343d"/><path clip-rule="evenodd" d="m99.7449 203.798c-2.9617-15.179-9.5048-24.237-9.875-27.199 1.4431 10.085-6.5027 19.873-21.5406 21.701l.3173 1.425c1.1107 5.924 3.332 8.145 7.0342 9.256 8.1448 2.961 25.9152 1.851 24.0641-5.183z" fill-rule="evenodd" stroke="#152633" stroke-width="2"/><path clip-rule="evenodd" d="m35.1984 176.771c-.4246 2.962-7.0885 11.847-10.0503 27.026-1.8511 7.034 15.9194 8.145 24.0642 5.183 3.7022-1.11 5.9235-3.332 7.0341-9.255l.3018-1.234.0155-.34c-14.2508-2.099-22.2127-11.095-21.3653-21.38z" fill="#2d3b45" fill-rule="evenodd"/><path d="m25.1274 205.646c1.4644 5.36 16.7151 6.014 24.0848 3.334 3.7022-1.11 5.9235-3.332 7.0342-9.255l.3017-1.234.0155-.34c-1.2013-.177-2.3579-.403-3.4683-.675-1.1554 5.363-3.3417 7.442-6.8831 8.504-5.6507 2.055-15.9346 2.15-21.0848-.334z" fill="#28343d"/><path clip-rule="evenodd" d="m35.1984 176.771c-.4246 2.962-7.0885 11.847-10.0503 27.026-1.8511 7.034 15.9194 8.145 24.0642 5.183 3.7022-1.11 5.9235-3.332 7.0341-9.255l.3018-1.234.0155-.34c-14.2508-2.099-22.2127-11.095-21.3653-21.38z" fill-rule="evenodd" stroke="#152633" stroke-width="2"/><path clip-rule="evenodd" d="m23.9753 121.861c-1.3117-.059-2.7801-.293-4.3586-.826-6.0697-2.05-6.3597-7.335-6.6166-9.016-.257-1.681-.2921-10.756 6.9172-9.476 4.656.827 8.137 2.717 11.348 4.277-3.3504 4.555-5.818 9.695-7.29 15.041z" fill="#2d3b45" fill-rule="evenodd"/><path d="m16.6166 117.035c1.5784.533 3.0469.767 4.3586.826 1.3117-4.764 3.4138-9.364 6.2267-13.532.6922.326 1.3624.656 2.0179.978.3523.174.7004.345 1.0454.513-3.3504 4.555-5.818 9.695-7.29 15.041-1.3117-.059-2.7802-.293-4.3586-.826-3.3519-1.132-4.9412-3.251-5.7357-5.204.906.878 2.1147 1.657 3.7357 2.204z" fill="#28343d"/><path clip-rule="evenodd" d="m23.9753 121.861c-1.3117-.059-2.7801-.293-4.3586-.826-6.0697-2.05-6.3597-7.335-6.6166-9.016-.257-1.681-.2921-10.756 6.9172-9.476 4.656.827 8.137 2.717 11.348 4.277-3.3504 4.555-5.818 9.695-7.29 15.041z" fill-rule="evenodd" stroke="#152633" stroke-width="2"/><path clip-rule="evenodd" d="m21.2944 130.154c0 20.023 17.2106 30.725 40.8704 30.725 23.6599 0 42.8402-12.083 42.8402-30.035 0-22.308-19.1803-43.844-42.8402-43.844-23.6598 0-40.8704 22.095-40.8704 43.154z" fill="#fff" fill-rule="evenodd"/><path d="m47.9614 159.421c4.3685.968 9.1381 1.458 14.2034 1.458 23.6598 0 42.8402-12.083 42.8402-30.035 0-21.233-17.3763-41.7665-39.4525-43.6963 19.1444 4.7375 33.4523 23.4293 33.4523 42.6963 0 17.952-19.1802 30.035-42.84 30.035-2.8331 0-5.5737-.153-8.2034-.458z" fill="#ededed"/><path clip-rule="evenodd" d="m21.2944 130.154c0 20.023 17.2106 30.725 40.8704 30.725 23.6599 0 42.8402-12.083 42.8402-30.035 0-22.308-19.1803-43.844-42.8402-43.844-23.6598 0-40.8704 22.095-40.8704 43.154z" fill-rule="evenodd" stroke="#152633" stroke-width="2"/><path clip-rule="evenodd" d="m93.7624 123.294c1.5736-.653 3.2593-1.591 4.9471-2.941 6.4895-5.192 5.1915-13.845 4.7595-16.008-.433-2.163-3.029-12.5472-11.2494-7.788-5.3092 3.0737-8.3682 6.834-11.5907 10.16 5.3476 4.546 11.5907 12.3 13.1335 16.577z" fill="#2d3b45" fill-rule="evenodd"/><path d="m92.4094 120.52c.5955 1.02 1.0594 1.96 1.353 2.774 1.5736-.653 3.2592-1.591 4.947-2.941 6.4896-5.191 5.1916-13.845 4.7596-16.008-.323-1.612-1.847-7.79-6.0047-8.8632 1.9443 2.2867 2.7757 5.7212 3.0047 6.8632.432 2.163 1.73 10.817-4.7596 16.008-1.1114.889-2.2218 1.599-3.3 2.167z" fill="#28343d"/><path clip-rule="evenodd" d="m93.7624 123.294c1.5736-.653 3.2593-1.591 4.9471-2.941 6.4895-5.192 5.1915-13.845 4.7595-16.008-.433-2.163-3.029-12.5472-11.2494-7.788-5.3092 3.0737-8.3682 6.834-11.5907 10.16 5.3476 4.546 11.5907 12.3 13.1335 16.577z" fill-rule="evenodd" stroke="#152633" stroke-width="2"/><path d="m57.1064 191.634c.0561.899.5844 1.743 1.4579 2.165 1.0105.49 2.1837.271 2.9488-.461.7651.732 1.9383.951 2.9488.461 1.0022-.485 1.55-1.524 1.4515-2.564 1.0463-.137 1.9465-.901 2.1978-1.982.2524-1.085-.224-2.168-1.1111-2.744.55-.905.5022-2.092-.2067-2.961-.4784-.586-1.162-.91-1.8653-.953.0312.518-.0944 1.04-.3689 1.492.8871.576 1.3635 1.659 1.1111 2.744-.2513 1.08-1.1516 1.845-2.1979 1.981.0986 1.041-.4492 2.08-1.4514 2.565-1.0105.489-2.1838.27-2.9488-.462-.5247.502-1.2413.763-1.9658.719z" fill="#ededed"/><path clip-rule="evenodd" d="m58.7162 182.698c.3013-.813 1.0834-1.392 2.0009-1.392.9174 0 1.6995.579 2.0008 1.392.8176-.269 1.7518-.025 2.3256.684.5809.717.62 1.697.1695 2.444.7268.476 1.1171 1.37.9103 2.266-.2059.892-.9435 1.523-1.8008 1.636.0807.859-.3681 1.717-1.1893 2.117-.828.404-1.7893.223-2.4161-.381-.6269.604-1.5882.785-2.4162.381-.8212-.4-1.27-1.258-1.1893-2.117-.8573-.113-1.5949-.744-1.8008-1.636-.2068-.896.1835-1.79.9104-2.266-.4506-.747-.4115-1.727.1694-2.444.5738-.709 1.5081-.953 2.3256-.684z" fill="#2d3b45" fill-rule="evenodd"/><path d="m57.1064 190.058c.046.742.4788 1.438 1.1946 1.787.8279.404 1.7892.223 2.4161-.381.6269.604 1.5882.785 2.4161.381.8212-.4 1.2701-1.258 1.1893-2.117.8573-.113 1.5949-.744 1.8009-1.636.2068-.896-.1835-1.79-.9104-2.266.4506-.747.4115-1.727-.1694-2.444-.392-.484-.9521-.752-1.5284-.787.0256.427-.0773.858-.3022 1.231.7269.476 1.1172 1.37.9104 2.266-.206.892-.9436 1.523-1.8009 1.636.0808.859-.3681 1.717-1.1893 2.117-.8279.404-1.7892.223-2.4161-.381-.4299.414-1.0171.63-1.6107.594z" fill="#28343d"/><path clip-rule="evenodd" d="m58.7162 182.698c.3013-.813 1.0834-1.392 2.0009-1.392.9174 0 1.6995.579 2.0008 1.392.8176-.269 1.7518-.025 2.3256.684.5809.717.62 1.697.1695 2.444.7268.476 1.1171 1.37.9103 2.266-.2059.892-.9435 1.523-1.8008 1.636.0807.859-.3681 1.717-1.1893 2.117-.828.404-1.7893.223-2.4161-.381-.6269.604-1.5882.785-2.4162.381-.8212-.4-1.27-1.258-1.1893-2.117-.8573-.113-1.5949-.744-1.8008-1.636-.2068-.896.1835-1.79.9104-2.266-.4506-.747-.4115-1.727.1694-2.444.5738-.709 1.5081-.953 2.3256-.684z" fill-rule="evenodd" stroke="#152633" stroke-width="2"/></svg>