<svg viewBox="0 0 222 175" fill="none" xmlns="http://www.w3.org/2000/svg">
<path d="M126.463 172.848C173.365 172.848 211.387 134.826 211.387 87.924C211.387 41.0218 173.365 3 126.463 3C79.5606 3 41.5388 41.0218 41.5388 87.924C41.5388 134.826 79.5606 172.848 126.463 172.848Z" fill="#2D3B45"/>
<path d="M64.9937 90.0007L54.3838 91.3794C50.433 60.9758 59.8825 42.2622 82.7543 37.6879C99.4795 34.3428 116.35 42.4782 124.722 57.2946C133.706 73.1956 131.193 93.1096 116.251 110.702L108.096 103.776C120.216 89.5069 122.118 74.4352 115.407 62.5577C109.269 51.6953 96.9572 45.7582 84.8526 48.1792C68.3213 51.4854 61.6943 64.6095 64.9937 90.0007Z" fill="white" stroke="#152633" stroke-width="2"/>
<path fill-rule="evenodd" clip-rule="evenodd" d="M65.4775 124.459C63.8792 128.458 59.8507 137.237 53.5039 142.524C45.0876 149.534 38.5957 140.214 39.6886 134.61C40.7074 129.383 49.2086 125.429 63.1601 122.885C63.9123 123.422 64.6864 123.946 65.4775 124.459Z" fill="white" stroke="#152633" stroke-width="2"/>
<path fill-rule="evenodd" clip-rule="evenodd" d="M115.932 98.8818C106.948 92.7349 104.313 101.788 102.853 103.922C108.426 109.495 111.317 120.016 103.222 130.352C111.933 126.471 118.14 122.68 121.842 118.977C126.259 114.561 124.916 105.029 115.932 98.8818Z" fill="white" stroke="#152633" stroke-width="2"/>
<path fill-rule="evenodd" clip-rule="evenodd" d="M88.9796 97.6902C88.721 96.7839 88.446 95.8904 88.1526 95.0141C94.6641 82.4159 100.931 75.4423 106.227 75.9961C111.906 76.5893 118.921 85.5227 109.756 91.5215C102.845 96.0453 93.2713 97.331 88.9796 97.6902Z" fill="white" stroke="#152633" stroke-width="2"/>
<path fill-rule="evenodd" clip-rule="evenodd" d="M87.5717 95.5617C84.8079 101.085 80.829 106.564 75.8069 111.586C71.3304 116.063 66.6613 119.676 61.9702 122.296C63.7893 127.051 66.3382 132.925 68.8872 136.202C75.3123 144.77 88.3985 144.824 99.9691 133.253C111.54 121.682 110.778 108.831 102.424 103.119C96.6687 99.1838 91.5409 96.9903 87.5717 95.5617Z" fill="white"/>
<path fill-rule="evenodd" clip-rule="evenodd" d="M87.7122 95.88C84.9484 101.404 80.9695 106.883 75.9474 111.905C71.4709 116.381 66.8018 119.994 62.1107 122.614C63.9298 127.369 66.4787 133.243 69.0277 136.521C75.4528 145.088 88.539 145.142 100.11 133.571C111.68 122.001 110.919 109.15 102.565 103.437C96.8092 99.5021 91.6814 97.3087 87.7122 95.88Z" stroke="#152633" stroke-width="2"/>
<path fill-rule="evenodd" clip-rule="evenodd" d="M122.739 115.456C120.596 116.902 116.431 114.475 113.437 110.036C110.442 105.596 109.752 100.825 111.895 99.3797C114.039 97.9341 118.204 100.361 121.198 104.801C124.192 109.24 124.883 114.011 122.739 115.456Z" stroke="#152633" stroke-width="2"/>
<path fill-rule="evenodd" clip-rule="evenodd" d="M64.339 150.475C58.1921 141.491 67.2449 138.856 69.3794 137.396C74.9524 142.969 85.4735 145.86 95.8095 137.765C91.9284 146.476 88.1368 152.683 84.4346 156.385C80.0182 160.801 70.4859 159.458 64.339 150.475Z" fill="white" stroke="#152633" stroke-width="2"/>
<path fill-rule="evenodd" clip-rule="evenodd" d="M80.909 157.287C79.4634 159.43 74.6926 158.74 70.2531 155.745C65.8136 152.751 63.3866 148.586 64.8322 146.443C66.2778 144.3 71.0486 144.99 75.4881 147.984C79.9276 150.979 82.3546 155.144 80.909 157.287Z" stroke="#152633" stroke-width="2"/>
<path d="M76.7083 112.099L77.6539 111.153L100.35 133.85L99.4044 134.795L76.7083 112.099Z" fill="#152633"/>
<path d="M91.3662 71.908C92.672 70.6023 90.4491 66.2625 86.4015 62.2148C82.3538 58.1671 78.014 55.9443 76.7083 57.25C75.4026 58.5557 77.6254 62.8955 81.6731 66.9432C85.7208 70.9909 90.0605 73.2137 91.3662 71.908Z" fill="white" stroke="#152633" stroke-width="2"/>
<path d="M38.4085 124.866C39.7142 123.56 37.4914 119.22 33.4437 115.173C29.396 111.125 25.0562 108.902 23.7505 110.208C22.4448 111.514 24.6676 115.853 28.7153 119.901C32.763 123.949 37.1028 126.171 38.4085 124.866Z" fill="white" stroke="#152633" stroke-width="2"/>
<path fill-rule="evenodd" clip-rule="evenodd" d="M29.9706 118.319C42.9489 131.298 60.6383 127.482 76.7203 111.4C92.8023 95.3177 97.062 75.3945 85.4262 63.7587C70.9672 49.2997 44.9166 47.432 28.8346 63.514C12.7526 79.596 16.3209 104.67 29.9706 118.319Z" fill="white" stroke="#152633" stroke-width="2"/>
<path fill-rule="evenodd" clip-rule="evenodd" d="M29.1578 114.669C18.9898 104.501 18.9804 83.1747 33.6332 68.5218C48.286 53.869 70.5631 52.3891 81.3341 63.16C90.0019 71.8279 74.5008 80.0837 59.8479 94.7366C45.1951 109.389 38.8258 124.337 29.1578 114.669Z" fill="#2D3B45" stroke="#152633" stroke-width="2"/>
<path opacity="0.6" fill-rule="evenodd" clip-rule="evenodd" d="M28.0182 91.7794C30.0144 93.7756 31.4921 82.607 39.8665 74.2326C48.241 65.8581 59.747 63.9307 57.807 61.9907C56.3144 60.498 45.6404 63.2575 37.2659 71.6319C28.8915 80.0064 26.798 90.5592 28.0182 91.7794Z" fill="#F2F2F2"/>
<path fill-rule="evenodd" clip-rule="evenodd" d="M147.571 27.7416C147.005 25.8073 145.493 24.2952 143.559 23.7295C145.493 23.1638 147.005 21.6516 147.571 19.7173C148.137 21.6516 149.649 23.1638 151.583 23.7295C149.649 24.2952 148.137 25.8073 147.571 27.7416Z" fill="#FFC100"/>
<path fill-rule="evenodd" clip-rule="evenodd" d="M152.252 19.0486C152.063 18.4039 151.559 17.8998 150.915 17.7112C151.559 17.5227 152.063 17.0186 152.252 16.3739C152.441 17.0186 152.945 17.5227 153.589 17.7112C152.945 17.8998 152.441 18.4039 152.252 19.0486Z" fill="#FFC100"/>
<path fill-rule="evenodd" clip-rule="evenodd" d="M162.282 83.9119C161.905 82.6223 160.897 81.6142 159.608 81.2371C160.897 80.8599 161.905 79.8519 162.282 78.5623C162.659 79.8519 163.668 80.8599 164.957 81.2371C163.668 81.6142 162.659 82.6223 162.282 83.9119Z" fill="#FFD960"/>
<path fill-rule="evenodd" clip-rule="evenodd" d="M188.361 132.058C187.796 130.123 186.283 128.611 184.349 128.046C186.283 127.48 187.796 125.968 188.361 124.033C188.927 125.968 190.439 127.48 192.373 128.046C190.439 128.611 188.927 130.123 188.361 132.058Z" fill="#FFD960"/>
<path fill-rule="evenodd" clip-rule="evenodd" d="M142.89 146.769C142.136 144.19 140.12 142.174 137.541 141.419C140.12 140.665 142.136 138.649 142.89 136.07C143.644 138.649 145.661 140.665 148.24 141.419C145.661 142.174 143.644 144.19 142.89 146.769Z" fill="#FFD960"/>
<path fill-rule="evenodd" clip-rule="evenodd" d="M86.0512 163.486C85.7684 162.519 85.0123 161.763 84.0452 161.48C85.0123 161.197 85.7684 160.441 86.0512 159.474C86.3341 160.441 87.0902 161.197 88.0573 161.48C87.0902 161.763 86.3341 162.519 86.0512 163.486Z" fill="#FFD960"/>
<path fill-rule="evenodd" clip-rule="evenodd" d="M131.857 156.131C131.432 154.68 130.298 153.546 128.848 153.122C130.298 152.697 131.432 151.563 131.857 150.112C132.281 151.563 133.415 152.697 134.866 153.122C133.415 153.546 132.281 154.68 131.857 156.131Z" fill="#FFD960"/>
<path fill-rule="evenodd" clip-rule="evenodd" d="M124.501 147.438C124.171 146.309 123.289 145.427 122.161 145.097C123.289 144.767 124.171 143.885 124.501 142.757C124.831 143.885 125.713 144.767 126.842 145.097C125.713 145.427 124.831 146.309 124.501 147.438Z" fill="#FFD960"/>
<path fill-rule="evenodd" clip-rule="evenodd" d="M124.501 55.1581C124.171 54.0297 123.289 53.1476 122.161 52.8176C123.289 52.4876 124.171 51.6055 124.501 50.4772C124.831 51.6055 125.713 52.4876 126.842 52.8176C125.713 53.1476 124.831 54.0297 124.501 55.1581Z" fill="#FFD960"/>
<path fill-rule="evenodd" clip-rule="evenodd" d="M75.3522 25.7356C74.7865 23.8013 73.2744 22.2891 71.3401 21.7234C73.2744 21.1577 74.7865 19.6455 75.3522 17.7112C75.918 19.6455 77.4301 21.1577 79.3644 21.7234C77.4301 22.2891 75.918 23.8013 75.3522 25.7356Z" fill="#FFD960"/>
<path fill-rule="evenodd" clip-rule="evenodd" d="M193.711 51.8146C193.145 49.8803 191.633 48.3681 189.699 47.8024C191.633 47.2367 193.145 45.7246 193.711 43.7903C194.277 45.7246 195.789 47.2367 197.723 47.8024C195.789 48.3681 194.277 49.8803 193.711 51.8146Z" fill="#FFD960"/>
<path fill-rule="evenodd" clip-rule="evenodd" d="M185.018 55.8267C184.641 54.5372 183.633 53.5291 182.343 53.152C183.633 52.7748 184.641 51.7667 185.018 50.4772C185.395 51.7667 186.403 52.7748 187.693 53.152C186.403 53.5291 185.395 54.5372 185.018 55.8267Z" fill="#FFD960"/>
<path fill-rule="evenodd" clip-rule="evenodd" d="M213.103 118.015C211.972 114.147 208.947 111.122 205.079 109.991C208.947 108.859 211.972 105.835 213.103 101.967C214.234 105.835 217.259 108.859 221.127 109.991C217.259 111.122 214.234 114.147 213.103 118.015Z" fill="#FFD960"/>
<path fill-rule="evenodd" clip-rule="evenodd" d="M204.41 122.696C204.033 121.407 203.025 120.398 201.735 120.021C203.025 119.644 204.033 118.636 204.41 117.346C204.787 118.636 205.795 119.644 207.085 120.021C205.795 120.398 204.787 121.407 204.41 122.696Z" fill="#FFD960"/>
<path d="M74.3047 52.8176C70.5155 50.1429 68.6208 47.0223 68.6208 43.4559" stroke="#152633" stroke-width="2"/>
<path d="M81.9695 48.9159C79.5344 46.1675 78.6513 42.7872 79.3199 38.7751" stroke="#152633" stroke-width="2"/>
<path d="M91.0221 47.4681C90.3534 45.1277 91.0221 39.1094 93.3626 36.769" stroke="#152633" stroke-width="2"/>
<path d="M100.718 49.1398C101.387 45.462 102.724 42.1185 105.399 40.1125" stroke="#152633" stroke-width="2"/>
<path d="M109.077 54.8237C109.411 52.1489 113.089 47.8024 117.101 47.4681" stroke="#152633" stroke-width="2"/>
<path d="M115.429 62.1793C117.435 59.5046 121.782 57.1641 124.791 57.8328" stroke="#152633" stroke-width="2"/>
<path d="M118.438 70.8723C120.445 68.5319 127.466 68.1976 129.138 69.2006" stroke="#152633" stroke-width="2"/>
<path d="M119.442 78.5623C122.451 78.5623 127.132 79.231 129.472 81.2371" stroke="#152633" stroke-width="2"/>
<path d="M117.435 87.924C122.116 88.9271 125.794 91.2675 126.797 92.6049" stroke="#152633" stroke-width="2"/>
<path d="M113.758 95.614C117.101 96.2827 122.785 99.9605 122.785 101.632" stroke="#152633" stroke-width="2"/>
</svg>
