<svg viewBox="0 0 302 163" fill="none" xmlns="http://www.w3.org/2000/svg">
<path fill-rule="evenodd" clip-rule="evenodd" d="M286 133.654C285.333 137.987 281 140.821 273 142.154C268.881 142.841 260.381 144.007 247.5 145.654L226 131.154L269.5 128.654C274.167 132.654 279.667 134.321 286 133.654Z" fill="white" stroke="#C7CDD1" stroke-width="2"/>
<path d="M145 133.154C172.614 133.154 195 128.565 195 122.904C195 117.243 172.614 112.654 145 112.654C117.386 112.654 95 117.243 95 122.904C95 128.565 117.386 133.154 145 133.154Z" fill="black" fill-opacity="0.05"/>
<path fill-rule="evenodd" clip-rule="evenodd" d="M125.423 76.1924C125.036 80.8121 123.652 91.1169 118.783 98.5564C112.326 108.422 102.71 100.87 102.071 94.7582C101.475 89.0572 108.981 82.3113 122.542 75.3023C123.485 75.6182 124.447 75.9141 125.423 76.1924Z" fill="#2D3B45" stroke="#152633" stroke-width="2"/>
<path fill-rule="evenodd" clip-rule="evenodd" d="M166 86.6541C171 83.3207 179.333 81.8207 191 82.1541L184 70.6541C173.667 71.6156 165.5 74.763 159.5 80.0964C150.5 88.0964 158.5 91.6541 166 86.6541Z" fill="#2D3B45" stroke="#152633" stroke-width="2"/>
<path fill-rule="evenodd" clip-rule="evenodd" d="M164.932 75.6541C158.61 77.7594 151.395 78.9037 143.732 78.9037C136.902 78.9037 130.584 78.0979 125.007 76.5181C122.767 81.5331 120.23 87.9591 119.674 92.4037C118.04 103.841 127.982 113.865 145.636 113.865C163.29 113.865 172.512 103.481 170.497 92.7499C169.109 85.3571 166.87 79.7719 164.932 75.6541Z" fill="white"/>
<path fill-rule="evenodd" clip-rule="evenodd" d="M164.932 75.6541C158.61 77.7594 151.395 78.9037 143.732 78.9037C136.902 78.9037 130.584 78.0979 125.007 76.5181C122.767 81.5331 120.23 87.9591 119.674 92.4037C118.04 103.841 127.982 113.865 145.636 113.865C163.29 113.865 172.512 103.481 170.497 92.7499C169.109 85.3571 166.87 79.7719 164.932 75.6541Z" stroke="#152633" stroke-width="2"/>
<path fill-rule="evenodd" clip-rule="evenodd" d="M170.52 93.6541C171.869 103.084 164.56 112.075 150.5 113.784L150.797 115.117C151.835 120.655 153.912 122.732 157.374 123.77C164.989 126.54 181.604 125.501 179.874 118.924C178.027 109.463 174.91 101.039 170.52 93.6541Z" fill="#2D3B45" stroke="#152633" stroke-width="2"/>
<path fill-rule="evenodd" clip-rule="evenodd" d="M119.523 93.6541L119.472 93.6547C119.125 96.424 112.895 104.732 110.125 118.924C108.395 125.501 125.01 126.539 132.625 123.77C136.087 122.732 138.164 120.655 139.202 115.116L139.485 113.963L139.499 113.644C126.175 111.682 118.73 103.271 119.523 93.6541Z" fill="#2D3B45" stroke="#152633" stroke-width="2"/>
<path fill-rule="evenodd" clip-rule="evenodd" d="M158 85.1541C159 95.4874 158.5 103.821 156.5 110.154C166.167 112.154 175.833 113.154 185.5 113.154L189.5 85.1541H158Z" fill="#436DB9" stroke="#152633" stroke-width="2" stroke-linejoin="round"/>
<path fill-rule="evenodd" clip-rule="evenodd" d="M203.205 92.4682L224.417 117.748C214.558 130.371 200.743 134.131 182.971 129.028L174.562 103.449C185.26 104.48 194.808 100.82 203.205 92.4682Z" fill="white" stroke="#C7CDD1" stroke-width="2"/>
<path fill-rule="evenodd" clip-rule="evenodd" d="M193.611 85.9168L224.996 96.1144C223.324 112.044 213.601 122.554 195.825 127.643L175.139 110.407C184.758 105.613 190.915 97.449 193.611 85.9168Z" fill="white" stroke="#C7CDD1" stroke-width="2"/>
<path fill-rule="evenodd" clip-rule="evenodd" d="M206.5 79.6541C189.167 77.9874 173.667 78.9874 160 82.6541C165.333 92.6541 168 102.987 168 113.654C181.333 118.321 196.167 118.321 212.5 113.654C213.5 103.321 211.5 91.9874 206.5 79.6541Z" fill="#5DB9F2" stroke="#152633" stroke-width="2" stroke-linejoin="round"/>
<path fill-rule="evenodd" clip-rule="evenodd" d="M165.5 76.1541C170.833 70.4874 178 67.9874 187 68.6541C200.5 69.6541 200.5 88.1541 188.5 88.6541C176.5 89.1541 179 81.4874 179 78.1541" fill="#2D3B45"/>
<path d="M165.5 76.1541C170.833 70.4874 178 67.9874 187 68.6541C200.5 69.6541 200.5 88.1541 188.5 88.6541C176.5 89.1541 179 81.4874 179 78.1541" stroke="#152633" stroke-width="2"/>
<path fill-rule="evenodd" clip-rule="evenodd" d="M102 47.9233C102 68.0002 120.148 78.731 145.096 78.731C170.045 78.731 190.269 66.6156 190.269 48.6156C190.269 26.2482 170.045 4.65405 145.096 4.65405C120.148 4.65405 102 26.8079 102 47.9233Z" fill="white"/>
<path fill-rule="evenodd" clip-rule="evenodd" d="M101.522 47.9878C101.522 68.0647 119.67 78.7955 144.619 78.7955C169.567 78.7955 189.792 66.6801 189.792 48.6801C189.792 26.3127 169.567 4.71859 144.619 4.71859C119.67 4.71859 101.522 26.8724 101.522 47.9878Z" stroke="#152633" stroke-width="2"/>
<path fill-rule="evenodd" clip-rule="evenodd" d="M152 59.6541C152 61.311 149.09 62.6541 145.5 62.6541C141.91 62.6541 139 61.311 139 59.6541C139 57.9971 141.91 56.6541 145.5 56.6541C149.09 56.6541 152 57.9971 152 59.6541Z" fill="#152633"/>
<path d="M145.5 72.6541C146.881 72.6541 148 71.3109 148 69.6541C148 67.9972 146.881 66.6541 145.5 66.6541C144.119 66.6541 143 67.9972 143 69.6541C143 71.3109 144.119 72.6541 145.5 72.6541Z" fill="#152633"/>
<path fill-rule="evenodd" clip-rule="evenodd" d="M166.577 19.654C159.011 19.654 152 31.6577 152 43.5771C152 54.224 161.315 64.0387 170.038 64.0387C177.994 64.0387 184.615 54.9152 184.615 43.5771C184.615 38.3355 182.363 32.2515 178.589 27.3481C174.865 22.5097 170.342 19.654 166.577 19.654Z" fill="#2D3B45" stroke="#152633" stroke-width="2"/>
<path fill-rule="evenodd" clip-rule="evenodd" d="M120.577 64.0387C129.301 64.0387 138.615 54.224 138.615 43.5771C138.615 31.6575 131.605 19.654 124.038 19.654C120.274 19.654 115.75 22.5096 112.027 27.3481C108.252 32.2513 106 38.3349 106 43.5771C106 54.9152 112.622 64.0387 120.577 64.0387Z" fill="#2D3B45" stroke="#152633" stroke-width="2"/>
<path fill-rule="evenodd" clip-rule="evenodd" d="M181.68 24.3787C182.939 23.8564 184.287 23.1062 185.638 22.0262C190.83 17.8724 189.792 10.9493 189.445 9.21855C189.099 7.48778 187.022 -0.81991 180.445 2.98778C176.198 5.44686 171.809 9.63601 169.23 12.2969C174.116 15.5507 178.347 19.6873 181.68 24.3787Z" fill="#2D3B45" stroke="#152633" stroke-width="2"/>
<path fill-rule="evenodd" clip-rule="evenodd" d="M108.433 24.3787C107.174 23.8564 105.825 23.1062 104.475 22.0262C99.2823 17.8724 100.321 10.9493 100.667 9.21855C101.013 7.48778 103.09 -0.81991 109.667 2.98778C113.915 5.44686 118.304 9.63601 120.882 12.2969C115.997 15.5507 111.766 19.6873 108.433 24.3787Z" fill="#2D3B45" stroke="#152633" stroke-width="2"/>
<path fill-rule="evenodd" clip-rule="evenodd" d="M164.133 47.4038C164.133 50.0269 162.76 52.1535 161.067 52.1535C159.373 52.1535 158 50.0269 158 47.4038C158 44.7807 159.373 42.6541 161.067 42.6541C162.76 42.6541 164.133 44.7807 164.133 47.4038Z" fill="white"/>
<path fill-rule="evenodd" clip-rule="evenodd" d="M132.133 47.4038C132.133 50.0269 130.76 52.1535 129.067 52.1535C127.373 52.1535 126 50.0269 126 47.4038C126 44.7807 127.373 42.6541 129.067 42.6541C130.76 42.6541 132.133 44.7807 132.133 47.4038Z" fill="white"/>
<path fill-rule="evenodd" clip-rule="evenodd" d="M158 85.1541L160 82.6541L161.5 86.1541L158.5 88.1541L158 85.1541Z" fill="#152633" stroke="#152633" stroke-width="2" stroke-linejoin="round"/>
<path fill-rule="evenodd" clip-rule="evenodd" d="M185 161.154L175 148.154L212.5 147.654L237 159.154L185 161.154Z" fill="white" stroke="#C7CDD1" stroke-width="2"/>
<path fill-rule="evenodd" clip-rule="evenodd" d="M277.5 30.9598L298.5 35.9598C283.712 54.8956 270.5 48.9598 269 45.2544C257.333 49.5208 245.667 49.5208 234 45.2544C254.603 44.0761 269.103 39.3113 277.5 30.9598Z" fill="white" stroke="#C7CDD1" stroke-width="2"/>
<path fill-rule="evenodd" clip-rule="evenodd" d="M68.212 50.6541C76.6091 59.0055 96.1568 62.6656 106.855 61.6344C91 84.6541 56.8587 78.5573 47 65.9335L68.212 50.6541Z" fill="white" stroke="#C7CDD1" stroke-width="2"/>
<path d="M70 76.6541C76 74.9874 80 72.6541 82 69.6541C86 71.6541 94 72.6541 98.5 70.1541" stroke="#C7CDD1" stroke-width="2"/>
<path d="M235 45.6541C253 52.2612 268.833 53.1843 282.5 48.4234" stroke="#C7CDD1" stroke-width="2"/>
<path fill-rule="evenodd" clip-rule="evenodd" d="M5 144.654L36 132.654L69.5 137.154L55 151.654L5 144.654Z" fill="white" stroke="#C7CDD1" stroke-width="2"/>
<path fill-rule="evenodd" clip-rule="evenodd" d="M34 143.654L59 130.654L98.5 135.154L84 149.654L34 143.654Z" fill="white" stroke="#C7CDD1" stroke-width="2"/>
</svg>
