<svg viewBox="0 0 122 158" fill="none" xmlns="http://www.w3.org/2000/svg">
<path d="M59 155.782C90.4802 155.782 116 151.753 116 146.782C116 141.811 90.4802 137.782 59 137.782C27.5198 137.782 2 141.811 2 146.782C2 151.753 27.5198 155.782 59 155.782Z" fill="black" fill-opacity="0.05"/>
<path fill-rule="evenodd" clip-rule="evenodd" d="M34.2365 85.907C35.3028 85.898 36.3808 85.8623 37.4667 85.8039C38.6871 90.6211 40.8807 101.549 38.5415 110.788C35.4399 123.041 23.0582 118.743 20.2778 112.771C17.684 107.201 22.9379 97.7437 34.2365 85.907Z" fill="#2D3B45" stroke="#152633" stroke-width="2"/>
<path fill-rule="evenodd" clip-rule="evenodd" d="M80.3388 92.9898C73.1956 95.3685 65.0433 96.6615 56.3857 96.6615C48.6688 96.6615 45.4774 93.08 39.1754 91.295C32.9611 96.6615 29.8314 106.893 29.2036 111.915C27.3572 124.837 38.5903 136.163 58.5368 136.163C78.4834 136.163 88.9037 124.43 86.627 112.306C85.0579 103.953 82.5286 97.6424 80.3388 92.9898Z" fill="white" stroke="#152633" stroke-width="2"/>
<path fill-rule="evenodd" clip-rule="evenodd" d="M86.6526 113.327C88.1772 123.982 79.9189 134.14 64.0325 136.072L64.3677 137.577C65.541 143.835 67.8876 146.182 71.7987 147.355C80.4031 150.484 99.1763 149.311 97.2208 141.88C95.1349 131.189 91.6122 121.672 86.6526 113.327Z" fill="#2D3B45"/>
<path fill-rule="evenodd" clip-rule="evenodd" d="M97.2208 141.88C94.0919 125.844 87.1796 116.275 86.7885 113.146C88.313 123.801 79.9189 134.14 64.0325 136.072L64.3677 137.577C65.541 143.835 67.8876 146.182 71.7987 147.355C80.4031 150.484 99.1763 149.311 97.2208 141.88Z" stroke="#152633" stroke-width="2"/>
<path fill-rule="evenodd" clip-rule="evenodd" d="M29.0319 113.327L28.9744 113.328C28.5833 116.457 21.5434 125.844 18.4145 141.879C16.459 149.31 35.2322 150.484 43.8366 147.355C47.7477 146.181 50.0943 143.835 51.2676 137.577L51.5864 136.273L51.6028 135.914C36.5479 133.696 28.1367 124.193 29.0319 113.327Z" fill="#2D3B45"/>
<path fill-rule="evenodd" clip-rule="evenodd" d="M103.319 127.887C98.8339 131.267 93.3713 131.583 91.1181 128.593C88.8649 125.602 90.6742 120.439 95.1595 117.059C99.6447 113.679 105.107 113.363 107.36 116.353C109.614 119.343 107.804 124.507 103.319 127.887Z" stroke="#152633" stroke-width="2"/>
<path fill-rule="evenodd" clip-rule="evenodd" d="M62.1594 113.631L92.4204 104.975L100.313 97.6132C103.329 99.1128 105.744 101.066 107.557 103.472C109.371 105.878 110.582 108.738 111.192 112.051L101.94 117.608L85.2785 144.311C80.0609 141.142 75.3054 136.709 71.0119 131.011C66.7184 125.313 63.7676 119.52 62.1594 113.631Z" fill="#FFC100" stroke="#152633" stroke-width="2" stroke-linecap="round" stroke-linejoin="round"/>
<path fill-rule="evenodd" clip-rule="evenodd" d="M85.2784 144.311C81.5407 147.128 73.3354 142.543 66.9512 134.071C60.5671 125.599 58.4217 116.448 62.1593 113.631C65.897 110.814 74.1024 115.399 80.4865 123.871C86.8707 132.343 89.0161 141.495 85.2784 144.311Z" fill="#FFC100" stroke="#152633" stroke-width="2"/>
<path fill-rule="evenodd" clip-rule="evenodd" d="M67.9675 113.587C68.3015 112.863 85.4999 122.782 87.1717 139.79C83.1305 140.061 77.3364 136.442 72.81 130.436C68.0934 124.177 66.2488 117.309 67.9675 113.587Z" fill="#FF9900"/>
<path fill-rule="evenodd" clip-rule="evenodd" d="M85.2784 144.311C81.5407 147.128 73.3354 142.543 66.9512 134.071C60.5671 125.599 58.4217 116.448 62.1593 113.631C65.897 110.814 74.1024 115.399 80.4865 123.871C86.8707 132.343 89.0161 141.495 85.2784 144.311Z" stroke="#152633" stroke-width="2"/>
<path fill-rule="evenodd" clip-rule="evenodd" d="M85.5278 90.907C96.8264 102.744 102.08 112.201 99.4865 117.771C96.7062 123.743 84.3244 128.041 81.2228 115.788C78.8836 106.549 81.0772 95.6211 82.2976 90.8039C83.3835 90.8623 84.4615 90.898 85.5278 90.907Z" fill="#2D3B45" stroke="#152633" stroke-width="2"/>
<path fill-rule="evenodd" clip-rule="evenodd" d="M29.0319 113.327C28.5833 116.457 21.5434 125.844 18.4145 141.879C16.459 149.31 35.2322 150.484 43.8366 147.355C47.7477 146.181 50.0943 143.835 51.2676 137.577L51.5864 136.273L51.6028 135.914C36.5479 133.696 28.1367 124.193 29.0319 113.327Z" stroke="#152633" stroke-width="2"/>
<path fill-rule="evenodd" clip-rule="evenodd" d="M11.415 53.326C15.8943 29.1465 41.3754 7.62752 69.9442 12.9202C98.5133 18.2129 117.604 49.0317 110.476 72.1639C103.875 93.5874 82.7982 103.04 54.2296 97.747C25.6605 92.4543 7.15536 76.3167 11.415 53.326Z" fill="white" stroke="#152633" stroke-width="2"/>
<path fill-rule="evenodd" clip-rule="evenodd" d="M46.172 87.7116C44.3792 87.059 43.3215 85.4427 43.8097 84.1015C44.2979 82.7602 46.147 82.2019 47.9398 82.8544C49.7327 83.507 50.7903 85.1233 50.3021 86.4645C49.814 87.8058 47.9648 88.3641 46.172 87.7116Z" fill="#152633"/>
<path fill-rule="evenodd" clip-rule="evenodd" d="M54.4657 75.4466C54.0804 77.5259 50.3074 78.5709 46.0383 77.7801C41.7696 76.9895 38.6215 74.6625 39.0065 72.5826C39.392 70.5025 43.1649 69.4579 47.434 70.2487C51.7025 71.0398 54.8511 73.3669 54.4657 75.4466Z" fill="#152633"/>
<path fill-rule="evenodd" clip-rule="evenodd" d="M78.9521 84.9103L78.9522 84.9103C88.1643 86.6173 97.757 77.5042 100.177 64.4406C101.296 58.4001 100.001 50.9193 96.7035 44.4725C93.444 38.1002 88.833 33.8361 84.4639 33.027C75.6873 31.401 65.0474 43.7345 62.5048 57.4611C60.23 69.7408 68.8709 83.0429 78.9521 84.9103Z" fill="#2D3B45" stroke="#152633" stroke-width="2"/>
<path fill-rule="evenodd" clip-rule="evenodd" d="M71.0376 56.4479C73.3628 56.2066 75.5554 58.973 75.9349 62.6271C76.314 66.2811 74.7365 69.4385 72.4112 69.6801C70.086 69.9214 67.8933 67.1554 67.5143 63.501C67.135 59.8475 68.7125 56.6891 71.0376 56.4479Z" fill="white"/>
<path fill-rule="evenodd" clip-rule="evenodd" d="M37.4472 63.6067C41.0717 59.8642 43.952 54.8617 45.4422 50.0877C48.9125 38.9754 49.6241 29.9869 46.7779 25.5549C45.8217 24.066 44.4162 23.1476 42.5446 22.8007C33.9117 21.2016 19.5968 34.5681 17.3684 46.596C15.9551 54.2249 16.976 59.2706 20.5805 64.3657C22.0585 66.4557 24.6425 68.0952 26.8282 68.5002C26.8768 68.5092 26.9282 68.5179 26.9876 68.5269C30.0426 69.0089 33.7647 67.4087 37.4472 63.6067Z" fill="#2D3B45" stroke="#152633" stroke-width="2"/>
<path fill-rule="evenodd" clip-rule="evenodd" d="M31.01 53.5722C32.3729 50.8882 34.8631 49.4149 36.5712 50.2823C38.2789 51.1496 38.5592 54.0287 37.1962 56.7131C35.8332 59.3974 33.3439 60.8706 31.6354 60.0031C29.9272 59.136 29.6474 56.2567 31.01 53.5722Z" fill="white"/>
<path fill-rule="evenodd" clip-rule="evenodd" d="M108.214 43.2959C105.392 37.2167 101.424 31.5817 96.5205 26.8194C100.037 24.3195 105.952 20.4534 111.338 18.5388C119.677 15.5736 120.293 25.5277 120.322 27.5832C120.351 29.6385 120.072 37.7868 113.245 41.4416C111.47 42.3919 109.766 42.9647 108.214 43.2959Z" fill="#2D3B45" stroke="#152633" stroke-width="2"/>
<path fill-rule="evenodd" clip-rule="evenodd" d="M27.52 21.5132C23.1444 16.4521 25.4405 9.79329 26.1004 8.14437C26.7602 6.49582 30.3376 -1.34259 36.1461 3.62957C39.8528 6.80253 43.3836 11.668 45.4576 14.7789C39.6713 16.7785 34.3355 19.8158 29.6725 23.5982C28.9491 23.0146 28.223 22.3262 27.52 21.5132Z" fill="#2D3B45" stroke="#152633" stroke-width="2"/>
</svg>
