<svg viewBox="0 0 144 128" fill="none" xmlns="http://www.w3.org/2000/svg">
<path fill-rule="evenodd" clip-rule="evenodd" d="M80.9632 99.3125H140.373C140.925 99.3125 141.373 99.7602 141.373 100.312C141.373 100.704 141.144 101.06 140.788 101.222L118.839 111.236C118.187 111.534 117.48 111.688 116.763 111.688H60.2144C59.6621 111.688 59.2144 111.24 59.2144 110.688C59.2144 110.309 59.4284 109.962 59.7671 109.793L80.516 99.4181C80.6549 99.3486 80.808 99.3125 80.9632 99.3125Z" fill="black" fill-opacity="0.05"/>
<path d="M52.0488 126.875C66.6844 126.875 78.5488 123.979 78.5488 120.406C78.5488 116.834 66.6844 113.938 52.0488 113.938C37.4133 113.938 25.5488 116.834 25.5488 120.406C25.5488 123.979 37.4133 126.875 52.0488 126.875Z" fill="black" fill-opacity="0.05"/>
<path fill-rule="evenodd" clip-rule="evenodd" d="M74.1113 7.0625H116.299V106.625H74.1113V7.0625Z" fill="#EBEDEE" stroke="#152633" stroke-width="1.5" stroke-linejoin="round"/>
<path fill-rule="evenodd" clip-rule="evenodd" d="M79.1738 12.125H111.236V30.6875H79.1738V12.125Z" fill="#EBEDEE" stroke="#152633" stroke-width="1.5" stroke-linejoin="round"/>
<path fill-rule="evenodd" clip-rule="evenodd" d="M91.2676 20.5625H99.1426C99.6086 20.5625 99.9863 20.9403 99.9863 21.4062C99.9863 21.8722 99.6086 22.25 99.1426 22.25H91.2676C90.8016 22.25 90.4238 21.8722 90.4238 21.4062C90.4238 20.9403 90.8016 20.5625 91.2676 20.5625Z" fill="#152633"/>
<path fill-rule="evenodd" clip-rule="evenodd" d="M79.1738 35.75H111.236V54.3125H79.1738V35.75Z" fill="#73818C" stroke="#152633" stroke-width="1.5" stroke-linejoin="round"/>
<path fill-rule="evenodd" clip-rule="evenodd" d="M79.1738 59.375H111.236V77.9375H79.1738V59.375Z" fill="#EBEDEE" stroke="#152633" stroke-width="1.5" stroke-linejoin="round"/>
<path fill-rule="evenodd" clip-rule="evenodd" d="M91.2676 67.8125H99.1426C99.6086 67.8125 99.9863 68.1903 99.9863 68.6562C99.9863 69.1222 99.6086 69.5 99.1426 69.5H91.2676C90.8016 69.5 90.4238 69.1222 90.4238 68.6562C90.4238 68.1903 90.8016 67.8125 91.2676 67.8125Z" fill="#152633"/>
<path fill-rule="evenodd" clip-rule="evenodd" d="M79.1738 83H111.236V101.562H79.1738V83Z" fill="#EBEDEE" stroke="#152633" stroke-width="1.5" stroke-linejoin="round"/>
<path fill-rule="evenodd" clip-rule="evenodd" d="M91.2676 91.4375H99.1426C99.6086 91.4375 99.9863 91.8153 99.9863 92.2812C99.9863 92.7472 99.6086 93.125 99.1426 93.125H91.2676C90.8016 93.125 90.4238 92.7472 90.4238 92.2812C90.4238 91.8153 90.8016 91.4375 91.2676 91.4375Z" fill="#152633"/>
<path fill-rule="evenodd" clip-rule="evenodd" d="M62.2988 42.5L79.1738 35.75V54.3125L62.2988 61.0625V42.5Z" fill="#73818C" stroke="#152633" stroke-width="2" stroke-linejoin="round"/>
<path fill-rule="evenodd" clip-rule="evenodd" d="M94.3613 42.5L111.236 35.75V54.3125L94.3613 61.0625V42.5Z" fill="#C7CDD1" stroke="#152633" stroke-width="1.5" stroke-linejoin="round"/>
<path fill-rule="evenodd" clip-rule="evenodd" d="M62.2988 42.5H94.3613V61.0625H62.2988V42.5Z" fill="#EBEDEE" stroke="#152633" stroke-width="1.5" stroke-linejoin="round"/>
<path fill-rule="evenodd" clip-rule="evenodd" d="M74.3926 50.9375H82.2676C82.7336 50.9375 83.1113 51.3153 83.1113 51.7812C83.1113 52.2472 82.7336 52.625 82.2676 52.625H74.3926C73.9266 52.625 73.5488 52.2472 73.5488 51.7812C73.5488 51.3153 73.9266 50.9375 74.3926 50.9375Z" fill="#152633"/>
<path fill-rule="evenodd" clip-rule="evenodd" d="M116.299 7.04885L128.955 2V101.576L116.299 106.625V7.04885Z" fill="#C7CDD1" stroke="#152633" stroke-width="1.5" stroke-linejoin="round"/>
<path fill-rule="evenodd" clip-rule="evenodd" d="M86.7676 2.42188L128.955 2L116.299 7.0625H74.1113L86.7676 2.42188Z" fill="#EBEDEE" stroke="#152633" stroke-width="1.5" stroke-linecap="round" stroke-linejoin="round"/>
<path fill-rule="evenodd" clip-rule="evenodd" d="M56.257 106.643C56.876 106.589 57.4216 107.047 57.4758 107.666L58.1131 114.951C58.1672 115.57 57.7094 116.115 57.0904 116.169C56.4715 116.224 55.9258 115.766 55.8717 115.147L55.2343 107.862C55.1802 107.243 55.638 106.697 56.257 106.643Z" fill="#C4144B" stroke="#152633" stroke-width="1.5"/>
<path fill-rule="evenodd" clip-rule="evenodd" d="M49.5095 107.781C50.1285 107.835 50.5864 108.381 50.5322 109L49.3066 123.009C49.2524 123.628 48.7068 124.086 48.0878 124.032C47.4689 123.977 47.011 123.432 47.0651 122.813L48.2908 108.804C48.3449 108.185 48.8906 107.727 49.5095 107.781Z" fill="#EF3E60" stroke="#152633"/>
<path fill-rule="evenodd" clip-rule="evenodd" d="M50.5185 109.156L49.8564 116.725C49.0916 116.703 48.3409 116.667 47.6072 116.617L48.2599 109.156H50.5185Z" fill="#C4144B"/>
<path fill-rule="evenodd" clip-rule="evenodd" d="M49.5095 107.781C50.1285 107.835 50.5864 108.381 50.5322 109L49.3066 123.009C49.2524 123.628 48.7068 124.086 48.0878 124.032C47.4689 123.977 47.011 123.432 47.0651 122.813L48.2908 108.804C48.3449 108.185 48.8906 107.727 49.5095 107.781Z" stroke="#152633" stroke-width="1.5"/>
<path fill-rule="evenodd" clip-rule="evenodd" d="M39.7758 102.617C40.3596 102.829 40.6607 103.475 40.4482 104.059L35.6385 117.273C35.426 117.857 34.7804 118.158 34.1966 117.946C33.6127 117.733 33.3117 117.088 33.5242 116.504L38.3339 103.289C38.5464 102.705 39.1919 102.404 39.7758 102.617Z" fill="#EF3E60" stroke="#152633"/>
<path fill-rule="evenodd" clip-rule="evenodd" d="M39.207 107.469L37.2197 112.929C36.4253 112.615 35.7442 112.275 35.1948 111.914L36.8126 107.469H39.207Z" fill="#C4144B"/>
<path fill-rule="evenodd" clip-rule="evenodd" d="M39.7758 102.617C40.3596 102.829 40.6607 103.475 40.4482 104.059L35.6385 117.273C35.426 117.857 34.7804 118.158 34.1966 117.946C33.6127 117.733 33.3117 117.088 33.5242 116.504L38.3339 103.289C38.5464 102.705 39.1919 102.404 39.7758 102.617Z" stroke="#152633" stroke-width="1.5"/>
<path fill-rule="evenodd" clip-rule="evenodd" d="M64.0091 104.867C64.5929 104.654 65.2385 104.955 65.451 105.539L70.2607 118.754C70.4732 119.338 70.1721 119.983 69.5883 120.196C69.0044 120.408 68.3589 120.107 68.1464 119.523L63.3367 106.309C63.1242 105.725 63.4252 105.079 64.0091 104.867Z" fill="#EF3E60" stroke="#152633"/>
<path fill-rule="evenodd" clip-rule="evenodd" d="M66.358 108.031L67.9858 112.503C67.4332 112.862 66.7512 113.199 65.9574 113.509L63.9636 108.031H66.358Z" fill="#C4144B"/>
<path fill-rule="evenodd" clip-rule="evenodd" d="M64.0091 104.867C64.5929 104.654 65.2385 104.955 65.451 105.539L70.2607 118.754C70.4732 119.338 70.1721 119.983 69.5883 120.196C69.0044 120.408 68.3589 120.107 68.1464 119.523L63.3367 106.309C63.1242 105.725 63.4252 105.079 64.0091 104.867Z" stroke="#152633" stroke-width="1.5"/>
<path fill-rule="evenodd" clip-rule="evenodd" d="M33.6113 103.531V105.781C33.6113 108.733 41.6702 111.125 51.6113 111.125C61.5525 111.125 69.6113 108.733 69.6113 105.781V103.531" fill="#C4144B"/>
<path d="M33.6113 103.531V105.781C33.6113 108.733 41.6702 111.125 51.6113 111.125C61.5525 111.125 69.6113 108.733 69.6113 105.781V103.531" stroke="#152633" stroke-width="1.5" stroke-linecap="round" stroke-linejoin="round"/>
<path d="M51.6113 108.875C61.5525 108.875 69.6113 106.483 69.6113 103.531C69.6113 100.58 61.5525 98.1875 51.6113 98.1875C41.6702 98.1875 33.6113 100.58 33.6113 103.531C33.6113 106.483 41.6702 108.875 51.6113 108.875Z" fill="#EF3E60" stroke="#152633" stroke-width="1.5"/>
<path d="M51.9551 105.062C55.8728 105.062 59.0488 104.307 59.0488 103.375C59.0488 102.443 55.8728 101.688 51.9551 101.688C48.0373 101.688 44.8613 102.443 44.8613 103.375C44.8613 104.307 48.0373 105.062 51.9551 105.062Z" fill="black" fill-opacity="0.05"/>
<path fill-rule="evenodd" clip-rule="evenodd" d="M23.4315 74.125C18.1625 80.2897 14.493 83.9325 12.4231 85.0533C9.31816 86.7346 11.8586 94.5805 18.6329 95.4212C23.1492 95.9816 29.8295 93.5531 38.6738 88.1357L23.4315 74.125Z" fill="#2D3B45" stroke="#152633" stroke-width="1.5"/>
<path fill-rule="evenodd" clip-rule="evenodd" d="M28.7903 60.0529C25.3357 61.9064 17.3897 65.6712 9.87053 65.644C-0.100526 65.6082 0.826284 55.3101 4.86722 52.042C8.63599 48.9934 16.8778 51.2102 28.0948 57.5999C28.3053 58.4144 28.5383 59.2328 28.7903 60.0529Z" fill="#2D3B45" stroke="#152633" stroke-width="1.5"/>
<path fill-rule="evenodd" clip-rule="evenodd" d="M66.6582 37.0128L78.9455 28.4092C79.4611 28.0481 80.1167 27.9509 80.715 28.1468L81.4871 28.3996C82.0854 28.5955 82.741 28.4983 83.2566 28.1372L89.5539 23.7278C90.4587 23.0943 91.7058 23.3142 92.3393 24.219L102.305 38.4518C102.939 39.3566 102.719 40.6037 101.814 41.2372L80.2089 56.3653C79.3041 56.9988 78.057 56.7789 77.4235 55.8741L66.167 39.7983C65.5335 38.8935 65.7534 37.6464 66.6582 37.0128Z" fill="#FFD469"/>
<path fill-rule="evenodd" clip-rule="evenodd" d="M87.4179 25.2236L89.554 23.7278C90.4588 23.0943 91.7059 23.3142 92.3395 24.219L102.305 38.4518C102.939 39.3566 102.719 40.6037 101.814 41.2372L80.2091 56.3653C79.3043 56.9988 78.0572 56.7789 77.4236 55.8741L76.7202 54.8696L96.1892 41.2372C97.094 40.6037 97.3139 39.3566 96.6804 38.4518L87.4179 25.2236Z" fill="#FFC44E"/>
<path fill-rule="evenodd" clip-rule="evenodd" d="M66.6582 37.0128L78.9455 28.4092C79.4611 28.0481 80.1167 27.9509 80.715 28.1468L81.4871 28.3996C82.0854 28.5955 82.741 28.4983 83.2566 28.1372L89.5539 23.7278C90.4587 23.0943 91.7058 23.3142 92.3393 24.219L102.305 38.4518C102.939 39.3566 102.719 40.6037 101.814 41.2372L80.2089 56.3653C79.3041 56.9988 78.057 56.7789 77.4235 55.8741L66.167 39.7983C65.5335 38.8935 65.7534 37.6464 66.6582 37.0128Z" stroke="#152633" stroke-width="1.5" stroke-linejoin="round"/>
<path fill-rule="evenodd" clip-rule="evenodd" d="M61.5435 60.5495C64.3007 47.9381 68.1681 40.3299 72.9554 39.5691C78.088 38.7529 86.3612 44.9549 79.7158 52.3888C74.7047 57.9948 66.59 61.3807 62.9011 62.7077C62.4602 61.9717 62.0079 61.2509 61.5435 60.5495Z" fill="#2D3B45" stroke="#152633" stroke-width="1.5"/>
<path fill-rule="evenodd" clip-rule="evenodd" d="M54.4238 102.812C69.3301 86.5 66.3656 74.0764 66.0735 71.7399C67.212 79.6961 55.0373 87.3075 43.1738 88.75C43.3613 92.6875 43.7363 95.5 44.2988 97.1875C45.1426 99.7188 48.2363 104.5 54.4238 102.812Z" fill="#2D3B45" stroke="#152633" stroke-width="1.5"/>
<path fill-rule="evenodd" clip-rule="evenodd" d="M61.8195 56.6875C56.4852 58.4639 50.3974 59.4294 43.9322 59.4294C38.1694 59.4294 32.8386 58.7495 28.1325 57.4165C26.2428 61.648 24.1023 67.0699 23.6335 70.8201C22.2546 80.4702 30.6431 88.9282 45.5385 88.9282C60.434 88.9282 68.2155 80.1662 66.5154 71.1121C65.3436 64.8744 63.4548 60.1619 61.8195 56.6875Z" fill="white" stroke="#152633" stroke-width="1.5"/>
<path fill-rule="evenodd" clip-rule="evenodd" d="M38.5429 76.2671C38.7935 75.5911 39.4442 75.1094 40.2074 75.1094C40.9706 75.1094 41.6213 75.5911 41.8719 76.2671C42.552 76.0432 43.3292 76.2468 43.8066 76.8363C44.2898 77.4331 44.3224 78.2482 43.9475 78.8699C44.5522 79.2655 44.8769 80.0094 44.7049 80.7546C44.5336 81.4967 43.9199 82.0217 43.2068 82.1154C43.2739 82.8299 42.9005 83.5437 42.2174 83.8769C41.5286 84.2128 40.7289 84.0624 40.2074 83.5598C39.6859 84.0624 38.8862 84.2128 38.1974 83.8769C37.5143 83.5437 37.1409 82.8299 37.2081 82.1154C36.4949 82.0217 35.8813 81.4967 35.7099 80.7546C35.5379 80.0094 35.8626 79.2655 36.4673 78.8699C36.0924 78.2482 36.125 77.4331 36.6082 76.8363C37.0856 76.2468 37.8628 76.0432 38.5429 76.2671Z" fill="#2D3B45" stroke="#152633" stroke-width="1.5"/>
<path fill-rule="evenodd" clip-rule="evenodd" d="M14.6512 29.5561C13.6165 29.5102 12.458 29.3251 11.2127 28.9048C6.42426 27.2877 6.19552 23.118 5.99282 21.7918C5.79012 20.4656 5.76242 13.3068 11.4499 14.3167C15.123 14.9689 17.8692 16.4599 20.4024 17.6902C17.7592 21.2842 15.8126 25.3387 14.6512 29.5561Z" fill="#2D3B45" stroke="#152633" stroke-width="1.5"/>
<path fill-rule="evenodd" clip-rule="evenodd" d="M12.5364 36.0986C12.5364 51.8951 26.1139 60.3381 44.7793 60.3381C63.4447 60.3381 78.576 50.8057 78.576 36.6433C78.576 19.0447 63.4447 2.05444 44.7793 2.05444C26.1139 2.05444 12.5364 19.4851 12.5364 36.0986Z" fill="white" stroke="#152633" stroke-width="1.5"/>
<path fill-rule="evenodd" clip-rule="evenodd" d="M69.7068 30.6868C70.9482 30.1717 72.2781 29.4321 73.6096 28.3671C78.7295 24.2712 77.7055 17.4446 77.3642 15.7379C77.0229 14.0313 74.9749 5.83939 68.4896 9.59401C64.3012 12.0188 61.8879 14.9856 59.3457 17.6094C63.5645 21.1953 68.4897 27.3125 69.7068 30.6868Z" fill="#2D3B45" stroke="#152633" stroke-width="1.5"/>
</svg>
