<svg xmlns="http://www.w3.org/2000/svg" viewBox="0 0 128 172">
  <style type="text/css">

	.PandaMapSVG--st0{fill:#f2f2f2;}
	.PandaMapSVG--st2{fill:none;stroke:#000000;stroke-width:4;}
	.PandaMapSVG--st3{fill:#2D3B45;stroke:#152633;stroke-width:2;}
	.PandaMapSVG--st4{fill:#2D3B45;}
	.PandaMapSVG--st5{fill:#152633;}
	.PandaMapSVG--st6{fill:#FFFFFF;stroke:#152633;stroke-width:2;}
	.PandaMapSVG--st7{fill:#152633;}
	.PandaMapSVG--st8{fill:#FFFFFF;}
	.PandaMapSVG--st9{fill:#F0DBCE;stroke:#152633;stroke-width:2;stroke-linejoin:round;}
	.PandaMapSVG--st10{fill:#94BC3C;}
	.PandaMapSVG--st11{fill:#5B354E;}
	.PandaMapSVG--st12{fill:#94BC3C;}
	.PandaMapSVG--st13{fill:#D4AF9C;stroke:#152633;stroke-width:2;stroke-linejoin:round;}
	.PandaMapSVG--st14{fill:#6F9028;}
	.PandaMapSVG--st15{fill:#6F9128;}
	.PandaMapSVG--st16{fill:#6F9028;}

  </style>
	<path class="PandaMapSVG--st3" d="M22.2 94.4c-6.9 15.6 3.6 31.9 13.6 33.6 10 1.7 18.2-5.3 15.6-14.4 -2.6-9.1-12.6-10.8-14.3-11.9 -1.7-1.1-3.4-5-5.5-8.5C29.3 89.2 24.7 88.7 22.2 94.4z"/>
  <path class="PandaMapSVG--st8" d="M62.2,6.4C32.7,6.4,6.7,31.6,6.7,60.5c0,10.4,5.7,19.8,16.1,26.5C33,93.6,47,97.1,62.2,97.1  c32.6,0,52.9-14.4,52.9-37.6C115.1,34.4,93.4,6.4,62.2,6.4z"/>
  <path class="PandaMapSVG--st0" d="M64 172c-35.3 0-64-5.4-64-12s28.7-12 64-12 64 5.4 64 12S99.3 172 64 172z"/>
  <path class="st1" d="M80.2 97.2c-0.2 0-0.4 0.1-0.6 0.1C79.8 97.3 80 97.2 80.2 97.2z"/>
  <path class="PandaMapSVG--st3" d="M62.6 144.3c3.2 1.1 4.7 4.5 4.7 10.3 0 8.3 28 8.3 29.6 1.2 1.6-7.1-2.8-22.5-9.5-27.6C83 124.7 74.7 130.1 62.6 144.3z"/>
  <path class="PandaMapSVG--st3" d="M26.5 123.9c0.4-1.2 1.6-2.1 3-2.1s2.5 0.9 3 2.1c1.2-0.4 2.6 0 3.4 1 0.9 1.1 0.9 2.5 0.3 3.6 1.1 0.7 1.7 2 1.3 3.4 -0.3 1.3-1.4 2.3-2.7 2.4 0.1 1.3-0.5 2.5-1.8 3.1 -1.2 0.6-2.7 0.3-3.6-0.6 -0.9 0.9-2.4 1.2-3.6 0.6 -1.2-0.6-1.9-1.9-1.8-3.1 -1.3-0.2-2.4-1.1-2.7-2.4 -0.3-1.3 0.3-2.7 1.3-3.4 -0.7-1.1-0.6-2.6 0.3-3.6C23.9 123.8 25.3 123.5 26.5 123.9z"/>
    <path class="PandaMapSVG--st4" d="M38.4 118.2c-8.6 6.7-8.2 17.9-7.1 24.6 0.6 3.9-0.4 7.4 0 12.7 1.7 4.7 25.3 8.9 33.1 2.2 1.9-7.8-2.2-10.6 0-17.6C51.5 131.1 47.7 139.8 38.4 118.2z"/>
  <path class="PandaMapSVG--st5" d="M51 162.2c-4.2 0-8.5-0.6-12.2-1.6 -2.7-0.7-7.5-2.3-8.4-4.8l-0.1-0.3c-0.2-2.6-0.1-4.8 0.1-6.8 0.1-2.1 0.3-3.9-0.1-5.8 -1.3-8-1.1-18.8 7.4-25.5l1-0.8 0.5 1.2c5.9 13.8 9.4 14.8 14.7 16.4 2.8 0.8 6.4 1.9 11 5l0.6 0.4 -0.2 0.7c-1.1 3.3-0.6 5.6-0.1 8.2 0.5 2.5 1.1 5.3 0.1 9.4l-0.1 0.3 -0.2 0.2C62.1 161.1 56.7 162.2 51 162.2zM32.3 155.2c0.5 0.9 2.7 2.3 6.9 3.4 8.3 2.2 19.6 2.2 24.3-1.5 0.8-3.5 0.3-5.9-0.2-8.2 -0.5-2.4-1-5-0.1-8.4 -4-2.7-7.1-3.6-9.8-4.4 -5.5-1.6-9.5-2.8-15.5-16.3 -6.8 6.1-6.9 15.7-5.7 22.8 0.4 2.1 0.2 4.1 0.1 6.3C32.3 150.8 32.2 152.8 32.3 155.2z"/>
  <path class="PandaMapSVG--st3" d="M71.3 93.2c-6.9 15.6 3.6 31.9 13.6 33.6 10 1.6 18.2-5.3 15.6-14.4 -2.6-9.1-12.6-10.8-14.3-11.9 -1.7-1.1-3.4-5-5.5-8.5C78.4 88.1 73.8 87.5 71.3 93.2z"/>
  <path class="PandaMapSVG--st6" d="M48.3 96.5c-4.8-0.8-9.3-1.9-13.6-3.3 -11 23.5-3.1 50.4 26.5 46.6 34-4.3 27.1-29 19.7-43.5C71.3 98.4 60.3 98.5 48.3 96.5z"/>
  <path class="PandaMapSVG--st3" d="M91.2 112.2c0-2.9-0.4-5.8-1.1-8.5 -0.1 0-0.2 0-0.2 0.1 5-1.7 9.4-3.9 13.2-6.6 8.7 2.6 16.3 9.6 16.3 9.6l-9.8 12.3c0 0-7.4-3.5-18.8-1.3C91 115.9 91.2 114.1 91.2 112.2z"/>
  <path class="PandaMapSVG--st5" d="M62.2 99.2c-33.3 0-57.5-16.3-57.5-38.8 0-29.9 26.9-56.1 57.5-56.1 32.3 0 54.9 29.1 54.9 55.2C117.1 84 96.1 99.2 62.2 99.2zM62.2 6.4C32.7 6.4 6.7 31.7 6.7 60.5c0 10.4 5.7 19.8 16.1 26.5C33 93.6 47 97.2 62.2 97.2c32.6 0 52.9-14.4 52.9-37.6C115.1 34.4 93.4 6.4 62.2 6.4z"/>
  <path class="PandaMapSVG--st5" d="M68 87.3c-1.7 0-3.1-0.1-4.3-0.3 0 0-0.1 0-0.2-0.1 -0.2 0-0.4-0.1-0.5-0.1 -2.6-0.7-3.7-2.1-4.4-3.9l-0.1-0.4c-0.4-1.3-0.7-2-1.3-2 -0.5 0-0.8 0.5-0.8 0.6 -0.7 1.3-0.9 4.1-0.6 6.5 0 1 0.2 2.5 0.5 3.5 0.2 0.6 0.5 1 1 1.2 0.3 0.2 0.6 0.3 0.9 0.3 0.8 0 1.7-0.6 2.1-0.9 0.4-0.3 0.9-0.7 1.2-1 0.8-0.7 1.5-1.5 2.2-2.3H68c0.3 0 0.5-0.2 0.5-0.5S68.3 87.3 68 87.3z"/>
  <path class="PandaMapSVG--st7" d="M66.9 74.2c0 2.4 3.7 4.4 8.2 4.4s8.2-2 8.2-4.4 -3.7-4.4-8.2-4.4S66.9 71.8 66.9 74.2z"/>
  <path class="PandaMapSVG--st4" d="M42.9 23.8c9.7 0 18.7 15.1 18.7 30.1 0 13.4-11.9 25.8-23 25.8 -10.2 0-18.7-11.5-18.7-25.8 0-6.6 2.9-14.2 7.7-20.4C32.3 27.5 38 23.8 42.9 23.8z"/>
  <path class="PandaMapSVG--st5" d="M38.5 80.7c-10.8 0-19.7-12-19.7-26.8 0-6.8 2.9-14.7 7.9-21 4.9-6.3 11-10.1 16.2-10.1C53 22.8 62.5 38 62.5 54 62.5 67.5 50.6 80.7 38.5 80.7zM42.9 24.8c-4.6 0-10 3.5-14.6 9.3 -4.7 6-7.4 13.4-7.4 19.8 0 13.7 7.9 24.8 17.7 24.8 11.1 0 22-12.3 22-24.8C60.5 39.3 51.8 24.8 42.9 24.8z"/>
  <path class="PandaMapSVG--st8" d="M47.9 65.3c2.5 0.7 5.4-1.8 6.5-5.7 1.1-3.9 0.1-7.6-2.4-8.3 -2.5-0.7-5.4 1.8-6.5 5.7C44.4 60.9 45.5 64.6 47.9 65.3z"/>
  <path class="PandaMapSVG--st4" d="M88.9 20.6c9.4 0 21.8 17 21.8 30.2 0 8.4-2.1 13.5-6.8 18.2 -2 1.9-5 3.2-7.4 3.2 -0.1 0-0.1 0-0.2 0 -3.3-0.1-6.9-2.5-10-7.3 -3.1-4.7-5.1-10.5-5.7-15.9 -1.5-12.4-0.5-22.1 3.4-26.3C85.3 21.3 86.9 20.6 88.9 20.6z"/>
  <path class="PandaMapSVG--st5" d="M96.5 73.1l-0.2 0c-3.8-0.1-7.6-2.8-10.8-7.7 -3.1-4.7-5.2-10.6-5.9-16.3C78 35.8 79.3 26.2 83.2 22c1.5-1.6 3.4-2.4 5.7-2.4 10 0 22.8 17.5 22.8 31.2 0 8.5-2.1 13.9-7.1 18.9C102.5 71.7 99.3 73.1 96.5 73.1zM88.9 21.6c-1.8 0-3.2 0.6-4.3 1.8 -3.5 3.8-4.6 12.8-3.1 25.5 0.6 5.4 2.7 11 5.6 15.5 2.8 4.3 6.1 6.7 9.2 6.8l0.1 0c2.2 0 4.9-1.2 6.7-2.9 4.7-4.6 6.5-9.5 6.5-17.5C109.7 38.2 97.9 21.6 88.9 21.6z"/>
  <path class="PandaMapSVG--st8" d="M88 57.7c0.9 3 3.2 4.9 5.1 4.4 1.9-0.6 2.7-3.4 1.9-6.4 -0.9-3-3.2-4.9-5.1-4.4C88 51.9 87.1 54.8 88 57.7z"/>
    <path class="PandaMapSVG--st4" d="M15.6 30.5c-1.5-0.7-3.2-1.6-4.8-3 -6.4-5.3-5.1-14.1-4.7-16.3 0.4-2.2 3-12.7 11-7.9 5.2 3.1 10.6 8.4 13.7 11.8C24.9 19.3 19.7 24.5 15.6 30.5z"/>
  <path class="PandaMapSVG--st5" d="M16 31.7l-0.8-0.3c-1.8-0.8-3.5-1.8-5.1-3.1 -6.7-5.5-5.5-14.6-5-17.2 0.3-1.8 1.8-7.7 5.7-9.5 2-0.9 4.3-0.6 6.8 0.9 5.2 3.1 10.4 8.2 13.9 12l0.8 0.8 -1 0.7c-5.9 4-10.9 9.1-15 15.1L16 31.7zM13.3 3.1c-0.5 0-1.1 0.1-1.5 0.3 -3.2 1.4-4.4 6.9-4.6 8 -0.5 2.4-1.5 10.5 4.3 15.3 1.2 1 2.5 1.8 3.9 2.5 3.9-5.5 8.6-10.3 14.1-14.2 -3-3.1-8-7.9-12.7-10.8C15.4 3.5 14.3 3.1 13.3 3.1z"/>
    <path class="PandaMapSVG--st4" d="M105.1 22.2c-0.9 0.7-1.8 1.3-2.7 1.7 -4.1-4.8-9.1-9-14.8-12.1C90.4 9 95.1 4.6 99.6 2c7-4 9.3 4.8 9.6 6.6C109.5 10.5 110.7 17.8 105.1 22.2z"/>
  <path class="PandaMapSVG--st5" d="M102.2 25.2l-0.5-0.6c-4.2-4.9-9.1-8.9-14.5-11.9L86 12l0.9-0.9C90 8 94.6 3.7 99.1 1.2c2.2-1.3 4.3-1.5 6.1-0.7 3.5 1.6 4.7 6.5 5 8 0.5 2.2 1.5 9.9-4.4 14.5v0c-0.9 0.7-1.8 1.3-2.8 1.8L102.2 25.2zM89.3 11.6c5 2.9 9.5 6.7 13.4 11.1 0.6-0.4 1.2-0.8 1.8-1.3 5-4 4.1-10.6 3.7-12.6C108 8 107 3.5 104.3 2.3c-1.2-0.5-2.6-0.3-4.3 0.6C96.2 5.1 92.2 8.7 89.3 11.6z"/>
  <path class="PandaMapSVG--st9" d="M52.5 156.5l-2-67 -37 7 4 64.5L52.5 156.5z"/>
  <path class="PandaMapSVG--st10" d="M50.5 155.2c-18.2-1-20.7 4.5-20.7-3.5s-1.5-9-8.4-9c-3.3 0-4.7-1.5-5.3-3.2l-0.1-3.3c-0.2 0.9-0.3 2.1 0.1 3.3l0.9 21.2 33.5-4V155.2z"/>
  <path class="PandaMapSVG--st11" d="M21.9 96.7l-6.4 1.5 0.5 6.5L21.9 96.7z"/>
  <path class="PandaMapSVG--st11" d="M19.7 158.4l-0.5-5 6.4 4.5L19.7 158.4z"/>
  <path class="PandaMapSVG--st12" d="M50.1 109.5c-0.7-0.6-1.5-1.3-2.3-2.2 -0.9-0.9-1.7-1.9-2.4-2.7 -3.4-4.1-5.3-6.4-16.3 0.2 -13.3 8-3 25.5 5.9 28 7.1 2 7.9 5.5 7.4 7 -1.3 8.8 0.5 7.5 3.8 5.1 1.4-1 3-2.2 4.9-3L50.1 109.5zM34.2 106.1c1.4-0.6 0.5 1.5 0 1.9C33.5 108.5 32.9 106.7 34.2 106.1zM32.7 104.6c1.1-0.1 0.7 0.9 0.3 1C32.4 105.7 31.6 104.6 32.7 104.6zM33.1 130.2c-1-1.7 2.9-3 4.2 0.1C38.5 133.3 33.9 131.5 33.1 130.2zM38.2 107.2c0.7 2-2.2 5.7-3.7 4.7 -0.7-0.4 0.1-2 0.9-3.5 1-1.9 2-3.8 0.1-3.5 -3.4 0.5 1.2-3.4 3.8-2.9C41.8 102.5 41.1 106.6 38.2 107.2zM44.4 139.2c0.1 1-0.8 0.7-0.8 0.3C43.5 139 44.4 138.3 44.4 139.2zM42.9 143.6c-0.2-1.6 2.5-4.1 2.5-1C45.4 145.6 43 144.9 42.9 143.6z"/>
  <path class="PandaMapSVG--st11" d="M17.5 162c-0.2 0-0.5-0.1-0.6-0.2 -0.2-0.2-0.3-0.4-0.4-0.7l-4-64.5c0-0.5 0.3-1 0.8-1l37-7c0.3-0.1 0.6 0 0.8 0.2 0.2 0.2 0.4 0.5 0.4 0.7l2 67c0 0.5-0.4 1-0.9 1l-35 4.5C17.6 162 17.5 162 17.5 162zM14.6 97.3l3.9 62.6 33-4.2 -1.9-64.9L14.6 97.3z"/>
  <path class="PandaMapSVG--st9" d="M117.5 82v66L85 162V93L117.5 82z"/>
  <path class="PandaMapSVG--st10" d="M107.5 89.8c-2.5-3 0-4 0-4H107l-18.5 6.5 -1.5 1.1c5.6-4 14.1-2.6 16.1 0.9C106 99.5 110 92.8 107.5 89.8z"/>
  <path class="PandaMapSVG--st12" d="M107.8 117.3c3.2-3.5 5.2-5.7 0.2-8 -1.4-0.4-1.8 0.8-2.3 2.5 -0.7 2.6-1.8 6.2-8.3 5 -0.3-0.1-0.6-0.1-0.9-0.2 -4.8-0.8-5.9-1-10.7-12.3 -0.1-0.2-0.2-0.5-0.3-0.7v33.6c0.4 0 1 0.1 1.8 0.2 2.3 0.4 6.3 3.9 3 3 -1.7-0.5-3.8-1.4-4.8-2.2v2.9c0.9-0.9 2.3-0.7 4.8 1.6 8.6 8 16.1 3.5 17.7 0 1.1-2.6-0.9-4.1-3.1-5.6 -3.4-2.4-7.3-5.1-2.2-12.9C104.1 121.4 106.1 119.2 107.8 117.3zM107.6 111.5c2.3-0.9 2.5 1.1 1.6 1.6C108 113.7 105.3 112.5 107.6 111.5zM101.1 137.7c1.3-1 1.6 0.8 1.1 1.3C101.6 139.6 99.9 138.7 101.1 137.7zM102.2 140.3c4.5-1.1 3.2 3.8 1.3 4.5C101.1 145.8 97.7 141.4 102.2 140.3z"/>
  <path class="PandaMapSVG--st11" d="M85 163c-0.2 0-0.4-0.1-0.5-0.2 -0.3-0.2-0.5-0.5-0.5-0.8V93c0-0.4 0.3-0.8 0.7-0.9l32.5-11c0.3-0.1 0.6-0.1 0.9 0.1 0.3 0.2 0.4 0.5 0.4 0.8v66c0 0.4-0.2 0.8-0.6 0.9l-32.5 14C85.3 163 85.1 163 85 163zM86 93.7v66.8l30.5-13.1V83.4L86 93.7z"/>
  <path class="PandaMapSVG--st13" d="M85 93v69l-32.5-5.5 -2-67L85 93z"/>
  <path class="PandaMapSVG--st14" d="M67.9 95.2c2.9 2.1 11.6 1 15.5-1.4l-1.5-1.4 -29.8-1.8c-0.2 2.8 1.6 3.4 4.8 3.2S63.1 91.8 67.9 95.2z"/>
  <path class="PandaMapSVG--st15" d="M84 160.8c-2.4-4.3-4.2-5.2-9.1-3.9s-6-1.1-8.7-3.4c-2.7-2.3-2.9 0.2-8.7 2.1 -2.3 0.8-3.5 0.9-4.1 0.8 -0.4-0.3-0.6 0 0 0 0.1 0.1 0.2 0.2 0.4 0.4C61 157.3 69.7 161.2 84 160.8z"/>
  <path class="PandaMapSVG--st16" d="M84.7 103.7c-3.1-6.9-5.6-4.5-9.7-0.7 -2.4 2.2-5.2 4.8-9 6.4 -7.8 3.3-10.8 3.2-14.7 0.1l0.6 32c2.1-0.8 4.3-1.2 6.6-0.1 2.5 1.2 3.5-3.8 4.2-7.7 0.8-4.1 1.4-7.2 3.3-1.3 0.8 1.9 1.5 3.8 2.3 5.7 3.5 9.1 6.7 17.4 11.2 15.8 2.3-0.8 2.9-4.3 3.5-7.4 0.4-2.2 0.8-4.3 1.7-5.2V103.7zM76.4 104.4c0.4-0.3 0.9-0.5 1.1-0.2 0.2 0.2 0 0.7-0.5 1 -0.4 0.3-0.9 0.4-1.1 0.2C75.8 105.2 76 104.8 76.4 104.4zM76.7 150.8c-1.6-0.4-3.3-6.2-4-9 1.7-3.6 2.6-0.7 3.6 2 0.5 1.4 0.9 2.7 1.4 3C79.2 147.8 78.7 151.3 76.7 150.8zM78.2 145.1c-0.1-0.5 0.8-1.3 0.9-0.3S78.3 145.5 78.2 145.1zM81.2 105.9c-1.2 1.6-3.9-1.6-1.6-4C82 99.6 82.1 104.6 81.2 105.9z"/>
  <path class="PandaMapSVG--st11" d="M85 163c-0.1 0-0.1 0-0.2 0l-32.5-5.5c-0.5-0.1-0.8-0.5-0.8-1l-2-67c0-0.3 0.1-0.6 0.3-0.8 0.2-0.2 0.5-0.3 0.8-0.3L85.1 92c0.5 0.1 0.9 0.5 0.9 1v69c0 0.3-0.1 0.6-0.4 0.8C85.5 162.9 85.2 163 85 163zM53.5 155.7l30.5 5.2V93.9l-32.5-3.3L53.5 155.7z"/>
  <path class="PandaMapSVG--st11" d="M115 146v-6l-6 9L115 146z"/>
  <path class="PandaMapSVG--st11" d="M115 86v5l-6-3.5L115 86z"/>
  <path class="PandaMapSVG--st11" d="M51.7 143.1c-0.8 0-1.6-0.2-2.2-0.5 -0.4-0.2-0.5-0.7-0.3-1 0.2-0.4 0.7-0.5 1-0.3 0.8 0.4 1.9 0.5 3.3 0.1 0.4-0.1 0.8 0.1 0.9 0.5 0.1 0.4-0.1 0.8-0.5 0.9C53.2 143 52.4 143.1 51.7 143.1zM57.4 141.1c-0.3 0-0.5-0.1-0.6-0.4 -0.2-0.4-0.1-0.8 0.3-1 0.2-0.1 0.4-0.2 0.6-0.4 1-0.6 1.9-1.2 2.7-1.8 0.3-0.2 0.8-0.2 1.1 0.1 0.2 0.3 0.2 0.8-0.1 1.1 -0.8 0.6-1.7 1.2-2.8 1.9 -0.2 0.1-0.4 0.3-0.6 0.4C57.7 141.1 57.5 141.1 57.4 141.1zM47.9 139.4c-0.4 0-0.7-0.3-0.7-0.6 -0.1-0.5-0.1-1.1-0.1-1.7 0-0.8 0.1-1.6 0.2-2.5 0.1-0.4 0.4-0.7 0.9-0.6 0.4 0.1 0.7 0.4 0.6 0.9 -0.1 0.8-0.2 1.6-0.2 2.3 0 0.5 0 1 0.1 1.5 0.1 0.4-0.2 0.8-0.6 0.9C48 139.3 47.9 139.4 47.9 139.4zM97.5 139.2c-0.3 0-0.6-0.2-0.7-0.5 -0.2-0.4-0.4-0.9-0.6-1.5 -0.3-0.6-0.5-1.4-0.9-2.2 -0.2-0.4 0-0.8 0.4-1 0.4-0.2 0.8 0 1 0.4 0.3 0.8 0.6 1.5 0.9 2.2 0.3 0.6 0.5 1.2 0.6 1.6 0.2 0.4 0 0.8-0.4 1C97.7 139.2 97.6 139.2 97.5 139.2zM63.6 136.1c-0.2 0-0.3 0-0.4-0.1 -0.3-0.2-0.4-0.7-0.2-1 0.4-0.6 0.6-1.1 0.6-1.6 0-0.4-0.2-0.8-0.5-1.1 -0.3-0.3-0.2-0.8 0.1-1.1 0.3-0.3 0.8-0.2 1.1 0.1 0.5 0.6 0.8 1.3 0.8 2.1 0 0.8-0.3 1.6-0.9 2.5C64.1 136 63.8 136.1 63.6 136.1zM94.6 131.8c-0.3 0-0.6-0.2-0.7-0.5 -0.5-1.2-0.9-2.5-1.4-3.8 -0.1-0.4 0.1-0.8 0.5-1 0.4-0.1 0.8 0.1 1 0.5 0.5 1.3 0.9 2.6 1.4 3.7 0.1 0.4 0 0.8-0.4 1C94.7 131.8 94.6 131.8 94.6 131.8zM49 131.5c-0.1 0-0.2 0-0.2 0 -0.4-0.1-0.6-0.6-0.5-1 0.4-1.1 0.9-2.3 1.4-3.4 -0.3-0.1-0.7-0.2-1-0.3 -0.4-0.1-0.6-0.5-0.5-0.9s0.5-0.6 0.9-0.5c1.1 0.3 2.2 0.6 3.3 0.9l0.6 0.2c0.4 0.1 0.6 0.5 0.5 0.9 -0.1 0.4-0.5 0.6-0.9 0.5l-0.6-0.2c-0.3-0.1-0.6-0.2-0.8-0.2 -0.6 1.1-1.1 2.3-1.5 3.5C49.6 131.3 49.3 131.5 49 131.5zM60.4 130.4c-0.1 0-0.2 0-0.3-0.1 -1-0.4-2.2-0.8-3.7-1.3 -0.4-0.1-0.6-0.5-0.5-0.9s0.5-0.6 0.9-0.5c1.6 0.5 2.8 0.9 3.8 1.4 0.4 0.2 0.6 0.6 0.4 1C61 130.2 60.7 130.4 60.4 130.4zM45.1 125.6c-0.1 0-0.2 0-0.2 0 -1.4-0.5-2.6-0.9-3.8-1.4 -0.4-0.2-0.6-0.6-0.4-1 0.2-0.4 0.6-0.6 1-0.4 1.1 0.5 2.3 0.9 3.7 1.4 0.4 0.1 0.6 0.6 0.5 1C45.7 125.4 45.4 125.6 45.1 125.6zM81.2 125.1C81.2 125.1 81.2 125.1 81.2 125.1c-0.4 0-0.8 0-1.2 0 -0.4 0-0.7-0.4-0.7-0.8 0-0.4 0.4-0.7 0.8-0.7 0.3 0 0.7 0 1 0 0 0 0 0 0 0 0.9 0 1.8-0.1 2.7-0.3 0.4-0.1 0.8 0.2 0.9 0.6s-0.2 0.8-0.6 0.9C83.2 125 82.2 125.1 81.2 125.1zM52.6 124.4c-0.1 0-0.3 0-0.4-0.1 -0.3-0.2-0.4-0.7-0.2-1 0.8-1.2 1.7-2.2 2.7-3.2 0.3-0.3 0.8-0.3 1.1 0 0.3 0.3 0.3 0.8 0 1.1 -0.9 0.9-1.7 1.8-2.5 3C53.1 124.3 52.8 124.4 52.6 124.4zM76.2 124.3c-0.1 0-0.2 0-0.3 0 -1.3-0.5-2.5-1.1-3.7-1.9 -0.3-0.2-0.4-0.7-0.2-1 0.2-0.3 0.7-0.4 1-0.2 1.1 0.7 2.2 1.3 3.4 1.7 0.4 0.1 0.6 0.6 0.5 1C76.8 124.1 76.5 124.3 76.2 124.3zM91.9 124.2c-0.3 0-0.6-0.2-0.7-0.5 -0.1-0.5-0.3-0.9-0.4-1.4 -0.9 0.5-1.7 1-2.6 1.3 -0.4 0.2-0.8 0-1-0.4s0-0.8 0.4-1c0.9-0.4 1.9-0.9 2.8-1.5 -0.1-0.3-0.2-0.7-0.3-1 -0.1-0.4 0.1-0.8 0.5-0.9 0.4-0.1 0.8 0.1 0.9 0.5 0.1 0.3 0.2 0.6 0.3 1 0.1 0.1 0.1 0.1 0.2 0.2 0.2 0.2 0.2 0.5 0.1 0.7 0.2 0.6 0.4 1.3 0.6 1.9 0.1 0.4-0.1 0.8-0.5 0.9C92.1 124.2 92 124.2 91.9 124.2zM37.7 122.5c-0.1 0-0.3 0-0.4-0.1 -1.3-0.7-2.5-1.5-3.4-2.4 -0.3-0.3-0.3-0.7-0.1-1.1 0.3-0.3 0.7-0.3 1.1-0.1 0.9 0.8 1.9 1.5 3.1 2.2 0.4 0.2 0.5 0.7 0.3 1C38.2 122.4 38 122.5 37.7 122.5zM69.5 119.9c-0.2 0-0.3-0.1-0.5-0.2 -1.1-0.8-2.2-1.4-3.3-1.8 -0.4-0.1-0.6-0.6-0.5-0.9 0.1-0.4 0.6-0.6 0.9-0.5 1.3 0.4 2.5 1.1 3.7 2 0.3 0.3 0.4 0.7 0.1 1.1C70 119.8 69.8 119.9 69.5 119.9zM94.5 119.2c-0.2 0-0.4-0.1-0.5-0.2 -0.3-0.3-0.3-0.8 0-1.1 0.9-0.9 1.8-1.9 2.5-2.9 0.2-0.3 0.7-0.4 1-0.2 0.3 0.2 0.4 0.7 0.2 1 -0.8 1.1-1.7 2.1-2.7 3.1C94.8 119.2 94.7 119.2 94.5 119.2zM58.4 118.9c-0.3 0-0.5-0.1-0.7-0.4 -0.2-0.4-0.1-0.8 0.3-1 1.3-0.7 2.7-1.2 4-1.4 0.4-0.1 0.8 0.2 0.8 0.6 0.1 0.4-0.2 0.8-0.6 0.8 -1.2 0.1-2.3 0.6-3.5 1.2C58.6 118.9 58.5 118.9 58.4 118.9zM31.9 117.2c-0.3 0-0.5-0.1-0.7-0.4 -0.2-0.3-0.3-0.6-0.5-1 -0.2-0.4 0-0.8 0.4-1 0.4-0.2 0.8 0 1 0.4 0.1 0.3 0.3 0.6 0.4 0.8 0.2 0.4 0.1 0.8-0.3 1C32.2 117.1 32.1 117.2 31.9 117.2zM89.9 116.5c-0.4 0-0.7-0.3-0.7-0.6 -0.3-1.5-0.4-2.9-0.4-4.1 0-0.4 0.3-0.8 0.7-0.8 0 0 0 0 0 0 0.4 0 0.7 0.3 0.8 0.7 0 1.1 0.2 2.4 0.4 3.9 0.1 0.4-0.2 0.8-0.6 0.9C90 116.5 90 116.5 89.9 116.5zM99.1 112.8c-0.1 0-0.2 0-0.3-0.1 -0.4-0.2-0.5-0.6-0.4-1 0.4-0.8 0.6-1.6 0.8-2.4 0.1-0.4 0.2-0.8 0.2-1.2 0.1-0.4 0.4-0.7 0.8-0.6 0.4 0.1 0.7 0.4 0.6 0.8 -0.1 0.4-0.1 0.9-0.3 1.4 -0.2 0.9-0.5 1.8-0.9 2.7C99.7 112.6 99.4 112.8 99.1 112.8zM90.2 108.6c-0.1 0-0.2 0-0.3-0.1 -0.4-0.2-0.6-0.6-0.4-1 0.5-1.4 1.4-2.6 2.5-3.5 0.3-0.3 0.8-0.2 1.1 0.1 0.3 0.3 0.2 0.8-0.1 1.1 -0.9 0.8-1.6 1.8-2.1 3C90.7 108.4 90.5 108.6 90.2 108.6zM99.6 105.1c-0.2 0-0.5-0.1-0.6-0.3 -0.6-0.8-1.6-1.2-2.8-1.1 -0.4 0-0.8-0.3-0.8-0.7 0-0.4 0.3-0.8 0.7-0.8 1.8-0.2 3.3 0.4 4.2 1.7 0.2 0.3 0.2 0.8-0.2 1C99.9 105.1 99.7 105.1 99.6 105.1z"/>
  <circle class="PandaMapSVG--st11" cx="31.5" cy="115.5" r="1.5"/>
  <circle class="PandaMapSVG--st11" cx="97.5" cy="138.5" r="1.5"/>
    <path class="PandaMapSVG--st4" d="M107.8 112.5c0.6-3.4 2.3-6.2 4.4-7.9 -0.2-0.2-0.4-0.4-0.5-0.6 -0.8-2.3 0.5-3.9 2.6-4.5 1.2-0.3 5 0.3 7.2 4.8 2.8 2.3 4.2 6.8 3.3 11.6 -1.2 6.3-5.9 10.6-10.6 9.6C109.4 124.6 106.6 118.8 107.8 112.5z"/>
  <path class="PandaMapSVG--st5" d="M115.4 126.7c-0.5 0-1 0-1.5-0.2 -5.2-1.1-8.4-7.4-7.1-14.2l0 0c0.6-3.1 2-5.9 4-7.8 0-0.1-0.1-0.1-0.1-0.2 -0.4-1.3-0.4-2.4 0.1-3.5 0.6-1.1 1.7-1.9 3.1-2.3 1.6-0.4 5.8 0.3 8.2 5.2 3 2.7 4.4 7.5 3.5 12.4 -0.7 3.9-2.7 7.2-5.5 9C118.7 126.2 117.1 126.7 115.4 126.7zM108.8 112.7c-1.1 5.7 1.4 11 5.5 11.9 1.6 0.3 3.2-0.1 4.7-1.1 2.3-1.6 4.1-4.5 4.7-7.7 0.8-4.3-0.3-8.4-2.9-10.6l-0.2-0.1 -0.1-0.2c-2-4.3-5.4-4.5-6-4.3 -0.9 0.2-1.6 0.7-1.9 1.3 -0.3 0.5-0.3 1.1 0 1.9 0 0 0 0 0 0 0 0 0 0.1 0.2 0.2l1 0.8 -1 0.8C110.8 107.1 109.3 109.7 108.8 112.7L108.8 112.7z"/>
    <path class="PandaMapSVG--st4" d="M24.2 115.5c-0.6-3.4-2.3-6.2-4.4-7.9 0.2-0.2 0.4-0.4 0.5-0.6 0.8-2.3-0.5-3.9-2.6-4.5 -1.2-0.3-5 0.3-7.2 4.8 -2.8 2.3-4.2 6.8-3.3 11.6 1.2 6.3 5.9 10.6 10.6 9.6C22.6 127.6 25.4 121.8 24.2 115.5z"/>
  <path class="PandaMapSVG--st5" d="M16.6 129.7c-1.6 0-3.2-0.5-4.7-1.5 -2.8-1.9-4.8-5.2-5.5-9 -0.9-4.9 0.4-9.7 3.5-12.4 2.4-4.9 6.6-5.6 8.2-5.2 1.4 0.4 2.5 1.2 3.1 2.3 0.5 1 0.6 2.2 0.1 3.5 0 0.1 0 0.1-0.1 0.2 2 1.9 3.5 4.7 4 7.8l0 0c1.3 6.8-1.9 13.2-7.1 14.2C17.6 129.7 17.1 129.7 16.6 129.7zM17.1 103.5c-1.1 0-3.9 0.6-5.6 4.3l-0.1 0.2 -0.2 0.1c-2.6 2.2-3.7 6.3-2.9 10.6 0.6 3.3 2.4 6.2 4.7 7.7 1.5 1 3.2 1.4 4.7 1.1 4.1-0.8 6.6-6.2 5.5-11.9l0 0c-0.6-3-2-5.6-4.1-7.3l-1-0.8 1-0.8c0.1-0.1 0.2-0.2 0.2-0.2 0.3-0.7 0.2-1.3 0-1.9 -0.3-0.6-1-1.1-1.9-1.3C17.4 103.5 17.3 103.5 17.1 103.5z"/>
</svg>
