<svg fill="none" viewBox="0 0 202 188" xmlns="http://www.w3.org/2000/svg"><path clip-rule="evenodd" d="m104.641 154.752 95.456.966c.552.006.995.458.99 1.011-.004.322-.162.623-.426.808l-13.981 9.806c-.842.59-1.844.907-2.871.907h-116.7693c-.5523 0-1-.448-1-1 0-.44.2871-.828.7075-.956l37.5908-11.499c.098-.03.2-.045.303-.043z" fill="#000" fill-opacity=".05" fill-rule="evenodd"/><path clip-rule="evenodd" d="m128.575 69.7732c.746 5.1671 1.838 16.825-1.621 26.2219-4.586 12.4609-17.05 6.6109-19.299.0658-2.099-6.1046 4.429-15.4084 17.534-26.5347 1.115.1076 2.245.1887 3.386.247z" fill="#2d3b45" fill-rule="evenodd" stroke="#152633" stroke-width="2"/><path clip-rule="evenodd" d="m180.747 25.1533c1.349-.5596 2.793-1.3632 4.24-2.5201 5.562-4.4499 4.45-11.8664 4.079-13.72051-.371-1.85412-2.596-10.75388-9.641-6.67482-4.551 2.63433-9.253 7.12204-12.015 9.97253 5.234 3.4858 9.766 7.9171 13.337 12.9429z" fill="#2d3b45" fill-rule="evenodd"/><path d="m181.987 18.6331c-1.447 1.157-2.891 1.9606-4.24 2.5201-2.623-3.6917-5.765-7.0627-9.322-9.9737-.361.3614-.701.7067-1.015 1.0309 5.234 3.4857 9.766 7.9171 13.337 12.9428 1.349-.5595 2.793-1.3631 4.24-2.5201 5.562-4.4499 4.45-11.8663 4.079-13.72046-.242-1.212-1.277-5.43463-3.933-7.07463.537 1.30063.82 2.51201.933 3.07464.371 1.85411 1.483 9.27055-4.079 13.72045z" fill="#28343d"/><path clip-rule="evenodd" d="m180.747 25.1533c1.349-.5596 2.793-1.3632 4.24-2.5201 5.562-4.4499 4.45-11.8664 4.079-13.72051-.371-1.85412-2.596-10.75388-9.641-6.67482-4.551 2.63433-9.253 7.12204-12.015 9.97253 5.234 3.4858 9.766 7.9171 13.337 12.9429z" fill-rule="evenodd" stroke="#152633" stroke-width="2"/><path clip-rule="evenodd" d="m102.428 22.9055c.772.6177 1.543 1.1184 2.295 1.5252 3.584-4.2026 7.901-7.8437 12.8-10.6219-2.397-2.466-6.406-6.2751-10.29-8.52377-6.087-3.52431-8.0094 4.16472-8.3298 5.76667-.3204 1.602-1.2815 8.0094 3.5248 11.8538z" fill="#2d3b45" fill-rule="evenodd"/><path d="m100.782 21.2287c3.365-3.696 7.316-6.9101 11.741-9.4199-2.04-2.09873-5.248-5.17029-8.552-7.42482.925-.07657 2.004.17292 3.262.90105 3.884 2.24867 7.893 6.05777 10.29 8.52377-4.899 2.7782-9.216 6.4193-12.8 10.6219-.752-.4068-1.523-.9075-2.295-1.5252-.648-.5184-1.192-1.0833-1.646-1.6768z" fill="#28343d"/><path clip-rule="evenodd" d="m102.428 22.9055c.772.6177 1.543 1.1184 2.295 1.5252 3.584-4.2026 7.901-7.8437 12.8-10.6219-2.397-2.466-6.406-6.2751-10.29-8.52377-6.087-3.52431-8.0094 4.16472-8.3298 5.76667-.3204 1.602-1.2815 8.0094 3.5248 11.8538z" fill-rule="evenodd" stroke="#152633" stroke-width="2"/><path clip-rule="evenodd" d="m119.596 79.1008c-2.273 6.4497-2.273 12.45-2.273 14.9319 0 16.4863 14.527 29.8513 32.447 29.8513s44.545-22.603 21.792-49.8503c-8.877 6.9507-45.439 7.2364-51.966 5.0671z" fill="#fff" fill-rule="evenodd" stroke="#152633" stroke-width="2"/><path clip-rule="evenodd" d="m165.533 77.3506c-1.591 6.2186 5.644 7.2406 1.037 20.0377-6.219 17.2737 13.666 19.8417 19.001 11.0557 5.873-9.6737 1.382-34.8937-13.128-33.8572-2.303.9212-4.607 1.8425-6.91 2.7638z" fill="#2d3b45" fill-rule="evenodd"/><path d="m166.683 108.669c4.868 1.734 11.21.185 13.888-4.225 4.141-6.8204 3.13-21.368-2.912-28.9937 10.298 4.4803 13.011 24.5957 7.912 32.9937-3.811 6.277-15.047 6.759-18.888.225z" fill="#28343d"/><path clip-rule="evenodd" d="m165.533 77.3506c-1.591 6.2186 5.644 7.2406 1.037 20.0377-6.219 17.2737 13.666 19.8417 19.001 11.0557 5.873-9.6737 1.382-34.8937-13.128-33.8572-2.303.9212-4.607 1.8425-6.91 2.7638z" fill-rule="evenodd" stroke="#152633" stroke-width="2"/><path clip-rule="evenodd" d="m96.0004 49.3215c0 21.5077 19.4416 33.0033 46.1676 33.0033s48.392-12.9789 48.392-32.2617c0-23.9615-21.666-47.09459-48.392-47.09459s-46.1676 23.73269-46.1676 46.35299z" fill="#fff" fill-rule="evenodd"/><path d="m107.839 73.021c8.055 4.8195 18.905 7.3037 31.329 7.3037 26.726 0 48.392-12.9788 48.392-32.2616 0-14.6582-8.108-29.0063-20.522-37.9383 14.092 8.6823 23.522 24.13 23.522 39.9383 0 19.2828-21.666 32.2617-48.392 32.2617-14.041 0-26.072-3.173-34.329-9.3038z" fill="#ededed"/><path clip-rule="evenodd" d="m96.0004 49.3215c0 21.5077 19.4416 33.0033 46.1676 33.0033s48.392-12.9789 48.392-32.2617c0-23.9615-21.666-47.09459-48.392-47.09459s-46.1676 23.73269-46.1676 46.35299z" fill-rule="evenodd" stroke="#152633" stroke-width="2"/><path d="m140.188 76.116c2.382 0 4.314-1.4688 4.314-3.2806s-1.932-3.2806-4.314-3.2806c-2.383 0-4.315 1.4688-4.315 3.2806s1.932 3.2806 4.315 3.2806z" fill="#152633"/><path clip-rule="evenodd" d="m142.578 62.1149c0 1.9457-3.238 3.5228-7.231 3.5228-3.994 0-7.232-1.5771-7.232-3.5228s3.238-3.5229 7.232-3.5229c3.993 0 7.231 1.5772 7.231 3.5229z" fill="#152633" fill-rule="evenodd"/><path clip-rule="evenodd" d="m180.874 44.5006c0 5.3789-1.384 8.9362-3.774 11.1832-2.895 2.722-7.182 3.5045-11.913 3.5045-5.019 0-10.65-.8684-14.574-3.8868-2.908-2.2365-4.822-5.6779-4.822-10.8009 0-6.7832 1.487-15.0613 4.958-20.9998 2.565-4.3883 6.234-7.5085 11.291-7.5085 5.116 0 9.439 3.444 12.651 8.2235 3.9 5.8019 6.183 13.6312 6.183 20.2848z" fill="#2d3b45" fill-rule="evenodd" stroke="#152633" stroke-width="2"/><path clip-rule="evenodd" d="m154.889 54.0444c-1.64.551-3.586-1.383-4.346-4.3195s-.046-5.7634 1.595-6.314c1.64-.551 3.586 1.383 4.346 4.3195s.046 5.7634-1.595 6.314z" fill="#fff" fill-rule="evenodd"/><path clip-rule="evenodd" d="m130.605 30.796c.745 7.6262-.593 16.2578-4.27 20.5075-1.627 1.8794-3.668 3.0452-5.84 3.59-2.395.6012-4.948.45-7.282-.3239-2.326-.7709-4.439-2.1609-5.961-4.0586-1.376-1.7153-2.265-3.8466-2.388-6.3025-.379-7.5692 2.018-15.0007 5.661-20.312 1.876-2.7353 4.08-4.9076 6.412-6.2147 2.079-1.1649 4.257-1.6363 6.367-1.1327 1.941.4634 3.456 2.0638 4.621 4.2485 1.421 2.6656 2.31 6.2163 2.68 9.9984z" fill="#2d3b45" fill-rule="evenodd" stroke="#152633" stroke-width="2"/><path clip-rule="evenodd" d="m123.871 47.5743c-.652 2.6562-2.324 4.4058-3.732 3.9074-1.409-.4984-2.022-3.0556-1.37-5.7118.653-2.6562 2.324-4.4058 3.733-3.9074s2.022 3.0556 1.369 5.7118z" fill="#fff" fill-rule="evenodd"/><path d="m176.618 47.0105 7.416-6.7992" stroke="#152633" stroke-width="2"/><path d="m99.3708 40.3329-2.7085-5.3178c-.3601-.707-.0789-1.572.6281-1.9321.294-.1498.6306-.1937.9532-.1245" stroke="#152633" stroke-linecap="round" stroke-linejoin="round" stroke-width="2"/><path d="m192.148 48.5061c2.036-2.3416 1.693-5.9726-.766-8.1099-2.459-2.1374-6.268-1.6262-8.303.7155" stroke="#152633" stroke-linecap="round" stroke-linejoin="round" stroke-width="2"/><path d="m130.766 43.839.202-1.156 13.138.9477-.202 1.156z" fill="#152633"/><path d="m146.49 39.6372 28.506 1.9933c1.369.0957 2.399 1.304 2.302 2.6988l-.795 11.3646c-.097 1.3948-1.286 2.4479-2.655 2.3522l-28.505-1.9933c-1.369-.0957-2.4-1.304-2.303-2.6988l.795-11.3647c.098-1.3947 1.287-2.4478 2.655-2.3521z" style="fill-rule:evenodd;clip-rule:evenodd;fill:#e5f2f8;fill-opacity:.1;stroke:#f361bd;stroke-width:2"/><path d="m102.922 36.5905 25.987 1.8172c1.367.0956 2.396 1.3038 2.299 2.6986l-.795 11.3646c-.097 1.3948-1.285 2.448-2.651 2.3525l-25.988-1.8172c-1.366-.0956-2.3955-1.3038-2.298-2.6986l.795-11.3646c.097-1.3948 1.284-2.448 2.651-2.3525z" style="fill-rule:evenodd;clip-rule:evenodd;fill:#e5f2f8;fill-opacity:.1;stroke:#f361bd;stroke-width:2"/><path d="m55 188c27.6142 0 50-4.477 50-10s-22.3858-10-50-10-50 4.477-50 10 22.3858 10 50 10z" fill="#000" fill-opacity=".05"/><path d="m65.0234 115.885c.9723.076 1.9661.115 2.9766.115 11.598 0 21-5.149 21-11.5 0-1.98-.9136-3.843-2.5225-5.4694" opacity=".5" stroke="#dfb271" stroke-width="2"/><path d="m182 99h-117v64h117z" fill="#b78762"/><g stroke-width="2"><path d="m152.372 98.658c-1.527.7196-5.372 4.342-2.372 12.842s11-4.5 31 1" opacity=".5" stroke="#dfb271"/><path d="m65 122.5c19.8823 0 28 34 61 0 7.515-7.742 9.786-16.044 8.577-22.7041" opacity=".5" stroke="#dfb271"/><path d="m65 133.291c19.8823 0 28 52.47 61 0 7.515-11.949 17.786-23.217 16.577-33.4951" opacity=".5" stroke="#dfb271"/><path d="m181.5 133.5c-37-5-39.944 6.831-48 13.401-32 26.099-49 7.599-67 14.192" opacity=".5" stroke="#dfb271"/><path d="m182 142c-17.5-5-25.779 2.518-37 12-8.849 7.478-14.297 1.566-26 8.5" opacity=".5" stroke="#dfb271"/><path d="m182 154.451c-19.5-13.951-23 .7-26 8.049" opacity=".5" stroke="#dfb271"/><path d="m182 99h-117v64h117z" stroke="#152633" stroke-linejoin="round"/><path clip-rule="evenodd" d="m73 93h117l-8 6h-117z" fill="#af794f" fill-rule="evenodd" stroke="#152633" stroke-linejoin="round"/><path clip-rule="evenodd" d="m182 99 8-6v64l-8 6z" fill="#af794f" fill-rule="evenodd" stroke="#152633" stroke-linejoin="round"/></g><path clip-rule="evenodd" d="m79.5278 126.125c-1.0663-.009-2.1443-.045-3.2302-.103-1.2204 4.817-3.414 15.745-1.0749 24.984 3.1017 12.253 15.4834 7.955 18.2638 1.983 2.5938-5.57-2.6601-15.027-13.9587-26.864z" fill="#2d3b45" fill-rule="evenodd"/><path d="m78.2949 156.736c4.4774.771 9.5362-2.191 11.1916-5.747 2.45-5.261-2.1017-13.991-12.1357-24.918.7303.03 1.4563.048 2.177.054 11.2986 11.837 16.5525 21.294 13.9587 26.864-2.1867 4.697-10.3124 8.358-15.1916 3.747z" fill="#28343d"/><path clip-rule="evenodd" d="m79.5278 126.125c-1.0663-.009-2.1443-.045-3.2302-.103-1.2204 4.817-3.414 15.745-1.0749 24.984 3.1017 12.253 15.4834 7.955 18.2638 1.983 2.5938-5.57-2.6601-15.027-13.9587-26.864z" fill-rule="evenodd" stroke="#152633" stroke-width="2"/><path clip-rule="evenodd" d="m34.125 126.025c.7101 4.919 1.7495 16.015-1.5427 24.96-4.3654 11.861-16.23 6.293-18.3709.063-1.9973-5.811 4.2163-14.667 16.6903-25.258 1.0614.103 2.1372.18 3.2233.235z" fill="#2d3b45" fill-rule="evenodd"/><path d="m13.8443 148.877c.0113.764.1326 1.489.3671 2.171 2.1409 6.23 14.0055 11.798 18.3709-.063 3.2922-8.944 2.2528-20.041 1.5427-24.96-.8062-.041-1.6067-.094-2.3998-.161.3443 5.517.1659 12.848-2.1429 19.121-3.4073 9.258-11.383 7.898-15.738 3.892z" fill="#28343d"/><path clip-rule="evenodd" d="m34.125 126.025c.7101 4.919 1.7495 16.015-1.5427 24.96-4.3654 11.861-16.23 6.293-18.3709.063-1.9973-5.811 4.2163-14.667 16.6903-25.258 1.0614.103 2.1372.18 3.2233.235z" fill-rule="evenodd" stroke="#152633" stroke-width="2"/><path clip-rule="evenodd" d="m75.2588 127.588c-6.7617 2.252-14.4785 3.476-22.6737 3.476-7.3047 0-13.6198-1.786-19.5851-3.476-2.3953 5.364-5.5508 13.161-6.145 17.914-1.7478 12.233 8.8852 22.954 27.7663 22.954 18.8812 0 28.7449-11.107 26.5898-22.583-1.4853-7.907-3.8795-13.881-5.9523-18.285z" fill="#fff" fill-rule="evenodd"/><path d="m36.1915 163.902c4.0242 1.624 8.8693 2.554 14.4298 2.554 18.8811 0 28.7448-11.107 26.5898-22.583-1.1879-6.324-2.9571-11.411-4.6784-15.447.9246-.261 1.8336-.541 2.726-.838 2.0729 4.404 4.4671 10.378 5.9524 18.285 2.155 11.476-7.7087 22.583-26.5898 22.583-7.5503 0-13.7816-1.715-18.4298-4.554z" fill="#ededed"/><path clip-rule="evenodd" d="m75.2588 127.588c-6.7617 2.252-14.4785 3.476-22.6737 3.476-7.3047 0-13.6198-1.786-19.5851-3.476-2.3953 5.364-5.5508 13.161-6.145 17.914-1.7478 12.233 8.8852 22.954 27.7663 22.954 18.8812 0 28.7449-11.107 26.5898-22.583-1.4853-7.907-3.8795-13.881-5.9523-18.285z" fill-rule="evenodd" stroke="#152633" stroke-width="2"/><path clip-rule="evenodd" d="m91.2391 173.867c-2.9617-15.179-9.5048-24.237-9.875-27.199 1.4431 10.085-6.5027 19.873-21.5406 21.701l.3173 1.425c1.1107 5.924 3.332 8.145 7.0342 9.256 8.1448 2.961 25.9152 1.851 24.0641-5.183z" fill="#2d3b45" fill-rule="evenodd"/><path d="m81.332 151.538c2.2294 4.694 5.1783 11.469 6.9071 20.329 1.8511 7.034-15.9194 8.144-24.0642 5.183-.3859-.116-.7557-.244-1.1098-.387 1.0961 1.172 2.455 1.89 4.1098 2.387 8.1448 2.961 25.9153 1.851 24.0642-5.183-1.9845-10.171-5.5769-17.593-7.8429-22.275-1.0862-2.244-1.8675-3.859-2.021-4.844.2233 1.615.2058 3.223-.0432 4.79z" fill="#28343d"/><path clip-rule="evenodd" d="m91.2391 173.867c-2.9617-15.179-9.5048-24.237-9.875-27.199 1.4431 10.085-6.5027 19.873-21.5406 21.701l.3173 1.425c1.1107 5.924 3.332 8.145 7.0342 9.256 8.1448 2.961 25.9152 1.851 24.0641-5.183z" fill-rule="evenodd" stroke="#152633" stroke-width="2"/><path clip-rule="evenodd" d="m26.6926 146.84c-.4247 2.962-7.0886 11.847-10.0503 27.026-1.8511 7.034 15.9193 8.145 24.0641 5.183 3.7022-1.11 5.9235-3.332 7.0342-9.255l.3017-1.234.0156-.34c-14.2508-2.099-22.2127-11.095-21.3653-21.38z" fill="#2d3b45" fill-rule="evenodd"/><path d="m16.6216 175.715c1.4644 5.36 16.7151 6.014 24.0848 3.334 3.7022-1.11 5.9235-3.332 7.0342-9.255l.3017-1.234.0155-.34c-1.2013-.177-2.3579-.403-3.4683-.675-1.1554 5.363-3.3417 7.442-6.8831 8.504-5.6507 2.055-15.9346 2.15-21.0848-.334z" fill="#28343d"/><path clip-rule="evenodd" d="m26.6926 146.84c-.4247 2.962-7.0886 11.847-10.0503 27.026-1.8511 7.034 15.9193 8.145 24.0641 5.183 3.7022-1.11 5.9235-3.332 7.0342-9.255l.3017-1.234.0156-.34c-14.2508-2.099-22.2127-11.095-21.3653-21.38z" fill-rule="evenodd" stroke="#152633" stroke-width="2"/><path clip-rule="evenodd" d="m15.4694 91.9295c-1.3117-.0582-2.7802-.2928-4.3586-.8256-6.06977-2.0497-6.35972-7.3353-6.61665-9.0163-.25694-1.6811-.29205-10.7553 6.91725-9.4752 4.656.8267 8.137 2.7167 11.348 4.2762-3.3504 4.5556-5.818 9.695-7.29 15.0409z" fill="#2d3b45" fill-rule="evenodd"/><path d="m8.1108 87.1039c1.57845.5328 3.0469.7675 4.3586.8256 1.3117-4.7636 3.4138-9.3632 6.2267-13.5319.6922.326 1.3624.656 2.0179.9787.3523.1734.7004.3448 1.0454.5123-3.3504 4.5557-5.818 9.695-7.29 15.0409-1.3117-.0581-2.7802-.2928-4.3586-.8256-3.35194-1.1319-4.94124-3.2507-5.73574-5.2042.906.8786 2.11476 1.6568 3.73574 2.2042z" fill="#28343d"/><path clip-rule="evenodd" d="m15.4694 91.9295c-1.3117-.0582-2.7802-.2928-4.3586-.8256-6.06977-2.0497-6.35972-7.3353-6.61665-9.0163-.25694-1.6811-.29205-10.7553 6.91725-9.4752 4.656.8267 8.137 2.7167 11.348 4.2762-3.3504 4.5556-5.818 9.695-7.29 15.0409z" fill-rule="evenodd" stroke="#152633" stroke-width="2"/><path clip-rule="evenodd" d="m12.7887 100.223c0 20.023 17.2105 30.725 40.8704 30.725 23.6598 0 42.84-12.083 42.84-30.035 0-22.3076-19.1802-43.844-42.84-43.844-23.6599 0-40.8704 22.0946-40.8704 43.154z" fill="#fff" fill-rule="evenodd"/><path d="m39.4557 129.49c4.3685.968 9.1381 1.458 14.2034 1.458 23.6598 0 42.84-12.083 42.84-30.035 0-21.2326-17.3761-41.7666-39.4524-43.6963 19.1444 4.7374 33.4524 23.4292 33.4524 42.6964 0 17.9519-19.1802 30.0349-42.84 30.0349-2.8331 0-5.5737-.153-8.2034-.458z" fill="#ededed"/><path clip-rule="evenodd" d="m12.7887 100.223c0 20.023 17.2105 30.725 40.8704 30.725 23.6598 0 42.84-12.083 42.84-30.035 0-22.3076-19.1802-43.844-42.84-43.844-23.6599 0-40.8704 22.0946-40.8704 43.154z" fill-rule="evenodd" stroke="#152633" stroke-width="2"/><path clip-rule="evenodd" d="m85.2565 93.3627c1.5736-.6528 3.2593-1.5904 4.9471-2.9403 6.4899-5.192 5.1919-13.8452 4.7592-16.0085-.4326-2.1633-3.0286-12.5472-11.2491-7.7879-5.3092 3.0736-8.3683 6.8342-11.5907 10.1601 5.3476 4.5454 11.5907 12.2994 13.1335 16.5766z" fill="#2d3b45" fill-rule="evenodd"/><path d="m83.9036 90.5892c.5955 1.0197 1.0593 1.9596 1.3529 2.7736 1.5736-.6529 3.2593-1.5905 4.9471-2.9404 6.4899-5.1919 5.1919-13.8452 4.7592-16.0085-.3224-1.6122-1.8463-7.7899-6.0043-8.8631 1.9443 2.2866 2.7759 5.7209 3.0043 6.8631.4327 2.1633 1.7307 10.8166-4.7592 16.0085-1.1114.8889-2.2219 1.599-3.3 2.1668z" fill="#28343d"/><path clip-rule="evenodd" d="m85.2565 93.3627c1.5736-.6528 3.2593-1.5904 4.9471-2.9403 6.4899-5.192 5.1919-13.8452 4.7592-16.0085-.4326-2.1633-3.0286-12.5472-11.2491-7.7879-5.3092 3.0736-8.3683 6.8342-11.5907 10.1601 5.3476 4.5454 11.5907 12.2994 13.1335 16.5766z" fill-rule="evenodd" stroke="#152633" stroke-width="2"/><path d="m48.6005 161.703c.056.899.5843 1.743 1.4578 2.165 1.0105.49 2.1838.271 2.9488-.461.7651.732 1.9383.951 2.9488.461 1.0022-.485 1.55-1.524 1.4515-2.564 1.0463-.137 1.9465-.901 2.1979-1.982.2523-1.085-.224-2.168-1.1111-2.744.5499-.905.5021-2.092-.2068-2.961-.4784-.586-1.162-.91-1.8653-.953.0312.518-.0943 1.04-.3689 1.492.8871.576 1.3635 1.659 1.1111 2.744-.2513 1.08-1.1515 1.845-2.1978 1.981.0985 1.041-.4493 2.08-1.4515 2.565-1.0105.489-2.1837.27-2.9488-.462-.5247.502-1.2413.763-1.9657.719z" fill="#ededed"/><path clip-rule="evenodd" d="m50.2103 152.767c.3013-.813 1.0834-1.392 2.0008-1.392s1.6996.579 2.0009 1.392c.8175-.269 1.7518-.025 2.3256.684.5809.717.62 1.697.1694 2.444.7269.476 1.1172 1.37.9104 2.266-.2059.892-.9435 1.523-1.8008 1.636.0807.859-.3681 1.717-1.1893 2.117-.828.404-1.7893.223-2.4162-.381-.6268.604-1.5882.785-2.4161.381-.8212-.4-1.27-1.258-1.1893-2.117-.8573-.113-1.5949-.744-1.8009-1.636-.2068-.896.1836-1.79.9104-2.266-.4506-.747-.4114-1.727.1695-2.444.5738-.709 1.508-.953 2.3256-.684z" fill="#2d3b45" fill-rule="evenodd"/><path d="m48.6005 160.127c.0459.742.4788 1.438 1.1945 1.787.8279.404 1.7893.223 2.4161-.381.6269.604 1.5882.785 2.4162.381.8211-.4 1.27-1.258 1.1892-2.117.8574-.113 1.595-.744 1.8009-1.636.2068-.896-.1835-1.79-.9104-2.266.4506-.747.4115-1.727-.1694-2.444-.392-.484-.9521-.752-1.5284-.787.0256.427-.0773.858-.3022 1.231.7269.476 1.1172 1.37.9104 2.266-.2059.892-.9435 1.523-1.8009 1.636.0808.859-.3681 1.717-1.1892 2.117-.828.404-1.7893.223-2.4162-.381-.4299.414-1.017.63-1.6106.594z" fill="#28343d"/><path clip-rule="evenodd" d="m50.2103 152.767c.3013-.813 1.0834-1.392 2.0008-1.392s1.6996.579 2.0009 1.392c.8175-.269 1.7518-.025 2.3256.684.5809.717.62 1.697.1694 2.444.7269.476 1.1172 1.37.9104 2.266-.2059.892-.9435 1.523-1.8008 1.636.0807.859-.3681 1.717-1.1893 2.117-.828.404-1.7893.223-2.4162-.381-.6268.604-1.5882.785-2.4161.381-.8212-.4-1.27-1.258-1.1893-2.117-.8573-.113-1.5949-.744-1.8009-1.636-.2068-.896.1836-1.79.9104-2.266-.4506-.747-.4114-1.727.1695-2.444.5738-.709 1.508-.953 2.3256-.684z" fill-rule="evenodd" stroke="#152633" stroke-width="2"/></svg>