<svg viewBox="0 0 216 231" fill="none" xmlns="http://www.w3.org/2000/svg">
<path fill-rule="evenodd" clip-rule="evenodd" d="M11.7241 7.35716H207.724V123.357H11.7241V7.35716Z" fill="#FFD960" stroke="#152633" stroke-width="2"/>
<path fill-rule="evenodd" clip-rule="evenodd" d="M20.288 13.3572H199.16C200.052 13.3572 200.375 13.45 200.701 13.6243C201.027 13.7986 201.283 14.0544 201.457 14.3803C201.631 14.7062 201.724 15.0295 201.724 15.921V114.793C201.724 115.685 201.631 116.008 201.457 116.334C201.283 116.66 201.027 116.916 200.701 117.09C200.375 117.264 200.052 117.357 199.16 117.357H20.288C19.3965 117.357 19.0732 117.264 18.7473 117.09C18.4214 116.916 18.1656 116.66 17.9913 116.334C17.8169 116.008 17.7241 115.685 17.7241 114.793V15.921C17.7241 15.0295 17.8169 14.7062 17.9913 14.3803C18.1656 14.0544 18.4214 13.7986 18.7473 13.6243C19.0732 13.45 19.3965 13.3572 20.288 13.3572Z" fill="white" stroke="#152633" stroke-width="2"/>
<path fill-rule="evenodd" clip-rule="evenodd" d="M64.7241 21.3572H81.2241L82.7241 22.3572L83.7241 21.3572H88.7241V45.3572H64.7241V21.3572Z" fill="white" stroke="#152633" stroke-width="2"/>
<path d="M78.5962 37.3572L78.063 35.4997H75.2974L74.7583 37.3572H72.5669L75.4087 28.9021H78.0396L80.8813 37.3572H78.5962ZM76.6567 30.6951L75.7134 33.9529H77.6411L76.7036 30.6951H76.6567Z" fill="#C51717"/>
<path fill-rule="evenodd" clip-rule="evenodd" d="M70.2241 23.8572L71.6571 19.1072L70.2241 23.8572Z" stroke="#152633" stroke-width="2" stroke-linecap="round" stroke-linejoin="round"/>
<path fill-rule="evenodd" clip-rule="evenodd" d="M69.4921 20.3572C70.1824 21.5529 71.7114 21.9626 72.9072 21.2722C74.1029 20.5819 74.5126 19.0529 73.8222 17.8572C73.1319 16.6614 71.6029 16.2517 70.4072 16.9421C69.2114 17.6325 68.8017 19.1614 69.4921 20.3572Z" fill="white" stroke="#152633" stroke-width="2"/>
<path fill-rule="evenodd" clip-rule="evenodd" d="M37.0639 19.5318L59.156 10.1543L62.2151 16.3609L62.0871 19.4153L64.139 21.8933L68.5336 32.2464L52.76 38.9419L49.1293 38.634L45.4415 42.6239L44.5928 34.9129L42.7208 32.8585L37.0639 19.5318Z" fill="white" stroke="#152633" stroke-width="2"/>
<path d="M50.7009 19.5889L56.6279 17.3572" stroke="#152633" stroke-width="2"/>
<path d="M50.7009 23.5889L55.2485 22.6296L58.6279 20.3572" stroke="#152633" stroke-width="2"/>
<path d="M53.7239 27.3572L60.8165 23.8862" stroke="#152633" stroke-width="2"/>
<path d="M47.2292 26.0208L49.6919 26.7737C51.5242 27.3339 52.275 28.726 51.684 30.6592C51.0917 32.5965 49.666 33.3968 47.8379 32.8379L45.3752 32.085L47.2292 26.0208ZM48.3913 27.7362L47.2979 31.3126L48.0165 31.5323C49.0209 31.8394 49.7451 31.3945 50.1151 30.1841C50.4633 29.0453 50.0849 28.254 49.1099 27.956L48.3913 27.7362ZM55.1283 33.0862L54.6131 34.7714L53.2977 34.3693L53.8129 32.6841L52.2075 32.1933L52.5994 30.9115L54.2048 31.4023L54.72 29.7171L56.0354 30.1192L55.5202 31.8044L57.1213 32.294L56.7294 33.5757L55.1283 33.0862Z" fill="#C51717"/>
<path fill-rule="evenodd" clip-rule="evenodd" d="M48.2241 24.8572L44.2241 21.8572L48.2241 24.8572Z" stroke="#152633" stroke-width="2" stroke-linecap="round" stroke-linejoin="round"/>
<path fill-rule="evenodd" clip-rule="evenodd" d="M42.7201 23.8543C43.8228 24.6853 45.3903 24.465 46.2213 23.3623C47.0522 22.2596 46.8319 20.6921 45.7292 19.8612C44.6265 19.0302 43.059 19.2505 42.2281 20.3532C41.3972 21.4559 41.6175 23.0234 42.7201 23.8543Z" fill="white" stroke="#152633" stroke-width="2"/>
<path fill-rule="evenodd" clip-rule="evenodd" d="M14.7241 15.1077H31.2241L32.7241 16.1077L33.7241 15.1077H38.7241V39.1077H14.7241V15.1077Z" fill="white" stroke="#152633" stroke-width="2"/>
<path d="M16.7241 24.3572L28.2241 22.8572L33.7241 23.3572" stroke="#152633" stroke-width="2"/>
<path d="M18.7241 28.3572L25.2241 26.8572L33.7241 27.3572" stroke="#152633" stroke-width="2"/>
<path d="M27.4999 35.7474L24.6547 36.7829L22.4858 30.8241L25.2567 29.8155C26.4295 29.3887 27.3416 29.6974 27.6768 30.6183C27.9202 31.2873 27.6103 32.0033 26.9827 32.3347L26.9947 32.3677C27.8135 32.1118 28.6674 32.4791 28.9559 33.272C29.3362 34.3167 28.7759 35.2829 27.4999 35.7474ZM24.3922 31.3461L24.8851 32.7006L25.6656 32.4165C26.2148 32.2166 26.4505 31.8362 26.2942 31.4068C26.1424 30.9897 25.7549 30.8501 25.247 31.035L24.3922 31.3461ZM25.7794 35.1577L26.6797 34.83C27.3032 34.603 27.5509 34.2042 27.3675 33.7004C27.1902 33.2132 26.7358 33.0699 26.1123 33.2968L25.2203 33.6215L25.7794 35.1577Z" fill="#C51717"/>
<path fill-rule="evenodd" clip-rule="evenodd" d="M26.2241 18.3572L24.7241 13.8572L26.2241 18.3572Z" stroke="#152633" stroke-width="2" stroke-linecap="round" stroke-linejoin="round"/>
<path fill-rule="evenodd" clip-rule="evenodd" d="M22.4921 15.1077C23.1824 16.3035 24.7114 16.7132 25.9072 16.0228C27.1029 15.3325 27.5126 13.8035 26.8222 12.6077C26.1319 11.412 24.6029 11.0023 23.4072 11.6927C22.2114 12.383 21.8017 13.912 22.4921 15.1077Z" fill="white" stroke="#152633" stroke-width="2"/>
<path fill-rule="evenodd" clip-rule="evenodd" d="M42.724 95.1077L57.724 95.8572L64.724 95.1077V97.8572L66.724 98.3572V119.108H42.724L42.4617 102.693L43.724 96.8572L42.724 95.1077Z" fill="white" stroke="#152633" stroke-width="2"/>
<path d="M53.9065 111.108L53.3733 109.25H50.6077L50.0686 111.108H47.8772L50.719 102.653H53.3499L56.1917 111.108H53.9065ZM51.967 104.446L51.0237 107.703H52.9514L52.0139 104.446H51.967ZM60.9788 108.559H57.1233V106.778H60.9788V108.559Z" fill="#C51717"/>
<path fill-rule="evenodd" clip-rule="evenodd" d="M56.4705 98.6355L55.1962 93.495L56.4705 98.6355Z" stroke="#152633" stroke-width="2" stroke-linecap="round" stroke-linejoin="round"/>
<path fill-rule="evenodd" clip-rule="evenodd" d="M52.4918 94.1077C53.1822 95.3035 54.7112 95.7132 55.9069 95.0228C57.1026 94.3325 57.5123 92.8035 56.822 91.6077C56.1316 90.412 54.6026 90.0023 53.4069 90.6927C52.2112 91.383 51.8015 92.912 52.4918 94.1077Z" fill="white" stroke="#152633" stroke-width="2"/>
<path fill-rule="evenodd" clip-rule="evenodd" d="M121.714 10.115L141.732 13.7366L137.629 35.1107L116.99 30.5767L121.714 10.115Z" fill="white" stroke="#152633" stroke-width="2"/>
<path d="M123.12 28.0077C121.998 27.3602 121.7 26.2712 122.397 25.0635C123.094 23.8558 124.188 23.5736 125.307 24.2196C126.273 24.7777 126.641 25.8288 126.119 26.7386L125.089 26.1439C125.304 25.7131 125.192 25.2798 124.819 25.0645C124.377 24.8096 123.873 25.0392 123.495 25.6938C123.112 26.356 123.163 26.9064 123.61 27.1642C123.98 27.3781 124.406 27.2619 124.684 26.8572L125.714 27.452C125.181 28.3624 124.107 28.5775 123.12 28.0077ZM127.868 29.2639L127.289 30.2661L126.376 29.7388L126.954 28.7366L126.003 28.1873L126.513 27.3043L127.464 27.8537L128.043 26.8515L128.956 27.3788L128.378 28.381L129.329 28.9303L128.819 29.8133L127.868 29.2639Z" fill="#C51717"/>
<path fill-rule="evenodd" clip-rule="evenodd" d="M126.389 14.0713L126.474 8.92415L126.389 14.0713Z" stroke="#152633" stroke-width="2" stroke-linecap="round" stroke-linejoin="round"/>
<path fill-rule="evenodd" clip-rule="evenodd" d="M125.224 11.0892C126.42 11.7796 127.949 11.3699 128.639 10.1742C129.329 8.97842 128.92 7.44945 127.724 6.75909C126.528 6.06873 124.999 6.47842 124.309 7.67415C123.619 8.86989 124.028 10.3989 125.224 11.0892Z" fill="white" stroke="#152633" stroke-width="2"/>
<path d="M124.224 17.3572L131.724 18.8572" stroke="#152633" stroke-width="2"/>
<path d="M124.224 20.3572L131.724 21.8572" stroke="#152633" stroke-width="2"/>
<path fill-rule="evenodd" clip-rule="evenodd" d="M189.27 107.52L209.257 103.727L213.085 125.152L192.193 128.316L189.27 107.52Z" fill="white" stroke="#152633" stroke-width="2"/>
<path fill-rule="evenodd" clip-rule="evenodd" d="M195.053 109.538L193.287 104.702L195.053 109.538Z" stroke="#152633" stroke-width="2" stroke-linecap="round" stroke-linejoin="round"/>
<path fill-rule="evenodd" clip-rule="evenodd" d="M192.896 107.172C194.26 107.388 195.541 106.457 195.757 105.093C195.973 103.73 195.042 102.449 193.678 102.233C192.315 102.017 191.034 102.948 190.818 104.311C190.602 105.675 191.532 106.956 192.896 107.172Z" fill="white" stroke="#152633" stroke-width="2"/>
<path d="M194.209 113.382L201.748 112.094" stroke="#152633" stroke-width="2"/>
<path d="M193.417 116.899L200.956 115.612" stroke="#152633" stroke-width="2"/>
<path d="M195.784 120.275L203.682 119.921" stroke="#152633" stroke-width="2"/>
<path d="M206.591 117.912L204.116 117.52L204.888 112.648L207.281 113.027C208.277 113.185 208.789 113.733 208.669 114.493C208.58 115.053 208.088 115.408 207.513 115.39L207.509 115.417C208.164 115.538 208.636 116.121 208.534 116.766C208.399 117.62 207.634 118.077 206.591 117.912ZM206.164 113.857L206.01 114.826L206.564 114.914C206.932 114.972 207.192 114.816 207.238 114.523C207.286 114.222 207.099 114.006 206.738 113.948L206.164 113.857ZM205.703 116.764L206.314 116.861C206.757 116.931 207.041 116.772 207.1 116.404C207.155 116.056 206.93 115.813 206.502 115.745L205.88 115.647L205.703 116.764Z" fill="#C51717"/>
<path fill-rule="evenodd" clip-rule="evenodd" d="M92.4481 12.0486L113.467 16.6702L111.893 18.657L112.64 20.9731L110.191 22.315L110.917 28.9502L108.492 31.1636L109.001 33.719L108.363 37.0442L87.7241 32.5103L92.4481 12.0486Z" fill="white" stroke="#152633" stroke-width="2"/>
<path d="M99.3497 30.0636L96.8504 30.2384L96.5063 25.3183L98.9238 25.1492C99.9296 25.0789 100.552 25.4979 100.605 26.2651C100.645 26.8311 100.245 27.2873 99.6807 27.3988L99.6826 27.426C100.349 27.3966 100.939 27.859 100.985 28.5102C101.045 29.3728 100.403 29.9899 99.3497 30.0636ZM98.0214 26.2094L98.0898 27.1879L98.649 27.1488C99.0207 27.1228 99.2389 26.9123 99.2182 26.6156C99.197 26.3122 98.9659 26.1433 98.6011 26.1688L98.0214 26.2094ZM98.2267 29.1451L98.8438 29.1019C99.2905 29.0707 99.5322 28.8516 99.5062 28.48C99.4816 28.1288 99.2082 27.9423 98.7752 27.9726L98.1478 28.0165L98.2267 29.1451Z" fill="#C51717"/>
<path fill-rule="evenodd" clip-rule="evenodd" d="M105.724 17.3572L107.208 12.8577L105.724 17.3572Z" stroke="#152633" stroke-width="2" stroke-linecap="round" stroke-linejoin="round"/>
<path fill-rule="evenodd" clip-rule="evenodd" d="M105.958 15.0228C107.154 15.7132 108.683 15.3035 109.373 14.1077C110.064 12.912 109.654 11.383 108.458 10.6927C107.262 10.0023 105.733 10.412 105.043 11.6077C104.353 12.8035 104.762 14.3325 105.958 15.0228Z" fill="white" stroke="#152633" stroke-width="2"/>
<path d="M94.9583 19.2908L102.458 20.7908" stroke="#152633" stroke-width="2"/>
<path fill-rule="evenodd" clip-rule="evenodd" d="M180.409 39.9371L193.554 24.4114L210.013 38.6525L195.767 54.2591L180.409 39.9371Z" fill="white" stroke="#152633" stroke-width="2"/>
<path fill-rule="evenodd" clip-rule="evenodd" d="M195.724 30.8571L198.133 25.8742L195.724 30.8571Z" stroke="#152633" stroke-width="2" stroke-linecap="round" stroke-linejoin="round"/>
<path fill-rule="evenodd" clip-rule="evenodd" d="M199.506 28.4478C200.702 27.7574 201.112 26.2285 200.421 25.0327C199.731 23.837 198.202 23.4273 197.006 24.1177C195.81 24.808 195.401 26.337 196.091 27.5327C196.782 28.7285 198.31 29.1381 199.506 28.4478Z" fill="white" stroke="#152633" stroke-width="2"/>
<path d="M195.656 42.062L194.944 41.3406L193.641 42.0926L193.91 43.0703L192.631 43.8085L191.559 38.7323L193.134 37.8231L196.994 41.2895L195.656 42.062ZM192.874 39.2873L193.358 41.0759L194.205 40.5871L192.898 39.2736L192.874 39.2873ZM198.729 38.6541L196.778 39.7804L196.183 38.7503L198.134 37.624L198.729 38.6541Z" fill="#C51717"/>
<path fill-rule="evenodd" clip-rule="evenodd" d="M186.172 37.8664L181.757 35.2193L186.172 37.8664Z" stroke="#152633" stroke-width="2" stroke-linecap="round" stroke-linejoin="round"/>
<path fill-rule="evenodd" clip-rule="evenodd" d="M183.007 37.3844C184.203 36.694 184.613 35.1651 183.922 33.9693C183.232 32.7736 181.703 32.3639 180.507 33.0543C179.311 33.7446 178.902 35.2736 179.592 36.4693C180.282 37.6651 181.811 38.0748 183.007 37.3844Z" fill="white" stroke="#152633" stroke-width="2"/>
<path fill-rule="evenodd" clip-rule="evenodd" d="M191.628 57.8944L197.049 60.4188L200.443 58.7471L210.886 59.7575L208.661 78.4079L190.706 77.69L191.628 57.8944Z" fill="white" stroke="#152633" stroke-width="2"/>
<path d="M199.583 72.0935C197.648 72.2628 196.345 71.1813 196.162 69.0975C195.98 67.0137 197.08 65.7263 199.011 65.5574C200.679 65.4115 202.035 66.3869 202.176 67.9538L200.399 68.1093C200.292 67.3951 199.782 66.9589 199.139 67.0152C198.377 67.0819 197.954 67.7982 198.053 68.9277C198.153 70.0703 198.689 70.7027 199.46 70.6353C200.099 70.5794 200.522 70.0704 200.515 69.3343L202.292 69.1788C202.421 70.7556 201.286 71.9445 199.583 72.0935Z" fill="#C51717"/>
<path fill-rule="evenodd" clip-rule="evenodd" d="M203.63 62.4281L206.267 58.2932L203.63 62.4281Z" stroke="#152633" stroke-width="2" stroke-linecap="round" stroke-linejoin="round"/>
<path fill-rule="evenodd" clip-rule="evenodd" d="M205.21 60.559C206.461 61.1425 207.949 60.6011 208.532 59.3497C209.116 58.0984 208.574 56.6109 207.323 56.0274C206.072 55.4439 204.584 55.9853 204.001 57.2366C203.417 58.488 203.959 59.9755 205.21 60.559Z" fill="white" stroke="#152633" stroke-width="2"/>
<path fill-rule="evenodd" clip-rule="evenodd" d="M58.1273 49.6431L82.7044 50.5908L82.6273 71.1431L58.1273 72.6431L58.1273 49.6431Z" fill="white" stroke="#152633" stroke-width="2"/>
<path d="M62.1267 59.2649L70.3765 59.0336" stroke="#152633" stroke-width="2"/>
<path d="M62.1267 63.2649L67.3879 63.2951" stroke="#152633" stroke-width="2"/>
<path d="M73.8272 67.4014L73.4863 66.4465L71.9882 66.5776L71.8183 67.5772L70.3473 67.7059L71.5212 62.6522L73.3327 62.4937L75.3663 67.2668L73.8272 67.4014ZM72.4785 63.711L72.1613 65.5366L73.1351 65.4514L72.5057 63.7086L72.4785 63.711ZM78.052 65.6113L75.8082 65.8077L75.7045 64.6227L77.9484 64.4264L78.052 65.6113Z" fill="#C51717"/>
<path fill-rule="evenodd" clip-rule="evenodd" d="M77.2239 54.8572L77.2239 50.3572L77.2239 54.8572Z" stroke="#152633" stroke-width="2" stroke-linecap="round" stroke-linejoin="round"/>
<path fill-rule="evenodd" clip-rule="evenodd" d="M76.028 52.3923C77.2794 52.9758 78.7668 52.4344 79.3503 51.183C79.9338 49.9317 79.3925 48.4442 78.1411 47.8607C76.8898 47.2772 75.4023 47.8186 74.8188 49.0699C74.2353 50.3213 74.7767 51.8087 76.028 52.3923Z" fill="white" stroke="#152633" stroke-width="2"/>
<path fill-rule="evenodd" clip-rule="evenodd" d="M127.169 57.6431L151.746 58.5908L151.669 81.1431L127.169 80.6431L127.169 57.6431Z" fill="white" stroke="#152633" stroke-width="2"/>
<path d="M138.289 71.5397L135.437 71.7892L134.945 66.1739L137.704 65.9326C138.852 65.8321 139.571 66.2986 139.648 67.1741C139.705 67.8201 139.257 68.3494 138.614 68.488L138.617 68.5191C139.377 68.4722 140.062 68.9887 140.127 69.732C140.213 70.7165 139.491 71.4345 138.289 71.5397ZM136.694 67.162L136.792 68.2788L137.43 68.223C137.854 68.1859 138.1 67.9409 138.07 67.6024C138.04 67.256 137.772 67.0677 137.356 67.1041L136.694 67.162ZM136.987 70.5125L137.692 70.4508C138.202 70.4062 138.473 70.1511 138.436 69.727C138.401 69.3261 138.085 69.1185 137.591 69.1618L136.875 69.2244L136.987 70.5125ZM143.732 69.4401L143.867 70.9772L142.466 71.0997L142.331 69.5626L140.872 69.6903L140.754 68.3361L142.213 68.2084L142.078 66.6713L143.479 66.5488L143.614 68.0859L145.073 67.9582L145.191 69.3124L143.732 69.4401Z" fill="#C51717"/>
<path fill-rule="evenodd" clip-rule="evenodd" d="M146.266 62.8572L146.266 58.3572L146.266 62.8572Z" stroke="#152633" stroke-width="2" stroke-linecap="round" stroke-linejoin="round"/>
<path fill-rule="evenodd" clip-rule="evenodd" d="M145.07 60.3923C146.321 60.9758 147.809 60.4344 148.392 59.183C148.976 57.9317 148.434 56.4442 147.183 55.8607C145.932 55.2772 144.444 55.8186 143.861 57.0699C143.277 58.3213 143.818 59.8087 145.07 60.3923Z" fill="white" stroke="#152633" stroke-width="2"/>
<path fill-rule="evenodd" clip-rule="evenodd" d="M129.884 48.3043L144.714 41.0712L146.5 41.3124L146.961 39.9752L151.455 37.7834L157.592 50.3665L157.11 53.9396L160.222 55.7593L159.762 57.0964L161.099 57.5569L161.976 59.3544L154.785 62.8614L146.729 63.4528L145.37 65.2283L143.562 67.2231L139.769 66.2912L138.673 64.0442L136.898 62.685L131.418 51.4501L131.659 49.6635L129.884 48.3043Z" fill="white" stroke="#152633" stroke-width="2"/>
<path fill-rule="evenodd" clip-rule="evenodd" d="M138.685 46.3714L139.129 41.2428L138.685 46.3714Z" stroke="#152633" stroke-width="2" stroke-linecap="round" stroke-linejoin="round"/>
<path fill-rule="evenodd" clip-rule="evenodd" d="M137.731 43.3154C138.876 44.0874 140.429 43.7854 141.201 42.6408C141.974 41.4961 141.672 39.9423 140.527 39.1702C139.382 38.3981 137.828 38.7001 137.056 39.8448C136.284 40.9895 136.586 42.5433 137.731 43.3154Z" fill="white" stroke="#152633" stroke-width="2"/>
<path d="M137.424 54.64L142.817 52.0097L148.21 49.3795" stroke="#152633" stroke-width="2"/>
<path d="M135.671 51.0448L138.817 49.5105L141.962 47.9762" stroke="#152633" stroke-width="2"/>
<path d="M140.931 57.8303L147.223 54.7617L153.514 51.6931" stroke="#152633" stroke-width="2"/>
<path d="M145.1 44.17L147.204 44.3171C148.698 44.4215 149.514 45.3318 149.404 46.907C149.294 48.4823 148.35 49.3414 146.86 49.2372L144.756 49.0901L145.1 44.17ZM146.466 45.4201L146.282 48.0421L146.736 48.0738C147.459 48.1244 147.868 47.711 147.931 46.804C147.989 45.9755 147.611 45.5002 146.919 45.4518L146.466 45.4201Z" fill="#C51717"/>
<path fill-rule="evenodd" clip-rule="evenodd" d="M34.7397 36.9029L41.724 42.3572L44.2159 47.9179L43.7587 49.6617L45.3554 51.2272L44.1155 53.7693L46.6577 55.0092L49.2622 62.5734L48.0223 65.1156L49.7818 67.1538L49.4874 69.3704L51.4096 71.8814L52.6807 72.5013L54.7969 78.6472L53.557 81.1894L23.7731 91.4448L20.3084 91.2626L19.9339 89.3221L18.216 89.1278L15.8366 88.3606L11.9298 77.0144L13.0069 73.9995L10.4648 72.7596L10.7592 70.543L8.67415 67.5592L2 48.1761L34.7397 36.9029Z" fill="white" stroke="#152633" stroke-width="2"/>
<path d="M34.7241 36.8572L36.2241 43.8572L42.2241 42.3572" stroke="#152633" stroke-width="2"/>
<path d="M10.7241 58.8572L18.2241 56.3572" stroke="#152633" stroke-width="2"/>
<path d="M12.7241 65.3572L20.2241 62.8572L24.7241 61.8572L28.2241 59.8572L33.7241 58.3572" stroke="#152633" stroke-width="2"/>
<path d="M14.7241 69.3572L21.2241 67.8572L30.2241 63.8572L38.2241 62.3572" stroke="#152633" stroke-width="2"/>
<path d="M16.7241 74.3572L24.2241 71.8572L31.7241 69.3572L43.2241 65.8572" stroke="#152633" stroke-width="2"/>
<path d="M18.7241 79.3572L24.7241 78.3572L34.2241 73.8572L39.7241 72.3572" stroke="#152633" stroke-width="2"/>
<path d="M21.7241 85.3572L29.2241 82.8572" stroke="#152633" stroke-width="2"/>
<path d="M28.7241 45.3572L26.2241 40.8572" stroke="#152633" stroke-width="2" stroke-linecap="round"/>
<path d="M26.2241 43.3572C27.6048 43.3572 28.7241 42.2379 28.7241 40.8572C28.7241 39.4765 27.6048 38.3572 26.2241 38.3572C24.8434 38.3572 23.7241 39.4765 23.7241 40.8572C23.7241 42.2379 24.8434 43.3572 26.2241 43.3572Z" fill="white" stroke="#152633" stroke-width="2"/>
<path d="M40.3761 81.2414L38.0754 83.9832L32.678 79.4542L34.9033 76.8022C35.8291 75.6987 36.8771 75.4754 37.7187 76.1816C38.3396 76.7026 38.4117 77.5662 37.9661 78.2568L37.996 78.2819C38.6267 77.5682 39.6882 77.4198 40.4026 78.0193C41.3489 78.8134 41.3459 80.0856 40.3761 81.2414ZM35.0972 78.7815L36.1707 79.6823L36.6855 79.0689C37.0276 78.6612 37.0278 78.2279 36.7024 77.9549C36.3695 77.6755 35.9666 77.7454 35.6308 78.1457L35.0972 78.7815ZM38.3177 81.4839L38.8858 80.8069C39.297 80.3169 39.3117 79.8512 38.904 79.5091C38.5187 79.1858 38.0558 79.2817 37.6572 79.7568L37.0797 80.445L38.3177 81.4839ZM43.0458 74.9149L40.9775 77.3798L39.6758 76.2876L41.7441 73.8226L43.0458 74.9149Z" fill="#C51717"/>
<path fill-rule="evenodd" clip-rule="evenodd" d="M188.724 64.3572L194.84 79.2693L198.746 90.6156L198.224 92.8572L200.211 94.8704L200.224 99.3572L202.724 100.357L205.724 106.857L172.224 118.857L169.724 112.357L166.224 102.857L163.224 94.3572L156.224 75.8572L188.724 64.3572Z" fill="white" stroke="#152633" stroke-width="2"/>
<path d="M163.448 84.3572L170.948 81.8572" stroke="#152633" stroke-width="2"/>
<path d="M165.448 89.3572L178.948 84.8572" stroke="#152633" stroke-width="2"/>
<path d="M167.448 93.8572L174.948 91.3572L179.448 90.3572L182.948 88.3572L188.448 86.8572" stroke="#152633" stroke-width="2"/>
<path d="M169.448 98.8572L175.448 97.8572L184.948 93.3572L190.448 91.8572" stroke="#152633" stroke-width="2"/>
<path d="M180.717 108.298L179.834 107.548L178.426 108.533L178.829 109.62L177.447 110.588L175.721 104.915L177.423 103.723L182.163 107.285L180.717 108.298ZM177.273 105.416L178.002 107.404L178.918 106.763L177.299 105.398L177.273 105.416ZM184.167 103.908L185.052 105.172L183.9 105.979L183.015 104.715L181.815 105.555L181.035 104.441L182.235 103.601L181.35 102.337L182.502 101.531L183.387 102.795L184.587 101.954L185.367 103.068L184.167 103.908Z" fill="#C51717"/>
<path fill-rule="evenodd" clip-rule="evenodd" d="M126.149 39.607L133.568 52.6918L132.727 55.306L119.146 87.9801L89.4477 76.2678L86.8697 73.9458L84.448 71.8572L85.2208 68.8763L89.3251 57.6L90.8642 53.3714L92.7453 48.2031L99.7567 28.9394L126.149 39.607Z" fill="white" stroke="#152633" stroke-width="2"/>
<path d="M125.76 39.2923L125.63 48.1936L133.568 52.6918" stroke="#152633" stroke-width="2"/>
<path d="M99.8146 42.7303L107.217 45.5074" stroke="#152633" stroke-width="2"/>
<path d="M97.4263 50.4469L104.828 53.2239L118.152 58.2226" stroke="#152633" stroke-width="2"/>
<path d="M95.6861 54.1848L118.354 63.5338" stroke="#152633" stroke-width="2"/>
<path d="M94.0938 59.3292L108.756 65.3762" stroke="#152633" stroke-width="2"/>
<path d="M92.5014 64.4735L99.9033 67.2506" stroke="#152633" stroke-width="2"/>
<path d="M104.239 34.0888L105.128 29.0184" stroke="#152633" stroke-width="2" stroke-linecap="round"/>
<path d="M103.555 30.9612C104.628 31.8301 106.202 31.6647 107.071 30.5916C107.94 29.5186 107.774 27.9444 106.701 27.0755C105.628 26.2066 104.054 26.372 103.185 27.445C102.316 28.5181 102.482 30.0923 103.555 30.9612Z" fill="white" stroke="#152633" stroke-width="2"/>
<path d="M116.659 48.9139L117.018 47.5107L115.139 46.4691L114.14 47.5172L112.295 46.4946L117.722 41.4471L119.994 42.7064L118.59 49.9839L116.659 48.9139ZM118.01 43.4657L116.176 45.3745L117.397 46.0515L118.044 43.4847L118.01 43.4657Z" fill="#C51717"/>
<path fill-rule="evenodd" clip-rule="evenodd" d="M131.11 87.3837L139.907 92.7855L139.735 125.481L97.7428 122.674L100.082 86.7052L131.11 87.3837Z" fill="white" stroke="#152633" stroke-width="2"/>
<path d="M130.637 87.2209L133.559 95.6302L138.967 93.1276" stroke="#152633" stroke-width="2"/>
<path d="M102.647 97.8745L110.553 97.9525" stroke="#152633" stroke-width="2"/>
<path d="M125.507 119.871L133.413 119.949" stroke="#152633" stroke-width="2"/>
<path d="M102.358 104.063L109.921 103.202L113.944 104.178L124.493 104.282" stroke="#152633" stroke-width="2"/>
<path d="M101.404 109.453L125.902 110.485" stroke="#152633" stroke-width="2"/>
<path d="M107.733 116.88L123.579 117.548" stroke="#152633" stroke-width="2"/>
<path d="M107.996 122.259L115.902 122.337" stroke="#152633" stroke-width="2"/>
<path d="M108.634 89.692L107.735 84.6232" stroke="#152633" stroke-width="2" stroke-linecap="round"/>
<path d="M106.921 86.987C108.227 87.4365 109.649 86.7426 110.099 85.4371C110.548 84.1316 109.855 82.7089 108.549 82.2594C107.244 81.8099 105.821 82.5038 105.371 83.8093C104.922 85.1148 105.616 86.5375 106.921 86.987Z" fill="white" stroke="#152633" stroke-width="2"/>
<path d="M130.081 112.188L129.137 111.089L127.206 112.031L127.491 113.451L125.596 114.376L124.574 107.035L126.909 105.896L132.064 111.221L130.081 112.188ZM126.393 107.957L126.904 110.554L128.159 109.942L126.428 107.94L126.393 107.957ZM134.799 107.638L131.907 109.049L131.162 107.521L134.054 106.111L134.799 107.638Z" fill="#C51717"/>
<path fill-rule="evenodd" clip-rule="evenodd" d="M185.724 12.3572L187.224 50.3572L151.724 50.3572L151.724 40.8572L153.724 37.3572L150.224 31.3572L149.724 17.3572L157.724 11.3572L185.724 12.3572Z" fill="white" stroke="#152633" stroke-width="2"/>
<path d="M150.224 17.3572L156.224 17.3572L157.724 11.3572" stroke="#152633" stroke-width="2"/>
<path d="M155.67 23.2647L163.552 22.6534" stroke="#152633" stroke-width="2"/>
<path d="M156.766 29.2677L164.648 28.6563L178.836 27.556" stroke="#152633" stroke-width="2"/>
<path d="M156.769 33.3908L175.442 31.8323" stroke="#152633" stroke-width="2"/>
<path d="M158.231 44.0614L166.113 43.4501" stroke="#152633" stroke-width="2"/>
<path d="M179.224 16.3572L181.69 11.5919" stroke="#152633" stroke-width="2" stroke-linecap="round"/>
<path d="M181.085 14.0176C182.425 14.3517 183.782 13.5364 184.116 12.1967C184.45 10.857 183.635 9.50018 182.295 9.16616C180.955 8.83214 179.598 9.6474 179.264 10.9871C178.93 12.3268 179.746 13.6836 181.085 14.0176Z" fill="white" stroke="#152633" stroke-width="2"/>
<path d="M178.272 46.7852C176.119 46.6346 174.876 45.2213 175.038 42.9027C175.201 40.5842 176.632 39.3627 178.78 39.5129C180.636 39.6427 181.954 40.9487 181.837 42.6929L179.86 42.5546C179.867 41.7523 179.383 41.185 178.667 41.1349C177.819 41.0756 177.231 41.7883 177.143 43.045C177.054 44.3163 177.533 45.1035 178.39 45.1635C179.101 45.2132 179.654 44.7281 179.774 43.9191L181.752 44.0574C181.619 45.8103 180.166 46.9177 178.272 46.7852Z" fill="#C51717"/>
<path fill-rule="evenodd" clip-rule="evenodd" d="M80.1519 64.2165L96.0127 68.7645L97.1789 70.1392L98.4158 69.4536L103.222 70.8318L96.6068 93.9021L73.5366 87.2868L80.1519 64.2165Z" fill="white" stroke="#152633" stroke-width="2"/>
<path d="M84.9009 82.8499L81.6482 81.9172L83.5903 75.1443L86.7492 76.0501C88.1009 76.4377 88.7158 77.3048 88.4143 78.3562C88.2057 79.0837 87.485 79.5425 86.7386 79.4351L86.713 79.5243C87.5866 79.8256 88.0741 80.7121 87.8264 81.5757C87.4859 82.7632 86.3513 83.2658 84.9009 82.8499ZM84.9643 76.8539L84.5215 78.3981L85.4321 78.6592C86.061 78.8396 86.5106 78.6535 86.6479 78.1748C86.7865 77.6913 86.5273 77.3021 85.9406 77.1338L84.9643 76.8539ZM83.7194 81.1955L84.7614 81.4943C85.4748 81.6989 85.9546 81.4961 86.1188 80.9235C86.2776 80.3696 85.9674 79.9455 85.254 79.7409L84.2214 79.4448L83.7194 81.1955ZM92.4417 82.8229L91.902 84.7051L90.4329 84.2838L90.9726 82.4017L89.1796 81.8875L89.5901 80.456L91.3831 80.9701L91.9228 79.0879L93.3919 79.5092L92.8522 81.3914L94.6405 81.9041L94.23 83.3357L92.4417 82.8229Z" fill="#C51717"/>
<path fill-rule="evenodd" clip-rule="evenodd" d="M86.224 71.8572L87.5708 67.1241L86.224 71.8572Z" stroke="#152633" stroke-width="2" stroke-linecap="round" stroke-linejoin="round"/>
<path fill-rule="evenodd" clip-rule="evenodd" d="M85.1451 67.7289C85.4791 69.0686 86.8359 69.8839 88.1756 69.5498C89.5153 69.2158 90.3306 67.859 89.9965 66.5193C89.6625 65.1796 88.3057 64.3643 86.966 64.6984C85.6263 65.0324 84.811 66.3892 85.1451 67.7289Z" fill="white" stroke="#152633" stroke-width="2"/>
<path fill-rule="evenodd" clip-rule="evenodd" d="M156.724 43.1077L171.724 43.8572L178.724 43.1077V45.8572L180.724 46.3572V67.1077H156.724L156.462 50.6933L156.724 43.1077Z" fill="white" stroke="#152633" stroke-width="2"/>
<path d="M179.448 70.8572L176.948 66.3572" stroke="#152633" stroke-width="2" stroke-linecap="round"/>
<path d="M176.948 68.8572C178.329 68.8572 179.448 67.7379 179.448 66.3572C179.448 64.9765 178.329 63.8572 176.948 63.8572C175.567 63.8572 174.448 64.9765 174.448 66.3572C174.448 67.7379 175.567 68.8572 176.948 68.8572Z" fill="white" stroke="#152633" stroke-width="2"/>
<path d="M167.088 59.1077H163.724V52.0618H167C168.387 52.0618 169.222 52.7308 169.222 53.8197C169.222 54.6107 168.626 55.2406 167.845 55.348V55.387C168.797 55.431 169.549 56.139 169.549 57.0765C169.549 58.3118 168.597 59.1077 167.088 59.1077ZM165.516 53.3314V54.9329H166.439C167.088 54.9329 167.479 54.6253 167.479 54.1175C167.479 53.6243 167.127 53.3314 166.527 53.3314H165.516ZM165.516 57.8382H166.58C167.318 57.8382 167.728 57.5159 167.728 56.9202C167.728 56.3441 167.308 56.0218 166.571 56.0218H165.516V57.8382ZM173.621 56.9837H170.408V55.4993H173.621V56.9837Z" fill="#C51717"/>
<path fill-rule="evenodd" clip-rule="evenodd" d="M170.471 46.6355L169.196 41.495L170.471 46.6355Z" stroke="#152633" stroke-width="2" stroke-linecap="round" stroke-linejoin="round"/>
<path fill-rule="evenodd" clip-rule="evenodd" d="M166.492 42.1077C167.182 43.3035 168.711 43.7132 169.907 43.0228C171.103 42.3325 171.512 40.8035 170.822 39.6077C170.132 38.412 168.603 38.0023 167.407 38.6927C166.211 39.383 165.801 40.912 166.492 42.1077Z" fill="white" stroke="#152633" stroke-width="2"/>
<path d="M83.7241 230.857C112.995 230.857 136.724 226.268 136.724 220.607C136.724 214.946 112.995 210.357 83.7241 210.357C54.453 210.357 30.7241 214.946 30.7241 220.607C30.7241 226.268 54.453 230.857 83.7241 230.857Z" fill="black" fill-opacity="0.05"/>
<path fill-rule="evenodd" clip-rule="evenodd" d="M62.7241 84.3572H79.2241L80.7241 85.3572L81.7241 84.3572H86.7241V108.357H62.7241V84.3572Z" fill="white" stroke="#152633" stroke-width="2"/>
<path d="M71.0972 91.9021H74.5308C77.0854 91.9021 78.5854 93.3845 78.5854 96.0798C78.5854 98.781 77.0796 100.357 74.5308 100.357H71.0972V91.9021ZM73.2476 93.6365V98.6228H74.2495C75.6499 98.6228 76.3999 97.7732 76.3999 96.0857C76.3999 94.4978 75.6089 93.6365 74.2495 93.6365H73.2476Z" fill="#C51717"/>
<path fill-rule="evenodd" clip-rule="evenodd" d="M68.01 89.5222L70.6571 85.1072L68.01 89.5222Z" stroke="#152633" stroke-width="2" stroke-linecap="round" stroke-linejoin="round"/>
<path fill-rule="evenodd" clip-rule="evenodd" d="M68.4921 86.3572C69.1824 87.5529 70.7114 87.9626 71.9072 87.2722C73.1029 86.5819 73.5126 85.0529 72.8222 83.8572C72.1319 82.6614 70.6029 82.2517 69.4072 82.9421C68.2114 83.6325 67.8017 85.1614 68.4921 86.3572Z" fill="white" stroke="#152633" stroke-width="2"/>
<path fill-rule="evenodd" clip-rule="evenodd" d="M141.448 72.0486L162.467 76.6702L160.893 78.657L159.191 82.315L159.917 88.9502L158.001 93.719L157.363 97.0442L136.724 92.5103L141.448 72.0486Z" fill="white" stroke="#152633" stroke-width="2"/>
<path fill-rule="evenodd" clip-rule="evenodd" d="M156.724 78.3572L156.208 72.8577L156.724 78.3572Z" stroke="#152633" stroke-width="2" stroke-linecap="round" stroke-linejoin="round"/>
<path fill-rule="evenodd" clip-rule="evenodd" d="M154.958 75.0228C156.154 75.7132 157.683 75.3035 158.373 74.1077C159.064 72.912 158.654 71.383 157.458 70.6927C156.262 70.0023 154.733 70.412 154.043 71.6077C153.353 72.8035 153.762 74.3325 154.958 75.0228Z" fill="white" stroke="#152633" stroke-width="2"/>
<path d="M143.958 79.2908L151.458 80.7908" stroke="#152633" stroke-width="2"/>
<path d="M142.958 83.2908L150.458 84.7908" stroke="#152633" stroke-width="2"/>
<path d="M152.35 92.0636L149.85 92.2384L149.506 87.3183L151.924 87.1492C152.93 87.0789 153.552 87.4979 153.605 88.2651C153.645 88.8311 153.245 89.2873 152.681 89.3988L152.683 89.426C153.349 89.3966 153.939 89.859 153.985 90.5102C154.045 91.3728 153.403 91.9899 152.35 92.0636ZM151.021 88.2094L151.09 89.1879L151.649 89.1488C152.021 89.1228 152.239 88.9123 152.218 88.6156C152.197 88.3122 151.966 88.1433 151.601 88.1688L151.021 88.2094ZM151.227 91.1451L151.844 91.1019C152.291 91.0707 152.532 90.8516 152.506 90.48C152.482 90.1288 152.208 89.9423 151.775 89.9726L151.148 90.0165L151.227 91.1451Z" fill="#C51717"/>
<path fill-rule="evenodd" clip-rule="evenodd" d="M144.724 107.357H161.224L162.724 108.357L163.724 107.357H168.724V121.357L166.724 124.357L168.724 127.357L167.724 128.357L168.724 129.357V131.357H160.724L153.224 128.357L151.224 129.357L148.724 130.357L145.724 127.857V125.357L144.724 123.357V110.857L145.724 109.357L144.724 107.357Z" fill="white" stroke="#152633" stroke-width="2"/>
<path fill-rule="evenodd" clip-rule="evenodd" d="M149.01 109.522L151.657 105.107L149.01 109.522Z" stroke="#152633" stroke-width="2" stroke-linecap="round" stroke-linejoin="round"/>
<path fill-rule="evenodd" clip-rule="evenodd" d="M149.492 106.357C150.182 107.553 151.711 107.963 152.907 107.272C154.103 106.582 154.513 105.053 153.822 103.857C153.132 102.661 151.603 102.252 150.407 102.942C149.211 103.632 148.802 105.161 149.492 106.357Z" fill="white" stroke="#152633" stroke-width="2"/>
<path d="M148.724 120.357H153.724H158.724" stroke="#152633" stroke-width="2"/>
<path d="M148.724 116.357H154.724H160.724" stroke="#152633" stroke-width="2"/>
<path d="M148.724 112.357H152.224H155.724" stroke="#152633" stroke-width="2"/>
<path d="M148.724 124.357H155.724H162.724" stroke="#152633" stroke-width="2"/>
<path d="M153.724 128.357H156.724H159.724" stroke="#152633" stroke-width="2"/>
<path d="M160.063 115.896L157.893 114.643L160.359 110.372L162.458 111.583C163.331 112.087 163.613 112.783 163.228 113.449C162.944 113.94 162.358 114.095 161.828 113.871L161.814 113.895C162.383 114.243 162.614 114.957 162.287 115.522C161.855 116.271 160.978 116.424 160.063 115.896ZM161.117 111.958L160.627 112.807L161.112 113.087C161.435 113.274 161.733 113.221 161.882 112.964C162.034 112.7 161.937 112.431 161.62 112.248L161.117 111.958ZM159.646 114.506L160.181 114.815C160.569 115.039 160.892 114.993 161.078 114.67C161.254 114.365 161.132 114.058 160.756 113.841L160.211 113.526L159.646 114.506Z" fill="#C51717"/>
<path fill-rule="evenodd" clip-rule="evenodd" d="M30.2239 85.8572L38.2239 87.3572L48.8862 86.7575L47.6608 105.408L28.7056 104.69L29.1846 98.7493L29.451 95.4446L29.7469 91.7742L30.2239 85.8572Z" fill="white" stroke="#152633" stroke-width="2"/>
<path d="M37.0325 99.1189L36.6917 98.164L35.1935 98.2951L35.0236 99.2946L33.5527 99.4233L34.7265 94.3696L36.538 94.2112L38.5716 98.9842L37.0325 99.1189ZM35.6838 95.4284L35.3666 97.254L36.3404 97.1688L35.711 95.426L35.6838 95.4284ZM41.5672 97.3017L41.6849 98.6466L40.4591 98.7539L40.3414 97.4089L39.0646 97.5206L38.9609 96.3357L40.2377 96.224L40.1201 94.879L41.3459 94.7718L41.4635 96.1168L42.7404 96.005L42.8441 97.19L41.5672 97.3017Z" fill="#C51717"/>
<path fill-rule="evenodd" clip-rule="evenodd" d="M41.6305 89.4281L44.2665 85.2932L41.6305 89.4281Z" stroke="#152633" stroke-width="2" stroke-linecap="round" stroke-linejoin="round"/>
<path fill-rule="evenodd" clip-rule="evenodd" d="M43.2099 87.559C44.4613 88.1425 45.9487 87.6011 46.5322 86.3497C47.1157 85.0984 46.5743 83.6109 45.323 83.0274C44.0716 82.4439 42.5842 82.9853 42.0007 84.2366C41.4172 85.488 41.9586 86.9755 43.2099 87.559Z" fill="white" stroke="#152633" stroke-width="2"/>
<path fill-rule="evenodd" clip-rule="evenodd" d="M14.2239 93.3572L29.4802 101.601L30.4702 103.108L31.7815 102.578L36.384 104.532L30.9137 117.419L27.0064 126.624L19.6424 123.498L4.22388 115.357L14.2239 93.3572Z" fill="white" stroke="#152633" stroke-width="2"/>
<path fill-rule="evenodd" clip-rule="evenodd" d="M17.3911 98.8218L21.5529 95.7921L17.3911 98.8218Z" stroke="#152633" stroke-width="2" stroke-linecap="round" stroke-linejoin="round"/>
<path fill-rule="evenodd" clip-rule="evenodd" d="M19.0716 96.0967C19.2398 97.4672 20.4872 98.4417 21.8576 98.2734C23.228 98.1052 24.2026 96.8578 24.0343 95.4874C23.866 94.117 22.6187 93.1424 21.2483 93.3107C19.8778 93.479 18.9033 94.7263 19.0716 96.0967Z" fill="white" stroke="#152633" stroke-width="2"/>
<path d="M12.8944 108.684L15.497 109.637L19.6428 111.548L23.0995 112.591" stroke="#152633" stroke-width="2"/>
<path d="M14.4573 105.002L19.9803 107.346L25.5033 109.69" stroke="#152633" stroke-width="2"/>
<path d="M16.0203 101.32L19.242 102.687L22.4638 104.055" stroke="#152633" stroke-width="2"/>
<path d="M11.3314 112.366L15.6867 113.89L17.775 116.101L22.2185 117.836" stroke="#152633" stroke-width="2"/>
<path d="M23.3366 120.439L23.9658 119.644L23.0607 118.443L22.123 118.829L21.2344 117.65L26.1422 115.967L27.2365 117.419L24.2664 121.673L23.3366 120.439ZM25.7515 117.34L24.0353 118.038L24.6236 118.819L25.768 117.362L25.7515 117.34Z" fill="#C51717"/>
<path fill-rule="evenodd" clip-rule="evenodd" d="M109.252 168.482C120.55 180.319 125.804 189.776 123.21 195.346C120.43 201.318 108.048 205.616 104.947 193.364C102.607 184.124 104.801 173.196 106.021 168.379C107.107 168.437 108.185 168.473 109.252 168.482Z" fill="#2D3B45" stroke="#152633" stroke-width="2"/>
<path fill-rule="evenodd" clip-rule="evenodd" d="M63.6861 168.68C64.3962 173.599 65.4356 184.696 62.1434 193.64C57.778 205.502 45.9134 199.933 43.7725 193.703C41.7752 187.892 47.9888 179.036 60.4628 168.445C61.5242 168.548 62.6 168.625 63.6861 168.68Z" fill="#2D3B45" stroke="#152633" stroke-width="2"/>
<path fill-rule="evenodd" clip-rule="evenodd" d="M104.983 169.945C98.2212 172.197 90.5044 173.421 82.3093 173.421C75.0045 173.421 68.2473 172.559 62.2819 170.869C59.8866 176.233 57.1733 183.106 56.5791 187.859C54.8313 200.092 65.4643 210.813 84.3455 210.813C103.227 210.813 113.09 199.706 110.935 188.23C109.45 180.323 107.056 174.349 104.983 169.945Z" fill="white" stroke="#152633" stroke-width="2"/>
<path fill-rule="evenodd" clip-rule="evenodd" d="M79.9342 195.124C80.2355 194.311 81.0177 193.732 81.9351 193.732C82.8525 193.732 83.6346 194.311 83.9359 195.124C84.7535 194.855 85.6877 195.099 86.2615 195.808C86.8424 196.525 86.8816 197.505 86.431 198.253C87.1578 198.728 87.5482 199.622 87.3414 200.518C87.1354 201.41 86.3978 202.041 85.5405 202.154C85.6212 203.013 85.1724 203.871 84.3512 204.271C83.5233 204.675 82.5619 204.494 81.9351 203.89C81.3082 204.494 80.3469 204.675 79.5189 204.271C78.6978 203.871 78.2489 203.013 78.3296 202.154C77.4723 202.041 76.7347 201.41 76.5288 200.518C76.322 199.622 76.7123 198.728 77.4392 198.253C76.9886 197.505 77.0277 196.525 77.6086 195.808C78.1824 195.099 79.1167 194.855 79.9342 195.124Z" fill="#2D3B45" stroke="#152633" stroke-width="2"/>
<path fill-rule="evenodd" clip-rule="evenodd" d="M120.963 216.224C118.001 201.045 111.458 191.987 111.088 189.025C112.531 199.111 104.585 208.898 89.5476 210.726L89.8649 212.151C90.9755 218.075 93.1968 220.296 96.899 221.407C105.044 224.369 122.814 223.258 120.963 216.224Z" fill="#2D3B45" stroke="#152633" stroke-width="2"/>
<path fill-rule="evenodd" clip-rule="evenodd" d="M56.4165 189.197C55.9918 192.159 49.3279 201.044 46.3662 216.223C44.5151 223.258 62.2855 224.368 70.4303 221.406C74.1325 220.296 76.3538 218.074 77.4645 212.151L77.7662 210.917L77.7817 210.577C63.5309 208.478 55.569 199.482 56.4165 189.197Z" fill="#2D3B45" stroke="#152633" stroke-width="2"/>
<path fill-rule="evenodd" clip-rule="evenodd" d="M45.1934 134.287C43.8818 134.229 42.4133 133.994 40.8348 133.461C34.7651 131.411 34.4751 126.126 34.2182 124.445C33.9612 122.764 33.9261 113.689 41.1354 114.97C45.7914 115.796 49.2724 117.686 52.4834 119.246C49.133 123.801 46.6655 128.941 45.1934 134.287Z" fill="#2D3B45" stroke="#152633" stroke-width="2"/>
<path fill-rule="evenodd" clip-rule="evenodd" d="M42.5127 142.58C42.5127 162.603 59.7232 173.305 83.3831 173.305C107.043 173.305 126.223 161.222 126.223 143.27C126.223 120.963 107.043 99.4262 83.3831 99.4262C59.7232 99.4262 42.5127 121.521 42.5127 142.58Z" fill="white" stroke="#152633" stroke-width="2"/>
<path fill-rule="evenodd" clip-rule="evenodd" d="M114.98 135.72C116.554 135.067 118.24 134.129 119.928 132.78C126.417 127.588 125.119 118.934 124.687 116.771C124.254 114.608 121.658 104.224 113.438 108.983C108.128 112.057 105.069 115.817 101.847 119.143C107.195 123.689 113.438 131.443 114.98 135.72Z" fill="#2D3B45" stroke="#152633" stroke-width="2"/>
</svg>
