<svg viewBox="0 0 170 292" fill="none" xmlns="http://www.w3.org/2000/svg">
<path fill-rule="evenodd" clip-rule="evenodd" d="M65 257H105V278.744C105 282.311 104.629 283.604 103.931 284.907C103.234 286.211 102.211 287.234 100.907 287.931C99.6037 288.629 98.3105 289 94.7445 289H75.2555C71.6895 289 70.3963 288.629 69.0926 287.931C67.7889 287.234 66.7658 286.211 66.0685 284.907C65.3713 283.604 65 282.311 65 278.744V257Z" fill="#EAA962" stroke="#152633" stroke-width="2"/>
<path d="M72 258V270.51" stroke="#152633" stroke-width="2" stroke-linecap="round"/>
<path d="M79 264V276.51" stroke="#152633" stroke-width="2" stroke-linecap="round"/>
<path d="M100 258V262.51" stroke="#152633" stroke-width="2" stroke-linecap="round"/>
<path d="M90 284V288.51" stroke="#152633" stroke-width="2" stroke-linecap="round"/>
<path d="M85 287V288.51" stroke="#152633" stroke-width="2" stroke-linecap="round"/>
<path d="M75 283V288.51" stroke="#152633" stroke-width="2" stroke-linecap="round"/>
<path d="M69 268H82.5" stroke="#152633" stroke-width="2" stroke-linecap="round"/>
<path d="M96 276H104.5" stroke="#152633" stroke-width="2" stroke-linecap="round"/>
<path d="M85 163C129.183 163 165 127.183 165 83C165 38.8172 129.183 3 85 3C40.8172 3 5 38.8172 5 83C5 127.183 40.8172 163 85 163Z" fill="#5DB9F2" stroke="#152633" stroke-width="2"/>
<path d="M155 83C155 38.8172 129.183 3 85 3C40.8172 3 15 38.8172 15 83" stroke="#152633" stroke-width="2"/>
<path d="M135 83C135 48.8172 119.183 3 85 3C50.8172 3 35 48.8172 35 83" stroke="#152633" stroke-width="2"/>
<path d="M115 83C115 48.8172 99.1828 3 85 3C70.8172 3 55 48.8172 55 83" stroke="#152633" stroke-width="2"/>
<path d="M85 3C85 33.5448 85 60.2115 85 83" stroke="#152633" stroke-width="2"/>
<path fill-rule="evenodd" clip-rule="evenodd" d="M85 163C129.183 163 165 127.183 165 83C141.122 76.3333 114.455 73 85 73C55.5448 73 28.8781 76.3333 5 83C5 127.183 40.8172 163 85 163Z" fill="#152633" stroke="#152633" stroke-width="2"/>
<path fill-rule="evenodd" clip-rule="evenodd" d="M51.7618 121.237C51.4093 120.032 50.4671 119.089 49.2618 118.737C50.4671 118.384 51.4093 117.442 51.7618 116.237C52.1143 117.442 53.0566 118.384 54.2618 118.737C53.0566 119.089 52.1143 120.032 51.7618 121.237Z" fill="#FFE896"/>
<path fill-rule="evenodd" clip-rule="evenodd" d="M81.7618 111.237C81.4093 110.032 80.4671 109.089 79.2618 108.737C80.4671 108.384 81.4093 107.442 81.7618 106.237C82.1143 107.442 83.0566 108.384 84.2618 108.737C83.0566 109.089 82.1143 110.032 81.7618 111.237Z" fill="#FFE896"/>
<path fill-rule="evenodd" clip-rule="evenodd" d="M121.762 151.237C121.409 150.032 120.467 149.089 119.262 148.737C120.467 148.384 121.409 147.442 121.762 146.237C122.114 147.442 123.057 148.384 124.262 148.737C123.057 149.089 122.114 150.032 121.762 151.237Z" fill="#FFE896"/>
<path fill-rule="evenodd" clip-rule="evenodd" d="M141.762 100.237C141.409 99.0316 140.467 98.0894 139.262 97.7369C140.467 97.3844 141.409 96.4422 141.762 95.2369C142.114 96.4422 143.057 97.3844 144.262 97.7369C143.057 98.0894 142.114 99.0316 141.762 100.237Z" fill="#FFE896"/>
<path fill-rule="evenodd" clip-rule="evenodd" d="M110.762 128.237C110.55 127.514 109.985 126.948 109.262 126.737C109.985 126.525 110.55 125.96 110.762 125.237C110.973 125.96 111.539 126.525 112.262 126.737C111.539 126.948 110.973 127.514 110.762 128.237Z" fill="#FFE896"/>
<path fill-rule="evenodd" clip-rule="evenodd" d="M107.262 134.237C106.98 133.273 106.226 132.519 105.262 132.237C106.226 131.955 106.98 131.201 107.262 130.237C107.544 131.201 108.298 131.955 109.262 132.237C108.298 132.519 107.544 133.273 107.262 134.237Z" fill="#FFE896"/>
<path fill-rule="evenodd" clip-rule="evenodd" d="M10.6768 101.279C10.4651 100.556 9.89976 99.9908 9.17676 99.7794C9.89976 99.5681 10.4651 99.0024 10.6768 98.2794C10.8884 99.0024 11.4538 99.5681 12.1768 99.7794C11.4538 99.9908 10.8884 100.556 10.6768 101.279Z" fill="#FFE896"/>
<path fill-rule="evenodd" clip-rule="evenodd" d="M38.6449 102.513C38.2219 101.067 37.0909 99.9365 35.6449 99.5135C37.0909 99.0905 38.2219 97.9595 38.6449 96.5135C39.0679 97.9595 40.1989 99.0905 41.6449 99.5135C40.1989 99.9365 39.0679 101.067 38.6449 102.513Z" fill="#FFE896"/>
<path fill-rule="evenodd" clip-rule="evenodd" d="M47.996 130.136C47.7848 129.413 47.2193 128.847 46.496 128.636C47.2193 128.425 47.7848 127.859 47.996 127.136C48.2071 127.859 48.7726 128.425 49.496 128.636C48.7726 128.847 48.2071 129.413 47.996 130.136Z" fill="#FFE896"/>
<path fill-rule="evenodd" clip-rule="evenodd" d="M72.0999 154.45C71.5359 152.522 70.0279 151.014 68.0999 150.45C70.0279 149.886 71.5359 148.378 72.0999 146.45C72.6639 148.378 74.1719 149.886 76.0999 150.45C74.1719 151.014 72.6639 152.522 72.0999 154.45Z" fill="#FFE896"/>
<path fill-rule="evenodd" clip-rule="evenodd" d="M17.5908 124.707C17.3088 123.743 16.5548 122.989 15.5908 122.707C16.5548 122.425 17.3088 121.671 17.5908 120.707C17.8728 121.671 18.6268 122.425 19.5908 122.707C18.6268 122.989 17.8728 123.743 17.5908 124.707Z" fill="#FFE896"/>
<path fill-rule="evenodd" clip-rule="evenodd" d="M64.3612 157.213C64.2202 156.731 63.8432 156.354 63.3612 156.213C63.8432 156.072 64.2202 155.695 64.3612 155.213C64.5022 155.695 64.8792 156.072 65.3612 156.213C64.8792 156.354 64.5022 156.731 64.3612 157.213Z" fill="#FFE896"/>
<path fill-rule="evenodd" clip-rule="evenodd" d="M54.3612 117.213C54.2202 116.731 53.8432 116.354 53.3612 116.213C53.8432 116.072 54.2202 115.695 54.3612 115.213C54.5022 115.695 54.8792 116.072 55.3612 116.213C54.8792 116.354 54.5022 116.731 54.3612 117.213Z" fill="#FFE896"/>
<path fill-rule="evenodd" clip-rule="evenodd" d="M114.361 96.2126C114.22 95.7306 113.843 95.3536 113.361 95.2126C113.843 95.0716 114.22 94.6946 114.361 94.2126C114.502 94.6946 114.879 95.0716 115.361 95.2126C114.879 95.3536 114.502 95.7306 114.361 96.2126Z" fill="#FFE896"/>
<path fill-rule="evenodd" clip-rule="evenodd" d="M118.361 101.213C118.22 100.731 117.843 100.354 117.361 100.213C117.843 100.072 118.22 99.6946 118.361 99.2126C118.502 99.6946 118.879 100.072 119.361 100.213C118.879 100.354 118.502 100.731 118.361 101.213Z" fill="#FFE896"/>
<path fill-rule="evenodd" clip-rule="evenodd" d="M113.361 105.213C113.22 104.731 112.843 104.354 112.361 104.213C112.843 104.072 113.22 103.695 113.361 103.213C113.502 103.695 113.879 104.072 114.361 104.213C113.879 104.354 113.502 104.731 113.361 105.213Z" fill="#FFE896"/>
<path fill-rule="evenodd" clip-rule="evenodd" d="M153.361 106.213C153.22 105.731 152.843 105.354 152.361 105.213C152.843 105.072 153.22 104.695 153.361 104.213C153.502 104.695 153.879 105.072 154.361 105.213C153.879 105.354 153.502 105.731 153.361 106.213Z" fill="#FFE896"/>
<path fill-rule="evenodd" clip-rule="evenodd" d="M133.361 136.213C133.22 135.731 132.843 135.354 132.361 135.213C132.843 135.072 133.22 134.695 133.361 134.213C133.502 134.695 133.879 135.072 134.361 135.213C133.879 135.354 133.502 135.731 133.361 136.213Z" fill="#FFE896"/>
<path fill-rule="evenodd" clip-rule="evenodd" d="M130.361 147.213C130.22 146.731 129.843 146.354 129.361 146.213C129.843 146.072 130.22 145.695 130.361 145.213C130.502 145.695 130.879 146.072 131.361 146.213C130.879 146.354 130.502 146.731 130.361 147.213Z" fill="#FFE896"/>
<path fill-rule="evenodd" clip-rule="evenodd" d="M76.3612 155.213C76.2202 154.731 75.8432 154.354 75.3612 154.213C75.8432 154.072 76.2202 153.695 76.3612 153.213C76.5022 153.695 76.8792 154.072 77.3612 154.213C76.8792 154.354 76.5022 154.731 76.3612 155.213Z" fill="#FFE896"/>
<path fill-rule="evenodd" clip-rule="evenodd" d="M15.3612 120.213C15.2202 119.731 14.8432 119.354 14.3612 119.213C14.8432 119.072 15.2202 118.695 15.3612 118.213C15.5022 118.695 15.8792 119.072 16.3612 119.213C15.8792 119.354 15.5022 119.731 15.3612 120.213Z" fill="#FFE896"/>
<path fill-rule="evenodd" clip-rule="evenodd" d="M34.3612 98.2126C34.2202 97.7306 33.8432 97.3536 33.3612 97.2126C33.8432 97.0716 34.2202 96.6946 34.3612 96.2126C34.5022 96.6946 34.8792 97.0716 35.3612 97.2126C34.8792 97.3536 34.5022 97.7306 34.3612 98.2126Z" fill="#FFE896"/>
<path fill-rule="evenodd" clip-rule="evenodd" d="M74.3612 98.2126C74.2202 97.7306 73.8432 97.3536 73.3612 97.2126C73.8432 97.0716 74.2202 96.6946 74.3612 96.2126C74.5022 96.6946 74.8792 97.0716 75.3612 97.2126C74.8792 97.3536 74.5022 97.7306 74.3612 98.2126Z" fill="#FFE896"/>
<path fill-rule="evenodd" clip-rule="evenodd" d="M33.7087 139.841C33.5677 139.359 33.1907 138.982 32.7087 138.841C33.1907 138.7 33.5677 138.323 33.7087 137.841C33.8497 138.323 34.2267 138.7 34.7087 138.841C34.2267 138.982 33.8497 139.359 33.7087 139.841Z" fill="#FFE896"/>
<path fill-rule="evenodd" clip-rule="evenodd" d="M25.0123 82.7083C37.0419 80.3078 49.7048 78.6644 63.001 77.7782C70.7837 77.2594 78.7833 77 87 77C95.2167 77 103.216 77.2594 110.999 77.7782C124.295 78.6644 136.958 80.3078 148.988 82.7083C154.366 83.7832 159.678 85.0218 164.819 86.4025C165.549 86.5988 164.545 99.8474 163.367 100.726C161.45 102.154 159.074 103 156.5 103C150.906 103 146.245 99.0056 145.213 93.7134C141.579 98.7338 135.671 102 129 102C119.468 102 111.493 95.3317 109.487 86.4056C106.08 95.5147 97.2975 102 87 102C76.7025 102 67.9197 95.5147 64.5132 86.4056C62.5065 95.3317 54.532 102 45 102C38.3289 102 32.4207 98.7338 28.7872 93.7134C27.7554 99.0056 23.0942 103 17.5 103C13.3435 103 9.70204 100.795 7.68167 97.4907C7.23199 94.0575 7 90.5558 7 87C12.8123 85.3772 18.8696 83.936 25.0123 82.7083Z" fill="black" fill-opacity="0.25"/>
<path d="M27 89C27 143.5 73 211.423 73 257" stroke="#EBEDEE" stroke-width="2"/>
<path d="M63 84C63 138.5 81 211.423 81 257" stroke="#EBEDEE" stroke-width="2"/>
<path d="M107 84C107 138.5 89 211.423 89 257" stroke="#EBEDEE" stroke-width="2"/>
<path d="M143 89C143 143.5 97 211.423 97 257" stroke="#EBEDEE" stroke-width="2"/>
<path d="M164.945 85.7006C162.917 154.712 105 212.221 105 257" stroke="#EBEDEE" stroke-width="2"/>
<path d="M5.03442 84.9362C6.65457 154.287 65 212.056 65 257" stroke="#EBEDEE" stroke-width="2"/>
<path fill-rule="evenodd" clip-rule="evenodd" d="M62.7782 240.682C62.7782 250.943 71.9487 256.428 84.5556 256.428C97.1625 256.428 107.382 250.236 107.382 241.036C107.382 229.603 97.1625 218.566 84.5556 218.566C71.9487 218.566 62.7782 229.889 62.7782 240.682Z" fill="white" stroke="#152633" stroke-width="1.5"/>
<path fill-rule="evenodd" clip-rule="evenodd" d="M88.2748 246.786C88.2748 247.714 86.8446 248.466 85.0803 248.466C83.316 248.466 81.8859 247.714 81.8859 246.786C81.8859 245.857 83.316 245.105 85.0803 245.105C86.8446 245.105 88.2748 245.857 88.2748 246.786Z" fill="#152633"/>
<path fill-rule="evenodd" clip-rule="evenodd" d="M95.7056 226.393C92.0047 226.393 88.494 232.404 88.494 238.382C88.494 243.694 93.1507 248.601 97.4748 248.601C101.389 248.601 104.686 244.058 104.686 238.382C104.686 235.758 103.554 232.699 101.656 230.232C99.7933 227.813 97.5446 226.393 95.7056 226.393Z" fill="#2D3B45" stroke="#152633" stroke-width="1.5"/>
<path d="M91.9 242.044C92.6057 242.044 93.1777 241.129 93.1777 240C93.1777 238.871 92.6057 237.956 91.9 237.956C91.1943 237.956 90.6222 238.871 90.6222 240C90.6222 241.129 91.1943 242.044 91.9 242.044Z" fill="white"/>
<path fill-rule="evenodd" clip-rule="evenodd" d="M72.5089 248.601C76.833 248.601 81.4897 243.694 81.4897 238.382C81.4897 232.404 77.9791 226.393 74.2781 226.393C72.439 226.393 70.1903 227.813 68.3281 230.233C66.4298 232.699 65.2974 235.757 65.2974 238.382C65.2974 244.058 68.5945 248.601 72.5089 248.601Z" fill="#2D3B45" stroke="#152633" stroke-width="1.5"/>
<path d="M78.1 242.044C78.8057 242.044 79.3778 241.129 79.3778 240C79.3778 238.871 78.8057 237.956 78.1 237.956C77.3943 237.956 76.8223 238.871 76.8223 240C76.8223 241.129 77.3943 242.044 78.1 242.044Z" fill="white"/>
<path fill-rule="evenodd" clip-rule="evenodd" d="M103.4 228.756C104.043 228.489 104.569 227.964 105.259 227.412C107.913 225.289 107.382 221.751 107.206 220.866C107.029 219.982 105.967 215.736 102.606 217.682C100.435 218.939 98.3288 221.007 97.0111 222.367C99.508 224.03 101.696 226.358 103.4 228.756Z" fill="#2D3B45" stroke="#152633" stroke-width="1.5"/>
<path fill-rule="evenodd" clip-rule="evenodd" d="M66.3444 228.756C65.7011 228.489 64.9773 227.964 64.2871 227.412C61.6332 225.289 62.164 221.751 62.3409 220.866C62.5178 219.982 63.5794 215.736 66.9409 217.682C69.1119 218.939 71.16 221.007 72.4777 222.367C69.981 224.03 68.0482 226.358 66.3444 228.756Z" fill="#2D3B45" stroke="#152633" stroke-width="1.5"/>
<path fill-rule="evenodd" clip-rule="evenodd" d="M23.0123 78.7083C35.0419 76.3078 47.7048 74.6644 61.001 73.7782C68.7837 73.2594 76.7833 73 85 73C93.2167 73 101.216 73.2594 108.999 73.7782C122.295 74.6644 134.958 76.3078 146.988 78.7083C153.13 79.936 159.188 81.3772 165 83C165 86.5558 164.768 90.0575 164.318 93.4907C162.298 96.7949 158.656 99 154.5 99C148.906 99 144.245 95.0056 143.213 89.7134C139.579 94.7338 133.671 98 127 98C117.468 98 109.493 91.3317 107.487 82.4056C104.08 91.5147 95.2975 98 85 98C74.7025 98 65.9197 91.5147 62.5132 82.4056C60.5065 91.3317 52.532 98 43 98C36.3289 98 30.4207 94.7338 26.7872 89.7134C25.7554 95.0056 21.0942 99 15.5 99C11.3435 99 7.70204 96.7949 5.68167 93.4907C5.23199 90.0575 5 86.5558 5 83C10.8123 81.3772 16.8696 79.936 23.0123 78.7083Z" fill="#F23B5D" stroke="#152633" stroke-width="2"/>
<path d="M85 86C89.9706 86 94 81.9706 94 77C94 72.0294 89.9706 68 85 68C80.0294 68 76 72.0294 76 77C76 81.9706 80.0294 86 85 86Z" fill="#FFE896" stroke="#152633" stroke-width="2"/>
<path d="M127 86C130.866 86 134 82.866 134 79C134 75.134 130.866 72 127 72C123.134 72 120 75.134 120 79C120 82.866 123.134 86 127 86Z" fill="#FFE896" stroke="#152633" stroke-width="2"/>
<path d="M43 86C46.866 86 50 82.866 50 79C50 75.134 46.866 72 43 72C39.134 72 36 75.134 36 79C36 82.866 39.134 86 43 86Z" fill="#FFE896" stroke="#152633" stroke-width="2"/>
<path d="M155.5 87C157.985 87 160 84.9853 160 82.5C160 80.0147 157.985 78 155.5 78C153.015 78 151 80.0147 151 82.5C151 84.9853 153.015 87 155.5 87Z" fill="#FFE896" stroke="#152633" stroke-width="2"/>
<path d="M14.5 87C16.9853 87 19 84.9853 19 82.5C19 80.0147 16.9853 78 14.5 78C12.0147 78 10 80.0147 10 82.5C10 84.9853 12.0147 87 14.5 87Z" fill="#FFE896" stroke="#152633" stroke-width="2"/>
<path fill-rule="evenodd" clip-rule="evenodd" d="M39.5686 17.1429C52.4729 8.22398 68.1263 3 85 3C101.874 3 117.527 8.22398 130.431 17.1429C117.527 22.0978 101.874 25 85 25C68.1263 25 52.4729 22.0978 39.5686 17.1429Z" fill="#FFE896" stroke="#152633" stroke-width="2"/>
<path fill-rule="evenodd" clip-rule="evenodd" d="M61 253H109V257H61V253Z" fill="#152633" stroke="#152633" stroke-width="2" stroke-linejoin="round"/>
</svg>
