<svg viewBox="0 0 222 222" fill="none" xmlns="http://www.w3.org/2000/svg">
<path fill-rule="evenodd" clip-rule="evenodd" d="M125.691 60.5855C142.241 44.0355 155.628 71.0818 168.648 70.6618C181.667 70.2418 186.101 58.719 191.452 58.4642C195.019 58.2943 198.554 61.8299 202.058 69.0708L168.117 103.012L125.691 60.5855Z" fill="white"/>
<path fill-rule="evenodd" clip-rule="evenodd" d="M140.021 55.5904C150.473 67.7533 161.067 82.2749 171.596 99.5332L168.117 103.012L125.691 60.5855C130.735 55.5414 135.485 54.547 140.021 55.5904Z" fill="#EBEDEE"/>
<path fill-rule="evenodd" clip-rule="evenodd" d="M125.691 60.5855C142.241 44.0355 155.628 71.0818 168.648 70.6618C181.667 70.2418 186.101 58.719 191.452 58.4642C195.019 58.2943 198.554 61.8299 202.058 69.0708L168.117 103.012L125.691 60.5855Z" stroke="#152633" stroke-width="2"/>
<path fill-rule="evenodd" clip-rule="evenodd" d="M60.8009 125.475L103.227 167.902L69.2862 201.843C62.0453 198.339 58.5097 194.803 58.6796 191.236C58.9344 185.886 70.4572 181.451 70.8772 168.432C71.2972 155.413 44.2509 142.025 60.8009 125.475Z" fill="white"/>
<path fill-rule="evenodd" clip-rule="evenodd" d="M65.7704 130.445C59.0348 144.52 80.2653 156.356 79.8928 167.902C79.4728 180.921 67.95 185.356 67.6952 190.706C67.575 193.23 69.3097 195.738 72.8992 198.23L69.2862 201.843C62.0453 198.339 58.5097 194.803 58.6796 191.236C58.9344 185.886 70.4572 181.451 70.8772 168.432C71.2972 155.413 44.2509 142.025 60.8009 125.475L65.7704 130.445Z" fill="#EBEDEE"/>
<path fill-rule="evenodd" clip-rule="evenodd" d="M60.8009 125.475L103.227 167.902L69.2862 201.843C62.0453 198.339 58.5097 194.803 58.6796 191.236C58.9344 185.886 70.4572 181.451 70.8772 168.432C71.2972 155.413 44.2509 142.025 60.8009 125.475Z" stroke="#152633" stroke-width="2"/>
<path fill-rule="evenodd" clip-rule="evenodd" d="M10.384 10.4295C26.2939 -5.48041 99.5533 -10.6606 169.483 105.889L105.843 169.529C-10.457 99.7483 -5.52594 26.3394 10.384 10.4295Z" fill="#EF3E60"/>
<path fill-rule="evenodd" clip-rule="evenodd" d="M13.3186 8.05286C-0.408203 28.6313 0.870506 98.0595 111.147 164.225L105.843 169.529C-10.457 99.7483 -5.52594 26.3394 10.384 10.4295C11.2103 9.60316 12.1914 8.80576 13.3186 8.05286Z" fill="#C4144B"/>
<path fill-rule="evenodd" clip-rule="evenodd" d="M110.71 106.879L116.021 101.568L118.287 117.996L110.81 110.519L105.499 115.829L103.233 99.4017L110.71 106.879Z" fill="#FFC100"/>
<path fill-rule="evenodd" clip-rule="evenodd" d="M10.384 10.4295C26.2939 -5.48041 99.5533 -10.6606 169.483 105.889L105.843 169.529C-10.457 99.7483 -5.52594 26.3394 10.384 10.4295Z" stroke="#152633" stroke-width="2"/>
<path fill-rule="evenodd" clip-rule="evenodd" d="M55.3683 4.07221C49.4818 13.0437 41.6623 22.6382 32.3528 31.9477C22.8962 41.4043 13.1454 49.3235 4.05236 55.2409C-0.882458 33.3699 3.81492 16.9985 10.384 10.4295C16.9748 3.83863 33.4075 -0.910873 55.3683 4.07221Z" fill="white"/>
<path fill-rule="evenodd" clip-rule="evenodd" d="M34.9804 29.272C34.1184 30.166 33.2424 31.0581 32.3528 31.9477C22.8962 41.4043 13.1454 49.3236 4.05236 55.2409C-0.882458 33.3699 3.81492 16.9986 10.384 10.4295C11.2103 9.60316 12.1914 8.80576 13.3186 8.05286C8.09122 15.8895 5.03993 30.8104 9.35566 49.9376C17.5934 44.5769 26.3708 37.5732 34.9804 29.272Z" fill="#EBEDEE"/>
<path fill-rule="evenodd" clip-rule="evenodd" d="M55.3683 4.07221C49.4818 13.0437 41.6623 22.6382 32.3528 31.9477C22.8962 41.4043 13.1454 49.3235 4.05236 55.2409C-0.882458 33.3699 3.81492 16.9985 10.384 10.4295C16.9748 3.83863 33.4075 -0.910873 55.3683 4.07221Z" stroke="#152633" stroke-width="2"/>
<path d="M47.5998 2.63031L49.2391 3.77611C48.6682 4.59282 48.0833 5.41227 47.4847 6.23381L45.8683 5.05612C46.4591 4.24509 47.0365 3.43627 47.5998 2.63031ZM44.0903 7.44914L45.6846 8.65665C45.0822 9.45201 44.4678 10.2484 43.8417 11.0454L42.269 9.80982C42.8878 9.02214 43.4951 8.23506 44.0903 7.44914ZM40.404 12.1423L41.9554 13.4045C41.3248 14.1797 40.6836 14.9546 40.0324 15.7288L38.5019 14.4414C39.1461 13.6755 39.7802 12.909 40.404 12.1423ZM36.5591 16.7137L38.0689 18.0254C37.4127 18.7807 36.7474 19.5345 36.0732 20.2866L34.584 18.9516C35.2512 18.2073 35.9097 17.4611 36.5591 16.7137ZM32.5772 21.1563L34.0461 22.5137C33.3665 23.2491 32.6788 23.9822 31.9835 24.7125L30.535 23.3334C31.2235 22.6103 31.9044 21.8845 32.5772 21.1563ZM28.4582 25.4827L29.8863 26.883C29.4117 27.367 28.9339 27.8495 28.4529 28.3305C28.2217 28.5616 27.991 28.7913 27.7598 29.0203L26.3523 27.5995C26.5812 27.3727 26.8097 27.1452 27.0387 26.9162C27.515 26.4399 27.9882 25.962 28.4582 25.4827ZM24.2162 29.6849L25.6028 31.1262C24.8764 31.8251 24.1471 32.5164 23.4153 33.1999L22.0501 31.7383C22.7747 31.0615 23.4969 30.377 24.2162 29.6849ZM19.8514 33.7611L21.1944 35.2432C20.4462 35.9211 19.696 36.5905 18.9442 37.2509L17.6242 35.7484C18.3683 35.0947 19.1108 34.4322 19.8514 33.7611ZM15.3644 37.7024L16.6605 39.2256C15.8902 39.881 15.119 40.5265 14.3473 41.1619L13.0761 39.6179C13.8395 38.9894 14.6024 38.3508 15.3644 37.7024ZM10.7526 41.4984L11.9977 43.0636C11.2046 43.6945 10.4118 44.3139 9.61982 44.9217L8.40228 43.335C9.18502 42.7344 9.96865 42.122 10.7526 41.4984ZM6.02464 45.1256L7.21307 46.7342C6.39598 47.3378 5.58068 47.9282 4.76778 48.505L3.61047 46.8738C4.41288 46.3045 5.21781 45.7216 6.02464 45.1256Z" fill="#152633"/>
<path fill-rule="evenodd" clip-rule="evenodd" d="M107.306 168.066L167.94 107.431C169.503 105.869 172.035 105.869 173.597 107.431L180.668 114.502C182.231 116.065 182.231 118.597 180.668 120.159L120.034 180.794C118.472 182.356 115.939 182.356 114.377 180.794L107.306 173.723C105.744 172.161 105.744 169.628 107.306 168.066Z" fill="white"/>
<path fill-rule="evenodd" clip-rule="evenodd" d="M112.609 162.762C111.047 164.325 111.047 166.857 112.609 168.419L119.68 175.49C121.243 177.052 123.775 177.052 125.337 175.49L120.034 180.794C118.472 182.356 115.939 182.356 114.377 180.794L107.306 173.723C105.744 172.161 105.744 169.628 107.306 168.066L112.609 162.762Z" fill="#EBEDEE"/>
<path fill-rule="evenodd" clip-rule="evenodd" d="M107.306 168.066L167.94 107.431C169.503 105.869 172.035 105.869 173.597 107.431L180.668 114.502C182.231 116.065 182.231 118.597 180.668 120.159L120.034 180.794C118.472 182.356 115.939 182.356 114.377 180.794L107.306 173.723C105.744 172.161 105.744 169.628 107.306 168.066Z" stroke="#152633" stroke-width="2"/>
<path fill-rule="evenodd" clip-rule="evenodd" d="M133.646 167.182L167.587 133.241L176.072 137.483L137.889 175.667L133.646 167.182Z" fill="#FFC100"/>
<path fill-rule="evenodd" clip-rule="evenodd" d="M138.949 161.879L143.192 170.364L137.889 175.667L133.646 167.182L138.949 161.879Z" fill="#FF8C00"/>
<path fill-rule="evenodd" clip-rule="evenodd" d="M133.646 167.182L167.587 133.241L176.072 137.483L137.889 175.667L133.646 167.182Z" stroke="#152633" stroke-width="2"/>
<path fill-rule="evenodd" clip-rule="evenodd" d="M220.09 219.685C188.08 207.474 169.342 198.635 163.875 193.168C155.674 184.967 155.674 171.671 163.875 163.47C172.076 155.269 185.372 155.269 193.573 163.47C199.04 168.937 207.879 187.675 220.09 219.685Z" fill="#FFC100" stroke="#FF8C00" stroke-width="2"/>
<path fill-rule="evenodd" clip-rule="evenodd" d="M189.861 189.456C180.183 188.263 174.173 186.496 171.83 184.152C168.315 180.638 168.315 174.939 171.83 171.424C175.344 167.91 181.043 167.91 184.558 171.424C186.901 173.768 188.668 179.778 189.861 189.456Z" fill="#FF8C00"/>
<path fill-rule="evenodd" clip-rule="evenodd" d="M85.3858 84.9807C74.8417 95.5248 57.7462 95.5248 47.2021 84.9807C36.6579 74.4365 36.6579 57.3411 47.2021 46.7969C57.7462 36.2528 74.8417 36.2528 85.3858 46.7969C95.93 57.3411 95.93 74.4365 85.3858 84.9807Z" fill="#E7F6FF"/>
<path fill-rule="evenodd" clip-rule="evenodd" d="M69.3291 38.5153C83.8568 40.0226 93.6398 53.3453 92.6146 66.7095C91.4673 81.6653 77.6262 96.4905 58.6146 91.2095C54.4453 87.4857 51.7622 83.1178 50.1711 77.1795C45.8227 60.9511 55.3601 44.0772 69.3291 38.5153Z" fill="white" stroke="#152633" stroke-width="2"/>
<path fill-rule="evenodd" clip-rule="evenodd" d="M87.1767 61.449C88.4419 61.11 90.0314 62.9403 90.7272 65.5372C91.4231 68.1341 90.9616 70.5139 89.6964 70.8529C88.4313 71.1919 86.8417 69.3617 86.1459 66.7648C85.45 64.1678 85.9115 61.788 87.1767 61.449Z" fill="#152633"/>
<path fill-rule="evenodd" clip-rule="evenodd" d="M88.1502 50.3938C88.7641 56.0937 84.3233 63.6963 76.9494 65.6722C69.2309 67.7403 59.0372 65.5876 57.463 59.7126C56.7234 56.9525 57.8885 53.2043 60.5793 49.6868C63.2752 46.1625 67.0729 43.4719 70.7378 42.4899C72.8977 41.9112 75.041 41.7094 77.0476 41.8386C80.4256 41.8386 84.1265 44.6903 88.1502 50.3938Z" fill="#2D3B45" stroke="#152633" stroke-width="2"/>
<path fill-rule="evenodd" clip-rule="evenodd" d="M90.8171 74.9536C89.1146 81.435 79.1146 92.7095 68.1146 91.7095C66.2649 90.2892 64.9528 89.3985 64.4993 87.7058C62.925 81.8307 70.6765 74.8696 78.3952 72.8014C82.8472 71.6085 87.3988 72.7264 90.8171 74.9536Z" fill="#2D3B45" stroke="#152633" stroke-width="2"/>
<path fill-rule="evenodd" clip-rule="evenodd" d="M56.9486 47.6937C54.3027 50.8911 52.211 54.6105 50.8563 58.6208C48.5215 57.3215 44.7842 55.046 42.2784 52.5461C43.1147 50.2096 45.6147 46.7096 49.5612 43.9003C51.1522 43.8383 52.9307 44.169 54.5711 45.3758C55.5755 46.1148 56.3497 46.9142 56.9486 47.6937Z" fill="#2D3B45" stroke="#152633" stroke-width="2"/>
<path fill-rule="evenodd" clip-rule="evenodd" d="M77.0788 55.1095C79.0763 54.5743 80.9271 55.0041 81.2126 56.0693C81.498 57.1346 80.1101 58.4323 78.1126 58.9675C76.1151 59.5027 74.2643 59.0729 73.9789 58.0076C73.6934 56.9423 75.0814 55.6447 77.0788 55.1095Z" fill="white"/>
<path fill-rule="evenodd" clip-rule="evenodd" d="M83.1521 77.7752C85.1496 77.24 87.0004 77.6698 87.2858 78.7351C87.5713 79.8003 86.1833 81.098 84.1858 81.6332C82.1884 82.1684 80.3375 81.7386 80.0521 80.6733C79.7667 79.608 81.1546 78.3104 83.1521 77.7752Z" fill="white"/>
<path fill-rule="evenodd" clip-rule="evenodd" d="M84.8556 84.4504C74.3114 94.9946 57.2159 94.9946 46.6718 84.4504C36.1276 73.9062 36.1276 56.8108 46.6718 46.2666C57.2159 35.7225 74.3114 35.7225 84.8556 46.2666C95.3997 56.8108 95.3997 73.9062 84.8556 84.4504Z" stroke="#152633" stroke-width="2"/>
</svg>
