<svg viewBox="0 0 116 176" fill="none" xmlns="http://www.w3.org/2000/svg">
<path d="M58 175.5C85.6142 175.5 108 170.911 108 165.25C108 159.589 85.6142 155 58 155C30.3858 155 8 159.589 8 165.25C8 170.911 30.3858 175.5 58 175.5Z" fill="black" fill-opacity="0.05"/>
<g filter="url(#filter0_i)">
<path fill-rule="evenodd" clip-rule="evenodd" d="M76.8656 111.952C75.7272 116.445 73.6808 126.639 75.8629 135.259C78.7564 146.689 90.307 142.68 92.9007 137.108C95.3204 131.912 90.4192 123.09 79.879 112.048C78.8843 112.039 77.8787 112.006 76.8656 111.952Z" fill="#2D3B45"/>
</g>
<path fill-rule="evenodd" clip-rule="evenodd" d="M76.8656 111.952C75.7272 116.445 73.6808 126.639 75.8629 135.259C78.7564 146.689 90.307 142.68 92.9007 137.108C95.3204 131.912 90.4192 123.09 79.879 112.048C78.8843 112.039 77.8787 112.006 76.8656 111.952Z" stroke="#152633" stroke-width="2"/>
<g filter="url(#filter1_i)">
<path fill-rule="evenodd" clip-rule="evenodd" d="M77.9319 118C71.6098 120.105 64.3946 121.25 56.7321 121.25C49.9021 121.25 43.5841 120.444 38.0066 118.864C35.7669 123.879 33.23 130.305 32.6744 134.75C31.0402 146.187 40.9821 156.211 58.6359 156.211C76.2898 156.211 85.5124 145.827 83.4974 135.096C82.1086 127.703 79.8701 122.118 77.9319 118Z" fill="white"/>
</g>
<path fill-rule="evenodd" clip-rule="evenodd" d="M63 126.5C67.6667 127.833 70.6667 129.167 72 130.5C72.9567 131.457 74.3709 130.125 75.1484 127.655C75.2284 127.401 75.3016 127.135 75.367 126.858C75.9939 124.198 75.8898 120.543 74 117C71.3333 112 67.6667 113.333 63 121V126.5Z" fill="#F23B5D" stroke="#152633" stroke-width="2"/>
<path fill-rule="evenodd" clip-rule="evenodd" d="M63.0002 121C67.6668 113.333 71.3335 112 74.0002 117C74.8719 118.635 75.3637 120.293 75.579 121.866C71.6447 122.926 67.4202 123.633 63 123.95L63.0002 121Z" fill="black" fill-opacity="0.12"/>
<path fill-rule="evenodd" clip-rule="evenodd" d="M53.7115 126.5C49.0448 127.833 46.0448 129.167 44.7115 130.5C42.7115 132.5 38.7115 124.5 42.7115 117C45.3782 112 49.0448 113.333 53.7115 121V126.5Z" fill="#F23B5D" stroke="#152633" stroke-width="2"/>
<path fill-rule="evenodd" clip-rule="evenodd" d="M53.7116 121L53.7114 124.051C49.221 123.841 44.9856 123.263 41.0776 122.328C41.2552 120.619 41.7543 118.795 42.7116 117C45.3783 112 49.0449 113.333 53.7116 121Z" fill="black" fill-opacity="0.12"/>
<path d="M58.5 128C61.5376 128 64 125.538 64 122.5C64 119.462 61.5376 117 58.5 117C55.4624 117 53 119.462 53 122.5C53 125.538 55.4624 128 58.5 128Z" fill="#F23B5D" stroke="#152633" stroke-width="2"/>
<path fill-rule="evenodd" clip-rule="evenodd" d="M58.5 117C61.5376 117 64 119.462 64 122.5C64 122.979 63.9388 123.443 63.8239 123.886C61.7947 124.055 59.7235 124.141 57.6186 124.141C56.1255 124.141 54.6567 124.103 53.2148 124.026C53.0749 123.542 53 123.03 53 122.5C53 119.462 55.4624 117 58.5 117Z" fill="black" fill-opacity="0.12"/>
<path fill-rule="evenodd" clip-rule="evenodd" d="M77.9319 118C71.6098 120.105 64.3946 121.25 56.7321 121.25C49.9021 121.25 43.5841 120.444 38.0066 118.864C35.7669 123.879 33.23 130.305 32.6744 134.75C31.0402 146.187 40.9821 156.211 58.6359 156.211C76.2898 156.211 85.5124 145.827 83.4974 135.096C82.1086 127.703 79.8701 122.118 77.9319 118Z" stroke="#152633" stroke-width="2"/>
<path fill-rule="evenodd" clip-rule="evenodd" d="M83.5202 136C84.8695 145.43 77.5604 154.421 63.5 156.13L63.7967 157.463C64.8351 163.001 66.912 165.078 70.3736 166.116C77.989 168.886 94.6043 167.847 92.8736 161.27C91.0274 151.809 87.9096 143.385 83.5202 136Z" fill="#2D3B45"/>
<g filter="url(#filter2_i)">
<path fill-rule="evenodd" clip-rule="evenodd" d="M92.8736 161.27C90.1043 147.078 83.9865 138.609 83.6404 135.84C84.9897 145.269 77.5604 154.421 63.5 156.13L63.7967 157.463C64.8351 163.001 66.912 165.078 70.3736 166.116C77.989 168.886 94.6043 167.847 92.8736 161.27Z" fill="#2D3B45"/>
</g>
<path fill-rule="evenodd" clip-rule="evenodd" d="M92.8736 161.27C90.1043 147.078 83.9865 138.609 83.6404 135.84C84.9897 145.269 77.5604 154.421 63.5 156.13L63.7967 157.463C64.8351 163.001 66.912 165.078 70.3736 166.116C77.989 168.886 94.6043 167.847 92.8736 161.27Z" stroke="#152633" stroke-width="2"/>
<g filter="url(#filter3_i)">
<path fill-rule="evenodd" clip-rule="evenodd" d="M32.5225 136L32.4716 136.001C32.1255 138.77 25.8947 147.078 23.1255 161.27C21.3947 167.847 38.0101 168.885 45.6255 166.116C49.087 165.078 51.164 163.001 52.2024 157.462L52.4845 156.309L52.4991 155.99C39.1746 154.028 31.7302 145.617 32.5225 136Z" fill="#2D3B45"/>
</g>
<path fill-rule="evenodd" clip-rule="evenodd" d="M32.5225 136L32.4716 136.001C32.1255 138.77 25.8947 147.078 23.1255 161.27C21.3947 167.847 38.0101 168.885 45.6255 166.116C49.087 165.078 51.164 163.001 52.2024 157.462L52.4845 156.309L52.4991 155.99C39.1746 154.028 31.7302 145.617 32.5225 136Z" stroke="#152633" stroke-width="2"/>
<path fill-rule="evenodd" clip-rule="evenodd" d="M32.5225 136C32.1255 138.77 25.8947 147.078 23.1255 161.27C21.3947 167.847 38.0101 168.885 45.6255 166.116C49.087 165.078 51.164 163.001 52.2024 157.462L52.4845 156.309L52.4991 155.99C39.1746 154.028 31.7302 145.617 32.5225 136Z" stroke="#152633" stroke-width="2"/>
<g filter="url(#filter4_i)">
<path fill-rule="evenodd" clip-rule="evenodd" d="M13.5225 90.9179C13.5225 111.266 32.0815 122.141 57.5951 122.141C83.1087 122.141 103.792 109.863 103.792 91.6196C103.792 68.9502 83.1087 47.0646 57.5951 47.0646C32.0815 47.0646 13.5225 69.5175 13.5225 90.9179Z" fill="white"/>
</g>
<path d="M57.5951 121.141C44.9617 121.141 34.16 118.446 26.549 113.33C18.9785 108.242 14.5225 100.738 14.5225 90.9179C14.5225 70.0153 32.6867 48.0646 57.5951 48.0646C82.5626 48.0646 102.792 69.5087 102.792 91.6196C102.792 100.313 97.8767 107.661 89.722 112.879C81.5567 118.105 70.2053 121.141 57.5951 121.141Z" stroke="#152633" stroke-width="2"/>
<path fill-rule="evenodd" clip-rule="evenodd" d="M65 102C65 103.657 62.09 105 58.5 105C54.91 105 52 103.657 52 102C52 100.343 54.91 99 58.5 99C62.09 99 65 100.343 65 102Z" fill="#152633"/>
<path fill-rule="evenodd" clip-rule="evenodd" d="M97.6154 85.923C97.6154 91.6076 95.9499 96.7685 93.2386 100.504C90.6253 104.105 87.0324 106.385 83.0385 106.385C78.7548 106.385 74.0294 103.846 70.4919 99.858C67.2533 96.2072 65 91.3169 65 85.923C65 81.8346 65.553 79.4285 66.9338 77.9378C68.6071 76.1314 71.386 75.6817 75.3012 74.9121C76.6644 74.6441 78.1622 74.3496 79.8 73.9747C80.284 73.864 80.7624 73.7528 81.2349 73.643C86.5754 72.4017 91.1913 71.1386 94.1609 73.3741C96.455 75.1011 97.6154 78.8952 97.6154 85.923Z" fill="#2D3B45" stroke="#152633" stroke-width="2"/>
<path fill-rule="evenodd" clip-rule="evenodd" d="M19.0001 85.9231C19.0001 91.6077 20.6656 96.7685 23.3769 100.504C25.9902 104.105 29.5831 106.385 33.577 106.385C37.8607 106.385 42.5861 103.846 46.1235 99.8581C49.3622 96.2073 51.6155 91.3169 51.6155 85.9231C51.6155 82.377 51.1557 80.2569 50.0773 78.9087C48.7684 77.2723 46.6119 76.8149 43.7152 76.0745C41.7164 75.5637 39.3733 74.9633 36.6814 73.9341C31.2662 71.8636 26.3111 70.3668 23.0141 72.6047C20.401 74.3784 19.0001 78.4691 19.0001 85.9231Z" fill="#2D3B45" stroke="#152633" stroke-width="2"/>
<path fill-rule="evenodd" clip-rule="evenodd" d="M77.133 89.7497C77.133 92.3728 75.76 94.4994 74.0665 94.4994C72.373 94.4994 71 92.3728 71 89.7497C71 87.1266 72.373 85 74.0665 85C75.76 85 77.133 87.1266 77.133 89.7497Z" fill="white"/>
<path fill-rule="evenodd" clip-rule="evenodd" d="M45.133 89.7497C45.133 92.3728 43.76 94.4994 42.0665 94.4994C40.373 94.4994 39 92.3728 39 89.7497C39 87.1266 40.373 85 42.0665 85C43.76 85 45.133 87.1266 45.133 89.7497Z" fill="white"/>
<g filter="url(#filter5_i)">
<path d="M38.5 133C44.299 133 49 128.299 49 122.5C49 116.701 44.299 112 38.5 112C32.701 112 28 116.701 28 122.5C28 128.299 32.701 133 38.5 133Z" fill="#2D3B45"/>
</g>
<path d="M38.5 133C44.299 133 49 128.299 49 122.5C49 116.701 44.299 112 38.5 112C32.701 112 28 116.701 28 122.5C28 128.299 32.701 133 38.5 133Z" stroke="#152633" stroke-width="2"/>
<g filter="url(#filter6_i)">
<path fill-rule="evenodd" clip-rule="evenodd" d="M27.0162 60.7079C29.4743 41.3446 28.4501 27.4373 23.9435 18.9861C17.1837 6.30926 48.603 2 59.1601 2C69.7171 2 98.2213 5.4503 93.4706 18.9861C88.7199 32.5219 85.4754 46.3759 89.6983 60.7079C81.269 66.0637 70.8696 68.7416 58.5 68.7416C46.1304 68.7416 35.6358 66.0637 27.0162 60.7079Z" fill="white"/>
</g>
<path fill-rule="evenodd" clip-rule="evenodd" d="M27.0162 60.7079C29.4743 41.3446 28.4501 27.4373 23.9435 18.9861C17.1837 6.30926 48.603 2 59.1601 2C69.7171 2 98.2213 5.4503 93.4706 18.9861C88.7199 32.5219 85.4754 46.3759 89.6983 60.7079C81.269 66.0637 70.8696 68.7416 58.5 68.7416C46.1304 68.7416 35.6358 66.0637 27.0162 60.7079Z" stroke="#152633" stroke-width="2"/>
<g filter="url(#filter7_i)">
<path fill-rule="evenodd" clip-rule="evenodd" d="M95.9999 68.5C111.764 64 113.366 52.7198 111.764 50.2023C107.438 43.4045 98.7865 55.1461 90.1348 60.7079" fill="#152633"/>
</g>
<path d="M95.9999 68.5C111.764 64 113.366 52.7198 111.764 50.2023C107.438 43.4045 98.7865 55.1461 90.1348 60.7079" stroke="#152633" stroke-width="2"/>
<g filter="url(#filter8_i)">
<path fill-rule="evenodd" clip-rule="evenodd" d="M27.5 60.6754C28.0758 54.1039 28.3628 50.0987 28.5 47.6367C28.6916 44.1989 42.4412 39.6967 58.5 39.6967C74.5588 39.6967 87.4639 45.1445 87.5 47.6367C87.5624 51.9411 88.1981 56.2858 89.5 60.6754C81.028 66.0229 71.0759 68.6967 58.6435 68.6967C46.2111 68.6967 36.1633 66.0229 27.5 60.6754Z" fill="#436DB9"/>
</g>
<path fill-rule="evenodd" clip-rule="evenodd" d="M27.5 60.6754C28.0758 54.1039 28.3628 50.0987 28.5 47.6367C28.6916 44.1989 42.4412 39.6967 58.5 39.6967C74.5588 39.6967 87.4639 45.1445 87.5 47.6367C87.5624 51.9411 88.1981 56.2858 89.5 60.6754C81.028 66.0229 71.0759 68.6967 58.6435 68.6967C46.2111 68.6967 36.1633 66.0229 27.5 60.6754Z" stroke="#152633" stroke-width="2"/>
<path fill-rule="evenodd" clip-rule="evenodd" d="M84.1172 58.3386C85.1088 57.593 86.5233 57.6715 87.4259 58.5741C88.3291 59.4773 88.4071 60.8932 87.6598 61.8849C86.1689 61.0638 84.9364 59.8314 84.1142 58.341L84.1172 58.3386ZM88.0225 56.7842C88.352 56.4547 88.8863 56.4547 89.2158 56.7842C89.2167 56.7852 89.2177 56.7861 89.2186 56.7871C89.2662 57.1261 89.3148 57.4568 89.3633 57.7779C89.3256 57.8496 89.2762 57.917 89.2158 57.9775C88.8863 58.307 88.352 58.307 88.0225 57.9775C87.693 57.648 87.693 57.1137 88.0225 56.7842ZM83.3551 51.4935C84.5849 51.6661 85.5312 52.7225 85.5312 54C85.5312 55.2774 84.5849 56.3339 83.3551 56.5065C83.1234 55.7106 83 54.8697 83 54C83 53.2123 83.1012 52.4482 83.2913 51.7201L83.3551 51.4935ZM87.2188 53.1562C87.6847 53.1562 88.0625 53.534 88.0625 54C88.0625 54.466 87.6847 54.8437 87.2188 54.8437C86.7528 54.8437 86.375 54.466 86.375 54C86.375 53.534 86.7528 53.1562 87.2188 53.1562ZM88.5086 49.7833C88.5356 50.3367 88.5723 50.8984 88.6166 51.4623C88.4012 51.4621 88.1865 51.3797 88.0225 51.2158C87.693 50.8863 87.693 50.352 88.0225 50.0225C88.1324 49.9127 88.2649 49.8395 88.4051 49.8028L88.5086 49.7833ZM87.6598 46.1151C88.407 47.1068 88.3291 48.5227 87.4259 49.4259C86.5224 50.3294 85.1059 50.4071 84.1141 49.659C84.914 48.2089 86.1028 47.0026 87.5399 46.1811L87.6598 46.1151Z" fill="white"/>
<path fill-rule="evenodd" clip-rule="evenodd" d="M29.574 57.5741C30.4772 56.6709 31.8931 56.5929 32.8848 57.3402C32.0634 58.8314 30.8312 60.0637 29.3409 60.8858C28.5928 59.8941 28.6705 58.4776 29.574 57.5741ZM27.7842 55.7842C28.1137 55.4547 28.6479 55.4547 28.9774 55.7842C29.3069 56.1137 29.3069 56.648 28.9774 56.9775C28.6479 57.307 28.1137 57.307 27.7842 56.9775C27.6931 56.8864 27.6272 56.7796 27.5864 56.6659C27.5948 56.4612 27.6019 56.2528 27.6096 56.0416C27.6496 55.9473 27.7081 55.8603 27.7842 55.7842ZM33.6462 50.4931C33.8765 51.2888 33.9999 52.13 33.9999 53C33.9999 53.8697 33.8766 54.7106 33.6464 55.5061C32.4154 55.3344 31.4687 54.2777 31.4687 53C31.4687 51.7698 32.3463 50.7445 33.5096 50.5162L33.6462 50.4931ZM29.7812 52.1562C30.2472 52.1562 30.6249 52.534 30.6249 53C30.6249 53.466 30.2472 53.8437 29.7812 53.8437C29.3152 53.8437 28.9374 53.466 28.9374 53C28.9374 52.534 29.3152 52.1562 29.7812 52.1562ZM28.0633 48.8372C28.368 48.7136 28.7303 48.7754 28.9774 49.0225C29.3069 49.352 29.3069 49.8863 28.9774 50.2158C28.6842 50.509 28.2289 50.5413 27.9 50.3127C27.931 49.8145 27.9616 49.3319 27.9915 48.8717L28.0633 48.8372ZM29.341 45.1143C30.8315 45.9365 32.0639 47.169 32.886 48.6595C31.8941 49.4071 30.4775 49.3294 29.574 48.4259C28.6715 47.5233 28.593 46.1088 29.3386 45.1172L29.341 45.1143Z" fill="white"/>
<path fill-rule="evenodd" clip-rule="evenodd" d="M58 64.0625C59.9877 64.0625 61.6313 65.5353 61.8993 67.4491C60.6609 67.8081 59.3529 68 58 68C56.6471 68 55.3391 67.8081 54.1016 67.45C54.3687 65.5353 56.0123 64.0625 58 64.0625ZM45.8043 60.7001C47.343 59.5929 49.5008 59.7313 50.8847 61.1153C52.2899 62.5204 52.411 64.7234 51.2481 66.266C48.9289 64.9876 47.0124 63.0711 45.7337 60.7535L45.8043 60.7001ZM65.1153 61.1153C66.5204 59.7101 68.7234 59.589 70.266 60.7519C68.9876 63.0711 67.0711 64.9876 64.7535 66.2663C63.589 64.7234 63.7101 62.5204 65.1153 61.1153ZM58 60.125C58.7249 60.125 59.3125 60.7126 59.3125 61.4375C59.3125 62.1624 58.7249 62.75 58 62.75C57.2751 62.75 56.6875 62.1624 56.6875 61.4375C56.6875 60.7126 57.2751 60.125 58 60.125ZM62.331 58.331C62.8436 57.8185 63.6746 57.8185 64.1872 58.331C64.6997 58.8436 64.6997 59.6746 64.1872 60.1872C63.6746 60.6997 62.8436 60.6997 62.331 60.1872C61.8185 59.6746 61.8185 58.8436 62.331 58.331ZM51.8128 58.331C52.3254 57.8185 53.1564 57.8185 53.669 58.331C54.1815 58.8436 54.1815 59.6746 53.669 60.1872C53.1564 60.6997 52.3254 60.6997 51.8128 60.1872C51.3003 59.6746 51.3003 58.8436 51.8128 58.331ZM44.5509 50.1007C46.4647 50.3687 47.9375 52.0123 47.9375 54C47.9375 55.9877 46.4647 57.6313 44.5509 57.8993C44.1919 56.6609 44 55.3529 44 54C44 52.7462 44.1648 51.5308 44.474 50.3745L44.5509 50.1007ZM71.45 50.1016C71.8081 51.3391 72 52.6471 72 54C72 55.3529 71.8081 56.6609 71.45 57.8984C69.5353 57.6313 68.0625 55.9877 68.0625 54C68.0625 52.0292 69.5103 50.3967 71.4004 50.1079L71.45 50.1016ZM65.4375 52.6875C66.1624 52.6875 66.75 53.2751 66.75 54C66.75 54.7249 66.1624 55.3125 65.4375 55.3125C64.7126 55.3125 64.125 54.7249 64.125 54C64.125 53.2751 64.7126 52.6875 65.4375 52.6875ZM50.5625 52.6875C51.2874 52.6875 51.875 53.2751 51.875 54C51.875 54.7249 51.2874 55.3125 50.5625 55.3125C49.8376 55.3125 49.25 54.7249 49.25 54C49.25 53.2751 49.8376 52.6875 50.5625 52.6875ZM62.331 47.8128C62.8436 47.3003 63.6746 47.3003 64.1872 47.8128C64.6997 48.3254 64.6997 49.1564 64.1872 49.669C63.6746 50.1815 62.8436 50.1815 62.331 49.669C61.8185 49.1564 61.8185 48.3254 62.331 47.8128ZM51.8128 47.8128C52.3254 47.3003 53.1564 47.3003 53.669 47.8128C54.1815 48.3254 54.1815 49.1564 53.669 49.669C53.1564 50.1815 52.3254 50.1815 51.8128 49.669C51.3003 49.1564 51.3003 48.3254 51.8128 47.8128ZM64.7535 41.7337C67.0711 43.0124 68.9876 44.9289 70.2663 47.2465C68.7234 48.411 66.5204 48.2899 65.1153 46.8847C63.7313 45.5008 63.5929 43.343 64.7001 41.8043L64.7535 41.7337ZM51.2481 41.734C52.411 43.2766 52.2899 45.4796 50.8847 46.8847C49.4796 48.2899 47.2766 48.411 45.734 47.2481C46.9859 44.9769 48.8497 43.0921 51.1028 41.814L51.2481 41.734ZM58 45.25C58.7249 45.25 59.3125 45.8376 59.3125 46.5625C59.3125 47.2874 58.7249 47.875 58 47.875C57.2751 47.875 56.6875 47.2874 56.6875 46.5625C56.6875 45.8376 57.2751 45.25 58 45.25ZM58 40C59.3529 40 60.6609 40.1919 61.8984 40.55C61.6313 42.4647 59.9877 43.9375 58 43.9375C56.0123 43.9375 54.3687 42.4647 54.1007 40.5509C55.3391 40.1919 56.6471 40 58 40Z" fill="white"/>
<path fill-rule="evenodd" clip-rule="evenodd" d="M27.5 60.6754C28.0758 54.1039 28.3628 50.0987 28.5 47.6367C28.6916 44.1989 42.4412 39.6967 58.5 39.6967C74.5588 39.6967 87.4639 45.1445 87.5 47.6367C87.5624 51.9411 88.1981 56.2858 89.5 60.6754C81.028 66.0229 71.0759 68.6967 58.6435 68.6967C46.2111 68.6967 36.1633 66.0229 27.5 60.6754Z" stroke="#152633" stroke-width="2"/>
<g filter="url(#filter9_i)">
<path fill-rule="evenodd" clip-rule="evenodd" d="M20.5 69C4.2359 63 2.7629 53.398 4.2359 50.8202C9.17973 42.1685 20.3033 57 27.1011 60.7079" fill="#152633"/>
</g>
<path d="M20.5 69C4.2359 63 2.7629 53.398 4.2359 50.8202C9.17972 42.1685 20.3033 57 27.1011 60.7079" stroke="#152633" stroke-width="2"/>
<path d="M55.5 112.5H62.0086" stroke="#152633" stroke-width="2" stroke-linecap="round"/>
<defs>
<filter id="filter0_i" x="73.8992" y="110.909" width="20.61" height="32.6756" filterUnits="userSpaceOnUse" color-interpolation-filters="sRGB">
<feFlood flood-opacity="0" result="BackgroundImageFix"/>
<feBlend mode="normal" in="SourceGraphic" in2="BackgroundImageFix" result="shape"/>
<feColorMatrix in="SourceAlpha" type="matrix" values="0 0 0 0 0 0 0 0 0 0 0 0 0 0 0 0 0 0 127 0" result="hardAlpha"/>
<feOffset dx="-5"/>
<feComposite in2="hardAlpha" operator="arithmetic" k2="-1" k3="1"/>
<feColorMatrix type="matrix" values="0 0 0 0 0 0 0 0 0 0 0 0 0 0 0 0 0 0 0.12 0"/>
<feBlend mode="normal" in2="shape" result="effect1_innerShadow"/>
</filter>
<filter id="filter1_i" x="32.5" y="118" width="51.2704" height="38.2112" filterUnits="userSpaceOnUse" color-interpolation-filters="sRGB">
<feFlood flood-opacity="0" result="BackgroundImageFix"/>
<feBlend mode="normal" in="SourceGraphic" in2="BackgroundImageFix" result="shape"/>
<feColorMatrix in="SourceAlpha" type="matrix" values="0 0 0 0 0 0 0 0 0 0 0 0 0 0 0 0 0 0 127 0" result="hardAlpha"/>
<feOffset dx="-4" dy="-1"/>
<feComposite in2="hardAlpha" operator="arithmetic" k2="-1" k3="1"/>
<feColorMatrix type="matrix" values="0 0 0 0 0 0 0 0 0 0 0 0 0 0 0 0 0 0 0.07 0"/>
<feBlend mode="normal" in2="shape" result="effect1_innerShadow"/>
</filter>
<filter id="filter2_i" x="62.2842" y="135.698" width="31.7149" height="32.8543" filterUnits="userSpaceOnUse" color-interpolation-filters="sRGB">
<feFlood flood-opacity="0" result="BackgroundImageFix"/>
<feBlend mode="normal" in="SourceGraphic" in2="BackgroundImageFix" result="shape"/>
<feColorMatrix in="SourceAlpha" type="matrix" values="0 0 0 0 0 0 0 0 0 0 0 0 0 0 0 0 0 0 127 0" result="hardAlpha"/>
<feOffset dx="-5"/>
<feComposite in2="hardAlpha" operator="arithmetic" k2="-1" k3="1"/>
<feColorMatrix type="matrix" values="0 0 0 0 0 0 0 0 0 0 0 0 0 0 0 0 0 0 0.12 0"/>
<feBlend mode="normal" in2="shape" result="effect1_innerShadow"/>
</filter>
<filter id="filter3_i" x="22" y="134.985" width="31.5393" height="33.5671" filterUnits="userSpaceOnUse" color-interpolation-filters="sRGB">
<feFlood flood-opacity="0" result="BackgroundImageFix"/>
<feBlend mode="normal" in="SourceGraphic" in2="BackgroundImageFix" result="shape"/>
<feColorMatrix in="SourceAlpha" type="matrix" values="0 0 0 0 0 0 0 0 0 0 0 0 0 0 0 0 0 0 127 0" result="hardAlpha"/>
<feOffset dx="-5"/>
<feComposite in2="hardAlpha" operator="arithmetic" k2="-1" k3="1"/>
<feColorMatrix type="matrix" values="0 0 0 0 0 0 0 0 0 0 0 0 0 0 0 0 0 0 0.12 0"/>
<feBlend mode="normal" in2="shape" result="effect1_innerShadow"/>
</filter>
<filter id="filter4_i" x="13.5225" y="47.0646" width="90.2692" height="75.0769" filterUnits="userSpaceOnUse" color-interpolation-filters="sRGB">
<feFlood flood-opacity="0" result="BackgroundImageFix"/>
<feBlend mode="normal" in="SourceGraphic" in2="BackgroundImageFix" result="shape"/>
<feColorMatrix in="SourceAlpha" type="matrix" values="0 0 0 0 0 0 0 0 0 0 0 0 0 0 0 0 0 0 127 0" result="hardAlpha"/>
<feOffset dx="-4" dy="-1"/>
<feComposite in2="hardAlpha" operator="arithmetic" k2="-1" k3="1"/>
<feColorMatrix type="matrix" values="0 0 0 0 0 0 0 0 0 0 0 0 0 0 0 0 0 0 0.07 0"/>
<feBlend mode="normal" in2="shape" result="effect1_innerShadow"/>
</filter>
<filter id="filter5_i" x="27" y="111" width="23" height="23" filterUnits="userSpaceOnUse" color-interpolation-filters="sRGB">
<feFlood flood-opacity="0" result="BackgroundImageFix"/>
<feBlend mode="normal" in="SourceGraphic" in2="BackgroundImageFix" result="shape"/>
<feColorMatrix in="SourceAlpha" type="matrix" values="0 0 0 0 0 0 0 0 0 0 0 0 0 0 0 0 0 0 127 0" result="hardAlpha"/>
<feOffset dx="-5"/>
<feComposite in2="hardAlpha" operator="arithmetic" k2="-1" k3="1"/>
<feColorMatrix type="matrix" values="0 0 0 0 0 0 0 0 0 0 0 0 0 0 0 0 0 0 0.12 0"/>
<feBlend mode="normal" in2="shape" result="effect1_innerShadow"/>
</filter>
<filter id="filter6_i" x="22" y="1" width="73.0001" height="68.7416" filterUnits="userSpaceOnUse" color-interpolation-filters="sRGB">
<feFlood flood-opacity="0" result="BackgroundImageFix"/>
<feBlend mode="normal" in="SourceGraphic" in2="BackgroundImageFix" result="shape"/>
<feColorMatrix in="SourceAlpha" type="matrix" values="0 0 0 0 0 0 0 0 0 0 0 0 0 0 0 0 0 0 127 0" result="hardAlpha"/>
<feOffset dx="-8"/>
<feComposite in2="hardAlpha" operator="arithmetic" k2="-1" k3="1"/>
<feColorMatrix type="matrix" values="0 0 0 0 0 0 0 0 0 0 0 0 0 0 0 0 0 0 0.07 0"/>
<feBlend mode="normal" in2="shape" result="effect1_innerShadow"/>
</filter>
<filter id="filter7_i" x="89.594" y="47.1431" width="23.6609" height="22.3186" filterUnits="userSpaceOnUse" color-interpolation-filters="sRGB">
<feFlood flood-opacity="0" result="BackgroundImageFix"/>
<feBlend mode="normal" in="SourceGraphic" in2="BackgroundImageFix" result="shape"/>
<feColorMatrix in="SourceAlpha" type="matrix" values="0 0 0 0 0 0 0 0 0 0 0 0 0 0 0 0 0 0 127 0" result="hardAlpha"/>
<feOffset dx="-5"/>
<feComposite in2="hardAlpha" operator="arithmetic" k2="-1" k3="1"/>
<feColorMatrix type="matrix" values="0 0 0 0 0 0 0 0 0 0 0 0 0 0 0 0 0 0 0.12 0"/>
<feBlend mode="normal" in2="shape" result="effect1_innerShadow"/>
</filter>
<filter id="filter8_i" x="26.45" y="38.6967" width="64.224" height="31" filterUnits="userSpaceOnUse" color-interpolation-filters="sRGB">
<feFlood flood-opacity="0" result="BackgroundImageFix"/>
<feBlend mode="normal" in="SourceGraphic" in2="BackgroundImageFix" result="shape"/>
<feColorMatrix in="SourceAlpha" type="matrix" values="0 0 0 0 0 0 0 0 0 0 0 0 0 0 0 0 0 0 127 0" result="hardAlpha"/>
<feOffset dx="-6"/>
<feComposite in2="hardAlpha" operator="arithmetic" k2="-1" k3="1"/>
<feColorMatrix type="matrix" values="0 0 0 0 0 0 0 0 0 0 0 0 0 0 0 0 0 0 0.12 0"/>
<feBlend mode="normal" in2="shape" result="effect1_innerShadow"/>
</filter>
<filter id="filter9_i" x="2.7959" y="47.1515" width="24.784" height="22.7868" filterUnits="userSpaceOnUse" color-interpolation-filters="sRGB">
<feFlood flood-opacity="0" result="BackgroundImageFix"/>
<feBlend mode="normal" in="SourceGraphic" in2="BackgroundImageFix" result="shape"/>
<feColorMatrix in="SourceAlpha" type="matrix" values="0 0 0 0 0 0 0 0 0 0 0 0 0 0 0 0 0 0 127 0" result="hardAlpha"/>
<feOffset dx="-5"/>
<feComposite in2="hardAlpha" operator="arithmetic" k2="-1" k3="1"/>
<feColorMatrix type="matrix" values="0 0 0 0 0 0 0 0 0 0 0 0 0 0 0 0 0 0 0.12 0"/>
<feBlend mode="normal" in2="shape" result="effect1_innerShadow"/>
</filter>
</defs>
</svg>
