<svg viewBox="0 0 124 158" fill="none" xmlns="http://www.w3.org/2000/svg">
<path fill-rule="evenodd" clip-rule="evenodd" d="M39.5001 96.7478C40.3681 97.3672 41.2612 97.972 42.174 98.5631C40.3299 103.178 35.6815 113.308 28.3581 119.408C18.6469 127.497 11.1561 116.742 12.4171 110.276C13.5928 104.245 23.4019 99.6828 39.5001 96.7478Z" fill="#2D3B45" stroke="#152633" stroke-width="2"/>
<path fill-rule="evenodd" clip-rule="evenodd" d="M64.3232 155.782C32.843 155.782 7.32324 151.753 7.32324 146.782C7.32324 141.811 32.843 137.782 64.3232 137.782C95.8035 137.782 121.323 141.811 121.323 146.782C121.323 151.753 95.8035 155.782 64.3232 155.782Z" fill="black" fill-opacity="0.05"/>
<path fill-rule="evenodd" clip-rule="evenodd" d="M85.46 95.6209C95.1549 82.4386 103.556 75.6223 109.492 77.2095C115.856 78.9105 122.239 90.3578 110.711 95.54C102.018 99.4481 90.8753 99.1853 85.9194 98.82C85.7882 97.7404 85.6362 96.6726 85.46 95.6209Z" fill="#2D3B45" stroke="#152633" stroke-width="2"/>
<path fill-rule="evenodd" clip-rule="evenodd" d="M42.9847 92.9898C50.1279 95.3685 58.2802 96.6615 66.9377 96.6615C74.6547 96.6615 77.8461 93.08 84.148 91.295C90.3623 96.6615 93.4921 106.893 94.1198 111.915C95.9662 124.837 84.7332 136.163 64.7867 136.163C44.8401 136.163 34.4198 124.43 36.6964 112.306C38.2656 103.953 40.7949 97.6424 42.9847 92.9898Z" fill="white" stroke="#152633" stroke-width="2"/>
<path fill-rule="evenodd" clip-rule="evenodd" d="M36.6706 113.327C35.1461 123.982 43.4044 134.14 59.2908 136.072L58.9556 137.577C57.7823 143.835 55.4356 146.182 51.5246 147.355C42.9202 150.484 24.1469 149.311 26.1025 141.88C28.1884 131.189 31.7111 121.672 36.6706 113.327Z" fill="#2D3B45"/>
<path fill-rule="evenodd" clip-rule="evenodd" d="M26.1025 141.88C29.2314 125.844 36.1437 116.275 36.5348 113.146C35.0103 123.801 43.4044 134.14 59.2908 136.072L58.9556 137.577C57.7823 143.835 55.4356 146.182 51.5246 147.355C42.9202 150.484 24.1469 149.311 26.1025 141.88Z" stroke="#152633" stroke-width="2"/>
<path fill-rule="evenodd" clip-rule="evenodd" d="M94.2914 113.327L94.3488 113.328C94.74 116.457 101.78 125.844 104.909 141.879C106.864 149.31 88.0911 150.484 79.4867 147.355C75.5756 146.181 73.229 143.835 72.0556 137.577L71.7369 136.273L71.7205 135.914C86.7754 133.696 95.1866 124.193 94.2914 113.327Z" fill="#2D3B45"/>
<path fill-rule="evenodd" clip-rule="evenodd" d="M94.2914 113.327C94.74 116.457 101.78 125.844 104.909 141.879C106.864 149.31 88.0911 150.484 79.4867 147.355C75.5756 146.181 73.229 143.835 72.0556 137.577L71.7369 136.273L71.7205 135.914C86.7754 133.696 95.1866 124.193 94.2914 113.327Z" stroke="#152633" stroke-width="2"/>
<path fill-rule="evenodd" clip-rule="evenodd" d="M111.908 53.3261C116.168 76.3167 97.6629 92.4543 69.0938 97.7471C40.5251 103.04 19.4485 93.5874 12.847 72.1639C5.71929 49.0317 24.81 18.2129 53.3792 12.9202C81.9479 7.62753 107.429 29.1465 111.908 53.3261Z" fill="white" stroke="#152633" stroke-width="2"/>
<path fill-rule="evenodd" clip-rule="evenodd" d="M72.7753 91.7455C71.6451 92.887 70.5688 93.5053 69.6021 93.5388C68.6015 93.5735 67.6983 92.9844 66.9181 91.7879C66.4915 91.1343 66.0839 90.4174 65.7042 89.6895C68.5018 89.6151 71.0002 90.1687 72.7753 91.7455ZM61.9213 84.1642C62.6469 86.2611 63.6526 89.1346 65.8418 92.4903C66.8706 94.0666 68.1863 94.8735 69.6462 94.8226C70.0504 94.8088 70.4583 94.7307 70.8691 94.5885C72.8927 93.8883 74.9969 91.6329 77.1433 87.8682C79.2602 87.6337 80.9652 87.1601 82.0655 86.7793C82.8782 86.4981 83.3639 86.2693 83.4493 86.2283C84.277 85.7815 83.9093 84.7189 82.8904 85.0714C82.8018 85.1145 74.3548 89.0578 64.8302 84.47C64.802 84.4559 63.7529 84.0501 62.86 83.404C61.7505 82.5128 61.4376 82.7662 61.9213 84.1642Z" fill="#152633"/>
<path fill-rule="evenodd" clip-rule="evenodd" d="M68.8576 75.4466C68.4722 73.3669 71.6207 71.0398 75.8893 70.2487C80.1584 69.4579 83.9313 70.5025 84.3168 72.5826C84.7018 74.6625 81.5537 76.9895 77.285 77.7801C73.0159 78.5709 69.2429 77.5259 68.8576 75.4466Z" fill="#152633"/>
<path fill-rule="evenodd" clip-rule="evenodd" d="M44.3712 84.9103L44.3713 84.9103C54.4525 83.0429 63.0934 69.7408 60.8186 57.4611C58.276 43.7345 47.6362 31.401 38.8594 33.027C34.4904 33.8361 29.8794 38.1002 26.6199 44.4725C23.3221 50.9193 22.0273 58.4001 23.1462 64.4405C25.5664 77.5041 35.1591 86.6173 44.3712 84.9103Z" fill="#2D3B45" stroke="#152633" stroke-width="2"/>
<path fill-rule="evenodd" clip-rule="evenodd" d="M52.2858 56.4479C54.6109 56.6891 56.1884 59.8475 55.8091 63.501C55.4301 67.1554 53.2374 69.9214 50.9122 69.6801C48.5869 69.4385 47.0094 66.2811 47.3885 62.6271C47.768 58.973 49.9606 56.2066 52.2858 56.4479Z" fill="white"/>
<path fill-rule="evenodd" clip-rule="evenodd" d="M85.876 63.6067C89.5585 67.4087 93.2806 69.0089 96.3404 68.5262C96.395 68.5179 96.4464 68.5092 96.4957 68.5001C98.6807 68.0952 101.265 66.4557 102.743 64.3655C106.347 59.2706 107.368 54.2249 105.955 46.5961C103.726 34.5681 89.4116 21.2016 80.7787 22.8007C78.9071 23.1476 77.5015 24.066 76.5454 25.5549C73.6991 29.9869 74.4108 38.9754 77.881 50.0878C79.3712 54.8617 82.2515 59.8642 85.876 63.6067Z" fill="#2D3B45" stroke="#152633" stroke-width="2"/>
<path fill-rule="evenodd" clip-rule="evenodd" d="M92.3133 53.5722C93.6759 56.2567 93.3961 59.136 91.6879 60.0031C89.9794 60.8706 87.4901 59.3974 86.1271 56.713C84.7641 54.0287 85.0444 51.1496 86.7522 50.2823C88.4603 49.4149 90.9504 50.8882 92.3133 53.5722Z" fill="white"/>
<path fill-rule="evenodd" clip-rule="evenodd" d="M15.1099 43.2959C13.5578 42.9647 11.8538 42.3919 10.0789 41.4416C3.25162 37.7868 2.97232 29.6385 3.00168 27.5832C3.03053 25.5277 3.6467 15.5736 11.9858 18.5388C17.3713 20.4534 23.2862 24.3195 26.8029 26.8194C21.8992 31.5817 17.9316 37.2167 15.1099 43.2959Z" fill="#2D3B45" stroke="#152633" stroke-width="2"/>
<path fill-rule="evenodd" clip-rule="evenodd" d="M95.8033 21.5132C95.1003 22.3262 94.3743 23.0146 93.6508 23.5982C88.9878 19.8158 83.652 16.7785 77.8657 14.7789C79.9397 11.668 83.4705 6.80253 87.1772 3.62957C92.9857 -1.34259 96.5631 6.49582 97.2229 8.14437C97.8828 9.79329 100.179 16.4521 95.8033 21.5132Z" fill="#2D3B45" stroke="#152633" stroke-width="2"/>
</svg>
