<svg viewBox="0 0 102 135" fill="none" xmlns="http://www.w3.org/2000/svg">
<path d="M51 133.154C78.6142 133.154 101 128.565 101 122.904C101 117.243 78.6142 112.654 51 112.654C23.3858 112.654 1 117.243 1 122.904C1 128.565 23.3858 133.154 51 133.154Z" fill="black" fill-opacity="0.05"/>
<path fill-rule="evenodd" clip-rule="evenodd" d="M70.9319 75.6541C64.6098 77.7594 57.3946 78.9037 49.7321 78.9037C42.9021 78.9037 36.5841 78.0979 31.0066 76.5181C28.7669 81.5331 26.23 87.9591 25.6744 92.4037C24.0402 103.841 33.9821 113.865 51.636 113.865C69.2898 113.865 78.5124 103.481 76.4974 92.7499C75.1086 85.3571 72.8701 79.7719 70.9319 75.6541Z" fill="white"/>
<path fill-rule="evenodd" clip-rule="evenodd" d="M70.932 75.6541C64.6098 77.7594 57.3946 78.9037 49.7321 78.9037C42.9021 78.9037 36.5841 78.0979 31.0066 76.5181C28.7669 81.5331 26.23 87.9591 25.6744 92.4037C24.0402 103.841 33.9821 113.865 51.636 113.865C69.2898 113.865 78.5124 103.481 76.4974 92.7499C75.1086 85.3571 72.8701 79.7719 70.932 75.6541Z" stroke="#152633" stroke-width="2"/>
<path fill-rule="evenodd" clip-rule="evenodd" d="M76.5202 93.6541C77.8695 103.084 70.5604 112.075 56.5 113.784L56.7967 115.117C57.8351 120.655 59.912 122.732 63.3736 123.77C70.989 126.54 87.6043 125.501 85.8736 118.924C84.0274 109.463 80.9096 101.039 76.5202 93.6541Z" fill="#2D3B45"/>
<path fill-rule="evenodd" clip-rule="evenodd" d="M85.8736 118.924C83.1043 104.732 76.9865 96.2631 76.6404 93.4939C77.9897 102.923 70.5604 112.075 56.5 113.784L56.7967 115.117C57.8351 120.655 59.912 122.732 63.3736 123.77C70.989 126.54 87.6043 125.501 85.8736 118.924Z" stroke="#152633" stroke-width="2"/>
<path fill-rule="evenodd" clip-rule="evenodd" d="M25.5225 93.6541L25.4716 93.6547C25.1255 96.424 18.8947 104.732 16.1255 118.924C14.3947 125.501 31.0101 126.539 38.6255 123.77C42.087 122.732 44.1639 120.655 45.2024 115.116L45.4845 113.963L45.4991 113.644C32.1746 111.682 24.7302 103.271 25.5225 93.6541Z" fill="#2D3B45"/>
<path fill-rule="evenodd" clip-rule="evenodd" d="M25.5225 93.6541C25.1255 96.424 18.8947 104.732 16.1255 118.924C14.3947 125.501 31.0101 126.539 38.6255 123.77C42.087 122.732 44.1639 120.655 45.2024 115.116L45.4845 113.963L45.4991 113.644C32.1746 111.682 24.7302 103.271 25.5225 93.6541Z" stroke="#152633" stroke-width="2"/>
<path fill-rule="evenodd" clip-rule="evenodd" d="M32.3846 73.1601C28.1965 73.0837 24.4141 77.1122 23.0059 82.9194C21.4269 89.4307 23.4687 95.4054 28.7438 97.5776C34.1667 99.8105 39.0228 100.141 43.1704 99.0483C44.7175 98.6406 46.0824 98.0497 47.1917 97.3633C48.0039 96.8607 48.607 96.3386 48.7502 96.1095C49.8097 94.4143 50.7382 89.783 50.2865 86.6829C49.7064 82.7006 47.3049 81.2271 42.1062 83.0537C37.1414 84.7981 33.9985 84.8288 32.3394 83.1401C30.9847 81.7614 30.8884 79.6918 31.5329 76.6443C31.6434 76.1218 31.7693 75.595 31.9476 74.8921C32.1661 74.0302 32.299 73.5068 32.3846 73.1601Z" fill="#2D3B45" stroke="#152633" stroke-width="2"/>
<path fill-rule="evenodd" clip-rule="evenodd" d="M70.5258 73.1601C74.7139 73.0837 78.4963 77.1122 79.9045 82.9194C81.4835 89.4307 79.4417 95.4054 74.1666 97.5776C68.7437 99.8105 63.8876 100.141 59.74 99.0483C58.1929 98.6406 56.828 98.0497 55.7187 97.3633C54.9065 96.8607 54.3034 96.3386 54.1602 96.1095C53.1007 94.4143 52.1723 89.783 52.6239 86.6829C53.204 82.7006 55.6055 81.2271 60.8042 83.0537C65.769 84.7981 68.9119 84.8288 70.571 83.1401C71.9257 81.7614 72.022 79.6918 71.3775 76.6443C71.267 76.1218 71.1411 75.595 70.9628 74.8921C70.7443 74.0302 70.6114 73.5068 70.5258 73.1601Z" fill="#2D3B45" stroke="#152633" stroke-width="2"/>
<path fill-rule="evenodd" clip-rule="evenodd" d="M7.52246 47.9878C7.52246 68.0647 25.6703 78.7955 50.6186 78.7955C75.567 78.7955 95.7917 66.6801 95.7917 48.6801C95.7917 26.3127 75.567 4.71857 50.6186 4.71857C25.6703 4.71857 7.52246 26.8724 7.52246 47.9878Z" fill="white"/>
<path d="M41 66.6541C41 68.449 45.701 69.9041 51.5 69.9041C57.299 69.9041 62 68.449 62 66.6541" stroke="#152633" stroke-width="2" stroke-linecap="round" stroke-linejoin="round"/>
<path fill-rule="evenodd" clip-rule="evenodd" d="M7.52246 47.9878C7.52246 68.0647 25.6703 78.7955 50.6186 78.7955C75.567 78.7955 95.7917 66.6801 95.7917 48.6801C95.7917 26.3127 75.567 4.71857 50.6186 4.71857C25.6703 4.71857 7.52246 26.8724 7.52246 47.9878Z" stroke="#152633" stroke-width="2"/>
<path fill-rule="evenodd" clip-rule="evenodd" d="M58.4072 59.9301C58.4072 61.7463 55.3853 63.2185 51.6572 63.2185C47.9291 63.2185 44.9072 61.7463 44.9072 59.9301C44.9072 58.1138 47.9291 56.6416 51.6572 56.6416C55.3853 56.6416 58.4072 58.1138 58.4072 59.9301Z" fill="#152633"/>
<path fill-rule="evenodd" clip-rule="evenodd" d="M72.9456 19.5646C65.3794 19.5646 58.3687 31.5682 58.3687 43.4877C58.3687 54.1345 67.6832 63.9492 76.4071 63.9492C84.3622 63.9492 90.984 54.8258 90.984 43.4877C90.984 38.246 88.7316 32.1621 84.9574 27.2586C81.2334 22.4203 76.7103 19.5646 72.9456 19.5646Z" fill="#2D3B45" stroke="#152633" stroke-width="2"/>
<path fill-rule="evenodd" clip-rule="evenodd" d="M26.5608 63.9494C35.2847 63.9494 44.5993 54.1347 44.5993 43.4878C44.5993 31.5682 37.5886 19.5648 30.0223 19.5648C26.2574 19.5648 21.7343 22.4203 18.0105 27.2588C14.2361 32.1621 11.9839 38.2456 11.9839 43.4878C11.9839 54.8259 18.6057 63.9494 26.5608 63.9494Z" fill="#2D3B45" stroke="#152633" stroke-width="2"/>
<path fill-rule="evenodd" clip-rule="evenodd" d="M71.133 49.4038C71.133 52.0269 69.76 54.1535 68.0665 54.1535C66.373 54.1535 65 52.0269 65 49.4038C65 46.7807 66.373 44.6541 68.0665 44.6541C69.76 44.6541 71.133 46.7807 71.133 49.4038Z" fill="white"/>
<path fill-rule="evenodd" clip-rule="evenodd" d="M38.133 49.4038C38.133 52.0269 36.76 54.1535 35.0665 54.1535C33.373 54.1535 32 52.0269 32 49.4038C32 46.7807 33.373 44.6541 35.0665 44.6541C36.76 44.6541 38.133 46.7807 38.133 49.4038Z" fill="white"/>
<path fill-rule="evenodd" clip-rule="evenodd" d="M87.6799 24.3787C88.9388 23.8564 90.2875 23.1062 91.6378 22.0262C96.8301 17.8724 95.7916 10.9493 95.4455 9.21855C95.0993 7.48778 93.0224 -0.81991 86.4455 2.98778C82.1978 5.44686 77.8086 9.63601 75.2305 12.2969C80.1157 15.5507 84.3468 19.6873 87.6799 24.3787Z" fill="#2D3B45"/>
<path fill-rule="evenodd" clip-rule="evenodd" d="M87.6799 24.3787C88.9388 23.8564 90.2875 23.1062 91.6378 22.0262C96.8301 17.8724 95.7916 10.9493 95.4455 9.21855C95.0993 7.48778 93.0224 -0.81991 86.4455 2.98778C82.1978 5.44686 77.8086 9.63601 75.2305 12.2969C80.1157 15.5507 84.3468 19.6873 87.6799 24.3787Z" stroke="#152633" stroke-width="2"/>
<path fill-rule="evenodd" clip-rule="evenodd" d="M14.4325 24.3787C13.1739 23.8564 11.8249 23.1062 10.4746 22.0262C5.28227 17.8724 6.32074 10.9493 6.66689 9.21855C7.01305 7.48778 9.08997 -0.81991 15.6669 2.98778C19.9146 5.44686 24.3038 9.63601 26.8819 12.2969C21.997 15.5507 17.766 19.6873 14.4325 24.3787Z" fill="#2D3B45"/>
<path fill-rule="evenodd" clip-rule="evenodd" d="M14.4325 24.3787C13.1739 23.8564 11.8249 23.1062 10.4746 22.0262C5.28227 17.8724 6.32074 10.9493 6.66689 9.21855C7.01305 7.48778 9.08997 -0.81991 15.6669 2.98778C19.9146 5.44686 24.3038 9.63601 26.8819 12.2969C21.997 15.5507 17.766 19.6873 14.4325 24.3787Z" stroke="#152633" stroke-width="2"/>
<path fill-rule="evenodd" clip-rule="evenodd" d="M69 106.654V72.6541H34V106.654H69Z" fill="#5DB9F2" stroke="#152633" stroke-width="2"/>
<path fill-rule="evenodd" clip-rule="evenodd" d="M71 98.654C61.0379 100.764 54.024 97.0746 53.3121 96.0536C51.4494 93.3812 48.0928 78.917 61.1356 83.026C66.3359 84.6643 69.3836 84.3561 70.5 83.154" fill="#2D3B45"/>
<path d="M71 98.654C61.0379 100.764 54.024 97.0746 53.3121 96.0536C51.4494 93.3812 48.0928 78.917 61.1356 83.026C66.3359 84.6643 69.3836 84.3561 70.5 83.154" stroke="#152633" stroke-width="2"/>
<path fill-rule="evenodd" clip-rule="evenodd" d="M33 83.654C34.0974 84.778 36.5076 84.6219 41.2983 83.026C53.6327 78.917 50.4583 93.3812 48.6968 96.0536C48.0256 97.0715 41.3704 100.721 32 98.654" fill="#2D3B45"/>
<path d="M33 83.654C34.0974 84.778 36.5076 84.6219 41.2983 83.026C53.6327 78.917 50.4583 93.3812 48.6968 96.0536C48.0256 97.0715 41.3704 100.721 32 98.654" stroke="#152633" stroke-width="2"/>
<path fill-rule="evenodd" clip-rule="evenodd" d="M69 75.6541V69.6541H37C35.3431 69.6541 34 70.9972 34 72.6541C34 74.3109 35.3431 75.6541 37 75.6541H69Z" fill="white" stroke="#152633" stroke-width="2"/>
</svg>
