<svg viewBox="0 0 180 224" fill="none" xmlns="http://www.w3.org/2000/svg">
<path d="M44.4204 194C64.5788 194 80.9204 189.523 80.9204 184C80.9204 178.477 64.5788 174 44.4204 174C24.262 174 7.92041 178.477 7.92041 184C7.92041 189.523 24.262 194 44.4204 194Z" fill="black" fill-opacity="0.05"/>
<path fill-rule="evenodd" clip-rule="evenodd" d="M38.9521 168.997C41.4999 169.846 42.7738 172.606 42.7738 177.277C42.7738 183.965 65.3853 183.965 66.6592 178.232C67.933 172.5 64.4299 160.08 59.0158 155.939C55.4065 153.179 48.7186 157.532 38.9521 168.997Z" fill="#2D3B45" stroke="#152633" stroke-width="2"/>
<path fill-rule="evenodd" clip-rule="evenodd" d="M73.3471 157.361C70.7993 145.43 58.4149 148.772 54.4717 149.651C54.5406 149.636 54.6134 149.626 54.6815 149.61C57.3007 154.714 52.965 166.515 63.4745 168.678C74.3025 170.908 74.211 161.406 73.3471 157.361Z" fill="#2D3B45" stroke="#152633" stroke-width="2"/>
<path fill-rule="evenodd" clip-rule="evenodd" d="M13.2781 156.647C13.6381 155.676 14.5727 154.984 15.669 154.984C16.7653 154.984 17.6999 155.676 18.0599 156.647C19.0368 156.325 20.1532 156.618 20.8389 157.465C21.5331 158.322 21.5798 159.493 21.0414 160.386C21.9099 160.954 22.3764 162.023 22.1293 163.093C21.8832 164.159 21.0017 164.913 19.9773 165.048C20.0738 166.074 19.5374 167.099 18.5562 167.578C17.5668 168.06 16.4181 167.844 15.669 167.122C14.9199 167.844 13.7712 168.06 12.7818 167.578C11.8005 167.099 11.2642 166.074 11.3607 165.048C10.3362 164.913 9.45483 164.159 9.20872 163.093C8.96161 162.023 9.42804 160.954 10.2966 160.386C9.75816 159.493 9.80492 158.322 10.4991 157.465C11.1847 156.618 12.3011 156.325 13.2781 156.647Z" fill="#2D3B45" stroke="#152633" stroke-width="2"/>
<path fill-rule="evenodd" clip-rule="evenodd" d="M47.8694 168.997C67.2961 164.538 66.136 141.62 59.7772 129.228C56.1496 123.137 72.0732 128.869 55.5127 123.774C38.9522 118.678 13.4745 148.615 20.4808 160.398C27.4872 172.181 39.5891 171.226 47.8694 168.997Z" fill="white" stroke="#152633" stroke-width="2" stroke-linejoin="round"/>
<path fill-rule="evenodd" clip-rule="evenodd" d="M22.3917 151.162C15.0668 156.895 15.3853 166.449 16.3407 172.181C16.8937 175.499 15.9775 178.469 16.3407 183.009C17.7829 187.016 37.9967 190.653 44.6846 184.92C46.277 178.232 42.7738 175.896 44.6846 169.845C33.5382 162.202 30.3534 169.634 22.3917 151.162Z" fill="#2D3B45" stroke="#152633" stroke-width="2" stroke-linejoin="round"/>
<path fill-rule="evenodd" clip-rule="evenodd" d="M14.1148 142.871C9.34652 158.6 21.3443 173.037 31.1156 173.441C40.8862 173.844 47.9601 166.266 44.3732 157.844C40.7854 149.422 31.0149 149.018 29.2347 148.138C27.4549 147.256 25.383 143.781 22.9868 140.614C20.308 137.073 15.8673 137.091 14.1148 142.871Z" fill="#2D3B45" stroke="#152633" stroke-width="2"/>
<path fill-rule="evenodd" clip-rule="evenodd" d="M101.931 124.639C98.1341 147.317 75.606 156.006 47.4253 151.288C19.245 146.57 2.94761 130.746 4.05282 108.728C5.24651 84.9549 33.2537 62.8966 61.4344 67.6145C89.6147 72.3325 105.924 100.788 101.931 124.639Z" fill="white" stroke="#152633" stroke-width="2"/>
<path fill-rule="evenodd" clip-rule="evenodd" d="M54.7076 130.601C54.3643 132.652 57.4994 134.886 61.7104 135.592C65.921 136.297 69.6128 135.205 69.9566 133.154C70.2999 131.102 67.1648 128.868 62.9538 128.162C58.7432 127.458 55.0509 128.549 54.7076 130.601Z" fill="#152633"/>
<path fill-rule="evenodd" clip-rule="evenodd" d="M28.8996 131.094L28.8997 131.094C38.8345 132.757 51.2852 123.378 53.3118 111.274C55.5776 97.7419 49.8973 82.7753 41.2512 81.3279C36.9476 80.607 31.2572 82.9946 26.1052 87.7836C20.8921 92.6295 17.1813 99.1037 16.1843 105.058C14.0283 117.936 19.823 129.575 28.8996 131.094Z" fill="#2D3B45" stroke="#152633" stroke-width="2"/>
<path fill-rule="evenodd" clip-rule="evenodd" d="M45.7837 107.47C47.8512 108.475 48.2466 111.924 46.6673 115.173C45.088 118.423 42.1314 120.241 40.0639 119.236C37.9964 118.231 37.6005 114.782 39.1799 111.533C40.7596 108.284 43.7162 106.465 45.7837 107.47Z" fill="white"/>
<path fill-rule="evenodd" clip-rule="evenodd" d="M74.4316 125.377C76.5537 130.124 79.451 132.851 82.435 133.433C82.4881 133.444 82.5383 133.453 82.5868 133.461C84.7379 133.821 87.6728 133.176 89.7382 131.744C94.7788 128.251 97.4169 123.936 98.676 116.415C100.661 104.558 91.9331 87.4012 83.428 85.9771C81.5863 85.6688 79.9831 86.0437 78.6025 87.0951C74.4869 90.2293 72.1224 98.7712 71.5918 110.203C71.3634 115.113 72.342 120.702 74.4316 125.377Z" fill="#2D3B45" stroke="#152633" stroke-width="2"/>
<path fill-rule="evenodd" clip-rule="evenodd" d="M83.7399 118.276C84.0962 121.215 82.8692 123.782 80.999 124.008C79.1284 124.235 77.3236 122.037 76.9669 119.098C76.6103 116.159 77.8376 113.592 79.7074 113.365C81.5776 113.138 83.3832 115.337 83.7399 118.276Z" fill="white"/>
<path fill-rule="evenodd" clip-rule="evenodd" d="M15.8534 82.8129C14.5305 81.9848 13.1485 80.8824 11.8279 79.4072C6.74821 73.7335 9.23072 66.1098 9.94913 64.2204C10.6671 62.3307 14.5845 53.3395 21.2933 58.8843C25.626 62.465 29.7916 68.027 32.2005 71.52C26.0672 74.2715 20.5056 78.1442 15.8534 82.8129Z" fill="#2D3B45" stroke="#152633" stroke-width="2"/>
<path fill-rule="evenodd" clip-rule="evenodd" d="M97.748 89.8243C96.8248 90.3391 95.9224 90.731 95.0576 91.027C92.0207 85.9633 88.1115 81.362 83.437 77.568C86.3999 75.3908 91.2991 72.0822 95.7916 70.3968C102.832 67.7558 103.501 76.2024 103.556 77.9477C103.611 79.6934 103.494 86.6191 97.748 89.8243Z" fill="#2D3B45" stroke="#152633" stroke-width="2"/>
<path fill-rule="evenodd" clip-rule="evenodd" d="M48.5891 136.336C49.4452 138.44 50.6402 139.855 53.3639 140.549C53.544 140.586 53.7294 140.621 53.9202 140.653C53.9167 140.66 53.9133 140.667 53.9098 140.674C55.1119 140.92 56.5849 141.045 58.4115 141.045H53.9202C53.2483 141.909 52.444 142.776 51.6257 143.488C51.2581 143.817 50.8552 144.146 50.417 144.474C49.202 145.386 48.494 145.5 48.0167 145.06C47.6773 144.929 47.4065 144.64 47.2323 144.156C46.9411 143.347 46.7773 142.128 46.7157 140.821C46.3631 138.281 46.6764 135.714 47.2323 134.602C47.7274 133.612 48.0301 134.738 48.5891 136.336Z" fill="#152633" stroke="#152633" stroke-linecap="round" stroke-linejoin="round"/>
<path fill-rule="evenodd" clip-rule="evenodd" d="M90.1432 40.8251L84.5871 44L85.5133 38.8131C78.3921 35.1542 73.9204 29.8727 73.9204 24C73.9204 12.9543 89.7397 4 109.254 4C128.768 4 144.587 12.9543 144.587 24C144.587 35.0457 128.768 44 109.254 44C102.213 44 95.6526 42.8342 90.1432 40.8251Z" fill="white" stroke="#152633" stroke-width="2"/>
<path fill-rule="evenodd" clip-rule="evenodd" d="M112.409 15.5859L111.448 27.9141H107.112L106.667 15.5859H112.409ZM111.635 31.5234C111.635 31.8672 111.569 32.1875 111.436 32.4844C111.303 32.7813 111.125 33.041 110.903 33.2637C110.68 33.4863 110.42 33.6621 110.124 33.791C109.827 33.9199 109.51 33.9844 109.174 33.9844C108.831 33.9844 108.51 33.9199 108.213 33.791C107.917 33.6621 107.657 33.4863 107.434 33.2637C107.211 33.041 107.036 32.7813 106.907 32.4844C106.778 32.1875 106.713 31.8672 106.713 31.5234C106.713 31.1875 106.778 30.8672 106.907 30.5625C107.036 30.2578 107.211 29.9941 107.434 29.7715C107.657 29.5488 107.917 29.3711 108.213 29.2383C108.51 29.1055 108.831 29.0391 109.174 29.0391C109.51 29.0391 109.827 29.1055 110.124 29.2383C110.42 29.3711 110.68 29.5488 110.903 29.7715C111.125 29.9941 111.303 30.2578 111.436 30.5625C111.569 30.8672 111.635 31.1875 111.635 31.5234Z" fill="#152633"/>
<path d="M151.42 220C165.504 220 176.92 217.538 176.92 214.5C176.92 211.462 165.504 209 151.42 209C137.337 209 125.92 211.462 125.92 214.5C125.92 217.538 137.337 220 151.42 220Z" fill="black" fill-opacity="0.05"/>
<path d="M135.623 197.902C133.875 192.522 135.17 188.879 139.507 186.974" stroke="#152633" stroke-width="2" stroke-linecap="round"/>
<path fill-rule="evenodd" clip-rule="evenodd" d="M148.664 209.288C141.045 207.384 137.46 207.384 137.796 198.98C138.033 193.043 130.961 193.154 130.065 199.877C129.168 206.599 131.745 218.028 158.3 214.891C175.779 212.202 168.16 208.616 161.885 208.84C155.611 209.064 148.664 209.288 148.664 209.288Z" fill="#01B9A3" stroke="#152633" stroke-width="2"/>
<path fill-rule="evenodd" clip-rule="evenodd" d="M151.394 211.5C152.586 218.028 162.334 218.028 168.048 206.487C174.047 194.371 164.574 168.504 149.336 185.759C134.098 203.014 144.294 215.899 154.714 210.297" fill="#FFE79B"/>
<path d="M151.394 211.5C152.586 218.028 162.334 218.028 168.048 206.487C174.047 194.371 164.574 168.504 149.336 185.759C134.098 203.014 144.294 215.899 154.714 210.297C165.135 204.695 164.126 189.457 156.059 188.448C147.992 187.44 142.614 202.118 151.353 204.246C151.353 204.246 157.516 205.479 153.146 195.059" stroke="#152633" stroke-width="2" stroke-linecap="round"/>
<path d="M133.42 197.75C129.42 193.75 128.92 189.917 131.92 186.25" stroke="#152633" stroke-width="2" stroke-linecap="round"/>
</svg>
