<svg viewBox="0 0 160 172" fill="none" xmlns="http://www.w3.org/2000/svg">
<path fill-rule="evenodd" clip-rule="evenodd" d="M64.3234 160.782L126.323 142.282L157.323 150.782L94.3234 169.782L64.3234 160.782Z" fill="black" fill-opacity="0.05"/>
<path fill-rule="evenodd" clip-rule="evenodd" d="M38.5001 96.7478C39.3681 97.3672 40.2612 97.972 41.174 98.5631C39.3299 103.178 34.6815 113.307 27.3581 119.408C17.6469 127.497 10.1561 116.742 11.4171 110.276C12.5928 104.245 22.4019 99.6827 38.5001 96.7478Z" fill="#2D3B45" stroke="#152633" stroke-width="2"/>
<path fill-rule="evenodd" clip-rule="evenodd" d="M63.3234 155.782C31.8431 155.782 6.32336 151.753 6.32336 146.782C6.32336 141.811 31.8431 137.782 63.3234 137.782C94.8036 137.782 120.323 141.811 120.323 146.782C120.323 151.753 94.8036 155.782 63.3234 155.782Z" fill="black" fill-opacity="0.05"/>
<path fill-rule="evenodd" clip-rule="evenodd" d="M84.4598 95.6209C94.1547 82.4386 102.556 75.6223 108.492 77.2095C114.856 78.9105 121.239 90.3578 109.711 95.54C101.018 99.4481 89.8752 99.1853 84.9192 98.82C84.7881 97.7405 84.6361 96.6726 84.4598 95.6209Z" fill="#2D3B45" stroke="#152633" stroke-width="2"/>
<path fill-rule="evenodd" clip-rule="evenodd" d="M41.9847 92.9897C49.1279 95.3685 57.2802 96.6615 65.9377 96.6615C73.6547 96.6615 76.8461 93.0799 83.148 91.2949C89.3623 96.6615 92.4921 106.893 93.1198 111.915C94.9662 124.837 83.7332 136.163 63.7867 136.163C43.8401 136.163 33.4198 124.43 35.6964 112.306C37.2656 103.953 39.7949 97.6424 41.9847 92.9897Z" fill="white" stroke="#152633" stroke-width="2"/>
<path fill-rule="evenodd" clip-rule="evenodd" d="M35.6706 113.327C34.1461 123.982 42.4044 134.14 58.2908 136.072L57.9556 137.577C56.7823 143.835 54.4356 146.182 50.5246 147.355C41.9202 150.484 23.1469 149.311 25.1025 141.88C27.1884 131.189 30.7111 121.672 35.6706 113.327Z" fill="#2D3B45"/>
<path fill-rule="evenodd" clip-rule="evenodd" d="M25.1025 141.88C28.2314 125.844 35.1437 116.275 35.5348 113.146C34.0103 123.801 42.4044 134.14 58.2908 136.072L57.9556 137.577C56.7823 143.835 54.4356 146.182 50.5246 147.355C41.9202 150.484 23.1469 149.311 25.1025 141.88Z" stroke="#152633" stroke-width="2"/>
<path fill-rule="evenodd" clip-rule="evenodd" d="M93.2914 113.327L93.3488 113.328C93.74 116.457 100.78 125.844 103.909 141.879C105.864 149.31 87.0911 150.484 78.4867 147.355C74.5756 146.181 72.229 143.835 71.0556 137.577L70.7369 136.273L70.7205 135.914C85.7754 133.696 94.1866 124.193 93.2914 113.327Z" fill="#2D3B45"/>
<path fill-rule="evenodd" clip-rule="evenodd" d="M93.2914 113.327C93.74 116.457 100.78 125.844 103.909 141.879C105.864 149.31 87.0911 150.484 78.4867 147.355C74.5756 146.181 72.229 143.835 71.0556 137.577L70.7369 136.273L70.7205 135.914C85.7754 133.696 94.1866 124.193 93.2914 113.327Z" stroke="#152633" stroke-width="2"/>
<path fill-rule="evenodd" clip-rule="evenodd" d="M110.908 53.3261C115.168 76.3167 96.663 92.4543 68.0939 97.7471C39.5253 103.04 18.4486 93.5874 11.8471 72.1639C4.71941 49.0318 23.8102 18.213 52.3793 12.9202C80.948 7.62756 106.429 29.1466 110.908 53.3261Z" fill="white" stroke="#152633" stroke-width="2"/>
<path d="M61.8234 83.782C61.3234 86.282 65.3234 90.282 71.3234 87.282" stroke="#152633" stroke-width="2" stroke-linecap="round"/>
<path fill-rule="evenodd" clip-rule="evenodd" d="M67.8576 75.4467C67.4722 73.367 70.6207 71.0398 74.8893 70.2488C79.1584 69.458 82.9313 70.5026 83.3168 72.5827C83.7018 74.6625 80.5537 76.9895 76.285 77.7802C72.0159 78.571 68.2429 77.526 67.8576 75.4467Z" fill="#152633"/>
<path fill-rule="evenodd" clip-rule="evenodd" d="M43.3712 84.9103L43.3713 84.9103C53.4525 83.0429 62.0934 69.7408 59.8186 57.4611C57.276 43.7345 46.6362 31.401 37.8594 33.0271C33.4904 33.8361 28.8794 38.1003 25.6199 44.4725C22.3221 50.9194 21.0273 58.4002 22.1462 64.4406C24.5664 77.5042 34.1591 86.6174 43.3712 84.9103Z" fill="#2D3B45" stroke="#152633" stroke-width="2"/>
<path fill-rule="evenodd" clip-rule="evenodd" d="M51.2857 56.4479C53.6108 56.6891 55.1883 59.8474 54.809 63.501C54.43 67.1553 52.2373 69.9213 49.9121 69.6801C47.5868 69.4385 46.0093 66.281 46.3884 62.6271C46.7679 58.973 48.9605 56.2066 51.2857 56.4479Z" fill="white"/>
<path fill-rule="evenodd" clip-rule="evenodd" d="M84.876 63.6066C88.5585 67.4087 92.2806 69.0088 95.3404 68.5262C95.395 68.5178 95.4464 68.5092 95.4957 68.5C97.6807 68.0951 100.265 66.4557 101.743 64.3654C105.347 59.2706 106.368 54.2249 104.955 46.596C102.726 34.568 88.4116 21.2016 79.7787 22.8007C77.9071 23.1475 76.5015 24.066 75.5454 25.5548C72.6991 29.9868 73.4108 38.9753 76.881 50.0877C78.3712 54.8616 81.2515 59.8641 84.876 63.6066Z" fill="#2D3B45" stroke="#152633" stroke-width="2"/>
<path fill-rule="evenodd" clip-rule="evenodd" d="M91.3132 53.5721C92.6758 56.2566 92.396 59.136 90.6878 60.003C88.9793 60.8706 86.49 59.3973 85.127 56.713C83.764 54.0286 84.0443 51.1495 85.752 50.2822C87.4601 49.4148 89.9503 50.8882 91.3132 53.5721Z" fill="white"/>
<path fill-rule="evenodd" clip-rule="evenodd" d="M14.1099 43.2958C12.5578 42.9647 10.8538 42.3919 9.07886 41.4415C2.25162 37.7867 1.97232 29.6384 2.00168 27.5832C2.03053 25.5277 2.6467 15.5736 10.9858 18.5387C16.3713 20.4534 22.2862 24.3195 25.8029 26.8194C20.8992 31.5817 16.9316 37.2166 14.1099 43.2958Z" fill="#2D3B45" stroke="#152633" stroke-width="2"/>
<path fill-rule="evenodd" clip-rule="evenodd" d="M94.8033 21.5132C94.1003 22.3262 93.3743 23.0146 92.6508 23.5982C87.9878 19.8158 82.652 16.7785 76.8657 14.7789C78.9397 11.668 82.4705 6.80253 86.1772 3.62957C91.9857 -1.34259 95.5631 6.49582 96.2229 8.14437C96.8828 9.79329 99.1789 16.4521 94.8033 21.5132Z" fill="#2D3B45" stroke="#152633" stroke-width="2"/>
<path fill-rule="evenodd" clip-rule="evenodd" d="M128.323 132.782L145.323 127.782V149.782L128.323 154.782V132.782Z" fill="#FFA639" stroke="#152633" stroke-width="1.5" stroke-linejoin="round"/>
<path fill-rule="evenodd" clip-rule="evenodd" d="M128.323 110.782L145.323 105.782V127.782L128.323 132.782V110.782Z" fill="#FF5A78" stroke="#152633" stroke-width="1.5" stroke-linejoin="round"/>
<path fill-rule="evenodd" clip-rule="evenodd" d="M111.323 105.782L128.323 100.782L145.323 105.782L128.323 110.782L111.323 105.782Z" fill="#EF3A5A" stroke="#152633" stroke-width="1.5" stroke-linejoin="round"/>
<path fill-rule="evenodd" clip-rule="evenodd" d="M111.323 137.782L128.323 132.782V154.782L111.323 159.782V137.782Z" fill="#FFE991" stroke="#152633" stroke-width="1.5" stroke-linejoin="round"/>
<path fill-rule="evenodd" clip-rule="evenodd" d="M94.3234 132.782L111.323 127.782L128.323 132.782L111.323 137.782L94.3234 132.782Z" fill="white" stroke="#152633" stroke-width="1.5" stroke-linejoin="round"/>
<path fill-rule="evenodd" clip-rule="evenodd" d="M94.3234 132.782L111.323 137.782V159.782L94.3234 154.782V132.782Z" fill="white" stroke="#152633" stroke-width="1.5" stroke-linejoin="round"/>
<path fill-rule="evenodd" clip-rule="evenodd" d="M111.323 115.782L128.323 110.782V132.782L111.323 137.782V115.782Z" fill="#82CFFF" stroke="#152633" stroke-width="1.5" stroke-linejoin="round"/>
<path fill-rule="evenodd" clip-rule="evenodd" d="M94.3234 110.782L111.323 105.782L128.323 110.782L111.323 115.782L94.3234 110.782Z" fill="#409ED8" stroke="#152633" stroke-width="1.5" stroke-linejoin="round"/>
<path fill-rule="evenodd" clip-rule="evenodd" d="M94.3234 110.782L111.323 115.782V137.782L94.3234 132.782V110.782Z" fill="#2796DC" stroke="#152633" stroke-width="1.5" stroke-linejoin="round"/>
<path fill-rule="evenodd" clip-rule="evenodd" d="M94.3234 142.782L111.323 137.782V159.782L94.3234 164.782V142.782Z" fill="#1AD4BD" stroke="#152633" stroke-width="1.5" stroke-linejoin="round"/>
<path fill-rule="evenodd" clip-rule="evenodd" d="M77.3234 137.782L94.3234 132.782L111.323 137.782L94.3234 142.782L77.3234 137.782Z" fill="#13C2AD" stroke="#152633" stroke-width="1.5" stroke-linejoin="round"/>
<path fill-rule="evenodd" clip-rule="evenodd" d="M77.3234 137.782L94.3234 142.782V164.782L77.3234 159.782V137.782Z" fill="#1C9D8D" stroke="#152633" stroke-width="1.5" stroke-linejoin="round"/>
<path fill-rule="evenodd" clip-rule="evenodd" d="M118.277 80.1089L111.114 100.91L96.6682 90.6481L103.831 69.8467L118.277 80.1089Z" fill="#764B9F" stroke="#152633" stroke-width="1.5" stroke-linejoin="round"/>
<path fill-rule="evenodd" clip-rule="evenodd" d="M135.978 80.916L118.277 80.1089L103.831 69.8467L121.532 70.6537L135.978 80.916Z" fill="#9B67CD" stroke="#152633" stroke-width="1.5" stroke-linejoin="round"/>
<path fill-rule="evenodd" clip-rule="evenodd" d="M135.978 80.916L128.816 101.717L111.114 100.91L118.277 80.1089L135.978 80.916Z" fill="#AD7ADD" stroke="#152633" stroke-width="1.5" stroke-linejoin="round"/>
</svg>
