<svg viewBox="0 0 190 122" fill="none" xmlns="http://www.w3.org/2000/svg">
<path fill-rule="evenodd" clip-rule="evenodd" d="M157.75 90H32.25L1 105H48.5433C46.259 106.311 45 107.746 45 109.25C45 115.463 66.4903 120.5 93 120.5C119.51 120.5 141 115.463 141 109.25C141 107.746 139.741 106.311 137.457 105H189L157.75 90Z" fill="black" fill-opacity="0.05"/>
<path fill-rule="evenodd" clip-rule="evenodd" d="M39 7H151C153.209 7 155 8.79086 155 11V87H35V11C35 8.79086 36.7909 7 39 7Z" fill="#C7CDD1" stroke="#8B969E" stroke-width="2" stroke-linejoin="round"/>
<mask id="mask0" mask-type="alpha" maskUnits="userSpaceOnUse" x="39" y="11" width="112" height="72">
<path d="M41 11H149C150.105 11 151 11.8954 151 13V83H39V13C39 11.8954 39.8954 11 41 11Z" fill="white"/>
</mask>
<g mask="url(#mask0)">
<path d="M41 11H149C150.105 11 151 11.8954 151 13V83H39V13C39 11.8954 39.8954 11 41 11Z" fill="white"/>
</g>
<mask id="mask1" mask-type="alpha" maskUnits="userSpaceOnUse" x="39" y="11" width="112" height="72">
<path d="M41 11H149C150.105 11 151 11.8954 151 13V83H39V13C39 11.8954 39.8954 11 41 11Z" fill="white"/>
</mask>
<g mask="url(#mask1)">
<path d="M41 11H149C150.105 11 151 11.8954 151 13V83H39V13C39 11.8954 39.8954 11 41 11Z" stroke="#8B969E" stroke-width="2" stroke-linejoin="round"/>
</g>
<path fill-rule="evenodd" clip-rule="evenodd" d="M35 87H155L175 97H15L35 87Z" fill="#8B969E" stroke="#8B969E" stroke-width="2" stroke-linejoin="round"/>
<path fill-rule="evenodd" clip-rule="evenodd" d="M15 97H175V101H15V97Z" fill="#C7CDD1" stroke="#8B969E" stroke-width="2" stroke-linejoin="round"/>
<path fill-rule="evenodd" clip-rule="evenodd" d="M119.118 92.7869C121.794 93.7822 123.605 101.102 121.604 106.61C119.885 111.343 115.846 114.399 109.336 114.968C101.066 115.691 95.9621 114.482 93.4306 111.842C91.5835 109.917 91.1466 107.288 91.6925 104.079C92.1829 101.196 101.49 97.2025 119.118 92.7869Z" fill="#2D3B45" stroke="#152633" stroke-width="2"/>
<path fill-rule="evenodd" clip-rule="evenodd" d="M115.111 71.056C126.41 82.8927 131.664 92.3497 129.07 97.9199C126.289 103.892 113.908 108.19 110.806 95.9373C108.467 86.6975 110.66 75.7701 111.881 70.9529C112.967 71.0112 114.045 71.0469 115.111 71.056Z" fill="#2D3B45" stroke="#152633" stroke-width="2"/>
<path fill-rule="evenodd" clip-rule="evenodd" d="M68.3116 75.2475C63.447 74.2327 52.6638 71.414 45.3846 65.2611C35.7317 57.1022 45.0223 47.8576 51.609 47.9767C57.7524 48.0872 63.9492 56.955 69.635 72.299C69.1757 73.2614 68.7352 74.2459 68.3116 75.2475Z" fill="#2D3B45" stroke="#152633" stroke-width="2"/>
<path fill-rule="evenodd" clip-rule="evenodd" d="M64.8394 92.7874C62.7525 93.5898 60.9619 98.7113 61.6197 103.601C62.471 109.928 66.7567 114.281 74.6183 114.968C82.8885 115.691 87.9926 114.482 90.5241 111.842C92.3712 109.916 92.8081 107.288 92.2622 104.079C91.7718 101.196 82.4654 97.2028 64.8394 92.7874Z" fill="#2D3B45" stroke="#152633" stroke-width="2"/>
<path fill-rule="evenodd" clip-rule="evenodd" d="M110.842 72.5193C104.081 74.771 96.3638 75.9949 88.1686 75.9949C80.8639 75.9949 74.1066 75.133 68.1413 73.4434C65.746 78.8071 63.0327 85.6798 62.4385 90.4334C60.6907 102.666 71.3237 113.387 90.2048 113.387C109.086 113.387 118.95 102.28 116.795 90.8036C115.309 82.8969 112.915 76.9234 110.842 72.5193Z" fill="white"/>
<path fill-rule="evenodd" clip-rule="evenodd" d="M85.7936 97.6976C86.0949 96.885 86.877 96.3059 87.7944 96.3059C88.7119 96.3059 89.494 96.885 89.7953 97.6976C90.6128 97.4284 91.5471 97.6732 92.1209 98.3818C92.7018 99.0991 92.7409 100.079 92.2903 100.826C93.0172 101.302 93.4075 102.196 93.2007 103.092C92.9948 103.984 92.2572 104.615 91.3999 104.728C91.4806 105.587 91.0318 106.445 90.2106 106.845C89.3826 107.249 88.4213 107.068 87.7944 106.464C87.1676 107.068 86.2063 107.249 85.3783 106.845C84.5571 106.445 84.1083 105.587 84.189 104.728C83.3317 104.615 82.5941 103.984 82.3882 103.092C82.1814 102.196 82.5717 101.302 83.2985 100.826C82.848 100.079 82.8871 99.0991 83.468 98.3818C84.0418 97.6732 84.9761 97.4284 85.7936 97.6976Z" fill="#2D3B45" stroke="#152633" stroke-width="2"/>
<path fill-rule="evenodd" clip-rule="evenodd" d="M110.842 72.5193C104.081 74.771 96.3638 75.9949 88.1686 75.9949C80.8639 75.9949 74.1066 75.133 68.1413 73.4434C65.746 78.8071 63.0327 85.6798 62.4385 90.4334C60.6907 102.666 71.3237 113.387 90.2048 113.387C109.086 113.387 118.95 102.28 116.795 90.8036C115.309 82.8969 112.915 76.9234 110.842 72.5193Z" stroke="#152633" stroke-width="2"/>
<path fill-rule="evenodd" clip-rule="evenodd" d="M51.0528 36.8605C49.7411 36.8024 48.2726 36.5677 46.6942 36.0349C40.6244 33.9852 40.3345 28.6997 40.0776 27.0186C39.8206 25.3376 39.7855 16.2633 46.9948 17.5434C51.6508 18.3701 55.1318 20.2601 58.3428 21.8196C54.9924 26.3753 52.5248 31.5146 51.0528 36.8605Z" fill="#2D3B45" stroke="#152633" stroke-width="2"/>
<path fill-rule="evenodd" clip-rule="evenodd" d="M48.3721 45.1537C48.3721 65.177 65.5826 75.8791 89.2424 75.8791C112.902 75.8791 132.082 63.796 132.082 45.8441C132.082 23.5364 112.902 2 89.2424 2C65.5826 2 48.3721 24.0947 48.3721 45.1537Z" fill="white" stroke="#152633" stroke-width="2"/>
<path fill-rule="evenodd" clip-rule="evenodd" d="M120.84 38.2938C122.413 37.6409 124.099 36.7033 125.787 35.3534C132.277 30.1615 130.979 21.5082 130.546 19.3449C130.114 17.1816 127.518 6.79775 119.297 11.557C113.988 14.6307 110.929 18.3912 107.706 21.7171C113.054 26.2626 119.297 34.0166 120.84 38.2938Z" fill="#2D3B45" stroke="#152633" stroke-width="2"/>
</svg>
