<svg xmlns="http://www.w3.org/2000/svg" version="1.1" x="0" y="0" viewBox="0 0 164 155" xml:space="preserve"><title>Combined Shape</title><desc>Created with Sketch.</desc><path d="M158.2 27.7c-0.3 0-0.5-0.1-0.8-0.2l-7.6-5 -7.6 5c-0.5 0.3-1.1 0.3-1.6 0 -0.5-0.3-0.7-0.9-0.5-1.5l2.6-8.9 -6.4-6.4c-0.4-0.4-0.5-1-0.3-1.5 0.2-0.5 0.7-0.9 1.3-0.9h7.5l3.8-7.6c0.5-0.9 2-0.9 2.5 0l3.8 7.6h7.5c0.6 0 1.1 0.3 1.3 0.9 0.2 0.5 0.1 1.1-0.3 1.5L157 17l2.6 8.9c0.2 0.6 0 1.2-0.5 1.5C158.8 27.6 158.5 27.7 158.2 27.7zM53.4 155c-0.2 0-0.3-0.1-0.5-0.2l-4.9-3.3 -4.9 3.3c-0.3 0.2-0.7 0.2-1 0 -0.3-0.2-0.4-0.6-0.3-1l1.7-5.8 -4.1-4.1c-0.3-0.3-0.3-0.6-0.2-1 0.1-0.3 0.5-0.6 0.8-0.6h4.8l2.5-4.9c0.3-0.6 1.3-0.6 1.6 0l2.5 4.9h4.8c0.4 0 0.7 0.2 0.8 0.6 0.1 0.3 0.1 0.7-0.2 1l-4.1 4.1 1.7 5.8c0.1 0.4 0 0.8-0.3 1C53.8 154.9 53.6 155 53.4 155zM22.2 150.7c-0.3 0-0.5-0.1-0.8-0.2l-7.6-5 -7.6 5c-0.5 0.3-1.1 0.3-1.6 0 -0.5-0.3-0.7-0.9-0.5-1.5l2.6-8.9 -6.4-6.4c-0.4-0.4-0.5-1-0.3-1.5 0.2-0.5 0.7-0.9 1.3-0.9h7.5l3.8-7.6c0.5-0.9 2-0.9 2.5 0l3.8 7.6h7.5c0.6 0 1.1 0.3 1.3 0.9 0.2 0.5 0.1 1.1-0.3 1.5L21 140l2.6 8.9c0.2 0.6 0 1.2-0.5 1.5C22.8 150.6 22.5 150.7 22.2 150.7zM13.9 142.4c0.3 0 0.5 0.1 0.8 0.2l5.2 3.5 -1.7-6.1c-0.1-0.5 0-1 0.4-1.4L23 134h-5c-0.5 0-1-0.3-1.2-0.8l-2.9-5.8 -2.9 5.8c-0.2 0.5-0.7 0.8-1.2 0.8h-5l4.6 4.6c0.4 0.4 0.5 0.9 0.4 1.4l-1.7 6.1 5.2-3.5C13.3 142.4 13.6 142.4 13.9 142.4zM23.6 20.8c-0.2 0-0.4-0.1-0.6-0.2l-5.7-3.8 -5.7 3.8c-0.4 0.2-0.8 0.2-1.2 0 -0.4-0.3-0.5-0.7-0.4-1.1l1.9-6.7L7.3 8C7 7.7 6.9 7.2 7.1 6.8c0.2-0.4 0.5-0.6 1-0.6h5.6l2.8-5.7c0.4-0.7 1.5-0.7 1.9 0l2.8 5.7h5.6c0.4 0 0.8 0.3 1 0.6 0.2 0.4 0.1 0.8-0.2 1.1l-4.8 4.8 1.9 6.7c0.1 0.4 0 0.9-0.4 1.1C24.1 20.7 23.9 20.8 23.6 20.8zM17.4 14.5c0.2 0 0.4 0.1 0.6 0.2l3.9 2.6 -1.3-4.6c-0.1-0.4 0-0.8 0.3-1l3.4-3.4h-3.7c-0.4 0-0.8-0.2-0.9-0.6l-2.2-4.4 -2.2 4.4C15 8 14.7 8.3 14.3 8.3h-3.7l3.4 3.4c0.3 0.3 0.4 0.7 0.3 1l-1.3 4.6 3.9-2.6C17 14.6 17.2 14.5 17.4 14.5zM92.5 74.1v12.5c0 3.5-2.9 6.3-6.4 6.3h-6.4v18.8c0 3.5-2.9 6.3-6.4 6.3H47.3c-3.6 0-6.4-2.8-6.4-6.3V92.9h-6.4c-3.6 0-6.4-2.8-6.4-6.3V74.1c0-14.5 10.2-26.5 23.9-30.2 -6.5-3-11-9.4-11-16.9 0-10.4 8.7-18.8 19.3-18.8 10.7 0 19.3 8.4 19.3 18.8 0 7.5-4.5 13.8-11 16.9C82.3 47.5 92.5 59.6 92.5 74.1zM79.6 80.3v-6.3c0-10.4-8.7-18.8-19.3-18.8 -10.7 0-19.3 8.4-19.3 18.8v6.3h6.4c3.6 0 6.4 2.8 6.4 6.3v18.8h12.9V86.6c0-3.5 2.9-6.3 6.4-6.3H79.6zM60.2 20.7c-3.6 0-6.4 2.8-6.4 6.3s2.9 6.3 6.4 6.3c3.6 0 6.4-2.8 6.4-6.3S63.8 20.7 60.2 20.7zM128.5 82.2c8.5 4.1 14.5 12.6 14.5 22.4v6.3c0 3.5-2.9 6.3-6.4 6.3H97.9c-3.6 0-6.4-2.8-6.4-6.3v-6.3c0-9.9 5.9-18.4 14.5-22.4 -4.8-3.4-8-8.9-8-15.2 0-10.4 8.7-18.8 19.3-18.8s19.3 8.4 19.3 18.8C136.6 73.3 133.4 78.8 128.5 82.2zM104.3 104.7h25.8c0-6.9-5.8-12.5-12.9-12.5S104.3 97.7 104.3 104.7zM117.2 60.8c-3.6 0-6.4 2.8-6.4 6.3s2.9 6.3 6.4 6.3c3.6 0 6.4-2.8 6.4-6.3S120.8 60.8 117.2 60.8z"/></svg>
