<svg xmlns="http://www.w3.org/2000/svg" version="1.1" x="0" y="0" viewBox="0 0 158 145" xml:space="preserve"><path d="M152.2 27.7c-0.3 0-0.5-0.1-0.8-0.2l-7.6-5 -7.6 5c-0.5 0.3-1.1 0.3-1.6 0 -0.5-0.3-0.7-0.9-0.5-1.5l2.6-8.9 -6.4-6.4c-0.4-0.4-0.5-1-0.3-1.5 0.2-0.5 0.7-0.9 1.3-0.9h7.5l3.8-7.6c0.5-0.9 2-0.9 2.5 0l3.8 7.6h7.5c0.6 0 1.1 0.3 1.3 0.9 0.2 0.5 0.1 1.1-0.3 1.5L151 17l2.6 8.9c0.2 0.6 0 1.2-0.5 1.5C152.8 27.6 152.5 27.7 152.2 27.7zM71.4 145c-0.2 0-0.3-0.1-0.5-0.2l-4.9-3.3 -4.9 3.3c-0.3 0.2-0.7 0.2-1 0 -0.3-0.2-0.4-0.6-0.3-1l1.7-5.8 -4.1-4.1c-0.3-0.3-0.3-0.6-0.2-1 0.1-0.3 0.5-0.6 0.8-0.6h4.8l2.5-4.9c0.3-0.6 1.3-0.6 1.6 0l2.5 4.9h4.8c0.4 0 0.7 0.2 0.8 0.6 0.1 0.3 0.1 0.7-0.2 1l-4.1 4.1 1.7 5.8c0.1 0.4 0 0.8-0.3 1C71.8 144.9 71.6 145 71.4 145zM22.2 126.7c-0.3 0-0.5-0.1-0.8-0.2l-7.6-5 -7.6 5c-0.5 0.3-1.1 0.3-1.6 0 -0.5-0.3-0.7-0.9-0.5-1.5l2.6-8.9 -6.4-6.4c-0.4-0.4-0.5-1-0.3-1.5 0.2-0.5 0.7-0.9 1.3-0.9h7.5l3.8-7.6c0.5-0.9 2-0.9 2.5 0l3.8 7.6h7.5c0.6 0 1.1 0.3 1.3 0.9 0.2 0.5 0.1 1.1-0.3 1.5L21 116l2.6 8.9c0.2 0.6 0 1.2-0.5 1.5C22.8 126.6 22.5 126.7 22.2 126.7zM13.9 118.4c0.3 0 0.5 0.1 0.8 0.2l5.2 3.5 -1.7-6.1c-0.1-0.5 0-1 0.4-1.4L23 110h-5c-0.5 0-1-0.3-1.2-0.8l-2.9-5.8 -2.9 5.8c-0.2 0.5-0.7 0.8-1.2 0.8h-5l4.6 4.6c0.4 0.4 0.5 0.9 0.4 1.4l-1.7 6.1 5.2-3.5C13.3 118.4 13.6 118.4 13.9 118.4zM17.6 20.8c-0.2 0-0.4-0.1-0.6-0.2l-5.7-3.8 -5.7 3.8c-0.4 0.2-0.8 0.2-1.2 0 -0.4-0.3-0.5-0.7-0.4-1.1l1.9-6.7L1.3 8C1 7.7 0.9 7.2 1.1 6.8c0.2-0.4 0.5-0.6 1-0.6h5.6l2.8-5.7c0.4-0.7 1.5-0.7 1.9 0l2.8 5.7h5.6c0.4 0 0.8 0.3 1 0.6 0.2 0.4 0.1 0.8-0.2 1.1l-4.8 4.8 1.9 6.7c0.1 0.4 0 0.9-0.4 1.1C18.1 20.7 17.9 20.8 17.6 20.8zM11.4 14.5c0.2 0 0.4 0.1 0.6 0.2l3.9 2.6 -1.3-4.6c-0.1-0.4 0-0.8 0.3-1l3.4-3.4h-3.7c-0.4 0-0.8-0.2-0.9-0.6l-2.2-4.4L9.2 7.7C9 8 8.7 8.3 8.3 8.3H4.6L8 11.7c0.3 0.3 0.4 0.7 0.3 1l-1.3 4.6 3.9-2.6C11 14.6 11.2 14.5 11.4 14.5zM75 110c-26 0-47-21-47-47s21-47 47-47 47 21 47 47S101 110 75 110zM75 101.5c21.2 0 38.5-17.2 38.5-38.5S96.2 24.5 75 24.5 36.5 41.8 36.5 63 53.8 101.5 75 101.5zM97.2 58.7L71.9 92.2V65.4h-19L78.2 32v26.7H97.2z"/></svg>
