<svg xmlns="http://www.w3.org/2000/svg" version="1.1" x="0" y="0" viewBox="0 0 157 155" xml:space="preserve"><path d="M151.2 27.7c-0.3 0-0.5-0.1-0.8-0.2l-7.6-5 -7.6 5c-0.5 0.3-1.1 0.3-1.6 0 -0.5-0.3-0.7-0.9-0.5-1.5l2.6-8.9 -6.4-6.4c-0.4-0.4-0.5-1-0.3-1.5 0.2-0.5 0.7-0.9 1.3-0.9h7.5l3.8-7.6c0.5-0.9 2-0.9 2.5 0l3.8 7.6h7.5c0.6 0 1.1 0.3 1.3 0.9 0.2 0.5 0.1 1.1-0.3 1.5L150 17l2.6 8.9c0.2 0.6 0 1.2-0.5 1.5C151.8 27.6 151.5 27.7 151.2 27.7zM46.4 155c-0.2 0-0.3-0.1-0.5-0.2l-4.9-3.3 -4.9 3.3c-0.3 0.2-0.7 0.2-1 0 -0.3-0.2-0.4-0.6-0.3-1l1.7-5.8 -4.1-4.1c-0.3-0.3-0.3-0.6-0.2-1 0.1-0.3 0.5-0.6 0.8-0.6h4.8l2.5-4.9c0.3-0.6 1.3-0.6 1.6 0l2.5 4.9h4.8c0.4 0 0.7 0.2 0.8 0.6 0.1 0.3 0.1 0.7-0.2 1l-4.1 4.1 1.7 5.8c0.1 0.4 0 0.8-0.3 1C46.8 154.9 46.6 155 46.4 155zM16.6 129.8c-0.2 0-0.4-0.1-0.6-0.2l-5.7-3.8 -5.7 3.8c-0.4 0.2-0.8 0.2-1.2 0 -0.4-0.3-0.5-0.7-0.4-1.1l1.9-6.7L0.3 117c-0.3-0.3-0.4-0.7-0.2-1.1 0.2-0.4 0.5-0.6 1-0.6h5.6l2.8-5.7c0.4-0.7 1.5-0.7 1.9 0l2.8 5.7h5.6c0.4 0 0.8 0.3 1 0.6 0.2 0.4 0.1 0.8-0.2 1.1l-4.8 4.8 1.9 6.7c0.1 0.4 0 0.9-0.4 1.1C17.1 129.7 16.9 129.8 16.6 129.8zM10.4 123.5c0.2 0 0.4 0.1 0.6 0.2l3.9 2.6 -1.3-4.6c-0.1-0.4 0-0.8 0.3-1l3.4-3.4h-3.7c-0.4 0-0.8-0.2-0.9-0.6l-2.2-4.4 -2.2 4.4c-0.2 0.4-0.5 0.6-0.9 0.6H3.6l3.4 3.4c0.3 0.3 0.4 0.7 0.3 1l-1.3 4.6 3.9-2.6C10 123.6 10.2 123.5 10.4 123.5zM64.4 44.2v-8.1H113v8.1H64.4zM64.4 72.5v-8.1H113v8.1H64.4zM64.4 100.9v-8.1H113v8.1H64.4zM52.2 28c2.2 0 4.1 1.8 4.1 4v16.2c0 2.2-1.8 4-4.1 4H36.1c-2.2 0-4.1-1.8-4.1-4V32c0-2.2 1.8-4 4.1-4H52.2zM52.2 56.3c2.2 0 4.1 1.8 4.1 4.1v16.2c0 2.2-1.8 4.1-4.1 4.1H36.1c-2.2 0-4.1-1.8-4.1-4.1V60.4c0-2.2 1.8-4.1 4.1-4.1H52.2zM52.2 84.7c2.2 0 4.1 1.8 4.1 4V105c0 2.2-1.8 4-4.1 4H36.1c-2.2 0-4.1-1.8-4.1-4V88.8c0-2.2 1.8-4 4.1-4H52.2z"/></svg>
