<svg version="1.1" class="svg-canvas-logo" xmlns="http://www.w3.org/2000/svg" xmlns:xlink="http://www.w3.org/1999/xlink" x="0px" y="0px" viewBox="200 250 400 115" width="140" height="46" enable-background="new 0 0 115 46" xml:space="preserve">
<style type="text/css">
	.st0{fill:#fff;}
</style>
<g>
	<g>
		<path class="st0" d="M220.1,306.8c0-7-5.2-12.7-12-13.5c-1.1,4.3-1.7,8.8-1.7,13.5c0,4.7,0.6,9.2,1.7,13.5
			C214.9,319.5,220.1,313.7,220.1,306.8z"></path>
		<path class="st0" d="M228,302.5c-2.4,0-4.3,1.9-4.3,4.3c0,2.4,1.9,4.3,4.3,4.3c2.4,0,4.3-1.9,4.3-4.3
			C232.3,304.4,230.4,302.5,228,302.5z"></path>
		<path class="st0" d="M287,306.8c0,7,5.2,12.7,12,13.5c1.1-4.3,1.7-8.8,1.7-13.5c0-4.7-0.6-9.2-1.7-13.5
			C292.2,294.1,287,299.8,287,306.8z"></path>
		<path class="st0" d="M279,302.5c-2.4,0-4.3,1.9-4.3,4.3c0,2.4,1.9,4.3,4.3,4.3c2.4,0,4.3-1.9,4.3-4.3
			C283.3,304.4,281.4,302.5,279,302.5z"></path>
		<path class="st0" d="M253.4,340.3c-7,0-12.7,5.2-13.5,12c4.3,1.1,8.8,1.7,13.5,1.7c4.7,0,9.2-0.6,13.5-1.7
			C266.1,345.6,260.4,340.3,253.4,340.3z"></path>
		<path class="st0" d="M253.4,328.1c-2.4,0-4.3,1.9-4.3,4.3c0,2.4,1.9,4.3,4.3,4.3c2.4,0,4.3-1.9,4.3-4.3
			C257.7,330.1,255.8,328.1,253.4,328.1z"></path>
		<path class="st0" d="M253.4,273.4c7,0,12.7-5.2,13.5-12c-4.3-1.1-8.8-1.7-13.5-1.7c-4.7,0-9.2,0.6-13.5,1.7
			C240.7,268.2,246.5,273.4,253.4,273.4z"></path>
		<path class="st0" d="M253.4,277.1c-2.4,0-4.3,1.9-4.3,4.3c0,2.4,1.9,4.3,4.3,4.3c2.4,0,4.3-1.9,4.3-4.3
			C257.7,279,255.8,277.1,253.4,277.1z"></path>
		<path class="st0" d="M277.1,330.5c-4.9,4.9-5.3,12.6-1.1,18c7.9-4.6,14.5-11.2,19.1-19.1C289.8,325.2,282,325.6,277.1,330.5z"></path>
		<path class="st0" d="M268.5,321.8c-1.7,1.7-1.7,4.4,0,6c1.7,1.7,4.4,1.7,6,0c1.7-1.7,1.7-4.4,0-6
			C272.9,320.2,270.2,320.2,268.5,321.8z"></path>
		<path class="st0" d="M229.8,283.2c4.9-4.9,5.3-12.6,1.1-18c-7.9,4.6-14.5,11.2-19.1,19.1C217.2,288.4,224.9,288.1,229.8,283.2z"></path>
		<path class="st0" d="M232.4,285.7c-1.7,1.7-1.7,4.4,0,6c1.7,1.7,4.4,1.7,6,0c1.7-1.7,1.7-4.4,0-6
			C236.8,284.1,234.1,284.1,232.4,285.7z"></path>
		<path class="st0" d="M277.1,283.1c4.9,4.9,12.6,5.3,18,1.1c-4.6-7.9-11.2-14.5-19.1-19.1C271.8,270.5,272.2,278.2,277.1,283.1z"></path>
		<path class="st0" d="M274.5,291.7c1.7-1.7,1.7-4.4,0-6c-1.7-1.7-4.4-1.7-6,0c-1.7,1.7-1.7,4.4,0,6
			C270.1,293.4,272.8,293.4,274.5,291.7z"></path>
		<path class="st0" d="M229.8,330.4c-4.9-4.9-12.6-5.3-18-1.1c4.6,7.9,11.2,14.5,19.1,19.1C235.1,343.1,234.7,335.3,229.8,330.4z"></path>
		<path class="st0" d="M232.4,321.8c-1.7,1.7-1.7,4.4,0,6c1.7,1.7,4.4,1.7,6,0c1.7-1.7,1.7-4.4,0-6
			C236.8,320.1,234,320.1,232.4,321.8z"></path>
	</g>
	<g>
		<path class="st0" d="M363.1,326.7c0,9.2-6,12.7-15.1,12.7h-0.2c-9.1,0-15.1-3.3-15.1-12.7v-35.9c0-8.9,6-12.7,15.1-12.7h0.2
			c9.1,0,15.1,3.8,15.1,12.7v7.1h-9.9v-5.6c0-4.2-2.1-5.5-5.2-5.5s-5.2,1.3-5.2,5.5v32.8c0,4.2,2.1,5.5,5.2,5.5s5.2-1.3,5.2-5.5v-7
			h9.9V326.7z"></path>
		<path class="st0" d="M398.2,325.3h-10.9l-2.1,13.3h-9.6l11.1-59.9h12.5l11.3,59.9h-10.1L398.2,325.3z M397,317.1l-4.2-26.6
			l-4.2,26.6H397z"></path>
		<path class="st0" d="M424,338.7v-59.9h9.9l12.6,37v-37h9.1v59.9h-9.4l-13.1-38.9v38.9H424z"></path>
		<path class="st0" d="M491.3,338.7h-10.9l-11.3-59.9h10.1l6.9,44.4l6.9-44.4h9.6L491.3,338.7z"></path>
		<path class="st0" d="M532.2,325.3h-10.9l-2.1,13.3h-9.6l11.1-59.9h12.5l11.3,59.9h-10.1L532.2,325.3z M530.9,317.1l-4.2-26.6
			l-4.2,26.6H530.9z"></path>
		<path class="st0" d="M575.7,296.3v-4.5c0-3.8-2.1-5.1-5-5.1c-2.9,0-5,1.4-5,5.1v4.1c0,3.1,1,4.4,3.8,6.1l7,3.9
			c5.7,3.3,9.2,5.9,9.2,12.3v8.6c0,9.2-5.7,12.5-14.8,12.5h-0.2c-9.1,0-14.8-3.2-14.8-12.5v-6.3h9.8v5c0,3.7,2.1,5.3,5.1,5.3
			s5.1-1.6,5.1-5.3v-4.7c0-3.1-0.9-4.6-3.9-6.2l-6.9-3.9c-5.8-3.3-9.2-6.1-9.2-12.3v-7.9c0-8.9,6.5-12.3,14.7-12.3h0.2
			c8.2,0,14.7,3.4,14.7,12.3v5.9H575.7z"></path>
	</g>
</g>
</svg>