<svg xmlns="http://www.w3.org/2000/svg" width="140" viewBox="-329 284 140 33"><title>canvas-logo</title><g fill="#D64027"><path d="M-324.3 300.4c0-2.4-1.8-4.4-4.1-4.6-.4 1.5-.6 2.9-.6 4.6s.2 3.2.6 4.6c2.3-.2 4.1-2.3 4.1-4.6z"/><circle cx="-321.5" cy="300.3" r="1.5"/><path d="M-301.2 300.4c0 2.4 1.8 4.4 4.1 4.6.4-1.5.6-3 .6-4.6s-.2-3.2-.6-4.6c-2.3.3-4.1 2.2-4.1 4.6z"/><circle cx="-304.4" cy="300.3" r="1.5"/><path d="M-312.8 312c-2.4 0-4.4 1.8-4.6 4.1 1.5.4 3 .6 4.6.6s3.2-.2 4.6-.6c-.2-2.3-2.2-4.1-4.6-4.1z"/><circle cx="-312.9" cy="308.8" r="1.5"/><path d="M-312.8 288.9c2.4 0 4.4-1.8 4.6-4.1-1.5-.4-3-.6-4.6-.6s-3.2.2-4.6.6c.2 2.2 2.2 4.1 4.6 4.1z"/><circle cx="-312.9" cy="291.8" r="1.5"/><path d="M-304.7 308.6c-1.7 1.7-1.8 4.4-.4 6.2 2.7-1.6 5-3.9 6.6-6.6-1.8-1.4-4.4-1.3-6.2.4z"/><circle cx="-306.8" cy="306.4" r="1.5"/><path d="M-321 292.3c1.7-1.7 1.8-4.4.4-6.2-2.7 1.6-5 3.9-6.6 6.6 1.9 1.4 4.5 1.3 6.2-.4z"/><circle cx="-319" cy="294.2" r="1.5"/><path d="M-304.7 292.3c1.7 1.7 4.4 1.8 6.2.4-1.6-2.7-3.9-5-6.6-6.6-1.4 1.8-1.3 4.5.4 6.2z"/><circle cx="-306.8" cy="294.2" r="1.5"/><path d="M-321 308.6c-1.7-1.7-4.4-1.8-6.2-.4 1.6 2.7 3.9 5 6.6 6.6 1.5-1.9 1.3-4.5-.4-6.2z"/><circle cx="-319" cy="306.4" r="1.5"/></g><g fill="#FFF"><path d="M-276.857 308.604c-3.7 0-7.1-2.2-7.1-8.2s3.5-8.2 7.1-8.2c2.2 0 3.8.6 5.2 2.2l-2.1 2.2c-1.1-1.1-1.8-1.6-3.2-1.6-1.2 0-2.3.5-2.9 1.5-.7.9-1 2.1-1 3.9s.2 3 1 3.9 1.7 1.5 2.9 1.5 2.1-.4 3-1.5l2.2 2.1c-1.4 1.6-2.8 2.2-5.1 2.2zM-259.257 308.504v-1.5c-1.2 1.2-2.3 1.6-4.3 1.6-1.9 0-3.3-.5-4.3-1.5-.9-.9-1.2-2.1-1.2-3.4 0-2.7 1.8-4.6 5.5-4.6h4.3v-1.1c0-2.1-1-3-3.5-3-1.7 0-2.6.4-3.5 1.6l-2.1-1.9c1.5-1.7 3-2.3 5.7-2.3 4.4 0 6.6 1.8 6.6 5.5v10.7h-3.2v-.1zm0-7.1h-3.8c-1.9 0-2.9.9-2.9 2.3s1 2.3 2.9 2.3c1.2 0 2.2-.1 3-1 .5-.5.7-1.2.7-2.3v-1.3h.1zM-241.057 308.504v-9.7c0-2.4-1.5-3.5-3.2-3.5-1.8 0-3.3 1.1-3.3 3.5v9.7h-3.2v-16.1h3.2v1.6c1.1-1.2 2.7-1.8 4.3-1.8 1.6 0 3 .5 3.9 1.5 1.2 1.2 1.6 2.7 1.6 4.5v10.1l-3.3.2zM-226.357 308.504h-2.6l-6-16.1h3.4l3.8 11.2 3.8-11.2h3.4l-5.8 16.1zM-208.957 308.504v-1.5c-1.2 1.2-2.3 1.6-4.3 1.6s-3.3-.5-4.3-1.5c-.9-.9-1.2-2.1-1.2-3.4 0-2.7 1.8-4.6 5.5-4.6h4.3v-1.1c0-2.1-1-3-3.5-3-1.7 0-2.6.4-3.5 1.6l-2.1-1.9c1.5-1.7 3-2.3 5.7-2.3 4.4 0 6.6 1.8 6.6 5.5v10.7h-3.2v-.1zm0-7.1h-3.8c-1.9 0-2.9.9-2.9 2.3s1 2.3 2.9 2.3c1.2 0 2.2-.1 3-1 .5-.5.7-1.2.7-2.3v-1.3h.1zM-195.857 308.604c-2.6 0-4.9-.5-6.7-2.3l2.1-2.1c1.3 1.3 3 1.7 4.6 1.7 1.9 0 3.5-.7 3.5-2.2 0-1.1-.6-1.7-2.2-1.9l-2.6-.2c-3-.2-4.7-1.6-4.7-4.4 0-3.2 2.7-4.9 6-4.9 2.4 0 4.4.5 6 1.8l-2.1 2.1c-1-.9-2.4-1.2-3.9-1.2-1.9 0-2.9.9-2.9 2.1 0 1 .5 1.7 2.2 1.8l2.6.2c3 .2 4.7 1.7 4.7 4.5 0 3.3-2.8 5-6.6 5z"/></g></svg>