<?xml version="1.0" encoding="utf-8"?>
<!-- Generator: Adobe Illustrator 21.1.0, SVG Export Plug-In . SVG Version: 6.00 Build 0)  -->
<svg version="1.1" id="Layer_1" xmlns="http://www.w3.org/2000/svg" xmlns:xlink="http://www.w3.org/1999/xlink" x="0px" y="0px"
	 viewBox="0 0 536.2 93.5" style="enable-background:new 0 0 536.2 93.5;" xml:space="preserve">
<style type="text/css">
	.st0{fill:#FFFFFF;}
	.st1{fill:#FDB515;}
</style>
<g>
	<path class="st0" d="M103.5,30.4c-0.6-7.4-3.6-13-11.1-13c-6,0-9.9,4-9.9,9.5c0,16.3,29.1,16.5,29.1,39.8
		c0,11.5-6.6,18.4-18.5,18.4c-11.3,0-18.1-8.3-18.3-20.4h7.2c0.2,8.5,4.2,13.8,11.9,13.8c6.5,0,10.7-4.2,10.7-11.9
		c0-16.4-29.1-18.3-29.1-39c0-10.2,7-16.8,17.4-16.8c10.4,0,17.2,7,17.8,19.6H103.5z"/>
	<path class="st0" d="M154.5,11.8v6.6h-14.8v65.7h-7.8V18.4H117v-6.6H154.5z"/>
	<path class="st0" d="M163.4,11.8h17.4c11.6,0,19.8,6.8,19.8,18.7c0,8.1-3.6,14.9-11.6,17.7l12.2,35.9h-8.2l-11.6-34.3l-10.2,0.4
		v33.9h-7.8V11.8z M171.2,43.5h6.8c11.2,0,14.8-4.4,14.8-12.5s-3.6-12.5-14.8-12.5h-6.8V43.5z"/>
	<path class="st0" d="M230,85.2c-12.2,0-20.4-10.2-20.4-37.2c0-27,8.2-37.2,20.4-37.2c12.2,0,20.4,10.2,20.4,37.2
		C250.4,74.9,242.2,85.2,230,85.2z M230,17.4c-7,0-12.6,6-12.6,30.6c0,24.5,5.6,30.6,12.6,30.6c7,0,12.6-6,12.6-30.6
		C242.6,23.4,237,17.4,230,17.4z"/>
	<path class="st0" d="M273.6,11.8l18.6,53.3h0.2V11.8h7.8v72.3h-8.4l-22.4-62.9h-0.2v62.9h-7.8V11.8H273.6z"/>
	<path class="st0" d="M342.3,34.1c-0.6-9.4-3.4-16.6-11.3-16.6c-8.7,0-12.9,7.8-12.9,30.6c0,22.7,4.2,30.6,12.9,30.6
		c7.3,0,11.3-4,11.3-11.4V56.9h-9.8v-6.6h17.6v33.9h-5l-1-5.4c-3,4-7.2,6.4-13.1,6.4c-12.7,0-20.7-9.8-20.7-37.2s8-37.2,20.7-37.2
		c13.3,0,18.1,11.6,19.1,23.2H342.3z"/>
	<path class="st1" d="M411.5,11.8v72.3h-10.8V27.6h-0.2l-11.2,56.5h-6l-11.2-56.5h-0.2v56.5H361V11.8h16.3l8.8,42.3h0.2l8.8-42.3
		H411.5z"/>
	<path class="st1" d="M423.6,84.2V11.8H436v72.3H423.6z"/>
	<path class="st1" d="M448,84.2V11.8h11.5l15.1,41.4h0.2V11.8h11.2v72.3h-10.8L459.4,39h-0.2v45.2H448z"/>
	<path class="st1" d="M498.1,11.8h18.4c12.8,0,19.6,7,19.6,21.8v28.7c0,14.8-6.8,21.8-19.6,21.8h-18.4V11.8z M510.5,73.9h4.3
		c6.6,0,8.9-2.5,8.9-10.1V32.2c0-7.6-2.3-10.1-8.9-10.1h-4.3V73.9z"/>
</g>
<g>
	<g>
		<g>
			<polygon class="st0" points="38.4,31.3 30,32.7 28,11.1 17.6,38.9 26.1,37.5 28,59.1 			"/>
			<rect x="13.9" y="78.8" class="st0" width="28.4" height="5.6"/>
			<path class="st0" d="M37.8,87.9H35H21.3h-2.8v2.7h0c0,0,0,0.1,0,0.1c0,1.5,1.3,2.8,2.8,2.8H35c1.5,0,2.8-1.3,2.8-2.8
				c0,0,0-0.1,0-0.1h0V87.9z"/>
			<rect x="13.9" y="69.8" class="st0" width="28.4" height="5.6"/>
		</g>
	</g>
	<path class="st1" d="M51.3,11.1c-4-5.7-9.7-8.9-16.3-10.3C32.6,0.3,30.4,0,28.1,0c-2.2,0-4.5,0.3-6.8,0.8C14.6,2.2,8.9,5.4,5,11.1
		C-0.6,19-1.1,27.7,1.6,36.8c1.4,4.8,4.1,9.1,6.6,13.4c2,3.4,4,6.7,5.1,10.5c0.1,0.5,0.7,2.2,0.7,4.9h6.9c0-5-2.1-9.8-2.2-10
		c-2.2-4.5-4.7-8.8-7.1-13.2C9.2,38.3,7.2,34,6.9,29.2C6.4,22,8.5,15.8,14.3,11.4c4.2-3.2,8.9-4.6,13.9-4.5c5-0.1,9.7,1.3,13.9,4.5
		c5.8,4.4,7.9,10.6,7.4,17.8C49,34,47,38.3,44.7,42.5c-2.4,4.4-4.9,8.7-7.1,13.2c-0.1,0.2-2.2,4.9-2.2,10h6.9c0-2.7,0.5-4.4,0.7-4.9
		c1.1-3.8,3.2-7.1,5.1-10.5c2.5-4.3,5.1-8.6,6.6-13.4C57.4,27.7,56.8,19,51.3,11.1z"/>
</g>
</svg>
