<svg aria-hidden="true" id="Layer_1" xmlns="http://www.w3.org/2000/svg" viewBox="0 0 350 194.6">
  <style>
    .st1,.st2,.st3{fill:#fddfbb;stroke:#243038;stroke-width:2;stroke-miterlimit:10}.st2,.st3{fill:none}.st3{fill:#fdd79d}.st4{fill:#243038}.st10,.st6,.st8{stroke:#243038;stroke-width:2;stroke-miterlimit:10}.st6{stroke-linecap:round;fill:none}.st10,.st8{fill:#d3b3ab}.st10{fill:#f2f3f5}.st11{fill:#7f8c97}.st12{fill:#b3e0f7;stroke:#243038;stroke-width:2;stroke-miterlimit:10}
  </style>
  <title>
    No-Pinned-Discussions-400x250
  </title>
  <path d="M214 161.6c-19.3 0-32 9.9-32 22v10h64v-10c0-12.1-12.7-22-32-22z" fill="#e9b0df" stroke="#243038" stroke-width="2" stroke-miterlimit="10"/>
  <path class="st1" d="M214 148.6c3.9 0 7 3.1 7 7v11c0 3.9-3.1 7-7 7s-7-3.1-7-7v-11c0-3.8 3.1-7 7-7z"/>
  <path class="st2" d="M228.9 163.7c.1.6.1 1.3.1 1.9 0 8.3-15 22-15 22s-15-13.7-15-22c0-.6 0-1.3.1-1.9"/>
  <path class="st3" d="M236.1 154.6h-44.3c-1.1 0-2-.9-2-2v-.2l1.8-25.3h44.6l1.8 25.3c.1 1.1-.7 2.1-1.8 2.1 0 .1 0 .1-.1.1z"/>
  <path class="st1" d="M193 127.9h42c2.8 0 5 2.2 5 5v.1c0 2.8-2.2 5-5 5h-42c-2.8 0-5-2.2-5-5v-.1c0-2.7 2.2-5 5-5z"/>
  <path class="st1" d="M193.7 137.4c0 11.2 9.1 20.3 20.3 20.3s20.3-9.1 20.3-20.3v-8.8c0-11.2-9.1-20.3-20.3-20.3s-20.3 9.1-20.3 20.3v8.8z"/>
  <path class="st3" d="M214 105.6c-12 0-21.9 9.5-22.3 21.5 7-1.4 16.5-5.1 16.5-15.1 0 8.4 16.9 15.9 28 15.9.1-12.3-9.9-22.2-22.2-22.3z"/>
  <circle class="st4" cx="205.2" cy="132" r="3.4"/>
  <circle class="st4" cx="222.8" cy="132" r="3.4"/>
  <path d="M214 142.2c1.5 0 2.7-1.2 2.7-2.7h-5.4c0 1.5 1.2 2.7 2.7 2.7z" fill="#f7931e"/>
  <path class="st6" d="M209.2 148c2.1 2.6 5.9 3.1 8.5 1 .4-.3.7-.6 1-1"/>
  <path d="M133 137.6c-19.3 0-35 9.9-35 22v10h70v-10c0-12.1-15.7-22-35-22z" fill="#fec3a0" stroke="#243038" stroke-width="2" stroke-miterlimit="10"/>
  <path class="st8" d="M133 124.6c3.9 0 7 3.1 7 7v11c0 3.9-3.1 7-7 7s-7-3.1-7-7v-11c0-3.8 3.1-7 7-7zM112 105.9h42c2.8 0 5 2.2 5 5v.1c0 2.8-2.2 5-5 5h-42c-2.8 0-5-2.2-5-5v-.1c0-2.7 2.2-5 5-5z"/>
  <path class="st8" d="M112.7 115.4c0 11.2 9.1 20.3 20.3 20.3 11.2 0 20.3-9.1 20.3-20.3v-8.8c0-11.2-9.1-20.3-20.3-20.3s-20.3 9.1-20.3 20.3v8.8z"/>
  <circle class="st4" cx="124.2" cy="110" r="3.4"/>
  <circle class="st4" cx="141.8" cy="110" r="3.4"/>
  <path d="M133 120.2c1.5 0 2.7-1.2 2.7-2.7h-5.4c0 1.5 1.2 2.7 2.7 2.7z" fill="#90422c"/>
  <path class="st6" d="M128.2 126c2.1 2.6 5.9 3.1 8.5 1 .4-.3.7-.6 1-1M119.2 104.3c2.1-2.6 5.9-3.1 8.5-1 .4.3.7.6 1 1M137.2 104.3c2.1-2.6 5.9-3.1 8.5-1 .4.3.7.6 1 1"/>
  <path class="st2" d="M147.9 139.7c.1.6.1 1.3.1 1.9 0 8.3-6.7 15-15 15s-15-6.7-15-15c0-.6 0-1.3.1-1.9"/>
  <path class="st10" d="M219 100.6h16l-6 20 33-20h87v-61H219z"/>
  <path class="st11" d="M229 62.6h100v5H229zM229 72.6h110v5H229zM229 82.6h92v5h-92z"/>
  <path class="st10" d="M131 78.6h-16l6 20-33-20H1v-61h130z"/>
  <path class="st11" d="M11 40.6h100v5H11zM11 50.6h110v5H11zM11 60.6h92v5H11z"/>
  <path class="st6" d="M22.6 23l-9.9 10"/>
  <path class="st12" d="M31.8 1.4l12.4 12.4-.9.9c-1.6 1.6-4.1 1.6-5.7 0L30.9 8c-1.6-1.6-1.6-4.1 0-5.7l.9-.9z"/>
  <path transform="rotate(-45 30.951 14.6946)" class="st12" d="M26.3 9.4h9.4V20h-9.4z"/>
  <path class="st12" d="M25.1 15.5l4.9 4.9c2.7 2.7 2.7 7.2 0 9.9L15.2 15.5c2.7-2.7 7.2-2.7 9.9 0z"/>
  <path class="st6" d="M239.6 45l-9.9 10"/>
  <path class="st12" d="M248.8 23.4l12.5 12.5-.9.9c-1.6 1.6-4.1 1.6-5.7 0l-6.8-6.8c-1.6-1.6-1.6-4.1 0-5.7l.9-.9z"/>
  <path transform="rotate(-45 247.9477 36.6958)" class="st12" d="M243.3 31.4h9.4V42h-9.4z"/>
  <path class="st12" d="M242.1 37.5l4.9 4.9c2.7 2.7 2.7 7.2 0 9.9l-14.9-14.9c2.8-2.6 7.3-2.6 10 .1z"/>
</svg>
