<svg aria-hidden="true" id="Layer_1" xmlns="http://www.w3.org/2000/svg" viewBox="0 0 354 192">
  <style>
    .st1,.st2{fill:#e8d4b6;stroke:#243038;stroke-width:2;stroke-miterlimit:10}.st2{fill:#fff}.st4{stroke-linecap:round}.st4,.st6,.st9{fill:none;stroke:#243038;stroke-width:2;stroke-miterlimit:10}.st9{fill:#b6aeac}.st10{fill:#243038}.st13{fill:#fff;stroke:#243038;stroke-width:2;stroke-miterlimit:10;stroke-dasharray:4}.st14{fill:#99a3ac}.st15{fill:#b2bac1}.st16{fill:#ccd1d5}
  </style>
  <title>
    No-Discussions-400x250
  </title>
  <path d="M217 159c-19.3 0-35 9.9-35 22v10h70v-10c0-12.1-15.7-22-35-22z" fill="#b9d199" stroke="#243038" stroke-width="2" stroke-miterlimit="10"/>
  <path class="st1" d="M196 127.3h42c2.8 0 5 2.2 5 5v.1c0 2.8-2.2 5-5 5h-42c-2.8 0-5-2.2-5-5v-.1c0-2.8 2.2-5 5-5zM231.9 161.1c-2.6-.8-5.2-1.3-7.9-1.6V153c0-3.9-3.1-7-7-7s-7 3.1-7 7v6.4c-2.7.3-5.3.9-7.9 1.6-.1.6-.1 1.3-.1 1.9 0 8.3 15 19 15 19s15-10.7 15-19c0-.5 0-1.2-.1-1.8z"/>
  <path class="st1" d="M196.7 136.8c0 11.2 9.1 20.3 20.3 20.3s20.3-9.1 20.3-20.3V128c0-11.2-9.1-20.3-20.3-20.3s-20.3 9.1-20.3 20.3v8.8z"/>
  <circle class="st2" cx="207.2" cy="131.4" r="7.5"/>
  <circle class="st2" cx="226.8" cy="131.4" r="7.5"/>
  <path d="M217 141.6c1.5 0 2.7-1.2 2.7-2.7h-5.4c0 1.5 1.2 2.7 2.7 2.7z" fill="#d4b078"/>
  <path class="st4" d="M212.2 147.4c2.1 2.6 5.9 3.1 8.5 1 .4-.3.7-.6 1-1"/>
  <path d="M228.3 103.6c-1.8 0-3.6.3-5.4.9-5.2-1.8-14.9-4.1-23.4-.5-12.2 5.3-17.1 21.2-17.1 21.2s14.9 7.3 27.1 2c8.6-3.7 13.6-12.7 15.8-17.7 7.3 3.3 12 10.5 12 18.5v6.1c7.7-5 9.8-15.2 4.9-22.9-3.1-4.7-8.3-7.6-13.9-7.6z" fill="#eceeef" stroke="#243038" stroke-width="2" stroke-miterlimit="10"/>
  <path class="st6" d="M206.7 191c22.7-5 29-16.3 32.6-27M214.7 131.4c0-2.7 4.6-2.6 4.6 0"/>
  <path class="st4" d="M234.3 131.4h3M199.7 131.4h-3"/>
  <path d="M133.4 55.8l1.1-.8c1-.7 2.4-.6 3.2.3l.9 1c.7.8 1.8 1 2.8.6l1.2-.5c1.1-.5 2.5-.1 3.1 1l.7 1.2c.5.9 1.6 1.4 2.6 1.2l1.3-.3c1.2-.2 2.4.4 2.8 1.6l.4 1.3c.3 1 1.3 1.7 2.3 1.7h1.3c1.2 0 2.3.9 2.4 2.2l.1 1.3c.1 1 .9 1.9 1.9 2.1l1.3.3c1.2.3 2 1.4 1.9 2.6l-.1 1.3c-.1 1 .5 2 1.4 2.5l1.2.6c1.1.5 1.7 1.8 1.3 3l-.4 1.3c-.3 1 0 2.1.9 2.7l1.1.8c1 .7 1.3 2.1.7 3.2l-.6 1.2c-.5.9-.4 2 .3 2.8l.9 1c.8.9.8 2.3 0 3.2l-.9 1c-.7.8-.8 1.9-.3 2.8l.6 1.1c.6 1.1.3 2.4-.7 3.2l-1.1.8c-.8.6-1.2 1.7-.9 2.7l.4 1.3c.4 1.2-.2 2.5-1.3 3l-1.2.6c-1 .4-1.5 1.4-1.4 2.5l.1 1.3c.1 1.2-.7 2.4-1.9 2.6l-1.3.3c-1 .2-1.8 1.1-1.9 2.1l-.1 1.3c-.1 1.2-1.2 2.2-2.4 2.2h-1.3c-1 0-2 .7-2.3 1.7l-.4 1.3c-.4 1.2-1.6 1.9-2.8 1.6l-1.3-.6c-1-.2-2.1.2-2.6 1.1l-.7 1.1c-.6 1.1-1.9 1.5-3.1 1l-1.2-.5c-1-.4-2.1-.2-2.8.6l-.9 1c-.8.9-2.2 1.1-3.2.3l-1.1-.8c-.8-.6-2-.6-2.8 0l-1.1.8c-1 .7-2.4.6-3.2-.3l-.9-1c-.7-.8-1.8-1-2.8-.6l-1.2.5c-1.1.5-2.5.1-3.1-1l-.7-1.1c-.5-.9-1.6-1.4-2.6-1.1l-1.3.3c-1.2.2-2.4-.4-2.8-1.6l-.4-1.3c-.3-1-1.3-1.7-2.3-1.7h-1.3c-1.2 0-2.3-.9-2.4-2.2l-.2-1.3c-.1-1-.9-1.9-1.9-2.1l-1.3-.3c-1.2-.3-2-1.4-1.9-2.6l.1-1.3c.1-1-.5-2-1.4-2.5l-1.2-.6c-1.1-.5-1.7-1.8-1.3-3l.4-1.3c.3-1 0-2.1-.9-2.7l-1.1-.8c-1-.7-1.3-2.1-.7-3.2l.7-1.2c.5-.9.4-2.1-.3-2.8l-.9-1c-.8-.9-.8-2.3 0-3.2l.9-1c.7-.8.8-1.9.3-2.8l-.7-1.2c-.6-1.1-.3-2.4.7-3.2l1.1-.8c.8-.6 1.2-1.7.9-2.7l-.4-1.3c-.4-1.2.2-2.5 1.3-3l1.2-.6c.9-.4 1.5-1.4 1.4-2.5l-.1-1.3c-.1-1.2.7-2.4 1.9-2.6l1.3-.3c1-.2 1.8-1.1 1.9-2.1l.2-1.3c.2-1.2 1.2-2.1 2.4-2.1h1.3c1 0 2-.7 2.3-1.7l.4-1.3c.4-1.2 1.6-1.9 2.8-1.6l1.3.3c1 .2 2.1-.3 2.6-1.2l.7-1.2c.6-1.1 1.9-1.5 3.1-1l1.2.5c1 .4 2.1.2 2.8-.6l.9-1c.8-.9 2.2-1.1 3.2-.3l1.1.8c.8.9 2 .9 2.8.3z" fill="#526573" stroke="#243038" stroke-width="2" stroke-miterlimit="10"/>
  <path d="M132 125c-19.3 0-35 9.9-35 22v10h70v-10c0-12.1-15.7-22-35-22z" fill="#fdd79d" stroke="#243038" stroke-width="2" stroke-miterlimit="10"/>
  <path class="st9" d="M111 93.3h42c2.8 0 5 2.2 5 5v.1c0 2.8-2.2 5-5 5h-42c-2.8 0-5-2.2-5-5v-.1c0-2.8 2.2-5 5-5zM146.9 127.1c-2.6-.8-5.2-1.3-7.9-1.6V119c0-3.9-3.1-7-7-7s-7 3.1-7 7v6.4c-2.7.3-5.3.9-7.9 1.6-.1.6-.1 1.3-.1 1.9 0 8.3 15 19 15 19s15-10.7 15-19c0-.5 0-1.2-.1-1.8z"/>
  <path class="st9" d="M111.7 102.8c0 11.2 9.1 20.3 20.3 20.3 11.2 0 20.3-9.1 20.3-20.3V94c0-11.2-9.1-20.3-20.3-20.3s-20.3 9.1-20.3 20.3v8.8z"/>
  <circle class="st10" cx="123.2" cy="97.3" r="3.4"/>
  <circle class="st10" cx="140.8" cy="97.3" r="3.4"/>
  <path d="M132 107.6c1.5 0 2.7-1.2 2.7-2.7h-5.4c0 1.5 1.2 2.7 2.7 2.7z" fill="#776966"/>
  <path class="st4" d="M127.2 113.4c2.1 2.6 5.9 3.1 8.5 1 .4-.3.7-.6 1-1M118.2 91.7c2.1-2.6 5.9-3.1 8.5-1 .4.3.7.6 1 1M136.2 91.7c2.1-2.6 5.9-3.1 8.5-1 .4.3.7.6 1 1"/>
  <path d="M103 97.7c9.2 0 29-18.4 29-29h.5c0 10.6 19.9 29 29 29L152.3 75 132 62l-26 15-3 20.7z" fill="#526573"/>
  <path class="st6" d="M132 69.7c0 10.6-19.9 29-29 29M132.5 69.7c0 10.6 19.9 29 29 29"/>
  <path class="st13" d="M229 98h10l-6 20 33-20h81c3.3 0 6-2.7 6-6V43c0-3.3-2.7-6-6-6H229c-3.3 0-6 2.7-6 6v49c0 3.3 2.7 6 6 6zM125 62h-10l6 20-33-20H7c-3.3 0-6-2.7-6-6V7c0-3.3 2.7-6 6-6h118c3.3 0 6 2.7 6 6v49c0 3.3-2.7 6-6 6z"/>
  <circle class="st14" cx="41.6" cy="32.5" r="7.5"/>
  <circle class="st15" cx="64.1" cy="32.5" r="7.5"/>
  <circle class="st16" cx="86.6" cy="32.5" r="7.5"/>
  <circle class="st14" cx="264.6" cy="69.5" r="7.5"/>
  <circle class="st15" cx="287.1" cy="69.5" r="7.5"/>
  <circle class="st16" cx="309.6" cy="69.5" r="7.5"/>
</svg>
