<svg width="132" height="174" viewBox="0 0 132 174" fill="none" xmlns="http://www.w3.org/2000/svg">
<path d="M66.5 174C97.7041 174 123 168.627 123 162C123 155.373 97.7041 150 66.5 150C35.2959 150 10 155.373 10 162C10 168.627 35.2959 174 66.5 174Z" fill="black" fill-opacity="0.05"/>
<path fill-rule="evenodd" clip-rule="evenodd" d="M54.85 141.088H54.8496C53.3352 140.203 51.8927 139.222 50.532 138.152C50.5298 138.15 50.5276 138.149 50.525 138.147C48.8947 136.864 47.382 135.456 46.0049 133.938C46.0014 133.934 45.9979 133.931 45.9945 133.927C44.8467 132.66 43.7924 131.318 42.8428 129.908C40.5273 140.759 27.5433 162.239 57.4066 162.678C69.6466 162.857 70.8234 155.225 70.8234 155.225L69.7557 146.128C64.3383 145.437 59.2858 143.679 54.85 141.088Z" fill="#28343D" stroke="#152633" stroke-width="2"/>
<path fill-rule="evenodd" clip-rule="evenodd" d="M76.3779 162.037C76.3779 162.037 85.8594 166.457 96.6338 164.247C107.408 162.037 110.425 156.732 111.287 152.312C112.663 145.256 84.5665 150.102 84.5665 150.102L76.3779 162.037Z" fill="#28343D" stroke="#152633" stroke-width="2"/>
<path fill-rule="evenodd" clip-rule="evenodd" d="M36.8203 112.187C36.8203 109.252 37.202 106.402 37.9157 103.676C37.9908 103.702 38.0676 103.725 38.1428 103.75C33.1919 102.081 28.7662 99.8724 24.9871 97.1345C16.3306 99.6904 8.64697 106.706 8.64697 106.706L18.465 118.983C18.465 118.983 25.8728 115.501 37.2732 117.69C36.9757 115.896 36.8203 114.059 36.8203 112.187Z" fill="#28343D" stroke="#152633" stroke-width="2"/>
<path fill-rule="evenodd" clip-rule="evenodd" d="M11.9243 59.6087C11.9243 84.7756 34.609 98.2269 65.7943 98.2269C96.9796 98.2269 122.26 83.04 122.26 60.4766C122.26 32.4385 96.9796 5.36975 65.7943 5.36975C34.609 5.36975 11.9243 33.1401 11.9243 59.6087Z" fill="white"/>
<path d="M20.6396 82.772C30.2257 91.6262 45.5564 96.2269 63.7945 96.2269C94.9798 96.2269 120.261 81.04 120.261 58.4766C120.261 44.8632 114.301 31.4783 104.599 21.3093C115.475 31.6856 122.261 45.951 122.261 60.4766C122.261 83.04 96.9798 98.2269 65.7945 98.2269C46.2294 98.2269 30.0103 92.9324 20.6396 82.772Z" fill="#EDEDED"/>
<path fill-rule="evenodd" clip-rule="evenodd" d="M11.9243 59.6087C11.9243 84.7756 34.609 98.2269 65.7943 98.2269C96.9796 98.2269 122.26 83.04 122.26 60.4766C122.26 32.4385 96.9796 5.36975 65.7943 5.36975C34.609 5.36975 11.9243 33.1401 11.9243 59.6087Z" stroke="#152633" stroke-width="2"/>
<path fill-rule="evenodd" clip-rule="evenodd" d="M64.9801 86.006C65.9171 88.6889 65.4218 91.1992 63.8733 91.614C62.3248 92.0283 60.3102 90.1896 59.3732 87.5066C58.4362 84.8237 58.9321 82.3134 60.48 81.8986C62.0285 81.4843 64.0437 83.323 64.9801 86.006Z" fill="#152633"/>
<path fill-rule="evenodd" clip-rule="evenodd" d="M61.0838 74.1932C61.0838 76.6067 57.4158 78.563 52.8905 78.563C48.3653 78.563 44.6973 76.6067 44.6973 74.1932C44.6973 71.7797 48.3653 69.8235 52.8905 69.8235C57.4158 69.8235 61.0838 71.7797 61.0838 74.1932Z" fill="#152633"/>
<path fill-rule="evenodd" clip-rule="evenodd" d="M85.1175 23.8488C75.3801 23.8488 66.4536 38.9614 66.4536 53.9588C66.4536 67.3805 78.3238 79.7479 89.4872 79.7479C99.699 79.7479 108.151 68.2331 108.151 53.9588C108.151 47.3605 105.289 39.7154 100.492 33.5539C95.7462 27.4569 89.9666 23.8488 85.1175 23.8488Z" fill="#2D3B45" stroke="#152633" stroke-width="2"/>
<path fill-rule="evenodd" clip-rule="evenodd" d="M80.0823 65.3307C77.6194 66.0538 74.6978 63.5156 73.5571 59.6617C72.416 55.8079 73.4876 52.0977 75.9509 51.3751C78.4138 50.652 81.3354 53.1903 82.476 57.0441C83.6171 60.898 82.5451 64.6081 80.0823 65.3307Z" fill="white"/>
<path fill-rule="evenodd" clip-rule="evenodd" d="M39.0515 20.5714C29.6874 20.5714 17.2939 37.5385 17.2939 50.727C17.2939 59.0884 19.3456 64.2431 24.1113 68.9371C26.0725 70.8681 29.1033 72.1008 31.4766 72.1008C31.537 72.1008 31.5928 72.1 31.6504 72.0982C34.9549 72.0086 38.5505 69.5769 41.6726 64.8205C44.7416 60.1437 46.7868 54.2802 47.4214 48.9299C48.8985 36.4825 47.9001 26.8222 44.0484 22.6729C42.7491 21.2733 41.088 20.5714 39.0515 20.5714Z" fill="#2D3B45" stroke="#152633" stroke-width="2"/>
<path fill-rule="evenodd" clip-rule="evenodd" d="M39.9729 57.7211C39.0858 60.6855 36.8131 62.638 34.8976 62.0818C32.9821 61.5256 32.1483 58.6717 33.0355 55.7074C33.923 52.743 36.1953 50.7905 38.1104 51.3467C40.0263 51.9029 40.8601 54.7568 39.9729 57.7211Z" fill="white"/>
<path fill-rule="evenodd" clip-rule="evenodd" d="M112.366 30.4958C113.906 29.8328 115.557 28.8807 117.209 27.51C123.561 22.2379 122.291 13.451 121.867 11.2543C121.444 9.05758 118.903 -1.48666 110.856 3.34611C105.659 6.46721 100.289 11.7841 97.1343 15.1614C103.111 19.2912 108.288 24.5413 112.366 30.4958Z" fill="#2D3B45"/>
<path d="M116.209 24.51C114.557 25.8808 112.906 26.8328 111.366 27.4958C107.815 22.3109 103.431 17.66 98.4109 13.8178C97.9541 14.2904 97.527 14.7409 97.1343 15.1614C103.111 19.2912 108.288 24.5414 112.366 30.4958C113.906 29.8328 115.557 28.8808 117.209 27.51C123.561 22.2379 122.291 13.451 121.867 11.2543C121.727 10.5282 121.356 8.88996 120.631 7.19653C120.741 7.63601 120.818 8.00076 120.867 8.25431C121.291 10.451 122.561 19.2379 116.209 24.51Z" fill="#28343D"/>
<path fill-rule="evenodd" clip-rule="evenodd" d="M112.366 30.4958C113.906 29.8328 115.557 28.8807 117.209 27.51C123.561 22.2379 122.291 13.451 121.867 11.2543C121.444 9.05758 118.903 -1.48666 110.856 3.34611C105.659 6.46721 100.289 11.7841 97.1343 15.1614C103.111 19.2912 108.288 24.5413 112.366 30.4958Z" stroke="#152633" stroke-width="2"/>
<path fill-rule="evenodd" clip-rule="evenodd" d="M22.8928 22.1969C23.7845 22.9034 24.6758 23.476 25.5444 23.9412C29.6838 19.135 34.67 14.9709 40.3277 11.7937C37.5588 8.97349 32.929 4.61728 28.4431 2.04562C21.4127 -1.98489 19.1924 6.80853 18.8224 8.64058C18.4523 10.4726 17.3422 17.8004 22.8928 22.1969Z" fill="#2D3B45"/>
<path d="M23.5446 20.9411C22.676 20.4759 21.7848 19.9034 20.8931 19.1968C20.4414 18.8391 20.0339 18.462 19.6665 18.07C20.3393 19.5507 21.3632 20.9851 22.8931 22.1968C23.7848 22.9034 24.676 23.4759 25.5446 23.9411C29.6841 19.1349 34.6702 14.9708 40.328 11.7936C39.5641 11.0156 38.6587 10.1208 37.6537 9.17871C32.2735 12.3043 27.5188 16.3268 23.5446 20.9411Z" fill="#28343D"/>
<path fill-rule="evenodd" clip-rule="evenodd" d="M22.8928 22.1969C23.7845 22.9034 24.6758 23.476 25.5444 23.9412C29.6838 19.135 34.67 14.9709 40.3277 11.7937C37.5588 8.97349 32.929 4.61728 28.4431 2.04562C21.4127 -1.98489 19.1924 6.80853 18.8224 8.64058C18.4523 10.4726 17.3422 17.8004 22.8928 22.1969Z" stroke="#152633" stroke-width="2"/>
<path fill-rule="evenodd" clip-rule="evenodd" d="M64.1864 106.75C54.554 106.75 45.7373 105.453 38.1556 102.913C37.4354 105.613 37.0503 108.435 37.0503 111.341C37.0503 130.645 53.9242 146.294 74.7394 146.294C95.5545 146.294 112.428 130.645 112.428 111.341C112.428 104.971 110.59 98.9998 107.38 93.8572C97.0694 101.996 81.548 106.75 64.1864 106.75Z" fill="white" stroke="#152633" stroke-width="2"/>
<path d="M80.9685 88.8124C78.6297 89.9274 76.5442 91.03 74.7504 92.0422C76.295 90.9671 78.0958 89.8036 80.1442 88.6204C87.9964 84.0846 99.4804 79.2617 114.106 78.0139L114.082 79.9334C100.955 80.6685 89.3325 84.8247 80.9685 88.8124Z" fill="white" stroke="#C7CDD1"/>
<path fill-rule="evenodd" clip-rule="evenodd" d="M114.613 77.4706C84.6615 79.8303 67.6387 97.1344 67.6387 97.1344C67.6387 97.1344 88.113 81.7212 114.576 80.408L114.613 77.4706Z" fill="white" stroke="#C7CDD1" stroke-width="2"/>
<path d="M68.4481 97.4721L68.1819 97.0489L68.1427 97.0736L68.1411 96.9097C68.1622 96.8942 68.1849 96.8776 68.2092 96.8599C68.3889 96.729 68.6576 96.5362 69.0107 96.2907C69.7169 95.7997 70.7607 95.0982 72.1065 94.2595C74.7984 92.5819 78.6965 90.3568 83.5151 88.1708C93.0433 83.8483 106.146 79.6899 120.629 80.1977L120.454 82.4001C107.574 81.4257 94.5849 85.0457 84.7974 88.9161C79.8353 90.8783 75.6851 92.9093 72.7746 94.4502C71.3191 95.2208 70.1731 95.8692 69.3899 96.3254C68.9983 96.5536 68.6974 96.7338 68.4939 96.8572C68.3921 96.919 68.3147 96.9665 68.2624 96.9988L68.203 97.0357L68.1876 97.0453L68.1836 97.0479L68.1824 97.0486C68.1821 97.0488 68.1819 97.0489 68.4481 97.4721Z" fill="white" stroke="#C7CDD1"/>
<path fill-rule="evenodd" clip-rule="evenodd" d="M68.4481 97.4721C68.4481 97.4721 95.0482 80.7404 120.913 82.9386L121.168 79.7183C91.5819 78.4552 67.6387 96.6599 67.6387 96.6599L68.3049 165.958C68.3158 165.951 68.3283 165.944 68.3391 165.936L68.4481 97.4721Z" fill="white" stroke="#C7CDD1" stroke-width="2"/>
<path fill-rule="evenodd" clip-rule="evenodd" d="M67.6387 170.328L67.755 97.2044C67.755 97.2044 99.0958 78.2913 126.63 84.0101L120.036 155.344C120.036 155.344 89.5296 159.012 67.6387 170.328Z" fill="white" stroke="#C7CDD1" stroke-width="2"/>
<path fill-rule="evenodd" clip-rule="evenodd" d="M67.6387 170.328L67.755 97.2044C67.755 97.2044 99.0958 78.2913 126.63 84.0101L120.036 155.344C120.036 155.344 89.5296 159.012 67.6387 170.328Z" fill="white" stroke="#C7CDD1" stroke-width="2" stroke-linejoin="round"/>
<path d="M61.1968 161.954L60.3909 161.689L56.5863 160.438L54.3853 162.034L54.1082 162.234L53.8208 162.049L49.506 159.264L47.7612 160.377L47.4197 160.595L47.1358 160.306L44.3509 157.473L44.2843 157.405L44.2472 157.318L43.4909 155.536L41.4605 157.159L41.2002 157.367L40.9081 157.207L36.8724 154.994L36.8602 154.988L36.8483 154.98L33.8555 153.115L30.469 154.493L30.1209 154.635L29.888 154.34L26.8024 150.43L24.0672 152.447L23.3974 152.94L61.1968 161.954ZM61.1968 161.954L61.0383 161.121L59.551 153.299L61.3796 150.149L61.5201 149.907L61.3872 149.661L59.1278 145.474M61.1968 161.954L59.1278 145.474M23.2759 152.117L23.2759 152.117L23.2759 152.117ZM23.2759 152.117L23.2759 152.117L23.2757 152.116L23.2748 152.11L23.2713 152.087C23.268 152.066 23.2631 152.035 23.2565 151.995C23.2434 151.914 23.2237 151.798 23.1978 151.658C23.1458 151.376 23.0694 150.998 22.9712 150.611C22.8722 150.22 22.755 149.836 22.6246 149.533C22.5594 149.382 22.4964 149.264 22.4388 149.18C22.3842 149.101 22.3522 149.079 22.3514 149.078C22.3513 149.078 22.3517 149.078 22.3526 149.079L22.3524 149.079C21.7046 148.733 21.1063 148.012 20.6982 147.448C20.4859 147.155 20.3092 146.881 20.1857 146.68C20.1608 146.64 20.138 146.603 20.1174 146.568L18.0128 146.308L17.6328 146.261L17.5791 145.882C17.5698 145.816 17.5757 145.757 17.5767 145.746L17.5769 145.745C17.5789 145.722 17.582 145.699 17.5849 145.679C17.5908 145.639 17.5994 145.589 17.6094 145.534C17.6296 145.423 17.659 145.276 17.6938 145.107C17.7637 144.767 17.8583 144.327 17.953 143.893C18.0479 143.459 18.1432 143.029 18.2148 142.708L18.2911 142.366L16.4211 139.195L16.2092 138.835L16.5248 138.563L17.6299 137.607L16.5552 132.847L16.5136 132.663L16.6041 132.497L18.2554 129.476L17.2615 125.29L17.2529 125.253L17.2497 125.216L16.5707 117.158L16.5543 116.963L16.6748 116.808L19.2216 113.545L18.0714 111.188L18.0608 111.166L18.0524 111.144L16.5889 107.226L16.5112 107.018L16.6132 106.821L17.6585 104.801L15.4772 101.853L15.319 101.639L15.4079 101.389L16.5445 98.1846L15.992 94.6583L15.8175 93.5444L16.7603 94.1628C17.0176 94.3316 17.3811 94.6808 17.6488 94.9493C17.7737 95.0745 17.888 95.1926 17.9765 95.2854L19.4765 95.0467L20.074 94.9516L20.0548 95.5563L20.0171 96.7476L22.0106 96.5713L22.0548 96.5673L22.0991 96.5713L25.5526 96.8798L25.7572 96.898L25.8899 97.0549L27.4017 98.8421L31.1757 101.264L33.838 100.314L33.9777 100.264L34.1219 100.299L37.5342 101.113L37.7089 101.154L37.8171 101.298L40.9634 105.463L44.9855 105.173L45.0199 105.17L45.0544 105.172L49.4979 105.465L49.7001 105.478L49.836 105.628L51.9583 107.977L55.3363 106.713L55.4247 106.68L55.5191 106.681L57.9843 106.719L58.2247 106.722L58.3719 106.912L60.5044 109.664L60.6892 109.903L60.5644 110.177L59.1106 113.377L60.8943 115.622L61.3217 116.16L60.6783 116.401L57.2772 117.676L57.9133 120.44L60.5984 122.784L60.8776 123.028L60.7254 123.366L58.9554 127.297L61.4844 130.752L61.641 130.966L61.5519 131.216L60.1232 135.217L61.0534 139.86L61.0713 139.949L61.0567 140.038L60.276 144.827L60.2263 145.132L59.9312 145.224L59.1278 145.474M23.2759 152.117L59.1278 145.474M51.5325 166.938C41.7843 164.488 28.5261 160.028 14.4269 151.986L8.14868 81.7767C8.17272 81.7929 8.19725 81.8094 8.22226 81.8261C8.86129 82.2544 9.81554 82.8648 11.084 83.5986C13.6209 85.0663 17.4148 87.0282 22.4575 89.0161C32.4613 92.9597 47.3767 97.0048 67.1379 97.4996L67.0232 169.783C66.8635 169.768 66.6691 169.749 66.441 169.724C65.7054 169.646 64.6203 169.515 63.2282 169.307C60.444 168.892 56.4323 168.169 51.5325 166.938Z" fill="white" stroke="#C7CDD1"/>
<path fill-rule="evenodd" clip-rule="evenodd" d="M60.5471 161.214L56.4998 159.883L54.0919 161.629L49.5076 158.67L47.4924 159.955L44.7074 157.122L43.6936 154.734L41.1484 156.768L37.1128 154.556L33.9034 152.555L30.2805 154.03L26.8952 149.741L23.7705 152.044C23.7705 152.044 23.3257 149.03 22.5876 148.637C21.5138 148.065 20.4243 146.102 20.4243 146.102L18.0742 145.812C18.0564 145.686 18.8222 142.283 18.8222 142.283L16.8518 138.941L18.1837 137.79L17.0429 132.737L18.7862 129.547L17.748 125.174L17.069 117.116L19.8079 113.607L18.5208 110.969L17.0573 107.051L18.2458 104.755L15.8792 101.556L17.0581 98.2324L16.486 94.5809C16.8987 94.8516 17.794 95.8208 17.794 95.8208L19.5551 95.5405L19.4995 97.2953L22.0546 97.0693L25.5081 97.3778L27.0685 99.2224L31.1124 101.817L34.0059 100.785L37.4182 101.599L40.7283 105.981L45.0215 105.671L49.465 105.964L51.8152 108.564L55.5115 107.181L57.9767 107.219L60.1092 109.97L58.5289 113.448L60.5028 115.933L56.6918 117.362L57.4624 120.71L60.2695 123.161L58.3799 127.358L61.081 131.047L59.6057 135.18L60.5632 139.958L59.7825 144.747L58.3994 145.178L60.9472 149.898L59.0249 153.209L60.5471 161.214ZM7.55469 80.7479L13.9521 152.291C42.4147 168.593 67.5223 170.328 67.5223 170.328L67.6387 97.0112C27.7566 96.1349 7.55469 80.7479 7.55469 80.7479Z" stroke="#C7CDD1" stroke-width="2" stroke-linejoin="round"/>
<path d="M118.825 92.2595C119.102 92.238 119.337 92.221 119.527 92.2079L118.787 100.784C107.879 100.843 97.0208 103.609 88.8664 106.369C84.7288 107.77 81.2803 109.172 78.8651 110.224C77.6574 110.75 76.7077 111.189 76.0591 111.496C75.9615 111.543 75.8708 111.586 75.787 111.626L75.7983 104.675C83.4378 99.2386 94.4254 96.1088 103.587 94.34C108.199 93.4493 112.331 92.907 115.309 92.5874C116.798 92.4276 117.998 92.3235 118.825 92.2595Z" fill="#C7CDD1" stroke="#C7CDD1"/>
<path d="M116.868 108.58C117.051 108.574 117.21 108.57 117.345 108.567L116.611 117.051C101.726 117.858 88.362 121.652 75.7869 126.966L75.798 120.112C85.3114 114.349 95.7857 111.457 103.919 110.009C108.017 109.279 111.514 108.916 113.986 108.736C115.221 108.646 116.2 108.602 116.868 108.58Z" fill="#C7CDD1" stroke="#C7CDD1"/>
<path d="M116.659 124C116.925 123.967 117.152 123.94 117.339 123.918L116.598 132.324C108.794 132.409 98.5303 134.928 90.194 137.432C85.9351 138.71 82.1641 139.99 79.4578 140.949C78.1044 141.429 77.0169 141.829 76.2674 142.11C76.0874 142.177 75.9269 142.237 75.7869 142.29L75.7983 135.396C82.285 131.203 92.7086 128.32 101.613 126.481C106.105 125.553 110.19 124.895 113.151 124.469C114.631 124.256 115.831 124.102 116.659 124Z" fill="#C7CDD1" stroke="#C7CDD1"/>
<path d="M115.51 139.372C115.797 139.322 116.043 139.28 116.244 139.246L115.507 147.659C103.846 148.847 93.7934 151.371 86.6317 153.61C83.0082 154.743 80.1231 155.803 78.1423 156.58C77.1519 156.969 76.3874 157.287 75.8696 157.509C75.8413 157.521 75.8137 157.533 75.7869 157.544L75.7982 150.69C78.2396 149.115 81.93 147.612 86.1505 146.241C90.4902 144.83 95.3502 143.571 99.9059 142.518C104.46 141.466 108.705 140.621 111.81 140.04C113.363 139.749 114.631 139.524 115.51 139.372Z" fill="#C7CDD1" stroke="#C7CDD1"/>
<path fill-rule="evenodd" clip-rule="evenodd" d="M18.211 114.543C17.5769 111.184 15.915 108.388 13.7887 106.663C14.0303 106.477 14.2055 106.269 14.288 106.034C15.1036 103.706 13.7411 102.128 11.7044 101.577C10.5116 101.254 6.72631 101.865 4.55156 106.412C1.7827 108.729 0.373433 113.228 1.26775 117.969C2.44923 124.23 7.19999 128.538 11.8783 127.592C16.5571 126.647 19.3925 120.804 18.211 114.543Z" fill="#2D3B45"/>
<path d="M11.7887 104.663C13.915 106.388 15.5769 109.184 16.211 112.543C17.3925 118.804 14.5571 124.646 9.87838 125.592C7.80388 126.012 5.71515 125.398 3.92969 124.039C6.02 126.731 8.96325 128.182 11.8784 127.592C16.5571 126.646 19.3925 120.804 18.211 114.543C17.5769 111.184 15.915 108.388 13.7887 106.663C14.0304 106.477 14.2055 106.269 14.2881 106.034C15.0084 103.978 14.0297 102.507 12.388 101.811C12.5932 102.445 12.5837 103.19 12.2881 104.034C12.2055 104.269 12.0304 104.477 11.7887 104.663Z" fill="#28343D"/>
<path fill-rule="evenodd" clip-rule="evenodd" d="M18.211 114.543C17.5769 111.184 15.915 108.388 13.7887 106.663C14.0303 106.477 14.2055 106.269 14.288 106.034C15.1036 103.706 13.7411 102.128 11.7044 101.577C10.5116 101.254 6.72631 101.865 4.55156 106.412C1.7827 108.729 0.373433 113.228 1.26775 117.969C2.44923 124.23 7.19999 128.538 11.8783 127.592C16.5571 126.647 19.3925 120.804 18.211 114.543Z" stroke="#152633" stroke-width="2"/>
<path fill-rule="evenodd" clip-rule="evenodd" d="M113.789 114.543C114.423 111.184 116.085 108.388 118.211 106.663C117.969 106.477 117.795 106.269 117.712 106.034C116.896 103.706 118.259 102.128 120.296 101.577C121.489 101.254 125.273 101.865 127.448 106.412C130.217 108.729 131.627 113.228 130.732 117.969C129.551 124.23 124.8 128.538 120.121 127.592C115.443 126.647 112.608 120.804 113.789 114.543Z" fill="#2D3B45"/>
<path d="M115.619 124.52C116.754 126.111 118.298 127.224 120.121 127.592C124.8 128.538 129.551 124.23 130.732 117.969C131.627 113.228 130.217 108.729 127.448 106.412C126.612 104.663 125.537 103.496 124.463 102.741C124.815 103.228 125.147 103.782 125.448 104.412C128.217 106.729 129.627 111.228 128.732 115.969C127.551 122.23 122.8 126.538 118.121 125.592C117.212 125.409 116.373 125.04 115.619 124.52Z" fill="#28343D"/>
<path fill-rule="evenodd" clip-rule="evenodd" d="M113.789 114.543C114.423 111.184 116.085 108.388 118.211 106.663C117.969 106.477 117.795 106.269 117.712 106.034C116.896 103.706 118.259 102.128 120.296 101.577C121.489 101.254 125.273 101.865 127.448 106.412C130.217 108.729 131.627 113.228 130.732 117.969C129.551 124.23 124.8 128.538 120.121 127.592C115.443 126.647 112.608 120.804 113.789 114.543Z" stroke="#152633" stroke-width="2"/>
</svg>
