<?xml version="1.0" standalone="no"?>
<!DOCTYPE svg PUBLIC "-//W3C//DTD SVG 1.1//EN" "http://www.w3.org/Graphics/SVG/1.1/DTD/svg11.dtd" >
<svg xmlns="http://www.w3.org/2000/svg">
<metadata>
This is a custom SVG webfont generated by Font Squirrel.
Copyright   : Copyright c 2011 by LatinoType Limitada infolatinotypecom  with Reserved Font Names Patua and Patua One
Designer    : luciano Vergara
Foundry     : Luciano Vergara
Foundry URL : wwwlatinotypecom
</metadata>
<defs>
<font id="PatuaOneRegular" horiz-adv-x="862" >
<font-face units-per-em="2048" ascent="1638" descent="-410" />
<missing-glyph horiz-adv-x="460" />
<glyph unicode=" "  horiz-adv-x="460" />
<glyph unicode="&#x09;" horiz-adv-x="460" />
<glyph unicode="&#xa0;" horiz-adv-x="460" />
<glyph unicode="!" horiz-adv-x="571" d="M123 131.5q0 151.5 162 151.5q164 0 164 -151.5t-164 -151.5q-162 0 -162 151.5zM141 1413h291q41 -610 -55 -999h-184q-98 395 -52 999z" />
<glyph unicode="&#x22;" horiz-adv-x="790" d="M78 1225q4 313 80 440q29 47 88 52t107 -31.5t42 -96.5q-14 -143 -213 -403zM500 1225q4 313 80 440q29 47 88 52t107 -31.5t42 -96.5q-14 -143 -213 -403z" />
<glyph unicode="#" horiz-adv-x="1624" d="M45 295q63 72 184 72h150l129 391h-250l-20 119q63 72 184 71h149l177 527l135 -23q6 -10 11 -27.5t12 -73t-15 -106.5l-100 -297h299l176 527l135 -23q6 -10 11 -27.5t12.5 -73t-15.5 -106.5l-100 -297h252l20 -119q-61 -72 -184 -71h-152l-129 -391h248l20 -119 q-61 -72 -184 -72h-147l-195 -586l-135 23q-6 10 -11 27.5t-12.5 73t15.5 104.5l119 358h-299l-195 -586l-135 23q-6 10 -11.5 27.5t-12.5 73t16 104.5l118 358h-249zM598 367h299l129 391h-299z" />
<glyph unicode="$" horiz-adv-x="1107" d="M63 104q-4 63 12.5 156.5t43.5 147.5h194q33 -63 39 -170q72 -31 170 -31q92 0 153.5 45t61.5 129q0 39 -6 64.5t-37.5 55t-91.5 48.5l-211 61q-322 92 -321 410q0 164 105.5 270.5t279.5 130.5q-57 186 -49 355h245q6 -170 -47 -349q195 -10 381 -96q4 -63 -12 -156.5 t-43 -146.5h-195q-33 59 -41 162q-70 18 -147 18q-74 0 -120 -37.5t-46 -103.5q0 -72 35 -110.5t137 -67.5l182 -53q147 -43 234.5 -134.5t87.5 -267.5q0 -186 -121 -303t-309 -141q55 -176 49 -348h-246q-8 166 45 344q-258 14 -412 118z" />
<glyph unicode="%" horiz-adv-x="1732" d="M51 1038q0 199 102.5 299.5t268.5 100.5q172 0 266 -89t94 -296q0 -199 -103.5 -303.5t-270.5 -104.5q-357 0 -357 393zM301 1047q0 -133 26.5 -181.5t90.5 -48.5q66 0 90 45t24 178q0 135 -26.5 179.5t-92 44.5t-89 -41t-23.5 -176zM444 -10q-31 96 29 203l680 1282 l129 -45q30 -94 -29 -205l-680 -1280zM950 377q0 199 102.5 299t268.5 100q172 0 266 -89t94 -296q0 -199 -103 -303t-271 -104q-357 0 -357 393zM1200 385q0 -133 26.5 -181t90.5 -48q66 0 90.5 45t24.5 178q0 135 -27 179t-92.5 44t-89 -41t-23.5 -176z" />
<glyph unicode="&#x26;" horiz-adv-x="1210" d="M59 340q0 199 242 379q-154 199 -154 375q0 154 104.5 245t307.5 91q180 0 258 -93.5t78 -238.5q0 -109 -70.5 -191t-230.5 -200q94 -139 291 -291q59 61 90 170l184 -66q-35 -135 -123 -246q27 -25 86.5 -66.5t69.5 -49.5l-115 -174q-117 61 -207 137 q-190 -137 -403 -137q-176 0 -292 92t-116 264zM340 365q0 -90 61.5 -132.5t159.5 -42.5q107 1 156 62q-227 203 -297 305q-80 -80 -80 -192zM397 1085q0 -120 88 -241q188 127 189 241q0 162 -123 162q-154 0 -154 -162z" />
<glyph unicode="'" horiz-adv-x="368" d="M78 1225q4 313 80 440q29 47 88 52t107 -31.5t42 -96.5q-14 -143 -213 -403z" />
<glyph unicode="(" horiz-adv-x="583" d="M59 553q0 180 39 339t95.5 254t111.5 164.5t94 98.5l39 29l99 -86q-8 -12 -20.5 -35t-44.5 -101.5t-56.5 -164.5t-45 -221.5t-20.5 -274.5q0 -141 19.5 -279.5t48 -233.5t57.5 -170t48 -112l20 -36l-105 -80q-8 6 -21.5 18t-53 54t-75.5 91.5t-79 129t-75 166.5 t-53.5 206t-21.5 244z" />
<glyph unicode=")" horiz-adv-x="583" d="M41 -276q8 12 20.5 37.5t46 108.5t59.5 174t46 230.5t20 280.5q0 221 -47 421t-93 288l-46 88l98 86q16 -10 41 -29.5t90.5 -95.5t115.5 -168t91 -252t41 -340q0 -172 -39 -329.5t-94 -258t-111.5 -177.5t-95.5 -111l-39 -33z" />
<glyph unicode="*" horiz-adv-x="849" d="M57 1200l41 107q78 28 172 -27l64 -37v219l115 17q66 -53 65 -162v-74l186 109l74 -90q-16 -82 -108 -136l-64 -36l189 -107l-43 -109q-80 -29 -173 25l-61 35v-217l-115 -17q-66 55 -65 162v72l-189 -109l-71 90q16 84 108 138l64 37z" />
<glyph unicode="+" horiz-adv-x="1038" d="M49 580q63 72 184 71h177v342l143 21q72 -62 72 -185v-178h344l20 -127q-61 -72 -184 -71h-180v-342l-144 -21q-72 63 -71 184v179h-340z" />
<glyph unicode="," horiz-adv-x="499" d="M74 133q0 156 170 156q178 0 178 -156q0 -137 -69.5 -255t-168.5 -187l-86 53q76 127 66 252q-39 12 -64.5 50t-25.5 87z" />
<glyph unicode="-" d="M94 582q63 72 185 71h471l20 -131q-61 -71 -184 -71h-471z" />
<glyph unicode="." horiz-adv-x="491" d="M76 133q0 156 170 156q172 0 172 -156q0 -154 -172 -153q-170 -1 -170 153z" />
<glyph unicode="/" horiz-adv-x="845" d="M60.5 -286.5q-7.5 55.5 15.5 104.5l551 1657l135 -23q6 -10 11 -27.5t12.5 -73t-15.5 -106.5l-551 -1655l-135 23q-6 10 -11 27.5t-12.5 73z" />
<glyph unicode="0" horiz-adv-x="1179" d="M84 702q0 379 124 553.5t394 174.5q276 0 386 -154t110 -547q0 -381 -126 -563t-399 -182q-270 0 -379.5 161.5t-109.5 556.5zM391 721q0 -297 41 -422t158 -125q51 0 87 20.5t58.5 58.5t34.5 106.5t16.5 147.5t4.5 200q0 295 -41 413.5t-164 118.5q-121 0 -158 -110.5 t-37 -407.5z" />
<glyph unicode="1" horiz-adv-x="710" d="M57 1188v155q224 99 478 70v-2l2 2v-1175q82 -33 112 -68l-20 -170h-533l-20 170q37 45 166 78v897q-115 12 -185 43z" />
<glyph unicode="2" horiz-adv-x="1112" d="M45 254l510 553q143 156 143 299q0 74 -36.5 108.5t-120.5 34.5q-104 1 -172 -26q-18 -152 -47 -199l-183 10q-39 68 -43 228q0 35 2 49q184 119 465 119q442 0 443 -359q0 -78 -39 -165t-93 -150l-296 -357q-31 -35 -79 -81t-81 -73l-33 -28l10 -22q94 18 201 18h162 q14 113 51 176l195 -12q31 -53 41 -172t-11 -205h-940z" />
<glyph unicode="3" horiz-adv-x="1048" d="M49 59l47 177q137 -51 260 -52q301 0 301 217q0 246 -239 246q-96 0 -182 -8l-19 172l182 16q231 23 232 224q0 104 -49.5 151t-147.5 47q-37 0 -74 -6q-14 -113 -51 -172l-182 10q-49 78 -45 267q0 2 1 7t1 9q51 25 172 45.5t211 20.5q88 0 161.5 -16.5t143.5 -54.5 t110 -113t40 -179q0 -82 -55.5 -163t-131.5 -122v-18q242 -86 242 -320q0 -231 -164 -345.5t-424 -114.5q-82 0 -183.5 23.5t-156.5 51.5z" />
<glyph unicode="4" horiz-adv-x="1140" d="M12 535l437 927l208 -90l-264 -622q-41 -98 -108 -175l10 -22q70 25 176 25h186v292q0 260 70 371l213 -22v-641h152v-205h-152v-142q80 -31 113 -69l-21 -162h-520l-20 162q39 47 165 80v131h-591z" />
<glyph unicode="5" horiz-adv-x="1021" d="M57 66l66 178q117 -45 248 -45q139 0 206.5 55t67.5 178q0 84 -20.5 139.5t-57.5 81t-70.5 33.5t-78.5 8q-84 0 -221 -20l-82 151h-2v588h755v-233h-499v-287q66 12 170 12q201 0 314.5 -107.5t113.5 -320.5q0 -252 -148.5 -372.5t-415.5 -120.5q-84 0 -187 24.5 t-159 57.5z" />
<glyph unicode="6" horiz-adv-x="1073" d="M74 547q0 311 167 558t443 333l86 -170q-299 -129 -375 -447q96 51 217 51q203 0 313.5 -109.5t110.5 -318.5q0 -219 -139 -339.5t-373 -120.5q-242 0 -346 138t-104 425zM369 559q0 -199 41 -291t129 -92q203 0 202 256q0 121 -35.5 181.5t-119.5 60.5q-125 -1 -217 -60 v-55z" />
<glyph unicode="7" horiz-adv-x="1028" d="M37 1212q-10 115 10 201h942l27 -162l-522 -1251h-310l404 965q18 43 50 103t54 98l23 38l-10 23q-94 -18 -201 -19h-180q-14 -113 -52 -176l-194 12q-31 53 -41 168z" />
<glyph unicode="8" horiz-adv-x="1138" d="M70 393q0 111 57 204t156 153q-74 66 -110 133.5t-36 173.5q0 180 116 276.5t327 96.5q213 0 317 -85t104 -266q0 -80 -45 -165t-108 -142q111 -74 166 -148.5t55 -199.5q0 -205 -136 -322.5t-378 -117.5q-244 0 -364.5 100t-120.5 309zM369 418q0 -227 200.5 -227.5 t200.5 192.5q0 53 -20.5 95t-57.5 69.5t-69.5 45t-79.5 36t-64 26.5q-110 -94 -110 -237zM395 1090q0 -45 15.5 -79t48.5 -57.5t57.5 -37t70.5 -31t62 -25.5q94 94 94 201q0 100 -45 142t-133 42q-82 0 -126 -40.5t-44 -114.5z" />
<glyph unicode="9" horiz-adv-x="1060" d="M35 997q0 209 126 322t355 113q223 0 348 -155t125 -429q0 -295 -168 -534.5t-434 -338.5l-94 170q285 133 373 467q-68 -35 -181 -34q-188 0 -319 109.5t-131 309.5zM330 1010q0 -113 52 -173.5t130 -60.5q121 0 180 37q2 14 2 41q0 209 -49 297t-143 88t-133 -55.5 t-39 -173.5z" />
<glyph unicode=":" horiz-adv-x="522" d="M98 295q0 154 162 154q164 0 164 -154q0 -152 -164 -152q-162 0 -162 152zM98 758q0 154 162 153q164 0 164 -153q0 -152 -164 -152q-162 0 -162 152z" />
<glyph unicode=";" horiz-adv-x="555" d="M109 236q0 150 161 149q170 0 170 -149q0 -129 -65.5 -243t-159.5 -179l-84 51q74 117 64 239q-37 12 -61.5 48.5t-24.5 83.5zM111 752q0 154 161 153q164 0 164 -153q0 -152 -164 -152q-161 0 -161 152z" />
<glyph unicode="&#x3c;" horiz-adv-x="798" d="M47 694q90 158 277.5 339t304.5 233l90 -76q-86 -221 -330 -496q248 -282 330 -493l-90 -78q-117 51 -304.5 232.5t-277.5 338.5z" />
<glyph unicode="=" horiz-adv-x="1153" d="M106 348q63 72 185 72h735l21 -127q-62 -72 -185 -72h-735zM106 752q63 72 185 71h735l21 -127q-62 -71 -185 -71h-735z" />
<glyph unicode="&#x3e;" horiz-adv-x="800" d="M82 201q76 201 328 493q-248 285 -328 496l90 76q117 -51 304.5 -232.5t277.5 -339.5q-90 -158 -277.5 -339t-304.5 -232z" />
<glyph unicode="?" horiz-adv-x="1085" d="M53 1305q88 59 216 92t247 33q227 0 372.5 -103.5t145.5 -296.5q0 -84 -35.5 -154.5t-88 -114.5t-113 -89t-111.5 -81t-81.5 -87.5t-24.5 -108.5h-238q-35 113 -11.5 180.5t86 130t129 105.5t118 106.5t51.5 135.5q0 154 -209 153q-86 0 -164 -32q-6 -106 -39 -170h-194 q-27 53 -43.5 145t-12.5 156zM285 137q0 156 170 156q172 0 172 -156q0 -154 -172 -153q-170 -1 -170 153z" />
<glyph unicode="@" horiz-adv-x="1918" d="M74 371q0 528 259 793.5t736 265.5q401 0 599 -179.5t198 -552.5q0 -287 -141.5 -476t-399.5 -189q-109 0 -175.5 40t-80.5 91q-47 -37 -116.5 -61.5t-118.5 -24.5q-156 0 -230 79t-74 255q0 154 41 267.5t107.5 171.5t135.5 85t140 27q119 0 193 -64q31 51 100 51h111 l-64 -655q-6 -78 76 -78q281 0 281 436q0 170 -48.5 294t-136.5 192.5t-194.5 100.5t-237.5 32q-119 0 -222 -23.5t-201.5 -83t-168 -153.5t-111.5 -247t-42 -351q0 -328 168 -474.5t440 -146.5q227 0 420 68l35 -142q-221 -102 -488 -102q-791 0 -790 754zM776 434 q0 -96 30 -138t89 -42q92 0 164 65l41 441q-63 29 -135 28q-188 0 -189 -354z" />
<glyph unicode="A" horiz-adv-x="1320" d="M-12 170q37 47 137 78l393 1175h281l407 -1181q86 -31 121 -72l-20 -170h-480l-20 170q25 33 98 61l-55 172h-410l-51 -165q72 -29 107 -68l-21 -170h-467zM498 592h293l-78 250q-53 169 -56 295h-28q0 -125 -51 -291z" />
<glyph unicode="B" horiz-adv-x="1263" d="M66 170q27 35 112 68v936q-84 31 -112 69l20 170h465q125 0 210 -7t168 -29.5t130 -63.5t75.5 -109.5t28.5 -167.5q0 -139 -149 -264q190 -96 190 -358q0 -205 -134 -304.5t-400 -109.5h-584zM473 223h141q139 0 211 41t72 158q0 96 -56.5 143t-185.5 47h-182v-389z M473 836h168q104 0 159.5 53t55.5 131q0 76 -39 115t-90 47t-147 8h-107v-354z" />
<glyph unicode="C" horiz-adv-x="1167" d="M61 702q0 367 161 547.5t452 180.5q233 0 444 -130q1 -13 1 -26q0 -54 -13 -130q-16 -94 -43 -147h-195q-29 55 -41 174q-61 27 -170 27q-137 0 -212.5 -106.5t-75.5 -370.5q0 -268 72.5 -380t215.5 -112q219 0 394 66l73 -182q-217 -129 -516 -129q-287 0 -417 165.5 t-130 552.5z" />
<glyph unicode="D" horiz-adv-x="1316" d="M66 170q27 35 112 68v936q-84 31 -112 69l20 170h457q330 0 523.5 -184.5t193.5 -542.5q0 -356 -175.5 -521t-476.5 -165h-522zM473 223h148q154 0 242.5 93.5t88.5 347.5q0 283 -100 404.5t-287 121.5h-92v-967z" />
<glyph unicode="E" horiz-adv-x="1103" d="M66 170q27 35 112 68v936q-84 31 -112 69l20 170h934v-356l-152 -19q-47 41 -75 152h-320v-352h285q25 61 51 86l129 -15v-364l-129 -17q-27 20 -51 86h-285v-391h336q27 106 76 152l151 -19v-356h-950z" />
<glyph unicode="F" horiz-adv-x="1071" d="M66 170q27 35 112 68v936q-84 31 -112 69l20 170h934v-356l-152 -19q-47 41 -75 152h-320v-373h285q25 61 51 86l129 -14v-365l-129 -16q-27 20 -51 86h-285v-340q137 -31 199 -84l-21 -170h-565z" />
<glyph unicode="G" horiz-adv-x="1269" d="M61 702q0 367 163 547.5t454 180.5q276 0 457 -130q1 -12 1 -26q0 -55 -14 -130q-16 -93 -43 -147h-188q-31 57 -41 170q-88 31 -188 31q-139 0 -216 -106.5t-77 -370.5q0 -506 278 -506q111 0 197 35v231q-94 31 -129 76l20 162h479l21 -162q-27 -33 -96 -63v-379 q-98 -72 -216 -101.5t-294 -29.5q-293 0 -430.5 166.5t-137.5 551.5z" />
<glyph unicode="H" horiz-adv-x="1396" d="M66 170q27 35 112 68v936q-84 31 -112 69l20 170h479l21 -170q-33 -39 -113 -69v-322h451v322q-84 31 -113 69l20 170h480l20 -170q-33 -39 -112 -69v-936q82 -33 112 -68l-20 -170h-480l-20 170q27 35 113 68v409h-451v-409q82 -33 113 -68l-21 -170h-479z" />
<glyph unicode="I" horiz-adv-x="651" d="M66 170q27 35 112 68v936q-84 31 -112 69l20 170h479l21 -170q-33 -39 -113 -69v-936q82 -33 113 -68l-21 -170h-479z" />
<glyph unicode="J" horiz-adv-x="614" d="M-283 -319q-1 12 -1 25q0 51 12 115q16 81 41 130h184q29 -45 41 -154q10 -2 31 -2q74 0 104.5 38t30.5 149v1192q-84 31 -113 69l21 170h479l20 -170q-33 -39 -112 -69l-2 -1174q0 -236 -91.5 -331t-302.5 -95q-197 0 -342 107z" />
<glyph unicode="K" horiz-adv-x="1284" d="M66 170q27 35 112 68v936q-84 31 -112 69l20 170h479l21 -170q-33 -39 -113 -69v-936q82 -33 113 -68l-21 -170h-479zM485 737l342 455q-57 27 -79 55l20 166h467l20 -166q-29 -33 -106 -65l-354 -437l323 -487q133 -29 182 -88l-20 -170h-340z" />
<glyph unicode="L" horiz-adv-x="1028" d="M66 170q27 35 112 68v936q-84 31 -112 69l20 170h479l21 -170q-33 -39 -113 -69v-951h324q27 106 75 152l152 -19v-356h-938z" />
<glyph unicode="M" horiz-adv-x="1857" d="M61 1255l21 158h467l299 -825q67 -161 80 -283h28q8 125 74 283l285 825h459l20 -158q-33 -45 -117 -75v-938q80 -31 113 -72l-21 -170h-466l-21 168q33 41 113 72v532q0 53 5 129t9 125l4 49l-20 2q-47 -174 -82 -276l-273 -801h-272l-287 801q-41 100 -82 276l-20 -2 q18 -182 18 -303v-539q76 -29 113 -75l-21 -158h-401l-20 158q37 47 112 75v947q-84 31 -117 75z" />
<glyph unicode="N" horiz-adv-x="1384" d="M61 1255l21 158h422l407 -795q23 -43 48.5 -112.5t39.5 -117.5l15 -48l22 8q-28 172 -28 291v8v531q-74 29 -113 77l20 158h402l20 -158q-39 -49 -112 -77v-1178h-322l-411 801q-23 43 -48.5 112.5t-40.5 117.5l-14 48l-22 -8q28 -178 28 -299v-539q76 -29 113 -75 l-21 -158h-401l-20 158q37 47 112 75v947q-84 31 -117 75z" />
<glyph unicode="O" horiz-adv-x="1316" d="M61 702q0 369 159 548.5t450 179.5q297 0 441 -160t144 -541q0 -369 -161.5 -557t-452.5 -188t-435.5 167.5t-144.5 550.5zM369 721q0 -264 77.5 -385t210.5 -121q139 0 215 113.5t76 378.5q0 491 -294 491h-1q-137 0 -210.5 -106.5t-73.5 -370.5z" />
<glyph unicode="P" horiz-adv-x="1241" d="M66 170q27 35 112 68v936q-84 31 -112 69l20 170h543q285 -4 425 -103.5t140 -353.5q0 -464 -629 -464h-92v-242q150 -33 186 -80l-20 -170h-553zM473 715h137q139 0 208 55t69 191q0 137 -75 183t-216 46h-123v-475z" />
<glyph unicode="Q" horiz-adv-x="1316" d="M61 702q0 369 159 548.5t450 179.5q297 0 441 -160t144 -541q0 -317 -120.5 -501.5t-341.5 -229.5q102 -133 342 -172l-21 -186h-18q-212 0 -383 91q-178 95 -221 265q-215 37 -323 206.5t-108 499.5zM369 721q0 -264 77.5 -385t210.5 -121q139 0 215 113.5t76 378.5 q0 491 -294 491h-1q-137 0 -210.5 -106.5t-73.5 -370.5z" />
<glyph unicode="R" horiz-adv-x="1286" d="M66 170q27 35 112 68v936q-84 31 -112 69l20 170h522q287 -4 426.5 -92t139.5 -322q0 -139 -87.5 -233t-218.5 -143q102 -43 136 -105l149 -285q96 -33 131 -75l-20 -158h-346l-236 502q-33 76 -76 76h-133v-328q150 -33 186 -80l-20 -170h-553zM473 801h117 q139 0 207.5 42t68.5 148q0 111 -69.5 155t-202.5 44h-121v-389z" />
<glyph unicode="S" horiz-adv-x="1101" d="M66 104q-1 13 -1 26q0 54 13 130q16 94 43 148h194q33 -63 39 -170q72 -31 170 -31q92 0 153.5 45t61.5 129q0 39 -6 64.5t-37.5 55t-91.5 48.5l-211 61q-321 92 -321 408q0 188 135 300t348 112q223 0 432 -99q1 -13 1 -26q0 -55 -13 -131q-16 -94 -43 -146h-195 q-35 49 -41 162q-70 18 -147 18q-74 0 -120 -37.5t-46 -103.5q0 -72 35 -110.5t137 -67.5l182 -53q147 -43 234.5 -134.5t87.5 -267.5q0 -209 -150.5 -329.5t-373.5 -120.5q-123 0 -253 31.5t-216 88.5z" />
<glyph unicode="T" horiz-adv-x="1179" d="M16 1118v293h1147v-293l-129 -16q-27 20 -51 86h-246v-950q82 -33 113 -68l-21 -170h-479l-20 170q27 35 112 68v950h-245q-25 -66 -52 -86z" />
<glyph unicode="U" horiz-adv-x="1298" d="M33 1243l20 170h479l21 -170q-33 -39 -113 -69v-670q0 -147 48.5 -218t175.5 -71q123 0 174 72.5t51 216.5v670q-84 31 -113 69l21 170h448l21 -170q-33 -39 -113 -69v-662q0 -268 -122 -398t-392 -130q-274 0 -384 128t-110 400v662q-78 29 -112 69z" />
<glyph unicode="V" horiz-adv-x="1290" d="M0 1243l20 170h480l20 -170q-29 -39 -104 -65l174 -607q49 -169 55 -295h29q2 125 51 291l182 609q-78 27 -108 67l20 170h467l21 -170q-37 -45 -138 -78l-385 -1175h-280l-389 1184q-88 33 -115 69z" />
<glyph unicode="W" horiz-adv-x="2004" d="M6 1243l21 170h473l20 -170q-35 -41 -110 -67l145 -605q41 -171 55 -295h29q2 121 39 291l184 832h314l184 -828q16 -76 28.5 -150.5t16.5 -110.5l4 -36h29q4 125 49 293l162 600q-86 31 -119 76l20 170h453l20 -170q-39 -49 -137 -80l-344 -1173h-321l-166 774 q-37 174 -47 313h-29q-8 -141 -45 -311l-172 -776h-316l-327 1184q-84 31 -113 69z" />
<glyph unicode="X" horiz-adv-x="1220" d="M2 170q37 45 137 78l279 489l-266 432q-96 33 -127 74l20 170h479l21 -170q-27 -33 -82 -55l82 -154q61 -114 73 -168h31q12 49 74 164l78 148q-72 31 -101 65l21 170h467l20 -170q-37 -45 -137 -78l-266 -430l276 -493q90 -31 125 -72l-20 -170h-479l-21 170 q25 29 86 57l-94 201q-25 51 -43.5 98t-24.5 70l-6 22h-31q-18 -70 -73 -186l-92 -196q74 -33 102 -66l-21 -170h-466z" />
<glyph unicode="Y" horiz-adv-x="1204" d="M-8 1243l18 160v2l2 8h480l20 -170q-25 -35 -94 -61l69 -158q33 -74 62 -150.5t42 -117.5l13 -41h31q43 150 113 309l65 150q-82 33 -111 69l21 170h467l20 -170q-41 -47 -135 -78l-323 -692v-235q82 -33 112 -68l-20 -170h-479l-21 170q27 35 113 68v235l-334 694 q-96 33 -131 76z" />
<glyph unicode="Z" horiz-adv-x="1167" d="M31 162l594 891q27 41 60.5 78.5t54.5 55.5l22 17l-10 23q-94 -18 -201 -19h-191q-14 -113 -51 -176l-194 12q-31 53 -41 168q-4 38 -4 73q0 70 14 128h997l21 -162l-594 -891q-27 -41 -60.5 -78.5t-55.5 -55.5l-21 -17l10 -23q94 18 201 19h249q14 113 52 176l194 -12 q31 -53 41 -168q3 -38 3 -73q0 -70 -13 -128h-1057z" />
<glyph unicode="[" horiz-adv-x="669" d="M137 -410v1885h492l20 -105q-69 -72 -192 -72h-113v-1531h113q55 0 103 -18.5t69 -36.5l20 -17l-20 -105h-492z" />
<glyph unicode="\" horiz-adv-x="913" d="M57 1411l123 62q10 -4 26.5 -14.5t51.5 -52.5t51 -93l547 -1657l-121 -64q-10 4 -26.5 15.5t-51 52.5t-51.5 92z" />
<glyph unicode="]" horiz-adv-x="669" d="M20 -305q70 72 193 72h113v1531h-113q-55 0 -103.5 18.5t-68.5 36.5l-21 17l21 105h491v-1885h-491z" />
<glyph unicode="^" horiz-adv-x="1073" d="M195 1237q27 92 138 258t204 219q92 -53 203.5 -219t138.5 -258l-88 -72q-145 96 -254 258q-109 -162 -254 -258z" />
<glyph unicode="_" horiz-adv-x="1296" d="M190 -133q63 72 185 72h712l21 -123q-61 -72 -184 -72h-713z" />
<glyph unicode="`" horiz-adv-x="1705" d="M272 1499l213 131q59 -59 117 -185t70 -216l-111 -64q-84 53 -172 152.5t-117 181.5z" />
<glyph unicode="a" horiz-adv-x="1048" d="M43 285q0 133 91 211.5t272 78.5h223v99q0 160 -170 160q-63 0 -105 -13q-4 -86 -24 -133h-201q-36 71 -36 186q0 31 3 64q190 102 434 102q195 0 290 -83t95 -275v-436q72 -14 113 -35v-178q-104 -49 -299 -49q-20 53 -35 129q-88 -129 -319 -129q-137 0 -234.5 79.5 t-97.5 221.5zM338 309q0 -51 32 -83.5t93 -32.5q104 0 166 61v168h-144q-147 0 -147 -113z" />
<glyph unicode="b" horiz-adv-x="1099" d="M-10 1296l20 158q116 27 251 27q62 0 128 -6v-512q43 31 114.5 54t137.5 23q223 0 313 -114.5t90 -390.5q0 -154 -41.5 -265.5t-112.5 -171t-151 -87t-170 -27.5q-139 0 -274 69q-39 -53 -90 -53h-103v1227q-71 24 -112 69zM389 227q86 -34 160 -34h4q197 0 197 329 q0 174 -34 236.5t-118 62.5h-4q-125 0 -205 -67v-527z" />
<glyph unicode="c" horiz-adv-x="921" d="M51 496q0 150 41 259t112.5 169.5t153.5 88t177 27.5q201 0 331 -73q1 -19 1 -38q0 -116 -52 -222h-180q-29 51 -35 122q-25 2 -65 2q-188 0 -189 -323q0 -164 52.5 -228.5t150.5 -64.5q156 0 274 29l62 -158q-66 -43 -176.5 -72.5t-214.5 -29.5q-442 0 -443 512z" />
<glyph unicode="d" horiz-adv-x="1136" d="M53 496q0 154 40 264t110.5 168.5t151.5 85t177 26.5q86 0 173 -20v203q-95 26 -140 73l21 158q118 28 261 28q69 0 144 -7v-1229q61 -8 113 -35v-162q-121 -65 -305 -65h-6q-20 10 -40 36.5t-22 51.5q-45 -37 -116.5 -62.5t-141.5 -25.5q-221 0 -320.5 119.5 t-99.5 392.5zM348 508q0 -172 41 -243.5t127 -71.5q117 0 189 69v549q-84 20 -168 20q-104 0 -146.5 -82.5t-42.5 -240.5z" />
<glyph unicode="e" horiz-adv-x="989" d="M51 496q0 152 43 261t117 168.5t157 87t179 27.5q188 0 289.5 -97t101.5 -349q0 -147 -145 -148h-445q8 -129 66.5 -182t185.5 -53q153 0 254 65l61 -163q-12 -14 -35.5 -36t-118.5 -57.5t-216 -35.5q-246 0 -370 131t-124 381zM350 616l324 13q5 27 5 51q0 58 -28 97 q-39 54 -121 54q-80 0 -122.5 -49t-57.5 -166z" />
<glyph unicode="f" horiz-adv-x="782" d="M53 158q29 39 113 69v590h-90l-23 141q45 41 113 48v57q0 213 92 320.5t303 107.5q190 0 338 -109q3 -14 3 -31q0 -38 -12 -89q-18 -76 -42 -115h-172q-37 70 -39 131q-25 4 -41 4q-78 0 -110.5 -43t-32.5 -156v-77h313v-189h-313v-579q154 -31 209 -80l-21 -158h-567z " />
<glyph unicode="g" horiz-adv-x="1095" d="M55 518q0 522 480 522q123 0 229 -53q20 37 61 37h168v-1008q0 -225 -111.5 -333.5t-344.5 -108.5q-123 0 -254 28.5t-199 71.5q-1 18 -1 37q0 111 52 217h180q23 -43 33 -114q78 -31 176 -31q182 0 183 219v90q-100 -61 -252 -61q-193 0 -296.5 112.5t-103.5 374.5z M338 530q0 -154 42 -215t130 -61q115 0 197 57v486q-80 34 -163 34h-5q-106 0 -153.5 -74.5t-47.5 -226.5z" />
<glyph unicode="h" horiz-adv-x="1193" d="M29 158q29 39 112 69v1000q-71 24 -112 69l20 158q116 27 251 27q62 0 128 -6v-512q49 33 131 55t146 22q203 0 280.5 -98t77.5 -299v-416q80 -31 113 -69l-21 -158h-471l-20 158q29 39 112 69v406q0 111 -35.5 148.5t-117.5 37.5q-106 0 -195 -65v-527q80 -31 113 -69 l-21 -158h-471z" />
<glyph unicode="i" horiz-adv-x="598" d="M57 158q29 39 113 69v570q-72 24 -113 69l21 158q114 26 246 26q64 0 133 -6v-817q80 -31 112 -69l-20 -158h-471zM139 1319q0 156 170 156q172 0 172 -156q0 -154 -172 -154q-170 0 -170 154z" />
<glyph unicode="j" horiz-adv-x="532" d="M-74 -416l25 201q14 -2 57 -2q72 0 103.5 43t31.5 156v815q-71 24 -112 69l20 158q114 26 246 26q65 0 133 -6v-1044q0 -238 -89 -332t-298 -94q-61 0 -117 10zM113 1319q0 156 170 156q172 0 172 -156q0 -154 -172 -154q-170 0 -170 154z" />
<glyph unicode="k" horiz-adv-x="1161" d="M29 158q29 39 112 69v1000q-71 24 -112 69l20 158q116 27 251 27q62 0 128 -6v-1248q80 -31 113 -69l-21 -158h-471zM446 530l226 293q-35 20 -49 43l20 158h451l20 -158q-45 -57 -170 -90l-196 -225l231 -305q127 -29 178 -88l-20 -158h-328z" />
<glyph unicode="l" horiz-adv-x="571" d="M29 158q29 39 112 69v1000q-71 24 -112 69l20 158q116 27 251 27q62 0 128 -6v-1248q80 -31 113 -69l-21 -158h-471z" />
<glyph unicode="m" horiz-adv-x="1794" d="M53 158q29 39 113 69v570q-72 24 -113 69l21 158q111 25 235 25q57 0 117 -5v-102q49 41 123 69.5t133 28.5q233 0 311 -116q51 49 135 82.5t156 33.5q225 0 303 -101t78 -380v-332q80 -31 113 -69l-21 -158h-471l-20 158q29 39 112 69v406q0 113 -30.5 149.5 t-110.5 36.5q-102 0 -184 -67q10 -70 10 -193v-332q80 -31 113 -69l-21 -158h-471l-20 158q29 39 112 69v406q0 113 -30.5 149.5t-110.5 36.5q-100 0 -182 -65v-527q80 -31 112 -69l-20 -158h-471z" />
<glyph unicode="n" horiz-adv-x="1218" d="M53 158q29 39 113 69v570q-72 24 -113 69l21 158q111 25 235 25q57 0 117 -5v-102q51 43 136 70.5t163 27.5q201 0 281.5 -94t80.5 -325v-394q80 -31 113 -69l-20 -158h-471l-21 158q29 39 113 69v406q0 111 -36 148.5t-118 37.5q-102 0 -194 -65v-527q80 -31 112 -69 l-20 -158h-471z" />
<glyph unicode="o" horiz-adv-x="1085" d="M51 508q0 256 130 394t372 138q246 0 363.5 -122.5t117.5 -389.5q0 -256 -132 -400t-374 -144q-244 0 -360.5 129t-116.5 395zM346 520q0 -327 196 -327h1q100 0 148 74.5t48 244.5q0 319 -200 319q-98 0 -145.5 -70.5t-47.5 -240.5z" />
<glyph unicode="p" horiz-adv-x="1138" d="M31 -252q27 37 112 70v979q-71 24 -112 69l20 158q111 25 235 25q57 0 117 -5v-100q137 96 293 96q205 0 297 -116.5t92 -388.5q0 -145 -43 -256t-115.5 -173.5t-157.5 -92t-179 -29.5q-84 0 -160 16v-176q121 -33 156 -76l-21 -158h-514zM430 209q63 -16 139 -16 q102 0 162 91t60 238q0 174 -33 233.5t-119 59.5q-131 0 -209 -61v-545z" />
<glyph unicode="q" horiz-adv-x="1093" d="M53 496q0 154 40 264t110.5 168.5t151.5 85t177 26.5q113 0 218 -47q45 31 86 31h155v-1217q59 -27 86 -59l-20 -158h-475l-21 158q39 49 144 80v231q-114 -75 -221 -75h-3q-227 0 -327.5 118.5t-100.5 393.5zM348 508q0 -172 41 -243.5t127 -71.5q106 0 189 77v527 q-80 34 -163 34h-5q-104 0 -146.5 -82.5t-42.5 -240.5z" />
<glyph unicode="r" horiz-adv-x="794" d="M53 158q29 39 113 69v570q-72 25 -113 69l21 158q111 25 235 25q57 0 117 -5v-129q47 55 121 91t147 36q47 0 70 -10l-6 -266q-41 6 -90 6q-156 0 -215 -59v-469q166 -31 227 -86l-21 -158h-585z" />
<glyph unicode="s" horiz-adv-x="923" d="M63 729q0 139 109 225t295 86q217 0 356 -59q2 -21 2 -41q0 -108 -45 -197h-168q-27 47 -34 99q-57 14 -115 14q-135 0 -135 -80q0 -76 141 -112l162 -43q250 -66 250 -289q0 -154 -107.5 -251t-329.5 -97q-248 0 -378 65q-2 22 -2 43q0 113 45 205h170q27 -49 34 -102 q41 -12 117 -13q180 0 180 103q0 33 -24.5 54t-96.5 42l-161 47q-125 35 -195 103.5t-70 197.5z" />
<glyph unicode="t" horiz-adv-x="761" d="M25 977q33 39 135 78q25 168 116 227h150v-258h293v-172h-293v-518q0 -66 18.5 -95.5t71.5 -29.5q86 0 166 31l61 -160q-158 -80 -344 -80q-143 0 -201.5 70.5t-58.5 205.5v576h-92z" />
<glyph unicode="u" horiz-adv-x="1204" d="M20 866l21 158q114 26 246 26q64 0 133 -6v-653q0 -111 33.5 -146.5t113.5 -35.5q121 0 207 65v523q-72 25 -112 69l20 158q114 26 246 26q64 0 133 -6v-798q72 -15 113 -35v-162q-121 -65 -304 -65h-6q-51 37 -55 102q-141 -102 -340 -102q-184 0 -260 79.5t-76 260.5 v473q-72 25 -113 69z" />
<glyph unicode="v" horiz-adv-x="1200" d="M14 866l21 158h471l20 -158q-27 -33 -88 -59l111 -309q18 -49 32.5 -104.5t19.5 -85.5l5 -29h29q16 102 57 215l109 303q-76 29 -107 69l21 158h450l21 -158q-37 -47 -135 -80l-338 -798h-226l-335 798q-102 33 -138 80z" />
<glyph unicode="w" horiz-adv-x="1667" d="M2 866l21 158h479l20 -158q-37 -43 -125 -73l15 -60l104 -463h29q23 109 53 224l139 526h230l137 -522l51 -228h29q76 346 102 465l12 58q-92 33 -122 73l20 158h455l20 -158q-35 -47 -129 -78l-256 -800h-266l-105 323q-16 49 -30.5 123t-20.5 123l-6 49h-29 q-20 -160 -61 -293l-96 -325h-291l-258 805q-88 31 -121 73z" />
<glyph unicode="x" horiz-adv-x="1134" d="M27 158q39 51 153 84l195 284l-180 252q-123 33 -166 88l20 158h471l21 -158q-29 -33 -70 -51l43 -61q23 -33 37 -66t18 -49l4 -16h29q14 55 60 127l36 57q-59 27 -84 59l21 158h450l21 -158q-41 -55 -166 -88l-180 -252l192 -284q113 -31 156 -84l-21 -158h-471l-20 158 q20 27 76 53l-51 84q-41 67 -60 141h-29q-18 -72 -59 -137l-49 -78q70 -31 94 -63l-20 -158h-451z" />
<glyph unicode="y" horiz-adv-x="1163" d="M-4 866l20 158h471l21 -158q-27 -33 -90 -59l112 -309q18 -49 33 -104.5t20 -85.5l5 -29h28q16 102 58 215l108 303q-76 29 -106 69l20 158h451l20 -158q-37 -47 -135 -80l-338 -798q-97 -227 -147 -294q-90 -120 -246 -120q-166 0 -250 84q-2 21 -2 41q0 112 47 213h170 q31 -55 35 -150h29q37 0 79 69t58 163l-336 794q-100 33 -135 78z" />
<glyph unicode="z" horiz-adv-x="980" d="M43 168l401 516q65 85 121 127l-10 23q-59 -18 -166 -19h-80q-30 -69 -65 -102l-158 20q-23 100 -23 211q0 39 3 80h829l20 -172l-399 -510q-65 -85 -121 -127l11 -22q59 18 165 18h113q31 74 68 108l157 -20q23 -104 23 -221q0 -38 -2 -78h-867z" />
<glyph unicode="{" horiz-adv-x="880" d="M4 432v199q152 0 238 54t86 163q0 49 -18.5 160.5t-18.5 162.5q0 154 84 237t205 83q178 0 268 -57l-21 -164q-59 -25 -161 -25q-78 0 -78 -155q0 -55 14 -140.5t14 -126.5q0 -123 -68.5 -195.5t-160.5 -86.5v-17q92 -14 160.5 -88t68.5 -196q0 -41 -14 -126t-14 -141 q0 -156 78 -155q102 0 161 -25l21 -164q-90 -57 -268 -57q-121 0 -205 83t-84 236q0 51 18.5 163t18.5 161q0 109 -86 163t-238 54z" />
<glyph unicode="|" horiz-adv-x="473" d="M133 -217v1671l135 21q72 -70 72 -193v-1671l-135 -21q-72 72 -72 193z" />
<glyph unicode="}" horiz-adv-x="880" d="M33 -371l20 164q59 25 162 25q78 0 78 155q0 55 -14.5 140.5t-14.5 126.5q0 123 68.5 196.5t161.5 87.5v17q-92 14 -161 86.5t-69 195.5q0 41 14.5 126t14.5 141q0 156 -78 155q-102 0 -162 25l-20 164q90 57 268 57q121 0 205 -83t84 -237q0 -51 -18.5 -162.5 t-18.5 -160.5q0 -109 86 -163t238 -54v-199q-152 0 -238 -54t-86 -163q0 -49 18.5 -160.5t18.5 -163.5q0 -154 -84 -236.5t-205 -82.5q-178 0 -268 57z" />
<glyph unicode="~" horiz-adv-x="1232" d="M61 571q4 6 13.5 16.5t41 37t65.5 47t89.5 37t112.5 16.5q86 0 207 -46t215 -46q66 0 134.5 19.5t102.5 39.5l35 21l97 -138q-16 -18 -47 -44.5t-129.5 -71.5t-200.5 -45q-76 0 -201 46t-203 46q-124 0 -241 -70z" />
<glyph unicode="&#xa2;" horiz-adv-x="940" d="M53 496q0 254 105.5 382t273.5 154q-57 188 -49 357h246q6 -174 -49 -351q168 -6 288 -71q10 -137 -51 -260h-180q-29 51 -35 122q-25 2 -65 2q-104 0 -146.5 -82.5t-42.5 -240.5q0 -168 51.5 -236.5t149.5 -68.5q145 0 272 41l66 -158q-106 -68 -281 -94 q55 -178 49 -354h-245q-10 170 47 348q-219 8 -311.5 125.5t-92.5 384.5z" />
<glyph unicode="&#xa3;" horiz-adv-x="1101" d="M74 170q27 35 112 68v432h-90l-20 131q39 43 110 61v84q0 150 40 250t115 148.5t151.5 67t177.5 18.5q201 0 331 -74q10 -137 -51 -260h-180q-29 51 -35 123q-25 2 -65 2q-104 0 -146.5 -58.5t-42.5 -204.5v-86h250l21 -131q-62 -71 -185 -71h-86v-447h324q27 106 76 152 l151 -19v-356h-938z" />
<glyph unicode="&#xa5;" horiz-adv-x="1275" d="M51 1243l21 170h313l156 -332q75 -163 100 -268h31q20 113 98 268l156 332h278l21 -170q-37 -49 -148 -82l-198 -389h208l21 -106q-61 -72 -184 -72h-136v-98h299l21 -107q-61 -72 -184 -72h-136v-79q82 -33 113 -68l-20 -170h-480l-20 170q27 35 113 68v79h-299l-21 107 q63 72 184 72h136v98h-299l-21 106q63 72 184 72h41l-204 391q-104 31 -144 80z" />
<glyph unicode="&#xa9;" horiz-adv-x="1568" d="M76 707q0 362 184 542.5t536.5 180.5t524.5 -172.5t172 -530.5q0 -365 -186.5 -554t-538.5 -189q-692 0 -692 723zM289 719q0 -293 138 -424t355 -131q498 0 498 547q0 539 -500 538q-106 0 -190 -24.5t-154.5 -81t-108.5 -163.5t-38 -261zM418 702q0 207 101.5 307.5 t283.5 100.5q145 0 287 -76q2 -37 -9.5 -91t-27.5 -87h-148q-25 35 -28 96q-35 16 -84 17q-150 0 -150 -256q0 -143 37 -202.5t113 -59.5q129 0 249 41l52 -113q-139 -80 -328 -80q-180 0 -264 93t-84 310z" />
<glyph unicode="&#xad;" d="M94 582q63 72 185 71h471l20 -131q-61 -71 -184 -71h-471z" />
<glyph unicode="&#xae;" horiz-adv-x="1568" d="M76 707q0 362 184 542.5t536.5 180.5t524.5 -172.5t172 -530.5q0 -365 -186.5 -554t-538.5 -189q-692 0 -692 723zM289 719q0 -293 138 -424t355 -131q498 0 498 547q0 539 -500 538q-106 0 -190 -24.5t-154.5 -81t-108.5 -163.5t-38 -261zM438 434q20 20 64 37v492 q-47 20 -64 38l13 99h309q166 0 249 -49.5t83 -178.5q0 -127 -152 -192v-10q45 -23 66 -60l73 -139q45 -10 76 -41l-10 -94h-217l-135 270q-18 35 -37 35h-51v-162q74 -14 102 -47l-10 -96h-346zM705 776h45q68 0 100.5 20.5t32.5 69.5q0 101 -131 101h-47v-191z" />
<glyph unicode="&#xb4;" horiz-adv-x="993" d="M377 1229q12 90 69.5 216t116.5 185l213 -131q-29 -82 -117 -181.5t-172 -152.5z" />
<glyph unicode="&#x2000;" horiz-adv-x="888" />
<glyph unicode="&#x2001;" horiz-adv-x="1776" />
<glyph unicode="&#x2002;" horiz-adv-x="888" />
<glyph unicode="&#x2003;" horiz-adv-x="1776" />
<glyph unicode="&#x2004;" horiz-adv-x="592" />
<glyph unicode="&#x2005;" horiz-adv-x="444" />
<glyph unicode="&#x2006;" horiz-adv-x="296" />
<glyph unicode="&#x2007;" horiz-adv-x="296" />
<glyph unicode="&#x2008;" horiz-adv-x="222" />
<glyph unicode="&#x2009;" horiz-adv-x="355" />
<glyph unicode="&#x200a;" horiz-adv-x="98" />
<glyph unicode="&#x2010;" d="M94 582q63 72 185 71h471l20 -131q-61 -71 -184 -71h-471z" />
<glyph unicode="&#x2011;" d="M94 582q63 72 185 71h471l20 -131q-61 -71 -184 -71h-471z" />
<glyph unicode="&#x2012;" d="M94 582q63 72 185 71h471l20 -131q-61 -71 -184 -71h-471z" />
<glyph unicode="&#x2013;" horiz-adv-x="1081" d="M94 582q63 72 185 71h690l20 -131q-61 -71 -184 -71h-690z" />
<glyph unicode="&#x2014;" horiz-adv-x="1544" d="M94 582q63 72 185 71h1153l20 -131q-61 -71 -184 -71h-1153z" />
<glyph unicode="&#x2018;" horiz-adv-x="477" d="M61 989q0 137 70 255t168 188l86 -54q-76 -127 -66 -252q39 -12 65 -50t26 -87q0 -156 -170 -155q-178 0 -179 155z" />
<glyph unicode="&#x2019;" horiz-adv-x="473" d="M70 1276q0 156 170 156q178 0 178 -156q0 -137 -69.5 -255t-168.5 -187l-86 53q76 127 66 252q-39 12 -64.5 50t-25.5 87z" />
<glyph unicode="&#x201c;" horiz-adv-x="921" d="M61 989q0 137 70 255t168 188l86 -54q-76 -127 -66 -252q39 -12 65 -50t26 -87q0 -156 -170 -155q-178 0 -179 155zM506 989q0 137 69.5 255t167.5 188l86 -54q-76 -127 -65 -252q39 -12 64.5 -50t25.5 -87q0 -156 -170 -155q-178 0 -178 155z" />
<glyph unicode="&#x201d;" horiz-adv-x="917" d="M70 1276q0 156 170 156q178 0 178 -156q0 -137 -69.5 -255t-168.5 -187l-86 53q76 127 66 252q-39 12 -64.5 50t-25.5 87zM514 1276q0 156 170 156q178 0 178 -156q0 -137 -69.5 -255t-167.5 -187l-86 53q76 127 65 252q-39 12 -64.5 50t-25.5 87z" />
<glyph unicode="&#x2022;" horiz-adv-x="739" d="M127 539q0 119 61.5 170t180.5 51q244 0 243 -221q0 -217 -243 -217q-119 0 -180.5 50t-61.5 167z" />
<glyph unicode="&#x2026;" horiz-adv-x="1662" d="M76 133q0 156 170 156q172 0 172 -156q0 -154 -172 -153q-170 -1 -170 153zM662 133q0 156 169 156q172 0 173 -156q0 -154 -173 -153q-169 -1 -169 153zM1247 133q0 156 170 156q172 0 172 -156q0 -154 -172 -153q-170 -1 -170 153z" />
<glyph unicode="&#x202f;" horiz-adv-x="355" />
<glyph unicode="&#x205f;" horiz-adv-x="444" />
<glyph unicode="&#x20ac;" horiz-adv-x="1327" d="M53 557q63 72 185 72h12v125h-176l-21 106q63 72 185 72h30q43 250 188.5 374t372.5 124q219 0 422 -130q4 -63 -11 -156.5t-40 -146.5h-184q-29 53 -39 162q-82 39 -162 39q-100 0 -165.5 -60.5t-92.5 -205.5h416l20 -107q-61 -72 -184 -71h-268q0 -96 2 -125h430 l20 -107q-61 -72 -184 -71h-242q29 -119 90.5 -170.5t157.5 -51.5q207 0 373 66l69 -182q-205 -129 -489 -129q-221 0 -343 109.5t-159 357.5h-192z" />
<glyph unicode="&#x2122;" horiz-adv-x="1835" d="M100 1196v240l101 12q27 -14 43 -45h350q12 27 33 45l108 -12v-240l-104 -10q-25 16 -35 43h-74v-389q37 -14 60 -47l-19 -123h-293l-18 123q27 33 61 47v389h-69q-15 -28 -43 -43zM807 1292l18 121h275l145 -364q8 -25 14.5 -50.5t8.5 -39.5l2 -13h16q4 49 25 103 l139 364h276l13 -121q-18 -29 -60 -49v-403q37 -14 58 -43l-13 -127h-292l-13 127q23 29 60 45v102l6 94l-17 2q-6 -43 -24 -94l-94 -276h-181l-96 272l-24 92l-17 -2q8 -45 8 -98v-98q37 -16 54 -50l-11 -116h-260l-12 118q18 29 55 50v407q-35 16 -59 47z" />
<glyph unicode="&#xe000;" horiz-adv-x="1025" d="M0 1025h1025v-1025h-1025v1025z" />
</font>
</defs>
</svg>
