<?xml version="1.0" encoding="UTF-8"?>
<svg width="428px" height="219px" viewBox="0 0 428 219" version="1.1" xmlns="http://www.w3.org/2000/svg" xmlns:xlink="http://www.w3.org/1999/xlink">
    <!-- Generator: Sketch 52.4 (67378) - http://www.bohemiancoding.com/sketch -->
    <title>Locked1</title>
    <desc>Created with Sketch.</desc>
    <defs>
        <path d="M3.72644444,7.42889778 L3.72644444,12.9922178 L0.416626263,12.9922178 L0.416626263,24.1164711 C0.416626263,25.8698756 1.90090909,27.2955111 3.72644444,27.2955111 L18.6189697,27.2955111 C20.4436768,27.2955111 21.9279596,25.8698756 21.9279596,24.1164711 L21.9279596,12.9922178 L18.6189697,12.9922178 L18.6189697,7.42889778 C18.6189697,3.48612444 15.2768485,0.277648889 11.1727071,0.277648889 C7.06690909,0.277648889 3.72644444,3.48612444 3.72644444,7.42889778 Z M5.38052525,7.42889778 C5.38052525,4.36203111 7.97884848,1.86637333 11.1727071,1.86637333 C14.3649091,1.86637333 16.9640606,4.36203111 16.9640606,7.42889778 L16.9640606,12.9922178 L5.38052525,12.9922178 L5.38052525,7.42889778 Z M10.3452525,22.5277467 L12.0001616,22.5277467 L12.0001616,17.7599822 L10.3452525,17.7599822 L10.3452525,22.5277467 Z" id="path-1"></path>
    </defs>
    <g id="Locked1" stroke="none" stroke-width="1" fill="none" fill-rule="evenodd">
        <ellipse id="Oval-2" fill="#008EE2" opacity="0.158537946" cx="213.5" cy="169" rx="208.5" ry="46"></ellipse>
        <g id="Group" transform="translate(132.000000, 6.000000)">
            <polygon id="Fill-4" fill="#FFFFFF" points="0 179 138.323232 179 138.323232 0 0 0"></polygon>
            <g id="Group-10">
                <polygon id="Stroke-5" stroke="#798792" stroke-width="2" points="0 179 138.323232 179 138.323232 0 0 0"></polygon>
                <path d="M163.369925,34.1719751 C163.369925,45.9255129 153.449582,55.4530862 141.212531,55.4530862 C128.976309,55.4530862 119.055137,45.9255129 119.055137,34.1719751 C119.055137,22.4184373 128.976309,12.890864 141.212531,12.890864 C153.449582,12.890864 163.369925,22.4184373 163.369925,34.1719751" id="Fill-7" fill="#F9979A"></path>
                <path d="M163.369925,34.1719751 C163.369925,45.9255129 153.449582,55.4530862 141.212531,55.4530862 C128.976309,55.4530862 119.055137,45.9255129 119.055137,34.1719751 C119.055137,22.4184373 128.976309,12.890864 141.212531,12.890864 C153.449582,12.890864 163.369925,22.4184373 163.369925,34.1719751 Z" id="Stroke-8" stroke="#6D7A82" stroke-width="2" stroke-linecap="round"></path>
                <path d="M147.004051,31.2896773 L135.421343,31.2896773 L135.421343,25.7271529 C135.421343,22.6594907 138.018838,20.1646284 141.212697,20.1646284 C144.405727,20.1646284 147.004051,22.6594907 147.004051,25.7271529 L147.004051,31.2896773 Z M140.385242,40.8252062 L142.040152,40.8252062 L142.040152,36.0574418 L140.385242,36.0574418 L140.385242,40.8252062 Z M148.65896,31.2896773 L148.65896,25.7271529 C148.65896,21.783584 145.317667,18.5751084 141.212697,18.5751084 C137.107727,18.5751084 133.767263,21.783584 133.767263,25.7271529 L133.767263,31.2896773 L130.456616,31.2896773 L130.456616,42.4147262 C130.456616,44.1673351 131.940899,45.5929707 133.767263,45.5929707 L148.65896,45.5929707 C150.483667,45.5929707 151.967949,44.1673351 151.967949,42.4147262 L151.967949,31.2896773 L148.65896,31.2896773 Z" id="Fill-9" fill="#FFFFFF"></path>
            </g>
            <g id="Group-19" transform="translate(130.040404, 18.297778)">
                <mask id="mask-2" fill="white">
                    <use xlink:href="#path-1"></use>
                </mask>
                <g id="Clip-12"></g>
                <polygon id="Fill-11" fill="#FFFFFF" mask="url(#mask-2)" points="-2.70931313 27.2955111 25.4208283 27.2955111 25.4208283 0.277648889 -2.70931313 0.277648889"></polygon>
                <polygon id="Fill-13" fill="#FFFFFF" mask="url(#mask-2)" points="-7.39739394 34.8007822 30.1089091 34.8007822 30.1089091 -7.22762222 -7.39739394 -7.22762222"></polygon>
                <polygon id="Fill-14" fill="#FFFFFF" mask="url(#mask-2)" points="0.416626263 27.2955111 22.2957172 27.2955111 22.2957172 0.277648889 0.416626263 0.277648889"></polygon>
                <polygon id="Fill-15" fill="#FFFFFF" mask="url(#mask-2)" points="-7.39739394 34.8007822 29.7411515 34.8007822 29.7411515 -7.22762222 -7.39739394 -7.22762222"></polygon>
                <polygon id="Fill-16" fill="#FFFFFF" mask="url(#mask-2)" points="-2.70931313 27.2955111 25.4208283 27.2955111 25.4208283 0.277648889 -2.70931313 0.277648889"></polygon>
                <polygon id="Fill-17" fill="#FFFFFF" mask="url(#mask-2)" points="0.416626263 27.2955111 22.2957172 27.2955111 22.2957172 0.277648889 0.416626263 0.277648889"></polygon>
                <polygon id="Fill-18" fill="#FFFFFF" mask="url(#mask-2)" points="-10.5225051 34.8007822 33.2348485 34.8007822 33.2348485 -7.22762222 -10.5225051 -7.22762222"></polygon>
            </g>
            <path d="M116.228788,59.1575111 L21.6844444,59.1575111 C19.7802222,59.1575111 18.2222222,57.6610711 18.2222222,55.8320889 C18.2222222,54.0031067 19.7802222,52.5066667 21.6844444,52.5066667 L116.228788,52.5066667 C118.13301,52.5066667 119.69101,54.0031067 119.69101,55.8320889 C119.69101,57.6610711 118.13301,59.1575111 116.228788,59.1575111" id="Fill-20" fill="#E5E5E5"></path>
            <path d="M116.228788,78.25164 L21.6844444,78.25164 C19.7802222,78.25164 18.2222222,76.7552 18.2222222,74.9262178 L18.2222222,74.9254222 C18.2222222,73.0972356 19.7802222,71.6 21.6844444,71.6 L116.228788,71.6 C118.13301,71.6 119.69101,73.0972356 119.69101,74.9254222 L119.69101,74.9262178 C119.69101,76.7552 118.13301,78.25164 116.228788,78.25164" id="Fill-22" fill="#E5E5E5"></path>
            <path d="M116.228788,97.3441778 L21.6844444,97.3441778 C19.7802222,97.3441778 18.2222222,95.8477378 18.2222222,94.0187556 C18.2222222,92.1897733 19.7802222,90.6933333 21.6844444,90.6933333 L116.228788,90.6933333 C118.13301,90.6933333 119.69101,92.1897733 119.69101,94.0187556 C119.69101,95.8477378 118.13301,97.3441778 116.228788,97.3441778" id="Fill-24" fill="#E5E5E5"></path>
            <path d="M116.228788,115.641956 L21.6844444,115.641956 C19.7802222,115.641956 18.2222222,114.145516 18.2222222,112.316533 C18.2222222,110.487551 19.7802222,108.991111 21.6844444,108.991111 L116.228788,108.991111 C118.13301,108.991111 119.69101,110.487551 119.69101,112.316533 C119.69101,114.145516 118.13301,115.641956 116.228788,115.641956" id="Fill-26" fill="#E5E5E5"></path>
            <path d="M116.228788,134.736084 L21.6844444,134.736084 C19.7802222,134.736084 18.2222222,133.239644 18.2222222,131.410662 L18.2222222,131.409867 C18.2222222,129.58168 19.7802222,128.084444 21.6844444,128.084444 L116.228788,128.084444 C118.13301,128.084444 119.69101,129.58168 119.69101,131.409867 L119.69101,131.410662 C119.69101,133.239644 118.13301,134.736084 116.228788,134.736084" id="Fill-28" fill="#E5E5E5"></path>
        </g>
    </g>
</svg>