<?xml version="1.0" encoding="UTF-8"?>
<svg width="70px" height="96px" viewBox="0 0 70 96" version="1.1" xmlns="http://www.w3.org/2000/svg" xmlns:xlink="http://www.w3.org/1999/xlink">
    <!-- Generator: Sketch 53.2 (72643) - https://sketchapp.com -->
    <title>Illustrations/Instruction/No Reports Clipboard</title>
    <desc>Created with Sketch.</desc>
    <defs>
        <polygon id="path-1" points="0 96 70 96 70 0 0 0"></polygon>
    </defs>
    <g id="Student-V3" stroke="none" stroke-width="1" fill="none" fill-rule="evenodd">
        <g id="S1_Rubric-1-Copy" transform="translate(-796.000000, -479.000000)">
            <g id="Illustrations/Instruction/No-Reports-Clipboard" transform="translate(796.000000, 479.000000)">
                <g id="Group-23">
                    <path d="M65,95 L5,95 C2.791,95 1,93.209 1,91 L1,22 C1,19.791 2.791,18 5,18 L65,18 C67.209,18 69,19.791 69,22 L69,91 C69,93.209 67.209,95 65,95" id="Fill-1" fill="#F6F7F6"></path>
                    <path d="M5,19 C3.346,19 2,20.346 2,22 L2,91 C2,92.654 3.346,94 5,94 L65,94 C66.654,94 68,92.654 68,91 L68,22 C68,20.346 66.654,19 65,19 L5,19 Z M65,96 L5,96 C2.243,96 0,93.757 0,91 L0,22 C0,19.243 2.243,17 5,17 L65,17 C67.757,17 70,19.243 70,22 L70,91 C70,93.757 67.757,96 65,96 L65,96 Z" id="Fill-3" fill="#243038"></path>
                    <mask id="mask-2" fill="white">
                        <use xlink:href="#path-1"></use>
                    </mask>
                    <g id="Clip-6"></g>
                    <polygon id="Fill-5" fill="#FFFFFF" mask="url(#mask-2)" points="7 89 63.5 89 63.5 24.213 7 24.213"></polygon>
                    <polygon id="Fill-7" fill="#6F7F8A" mask="url(#mask-2)" points="9 90.0005 6 90.0005 6 87.0005 8 87.0005 8 88.0005 9 88.0005"></polygon>
                    <path d="M6,34.318 L8,34.318 L8,30.266 L6,30.266 L6,34.318 Z M6,42.423 L8,42.423 L8,38.371 L6,38.371 L6,42.423 Z M6,50.528 L8,50.528 L8,46.476 L6,46.476 L6,50.528 Z M6,58.633 L8,58.633 L8,54.581 L6,54.581 L6,58.633 Z M6,66.738 L8,66.738 L8,62.686 L6,62.686 L6,66.738 Z M6,74.843 L8,74.843 L8,70.791 L6,70.791 L6,74.843 Z M6,82.948 L8,82.948 L8,78.896 L6,78.896 L6,82.948 Z" id="Fill-8" fill="#6F7F8A" mask="url(#mask-2)"></path>
                    <polygon id="Fill-9" fill="#6F7F8A" mask="url(#mask-2)" points="8 26.2129 6 26.2129 6 23.2129 9 23.2129 9 25.2129 8 25.2129"></polygon>
                    <path d="M13.038,25.213 L17.076,25.213 L17.076,23.213 L13.038,23.213 L13.038,25.213 Z M21.115,25.213 L25.153,25.213 L25.153,23.213 L21.115,23.213 L21.115,25.213 Z M29.192,25.213 L33.23,25.213 L33.23,23.213 L29.192,23.213 L29.192,25.213 Z M37.269,25.213 L41.308,25.213 L41.308,23.213 L37.269,23.213 L37.269,25.213 Z M45.346,25.213 L49.384,25.213 L49.384,23.213 L45.346,23.213 L45.346,25.213 Z M53.423,25.213 L57.461,25.213 L57.461,23.213 L53.423,23.213 L53.423,25.213 Z" id="Fill-10" fill="#6F7F8A" mask="url(#mask-2)"></path>
                    <polygon id="Fill-11" fill="#6F7F8A" mask="url(#mask-2)" points="64.5 26.2129 62.5 26.2129 62.5 25.2129 61.5 25.2129 61.5 23.2129 64.5 23.2129"></polygon>
                    <path d="M62.5,34.318 L64.5,34.318 L64.5,30.266 L62.5,30.266 L62.5,34.318 Z M62.5,42.423 L64.5,42.423 L64.5,38.371 L62.5,38.371 L62.5,42.423 Z M62.5,50.528 L64.5,50.528 L64.5,46.476 L62.5,46.476 L62.5,50.528 Z M62.5,58.633 L64.5,58.633 L64.5,54.581 L62.5,54.581 L62.5,58.633 Z M62.5,66.738 L64.5,66.738 L64.5,62.686 L62.5,62.686 L62.5,66.738 Z M62.5,74.843 L64.5,74.843 L64.5,70.791 L62.5,70.791 L62.5,74.843 Z M62.5,82.948 L64.5,82.948 L64.5,78.896 L62.5,78.896 L62.5,82.948 Z" id="Fill-12" fill="#6F7F8A" mask="url(#mask-2)"></path>
                    <polygon id="Fill-13" fill="#6F7F8A" mask="url(#mask-2)" points="64.5 90.0005 61.5 90.0005 61.5 88.0005 62.5 88.0005 62.5 87.0005 64.5 87.0005"></polygon>
                    <path d="M13.039,90 L17.077,90 L17.077,88 L13.039,88 L13.039,90 Z M21.116,90 L25.154,90 L25.154,88 L21.116,88 L21.116,90 Z M29.192,90 L33.231,90 L33.231,88 L29.192,88 L29.192,90 Z M37.27,90 L41.308,90 L41.308,88 L37.27,88 L37.27,90 Z M45.347,90 L49.385,90 L49.385,88 L45.347,88 L45.347,90 Z M53.424,90 L57.462,90 L57.462,88 L53.424,88 L53.424,90 Z" id="Fill-14" fill="#6F7F8A" mask="url(#mask-2)"></path>
                    <path d="M55.874,25 L14.126,25 C12.666,25 11.698,23.487 12.31,22.162 L17,12 L53,12 L57.689,22.162 C58.302,23.487 57.334,25 55.874,25" id="Fill-15" fill="#C0C6CB" mask="url(#mask-2)"></path>
                    <path d="M17.6396,13 L13.2176,22.581 C13.0726,22.897 13.0956,23.246 13.2836,23.539 C13.4706,23.832 13.7786,24 14.1256,24 L55.8736,24 C56.2216,24 56.5296,23.832 56.7166,23.539 C56.9036,23.246 56.9276,22.897 56.7816,22.582 L52.3606,13 L17.6396,13 Z M55.8736,26 L14.1256,26 C13.0976,26 12.1536,25.483 11.5986,24.617 C11.0446,23.751 10.9706,22.677 11.4016,21.743 L16.3606,11 L53.6396,11 L58.5976,21.743 C59.0286,22.676 58.9546,23.75 58.4016,24.617 C57.8476,25.483 56.9026,26 55.8736,26 L55.8736,26 Z" id="Fill-16" fill="#243038" mask="url(#mask-2)"></path>
                    <path d="M35,1 C24,1 24,12 24,12 L46,12 C46,12 44.666,1 35,1" id="Fill-17" fill="#E5E7E9" mask="url(#mask-2)"></path>
                    <path d="M25.0713,11 L44.7983,11 C44.1893,8.354 41.9983,2 35.0003,2 C26.9233,2 25.3693,8.454 25.0713,11 L25.0713,11 Z M47.1293,13 L23.0003,13 L23.0003,12 C23.0003,11.88 23.1373,0 35.0003,0 C45.4313,0 46.9783,11.761 46.9933,11.879 L47.1293,13 Z" id="Fill-18" fill="#243038" mask="url(#mask-2)"></path>
                    <path d="M36.666,6.5518 C36.666,7.6558 35.771,8.5518 34.666,8.5518 C33.562,8.5518 32.666,7.6558 32.666,6.5518 C32.666,5.4478 33.562,4.5518 34.666,4.5518 C35.771,4.5518 36.666,5.4478 36.666,6.5518" id="Fill-19" fill="#243038" mask="url(#mask-2)"></path>
                    <path d="M30.9072,46.5913 C30.9072,49.1143 28.8612,51.1593 26.3392,51.1593 C23.8152,51.1593 21.7702,49.1143 21.7702,46.5913 C21.7702,44.0683 23.8152,42.0233 26.3392,42.0233 C28.8612,42.0233 30.9072,44.0683 30.9072,46.5913" id="Fill-20" fill="#5B636A" mask="url(#mask-2)"></path>
                    <path d="M48.9072,46.5913 C48.9072,49.1143 46.8612,51.1593 44.3392,51.1593 C41.8152,51.1593 39.7702,49.1143 39.7702,46.5913 C39.7702,44.0683 41.8152,42.0233 44.3392,42.0233 C46.8612,42.0233 48.9072,44.0683 48.9072,46.5913" id="Fill-21" fill="#5B636A" mask="url(#mask-2)"></path>
                    <path d="M43.5,69.894 L27,69.894 C25.896,69.894 25,68.998 25,67.894 C25,66.79 25.896,65.894 27,65.894 L43.5,65.894 C44.604,65.894 45.5,66.79 45.5,67.894 C45.5,68.998 44.604,69.894 43.5,69.894" id="Fill-22" fill="#5B636A" mask="url(#mask-2)"></path>
                </g>
            </g>
        </g>
    </g>
</svg>