<svg width="116" height="155" viewBox="0 0 116 155" fill="none" xmlns="http://www.w3.org/2000/svg">
<path d="M53 155C82.2711 155 106 150.971 106 146C106 141.029 82.2711 137 53 137C23.7289 137 0 141.029 0 146C0 150.971 23.7289 155 53 155Z" fill="black" fill-opacity="0.05"/>
<path d="M74.3387 92.2077C67.1955 94.5865 59.0432 95.8795 50.3856 95.8795C42.6686 95.8795 39.4772 92.298 33.1753 90.5129C26.961 95.8795 23.8313 106.111 23.2035 111.133C21.3571 124.055 32.5901 135.381 52.5367 135.381C72.4832 135.381 82.9036 123.648 80.6269 111.524C79.0578 103.171 76.5285 96.8604 74.3387 92.2077Z" fill="white"/>
<path d="M30.7576 128.978C35.588 131.734 41.9285 133.381 49.5366 133.381C69.4831 133.381 79.9034 121.648 77.6268 109.524C76.3306 102.624 74.3791 97.1172 72.5051 92.7878C73.1232 92.6023 73.7345 92.4089 74.3386 92.2078C76.5284 96.8604 79.0577 103.171 80.6268 111.524C82.9034 123.648 72.4831 135.381 52.5366 135.381C43.2341 135.381 35.8268 132.918 30.7576 128.978Z" fill="#EDEDED"/>
<path d="M74.3387 92.2077C67.1955 94.5865 59.0432 95.8795 50.3856 95.8795C42.6686 95.8795 39.4772 92.298 33.1753 90.5129C26.961 95.8795 23.8313 106.111 23.2035 111.133C21.3571 124.055 32.5901 135.381 52.5367 135.381C72.4832 135.381 82.9036 123.648 80.6269 111.524C79.0578 103.171 76.5285 96.8604 74.3387 92.2077Z" stroke="#152633" stroke-width="2"/>
<path fill-rule="evenodd" clip-rule="evenodd" d="M91.2208 141.098C88.0919 125.062 81.1796 115.493 80.7885 112.365C82.313 123.019 73.9189 133.358 58.0325 135.29L58.3677 136.795C59.541 143.053 61.8876 145.4 65.7987 146.573C74.4031 149.702 93.1763 148.529 91.2208 141.098Z" fill="#2D3B45"/>
<path d="M80.3237 119.47C82.6217 124.384 85.4961 131.258 87.2208 140.098C88.8992 146.475 75.3085 148.244 65.9824 146.639C74.6671 149.685 93.1626 148.476 91.2208 141.098C89.1243 130.353 85.3292 122.512 82.9354 117.566C81.7879 115.195 80.9624 113.49 80.8003 112.448C81.1304 114.836 80.9624 117.207 80.3237 119.47Z" fill="#28343D"/>
<path fill-rule="evenodd" clip-rule="evenodd" d="M91.2208 141.098C88.0919 125.062 81.1796 115.493 80.7885 112.365C82.313 123.019 73.9189 133.358 58.0325 135.29L58.3677 136.795C59.541 143.053 61.8876 145.4 65.7987 146.573C74.4031 149.702 93.1763 148.529 91.2208 141.098Z" stroke="#152633" stroke-width="2"/>
<path d="M23.0319 112.545L22.9744 112.546C22.5833 115.675 15.5434 125.062 12.4145 141.097C10.459 148.528 29.2322 149.702 37.8366 146.573C41.7477 145.399 44.0943 143.053 45.2676 136.795L45.5864 135.491L45.6028 135.132C30.5479 132.914 22.1367 123.411 23.0319 112.545Z" fill="#2D3B45"/>
<path d="M12.4219 143.151C14.1311 148.721 30.0973 149.387 37.8366 146.573C41.7477 145.399 44.0943 143.053 45.2677 136.795L45.5864 135.491L45.6028 135.132C44.404 134.955 43.2473 134.733 42.1341 134.467C40.9204 140.223 38.6045 142.442 34.8366 143.573C28.8153 145.762 17.8143 145.845 12.4219 143.151Z" fill="#28343D"/>
<path d="M23.0319 112.545L22.9744 112.546C22.5833 115.675 15.5434 125.062 12.4145 141.097C10.459 148.528 29.2322 149.702 37.8366 146.573C41.7477 145.399 44.0943 143.053 45.2676 136.795L45.5864 135.491L45.6028 135.132C30.5479 132.914 22.1367 123.411 23.0319 112.545Z" stroke="#152633" stroke-width="2"/>
<path d="M5.41489 52.544C9.89418 28.3645 35.3753 6.84545 63.9441 12.1381C92.5132 17.4309 111.604 48.2497 104.476 71.3818C97.8748 92.8053 76.7981 102.258 48.2295 96.965C19.6604 91.6722 1.15524 75.5346 5.41489 52.544Z" fill="white"/>
<path d="M25.084 89.1139C31.5994 92.6804 39.4379 95.3361 48.2296 96.9649C76.7982 102.258 97.8749 92.8052 104.476 71.3817C110.66 51.3144 97.1119 25.4624 74.7618 15.5088C94.6954 26.6034 106.281 50.5419 100.476 69.3817C93.8749 90.8052 72.7982 100.258 44.2296 94.9649C37.1691 93.6568 30.7234 91.6864 25.084 89.1139Z" fill="#EDEDED"/>
<path d="M5.41489 52.544C9.89418 28.3645 35.3753 6.84545 63.9441 12.1381C92.5132 17.4309 111.604 48.2497 104.476 71.3818C97.8748 92.8053 76.7981 102.258 48.2295 96.965C19.6604 91.6722 1.15524 75.5346 5.41489 52.544Z" stroke="#152633" stroke-width="2"/>
<path fill-rule="evenodd" clip-rule="evenodd" d="M56.1792 80.372C55.6849 79.3833 55.3823 80.5049 54.825 82.099C53.9697 84.2048 52.7766 85.6214 50.0561 86.3165C49.8734 86.3553 49.6851 86.3907 49.4913 86.423C49.4947 86.4296 49.498 86.4363 49.5014 86.443C48.3007 86.6903 46.8272 86.8149 45 86.8149H49.4913C50.1647 87.6805 50.9709 88.5495 51.7911 89.2632C52.1565 89.5898 52.558 89.9172 52.9945 90.2446C54.2114 91.1573 54.9197 91.2708 55.397 90.828C55.7358 90.6971 56.0055 90.4085 56.1792 89.9262C56.4705 89.1174 56.6343 87.8978 56.6958 86.5908C57.0483 84.0501 56.735 81.4836 56.1792 80.372Z" fill="#152633" stroke="#152633" stroke-linecap="round" stroke-linejoin="round"/>
<path fill-rule="evenodd" clip-rule="evenodd" d="M72.952 84.1283C68.0074 83.2124 63.0902 79.2779 59.8583 73.9165C56.9044 69.0161 55.3528 62.897 56.5047 56.6791C57.7531 49.9392 61.1922 43.0102 65.5945 38.2062C69.4143 34.0377 73.9767 31.4137 78.4639 32.2451C82.958 33.0773 87.4958 37.4196 90.7034 43.6905C93.9923 50.12 95.3025 57.5829 94.1771 63.6586C92.9641 70.2057 89.9428 75.7928 86.0232 79.5164C82.2248 83.1248 77.5743 84.9848 72.952 84.1283Z" fill="#2D3B45" stroke="#152633" stroke-width="2"/>
<path fill-rule="evenodd" clip-rule="evenodd" d="M31.4473 62.8247C27.6064 66.7903 23.898 68.2002 20.9966 67.7463C18.7854 67.3343 16.1615 65.8194 14.5805 63.5835C11.2186 58.8314 9.8836 53.8292 11.3685 45.8141C12.4932 39.7434 16.6584 33.3784 21.6389 28.7278C26.4877 24.2003 32.1475 21.2043 36.5446 22.0188C38.3912 22.3609 39.8198 23.281 40.778 24.7729C44.0838 29.9206 42.3584 39.9678 39.4423 49.3058C38.0764 53.6817 35.3387 58.8066 31.4473 62.8247Z" fill="#2D3B45" stroke="#152633" stroke-width="2"/>
<path d="M102.693 42.3044C99.8713 36.2252 95.9037 30.5902 91 25.8279C94.5167 23.328 100.432 19.4619 105.817 17.5473C114.156 14.5821 114.772 24.5362 114.801 26.5917C114.831 28.647 114.551 36.7953 107.724 40.4501C105.949 41.4004 104.245 41.9732 102.693 42.3044Z" fill="#2D3B45"/>
<path d="M100.835 39.7493C101.321 40.6593 101.781 41.5813 102.213 42.5137C103.766 42.1826 105.47 41.6098 107.244 40.6594C114.072 37.0047 114.351 28.8564 114.322 26.8011C114.297 25.0121 113.827 17.2396 108.207 17.2095C110.084 19.6473 110.305 23.5916 110.322 24.8011C110.351 26.8564 110.072 35.0047 103.244 38.6594C102.423 39.099 101.618 39.4579 100.835 39.7493Z" fill="#28343D"/>
<path d="M102.214 42.5138C99.3918 36.4346 95.4242 30.7997 90.5205 26.0374C94.0372 23.5375 99.9521 19.6714 105.338 17.7567C113.677 14.7916 114.293 24.7457 114.322 26.8012C114.351 28.8565 114.072 37.0048 107.245 40.6595C105.47 41.6099 103.766 42.1827 102.214 42.5138Z" stroke="#152633" stroke-width="2"/>
<path d="M21.5201 20.7313C17.1445 15.6702 19.4406 9.01131 20.1005 7.36239C20.7603 5.71384 24.3377 -2.12458 30.1462 2.84758C33.8529 6.02055 37.3837 10.886 39.4577 13.9969C33.6714 15.9965 28.3357 19.0338 23.6726 22.8162C22.9492 22.2326 22.2232 21.5443 21.5201 20.7313Z" fill="#2D3B45"/>
<path d="M19.0533 11.3349C19.3318 13.1469 20.0487 15.0294 21.5201 16.7313C22.2232 17.5443 22.9492 18.2326 23.6726 18.8162C27.7331 15.5226 32.3036 12.794 37.2375 10.8235C38.0852 11.9769 38.8368 13.0655 39.4577 13.9969C33.6714 15.9966 28.3357 19.0338 23.6726 22.8162C22.9492 22.2326 22.2232 21.5443 21.5201 20.7313C18.8985 17.699 18.6719 14.0931 19.0533 11.3349Z" fill="#28343D"/>
<path d="M21.5201 20.7313C17.1445 15.6702 19.4406 9.01131 20.1005 7.36239C20.7603 5.71384 24.3377 -2.12458 30.1462 2.84758C33.8529 6.02055 37.3837 10.886 39.4577 13.9969C33.6714 15.9965 28.3357 19.0338 23.6726 22.8162C22.9492 22.2326 22.2232 21.5443 21.5201 20.7313Z" stroke="#152633" stroke-width="2"/>
<path d="M21.0039 78.0405C24.6555 77.8367 28.3218 79.7872 30.0058 85.5816C30.67 87.8667 31.1193 90.0926 31.4034 92.222C27.4909 96.0047 24.9001 101.704 23.4646 106.463C13.0725 96.0108 10.4871 89.4107 12.7669 84.0318C13.5631 82.1529 14.2027 80.6082 16.3062 79.4476C16.8964 79.1219 14.7669 73.5318 17.2669 73.0318C19.7669 72.5318 20.0409 78.0942 21.0039 78.0405Z" fill="#2D3B45"/>
<path d="M21.4257 78.0265C23.3632 79.1251 25.0225 81.198 26.0059 84.5816C26.67 86.8666 27.1194 89.0925 27.4034 91.2219C24.1258 94.3908 21.7757 98.9048 20.2554 103.084C21.2295 104.164 22.2979 105.289 23.4646 106.463C24.9001 101.704 27.4909 96.0046 31.4034 92.2219C31.1194 90.0925 30.67 87.8666 30.0059 85.5816C28.3867 80.0103 24.9349 77.9925 21.4257 78.0265Z" fill="#28343D"/>
<path d="M21.0039 78.0405C24.6555 77.8367 28.3218 79.7872 30.0058 85.5816C30.67 87.8667 31.1193 90.0926 31.4034 92.222C27.4909 96.0047 24.9001 101.704 23.4646 106.463C13.0725 96.0108 10.4871 89.4107 12.7669 84.0318C13.5631 82.1529 14.2027 80.6082 16.3062 79.4476C16.8964 79.1219 14.7669 73.5318 17.2669 73.0318C19.7669 72.5318 20.0409 78.0942 21.0039 78.0405Z" stroke="#152633" stroke-width="2"/>
<path d="M26.6826 42.2163L26.5856 42.2061C24.737 42.0106 23.0799 43.3506 22.8844 45.1992C22.6889 47.0478 24.0289 48.7049 25.8775 48.9004L25.9746 48.9107C27.8232 49.1062 29.4802 47.7661 29.6758 45.9175C29.8713 44.0689 28.5312 42.4119 26.6826 42.2163Z" fill="#EC3349" stroke="black" stroke-width="2"/>
<path d="M71.3838 78.7204L73.7188 56.6435C73.9544 54.4157 74.0722 53.3019 73.7287 52.4051C73.4265 51.6163 72.8823 50.9434 72.1742 50.4829C71.3691 49.9593 70.2552 49.8415 68.0275 49.6059L57.884 48.533C55.6562 48.2974 54.5424 48.1796 53.6456 48.5231C52.8568 48.8253 52.1839 49.3695 51.7234 50.0776C51.1998 50.8827 51.082 51.9966 50.8464 54.2244L48.5113 76.3012C48.2757 78.529 48.1579 79.6429 48.5015 80.5397C48.8037 81.3285 49.3478 82.0014 50.056 82.4619C50.861 82.9854 51.9749 83.1033 54.2027 83.3389L64.3461 84.4117C66.5739 84.6474 67.6878 84.7652 68.5845 84.4216C69.3734 84.1194 70.0462 83.5752 70.5068 82.8671C71.0303 82.0621 71.1481 80.9482 71.3838 78.7204Z" fill="#2C2C2C" stroke="#181818" stroke-width="2"/>
<rect x="15.7191" y="44.0735" width="46" height="35" rx="4" transform="rotate(6.03761 15.7191 44.0735)" fill="#E6E6E6" stroke="#181818" stroke-width="2"/>
<rect x="19.2762" y="48.4719" width="38" height="27" rx="2" transform="rotate(6.03761 19.2762 48.4719)" fill="#F9F9F9" stroke="#181818" stroke-width="2"/>
<path d="M34.9144 72.7514C39.7996 73.2681 44.1837 69.6799 44.7065 64.7369C45.2293 59.7939 41.6929 55.3679 36.8077 54.8512L32.7252 54.4194L30.832 72.3196L34.9144 72.7514Z" fill="#2C2C2C" stroke="#181818" stroke-width="2"/>
<circle cx="31.7786" cy="63.3696" r="9" transform="rotate(6.03761 31.7786 63.3696)" fill="#424242" stroke="#181818" stroke-width="2"/>
<circle cx="31.7786" cy="63.3695" r="6" transform="rotate(6.03761 31.7786 63.3695)" fill="#181818" stroke="#181818" stroke-width="2"/>
<circle cx="32.4982" cy="63.6971" r="4.75" transform="rotate(6.03761 32.4982 63.6971)" fill="#D8F0FF"/>
<circle cx="28.5203" cy="63.2764" r="1.75" transform="rotate(6.03761 28.5203 63.2764)" fill="white"/>
<circle cx="31.6297" cy="64.8724" r="1.01" transform="rotate(6.03761 31.6297 64.8724)" fill="white"/>
<rect x="46.8054" y="54.4004" width="7" height="4" rx="2" transform="rotate(6.03761 46.8054 54.4004)" fill="#D8F0FF" stroke="#181818" stroke-width="2"/>
<path d="M69.3622 59.8029C69.1879 61.4506 70.3823 62.9276 72.03 63.1018C73.6777 63.2761 75.1546 62.0817 75.3289 60.434C75.5032 58.7864 74.3088 57.3094 72.6611 57.1351C71.0134 56.9609 69.5365 58.1553 69.3622 59.8029Z" fill="#2C2C2C"/>
<path d="M69.6777 56.8196L72.6611 57.1351C74.3088 57.3094 75.5032 58.7864 75.3289 60.434V60.434C75.1546 62.0817 73.6777 63.2761 72.03 63.1018L69.0466 62.7863" stroke="#181818" stroke-width="2"/>
<circle cx="23.0556" cy="53.1453" r="1.25" transform="rotate(6.03761 23.0556 53.1453)" fill="black"/>
<circle cx="31.7786" cy="63.3695" r="6" transform="rotate(6.03761 31.7786 63.3695)" stroke="#181818" stroke-width="2"/>
<circle cx="72.3456" cy="60.1184" r="1.5" transform="rotate(6.03761 72.3456 60.1184)" fill="#181818"/>
<path d="M75.0373 120.235C65.9304 118.869 67.7941 107.905 69.8642 102.593L69.7065 104.085C69.3559 107.399 70.2142 114.496 76.4526 116.362C82.6909 118.229 86.4178 110.88 87.5015 106.972C87.1413 111.962 84.1442 121.6 75.0373 120.235Z" fill="#2C2C2C"/>
<path d="M72.8429 60.1709C65.2794 60.3765 60.5131 67.4142 69.0899 81.3939C77.6668 95.3736 58.8393 116.511 75.0374 120.235C98.4839 125.626 84.8814 60.4386 75.2764 60.9311" stroke="#181818" stroke-width="2"/>
<path d="M87.886 104.499C86.5845 112.606 82.8749 117.963 75.4581 116.257C67.0856 114.332 70.5193 101.154 71.2557 94.1928" stroke="#181818" stroke-width="2"/>
<path d="M72.9528 100.951C62.1538 90.2156 59.4518 83.494 61.7669 78.0318C65.0099 70.3786 76.5978 71.2962 79.0058 79.5816C81.666 88.734 80.8799 96.9369 79.8284 101.794C79.1274 105.032 76.8355 104.751 72.9528 100.951Z" fill="#2D3B45"/>
<path d="M64.3853 90.9271C65.9291 92.7871 67.7765 94.7875 69.9528 96.951C73.8355 100.751 76.1274 101.032 76.8284 97.7938C77.8799 92.9369 78.666 84.7341 76.0058 75.5816C75.9222 75.2938 75.8274 75.0149 75.7224 74.7449C77.2121 75.8776 78.3997 77.4962 79.0058 79.5816C81.666 88.7341 80.8799 96.9369 79.8284 101.794C79.1274 105.032 76.8355 104.751 72.9528 100.951C69.1257 97.1464 66.3155 93.846 64.3853 90.9271Z" fill="#28343D"/>
<path d="M72.9528 100.951C62.1538 90.2156 59.4518 83.494 61.7669 78.0318C65.0099 70.3786 76.5978 71.2962 79.0058 79.5816C81.666 88.734 80.8799 96.9369 79.8284 101.794C79.1274 105.032 76.8355 104.751 72.9528 100.951Z" stroke="#152633" stroke-width="2"/>
</svg>