<svg width="18" height="18" viewBox="0 0 18 18" fill="none" xmlns="http://www.w3.org/2000/svg">
<path d="M17.25 14.25C17.25 14.6478 17.092 15.0294 16.8107 15.3107C16.5294 15.592 16.1478 15.75 15.75 15.75H2.25C1.85218 15.75 1.47064 15.592 1.18934 15.3107C0.908035 15.0294 0.75 14.6478 0.75 14.25V6C0.75 5.60218 0.908035 5.22064 1.18934 4.93934C1.47064 4.65804 1.85218 4.5 2.25 4.5H5.25L6.75 2.25H11.25L12.75 4.5H15.75C16.1478 4.5 16.5294 4.65804 16.8107 4.93934C17.092 5.22064 17.25 5.60218 17.25 6V14.25Z" stroke="#2D3B45" stroke-width="1.5" stroke-linecap="round" stroke-linejoin="round"/>
<path d="M9 12.75C10.6569 12.75 12 11.4069 12 9.75C12 8.09315 10.6569 6.75 9 6.75C7.34315 6.75 6 8.09315 6 9.75C6 11.4069 7.34315 12.75 9 12.75Z" stroke="#2D3B45" stroke-width="1.5" stroke-linecap="round" stroke-linejoin="round"/>
</svg>
