<svg width="102" height="151" viewBox="0 0 102 151" fill="none" xmlns="http://www.w3.org/2000/svg">
<path fill-rule="evenodd" clip-rule="evenodd" d="M28.1602 62.0745H12.1602V41.0255C12.1602 19.6095 29.5842 2.18555 51.0002 2.18555C72.4162 2.18555 89.8402 19.6095 89.8402 41.0255V61.2915H73.8402V41.0255C73.8402 28.4315 63.5942 18.1855 51.0002 18.1855C38.4062 18.1855 28.1602 28.4315 28.1602 41.0255V62.0745Z" fill="#ECEEEF"/>
<mask id="mask0" mask-type="alpha" maskUnits="userSpaceOnUse" x="10" y="1" width="82" height="63">
<path fill-rule="evenodd" clip-rule="evenodd" d="M10.9747 1H91.0257V63.2606H10.9747V1Z" fill="white"/>
</mask>
<g mask="url(#mask0)">
<path fill-rule="evenodd" clip-rule="evenodd" d="M13.3457 60.8885H26.9747V41.0255C26.9747 27.7775 37.7517 16.9995 50.9997 16.9995C64.2477 16.9995 75.0257 27.7775 75.0257 41.0255V60.1055H88.6547V41.0255C88.6547 20.2635 71.7627 3.37151 50.9997 3.37151C30.2377 3.37151 13.3457 20.2635 13.3457 41.0255V60.8885ZM29.3457 63.2605H10.9747V41.0255C10.9747 18.9555 28.9297 0.999512 50.9997 0.999512C73.0707 0.999512 91.0257 18.9555 91.0257 41.0255V62.4775H72.6547V41.0255C72.6547 29.0855 62.9407 19.3715 50.9997 19.3715C39.0597 19.3715 29.3457 29.0855 29.3457 41.0255V63.2605Z" fill="#243038"/>
</g>
<path fill-rule="evenodd" clip-rule="evenodd" d="M95 149.186H7C3.687 149.186 1 146.499 1 143.186V65.186C1 61.873 3.687 59.186 7 59.186H95C98.313 59.186 101 61.873 101 65.186V143.186C101 146.499 98.313 149.186 95 149.186Z" fill="#E5E7E9"/>
<path fill-rule="evenodd" clip-rule="evenodd" d="M7 60.186C4.243 60.186 2 62.429 2 65.186V143.186C2 145.943 4.243 148.186 7 148.186H95C97.757 148.186 100 145.943 100 143.186V65.186C100 62.429 97.757 60.186 95 60.186H7ZM95 150.186H7C3.141 150.186 0 147.046 0 143.186V65.186C0 61.326 3.141 58.186 7 58.186H95C98.859 58.186 102 61.326 102 65.186V143.186C102 147.046 98.859 150.186 95 150.186Z" fill="#243038"/>
<mask id="mask1" mask-type="alpha" maskUnits="userSpaceOnUse" x="0" y="1" width="102" height="150">
<path fill-rule="evenodd" clip-rule="evenodd" d="M0 150.186H102V1H0V150.186Z" fill="white"/>
</mask>
<g mask="url(#mask1)">
<path fill-rule="evenodd" clip-rule="evenodd" d="M1 139.186H101V69.186H1V139.186Z" fill="#B9D19A"/>
<path fill-rule="evenodd" clip-rule="evenodd" d="M2 138.186H100V70.186H2V138.186ZM0 140.186H102V68.186H0V140.186Z" fill="#243038"/>
<path fill-rule="evenodd" clip-rule="evenodd" d="M55.2363 105.859C58.2673 104.314 60.3473 101.17 60.3473 97.534C60.3473 92.371 56.1623 88.186 51.0003 88.186C45.8383 88.186 41.6523 92.371 41.6523 97.534C41.6523 101.17 43.7323 104.314 46.7633 105.859L41.9283 117.275C41.0583 119.329 42.5663 121.606 44.7983 121.606H57.2023C59.4333 121.606 60.9413 119.329 60.0713 117.275L55.2363 105.859Z" fill="#798792"/>
<path fill-rule="evenodd" clip-rule="evenodd" d="M51 89.186C46.397 89.186 42.652 92.931 42.652 97.534C42.652 100.684 44.401 103.532 47.218 104.968L48.048 105.391L42.85 117.665C42.568 118.33 42.635 119.056 43.034 119.658C43.433 120.26 44.075 120.605 44.798 120.605H57.202C57.925 120.605 58.567 120.26 58.966 119.658C59.365 119.056 59.432 118.33 59.15 117.665L53.952 105.391L54.782 104.968C57.599 103.532 59.348 100.684 59.348 97.534C59.348 92.931 55.603 89.186 51 89.186ZM57.202 122.605H44.798C43.414 122.605 42.131 121.916 41.366 120.763C40.603 119.609 40.468 118.159 41.008 116.884L45.496 106.289C42.486 104.402 40.652 101.126 40.652 97.534C40.652 91.828 45.294 87.186 51 87.186C56.706 87.186 61.348 91.828 61.348 97.534C61.348 101.126 59.514 104.402 56.504 106.289L60.992 116.884C61.532 118.159 61.397 119.609 60.634 120.763C59.869 121.916 58.586 122.605 57.202 122.605Z" fill="#243038"/>
</g>
</svg>
