<svg width="84" height="80" viewBox="0 0 84 80" fill="none" xmlns="http://www.w3.org/2000/svg">
<path fill-rule="evenodd" clip-rule="evenodd" d="M56.0098 60.4653H69.0331V19.0699H56.0098V60.4653ZM55.0796 61.3955H69.9633V18.1396H55.0796V61.3955Z" fill="#243038"/>
<path fill-rule="evenodd" clip-rule="evenodd" d="M69.2684 32.9859L55.2158 18.9333L55.8735 18.2756L69.9261 32.3282L69.2684 32.9859Z" fill="#243038"/>
<path fill-rule="evenodd" clip-rule="evenodd" d="M55.8735 32.9859L55.2158 32.3282L69.2684 18.2756L69.9261 18.9333L55.8735 32.9859Z" fill="#243038"/>
<path fill-rule="evenodd" clip-rule="evenodd" d="M69.2684 47.4522L55.2158 33.3996L55.8735 32.7419L69.9261 46.7945L69.2684 47.4522Z" fill="#243038"/>
<path fill-rule="evenodd" clip-rule="evenodd" d="M55.8735 47.4522L55.2158 46.7945L69.2684 32.7419L69.9261 33.3996L55.8735 47.4522Z" fill="#243038"/>
<path fill-rule="evenodd" clip-rule="evenodd" d="M69.2684 61.1255L55.2158 47.073L55.8735 46.4153L69.9261 60.4678L69.2684 61.1255Z" fill="#243038"/>
<path fill-rule="evenodd" clip-rule="evenodd" d="M55.8735 61.1255L55.2158 60.4678L69.2684 46.4153L69.9261 47.073L55.8735 61.1255Z" fill="#243038"/>
<path fill-rule="evenodd" clip-rule="evenodd" d="M55.5447 33.5377H69.4982V32.6074H55.5447V33.5377Z" fill="#243038"/>
<path fill-rule="evenodd" clip-rule="evenodd" d="M55.5447 47.4913H69.4982V46.561H55.5447V47.4913Z" fill="#243038"/>
<path fill-rule="evenodd" clip-rule="evenodd" d="M39.8158 21.4446H55.5446V20.5144H39.8158V21.4446Z" fill="#243038"/>
<path fill-rule="evenodd" clip-rule="evenodd" d="M40.1483 23.721H55.5446V22.7908H40.1483V23.721Z" fill="#243038"/>
<path fill-rule="evenodd" clip-rule="evenodd" d="M20.2662 42.2559C14.3104 42.2559 9.32344 46.4014 8.03274 51.9642C7.6946 53.421 8.80669 54.814 10.3025 54.814H30.2299C31.7253 54.814 32.8374 53.421 32.4997 51.9642C31.2085 46.4014 26.2216 42.2559 20.2662 42.2559Z" fill="#C0C6CB"/>
<path fill-rule="evenodd" clip-rule="evenodd" d="M20.2663 42.7213C14.6072 42.7213 9.76305 46.5655 8.4863 52.0692C8.35747 52.6231 8.48723 53.1966 8.84212 53.6431C9.19793 54.092 9.73096 54.3492 10.3026 54.3492H30.23C30.8016 54.3492 31.3342 54.092 31.6905 53.6431C32.0449 53.1966 32.1751 52.6231 32.0463 52.0692C30.7691 46.5655 25.9249 42.7213 20.2663 42.7213ZM30.23 55.2794H10.3026C9.44491 55.2794 8.6477 54.8938 8.11329 54.2222C7.58119 53.5519 7.38677 52.691 7.58026 51.8589C8.95515 45.931 14.1719 41.791 20.2663 41.791C26.3603 41.791 31.577 45.931 32.9524 51.8589C33.1454 52.691 32.951 53.5519 32.4189 54.2226C31.8845 54.8943 31.0872 55.2794 30.23 55.2794Z" fill="#243038"/>
<path fill-rule="evenodd" clip-rule="evenodd" d="M35.6151 42.2559C29.6593 42.2559 24.6723 46.4014 23.3816 51.9642C23.0435 53.421 24.1556 54.814 25.6514 54.814H45.5788C47.0742 54.814 48.1863 53.421 47.8486 51.9642C46.5574 46.4014 41.5705 42.2559 35.6151 42.2559Z" fill="#C0C6CB"/>
<path fill-rule="evenodd" clip-rule="evenodd" d="M35.6151 42.7213C29.956 42.7213 25.1118 46.5655 23.8351 52.0692C23.7062 52.6231 23.836 53.1966 24.1909 53.6431C24.5467 54.092 25.0797 54.3492 25.6513 54.3492H45.5788C46.1504 54.3492 46.683 54.092 47.0392 53.6431C47.3937 53.1966 47.5239 52.6231 47.3951 52.0692C46.1179 46.5655 41.2737 42.7213 35.6151 42.7213ZM45.5788 55.2794H25.6513C24.7937 55.2794 23.9965 54.8938 23.462 54.2222C22.9299 53.5519 22.7355 52.691 22.929 51.8589C24.3039 45.931 29.5206 41.791 35.6151 41.791C41.709 41.791 46.9258 45.931 48.3011 51.8589C48.4941 52.691 48.2997 53.5519 47.7676 54.2226C47.2332 54.8943 46.436 55.2794 45.5788 55.2794Z" fill="#243038"/>
<path fill-rule="evenodd" clip-rule="evenodd" d="M38.4099 54.8142C39.955 49.157 40.8694 42.1751 40.8694 34.6165C40.8694 15.7551 35.1862 0.465332 28.175 0.465332C21.1643 0.465332 15.4806 15.7551 15.4806 34.6165C15.4806 42.1751 16.3955 49.157 17.9406 54.8142H38.4099Z" fill="#E5E7E9"/>
<mask id="mask0" mask-type="alpha" maskUnits="userSpaceOnUse" x="15" y="0" width="27" height="56">
<path fill-rule="evenodd" clip-rule="evenodd" d="M15.0154 0H41.3344V55.2793H15.0154V0Z" fill="white"/>
</mask>
<g mask="url(#mask0)">
<path fill-rule="evenodd" clip-rule="evenodd" d="M18.2968 54.3491H38.054C39.5917 48.57 40.4042 41.7565 40.4042 34.6165C40.4042 16.0421 34.9182 0.930015 28.1749 0.930015C21.4317 0.930015 15.9456 16.0421 15.9456 34.6165C15.9456 41.7556 16.7582 48.5691 18.2968 54.3491ZM38.7651 55.2793H17.5856L17.4921 54.937C15.8717 49.0053 15.0154 41.9788 15.0154 34.6165C15.0154 15.2053 20.7958 -0.000244141 28.1749 -0.000244141C35.5544 -0.000244141 41.3344 15.2053 41.3344 34.6165C41.3344 41.9798 40.4782 49.0067 38.8586 54.937L38.7651 55.2793Z" fill="#243038"/>
</g>
<path fill-rule="evenodd" clip-rule="evenodd" d="M34.2239 60.6593H22.1267L20.2662 54.8142H36.0844L34.2239 60.6593Z" fill="#D0D4D8"/>
<path fill-rule="evenodd" clip-rule="evenodd" d="M22.467 60.194H33.8837L35.4479 55.2796H20.9028L22.467 60.194ZM34.5642 61.1243H21.7865L19.6298 54.3494H36.7209L34.5642 61.1243Z" fill="#243038"/>
<path fill-rule="evenodd" clip-rule="evenodd" d="M35.5007 33.6859C35.5007 37.732 32.2211 41.0115 28.1751 41.0115C24.1295 41.0115 20.8495 37.732 20.8495 33.6859C20.8495 29.6404 24.1295 26.3604 28.1751 26.3604C32.2211 26.3604 35.5007 29.6404 35.5007 33.6859Z" fill="#C0C6CB"/>
<path fill-rule="evenodd" clip-rule="evenodd" d="M28.1751 26.8258C24.3923 26.8258 21.3146 29.9034 21.3146 33.6862C21.3146 37.469 24.3923 40.5467 28.1751 40.5467C31.9579 40.5467 35.0356 37.469 35.0356 33.6862C35.0356 29.9034 31.9579 26.8258 28.1751 26.8258ZM28.1751 41.4769C23.8793 41.4769 20.3844 37.982 20.3844 33.6862C20.3844 29.3904 23.8793 25.8955 28.1751 25.8955C32.4709 25.8955 35.9658 29.3904 35.9658 33.6862C35.9658 37.982 32.4709 41.4769 28.1751 41.4769Z" fill="#243038"/>
<path fill-rule="evenodd" clip-rule="evenodd" d="M33.2914 33.6861C33.2914 36.5117 31.0007 38.8024 28.1751 38.8024C25.3495 38.8024 23.0588 36.5117 23.0588 33.6861C23.0588 30.8605 25.3495 28.5698 28.1751 28.5698C31.0007 28.5698 33.2914 30.8605 33.2914 33.6861Z" fill="#9AD6F5"/>
<path fill-rule="evenodd" clip-rule="evenodd" d="M28.175 29.0352C25.6104 29.0352 23.5239 31.1217 23.5239 33.6864C23.5239 36.251 25.6104 38.3376 28.175 38.3376C30.7397 38.3376 32.8262 36.251 32.8262 33.6864C32.8262 31.1217 30.7397 29.0352 28.175 29.0352ZM28.175 39.2678C25.0973 39.2678 22.5936 36.764 22.5936 33.6864C22.5936 30.6087 25.0973 28.105 28.175 28.105C31.2527 28.105 33.7564 30.6087 33.7564 33.6864C33.7564 36.764 31.2527 39.2678 28.175 39.2678Z" fill="#243038"/>
<mask id="mask1" mask-type="alpha" maskUnits="userSpaceOnUse" x="0" y="0" width="83" height="80">
<path fill-rule="evenodd" clip-rule="evenodd" d="M0 80H82.9865V0H0V80Z" fill="white"/>
</mask>
<g mask="url(#mask1)">
<path fill-rule="evenodd" clip-rule="evenodd" d="M17.8153 15.3414H38.5353V14.4111H17.8153V15.3414Z" fill="#243038"/>
<path fill-rule="evenodd" clip-rule="evenodd" d="M78.8004 65.5816H4.38184L6.12556 61.2225C6.19579 61.0462 6.36742 60.9304 6.55718 60.9304H76.6251C76.8149 60.9304 76.9865 61.0462 77.0567 61.2225L78.8004 65.5816Z" fill="#D0D4D8"/>
<path fill-rule="evenodd" clip-rule="evenodd" d="M5.06865 65.1163H78.1133L76.6249 61.3953H6.55702L5.06865 65.1163ZM79.4877 66.0465H3.6947L5.69377 61.0502C5.83517 60.6949 6.17424 60.4651 6.55703 60.4651H76.6254C77.0082 60.4651 77.3468 60.6949 77.4887 61.0507L79.4877 66.0465Z" fill="#243038"/>
<path fill-rule="evenodd" clip-rule="evenodd" d="M4.38184 70.6976H78.8004V65.5813H4.38184V70.6976Z" fill="#E5E7E9"/>
<path fill-rule="evenodd" clip-rule="evenodd" d="M4.84698 70.2325H78.3354V66.0465H4.84698V70.2325ZM3.91675 71.1627H79.2656V65.1162H3.91675V71.1627Z" fill="#243038"/>
<path fill-rule="evenodd" clip-rule="evenodd" d="M6.24235 79.535H0.930717C0.589322 79.535 0.364206 79.1791 0.510717 78.8708L4.38188 70.6978H18.3354L6.24235 79.535Z" fill="#C0C6CB"/>
<path fill-rule="evenodd" clip-rule="evenodd" d="M4.67622 71.1627L0.930635 79.0697H6.09064L16.9106 71.1627H4.67622ZM6.39389 79.9999H0.930639C0.610174 79.9999 0.31622 79.838 0.144592 79.5668C-0.0265705 79.2957 -0.0470356 78.9613 0.0906388 78.6715L4.08738 70.2324H19.7604L6.39389 79.9999Z" fill="#243038"/>
<path fill-rule="evenodd" clip-rule="evenodd" d="M76.7443 79.535H82.0559C82.3968 79.535 82.6224 79.1791 82.4759 78.8708L78.6047 70.6978H64.6512L76.7443 79.535Z" fill="#C0C6CB"/>
<path fill-rule="evenodd" clip-rule="evenodd" d="M76.896 79.0697H82.056L78.3104 71.1627H66.076L76.896 79.0697ZM82.056 79.9999H76.5927L63.2262 70.2324H78.8992L82.896 78.672C83.0336 78.9613 83.0132 79.2957 82.8415 79.5668C82.6704 79.838 82.3764 79.9999 82.056 79.9999Z" fill="#243038"/>
<path fill-rule="evenodd" clip-rule="evenodd" d="M38.9304 79.3457C39.0179 79.4647 39.157 79.535 39.3049 79.535H44.3816C44.7225 79.535 51.6281 70.6978 51.6281 70.6978H32.5583L38.9304 79.3457Z" fill="#C0C6CB"/>
<path fill-rule="evenodd" clip-rule="evenodd" d="M39.3047 79.0697H44.2321C44.9149 78.4213 48.2824 74.2083 50.6726 71.1627H33.4786L39.3047 79.0697ZM39.3047 79.0701L38.9303 79.3459L39.3047 79.0701ZM44.3814 79.9999H39.3047C39.0103 79.9999 38.7307 79.8585 38.5563 79.6217L31.6382 70.2324H52.5819L51.9945 70.9836C44.9493 79.9999 44.661 79.9999 44.3814 79.9999Z" fill="#243038"/>
</g>
</svg>
