<svg fill="none" height="18" viewBox="0 0 18 18" width="18" xmlns="http://www.w3.org/2000/svg"><g fill="#000"><path d="m13.9092 9.57248c.0088-.68993.1921-1.3664.5327-1.96647s.8274-1.10425 1.4152-1.46561c-.3734-.53329-.866-.97216-1.4387-1.28177-.5727-.3096-1.2097-.48141-1.8604-.50176-1.3881-.14571-2.73371.83059-3.44105.83059-.72102 0-1.81006-.81613-2.98279-.792-.75855.0245-1.49781.24509-2.14576.64025s-1.1825.95143-1.55154 1.6146c-1.598606 2.76779-.40619 6.83549 1.12516 9.07279.76618 1.0956 1.66161 2.3193 2.83328 2.2759 1.14654-.0475 1.57475-.7311 2.95872-.7311 1.37118 0 1.77288.7311 2.96828.7035 1.2303-.0199 2.0055-1.1004 2.7448-2.2063.5505-.7806.9741-1.6433 1.2551-2.5563-.7148-.3023-1.3247-.8083-1.7538-1.4549-.4291-.6467-.6584-1.4053-.6592-2.18142z"/><path d="m11.6514 2.88535c.6708-.80528 1.0013-1.84033.9212-2.88535-1.0248.107639-1.9715.597447-2.65135 1.37183-.33241.3783-.587.81842-.74921 1.29517-.16222.47676-.22888.98082-.19618 1.48335.51261.00528 1.01973-.10583 1.48314-.32495.4635-.21912.8711-.54054 1.1924-.94005z"/></g></svg>