<svg fill="none" height="509" viewBox="0 0 1746 509" width="1746" xmlns="http://www.w3.org/2000/svg"><path d="m651.317 86.1794c0-50.8125 38.484-85.1042 89.059-85.1042 39.717 0 61.179 22.45 71.783 43.9084l-36.508 17.5125c-5.425-13.075-19.488-23.9209-35.275-23.9209-26.892 0-45.884 20.4709-45.884 47.6042 0 26.8916 18.992 47.6126 45.884 47.6126 15.787 0 29.85-10.854 35.275-23.929l36.508 17.271c-10.604 20.962-32.066 44.154-71.783 44.154-50.575 0-89.059-34.534-89.059-85.1086z" fill="#ed1b29"/><path d="m919.442 45.721-20.971 61.925h41.696zm40.459 122.608-8.142-23.683h-64.879l-8.142 23.683h-48.104l61.921-164.5414h53.533l61.912 164.5414z" fill="#ed1b29"/><path d="m1151.79 168.329-69.57-95.2247v95.2247h-42.43v-164.5414h43.66l66.62 90.5334v-90.5334h42.67v164.5414z" fill="#ed1b29"/><path d="m1286.45 168.329-61.92-164.5414h48.1l40.71 118.6544 40.46-118.6544h48.1l-61.92 164.5414z" fill="#ed1b29"/><path d="m1494.13 45.721-20.97 61.925h41.7zm40.46 122.608-8.14-23.683h-64.88l-8.14 23.683h-48.1l61.91-164.5414h53.54l61.91 164.5414z" fill="#ed1b29"/><path d="m1601.65 145.146 22.45-33.062c11.85 11.841 30.1 21.708 52.79 21.708 14.31 0 23.19-4.933 23.19-13.075 0-21.7084-93-3.7-93-67.1001 0-27.6292 23.19-52.30001 65.37-52.30001 26.4 0 49.35 7.89584 66.86 22.94581l-23.2 31.8251c-13.81-11.5917-31.81-17.2709-48.1-17.2709-12.33 0-17.76 4.1917-17.76 11.35 0 20.225 93 4.9334 93 66.1121 0 33.055-24.42 55.009-68.58 55.009-33.3 0-56.49-10.604-73.02-26.142z" fill="#ed1b29"/><path d="m662.847 504.421v-217.55h46.633v176.779h91.988v40.771z" fill="#193f4e"/><path d="m1018.68 504.421v-156.887l-61.321 156.887h-20.216l-61.326-156.887v156.887h-46.312v-217.55h64.908l52.838 136.009 52.829-136.009h65.25v217.55z" fill="#193f4e"/><path d="m1090.09 473.759 25.45-36.204c15.33 15.987 39.14 29.683 69.14 29.683 25.77 0 37.84-11.417 37.84-24.133 0-37.834-125.25-11.417-125.25-93.284 0-36.204 31.31-66.208 82.52-66.208 34.58 0 63.28 10.437 84.81 30.333l-25.77 34.567c-17.61-16.309-41.1-23.809-63.28-23.809-19.57 0-30.66 8.48-30.66 21.53 0 34.25 124.92 11.087 124.92 92.3 0 39.791-28.7 69.8-87.08 69.8-42.08 0-72.09-14.021-92.64-34.575z" fill="#193f4e"/><path d="m499.471 2.34619h-499.471v502.07981h499.471z" fill="#ed1b29"/><g fill="#fff"><path d="m142.055 253.059c0-22.4-16.813-40.838-38.492-43.5-3.6 13.895-5.5083 28.47-5.5083 43.5 0 15.012 1.9083 29.608 5.5083 43.5 21.692-2.663 38.492-21.109 38.492-43.5z"/><path d="m167.546 239.3c-7.596 0-13.75 6.167-13.75 13.759 0 7.587 6.154 13.75 13.75 13.75 7.6 0 13.758-6.163 13.758-13.75 0-7.592-6.158-13.759-13.758-13.759z"/><path d="m357.413 253.059c0 22.391 16.804 40.837 38.492 43.5 3.591-13.892 5.512-28.488 5.512-43.5 0-15.03-1.921-29.605-5.512-43.5-21.688 2.662-38.492 21.1-38.492 43.5z"/><path d="m331.917 239.3c-7.605 0-13.759 6.167-13.759 13.759 0 7.587 6.154 13.75 13.759 13.75 7.591 0 13.758-6.163 13.758-13.75 0-7.592-6.167-13.759-13.758-13.759z"/><path d="m249.446 361.121c-22.391 0-40.833 16.817-43.5 38.492 13.909 3.591 28.479 5.508 43.513 5.508 15.029 0 29.587-1.917 43.492-5.508-2.659-21.675-21.096-38.492-43.505-38.492z"/><path d="m249.454 321.867c-7.604 0-13.75 6.167-13.75 13.763 0 7.6 6.146 13.758 13.75 13.758 7.592 0 13.746-6.158 13.746-13.758 0-7.596-6.154-13.763-13.746-13.763z"/><path d="m249.454 145.654c22.4 0 40.834-16.812 43.5-38.491-13.904-3.584-28.47-5.509-43.5-5.509-15.025 0-29.6 1.925-43.504 5.509 2.663 21.679 21.1 38.491 43.504 38.491z"/><path d="m249.454 157.4c-7.604 0-13.75 6.155-13.75 13.755 0 7.587 6.146 13.75 13.75 13.75 7.592 0 13.746-6.163 13.746-13.75 0-7.6-6.154-13.755-13.746-13.755z"/><path d="m325.725 329.321c-15.816 15.834-16.987 40.734-3.571 57.938 25.355-14.942 46.567-36.163 61.501-61.521-17.209-13.4-42.101-12.229-57.93 3.583z"/><path d="m297.963 301.571c-5.358 5.375-5.358 14.083 0 19.45 5.383 5.375 14.083 5.375 19.458 0 5.363-5.367 5.363-14.075 0-19.45-5.375-5.371-14.075-5.371-19.458 0z"/><path d="m173.421 177.021c15.825-15.821 16.987-40.721 3.571-57.929-25.359 14.946-46.567 36.154-61.505 61.504 17.209 13.425 42.113 12.25 57.934-3.575z"/><path d="m181.721 185.329c-5.358 5.367-5.358 14.084 0 19.451 5.371 5.37 14.083 5.37 19.454 0 5.367-5.367 5.367-14.084 0-19.451-5.371-5.362-14.083-5.362-19.454 0z"/><path d="m325.633 176.88c15.825 15.821 40.717 16.991 57.925 3.575-14.933-25.359-36.145-46.567-61.5-61.509-13.416 17.209-12.245 42.109 3.575 57.934z"/><path d="m317.33 204.634c5.358-5.367 5.358-14.084 0-19.45-5.375-5.367-14.096-5.367-19.455 0-5.362 5.366-5.362 14.083 0 19.45 5.359 5.362 14.08 5.362 19.455 0z"/><path d="m173.341 329.159c-15.821-15.821-40.716-16.992-57.929-3.588 14.942 25.359 36.154 46.579 61.513 61.521 13.421-17.208 12.25-42.1-3.584-57.933z"/><path d="m181.65 301.405c-5.354 5.375-5.354 14.079 0 19.45 5.375 5.366 14.088 5.366 19.45 0 5.375-5.371 5.375-14.075 0-19.45-5.362-5.371-14.075-5.371-19.45 0z"/></g></svg>