<svg fill="none" height="500" viewBox="0 0 500 500" width="500" xmlns="http://www.w3.org/2000/svg"><path clip-rule="evenodd" d="m249.627 72.3881c36.94 0 67.164-27.612 71.642-63.43288-22.762-5.59701-46.642-8.95522-71.642-8.95522-24.627 0-48.881 3.35821-71.642 8.95522 4.478 35.82088 34.701 63.43288 71.642 63.43288zm-240.29873 105.2239c35.82093 4.478 63.43283 34.701 63.43283 71.642 0 36.94-27.6119 67.164-63.43283 71.642-5.97015-22.762-8.955223-47.015-8.955223-71.642s2.985073-48.881 8.955223-71.642zm128.35773 71.642c0 12.57-10.19 22.761-22.761 22.761-12.57 0-22.7609-10.191-22.7609-22.761 0-12.571 10.1909-22.761 22.7609-22.761 12.571 0 22.761 10.19 22.761 22.761zm289.926 0c0 36.94 27.612 67.164 63.433 71.642 5.97-22.762 8.955-47.015 8.955-71.642s-2.985-48.881-8.955-71.642c-35.821 4.478-63.433 34.701-63.433 71.642zm-19.403 0c0 12.57-10.191 22.761-22.761 22.761-12.571 0-22.762-10.191-22.762-22.761 0-12.571 10.191-22.761 22.762-22.761 12.57 0 22.761 10.19 22.761 22.761zm-158.582 177.985c-36.941 0-67.164 27.612-71.642 63.433 22.761 5.97 47.015 8.955 71.642 8.955s48.88-2.985 71.642-8.955c-4.478-35.821-34.702-63.433-71.642-63.433zm22.761-41.791c0 12.57-10.191 22.761-22.761 22.761-12.571 0-22.761-10.191-22.761-22.761 0-12.571 10.19-22.761 22.761-22.761 12.57 0 22.761 10.19 22.761 22.761zm0-270.896c0 12.571-10.191 22.761-22.761 22.761-12.571 0-22.761-10.19-22.761-22.761 0-12.57 10.19-22.761 22.761-22.761 12.57 0 22.761 10.191 22.761 22.761zm102.985 260.448c-26.119 26.119-27.985 67.164-5.97 95.522 41.791-24.626 76.866-59.701 101.119-101.119-27.985-22.388-69.03-20.522-95.149 5.597zm-7.09-29.851c0 12.571-10.19 22.761-22.761 22.761-12.57 0-22.761-10.19-22.761-22.761 0-12.57 10.191-22.761 22.761-22.761 12.571 0 22.761 10.191 22.761 22.761zm-243.656-220.895c26.119-26.1197 27.985-67.1644 5.97-95.5227-41.7911 24.6269-76.8657 59.7015-101.1195 101.1197 27.9851 22.388 69.0299 20.149 95.1495-5.597zm52.239 29.477c0 12.571-10.191 22.762-22.762 22.762-12.57 0-22.761-10.191-22.761-22.762 0-12.57 10.191-22.761 22.761-22.761 12.571 0 22.762 10.191 22.762 22.761zm198.134-29.85c26.119 26.119 67.164 27.985 95.522 5.97-24.627-41.7913-59.701-76.8659-101.119-101.1197-22.388 27.9851-20.149 69.0299 5.597 95.1497zm-6.717 29.85c0 12.571-10.19 22.762-22.761 22.762-12.57 0-22.761-10.191-22.761-22.762 0-12.57 10.191-22.761 22.761-22.761 12.571 0 22.761 10.191 22.761 22.761zm-244.029 220.896c-26.1198-26.12-67.1645-27.985-95.5227-5.97 24.6268 41.791 59.7014 76.865 101.1197 101.492 22.388-28.358 20.522-69.403-5.597-95.522zm52.612-29.478c0 12.571-10.191 22.761-22.762 22.761-12.57 0-22.761-10.19-22.761-22.761 0-12.57 10.191-22.761 22.761-22.761 12.571 0 22.762 10.191 22.762 22.761z" fill="#e02d27" fill-rule="evenodd"/></svg>