<svg fill="none" height="18" viewBox="0 0 18 18" width="18" xmlns="http://www.w3.org/2000/svg"><g fill="#0a4d7f"><path d="m5.23774 10.1743c-.70564.8003-.00861 1.1789-.00861 1.1789.02582.0173.05164.0259.07745.0345-.10326-.4303-.11187-.8347-.06884-1.2134z"/><path d="m9.80697 11.2066c-.55075.37-1.18754 1.6178-1.18754 1.6178h-.33561c.21513-.4733.35282-.8691.43887-1.1875-.08605.0258-.12908.043-.12908.043-.66261.2237-1.33383.3442-1.92759.3528.62819.9294 1.76409 1.1015 1.76409 1.1015 1.60059.2151 2.82259-.6626 3.47659-1.2994-1.3511-.7487-2.09973-.6282-2.09973-.6282z"/><path d="m14.9962 7.75623s1.0584-2.62463-1.3597-4.42315c0 0-3.87239-2.547181-6.03233 1.70386 0 0-1.54896-1.54896-3.45935-.34422-1.63501 1.02404-1.35964 2.4095-1.21335 3.10653 0 0-3.080715.90357-2.92581876 4.19085.12047476 2.4439 2.47833876 3.1839 3.39910876 3.3732.19792.0431.40445.0603.61098.0603h10.11986c.1979 0 .3959-.0172.5938-.0603.9294-.1893 3.3131-.9207 3.27-3.5195-.0602-3.20983-3.0032-4.08757-3.0032-4.08757zm-6.64337 5.89467c-2.04807-.0258-2.77952-1.5576-2.77952-1.5576-.04303-.086-.07745-.1635-.11187-.2409-.55935-.2066-.89496-.6024-.81751-1.1962.07745-.5937.74867-1.1789.74867-1.1789.38724-1.20475 1.26498-2.03087 1.26498-2.03087s.73145-.78308 1.54036-1.18753l1.39406.21513c-3.15816 1.2908-3.32166 3.94987-3.32166 3.94987-.01721.4044.02582.74.12047 1.0326.23235-.0172.40446-.043.40446-.043.78308-.1205 1.4543-.327 2.02225-.5766-.01721-.5249-.25816-.654-.25816-.654s-.28397-.32697-1.46291-.51629l.11187-.15489s.58517.12908 1.23917 0c.71425-.13769 1.37686-.62819 2.10831-1.63502l.3528-.01721c-.7142.94659-.7659 1.66944-.6454 2.14271.7143-.53351 1.0499-.9982 1.0499-.9982 1.2908-1.79851-.4991-1.52314-.4991-1.52314l.5335-.6368c2.7365.59377.2237 3.0635.2237 3.0635-.2925.30114-.6109.55934-.9379.77444.043.0517.5163.5336 1.4284.9724.241-.2581.3615-.4388.3615-.4388l.3614.0688c-2.1169 2.5558-4.43177 2.3665-4.43177 2.3665zm.97241-5.1288c-.00861.30119-.25816.54214-.55935.55075-.33561.0086-.60237-.26677-.58516-.60238.0086-.30118.25816-.54214.55935-.55074.327-.00861.60237.26676.58516.60237z"/></g></svg>