<svg fill="none" height="18" viewBox="0 0 18 18" width="18" xmlns="http://www.w3.org/2000/svg" xmlns:xlink="http://www.w3.org/1999/xlink"><clipPath id="a"><path d="m0 0h18v18h-18z"/></clipPath><clipPath id="b"><path d="m.456055 0h17.0886v18h-17.0886z"/></clipPath><g clip-path="url(#a)"><g clip-path="url(#b)"><path clip-rule="evenodd" d="m17.5447 4.63359c-1.4994-2.79458-4.4982-4.63359-8.06506-4.63359-4.9888 0-9.023585 4.01766-9.023585 8.99541 0 4.97779 4.034785 8.99549 9.023585 9.00449 3.56676 0 6.56546-1.8389 8.06506-4.6336l-3.0988-1.7167c-1.0313 1.7891-2.7034 2.917-4.96613 2.917-3.04871 0-5.43417-2.5229-5.43417-5.56667 0-3.04372 2.38546-5.56666 5.43417-5.56666 2.26273 0 3.93483 1.12778 4.96613 2.91702z" fill="#1464ff" fill-rule="evenodd"/></g></g></svg>