<svg fill="none" height="18" viewBox="0 0 18 18" width="18" xmlns="http://www.w3.org/2000/svg" xmlns:xlink="http://www.w3.org/1999/xlink"><clipPath id="a"><path d="m0 0h18v18h-18z"/></clipPath><g clip-path="url(#a)"><path d="m18 9c0-4.97056-4.0294-9-9-9-4.97056 0-9 4.02944-9 9 0 4.2208 2.90574 7.7624 6.82582 8.735v-5.9847h-1.85588v-2.7503h1.85588v-1.18508c0-3.06332 1.38628-4.48316 4.39368-4.48316.5702 0 1.5541.11178 1.9565.2236v2.49314c-.2124-.02235-.5813-.03355-1.0397-.03355-1.4758 0-2.046.55901-2.046 2.0124v.97265h2.9398l-.5051 2.7503h-2.4347v6.1838c4.4563-.5383 7.9097-4.3327 7.9097-8.9341z" fill="#0866ff"/><path d="m12.5239 11.7503.505-2.75024h-2.9397v-.97269c0-1.45339.5701-2.01236 2.0459-2.01236.4584 0 .8273.01116 1.0397.03352v-2.49311c-.4024-.11182-1.3863-.22363-1.9564-.22363-3.00745 0-4.39378 1.41987-4.39378 4.48319v1.18508h-1.85587v2.75024h1.85587v5.9847c.69635.1728 1.42445.2651 2.17419.2651.36914 0 .73288-.0228 1.09039-.066v-6.1838z" fill="#fff"/></g></svg>