<svg fill="none" height="18" viewBox="0 0 18 18" width="18" xmlns="http://www.w3.org/2000/svg" xmlns:xlink="http://www.w3.org/1999/xlink"><clipPath id="a"><path d="m0 0h18v18h-18z"/></clipPath><clipPath id="b"><path d="m0 0h18v18h-18z"/></clipPath><g clip-path="url(#a)"><g clip-path="url(#b)"><path clip-rule="evenodd" d="m8.97318 0c-4.96193 0-8.97318 4.125-8.97318 9.22819 0 4.07921 2.57014 7.53221 6.13561 8.75441.44578.0918.60906-.1986.60906-.4429 0-.2139-.01469-.9473-.01469-1.7113-2.49612.5501-3.01592-1.1001-3.01592-1.1001-.40114-1.0695-.99551-1.3444-.99551-1.3444-.81698-.5653.05951-.5653.05951-.5653.90625.0611 1.38178.9473 1.38178.9473.8021 1.4055 2.09461 1.0083 2.61459.7638.0742-.5958.31206-1.0083.56461-1.2375-1.99084-.2139-4.08545-1.0083-4.08545-4.55301 0-1.00838.35633-1.83338.92094-2.475-.08908-.22913-.40114-1.17656.08927-2.44463 0 0 .75765-.2445 2.466.94725.7314-.202 1.48569-.30476 2.24338-.30562.75766 0 1.53002.10706 2.24322.30562 1.7085-1.19175 2.4662-.94725 2.4662-.94725.4904 1.26807.1781 2.2155.0891 2.44463.5794.64162.9211 1.46662.9211 2.475 0 3.54471-2.0946 4.32371-4.1004 4.55301.327.2903.6091.8402.6091 1.7112 0 1.2375-.0147 2.2307-.0147 2.5361 0 .2445.1635.5349.6091.4432 3.5654-1.2224 6.1356-4.6753 6.1356-8.75451.0147-5.10319-4.0113-9.22819-8.95832-9.22819z" fill="#24292f" fill-rule="evenodd"/></g></g></svg>