<svg fill="none" height="18" viewBox="0 0 18 18" width="18" xmlns="http://www.w3.org/2000/svg" xmlns:xlink="http://www.w3.org/1999/xlink"><mask id="a" height="18" maskUnits="userSpaceOnUse" width="18" x="0" y="0"><path d="m18 0h-18v18h18z" fill="#fff"/></mask><g mask="url(#a)"><path d="m17.64 9.20454c0-.63819-.0572-1.25181-.1636-1.84095h-8.4764v3.48141h4.8436c-.2086 1.125-.8426 2.0782-1.7958 2.7163v2.2582h2.9086c1.7018-1.5668 2.6836-3.8741 2.6836-6.61496z" fill="#4285f4"/><path d="m8.99998 18c2.43002 0 4.46722-.8059 5.95632-2.1804l-2.9087-2.2582c-.8058.54-1.8368.8591-3.04762.8591-2.34414 0-4.3282-1.5832-5.03596-3.7105h-3.006806v2.3318c1.480946 2.9414 4.524566 4.9582 8.042766 4.9582z" fill="#34a853"/><path d="m3.96405 10.7101c-.18-.54-.28224-1.11685-.28224-1.71004s.10224-1.17.28224-1.71v-2.33181h-3.00681c-.60948 1.215-.95724 2.58957-.95724 4.04181s.34776 2.82684.95724 4.04184z" fill="#fbbc04"/><path d="m9.00001 3.57957c1.32129 0 2.50769.45405 3.44039 1.34586l2.5814-2.58138c-1.5586-1.45224-3.5959-2.34405-6.02179-2.34405-3.51819 0-6.56182 2.01681-8.042765 4.95819l3.006815 2.33181c.70776-2.12724 2.69181-3.71043 5.03595-3.71043z" fill="#e94235"/></g></svg>