<svg fill="none" height="18" viewBox="0 0 18 18" width="18" xmlns="http://www.w3.org/2000/svg" xmlns:xlink="http://www.w3.org/1999/xlink"><clipPath id="a"><path d="m0 0h18v18h-18z"/></clipPath><g clip-path="url(#a)"><path d="m17.9999 9.20448c0-.63819-.0584-1.25181-.1669-1.84095h-8.64941v3.48137h4.94251c-.2129 1.125-.8599 2.0782-1.8325 2.7164v2.2582h2.9679c1.7366-1.5668 2.7384-3.8742 2.7384-6.61502z" fill="#4285f4"/><path d="m9.18346 18c2.47964 0 4.55844-.806 6.07784-2.1805l-2.968-2.2582c-.8223.54-1.8743.8591-3.10984.8591-2.39198 0-4.41652-1.5832-5.13872-3.7104h-3.068178v2.3318c1.511178 2.9414 4.616908 4.9582 8.206898 4.9582z" fill="#34a853"/><path d="m4.04495 10.7101c-.18367-.54-.288-1.11685-.288-1.71004s.10433-1.17.288-1.71v-2.33181h-3.068175c-.621918 1.215-.976775 2.58957-.976775 4.04181s.354857 2.82684.976775 4.04184z" fill="#fbbc04"/><path d="m9.18346 3.57957c1.34824 0 2.55884.45405 3.51064 1.34586l2.6341-2.58138c-1.5905-1.45224-3.6694-2.34405-6.14474-2.34405-3.58999 0-6.69572 2.01681-8.206898 4.95819l3.068178 2.33181c.7222-2.12724 2.74674-3.71043 5.13872-3.71043z" fill="#e94235"/></g></svg>