<svg xmlns="http://www.w3.org/2000/svg" viewBox="0 0 127 18"><path fill="#0c1924" d="M32.665 0v1.857c0 1.185-.648 2.1-2.051 2.1h-.641c.998 1.012 1.458 2.24 1.58 3.176h.786v6.163c0 2.556 1.62 4.09 4.208 4.09 1.053 0 1.699-.188 2.023-.322v-2.961c-.19.053-.674.107-1.106.107-1.025 0-1.565-.376-1.565-1.534V7.133h2.673V3.957h-2.67V0ZM78.43 0v1.857c0 1.185-.648 2.1-2.051 2.1h-.908v.048a7.34 7.34 0 0 1 2.109 3.128h.526v6.163c0 2.556 1.62 4.09 4.208 4.09 1.053 0 1.699-.188 2.023-.322v-2.961c-.19.053-.674.107-1.106.107-1.025 0-1.565-.376-1.565-1.534V7.133h2.67V3.957h-2.67V0ZM0 .671V17.2h3.589V.67Zm69.853 2.83c-3.858 0-6.878 2.96-6.878 7.025 0 4.064 3.073 7.025 6.986 7.025 3.533 0 5.611-2.262 6.204-4.469l-3.157-1.05c-.297 1.022-1.214 2.233-3.049 2.233s-3.4-1.345-3.4-3.74l.003.002c0-2.396 1.592-3.714 3.373-3.714 1.78 0 2.617 1.13 2.94 2.233l3.21-1.077c-.566-2.235-2.617-4.468-6.232-4.468Zm-44.954.051c-2.86 0-4.963 1.964-4.963 4.333 0 1.857 1.16 3.391 3.723 3.956l1.754.405c1.024.215 1.43.7 1.43 1.292 0 .7-.567 1.319-1.754 1.319-1.564 0-2.346-.968-2.428-2.018v.002l-3.076.672c.161 1.506 1.538 4.091 5.53 4.091 3.481 0 5.153-2.207 5.153-4.36 0-1.94-1.321-3.526-3.939-4.065l-1.888-.404c-.727-.134-1.214-.539-1.214-1.185 0-.754.754-1.319 1.699-1.319 1.511 0 2.077.996 2.185 1.776l2.994-.672c-.16-1.427-1.43-3.823-5.206-3.823Zm90.498 0c-3.399 0-6.528 2.745-6.528 6.972 0 4.467 3.21 7.078 6.852 7.078 3.265 0 5.369-1.91 6.043-4.198h-.002l-2.994-.889c-.432 1.183-1.348 2.019-3.02 2.019-1.78 0-3.264-1.265-3.345-3.014h9.495c0-.053.053-.592.053-1.104 0-4.253-2.454-6.864-6.554-6.864zm-102.042.055c-1.43 0-3.023.618-3.831 1.991V3.957h-3.48V17.2h3.589V9.583c0-1.534.917-2.745 2.481-2.745 1.726 0 2.455 1.158 2.455 2.637V17.2h3.588V8.856c0-2.908-1.51-5.25-4.802-5.25m34.146.242c-1.133 0-2.968.323-3.776 2.072V3.957h-3.481v13.24h3.588v-6.055c0-2.853 1.591-3.741 3.426-3.741.324 0 .674.027 1.08.108V3.902c-.271-.027-.54-.053-.837-.053m60.314 0c-1.133 0-2.968.323-3.776 2.072V3.957h-3.481v13.24h3.589v-6.055c0-2.853 1.59-3.741 3.425-3.741.324 0 .675.027 1.08.108V3.902c-.271-.027-.54-.053-.837-.053m-58.084.108v8.37c0 2.881 1.835 5.222 5.045 5.222 1.401 0 2.94-.539 3.668-1.776h.002c0 .538.055 1.158.108 1.427h3.426a22 22 0 0 1-.134-2.396V3.957h-3.589v7.697c0 1.534-.837 2.611-2.51 2.611s-2.427-1.185-2.427-2.664V3.957Zm36.26 0v8.37c0 2.881 1.835 5.222 5.045 5.222 1.401 0 2.939-.539 3.668-1.776h.002c0 .538.054 1.158.108 1.427h3.426a22 22 0 0 1-.135-2.396V3.957h-3.588v7.697c0 1.534-.837 2.611-2.51 2.611s-2.428-1.185-2.428-2.664V3.957Zm29.46 2.503c2.05 0 2.912 1.292 2.967 2.611h-5.935c.081-1.211 1.106-2.611 2.968-2.611"/><path fill="#ec1c24" d="M127 15.45a2.157 2.152 0 0 1-2.157 2.152 2.157 2.152 0 0 1-2.157-2.152 2.157 2.152 0 0 1 2.157-2.152A2.157 2.152 0 0 1 127 15.45"/></svg>