<svg fill="none" height="18" viewBox="0 0 127 18" width="127" xmlns="http://www.w3.org/2000/svg"><g fill="#273540"><path d="m24.0156 15.6303v-13.3803h2.2247v13.3803z"/><path d="m30.1406 15.6303v-13.3803h2.2247l2.7989 8.2819v-8.2819h2.0333v13.3803h-2.1051l-2.9184-8.71275v8.71275z"/><path d="m56.7645 4.18871h-2.2247v11.44149h-2.2248v-11.44149h-2.2486v-1.96276h6.6981z"/><path d="m64.8517 15.6303-1.6985-5.3378h-1.1004v5.3378h-2.2247v-13.3803h3.4687c2.0333 0 3.3729.81383 3.3729 2.82446v2.39362c0 1.29255-.5263 2.08245-1.4592 2.48936l1.9137 5.67286zm-2.7989-7.25265h1.1722c.7176 0 1.22-.26329 1.22-1.22074v-1.74734c0-.95745-.5024-1.22075-1.22-1.22075h-1.1722z"/><path d="m77.0032 12.9494c0 2.0585-1.2917 2.8244-3.3251 2.8244h-.0717c-2.0334 0-3.3252-.742-3.3252-2.8244v-10.72345h2.2248v10.36435c0 .9575.4306 1.2208 1.1482 1.2208.7177 0 1.1482-.2633 1.1482-1.2208v-10.36435h2.2248v10.72345z"/><path d="m87.4813 12.9494c0 2.0585-1.3397 2.8245-3.373 2.8245h-.0478c-2.0334 0-3.373-.742-3.373-2.8245v-8.04254c0-1.9867 1.3396-2.82446 3.373-2.82446h.0478c2.0333 0 3.373.83776 3.373 2.82446v1.55585h-2.2248v-1.19681c0-.93351-.4545-1.22073-1.1721-1.22073-.7177 0-1.1722.28722-1.1722 1.22073v7.3484c0 .9335.4545 1.2208 1.1722 1.2208.7176 0 1.1721-.2873 1.1721-1.2208v-1.5319h2.2248z"/><path d="m96.9993 4.18871h-2.2486v11.44149h-2.2247v-11.44149h-2.2487v-1.96276h6.6981v1.96276z"/><path d="m106.738 12.9494c0 2.0585-1.292 2.8244-3.325 2.8244h-.072c-2.034 0-3.325-.742-3.325-2.8244v-10.72345h2.224v10.36435c0 .9575.431 1.2208 1.149 1.2208.717 0 1.148-.2633 1.148-1.2208v-10.36435h2.225v10.72345z"/><path d="m115.563 15.6303-1.699-5.3378h-1.1v5.3378h-2.225v-13.3803h3.469c2.033 0 3.373.81383 3.373 2.82446v2.39362c0 1.29255-.527 2.08245-1.46 2.48936l1.914 5.67286zm-2.823-7.25265h1.172c.718 0 1.22-.26329 1.22-1.22074v-1.74734c0-.95745-.502-1.22075-1.22-1.22075h-1.172z"/><path d="m45.1872 6.12761v-.98139c0-.83776-.4784-1.14893-1.1243-1.14893s-1.1243.31117-1.1243 1.14893v.90958c0 .69415.2392 1.00532.8612 1.36436l1.5788.88564c1.2918.71809 2.0573 1.31649 2.0573 2.7527v1.9388c0 2.0585-1.2918 2.8005-3.3012 2.8005h-.0479c-2.0333 0-3.3012-.7181-3.3012-2.8005v-1.4362h2.1769v1.125c0 .8138.4784 1.1968 1.1482 1.1968.6699 0 1.1483-.359 1.1483-1.1968v-1.0532c0-.6941-.2153-1.0292-.8851-1.3883l-1.5549-.88561c-1.2918-.74202-2.0573-1.36436-2.0573-2.75266v-1.77127c0-1.98671 1.4592-2.75266 3.2773-2.75266h.0478c1.842 0 3.2773.76595 3.2773 2.75266v1.29255z"/><path d="m121.066 15.6063v-13.38035h5.861v1.96276h-3.636v3.66224h3.062v1.96276h-3.062v3.85369h3.708v1.9389z"/><path d="m0 13.5 7.98983-4.5 7.98987 4.5-7.98987 4.5z"/><path d="m3.99491 2.25-3.99491 2.25 3.99491 2.25 3.99492-2.25z"/><path d="m7.99101 0-3.99492 2.25001 3.99492 2.24999 3.99489-2.24999z"/><path d="m11.9832 2.25-3.99492 2.25 3.99492 2.25 3.9949-2.25z"/></g></svg>