<svg fill="none" height="18" viewBox="0 0 18 18" width="18" xmlns="http://www.w3.org/2000/svg" xmlns:xlink="http://www.w3.org/1999/xlink"><clipPath id="a"><path d="m0 0h18v18h-18z"/></clipPath><g clip-path="url(#a)"><path clip-rule="evenodd" d="m16.4963 0c.8305 0 1.5037.67277 1.5037 1.50371v14.99259c0 .8305-.6728 1.5037-1.5037 1.5037h-14.99259c-.830476 0-1.50371-.6728-1.50371-1.5037v-14.99259c0-.830476.67277-1.50371 1.50371-1.50371zm-4.3294 6.75c-1.2775 0-2.1516.56462-2.54077 1.22063l-.06363.11662v-1.22475h-2.4375v8.625h2.625v-4.1779c0-1.40022.5156-2.29085 1.755-2.29085.8548 0 1.2134.75585 1.243 2.10345l.002.1874v4.1779h2.625v-4.7636c0-2.57215-.6154-3.9739-3.2081-3.9739zm-6.9169 0h-2.625v8.625h2.625zm-1.3125-4.5c-.93187 0-1.6875.75563-1.6875 1.6875 0 .93188.75563 1.6875 1.6875 1.6875.93188 0 1.6875-.75562 1.6875-1.6875 0-.93187-.75562-1.6875-1.6875-1.6875z" fill="#2867b2" fill-rule="evenodd"/></g></svg>