<svg fill="none" height="750" viewBox="0 0 750 750" width="750" xmlns="http://www.w3.org/2000/svg"><g clip-rule="evenodd" fill="#2573df" fill-rule="evenodd"><path d="m270.553 14.738c33.155-9.59539 68.2-14.738 104.447-14.738s71.292 5.14261 104.447 14.738c-7.169 51.2719-51.2 90.731-104.447 90.731s-97.278-39.4591-104.447-90.731zm464.709 255.815c9.595 33.155 14.738 68.2 14.738 104.447s-5.143 71.292-14.738 104.447c-51.272-7.169-90.731-51.2-90.731-104.447s39.459-97.278 90.731-104.447zm-31.685 285.319c-34.257 62.099-85.606 113.448-147.705 147.705-31.168-41.323-27.929-100.345 9.715-137.99 37.645-37.644 96.667-40.883 137.99-9.715zm-224.13 179.39c-33.155 9.595-68.2 14.738-104.447 14.738s-71.292-5.143-104.447-14.738c7.169-51.272 51.2-90.731 104.447-90.731s97.278 39.459 104.447 90.731zm-285.319-31.685c-62.099-34.257-113.448-85.606-147.7046-147.705 41.3228-31.168 100.3446-27.929 137.9896 9.715 37.644 37.645 40.883 96.667 9.715 137.99zm-179.39-224.13c-9.59539-33.155-14.738-68.2-14.738-104.447s5.14261-71.292 14.738-104.447c51.2719 7.169 90.731 51.2 90.731 104.447s-39.4591 97.278-90.731 104.447zm31.6854-285.319c34.2566-62.099 85.6056-113.448 147.7046-147.7046 31.168 41.3228 27.929 100.3446-9.715 137.9896-37.645 37.644-96.6668 40.883-137.9896 9.715zm328.5766 16.81c-19.416 0-35.156-15.74-35.156-35.157 0-19.416 15.74-35.156 35.156-35.156s35.156 15.74 35.156 35.156c0 19.417-15.74 35.157-35.156 35.157zm164.062 164.062c0-19.416 15.74-35.156 35.157-35.156 19.416 0 35.156 15.74 35.156 35.156s-15.74 35.156-35.156 35.156c-19.417 0-35.157-15.74-35.157-35.156zm-48.052 116.01c13.729-13.73 35.989-13.73 49.718 0 13.73 13.729 13.73 35.989 0 49.718-13.729 13.73-35.989 13.73-49.718 0-13.73-13.729-13.73-35.989 0-49.718zm-116.01 48.052c19.416 0 35.156 15.74 35.156 35.157 0 19.416-15.74 35.156-35.156 35.156s-35.156-15.74-35.156-35.156c0-19.417 15.74-35.157 35.156-35.157zm-116.01-48.052c13.73 13.729 13.73 35.989 0 49.718-13.729 13.73-35.989 13.73-49.718 0-13.73-13.729-13.73-35.989 0-49.718 13.729-13.73 35.989-13.73 49.718 0zm-48.052-116.01c0 19.416-15.74 35.156-35.157 35.156-19.416 0-35.156-15.74-35.156-35.156s15.74-35.156 35.156-35.156c19.417 0 35.157 15.74 35.157 35.156zm48.052-116.01c-13.729 13.73-35.989 13.73-49.718 0-13.73-13.729-13.73-35.989 0-49.718 13.729-13.73 35.989-13.73 49.718 0 13.73 13.729 13.73 35.989 0 49.718z"/><path d="m591.5 300c78.148 0 141.5-63.352 141.5-141.5 0-78.1483-63.352-141.5-141.5-141.5s-141.5 63.3517-141.5 141.5c0 78.148 63.352 141.5 141.5 141.5zm-29.639-141.722c0 16.617 13.522 30.14 30.139 30.14s30.139-13.523 30.139-30.14c0-16.616-13.522-30.139-30.139-30.139s-30.139 13.523-30.139 30.139zm30.139-60.2778c37.664 0 72.103 22.2428 89.895 58.0378l1.105 2.24-1.105 2.241c-17.792 35.795-52.231 58.038-89.895 58.038s-72.103-22.243-89.895-58.038l-1.105-2.241 1.105-2.24c17.792-35.795 52.231-58.0378 89.895-58.0378z"/></g></svg>