<svg fill="none" height="750" viewBox="0 0 750 750" width="750" xmlns="http://www.w3.org/2000/svg"><path clip-rule="evenodd" d="m270.553 14.738c33.155-9.59539 68.2-14.738 104.447-14.738s71.292 5.14261 104.447 14.738c-7.169 51.2719-51.2 90.731-104.447 90.731s-97.278-39.4591-104.447-90.731zm285.319 31.6854c62.099 34.2566 113.448 85.6056 147.705 147.7046-41.323 31.168-100.345 27.929-137.99-9.715-37.644-37.645-40.883-96.6668-9.715-137.9896zm179.39 224.1296c9.595 33.155 14.738 68.2 14.738 104.447s-5.143 71.292-14.738 104.447c-51.272-7.169-90.731-51.2-90.731-104.447s39.459-97.278 90.731-104.447zm-31.685 285.319c-34.257 62.099-85.606 113.448-147.705 147.705-31.168-41.323-27.929-100.345 9.715-137.99 37.645-37.644 96.667-40.883 137.99-9.715zm-224.13 179.39c-33.155 9.595-68.2 14.738-104.447 14.738s-71.292-5.143-104.447-14.738c7.169-51.272 51.2-90.731 104.447-90.731s97.278 39.459 104.447 90.731zm-285.319-31.685c-62.099-34.257-113.448-85.606-147.7046-147.705 41.3228-31.168 100.3446-27.929 137.9896 9.715 37.644 37.645 40.883 96.667 9.715 137.99zm-179.39-224.13c-9.59539-33.155-14.738-68.2-14.738-104.447s5.14261-71.292 14.738-104.447c51.2719 7.169 90.731 51.2 90.731 104.447s-39.4591 97.278-90.731 104.447zm31.6854-285.319c34.2566-62.099 85.6056-113.448 147.7046-147.7046 31.168 41.3228 27.929 100.3446-9.715 137.9896-37.645 37.644-96.6668 40.883-137.9896 9.715zm328.5766 16.81c-19.416 0-35.156-15.74-35.156-35.157 0-19.416 15.74-35.156 35.156-35.156s35.156 15.74 35.156 35.156c0 19.417-15.74 35.157-35.156 35.157zm116.01 48.052c-13.73-13.729-13.73-35.989 0-49.718 13.729-13.73 35.989-13.73 49.718 0 13.73 13.729 13.73 35.989 0 49.718-13.729 13.73-35.989 13.73-49.718 0zm48.052 116.01c0-19.416 15.74-35.156 35.157-35.156 19.416 0 35.156 15.74 35.156 35.156s-15.74 35.156-35.156 35.156c-19.417 0-35.157-15.74-35.157-35.156zm-48.052 116.01c13.729-13.73 35.989-13.73 49.718 0 13.73 13.729 13.73 35.989 0 49.718-13.729 13.73-35.989 13.73-49.718 0-13.73-13.729-13.73-35.989 0-49.718zm-116.01 48.052c19.416 0 35.156 15.74 35.156 35.157 0 19.416-15.74 35.156-35.156 35.156s-35.156-15.74-35.156-35.156c0-19.417 15.74-35.157 35.156-35.157zm-116.01-48.052c13.73 13.729 13.73 35.989 0 49.718-13.729 13.73-35.989 13.73-49.718 0-13.73-13.729-13.73-35.989 0-49.718 13.729-13.73 35.989-13.73 49.718 0zm-48.052-116.01c0 19.416-15.74 35.156-35.157 35.156-19.416 0-35.156-15.74-35.156-35.156s15.74-35.156 35.156-35.156c19.417 0 35.157 15.74 35.157 35.156zm48.052-116.01c-13.729 13.73-35.989 13.73-49.718 0-13.73-13.729-13.73-35.989 0-49.718 13.729-13.73 35.989-13.73 49.718 0 13.73 13.729 13.73 35.989 0 49.718z" fill="#e62429" fill-rule="evenodd"/></svg>