<?xml version="1.0" encoding="UTF-8"?>
<svg id="Layer_2" xmlns="http://www.w3.org/2000/svg" version="1.1" viewBox="0 0 70.37 41.32">
  <!-- Generator: Adobe Illustrator 29.5.0, SVG Export Plug-In . SVG Version: 2.1.0 Build 137)  -->
  <defs>
    <style>
      .st0 {
        fill: #273540;
      }
    </style>
  </defs>
  <g id="Layer_1-2">
    <g>
      <path class="st0" d="M8.51,24.3c-4.7,0-8.51,3.81-8.51,8.51h0c0,4.7,3.81,8.51,8.51,8.51s8.51-3.81,8.51-8.51h0c0-4.7-3.81-8.51-8.51-8.51Z"/>
      <path class="st0" d="M35.19,24.3c-1.03,0-2,.19-2.91.52l-5.25-9.57c2.03-1.56,3.34-3.99,3.34-6.75C30.37,3.8,26.56-.01,21.86-.01h0C17.16-.01,13.35,3.8,13.35,8.5s3.81,8.51,8.51,8.51h0c1.03,0,2-.19,2.91-.52l5.25,9.57c-2.03,1.56-3.34,3.99-3.34,6.75h0c0,4.7,3.81,8.51,8.51,8.51s8.51-3.81,8.51-8.51h0c0-4.7-3.81-8.51-8.51-8.51Z"/>
      <path class="st0" d="M61.87,24.3h0c-1.03,0-2,.19-2.92.52l-5.25-9.57c2.03-1.56,3.34-3.99,3.34-6.75C57.04,3.8,53.23-.01,48.53-.01s-8.51,3.81-8.51,8.51,3.81,8.51,8.51,8.51c1.03,0,2-.19,2.91-.52l5.25,9.57c-2.03,1.56-3.34,3.99-3.34,6.75h0c0,4.7,3.81,8.51,8.51,8.51h0c4.7,0,8.51-3.81,8.51-8.51h0c0-4.7-3.81-8.51-8.51-8.51h0Z"/>
    </g>
  </g>
</svg>