<?xml version="1.0" encoding="UTF-8"?>
<svg width="18" height="18" fill="none" version="1.1" viewBox="0 0 18 18" xmlns="http://www.w3.org/2000/svg">
  <path d="m13.147 8.573v-3.1978c0.0021-0.38967-0.10328-0.77237-0.30454-1.1061-0.20121-0.3337-0.4905-0.60547-0.8361-0.78548s-0.73412-0.26127-1.1229-0.23488c-0.3888 0.026398-0.76275 0.15944-1.0808 0.38451-0.31809 0.22507-0.56801 0.53346-0.72231 0.8913-0.15424 0.35783-0.20689 0.75127-0.15216 1.1371 0.05473 0.38581 0.21476 0.74906 0.46249 1.0499 0.24772 0.3008 0.57352 0.52751 0.94168 0.65521zm2.6904 6.183c0.50738 0.01384 1.0027-0.15615 1.3946-0.47857 0.39201-0.32242 0.6543-0.77563 0.73862-1.2761 0.08432-0.50051-0.01502-1.0146-0.27973-1.4476-0.26471-0.43307-0.67697-0.75589-1.1609-0.90911l-2.8126-1.2063v3.1978c5.63e-4 0.56211 0.2241 1.101 0.62156 1.4984 0.39741 0.39746 0.93634 0.62094 1.4984 0.62151zm-9.5492-6.183v-3.1978c0.002194-0.3898-0.10311-0.77265-0.30431-1.1065-0.20126-0.33384-0.49062-0.60573-0.83634-0.78579-0.34571-0.18006-0.73438-0.26132-1.1233-0.23484-0.3889 0.026476-0.76296 0.15966-1.0811 0.38492-0.31812 0.22526-0.56798 0.53386-0.72211 0.89189-0.15413 0.35803-0.20656 0.75162-0.15153 1.1375 0.055029 0.3859 0.21539 0.74915 0.46345 1.0498 0.24806 0.30068 0.57422 0.52714 0.94262 0.6545zm2.6904 6.183c0.5076 0.0144 1.0032-0.15519 1.3956-0.47745 0.3924-0.32226 0.65514-0.77546 0.73974-1.2761s-0.01462-1.0151-0.27934-1.4484c-0.26477-0.43329-0.67719-0.75628-1.1613-0.90951l-2.8126-1.2063v3.1978c5.63e-4 0.56171 0.22382 1.1003 0.62083 1.4977 0.39696 0.39735 0.93532 0.62117 1.497 0.62224zm-6.8567-4.2399c-0.41938-3.93e-4 -0.82946 0.12358-1.1784 0.35629-0.3489 0.23265-0.62095 0.56362-0.78172 0.95096-0.16078 0.38734-0.20306 0.81366-0.1215 1.225 0.081561 0.41136 0.2833 0.7893 0.57969 1.086 0.2964 0.29672 0.67413 0.49882 1.0854 0.58078 0.41129 0.08201 0.83765 0.04011 1.2251-0.12026 0.38749-0.16037 0.71871-0.43211 0.95174-0.78075 0.23303-0.34869 0.35742-0.75864 0.35742-1.178-5.51e-4 -0.56171-0.2238-1.1002-0.62079-1.4977-0.397-0.39741-0.93535-0.62117-1.4971-0.62229z" fill="#0b874b"/>
</svg>
