<?xml version="1.0" encoding="UTF-8"?>
<svg id="Layer_2" data-name="Layer 2" xmlns="http://www.w3.org/2000/svg" viewBox="0 0 70.37 41.32">
  <defs>
    <style>
      .cls-1 {
        fill: #02893c;
      }
    </style>
  </defs>
  <g id="Layer_1-2" data-name="Layer 1">
    <g>
      <path class="cls-1" d="M8.51,24.3c-4.7,0-8.51,3.81-8.51,8.51h0c0,4.7,3.81,8.51,8.51,8.51s8.51-3.81,8.51-8.51h0c0-4.7-3.81-8.51-8.51-8.51Z"/>
      <path class="cls-1" d="M35.19,24.3c-1.03,0-2,.19-2.91.52l-5.25-9.57c2.03-1.56,3.34-3.99,3.34-6.75,0-4.7-3.81-8.51-8.51-8.51h0c-4.7,0-8.51,3.81-8.51,8.51s3.81,8.51,8.51,8.51h0c1.03,0,2-.19,2.91-.52l5.25,9.57c-2.03,1.56-3.34,3.99-3.34,6.75h0c0,4.7,3.81,8.51,8.51,8.51s8.51-3.81,8.51-8.51h0c0-4.7-3.81-8.51-8.51-8.51Z"/>
      <path class="cls-1" d="M61.87,24.3h0c-1.03,0-2,.19-2.92.52l-5.25-9.57c2.03-1.56,3.34-3.99,3.34-6.75,0-4.7-3.81-8.51-8.51-8.51s-8.51,3.81-8.51,8.51,3.81,8.51,8.51,8.51c1.03,0,2-.19,2.91-.52l5.25,9.57c-2.03,1.56-3.34,3.99-3.34,6.75h0c0,4.7,3.81,8.51,8.51,8.51h0c4.7,0,8.51-3.81,8.51-8.51h0c0-4.7-3.81-8.51-8.51-8.51Z"/>
    </g>
  </g>
</svg>