<svg width="1rem" height="1rem" viewBox="0 0 32 32" version="1.1" xmlns="http://www.w3.org/2000/svg" xmlns:xlink="http://www.w3.org/1999/xlink">
  <g id="Page-1" stroke="none" stroke-width="1" fill="none" fill-rule="evenodd">
    <g id="MC-header-v2" transform="translate(-102.000000, -12.000000)" fill="#4C5860">
      <path d="M110.291189,39.0251005 C110.291189,40.8570264 108.806825,42.3413896 106.9749,42.3413896 C105.142974,42.3413896 103.65861,40.8570264 103.65861,39.0251005 C103.65861,37.1931745 105.142974,35.7088114 106.9749,35.7088114 C108.806825,35.7088114 110.291189,37.1931745 110.291189,39.0251005 Z M134,18.63351 C134,22.2973618 131.02941,25.26702 127.36649,25.26702 C123.70357,25.26702 120.73298,22.2973618 120.73298,18.63351 C120.73298,14.9705899 123.70357,12 127.36649,12 C131.02941,12 134,14.9705899 134,18.63351 Z M114.913866,25.8689651 C113.081009,24.0062897 111.949799,21.4531477 111.949799,18.63351 C111.949799,15.8856211 109.722788,13.6586104 106.9749,13.6586104 C104.227011,13.6586104 102,15.8856211 102,18.63351 C102,21.3813989 104.227011,23.6084095 106.9749,23.6084095 C109.794537,23.6084095 112.348611,24.7405509 114.211286,26.5734087 L119.427523,31.7896453 C121.260381,33.6523208 122.39159,36.2063945 122.39159,39.0251005 C122.39159,41.7729893 124.618601,44 127.36649,44 C130.114379,44 132.34139,41.7729893 132.34139,39.0251005 C132.34139,36.2772116 130.114379,34.0502009 127.36649,34.0502009 C124.546852,34.0502009 121.992779,32.9180595 120.130103,31.0852018 L114.913866,25.8689651 Z" id="mc-logo-white"></path>
    </g>
  </g>
</svg>