<svg width="391" height="275" viewBox="0 0 391 275" fill="none" xmlns="http://www.w3.org/2000/svg">
<g clip-path="url(#clip0_1375_198988)">
<path fill-rule="evenodd" clip-rule="evenodd" d="M168.25 21.7764H64.5169C30.2803 21.7764 2.53003 49.5497 2.53003 83.8147C2.53003 118.08 30.2803 145.853 64.5169 145.853H269.453V123.063C269.453 67.1253 224.142 21.7764 168.25 21.7764Z" fill="#FEEBD2"/>
<path d="M236.878 75.2688C249.454 75.2688 259.649 64.9239 259.649 52.1627C259.649 39.4016 249.454 29.0566 236.878 29.0566C224.302 29.0566 214.107 39.4016 214.107 52.1627C214.107 64.9239 224.302 75.2688 236.878 75.2688Z" fill="white" stroke="#18233D" stroke-width="1.1"/>
<path fill-rule="evenodd" clip-rule="evenodd" d="M238.626 36.1182H235.786L225.757 51.7831H232.911V65.2209H245.733V51.7831H246.05H251.696L238.626 36.1182Z" fill="white" stroke="#18233D" stroke-width="1.1"/>
<path fill-rule="evenodd" clip-rule="evenodd" d="M235.613 35.8018L222.014 52.094H229.426V65.5318H242.887V52.094H249.212L235.613 35.8018Z" fill="#0ACC94" fill-opacity="0.2"/>
<path d="M160.66 0.25293H181.533C190.618 0.25293 197.978 7.61925 197.978 16.7121C197.978 25.8049 190.618 33.1712 181.533 33.1712H127.769C127.769 14.9913 142.495 0.25293 160.66 0.25293Z" stroke="#18233D" stroke-width="0.88" stroke-linecap="round"/>
<path d="M149.274 19.8773C151.021 19.8773 152.437 18.4602 152.437 16.7121C152.437 14.964 151.021 13.5469 149.274 13.5469C147.528 13.5469 146.112 14.964 146.112 16.7121C146.112 18.4602 147.528 19.8773 149.274 19.8773Z" fill="#18233D"/>
<path d="M163.19 19.8773C164.936 19.8773 166.352 18.4602 166.352 16.7121C166.352 14.964 164.936 13.5469 163.19 13.5469C161.443 13.5469 160.027 14.964 160.027 16.7121C160.027 18.4602 161.443 19.8773 163.19 19.8773Z" fill="#18233D"/>
<path d="M177.105 19.8773C178.852 19.8773 180.268 18.4602 180.268 16.7121C180.268 14.964 178.852 13.5469 177.105 13.5469C175.358 13.5469 173.942 14.964 173.942 16.7121C173.942 18.4602 175.358 19.8773 177.105 19.8773Z" fill="#18233D"/>
<path d="M132.472 263.363L386.785 263.599" stroke="#18233D" stroke-width="1.1" stroke-linecap="round"/>
<path fill-rule="evenodd" clip-rule="evenodd" d="M284.955 241.126H291.976L318.973 255.876L317.156 258.782L288.468 247.566L256.952 258.771L255.928 255.922L284.955 241.126Z" fill="white" stroke="#18233D" stroke-width="1.1"/>
<path d="M258.086 261.034C257.931 259.468 259.073 258.074 260.638 257.919C262.202 257.764 263.596 258.907 263.75 260.473C263.905 262.038 262.763 263.433 261.198 263.588C259.634 263.743 258.24 262.6 258.086 261.034Z" fill="#85A9FF"/>
<path d="M313.413 263.6C311.841 263.6 310.567 262.324 310.567 260.751C310.567 259.178 311.841 257.902 313.413 257.902C314.985 257.902 316.259 259.178 316.259 260.751C316.259 262.324 314.985 263.6 313.413 263.6Z" fill="#85A9FF"/>
<path fill-rule="evenodd" clip-rule="evenodd" d="M316.576 149.335V160.16C316.576 171.054 313.137 181.666 306.76 190.483H294.794C301.93 181.649 305.949 170.692 306.208 159.32L306.438 149.335H316.576Z" fill="white" stroke="#18233D" stroke-width="1.1"/>
<path fill-rule="evenodd" clip-rule="evenodd" d="M311.832 98.6914C323.533 98.6914 333.021 108.187 333.021 119.898V136.358C333.021 144.225 326.65 150.601 318.789 150.601H294.121C286.261 150.601 279.889 144.225 279.889 136.358V119.898C279.889 108.187 289.377 98.6914 301.079 98.6914H311.832Z" fill="white" stroke="#18233D" stroke-width="1.1"/>
<path fill-rule="evenodd" clip-rule="evenodd" d="M306.139 98.375H295.386C283.506 98.375 273.88 108.009 273.88 119.898V136.358C273.88 144.397 280.395 150.918 288.428 150.918H313.097C321.13 150.918 327.645 144.397 327.645 136.358V119.898C327.645 108.009 318.019 98.375 306.139 98.375Z" fill="#E5E9F3"/>
<path fill-rule="evenodd" clip-rule="evenodd" d="M289.061 190.166H248.58C246.832 190.166 245.417 191.582 245.417 193.331V196.496C245.417 198.246 246.832 199.662 248.58 199.662H289.061C290.809 199.662 292.224 198.246 292.224 196.496V193.331C292.224 191.582 290.809 190.166 289.061 190.166Z" fill="#E5E9F3"/>
<path d="M284.95 240.494H291.907V206.942H284.95V240.494Z" fill="white" stroke="#18233D" stroke-width="1.1"/>
<path d="M282.736 241.443H292.856V236.379H282.736V241.443Z" fill="#E5E9F3"/>
<path fill-rule="evenodd" clip-rule="evenodd" d="M297.916 194.598H278.308L282.741 214.222H293.483L297.916 194.598Z" fill="#E5E9F3"/>
<path fill-rule="evenodd" clip-rule="evenodd" d="M322.268 190.482H282.419C280.671 190.482 279.257 191.898 279.257 193.648V196.18C279.257 197.929 280.671 199.345 282.419 199.345H322.268C324.016 199.345 325.431 197.929 325.431 196.18V193.648C325.431 191.898 324.016 190.482 322.268 190.482Z" fill="white" stroke="#18233D" stroke-width="1.1"/>
<path fill-rule="evenodd" clip-rule="evenodd" d="M259.7 136.882L232.767 139.546C223.94 140.22 218.932 141.9 217.747 144.582H259.7V136.882Z" fill="#FFD1AB"/>
<path fill-rule="evenodd" clip-rule="evenodd" d="M286.272 100.142C279.918 102.587 274.944 108.544 271.368 118.016C267.785 127.489 265.733 133.071 265.198 134.758L258.211 135.891V148.748C264.45 148.569 268.815 147.395 271.31 145.237C276.554 140.691 279.418 133.82 284.012 122.436C286.289 116.796 288.17 112.9 288.762 109.447C289.814 103.341 288.981 100.245 286.272 100.142Z" fill="#C6CBDA"/>
<path fill-rule="evenodd" clip-rule="evenodd" d="M307.467 148.616L310.124 159.93C311.665 166.508 311.768 173.339 310.428 179.958L310.348 180.355C309.117 186.415 303.758 190.754 297.583 190.685L250.351 190.167L214.464 249.989L202.314 245.667L231.001 176.792C234.129 169.276 240.938 163.93 248.976 162.664L280.206 157.761L284.328 148.61H307.467V148.616Z" fill="#18233D"/>
<path fill-rule="evenodd" clip-rule="evenodd" d="M288.492 148.616L291.148 159.93C292.689 166.508 292.793 173.339 291.453 179.958L291.372 180.355C290.142 186.415 284.783 190.754 278.607 190.685L231.375 190.167L195.488 249.989L183.338 245.667L212.026 176.792C215.154 169.276 221.962 163.93 230.001 162.664L261.23 157.761L265.353 148.61H288.492V148.616Z" fill="#18233D"/>
<path fill-rule="evenodd" clip-rule="evenodd" d="M299.561 98.3466C310.13 102.323 315.408 106.375 315.408 110.513C315.408 114.65 312.769 122.333 307.484 133.561C308.767 142.406 309.405 147.678 309.405 149.376C309.405 151.925 283.397 153.721 274.317 147.356C270.344 144.916 275.801 132.974 275.801 125.027C272.679 121.372 272.926 117.729 278.239 108.303C281.781 102.018 286.537 98.6976 292.505 98.3408H299.561V98.3466Z" fill="white"/>
<path fill-rule="evenodd" clip-rule="evenodd" d="M310.906 95.2214C311.141 78.5723 309.353 68.4379 305.547 64.8123C301.74 61.1866 296.645 60.5766 290.263 62.9822C287.784 62.7462 285.99 63.3217 284.886 64.6972C283.224 66.7632 282.891 71.0679 287.336 73.6518C289.624 74.9812 287.06 87.245 284.886 94.5078C286.174 96.1019 294.851 96.3378 310.906 95.2214Z" fill="#18233D"/>
<path fill-rule="evenodd" clip-rule="evenodd" d="M299.463 81.2832C297.6 92.2694 298.56 98.7667 302.344 100.758C295.11 108.516 290.815 110.259 287.33 108.516C285.007 107.353 285.507 103.768 288.831 97.7654L290.958 82.5493L299.463 81.2832Z" fill="#FFD1AB"/>
<path fill-rule="evenodd" clip-rule="evenodd" d="M291.395 79.4243L290.004 89.3746C294.644 86.9863 297.709 84.2699 299.21 81.2256L291.447 79.3955C291.43 79.407 291.413 79.4128 291.395 79.4243Z" fill="#CF8B54"/>
<path fill-rule="evenodd" clip-rule="evenodd" d="M284.587 69.7098C281.919 79.8039 282.137 85.6164 285.243 87.1415C289.906 89.432 298.566 82.6584 299.595 81.7031C301.826 82.4627 303.35 82.2152 304.178 80.9607C305.42 79.073 305.253 76.8286 301.573 76.8286C297.893 76.8286 289.906 72.7771 289.095 67.6955C287.215 66.8783 285.714 67.5517 284.587 69.7098Z" fill="#FFD1AB"/>
<path d="M285.502 71.7871C287.33 72.259 287.646 73.4848 286.456 75.4703C285.622 76.7594 284.806 78.06 283.995 79.3836H285.835" stroke="#18233D" stroke-width="1.1" stroke-linecap="round"/>
<path d="M303.609 79.3838L300.446 80.0168" stroke="#18233D" stroke-width="1.1" stroke-linecap="round"/>
<path d="M293.632 74.0606C292.494 73.0362 291.413 72.6276 290.401 72.8463" stroke="#18233D" stroke-width="1.1" stroke-linecap="round"/>
<path d="M290.326 75.5854C289.977 75.5854 289.693 75.302 289.693 74.9524C289.693 74.6028 289.977 74.3193 290.326 74.3193C290.675 74.3193 290.958 74.6028 290.958 74.9524C290.958 75.302 290.675 75.5854 290.326 75.5854Z" fill="#18233D"/>
<path d="M285.265 74.3198C284.916 74.3198 284.633 74.0364 284.633 73.6868C284.633 73.3371 284.916 73.0537 285.265 73.0537C285.615 73.0537 285.898 73.3371 285.898 73.6868C285.898 74.0364 285.615 74.3198 285.265 74.3198Z" fill="#18233D"/>
<path fill-rule="evenodd" clip-rule="evenodd" d="M287.796 81.916H284.633C284.691 82.762 285.139 83.1821 285.985 83.1821C286.824 83.1821 287.428 82.762 287.796 81.916Z" fill="white"/>
<path fill-rule="evenodd" clip-rule="evenodd" d="M311.895 123.501C300.831 125.308 294.914 126.212 294.138 126.212C293.534 126.212 287.111 128.209 274.875 132.197C274.007 136.438 272.839 140.737 272.868 143.747C275.68 144.633 278.889 145.18 282.505 145.393C291.734 145.94 301.239 139.356 311.015 125.648C311.308 124.951 311.584 124.272 311.843 123.616L311.895 123.501Z" fill="#58627A"/>
<path fill-rule="evenodd" clip-rule="evenodd" d="M272.983 123.248L250.586 103.353L243.709 93.4313L238.459 87.3426C238.086 86.9052 237.424 86.8534 236.987 87.2275C236.533 87.6188 236.43 88.2807 236.74 88.7871L241.536 96.5563C239.776 96.1822 238.804 96.8383 238.615 98.5245C238.333 101.057 236.947 99.9459 236.947 102.139C236.947 104.337 236.407 104.97 237.775 105.856C238.689 106.449 241.076 107.675 244.94 109.539L264.226 130.908L272.983 123.248Z" fill="#FFD1AB"/>
<path fill-rule="evenodd" clip-rule="evenodd" d="M315.414 109.016C317.363 112.889 317.662 124.635 296.737 136.974C282.787 145.198 270.959 142.55 261.247 129.026L271.557 120.82L281.005 129.026C289.659 122.281 296.157 117.137 300.504 113.591C307.024 108.274 313.465 105.143 315.414 109.016Z" fill="white"/>
<path d="M277.871 125.717L283.684 129.509L284.501 133.768" stroke="#18233D" stroke-width="1.1" stroke-linecap="round"/>
<path d="M283.684 129.745C284.461 129.026 291.97 122.689 306.225 110.736" stroke="#18233D" stroke-width="1.1" stroke-linecap="round"/>
<path d="M277.043 149.651H204.303V263.599H277.043V149.651Z" fill="#DAE0F4"/>
<path d="M222.646 149.651H149.907V263.599H222.646V149.651Z" fill="#F6F8FF"/>
<path fill-rule="evenodd" clip-rule="evenodd" d="M130.339 147.073L116.119 258.345C115.952 259.646 116.861 260.843 118.16 261.021C119.46 261.205 120.661 260.308 120.863 259.013L137.797 148.121L130.339 147.073Z" fill="white" stroke="#18233D" stroke-width="1.1"/>
<path fill-rule="evenodd" clip-rule="evenodd" d="M97.6551 147.073L83.4292 258.345C83.2624 259.646 84.1709 260.843 85.4705 261.021C86.77 261.205 87.9718 260.308 88.173 259.013L105.113 148.121L97.6551 147.073Z" fill="white" stroke="#18233D" stroke-width="1.1"/>
<path fill-rule="evenodd" clip-rule="evenodd" d="M187.694 242.55L191.538 245.514L207.593 245.572L196.203 253.261C192.404 255.826 187.318 255.31 184.116 252.031L180.624 248.454" fill="#FEBE89"/>
<path fill-rule="evenodd" clip-rule="evenodd" d="M183.788 253.016L188.055 250.989C190.487 249.833 192.254 247.627 192.84 244.996L211.371 244.292C211.594 246.064 210.632 247.775 208.999 248.502L195.52 254.521L196.835 256.472L192.12 259.655C188.652 258.616 185.702 256.298 183.874 253.173L183.788 253.016Z" fill="#18233D"/>
<path fill-rule="evenodd" clip-rule="evenodd" d="M69.3699 152.184L124.537 185.269L188.49 243.238L179.399 252.838L32.8909 153.674L37.4738 153.496L69.3699 152.184Z" fill="#779CF7"/>
<path fill-rule="evenodd" clip-rule="evenodd" d="M136.227 257.901L137.763 262.557L151.103 271.684H137.268C132.685 271.684 128.752 268.404 127.936 263.887L127.021 258.851" fill="#FEBE89"/>
<path fill-rule="evenodd" clip-rule="evenodd" d="M127.096 264.456L131.777 265.17C134.456 265.579 137.17 264.727 139.137 262.856L154.967 272.755C154.156 274.366 152.385 275.253 150.614 274.936L136.02 272.358V274.735H130.31C128.004 271.903 126.854 268.301 127.084 264.652L127.096 264.456Z" fill="#18233D"/>
<path fill-rule="evenodd" clip-rule="evenodd" d="M156.841 82.5488H223.4C224.389 82.5488 225.217 83.3142 225.291 84.3041L228.569 126.695C228.649 127.742 227.867 128.652 226.821 128.732C226.775 128.738 226.723 128.738 226.677 128.738H160.119C159.13 128.738 158.302 127.973 158.227 126.983L154.95 84.5918C154.869 83.5444 155.651 82.6352 156.698 82.5546C156.744 82.5488 156.795 82.5488 156.841 82.5488Z" fill="#18233D"/>
<path fill-rule="evenodd" clip-rule="evenodd" d="M155.755 82.5488H222.307C223.296 82.5488 224.124 83.3142 224.199 84.3041L227.477 126.695C227.557 127.742 226.775 128.652 225.728 128.732C225.682 128.738 225.631 128.738 225.585 128.738H159.032C158.043 128.738 157.215 127.973 157.14 126.983L153.863 84.5918C153.782 83.5444 154.564 82.6352 155.611 82.5546C155.657 82.5488 155.703 82.5488 155.755 82.5488Z" fill="#E5E9F3"/>
<path opacity="0.3" fill-rule="evenodd" clip-rule="evenodd" d="M197.921 114.195L204.303 128.738H179.618L182.361 115.225L197.921 114.195Z" fill="#58627A"/>
<path fill-rule="evenodd" clip-rule="evenodd" d="M197.921 114.195L193.821 143.954H175.823L179.923 114.195H197.921ZM187.547 124.393C185.587 124.393 183.999 125.976 183.999 127.927C183.999 129.878 185.587 131.46 187.547 131.46C189.508 131.46 191.095 129.878 191.095 127.927C191.089 125.97 189.502 124.393 187.547 124.393Z" fill="#18233D"/>
<path fill-rule="evenodd" clip-rule="evenodd" d="M196.719 114.068L192.728 143.954H174.73L178.721 114.068H196.719ZM185.909 124.393C183.948 124.393 182.361 125.975 182.361 127.926C182.361 129.877 183.948 131.46 185.909 131.46C187.869 131.46 189.456 129.877 189.456 127.926C189.456 125.97 187.869 124.393 185.909 124.393Z" fill="#E5E9F3"/>
<path fill-rule="evenodd" clip-rule="evenodd" d="M54.9369 244.925H46.9499L17.9748 260.866C17.9461 260.883 17.9173 260.901 17.8886 260.918C17.0203 261.459 16.75 262.604 17.2963 263.479C17.9173 264.48 19.1651 264.889 20.2576 264.457L50.9348 252.372L85.0736 264.595C85.9821 264.917 86.9826 264.446 87.3104 263.536C87.6554 262.569 87.2299 261.499 86.3213 261.033L54.9369 244.925Z" fill="white" stroke="#18233D" stroke-width="1.1"/>
<path d="M82.1525 270.385C83.95 270.385 85.4071 268.9 85.4071 267.07C85.4071 265.239 83.95 263.755 82.1525 263.755C80.3551 263.755 78.8979 265.239 78.8979 267.07C78.8979 268.9 80.3551 270.385 82.1525 270.385Z" fill="#85A9FF"/>
<path d="M22.4426 270.385C24.24 270.385 25.6972 268.9 25.6972 267.07C25.6972 265.239 24.24 263.755 22.4426 263.755C20.6451 263.755 19.188 265.239 19.188 267.07C19.188 268.9 20.6451 270.385 22.4426 270.385Z" fill="#85A9FF"/>
<path fill-rule="evenodd" clip-rule="evenodd" d="M18.6592 141.105V154.526C18.6592 166.272 22.391 177.713 29.3142 187.197L29.8605 187.951H43.6034L43.5057 187.83C35.4267 178.11 30.8725 165.944 30.5735 153.306L30.2918 141.105H18.6592Z" fill="white" stroke="#18233D" stroke-width="1.1"/>
<path fill-rule="evenodd" clip-rule="evenodd" d="M218.219 142.688H284.001C285.398 142.688 286.531 143.821 286.531 145.22V149.018C286.531 150.416 285.398 151.55 284.001 151.55H218.219C216.822 151.55 215.689 150.416 215.689 149.018V145.22C215.689 143.821 216.822 142.688 218.219 142.688Z" fill="#A7C0FF"/>
<path fill-rule="evenodd" clip-rule="evenodd" d="M88.5525 142.688H224.544C225.941 142.688 227.074 143.821 227.074 145.22V149.018C227.074 150.416 225.941 151.55 224.544 151.55H88.5525C87.1552 151.55 86.0225 150.416 86.0225 149.018V145.22C86.0225 143.821 87.1552 142.688 88.5525 142.688Z" fill="#D7E3FF"/>
<path fill-rule="evenodd" clip-rule="evenodd" d="M21.5055 84.1309C9.80394 84.1309 0.316162 93.6265 0.316162 105.338V128.76C0.316162 136.627 6.68735 143.004 14.5478 143.004H46.1738C54.0342 143.004 60.4054 136.627 60.4054 128.76V105.338C60.4054 93.6265 50.9177 84.1309 39.2161 84.1309H21.5055Z" fill="white" stroke="#18233D" stroke-width="1.1"/>
<path fill-rule="evenodd" clip-rule="evenodd" d="M27.8308 83.8145H45.5413C57.4212 83.8145 67.047 93.4482 67.047 105.338V128.761C67.047 136.8 60.532 143.321 52.4991 143.321H20.8731C12.8401 143.321 6.3252 136.8 6.3252 128.761V105.338C6.3252 93.4482 15.951 83.8145 27.8308 83.8145Z" fill="#E5E9F3"/>
<path fill-rule="evenodd" clip-rule="evenodd" d="M49.3364 187.634H96.1428C97.8909 187.634 99.3054 189.05 99.3054 190.799V195.23C99.3054 196.98 97.8909 198.396 96.1428 198.396H49.3364C47.5884 198.396 46.1738 196.98 46.1738 195.23V190.799C46.1738 189.05 47.5884 187.634 49.3364 187.634Z" fill="#E5E9F3"/>
<path d="M54.7128 206.309H47.1226V244.291H54.7128V206.309Z" fill="white" stroke="#18233D" stroke-width="1.1"/>
<path d="M56.9266 239.544H45.5413V245.241H56.9266V239.544Z" fill="#E5E9F3"/>
<path fill-rule="evenodd" clip-rule="evenodd" d="M39.8486 192.698H61.9868L56.9784 214.855H44.857L39.8486 192.698Z" fill="#E5E9F3"/>
<path fill-rule="evenodd" clip-rule="evenodd" d="M11.7014 187.95H57.8753C59.6233 187.95 61.0379 189.366 61.0379 191.115V194.914C61.0379 196.663 59.6233 198.079 57.8753 198.079H11.7014C9.95336 198.079 8.53882 196.663 8.53882 194.914V191.115C8.53882 189.366 9.95336 187.95 11.7014 187.95Z" fill="white" stroke="#18233D" stroke-width="1.1"/>
<path fill-rule="evenodd" clip-rule="evenodd" d="M27.4742 153.449C25.0477 172.958 38.8768 190.741 58.3699 193.176C59.3129 193.291 60.256 193.371 61.199 193.412L105.13 195.351L122.645 259.801H137.883L125.768 190.315C123.893 179.577 115.515 171.151 104.791 169.229L61.2795 161.437L56.3516 154.41L27.4742 153.449Z" fill="#85A9FF"/>
<path fill-rule="evenodd" clip-rule="evenodd" d="M168.543 50.2637H175.426C179.791 50.2637 183.333 53.8087 183.333 58.1767H156.548L168.543 50.2637Z" fill="#85A9FF"/>
<path fill-rule="evenodd" clip-rule="evenodd" d="M91.3586 123.322L141.638 124.036C150.476 118.891 156.347 109.85 157.468 99.6754L160.688 70.3827C161.597 62.1359 166.312 54.8156 173.385 50.5742H134.209C123.238 50.5742 113.968 58.729 112.565 69.6231L108.862 98.3748C107.482 109.102 100.915 118.413 91.3586 123.322Z" fill="white" stroke="#18233D" stroke-width="1.1"/>
<path d="M121.441 82.2314H136.622" stroke="#18233D" stroke-width="1.1" stroke-linecap="round"/>
<path d="M121.441 96.792H136.622" stroke="#18233D" stroke-width="1.1" stroke-linecap="round"/>
<path d="M120.809 84.7637H127.134" stroke="#18233D" stroke-width="1.1" stroke-linecap="round"/>
<path d="M130.296 84.7637H136.622" stroke="#18233D" stroke-width="1.1" stroke-linecap="round"/>
<path d="M123.971 62.6074H152.435" stroke="#18233D" stroke-width="1.1" stroke-linecap="round"/>
<path d="M122.706 68.3047H137.887" stroke="#18233D" stroke-width="1.1" stroke-linecap="round"/>
<path d="M122.074 70.8369H128.399" stroke="#18233D" stroke-width="1.1" stroke-linecap="round"/>
<path d="M131.562 70.8369H137.887" stroke="#18233D" stroke-width="1.1" stroke-linecap="round"/>
<path fill-rule="evenodd" clip-rule="evenodd" d="M145.39 67.3555H151.802L150.629 74.319H144.212L145.39 67.3555Z" fill="#0ACC94"/>
<path fill-rule="evenodd" clip-rule="evenodd" d="M142.228 81.2822H148.64L147.467 88.2457H141.049L142.228 81.2822Z" fill="#0ACC94"/>
<path fill-rule="evenodd" clip-rule="evenodd" d="M139.698 95.209H146.109L144.936 102.172H138.519L139.698 95.209Z" fill="#0ACC94"/>
<path fill-rule="evenodd" clip-rule="evenodd" d="M44.6615 87.6934L21.3618 97.3617L27.4685 128.997V144.541C27.4685 148.005 28.814 151.332 31.2291 153.818H72.3486C74.1656 151.309 75.0684 148.258 74.9189 145.162L73.4123 114.195V93.5346L44.6615 87.6934Z" fill="#18233D"/>
<path fill-rule="evenodd" clip-rule="evenodd" d="M56.6333 153.817L72.1933 160.711C74.9878 161.949 78.2482 161.368 80.4448 159.244L74.6371 143.044L72.5383 93.6261L57.0186 90.1328L56.6333 153.817Z" fill="#18233D"/>
<path fill-rule="evenodd" clip-rule="evenodd" d="M56.1043 121.25L56.8231 153.995L45.8173 167.738C41.2747 173.413 33.3509 175.064 26.9165 171.686L24.1851 170.247L27.6122 131.966L21.3618 97.8157L35.95 91.3184L56.1043 121.25Z" fill="#18233D"/>
<path d="M58.9334 94.8926L62.6077 102.092L67.4264 108.371L56.6333 121.308L56.6966 153.817" stroke="white" stroke-width="1.1"/>
<path fill-rule="evenodd" clip-rule="evenodd" d="M22.3392 96.9531C18.6821 98.6911 15.8243 101.77 14.358 105.551L13.8692 106.811C12.1097 111.346 12.4317 116.428 14.7548 120.704L30.2917 149.312C31.896 152.264 34.7941 154.278 38.1119 154.744C41.5045 155.222 44.9489 154.405 47.7665 152.454L78.0986 131.46L69.3699 120.525L40.205 136.058L29.6592 112.981" fill="#18233D"/>
<path d="M30.2917 149.306C31.896 152.258 34.7941 154.272 38.1119 154.738C41.5045 155.216 44.9489 154.399 47.7665 152.448L78.0986 131.454L69.3699 120.519L40.205 136.052L29.9294 113.567" stroke="white" stroke-width="1.1"/>
<path fill-rule="evenodd" clip-rule="evenodd" d="M58.3124 90.461L61.3657 102.092L56.6333 121.854L42.5971 102.092L40.4236 89.4941L58.3124 90.461Z" fill="white"/>
<path d="M62.9182 91.3184L67.4263 104.313L62.6077 102.092" stroke="white" stroke-width="1.1"/>
<path d="M41.4642 94.2939L40.2107 104.682L35.9556 110.195L56.8287 121.25" stroke="white" stroke-width="1.1"/>
<path fill-rule="evenodd" clip-rule="evenodd" d="M40.2107 89.6098L42.597 102.092L51.0498 98.386L61.3656 102.092L58.3122 90.4615L56.6332 88.8559L42.597 87.6934L40.2107 89.6098Z" fill="#E5E9F3"/>
<path fill-rule="evenodd" clip-rule="evenodd" d="M44.0417 68.8995C39.8739 60.884 40.0237 55.9775 44.4912 54.1799C44.7344 48.4299 50.0686 47.7506 56.2922 48.4051C62.5157 49.0596 69.1738 51.3989 66.9292 55.4171C64.6846 59.4352 70.3313 59.8016 65.1969 63.7672C61.7718 66.4125 55.2762 68.7591 45.7101 70.807L44.0417 68.8995Z" fill="#18233D"/>
<path fill-rule="evenodd" clip-rule="evenodd" d="M44.9872 71.9478C45.9693 77.7843 44.7211 83.7612 41.2484 89.8796L53.7727 104.499L57.2655 91.215L56.9786 74.2817L44.9872 71.9478Z" fill="#FFB391"/>
<path fill-rule="evenodd" clip-rule="evenodd" d="M56.9792 74.2813L56.8057 84.4703C50.5326 81.567 46.4034 76.0094 45.2939 72.0068L56.9792 74.2813Z" fill="#FF9D60"/>
<path fill-rule="evenodd" clip-rule="evenodd" d="M64.405 61.6859C65.1808 73.6544 63.6662 80.1594 59.8532 81.2109C54.1349 82.7826 45.9313 73.2548 44.9902 71.9461C42.3284 72.319 40.6783 71.7047 40.0278 70.1068C39.0524 67.707 40.6162 65.3853 44.7372 66.1874C45.3638 66.3094 46.3154 70.5217 47.1554 70.48C48.019 70.4371 47.887 65.9564 48.8761 65.7503C53.1339 65.9987 49.6377 59.5032 50.7427 58.0359C52.2329 56.0633 55.9846 58.4056 59.8114 58.4294C62.1502 58.1812 63.6799 59.2645 64.405 61.6859Z" fill="#FFB391"/>
<path fill-rule="evenodd" clip-rule="evenodd" d="M63.6448 75.7659C63.2394 77.3106 61.7109 77.8513 59.0581 77.3936C55.0789 76.707 55.2056 73.1268 51.7724 73.4902C49.4878 73.7313 48.0506 72.6544 47.4723 70.2617L45.8203 68.0586C45.7554 70.1737 45.7525 71.6972 45.8175 72.6301C45.9155 74.0266 49.6837 79.5724 55.8855 82.2391C58.0911 83.19 61.5005 82.6169 62.8287 81.3279C63.5959 80.5746 63.8743 78.7179 63.6448 75.7659Z" fill="#49505E"/>
<path fill-rule="evenodd" clip-rule="evenodd" d="M58.3138 73.3492L62.1249 73.2117C62.0938 74.3076 61.568 74.8735 60.5532 74.9104C59.5384 74.9474 58.7901 74.4266 58.3138 73.3492Z" fill="white"/>
<path fill-rule="evenodd" clip-rule="evenodd" d="M63.9057 73.3937C63.6696 74.1272 61.3184 73.7458 60.8089 73.3829C60.0289 73.659 57.5214 74.3842 56.5467 73.9131C55.572 73.4421 57.0666 73.1059 58.3248 72.6298C59.1655 72.3128 60.0239 72.1458 60.9079 72.1186C63.0695 72.4807 64.0654 72.9031 63.9057 73.3937Z" fill="#18233D"/>
<path d="M63.0656 63.9323C60.9389 64.0519 60.3301 65.3169 61.2256 67.7365C61.8739 69.3165 62.5065 70.9169 63.1246 72.5321L61.0864 72.1354" stroke="#18233D" stroke-width="1.1" stroke-linecap="round"/>
<path d="M41.7725 68.5488L43.9813 69.6937" stroke="#18233D" stroke-width="1.1" stroke-linecap="round"/>
<path d="M53.8498 65.2694C55.3424 64.3701 56.6314 64.158 57.7189 64.6216" stroke="#18233D" stroke-width="1.1" stroke-linecap="round"/>
<path d="M56.6368 65.8794C56.3193 65.8794 56.0619 66.1369 56.062 66.4547C56.062 66.7725 56.3195 67.0301 56.637 67.0302C56.9545 67.0302 57.2119 66.7727 57.2118 66.4549C57.2118 66.1371 56.9544 65.8794 56.6368 65.8794Z" fill="#18233D"/>
<path d="M62.8292 65.4136C62.5117 65.4135 62.2543 65.6711 62.2544 65.9889C62.2544 66.3067 62.5119 66.5643 62.8294 66.5644C63.1469 66.5644 63.4043 66.3068 63.4042 65.9891C63.4042 65.6713 63.1467 65.4136 62.8292 65.4136Z" fill="#18233D"/>
<path fill-rule="evenodd" clip-rule="evenodd" d="M49.2961 99.2207L55.1152 99.3646L57.0243 100.521L55.1152 104.038L51.8261 104.314L46.605 100.331L49.2961 99.2207Z" fill="#18233D"/>
<path fill-rule="evenodd" clip-rule="evenodd" d="M51.8147 103.767V114.535L56.6333 121.308L58.3124 113.7L54.799 103.146L51.8147 103.767Z" fill="#18233D"/>
<path d="M35.99 91.3184L34.656 105.838L40.2107 104.313" stroke="white" stroke-width="1.1"/>
<path fill-rule="evenodd" clip-rule="evenodd" d="M101.109 127.5L122.974 86.6823L132.368 73.3902C132.749 72.8538 133.486 72.7248 134.022 73.0977C134.574 73.4794 134.744 74.2183 134.414 74.8094L130.131 82.4573C131.417 82.2091 132.284 82.3208 132.723 82.7921C133.382 83.4992 135.105 83.6774 135.708 84.578C136.311 85.4786 136.93 86.5222 138.074 88.1379C138.794 89.1648 137.969 91.4854 135.597 95.0997C135.369 95.446 134.949 95.6024 134.554 95.499C134.167 95.3959 133.898 95.0404 133.9 94.6374L133.909 93.921C132.345 96.6556 130.189 98.2823 127.445 98.8054L116.47 125.886C114.654 130.367 109.55 132.526 105.073 130.708C103.46 130.058 102.079 128.939 101.109 127.5Z" fill="#FFB391"/>
<path d="M133.811 83.2168L130.888 93.0337C130.798 94.2277 131.118 94.9677 131.836 95.2575C132.558 95.5433 133.148 95.1893 133.598 94.187" stroke="white" stroke-width="1.1" stroke-linecap="round"/>
<path d="M130.381 81.9326L128.143 91.3704C128.147 92.303 128.496 92.9218 129.189 93.2351C129.882 93.5484 130.477 93.276 130.963 92.4216" stroke="white" stroke-width="1.1" stroke-linecap="round"/>
<path fill-rule="evenodd" clip-rule="evenodd" d="M123.411 89.185C124.05 88.5885 124.685 87.9958 125.324 87.3992C126.998 85.8371 129.445 85.442 131.523 86.3982L133.961 87.5216C134.526 87.7816 134.8 88.4304 134.597 89.0138C134.385 89.613 133.774 89.9704 133.151 89.8591L128.501 89.0533C128.293 91.6154 127.717 93.8063 126.754 95.6335" fill="#FFB391"/>
<path d="M123.411 89.185C124.05 88.5885 124.685 87.9958 125.324 87.3992C126.998 85.8371 129.445 85.442 131.523 86.3982L133.961 87.5216C134.526 87.7816 134.8 88.4304 134.597 89.0138C134.385 89.613 133.774 89.9704 133.151 89.8591L128.501 89.0533C128.293 91.6154 127.717 93.8063 126.754 95.6335" stroke="white" stroke-width="1.1" stroke-linecap="round"/>
<path d="M136.411 86.4551L133.735 93.8944" stroke="white" stroke-width="1.1" stroke-linecap="round"/>
<path fill-rule="evenodd" clip-rule="evenodd" d="M112.594 104.313L115.975 98.7715L126.751 104.313L123.22 110.84L112.594 104.313Z" fill="white"/>
<path d="M122.467 106.431C122.918 106.431 123.283 106.063 123.283 105.608C123.283 105.154 122.918 104.785 122.467 104.785C122.016 104.785 121.65 105.154 121.65 105.608C121.65 106.063 122.016 106.431 122.467 106.431Z" fill="#E5E9F3"/>
<path fill-rule="evenodd" clip-rule="evenodd" d="M70.8074 93.0107C75.2235 93.4711 79.1509 96.0378 81.3417 99.8994L97.9827 129.215L112.83 103.151L125.675 111.116L107.194 144.753C105.51 147.821 102.29 149.726 98.7877 149.726C95.1766 149.726 91.7437 148.183 89.3402 145.49L72.6014 126.706L70.8074 93.0107Z" fill="#18233D"/>
<path fill-rule="evenodd" clip-rule="evenodd" d="M88.6905 90.0234H115.538C116.24 90.0234 116.803 90.5874 116.803 91.2895C116.803 91.3528 116.797 91.4161 116.786 91.4852L111.369 126.556C111.271 127.172 110.742 127.626 110.121 127.626H83.2738C82.5723 127.626 82.0088 127.062 82.0088 126.36C82.0088 126.297 82.0145 126.234 82.026 126.164L87.4427 91.0939C87.5347 90.4781 88.0695 90.0234 88.6905 90.0234Z" fill="#4385FF"/>
<path fill-rule="evenodd" clip-rule="evenodd" d="M89.783 90.0234H116.631C117.332 90.0234 117.896 90.5874 117.896 91.2895C117.896 91.3528 117.89 91.4161 117.878 91.4852L112.462 126.556C112.364 127.172 111.835 127.626 111.214 127.626H84.3664C83.6648 127.626 83.1013 127.062 83.1013 126.36C83.1013 126.297 83.1071 126.234 83.1186 126.164L88.5352 91.0939C88.6272 90.4781 89.1562 90.0234 89.783 90.0234Z" fill="#85A9FF"/>
<path d="M101.772 101.511C102.525 101.511 103.135 100.898 103.135 100.141C103.135 99.3847 102.525 98.7715 101.772 98.7715C101.019 98.7715 100.409 99.3847 100.409 100.141C100.409 100.898 101.019 101.511 101.772 101.511Z" fill="white"/>
<path fill-rule="evenodd" clip-rule="evenodd" d="M75.1487 117.4L79.7776 113.694L85.6772 103.145V107.772L94.3772 104.681L99.9377 100.843C100.357 100.549 100.938 100.659 101.231 101.079C101.254 101.108 101.272 101.136 101.289 101.171C101.576 101.712 101.456 102.379 101.001 102.788L96.2691 107.001L91.6517 109.383L98.2356 107.778L103.037 104.86C103.56 104.543 104.227 104.635 104.647 105.079C104.998 105.458 104.981 106.045 104.607 106.402C104.584 106.425 104.555 106.448 104.526 106.471L98.6899 110.845L93.1065 112.997L98.2356 112.232L102.841 110.494C103.451 110.264 104.135 110.557 104.388 111.156C104.641 111.748 104.365 112.428 103.773 112.681H103.767L98.6841 114.822L94.3715 116.145L102.18 115.656C102.646 115.627 103.049 115.978 103.077 116.445C103.077 116.462 103.077 116.479 103.077 116.496C103.077 117.02 102.715 117.48 102.203 117.596L85.6715 121.365L78.0928 127.189L75.1487 117.4Z" fill="#FFB391"/>
<path fill-rule="evenodd" clip-rule="evenodd" d="M69.8413 120.623L74.7807 116.819L80.7494 125.728L75.281 130.372L69.8413 120.623Z" fill="white"/>
<path d="M76.1781 126.665C76.629 126.665 76.9946 126.297 76.9946 125.842C76.9946 125.388 76.629 125.02 76.1781 125.02C75.7271 125.02 75.3616 125.388 75.3616 125.842C75.3616 126.297 75.7271 126.665 76.1781 126.665Z" fill="#E5E9F3"/>
<path fill-rule="evenodd" clip-rule="evenodd" d="M90.9158 51.8457L77.8457 67.5107H84.9012V80.9485H97.7298V67.5107H98.0461H103.773L93.1354 51.8457H90.9158Z" fill="white" stroke="#18233D" stroke-width="1.1"/>
<path fill-rule="evenodd" clip-rule="evenodd" d="M93.2964 51.5293L79.6973 67.8273H87.1092V81.2593H100.57V67.8273H106.896L93.2964 51.5293Z" fill="#0ACC94" fill-opacity="0.2"/>
<path d="M362.555 100.179C366.092 99.3616 367.877 94.0092 366.543 88.224C365.208 82.4388 361.259 78.4116 357.722 79.229C354.185 80.0464 352.399 85.3988 353.734 91.184C355.069 96.9692 359.018 100.996 362.555 100.179Z" fill="#E5E9F3"/>
<path d="M357.494 79.4297L365.527 111.07L351.341 262.73" stroke="#18233D" stroke-width="1.1" stroke-linecap="round"/>
<path fill-rule="evenodd" clip-rule="evenodd" d="M343.843 263.754L341.577 248.705H365.527L360.144 263.754H343.843Z" fill="#58627A"/>
<path d="M388.045 116.934C392.289 109.27 391.923 100.945 387.226 98.3394C382.529 95.7338 375.281 99.8344 371.036 107.498C366.792 115.162 367.158 123.487 371.855 126.093C376.552 128.698 383.8 124.598 388.045 116.934Z" fill="#E5E9F3"/>
<path d="M363.394 138.447L388.073 99.3135" stroke="#18233D" stroke-width="1.1" stroke-linecap="round"/>
<path d="M346.48 207.476C351.584 205.816 353.527 197.71 350.82 189.369C348.113 181.029 341.78 175.613 336.675 177.273C331.571 178.933 329.627 187.039 332.335 195.38C335.042 203.72 341.375 209.136 346.48 207.476Z" fill="#E5E9F3"/>
<path d="M358.902 152.778C364.185 151.846 367.233 144.087 365.712 135.448C364.19 126.809 358.674 120.561 353.392 121.493C348.11 122.425 345.061 130.184 346.583 138.823C348.104 147.462 353.62 153.71 358.902 152.778Z" fill="#E5E9F3"/>
<path d="M381.662 185.281C385.224 177.273 384.138 169.011 379.235 166.826C374.332 164.642 367.47 169.362 363.908 177.37C360.346 185.378 361.432 193.64 366.335 195.825C371.238 198.009 378.1 193.289 381.662 185.281Z" fill="#E5E9F3"/>
<path d="M353.405 121.486L360.144 168.815" stroke="#18233D" stroke-width="1.1" stroke-linecap="round"/>
<path d="M356.143 212.628L379.54 167.475" stroke="#18233D" stroke-width="1.1" stroke-linecap="round"/>
<path d="M353.405 238.134L336.701 178.242" stroke="#18233D" stroke-width="1.1" stroke-linecap="round"/>
</g>
<defs>
<clipPath id="clip0_1375_198988">
<rect width="391" height="275" fill="white"/>
</clipPath>
</defs>
</svg>
