<svg width="437" height="437" viewBox="0 0 437 437" fill="none" xmlns="http://www.w3.org/2000/svg">
<g clip-path="url(#clip0_2525_21070)">
<rect width="437" height="437" fill="#F9FAFF"/>
<g clip-path="url(#clip1_2525_21070)">
<path d="M304.948 294.325C254.287 289.971 203.212 297.435 156.6 316.559C127.585 328.463 106.701 342.128 126.27 352.58C169.957 375.92 279.479 367.61 280.898 377.924C282.022 386.078 251.64 385.888 266.606 395.839C278.129 403.51 355.435 400.124 399.018 374.538C409.867 368.163 463.347 330.311 423.449 313.519C401.458 304.259 348.324 298.039 304.948 294.325Z" fill="#F4F4F4"/>
<path d="M83.0146 369.165C60.4528 367.23 37.6834 370.547 16.921 379.064C3.99642 384.368 -5.31206 390.449 3.40815 395.114C22.8729 405.514 71.6645 401.817 72.3047 406.395C72.8064 410.023 59.2763 409.936 65.9376 414.376C71.0762 417.797 105.525 416.277 124.937 404.874C129.765 402.041 153.607 385.18 135.82 377.682C126.027 373.588 102.341 370.823 83.0146 369.165Z" fill="#F4F4F4"/>
<path d="M321.851 21V178.575L127.653 190.997V25.9582L321.851 21Z" fill="#F4F4F4"/>
<path d="M409.279 28.8088V208.152L321.852 178.575V21L409.279 28.8088Z" fill="#EDEDED"/>
<path d="M414.59 31.4518V207.253L409.278 205.491V30.9854L414.59 31.4518Z" fill="#F4F4F4"/>
<path d="M127.654 28.2734V186.384L122.342 186.73V28.4116L127.654 28.2734Z" fill="#EDEDED"/>
<path d="M136.737 39.8823V70.8756C136.737 74.0371 139.385 76.5594 142.551 76.4039L175.978 74.8146C178.937 74.6763 181.255 72.2404 181.255 69.2862V38.483C181.255 35.3387 178.625 32.8164 175.476 32.9546L142.049 34.354C139.09 34.4749 136.737 36.9109 136.737 39.8823Z" fill="#EDEDED"/>
<path d="M136.738 100.556C136.374 100.556 136.063 100.28 136.028 99.8998C135.994 99.5198 136.288 99.1743 136.686 99.157L173.954 96.5828C174.335 96.5483 174.681 96.842 174.698 97.2393C174.733 97.6194 174.439 97.9649 174.041 97.9822L136.772 100.556C136.772 100.556 136.755 100.556 136.738 100.556Z" fill="#EDEDED"/>
<path d="M136.738 113.824C136.374 113.824 136.063 113.547 136.028 113.167C135.994 112.787 136.288 112.442 136.686 112.425L173.954 109.85C174.335 109.816 174.681 110.11 174.698 110.507C174.733 110.887 174.439 111.233 174.041 111.25L136.772 113.824C136.772 113.824 136.755 113.824 136.738 113.824Z" fill="#EDEDED"/>
<path d="M136.738 127.092C136.374 127.092 136.063 126.816 136.028 126.436C135.994 126.056 136.288 125.71 136.686 125.693L173.954 123.119C174.335 123.084 174.681 123.378 174.698 123.775C174.733 124.156 174.439 124.501 174.041 124.518L136.772 127.092C136.772 127.092 136.755 127.092 136.738 127.092Z" fill="#EDEDED"/>
<path d="M299.428 107.501C299.428 121.546 294.341 134.365 285.949 144.178C278.181 153.265 267.557 159.761 255.515 162.214C252.038 162.923 248.439 163.303 244.753 163.303C222.209 163.303 202.848 149.378 194.491 129.493C191.654 122.738 190.079 115.31 190.079 107.501C190.079 105.635 190.166 103.787 190.339 101.955C191.671 88.0999 197.986 75.7302 207.433 66.7294C217.209 57.4003 230.324 51.6992 244.753 51.6992C248.197 51.6992 251.553 52.0275 254.823 52.6494C267.557 55.0681 278.752 61.9958 286.728 71.7567C293.874 80.4811 298.441 91.4687 299.289 103.493C299.393 104.823 299.428 106.153 299.428 107.501Z" fill="#EDEDED"/>
<path d="M208.368 74.5037C203.212 74.0373 204.786 80.1184 206.187 82.3125C207.589 84.5066 205.876 85.2667 202.277 87.3053C198.696 89.3266 202.468 93.0755 203.765 97.1527C205.046 101.23 201.308 105.013 197.433 104.063C193.574 103.13 197.312 98.3274 195.668 97.2736C194.024 96.2197 190.339 101.955 190.339 101.955C191.671 88.1 197.986 75.7303 207.433 66.7295C207.433 66.7295 210.236 67.0232 211.638 69.2C213.056 71.394 213.524 74.9702 208.368 74.5037Z" fill="#CFDAF9"/>
<path d="M299.428 107.501C299.428 121.546 294.341 134.365 285.95 144.178C285.655 144.16 272.748 143.573 274.288 139.099C275.845 134.572 275.378 133.795 272.091 131.618C268.803 129.441 271.312 127.437 272.091 123.826C272.869 120.233 273.336 115.862 268.803 115.862C264.27 115.862 250.532 116.571 258.803 111.854C267.09 107.121 274.738 108.503 274.582 104.235C274.426 99.9509 281.451 88.566 283.026 93.7143C284.583 98.8625 284.254 104.857 285.95 106.015C289.462 108.416 291.936 106.499 291.78 102.922C291.625 99.329 292.092 95.511 294.912 98.5861C296.313 100.124 297.94 101.696 299.289 103.527C299.393 104.823 299.428 106.153 299.428 107.501Z" fill="#6774FF"/>
<path d="M255.533 162.214C252.055 162.922 248.456 163.302 244.771 163.302C222.227 163.302 202.866 149.378 194.509 129.493C194.509 129.493 200.876 123.671 203.073 126.383C205.271 129.096 207.918 131.912 210.721 130.823C213.541 129.735 214.32 120.838 217.434 122.703C220.548 124.569 226.656 129.562 229.459 126.746C232.279 123.947 229.77 119.732 233.836 116.933C237.902 114.117 246.017 109.919 243.525 115.067C241.034 120.216 239.459 122.583 240.705 126.383C241.951 130.184 250.239 129.89 249.927 134.244C249.616 138.615 243.664 139.237 244.754 141.569C245.861 143.901 249.287 141.103 252.107 144.385C254.927 147.667 254.754 149.533 252.107 151.088C249.443 152.643 246.484 155.148 249.91 156.703C253.353 158.275 255.533 162.214 255.533 162.214Z" fill="#CFDAF9"/>
<path d="M286.745 71.7567C286.745 71.7567 282.731 75.1601 279.115 72.8279C275.499 70.4956 273.128 74.3482 271.727 77.8552C270.325 81.3622 264.806 78.909 261.657 76.6804C258.491 74.4518 257.678 85.1111 251.985 86.2686C246.31 87.4434 248.525 77.4924 252.625 73.1734C256.726 68.8371 256.726 65.33 253.214 61.7021C249.701 58.0741 254.84 52.6494 254.84 52.6494C267.574 55.0681 278.751 61.9958 286.745 71.7567Z" fill="#B0C0F7"/>
<path d="M228.195 68.2499C228.195 68.2499 222.157 72.2406 222.866 75.7477C223.576 79.2547 224.856 81.1378 221.101 84.5239C217.347 87.91 210.911 93.3002 214.077 98.5694C217.243 103.839 221.897 101.264 221.032 104.651C220.167 108.037 222.555 108.624 224.752 108.158C226.949 107.691 228.593 106.05 228.126 103.355C227.659 100.66 228.126 97.861 231.05 97.2737C233.974 96.6863 237.14 100.314 239.839 97.2737C242.539 94.2331 241.708 92.4709 238.075 91.1925C234.441 89.9141 227.884 90.1041 230.583 86.3725C233.282 82.6408 241.95 78.3218 238.317 75.7477C234.683 73.1735 234.805 70.4785 236.085 68.9582C237.365 67.4379 237.607 64.8638 234.805 65.2093C232.002 65.5721 228.195 68.2499 228.195 68.2499Z" fill="#6774FF"/>
<path d="M252.107 94.1635C252.107 94.1635 243.975 98.6898 246.796 100.867C249.616 103.043 253.042 101.108 253.128 102.663C253.215 104.218 250.464 106.326 252.661 106.723C254.841 107.121 265.309 99.5536 261.883 98.2234C258.44 96.8931 254.253 99.0008 255.533 97.2905C256.813 95.5801 258.924 92.2458 256.883 92.384C254.841 92.5223 252.107 94.1635 252.107 94.1635Z" fill="#CFDAF9"/>
<path d="M195.633 111.077C196.827 111.077 197.986 111.423 199.007 112.027C200.08 112.649 202.018 113.548 202.986 112.632C204.388 111.319 206.793 109.384 207.139 110.904C207.485 112.425 204.855 113.824 205.737 114.757C206.62 115.69 208.783 118.972 205.443 118.679C202.104 118.385 193.245 111.094 195.547 111.077C195.581 111.077 195.616 111.077 195.633 111.077Z" fill="#6774FF"/>
<path d="M262.453 144.8C266.087 142.503 267.661 138.028 266.536 133.882C266.035 132.033 265.118 130.34 263.422 129.805C259.114 128.44 254.01 128.785 255.948 131.653C257.885 134.521 261 134.21 260.169 136.905C259.339 139.6 259.045 146.701 262.021 145.059C262.159 144.973 262.315 144.887 262.453 144.8Z" fill="#B0C0F7"/>
<path d="M381.63 121.858C381.595 121.858 381.561 121.858 381.526 121.858L339.344 115.293C338.963 115.241 338.704 114.878 338.756 114.498C338.808 114.118 339.171 113.859 339.552 113.911L381.734 120.476C382.114 120.528 382.374 120.89 382.322 121.27C382.27 121.599 381.959 121.858 381.63 121.858Z" fill="#F4F4F4"/>
<path d="M381.63 135.109C381.595 135.109 381.561 135.109 381.526 135.109L339.344 128.544C338.963 128.492 338.704 128.129 338.756 127.749C338.808 127.369 339.171 127.11 339.552 127.162L381.734 133.727C382.114 133.779 382.374 134.141 382.322 134.521C382.27 134.867 381.959 135.109 381.63 135.109Z" fill="#F4F4F4"/>
<path d="M344.009 150.191C344.04 147.996 342.841 146.201 341.331 146.18C339.822 146.159 338.573 147.921 338.543 150.115C338.512 152.309 339.711 154.105 341.221 154.126C342.73 154.147 343.979 152.385 344.009 150.191Z" fill="#CFDAF9"/>
<path d="M360.627 153.258C360.657 151.064 359.458 149.268 357.949 149.247C356.439 149.226 355.19 150.988 355.16 153.182C355.129 155.376 356.328 157.172 357.838 157.193C359.348 157.214 360.596 155.452 360.627 153.258Z" fill="#6774FF"/>
<path d="M376.741 156.188C376.771 153.993 375.572 152.198 374.063 152.177C372.553 152.156 371.305 153.918 371.274 156.112C371.244 158.306 372.443 160.102 373.952 160.123C375.462 160.144 376.71 158.382 376.741 156.188Z" fill="#F9A935"/>
<path d="M328.426 30.9169V39.8659C328.426 40.8679 329.152 41.7144 330.139 41.8872L337.873 43.2175C339.118 43.4248 340.278 42.4746 340.278 41.1962V31.8844C340.278 30.8478 339.499 29.984 338.478 29.8458L330.744 28.8956C329.516 28.7401 328.426 29.6903 328.426 30.9169Z" fill="#F4F4F4"/>
<path d="M363.705 37.9479C363.688 37.9479 363.653 37.9479 363.636 37.9479L344.31 35.201C344.05 35.1664 343.877 34.9246 343.912 34.6654C343.946 34.4063 344.188 34.2335 344.448 34.2681L363.774 37.015C364.034 37.0495 364.207 37.2914 364.172 37.5505C364.12 37.7924 363.93 37.9479 363.705 37.9479Z" fill="#F4F4F4"/>
<path d="M363.705 43.8565C363.67 43.8565 363.653 43.8565 363.619 43.8565L344.292 40.5049C344.033 40.4531 343.86 40.2112 343.912 39.9693C343.963 39.7102 344.206 39.5374 344.448 39.5893L363.774 42.9408C364.034 42.9927 364.207 43.2345 364.155 43.4764C364.12 43.701 363.93 43.8565 363.705 43.8565Z" fill="#F4F4F4"/>
<path d="M161.271 45.3247V66.9543C161.271 66.9543 161.098 67.2998 160.527 67.5244C160.233 67.6453 159.835 67.7145 159.316 67.7145C158.313 67.7145 157.655 67.559 157.223 67.3862C156.634 67.1443 156.479 66.8507 156.479 66.8507V45.3247C156.479 45.3247 156.6 45.1519 156.911 44.9619C157.274 44.7546 157.897 44.5127 158.866 44.5127C159.8 44.5127 160.458 44.7718 160.839 44.9964C161.133 45.1692 161.271 45.3247 161.271 45.3247Z" fill="#6774FF"/>
<path d="M160.839 44.3921V45.014C160.458 44.7894 159.818 44.5303 158.866 44.5303C157.88 44.5303 157.274 44.7549 156.911 44.9794V44.3921C156.911 44.3921 157.119 44.0465 157.672 43.8047C157.967 43.6837 158.364 43.5801 158.866 43.5801C159.299 43.5801 159.662 43.6665 159.956 43.7874C160.562 44.0293 160.839 44.3921 160.839 44.3921Z" fill="#CFDAF9"/>
<path d="M159.957 42.543V43.7869C159.663 43.666 159.317 43.5796 158.867 43.5796C158.348 43.5796 157.967 43.666 157.673 43.8042V42.4912C157.673 42.4912 157.863 42.3703 158.313 42.3012C158.469 42.2839 158.659 42.2666 158.867 42.2666C158.971 42.2666 159.074 42.2666 159.161 42.2839C159.766 42.3357 159.957 42.543 159.957 42.543Z" fill="#6774FF"/>
<path d="M159.282 41.3516V42.3017C159.195 42.2845 158.988 42.2845 158.884 42.2845C158.676 42.2845 158.486 42.3017 158.33 42.319V41.3343L158.832 40.4014L159.282 41.3516Z" fill="#1E43C6"/>
<path d="M161.271 59.1797H162.69V67.3513C162.69 67.5413 162.534 67.7141 162.327 67.7141C162.136 67.7141 161.963 67.5586 161.963 67.3513V60.5445H161.254V59.1797H161.271Z" fill="#1E43C6"/>
<path d="M160.527 67.5073C160.441 68.3539 159.731 68.9931 158.866 68.9931C157.966 68.9931 157.222 68.2675 157.205 67.3691C157.638 67.5419 158.295 67.6974 159.299 67.6974C159.835 67.6974 160.233 67.6283 160.527 67.5073Z" fill="#CFDAF9"/>
<path d="M228.593 312.931C227.348 312.931 226.361 311.497 226.361 309.666C226.361 307.834 227.348 306.4 228.593 306.4C229.856 306.4 230.825 307.834 230.825 309.666C230.825 311.497 229.839 312.931 228.593 312.931ZM228.593 307.61C228.109 307.61 227.572 308.491 227.572 309.666C227.572 310.84 228.109 311.721 228.593 311.721C229.078 311.721 229.614 310.84 229.614 309.666C229.614 308.491 229.06 307.61 228.593 307.61Z" fill="black"/>
<path d="M219.926 334.336C218.887 334.336 217.849 333.973 217.001 333.265L201.585 320.394C198.8 318.062 197.208 314.658 197.208 311.03L197.243 187.766H198.177L198.142 311.03C198.142 314.382 199.613 317.526 202.191 319.668L217.607 332.539C218.697 333.455 220.185 333.645 221.465 333.04C222.763 332.435 223.559 331.174 223.559 329.758V314.192C223.559 311.428 225.808 309.165 228.577 309.165V310.097C226.327 310.097 224.493 311.929 224.493 314.175V329.74C224.493 331.537 223.49 333.109 221.863 333.869C221.24 334.198 220.583 334.336 219.926 334.336Z" fill="#6774FF"/>
<path d="M196.913 186.591V187.178C196.913 187.714 197.276 188.128 197.709 188.094C198.09 188.059 198.384 187.662 198.384 187.178V186.47L196.913 186.591Z" fill="#1E43C6"/>
<path d="M338.254 72.7423V90.4849C338.254 90.4849 345.192 97.7063 357.338 98.7601C376.197 100.401 383.395 91.0723 383.395 91.0723V69.5117L338.254 72.7423Z" fill="#B0C0F7"/>
<path d="M331.835 68.9755V70.2885L357.321 85.5778L388.499 67.8698V66.4014L357.407 84.023L331.835 68.9755Z" fill="#6774FF"/>
<path d="M386.734 69.0107H386.267V83.7818H386.734V69.0107Z" fill="#6774FF"/>
<path d="M386.492 86.7182C387.304 86.7182 387.963 86.0607 387.963 85.2497C387.963 84.4387 387.304 83.7812 386.492 83.7812C385.68 83.7812 385.021 84.4387 385.021 85.2497C385.021 86.0607 385.68 86.7182 386.492 86.7182Z" fill="#6774FF"/>
<path d="M331.835 68.9759L357.407 84.0234L388.499 66.4018L360.158 56.2607L331.835 68.9759Z" fill="#CFDAF9"/>
<path d="M356.628 363.015C356.628 363.015 358.341 364.5 358.185 367.852C358.03 371.203 357.874 373.156 357.874 373.156C357.874 373.156 354.431 375.332 342.648 372.758C330.848 370.184 325.623 368.854 325.623 368.854C325.623 368.854 328.045 364.949 334.689 362.997C341.333 361.045 345.936 361.892 345.936 361.892L356.628 363.015Z" fill="#1E43C6"/>
<path d="M339.967 290.041L346.005 362.773C346.005 362.773 348.116 364.483 351.784 364.259C355.452 364.017 356.629 363.015 356.629 363.015V290.766L348.306 287.052L339.967 290.041Z" fill="#6774FF"/>
<path d="M347.804 292.459L343.998 338.517L343.98 338.482V292.787L338.842 290.489L339.326 287.863L347.804 292.459Z" fill="#465CF9"/>
<path d="M240.705 338.517L339.967 327.702V225.048L240.705 232.217V338.517Z" fill="#CFDAF9"/>
<path d="M343.981 365.036C343.981 365.036 345.694 366.522 345.538 369.873C345.382 373.225 345.227 375.177 345.227 375.177C345.227 375.177 341.783 377.354 330.001 374.78C318.201 372.206 312.976 370.875 312.976 370.875C312.976 370.875 315.398 366.971 322.042 365.019C328.686 363.067 333.288 363.913 333.288 363.913L343.981 365.036Z" fill="#1E43C6"/>
<path d="M343.98 292.787V365.036C343.98 365.036 342.804 366.055 339.136 366.28C335.468 366.522 333.357 364.794 333.357 364.794L327.318 292.044L335.641 289.056L338.824 290.472L343.98 292.787Z" fill="#6774FF"/>
<path d="M318.876 256.369C318.876 256.369 317.526 262.485 316.592 271.952C315.657 281.437 315.779 288.796 315.779 288.796C315.779 288.796 325.848 294.031 344.759 292.735C360.141 291.681 365.539 285.98 365.539 285.98C365.539 285.98 365.937 265.664 365.539 259.185C365.141 252.706 364.397 251.445 364.397 251.445L356.092 249.269L348.116 251.29L318.876 256.369Z" fill="#1E43C6"/>
<path d="M312.561 183.481C312.561 183.481 313.478 184.621 313.478 186.729C313.478 188.837 314.36 190.996 314.36 190.996L319.568 188.18L318.357 182.272C318.357 182.272 317.301 179.231 317.128 179.283C316.955 179.335 313.322 180.043 313.322 180.043L312.561 183.481Z" fill="#4D6BF7"/>
<path d="M213.212 200.394L240.705 232.217L339.966 225.047L314.532 193.57L213.212 200.394Z" fill="#B0C0F7"/>
<path d="M213.212 200.395L240.705 232.217V338.517L213.212 316.058V200.395Z" fill="#6774FF"/>
<path d="M229.147 208.532L243.006 225.479C243.369 225.929 243.94 226.17 244.529 226.136L274.236 223.804C275.707 223.683 276.399 221.938 275.43 220.849L260.758 204.454C260.395 204.04 259.858 203.832 259.322 203.867L230.445 205.646C228.974 205.733 228.23 207.409 229.147 208.532Z" fill="#CFDAF9"/>
<path d="M303.269 166.62C303.269 166.62 303.424 172.787 305.449 177.469C307.473 182.151 310.31 185.848 310.31 185.848C310.31 185.848 312.473 184.57 318.961 179.024C325.45 173.478 318.961 165.065 318.961 165.065L312.56 160.625H304.514L303.269 166.62Z" fill="#6774FF"/>
<path d="M311.868 201.19C311.851 201.259 311.851 201.311 311.834 201.38C311.574 202.347 310.363 202.952 309.066 202.744C307.958 202.572 307.11 201.881 306.885 201.086C306.816 200.879 306.816 200.654 306.851 200.429C307.024 199.358 308.27 198.667 309.671 198.875C311.038 199.082 312.024 200.118 311.868 201.19Z" fill="#6774FF"/>
<path d="M311.868 202.036C311.712 203.107 310.449 203.798 309.048 203.591C307.663 203.384 306.66 202.347 306.833 201.276C306.85 201.207 306.85 201.155 306.867 201.086C307.092 201.898 307.94 202.589 309.048 202.744C310.362 202.952 311.556 202.347 311.816 201.38C311.885 201.587 311.902 201.812 311.868 202.036Z" fill="#305FF2"/>
<path d="M293.874 212.574C293.857 212.643 293.857 212.695 293.84 212.764C293.58 213.732 292.369 214.337 291.071 214.129C289.964 213.956 289.116 213.265 288.891 212.471C288.822 212.263 288.822 212.039 288.857 211.814C289.03 210.743 290.275 210.052 291.677 210.259C293.044 210.467 294.03 211.503 293.874 212.574Z" fill="#6774FF"/>
<path d="M293.874 213.403C293.718 214.474 292.455 215.165 291.053 214.958C289.669 214.751 288.666 213.714 288.839 212.643C288.856 212.574 288.856 212.522 288.873 212.453C289.098 213.265 289.946 213.956 291.053 214.112C292.368 214.319 293.562 213.714 293.822 212.747C293.891 212.971 293.908 213.196 293.874 213.403Z" fill="#305FF2"/>
<path d="M283.77 220.521C283.77 220.521 282.178 219.156 280.586 219.242C278.977 219.329 277.766 220.141 275.43 218.534C273.094 216.927 269.461 218.931 269.098 217.757C268.751 216.582 271.174 213.507 273.907 211.555C276.641 209.602 279.929 209.948 281.849 210.656C283.787 211.365 284.168 213.282 285.015 213.524C285.863 213.766 286.659 214.025 286.659 214.025L287.593 214.837L283.77 220.521Z" fill="#6774FF"/>
<path d="M365.539 250.461C365.539 250.461 364.362 251.705 362.338 252.793C360.314 253.881 357.494 254.4 357.494 254.4L356.144 250.133L354.102 255.92C354.102 255.92 346.126 259.427 336.402 259.773C326.679 260.118 317.111 255.592 317.111 255.592C317.111 255.592 316.401 250.288 316.799 244.293C316.938 242.116 317.284 240.043 317.664 238.264C318.322 235.241 319.083 233.116 319.118 232.977C318.979 233.012 316.384 233.651 313.097 232.977C309.705 232.269 284.047 223.735 284.047 223.735C284.047 223.735 283.233 220.815 284.583 217.014C285.933 213.214 288.632 213.335 288.632 213.335C288.632 213.335 305.622 218.362 308.425 219.191C311.245 220.003 308.304 202.347 309.013 195.799C309.723 189.252 313.633 188.06 313.633 188.06L315.623 187.887L345.797 185.157C345.797 185.157 346.005 185.226 346.351 185.399C346.732 185.606 347.285 185.952 347.96 186.505C349.465 187.783 351.524 190.167 353.185 194.504C356.231 202.468 355.417 216.842 355.521 220.245C355.538 220.763 355.608 221.195 355.694 221.575C356.231 223.666 357.943 224.167 360.314 229.729C363.117 236.277 365.539 250.461 365.539 250.461Z" fill="#305FF2"/>
<path d="M359.12 220.47C357.788 221.264 356.629 221.558 355.66 221.575C355.556 221.195 355.504 220.763 355.487 220.245C355.366 216.859 356.196 202.468 353.151 194.504C351.49 190.168 349.431 187.766 347.926 186.505C347.926 186.505 351.161 186.211 354.674 195.212C358.186 204.213 364.934 217.032 359.12 220.47Z" fill="#0B47CE"/>
<path d="M327.094 244.38C326.938 244.38 326.782 244.38 326.609 244.38C323.235 244.293 320.467 242.929 320.346 242.877C319.879 242.652 319.688 242.082 319.931 241.616C320.156 241.149 320.727 240.959 321.194 241.201C321.211 241.218 323.72 242.428 326.661 242.514C329.637 242.583 331.869 241.875 331.886 241.857C332.371 241.702 332.907 241.961 333.063 242.445C333.219 242.929 332.959 243.464 332.475 243.62C332.371 243.671 330.173 244.38 327.094 244.38Z" fill="#0B47CE"/>
<path d="M324.655 232.373C321.869 237.279 318.53 235.776 317.665 238.281C318.339 235.154 319.118 232.995 319.118 232.995C319.118 232.995 322.111 233.236 323.391 225.981C324.672 218.725 324.724 203.055 322.111 198.84C319.499 194.624 316.713 193.571 316.713 193.571C316.713 193.571 321.367 193.329 324.257 199.531C327.146 205.733 327.371 227.587 324.655 232.373Z" fill="#0B47CE"/>
<path d="M303.269 166.62C303.269 166.62 309.273 164.443 312.56 168.261C315.848 172.079 315.761 174.74 315.069 179.646C314.377 184.553 314.827 200.619 334.171 197.786C349.466 195.54 347.337 180.354 343.773 175.673C339.707 170.317 334.517 169.591 334.517 169.591C334.517 169.591 333.461 148.014 317.872 148.014C299.549 147.996 303.269 166.62 303.269 166.62Z" fill="#0A0189"/>
<path d="M290.586 203.263C290.569 203.332 290.569 203.384 290.552 203.453C290.292 204.42 289.081 205.025 287.783 204.818C286.676 204.645 285.828 203.954 285.603 203.159C285.534 202.952 285.534 202.727 285.569 202.503C285.742 201.432 286.987 200.741 288.389 200.948C289.756 201.138 290.759 202.192 290.586 203.263Z" fill="#6774FF"/>
<path d="M290.587 204.092C290.431 205.163 289.168 205.854 287.766 205.647C286.382 205.439 285.379 204.403 285.552 203.332C285.569 203.263 285.569 203.211 285.586 203.142C285.811 203.954 286.659 204.645 287.766 204.8C289.081 205.007 290.275 204.403 290.535 203.435C290.604 203.66 290.621 203.867 290.587 204.092Z" fill="#305FF2"/>
<path d="M301.971 202.416C301.954 202.485 301.954 202.537 301.936 202.606C301.677 203.574 300.466 204.178 299.168 203.971C298.061 203.798 297.213 203.107 296.988 202.313C296.919 202.105 296.919 201.881 296.953 201.656C297.126 200.585 298.372 199.894 299.774 200.101C301.14 200.308 302.144 201.345 301.971 202.416Z" fill="#6774FF"/>
<path d="M301.971 203.263C301.816 204.334 300.553 205.025 299.151 204.818C297.767 204.61 296.763 203.574 296.936 202.503C296.954 202.433 296.954 202.382 296.971 202.312C297.196 203.124 298.044 203.816 299.151 203.971C300.466 204.178 301.66 203.574 301.919 202.606C301.989 202.814 302.006 203.038 301.971 203.263Z" fill="#305FF2"/>
<path d="M305.259 211.728C305.242 211.797 305.242 211.849 305.224 211.918C304.965 212.885 303.754 213.49 302.456 213.283C301.349 213.11 300.501 212.419 300.276 211.624C300.207 211.417 300.207 211.192 300.241 210.968C300.414 209.896 301.66 209.205 303.062 209.413C304.429 209.62 305.415 210.657 305.259 211.728Z" fill="#6774FF"/>
<path d="M305.258 212.574C305.103 213.645 303.84 214.336 302.438 214.129C301.054 213.922 300.05 212.885 300.224 211.814C300.241 211.745 300.241 211.693 300.258 211.624C300.483 212.436 301.331 213.127 302.438 213.283C303.753 213.49 304.947 212.885 305.206 211.918C305.276 212.125 305.293 212.35 305.258 212.574Z" fill="#305FF2"/>
<path d="M234.079 209.758L238.439 215.097C238.56 215.235 238.733 215.321 238.923 215.304L248.284 214.561C248.751 214.526 248.958 213.974 248.664 213.628L244.045 208.462C243.924 208.342 243.768 208.272 243.595 208.272L234.494 208.843C234.027 208.877 233.802 209.395 234.079 209.758Z" fill="#6774FF"/>
<path d="M251.778 220.504C251.76 220.555 251.743 220.625 251.709 220.676C251.293 221.592 250.03 222.007 248.767 221.609C247.694 221.281 246.968 220.469 246.864 219.64C246.829 219.415 246.847 219.191 246.916 218.983C247.245 217.947 248.594 217.446 249.926 217.86C251.276 218.31 252.089 219.467 251.778 220.504Z" fill="#6774FF"/>
<path d="M251.657 221.333C251.328 222.37 249.978 222.871 248.646 222.456C247.314 222.041 246.483 220.867 246.795 219.83C246.812 219.778 246.83 219.709 246.864 219.657C246.968 220.486 247.695 221.298 248.767 221.627C250.03 222.024 251.311 221.592 251.709 220.694C251.743 220.901 251.709 221.126 251.657 221.333Z" fill="#305FF2"/>
<path d="M264.738 219.139C264.72 219.191 264.703 219.26 264.669 219.312C264.253 220.228 262.99 220.642 261.727 220.245C260.654 219.917 259.928 219.105 259.824 218.276C259.789 218.051 259.807 217.826 259.876 217.619C260.205 216.583 261.554 216.082 262.886 216.496C264.219 216.928 265.049 218.103 264.738 219.139Z" fill="#6774FF"/>
<path d="M264.617 219.969C264.288 221.005 262.938 221.506 261.606 221.092C260.274 220.677 259.443 219.502 259.755 218.466C259.772 218.414 259.789 218.345 259.824 218.293C259.928 219.122 260.655 219.934 261.727 220.262C262.99 220.66 264.271 220.228 264.669 219.33C264.686 219.537 264.669 219.761 264.617 219.969Z" fill="#305FF2"/>
<path d="M293.892 279.571V318.839C293.892 319.928 293.079 320.826 291.989 320.947L251.156 325.404C249.893 325.542 248.803 324.558 248.803 323.297V283.7C248.803 282.611 249.633 281.696 250.723 281.592L291.556 277.463C292.802 277.325 293.892 278.31 293.892 279.571Z" fill="#B0C0F7"/>
<path d="M256.138 306.366C257.371 306.366 258.37 305.106 258.37 303.55C258.37 301.995 257.371 300.734 256.138 300.734C254.906 300.734 253.906 301.995 253.906 303.55C253.906 305.106 254.906 306.366 256.138 306.366Z" fill="#6774FF"/>
<path d="M296.677 283.7V289.695C296.677 290.403 296.175 291.008 295.483 291.129L293.874 291.44V282.404L294.964 282.232C295.864 282.111 296.677 282.802 296.677 283.7Z" fill="#6774FF"/>
<path d="M296.677 307.817V313.812C296.677 314.52 296.175 315.125 295.483 315.246L293.874 315.557V306.522L294.964 306.349C295.864 306.228 296.677 306.919 296.677 307.817Z" fill="#6774FF"/>
<path d="M391.042 321.431L396.907 348.727H414.486L419.313 321.431H391.042Z" fill="#1E43C6"/>
<path d="M409.434 321.431C409.434 321.431 406.215 312.136 411.51 304.794C416.787 297.452 420.195 296.881 420.939 292.407C422.202 284.633 418.154 282.439 418.673 278.016C419.451 271.451 426.563 273.852 425.905 266.044C425.386 259.842 429.106 248.508 417.946 254.365C407.946 259.617 405.316 274.734 403.759 289.349C402.201 303.965 404.71 321.413 404.71 321.413H409.434V321.431Z" fill="#FFBC48"/>
<path d="M399.935 321.431C399.935 321.431 402.859 312.983 398.049 306.297C393.239 299.611 390.142 299.093 389.484 295.033C388.343 287.967 392.028 285.98 391.543 281.938C390.834 275.96 384.363 278.154 384.969 271.054C385.436 265.422 382.045 255.108 392.201 260.429C401.302 265.215 403.689 278.949 405.108 292.252C406.527 305.554 404.243 321.414 404.243 321.414H399.935V321.431Z" fill="#929FFF"/>
<path d="M406.786 321.604C406.717 321.604 406.648 321.552 406.613 321.483C406.596 321.431 405.454 317.06 405.385 312.948C405.316 308.716 408.257 296.657 412.306 291.923C415.005 288.779 414.122 284.771 413.205 280.538C412.721 278.31 412.219 276.012 412.254 273.801C412.34 267.426 416.925 263.383 416.96 263.349C417.029 263.28 417.133 263.297 417.202 263.366C417.271 263.435 417.254 263.539 417.185 263.608C417.133 263.642 412.669 267.599 412.583 273.801C412.548 275.977 413.05 278.258 413.517 280.469C414.451 284.788 415.334 288.883 412.531 292.148C408.534 296.812 405.627 308.75 405.696 312.948C405.766 317.008 406.89 321.362 406.908 321.396C406.925 321.483 406.873 321.586 406.786 321.604C406.821 321.604 406.804 321.604 406.786 321.604Z" fill="#EAEAEA"/>
<path d="M402.306 321.604C402.202 321.604 402.133 321.518 402.133 321.414C402.15 321.258 403.171 306.038 401.597 301.978C401.268 301.114 400.766 300.13 400.23 299.093C398.413 295.517 396.146 291.043 397.306 285.704C398.205 281.558 396.008 278.604 394.07 275.978C392.842 274.319 391.786 272.868 391.786 271.434C391.786 267.409 387.79 262.934 387.755 262.883C387.686 262.813 387.703 262.71 387.772 262.641C387.841 262.572 387.945 262.589 388.015 262.658C388.188 262.848 392.132 267.288 392.132 271.434C392.132 272.764 393.171 274.164 394.364 275.77C396.25 278.31 398.586 281.489 397.652 285.773C396.51 291.008 398.759 295.396 400.541 298.938C401.078 299.992 401.579 300.976 401.908 301.857C403.517 305.986 402.514 320.809 402.462 321.431C402.479 321.535 402.392 321.604 402.306 321.604Z" fill="#EAEAEA"/>
<path d="M163.054 294.29L167.639 315.661H181.394L185.166 294.29H163.054Z" fill="#305FF2"/>
<path d="M177.432 294.291C177.432 294.291 174.923 287.017 179.058 281.282C183.193 275.529 185.858 275.08 186.429 271.59C187.415 265.509 184.249 263.798 184.647 260.326C185.252 255.178 190.824 257.061 190.305 250.962C189.907 246.108 192.813 237.245 184.076 241.823C176.238 245.935 174.179 257.752 172.968 269.206C171.757 280.66 173.712 294.291 173.712 294.291H177.432Z" fill="#FFBC48"/>
<path d="M170.009 294.29C170.009 294.29 172.293 287.673 168.538 282.456C164.784 277.238 162.344 276.824 161.825 273.645C160.925 268.117 163.815 266.562 163.434 263.4C162.88 258.718 157.811 260.446 158.278 254.883C158.641 250.478 155.994 242.41 163.936 246.573C171.064 250.322 172.933 261.068 174.04 271.468C175.147 281.886 173.365 294.29 173.365 294.29H170.009Z" fill="#1E43C6"/>
<path d="M175.372 294.428C175.32 294.428 175.251 294.393 175.234 294.324C175.216 294.29 174.334 290.852 174.282 287.656C174.23 284.339 176.531 274.906 179.698 271.209C181.808 268.756 181.134 265.611 180.407 262.294C180.026 260.549 179.646 258.753 179.663 257.025C179.732 252.032 183.314 248.871 183.348 248.854C183.4 248.802 183.487 248.819 183.539 248.871C183.591 248.923 183.573 249.009 183.521 249.061C183.487 249.095 179.992 252.188 179.923 257.042C179.905 258.753 180.286 260.532 180.667 262.26C181.393 265.646 182.085 268.842 179.905 271.399C176.774 275.061 174.507 284.39 174.559 287.673C174.611 290.852 175.493 294.255 175.511 294.29C175.528 294.359 175.493 294.428 175.407 294.462C175.389 294.428 175.372 294.428 175.372 294.428Z" fill="#EAEAEA"/>
<path d="M171.86 294.428C171.774 294.428 171.722 294.359 171.722 294.29C171.722 294.169 172.535 282.266 171.307 279.087C171.047 278.413 170.649 277.636 170.234 276.824C168.815 274.025 167.033 270.536 167.95 266.337C168.659 263.107 166.929 260.775 165.424 258.719C164.455 257.423 163.624 256.283 163.624 255.16C163.624 252.016 160.493 248.509 160.475 248.474C160.424 248.422 160.424 248.336 160.493 248.284C160.545 248.232 160.631 248.232 160.683 248.301C160.822 248.44 163.901 251.929 163.901 255.177C163.901 256.214 164.714 257.302 165.649 258.581C167.119 260.567 168.953 263.055 168.227 266.407C167.344 270.501 169.092 273.939 170.493 276.703C170.909 277.515 171.307 278.293 171.566 278.984C172.812 282.214 172.033 293.806 171.999 294.307C171.999 294.377 171.929 294.428 171.86 294.428Z" fill="#EAEAEA"/>
<path d="M111.424 200.533L110.455 202.848C110.974 202.434 111.563 201.898 112.186 201.276L110.836 204.887L102.358 204.334L96.8906 186.177C97.254 186.557 97.6173 186.972 97.9807 187.386L102.687 177.608C102.946 177.072 103.5 176.761 104.088 176.813L118.345 178.074C119.279 178.161 119.885 179.128 119.539 180.009L111.424 200.533Z" fill="#CFDAF9"/>
<path d="M121.13 177.297L112.185 201.276C111.562 201.898 110.974 202.434 110.455 202.848L111.424 200.533L119.521 180.009C119.867 179.128 119.279 178.161 118.328 178.074L104.071 176.813C103.482 176.761 102.929 177.072 102.669 177.608L97.9631 187.386C97.617 186.971 97.2537 186.557 96.873 186.177L99.278 181.996L100.645 179.612L103.361 174.896L104.918 175.69L121.13 177.297Z" fill="#CFDAF9"/>
<path d="M79.8658 387.892C79.8658 387.892 78.6719 389.309 78.9315 393.04C79.191 396.789 79.8658 398.845 79.8658 398.845C79.8658 398.845 85.2986 401.074 91.8906 399.484C97.2889 398.171 109.037 392.487 113.362 390.345C114.401 389.827 114.764 388.514 114.089 387.547C113.328 386.441 111.944 385.214 109.539 384.817C104.85 384.057 92.6692 385.249 92.6692 385.249C92.6692 385.249 87.8074 386.268 86.6135 386.182C85.4197 386.095 79.8658 387.892 79.8658 387.892Z" fill="#1E43C6"/>
<path d="M56.1962 376.715C56.1962 376.715 54.9678 377.924 54.8986 381.414C54.8294 384.903 55.2965 386.873 55.2965 386.873C55.2965 386.873 60.1584 389.378 66.3871 388.445C71.4912 387.668 82.8586 383.349 87.0457 381.725C88.0492 381.327 88.4818 380.135 87.9454 379.202C87.3225 378.114 86.146 376.87 83.9486 376.3C79.6578 375.212 68.273 375.315 68.273 375.315C68.273 375.315 63.688 375.868 62.5807 375.695C61.508 375.505 56.1962 376.715 56.1962 376.715Z" fill="#1E43C6"/>
<path d="M79.8652 382.847V387.874C79.8652 387.874 83.7236 390.172 87.8241 389.326C91.9074 388.479 92.686 386.682 92.686 386.682V382.847C92.686 382.847 86.3881 380.135 85.7825 379.375C85.177 378.614 79.8652 382.847 79.8652 382.847Z" fill="#6774FF"/>
<path d="M56.6115 372.05L56.1963 376.715C56.1963 376.715 59.5875 379.151 63.4458 378.701C67.3042 378.252 68.1693 376.645 68.1693 376.645L68.4807 373.087C68.4807 373.087 62.8576 370.063 62.3558 369.303C61.8886 368.543 56.6115 372.05 56.6115 372.05Z" fill="#6774FF"/>
<path d="M101.476 179.957C101.424 180.631 99.9531 181.616 98.7419 182.324L96.8906 186.177L94.2434 186.816L93.707 183.43C93.707 183.43 94.3991 179.508 97.1674 177.297C99.9357 175.085 102.358 174.826 102.358 174.826L99.9877 179.75C100.818 179.525 101.51 179.491 101.476 179.957Z" fill="#6774FF"/>
<path d="M74.7437 255.177C71.3006 252.88 67.3731 250.202 67.1309 249.822C66.7156 249.148 53.445 259.721 53.445 259.721C53.445 259.721 50.6594 266.148 54.7426 278.777C57.9608 288.728 52.0781 369.597 52.0781 369.597C52.0781 369.597 57.4244 373.398 64.2068 373.484C70.9892 373.57 73.9998 370.236 73.9998 370.236L74.4496 361.719L79.8651 258.564C79.8651 258.581 77.4602 257.009 74.7437 255.177ZM64.5875 277.515C61.525 269.344 62.2863 262.174 62.2863 262.174L60.5042 256.577L70.9892 257.976L71.1622 258.408C68.6015 260.723 66.5253 262.693 66.5253 262.693C66.5253 262.693 64.103 269.845 69.5877 283.027C70.1068 284.253 70.5567 286.534 70.9719 289.609C70.574 286.43 67.6499 285.687 64.5875 277.515Z" fill="#F9A935"/>
<path d="M90.2121 170.801C90.2121 170.801 90.0218 174.256 90.2121 176.744C90.4024 179.232 90.5928 182.238 90.5928 182.238C90.5928 182.238 82.6685 184.466 82.4089 184.414C82.1494 184.345 75.3843 181.408 75.3843 181.408L74.7441 176.813L75.765 168.78L81.1286 164.893L90.9042 164.443L90.2121 170.801Z" fill="#4D6BF7"/>
<path d="M100.506 168.313C100.506 168.313 98.0148 171.181 88.3603 170.749C78.7058 170.3 76.8545 167.553 76.8545 167.553L80.5571 149.569L93.9143 146.183C93.9143 146.183 95.5233 147.824 97.2362 151.521C97.2535 151.538 97.2535 151.573 97.2709 151.607C97.4093 151.884 97.5304 152.177 97.6515 152.488C97.7553 152.73 97.8591 152.972 97.9629 153.214C98.1532 153.68 98.3263 154.164 98.5166 154.665C98.7415 155.287 98.9318 155.909 99.1049 156.566C99.1741 156.825 99.2433 157.067 99.2952 157.326C100.593 162.664 100.506 168.313 100.506 168.313Z" fill="#6774FF"/>
<path d="M97.9804 153.214L96.5443 154.25L96.2848 154.423L86.786 161.195C86.786 161.195 85.8517 160.988 85.7825 160.919C85.7133 160.85 86.0247 159.64 86.0247 159.64L96.4405 152.091L97.098 151.624L97.2364 151.521C97.2537 151.538 97.2537 151.572 97.271 151.607C97.4094 151.883 97.5305 152.177 97.6517 152.488C97.7728 152.713 97.8766 152.954 97.9804 153.214Z" fill="#F9A935"/>
<path d="M100.956 156.064C100.541 156.911 99.8491 157.222 99.3127 157.325C99.2608 157.066 99.1916 156.824 99.1224 156.565C99.4165 156.427 99.7279 156.203 99.9356 155.771C100.749 154.095 99.4857 152.35 99.4857 152.35L97.6863 152.488C97.5652 152.177 97.4268 151.884 97.3057 151.607L100.351 151.365C100.334 151.365 102.064 153.767 100.956 156.064Z" fill="#F9A935"/>
<path d="M71.1456 285.099C71.6647 286.326 73.5852 367.178 74.0004 370.27C73.6198 367.057 67.6506 285.704 64.5882 277.532C61.5257 269.36 62.287 262.174 62.287 262.174L60.5049 256.576L70.9899 257.976L71.1629 258.407C68.6022 260.722 66.526 262.692 66.526 262.692C66.526 262.692 65.6609 271.9 71.1456 285.099Z" fill="#F49519"/>
<path d="M130.215 182.203C130.215 182.203 131.789 180.976 132.377 179.663C132.966 178.351 143.208 164.374 143.97 165.203C144.731 166.033 139.938 173.116 140.527 173.824C141.097 174.533 144.108 179.249 142.447 182.566C140.786 185.883 138.364 186.142 137.533 187.23C136.703 188.319 136.149 189.114 136.149 189.114L128.848 185.244L130.215 182.203Z" fill="#6774FF"/>
<path d="M98.3436 379.495C98.3436 379.495 95.4023 383.331 88.1181 383.832C80.834 384.333 74.761 380.722 74.761 380.722C74.761 380.722 74.6918 372.93 74.4668 361.736C74.0343 339.881 73.0481 305.053 70.9891 289.712C70.9891 289.677 70.9718 289.643 70.9718 289.608C70.5566 286.533 70.0894 284.252 69.5877 283.026C64.0857 269.844 66.5252 262.692 66.5252 262.692C66.5252 262.692 68.6188 260.722 71.1622 258.407C72.3041 257.354 73.5671 256.231 74.7437 255.16C77.5812 252.654 80.1073 250.581 80.3149 250.858C80.834 251.549 94.7448 259.133 94.7448 259.133L98.3436 379.495Z" fill="#F9A935"/>
<path d="M136.599 191.014C136.599 191.014 114.193 224.288 105.282 225.428C100.126 226.102 97.1501 216.704 97.1501 216.704C97.1501 216.704 97.2539 219.053 96.9944 221.679C96.9597 221.99 96.9251 222.301 96.8905 222.612C96.7867 223.459 96.631 224.305 96.458 225.117C95.9735 227.363 96.0773 229.695 96.7521 231.907C97.1674 233.271 97.5999 235.103 97.8768 237.435C98.5688 243.309 98.4823 258.114 98.4823 258.114C98.4823 258.114 80.3325 263.729 66.5255 262.71C52.7185 261.691 49.8291 257.855 49.8291 257.855C49.8291 257.855 50.1751 239.819 52.5628 225.514C54.9505 211.227 65.003 182.411 67.9443 179.094C70.8856 175.777 80.1768 178.04 80.1768 178.04C80.1768 178.04 84.9522 178.627 92.7035 182.808C94.2087 183.62 95.6102 184.778 96.9251 186.16C97.2885 186.54 97.6518 186.954 97.9979 187.369C98.9149 188.457 99.78 189.632 100.593 190.841C100.645 190.911 100.68 190.98 100.714 191.031C101.268 191.843 101.77 192.673 102.271 193.502C102.358 193.64 102.427 193.778 102.514 193.917C105.04 198.184 106.891 202.244 108.033 203.626C108.431 204.109 109.313 203.747 110.473 202.831C111.338 202.14 112.359 201.138 113.483 199.946C114.158 199.22 114.85 198.426 115.577 197.596C121.304 190.911 128.103 181.27 128.103 181.27C128.103 181.27 131.131 182.203 133.38 184.467C136.131 187.231 136.599 191.014 136.599 191.014Z" fill="#1E43C6"/>
<path d="M123.778 173.807L113.466 199.946C113.033 200.412 112.601 200.861 112.185 201.259C111.562 201.881 110.974 202.416 110.455 202.831L111.424 200.516L119.521 179.992C119.867 179.111 119.279 178.143 118.328 178.057L104.071 176.796C103.482 176.744 102.929 177.055 102.669 177.591L97.9631 187.369C97.617 186.954 97.2537 186.54 96.873 186.16L98.7244 182.307C98.8974 182.203 99.0877 182.1 99.278 181.979C100.351 181.322 101.423 180.51 101.458 179.94C101.475 179.612 101.147 179.543 100.645 179.595C100.437 179.612 100.212 179.664 99.9701 179.716L102.34 174.792L103.69 171.993L123.778 173.807Z" fill="#B0C0F7"/>
<path d="M123.778 173.807V176.433L115.559 197.596C114.833 198.425 114.141 199.237 113.466 199.945L123.778 173.807Z" fill="#6774FF"/>
<path d="M108.57 172.459L108.12 173.53C107.808 174.256 108.293 175.085 109.089 175.154L114.85 175.69C115.335 175.741 115.802 175.465 116.01 175.016L116.857 173.202L108.57 172.459Z" fill="#6774FF"/>
<path d="M109.555 172.546L109.227 173.323C109.002 173.842 109.348 174.446 109.919 174.498L114.088 174.895C114.452 174.93 114.781 174.74 114.936 174.412L115.559 173.099L109.555 172.546Z" fill="#B0C0F7"/>
<path d="M114.313 181.391H114.296L104.416 180.407C104.313 180.389 104.226 180.303 104.243 180.199C104.261 180.096 104.347 180.009 104.451 180.027L114.33 181.011C114.434 181.029 114.521 181.115 114.504 181.219C114.504 181.305 114.417 181.391 114.313 181.391Z" fill="#B0C0F7"/>
<path d="M113.449 184H113.432L103.552 183.015C103.448 182.998 103.362 182.911 103.379 182.808C103.396 182.704 103.483 182.618 103.587 182.635L113.466 183.62C113.57 183.637 113.657 183.723 113.639 183.827C113.639 183.931 113.553 184 113.449 184Z" fill="#B0C0F7"/>
<path d="M112.445 186.816H112.428L102.548 185.831C102.444 185.814 102.358 185.728 102.375 185.624C102.393 185.52 102.479 185.451 102.583 185.451L112.462 186.436C112.566 186.453 112.653 186.54 112.635 186.643C112.618 186.73 112.532 186.816 112.445 186.816Z" fill="#B0C0F7"/>
<path d="M111.58 189.424H111.562L101.683 188.44C101.579 188.422 101.493 188.336 101.51 188.232C101.527 188.129 101.614 188.06 101.718 188.06L111.597 189.044C111.701 189.062 111.787 189.148 111.77 189.252C111.753 189.355 111.684 189.424 111.58 189.424Z" fill="#B0C0F7"/>
<path d="M110.645 192.05H110.628L100.748 191.066C100.645 191.048 100.558 190.962 100.575 190.858C100.593 190.755 100.679 190.686 100.783 190.686L110.663 191.67C110.766 191.688 110.853 191.774 110.836 191.878C110.818 191.964 110.732 192.05 110.645 192.05Z" fill="#B0C0F7"/>
<path d="M86.1285 245.122C83.1007 245.122 80.7476 244.5 80.6265 244.466C80.0901 244.31 79.7614 243.758 79.8998 243.222C80.0555 242.686 80.6092 242.358 81.1456 242.496C81.1802 242.514 84.4675 243.377 88.101 242.98C91.5268 242.6 94.0356 241.391 94.0702 241.373C94.5719 241.132 95.1948 241.339 95.437 241.84C95.6792 242.341 95.4716 242.963 94.9699 243.205C94.8487 243.256 92.115 244.587 88.3259 245.001C87.5819 245.088 86.8379 245.122 86.1285 245.122Z" fill="#A2B1FC"/>
<path d="M96.9948 221.696C96.9948 221.696 92.2368 213.283 87.6517 203.314C83.0667 193.363 87.6344 190.202 89.8491 188.751C91.9945 187.317 95.3684 188.664 95.5414 188.751C95.2646 188.751 88.7072 188.82 87.7209 194.936C86.7001 201.189 97.1332 216.721 97.1332 216.721C97.1332 216.721 97.2543 219.07 96.9948 221.696Z" fill="#0A0189"/>
<path d="M90.8865 132.103C90.8865 132.103 98.6897 139.669 93.9316 146.183C89.1736 152.696 85.9035 150.743 84.6059 152.229C82.9449 154.13 83.2563 156.445 85.1768 158.5C87.0973 160.556 87.3569 163.493 87.3569 163.493C87.3569 163.493 81.924 159.917 81.2839 163.804C80.2458 170.11 85.246 168.14 85.7651 169.108C86.2841 170.075 80.7302 175.966 74.0689 172.995C63.9127 168.469 66.854 160.038 66.854 160.038C66.854 160.038 61.4904 152.627 71.266 142.814C77.0103 137.044 83.9138 140.637 87.2531 139.117C90.5404 137.562 90.8865 132.103 90.8865 132.103Z" fill="#0A0189"/>
</g>
</g>
<defs>
<clipPath id="clip0_2525_21070">
<rect width="437" height="437" fill="white"/>
</clipPath>
<clipPath id="clip1_2525_21070">
<rect width="438" height="395" fill="white" transform="translate(0 21)"/>
</clipPath>
</defs>
</svg>
