<svg id="Layer_1" data-name="Layer 1" xmlns="http://www.w3.org/2000/svg" viewBox="0 0 354 200.65"><defs><style>.cls-1{fill:#fff;}.cls-1,.cls-10,.cls-12,.cls-14,.cls-2,.cls-5,.cls-6,.cls-7,.cls-8,.cls-9{stroke:#243038;stroke-miterlimit:10;stroke-width:2px;}.cls-2{fill:#fddfbb;}.cls-3{fill:#243038;}.cls-4{fill:#f7931e;}.cls-5,.cls-7{fill:none;}.cls-5{stroke-linecap:round;}.cls-6{fill:#d3b3ab;}.cls-8{fill:#526573;}.cls-9{fill:#fbb5b7;}.cls-10{fill:#e8d4b6;}.cls-11{fill:#c49449;}.cls-12{fill:#f2f3f5;}.cls-13{fill:#b2bac1;}.cls-14{fill:#f55157;}</style></defs><title>Closed-Discussions-400x250</title><path class="cls-1" d="M246,195.65c-19.33,0-35,9.85-35,22v10h70v-10C281,205.5,265.33,195.65,246,195.65Z" transform="translate(-23 -28)"/><polygon class="cls-2" points="230 172.65 223 183.65 216 172.65 216 154.65 230 154.65 230 172.65"/><rect class="cls-2" x="197" y="135.95" width="52" height="10.11" rx="5" ry="5"/><path class="cls-2" d="M225.73,173.41a20.27,20.27,0,1,0,40.54,0v-8.79a20.27,20.27,0,1,0-40.54,0Z" transform="translate(-23 -28)"/><circle class="cls-3" cx="214.22" cy="140" r="3.38"/><circle class="cls-3" cx="231.78" cy="140" r="3.38"/><path class="cls-4" d="M246,178.26a2.7,2.7,0,0,0,2.7-2.7h-5.4A2.7,2.7,0,0,0,246,178.26Z" transform="translate(-23 -28)"/><path class="cls-5" d="M241.23,184.05a6.06,6.06,0,0,0,9.54,0" transform="translate(-23 -28)"/><rect class="cls-6" x="239" y="120.65" width="3.95" height="15.12"/><path class="cls-6" d="M225.73,164.62V145.15a4,4,0,0,1,4-4H272c0,11.5-6.68,14-13.84,14-4.34,0-13.88-1-20.73-1.7a7,7,0,0,0-7.75,7v4.16Z" transform="translate(-23 -28)"/><path class="cls-7" d="M232.22,197.42l-1.59,2.89a5,5,0,0,0-.07,4.72l7.12,13.74a2,2,0,0,0,3.25.43l5.07-5.55" transform="translate(-23 -28)"/><path class="cls-7" d="M259.78,197.42l1.59,2.89a5,5,0,0,1,.07,4.72l-7.12,13.74a2,2,0,0,1-3.25.43L246,213.65" transform="translate(-23 -28)"/><circle class="cls-3" cx="223" cy="194.07" r="2"/><polyline class="cls-7" points="236 199.65 236 194.06 248 194.06 248 199.65"/><circle class="cls-8" cx="129.01" cy="84.29" r="13.58"/><circle class="cls-9" cx="129.01" cy="94.87" r="12"/><path class="cls-9" d="M152,171.58c-19.33,0-32,9.85-32,22v10h64v-10C184,181.43,171.33,171.58,152,171.58Z" transform="translate(-23 -28)"/><path class="cls-10" d="M166.88,173.67A51.56,51.56,0,0,0,159,172v-6.45a7,7,0,0,0-14,0V172a51.56,51.56,0,0,0-7.88,1.64,15.19,15.19,0,0,0-.12,1.91c0,8.29,15,19,15,19s15-10.71,15-19A15.19,15.19,0,0,0,166.88,173.67Z" transform="translate(-23 -28)"/><rect class="cls-10" x="103" y="109.88" width="52" height="10.11" rx="5" ry="5"/><path class="cls-10" d="M131.73,147.34a20.27,20.27,0,1,0,40.54,0v-8.78a20.27,20.27,0,0,0-40.54,0Z" transform="translate(-23 -28)"/><path class="cls-8" d="M152,115.58a22.3,22.3,0,0,1,22.28,21.54c-7-1.38-16.54-5.09-16.54-15.12,0,8.45-16.89,15.88-28,15.88A22.3,22.3,0,0,1,152,115.58Z" transform="translate(-23 -28)"/><circle class="cls-3" cx="120.22" cy="113.94" r="3.38"/><circle class="cls-3" cx="137.78" cy="113.94" r="3.38"/><path class="cls-11" d="M152,152.2a2.7,2.7,0,0,0,2.7-2.71h-5.4A2.7,2.7,0,0,0,152,152.2Z" transform="translate(-23 -28)"/><path class="cls-5" d="M147.23,158a6,6,0,0,0,9.54,0" transform="translate(-23 -28)"/><polygon class="cls-12" points="223 101 239 101 233 121 266 101 353 101 353 40 223 40 223 101"/><rect class="cls-13" x="233" y="63" width="100" height="5"/><rect class="cls-13" x="233" y="73" width="110" height="5"/><rect class="cls-13" x="233" y="83" width="92" height="5"/><polygon class="cls-12" points="131 79 115 79 121 99 88 79 1 79 1 18 131 18 131 79"/><rect class="cls-13" x="11" y="41" width="100" height="5"/><rect class="cls-13" x="11" y="51" width="110" height="5"/><rect class="cls-13" x="11" y="61" width="92" height="5"/><rect class="cls-14" x="12" y="14" width="24" height="19"/><path class="cls-7" d="M40,42V36a7,7,0,0,1,14,0v6" transform="translate(-23 -28)"/><line class="cls-7" x1="12" y1="20.5" x2="36" y2="20.5"/><line class="cls-7" x1="12" y1="26.5" x2="36" y2="26.5"/><rect class="cls-14" x="234" y="36" width="24" height="19"/><path class="cls-7" d="M262,64V58a7,7,0,0,1,14,0v6" transform="translate(-23 -28)"/><line class="cls-7" x1="234" y1="42.5" x2="258" y2="42.5"/><line class="cls-7" x1="234" y1="48.5" x2="258" y2="48.5"/></svg>