<svg xmlns="http://www.w3.org/2000/svg" id="Layer_1" viewBox="0 0 282 211">
  <style>
    .st1{fill:#c0c6cb}.st2{fill:#243038}.st3{fill:#e5e7e9}
  </style>
  <path fill="#7f8c97" d="M262.7 210.6c-.5 0-1 0-1.5-.1l.1-2c.6 0 1.3.1 1.9 0l.1 2c-.2.1-.4.1-.6.1zm4.8-.5l-.5-1.9c.6-.1 1.2-.3 1.8-.5l.7 1.9c-.7.1-1.3.3-2 .5zm-10.4-.2c-.7-.2-1.3-.4-2-.6l.6-1.9c.6.2 1.2.4 1.9.5l-.5 2zm-5.8-2.1c-.6-.3-1.2-.6-1.8-1l1-1.7c.6.3 1.1.6 1.7.9l-.9 1.8zm22-.3l-1.1-1.7c.5-.3 1-.7 1.5-1.1l1.3 1.5c-.6.5-1.1 1-1.7 1.3zm-27.3-2.9c-.5-.4-1.1-.8-1.6-1.3l1.3-1.5 1.5 1.2-1.2 1.6zm31.8-1.4l-1.6-1.2c.4-.5.7-1 1.1-1.6l1.7 1c-.3.7-.7 1.3-1.2 1.8zm-36.5-2.6c-.5-.5-.9-1-1.4-1.5l1.5-1.3c.4.5.9 1 1.3 1.4l-1.4 1.4zm39.6-2.9l-1.9-.7c.2-.5.4-1 .5-1.5l1.9.6c-.1.6-.3 1.1-.5 1.6zm-43.6-1.8c-.4-.5-.8-1.1-1.2-1.7l1.7-1.1c.4.5.8 1.1 1.1 1.6l-1.6 1.2zm-3.3-5.1c-.3-.6-.7-1.2-1-1.8l1.8-.9c.3.6.6 1.2.9 1.7l-1.7 1zm-2.7-5.5c-.3-.6-.5-1.3-.7-1.9l1.9-.7c.2.6.5 1.2.7 1.8l-1.9.8z"/>
  <path d="M73 101.7c-3.5-6.3-8.6-11.1-14.5-14.3-1.5 1.4-3 2.6-4.2 2.9-3.7 1-7.7-2.3-11.3-3s-5.7 3-9.3 1.7c-1.9-.7-2.3-2.6-2.3-4.9-.3.1-.7.2-1 .3-4.2 1.2-6.2 6.1-4 10l28.9 51.2c2.2 3.8 7.4 4.7 10.6 1.7 12.2-11.4 15.7-30.3 7.1-45.6z" class="st1"/>
  <path d="M61.1 150c-.4 0-.8 0-1.3-.1-2.4-.4-4.4-1.8-5.6-3.9L25.4 94.8c-1.2-2.1-1.3-4.6-.4-6.8s2.8-3.9 5.1-4.6c.3-.1.6-.2.8-.2l1.4-.4v1.3c.1 2.5.5 3.6 1.7 4 1.6.6 2.7 0 4.2-.7 1.4-.7 3-1.4 5-1 1.5.3 3 .9 4.5 1.6 2.3 1 4.5 2 6.4 1.4.6-.2 1.7-.8 3.7-2.7l.5-.5.6.3c6.2 3.4 11.4 8.5 14.9 14.7 8.7 15.5 5.7 34.7-7.4 46.7-1.5 1.4-3.3 2.1-5.3 2.1zM30.4 85.4c-1.6.5-2.9 1.7-3.6 3.3-.7 1.7-.6 3.5.3 5.1L56 145c.9 1.6 2.4 2.6 4.2 2.9 1.8.3 3.6-.2 4.9-1.5 12.4-11.4 15.3-29.6 7-44.3-3.2-5.7-7.9-10.4-13.5-13.6-1.7 1.5-3 2.4-4 2.6-2.6.7-5.2-.4-7.8-1.5-1.4-.6-2.8-1.2-4-1.4-1.4-.3-2.5.3-3.8.9-1.6.7-3.4 1.6-5.7.7-2.1-.6-2.7-2.5-2.9-4.4z" class="st2"/>
  <path d="M95.2 141.2c-8.6-15.3-26.5-22.1-42.7-17.4-4.2 1.2-6.2 6.1-4 10L77.3 185c2.2 3.8 7.4 4.7 10.6 1.7 12.5-11.4 15.9-30.2 7.3-45.5z" class="st1"/>
  <path d="M83.3 189.5c-.4 0-.8 0-1.3-.1-2.4-.4-4.4-1.8-5.6-3.9l-28.9-51.2c-1.2-2.1-1.3-4.6-.4-6.8s2.8-3.9 5.1-4.6c17.1-5 35.1 2.3 43.8 17.9s5.7 34.7-7.4 46.7c-1.4 1.3-3.3 2-5.3 2zM63 123.3c-3.4 0-6.8.5-10.2 1.5-1.7.5-3.1 1.7-3.8 3.4-.7 1.7-.6 3.5.3 5.1l28.9 51.2c.9 1.6 2.4 2.6 4.2 2.9 1.8.3 3.5-.2 4.9-1.5 12.4-11.4 15.3-29.6 7-44.3-6.5-11.5-18.6-18.3-31.3-18.3z" class="st2"/>
  <path d="M67 166.6c16.8-4.2 36.1-12 55.5-22.9 48.5-27.3 79.6-64.1 69.4-82.1-10.2-18-57.7-10.5-106.2 16.8-19.4 10.9-36.1 23.4-48.4 35.6L67 166.6z" class="st3"/>
  <path d="M66.5 167.7l-30.4-53.9.5-.5c12.9-12.7 29.7-25.1 48.6-35.7C108.7 64.2 132.8 55.1 153 52c20.5-3.2 34.6 0 39.7 9.1 5.1 9.1.6 22.9-12.8 38.7-13.2 15.6-33.4 31.5-57 44.8-18.9 10.6-38.2 18.6-55.7 23l-.7.1zm-27.9-53.6l28.9 51.3c17.2-4.4 36-12.2 54.5-22.6 23.3-13.2 43.4-28.9 56.4-44.3C191.2 83.3 195.7 70.3 191 62c-4.7-8.3-18.1-11.2-37.7-8.1-19.9 3.2-43.8 12.1-67.1 25.3-18.5 10.4-35 22.5-47.6 34.9z" class="st2"/>
  <path d="M193.6 137.9c-10.8-5.9-24-6.2-35-.5-3.9 2-4.9 7.2-2 10.6l14.7 17.1c5.9-8.8 13.4-18 22.3-27.2z" class="st1"/>
  <path d="M171.3 166.8l-15.5-18.1c-1.6-1.8-2.2-4.2-1.7-6.6.5-2.4 1.9-4.4 4.1-5.5 11.3-5.9 24.8-5.7 36 .5l1.1.6-.9.9c-8.7 9-16.2 18.1-22.3 27.1l-.8 1.1zm4.4-32.6c-5.7 0-11.4 1.4-16.6 4.1-1.6.8-2.7 2.3-3 4.1-.3 1.8.1 3.6 1.3 4.9l13.8 16.1c5.8-8.4 12.8-16.9 20.9-25.3-5.3-2.5-10.9-3.9-16.4-3.9z" class="st2"/>
  <path fill="#d0d4d8" d="M45.9 164.3l-17.6-31.1 12.4-13.3 22.9 40.7z"/>
  <path d="M45.4 165.4L27.1 133l13.8-14.8 24.3 43-19.8 4.2zm-15.8-32.1l16.8 29.8 15.7-3.3-21.6-38.3-10.9 11.8z" class="st2"/>
  <circle cx="106.4" cy="109.6" r="21.6" class="st1"/>
  <path d="M106.5 132.3c-7.9 0-15.6-4.1-19.7-11.5-3-5.3-3.7-11.4-2.1-17.2 1.6-5.8 5.4-10.7 10.7-13.6 5.3-3 11.4-3.7 17.2-2.1 5.8 1.6 10.7 5.4 13.6 10.7 6.1 10.9 2.3 24.7-8.6 30.8-3.6 1.9-7.4 2.9-11.1 2.9zm-.1-43.3c-3.5 0-7 .9-10.1 2.7-4.8 2.7-8.3 7.1-9.7 12.4-1.5 5.3-.8 10.9 1.9 15.7 5.6 9.9 18.2 13.4 28.1 7.8 9.9-5.6 13.4-18.2 7.8-28.1-2.7-4.8-7.1-8.3-12.4-9.7-1.9-.5-3.7-.8-5.6-.8z" class="st2"/>
  <circle cx="106.4" cy="109.6" r="15.1" fill="#9ad6f5"/>
  <path d="M106.5 125.7c-1.5 0-2.9-.2-4.4-.6-4.1-1.2-7.6-3.9-9.7-7.6-2.1-3.7-2.6-8.1-1.5-12.2s3.9-7.6 7.6-9.7 8.1-2.6 12.2-1.5c4.1 1.2 7.6 3.9 9.7 7.6s2.6 8.1 1.5 12.2-3.9 7.6-7.6 9.7c-2.4 1.4-5.1 2.1-7.8 2.1zm-.1-30.2c-2.4 0-4.8.6-6.9 1.8-3.3 1.8-5.6 4.9-6.7 8.5-1 3.6-.6 7.4 1.3 10.7s4.9 5.6 8.5 6.7c3.6 1 7.4.6 10.7-1.3 3.3-1.8 5.6-4.9 6.7-8.5 1-3.6.6-7.4-1.3-10.7-1.8-3.3-4.9-5.6-8.5-6.7-1.2-.3-2.5-.5-3.8-.5z" class="st2"/>
  <path d="M153.8 51.8h2v61.1h-2z" class="st2" transform="rotate(-29.402 154.78 82.402)"/>
  <path d="M18.3 65.9l-1.8-.8C9.4 62 6.3 53.7 9.4 46.6l13-29.2c.4-1 1.6-1.5 2.6-1L48.8 27c1 .4 1.5 1.6 1 2.6l-13 29.2c-3.1 7.1-11.4 10.3-18.5 7.1z" class="st3"/>
  <path d="M24 68.1c-2.1 0-4.1-.4-6.1-1.3l-1.8-.8c-3.7-1.6-6.5-4.6-7.9-8.3-1.4-3.7-1.3-7.8.3-11.5l13-29.2c.3-.7.9-1.3 1.7-1.6.7-.3 1.6-.3 2.3.1L49.2 26c.7.3 1.3.9 1.6 1.7.3.7.3 1.6-.1 2.3l-13 29.2c-1.6 3.7-4.6 6.5-8.3 7.9-1.7.7-3.6 1-5.4 1zm.2-50.9c-.1 0-.2 0-.4.1s-.4.3-.6.5L10.3 47c-1.4 3.2-1.5 6.7-.3 9.9s3.7 5.8 6.9 7.2l1.8.8c6.5 2.9 14.2 0 17.2-6.6l13-29.2c.1-.2.1-.5 0-.8-.1-.2-.3-.4-.5-.6L24.6 17.3c-.1-.1-.2-.1-.4-.1z" class="st2"/>
  <path fill="#f99c9f" d="M23.5 25.9h20v7h-20z" transform="rotate(23.964 33.469 29.414)"/>
  <path d="M41.7 38l-20.1-8.9 3.7-8.2 20.1 8.9-3.7 8.2zM24.2 28l16.4 7.3 2-4.6-16.4-7.3-2 4.6z" class="st2"/>
  <path d="M28.9 22.5h2v30h-2z" class="st2" transform="rotate(-66.034 29.894 37.456)"/>
  <circle cx="41.3" cy="11.6" r="4" class="st3"/>
  <path d="M41.3 16.6c-.7 0-1.4-.1-2-.4-2.5-1.1-3.7-4.1-2.5-6.6 1-2.6 4-3.7 6.5-2.6s3.7 4.1 2.5 6.6c-.8 1.8-2.6 3-4.5 3zm0-8c-.4 0-.7.1-1.1.2-.7.3-1.3.8-1.7 1.6-.7 1.5 0 3.3 1.5 4 1.5.7 3.3 0 4-1.5.7-1.5 0-3.3-1.5-4-.4-.3-.8-.3-1.2-.3z" class="st2"/>
  <path d="M34.8 17.4h7v2h-7z" class="st2" transform="rotate(-66.039 38.252 18.406)"/>
  <path d="M13.5 37.5C1.5 32.2-1.8 23.9 3.4 12.2l5.5 2.4C5 23.3 6.9 28 15.9 32l-2.4 5.5z" class="st3"/>
  <path d="M14 38.8l-.9-.4C6.8 35.6 2.8 32 1 27.6c-1.8-4.4-1.3-9.7 1.4-15.8l.4-.9 7.3 3.2-.3.9c-1.9 4.2-2.3 7.2-1.3 9.6 1 2.4 3.5 4.5 7.8 6.4l.9.4-3.2 7.4zM3.9 13.5c-2.2 5.2-2.5 9.6-1 13.3 1.5 3.7 4.8 6.8 10.1 9.3l1.6-3.7c-4.3-2-6.8-4.3-8-7.1-1.1-2.8-.8-6 .9-10.3l-3.6-1.5z" class="st2"/>
  <path d="M8.7 15c-1 0-2.1-.2-3-.7-1.8-.8-3.2-2.3-4-4.2-.7-1.8-.6-3.8.2-5.7C3 1.9 5.4.2 8.2 0l.2 2c-2 .2-3.8 1.4-4.6 3.3-.7 1.3-.7 2.8-.2 4.2s1.6 2.5 2.9 3.1c1.3.6 2.8.6 4.2.1 1.4-.5 2.5-1.6 3.1-2.9.9-2 .5-4.4-1-6l1.5-1.4c2.1 2.2 2.6 5.4 1.4 8.2-.8 1.8-2.3 3.2-4.2 4-.9.2-1.8.4-2.8.4z" class="st2"/>
  <path d="M13.5 37.5c-.7-.3-1.3-.6-2-.9l2.7-5.3c.5.3 1.1.5 1.7.8l-2.4 5.4zm-5.8-3.3c-.6-.5-1.3-1-1.8-1.5l4.1-4.4c.4.4.8.7 1.3 1l-3.6 4.9zm-4.9-5.3c-.4-.7-.8-1.5-1-2.3l5.7-1.9c.1.4.3.9.5 1.3l-5.2 2.9zM7 21.7l-6-.1c0-.8.1-1.6.2-2.4l5.9.9c0 .6-.1 1.1-.1 1.6zm1-4.9l-5.7-2c.2-.7.5-1.4.8-2l5.5 2.3c-.2.6-.4 1.2-.6 1.7z" class="st2"/>
  <path d="M43.5 43.7C55.5 49 58.8 57.3 53.6 69l-5.5-2.4c3.8-8.7 1.9-13.4-7.1-17.4l2.5-5.5z" class="st3"/>
  <path d="M54.1 70.3l-7.3-3.2.4-.9c3.6-8.2 2-12.2-6.5-16l-.9-.4 3.2-7.3.9.4c6.2 2.8 10.3 6.4 12 10.8 1.8 4.4 1.3 9.7-1.4 15.8l-.4.8zm-4.7-4.2l3.7 1.6c2.2-5.2 2.5-9.6 1-13.3-1.5-3.7-4.8-6.8-10.1-9.3l-1.6 3.7c8.4 3.9 10.5 8.9 7 17.3z" class="st2"/>
  <path d="M48.8 81.2l-.2-2c2-.2 3.8-1.4 4.6-3.3 1.2-2.8 0-6-2.8-7.3l.8-1.8c3.8 1.7 5.5 6.1 3.8 9.9-1 2.6-3.4 4.3-6.2 4.5z" class="st2"/>
  <path d="M53.9 68.4l-5.5-2.3c.2-.6.5-1.1.7-1.7l5.7 2c-.4.6-.6 1.3-.9 2zm1.9-6.4l-5.9-.9c.1-.5.1-1.1.1-1.6l6 .1c0 .7-.1 1.5-.2 2.4zm-6.2-5.4c-.2-.4-.4-.9-.6-1.3l5.2-3c.4.7.8 1.5 1 2.3l-5.6 2zM47 52.9c-.4-.4-.8-.7-1.3-1l3.5-4.8c.6.5 1.3 1 1.8 1.5l-4 4.3zM42.7 50c-.5-.3-1.1-.5-1.7-.8l2.4-5.5c.7.3 1.3.6 2 .9L42.7 50z" class="st2"/>
  <path d="M57 77.8c.9 2.6 3.2 4.5 6.1 4.6 2.9.1 5.4-1.6 6.4-4.1l-5.6-.3c-.6 0-1.1-.5-1.1-1.1l.1-2.4c0-.6.5-1.1 1.1-1.1l5.6.2c-.9-2.6-3.2-4.5-6.1-4.6-2.9-.1-5.4 1.6-6.4 4.1l-16.7-2.5c-1.3-.2-2.4.8-2.5 2.1l-.1 4.1c0 1.3 1.1 2.3 2.3 2.2L57 77.8z" class="st3"/>
  <path d="M63.3 83.4H63c-2.9-.1-5.5-1.9-6.7-4.5l-16.1 1.3c-.9.1-1.8-.2-2.4-.9-.7-.6-1-1.5-1-2.4l.1-4.1c0-.9.4-1.8 1.1-2.3s1.6-.8 2.5-.7l16 2.4c1.4-2.5 4.1-4.1 7-4 3.2.1 6 2.2 7 5.2l.5 1.4-7-.2s-.1 0-.1.1l-.1 2.4s0 .1.1.1l7 .2-.5 1.3c-1.2 2.8-4 4.7-7.1 4.7zm-5.6-6.7l.2.7c.7 2.2 2.8 3.8 5.2 3.9 1.8.1 3.6-.8 4.7-2.2l-3.9-.1c-.6 0-1.1-.3-1.5-.7-.4-.4-.6-.9-.6-1.5l.1-2.4c0-.6.3-1.1.7-1.5.4-.4 1-.6 1.5-.6l3.9.1c-1-1.5-2.7-2.4-4.5-2.5-2.4-.1-4.5 1.3-5.4 3.5l-.3.7-17.5-2.6c-.3-.1-.7 0-.9.3s-.4.5-.4.9l-.1 4.1c0 .3.1.7.4.9.2.2.6.4.9.3l17.5-1.3z" class="st2"/>
  <g>
    <path d="M231.4 182.3l-1.9.7c-7.2 2.9-15.3-.6-18.2-7.8l-11.9-29.7c-.4-1 .1-2.2 1.1-2.6l24.1-9.7c1-.4 2.2.1 2.6 1.1l11.9 29.7c2.9 7.3-.6 15.4-7.7 18.3z" class="st3"/>
    <path d="M224.3 185.1c-5.9 0-11.6-3.6-13.9-9.4l-12-29.7c-.6-1.5.1-3.3 1.7-3.9l24.1-9.7c.7-.3 1.6-.3 2.3 0 .7.3 1.3.9 1.6 1.6l11.9 29.7c3.1 7.7-.7 16.4-8.3 19.5l-1.9.7c-1.8.8-3.6 1.2-5.5 1.2zm1-50.9c-.1 0-.2 0-.4.1l-24.1 9.7c-.5.2-.8.8-.6 1.3l11.9 29.7c1.3 3.2 3.8 5.7 7 7.1 3.2 1.4 6.7 1.4 9.9.1l1.9-.7c3.2-1.3 5.7-3.8 7.1-7 1.4-3.2 1.4-6.7.1-9.9l-11.9-29.7c-.1-.5-.5-.7-.9-.7z" class="st2"/>
  </g>
  <g>
    <path fill="#99e1a2" d="M205.7 142.5h20v7h-20z" transform="rotate(-21.89 215.715 146.055)"/>
    <path d="M207.2 154.3l-3.4-8.4 20.4-8.2 3.4 8.4-20.4 8.2zm-.8-7.2l1.9 4.6L225 145l-1.9-4.6-16.7 6.7z" class="st2"/>
  </g>
  <path d="M204 153.2h30v2h-30z" class="st2" transform="rotate(-21.906 218.97 154.197)"/>
  <g>
    <circle cx="208.3" cy="128" r="4" class="st3"/>
    <path d="M208.3 133c-.7 0-1.3-.1-2-.4-1.2-.5-2.2-1.5-2.7-2.7-.5-1.2-.5-2.6 0-3.8s1.5-2.2 2.7-2.7a5 5 0 0 1 3.8 0c1.2.5 2.2 1.5 2.7 2.7 1 2.6-.2 5.5-2.8 6.5-.4.3-1 .4-1.7.4zm0-8c-.4 0-.8.1-1.1.2-.7.3-1.3.9-1.6 1.6s-.3 1.6 0 2.3c.3.7.9 1.3 1.6 1.6.7.3 1.6.3 2.3 0 1.5-.6 2.3-2.4 1.7-3.9-.3-.7-.9-1.3-1.6-1.6-.5-.1-.9-.2-1.3-.2z" class="st2"/>
  </g>
  <path d="M210.1 131.4h2v7h-2z" class="st2" transform="rotate(-21.894 211.14 134.944)"/>
  <g>
    <path d="M207.6 166c-12.2 4.9-20.4 1.5-25.2-10.4l5.6-2.2c3.5 8.8 8.2 10.7 17.4 7l2.2 5.6z" class="st3"/>
    <path d="M197.9 169.2c-7.4 0-12.9-4.4-16.4-13.1l-.4-.9 7.4-3 .4.9c1.7 4.2 3.6 6.7 6 7.6 2.4 1 5.6.6 10-1.2l.9-.4 3 7.4-.9.4c-3.6 1.5-7 2.3-10 2.3zm-14.2-13c4.5 10.3 11.7 13.3 22.6 9.2l-1.5-3.7c-4.5 1.7-7.9 1.9-10.6.8-2.8-1.1-4.9-3.6-6.8-7.8l-3.7 1.5z" class="st2"/>
  </g>
  <path d="M182.8 156c-3 0-5.8-1.8-7-4.7-1-2.6-.6-5.5 1.2-7.6l1.5 1.3c-1.3 1.6-1.6 3.7-.9 5.6.5 1.4 1.6 2.4 2.9 3 1.4.6 2.8.6 4.2 0 2.8-1.1 4.2-4.3 3.1-7.2-.2-.6-.5-1.1-.9-1.5l1.5-1.3c.5.6 1 1.3 1.3 2.1 1.5 3.8-.3 8.2-4.2 9.8-.9.3-1.8.5-2.7.5z" class="st2"/>
  <path d="M198.9 168.2l-.3-6c.5 0 1.1-.1 1.7-.2l1 5.9c-.9.1-1.7.2-2.4.3zm-4.9-.5c-.8-.2-1.6-.5-2.4-.9l2.6-5.4c.4.2.9.4 1.4.5l-1.6 5.8zm11.5-.9l-1.9-5.7c.6-.2 1.1-.4 1.7-.6l2.2 5.6c-.6.2-1.3.4-2 .7zm-18-2.9c-.5-.5-1.1-1.2-1.6-1.8l4.8-3.7c.3.4.7.8 1.1 1.2l-4.3 4.3zm-3.9-5.6c-.3-.6-.6-1.3-.9-2l5.5-2.3c.2.6.5 1.1.8 1.6l-5.4 2.7z" class="st2"/>
  <g>
    <path d="M233 148.8c12.2-4.9 20.4-1.5 25.2 10.4l-5.6 2.2c-3.5-8.8-8.2-10.7-17.4-7l-2.2-5.6z" class="st3"/>
    <path d="M252 162.7l-.4-.9c-3.3-8.3-7.4-10-16.1-6.5l-.9.4-3-7.4.9-.4c12.6-5.1 21.5-1.4 26.5 10.9l.4.9-7.4 3zm-9.3-11.1c4.7 0 7.9 2.7 10.4 8.5l3.7-1.5c-4.5-10.3-11.7-13.3-22.6-9.2l1.5 3.7c2.7-1 5-1.5 7-1.5z" class="st2"/>
  </g>
  <path d="M257.7 173.8c-3-.1-5.7-1.9-6.8-4.7-1.5-3.8.3-8.2 4.2-9.8 3.8-1.5 8.2.3 9.8 4.2 1 2.6.6 5.5-1.2 7.6l-1.5-1.3c1.3-1.6 1.6-3.7.9-5.6-1.1-2.8-4.3-4.2-7.2-3.1-1.4.5-2.4 1.6-3 2.9-.6 1.4-.6 2.8 0 4.2.8 2.1 2.8 3.4 5 3.5l-.2 2.1z" class="st2"/>
  <path d="M252.4 160.9c-.2-.6-.5-1.1-.8-1.6l5.4-2.7c.3.6.6 1.3.9 2l-5.5 2.3zm-2.6-4.6c-.3-.4-.7-.8-1.1-1.2l4.2-4.2c.5.5 1.1 1.2 1.6 1.8l-4.7 3.6zm-14.6-1.9l-2.2-5.6c.7-.3 1.4-.5 2-.8l1.9 5.7c-.5.2-1.1.4-1.7.7zm11.2-1c-.4-.2-.9-.4-1.4-.5l1.5-5.8c.8.2 1.6.5 2.4.9l-2.5 5.4zm-6.1-.6l-1-5.9c.8-.1 1.6-.2 2.3-.3l.3 6c-.4.1-1 .1-1.6.2zM42.8 78.9c-2.1-2.2-2.6-5.4-1.4-8.2 1.7-3.8 6.1-5.5 9.9-3.8l-.8 1.8c-2.8-1.2-6 0-7.3 2.8-.9 2-.5 4.4 1 6l-1.4 1.4z" class="st2"/>
</svg>
