<svg id="Layer_1" data-name="Layer 1" xmlns="http://www.w3.org/2000/svg" viewBox="0 0 354 192"><defs><style>.cls-1{fill:#b9d199;}.cls-1,.cls-10,.cls-14,.cls-2,.cls-3,.cls-5,.cls-6,.cls-7,.cls-8,.cls-9{stroke:#243038;stroke-miterlimit:10;stroke-width:2px;}.cls-2{fill:#e8d4b6;}.cls-14,.cls-3{fill:#fff;}.cls-4{fill:#d4b078;}.cls-5,.cls-7{fill:none;}.cls-5{stroke-linecap:round;}.cls-6{fill:#eceeef;}.cls-13,.cls-8{fill:#526573;}.cls-9{fill:#fdd79d;}.cls-10{fill:#b6aeac;}.cls-11{fill:#243038;}.cls-12{fill:#776966;}.cls-14{stroke-dasharray:4;}.cls-15{fill:#99a3ac;}.cls-16{fill:#b2bac1;}.cls-17{fill:#ccd1d5;}</style></defs><title>No-Discussions-400x250</title><path class="cls-1" d="M240,187c-19.33,0-35,9.85-35,22v10h70V209C275,196.85,259.33,187,240,187Z" transform="translate(-23 -28)"/><rect class="cls-2" x="191" y="127.3" width="52" height="10.11" rx="5" ry="5"/><path class="cls-2" d="M254.88,189.09a49.27,49.27,0,0,0-7.88-1.64V181a7,7,0,0,0-14,0v6.45a49.27,49.27,0,0,0-7.88,1.64A15,15,0,0,0,225,191c0,8.28,15,19,15,19s15-10.72,15-19A15,15,0,0,0,254.88,189.09Z" transform="translate(-23 -28)"/><path class="cls-2" d="M219.73,164.76a20.27,20.27,0,1,0,40.54,0V156a20.27,20.27,0,1,0-40.54,0Z" transform="translate(-23 -28)"/><circle class="cls-3" cx="207.22" cy="131.35" r="7.5"/><circle class="cls-3" cx="226.78" cy="131.35" r="7.5"/><path class="cls-4" d="M240,169.61a2.7,2.7,0,0,0,2.7-2.7h-5.4A2.7,2.7,0,0,0,240,169.61Z" transform="translate(-23 -28)"/><path class="cls-5" d="M235.23,175.4a6.06,6.06,0,0,0,9.54,0" transform="translate(-23 -28)"/><path class="cls-6" d="M251.26,131.62a16.33,16.33,0,0,0-5.35.91c-5.21-1.8-14.94-4.15-23.38-.48-12.22,5.29-17.1,21.16-17.1,21.16s14.92,7.28,27.13,2c8.61-3.73,13.57-12.71,15.75-17.69a20.24,20.24,0,0,1,12,18.47v6.08a16.55,16.55,0,0,0-9-30.43Z" transform="translate(-23 -28)"/><path class="cls-7" d="M229.67,219c22.66-5,29-16.33,32.55-27" transform="translate(-23 -28)"/><path class="cls-7" d="M237.72,159.35c0-2.68,4.56-2.6,4.56,0" transform="translate(-23 -28)"/><line class="cls-5" x1="234.28" y1="131.35" x2="237.27" y2="131.35"/><line class="cls-5" x1="199.72" y1="131.35" x2="196.73" y2="131.35"/><path class="cls-8" d="M156.42,83.78,157.5,83a2.45,2.45,0,0,1,3.23.34l.9,1a2.44,2.44,0,0,0,2.78.59l1.22-.53a2.45,2.45,0,0,1,3.08,1l.68,1.15A2.46,2.46,0,0,0,172,87.7l1.3-.27a2.45,2.45,0,0,1,2.81,1.62l.42,1.26a2.44,2.44,0,0,0,2.3,1.67l1.33,0a2.44,2.44,0,0,1,2.41,2.17l.15,1.32a2.45,2.45,0,0,0,1.9,2.11l1.3.29a2.44,2.44,0,0,1,1.91,2.62l-.13,1.33a2.45,2.45,0,0,0,1.42,2.46l1.21.55a2.44,2.44,0,0,1,1.32,3l-.4,1.27a2.47,2.47,0,0,0,.88,2.71l1.07.79a2.44,2.44,0,0,1,.67,3.17l-.65,1.16a2.42,2.42,0,0,0,.3,2.82l.88,1a2.46,2.46,0,0,1,0,3.24l-.88,1a2.43,2.43,0,0,0-.3,2.83l.65,1.15a2.46,2.46,0,0,1-.67,3.18l-1.07.79a2.45,2.45,0,0,0-.88,2.7l.4,1.27a2.44,2.44,0,0,1-1.32,3l-1.21.55a2.46,2.46,0,0,0-1.42,2.47l.13,1.32a2.44,2.44,0,0,1-1.91,2.62l-1.3.29a2.46,2.46,0,0,0-1.9,2.12l-.15,1.31a2.45,2.45,0,0,1-2.41,2.18h-1.33a2.45,2.45,0,0,0-2.3,1.67l-.42,1.26a2.45,2.45,0,0,1-2.81,1.62L172,157a2.44,2.44,0,0,0-2.6,1.15l-.68,1.15a2.45,2.45,0,0,1-3.08,1l-1.22-.53a2.44,2.44,0,0,0-2.78.59l-.9,1a2.45,2.45,0,0,1-3.23.34l-1.08-.77a2.43,2.43,0,0,0-2.84,0l-1.08.77a2.45,2.45,0,0,1-3.23-.34l-.9-1a2.44,2.44,0,0,0-2.78-.59l-1.22.53a2.45,2.45,0,0,1-3.08-1l-.68-1.15A2.44,2.44,0,0,0,138,157l-1.3.26a2.45,2.45,0,0,1-2.81-1.62l-.42-1.26a2.45,2.45,0,0,0-2.3-1.67h-1.33a2.45,2.45,0,0,1-2.41-2.18l-.15-1.31a2.46,2.46,0,0,0-1.9-2.12l-1.3-.29a2.44,2.44,0,0,1-1.91-2.62l.13-1.32a2.46,2.46,0,0,0-1.42-2.47l-1.21-.55a2.44,2.44,0,0,1-1.32-3l.4-1.27a2.45,2.45,0,0,0-.88-2.7l-1.07-.79a2.46,2.46,0,0,1-.67-3.18l.65-1.15a2.43,2.43,0,0,0-.3-2.83l-.88-1a2.46,2.46,0,0,1,0-3.24l.88-1a2.42,2.42,0,0,0,.3-2.82l-.65-1.16a2.44,2.44,0,0,1,.67-3.17l1.07-.79a2.47,2.47,0,0,0,.88-2.71l-.4-1.27a2.44,2.44,0,0,1,1.32-3l1.21-.55a2.45,2.45,0,0,0,1.42-2.46l-.13-1.33a2.44,2.44,0,0,1,1.91-2.62l1.3-.29a2.45,2.45,0,0,0,1.9-2.11l.15-1.32A2.44,2.44,0,0,1,129.85,92l1.33,0a2.44,2.44,0,0,0,2.3-1.67l.42-1.26a2.45,2.45,0,0,1,2.81-1.62l1.3.27a2.46,2.46,0,0,0,2.6-1.16l.68-1.15a2.45,2.45,0,0,1,3.08-1l1.22.53a2.44,2.44,0,0,0,2.78-.59l.9-1A2.45,2.45,0,0,1,152.5,83l1.08.77A2.43,2.43,0,0,0,156.42,83.78Z" transform="translate(-23 -28)"/><path class="cls-9" d="M155,153c-19.33,0-35,9.85-35,22v10h70V175C190,162.85,174.33,153,155,153Z" transform="translate(-23 -28)"/><rect class="cls-10" x="106" y="93.3" width="52" height="10.11" rx="5" ry="5"/><path class="cls-10" d="M169.88,155.09a49.27,49.27,0,0,0-7.88-1.64V147a7,7,0,0,0-14,0v6.45a49.27,49.27,0,0,0-7.88,1.64A15,15,0,0,0,140,157c0,8.28,15,19,15,19s15-10.72,15-19A15,15,0,0,0,169.88,155.09Z" transform="translate(-23 -28)"/><path class="cls-10" d="M134.73,130.76a20.27,20.27,0,0,0,40.54,0V122a20.27,20.27,0,0,0-40.54,0Z" transform="translate(-23 -28)"/><circle class="cls-11" cx="123.22" cy="97.35" r="3.38"/><circle class="cls-11" cx="140.78" cy="97.35" r="3.38"/><path class="cls-12" d="M155,135.61a2.7,2.7,0,0,0,2.7-2.7h-5.4A2.7,2.7,0,0,0,155,135.61Z" transform="translate(-23 -28)"/><path class="cls-5" d="M150.23,141.4a6.06,6.06,0,0,0,9.54,0" transform="translate(-23 -28)"/><path class="cls-5" d="M141.23,119.72a6.06,6.06,0,0,1,9.54,0" transform="translate(-23 -28)"/><path class="cls-5" d="M159.23,119.72a6.06,6.06,0,0,1,9.54,0" transform="translate(-23 -28)"/><path class="cls-13" d="M126,125.72c9.17,0,29-18.39,29-29h.49c0,10.63,19.85,29,29,29L175.27,103,155,90l-26,15Z" transform="translate(-23 -28)"/><path class="cls-7" d="M155,97.7c0,10.63-19.85,29-29,29" transform="translate(-23 -28)"/><path class="cls-7" d="M155.49,97.7c0,10.63,19.85,29,29,29" transform="translate(-23 -28)"/><path class="cls-14" d="M252,126h10l-6,20,33-20h81a6,6,0,0,0,6-6V71a6,6,0,0,0-6-6H252a6,6,0,0,0-6,6v49A6,6,0,0,0,252,126Z" transform="translate(-23 -28)"/><path class="cls-14" d="M148,90H138l6,20L111,90H30a6,6,0,0,1-6-6V35a6,6,0,0,1,6-6H148a6,6,0,0,1,6,6V84A6,6,0,0,1,148,90Z" transform="translate(-23 -28)"/><circle class="cls-15" cx="41.64" cy="32.5" r="7.5"/><circle class="cls-16" cx="64.14" cy="32.5" r="7.5"/><circle class="cls-17" cx="86.64" cy="32.5" r="7.5"/><circle class="cls-15" cx="264.64" cy="69.5" r="7.5"/><circle class="cls-16" cx="287.14" cy="69.5" r="7.5"/><circle class="cls-17" cx="309.64" cy="69.5" r="7.5"/></svg>