<svg xmlns="http://www.w3.org/2000/svg" viewBox="0 0 128 128"><path d="M91.1 0c-6.753.257-14.947 4.203-19.801 9.523-4.341 4.732-8.147 12.244-7.13 19.477 7.545.56 15.241-3.583 19.944-8.904C88.793 14.767 91.966 7.369 91.1 0m-4.114 30.719c-9.079-.071-17.517 5.988-22.152 5.988-4.944 0-12.587-5.737-20.674-5.586-10.642.159-20.44 6.326-25.92 16.068-11.041 19.613-2.82 48.666 7.944 64.59 5.26 7.778 11.531 16.53 19.77 16.213 7.943-.325 10.936-5.254 20.523-5.254 9.594 0 12.293 5.254 20.681 5.088 8.532-.159 13.943-7.929 19.166-15.736 6.045-9.04 8.525-17.792 8.676-18.23-.188-.099-16.64-6.538-16.807-25.932-.158-16.227 12.94-24.02 13.528-24.412-7.364-11.012-18.827-12.524-22.912-12.698a19 19 0 0 0-1.823-.1"/></svg>