<svg xmlns="http://www.w3.org/2000/svg" viewBox="0 0 128 128"><path fill="#000000" d="M57.7.002a3 3 0 0 0-.4.012c-15.8 1.2-30.6 6.4-39 9.8-4.2 1.8-6.8 5.8-6.8 10.202v33.007c0 2 1.8 3.4 3.6 3.2l3.2-.6c21-3.4 37.4-20.804 40.8-41.809l1.2-10.001c.188-1.688-.679-3.728-2.6-3.811m12.837 0C68.78.085 67.912 2.113 68.1 3.613l1 10.201c3.4 21.005 19.8 38.408 40.8 41.809l3 .6c2 .4 3.6-1.2 3.6-3.2V20.016c0-4.401-2.6-8.401-6.8-10.202-8.2-3.4-23-8.6-38.8-9.8a2.5 2.5 0 0 0-.363-.012M14.176 64.199c-1.375-.025-2.477.426-2.477 2.227 3 29.205 32.001 52.409 45.201 61.21 1.6 1 3.4-.199 3.4-2 0-36.006-13.4-55.209-42-60.81-1.1-.1-2.75-.602-4.124-.627m99.85 0c-1.376.025-3.026.527-4.126.627-28.6 5.601-42 24.804-42 60.81 0 1.801 1.8 3 3.4 2 13.2-8.801 42.2-32.205 45.2-61.21 0-1.8-1.1-2.252-2.475-2.227"/></svg>