<svg xmlns="http://www.w3.org/2000/svg" viewBox="0 0.1 128 128"><path fill="#d64027" d="M63.76.1c-6.232 0-12.464.956-18.217 2.389.959 9.074 8.629 16.238 18.217 16.238s17.258-7.164 18.217-16.238C76.224 1.056 69.992.1 63.76.1M33.078 7.743c-10.547 6.209-19.654 15.283-25.887 25.79 7.191 5.732 17.738 5.254 24.45-1.433s7.19-17.193 1.437-24.357m61.363 0c-5.752 7.164-5.272 17.67 1.44 24.357s17.258 7.165 24.45 1.434c-6.233-10.508-15.343-19.582-25.89-25.791m-31.16 16.714a5.753 5.731 0 0 0-5.754 5.733 5.753 5.731 0 0 0 5.754 5.73 5.753 5.731 0 0 0 5.752-5.73 5.753 5.731 0 0 0-5.752-5.733m-23.97 9.553a5.753 5.731 0 0 0-5.752 5.733 5.753 5.731 0 0 0 5.752 5.73 5.753 5.731 0 0 0 5.753-5.73 5.753 5.731 0 0 0-5.753-5.733m47.939 0a5.753 5.731 0 0 0-5.752 5.733 5.753 5.731 0 0 0 5.752 5.73 5.753 5.731 0 0 0 5.754-5.73 5.753 5.731 0 0 0-5.754-5.733M2.396 45.952C.958 51.682 0 57.413 0 64.1s.958 12.417 2.396 18.148c9.11-.955 16.301-9.073 16.301-18.148a18.19 18.19 0 0 0-16.3-18.148m123.208 0A18.19 18.19 0 0 0 109.303 64.1a18.19 18.19 0 0 0 16.3 18.148C127.043 76.518 128 70.31 128 64.1s-.958-12.417-2.396-18.148M29.723 57.89a5.753 5.731 0 0 0-5.752 5.73 5.753 5.731 0 0 0 5.752 5.733 5.753 5.731 0 0 0 5.754-5.733 5.753 5.731 0 0 0-5.754-5.73m67.117 0a5.753 5.731 0 0 0-5.754 5.73 5.753 5.731 0 0 0 5.754 5.733 5.753 5.731 0 0 0 5.752-5.733 5.753 5.731 0 0 0-5.752-5.73m-57.53 23.88a5.753 5.731 0 0 0-5.751 5.731 5.753 5.731 0 0 0 5.752 5.733 5.753 5.731 0 0 0 5.753-5.733 5.753 5.731 0 0 0-5.753-5.73m47.94 0a5.753 5.731 0 0 0-5.752 5.731 5.753 5.731 0 0 0 5.752 5.733 5.753 5.731 0 0 0 5.754-5.733 5.753 5.731 0 0 0-5.754-5.73M17.953 90.71a18.23 18.23 0 0 0-10.762 3.957c6.233 10.508 15.34 19.582 25.887 25.791 5.753-7.641 5.274-17.67-1.437-24.357a18.45 18.45 0 0 0-13.688-5.39m91.613 0A18.45 18.45 0 0 0 95.881 96.1c-6.712 6.687-7.192 17.193-1.44 24.357 10.547-6.209 19.657-15.283 25.89-25.79a18.24 18.24 0 0 0-10.765-3.958m-46.285.616a5.753 5.731 0 0 0-5.754 5.73 5.753 5.731 0 0 0 5.754 5.732 5.753 5.731 0 0 0 5.752-5.732 5.753 5.731 0 0 0-5.752-5.73m.479 18.148c-9.588 0-17.258 7.164-18.217 16.238 5.753 1.433 11.985 2.389 18.217 2.389s12.464-.956 18.217-2.389c-.96-9.074-8.63-16.238-18.217-16.238"/></svg>