<svg xmlns="http://www.w3.org/2000/svg" viewBox="0 0 128 128"><path fill="#0a4d7f" d="M128 102.377C128 116.498 116.498 128 102.377 128H25.623C11.502 128 0 116.498 0 102.377V25.623C0 11.502 11.502 0 25.623 0h76.754C116.498 0 128 11.502 128 25.623z"/><path fill="#fff" d="M74.291 16.82c-5.9.214-12.534 3.124-17.466 12.79 0 0-8.084-8.086-17.992-1.822-8.54 5.352-7.06 12.525-6.263 16.17 0 0-16.058 4.668-15.26 21.75.569 12.754 12.868 16.513 17.65 17.538 1.026.227 2.165.342 3.19.342h52.612q1.536 0 3.073-.342c4.783-1.025 17.197-4.783 16.969-18.334-.228-16.627-15.487-21.181-15.487-21.181s5.467-13.667-7.06-23.005c0 0-6.379-4.18-13.966-3.906m-14.39 19.166 7.288 1.139c-16.398 6.719-17.31 20.498-17.31 20.498-.114 2.05.113 3.871.682 5.351 1.253-.113 2.165-.226 2.165-.226 4.1-.684 7.517-1.708 10.478-2.96-.114-2.734-1.368-3.417-1.368-3.417s-1.48-1.709-7.63-2.734l.57-.796s3.074.683 6.49 0c3.758-.683 7.174-3.303 10.932-8.428l1.824-.113c-3.758 4.897-3.986 8.653-3.416 11.159 3.644-2.733 5.465-5.238 5.465-5.238 6.719-9.338-2.618-7.972-2.618-7.972l2.847-3.303c14.235 3.075 1.139 15.943 1.139 15.943-1.48 1.595-3.19 2.847-4.898 3.986.228.228 2.733 2.734 7.402 5.011 1.253-1.366 1.935-2.277 1.935-2.277l1.824.342C72.769 75.39 60.697 74.362 60.697 74.362c-10.59-.114-14.462-8.085-14.462-8.085-.227-.455-.455-.796-.57-1.252-2.96-1.025-4.67-3.189-4.214-6.15.456-3.075 3.872-6.15 3.872-6.15 2.05-6.263 6.606-10.59 6.606-10.59s3.872-4.1 7.972-6.149m3.07 8.652c1.65.075 2.844 1.477 2.737 3.078-.114 1.595-1.366 2.847-2.96 2.847-1.708 0-3.19-1.368-3.076-3.076.114-1.594 1.368-2.847 2.962-2.847q.171-.01.336-.002m-18.444 11.62c-3.644 4.099 0 6.147 0 6.147.114.114.228.116.456.116-.683-2.05-.684-4.214-.456-6.264m24.42 5.42c-.484.001-.734.044-.734.044-2.847 1.936-6.148 8.428-6.148 8.428h-1.708c1.138-2.506 1.822-4.442 2.277-6.15-.455.114-.685.229-.685.229-3.416 1.139-6.945 1.821-10.02 1.821 3.303 4.897 9.224 5.694 9.224 5.694 8.313 1.14 14.69-3.416 18.107-6.719-5.295-2.99-8.861-3.353-10.313-3.347M23.346 92.469c-5.466 0-6.15 3.874-6.15 9.34s.684 9.337 6.15 9.337c4.783 0 5.694-3.303 5.694-7.175h-3.645c0 3.872-.911 4.555-2.278 4.555-1.48 0-2.278-.91-2.278-6.377 0-5.124.456-6.946 2.278-6.946 1.594 0 2.164 1.14 2.164 3.759l3.643-.116c0-2.619-.34-6.377-5.578-6.377m58.419.23v2.96h3.53v-2.96zm-51.132.226v17.994h3.531V92.925zm39.517 0v17.994h10.02v-2.962h-6.377V92.925zm29.266 0v17.994h3.53v-3.986l1.254-1.594 2.847 5.58h3.87l-4.44-8.2 3.87-5.352h-3.87l-3.531 5.011v-9.453zm-58.534 3.986c-2.62 0-4.782 1.138-4.782 4.213v.342l3.19-.113v-.343c0-1.138.567-1.821 1.592-1.821 1.138 0 1.594.683 1.594 1.708 0 .911-.34 1.367-1.365 1.595l-1.938.57c-2.391.682-3.416 1.706-3.416 4.212 0 1.822.912 3.872 3.303 3.872 1.594 0 2.62-.455 3.416-1.822.114.456.229.91.456 1.366h3.303c-.341-.797-.456-1.365-.456-2.618v-7.062c0-2.391-.798-4.099-4.897-4.099m11.503 0c-3.644 0-5.01 1.822-5.01 4.1 0 1.935.91 3.075 2.846 3.758l2.391.91c.683.342 1.252.684 1.252 1.595 0 1.025-.796 1.595-1.821 1.595-1.14 0-1.822-.797-1.822-1.936v-.455l-2.96-.114v.454c0 2.619 1.137 4.328 5.009 4.328 2.847 0 5.01-1.366 5.01-4.213 0-2.05-.796-3.189-2.96-3.872l-2.05-.683c-1.14-.341-1.48-.911-1.48-1.594 0-1.025.684-1.482 1.595-1.482 1.139 0 1.593.684 1.593 2.051h3.076v-.57c0-2.505-1.48-3.872-4.669-3.872m11.046 0c-3.645 0-5.012 1.822-5.012 4.1 0 1.935.912 3.075 2.847 3.758l2.391.91c.684.342 1.255.684 1.255 1.595 0 1.025-.683 1.595-1.708 1.595-1.14 0-1.824-.797-1.824-1.936v-.455l-2.96-.114v.454c0 2.619 1.139 4.328 5.01 4.328 2.848 0 5.012-1.366 5.012-4.213 0-2.05-.797-3.189-2.96-3.872l-2.051-.683c-1.14-.341-1.482-.911-1.482-1.594 0-1.025.684-1.482 1.595-1.482 1.139 0 1.481.684 1.481 2.051H68.1v-.57c0-2.505-1.48-3.872-4.668-3.872m30.52.114c-1.48 0-2.733.57-3.416 1.937v-1.595h-3.303l-.23 13.552h3.533v-8.997c0-1.594.683-2.277 1.821-2.277 1.025 0 1.48.568 1.48 1.935v9.34h3.531v-10.023c0-2.733-1.252-3.872-3.416-3.872m-12.186.342v13.552h3.53V97.367zm-39.402 6.72.114 2.73c0 1.481-1.253 2.052-2.164 2.052-1.025 0-1.366-.91-1.366-1.936 0-1.138.569-1.822 1.935-2.164.456-.114 1.026-.34 1.481-.683z"/></svg>