<svg xmlns="http://www.w3.org/2000/svg" viewBox="0 0 128 128"><path fill="#000000" d="M74.057 24c-13.776 0-25.603 8.201-30.882 19.948a16.43 16.43 0 0 0-10.261-3.586c-8.953 0-16.221 7.114-16.439 15.965C6.887 59.698 0 68.764 0 79.455c0 12.633 9.601 23.027 21.944 24.385v.16h82.286v-.044c.304.01.602.044.914.044C117.769 104 128 93.824 128 81.273c0-11.645-8.813-21.232-20.17-22.556.013-.362.056-.717.056-1.082 0-18.574-15.146-33.634-33.83-33.634zm0 3.637v.001c16.636 0 30.173 13.461 30.173 30 0 .126-.012.25-.024.373-.014.195-.025.395-.03.59l-.107 3.34 3.337.388c9.657 1.127 16.938 9.275 16.938 18.945 0 10.527-8.615 19.09-19.2 19.09-.104 0-.208-.011-.312-.018-.15-.008-.304-.02-.453-.022l-3.808-.11v.15H23.596l-1.251-.138C11.693 99.052 3.656 90.121 3.656 79.454c0-8.833 5.643-16.75 14.038-19.698l2.376-.835.063-2.505c.168-6.962 5.783-12.417 12.78-12.417 2.925 0 5.681.964 7.978 2.788l3.693 2.938 1.928-4.297c4.857-10.804 15.669-17.791 27.545-17.791m15.571 31.67-29.764 7.476a15.98 15.98 0 0 0-15.88-4.92c-8.528 2.143-13.695 10.753-11.54 19.232 2.154 8.48 10.814 13.616 19.341 11.474A15.88 15.88 0 0 0 63.41 80.74l10.11-2.538 3.149-5.246 5.275 3.13 3.148-5.245 5.274 3.13 7.798-10.45zm-46.85 14.827c2.018-.091 3.89 1.235 4.405 3.259.587 2.312-.822 4.66-3.148 5.244-2.326.585-4.687-.817-5.275-3.13s.822-4.66 3.148-5.244q.436-.11.87-.129"/></svg>