<svg xmlns="http://www.w3.org/2000/svg" viewBox="0 0 128 128"><path fill="#000000" d="M64 0C28.8 0 0 29.432 0 65.404c0 29.023 18.4 53.55 43.6 62.135 3.2.409 4.4-1.228 4.4-3.271V113.23c-18 4.088-21.6-8.584-21.6-8.584-2.8-7.357-7.2-9.402-7.2-9.402-6-4.088.4-4.088.4-4.088 6.4.409 10 6.541 10 6.541 5.6 9.81 14.8 6.95 18.8 5.315a14.23 14.23 0 0 1 4-8.584C38 92.793 23.2 87.07 23.2 62.135c0-6.95 2.4-13.082 6.4-17.578-.8-1.635-2.8-8.175.8-17.168 0 0 5.2-1.637 17.6 6.539 5.2-1.635 10.4-2.043 16-2.043s10.8.816 16 2.043c12.4-8.585 17.6-6.54 17.6-6.54 3.6 8.994 1.2 15.534.8 17.169 4 4.496 6.4 10.22 6.4 17.578 0 24.935-14.8 30.658-29.2 32.293C78 96.472 80 100.56 80 106.69v17.987c0 1.635 1.2 3.678 4.4 3.27 25.2-8.994 43.6-33.52 43.6-62.544C128 29.432 99.2 0 64 0"/></svg>