<svg xmlns="http://www.w3.org/2000/svg" viewBox="0 0 128 128"><path fill="#ea4335" d="M64 25.333c9.44 0 17.893 3.254 24.56 9.6l18.267-18.266C95.733 6.347 81.253 0 64 0 38.987 0 17.36 14.347 6.827 35.253l21.28 16.507c5.04-15.173 19.2-26.427 35.893-26.427"/><path fill="#4285f4" d="M125.28 65.467c0-4.187-.4-8.24-1.013-12.134H64v24.054h34.507C96.96 85.28 92.48 92 85.76 96.533l20.613 16c12.027-11.146 18.907-27.626 18.907-47.066"/><path fill="#fbbc05" d="M28.08 76.24c-1.28-3.867-2.027-7.973-2.027-12.24s.72-8.373 2.027-12.24L6.8 35.253C2.453 43.893 0 53.653 0 64s2.453 20.107 6.827 28.747Z"/><path fill="#34a853" d="M64 128c17.28 0 31.813-5.68 42.373-15.493l-20.613-16c-5.733 3.866-13.12 6.133-21.76 6.133-16.693 0-30.853-11.253-35.92-26.427L6.8 92.72C17.36 113.653 38.987 128 64 128"/></svg>