<svg xmlns="http://www.w3.org/2000/svg" viewBox="0 0 128 128"><path fill="#0077b7" d="M11.578 0C5.183 0 0 5.183 0 11.578v104.844C0 122.817 5.183 128 11.578 128h104.844c6.395 0 11.578-5.183 11.578-11.578V11.578C128 5.183 122.817 0 116.422 0Zm17.49 14.107c7.526 0 13.625 6.1 13.625 13.625S36.594 41.36 29.068 41.36s-13.627-6.101-13.627-13.627c0-7.525 6.102-13.625 13.627-13.625m60.995 31.91c24.645 0 24.503 23.027 24.503 35.678v29.1a3.1 3.1 0 0 1-3.097 3.098H96.076a3.1 3.1 0 0 1-3.097-3.098V82.592c0-4.207 1.234-18.436-10.995-18.436-9.485 0-11.41 9.739-11.796 14.11v32.529a3.097 3.097 0 0 1-3.098 3.098H52.203a3.1 3.1 0 0 1-3.098-3.098v-60.67a3.097 3.097 0 0 1 3.098-3.098H67.09a3.097 3.097 0 0 1 3.097 3.098v5.246c3.518-5.278 8.746-9.353 19.876-9.353m-68.167 1.01h14.342a3.37 3.37 0 0 1 3.371 3.37v60.126a3.37 3.37 0 0 1-3.37 3.37H21.895a3.37 3.37 0 0 1-3.37-3.37V50.396a3.37 3.37 0 0 1 3.37-3.369"/></svg>