<svg xmlns="http://www.w3.org/2000/svg" viewBox="0 0 128 128"><path fill="#000000" d="m70.41.811-2.645 32.457c-1.221-.203-2.442-.203-3.867-.203-1.628 0-3.256.203-4.68.406l-1.425-15.62c0-.406.407-1.014.814-1.014h2.646L60.032 1.014c0-.405.407-1.014.814-1.014h8.75c.61 0 1.018.406.814.811M48.432 2.434c-.203-.405-.61-.811-1.017-.608l-8.14 3.042c-.61.203-.814.812-.61 1.218l6.715 14.402-2.442 1.014c-.407.203-.61.609-.407 1.217l6.715 14.2a26.8 26.8 0 0 1 7.937-3.043zM28.49 11.563l18.925 26.573c-2.442 1.623-4.477 3.449-6.308 5.477l-11.6-11.157c-.407-.405-.407-1.014 0-1.217l2.035-1.623-11.192-11.36c-.407-.405-.407-1.014 0-1.216l6.715-5.477c.407-.609 1.018-.406 1.425 0M12.617 26.777c-.407-.203-1.018-.203-1.221.202l-4.274 7.506c-.203.406 0 1.014.407 1.217L21.978 42.6l-1.425 2.231c-.203.406 0 1.015.407 1.218l14.449 6.49c1.017-2.636 2.442-5.07 4.07-7.302zM1.83 47.265c0-.406.611-.812 1.018-.609L34.39 54.77c-.814 2.637-1.22 5.477-1.424 8.317L17.094 61.87c-.407 0-.814-.406-.814-1.014l.407-2.637-15.466-1.42c-.407 0-.814-.406-.814-1.015zm-1.017 21.3c-.61 0-.814.405-.814 1.013l1.628 8.52c0 .406.61.812 1.017.609L18.11 74.65l.407 2.637c0 .406.61.811 1.018.608l15.262-4.26c-.814-2.637-1.424-5.477-1.628-8.316zM5.901 91.08c-.203-.406 0-1.014.407-1.217l29.508-13.997c1.017 2.637 2.645 5.071 4.477 7.303l-12.82 9.128c-.408.203-1.018.203-1.222-.203l-1.831-2.231-13.228 9.128c-.407.203-1.017.203-1.22-.203Zm35.613-6.086L18.518 108.12c-.407.406-.407 1.015 0 1.218l6.716 5.477c.407.405 1.017.202 1.22-.203l9.362-12.983 2.035 1.826c.407.406 1.017.203 1.22-.203l8.954-12.983a27.5 27.5 0 0 1-6.511-5.274m-4.477 36.92c-.407-.203-.61-.61-.407-1.218l13.43-29.413a37 37 0 0 0 7.937 2.84l-4.07 15.214c-.204.405-.61.811-1.018.608l-2.442-1.014-4.273 15.417c-.204.405-.61.811-1.018.608zm23.198-27.386-2.645 32.457c0 .405.407 1.014.814 1.014h8.75c.407 0 .814-.406.814-1.014l-1.22-15.823h2.645c.407 0 .814-.405.814-1.014l-1.425-15.62c-1.628.203-3.052.406-4.68.406-1.221-.203-2.646-.203-3.867-.406M91.777 6.897c.204-.406 0-1.014-.407-1.217l-8.14-3.043c-.406-.203-1.017.203-1.017.609L77.94 18.662l-2.442-1.014c-.407-.203-1.018.203-1.018.609L70.41 33.47c2.85.608 5.495 1.623 7.937 2.84zm17.908 12.78L86.69 42.802a27.5 27.5 0 0 0-6.512-5.274l8.954-12.983c.203-.406.814-.406 1.22-.203l2.036 1.826 9.36-12.983c.204-.405.815-.405 1.222-.202l6.715 5.477c.204.405.204 1.014 0 1.217m12.21 18.256c.407-.202.61-.811.407-1.217l-4.273-7.505c-.204-.406-.814-.609-1.221-.203l-13.228 9.128-1.424-2.231c-.204-.406-.814-.609-1.221-.203l-12.82 8.926c1.83 2.231 3.255 4.665 4.476 7.302zm4.68 11.766 1.425 8.52c0 .405-.203 1.014-.814 1.014L94.83 62.276c-.204-2.84-.814-5.68-1.628-8.317l15.262-4.26c.407-.203 1.018.203 1.018.608l.407 2.638 15.466-4.058c.61 0 1.017.406 1.22.812m-1.424 31.442c.407.203 1.018-.203 1.018-.609l1.424-8.52c0-.405-.203-1.014-.814-1.014l-15.873-1.42.407-2.637c0-.405-.203-1.014-.814-1.014L94.626 64.71c0 2.84-.61 5.68-1.424 8.317zm-8.343 19.474c-.204.406-.814.608-1.221.203l-26.862-18.46c1.628-2.231 3.052-4.665 4.07-7.303l14.448 6.492c.407.203.61.811.407 1.217l-1.424 2.434 14.448 6.897c.407.203.61.811.407 1.217zM80.788 89.66l18.926 26.574c.203.405.814.405 1.22.202l6.716-5.477q.61-.608 0-1.217l-11.192-11.36 2.035-1.622q.61-.61 0-1.217L87.3 84.387a27.5 27.5 0 0 1-6.511 5.274m0 36.108c-.406.202-1.017-.203-1.017-.609l-8.547-31.24a26.8 26.8 0 0 0 7.937-3.042l6.715 14.2c.203.405 0 1.014-.407 1.217l-2.442 1.014 6.715 14.403c.204.405 0 1.014-.407 1.217z"/></svg>