<svg xmlns="http://www.w3.org/2000/svg" viewBox="0 0 128 128"><path fill="#b8232f" d="M0 0v128h128V0Z"/><path fill="#ffffff" d="M51.203 39.81c-2.535 0-4.629 2.162-4.629 4.846 0 2.686 2.04 4.848 4.52 4.848 2.536 0 4.578-2.162 4.578-4.848 0-2.684-1.988-4.845-4.469-4.845m-33.137 2.395v40.582h7.72v-14.95h4.243c4.244 0 5.9-.467 7.664-1.343 4.19-2.101 6.612-6.423 6.612-11.793 0-4.674-1.927-8.409-5.506-10.512-2.153-1.285-4.14-1.984-10.645-1.984zm7.72 6.596h4.901c3.256 0 5.184 2.277 5.184 6.072 0 1.929-.272 3.099-.937 4.205-1.045 1.693-1.982 2.104-5.123 2.104h-4.026zm87.45 2.394c-1.71 1.638-3.806 2.57-5.845 2.57-.938 0-1.933-.235-3.473-.642-2.042-.523-3.473-.758-5.072-.758-7.22 0-11.909 3.97-11.909 10.102 0 4.436 1.984 7.18 6.065 8.29-4.633 1.282-5.182 3.097-5.182 5.022 0 2.045.824 3.387 2.149 3.91 1.325.587 3.474.875 6.781.936l3.14.059c2.926.058 5.184.876 5.184 3.56 0 1.227-.716 2.335-1.818 3.035-1.156.762-2.756.992-4.629.992-3.418 0-5.297-1.281-5.297-3.677 0-.817.057-1.223.334-1.924h-6.836c-.277.582-.662 1.402-.662 3.037 0 2.039.772 3.794 2.316 5.31 2.535 2.513 6.67 3.212 10.692 3.212 4.41 0 8.66-1.049 11.138-3.854 1.546-1.75 2.264-3.675 2.264-6.186 0-2.687-.775-4.731-2.428-6.365-1.986-1.93-4.245-2.63-8.543-2.687l-3.972-.059c-.773 0-1.211-.292-1.211-.701 0-.816 1.047-1.517 2.92-2.453.55.06.77.06 1.101.06 6.01 0 10.424-3.74 10.424-8.877 0-1.985-.555-3.505-1.658-4.902.441.058 1.216.172 1.934.172 2.039 0 3.578-.643 5.18-2.219zm-46.869.936-6.558 1.984c.66 1.986.99 4.437.99 7.006v21.666h7.392v-21.14c1.71-1.632 3.638-2.682 5.123-2.682 1.931 0 2.48.992 2.48 4.377v19.445h7.28v-21.84c0-1.869-.167-3.151-.553-4.26-.88-2.571-3.637-4.322-6.78-4.322-1.653 0-3.583.468-5.071 1.283-1.214.7-2.152 1.4-3.254 2.22 0-1.227-.385-2.51-1.049-3.737m-11.58.055-7.385 1.226v29.375h7.385zm44.002 5.9c2.816 0 4.467 1.636 4.467 4.437 0 2.745-1.598 4.262-4.522 4.262-2.591 0-4.355-1.225-4.355-4.262 0-2.8 1.6-4.437 4.41-4.437M29.592 86.598v3.982c0 .864.021 1.85.021 1.85-.664-.961-1.75-1.514-2.99-1.514-.799 0-1.42.215-2.129.744-1.507 1.128-2.283 3.003-2.283 5.549 0 3.819 1.64 6.055 4.498 6.055 1.286 0 2.13-.408 2.928-1.393.022.623.244 1.225.244 1.225h1.773c-.245-.698-.332-1.803-.332-3.867V86.598zm38.19 0v4.535H66.34v1.416h1.441v8.217c0 1.202.288 1.97 1.063 2.379a3 3 0 0 0 1.441.334c.776 0 .98-.09 1.535-.4l-.244-1.204c-.31.168-.181.164-.67.164-1.085 0-1.42-.458-1.42-1.78v-7.71h2.307l.533-1.416h-2.771v-4.535zm-49.76.017v16.48h1.773v-16.48Zm37.92.008v4.533H54.5v1.418h1.441v8.215c0 1.202.288 1.97 1.063 2.379.422.216.865.336 1.441.336.777 0 .982-.091 1.537-.402l-.246-1.202c-.31.17-.181.164-.67.164-1.086 0-1.418-.457-1.418-1.779v-7.71h2.387l.531-1.419h-2.851v-4.533zm19.212 4.147-1.709.626 2.373 7.495c.377 1.2.976 3.532 1.108 4.3 0 0 .1.412.277 1.356-.471 1.302-1.036 1.835-2.115 2.201l.51 1.273c1.927-.505 2.814-2.09 3.568-4.494l3.791-12.394h-1.975l-2.171 7.855-.688 2.522h-.045s-.332-1.85-.664-2.98zm-36.955.048c-1.33 0-2.416.53-3.303 1.659-.93 1.203-1.328 2.499-1.328 4.517 0 3.965 1.839 6.365 4.899 6.365 1.419 0 2.749-.527 3.722-1.488l-.666-1.203c-.774.77-1.637 1.129-2.703 1.129-1.109 0-2.127-.432-2.748-1.465-.377-.623-.51-1.489-.51-2.617v-.29h6.893v-.263c-.043-2.857-.31-3.988-1.262-5.047-.755-.84-1.797-1.297-2.994-1.297m7.899.026-1.684.504s.42.817.42 2.523v9.227h1.686v-8.914c.798-.912 2.17-1.682 3.058-1.682.51 0 .976.192 1.219.504.31.41.4.72.4 1.994v8.098h1.752v-9.082c0-.482-.09-.962-.267-1.395-.443-1.056-1.508-1.754-2.705-1.754-1.177 0-2.328.603-3.479 1.852 0-.987-.4-1.875-.4-1.875m18.146.023-1.795.301v11.928h1.795zm-26.133 1.418c.844 0 1.618.41 1.994 1.057.333.576.488 1.37.51 2.666h-5.053c.088-2.475.976-3.723 2.55-3.723m-11.222.168c1.306 0 2.128.41 2.681 1.25v6.342s-.2.504-.666.865c-.71.552-1.22.768-2.127.768-1.02 0-1.707-.407-2.216-1.393-.356-.696-.444-1.73-.444-3.123 0-1.681.177-2.546.71-3.459.465-.817 1.196-1.25 2.062-1.25m56.81 7.127c-.907 0-1.648.787-1.648 1.75s.74 1.746 1.648 1.746c.91 0 1.649-.783 1.649-1.746s-.74-1.75-1.649-1.75m0 .34c.69 0 1.248.592 1.248 1.41s-.558 1.408-1.248 1.408c-.689 0-1.246-.59-1.246-1.408s.557-1.41 1.246-1.41m-.633.412v1.98h.346v-.853h.211l.482.853h.358l-.502-.867c.306-.03.488-.193.488-.531 0-.417-.241-.582-.69-.582zm.346.28h.31c.18 0 .38.038.38.27 0 .267-.178.298-.383.298h-.307z"/></svg>