<?xml version="1.0" encoding="utf-8"?>
<!-- Generator: Adobe Illustrator 24.0.3, SVG Export Plug-In . SVG Version: 6.00 Build 0)  -->
<svg version="1.1" id="Layer_1" xmlns="http://www.w3.org/2000/svg" xmlns:xlink="http://www.w3.org/1999/xlink" x="0px" y="0px"
	 viewBox="0 0 120 120" style="enable-background:new 0 0 120 120;" xml:space="preserve">
<style type="text/css">
	.st0{fill:#80CBF2;}
	.st1{fill:#243038;}
	.st2{fill:#EAB6E1;}
	.st3{fill:#A9DDF3;}
</style>
<g>
	<g>
		<path class="st0" d="M46.92,81.31c-5.37,2.15-12.53,5.63-12.86,9.26c-0.33,3.63,9.97,4.6,9.27,8.07c-0.7,3.47,7.66,5.05,8.82,0.36
			C53.31,94.3,46.92,81.31,46.92,81.31z"/>
		<path class="st1" d="M47.81,102.93c-0.57,0-1.14-0.06-1.7-0.19c-2.61-0.59-4.15-2.35-3.76-4.3c0.2-0.96-2.1-2.02-3.94-2.87
			c-2.74-1.27-5.57-2.57-5.34-5.09c0.29-3.27,4.7-6.57,13.48-10.1c0.49-0.2,1.04,0.02,1.27,0.49c0.67,1.36,6.52,13.46,5.3,18.37
			C52.5,101.79,50.2,102.93,47.81,102.93z M46.43,82.59c-9.96,4.12-11.27,7-11.37,8.07c-0.1,1.11,2.28,2.21,4.19,3.09
			c2.74,1.27,5.57,2.57,5.06,5.09c-0.19,0.95,1.03,1.67,2.24,1.95c1.57,0.36,4.11,0.11,4.63-2.03C52,95.45,48.34,86.65,46.43,82.59z
			"/>
	</g>
	<g>
		<path class="st2" d="M44.68,86.42c0.77,4.35-3.06,20.55-26.27,27.95l-1.91,4.61C23.61,118.87,48.7,109.68,44.68,86.42z"/>
		<path class="st1" d="M15,120l2.67-6.45l0.44-0.14c23.65-7.54,26.09-23.82,25.59-26.8c0-0.01,0-0.02,0-0.03l1.97-0.34c0,0,0,0,0,0
			l0,0c0,0.01,0.01,0.03,0.01,0.04c1.38,8.05-0.46,15.18-5.45,21.2c-7.2,8.68-18.99,12.41-23.7,12.48L15,120z M19.16,115.18
			l-1.1,2.66c5.01-0.74,14.63-4.4,20.62-11.62c2.66-3.21,4.35-6.76,5.05-10.62C40.63,102.31,33.48,110.49,19.16,115.18z"/>
	</g>
	<g>
		<path class="st2" d="M49.66,77.43c0,0-8.89,0.53-8.53,4.19c0.36,3.65,2.26,7.93,2.26,7.93s5.97,1.01,8-2.16
			C53.41,84.21,49.66,77.43,49.66,77.43z"/>
		<path class="st1" d="M49.66,77.43c0,0,3.75,6.78,1.72,9.95c-1.24,1.94-3.95,2.32-5.87,2.32c-1.22,0-2.13-0.15-2.13-0.15
			s-1.9-4.28-2.26-7.93C40.77,77.96,49.66,77.43,49.66,77.43 M50.8,75.36l-1.26,0.08c-1.16,0.07-7.08,0.56-9.4,3.27
			c-0.77,0.9-1.12,1.97-1.01,3.1c0.38,3.93,2.34,8.36,2.42,8.55l0.44,0.98l1.06,0.18c0.11,0.02,1.11,0.18,2.46,0.18
			c3.59,0,6.2-1.12,7.55-3.24c2.54-3.98-0.94-10.69-1.66-12L50.8,75.36L50.8,75.36z"/>
	</g>
	<g>
		<path class="st0" d="M101.6,54.46C93.43,74.2,58.32,90.95,46.64,86.12c-12.1-5.01-24.67-41.51-16.5-61.24S60.94-4.23,80.67,3.94
			S109.77,34.73,101.6,54.46z"/>
		<path class="st1" d="M51.68,87.95c-2.11,0-3.94-0.3-5.42-0.91c-6.08-2.52-12.53-12.62-16.43-25.74
			c-4.15-13.95-4.38-27.71-0.61-36.81C37.59,4.29,60.84-5.35,81.05,3.02c9.79,4.05,17.42,11.68,21.47,21.47
			c4.06,9.79,4.06,20.57,0,30.36l0,0c-3.75,9.05-13.69,18.59-26.61,25.54C66.84,85.26,58.02,87.95,51.68,87.95z M65.92,2
			c-14.79,0-28.85,8.77-34.85,23.26c-8.29,20.02,4.74,55.29,15.96,59.93c5.31,2.2,16.54-0.44,27.94-6.57
			c12.52-6.73,22.14-15.91,25.71-24.54c3.85-9.3,3.85-19.53,0-28.83c-3.85-9.3-11.09-16.53-20.39-20.38C75.59,2.92,70.72,2,65.92,2z
			"/>
	</g>
	<circle class="st3" cx="81.87" cy="36.7" r="8.73"/>
</g>
</svg>
