<?xml version="1.0" encoding="utf-8"?>
<!-- Generator: Adobe Illustrator 24.0.3, SVG Export Plug-In . SVG Version: 6.00 Build 0)  -->
<svg version="1.1" id="Layer_1" xmlns="http://www.w3.org/2000/svg" xmlns:xlink="http://www.w3.org/1999/xlink" x="0px" y="0px"
	 viewBox="0 0 120 120" style="enable-background:new 0 0 120 120;" xml:space="preserve">
<style type="text/css">
	.st0{fill:#3F5463;}
	.st1{fill:#243038;}
	.st2{fill:#FF9000;}
	.st3{fill:#7F8C97;}
	.st4{fill:#677884;}
</style>
<g>
	<path class="st0" d="M95.92,6.33c-13-0.92-38.44,21.29-44.76,44.54C27.91,57.2,5.71,82.63,6.62,95.63
		c1.49,21.1,28.6,29.73,39.29,17.21c0.47-0.56,0.93-1.13,1.38-1.7c0.1,0.1,0.19,0.21,0.3,0.31c8.91,8.91,23.36,8.91,32.27,0
		c8.07-8.07,8.83-20.68,2.28-29.61c8.93,6.55,21.54,5.79,29.61-2.28c8.91-8.91,8.91-23.36,0-32.27c-0.1-0.1-0.21-0.2-0.31-0.3
		c0.58-0.45,1.15-0.9,1.7-1.38C125.66,34.93,117.02,7.82,95.92,6.33z"/>
	<path class="st1" d="M32.09,119.71c-2.67,0-5.46-0.45-8.24-1.36c-8.26-2.72-17.4-10.1-18.29-22.64
		C4.6,82.06,26.88,56.69,50.3,50.01C56.99,26.59,82.33,4.3,96,5.27l0,0c12.54,0.88,19.92,10.02,22.64,18.29
		c2.93,8.9,1.04,17.88-4.81,22.87c-0.26,0.22-0.53,0.44-0.8,0.66c4.17,4.44,6.46,10.21,6.46,16.34c0,6.38-2.49,12.38-7,16.89
		c-7.22,7.22-18.31,8.91-27.27,4.62c4.3,8.96,2.61,20.05-4.62,27.27c-9.13,9.13-23.88,9.31-33.22,0.53
		c-0.22,0.27-0.44,0.53-0.66,0.8C43.29,117.56,37.97,119.71,32.09,119.71z M95.08,7.37c-13.07,0-36.97,22.03-42.89,43.79l-0.16,0.59
		l-0.59,0.16C29.26,57.93,6.78,82.68,7.69,95.56c0.81,11.49,9.22,18.26,16.83,20.77c8.07,2.66,16.15,1.02,20.59-4.17
		c0.46-0.54,0.91-1.1,1.35-1.66l0.76-0.97l1.13,1.19c8.48,8.48,22.28,8.48,30.76,0c7.52-7.52,8.46-19.66,2.18-28.22l-4.09-5.58
		l5.58,4.09c8.56,6.28,20.7,5.35,28.22-2.18c4.11-4.11,6.37-9.57,6.37-15.38c0-5.81-2.26-11.27-6.37-15.38l-1.18-1.14l0.97-0.75
		c0.56-0.44,1.12-0.88,1.66-1.35c5.19-4.43,6.83-12.52,4.17-20.59c-2.5-7.6-9.27-16.02-20.77-16.83l0,0
		C95.6,7.38,95.34,7.37,95.08,7.37z"/>
</g>
<g>
	<g>
		<path class="st2" d="M65.37,90.46l12.76,8.54c3.22-6.54,5.11-13.42,5.11-13.42L61.21,63.54C63.31,70.82,65.95,81.98,65.37,90.46z"
			/>
		<path class="st2" d="M64.09,95.08c-1.31,3.82-3.26,11.15-1.41,16.71c3.26-0.01,6.64-1.18,9.51-3.95c1.35-1.3,2.6-2.98,3.75-4.84
			L64.09,95.08z"/>
		<path class="st2" d="M49.13,100.32c0.52,2.4,1.36,4.51,2.62,6.17c1.47,1.95,3.59,3.49,6,4.4c-1.57-8.33,2.16-17.88,2.99-19.86
			c0.73-7.03-1.36-16.82-3.3-23.99C56.03,80.01,51.92,92.15,49.13,100.32z"/>
		<g>
			<path class="st2" d="M53.17,58.97l-4.46-4.46c-9.72,5.9-31.93,22.56-34.88,34.88c-0.94,3.94-0.04,7.86,2,11.16
				C25.59,96.46,40.53,84.69,53.17,58.97z"/>
			<path class="st2" d="M32.47,95.07c-5.27,4.59-10.02,7.39-13.72,9.09c3.47,3.31,8.23,5.33,13,4.97
				C32.59,104.6,32.84,99.71,32.47,95.07z"/>
			<path class="st2" d="M36.62,91.17c0.78,5.35,0.75,11.21-0.05,16.72c2.77-1.27,5.39-3.52,7.57-7.01c0.2-0.58,0.4-1.18,0.62-1.81
				c2.47-7.25,6.06-17.8,7.72-29.13C47.17,79.09,41.73,85.99,36.62,91.17z"/>
		</g>
	</g>
	<g>
		<path class="st2" d="M90.75,65.08l8.54,12.76c-6.54,3.22-13.42,5.11-13.42,5.11L63.84,60.92C71.11,63.02,82.27,65.66,90.75,65.08z
			"/>
		<path class="st2" d="M95.38,63.8c3.82-1.31,11.15-3.26,16.71-1.41c-0.01,3.26-1.18,6.64-3.95,9.51c-1.3,1.35-2.98,2.6-4.84,3.75
			L95.38,63.8z"/>
		<path class="st2" d="M100.62,48.84c2.4,0.52,4.51,1.36,6.17,2.62c1.95,1.47,3.49,3.59,4.4,6c-8.33-1.57-17.88,2.16-19.86,2.99
			c-7.03,0.73-16.82-1.36-23.99-3.3C80.31,55.73,92.44,51.63,100.62,48.84z"/>
		<g>
			<path class="st2" d="M59.26,52.88l-4.46-4.46c5.9-9.72,22.56-31.93,34.88-34.88c3.94-0.94,7.86-0.04,11.16,2
				C96.75,25.3,84.98,40.23,59.26,52.88z"/>
			<path class="st2" d="M95.36,32.18c4.59-5.27,7.39-10.02,9.09-13.72c3.31,3.47,5.33,8.23,4.97,13
				C104.9,32.3,100.01,32.55,95.36,32.18z"/>
			<path class="st2" d="M91.46,36.32c5.35,0.78,11.21,0.75,16.72-0.05c-1.27,2.77-3.52,5.39-7.01,7.57c-0.58,0.2-1.18,0.4-1.81,0.62
				c-7.25,2.47-17.8,6.06-29.13,7.72C79.38,46.87,86.28,41.44,91.46,36.32z"/>
		</g>
	</g>
</g>
<path class="st3" d="M47.58,42.25c-0.45-0.6-0.88-1.22-1.26-1.85l1.82-1.11c0.35,0.57,0.73,1.13,1.14,1.67L47.58,42.25z
	 M44.42,36.34c-0.24-0.7-0.44-1.43-0.61-2.16l2.08-0.46c0.15,0.66,0.33,1.31,0.54,1.94L44.42,36.34z M43.29,29.75
	c0-0.18-0.01-0.36-0.01-0.54c0-0.56,0.02-1.12,0.06-1.68l2.13,0.14c-0.03,0.51-0.05,1.03-0.05,1.54l0.01,0.49L43.29,29.75z
	 M46.05,23.62l-2.08-0.46c0.16-0.71,0.34-1.42,0.55-2.13l2.04,0.6C46.37,22.28,46.2,22.95,46.05,23.62z M47.96,17.73L46,16.9
	c0.29-0.67,0.59-1.34,0.91-1.99l1.91,0.93C48.52,16.46,48.23,17.09,47.96,17.73z M50.83,12.2l-1.81-1.12
	c0.39-0.63,0.78-1.24,1.19-1.83l1.76,1.2C51.57,11.02,51.19,11.6,50.83,12.2z M54.47,7.15l-1.63-1.38c0.49-0.58,0.98-1.13,1.47-1.63
	l1.54,1.47C55.4,6.1,54.93,6.61,54.47,7.15z M58.89,2.92l-1.24-1.73c0.72-0.52,1.4-0.92,2.03-1.19l0.85,1.95
	C60.04,2.16,59.49,2.49,58.89,2.92z"/>
<path class="st3" d="M1.95,60.53L0,59.68c0.27-0.63,0.67-1.31,1.19-2.03l1.73,1.24C2.49,59.49,2.17,60.04,1.95,60.53z M5.62,55.85
	l-1.47-1.54c0.51-0.49,1.05-0.98,1.63-1.47l1.38,1.63C6.61,54.93,6.1,55.4,5.62,55.85z M10.46,51.96l-1.2-1.76
	c0.59-0.4,1.2-0.8,1.83-1.19l1.12,1.81C11.6,51.19,11.02,51.57,10.46,51.96z M40.96,49.27c-0.54-0.41-1.1-0.79-1.67-1.14l1.11-1.82
	c0.63,0.38,1.25,0.81,1.85,1.26L40.96,49.27z M15.84,48.82l-0.93-1.91c0.65-0.32,1.32-0.62,1.99-0.91l0.83,1.96
	C17.09,48.23,16.46,48.52,15.84,48.82z M21.62,46.56l-0.6-2.04c0.71-0.21,1.43-0.39,2.13-0.55l0.46,2.08
	C22.95,46.2,22.28,46.37,21.62,46.56z M35.65,46.44c-0.63-0.21-1.28-0.4-1.94-0.54l0.46-2.08c0.73,0.16,1.46,0.37,2.16,0.61
	L35.65,46.44z M27.67,45.46l-0.14-2.13c0.74-0.05,1.48-0.07,2.22-0.05l-0.04,2.13l-0.49-0.01C28.7,45.41,28.18,45.43,27.67,45.46z"
	/>
<g>
	<path class="st4" d="M59.15,49.39c-0.01-2.41-0.93-4.82-2.78-6.66c-3.52-3.51-9.34-3.64-13.01-0.29c-4,3.65-4.11,9.87-0.32,13.66
		c1.84,1.84,4.24,2.76,6.64,2.76c3.72,13.73,31.94,38.23,51.08,45.84c2.65,1.05,5.28-1.58,4.23-4.23
		C97.38,81.33,72.88,53.1,59.15,49.39z"/>
	<path class="st1" d="M101.98,106c-0.54,0-1.09-0.1-1.62-0.31c-21.72-8.63-47.31-33.1-51.49-45.79c-2.49-0.19-4.81-1.26-6.6-3.04
		c-2.05-2.05-3.14-4.77-3.07-7.67c0.07-2.9,1.28-5.57,3.43-7.53c4.07-3.71,10.57-3.57,14.48,0.32c1.8,1.79,2.87,4.11,3.06,6.61
		c12.69,4.18,37.16,29.76,45.79,51.49c0.65,1.63,0.28,3.41-0.96,4.65C104.18,105.56,103.1,106,101.98,106z M49.7,41.08
		c-2.03,0-4.05,0.71-5.63,2.15c-1.71,1.56-2.68,3.69-2.74,6c-0.05,2.31,0.82,4.48,2.45,6.12c1.57,1.57,3.67,2.44,5.89,2.45l0.81,0
		l0.21,0.79c3.48,12.87,30.83,37.33,50.44,45.12c0.84,0.33,1.72,0.15,2.36-0.49c0.64-0.64,0.82-1.52,0.49-2.36
		C96.2,81.24,71.74,53.9,58.87,50.42l-0.78-0.21l0-0.81c-0.01-2.24-0.88-4.33-2.47-5.91C54.01,41.88,51.86,41.08,49.7,41.08z"/>
</g>
<path class="st1" d="M46.37,46.08c0.05-0.05,0.11-0.11,0.17-0.16c1.8-1.64,4.78-1.57,6.51,0.15c0.89,0.89,1.39,2.07,1.39,3.33
	l0.01,3.6l3.47,0.94c11.11,3.01,32.6,26.73,41.21,44.9c-18.17-8.62-41.89-30.1-44.9-41.21l-0.94-3.47l-3.6-0.01
	c-1.26,0-2.44-0.5-3.33-1.38C44.53,50.92,44.53,47.92,46.37,46.08"/>
<path class="st1" d="M51.51,60.1c-0.67,0-1.35-0.07-2.03-0.2l0.41-2.09c2.7,0.53,5.21-0.23,6.88-2.08c1.5-1.67,2.02-3.92,1.37-6.03
	l2.04-0.62c0.87,2.83,0.18,5.85-1.82,8.08C56.63,59.06,54.16,60.1,51.51,60.1z"/>
</svg>
