<?xml version="1.0" encoding="utf-8"?>
<!-- Generator: Adobe Illustrator 24.0.3, SVG Export Plug-In . SVG Version: 6.00 Build 0)  -->
<svg version="1.1" id="Layer_1" xmlns="http://www.w3.org/2000/svg" xmlns:xlink="http://www.w3.org/1999/xlink" x="0px" y="0px"
	 viewBox="0 0 120 120" style="enable-background:new 0 0 120 120;" xml:space="preserve">
<style type="text/css">
	.st0{fill:#F1070F;}
	.st1{fill:#243038;}
	.st2{fill:#F7931E;}
</style>
<g>
	<path class="st0" d="M98.94,78.99c-0.58-51.8-44.73-54.6-44.73-77.13c0,0-14.72,9.94-14.72,22.67c0,10.74,9.19,15.26,9.19,31.17
		c0,4.67-3.79,8.46-8.46,8.46c-4.67,0-8.46-3.79-8.46-8.46c0-1.15,0.23-2.24,0.65-3.24c-7.05,7.05-11.41,16.8-11.41,27.56
		c0,21.53,17.45,38.98,38.98,38.98s38.98-17.45,38.98-38.98C98.95,79.68,98.95,79.34,98.94,78.99z"/>
	<path class="st1" d="M59.97,120C37.93,120,20,102.07,20,80.03c0-10.67,4.16-20.71,11.7-28.26l3.55-3.55l-1.93,4.63
		c-0.38,0.91-0.57,1.87-0.57,2.86c0,4.12,3.35,7.47,7.47,7.47s7.47-3.35,7.47-7.47c0-8.49-2.62-13.51-5.16-18.36
		c-2.08-3.97-4.04-7.72-4.04-12.81c0-13.11,14.54-23.08,15.15-23.49L55.2,0v1.87c0,8.51,6.67,14.07,15.13,21.12
		c13.03,10.86,29.25,24.38,29.61,55.99c0.01,0.35,0.01,0.7,0.01,1.05C99.95,102.07,82.01,120,59.97,120z M30.76,55.74
		c-5.68,6.81-8.78,15.31-8.78,24.29c0,20.95,17.04,37.99,37.99,37.99c20.95,0,37.99-17.04,37.99-37.99c0-0.34,0-0.67-0.01-1.01
		v-0.01c-0.35-30.7-16.18-43.89-28.89-54.49c-7.92-6.6-14.83-12.36-15.74-20.74c-3.63,2.85-12.83,11.05-12.83,20.77
		c0,4.6,1.77,7.98,3.81,11.89c2.52,4.83,5.38,10.3,5.38,19.28c0,5.21-4.24,9.46-9.45,9.46C35.01,65.16,30.78,60.94,30.76,55.74z"/>
</g>
<path class="st2" d="M59.97,108.09c-15.47,0-28.06-12.59-28.06-28.06c0-2.21,0.25-4.38,0.75-6.47c2.32,0.99,4.88,1.53,7.56,1.53
	c10.69,0,19.38-8.69,19.38-19.38c0-11.41-3.76-18.62-6.51-23.87c-1.81-3.47-2.68-5.22-2.68-7.29c0-1,0.27-2.06,0.72-3.13
	c3.39,3.91,7.51,7.34,11.57,10.72C75,42.39,87.73,53,88.02,79.12l0,0.15c0.01,0.25,0.01,0.5,0.01,0.76
	C88.03,95.5,75.45,108.09,59.97,108.09z"/>
<g>
	<circle class="st1" cx="45.4" cy="88.77" r="3.08"/>
	<circle class="st1" cx="74.55" cy="88.77" r="3.08"/>
	<path class="st1" d="M48.81,94.68c2.72,3.11,6.71,5.08,11.16,5.08c4.45,0,8.45-1.97,11.16-5.08H48.81z"/>
</g>
</svg>
