<?xml version="1.0" encoding="utf-8"?>
<!-- Generator: Adobe Illustrator 24.0.3, SVG Export Plug-In . SVG Version: 6.00 Build 0)  -->
<svg version="1.1" id="Layer_1" xmlns="http://www.w3.org/2000/svg" xmlns:xlink="http://www.w3.org/1999/xlink" x="0px" y="0px"
	 viewBox="0 0 120 120" style="enable-background:new 0 0 120 120;" xml:space="preserve">
<style type="text/css">
	.st0{fill:#243038;}
	.st1{fill:#D0A98C;}
	.st2{fill:#C5CBD0;}
	.st3{fill:#7F8C97;}
	.st4{fill:#657682;}
	.st5{fill:#FDDFBB;}
</style>
<g>
	<g>
		<path class="st0" d="M36.28,66.36l-7.82,6.37L0.91,38.9c-1.41-1.73-1.15-4.27,0.58-5.68l1.56-1.27c1.73-1.41,4.27-1.15,5.68,0.58
			L36.28,66.36z"/>
		<polygon class="st1" points="8.72,39.99 9.84,36.29 5.6,36.68 4.37,40.75 8.22,40.4 7.1,44.1 10.94,43.75 9.82,47.45 13.67,47.1 
			12.55,50.8 16.4,50.45 15.28,54.15 19.13,53.8 18,57.49 21.85,57.15 20.73,60.84 24.58,60.49 23.46,64.19 27.31,63.84 
			26.19,67.54 30.43,67.16 31.66,63.08 27.81,63.43 28.94,59.73 25.09,60.08 26.21,56.38 22.36,56.73 23.48,53.04 19.63,53.38 
			20.75,49.69 16.91,50.03 18.03,46.34 14.18,46.69 15.3,42.99 11.45,43.34 12.57,39.64 		"/>
		<path class="st0" d="M26.11,76.66c-0.59,0-1.17-0.25-1.57-0.74c-0.7-0.86-0.57-2.14,0.29-2.84l12.52-10.19
			c0.86-0.7,2.13-0.57,2.84,0.29c0.7,0.86,0.57,2.14-0.29,2.84L27.39,76.21C27.01,76.51,26.56,76.66,26.11,76.66z"/>
		<g>
			
				<rect x="37.39" y="67.92" transform="matrix(0.7754 -0.6315 0.6315 0.7754 -42.1875 45.192)" class="st2" width="10.09" height="27.97"/>
			<path class="st0" d="M37.23,70.71l15.11,18.56l-4.69,3.82L32.53,74.53L37.23,70.71 M37.52,67.87l-7.82,6.37l17.66,21.69
				l7.82-6.37L37.52,67.87L37.52,67.87z"/>
		</g>
	</g>
	<g>
		<path class="st3" d="M32.75,105.24c0,18.33,66.38,18.33,66.38,0V94.57c0-18.33-14.86-28.72-33.19-28.72S32.75,76.24,32.75,94.57
			V105.24z"/>
		<path class="st0" d="M65.94,120c-8.81,0-17.04-1.24-23.17-3.5c-7.22-2.66-11.03-6.55-11.03-11.26V94.57
			c0-17.78,13.74-29.73,34.2-29.73s34.2,11.95,34.2,29.73v10.67C100.14,115.38,82.41,120,65.94,120z M65.94,66.86
			c-16.02,0-32.18,8.57-32.18,27.72v10.67c0,8.36,16.19,12.74,32.18,12.74c15.99,0,32.18-4.38,32.18-12.74V94.57
			C98.12,80.78,88.17,66.86,65.94,66.86z"/>
	</g>
	<g>
		<path class="st4" d="M88.72,23.54c9.2-6.33,20.28-8.72,24.87-9.48c1.2-0.2,2.33,0.58,2.58,1.77l1.73,8.26
			c0.32,1.52-0.95,2.9-2.49,2.71c-8.06-1.02-20.95-1.59-23.23,0.37L88.72,23.54z"/>
		<path class="st0" d="M92.1,28.56l-4.93-5.18l0.97-0.67c9.42-6.48,20.81-8.9,25.27-9.64c1.74-0.29,3.37,0.84,3.73,2.56l1.73,8.26
			c0.22,1.03-0.08,2.11-0.8,2.89c-0.73,0.79-1.75,1.16-2.81,1.03c-10.17-1.29-20.87-1.22-22.45,0.13L92.1,28.56z M90.27,23.72
			l2.08,2.19c4.39-1.9,18.28-0.72,23.17-0.1c0.41,0.05,0.8-0.09,1.07-0.39c0.28-0.3,0.39-0.7,0.3-1.11l-1.73-8.26
			c-0.14-0.66-0.77-1.09-1.43-0.98C109.58,15.75,99.16,17.96,90.27,23.72z"/>
	</g>
	<g>
		<path class="st3" d="M89.36,22.2c11.16-0.54,21.84,3.26,26.13,5.02c1.12,0.46,1.68,1.72,1.26,2.86l-2.87,7.94
			c-0.53,1.46-2.34,1.97-3.54,0.99c-6.32-5.11-16.98-12.37-19.95-11.91L89.36,22.2z"/>
		<path class="st0" d="M111.74,40.53c-0.73,0-1.45-0.25-2.04-0.73c-7.97-6.44-17.15-12.02-19.16-11.7l-0.95,0.15l-1.47-7l1.18-0.06
			c11.42-0.56,22.38,3.38,26.57,5.1c1.63,0.67,2.43,2.49,1.83,4.14l-2.87,7.94c-0.36,0.99-1.18,1.76-2.2,2.04
			C112.34,40.48,112.04,40.53,111.74,40.53z M91.21,26.12c4.74,0.69,15.93,9,19.76,12.1c0.32,0.26,0.72,0.34,1.12,0.23
			c0.39-0.11,0.7-0.4,0.84-0.78l2.87-7.94c0.23-0.63-0.08-1.33-0.7-1.59c-3.91-1.61-13.94-5.22-24.52-4.99L91.21,26.12z"/>
	</g>
	<g>
		<path class="st3" d="M35.59,40.42c0,16.76,13.58,30.34,30.34,30.34s30.34-13.58,30.34-30.34V27.27
			c0-16.76-13.58-26.26-30.34-26.26s-30.34,9.5-30.34,26.26V40.42z"/>
		<path class="st0" d="M65.94,71.77c-17.29,0-31.35-14.06-31.35-31.35V27.27C34.59,10.96,47.18,0,65.94,0
			c18.75,0,31.35,10.96,31.35,27.27v13.15C97.29,57.7,83.22,71.77,65.94,71.77z M65.94,2.02c-14.6,0-29.33,7.81-29.33,25.25v13.15
			c0,16.17,13.16,29.33,29.33,29.33c16.17,0,29.33-13.16,29.33-29.33V27.27C95.27,14.7,86.2,2.02,65.94,2.02z"/>
	</g>
	<g>
		<ellipse class="st5" cx="65.94" cy="30.85" rx="27.31" ry="13.26"/>
		<path class="st0" d="M65.94,45.12c-15.88,0-28.32-6.27-28.32-14.27c0-8,12.44-14.27,28.32-14.27s28.32,6.27,28.32,14.27
			C94.25,38.86,81.81,45.12,65.94,45.12z M65.94,18.6c-14.26,0-26.3,5.61-26.3,12.25s12.04,12.25,26.3,12.25s26.3-5.61,26.3-12.25
			S80.19,18.6,65.94,18.6z"/>
	</g>
	<g>
		<circle class="st0" cx="52.79" cy="32.32" r="5.06"/>
		<circle class="st0" cx="79.08" cy="32.32" r="5.06"/>
	</g>
	<path class="st0" d="M73.47,29.76c-0.81,0-1.53-0.59-1.67-1.42c-0.15-0.92,0.47-1.8,1.39-1.95l10.67-1.79
		c0.93-0.16,1.8,0.47,1.95,1.39c0.15,0.92-0.47,1.8-1.39,1.95l-10.67,1.79C73.66,29.76,73.56,29.76,73.47,29.76z"/>
	<path class="st0" d="M58.13,29.76c-0.09,0-0.19-0.01-0.28-0.02l-10.67-1.79c-0.92-0.16-1.55-1.03-1.39-1.95
		c0.15-0.92,1.03-1.55,1.95-1.39l10.67,1.79c0.92,0.16,1.55,1.03,1.39,1.95C59.66,29.18,58.94,29.76,58.13,29.76z"/>
	<path class="st0" d="M47.35,117.43c-0.56,0-1.01-0.45-1.01-1.01V95.93c0-0.56,0.45-1.01,1.01-1.01c0.56,0,1.01,0.45,1.01,1.01
		v20.49C48.36,116.98,47.91,117.43,47.35,117.43z"/>
	<path class="st0" d="M85.84,117.96c-0.56,0-1.01-0.45-1.01-1.01V95.93c0-0.56,0.45-1.01,1.01-1.01c0.56,0,1.01,0.45,1.01,1.01
		v21.02C86.85,117.51,86.4,117.96,85.84,117.96z"/>
</g>
</svg>
