<?xml version="1.0" encoding="utf-8"?>
<!-- Generator: Adobe Illustrator 24.0.3, SVG Export Plug-In . SVG Version: 6.00 Build 0)  -->
<svg version="1.1" id="Layer_1" xmlns="http://www.w3.org/2000/svg" xmlns:xlink="http://www.w3.org/1999/xlink" x="0px" y="0px"
	 viewBox="0 0 120 120" style="enable-background:new 0 0 120 120;" xml:space="preserve">
<style type="text/css">
	.st0{fill:#FBB03B;}
	.st1{fill:#243038;}
	.st2{fill:#7F8C97;}
</style>
<g>
	<g>
		<path class="st0" d="M67.96,88.49l31.37,9.69c2.41,0.64,4.51-1.76,3.56-4.06L89.21,64.23l18.88-26.97
			c1.36-2.09-0.28-4.84-2.76-4.64l-32.62,3.9L52.87,10.12c-1.57-1.94-4.68-1.23-5.27,1.19l-6.34,32.35L9.98,54.25
			c-2.33,0.9-2.62,4.07-0.49,5.38l28.84,16.15l0.37,32.9c0.13,2.49,3.07,3.75,4.96,2.13L67.96,88.49z"/>
		<path class="st1" d="M41.71,112.52c-0.53,0-1.07-0.11-1.58-0.33c-1.41-0.61-2.34-1.94-2.42-3.47l-0.37-32.36L9,60.5
			c-1.35-0.82-2.07-2.27-1.93-3.81s1.12-2.83,2.55-3.38L40.39,42.9l6.23-31.78c0.37-1.54,1.52-2.68,3.02-3.02
			c1.5-0.34,3.03,0.19,4,1.39l19.52,25.98l32.04-3.83c1.58-0.12,3.02,0.62,3.8,1.94c0.79,1.32,0.76,2.94-0.08,4.23L90.36,64.34
			L103.8,93.7c0.6,1.45,0.34,3.06-0.67,4.21c-1.01,1.16-2.57,1.63-4.05,1.23l-30.86-9.53l-23.87,21.92
			C43.58,112.19,42.65,112.52,41.71,112.52z M50.55,10c-0.15,0-0.31,0.02-0.47,0.05c-0.76,0.17-1.33,0.73-1.51,1.49l-6.44,32.88
			L10.31,55.19c-0.69,0.27-1.17,0.9-1.24,1.68c-0.07,0.78,0.28,1.49,0.95,1.9l29.31,16.41l0.38,33.48c0.04,0.74,0.49,1.39,1.21,1.7
			c0.72,0.31,1.5,0.19,2.1-0.32l24.69-22.68l31.92,9.86c0.72,0.19,1.48-0.04,2-0.63c0.52-0.59,0.65-1.37,0.35-2.1L88.06,64.13
			l19.21-27.44c0.41-0.63,0.42-1.42,0.02-2.09s-1.11-1.05-1.89-0.98l-33.15,3.97L52.07,10.72C51.7,10.26,51.15,10,50.55,10z"/>
	</g>
	<g>
		<circle class="st1" cx="43.87" cy="60.02" r="3.59"/>
		<circle class="st1" cx="76.94" cy="52.52" r="3.59"/>
		<path class="st1" d="M49.26,65.84c3.88,2.83,8.92,4.03,13.97,2.89s9.08-4.4,11.36-8.63L49.26,65.84z"/>
	</g>
</g>
<path class="st2" d="M28.89,34.52l-1.41-1.41l1.41-1.41l1.41,1.41L28.89,34.52z M24.64,30.27l-1.41-1.41l1.41-1.41l1.41,1.41
	L24.64,30.27z M20.4,26.03l-1.41-1.41l1.41-1.41l1.41,1.41L20.4,26.03z M16.16,21.79l-1.41-1.41l1.41-1.41l1.41,1.41L16.16,21.79z
	 M11.92,17.55l-1.41-1.41l1.41-1.41l1.41,1.41L11.92,17.55z"/>
<path class="st2" d="M80.22,25.64l-1.55-1.26l1.26-1.55l1.55,1.26L80.22,25.64z M84,20.99l-1.55-1.26l1.26-1.55l1.55,1.26L84,20.99z
	 M87.79,16.33l-1.55-1.26l1.26-1.55l1.55,1.26L87.79,16.33z M91.57,11.67l-1.55-1.26l1.26-1.55l1.55,1.26L91.57,11.67z"/>
<path class="st2" d="M21.37,42.54l-1.83-0.81l0.81-1.83l1.83,0.81L21.37,42.54z M15.88,40.11l-1.83-0.81l0.81-1.83l1.83,0.81
	L15.88,40.11z M10.4,37.67l-1.83-0.81l0.81-1.83l1.83,0.81L10.4,37.67z M4.92,35.23l-1.15-0.51l0.81-1.83l1.15,0.51L4.92,35.23z"/>
<path class="st2" d="M0.54,87.55L0,85.63l1.93-0.54l0.54,1.93L0.54,87.55z M6.32,85.94l-0.54-1.93l1.93-0.54l0.54,1.93L6.32,85.94z
	 M12.09,84.32l-0.54-1.93l1.93-0.54l0.54,1.93L12.09,84.32z M17.87,82.7l-0.54-1.93l1.93-0.54l0.54,1.93L17.87,82.7z M23.65,81.08
	l-0.54-1.93l1.32-0.37l0.54,1.93L23.65,81.08z"/>
<path class="st2" d="M16.73,102.8l-1.64-1.14l1.14-1.64l1.64,1.14L16.73,102.8z M20.15,97.87l-1.64-1.14l1.14-1.64l1.64,1.14
	L20.15,97.87z M23.56,92.93l-1.64-1.14l1.14-1.64l1.64,1.14L23.56,92.93z"/>
<path class="st2" d="M76.59,110.5l-0.89-1.79l1.79-0.89l0.89,1.79L76.59,110.5z M73.91,105.13l-0.89-1.79l1.79-0.89l0.89,1.79
	L73.91,105.13z M71.23,99.76l-0.89-1.79l1.79-0.89l0.89,1.79L71.23,99.76z"/>
<path class="st2" d="M102.08,63.2l-0.89-1.79l1.79-0.89l0.89,1.79L102.08,63.2z M107.44,60.51l-0.89-1.79l1.79-0.89l0.89,1.79
	L107.44,60.51z M112.81,57.83l-0.89-1.79l1.79-0.89l0.89,1.79L112.81,57.83z M118.18,55.15l-0.89-1.79l1.79-0.89l0.89,1.79
	L118.18,55.15z"/>
</svg>
