<?xml version="1.0" encoding="utf-8"?>
<!-- Generator: Adobe Illustrator 24.0.3, SVG Export Plug-In . SVG Version: 6.00 Build 0)  -->
<svg version="1.1" id="Layer_1" xmlns="http://www.w3.org/2000/svg" xmlns:xlink="http://www.w3.org/1999/xlink" x="0px" y="0px"
	 viewBox="0 0 120 120" style="enable-background:new 0 0 120 120;" xml:space="preserve">
<style type="text/css">
	.st0{fill:#E1C7B4;}
	.st1{fill:#243038;}
	.st2{fill:#F3F5F6;}
	.st3{fill:#FFFFFF;}
</style>
<g>
	<g>
		<path class="st0" d="M78.58,50.12c0.97-4.73-1.54-9.63-6.19-11.49C50.35,29.82,38.51,15.42,35.93,7.88
			C34.11,2.56,28.31-0.27,23,1.56c-5.32,1.82-8.15,7.61-6.33,12.93c2.73,7.97,8.24,15.45,15.13,22.03c-2.42-0.2,1-0.14,1.18,0.27
			L9.27,36.75c0,0-6.27,1.74-6.27,8.71c0,6.97,6.27,9.02,6.27,9.02S3,56.22,3,63.19c0,6.28,5.09,8.49,6.09,8.87
			C8.09,72.4,3,74.43,3,80.71c0,6.97,6.27,9.02,6.27,9.02S3,91.47,3,98.44c0,6.97,6.27,8.94,6.27,8.94h88.6V50.12H78.58z"/>
		<path class="st1" d="M98.87,108.37l-89.89-0.05C8.9,108.31,2,106.05,2,98.44c0-4.95,2.91-7.54,4.98-8.75
			C4.93,88.38,2,85.66,2,80.71c0-4.88,2.78-7.45,4.83-8.68C4.79,70.73,2,68.07,2,63.19c0-4.95,2.91-7.54,4.98-8.75
			C4.93,53.13,2,50.41,2,45.46c0-7.64,6.94-9.66,7.01-9.67l0.27-0.04l20.34,0.04c-6.78-6.8-11.45-13.85-13.89-20.97
			c-2-5.83,1.12-12.2,6.95-14.2c2.82-0.97,5.86-0.78,8.54,0.53c2.68,1.31,4.69,3.59,5.66,6.42c2.52,7.36,14.16,21.46,35.89,30.15
			c4.64,1.86,7.44,6.53,6.97,11.41h19.13V108.37z M9.44,106.37h87.43V51.12H77.35l0.25-1.2c0.89-4.35-1.45-8.71-5.58-10.36
			C49.67,30.62,37.63,15.91,34.98,8.21c-0.8-2.32-2.45-4.19-4.65-5.27c-2.2-1.08-4.69-1.23-7.01-0.44
			c-4.79,1.64-7.35,6.87-5.71,11.66c2.48,7.22,7.37,14.39,14.55,21.32c0.72,0.09,1.48,0.33,1.73,0.9l0.64,1.36l-0.03,0l0.02,0.05
			l-25.1-0.04C8.6,38.02,4,39.79,4,45.46c0,6.13,5.36,7.99,5.59,8.07l3.1,1.04l-3.14,0.88C9.32,55.51,4,57.1,4,63.19
			c0,5.61,4.53,7.59,5.44,7.93l2.63,0.98L9.41,73C8.51,73.31,4,75.12,4,80.71c0,6.13,5.36,7.99,5.59,8.07l3.1,1.04l-3.14,0.88
			C9.32,90.76,4,92.35,4,98.44C4,104.1,8.57,106.05,9.44,106.37z"/>
	</g>
	<g>
		<path class="st2" d="M89.35,46.34h26.45c1.25,0,2.26,1.01,2.26,2.26v68.14c0,1.25-1.01,2.26-2.26,2.26H89.35
			c-1.25,0-2.26-1.01-2.26-2.26V48.6C87.09,47.35,88.1,46.34,89.35,46.34z"/>
		<path class="st1" d="M115.8,120H89.35c-1.8,0-3.26-1.46-3.26-3.26V48.6c0-1.8,1.46-3.26,3.26-3.26h26.46
			c1.8,0,3.26,1.46,3.26,3.26v68.14C119.06,118.54,117.6,120,115.8,120z M89.35,47.34c-0.7,0-1.26,0.57-1.26,1.26v68.14
			c0,0.7,0.57,1.26,1.26,1.26h26.46c0.7,0,1.26-0.57,1.26-1.26V48.6c0-0.7-0.57-1.26-1.26-1.26H89.35z"/>
	</g>
	<g>
		<circle class="st3" cx="102.71" cy="108.81" r="4.84"/>
		<path class="st1" d="M102.71,114.65c-3.22,0-5.84-2.62-5.84-5.84c0-3.22,2.62-5.84,5.84-5.84c3.22,0,5.84,2.62,5.84,5.84
			C108.54,112.03,105.92,114.65,102.71,114.65z M102.71,104.98c-2.12,0-3.84,1.72-3.84,3.84s1.72,3.84,3.84,3.84
			s3.84-1.72,3.84-3.84S104.82,104.98,102.71,104.98z"/>
	</g>
	<path class="st1" d="M38.7,37.79H28.16c-0.55,0-1-0.45-1-1s0.45-1,1-1H38.7c0.55,0,1,0.45,1,1S39.25,37.79,38.7,37.79z"/>
</g>
</svg>
