<svg xmlns="http://www.w3.org/2000/svg" class="ic-icon-svg ic-icon-svg--inbox" version="1.1" x="0" y="0" viewBox="0 0 280 280" enable-background="new 0 0 280 280" xml:space="preserve"><path d="M91.72,120.75h96.56V104.65H91.72Zm0,48.28h80.47V152.94H91.72Zm0-96.56h80.47V56.37H91.72Zm160.94,34.88H228.52V10.78h-177v96.56H27.34A24.17,24.17,0,0,0,3.2,131.48V244.14a24.17,24.17,0,0,0,24.14,24.14H252.66a24.17,24.17,0,0,0,24.14-24.14V131.48A24.17,24.17,0,0,0,252.66,107.34Zm0,16.09a8.06,8.06,0,0,1,8,8v51.77l-32.19,19.31V123.44ZM67.58,203.91v-177H212.42v177ZM27.34,123.44H51.48v79.13L19.29,183.26V131.48A8.06,8.06,0,0,1,27.34,123.44ZM252.66,252.19H27.34a8.06,8.06,0,0,1-8-8V202l30,18H230.75l30-18v42.12A8.06,8.06,0,0,1,252.66,252.19Z"/></svg>
