<svg xmlns="http://www.w3.org/2000/svg" role="presentation" aria-hidden="true" class="ic-icon-svg ic-icon-svg--facebook" width="21" height="21" viewBox="0 0 21 21" version="1.1">
  <g stroke="none" stroke-width="1" fill="none" fill-rule="evenodd">
    <g transform="translate(-82.000000, -38.000000)">
      <g transform="translate(82.000000, 38.000000)">
        <path d="M19.8 21C20.5 21 21 20.5 21 19.8L21 1.2C21 0.5 20.5 0 19.8 0L1.2 0C0.5 0 0 0.5 0 1.2L0 19.8C0 20.5 0.5 21 1.2 21L19.8 21M14.5 21L14.5 12.9 17.2 12.9 17.6 9.7 14.5 9.7 14.5 7.7C14.5 6.8 14.7 6.1 16.1 6.1L17.7 6.1 17.7 3.3C17.4 3.3 16.4 3.2 15.3 3.2 12.9 3.2 11.2 4.7 11.2 7.4L11.2 9.7 8.5 9.7 8.5 12.9 11.2 12.9 11.2 21 14.5 21" fill="#3B5998"/>
      </g>
    </g>
  </g>
</svg>
