<svg xmlns="http://www.w3.org/2000/svg" class="ic-icon-svg ic-icon-svg--lti" version="1.1" x="0" y="0" viewBox="241 -241 512 512" enable-background="new 241 -241 512 512" xml:space="preserve"><path d="M718.9-104.5h-68.3v-102.3c0-18.9-15.4-34.3-34.3-34.3h-33.8c-19 0-34.3 15.3-34.3 34.3v102.3H445.8v-102.3c0-18.9-15.4-34.3-34.3-34.3h-33.8c-19 0-34.3 15.3-34.3 34.3v102.3h-68.3c-18.9 0-34.1 15.2-34.1 34v68.6c0 18.7 15.3 34 34.1 34h17.1v118.3c0 19.5 22.8 35.3 51 35.3h85.5v34.1c0 28.4 22.9 51.2 51.2 51.2h34.2c28.2 0 51.2-22.9 51.2-51.2v-34.1h85.5c28.2 0 51-15.8 51-35.3V32.1h17.1c18.9 0 34.1-15.2 34.1-34v-68.6C753-89.2 737.7-104.5 718.9-104.5L718.9-104.5zM582.3-104.5v-102.3c0-0.1 0-0.1 0.2-0.1h33.8c0.1 0 0.2 0 0.2 0.1v102.3c0 0.1 0 0.1-0.2 0.1h-33.8C582.4-104.5 582.3-104.5 582.3-104.5L582.3-104.5zM377.5-104.5v-102.3c0-0.1 0-0.1 0.2-0.1h33.8c0.1 0 0.2 0 0.2 0.1v102.3c0 0.1 0 0.1-0.2 0.1h-33.8C377.6-104.5 377.5-104.5 377.5-104.5L377.5-104.5zM514.1 236.9h-34.2c-9.5 0-17-7.6-17-17.1v-34.1h68.3v34.1C531.1 229.2 523.5 236.9 514.1 236.9L514.1 236.9zM667.7 139.7c0 6.6-7.6 11.9-16.9 11.9H343.2c-9.3 0-16.9-5.3-16.9-11.9V32.1h341.3V139.7L667.7 139.7zM684.7-2.1H275.1v-68.3h443.7v68.3H684.7L684.7-2.1z"/></svg>
