<svg class="ic-icon-svg ic-icon-svg--github" role="presentation" aria-hidden="true" xmlns="http://www.w3.org/2000/svg" width="21" height="18" viewBox="0 0 21 18" version="1.1"><g stroke="none" stroke-width="1" fill="none" fill-rule="evenodd"><g transform="translate(-22.000000, -15.000000)" fill="#000000"><g transform="translate(22.000000, 14.000000)"><path d="M0 9.8C0 8.1 0.6 6.6 1.7 5.4 1.6 5.2 1.6 5 1.5 4.8 1.5 4.6 1.4 4.3 1.4 3.9 1.3 3.5 1.4 3.1 1.4 2.6 1.5 2.1 1.7 1.6 1.9 1 1.9 1 2 1 2 1 2.1 1 2.3 1 2.6 1 2.8 1.1 3.1 1.1 3.5 1.2 3.8 1.3 4.2 1.5 4.7 1.7 5.2 2 5.8 2.3 6.4 2.7 7.4 2.5 8.8 2.3 10.5 2.3 12.2 2.3 13.6 2.5 14.6 2.7 15.2 2.3 15.7 2 16.3 1.7 16.8 1.5 17.2 1.3 17.6 1.2 17.9 1.1 18.2 1 18.4 1 18.7 1 18.9 1 19 1L19.1 1C19.3 1.6 19.5 2.1 19.6 2.6 19.6 3.1 19.7 3.5 19.6 3.9 19.6 4.3 19.5 4.6 19.5 4.8 19.4 5 19.4 5.2 19.3 5.4 20.4 6.6 21 8.1 21 9.8 21 10.7 20.9 11.6 20.7 12.4 20.6 13.1 20.3 13.8 20 14.4 19.7 14.9 19.3 15.4 18.8 15.9 18.3 16.3 17.8 16.7 17.2 16.9 16.6 17.2 16 17.4 15.2 17.6 14.5 17.8 13.8 17.9 13 18 12.2 18 11.4 18.1 10.5 18.1 9.6 18.1 8.7 18 8 18 7.2 17.9 6.5 17.8 5.7 17.6 5 17.4 4.4 17.2 3.8 16.9 3.2 16.7 2.7 16.3 2.2 15.9 1.7 15.4 1.3 14.9 1 14.4 0.7 13.8 0.4 13.1 0.3 12.4 0.1 11.6 0 10.7 0 9.8L0 9.8 0 9.8ZM2.6 12.4C2.6 12.9 2.7 13.5 2.8 13.9 2.9 14.4 3.1 14.8 3.4 15.1 3.6 15.4 3.9 15.6 4.3 15.9 4.7 16.1 5.1 16.2 5.5 16.4 5.9 16.5 6.4 16.6 7 16.6 7.6 16.7 8.1 16.7 8.6 16.7 9.1 16.8 9.7 16.8 10.4 16.8 11.2 16.8 11.8 16.8 12.2 16.7 12.7 16.7 13.3 16.7 13.9 16.6 14.5 16.6 15 16.5 15.4 16.4 15.7 16.2 16.1 16.1 16.5 15.9 17 15.6 17.3 15.4 17.5 15.1 17.7 14.8 17.9 14.4 18.1 13.9 18.2 13.5 18.3 12.9 18.3 12.4 18.3 11.4 17.8 10.5 16.9 9.6 16.7 9.4 16.4 9.2 16 9.1 15.7 9 15.3 8.9 14.8 8.9 14.4 8.9 13.9 8.9 13.5 8.9 13.1 8.9 12.6 8.9 12 9 11.4 9 10.9 9 10.4 9 10 9 9.5 9 8.9 9 8.3 8.9 7.8 8.9 7.4 8.9 6.9 8.9 6.5 8.9 6.1 8.9 5.6 8.9 5.2 9 4.9 9.1 4.5 9.2 4.2 9.4 3.9 9.6 3 10.5 2.6 11.4 2.6 12.4L2.6 12.4 2.6 12.4ZM5.6 12.5C5.6 11.9 5.7 11.3 6 10.9 6.3 10.4 6.7 10.2 7.1 10.2 7.6 10.2 8 10.4 8.3 10.9 8.6 11.3 8.7 11.9 8.7 12.5 8.7 13.2 8.6 13.7 8.3 14.2 8 14.6 7.6 14.9 7.1 14.9 6.7 14.9 6.3 14.6 6 14.2 5.7 13.7 5.6 13.2 5.6 12.5L5.6 12.5 5.6 12.5ZM12.2 12.5C12.2 11.9 12.3 11.3 12.6 10.9 12.9 10.4 13.3 10.2 13.7 10.2 14.2 10.2 14.6 10.4 14.9 10.9 15.2 11.3 15.3 11.9 15.3 12.5 15.3 13.2 15.2 13.7 14.9 14.2 14.6 14.6 14.2 14.9 13.7 14.9 13.3 14.9 12.9 14.6 12.6 14.2 12.3 13.7 12.2 13.2 12.2 12.5L12.2 12.5 12.2 12.5Z"/></g></g></g></svg>
