<svg width="28" height="28" viewBox="0 0 28 28" fill="none" xmlns="http://www.w3.org/2000/svg">
<path fill-rule="evenodd" clip-rule="evenodd" d="M15.3211 0.645587C14.6468 -0.214869 13.3532 -0.214871 12.6789 0.645585L11.4942 2.1574C11.051 2.72295 10.3024 2.94475 9.6265 2.71076L7.8198 2.08523C6.79151 1.72921 5.70329 2.43488 5.59707 3.52658L5.41045 5.4447C5.34063 6.16224 4.82969 6.75723 4.13574 6.92907L2.28068 7.38844C1.22487 7.6499 0.687509 8.83718 1.18309 9.81353L2.05383 11.529C2.37956 12.1707 2.26852 12.9499 1.77681 13.4731L0.462374 14.8715C-0.285743 15.6674 -0.101651 16.9594 0.83839 17.5104L2.49004 18.4785C3.1079 18.8406 3.43202 19.5568 3.29866 20.2651L2.94216 22.1586C2.73926 23.2362 3.58636 24.2227 4.67241 24.1734L6.58058 24.0868C7.2944 24.0544 7.95077 24.48 8.21811 25.1487L8.93274 26.936C9.33947 27.9533 10.5806 28.3211 11.4679 27.6871L13.0267 26.5734C13.6099 26.1567 14.3901 26.1567 14.9733 26.5734L16.5321 27.6871C17.4194 28.3211 18.6605 27.9533 19.0673 26.936L19.7819 25.1487C20.0492 24.48 20.7056 24.0544 21.4194 24.0868L23.3276 24.1734C24.4136 24.2227 25.2607 23.2362 25.0578 22.1586L24.7013 20.2651C24.568 19.5568 24.8921 18.8406 25.51 18.4785L27.1616 17.5104C28.1016 16.9594 28.2857 15.6674 27.5376 14.8715L26.2232 13.4731C25.7315 12.9499 25.6204 12.1707 25.9462 11.529L26.8169 9.81353C27.3125 8.83718 26.7751 7.6499 25.7193 7.38844L23.8643 6.92907C23.1703 6.75723 22.6594 6.16224 22.5896 5.44471L22.4029 3.52658C22.2967 2.43488 21.2085 1.72921 20.1802 2.08523L18.3735 2.71075C17.6976 2.94475 16.949 2.72295 16.5058 2.15741L15.3211 0.645587ZM14.0002 23.0588C19.0033 23.0588 23.0591 19.003 23.0591 14C23.0591 8.99694 19.0033 4.94116 14.0002 4.94116C8.99718 4.94116 4.94141 8.99694 4.94141 14C4.94141 19.003 8.99718 23.0588 14.0002 23.0588Z" fill="currentColor"/>
<path fill-rule="evenodd" clip-rule="evenodd" d="M15.8 14.2048C16.5928 13.6409 17.1099 12.7147 17.1099 11.6678C17.1099 9.94953 15.717 8.55664 13.9988 8.55664C12.2806 8.55664 10.8877 9.94953 10.8877 11.6678C10.8877 12.7147 11.4049 13.6409 12.1977 14.2048L11.1983 18.2021C11.0405 18.8332 11.5179 19.4446 12.1685 19.4446H15.8291C16.4797 19.4446 16.9571 18.8332 16.7993 18.2021L15.8 14.2048Z" fill="currentColor"/>
</svg>
