<svg xmlns="http://www.w3.org/2000/svg" role="presentation" aria-hidden="true" class="ic-icon-svg ic-icon-svg--linkedin" width="21" height="21" viewBox="0 0 21 21" version="1.1"><title>sso-linkedin</title><desc>Created with Sketch.</desc><g stroke="none" stroke-width="1" fill="none" fill-rule="evenodd"><g transform="translate(-117.000000, -39.000000)" fill="#007bb6"><g transform="translate(117.000000, 39.000000)"><path d="M17.5 0L3.5 0C1.6 0 0 1.6 0 3.5L0 17.5C0 19.4 1.6 21 3.5 21L17.5 21C19.4 21 21 19.4 21 17.5L21 3.5C21 1.6 19.4 0 17.5 0L17.5 0ZM6.5 17.6L3.3 17.6 3.3 8 6.5 8 6.5 17.6 6.5 17.6ZM4.9 6.7L4.8 6.7C3.8 6.7 3.1 6 3.1 5.1 3.1 4.1 3.8 3.4 4.9 3.4 6 3.4 6.6 4.1 6.7 5.1 6.7 6 6 6.7 4.9 6.7L4.9 6.7ZM17.9 17.6L14.7 17.6 14.7 12.5C14.7 11.2 14.3 10.3 13.1 10.3 12.2 10.3 11.7 10.9 11.5 11.5 11.4 11.7 11.4 12 11.4 12.2L11.4 17.6 8.2 17.6C8.2 17.6 8.3 8.9 8.2 8L11.4 8 11.4 9.4C11.8 8.7 12.6 7.8 14.3 7.8 16.3 7.8 17.9 9.2 17.9 12.1L17.9 17.6 17.9 17.6Z"/></g></g></g></svg>
