<svg xmlns="http://www.w3.org/2000/svg" version="1.1" class="ic-icon-svg menu-item__icon svg-icon-information" x="0" y="0" viewBox="0 0 200 200" enable-background="new 0 0 200 200" xml:space="preserve" fill="currentColor"><path d="M100 200C44.9 200 0 155.1 0 100 0 44.9 44.9 0 100 0s100 44.9 100 100C200 155.1 155.1 200 100 200zM100 20c-44.1 0-80 35.9-80 80s35.9 80 80 80 80-35.9 80-80S144.1 20 100 20z"/><path d="M110 130V90c0-5.5-4.5-10-10-10H80v20h10v30H70v20h60v-20H110z"/><circle cx="100" cy="60" r="12.5"/></svg>
