<svg
  class="ic-icon-svg ic-icon-svg--google"
  version="1.1"
  viewBox="0 0 32 32"
  xmlns="http://www.w3.org/2000/svg" xmlns:xlink="http://www.w3.org/1999/xlink"
  x="0px" y="0px"
  xml:space="preserve">
<path d="M29,0H3C1.4,0,0,1.4,0,3v26c0,1.6,1.4,3,3,3h26c1.6,0,3-1.4,3-3V3C32,1.4,30.6,0,29,0z M16.2,28c-6.6,0-12-5.4-12-12
	s5.4-12,12-12c3.2,0,5.9,1.2,8,3.1L21,10.3c-0.9-0.9-2.5-1.9-4.8-1.9c-4.1,0-7.4,3.4-7.4,7.6s3.3,7.6,7.4,7.6c4.8,0,6.5-3.4,6.8-5.2
	h-6.8v-4.1h11.3c0.1,0.6,0.2,1.2,0.2,2C27.8,23.1,23.2,28,16.2,28L16.2,28z"/>
</svg>
