<svg xmlns="http://www.w3.org/2000/svg" role="presentation" aria-hidden="true" class="ic-icon-svg ic-icon-svg--google" width="18" height="18" viewBox="0 0 18 18" version="1.1"><title>sso-google</title><desc>Created with Sketch.</desc><g stroke="none" stroke-width="1" fill="none" fill-rule="evenodd"><g transform="translate(-55.000000, -39.000000)" fill="#d50f25"><g transform="translate(55.000000, 39.000000)"><path d="M17.2 7.7L14.9 7.7 14.9 5.4 13.7 5.4 13.7 7.7 11.4 7.7 11.4 8.8 13.7 8.8 13.7 11.1 14.9 11.1 14.9 8.8 17.2 8.8 17.2 7.7M6 16.3C3.6 16.3 2 15.2 2 13.6 2 12 3.5 11.4 4 11.2 4.9 10.9 6.2 10.9 6.4 10.9 6.6 10.9 6.7 10.9 6.9 10.9 8.7 12.1 9.4 12.7 9.4 13.9 9.4 15.3 8.2 16.3 6 16.3L6 16.3ZM6 7.3C4.1 7.3 3.2 4.8 3.2 3.3 3.2 2.7 3.3 2 3.7 1.5 4 1.1 4.7 0.8 5.3 0.8 7.2 0.8 8.2 3.4 8.2 5 8.2 5.4 8.1 6.1 7.6 6.6 7.2 7 6.6 7.3 6 7.3L6 7.3ZM9 9.8L8.2 9.2C7.9 9 7.6 8.7 7.6 8.2 7.6 7.7 7.9 7.4 8.2 7.1 9.2 6.4 10.2 5.6 10.2 3.9 10.2 2.2 9.1 1.3 8.6 0.9L10 0.9 11.4 0 6.7 0C5.4 0 3.8 0.1 2.5 1.2 1.5 2 1.1 3.3 1.1 4.3 1.1 6.1 2.5 7.9 4.9 7.9 5.2 7.9 5.4 7.8 5.7 7.8 5.6 8.1 5.5 8.3 5.5 8.7 5.5 9.4 5.8 9.8 6.1 10.2 5.1 10.3 3.2 10.4 1.8 11.3 0.4 12.1 0 13.2 0 14 0 15.7 1.5 17.3 4.9 17.3 8.8 17.3 10.9 15.1 10.9 13 10.9 11.4 10 10.7 9 9.8L9 9.8Z"/></g></g></g></svg>
