<svg xmlns="http://www.w3.org/2000/svg" xmlns:xlink="http://www.w3.org/1999/xlink" version="1.1" class="canvas-logomark" x="0" y="0" viewBox="0 0 200 200" enable-background="new 0 0 200 200" xml:space="preserve">
  <path fill="#D64027" d="M29.2 100c0-14.9-11.2-26.9-25.5-28.4C1.5 80.6 0 89.6 0 100s1.5 19.4 3.7 28.4C18 126.9 29.2 114.2 29.2 100L29.2 100zM46.4 90.3c5 0 9 4 9 9s-4 9-9 9 -9-4-9-9S41.5 90.3 46.4 90.3zM170.8 100c0 14.9 11.2 26.9 25.5 28.4 2.2-9 3.7-18.7 3.7-28.4s-1.5-19.4-3.7-28.4C182 73.1 170.8 85.1 170.8 100L170.8 100zM151.3 90.3c5 0 9 4 9 9s-4 9-9 9c-5 0-9-4-9-9S146.3 90.3 151.3 90.3zM99.6 170.9c-15 0-27 11.2-28.5 25.4 9 2.2 18.7 3.7 28.5 3.7s19.5-1.5 28.5-3.7C126.6 182.1 114.6 170.9 99.6 170.9L99.6 170.9zM98.9 142.5c5 0 9 4 9 9 0 4.9-4 9-9 9 -5 0-9-4-9-9C89.9 146.5 93.9 142.5 98.9 142.5zM99.6 29.1c15 0 27-11.2 28.5-25.4 -9-2.2-18.7-3.7-28.5-3.7S80.1 1.5 71.2 3.7C72.7 17.9 84.6 29.1 99.6 29.1L99.6 29.1zM98.9 38.1c5 0 9 4 9 9s-4 9-9 9c-5 0-9-4-9-9S93.9 38.1 98.9 38.1zM149.8 150c-10.5 10.4-11.2 26.9-2.2 38.1 16.5-9.7 30.7-23.9 40.4-40.3C176.8 138.8 160.3 139.6 149.8 150L149.8 150zM136.3 127.6c5 0 9 4 9 9 0 4.9-4 9-9 9 -5 0-9-4-9-9C127.3 131.6 131.4 127.6 136.3 127.6zM49.4 50c10.5-10.4 11.2-26.9 2.2-38.1C35.2 21.6 21 35.8 11.2 52.2 22.5 61.2 39 60.4 49.4 50L49.4 50zM61.4 53c5 0 9 4 9 9s-4 9-9 9 -9-4-9-9S56.5 53 61.4 53zM149.8 50c10.5 10.4 27 11.2 38.2 2.2 -9.7-16.4-24-30.6-40.4-40.3C138.6 23.1 139.3 39.6 149.8 50L149.8 50zM136.3 53c5 0 9 4 9 9s-4 9-9 9c-5 0-9-4-9-9S131.4 53 136.3 53zM49.4 150c-10.5-10.4-27-11.2-38.2-2.2 9.7 16.4 24 30.6 40.4 40.3C60.7 176.1 59.9 160.4 49.4 150L49.4 150zM61.4 127.6c5 0 9 4 9 9 0 4.9-4 9-9 9s-9-4-9-9C52.4 131.6 56.5 127.6 61.4 127.6z"/>
</svg>
