<svg
  xmlns="http://www.w3.org/2000/svg"
  class="ic-icon-svg ic-icon-svg--twitter"
  viewBox="0 0 21 18" version="1.1">
  <path d="M22 3C21.2 3.4 20.4 3.6 19.5 3.7 20.4 3.2 21.1 2.3 21.4 1.3 20.6 1.8 19.7 2.2 18.7 2.4 17.9 1.5 16.8 1 15.5 1 13.2 1 11.2 2.9 11.2 5.3 11.2 5.6 11.3 6 11.3 6.3 7.8 6.1 4.6 4.4 2.5 1.8 2.1 2.4 1.9 3.2 1.9 4 1.9 5.4 2.6 6.8 3.8 7.5 3.1 7.5 2.4 7.3 1.8 7 1.8 7 1.8 7 1.8 7.1 1.8 9.1 3.3 10.9 5.3 11.3 4.9 11.4 4.6 11.4 4.2 11.4 3.9 11.4 3.6 11.4 3.4 11.4 3.9 13.1 5.5 14.3 7.4 14.3 5.9 15.5 4 16.2 2 16.2 1.7 16.2 1.3 16.2 1 16.1 2.9 17.3 5.2 18.1 7.6 18.1 15.5 18.1 19.9 11.5 19.9 5.8 19.9 5.6 19.9 5.4 19.8 5.2 20.7 4.6 21.4 3.9 22 3L22 3Z"/></svg>
