<svg
  class="ic-icon-svg ic-icon-svg--clever"
  version="1.1"
  xmlns="http://www.w3.org/2000/svg" xmlns:xlink="http://www.w3.org/1999/xlink"
  viewBox="0 0 21 21">
<path d="M18,0H3C1.3,0,0,1.3,0,2.9v15c0,1.6,1.3,3,2.9,3h15c1.6,0,3-1.3,3-2.9V3C21,1.3,19.7,0,18,0z M11.3,16.2
	c1.8,0,3.4-0.9,4.2-2.5l3.2,1.6c-1.4,2.7-4.3,4.4-7.4,4.3c-4.8,0.2-8.9-3.6-9.1-8.4v-0.5c-0.1-4.8,3.7-8.8,8.5-9h0.5
	c3.1-0.1,5.9,1.5,7.4,4.2l-3.2,1.6C14.6,5.9,13,5,11.2,5c-3,0-5.3,2.5-5.3,5.4v0.3c-0.1,3,2.2,5.5,5.1,5.6
	C11,16.3,11.3,16.2,11.3,16.2z"/>
</svg>
