<svg xmlns="http://www.w3.org/2000/svg" class="ic-icon-svg ic-icon-svg--login" version="1.1" x="0" y="0" viewBox="241 -241 512 512" enable-background="new 241 -241 512 512" xml:space="preserve"><path d="M743.9 5.9l-35.7-35.7H492.9c-6.5-16.2-17.3-32-31.7-46.4 -50.4-50.4-132-50.4-182.4 0s-50.4 132.1 0 182.5 132 50.4 182.4 0c11.8-11.8 20.6-25.9 27-41.8H547L570.6 88l22.8-22.8L616.2 88 639 65.2 661.8 88l24.1-24.1 15.6-1.5 4.6-0.5L753 15 743.9 5.9 743.9 5.9zM694.4 37.1l-15.6 1.5 -4.6 0.5 -12.4 12.4 -12.9-12.9h-19.8l-12.9 12.9 -12.9-12.9h-19.8l-12.9 12.9 -12.9-12.9h-87.6l-2.9 8.8c-5.3 16-13.2 29.5-24.2 40.6 -40.3 40.3-105.6 40.3-145.9 0s-40.3-105.7 0-146 105.6-40.3 145.9 0c14.3 14.3 24.4 29.8 28.6 44.6l2.7 9.4h223.3l19 19L694.4 37.1 694.4 37.1zM322.3-16.2c-17.5 17.5-17.5 46 0 63.5 17.5 17.5 46 17.5 63.5 0 17.5-17.5 17.5-46 0-63.5C368.2-33.8 339.8-33.8 322.3-16.2L322.3-16.2zM367.6 29.1c-7.5 7.5-19.7 7.5-27.2 0 -7.5-7.5-7.5-19.7 0-27.2s19.7-7.5 27.2 0S375.2 21.6 367.6 29.1L367.6 29.1z"/></svg>
