<svg version="1.1" id="Layer_1" class="ic-icon-svg ic-icon-svg--dashboard" xmlns="http://www.w3.org/2000/svg" xmlns:xlink="http://www.w3.org/1999/xlink" x="0px" y="0px"
	 viewBox="0 0 1920 1920" style="enable-background:new 0 0 1920 1920;" xml:space="preserve">
	<path d="M282.5,442.5C470.8,254.2,696.7,160,960,160s489.2,94.2,677.5,282.5S1920,856.7,1920,1120c0,230-73.3,433.3-220,610l-20,30
		h-40H280h-40l-20-30C73.3,1553.3,0,1350,0,1120C0,856.7,94.2,630.8,282.5,442.5z M1525,555c-156.7-156.7-345-235-565-235
		s-408.3,78.3-565,235s-235,345-235,565c0,173.3,55,333.3,165,480h1270c110-146.7,165-306.7,165-480C1760,900,1681.7,711.7,1525,555
		z M262.5,1062.5c15-15,34.2-22.5,57.5-22.5s42.5,7.5,57.5,22.5s22.5,34.2,22.5,57.5s-7.5,42.5-22.5,57.5S343.3,1200,320,1200
		s-42.5-7.5-57.5-22.5S240,1143.3,240,1120S247.5,1077.5,262.5,1062.5z M347.5,742.5c15-15,34.2-22.5,57.5-22.5s42.5,7.5,57.5,22.5
		S485,776.7,485,800s-7.5,42.5-22.5,57.5S428.3,880,405,880s-42.5-7.5-57.5-22.5S325,823.3,325,800S332.5,757.5,347.5,742.5z
		 M347.5,1382.5c15-15,34.2-22.5,57.5-22.5s42.5,7.5,57.5,22.5s22.5,34.2,22.5,57.5s-7.5,42.5-22.5,57.5S428.3,1520,405,1520
		s-42.5-7.5-57.5-22.5S325,1463.3,325,1440S332.5,1397.5,347.5,1382.5z M582.5,507.5c15-15,34.2-22.5,57.5-22.5s42.5,7.5,57.5,22.5
		S720,541.7,720,565s-7.5,42.5-22.5,57.5S663.3,645,640,645s-42.5-7.5-57.5-22.5S560,588.3,560,565S567.5,522.5,582.5,507.5z
		 M1490,720l80,140l-450,260c0,46.7-15.8,85-47.5,115s-69.2,45-112.5,45s-80.8-15.8-112.5-47.5S800,1163.3,800,1120
		s15.8-80.8,47.5-112.5C879.2,975.8,916.7,960,960,960c26.7,0,53.3,6.7,80,20L1490,720z M902.5,422.5c15-15,34.2-22.5,57.5-22.5
		s42.5,7.5,57.5,22.5s22.5,34.2,22.5,57.5s-7.5,42.5-22.5,57.5S983.3,560,960,560s-42.5-7.5-57.5-22.5S880,503.3,880,480
		S887.5,437.5,902.5,422.5z M1222.5,507.5c15-15,34.2-22.5,57.5-22.5s42.5,7.5,57.5,22.5s22.5,34.2,22.5,57.5s-7.5,42.5-22.5,57.5
		S1303.3,645,1280,645s-42.5-7.5-57.5-22.5S1200,588.3,1200,565S1207.5,522.5,1222.5,507.5z M1457.5,1382.5
		c15-15,34.2-22.5,57.5-22.5s42.5,7.5,57.5,22.5s22.5,34.2,22.5,57.5s-7.5,42.5-22.5,57.5s-34.2,22.5-57.5,22.5s-42.5-7.5-57.5-22.5
		s-22.5-34.2-22.5-57.5S1442.5,1397.5,1457.5,1382.5z M1542.5,1062.5c15-15,34.2-22.5,57.5-22.5s42.5,7.5,57.5,22.5
		s22.5,34.2,22.5,57.5s-7.5,42.5-22.5,57.5s-34.2,22.5-57.5,22.5s-42.5-7.5-57.5-22.5s-22.5-34.2-22.5-57.5
		S1527.5,1077.5,1542.5,1062.5z"/>
</svg>
