<svg xmlns="http://www.w3.org/2000/svg" role="presentation" aria-hidden="true" class="ic-icon-svg ic-icon-svg--scim" width="22" height="21" viewBox="0 0 22 21" version="1.1"><g stroke="none" stroke-width="1" fill="none" fill-rule="evenodd"><g transform="translate(-32.000000, -76.000000)" fill="#000000"><g transform="translate(32.500000, 76.000000)"><path d="M16.2 14.3L16.2 14.8 15.7 14.3 16.2 14.3 16.2 14.3ZM16 17.9C15.6 19.3 14.3 20.4 12.7 20.4L3.5 20.4C1.6 20.4 0 18.8 0 16.9L0 3.5C0 1.6 1.6 0 3.5 0L12.7 0C14.6 0 16.2 1.6 16.2 3.5L16.2 4.1 14 6.3 14 4C14 3 13.2 2.2 12.2 2.2L3.9 2.2C3 2.2 2.2 3 2.2 4L2.2 16.5C2.2 17.5 3 18.2 3.9 18.2L12.2 18.2C13.2 18.2 14 17.5 14 16.5L14 15.9 16 17.9 16 17.9ZM14 9.9L14 9.9 16.4 9.9 15 8.5 16.7 6.8 21 11.1 21 11.1 21 11.1 16.7 15.4 15 13.7 16.3 12.3 14 12.3 14 12.3C13.6 12.3 11.9 12.4 10.9 13.5 9.7 14.8 9.9 16.5 9.9 16.5L7.1 16.5C7.1 16.5 7 13.4 8.8 11.5 10.5 9.9 13.4 9.9 14 9.9L14 9.9Z"/></g></g></g></svg>
