<svg xmlns="http://www.w3.org/2000/svg" class="ic-icon-svg ic-icon-svg--courses" version="1.1" x="0" y="0" viewBox="0 0 280 259" enable-background="new 0 0 280 259" xml:space="preserve"><path d="M73.31,198c-11.93,0-22.22,8-24,18.73a26.67,26.67,0,0,0-.3,3.63v.3a22,22,0,0,0,5.44,14.65,22.47,22.47,0,0,0,17.22,8H200V228.19h-134V213.08H200V198Zm21-105.74h90.64V62H94.3ZM79.19,107.34V46.92H200v60.42Zm7.55,30.21V122.45H192.49v15.11ZM71.65,16.71A22.72,22.72,0,0,0,49,39.36V190.88a41.12,41.12,0,0,1,24.32-8h157V16.71ZM33.88,39.36A37.78,37.78,0,0,1,71.65,1.6H245.36V198H215.15v45.32h22.66V258.4H71.65a37.85,37.85,0,0,1-37.76-37.76Z"/></svg>
