<svg xmlns="http://www.w3.org/2000/svg" version="1.1" class="ic-icon-svg menu-item__icon svg-icon-information" x="0" y="0" viewBox="0 0 200 200" enable-background="new 0 0 200 200" xml:space="preserve" fill="currentColor"><path d="M94.42,139h11.15V105.58H94.42ZM83.27,150.19V94.42h33.46v55.76ZM100,72.12A11.15,11.15,0,1,1,111.15,61,11.16,11.16,0,0,1,100,72.12Zm0-33.46A22.31,22.31,0,1,0,122.31,61,22.33,22.33,0,0,0,100,38.66M100,5.2A94.8,94.8,0,1,0,194.8,100,94.91,94.91,0,0,0,100,5.2m0,178.45A83.65,83.65,0,1,1,183.65,100,83.73,83.73,0,0,1,100,183.65"/></svg>
