<svg xmlns="http://www.w3.org/2000/svg" class="ic-icon-svg menu-item__icon svg-icon-cog" version="1.1" x="0" y="0" viewBox="0 0 200 200" enable-background="new 0 0 200 200" xml:space="preserve" fill="currentColor"><path d="M100,127.88A27.88,27.88,0,1,1,127.92,100,27.92,27.92,0,0,1,100,127.88M100,61a39,39,0,1,0,39,39,39.08,39.08,0,0,0-39-39m73.42,39a70.26,70.26,0,0,0-1.15-12.57l20.76-18-19.7-33.66-26.19,8.73a74.2,74.2,0,0,0-22.11-12.68L119.68,5.2H80.4L75,31.83A72.9,72.9,0,0,0,52.89,44.51L26.71,35.79,7,69.45l20.74,18a69.95,69.95,0,0,0,0,25.13L7,130.55l19.7,33.66,26.19-8.74A74.23,74.23,0,0,0,75,168.16l5.4,26.64h39.28l5.4-26.63a72.88,72.88,0,0,0,22.11-12.69l26.19,8.74,19.7-33.66-20.76-18A70.26,70.26,0,0,0,173.46,100Zm5.31,32.92-10.45,17.86-23.72-7.92-2.42,2.2a61.7,61.7,0,0,1-23.57,13.51l-3.17,1-4.88,24.1h-21l-4.88-24.11-3.17-1A61.7,61.7,0,0,1,57.91,145l-2.42-2.2-23.72,7.92L21.31,132.91l18.74-16.24-.74-3.26a59.25,59.25,0,0,1,0-26.83l.74-3.26L21.31,67.09,31.76,49.23l23.72,7.91,2.42-2.2A61.87,61.87,0,0,1,81.47,41.42l3.17-1,4.88-24.1h21l4.88,24.11,3.17,1A61.73,61.73,0,0,1,142.18,55l2.42,2.2,23.72-7.92,10.45,17.86L160,83.33l.74,3.26a59.25,59.25,0,0,1,0,26.83l-.74,3.26Z"/></svg>
