<svg version="1.1" class="ic-icon-svg ic-icon-svg--inbox" xmlns="http://www.w3.org/2000/svg" xmlns:xlink="http://www.w3.org/1999/xlink" x="0px" y="0px"
	 viewBox="0 0 1920 1920" style="enable-background:new 0 0 1920 1920;" xml:space="preserve">
	<path d="M185.2,0h76.4h1396.4h76.4l10.9,76.4l174.5,1134.5v5.5v5.5v610.9v87.3h-87.3H87H-0.3v-87.3v-610.9v-5.5v-5.5L174.3,76.4
		L185.2,0z M174.3,1309.1v436.4h1570.9v-436.4h-452.7c-21.8,76.4-62.7,139.1-122.7,188.2s-130,73.6-210,73.6s-150-24.5-210-73.6
		S648.8,1385.5,627,1309.1H174.3z M337.9,174.5l-147.3,960h507.3h87.3v87.3c0,47.3,17.3,88.2,51.8,122.7
		c34.5,34.5,75.5,51.8,122.7,51.8c47.3,0,88.2-17.3,122.7-51.8c34.5-34.5,51.8-75.5,51.8-122.7v-87.3h87.3h507.3l-147.3-960H337.9z"
		/>
</svg>
