<svg xmlns="http://www.w3.org/2000/svg" class="ic-icon-svg ic-icon-svg--calendar" version="1.1" x="0" y="0" viewBox="0 0 280 280" enable-background="new 0 0 280 280" xml:space="preserve"><path d="M197.07,213.38h16.31V197.07H197.07Zm-16.31,16.31V180.76h48.92v48.92Zm-48.92-16.31h16.31V197.07H131.85Zm-16.31,16.31V180.76h48.92v48.92ZM66.62,213.38H82.93V197.07H66.62ZM50.32,229.68V180.76H99.24v48.92Zm146.75-81.53h16.31V131.85H197.07Zm-16.31,16.31V115.54h48.92v48.92Zm-48.92-16.31h16.31V131.85H131.85Zm-16.31,16.31V115.54h48.92v48.92ZM66.62,148.15H82.93V131.85H66.62ZM50.32,164.46V115.54H99.24v48.92ZM34,262.29H246V82.93H34ZM246,66.62V42.16A8.17,8.17,0,0,0,237.84,34H213.38v8.15a8.15,8.15,0,1,1-16.31,0V34H82.93v8.15a8.15,8.15,0,0,1-16.31,0V34H42.16A8.17,8.17,0,0,0,34,42.16V66.62Zm-8.15-48.92a24.49,24.49,0,0,1,24.46,24.46V278.6H17.71V42.16A24.49,24.49,0,0,1,42.16,17.71H66.62V9.55a8.15,8.15,0,0,1,16.31,0v8.15H197.07V9.55a8.15,8.15,0,1,1,16.31,0v8.15Z"/></svg>
