<svg
  class="ic-icon-svg ic-icon-svg--github"
  version="1.1"
  xmlns="http://www.w3.org/2000/svg" xmlns:xlink="http://www.w3.org/1999/xlink" 
  x="0px" y="0px"
  viewBox="0 0 30 32">
<path d="M11.4,21.7c0,0.5-0.1,1-0.2,1.5s-0.4,1-0.8,1.4c-0.4,0.4-0.8,0.6-1.3,0.6c-0.5,0-0.9-0.2-1.3-0.6c-0.4-0.4-0.6-0.9-0.8-1.4
	c-0.1-0.5-0.2-1-0.2-1.5c0-0.5,0.1-1,0.2-1.5c0.1-0.5,0.4-1,0.8-1.4c0.4-0.4,0.8-0.6,1.3-0.6s0.9,0.2,1.3,0.6
	c0.4,0.4,0.6,0.9,0.8,1.4S11.4,21.2,11.4,21.7z M22.9,21.7c0,0.5-0.1,1-0.2,1.5s-0.4,1-0.8,1.4s-0.8,0.6-1.3,0.6
	c-0.5,0-0.9-0.2-1.3-0.6s-0.6-0.9-0.8-1.4s-0.2-1-0.2-1.5c0-0.5,0.1-1,0.2-1.5s0.4-1,0.8-1.4s0.8-0.6,1.3-0.6s0.9,0.2,1.3,0.6
	s0.6,0.9,0.8,1.4S22.9,21.2,22.9,21.7z M25.7,21.7c0-1.4-0.4-2.6-1.2-3.6c-0.8-1-1.9-1.5-3.3-1.5c-0.5,0-1.6,0.1-3.5,0.4
	c-0.8,0.1-1.8,0.2-2.8,0.2s-2-0.1-2.8-0.2c-1.8-0.2-3-0.4-3.5-0.4c-1.4,0-2.5,0.5-3.3,1.5S4,20.3,4,21.7c0,1,0.2,2,0.6,2.7
	C5,25.2,5.4,25.8,6,26.3c0.6,0.4,1.3,0.8,2.2,1.1c0.9,0.3,1.7,0.4,2.5,0.5c0.8,0.1,1.7,0.1,2.7,0.1h3c1,0,1.9,0,2.7-0.1
	c0.8-0.1,1.6-0.3,2.5-0.5c0.9-0.3,1.6-0.6,2.2-1.1s1.1-1.1,1.4-1.8C25.5,23.7,25.7,22.8,25.7,21.7z M29.7,18.6
	c0,2.5-0.4,4.4-1.1,5.9c-0.5,0.9-1.1,1.7-1.9,2.4c-0.8,0.7-1.6,1.2-2.5,1.5s-1.9,0.6-3,0.8c-1.1,0.2-2.2,0.3-3.1,0.4
	c-0.9,0.1-1.9,0.1-3,0.1c-0.9,0-1.8,0-2.5-0.1c-0.8,0-1.6-0.1-2.6-0.2s-1.9-0.3-2.7-0.5c-0.8-0.2-1.6-0.6-2.4-0.9
	c-0.8-0.4-1.5-0.9-2.2-1.4s-1.1-1.3-1.5-2.1C0.4,23,0,21,0,18.6c0-2.8,0.8-5.2,2.4-7.1c-0.3-1-0.5-2-0.5-3c0-1.4,0.3-2.7,0.9-3.9
	c1.3,0,2.4,0.2,3.4,0.7s2.1,1.2,3.4,2.2c1.8-0.4,3.6-0.6,5.5-0.6c1.8,0,3.4,0.2,5,0.6c1.2-1,2.4-1.7,3.3-2.2c1-0.5,2.1-0.7,3.4-0.7
	c0.6,1.2,0.9,2.5,0.9,3.9c0,1-0.2,2-0.5,3C28.9,13.4,29.7,15.7,29.7,18.6L29.7,18.6z"/>
</svg>
