<svg xmlns="http://www.w3.org/2000/svg" class="ic-icon-svg ic-icon-svg--calendar" version="1.1" x="0" y="0" viewBox="0 0 1920 1920" style="enable-background:new 0 0 1920 1920;" xml:space="preserve">
	<path d="M376-0.1h167v83.5h834.8V-0.1h167v83.5h250.4h83.5v83.5v1669.6v83.5h-83.5H125.6H42.1v-83.5V166.9V83.4h83.5H376V-0.1z
		 M209,250.3v167h1502.6v-167h-167v83.5h-167v-83.5H542.9v83.5H376v-83.5H209z M209,584.2v1168.7h1502.6V584.2H209z M376,1085.1h167
		v167H376V1085.1z M376,1419h167v167H376V1419z M709.9,751.2h167v167h-167V751.2z M709.9,1085.1h167v167h-167V1085.1z M709.9,1419
		h167v167h-167V1419z M1043.8,751.2h167v167h-167V751.2z M1043.8,1085.1h167v167h-167V1085.1z M1043.8,1419h167v167h-167V1419z
		 M1377.7,751.2h167v167h-167V751.2z M1377.7,1085.1h167v167h-167V1085.1z"/>
</svg>
