<svg version="1.1" class="ic-icon-svg ic-icon-svg--courses" xmlns="http://www.w3.org/2000/svg" xmlns:xlink="http://www.w3.org/1999/xlink" x="0px" y="0px"
	 viewBox="0 0 1920 1920" style="enable-background:new 0 0 1920 1920;" xml:space="preserve">
	<path d="M516.9,111.1c147.7,0,295.4,29.2,443.1,87.7c147.7-58.5,295.4-87.7,443.1-87.7c70.8,0,145.4,7.7,223.8,23.1
		s139.2,32.3,182.3,50.8l64.6,23.1l46.2,23.1v46.2V1625v110.8h-830.8c-30.8,49.2-73.8,73.8-129.2,73.8s-98.5-24.6-129.2-73.8H0V1625
		V277.3v-46.2l46.2-23.1C200,143.5,356.9,111.1,516.9,111.1z M516.9,258.8c-113.8,0-236.9,24.6-369.2,73.8v1190.8
		c129.2-43.1,252.3-64.6,369.2-64.6s240,21.5,369.2,64.6V332.7C747.7,283.5,624.6,258.8,516.9,258.8z M1403.1,258.8
		c-107.7,0-230.8,24.6-369.2,73.8v1190.8c129.2-43.1,252.3-64.6,369.2-64.6s240,21.5,369.2,64.6V332.7
		C1640,283.5,1516.9,258.8,1403.1,258.8z"/>
</svg>
