<svg xmlns="http://www.w3.org/2000/svg" class="ic-icon-svg menu-item__icon svg-icon-lifepreserver" version="1.1" x="0" y="0" viewBox="0 0 200 200" enable-background="new 0 0 200 200" xml:space="preserve" fill="currentColor"><path d="M189.95,70.33a11.82,11.82,0,0,0-6.24-7,10.92,10.92,0,0,0-2.32-.52,89,89,0,0,0-44-44.07,10.82,10.82,0,0,0-.56-2.43,11.77,11.77,0,0,0-7-6.29,93.75,93.75,0,0,0-59.5,0,11.71,11.71,0,0,0-7,6.23,10,10,0,0,0-.54,2.32,88.78,88.78,0,0,0-44.06,44,11.62,11.62,0,0,0-2.46.57,11.8,11.8,0,0,0-6.28,7,93.72,93.72,0,0,0,0,59.49,11.74,11.74,0,0,0,6.22,7,11.74,11.74,0,0,0,2.33.51,88.93,88.93,0,0,0,44,44.09,11.59,11.59,0,0,0,.57,2.44,11.8,11.8,0,0,0,7,6.28,93.75,93.75,0,0,0,59.49,0,9.84,9.84,0,0,0,7.51-8.55,88.88,88.88,0,0,0,44.08-44,11.62,11.62,0,0,0,2.45-.54,11.81,11.81,0,0,0,6.27-7A93.79,93.79,0,0,0,189.95,70.33ZM135.12,30a78,78,0,0,1,35,35l-24,9.89a51.74,51.74,0,0,0-20.94-21ZM119,136.8a11.28,11.28,0,0,0-9.37-1.75,36.37,36.37,0,0,1-19.49,0,11.11,11.11,0,0,0-9.31,1.72,40.94,40.94,0,0,1-17.66-17.72,11.22,11.22,0,0,0,1.74-9.39,36.34,36.34,0,0,1,0-19.51,11.13,11.13,0,0,0-1.72-9.3A40.94,40.94,0,0,1,80.81,63.28,11.2,11.2,0,0,0,90.33,65a36.37,36.37,0,0,1,19.49,0,11.15,11.15,0,0,0,9.31-1.72A41,41,0,0,1,136.79,81a11.12,11.12,0,0,0-1.74,9.37,36.37,36.37,0,0,1,0,19.49,11.07,11.07,0,0,0,1.73,9.32A41,41,0,0,1,119,136.8Zm7.3-116.17.38.56-13.88,33a48.8,48.8,0,0,0-13.08-1.76A53.23,53.23,0,0,0,87,54L73.84,20.64A82.58,82.58,0,0,1,126.33,20.63ZM65,29.88l9.9,24a51.93,51.93,0,0,0-21,20.95L30,64.88A77.94,77.94,0,0,1,65,29.88ZM21.18,73.28l33,13.88A50.72,50.72,0,0,0,54,113L20.64,126.15a82.66,82.66,0,0,1,0-52.49ZM64.87,170a77.79,77.79,0,0,1-35-35l24-9.88a52,52,0,0,0,20.94,21Zm8.8,9.39-.39-.56,13.89-33a50.56,50.56,0,0,0,25.8.2l13.18,33.37A82.55,82.55,0,0,1,73.67,179.37Zm61.3-9.26-9.88-24a51.94,51.94,0,0,0,21-20.94L170,135.13A77.78,77.78,0,0,1,135,170.11Zm43.86-43.39-33-13.88A50.83,50.83,0,0,0,146,87l33.37-13.18a82.66,82.66,0,0,1,0,52.49Z" /></svg>
