<svg width="36" height="36" class="ic-icon-svg ic-icon-svg--dashboard" viewBox="0 0 36 36" xmlns="http://www.w3.org/2000/svg"><title>Oval-95</title><path d="M21.87 16.98l7.276-7.276c.78-.78.777-2.044-.004-2.825a1.993 1.993 0 0 0-2.825-.005l-7.265 7.265A4.005 4.005 0 0 0 14 18a4 4 0 1 0 7.87-1.02zM18 36c9.94 0 18-8.06 18-18S27.94 0 18 0 0 8.06 0 18s8.06 18 18 18zM2 18a1 1 0 0 1 .99-1h4.02c.546 0 .99.444.99 1a1 1 0 0 1-.99 1H2.99A.993.993 0 0 1 2 18zM17 3.99c0-.546.444-.99 1-.99a1 1 0 0 1 1 .99v4.02c0 .546-.444.99-1 .99a1 1 0 0 1-1-.99V3.99zM6.7 8.116a.993.993 0 0 1 .007-1.408A1 1 0 0 1 8.115 6.7l2.84 2.842a.993.993 0 0 1-.005 1.408 1 1 0 0 1-1.408.006l-2.84-2.84zM28 18a1 1 0 0 1 .99-1h4.02c.546 0 .99.444.99 1a1 1 0 0 1-.99 1h-4.02a.993.993 0 0 1-.99-1zm-10 2a2 2 0 1 0 0-4 2 2 0 0 0 0 4z" fill="currentColor" fill-rule="evenodd"/></svg>
