<svg width="28" height="36" class="ic-icon-svg ic-icon-svg--dashboard" viewBox="0 0 28 36" xmlns="http://www.w3.org/2000/svg"><title>icon-grades</title><path d="M19 0H1.99A2 2 0 0 0 0 2v32c0 1.11.892 2 1.99 2h24.02A2 2 0 0 0 28 34V9h-7a2 2 0 0 1-2-2V0zm2 0v7h7l-7-7zM4 6c0-.552.456-1 1.002-1h9.996a1 1 0 0 1 0 2H5.002A1 1 0 0 1 4 6zm0 6c0-.552.455-1 .992-1h18.016c.548 0 .992.444.992 1 0 .552-.455 1-.992 1H4.992A.993.993 0 0 1 4 12zm0 6c0-.552.455-1 .992-1h18.016c.548 0 .992.444.992 1 0 .552-.455 1-.992 1H4.992A.993.993 0 0 1 4 18zm0 6c0-.552.455-1 .992-1h18.016c.548 0 .992.444.992 1 0 .552-.455 1-.992 1H4.992A.993.993 0 0 1 4 24zm0 6c0-.552.455-1 .992-1h18.016c.548 0 .992.444.992 1 0 .552-.455 1-.992 1H4.992A.993.993 0 0 1 4 30z" fill="currentColor" fill-rule="evenodd"/></svg>
