<svg width="36" height="37" class="ic-icon-svg ic-icon-svg--dashboard" viewBox="0 0 36 37" xmlns="http://www.w3.org/2000/svg"><title>icon-inbox</title><path d="M3 17.962V0h30v17.962l-9.2 6.016-3.288-2.17c-1.39-.915-3.636-.914-5.024 0L12.2 23.98 3 17.962zM0 35l16.34-10.893c.916-.61 2.41-.607 3.32 0L36 35v2H0v-2zm36-16v13l-10-6.5L36 19zM0 19v13l10-6.5L0 19zM8 6c0-.552.456-1 .995-1h8.01c.55 0 .995.444.995 1 0 .552-.456 1-.995 1h-8.01A.995.995 0 0 1 8 6zm0 5c0-.552.455-1 .992-1h18.016c.548 0 .992.444.992 1 0 .552-.455 1-.992 1H8.992A.993.993 0 0 1 8 11zm0 5c0-.552.455-1 .992-1h18.016c.548 0 .992.444.992 1 0 .552-.455 1-.992 1H8.992A.993.993 0 0 1 8 16z" fill="currentColor" fill-rule="evenodd"/></svg>
