<svg width="34" height="36" class="ic-icon-svg ic-icon-svg--dashboard" viewBox="0 0 34 36" xmlns="http://www.w3.org/2000/svg"><title>icon-courses</title><path d="M4 31v3c0 1.11.892 2 1.992 2h26.016A2 2 0 0 0 34 34V2c0-1.11-.892-2-1.992-2H5.992A2 2 0 0 0 4 2v3h1.01A2.993 2.993 0 0 1 8 8a3 3 0 0 1-2.99 3H4v4h1.01A2.993 2.993 0 0 1 8 18a3 3 0 0 1-2.99 3H4v4h1.01A2.993 2.993 0 0 1 8 28a3 3 0 0 1-2.99 3H4zm8-23h14v8H12V8zm2 2h10v4H14v-4zM0 8c0 .556.444 1 .99 1h4.02A1 1 0 0 0 6 8c0-.556-.444-1-.99-1H.99A1 1 0 0 0 0 8zm0 10c0 .556.444 1 .99 1h4.02A1 1 0 0 0 6 18c0-.556-.444-1-.99-1H.99A1 1 0 0 0 0 18zm0 10c0 .556.444 1 .99 1h4.02A1 1 0 0 0 6 28c0-.556-.444-1-.99-1H.99A1 1 0 0 0 0 28z" fill="currentColor" fill-rule="evenodd"/></svg>
