<svg width="36" height="34" class="ic-icon-svg ic-icon-svg--dashboard" viewBox="0 0 36 34" xmlns="http://www.w3.org/2000/svg"><title>icon-calendar</title><path d="M24 3H13v1.5C13 6.436 11.438 8 9.5 8 7.567 8 6 6.44 6 4.5V3H2a2 2 0 0 0-2 1.998V9h36V4.998C36 3.894 35.11 3 34 3h-3v1.5C31 6.436 29.438 8 27.5 8 25.567 8 24 6.44 24 4.5V3zM0 11h36v21c0 1.104-.89 2-2 2H2c-1.105 0-2-.902-2-2V11zm4 3h4v4H4v-4zm6 12h4v4h-4v-4zm-6-6h4v4H4v-4zm6-6h4v4h-4v-4zm6 12h4v4h-4v-4zm-6-6h4v4h-4v-4zm6-6h4v4h-4v-4zm6 12h4v4h-4v-4zm-6-6h4v4h-4v-4zm6-6h4v4h-4v-4zm6 12h4v4h-4v-4zm-6-6h4v4h-4v-4zm6 0h4v4h-4v-4zM8 1.5v3C8 5.336 8.672 6 9.5 6c.834 0 1.5-.67 1.5-1.5v-3C11 .664 10.328 0 9.5 0 8.666 0 8 .67 8 1.5zm18 0v3c0 .835.672 1.5 1.5 1.5.834 0 1.5-.67 1.5-1.5v-3c0-.835-.672-1.5-1.5-1.5-.834 0-1.5.67-1.5 1.5z" fill="currentColor" fill-rule="evenodd"/></svg>
