<svg id="Layer_1" data-name="Layer 1" xmlns="http://www.w3.org/2000/svg" viewBox="0 0 500 500"><path d="M159.545,185.172c-2.429-3.013-2.553-7.34-2.711-11.064-.909,3.013.334,5.889,1.238,8.708.6,2-1.455,2.3-2.71,1.188-3.674-2.989-4.482-9.081-2.123-13.12,1.355-2.644,4.218-3.935,6.312-5.838,1.062-.644,3.329-.549,3.375,1.068,0,.845-.717,1.32-1.35,1.737-.559.435-1.023.98-1.536,1.463.874,4,.264,8.208,1.191,12.229-.034,1.2,1.14,2.856-.074,3.708A1.243,1.243,0,0,1,159.545,185.172Z" style="fill:#fff"/><path d="M176.32,168.532a1.179,1.179,0,0,1-.834-1.262c.015-.215.031-.429.048-.644-1.974.261-1.542-2.5-1.554-3.755a.907.907,0,0,1-.28-.07,1.3,1.3,0,0,1-.2-.1.883.883,0,0,1-1.588-.33,8.523,8.523,0,0,1,.29-2.552c.266-.744.114-2.009,1.023-2.282a1.248,1.248,0,0,1,.335-.448,1.008,1.008,0,0,1,1.08-.127,1.341,1.341,0,0,1,2.444-.082c1.02-.655,2.161.368,2.089,1.458a1.4,1.4,0,0,1,1.059,1.483c1.168.059,1.283,1.358.961,2.233-.182.758-.233,1.787-1.164,1.969a2.352,2.352,0,0,1-1,1.126l0,0C178.687,166.47,178.106,168.882,176.32,168.532Z" style="fill:#fff"/><path d="M166.068,193.357c.369-2.971,2.592-5.174,4.49-7.305a70.807,70.807,0,0,1,9.661-8.915h0a5.142,5.142,0,0,1,5.071-2.773,1.925,1.925,0,0,1,1.152,2.979c-7.3,3.543-12.806,10.015-18.172,15.983A1.11,1.11,0,1,1,166.068,193.357Z" style="fill:#fff"/><path d="M170.847,211.181a19.083,19.083,0,0,1,1.813-7.7c1.429-2.873,2.093-6.1,4.045-8.731.621-.724,1.324-2.348,2.473-1.865,1,.8-.1,2.287-.444,3.217-2.345,4.193-3.475,8.877-5.007,13.393-.345.985-.265,2.628-1.533,2.865A1.2,1.2,0,0,1,170.847,211.181Z" style="fill:#fff"/><path d="M194.255,185.3a1.422,1.422,0,0,1-.5-.357,1.657,1.657,0,0,1-1.466-2.246c-1.364-1.123.316-2.365,1.26-3.038.637-1.118,1.733-3.248,3.283-2.364.762-.173,1.128.559.946,1.217,0-.022,0-.044,0-.066l-.009-.057a.737.737,0,0,1-.73.805.753.753,0,0,1-.226-.035c-.093.15-.184.3-.277.451l-.036.063c1.237-.351,2.012,1.13,1.484,2.144,1.223,1.11.139,3.529-1.542,2.735A2.052,2.052,0,0,1,194.255,185.3Z" style="fill:#fff"/><path d="M236.069,192.706c-1.194-.27-2.746.094-3.645-.877a1.487,1.487,0,0,1,.967-2.366,4.214,4.214,0,0,0,2.74-1.674,1.671,1.671,0,0,1-.991-.636,1.52,1.52,0,0,1-.5.046,1.352,1.352,0,0,1-2.454-.314c-.157-1.249-.016-2.535-.063-3.8a1.329,1.329,0,0,1,1.388-1.313c1.246-1.126,2.769.16,2.621,1.629a1.277,1.277,0,0,1,.349.149c.03.018.058.037.086.056a1.7,1.7,0,0,1,2.243-.574c1.713,1.205.635,3.682.091,5.268,1.509-.156,3.919-.5,3.828,1.752-.169,1.242-1.616,1.585-2.6,1.955A8.777,8.777,0,0,1,236.069,192.706Z" style="fill:#fff"/><path d="M230.984,200.283a1.459,1.459,0,0,1,.65-2.684c.237-.045.493.051.729,0,3.795-.285,6.928-2.7,9.994-4.732,2.42-1.81,3.872.885,1.986,2.81a11.557,11.557,0,0,1-8.511,4.188C234.3,200.314,232.53,200.923,230.984,200.283Z" style="fill:#fff"/><path d="M241.522,221.3a1.44,1.44,0,0,1-.795-.9c-3.264-.315-.37-4.355.119-6.055.5-1.349,1.377-2.595,1.6-4.019.232-1.283.306-3,1.567-3.7a8.019,8.019,0,0,0,.007-5.28c-.95,1.265-1.188,2.946-2.113,4.256a25.953,25.953,0,0,1-5.9,6.091c-1.75.595-2.546-1.544-1.3-2.669-.377-.66.437-1.562,1.124-1.354,2.3-3.058,5.581-6.169,6.348-9.864.2-1.087,1.574-2.386,2.441-1.115a5.16,5.16,0,0,1-.056,2.536c1.25.665,1.172,2.353,1.064,3.581-.121,1.318-.167,2.5-.349,3.782,1.584.752.643,2.139.244,3.3C244.958,211.98,244.754,222.456,241.522,221.3Z" style="fill:#fff"/><path d="M247.48,205.2a3.882,3.882,0,0,1-.13-.966h0c-1.922-.041-1.464-2.613-1.374-3.772a26.483,26.483,0,0,1,.442-4.159c-1.2-3.777-2.531-7.548-3.847-11.258a.917.917,0,0,1,.643-1.391,1.372,1.372,0,0,1,1.283.619,22.986,22.986,0,0,1,3.428,6.75,30.643,30.643,0,0,1,2.784,13.744l-.008,0A1.644,1.644,0,0,1,247.48,205.2Z" style="fill:#fff"/><path d="M268.237,175.847a1.751,1.751,0,0,1-1.912-1.587,1.719,1.719,0,0,1-1.479-1.93,1.441,1.441,0,0,1-.914-.79l-.015-.035c-.036.008-.073.014-.112.019a1.2,1.2,0,0,1-1.087-.448,1.549,1.549,0,0,1-.244.2,1.306,1.306,0,0,1-1.79-.509,1.244,1.244,0,0,1-1.352-1.444c-.932-.688.374-2.828,1.394-2.275a1.691,1.691,0,0,1,.333-.5,1.263,1.263,0,0,1,1.728-.044,1.43,1.43,0,0,1,2.313.424,1.347,1.347,0,0,1,1.4.186,2.388,2.388,0,0,1,.313.306,1.724,1.724,0,0,1,1.953,1.194,2.8,2.8,0,0,1,.107.74,1.833,1.833,0,0,1,.9.475,2.257,2.257,0,0,1,.665,1.78,2.394,2.394,0,0,1,.6,2.21,1.533,1.533,0,0,1-.164,1.566A1.937,1.937,0,0,1,268.237,175.847Z" style="fill:#fff"/><path d="M265.469,207.309c-1.851-.145-2.671-2.716-.607-3.27a2.977,2.977,0,0,0,2.039-.882c1.826-1.228,4-3.018,3.849-5.411-.314,2.047-2.673,2.881-3.445.668-1.207-1.252-.172-3.226.06-4.707.475-1.281.591-3,1.786-3.825.235-1.168,1.257-2.42,2.554-1.868.016-.043.033-.085.05-.127s.031-.073.047-.109c-.018-.061-.036-.123-.055-.184-1.135.433-1.894-.739-2.041-1.725a1.747,1.747,0,0,1,.787-2.417c.695-1.716,3.191-.382,2.736,1.172a5.092,5.092,0,0,1,1.405,1.794,7.071,7.071,0,0,1,.508,1.48c3.409,1.5,2.876,9.741.7,12.28-.969,1.622-2.679,2.459-3.919,3.787C270.183,205.639,268.135,207.892,265.469,207.309Z" style="fill:#fff"/><path d="M498.779,210.067c.613,3.053,1.479,6.2.529,9.264-2.182,6.033-3.651,12.017-6.962,17.506-1.971,3.6-4.258,7.342-8.029,9.275a104.7,104.7,0,0,1-12.926,5.879,30.065,30.065,0,0,1-17.452,3.972c-6.433-.787-14.256-5.124-17.462-10.9a17.669,17.669,0,0,0-1.443-2.593,47.762,47.762,0,0,1-8.255,2c-2.108-.221-3.476,1.643-4,3.45-1.833,5.245-3.708,10.511-5.969,15.587-1.247,2.282-2.631,4.184-3.8,6.471-9.064,19.089-24.425,34.582-40.017,48.479a100.623,100.623,0,0,1-13.708,11.066c-.781.407-1.695,1.4-2.6,1.955a49.072,49.072,0,0,1-5.1,3.6,15.6,15.6,0,0,1-6.153,2.049c-1.321,3.888-2.272,8.251-5.9,10.76-4.823,4.025-10.839,6.254-16.354,9.069a78.024,78.024,0,0,1-8.921,3.2c-2,.375-3.988,1.094-5.943.206-8.2-5.224-11.594-15.18-15.423-23.685-2.055-4.077-5.885-18.043-1.691-21.133a.751.751,0,0,1,1.178.47.731.731,0,0,1,.27.195c7.706-1.8,15.117-4.6,22.618-7.094,5.858-2.414,11.6-5.134,17.23-7.9a2.891,2.891,0,0,1,3.7.254,6.885,6.885,0,0,1,2.313,4.764,13.532,13.532,0,0,0,2.235-1.3,67.552,67.552,0,0,0,8.446-5.927,132.7,132.7,0,0,0,15.577-15.587c7.263-8.351,15.149-16.19,22.026-24.858,6.439-8.789,11.3-18.514,16.227-28.18,2.9-5.451,4.358-11.647,8.689-16.211a21.342,21.342,0,0,1,3.735-3.417.942.942,0,0,1,.38-1.168c1.146-1.12,2.615-1.959,3.793-2.979-.846-2.034.248-4.294-.307-6.418-.111-6.359,2.5-12.376,4.617-18.25,3.671-8.018,13.031-14,21.134-16.871a27.657,27.657,0,0,1,15.529.545c3.771.713,7.289,1.357,10.723,3.01,3.914,1.659,6.333,5.05,9.206,7.976,3.825,4.738,8.341,9.006,11.368,14.325A87.444,87.444,0,0,1,498.779,210.067Z" style="fill:#fff"/><path d="M345.862,132.947a6.151,6.151,0,0,1-1.009,3.592c-5.071,8.467-11.41,16.37-19.814,21.731-1.267.713-4.949,3.555-7.537,4.358a.838.838,0,0,1-.069.2c1.025,4.12,1.775,8.261,3.333,12.212,1.088,4.733,1.754,9.593,2.551,14.357.338,9.175,1.347,18.3.18,27.4a1.232,1.232,0,0,1-.534.872c-.316,5.641-1.13,15.936-2.614,21.762,1.7,3.312-3.344,14.5-3.967,17.177a10.694,10.694,0,0,1-3.713,4.8c-.613,2.229.972,4.674.264,7-.492,2.34-1.923,4.357-3.259,6.28a14.6,14.6,0,0,1-2.737,4.189c-2.017,2.551-4.273,4.949-6.359,7.4-2.282,2.219-5.789,2.541-8.716,1.654-13.622-.7-24.826-11.478-30.055-23.59a1.039,1.039,0,0,1-.407-.375,1.056,1.056,0,0,1-.121-.935.889.889,0,0,1,.591-1,.751.751,0,0,1,.687.069c4.585-2.525,8.156-6.3,11.869-9.925,2.979-2.615,6-5.224,8.24-8.542a23.159,23.159,0,0,1,2.726-3.227c1.584-1.114,3.56-1.579,5.361-2.277.766-.353.967-1.251,1.188-1.991,1.178-4.69,2.288-9.328,3.73-13.886-.006-2.335.961-5.668,1.072-7.036,1.416-8.1,2.921-16.317,2.905-24.557-.37-8.33-1.014-16.475-1.5-24.747-.554-6.338-1.341-12.8.518-18.963a1.415,1.415,0,0,1,1.606-1.061A108.275,108.275,0,0,1,305.332,135c-4.712-3.2-9.376-6.476-14.357-9.265-4.511-2.715-9.249-5.066-13.5-8.192-2.7-1.96-5.879-4.887-4.363-8.515.433-1.965.66-4.073,1.8-5.784a14.271,14.271,0,0,0,2.392-4.7c.148-.813.407-1.648,1.12-1.749a5.636,5.636,0,0,1,1.168-2.477c-3.09-3.375.269-4.954,2.63-6.946,3.217-3.058,6.333-6.185,9.587-9.207.682-.713,1.854-1.537,2.758-1.119.058-.048.11-.1.163-.143.713-2.007.94-4.31,2.557-5.879,4.4-3.909,10.379-5.525,16.179-5.515a16.893,16.893,0,0,1,10.031-3.222,7.168,7.168,0,0,1,4.944,5.4c.47,2.266-.122,4.96.01,7.168a65.458,65.458,0,0,0,1.279,9.312c.818,7.469.792,15.012,2.065,22.444.042,1.489,1.125,5.794,1.315,9.09a6.6,6.6,0,0,1,2.837-.745c1.621,0,2.937.914,2.884,3.36,2.672-.528,4.452,2.551,3.433,4.854,3.428-.121,1.991,4.891,2.488,7.01C345.185,131.088,345.909,131.87,345.862,132.947Z" style="fill:#fff"/><path d="M286.712,343.356c.877,4.738,5.557,9.011,3.37,13.776a26.25,26.25,0,0,1-8.129,10.062,6.518,6.518,0,0,1-1.072.808c1.537,13.94,3.037,27.975,1.822,41.983-.533,4.146-.761,8.266-1.785,12.244a8.113,8.113,0,0,1-2.583,4.838,3.045,3.045,0,0,1-1.411.761c-5.408,4.305-15.962,4.231-21.984,5.234a132.1,132.1,0,0,1-23.828.84c-.1.919-1.188,1.02-1.928,1.136-2.313.29-4.653.216-6.961.57,3.972.227,7.907.867,11.869,1.152a13.591,13.591,0,0,1,5.3.586c1.706.713,1.146,2.937-.164,3.761-1.463,1.352-3.534,1.495-5.43,1.5-9.461-.359-18.794-1.41-28.18-2.313a2.808,2.808,0,0,1-2.3.348c-8.251-.6-16.686-.861-24.9-1.415a72.071,72.071,0,0,1-12.735-1.284.929.929,0,0,1-.676-.687c-1.7-.174-3.407-.306-5.119-.427a1.066,1.066,0,0,1-.723-.37,12.211,12.211,0,0,1-2.81-.085c-1.76-.3-3.529-.512-5.3-.713-1.442.518-4.347-.2-5.493,0-9.487.238-18.646.893-28.085.618-12.218-.375-24.52-.031-36.658-1.421-6.275-.422-12.6.587-18.863.106a33.461,33.461,0,0,1-6.381-1.569,1.47,1.47,0,0,1-2.112-.058c-5.024-9.645-8.378-20.193-13.407-29.881-6.919-12.629-13.511-25.439-19.211-38.665-2.134-6.381-5.488-12.788-4.357-19.708a.978.978,0,1,1,1.954.006,8.807,8.807,0,0,0,1.368-.322c18.6-2.161,37.408-2.1,56.123-2.631,15.915.069,31.745,3.877,47.634,3.1a1.235,1.235,0,0,1,.428-.106c.618-.206,1.437.084,1.944,1.183,3.322,5.2,5.583,10.992,8.641,16.348,1.6,3.307,2.287,6.978,3.761,10.337q1.712-5.324,2.979-10.764c-.248-2.267.861-6.128.655-7.543-1.384-4.1-4.167-8-4.468-12.44.48-4.944,4.743-8.837,6.005-13.538,2.42-6.714,3.936-13.739,6.819-20.283a76.425,76.425,0,0,1,7.887-13.8.886.886,0,0,1,.422-.8,2.329,2.329,0,0,0,.359-.285c.7-.972,1.432-1.934,2.171-2.89a.943.943,0,0,1,.957-.333A46.179,46.179,0,0,1,168,287.133c5.679-2.842,12.361-3.2,18.467-4.136,3.8-.333,7.632-.761,11.05-2.435-.518-2.541.782-5.446.37-8.04-5.827.228-10.443-3.951-14.5-7.616-.354-.676-1.03-1.184-1.2-1.949a.664.664,0,0,1,.375-.756c-4.263-7.432-3.132-16.079-4.49-24.387-.75-4.1-2.023-8.341-2.768-12.413-.771-2.943-1.943-6.165-1.595-9.213.317-1.621.3-4.489,2.213-4.97a1.35,1.35,0,0,1,1.432,1.03,7.88,7.88,0,0,1-.491,2.4,15.085,15.085,0,0,0,8.694,4.067.146.146,0,0,1,.032-.026v-.005c-3.7-3.735-3.127-9.587-2.52-14.394a12.78,12.78,0,0,1,1.342-3.661c.053-.866.423-1.584,1.489-1.246a1.055,1.055,0,0,1,.5.528c.534.438.47,1.421.349,1.96a8.988,8.988,0,0,1-.169,1.22,20.819,20.819,0,0,0,11.531,16.089,20.583,20.583,0,0,0,12.106,1.632,1.314,1.314,0,0,1,1.131-1.875c.227.027.454.053.676.074-5.81-2.234-10.158-7.088-13.734-12.138-1.516-2.229-4.384-4.347-4.278-7.237-.359-.919-1.728-2.239-.55-3.047,1.464-.671,1.8,1.494,2.446,2.355,3.412,1.284,5.536,4.538,8.446,6.587,4.073,2.065,7.828,4.791,12.043,6.587,1.754.872,3.819,1.442,5.541,2.277a.9.9,0,0,1-.264,1.706c-1.833,4.083-11.552-3.856-13.654-5.626-1.527-1.241-3-2.567-4.638-3.65a.9.9,0,0,1-.2-.454c-2.024-1.743-3.83-3.814-6.059-5.261,3.623,6.18,8.684,11.911,15.181,15.028a42.892,42.892,0,0,0,4.542,1.2,1,1,0,0,1,.6,1.056,1.236,1.236,0,0,1-.032.19,3.841,3.841,0,0,1,.491-.021,1.59,1.59,0,0,1,1.5.74,19.048,19.048,0,0,1,2.81.4c5.969,2.308,5.985,9.809,7.517,15.075,2.271-5.335,7.178-16.48,11.826-6.085a15.162,15.162,0,0,1,1.089,10.332c.074,4.22-1.4,9.038-5.557,10.86-.623,1.68-2.129,3.534-4.057,3.518a1.562,1.562,0,0,1-.512-.063c-.55,1.468-1.109,2.936-1.59,4.436-1.854,3.872-1.463,8.267-1.822,12.461.132,3.713.343,7.649,2.324,10.886,3.861,3.27,9.122,3.487,13.918,3.973,4.11.861,8.288.956,12.006,2.863h.006a36.087,36.087,0,0,1,5.958,1.368c1.981.94,3.766,2.271,5.742,3.248,6.5,5.34,9.09,13.554,11.076,21.44C282.655,323.643,284.087,333.8,286.712,343.356Zm-58.721,73.987c2.768-1.854,5.546-3.793,8.271-5.668-12.851-.106-25.75-.291-38.628-.248-7.183-.719-15.191,1.288-22.026-1.067-.787.1-.771-.581-1.432-1.4a1.763,1.763,0,0,1-.079-1.336c-.021-.159-.037-.317-.053-.471-.475-4.363-.253-8.773-.7-13.1-.259-8.489-4.31-16.01-6.634-23.971-.661,6.017-2.1,11.9-2.853,17.9-1.172,6.989-2.023,14.1-4.289,20.838a15.67,15.67,0,0,1-4,7.184,17.109,17.109,0,0,1,.612,2.007c.883,3.534,2.034,7.131,2.943,10.591a28.263,28.263,0,0,1,.776,4.616c2.023-.343,3.983-1.14,5.979-1.595,7.052-2.3,14.114-4.621,21.346-6.254a120.99,120.99,0,0,1,13.622-.412,59.042,59.042,0,0,0,17.679-4.12A77.016,77.016,0,0,0,227.991,417.343Z" style="fill:#fff"/><path d="M161.283,248.415c.66.2.95,1.347.665,2.2-5.937,13.448-20.262,16.945-33.779,16.433-2-.19-4.553-.016-5.858-1.823a50.949,50.949,0,0,1-4.321-9.132c-2.118-7.131-8.187-15.4-5.625-22.925a4.526,4.526,0,0,1,1.114-1.611c-5.947-14.161-10.944-28.882-13.284-44.079-1.595-13.438-3.576-26.913-3.18-40.435-5.969-3-10.089-9.159-11.425-15.667-1.067-4.791-1.981-10.031.068-14.636a26.112,26.112,0,0,1,.861-3.5,6.085,6.085,0,0,1,2.631-4.769,3.219,3.219,0,0,1,.681-.291,11.878,11.878,0,0,1,1.511-2.731,5.744,5.744,0,0,1,7.316-1.663c2.408,1.325,1.653,5.017,1.3,7.231a25.1,25.1,0,0,0-.285,6.708,20.835,20.835,0,0,1,1.077-4.067c-.058-.724-.089-1.632.6-1.907a.867.867,0,0,1,.566-1.469c1.706-1.943,1.753-4.959,1.484-7.347-.359-1.32-.872-2.44-1.252-3.734-1.648-7.295-4.939-15.477-1.13-22.6a15.518,15.518,0,0,1,5.472-5.889c3.951-1.722,8.779-2.731,12.878-.93,4.986,2.493,9.18,6.138,11.552,11.256,2.266,4.031,1.584,9.138.311,13.391-1.748,3.148-3.3,6.6-5.884,9.153a83.04,83.04,0,0,1-7.358,6.593c-1.532,1.426-3.412,3.106-3.074,5.414.19.19.37.38.549.565a.827.827,0,0,1,.618.544s0-.01,0-.016a.056.056,0,0,1-.01-.026l.047.079c1.062-.967,1.511-2.794,3.344-2.049,2.7,1.595,2.488,5.5,1.21,7.981a15.632,15.632,0,0,1-.745,1.748,1.258,1.258,0,0,1,.406.623c-2.334,4.575-4.664,8.093-6.423,13.158-1.785,5.879.27,11.695,1.258,17.437,2.039,9.882,5.213,19.628,8.345,29.194,2.5,7.612,6.006,14.732,8.848,22.2,1.7,4.606,4.252,8.953,5.916,13.559,2.134-1.284,4.168-1.632,5.081,1.331a93.736,93.736,0,0,0,6.445,13.522,58.431,58.431,0,0,0,8.615,10.575C159.011,246.793,160.485,247.533,161.283,248.415Zm-45.226-129.1a1,1,0,0,1-.528-.095,2.651,2.651,0,0,1-.745-.433,7.018,7.018,0,0,1-5.847,2.43,8.478,8.478,0,0,1-7.195-4.416c-.549,4.326-.3,9.5,4.031,11.23,3.84.613,6.909-2.139,9.1-4.939C115.318,121.855,115.508,120.529,116.057,119.319Z" style="fill:#fff"/><path d="M146.324,289.446c1.69,7.8-3.133,15.023-5.457,22.212a41.331,41.331,0,0,1-6.312,8.937c-2.419,2.921-5.789,6.328-9.92,4.727-10.8-3.269-21.73-7.315-30.916-14.018a2.049,2.049,0,0,0-.333-.249h0a1.387,1.387,0,0,1-1.548-.839c-.364-2.245-.3-4.575-.9-6.8-2.7-2.435-6.328-3.518-9.228-5.683-4.426-3.3-8.171-7.406-12.392-10.95-5.477-4.849-10.194-10.475-15.086-15.862-4.817-5.267-10.146-10.094-14.451-15.81-6.4-9.149-10.929-19.317-15.456-29.453a1.085,1.085,0,0,1-1.083-.782c-.459-2.963-3.111-3.639-5.483-4.658-1.463-.508-2.736-1.485-4.241-1.86l-.946-.1a18.323,18.323,0,0,1-3.185-.327c.349,1.357-.1,3.517-.111,4.606a20.624,20.624,0,0,1-.639,2.984,1.658,1.658,0,0,1-2.842.058c-.8-1.384-.1-2.889.037-4.331a3.329,3.329,0,0,1,.608-3.856c-.9-.18-1.9-1.115-1.77-1.9a11.221,11.221,0,0,1-3.37-11.965,5.389,5.389,0,0,1,.132-2.894c.634-.925,1.421-1.749,2.045-2.7-1.585-1.152.385-3.328,1.2-4.421a2.26,2.26,0,0,1,.428-.275,6.21,6.21,0,0,0,.28-.634c-.032-1.289-1.273-2.361-.967-3.687.629-2.086,4.078-2,7.48-1.241.015-.09.037-.174.058-.264a1.016,1.016,0,0,1-.523-.835c-.122-5.62,2.271-11.114,3.681-16.348a72.259,72.259,0,0,1,2.42-8.457v-.01c-.249-3.011-1.707-5.552-2.916-8.277-2.044-5.193-3.2-11.41,1.775-15.345,2.26-2.53,5.218-4.2,7.912-6.191a1.526,1.526,0,0,1,2,.3c5.393,6.381,4.86,16.079-.444,22.343-1.008,2.108-2.63,4.5-4.949,5.129a2.16,2.16,0,0,1,.148,1.881c-1.088,5.689-2.567,11.335-3.138,17.13-.343,2.858-.412,7.49-2.45,9.967a18.637,18.637,0,0,1,3.179,1.379c4.622,2.245,8.663,5.879,10.543,10.744,1.59,3.465,2.826,7.057,4.406,10.5a13.276,13.276,0,0,1,.634,1.584.527.527,0,0,1,.021.085c.671,1.024,1.352,2.039,2.033,3.048,4.115,5.5,8.087,11.108,12.281,16.538,5.108,6.28,11.172,11.684,16.687,17.579,3.259,3.174,6.613,6.259,9.83,9.476a67.066,67.066,0,0,0,7.278,5.176,63.065,63.065,0,0,0,12.894,8.357,17.75,17.75,0,0,0,2.594.993,5.014,5.014,0,0,1,2.651-2.224c4.015-1.262,7.992-.206,11.684,1.5a60.218,60.218,0,0,1,11.949,5.631c5.107,2.53,10.178,5.219,15.735,6.639,1.474.381,2.91.883,4.4,1.194a1.478,1.478,0,0,1,1.152.555A9.334,9.334,0,0,1,146.324,289.446Z" style="fill:#fff"/><path d="M198.914,412.928c-3.423-.274-6.851-.227-10.274-.174a102.082,102.082,0,0,1-11.092-.243c.1-.57.195-1.141.291-1.706.216-1.257.412-2.509.6-3.772.364-2.377.76-4.743,1.04-7.136a24.091,24.091,0,0,0,.106-4.056,33.454,33.454,0,0,0-.365-3.84v.015a.552.552,0,0,0-.015-.089.038.038,0,0,0-.006-.022c-.285-1.637-.665-3.248-.987-4.88-.328-1.653-.65-3.3-1.089-4.923.016.069.037.137.053.2a51.933,51.933,0,0,0-1.9-5.73c-.7-1.744-1.463-3.45-2.171-5.193-.063-.179-.127-.354-.19-.533v0a.02.02,0,0,0,0-.016.748.748,0,0,1-.032-.095c-.021-.048-.037-.1-.058-.148v0a.016.016,0,0,0-.006-.011l.006,0a.014.014,0,0,0-.006-.01c-.628-2.182-1.067-4.4-1.51-6.624-.1-.623-.19-1.241-.248-1.875-.064-.671-.085-1.336-.106-2.007v-1.046a58.23,58.23,0,0,1,.3-6.133c.238-2.06.581-4.1.887-6.143.328-2.218.682-4.431.972-6.65.143-1.13.286-2.255.407-3.391.132-1.183.185-2.382.264-3.581.127-1.085.263-2.165.421-3.25l0,.006a.185.185,0,0,0,.011-.037v0c.021-.1.042-.19.063-.295a1.519,1.519,0,1,0-2.968-.613c-.085.655-.238,1.3-.365,1.944.011-.064.027-.127.037-.2-.871,3.47-2.044,6.846-3,10.3-.951,3.433-1.907,6.877-2.541,10.39.006-.037.011-.069.016-.106-.026.127-.047.259-.068.386.021-.095.037-.19.052-.28a54.31,54.31,0,0,0-.787,10.305c0-.074,0-.147-.01-.227,0,.08,0,.153.01.227v.153a34.49,34.49,0,0,0,.777,5.5c.19.92.37,1.839.581,2.747a31.471,31.471,0,0,1-1.035-3.518,53.918,53.918,0,0,1-1.585-6.138,15.544,15.544,0,0,1-2.488.037c-.47-.015-.924-.037-1.326-.026-5.43-.518-10.929-1.991-15-5.821a21.294,21.294,0,0,1-3.935-3.381c1.373-2.16,2.578-4.437,3.835-6.676.671-1.2,1.352-2.4,2.012-3.608a27.734,27.734,0,0,0,1.754-4.289c.5-1.416,1.009-2.826,1.432-4.268.39-1.331.76-2.662,1.156-3.993.793-2.678,1.791-5.3,2.689-7.945-.021.074-.042.138-.064.207-.01.021-.015.047-.026.068.011-.021.016-.047.026-.068.539-1.6,1.068-3.185,1.522-4.807.422-1.5.808-3,1.215-4.5.538-1.854,1.067-3.718,1.727-5.53a56.37,56.37,0,0,1,2.371-5.541,40.609,40.609,0,0,1,2.425-3.819,23.417,23.417,0,0,1,1.595-1.849,37.979,37.979,0,0,1,2.942-2.493c.365-.253.729-.5,1.1-.729.481-.253.967-.491,1.474-.7.988-.386,1.991-.745,2.979-1.141,1.141-.444,2.287-.9,3.471-1.236a62.654,62.654,0,0,1,6.338-1.014c1.532-.164,3.064-.328,4.59-.576a19.866,19.866,0,0,0,3.883-1.094c1.389-.528,2.773-1.056,4.157-1.595,1.077-.422,2.144-.882,3.232-1.289,2.229,3.207,6.011,5.119,9.281,7.084,7.749,2.033,16.544-.919,22.042-6.661.7.549,1.437,1.067,2.155,1.6.9.66,1.8,1.31,2.737,1.923a44.4,44.4,0,0,0,7.183,3.7c2.589,1.088,5.14,2.224,7.813,3.069,1.2.381,2.435.7,3.644,1.051,1.368.4,2.731.787,4.115,1.125,1.278.307,2.562.566,3.835.877,1.157.28,2.276.692,3.391,1.083.444.169.887.338,1.326.539.216.122.428.243.634.375.142.1.28.206.417.317.217.206.423.412.623.628.2.243.391.492.576.745a52.7,52.7,0,0,1,3,5.431c-.008-.016-.019-.031-.029-.048,1.384,3.016,2.625,6.064,3.708,9.191.771,2.525,1.474,5.076,2.245,7.606.771,2.509,1.5,5.007,2.113,7.559,0,.031.015.058.021.084a.44.44,0,0,0,.021.085c.37,1.722.739,3.444,1.041,5.176.48,2.757.987,5.5,1.605,8.23q.936,4.135,2.008,8.24c.7,2.641,1.288,5.3,2,7.939.2.755.418,1.511.661,2.255-7.189,7.115-17.933,9.176-27.726,9.08a2.619,2.619,0,0,1-.3-.063c-.278,3.679-.655,7.357-.914,11.04q.054-2.513.01-5.029c-.042-2.435-.227-4.865-.227-7.305v-.079c0,.048,0,.1,0,.144,0-.286.009-.569.013-.852v-.011c.037-2.2.095-4.394.174-6.6.069-2,.021-4.015.09-6.017.042-1.135.106-2.265.1-3.4-.01-1.067-.079-2.139-.068-3.212.015-1.965.074-3.94.195-5.91.011-.117.021-.228.037-.344a1.829,1.829,0,0,0-1.183-2.451,1.793,1.793,0,0,0-2.213,1.347v-.042a32.656,32.656,0,0,0-.893,4.294,43.28,43.28,0,0,0-.607,5.209c-.111,1.774-.233,3.549-.338,5.324-.1,1.616-.138,3.243-.238,4.86-.291,3.924-.444,7.854-.391,11.789,0,.116,0,.233,0,.349,0-.035,0-.07,0-.105v0c.01,1.757,0,3.514-.058,5.266-.111,2.894-.354,5.778-.523,8.668-.153,2.688-.211,5.382-.238,8.076-.026,2.6-.063,5.213.09,7.812.01.183.018.366.026.549a18.393,18.393,0,0,0-3.5,1.553c-6.989,5.225-15.836,5.7-24.256,5.425a82.127,82.127,0,0,0-12.371.814,93.808,93.808,0,0,1-10.876.845C199.949,412.955,199.432,412.944,198.914,412.928Z" style="fill:#fcb8a3"/><path d="M257.5,369.788c0-.04,0-.079,0-.12,0,.063,0,.122,0,.185Z" style="fill:#fcb8a3"/><path d="M170.128,290.56c-.063.026-.121.053-.184.079C170,290.613,170.065,290.586,170.128,290.56Z" style="fill:#fcb8a3"/><path d="M172.755,370.391a.151.151,0,0,1,.021.047c.015.048.033.1.048.143h0l0,.006C172.8,370.522,172.78,370.457,172.755,370.391Z" style="fill:#fcb8a3"/><path d="M279.3,329.927c-.009-.044-.018-.089-.028-.135.016.068.032.137.046.208Z" style="fill:#fcb8a3"/><path d="M258.994,288.386l-1.2-.487c.8.16,1.577.328,2.33.513Q259.561,288.4,258.994,288.386Z" style="fill:#fcb8a3"/><path d="M292.489,289.122c-8.625-1.167-17-4.9-22.972-11.293a29.83,29.83,0,0,1-6.359-8.187,16.282,16.282,0,0,1-1.447-2.937,30.27,30.27,0,0,0,2.952-1.627c1.183-.755,2.266-1.653,3.4-2.488a66.664,66.664,0,0,0,6.106-4.743c2.039-1.9,3.993-3.883,5.979-5.837s3.93-3.972,5.879-5.979c0,0,0,0-.01,0,.712-.712,1.432-1.419,2.128-2.15,1.079.91,2.082,1.907,3.111,2.874,1.009.935,2.061,1.817,3.048,2.773a52.961,52.961,0,0,1,3.835,4.4c.713,1,1.331,2.065,2.076,3.047.829,1.089,1.717,2.134,2.567,3.212,1.379,1.959,2.689,3.956,3.962,5.985.713,1.257,1.405,2.514,2.07,3.8.616,1.383,1.191,2.789,1.782,4.187-.511.651-1.092,1.327-1.75,2.035-2.039,1.526-7.3,8.757-10.987,11.483a1.64,1.64,0,0,1-.063.211c-.655,1.115-1.949,1.358-3.249,1.358C293.826,289.244,293.1,289.17,292.489,289.122Z" style="fill:#fcb8a3"/><path d="M302.9,260.329c.043.053.085.111.127.164C302.98,260.44,302.938,260.388,302.9,260.329Z" style="fill:#fcb8a3"/><path d="M291.594,239.733l.341-.421q.571.574,1.12,1.169C292.575,240.218,292.089,239.966,291.594,239.733Z" style="fill:#fcb8a3"/><path d="M309.844,360.947c-7.163-1.769-10.618-9.244-14.236-14.975-4.043-7.052-9.25-18.69-6.65-27.1a2.483,2.483,0,0,0,.729.108h.079c2.435-.068,4.854-.354,7.29-.5,1.653-.1,3.306-.18,4.954-.333,1.8-.164,3.576-.386,5.367-.634a46.283,46.283,0,0,0,4.954-1.062c1.828-.459,3.645-.95,5.462-1.452,1.558-.433,3.111-.893,4.648-1.389,1.8-.576,3.561-1.2,5.325-1.865a43.667,43.667,0,0,0,4.616-2.166q.61-.316,1.216-.64c.174.435.342.871.5,1.311.491,1.389.988,2.779,1.452,4.178.856,2.578,1.633,5.177,2.356,7.791.528,2.055,1.009,4.115,1.442,6.2.412,2.5.8,5.018,1.189,7.522.137,1.035.237,2.071.306,3.106.116,3.016.206,6.016.444,9.017-2.731,2.974-6.973,4.849-10.6,6.306-5.393,1.6-10.6,3.656-16.09,4.887-.9.121-2.3.8-3.607,1.183a1.166,1.166,0,0,1-.956.528A1.1,1.1,0,0,1,309.844,360.947Z" style="fill:#fcb8a3"/><path d="M126.936,268.233a8.383,8.383,0,0,1-3.882-1.453,10.328,10.328,0,0,1-1.337-2.086c-.063-.153-.126-.3-.185-.454-4.2-5.245-4.965-12.392-7.146-18.6a53.174,53.174,0,0,1-2.187-8.472c-.035-.095-.067-.191-.1-.287.223-.174.446-.347.672-.516l-.206.158a15.75,15.75,0,0,1,1.447-.924c.7-.343,1.416-.629,2.113-.961.829-.4,1.653-.808,2.477-1.215,1.648-.814,3.28-1.643,4.886-2.536l-.014.007c.9-.5,1.811-1,2.75-1.438,1.078-.507,2.187-.961,3.275-1.448,2.372-1.051,4.722-2.17,7.12-3.169,1.075-.381,2.162-.731,3.253-1.083.163.337.329.673.493,1.009.184.4.353.8.5,1.215.048.148.09.3.127.449.328,1.405.66,2.784,1.094,4.157a21.466,21.466,0,0,0,1.9,4.147c.777,1.384,1.542,2.773,2.377,4.125a39.557,39.557,0,0,0,3.423,4.522,42.586,42.586,0,0,0,3.7,3.729c1.3,1.209,2.667,2.345,4.083,3.423.66.5,1.341,1,2.039,1.436.713.449,1.421.941,2.165,1.326a24.482,24.482,0,0,1-5.055,6.656c-3.423,3.021-8.1,4.321-12.418,5.387-5.71,1.125-11.483,2.895-17.32,2.895Z" style="fill:#fcb8a3"/><path d="M126.009,325.849a11.313,11.313,0,0,1-5.922-1.648c-6.793-1.7-12.946-5.356-19.174-8.377a27.326,27.326,0,0,1-5.23-2.872,2.848,2.848,0,0,0,.186-.947c.021-1.051.021-2.1.037-3.148.016-.914.089-1.823.132-2.737.09-1.716.153-3.46.343-5.171.211-1.828.444-3.639.534-5.472.079-1.6.126-3.206.148-4.8.047-1.4.153-2.778.327-4.167.164-1.31.285-2.62.523-3.925a50.956,50.956,0,0,1,1.437-5.224c.134-.36.271-.719.408-1.079q1.994.71,4,1.38c2.229.74,4.411,1.548,6.6,2.393,2.961,1.273,5.844,2.724,8.8,3.993l-.015,0,.017,0,.036.016-.017-.009.07.03c.042.016.09.037.132.058.074.027.148.059.216.085q.829.345,1.664.676l-.111-.042c.049.017.1.039.15.058l.093.037c-.021-.011-.042-.016-.063-.027.422.164.84.333,1.268.492l-.1-.032c2.171.813,4.395,1.563,6.624,2.2,2.1.6,4.215,1.167,6.3,1.817,1.573.541,3.146,1.027,4.748,1.463.053.013.107.027.159.042.074.021.142.037.216.058a.094.094,0,0,1,.043.011c.005,0,.01,0,.015,0a.019.019,0,0,1,.014,0l.008,0h0c1.751.462,3.512.85,5.294,1.171.422.074.85.153,1.278.227.105,3.117-1.257,6.074-2.1,9.054a46.44,46.44,0,0,1-8.874,17.906c-2.261,3.56-4.633,6.587-8.916,6.587A9.524,9.524,0,0,1,126.009,325.849Z" style="fill:#fcb8a3"/><path d="M140.549,290.969l-.206-.055.249.065Z" style="fill:#fcb8a3"/><path d="M119.385,284.139l-.062-.028.188.075Z" style="fill:#fcb8a3"/><path d="M103.087,270.9a3.875,3.875,0,0,1,1.521.5Q103.846,271.15,103.087,270.9Z" style="fill:#fcb8a3"/><path d="M448.882,222.724c-4.469-1.615-6.022-7.459-4.563-11.669.489-1.3,1.569-3.512,3.259-2.625,1.535.944.248,2.587-.17,3.8-.981,2.779-.609,6.138,1.828,7.992a4.531,4.531,0,0,0,2.974-.032,1.335,1.335,0,0,1,1.622.919C454.2,223.567,450.374,222.913,448.882,222.724Z" style="fill:#6c90dd"/><path d="M453.767,227.25c-.028-.054-.056-.108-.085-.162a2.135,2.135,0,0,1-.718.257,1.477,1.477,0,0,1-1.54-.856c-2.839,1.833-3.446-2.856-3.7-4.754-.375-1.714-1.842-15.236,1.716-13.258a1.537,1.537,0,0,1,2.865.2c1.391-.51,2.836.36,3.727,1.4,2.155.268,2.9,2.974,3.861,4.616h.006c1.488.392,2.4,1.936,3.228,3.132,1.6,2.558.873,7.865-3.042,7.073a4.024,4.024,0,0,1-1.247,1.4,1.37,1.37,0,0,1-.935.187,1.43,1.43,0,0,1-.344.346,1.642,1.642,0,0,1-1.113.3A1.527,1.527,0,0,1,453.767,227.25Z" style="fill:#6c90dd"/><path d="M444.264,216.813a12.746,12.746,0,0,1,.561-3.38c.065-.211.137-.423.216-.633A5.37,5.37,0,0,0,444.264,216.813Zm2.531,8.373c-4.326-1.983-6.912-8.683-3.834-12.672.5-.885,1.922-2.4,2.781-1.137.457-1.051,2-1.653,2.575-.374.434,1.629.135,3.39.288,5.072,1.914-.781,1.79,1.939,1.719,3.131-.088.737.322,1.725-.434,2.21a2.486,2.486,0,0,1-.242.447l-.047.066c1.351.183,2.988,1.229,2.006,2.718C450.413,226.01,448.332,225.8,446.8,225.186Z" style="fill:#6c90dd"/><path d="M303.282,84.405c-7.7-3.685.824-15.782,6.492-8.464,1.321-.094,1.693,1.462,1.574,2.516a4.8,4.8,0,0,1-2.411,4.878C307.834,85.143,305.061,85.079,303.282,84.405Z" style="fill:#6c90dd"/><path d="M309.276,101.291a5.047,5.047,0,0,1-4.189-5.588c.115-2.312,2.759-4.245,4.936-3.157,1.435-.682,3.223,1.159,2.409,2.533C313.557,97.5,312.436,101.555,309.276,101.291Z" style="fill:#97b0e7"/><path d="M315.645,111.411c-.166-.465-1.021-1.049-.57-1.511.607-.239.783.8,1.13,1.136A.337.337,0,0,1,315.645,111.411Z" style="fill:#ceddff"/><path d="M315.114,116.144a4.349,4.349,0,0,1-2.9-3.026c-1.909-1.41-1.5-4.252-.083-5.88,1.769-1.915,3.636-.28,3.6,1.935a8.38,8.38,0,0,1,2.135,2.4C318.906,113.514,317.576,116.6,315.114,116.144Z" style="fill:#ceddff"/><path d="M473.552,212.385c-3.515-.243-4.9-4.134-3.8-7.12.477-1.3,2.147-3.322,3.516-1.9.806-.2,1.627-.747,2.469-.58a2.85,2.85,0,0,1,1.542.929c1.954,2.216,3.655,8.532-1.178,7.908A3.446,3.446,0,0,1,473.552,212.385Z" style="fill:#ceddff"/><path d="M290.335,98.112c-3.221-1.08-3.684-5.027-1.911-7.608.193-1.1,1.082-2.509,2.381-2,2.722-.915,5.34,1.766,6.386,4.046C298.409,96.329,293.868,100.361,290.335,98.112Z" style="fill:#e9738d"/><path d="M299.5,111.668c-4.605-.32-3.416-8.943,1.18-7.445a5.123,5.123,0,0,1,2.709,3.787C303.61,110.146,301.784,112.541,299.5,111.668Z" style="fill:#f197ab"/><path d="M306.669,121.9c-2.305-.8-2.686-7.481.671-5.282C310.591,116.554,310.191,123.3,306.669,121.9Z" style="fill:#ffd2dc"/><path d="M319.792,76.85c-1.555-.819-1.964-2.8-2-4.416.008-2.189,2.709-4.167,4.558-2.514a4.55,4.55,0,0,1,1.347,4.69C323.179,76.158,321.47,77.762,319.792,76.85Z" style="fill:#fcb8a3"/><path d="M320.91,91.97c-5.9-1.826-2.922-12.107,2.857-7.16a1.167,1.167,0,0,1,1.122,1.106C326.1,88.426,324.042,92.762,320.91,91.97Z" style="fill:#fcb8a3"/><path d="M322.323,108.28c-2.011-.528-2.143-2.968-2.2-4.688-.842-2.448.888-4.371,3.311-4.54C328.486,99.019,326.714,109.034,322.323,108.28Z" style="fill:#ffd6b1"/><path d="M325.811,124.662c-3.18-.71-3.511-8.262.644-6.781,1.716-1.28,3.834.787,3.444,2.64C330.25,122.828,328.273,125.43,325.811,124.662Z" style="fill:#ffebda"/><path d="M282.667,114.615c-6.9-.421-5.174-13.07,1.584-10.728a4.812,4.812,0,0,1,2.892,5.467C287.814,112.415,285.952,115.069,282.667,114.615Z" style="fill:#569e7c"/><path d="M291.034,124.086a5.014,5.014,0,0,1-2.667-4.643c.117-2.521,2.735-5.308,5.319-3.945a4.662,4.662,0,0,1,1.656,1.613,1.942,1.942,0,0,1,.953,1.646C296.25,121.749,294.731,125.94,291.034,124.086Z" style="fill:#84c2a5"/><path d="M300.493,128.438c-4.014-2.841,1.177-7.525,3.384-3.263C307.345,127.606,303.172,130.705,300.493,128.438Z" style="fill:#bbe6d2"/><path d="M468.272,240.53c-3.683-2.014-1.868-9.942,1.9-11.146.9-1.791,3.4-2.291,5.212-2.308,1.554-.127,3.167-.53,4.643.165,1.929-.721,3.209,1.284,3.037,3.02.021,2.239-1.442,4.03-2.657,5.768-.8,1.209-1.845,2.55-3.4,2.693a6.36,6.36,0,0,1-6,1.511A2.876,2.876,0,0,1,468.272,240.53Z" style="fill:#569e7c"/><path d="M450.582,238.193a1.226,1.226,0,0,1,2.451-.011A1.226,1.226,0,0,1,450.582,238.193Z" style="fill:#569e7c"/><path d="M453.815,241.253c-4.559-.931-6.93-7.261-.465-6.914C457.962,233.631,458.384,241.349,453.815,241.253Z" style="fill:#ffd6b1"/><path d="M459.007,198.21c-3.686-.957-4.417-5.881-2.536-8.758,1.444-2.442,5.142-4.057,7.6-2.135,2.392-.615,2.462,3.013,2.285,4.6C465.787,195.4,462.822,198.963,459.007,198.21Z" style="fill:#fcb8a3"/><path d="M434.075,198.825c-3.538-2.655-3.948-6.654,0-9.215,1.272-2.876,5.193-6.082,8.257-3.84,6.21-.781,1.718,14.561-2.987,12.775C437.726,199.228,435.7,199.689,434.075,198.825Z" style="fill:#e9738d"/><path d="M238.2,230.012a1.5,1.5,0,0,1-.423,2.187,2.31,2.31,0,0,0-.85.713c-.893,1.949-.835,4.21-1.146,6.3,2.292,1.463,1.2,4.569.338,6.592a1.025,1.025,0,1,1-1.886-.8,6.5,6.5,0,0,0,.919-3.28c.037-.692-.666-.76-1.1-1.1a1.3,1.3,0,0,1-.444-.7,30.278,30.278,0,0,1,.312-6.291C234.012,231.744,236.125,228.084,238.2,230.012Z"/><path d="M176.222,160.759a3.585,3.585,0,0,1,.38.2c.191.122.376.243.56.375a8.545,8.545,0,0,1,.682.624.547.547,0,0,0,.391.153.639.639,0,0,0,.475-.206.61.61,0,0,0,0-.808,7.234,7.234,0,0,0-1.215-1.03,5.1,5.1,0,0,0-1.251-.624,6,6,0,0,0-.809-.184,5.242,5.242,0,0,0-.591-.032,11.693,11.693,0,0,0-1.49.09.723.723,0,0,0-.792.75.7.7,0,0,0,.306.533.733.733,0,0,0,.534.111.725.725,0,0,0,.079-.016c.227-.058.444-.095.676-.132.317-.032.629-.047.94-.053h-.089a2.96,2.96,0,0,1,.433.016h0c.01,0,.021.005.031.005a.022.022,0,0,1-.015-.005c.015.005.031.005.052.011-.01,0-.026-.006-.037-.006a3.249,3.249,0,0,1,.434.111c-.027,0-.053-.015-.08-.021A2.933,2.933,0,0,1,176.222,160.759Zm.449,3.835a.408.408,0,0,0,.042.57l.28.233a.379.379,0,0,0,.259.095.4.4,0,0,0,.264-.708l-.28-.232a.425.425,0,0,0-.269-.095A.383.383,0,0,0,176.671,164.594Zm90.251,6.486c.369.6.692,1.226,1.024,1.849.185.343.37.7.544,1.051a.632.632,0,0,0,.566.328.651.651,0,0,0,.565-.967c-.227-.454-.46-.9-.7-1.357a9.842,9.842,0,0,0-1.606-2.478,4.9,4.9,0,0,0-1.3-.977,6.645,6.645,0,0,0-1.331-.512,9.96,9.96,0,0,0-1.806-.286c-.5-.026-.988-.042-1.479-.047a.695.695,0,0,0,.032,1.389c.464,0,.924,0,1.389.021h-.09a10.718,10.718,0,0,1,1.173.122,8.211,8.211,0,0,1,.861.216c.211.074.412.159.618.254a3.163,3.163,0,0,1,.369.206c.006,0,.011.01.016.01s.011.006.011.011,0,0,.01,0,0,0-.01,0a2.711,2.711,0,0,1,.327.243c.138.127.27.259.4.4a5.705,5.705,0,0,1,.385.486.2.2,0,0,0,.027.042.005.005,0,0,1-.006-.005A.005.005,0,0,0,266.922,171.08Zm-70.754,6.925a11.12,11.12,0,0,0-1.242.851c-.306.237-.6.475-.887.734-.19.174-.386.348-.571.528a5.179,5.179,0,0,0-.359.407.8.8,0,0,0-.148.28.645.645,0,0,0,.634.787h.021a.669.669,0,0,0,.581-.423l.032-.047a.083.083,0,0,1,.016-.022s0,.006-.011.006l.011-.011c.243-.253.5-.5.76-.739a18.2,18.2,0,0,1,1.765-1.416.563.563,0,0,0,.116-.782.577.577,0,0,0-.454-.222A.5.5,0,0,0,196.168,178.005Zm-37.7-6.418a15.172,15.172,0,0,0-.391,5.388,12.194,12.194,0,0,0,.6,2.757c.206.6.428,1.189.66,1.775a.574.574,0,0,0,.539.344.515.515,0,0,0,.232-.053.59.59,0,0,0,.291-.771c-.053-.143-.111-.286-.164-.434v.006c-.074-.206-.153-.412-.227-.618,0,0,0,.016.011.021a16.765,16.765,0,0,1-.539-1.759,15.8,15.8,0,0,1-.233-1.653,17.383,17.383,0,0,1,0-2.092,15.363,15.363,0,0,1,.275-1.886l-.016.085c.053-.265.116-.518.185-.777a.637.637,0,0,0-.444-.776.567.567,0,0,0-.163-.022A.634.634,0,0,0,158.464,171.587Zm1.162-5.467c-.671.539-1.337,1.088-1.955,1.685a17.282,17.282,0,0,0-1.685,1.833,13.75,13.75,0,0,0-2.308,4.273,6.789,6.789,0,0,0-.338,3.481,7.428,7.428,0,0,0,.248,1.009,10.707,10.707,0,0,0,.978,2.14c.232.406.464.813.707,1.22a.668.668,0,0,0,.571.327.646.646,0,0,0,.317-.09.657.657,0,0,0,.237-.887c-.47-.787-.935-1.579-1.341-2.4,0-.006-.006-.011-.006-.016a.3.3,0,0,1-.026-.058.4.4,0,0,0,.026.047c-.121-.264-.221-.528-.317-.8h.006a.016.016,0,0,0-.006-.011v0a.369.369,0,0,1-.021-.064c.006.016.011.027.016.043-.079-.27-.148-.539-.2-.814a7.806,7.806,0,0,1-.08-.861c0,.021.006.043.006.058,0-.227.01-.454.031-.676.037-.3.095-.581.159-.877v.011a12.589,12.589,0,0,1,.459-1.447c0-.006,0-.016,0-.022s0,.016,0,.022,0-.016,0-.022c.159-.364.323-.723.513-1.077-.005.01-.016.021-.021.032a16.028,16.028,0,0,1,.945-1.5c-.01.021-.026.037-.037.058a14.935,14.935,0,0,1,1.257-1.49l-.047.048a26.591,26.591,0,0,1,2.192-1.97h0s0-.006,0-.006v.006s0-.006,0-.006,0,0,.011-.01l0,0c.111-.1.227-.18.343-.27a.574.574,0,0,0,.132-.782.593.593,0,0,0-.475-.237A.469.469,0,0,0,159.626,166.12ZM195.777,181.7a8.174,8.174,0,0,0-.872.375,5.6,5.6,0,0,0-.56.344.716.716,0,0,0-.338.512.519.519,0,0,0,.359.518.477.477,0,0,0,.148.021.521.521,0,0,0,.5-.375l.174-.111-.047.032a3.658,3.658,0,0,1,.417-.217c-.016,0-.037.016-.053.021.195-.084.391-.169.592-.248a.463.463,0,0,0-.164-.9A.374.374,0,0,0,195.777,181.7Zm37.408,3.08a.6.6,0,0,0,.443.644q1.538.294,3.075.629a.687.687,0,0,0,.142.016.625.625,0,0,0,.175-1.231c-1.052-.222-2.108-.428-3.175-.581a.369.369,0,0,0-.074,0A.6.6,0,0,0,233.185,184.777Zm37.667.512a.815.815,0,1,0,.866-.76A.819.819,0,0,0,270.852,185.289Zm-31.619,4.5c-.169.052-.349.105-.523.153a6.24,6.24,0,0,1-.618.148c-.233.037-.46.074-.692.116-.322.031-.65.068-.983.084-.354.016-.7.027-1.056.032h.09c-.143,0-.285,0-.428,0a.667.667,0,0,0-.687.618.655.655,0,0,0,.618.687c.481-.005.956-.01,1.437-.042.38-.021.761-.064,1.146-.106a8.976,8.976,0,0,0,1.051-.19c.365-.085.724-.174,1.078-.285a.647.647,0,0,0-.222-1.257A.7.7,0,0,0,239.233,189.79Zm-54.887-14.236c-.929.555-1.812,1.173-2.7,1.8-.718.507-1.453,1-2.16,1.532a17.008,17.008,0,0,0-1.664,1.363c-.275.264-.55.523-.819.8-.232.243-.465.481-.692.724-.5.523-1,1.046-1.527,1.542-.57.55-1.146,1.1-1.722,1.643-.269.259-.517.539-.776.8-.206.211-.4.433-.592.66-.528.613-1.045,1.236-1.563,1.86q-.7.862-1.426,1.716c-.312.375-.624.75-.941,1.125a12.433,12.433,0,0,0-1.42,1.976.512.512,0,0,0,.243.676.479.479,0,0,0,.206.047.533.533,0,0,0,.47-.29.606.606,0,0,1,.042-.09c.2-.338.423-.665.66-.987-.016.015-.026.031-.042.047.65-.845,1.347-1.653,2.023-2.477.386-.465.771-.93,1.157-1.4.227-.275.449-.56.686-.829s.476-.544.714-.819c.4-.449.829-.866,1.251-1.289a.017.017,0,0,0-.01,0c.871-.8,1.748-1.6,2.609-2.424.4-.381.787-.782,1.183-1.173.191-.19.375-.385.576-.57.222-.2.444-.407.666-.608.243-.2.486-.391.734-.586.19-.153.391-.285.586-.423.418-.29.845-.57,1.263-.855.919-.618,1.838-1.247,2.768-1.849h-.006c.275-.174.55-.343.84-.518a.643.643,0,0,0,.254-.866.675.675,0,0,0-.576-.338A.576.576,0,0,0,184.346,175.554Zm84.778,20.474a.522.522,0,0,0,.2.7.534.534,0,0,0,.253.064.513.513,0,0,0,.449-.259c.307-.6.592-1.215.84-1.844a10.7,10.7,0,0,0,.534-1.711,8.54,8.54,0,0,0,.116-1.157.565.565,0,0,0-.481-.613.55.55,0,0,0-.613.481c-.015.349-.031.7-.079,1.041a.037.037,0,0,0,.006-.021.052.052,0,0,1-.006.026v.011a8.544,8.544,0,0,1-.3,1.1c-.153.444-.332.872-.523,1.305-.1.227-.195.46-.3.692a.231.231,0,0,1,.006-.027C269.193,195.89,269.156,195.959,269.124,196.028ZM233.216,198.2a.645.645,0,0,0,.1,1.278.508.508,0,0,0,.127-.016c.559-.132,1.114-.269,1.674-.417.782-.206,1.563-.407,2.324-.687a20.346,20.346,0,0,0,3.576-1.727,11.654,11.654,0,0,0,1.49-1.062,4.492,4.492,0,0,0,.834-1.035.552.552,0,0,0-.972-.523c-.047.079-.089.154-.132.222v0a.092.092,0,0,0-.016.026.13.13,0,0,1-.015.027,2.117,2.117,0,0,1-.164.216h0a0,0,0,0,0,0,0v0c-.011.016-.021.027-.032.042-.063.074-.127.143-.19.212q-.309.269-.634.507c-.428.29-.866.554-1.31.808,0,0,.011,0,.016-.01-.011,0-.016,0-.021.01s-.005,0-.005,0a.031.031,0,0,0-.022.011.017.017,0,0,0-.01,0,.017.017,0,0,1,.01,0,21.691,21.691,0,0,1-2.139.982,19.736,19.736,0,0,1-1.933.6l.074-.016C234.975,197.845,234.1,198.045,233.216,198.2Zm15.039,3.724c.015.724.037,1.447.047,2.171a.534.534,0,0,0,.539.518h0a.536.536,0,0,0,.518-.545c-.011-.919-.048-1.838-.085-2.762-.015-.454-.063-.9-.095-1.358-.026-.412-.084-.829-.132-1.241a.157.157,0,0,0,0-.048.359.359,0,0,0,0-.073v-.021c-.016-.133-.027-.27-.053-.4-.037-.217-.074-.438-.111-.655-.042-.264-.09-.523-.132-.787-.021-.127-.058-.253-.09-.38-.095-.407-.18-.819-.306-1.215-.08-.264-.164-.529-.243-.8-.043-.121-.074-.243-.122-.364h.006c-.006-.016-.016-.037-.022-.058v0c-.126-.338-.253-.676-.38-1.009v0c-.021-.053-.032-.1-.053-.142h.006c0-.006-.006-.006-.006-.016s0,0,0-.011v.006l0-.006v0c-.132-.354-.3-.7-.433-1.051s-.291-.676-.439-1.009c-.269-.623-.539-1.252-.829-1.865-.122-.259-.243-.523-.37-.781-.042-.09-.079-.18-.127-.27-.195-.348-.39-.7-.586-1.051-.085-.153-.185-.3-.28-.438-.111-.175-.222-.344-.333-.513-.2-.317-.412-.623-.618-.935a.365.365,0,0,0-.623.381c.349.517.692,1.03,1.025,1.553.068.1.142.2.2.317l.175.316c.142.249.274.5.412.756.185.391.375.787.544,1.183s.354.819.523,1.225c.338.819.671,1.633.993,2.446-.006,0-.006,0-.011-.01.079.211.148.427.222.644s.164.422.222.644c.116.418.238.84.359,1.258.058.258.106.523.159.781.042.185.089.37.116.555.042.306.09.613.132.914.026.174.058.338.074.507v0c0,.016.005.037.005.053v-.022c0,.027,0,.053,0,.08,0-.006,0-.016,0-.021.011.1.011.211.026.317,0,.121.027.243.037.359s.016.222.027.327v-.021c.01.069.016.137.021.2h0a.2.2,0,0,1,0,.031v-.021c0,.08.016.154.021.233,0-.006,0-.006,0-.011s0,.011,0,.016v.037C248.2,200.544,248.239,201.236,248.255,201.928Zm21.049.729c-.835.565-1.669,1.136-2.509,1.7a.642.642,0,0,0,.354,1.183.607.607,0,0,0,.338-.1c.655-.434,1.3-.872,1.96-1.311a22.649,22.649,0,0,0,2.081-1.542,14.727,14.727,0,0,0,1.378-1.326,12.634,12.634,0,0,0,1.136-1.415,9.2,9.2,0,0,0,.75-1.289,8.2,8.2,0,0,0,.56-1.659,11.429,11.429,0,0,0,.232-3.032c-.015-.29-.031-.581-.047-.871-.011-.238-.053-.47-.079-.7-.053-.475-.133-.956-.228-1.426a15.73,15.73,0,0,0-.48-1.78,3.551,3.551,0,0,0-.534-1.078c.016.016.027.037.043.053a.415.415,0,0,0-.032-.042.57.57,0,0,0-.412-.248.548.548,0,0,0-.354,1l.079.048a.208.208,0,0,0,.027.047s0,.011,0,.016l0,0c.079.169.143.338.217.513h-.006l.016.031a14.151,14.151,0,0,1,.381,1.395c-.006-.021-.011-.042-.016-.069.053.264.1.523.137.782.027.174.069.349.085.528.031.322.063.645.095.967,0,.253.016.5.021.739.01.37,0,.74-.021,1.1a11.672,11.672,0,0,1-.164,1.284,8.571,8.571,0,0,1-.232.935h.005c-.085.243-.185.486-.291.729,0,.015-.01.026-.016.042a.041.041,0,0,0-.01.021l0,0,0,0c-.164.317-.328.613-.518.909.011-.022.027-.043.043-.069a12.317,12.317,0,0,1-.824,1.1,18.334,18.334,0,0,1-1.289,1.342l.058-.059A21.857,21.857,0,0,1,269.3,202.657Zm-30.99,3.29c-.571.582-1.141,1.157-1.722,1.728a.641.641,0,0,0,.047.9.61.61,0,0,0,.418.158.679.679,0,0,0,.48-.2c1-1.009,2-2.023,2.974-3.064a10.838,10.838,0,0,0,1.247-1.606,11.937,11.937,0,0,0,.956-1.97c.29-.745.544-1.5.787-2.261a.606.606,0,0,0-1.131-.438c-.338.94-.665,1.885-1.056,2.805a12.265,12.265,0,0,1-.623,1.193,9.01,9.01,0,0,1-.518.745.591.591,0,0,1,.053-.063C239.629,204.606,238.969,205.277,238.314,205.947Zm-60.18-10.616c-.412.586-.824,1.172-1.236,1.764h.006l-.006,0s0,.011-.01.011c-.249.359-.481.734-.729,1.1a19.735,19.735,0,0,0-1.3,2.277c-.2.407-.4.813-.565,1.236-.111.285-.222.565-.328.845-.089.227-.179.46-.269.687-.053.142-.095.3-.137.438-.1.317-.2.634-.3.951-.042.137-.09.275-.122.412-.111.481-.221.961-.338,1.442-.047.222-.084.454-.126.676-.032.195-.069.386-.1.576-.09.523-.174,1.046-.248,1.568a.544.544,0,0,0,.465.6.34.34,0,0,0,.069.005.549.549,0,0,0,.533-.47c.148-.914.306-1.822.47-2.731.058-.269.116-.533.18-.8.042-.211.079-.428.137-.634.164-.554.333-1.109.5-1.664-.011.022-.016.043-.027.064.164-.433.328-.861.491-1.294.249-.645.539-1.268.851-1.886a19.059,19.059,0,0,1,1.046-1.769c.216-.333.438-.661.66-1v.006a.005.005,0,0,1,0-.006c.407-.591.819-1.183,1.241-1.769a.529.529,0,0,0-.084-.724.536.536,0,0,0-.333-.111A.463.463,0,0,0,178.134,195.331Zm26.221,11.261a.651.651,0,0,0,.047.9,28.445,28.445,0,0,0,3.745,3.238,27.612,27.612,0,0,0,4.469,2.583c.56.254,1.13.5,1.711.708.365.127.735.254,1.1.386q1.029.355,2.065.7a.457.457,0,0,0,.169.026.581.581,0,0,0,.544-.38.569.569,0,0,0-.354-.713q-.943-.325-1.88-.666c-.756-.274-1.506-.544-2.245-.861v.006a26.582,26.582,0,0,1-3.027-1.569c.021.01.048.026.069.037a28.785,28.785,0,0,1-2.948-2.034l.064.048a35.117,35.117,0,0,1-2.636-2.451.575.575,0,0,0-.412-.164A.67.67,0,0,0,204.355,206.592Zm38.058,6.439c-.1.364-.228.724-.344,1.083-.237.744-.486,1.484-.776,2.208a.655.655,0,0,0,.407.829.579.579,0,0,0,.211.037.668.668,0,0,0,.618-.444c.417-1.072.75-2.171,1.1-3.269.154-.481.286-.978.413-1.469.158-.607.306-1.215.438-1.833a.648.648,0,0,0-.518-.76.658.658,0,0,0-.76.523c-.154.665-.312,1.325-.476,1.986.011-.027.016-.053.027-.085C242.634,212.239,242.524,212.635,242.413,213.031Zm-36.621,2.16a14.044,14.044,0,0,0,1.743,1.326,11.664,11.664,0,0,0,3.09,1.284c.248.063.491.132.739.185.354.068.7.142,1.057.211.66.137,1.325.264,1.991.385.026,0,.053.006.074.006a.491.491,0,0,0,.465-.412.48.48,0,0,0-.407-.534c-.592-.1-1.188-.211-1.78-.327-.349-.064-.692-.127-1.041-.2-.369-.068-.734-.153-1.1-.243l.058.016c-.3-.074-.586-.153-.872-.253l-.618-.238c-.074-.032-.137-.058-.211-.085-.333-.153-.66-.311-.982-.491-.006,0-.006,0-.011,0-.063-.042-.127-.079-.2-.116l0-.006c-.005,0-.01,0-.016-.01a13.668,13.668,0,0,1-1.3-.956c.01.01.026.021.037.031a34.467,34.467,0,0,1-3.1-3.063l.032.032c-.307-.365-.618-.735-.925-1.1-.116-.138-.232-.275-.348-.418a3.393,3.393,0,0,1-.211-.29c-.307-.423-.608-.845-.914-1.268-.243-.343-.476-.7-.713-1.046-.476-.692-.957-1.378-1.437-2.07-.449-.645-.882-1.305-1.326-1.96.011.01.016.021.027.032-.555-.9-1.12-1.791-1.649-2.705a.337.337,0,1,0-.586.333c.4.7.829,1.384,1.252,2.071.132.211.264.427.4.639.116.184.243.364.365.544.332.491.66.993,1,1.484.359.512.719,1.025,1.072,1.542s.7,1.015,1.046,1.527c.138.195.28.386.418.581.221.306.438.607.655.914.1.148.227.285.338.422.258.317.512.634.771.951.3.365.628.713.951,1.067,0,0,0,.011.01.016s.016.011.021.021l0,0A23.121,23.121,0,0,0,205.792,215.191Zm-7.95,58.97c-10.168-.032-18.794-8.62-19.486-18.656-.56-4.865-.444-9.793-.993-14.658-.576-3.941-1.563-7.6-2.335-11.473-.137-.655-.274-1.315-.4-1.976a1.111,1.111,0,0,1-.977-.016c-6.65-3.94-10.876-11.916-11.156-19.58a33.646,33.646,0,0,1,2.741-12.926,6.573,6.573,0,0,1-1.759-.2c-3.095-1.146-6.634-1.986-8.831-4.627-3.608-5.049-6.233-11.773-4.284-17.932,1.22-3.9,3.581-8.732,8.129-8.927a13.238,13.238,0,0,1,4.221-4.078c5.488-4.31,12.766-6.2,19.411-3.523,4.295,1.938,7.786,7.49,8.589,12.048a9.248,9.248,0,0,1-2.187,6.455c1.664-.37,3.09-.407,3.587.322A12.842,12.842,0,0,1,195.882,171c5.922-2.219,12.413-2.594,18.683-2.953,10.052-.924,21.388,5.9,27.2,14.162-2.361-8.341,6.191-15.614,13.343-18.144,6.4-2.055,13.749,1.283,17.922,6.227,3.058,3.164,3.576,7.739,2.868,11.922a16.224,16.224,0,0,1-.306,1.664c2.033,3.174,3.993,6.7,3.66,10.543-1.838,9.138-11.621,16.459-20.928,15.234-1.1.047-5.673-1.39-8.34-3.059.09,1.041.143,2.081.153,3.127a39.058,39.058,0,0,1-3.085,16.158,12.908,12.908,0,0,1-2.588,3.978,1.4,1.4,0,0,1-.454.385,52.388,52.388,0,0,1,.649,5.874c.682,6.085-.924,12.059-7.437,13.908a1.171,1.171,0,0,1-1.384-.671c-.544-1.452,1.384-1.775,2.219-2.488a7.9,7.9,0,0,0,3.475-4.759c1.353-14.035-3.443-25.587-10.669-5.6-.83.993-2.119.095-2.055-.978-1.146-4.067-.7-11.546-5.071-13.342a34.754,34.754,0,0,1-7.274-1.643,1.1,1.1,0,0,1-.776.734c-3.719.84-7.5,1.8-11.346,1.553-11.388-.148-17.32-11.525-18.392-21.662a27.533,27.533,0,0,0-1.247,3.069,15.7,15.7,0,0,0,.824,13.19c.275.422.6.919.28,1.415a.985.985,0,0,1-.576.454c-3.988.619-7.469-2.128-9.439-5.382a10.364,10.364,0,0,0-.026,5.435,5.251,5.251,0,0,0,.549,1.073,1.336,1.336,0,0,1-.856,1.949c.661,3.724,1.553,7.316,2.488,11,2.705,7.57,1.886,15.863,3.191,23.622,1.347,6.45,6.46,12.16,13.031,13.311,9.059,2.4,16.681-3.185,24.836-5.937a.888.888,0,0,1,.777,1.548c-5.763,4.632-13.1,8.287-20.611,8.287C198.724,274.2,198.286,274.187,197.842,274.161Z"/><path d="M174.929,226.691a.849.849,0,0,1-.181-1.313,5.523,5.523,0,0,1,3.514-3.314c1.653-.645,7.48.753,6.8,3.037a.923.923,0,0,1-1.141.381c-2.473-1.159-5.574-1.738-7.737.337A.852.852,0,0,1,174.929,226.691Z"/><path d="M186.478,237.5c-.944-1.891-1.29-4.256-2.99-5.644a3.664,3.664,0,0,0-5.243,1.38.985.985,0,0,1-.921,1.295c-1.47-.165-.928-1.611-.322-2.424,1.168-1.874,3.4-3.292,5.652-2.757a5.434,5.434,0,0,1,3.824,3.259,17.407,17.407,0,0,1,1.2,4.563.64.64,0,0,1-.454.692A.632.632,0,0,1,186.478,237.5Z"/><path d="M181.9,241.22c-2.263-1.155-3.42-3.739-3.65-6.18-.126-1.134-.351-2.6.6-3.449.007-.029.015-.057.024-.085a1.533,1.533,0,0,1,.428-.681c.508-1.69,2.724.252,3.2,1.125C183.9,233.607,185.549,241.7,181.9,241.22Z"/><path d="M201.14,224.872a1.064,1.064,0,0,1-.19-1.484,36.305,36.305,0,0,1,4.653-4.526c2.425-1.805,5.874-.524,7.153,2.054.26.767,1.276,1.83.6,2.567-.633.457-1.1-.337-1.49-.739-.8-.96-1.688-2.107-2.973-2.349-2.6-.475-4.308,2.448-6,3.976C202.505,224.95,201.763,225.371,201.14,224.872Z"/><path d="M211.552,232.587c-.628-1.878-2.529-4.729-4.782-3.938a10.57,10.57,0,0,0-1.8,2.47.8.8,0,0,1-1.384-.808,14.782,14.782,0,0,1,2.133-2.974c2.032-1.648,4.866.234,5.964,2.155.422.692,1.492,3.079.423,3.46A.5.5,0,0,1,211.552,232.587Z"/><path d="M206.425,238.294c-2.362-1.047-2.155-5.3-1.865-7.484-.223-1.178-.17-3.021,1.485-2.845C209.732,226.928,211.026,239.335,206.425,238.294Z"/><path d="M207.135,237.493h0c.726-1.474.546-3.276.518-4.876a7.964,7.964,0,0,0-1.467-2.161,1.066,1.066,0,0,1-.076.51,1.109,1.109,0,0,1-.407.48C205.725,233.488,205.445,236.191,207.135,237.493Zm-.893,2.184c-2.709-.994-2.749-4.27-2.8-6.7-.191-1.787,1.012-5.793,3.407-4.559a9.4,9.4,0,0,1,2.763,3.8C209.821,234.632,210.048,240.559,206.242,239.677Z"/><path d="M179.186,252.878c-12.876-1.5-16.581-19.974-10.776-29.755a11.38,11.38,0,0,1,11.627-6.111c5.025,1.185,7.253,6.663,9.439,10.818,3.313,7.437,3.729,18.722-4.48,23.061a.716.716,0,0,1-.8-1.183,15.67,15.67,0,0,0,4.793-6.295,24.38,24.38,0,0,0-1.27-14.569c-2.2-4.85-5.837-12.112-12.275-9.209-3.5,1.052-5.374,4.43-6.574,7.632-2.43,7.369-.617,16.284,5.073,21.628a9.946,9.946,0,0,0,6.73,2.413c1.026.156,2.858-1.069,3.275.323C184.094,253.107,180.207,252.807,179.186,252.878Z"/><path d="M190.961,237.154c-2.661-1.808,5.8-4.328,5.647-1.875a1.01,1.01,0,0,1-1,1,9.192,9.192,0,0,0-3.5.3A.859.859,0,0,1,190.961,237.154Z"/><path d="M205.962,249.548c-12.524-5-13.734-23.817-4.9-32.734a11.6,11.6,0,0,1,3.777-2.511c.3.308.613.6.94.884.39.338.785.663,1.2.962-9.453,2.576-11.552,17.154-7.366,25.122A13.332,13.332,0,0,0,205.9,247.6a3.237,3.237,0,0,0,1.8.375.982.982,0,0,1,1.215.66c.141.946-.516,1.228-1.289,1.228A5.193,5.193,0,0,1,205.962,249.548Z"/><path d="M210.2,248.09a.687.687,0,0,1,.465-.835c5.182-1.014,8.874-5.018,10.369-9.962,2.35-7.554-1.131-21.5-10.691-21.535a12.141,12.141,0,0,0-2.206.143l-.15-.08-.005,0,.005,0c-.069-.042-.148-.09-.222-.132l.032.016a14.335,14.335,0,0,1-1.337-.977c.011.01.027.021.037.031-.293-.242-.577-.495-.854-.755a13.549,13.549,0,0,1,11.345,1.342c3.586,2.725,5.567,7.252,6.666,11.52,2.039,7.575-1.141,16.206-8.019,20.173a11.83,11.83,0,0,1-4.429,1.53C210.719,248.569,210.348,248.434,210.2,248.09Z"/><path d="M190.648,248.877a2.674,2.674,0,0,1,1.04-3.972c.669-.05,1.371-.78,1.865-.127.448,1.1-1.452.925-1.532,1.891a1.2,1.2,0,0,0,.317,1.067A1.021,1.021,0,1,1,190.648,248.877Z"/><path d="M193.239,256.479a5.24,5.24,0,0,1-3.3-2.715.635.635,0,0,1,.053-1.019.593.593,0,0,1,.847.315,3.064,3.064,0,0,0,1.261,1.008c2.4,1.225,4.822-.367,7-1.286a1.142,1.142,0,0,1,1.421.47C201.63,255.6,194.837,257.349,193.239,256.479Z"/><path d="M197.238,280.994a.851.851,0,0,1-.608-.919c.4-2.363.792-4.808-.049-7.11-1.082-1.7,1.751-2.4,1.5-.481a9.6,9.6,0,0,1,.734,6.3C198.579,279.6,198.4,281.214,197.238,280.994Z"/><path d="M229.333,256.516c-2.881-1.165-1.843-5.267,1.061-5.514a4.394,4.394,0,0,1,2.983,1.045c.5.317,1.287.81,1.734.2a4.1,4.1,0,0,0,.636-1.509c.1-.389-.021-1.032.537-1.047,1.267.1-.56,3.92-1.442,3.924a4.9,4.9,0,0,1-2.953-.216c-.691-.206-1.5-.472-2.086.1-.632.541-.152,1.383.343,1.812A.743.743,0,0,1,229.333,256.516Z"/><path d="M237.55,255.99c-2.224-.429-2.729-1.885-1.413-3.683.479-.611.13-2.059.975-2.122,1.267.245-.059,2.41.268,3.322.764.274,1.836.668,1.549,1.7A1.144,1.144,0,0,1,237.55,255.99Z"/><path d="M229.728,279.838c-3.313-6.9-1.545-15.147.191-22.275a31.848,31.848,0,0,1,1.569-4.3.779.779,0,0,1,1.014-.412.791.791,0,0,1,.342,1.145c-1.812,5.971-2.088,12.407-1.9,18.624.11,2.187.725,4.3.928,6.478a1.157,1.157,0,0,1-2.145.74Z"/><path d="M212.207,290.913c-6.522-.736-12.319-3.461-15.044-9.73-.953-1.483,1.7-2.3,1.733-.549,1.355,1.748,2.533,3.78,4.376,5.035a18.719,18.719,0,0,0,11.993,3c5.809-1.638,12.214-3.967,15.365-9.428a.937.937,0,0,1,1.707.718C230.461,287.369,219.18,291.656,212.207,290.913Z"/><path d="M156.749,361.217c-8.811-.926-18.369-7.479-20.611-16.323-.636-3.773,1.945-6.884,3.26-10.215,1.828-4.052,3.455-8.21,5.118-12.334,2.534-7.146,4.519-14.145,7.707-20.975,2.785-6.783,6.838-13.414,13.775-16.481,5.83-2.225,12.119-2.941,18.308-3.169,4.3-.355,9.042.32,12.593-2.472a.916.916,0,1,1,.765,1.618,8.824,8.824,0,0,1-3.908,2.117c-6.741,1.371-13.8.5-20.41,2.694a21.958,21.958,0,0,0-12.645,6.681c-4.881,6.2-7.572,13.981-10.217,21.319a193.742,193.742,0,0,1-11.919,28.838c-.962,8.411,11.669,15.771,19,16.014a59.848,59.848,0,0,0,6.66-.382.99.99,0,0,1,.957.724C165.626,361.068,158.244,361.429,156.749,361.217Z"/><path d="M173.088,407.775c-1.029-6.163-.654-12.616-1.865-18.726-2.952-9.713-6.841-19.3-7.12-29.6-.428-5.808.913-11.42,2.921-16.828,1.479-4.548,2.593-9.2,3.7-13.845a1.064,1.064,0,0,1,2.055.549c-1.536,7.258-3.522,14.4-5.418,21.563-1.084,5.95-.362,12.228.638,18.085,1.665,7.878,5.346,15.268,6.3,23.273.29,5.162.947,10.351.523,15.519A.878.878,0,0,1,173.088,407.775Z"/><path d="M264.548,371.808c-.945-.015-7.1-.339-4.68-2.04,4.678-1.1,9.557-1.131,14.2-2.44,5.23-.822,10.5-3.215,13.8-7.443,1.55-2.447,2.931-5.221,1.569-8.046a66.247,66.247,0,0,1-3.366-10.763c-1.927-8.16-3.228-16.334-6.027-24.2-1.378-7.481-3.211-15.316-8.99-20.7-5.614-6.134-14.55-6.59-22.132-8.156-5.922-1.368-12.055-3.2-17.035-6.777-.562-.481-1.336-1.218-1.155-2.042a.684.684,0,0,1,1.316.011,89.9,89.9,0,0,0,18.643,6.1c7.846,1.442,16.545,2.289,22.381,8.337,5.609,5.155,8.362,12.568,9.5,19.952.62,3.926,2.331,7.541,3.241,11.392,1.369,7.138,2.723,14.259,4.792,21.237.932,2.967,2.659,5.8,2.212,8.992C290.35,367.84,275.775,371.784,264.548,371.808Z"/><path d="M256.722,395.9c-1.723-4.387-1-9.229-1.014-13.833.444-7.482.468-14.966.523-22.46.021-6.2.068-12.4-.053-18.593a1.027,1.027,0,0,1,2.054-.016c.138,6.2.2,12.4.439,18.593.47,9,.508,18,.317,27.008-.144,2.994.278,6.009-.021,9A1.18,1.18,0,0,1,256.722,395.9Z"/><path d="M125.988,345.6c-10.288-.437-20.548-1.245-30.827-1.9-6.015-.411-12.049.108-18.037-.759-5.779-.3-11.568-.032-17.353-.292-14.341-.236-28.472,1.805-42.743,2.662a.992.992,0,0,1-.227-1.97c10.612-.628,21.123-2.32,31.735-2.959,18.444-.465,36.943-.316,55.351.851,6.3.64,12.6,1.115,18.937,1.247,1.54.275,4.583-.111,4.621,2.028A1.312,1.312,0,0,1,125.988,345.6Z"/><path d="M149.89,437.613c-11.913-1.229-23.929-.822-35.876-.745-11.312.211-22.566-.01-33.864.006-6.095.03-12.4.124-18.44-.434-4.055-.3-8.932-.261-11.225-4.246-8.1-17.539-16.508-34.98-24.753-52.478-3.921-10-11.014-19.4-11.1-30.441.3-1.892-.1-4.522,1.69-5.7a.871.871,0,1,1,.813,1.469.91.91,0,0,0-.057.194c-1.17,8.243,2.892,15.755,6.529,22.834,2.653,5.4,5.148,10.893,7.812,16.285,4.8,10.3,9.469,20.8,14.33,30.964,1.628,3.745,3.143,7.188,4.786,10.818.995,1.86,1.125,4.242,2.647,5.771,2.293,2.16,5.907,1.726,8.72,2.089,6.774.642,13.49.369,20.273.285,15.7.289,31.405-.425,47.094-.221,8.272-.429,16.6.372,24.822,1.045a1.191,1.191,0,0,1,1,1.062C155.1,438.341,151.312,437.536,149.89,437.613Z"/><path d="M157.158,437.942a1.1,1.1,0,0,1-.354-2.108,9.711,9.711,0,0,1,2.158-.435c-.141-3.652-1.571-6.948-2.522-10.377-2.746-10.386-6.615-20.415-10.221-30.52-3.324-8.131-6.116-16.472-9.471-24.589-3.681-8.466-7.948-16.687-11.689-25.121a1.257,1.257,0,0,1,.734-1.611,1.272,1.272,0,0,1,1.616.729c.9,2.112,1.926,4.165,2.964,6.211,4.7,9.089,9.381,18.232,12.735,27.922,3.593,9.835,7.644,19.5,10.87,29.463a182.87,182.87,0,0,1,5.933,18.847c.914,3.321,2.564,7.067,1.5,10.485C160.61,438.394,158.6,437.93,157.158,437.942Z"/><path d="M83.807,395.573a6.452,6.452,0,0,0,4.054-2.5c.113-.176.278-.369.227-.591a.96.96,0,0,1,1.331-.961c.983-1.961-.646-3.954-1.555-5.625-1.938-2.933-4.993-6.472-8.865-5.508-2.116.739-2.873,3.326-3.419,5.252C74.311,390.665,78.92,395.417,83.807,395.573Zm-1.983,2.249c-6.841-.474-11.588-8.389-8.885-14.673,1.094-3.481,4.281-6.458,8.124-5.885,5.074.685,8.266,5.312,10.532,9.487a5.343,5.343,0,0,1-.679,7.027,1.144,1.144,0,0,1-1.656.19C87.491,396.2,84.837,398.3,81.824,397.822Z"/><path d="M237.88,444.274c-20.728-.39-41.124-1.8-61.674-3.988-5.878-.785-11.8-1.3-17.669-2.118a1.034,1.034,0,0,1,.227-2.055c26.264,3.6,52.9,4.852,79.354,5.386.3-.773.407-1.227.654-1.931a1.28,1.28,0,0,1,2.451.613c-.245,2.1-.834,4.689-3.528,4.088Z"/><path d="M239.24,439.162c-26.181-1.763-52.538-1.374-78.519-5.441a1,1,0,0,1,.222-2c20.967,2.792,42.177,2.7,63.206,3.6,4.241.234,8.491.437,12.714.9,1.4.308,3.437-.243,4.1,1.389A1.229,1.229,0,0,1,239.24,439.162Z"/><path d="M220.554,435.348c.092-1.08,2.442-.488,3.17-.7,9.705-.889,19.56-1.293,29.274-1.61a120.108,120.108,0,0,0,16.326-2.325,18.31,18.31,0,0,0,8.527-3.685c4.583-4.885,4.2-12.118,4.04-18.357.222-5.333.115-10.678.227-16.016a130.45,130.45,0,0,0-1.094-15.973c-.292-2.785-.862-5.545-1.088-8.335a1.4,1.4,0,0,1,1.221-1.548c2.284-.021,1.776,3.771,2.287,5.314a123.592,123.592,0,0,1,1.679,15.107c.4,7.166.366,14.382.048,21.546.188,7.385-.2,16.45-6.793,21.139-3.184,2.233-7.063,2.951-10.8,3.724-8.656,1.8-17.559,1.961-26.373,1.854-6.693-.138-13.373.23-20.041.507A.639.639,0,0,1,220.554,435.348Z"/><path d="M166.045,431.639a.951.951,0,0,1,.681-1.14c6.929-2.443,13.61-5.636,20.933-6.894,3.922-.973,8.036-.055,11.946.016,3.139-.169,6.053-1.444,8.924-2.62,6.5-2.695,13.4-4.321,19.818-7.194,6.722-2.942,13.261-6.289,20.062-9,2.575-.951,5.07-2.083,7.713-2.818a7.555,7.555,0,0,0,1.033-3.266,1.342,1.342,0,0,1,2.663-.323,6.331,6.331,0,0,1-.079,1.817c-.395,2.181-1.261,4.535-3.723,4.946-3.748,1.564-7.551,3.061-11.315,4.6q-8.263,3.766-16.5,7.6c-6.5,2.662-13.284,4.56-19.787,7.214-6.538,3.4-13.8.319-20.611,1.475-6.131,1.092-11.943,3.264-17.78,5.351C168.786,431.567,166.744,433.233,166.045,431.639Z"/><path d="M192.7,413.673c-7.645-.154-15.213-1.176-22.866-.8-2.907-.038-5.986.726-8.806.011a1.689,1.689,0,0,1,.925-3.185c1.635.088,3.27.049,4.907.021,10.152-.486,20.176,1.444,30.308,1.606,11.974.018,23.935-.637,35.888-1.321,1.106.107,3.1-.805,3.364.766a.971.971,0,0,1-.919,1c-3.428.227-6.861.433-10.29.639-10.835.714-21.689,1.467-32.553,1.264Z"/><path d="M157.831,415.555c-2.114-1.22.015-3.338.624-4.839,1.151-3.22,1.437-6.688,2.181-10.014q2.167-10.82,3.892-21.715c.574-2.764.64-5.891,1.828-8.409a.845.845,0,0,1,1.173,1.167c-.48,3.038-.488,6.149-.9,9.2-.844,7.315-1.957,14.59-3.132,21.857C163.1,405.583,161.935,416.826,157.831,415.555Z"/><path d="M139.122,370.784c-2.348-.712-.764-3.718-.48-5.362a72.269,72.269,0,0,1,3.914-11.668c.681-.9,2.1.179,1.08.891a81.673,81.673,0,0,1-1.92,11.554C141.166,367.766,141.523,371.02,139.122,370.784Z"/><path d="M310.151,361.719a1.321,1.321,0,0,1-1.221-1.041c-.5-2.156,4.923-2.383,6.413-3.053a91.4,91.4,0,0,0,15.107-5c4.583-1.788,8.465-5.014,11.825-8.529,1.477-1.952,1.055-4.618,1.2-6.927-.262-3.318-.438-6.759-.987-10.035-2.981-8.386-2.438-18.435-8.512-25.447a134.131,134.131,0,0,1-31.316,13.372,46.976,46.976,0,0,1-10.548,2.181.951.951,0,1,1-.153-1.9,33.9,33.9,0,0,0,4.061-.732c7.336-2.646,14.812-4.957,22.046-7.883,4.441-2.215,8.784-4.6,13.218-6.819,3.182-2.366,5.254-.391,6.983,2.456,4.22,5.948,4.6,13.783,6.45,20.531a30.91,30.91,0,0,1,1.69,9.793c.271,4.319.89,9.32-1.738,13.057a40.783,40.783,0,0,1-18.545,12.224C320.972,359.736,315.635,361.569,310.151,361.719Z"/><path d="M338.128,305.226a.907.907,0,0,1,.5-1.474c2.957-1.758,5.275-4.342,8.052-6.344,5.121-2.97,9.414-6.985,14.034-10.638a68.565,68.565,0,0,0,9.987-10.765,203.394,203.394,0,0,0,16.033-22.016,193.1,193.1,0,0,0,13.316-23.2,137.633,137.633,0,0,1,8.04-14.969c2.7-4.137,5.563-8.5,10.4-10.29,3.413-1.785,6.509-4.285,10.512-4.453,2.045-.266,4.453-.454,6.037,1.125,2.13,2.134.433,5.415-1.569,6.988-2.028,2.511-10.448,4.756-9.879,8.093.419,1.245,2.226,2.369,1.032,3.745a1.617,1.617,0,0,1-2.266.148,5.58,5.58,0,0,1,.9-9.017c2.81-2.277,6.655-3.042,8.971-5.944,3.277-4.139-7.083-1.176-8.285-.051-3.183,2.264-7.365,3.025-9.661,6.3-8.71,10.814-12.3,24.588-20.13,35.934-8.129,13.353-17.268,26.2-28.048,37.546-5.12,4.475-10.206,9.018-15.942,12.645-3.794,2.374-7.079,5.6-11.381,6.941A.851.851,0,0,1,338.128,305.226Z"/><path d="M346.345,337.089a1.234,1.234,0,0,1,1.245-1.765c7.577-4.873,15.234-10.156,22.456-15.513a129.233,129.233,0,0,0,14.747-14.494c3.247-3.4,6.721-6.29,9.408-10.031,7.18-10.3,15.307-20.064,20.859-31.407,3.5-6.219,6.581-12.71,8.172-19.666.5-.755,1.521-.792,2.334-.892,1.525-.167,2.99-.4,4.49-.634,1.618-.135,4.444-1.1,4.8,1.209a1.671,1.671,0,0,1-1.516,1.781c-2.617.146-5.2.636-7.824.637-1.259,6.465-4.04,12.469-7.251,18.193-4.319,8.9-10.15,17.217-16.143,25.038-2.687,3.557-4.9,7.461-7.886,10.791-2.8,3.168-6.11,5.839-8.821,9.09-6.935,7.909-15.222,14.443-23.9,20.337-4.273,2.658-8.407,5.8-13.146,7.576A1.253,1.253,0,0,1,346.345,337.089Z"/><path d="M447.249,254.526c-17.949-9.236-18.844-21.86-23.5-39.578a.827.827,0,0,1,1.616-.344c.074.375.175.745.238,1.014.987,3.729,2.342,7.334,3.534,10.992a43.623,43.623,0,0,0,5.583,13.48c5.561,7.961,16.183,15.279,26.261,13.961,13.406-2.623,26.97-10.348,32.039-23.625,6.306-14.154,4.3-29.128-4.174-41.868A49.509,49.509,0,0,0,458.569,165.8c-12.479-3.157-26.927,6.06-33.705,16.116a31.883,31.883,0,0,0-3.979,11.4c-.2,3.352.147,6.525.033,9.839.393,1.457-1.367,2.418-2.071.961-4.2-16.37,4.4-29.508,18.5-37.307,12.259-7.419,23.438-5.278,35.4,1.383,14.143,7.306,26.168,26.077,27.2,41.866.726,15.679-6.3,32.421-20.473,40.15C469.817,255.459,457.739,260.269,447.249,254.526Z"/><path d="M432.446,199.839a1.3,1.3,0,0,1,.317-2.567c2.564.106,5.327,1.6,7.731.15,1.75-.908,2.3-2.763,2.584-4.555,1.438-2.894,2.265-7.145-2.257-7.24-1.93.023-3.356,1.621-4.721,2.8-1.315,1.392-2.86,2.744-3.351,4.668a8.789,8.789,0,0,0-.241,2.3,1.246,1.246,0,0,1-1.964,1.524c-2.115-5.611,3.188-12.178,8.224-14.3,3.393-1.155,7.579,1.024,8.029,4.706.34,2.081-.518,4.08-1.422,5.906a17.055,17.055,0,0,1-1.3,3.422C441.645,200.641,436.527,200.684,432.446,199.839Z"/><path d="M460.344,199.219a1.33,1.33,0,0,1-.037-2.647c1.407-.075,2.925-.188,3.9-1.339a6.012,6.012,0,0,0,.6-7.541c-1.155-.891-3.03-.678-4.392-.615a3.826,3.826,0,0,0-1.222.507,5.774,5.774,0,0,0-2.007,8.195,1.237,1.237,0,0,1-.64,2.378c-1.52-.478-1.992-2.3-2.441-3.655a8.454,8.454,0,0,1,3.5-9.609c2.77-1.7,7.229-1.591,9.572.793C471.34,190.708,467.387,200.4,460.344,199.219Z"/><path d="M451.3,229.456a15.039,15.039,0,0,1-9.064-5.139c-1.248-1.192-2.653-2.569-2.593-4.426a1.355,1.355,0,0,1,2.619-.555c2.159,3.2,5.367,6.276,9.24,7.2,2.182.569,4.807.872,6.728-.5,6.655-3.479,5.513-9.093-.2-12.84-3.151-4.041-10.391-6.286-13.729-1.305a6.874,6.874,0,0,0-1.779,4.157.7.7,0,0,1-1.39-.074c.073-3,1.863-5.675,3.845-7.812,4.518-4.195,11.743-1.668,14.781,3.077,2.111,1.771,4.405,3.629,5.218,6.383.755,3.012.19,6.476-2.356,8.446C459.48,228.817,455.469,230.466,451.3,229.456Z"/><path d="M471,213.5c-1.474-.658-4.261-3.157-2.715-4.759a1.473,1.473,0,0,1,2.054.127c.679.657,1.176,1.6,2.105,1.917a5.435,5.435,0,0,0,5.086-1.518c.311-.558.913-1.209.813-1.864a32.21,32.21,0,0,0-1.845-2.692c-1.34-2.442-4.612-1.166-6.087.528a1.225,1.225,0,0,1-2.445-.082c.877-2.974,4.646-4.737,7.608-4.646,2.79.595,4.452,3.661,5.673,6.006C482.054,211.6,475.332,215,471,213.5Z"/><path d="M471.224,242.388a1.286,1.286,0,0,1-.2-2.531c3.027-.314,5.82-1.09,7.981-3.222,2.326-1.969,4.261-6.643,1.255-8.789-1.038-.573-2.555-.135-3.537.142a52.621,52.621,0,0,1-5.485,1.136c-3.905,1.086-4.6,6.165-4.379,9.586,1.014.689-.038,2.419-1.133,1.8-1-.549-1.036-1.828-1.046-2.842.047-4.083.814-9.324,5.05-11.1,2.657-.927,5.544-.962,8.271-1.684,5.222-.98,7.858,4.607,6.313,9C482.387,238.94,476.7,242.909,471.224,242.388Z"/><path d="M452.846,242.117c-3.668-.423-6.581-2.34-4.907-6.365,1.184-4.106,6.922-4.629,9.264-1.268,1.414,1.954,2.126,5.183-.016,6.888a1.314,1.314,0,0,1-1.859-1.849c1.634-2.074-1.015-5.07-3.381-4.178-1.148.468-2.306,2.574-1.377,3.626l-.033-.033a.834.834,0,0,0-.058-.075,4.765,4.765,0,0,0,2.784,1.1A1.1,1.1,0,0,1,452.846,242.117Z"/><path d="M296.98,287.5a1.019,1.019,0,0,1,.158-1.331c1.161-.977,2.289-1.985,3.486-2.911,2.357-1.771,4.086-4.157,5.985-6.375,2.823-3.049,6.645-6.564,5.256-11.169a5.572,5.572,0,0,0-1.12-2.211c-3.755-5.062-7.385-10.2-11.81-14.727-3.224-3.024-5.8-7.221-9.684-9.345a3.6,3.6,0,0,0-2.523,1.259,78.445,78.445,0,0,1-5.9,6.544c-4.98,4.462-9.721,9.2-14.473,13.9-1.246,1-3.406,3.679-4.817,1.632a1.434,1.434,0,0,1,.787-1.986c2.6-1.406,4.18-3.961,6.233-5.974,3.509-3.92,7.359-7.5,11.142-11.141,3.174-3.358,7.171-10.162,12.464-6.359a128.256,128.256,0,0,1,18.08,19.75c5.6,6.732,7.219,13.216.423,19.908-3.692,4.153-7.116,8.628-12.392,10.86A1.034,1.034,0,0,1,296.98,287.5Z"/><path d="M290.962,239.512a1.128,1.128,0,0,1-.775-1.842c2.578-5.126,2.04-11.029,3.654-16.435,4.426-19.206,3.093-39.165,2.159-58.679a41.39,41.39,0,0,1,.075-11.478c.865-2.848,2.442-5.416,3.507-8.187,2.544-5.44,4.658-11.274,8.526-15.941,4.263-5.465,17.353-13.368,13.96.137-1.04,4.352-3.976,7.616-6.776,10.912-.427,1.031-.808,2.366-2.225,2.092-3.3-1.334.6-5.2,1.923-6.735a20.454,20.454,0,0,0,3.524-5.536c.546-1.538,1.369-3.266.9-4.912-11.893,4.438-14.352,18.542-20.1,28.449-1.066,3.6-.539,7.613-.258,11.331.154,7.385.667,14.763.972,22.143.435,14.013-.655,28.09-4.469,41.618-.612,4.118-1.171,8.275-3.42,11.879A1.141,1.141,0,0,1,290.962,239.512Z"/><path d="M317.978,119.338c-4.64-17.044-10.211-34.93-6-52.595,1.65-5.471,12.679-7.957,15.825-2.72,1.964,4.289,1.622,9.513,2.387,14,1.431,8.674,1.843,17.436,2.362,26.2.211,2.852.481,5.7.686,8.546.161,1.1.039,2.593-1.362,2.689a1.536,1.536,0,0,1-1.617-1.405c-.808-7.326-.969-14.69-1.394-22.043-.2-4.327-.776-8.621-1.046-12.941-.394-4.623-.267-9.676-2.086-13.972-2.63-2.987-9.175-1.563-11.431,1.3-.744,1.273-.549,2.82-.729,4.231-.521,4.57-1.074,9.151-.6,13.755.673,9.514,3.652,18.612,5.309,27.958.409,2.143.631,4.345,1.23,6.449A.816.816,0,0,1,317.978,119.338Z"/><path d="M309.867,122.8C303.193,110.459,297.186,97.484,294.4,83.7c-.62-4.031-2.381-9.027.84-12.376,3.906-3.788,9.449-5.745,14.8-6.244.544-.054,1.105-.076,1.647-.148,2.459-.487,1.788,3.368-.342,2.055-4.292-.3-15.736,4.29-15.386,9.377a97.362,97.362,0,0,0,10.161,32.373c2.068,4.336,4.262,8.608,6.312,12.946A1.4,1.4,0,0,1,309.867,122.8Z"/><path d="M306.411,128.369a179.945,179.945,0,0,1-21.694-24.034c-2.149-3.925-9.623-9.413-7.453-14.124,4.028-4.689,8.013-10.084,14-12.36.748-.192,1.516-.634,2.208-.19a.611.611,0,0,1-.6,1.036c-5.345,3.24-9.329,8.235-13.32,12.928.639,3.484,3.9,5.749,5.761,8.6a184.193,184.193,0,0,0,17.119,20.214c-.047-.042-.09-.089-.137-.132,1.217,1.415,7.336,6.23,5.631,8.04A1.162,1.162,0,0,1,306.411,128.369Z"/><path d="M302.779,135.147c-5.187-2.12-9.759-5.27-14.4-8.332a74.856,74.856,0,0,1-15.461-10.626c-2.485-2.26-2.734-5.383-1.4-8.34a35.925,35.925,0,0,1,3.185-7.237c.849-1.54,2.233-2.785,2.8-4.473a.824.824,0,0,1,1.563.522c-1.569,3.753-3.746,7.231-4.923,11.146-.38,1.532-1.571,3.276-.669,4.807,2,2.942,5.3,4.578,8.107,6.623,3.82,3.261,8.653,4.853,12.6,7.913a40.386,40.386,0,0,0,6.243,3.533c1.411.942,5.174,1.715,4.11,3.978A1.4,1.4,0,0,1,302.779,135.147Z"/><path d="M322.855,136.026c-2.566-.484-2.474-3.467-2.934-5.448-.759-.946,1.013-1.685,1.14-.466.49,1.124.625,2.654,1.646,3.4a3.1,3.1,0,0,0,2.147-.3c2.432-1.372,5.2-2.048,7.581-3.513.7-1.587.231-3.6.361-5.3a1.143,1.143,0,0,1,1.062-1.067c2.219-.027,1.525,5.556,1.167,7-1.232,2.73-4.62,3.63-7.146,4.8C326.309,135.832,324.59,136.506,322.855,136.026Z"/><path d="M318.806,137.471c-.9-.546-2.295-2.958-.9-3.576,1.286-.363,1.123,1.088,1.619,1.748A1,1,0,1,1,318.806,137.471Z"/><path d="M315.657,138.525a.794.794,0,0,1,1.585.095A.794.794,0,0,1,315.657,138.525Z"/><path d="M312.773,262.724c-2.005-1.019.187-3.578.586-5.049,2.943-6.034,4.169-12.619,5.881-19.039a141.785,141.785,0,0,0-.508-66.87c-.708-2.426-1.285-4.879-1.8-7.358-.426-1.234-.2-2.63,1.273-2.926,7.706-1.983,12.6-8.7,18.242-13.815,1.983-2.05,3.19-4.536,4.545-6.949,1.653-2.968,3.664-5.812,3.651-9.292h0c-2.514,1.59-3.3,4.7-5.07,6.941a83.529,83.529,0,0,1-6.127,6.809,22.822,22.822,0,0,1-3.635,2.72.837.837,0,0,1-1.114-1.23c.734-.957,1.484-1.9,2.277-2.805,2.446-3.073,5.611-5.71,7.627-9.091,1.431-2.5,3.255-6.155,6.534-6.185a2.69,2.69,0,0,1,2.562,2.81c.29,4.1-2.231,7.7-4.194,11.1a31.881,31.881,0,0,1-4.934,7.285c-5.83,5.228-11.038,12.061-18.94,14.107a146.443,146.443,0,0,1,2.217,75.288c-1.816,7.1-3.17,14.357-6.772,20.838C314.475,261.061,314.484,263.175,312.773,262.724Z"/><path d="M327.017,139.027c-.519-1.082.7-1.559,1.478-1.957a45.072,45.072,0,0,0,5.108-4.813c3.5-3.246,4.567-10,10.153-10.4,3.433.394,2.682,4.932,2.346,7.352a1.153,1.153,0,0,1-2.209-.126,8.206,8.206,0,0,0-.211-4.816c-4.43,1.028-5.121,6.658-8.314,9.337C333.87,134.912,328.885,141.347,327.017,139.027Z"/><path d="M334.144,123.975c-1.22-1.383,1.256-2.57,2.023-3.534,1.616-1.395,4.174-3.451,6.206-1.669,1.091,1.168.307,3.374-.993,4.057-1.043.205-1.268-.957-.452-1.459.215-.4.41-1.311-.158-1.465l0-.008c-2.368.012-3.633,2.695-5.272,4.062A1.035,1.035,0,0,1,334.144,123.975Z"/><path d="M333.779,117.566c-1.681-1.471,1.518-2.97,2.747-3.19,1.649-.418,3.585,2.2,1.764,3.153-.81.3-1.315-.389-1.586-1.035-.355-.1-.824.284-1.06.386C335.13,117.368,334.55,118.1,333.779,117.566Z"/><path d="M321.44,76.325a3.663,3.663,0,0,0,.352-5.687c-1.463-.666-2.962,1.464-2.994,2.792a4.569,4.569,0,0,0,1.146,2.437c-.045-.042-.071-.066-.111-.105a3.158,3.158,0,0,0,.339.3l.008,0A1.942,1.942,0,0,1,321.44,76.325Zm-1,2.326c-2.3-.4-3.779-2.838-4.268-4.955-.626-3.564,3.792-7.687,7.094-5.319,2.979,2.349,3.177,7.691-.291,9.688a1.207,1.207,0,0,1-1.229.06A1.309,1.309,0,0,1,320.435,78.651Z"/><path d="M321.845,90.863c1.558-.642,2.861-1.533,2.97-3.362a6.337,6.337,0,0,0-1.331-2.725c-1.58-1.66-4.452-.267-4.9,1.717a8.113,8.113,0,0,0,.972,3.285c.176.283.411.668.753.712A1.152,1.152,0,0,1,321.845,90.863Zm-.888,2.085a.875.875,0,0,1-.7-.7c-2.094-.728-2.745-3.161-3.419-5.046-.591-1.917.71-3.933,2.34-4.881a5.889,5.889,0,0,1,4.934.058,7.058,7.058,0,0,1,3.185,5.034A5.748,5.748,0,0,1,320.957,92.948Z"/><path d="M323.375,107.947l.077,0,.02-.005h0c.223-.476.988-.6,1.324-.931a4.4,4.4,0,0,0,1.016-5.537c-.972-1.032-2.786-2.251-4.2-1.452l.089-.051.115-.048C318.907,101.694,319.971,107.382,323.375,107.947Zm-.755,1.264c-6.185-1.189-6.156-13.118,1.009-11.721,2.156.735,4.257,2.281,4.458,4.717.443,2.659-.8,7.215-4.1,7.03A2.536,2.536,0,0,1,322.62,109.211Z"/><path d="M326.293,125.379c-3.356-.214-5.417-4.133-4.1-7.115a5.1,5.1,0,0,1,4.982-2.578,6.361,6.361,0,0,1,4.1,5.351c.31,1.283-.11,4.179-1.98,3.4a1.05,1.05,0,0,1-.213-1.534,4.326,4.326,0,0,0-1.863-5.128c-1.085-.369-2.558.527-3.145,1.446a3.409,3.409,0,0,0,1.226,4.33,2.7,2.7,0,0,0,2.421.22.756.756,0,0,1,.5,1.426A4.039,4.039,0,0,1,326.293,125.379Z"/><path d="M313.041,115.346c-3.055-1.5-4.095-6.484-1.241-8.673.52-.424,1.314-1.085,1.918-.434.842,1.134-1.044,1.794-1.548,2.594-1.007,1.321-.538,3.289.435,4.524a3.776,3.776,0,0,0,2.935,1.418c.32-.124.729-.115.861.265C316.453,116.447,313.8,115.751,313.041,115.346Z"/><path d="M306.87,102.334a7.347,7.347,0,0,1-3.2-5.161c.136-2.739,1.52-5.988,4.347-6.835,1.131-.3,3.584-.053,3.333,1.542-.412,1.124-1.645.339-2.481.377a2.467,2.467,0,0,0-1.132.356,5.5,5.5,0,0,0-1.928,4.956c1.719,3.512,2.911,4.519,6.133,1.669a.679.679,0,0,1,.946.043c.685,1.055-1.142,1.6-1.7,2.26C310.037,102.605,308.286,103.3,306.87,102.334Z"/><path d="M304.2,85.542c-5.694-.791-5.288-6.905-3.218-10.907,2.089-4.262,8.131-2.7,10.543.422a1.012,1.012,0,0,1-1.579,1.252,6.572,6.572,0,0,0-2.092-1.651c-1.355-.766-3.317-1.249-4.537-.013a10.544,10.544,0,0,0-1.809,6.917c.532,2.524,4.018,3.361,6.008,2.058a5.98,5.98,0,0,0,1.443-1.356.641.641,0,0,1,.892-.235c.737.558-.177,1.286-.565,1.749A4.9,4.9,0,0,1,304.2,85.542Z"/><path d="M292.2,100.433c-6.528-.945-9-12.6-1.025-13.205a6.077,6.077,0,0,1,5.916,3.375.96.96,0,0,1-.412,1.284c-1.115.528-1.366-.859-1.866-1.5-4.1-3.728-8.955.617-6.083,5.351a6.094,6.094,0,0,0,3.031,2.689,3.774,3.774,0,0,0,3.794-1.35c.779-.874,1.151-3.075,2.7-2.474,1.139.571.422,1.892-.016,2.709A5.71,5.71,0,0,1,292.2,100.433Z"/><path d="M299.664,113.078c-4.577-.221-6.57-8.682-1.97-10.221,1.011-.1,2.293-.275,3.137.391a.979.979,0,0,1-1.371,1.389c-2.767-.594-2.979,3.022-2.107,4.813a2.974,2.974,0,0,0,4.684,1.259c.466-.379,1.02-1.138,1.657-.615a.744.744,0,0,1,.137.971A4.227,4.227,0,0,1,299.664,113.078Z"/><path d="M306.516,122.635c-2.8-.857-3.992-5.817-1.014-7.136.558-.225,1.9-.565,1.844.4-.074.426-.537.455-.872.4a1.38,1.38,0,0,0-1.188.871c-.487,2.181,1.546,5.092,3.808,3.344a.8.8,0,0,1,.988,1.236A3.341,3.341,0,0,1,306.516,122.635Z"/><path d="M281.714,115.483c-5.394-2.271-4.622-11.061,1.341-11.816a.819.819,0,0,1,.872.866c-.064.99-1.2.631-1.789.952-3.588,1.679-3.06,7.51.842,8.362,2.748.507,5.345-2.972,3.74-5.356-.358-.712-1.575-1.445-.945-2.3.591-.668,1.345.033,1.86.439C292.118,110.438,286.85,117.719,281.714,115.483Z"/><path d="M291.983,125.026c-4.677-2.494-5.943-12.117,1.442-10.887a1.053,1.053,0,1,1-.834,1.93c-3.785-.065-2.189,5.553-.208,6.991a3.22,3.22,0,0,0,3.086-.681c1.133-1.164.758-2.893.391-4.3a.927.927,0,0,1,1.659-.713,6.115,6.115,0,0,1,.776,2.123A4.78,4.78,0,0,1,291.983,125.026Z"/><path d="M300.549,130.319c-2.791-1.252-3.293-5.818-.661-7.517.563-.468,1.61-.96,1.976-.021.27.942-.6.983-1.162,1.347-1.277.921-.615,2.858.23,3.852.988.769,2.422.254,3.435-.228a1.044,1.044,0,0,1,1.173,1.7A4.991,4.991,0,0,1,300.549,130.319Z"/><path d="M91.238,310.982c-1.135-9.747-.022-33.384,7.544-40.065a4.548,4.548,0,0,1,4.6-.649,37.425,37.425,0,0,1,9.306,3.005c5.664,1.623,10.682,4.689,16.07,6.973a144.615,144.615,0,0,0,13.533,5.213,1.49,1.49,0,0,1-.56,2.889,14.858,14.858,0,0,1-2.588-.454c-9.472-2.729-17.656-8.577-26.855-11.89a59.63,59.63,0,0,0-10.992-3.825.86.86,0,0,0-.449.059c-5.957,5.924-6.339,18.355-7.215,26.4-.287,3.971-1.084,8.01-.565,11.974A.933.933,0,0,1,91.238,310.982Z"/><path d="M92.888,312.1c-.077-.344-.4-.883.074-1.061a.378.378,0,0,1,.475.243c.09.346.421.885-.063,1.067A.392.392,0,0,1,92.888,312.1Z"/><path d="M123.165,325.714c-4.9-.885-9.56-2.884-14.083-4.9a51.506,51.506,0,0,1-11.842-5.827c-1.891-1.2-3.963-2.467-5.171-4.395-.352-.713.816-1.061.8-.285a100.371,100.371,0,0,0,16.341,7.479c3.182,1.221,6.267,2.677,9.47,3.84a45.849,45.849,0,0,1,5.034,2.536A.856.856,0,0,1,123.165,325.714Z"/><path d="M100.467,316.893a34.76,34.76,0,0,1-7.336-3.7c-.694-.569-1.764-1.045-1.907-2.023a.8.8,0,0,1,1.151-.74c2.822,1.883,6.031,3.1,8.832,5.019A.822.822,0,0,1,100.467,316.893Z"/><path d="M90.829,304.468c-13.331-6.879-24.6-16.793-34.529-27.942-13.7-14.339-25.289-30.952-32.956-49.282-.319-1.107-1.268-2.861.011-3.618a1.144,1.144,0,0,1,1.421.422,20.219,20.219,0,0,1,2.049,3.777c1.973,4.088,3.35,8.463,5.589,12.413q4.477,6.856,8.963,13.729a206.735,206.735,0,0,0,33.516,37.6A156.673,156.673,0,0,0,89.6,302.06c.778.7,2.552.883,2.2,2.092A.733.733,0,0,1,90.829,304.468Z"/><path d="M95.6,274.439c-2.64-.482-4.555-2.5-6.645-4.02-2.088-1.707-4.266-3.3-6.259-4.923A184.573,184.573,0,0,1,62.931,248.8c-10.821-10.527-21.845-21.484-28.856-35-.284-.875-1.733-1.944-.8-2.764a.725.725,0,0,1,1,.222c11.579,17.2,26.268,32.239,42.092,45.546,5.655,4.322,11.325,8.59,16.836,13.091,1.068,1.352,4.45,1.633,3.935,3.687A1.343,1.343,0,0,1,95.6,274.439Z"/><path d="M32.849,210.732c-2.519-4.016-2.931-9.068-5.973-12.808-4.385-5.976-11.911-10.195-19.358-9.116-1.258.657-2.662,1.4-1.38,2.829,1.705,2.165,4.627,2.855,7.152,3.533,1.127.486,3.658.953,3.026,2.641a1.157,1.157,0,0,1-1.526.518c-3.96-2.157-10.006-2.366-11.774-7.205-.671-3.13,3.148-5.359,5.884-5.261a25.352,25.352,0,0,1,17.262,7.047c2.667,2.756,5.074,5.945,6.09,9.7.813,2.42.841,5.055,1.643,7.447A.623.623,0,0,1,32.849,210.732Z"/><path d="M12.913,205.763c-3.648-.544-6.46-3.546-8.863-6.143-1.889-2.094-1.552-6.137,1.584-6.729a.772.772,0,1,1,.359,1.5c-1.557.24-2.04,2.243-1.456,3.519.732,2.242,10.572,10.146,10.4,4.425-.443-1.591-2.1-2.221-3.238-3.238a.8.8,0,0,1-.122-1.046c.955-1.1,2.839,1.113,3.613,1.754C17.473,202,16.3,205.97,12.913,205.763Z"/><path d="M11.37,212.281C6.792,211.6-.014,206.269.653,201.162c.093-1.317,1.129-2.225,1.774-3.28.889-1.36,2.473.645.951,1.2-1.974,2.187-1.023,5.394.867,7.3,1.971,2.106,8.791,7.57,9.359,1.827a.773.773,0,0,1,1.527-.063A3.393,3.393,0,0,1,11.37,212.281Z"/><path d="M8.678,216.275C3.829,215.527-1.456,210.1.369,205.019a2.063,2.063,0,0,1,1.654-1.114A.634.634,0,0,1,2,205.142c-1.449,5.274,5,10.777,9.978,9.068a.937.937,0,0,0,.222-.185c.287-.31.392-.5.645-.781a.885.885,0,0,1,1.484.887C13.6,216.525,10.774,216.853,8.678,216.275Z"/><path d="M8.316,218.681c-1.43-.023-2.5-1.054-3.534-1.912a5.683,5.683,0,0,1-2.53-3.829c0-.609-.585-1.811.264-2.008.553-.009.487.59.508.977.284,2.366,2.66,3.453,4.405,4.68,1.6.479,3.238-.205,4.848-.306a.8.8,0,0,1,.8.56C13.291,218.606,9.542,218.675,8.316,218.681Z"/><path d="M21.07,222.558c-2.877-1.679-6.089-2.633-8.926-4.379-1.32-.438.022-2.17.782-1.012,3.036,1.419,7.139,1.107,9.264,3.981A.957.957,0,0,1,21.07,222.558Z"/><path d="M4.334,224.947a18.958,18.958,0,0,1,.878-8.42.761.761,0,0,1,.855-.682.745.745,0,0,1,.62.781c.095,2.777-.438,5.682.139,8.4.19.23.383.07.474-.152.641-1.766.428-3.686.869-5.494a1.034,1.034,0,0,1,1.03-.866c1.884.035.662,4.746.591,6.027C9.331,227.977,5.173,228.349,4.334,224.947Z"/><path d="M10.618,187.318a1.141,1.141,0,0,1-1.061-1.442,148.653,148.653,0,0,1,3.686-17.283c.814-1.725,1.537-9.735,3.888-8.879a1.006,1.006,0,0,1,.586,1.067c-.14.929-.083,1.7-.174,2.609-1.6,7.576-3.753,15.074-5.8,22.552A1.14,1.14,0,0,1,10.618,187.318Z"/><path d="M16.007,186.41c-2.241-.361.142-4.922.185-6.413,1.389-6.7,3.582-13.2,4.781-19.939.035-.745.946-1.359,1.373-.518a72.564,72.564,0,0,1-2.753,15.527c-.735,3.5-1.27,7.049-2.249,10.492A1.219,1.219,0,0,1,16.007,186.41Z"/><path d="M19.274,160.462a9.544,9.544,0,0,0-2.236-.687.854.854,0,0,1-.7-.5.834.834,0,0,1,1.124-1.037c1.182-.182,3.5-.613,3.355,1.243A1.227,1.227,0,0,1,19.274,160.462Z"/><path d="M21.036,158.184c7.179-5.159,12.139-20.216,3.706-26.148-2.188,4.244-7.452,5.6-9.438,9.957a13.075,13.075,0,0,0,2.353,14.914,2.257,2.257,0,0,0,1.452.654,13.025,13.025,0,0,1,.185-8.279c.132-.353.29-.692.438-1.04a.7.7,0,0,1,1.326.385C20.651,151.8,20.183,155.033,21.036,158.184Zm-1.082,1.11c-2.489.761-4.6-1.608-5.868-3.472-2.739-3.654-2.584-8.461-1.237-12.63a14.787,14.787,0,0,1,4.348-6.418c2.128-1.754,4.693-3.107,6.058-5.62,2.97-3.33,7.063,4.455,7.385,6.978,1.124,4.742-.19,9.63-2.119,13.981-1.256,3.325-4.057,5.561-7.03,7.295A1.13,1.13,0,0,1,19.954,159.294Z"/><path d="M24.805,146.341c-1.661-.39-.144-3.725-.216-4.991.629-3.4.235-6.755.734-10.047a.882.882,0,0,1,1.532.317,29.375,29.375,0,0,1,.354,3.523C27.241,136.9,27,146.583,24.805,146.341Z"/><path d="M21.842,141.513a.859.859,0,0,1-.439-1.12,45.714,45.714,0,0,0,1.838-5.229c.469-.887.38-3.507,1.8-3.159a.712.712,0,0,1,.343.97C24.61,134.319,23.718,142.386,21.842,141.513Z"/><path d="M121.815,264.269c-4.5-7.932-9.045-16.034-10.427-25.18-1.471-5.054,1.684-9.268,5.921-11.71,7.071-5.145,15.441-8.713,24.245-8.906,2.348.729,3,3.445,3.872,5.456a53.043,53.043,0,0,0,4.7,9.572,69.613,69.613,0,0,0,12.2,14.562,1.321,1.321,0,0,1,.169,1.712c-1.881,2.333-7.156-4.868-8.441-6.3a58.316,58.316,0,0,1-10.073-16.49c-.855-2.041-1.276-3.954-2.429-5.757a.727.727,0,0,0-.922-.367c-7.044,1.564-14.059,3.551-20.059,7.571-2.514,1.382-5.155,2.694-6.82,5.115-2.955,3.532,3.23,18.115,5.378,21.908,1.431,2.6,2.873,5.187,4.294,7.791C124.1,264.274,122.449,265.333,121.815,264.269Z"/><path d="M137.044,219.594c-.029-2.471-1.889-4.6-2.878-6.8a127.593,127.593,0,0,1-5.4-11.647c-8.325-19.541-15.294-39.881-17.1-61.167a1.112,1.112,0,0,1,2.108-.491,14.418,14.418,0,0,1,.829,2.35c1.437,6.859,2.11,14.045,3.819,20.822,3.009,13.022,7.671,25.538,12.505,37.971,2.064,5.66,4.837,11.021,7.195,16.551.316,1.117,1.151,2.235.816,3.386A1.066,1.066,0,0,1,137.044,219.594Z"/><path d="M111.562,231.08c-11-23.274-13.458-49.618-15.26-75.012-.179-2.831-.235-5.687-.375-8.509a1.153,1.153,0,1,1,1.984.593c-.529,11.014.895,22.125,3.045,32.917A282.7,282.7,0,0,0,108.467,216c1.4,4.712,3.368,9.245,5.217,13.771A1.248,1.248,0,0,1,111.562,231.08Z"/><path d="M112.737,139.908a.811.811,0,0,1-.5-1.2,23.541,23.541,0,0,1,1.2-3.5,72.214,72.214,0,0,1,5.718-10.094c1.219-3.076,2.064-7.294-.709-9.735-2.456,2.463-1.658,6.75-3.8,9.5-3.858,4.945-11.667,5.479-14.51-.766-1.856-4.77-1-9.9-.624-14.843a16.333,16.333,0,0,0-.358-3.454c-.116-.341-.325-.753-.74-.729.033,0,.05,0,.079-.008a.918.918,0,0,0-.336.066l.069-.026.1-.022c-4.22,2.248-2.466,10.8-2.361,14.838a.93.93,0,0,1-.781.94c-2.311.014-1.858-7.638-1.875-9.392-.036-3.489,1.846-9.762,6.37-8.467,6.1,3.639-2.63,20.224,6.333,23.019a7.174,7.174,0,0,0,7.006-2.941c1.52-2.577,1.534-5.8,3.072-8.346,1.941-3.055,4.612-1.047,5.837,1.436a12.531,12.531,0,0,1,.491,5.726c-.411,4.782-3.925,8.2-5.768,12.429-.852,1.709-2.272,3.108-2.944,4.9A.806.806,0,0,1,112.737,139.908Z"/><path d="M90.392,123.4c-2.957-5.48-3.294-16.41,2.494-20.125,1.253-.716,3.623-.857,3.758,1.022.065,1.085-1.338.95-1.31-.055-4.9.569-5.022,9.281-4.775,13.032C90.425,118.177,92.691,125.343,90.392,123.4Z"/><path d="M87.2,125.667c-1.688-4.083-2.544-8.584-1.342-12.92.49-1.944,1.451-4.324,3.444-5.087a.447.447,0,1,1,.063.891c-.831.441-.978,1.533-1.318,2.336a22.681,22.681,0,0,0-.753,7.327c.313,2.367.946,4.67,1.274,7.036A.725.725,0,0,1,87.2,125.667Z"/><path d="M95.349,147.559c-10.938-5.1-15.446-23.793-9.428-33.9a.683.683,0,1,1,1.035.888c-3.142,6.406-1.764,15.951,1.246,22.193,2.015,3.561,5.176,6.38,8.3,8.971A1.114,1.114,0,0,1,95.349,147.559Z"/><path d="M106.55,121.734c-4.159-.727-6.132-5.338-5.145-9.159a.862.862,0,1,1,1.6.613c-1.162,2.377.726,5.143,2.736,6.367,1.887.953,4.073.362,6.022.071,1.969-.486,2.351-3.147,2.819-4.777-2.642-1.505-6.1-1.594-8.979-2.3-1.308-.2-3.812-.148-3.512-2.05a1.334,1.334,0,0,1,1.421-1,45.962,45.962,0,0,1,9.745,2.388c4.173,1.583,3.352,3.754,1.78,7.157C113.544,122.035,109.44,121.945,106.55,121.734Z"/><path d="M112.829,116.215c-3.728-.482-7.863-.72-10.823-3.307a.678.678,0,0,1,.032-1.014c.637-.509,1.034.333,1.53.593,3.3,1.759,7.228,1.2,10.809,2a.855.855,0,0,1-.069,1.7A11.59,11.59,0,0,1,112.829,116.215Z"/><path d="M110.722,118.546c-3.262-.207-7.166-1.056-9.185-3.819a.5.5,0,1,1,.969-.243,5.3,5.3,0,0,0,2.143,1.164c2.7,1.017,5.649.731,8.455,1.281a.784.784,0,0,1,.608.751C113.572,119.013,111.655,118.452,110.722,118.546Z"/><path d="M114.861,113.4c-1.623-2.262,8.624-8.188,10.212-9.9,7.706-8.391,7.7-23.478-1.467-30.775-3.195-1.73-6.912-3.125-10.574-2.809-4.343.708-8.848,2.674-11.326,6.441-3.351,5.36-1.933,11.716.071,17.275a54.615,54.615,0,0,1,2.3,14.706c-.069.917-.823,1.639-.845,2.525a.755.755,0,0,1-1.469.243c.018-1.028.654-2.034.63-3.082a44.825,44.825,0,0,0-1.5-8.777c-.784-4.057-2.647-7.772-3.249-11.858-.964-5.267.477-11.249,4.326-15.075,6.217-5.736,14.608-6.362,21.921-2.335,4.548,2.247,7.016,7.2,8.758,11.742,2.249,6.755.455,14.352-3.37,20.194-1.864,3.461-5.381,5.35-8.383,7.686C119.4,110.41,116.471,115.027,114.861,113.4Z"/><path d="M124.412,89.654c.779-.034,2.57-.53,2.224-1.548.115.165-.187-.078-.31-.08l.067.022a3.234,3.234,0,0,0-2.977,1.212A1.953,1.953,0,0,0,124.412,89.654Zm-15.875.5c-.214-1.121.049-2.539-.721-3.3A2.411,2.411,0,0,0,108.537,90.157Zm3.488,23.224c-2.522-.709.581-6.315,1-8.034,1.92-4.788,3.766-9.644,6.01-14.281a2.347,2.347,0,0,1-1.748-2.3,2.676,2.676,0,0,1-3.019-.366,21.436,21.436,0,0,1-3.34,3.805,43.813,43.813,0,0,1-1.527,12.811,24.867,24.867,0,0,1-2,5.1.584.584,0,0,1-1.034-.418c1.075-5.61,2.332-11.217,2.3-16.953a5.48,5.48,0,0,1-3.1-2.929c-.486-1.682-.446-4.042,1.262-5.007,2.8-1.165,3.877,2.166,3.88,4.357.755-.95,1.466-1.924,2.267-2.835-1.734-6.554,6.023-5.786,2.737.15.26.3.626.061.909-.076,2.4-1.728,2.831.176,2.992,2.283a6.212,6.212,0,0,0,1.173-.161c1.745-2.912,7.689-4.68,8.343-.137C129.06,91.759,124.371,93,122.018,91c-2.067,2.925-2.839,6.51-4.394,9.7a54.776,54.776,0,0,0-3.956,11.685A1.371,1.371,0,0,1,112.025,113.381Z"/><path d="M142.473,101.781a5.83,5.83,0,0,1-1.077-.322c-.295-.121-.581-.259-.868-.4-3.395-.151-1.117-5,1.161-2.515,1.284.435,3.793.11,3.7,2.046C145.23,102.011,143.55,101.974,142.473,101.781Z"/><path d="M141.937,89.422c-.162-1.717,2.059-1.415,3.174-1.776.742-.2,1.754-.554,2.166.355.557,1.428-1.309,1.708-2.282,2.012C143.959,90.267,142.255,90.949,141.937,89.422Z"/><path d="M133.9,71.185a1.188,1.188,0,0,1-.059-1.664c1.052-.865,2.745-3.852,4.247-2.752,1.041,1.1-.618,2.117-1.257,2.921C136.035,70.454,135.153,72.238,133.9,71.185Z"/><path d="M124.764,63.99c-.809-1.268.322-2.766.449-4.11.439-1.036.25-3.16,1.754-3.169,2.1.659.325,4.717.2,6.3A1.37,1.37,0,0,1,124.764,63.99Z"/><path d="M112.74,60.952c-.236-1.338-.588-2.645-.945-3.951a1.1,1.1,0,0,1,.581-1.3c2.17-.563,2.254,3.46,2.7,4.87A1.184,1.184,0,0,1,112.74,60.952Z"/><path d="M102.555,65.2c-.933-1.1-2.172-1.888-3.116-2.958a1.174,1.174,0,0,1-.048-1.4c1.654-1.721,3.547,1.944,4.8,2.821A1.126,1.126,0,1,1,102.555,65.2Z"/><path d="M91.656,75.171c-.729-.922-1.359-1.778-2.081-2.536a1.079,1.079,0,0,1,1.368-1.658,14.4,14.4,0,0,1,2.44,2.762,1.122,1.122,0,1,1-1.727,1.432Z"/><path d="M86.505,87.158c-.086-1.923,2.624-1.381,3.883-1.811a1.175,1.175,0,0,1,.38,2.319C89.442,87.673,87.046,88.99,86.505,87.158Z"/><path d="M140.175,79.957c-1.184-1.538,1.469-2.829,2.329-3.862a1.044,1.044,0,0,1,1.364.038c1.188,1.449-1.52,2.617-2.161,3.771A1.1,1.1,0,0,1,140.175,79.957Z"/><path d="M344.2,420.693c-10.694-.53-21.37-1.673-32.089-1.849-9.463-.213-18.91-1.305-28.37-1.167a1.174,1.174,0,0,1-.064-2.346c7.971-.27,15.957.78,23.917.988,9.332.168,18.627.716,27.948,1.246,3.7.425,7.411.344,11.114.508a1.317,1.317,0,0,1,1.178,1.267C347.758,421.209,345.46,420.609,344.2,420.693Z"/></svg>