<svg id="Layer_1" data-name="Layer 1" xmlns="http://www.w3.org/2000/svg" viewBox="0 0 500 500"><path d="M430.333,106.878c-7-4.563-1.045-13.951-2.372-20.566-.316-2.015-2.681-2.134-4.138-3.037a26.647,26.647,0,0,1-6.875-4.951c-2.233-1.382-7.02-4.2-3.524-6.875.309-2.129,2.748-2.458,4.48-1.859,3.2.567,6.989,2.234,7.813,5.706,2.046,1.706,4.241,3.4,5.688,5.661,2.064-2.776,4.61.392,5.232,2.628,1.433,3.727,1.257,7.783,1.286,11.728-.4,2.873.6,7.821-3.3,8.347C434.477,105.784,432.528,107.763,430.333,106.878Z" style="fill:#fff"/><path d="M482.892,149.348c-3.7-.3-1.172-8.505-1.153-10.863a25.8,25.8,0,0,0-.879-11.032c-.528-2.168-1.5-4.353-1.382-6.607.68-2.724,4.739-.907,3.1,1.4,2.855,6.392,5.465,12.771,3.407,19.842C485.217,144.294,486.082,149.268,482.892,149.348Z" style="fill:#fff"/><path d="M489.881,160.987c-2.87-1.7.094-5.049.788-7.242,1.7-5.024.676-10.349.812-15.517-2.042-5.786-3.879-11.862-8.643-16.063,1.788,4.116,2.8,8.547,4.29,12.782,1.681,1.522,1.814,3.957,1.763,6.084a47.028,47.028,0,0,1-.451,8.206c.053,2.758.735,5.567.126,8.336-.5,3.882-5.454,4.262-5.646.037-.44-3.3.256-6.589.693-9.85a62.25,62.25,0,0,1-1.027-8.9,2,2,0,0,1,.471-3.48c-1.113-3.575-2.089-7.169-3.411-10.4-1.205-2.42-2.667-4.9-2.734-7.678,1.163-5.108,7.165.1,9.488,1.678a37.483,37.483,0,0,1,5.321,6.842c2.082,3.385,2.859,7.34,4.486,10.945.439,5.017.923,10.233.1,15.267C495.916,154.549,493.259,162.55,489.881,160.987Z" style="fill:#fff"/><path d="M488.61,170.721c-3.124-7.581-.624-16.109,2-23.469.369-1.131.79-2.705,2.061-3.141,2.393-.88,4.194,2.565,1.73,3.714-1.6,6.162-2.774,12.761-1.6,19.091.556,1.754,1.151,4.293-1.116,5.069A2.543,2.543,0,0,1,488.61,170.721Z" style="fill:#fff"/><path d="M469.115,172.664a17.123,17.123,0,0,0-4.2-8.293A79.026,79.026,0,0,1,469.115,172.664Zm1.357,40.091a2.469,2.469,0,0,1-1.589-3.082c.84-2.618,1.69-5.232,2.367-7.9-1.33,1.141-2.2,2.749-3.918,3.275-4.114.363-3.3-3.906-1.878-6.319.1-2.1,1.2-4.046,1.892-6.007.691-1.47,1.024-3.443,2.593-4.242-1.139-5.91-4.3-11.429-6.381-17.113-2.144-4.014-4.008-8.245-3.387-12.925a55.922,55.922,0,0,0,.636-6.111,1.717,1.717,0,0,1,1.78-1.626,1.737,1.737,0,0,1,1.626,1.781c.038,2.559-.578,5.063-.336,7.578,3.915-3.478,8.4,6.354,9.349,9.291,2.588,1.234,2.55,4.921,3.741,7.251.481,1.365,1.384,2.906.464,4.281a31.655,31.655,0,0,1,.268,6q-.036.927-.056,1.858c1.237-2.337,5.042-.708,4.15,1.807-2.168,7.24-4.587,14.379-8.365,20.92A2.451,2.451,0,0,1,470.472,212.755Z" style="fill:#fff"/><path d="M430.131,185.3c-2.425-.545-1.983-3.2-.648-4.651,1.952-3.772,4.2-7.557,4.869-11.81-1.344,2.195-7.621,14.878-10.269,9.346a2.122,2.122,0,0,1-.484-2.831c1.777-2.729,3.516-5.553,5.492-8.137,2.324-4.735,7.3-11.46,8.783-2.041,1.606-4.866,1.827-10.928,6.113-14.119a1.675,1.675,0,0,1,1.16,3.075c-3.978,8.539-2.56,19.862-9.939,26.712C433.33,182.1,432.754,185.586,430.131,185.3Z" style="fill:#fff"/><path d="M382.733,199.271a6.683,6.683,0,0,1-2.423-3.318c-2.019-5.258-2.011-11.008-1.633-16.553.47-15.26,13.611-32.519,26.793-39.558-.274-.631.5-1.123,1.073-1.033.946.142.952,1.279.325,1.81-10.681,10.711-23.221,23.487-23.731,39.472a102.138,102.138,0,0,1,6-17.983,1.612,1.612,0,0,1,3.041.3c-2.255,8.467-4.841,17.163-5.617,26.012-.214,2.912-.24,5.832-.258,8.749C386.222,198.59,384.017,200,382.733,199.271Z" style="fill:#fff"/><path d="M485.323,457.871c1.781.458,2.313,2.668.636,4.116-8.388,6.267-19.642,6.481-29.729,6.673a72.155,72.155,0,0,1-16.154,1.131c-5.158-1.094-10.922,1.345-15.673-1.434-2.04-.34-3.761-2.793-2.387-4.648a55.6,55.6,0,0,0-.325-10.353.916.916,0,0,1,.739-1.034.9.9,0,0,1,.79.265c.052-1.145.082-2.29.037-3.414a30.191,30.191,0,0,1,.281-3.643c-.887-7.884-2.424-15.673-3.939-23.454-.073-.422-.155-.85-.221-1.272-.007-.022-.007-.044-.015-.066-1.759-7.877-3.673-15.725-5.646-23.536a100.944,100.944,0,0,1-3.3-16.715,33.209,33.209,0,0,0-1.551,3.879c-3.363,11.44-6.555,22.93-9.274,34.54-4.434,15.111-7.8,30.63-8.7,46.3-.384,2.675-3.6,2.564-5.66,2.978-7.612,2.549-15.629,2.993-23.618,3.126a60.873,60.873,0,0,1-20.144-3.289c-1.633-.428-2.032-2.069-1.529-3.532,3.221-18.747,4.633-37.613,7.338-56.427.384-1.663.8-8.107,1.47-14.624-.975-1.522.451-4.271.554-5.919,1.249-5.993,1.715-12.1,2.8-18.12,1.367-6.473,3.1-13.02,4.1-19.516.8-4.6,2-9.178,3.178-13.715-2.409-4.271,5.3-20.75,5.719-24.607,1.7-6.806,3.207-13.56,5.3-20.241-.931-2.652-1.855-5.519-.688-8.239.651-2,1.848-3.783,2.225-5.882,1.293-4.958,2.327-9.969,3.325-14.949-10-6.74-18.969-15.171-29.174-21.49-3.754-1.751-8.055-.487-11.979-1.655-7.449-.894-14.247-4.648-19.671-9.732.325,10.567-.687,21.194-.236,31.776,1.108,28.036,2.6,56.272,2.63,84.3-.022,16.382,2.321,32.883,2.151,49.266.206,12.954.849,25.864,1.448,38.8.1,6.562.628,13.213.333,19.79a2.078,2.078,0,0,1,.362.037c2.564.65,1.189,4.256-1.131,7.537-.007.052-.015.1-.022.148a10.11,10.11,0,0,1-2.114,3.894,2.02,2.02,0,0,1-1.138,1.855c-2.719,1.426-5.941,1.478-8.889,2.224-21.918,5.624-44.878,3.85-67.283,3.643-13.131-.133-26.248.724-39.372.266-17.233-.45-33.926,1.922-51.062,2.528-27.963-.015-55.7,2.7-83.658,2.483-12.068-.185-24.135-.267-36.151-1.6a83.622,83.622,0,0,1-14.483-2.2,2.256,2.256,0,0,1-2.187.287,27.3,27.3,0,0,1-6.829-4.485c-2.083-2.542-2.689-6.023-3.376-9.171-1.464-6.7.9-13.486.022-20.284.428-14.647-.222-29.278.354-43.88.148-13.641.843-27.541,1.574-41.116.089-17-.288-34-.384-51-.044-4.316-.14-8.646-.089-12.969a2.275,2.275,0,0,1,.451-1.692,1.792,1.792,0,0,1,.31-.266c.045-1.116.082-2.232.119-3.348.7-14.365.569-28.73.85-43.1-.562-29.507-1.552-59.2-1.013-88.7a233.141,233.141,0,0,0,1.3-29c0-15.164-.54-30.43-1.4-45.542-.066-9.474-2.439-23.551.85-33.535C5.3,44.635,6.837,42.153,7.893,40.7a8.2,8.2,0,0,1,3.378-2.143c1.514-1.4,3.495-2.778,4.322-.732.222-.014.451-.022.673-.029.628-.384,1.175-.7,1.515-.88,9.54-4.936,20.41-6.909,31.14-7.33,6.931-1.374,13.944-2.313,20.883-3.008,24.267-.169,48.535-.044,72.788-1.182,7.4.007,14.971.554,22.3.983,8.128.007,16.264-.458,24.407-.089,10.11.569,20.182,1.848,30.283,2.587,11.6.148,23.211-1.094,34.82-.54,11.425.288,23.152-.576,34.5.54,4.338.133,8.676.266,13.013.5,4.109-.118,15.445-1.589,16.472,2.86a2.887,2.887,0,0,1-.3,1.211,26.25,26.25,0,0,0-.258,3.747c-.052,3.857.1,7.7-.03,11.557-.591,8.21-.347,16.612-.6,24.8-.5,6.473-.687,13.168-1.093,19.509-.473,11.276-.569,22.575-1.19,33.859-.377,4.678-.828,9.363-1.086,14.048a1.493,1.493,0,0,1,1.566,1.093c.488,6.429-.717,12.94-.088,19.405.406,4.752.931,9.533.916,14.307a4.688,4.688,0,0,0,1.123-.318c3.591-1.175,7.308-2.143,10.826-3.466,2.165-1.094,4.885-1.929,6.244-4.042a5.889,5.889,0,0,1,2.431-3.037c3.821-2.513,8.085-4.072,11.528-6.932,6.555-5.771,12.688-12.414,19.79-17.483,5.993-2.927,12.8-2.084,19.375-2.3,1.028-3.51,2.394-6.975,3.259-10.463a2.053,2.053,0,0,0-.406-.747,48.85,48.85,0,0,1-12.659-7.973,21.079,21.079,0,0,1-5.084-13.279c.133-7.131,4.183-13.42,5.254-20.41a79.989,79.989,0,0,0,1.67-12.193,52.663,52.663,0,0,1,3.917-11.794c1.854-2.934,3.214-6.532,6.2-8.313a1.4,1.4,0,0,1,1.322,2.246,1.833,1.833,0,0,1-.036,1.559c-1.22,5.794,5.726,11.388,9.68,14.854,5.749,4.891,13.249,6.872,19.7,10.515,4.64,1.411,6.532,6.6,6.791,11.047.3,4.715-1.826,9.334-1.072,14.048,2.151,9.259-2.187,17.447-10.323,21.977-2.38,1.589-3.525,4.4-5.845,6.037a1.578,1.578,0,0,1-1.574.089,2.738,2.738,0,0,1-.872-2.387c-1.87,1.293-3.762,2.564-5.587,3.894-3.126,1.656-5.86,4.744-9.436,5a29.077,29.077,0,0,0-1.737,2.4c-6.252,8.616-10.065,18.585-13.4,28.605-2.372,6.569-3.932,13.176-3.082,20.122a83.373,83.373,0,0,0,10.937,26.329c4.515,6.163,12.215,11.994,20.159,11.055,7.315-7.331-.791-21.371,8.394-27.741,2.195-1.766,4.737-3.162,6.695-5.172,5.72-6.053,11.513-12.082,16.679-18.63,4.552-6.458,9.591-18.193,19.42-14.224,3.591,1.366,3.8,6.717,5.852,9.7,2.247,4.515,6.1,9.607,2.986,14.661-2.7,3.931-3.289,8.831-3.643,13.486-.03,4.811-1.9,9.281-2.483,14.011-.651,7.707-7.057,9.717-13.435,11.262-1.965,4.02-3.68,8.269-5.2,12.34A11.983,11.983,0,0,0,439.071,246c.8,4.034,2.084,8.2,3.215,12.126a104.891,104.891,0,0,0,8.387,14.9,4.3,4.3,0,0,1-.222,3.857c1.227,1.8,2.291,3.665,2.956,4.456,1.168,1.678,7.863,13.922,8.254,19.354,3.407,9.843,4.826,20.417,5.476,30.814,1.19,7.59,2.091,15.208,3.488,22.738,2.158,8.476,2.682,17.373,3.916,25.982,2.6,22.893,9.023,45.1,9.829,68.17C484.525,451.568,485.05,454.708,485.323,457.871ZM373.34,233.514c-1.729-9.614-6.916-18.06-10.116-27.164-1.6-4.788-.081-10.131-2.143-14.735-2.527,2.83-6.407,4.567-8.979.791-3.495,2.416-6.9,5.091-10.9,6.525,2.874,3.17,6.355,5.941,8.358,9.806a126.483,126.483,0,0,0,7.64,16.8C363.231,226.686,367.879,231.054,373.34,233.514Z" style="fill:#fff"/><path d="M138.766,166.84c-2.72-2.86-2.609-7.471-1.249-10.944-2.69-3.51,3.259-7.929,5.4-10.375,2.172-2.209,5.557-3.961,8.623-2.608,2.114-7.028,9.082-8.957,14.92-4.848a16.248,16.248,0,0,1,1.456,1.135l-.126.446c-.281.9-.591,1.8-.953,2.676-.177.369-.362.739-.562,1.108-.221.333-.45.657-.687.975-.643.8-1.323,1.567-2.017,2.321-.436.436-.88.85-1.36,1.256-.894.658-1.847,1.227-2.764,1.869-.835.584-1.648,1.2-2.475,1.8-.584.384-1.175.761-1.774,1.123-.975.481-1.98.895-2.993,1.331a15.741,15.741,0,0,0-6.813,4.84,13.266,13.266,0,0,0-1.722,3.2c-.207.54-.4,1.072-.591,1.611a30.078,30.078,0,0,0-1.071,3.828l.044-.221c-.022.1-.044.214-.066.317.007-.029.014-.066.022-.1-.045.222-.089.444-.133.673a1.651,1.651,0,0,0-1.358.98A5.158,5.158,0,0,1,138.766,166.84Z" style="fill:#fcb8a3"/><path d="M147.03,168.074c.488-.842.99-1.662,1.53-2.475q.047-.063.1-.126l-.02.022c.028-.037.056-.076.086-.114l-.007.011.012-.016.04-.05.009-.016.013-.014-.013.014.013-.014c.016-.027.033-.053.051-.079s.045-.061.066-.092l.031-.043.073-.1c-.014.023-.036.045-.051.074a26.153,26.153,0,0,1,1.825-2.216c.253-.234.513-.455.778-.669-1.388,2.564-2.822,5.354-4.819,6.478C146.838,168.459,146.933,168.266,147.03,168.074Z" style="fill:#fcb8a3"/><path d="M143.919,156.916c.724-1.057,4.434-5.121,5.572-3.473a1.084,1.084,0,0,1-.252,1.5,6.531,6.531,0,0,0-2.305,2.311,11.307,11.307,0,0,0-1.537,1.687,13.219,13.219,0,0,0-1.722,3.2c-.207.539-.4,1.071-.591,1.61a28.971,28.971,0,0,0-1.072,3.828l.045-.221c-.022.1-.045.214-.067.318.008-.03.015-.067.022-.1-.017.092-.036.184-.054.276C139.944,164.777,142.463,159.835,143.919,156.916Z" style="fill:#fcb8a3"/><path d="M148.559,165.6c-.074.1-.147.206-.221.3C148.411,165.8,148.484,165.7,148.559,165.6Z" style="fill:#fcb8a3"/><path d="M158.209,150.746c-.369.27-.738.542-1.109.812l-.013.008.011-.006-.121.087c-.592.385-1.176.761-1.781,1.123-.976.481-1.973.895-2.986,1.331q-.3.13-.607.266A15.124,15.124,0,0,1,158.209,150.746Z" style="fill:#fcb8a3"/><path d="M157.1,151.558c.062-.042.125-.083.194-.125-.063.042-.133.084-.2.127Z" style="fill:#fcb8a3"/><path d="M162.253,142.506a3.6,3.6,0,0,1,3.074-2.276,3.9,3.9,0,0,1,2.077.6c-.174.5-.362,1-.57,1.493-.177.369-.362.739-.561,1.108-.215.333-.444.658-.68.975q-.505.62-1.027,1.217a1.963,1.963,0,0,1-.285.021A2.235,2.235,0,0,1,162.253,142.506Z" style="fill:#fcb8a3"/><path d="M188.618,175.542c.126-.044.259-.1.392-.14a2.545,2.545,0,0,1,.044-.473Zm-36.534,38.87a7.253,7.253,0,0,1-1.729-.828,2.2,2.2,0,0,1-.223.111l-.14-.387v0c-.013-.033-.024-.066-.036-.1q.017.05.036.1v0a.746.746,0,0,1,.03.1c-.509-1.441-1.056-2.882-1.544-4.33-.035-.115-.073-.232-.112-.348-.161-.52-.327-1.04-.487-1.566a26.9,26.9,0,0,1-.716-3.148c.022.147.044.3.059.436-.045-.311-.089-.621-.133-.932.022.148.044.289.066.436a24.987,24.987,0,0,1-.192-2.97v-.052a37.347,37.347,0,0,1,.377-4.722c.111-.657.244-1.308.414-1.951.118-.317.244-.62.384-.931a33.534,33.534,0,0,1,1.788-3.17c.362-.5.747-.99,1.153-1.456.244-.243.5-.48.754-.716.332-.266.672-.518,1.027-.762.6-.362,1.219-.694,1.855-1,2.158-.9,4.345-1.685,6.576-2.394a70.543,70.543,0,0,0,7.191-2.491,21.713,21.713,0,0,0,6.939-4.714,19.162,19.162,0,0,0,2.963-3.791,22.491,22.491,0,0,0,1.847-4.161c.9-2.741,1.456-5.579,2.468-8.283.325-.784.688-1.545,1.087-2.3.251-.429.509-.843.8-1.249.251-.325.5-.636.783-.939q.543-.532,1.131-1.02c.384-.28.768-.546,1.167-.805.333-.192.673-.362,1.013-.525.487-.2.982-.384,1.485-.547a5.892,5.892,0,0,1,.6-.14,4.138,4.138,0,0,1,.428-.044c.1,0,.192,0,.3.007s.2.03.3.037l.524.155c.133.059.259.118.392.178.266.155.525.3.776.472.266.2.525.4.783.6a2.969,2.969,0,0,0,4.157-.444,15.735,15.735,0,0,1,2.161,15.556c.1,2.158-1.012,4.2-1.8,6.163a2.286,2.286,0,0,1-2.394,1.308c-4.116,3.769-10.131,3.909-14.58,6.924a36.473,36.473,0,0,0-10.929,14.764c-2.281,7.084-8.031,16.2-16.1,16.2A11.225,11.225,0,0,1,152.084,214.412Z" style="fill:#fcb8a3"/><path d="M148.138,193.329c-.052.126-.118.244-.177.355Z" style="fill:#fcb8a3"/><path d="M155.04,186.073c-.081.044-.17.081-.259.125C154.87,186.154,154.959,186.11,155.04,186.073Z" style="fill:#fcb8a3"/><path d="M181.436,121.725a2.177,2.177,0,0,1,.027-1.089,1.39,1.39,0,0,1,.114-2.509,9.687,9.687,0,0,1,3.657-.207c1.314.144,2.652-.164,3.932.192a4.411,4.411,0,0,1,2.438.014c2.219,1.2.3,4.18-1.853,3.494-1.156,1.028-2.957.815-4.359,1.366C183.945,123.7,181.871,123.57,181.436,121.725Z" style="fill:#fcb8a3"/><path d="M71.157,274.363c-2.4-.436-3.953-2.823-5.158-4.774a4.88,4.88,0,0,1-.27-3.327l.026.009c1.005.34,2.01.687,2.993,1.072.377.169.739.354,1.1.546.163.1.318.207.473.318.68.569,1.323,1.16,1.973,1.759a2.859,2.859,0,0,0,1.951.739,3.135,3.135,0,0,0,.849-.118c.038,2.085-.927,3.8-3.385,3.8C71.533,274.39,71.349,274.381,71.157,274.363Z" style="fill:#fcb8a3"/><path d="M83.209,253.161c-8.321-3.459-8.291-13.915-.281-17.743a14.825,14.825,0,0,1,3.458-.977,1.519,1.519,0,0,0,.348,1.864c.2.251.436.473.65.724l-.034-.045c.4.453.8.9,1.194,1.346l-.059-.06a39.549,39.549,0,0,1,2.757,3.71c1.086,1.7,2.083,3.481,3.022,5.269.488,1.027.975,2.054,1.478,3.074.5,1.048.977,2.113,1.529,3.132a33.973,33.973,0,0,0-5.867.075c-1.264.091-2.529.181-3.779.181A15.632,15.632,0,0,1,83.209,253.161Z" style="fill:#fcb8a3"/><path d="M99.193,242.305c-.739-.835-1.463-1.685-2.254-2.468a37.373,37.373,0,0,0-5.217-4.434c-.422-.285-.846-.577-1.281-.847,4.408.965,7.708,4.647,9.9,9.1C99.973,243.2,99.592,242.752,99.193,242.305Z" style="fill:#fcb8a3"/><path d="M62.594,299.845c-.768-.569-1.589-1.079-2.394-1.588-.953-.614-1.862-1.272-2.749-1.974a16.56,16.56,0,0,1-1.227-1.145c-.362-.4-.7-.813-1.027-1.241-.325-.481-.62-.968-.894-1.471a26.785,26.785,0,0,1-1.064-2.468,34.471,34.471,0,0,1-1.049-3.673,26.6,26.6,0,0,1-.392-2.756c-.037-.843-.03-1.67.015-2.513,0,.111-.008.23-.015.34.052-.517.126-1.027.207-1.537a24,24,0,0,1,.643-2.372q.174-.447.353-.888c3.947.238,6.845,3.673,8.138,7.2.879,2.734-.156,5.653.295,8.461a17.43,17.43,0,0,0,2.838,7.6,1.734,1.734,0,0,1,.738,1.913C64.221,301.08,63.427,300.449,62.594,299.845Z" style="fill:#fcb8a3"/><path d="M45.1,288.236a14.518,14.518,0,0,1,1.375-6.7,23.377,23.377,0,0,0-.3,5.594,26.7,26.7,0,0,0,1.249,6.724,18.384,18.384,0,0,0,3.162,6.156l.233.271A15.759,15.759,0,0,1,45.1,288.236Z" style="fill:#fcb8a3"/><path d="M53.239,289.98c.052.126.1.259.14.4C53.335,290.246,53.291,290.113,53.239,289.98Z" style="fill:#fcb8a3"/><path d="M148.927,284.768c-.421-.636-.82-1.286-1.22-1.944-3.694-1.973-7.308-4.9-8.712-8.978-.968-2.246-2.017-6.266,1.315-6.939a5.344,5.344,0,0,1,1.977.334,2.242,2.242,0,0,0,.3,2.068c1.707,2.261,3.347,4.581,4.862,6.983,1.692,2.69,3.347,5.409,5.04,8.107a1.867,1.867,0,0,0,.349.415,2.189,2.189,0,0,1-1.844,1.092A2.73,2.73,0,0,1,148.927,284.768Z" style="fill:#fcb8a3"/><path d="M236.832,283.9a3.273,3.273,0,0,1-1.353-2.63c-2.468-4.168-5.505-8.624-4.788-13.738a17.441,17.441,0,0,1,2.445-6.5c.585.221,1.157.462,1.73.716a23.959,23.959,0,0,1,2.15,1.264c.555.392,1.094.8,1.619,1.227.45.406.879.835,1.293,1.278.251.3.48.591.7.894a15.476,15.476,0,0,1,.783,1.352c.163.37.318.74.458,1.116.562,1.752.85,3.555,1.316,5.321q.127.482.256.963c-.773,2.156-2.171,4.04-3.219,6.064a2.423,2.423,0,0,1-2.29,2.982A2.141,2.141,0,0,1,236.832,283.9Z" style="fill:#fcb8a3"/><path d="M289.2,314.6c-4.618-2.18-7.478-7.767-7.412-12.784-.05-1.944,1.083-4.407,2.908-4.839a1.13,1.13,0,0,0-.166.516,1.388,1.388,0,0,0,.384.931c.473.65.931,1.308,1.353,1.988a34.876,34.876,0,0,1,1.633,3.222c.168.388.344.776.52,1.165l0,.017.007.011a.047.047,0,0,0,.008.019v0l0,.012,0-.008.011.024,0,.013v0c.423.964.8,1.943,1.213,2.9.369.843.731,1.693,1.1,2.535a2.16,2.16,0,0,0,1.073,1.158,4.884,4.884,0,0,1-.755,1.783,1.437,1.437,0,0,1-1.4,1.447A1.209,1.209,0,0,1,289.2,314.6Z" style="fill:#fcb8a3"/><path d="M287.184,297.652a5.977,5.977,0,0,1,.517.474C287.531,297.966,287.358,297.808,287.184,297.652Z" style="fill:#fcb8a3"/><path d="M259.352,322.53l.2.022a.582.582,0,0,1,.1.03c.088.037.184.074.273.111s.14.081.207.118c.125.089.251.185.369.281.148.14.3.288.436.436.259.325.51.643.747.975q.3.51.576,1.02c.5,1.086.872,2.232,1.419,3.3.3.614.65,1.2.983,1.8a3.465,3.465,0,0,0,3.029,1.707,3.435,3.435,0,0,0,3.459-3.488,14.319,14.319,0,0,0-.185-2.572,14.736,14.736,0,0,0-1.559-4.5c-1.692-3.1-4.656-6.237-8.358-6.68a9.257,9.257,0,0,0-4.877.635,16.5,16.5,0,0,0-3.621,2.21c-1.375,1.094-2.719,2.217-4.146,3.244-.495.333-1,.65-1.537.946-.214.1-.428.185-.65.266-.088.03-.177.059-.266.081s-.17.022-.258.037c-.037,0-.074.007-.111.007-.082-.007-.156-.022-.237-.036l-.17-.045-.207-.088-.31-.178c-.111-.081-.222-.17-.333-.258a11.969,11.969,0,0,1-.894-.909c-.827-1-1.552-2.084-2.291-3.148a15.586,15.586,0,0,0-3.709-4.434,4.146,4.146,0,0,0-1.9-.636,2.54,2.54,0,1,0-.37,5c.044.059.089.125.133.184.532.8.983,1.626,1.427,2.461a30.9,30.9,0,0,0,2.785,5.158,10.037,10.037,0,0,0,2.986,2.7,7.215,7.215,0,0,0,4.1.879c4.175-.3,7.39-3.325,10.656-5.66q.576-.388,1.175-.71c.133-.059.266-.118.4-.17.066-.022.14-.044.207-.059.088-.015.17-.022.251-.037Zm15.46,17.809a.919.919,0,0,0-.51,1.16c.029.074.051.156.081.23a.978.978,0,0,0,.909.628.934.934,0,0,0,.539-.178.968.968,0,0,0,.163-1.426,1.362,1.362,0,0,0-.451-.4h-.015v-.007a1.031,1.031,0,0,0-.4-.082h-.044A.8.8,0,0,0,274.812,340.339Zm-21.238-1.818a2.56,2.56,0,0,0,1.84,2.971c.118.133.236.266.347.4a11.324,11.324,0,0,1,.746,1.131c.6,1.1,1.1,2.246,1.6,3.4a2.221,2.221,0,0,0,2.069,1.263,2.255,2.255,0,0,0,1-.228,2.331,2.331,0,0,0,1.152-2.8,18.424,18.424,0,0,0-1.884-4.552,7.324,7.324,0,0,0-3.562-3.444,2.583,2.583,0,0,0-.813-.133A2.556,2.556,0,0,0,253.574,338.521Zm13.272,27.49c-4.4-.791-8.8-1.522-13.191-2.343a87.674,87.674,0,0,0-12.7-1.625c-8.756-.355-17.513-.259-26.27-.288-5.047-.156-10.079-.577-15.126-.769-2.469-.1-4.937-.281-7.405-.3-2.542-.037-5.077-.015-7.618.037h-.119c-3.451.007-6.887-.074-10.33-.2s-6.88-.2-10.316-.378c-7.117-.376-14.24-.465-21.364-.775-1.98-.082-3.961-.237-5.941-.3-2.291-.073-4.574-.118-6.858-.2-4.323-.155-8.616-.547-12.939-.458-3.1.059-6.185.059-9.274.059-1.271,0-2.542,0-3.813.007-4.16.008-8.313.274-12.481.451q-3.5.063-6.992-.1c-1.187-.238-2.375-.468-3.568-.678-2.608-.443-5.239-.768-7.855-1.093-3.776-.577-7.53-1.212-11.247-2.07-1.5-.428-2.986-.894-4.441-1.448l-.079-.031c-.466-.346-.917-.7-1.362-1.077-.687-.636-1.33-1.316-1.959-2.018q-.953-1.185-1.825-2.423c-.1-.148-.184-.3-.281-.451a21.05,21.05,0,0,1,8.033-3.843c5.926-2.734,12.348-1.936,18.622-2.52a4.569,4.569,0,0,0,6.244-3.332,4.83,4.83,0,0,0-.414-2.949,17.908,17.908,0,0,0-4.914-6.429c-1.81-1.537-3.68-2.97-5.586-4.382.133.1.266.192.4.3-.8-.621-1.582-1.242-2.313-1.936-.318-.333-.628-.665-.931-1.02-.067-.1-.141-.192-.207-.3a19.6,19.6,0,0,1,15.3-5.121,16.779,16.779,0,0,1-5.091-2.675,16.439,16.439,0,0,1-3-6.835c.273.48.569.953.886,1.4a29.488,29.488,0,0,0,5.321,5.69,41.492,41.492,0,0,0,6.769,5.018,21.13,21.13,0,0,0,6.214,2.283,4.672,4.672,0,0,0,1.523.288,3.569,3.569,0,1,0-1.116-6.909,3.9,3.9,0,0,0-.421.177c-.037-.007-.074-.022-.111-.03h.015c-.414-.1-.828-.228-1.234-.369-.244-.1-.481-.192-.725-.3-.6-.333-1.167-.7-1.736-1.086-.658-.488-1.308-.99-1.921-1.522a44.726,44.726,0,0,1-3.459-3.644c-.591-.746-1.175-1.5-1.707-2.291-.007-.014-.015-.022-.015-.029s.008.015.015.029a.251.251,0,0,1-.037-.059c-.377-.62-.717-1.248-1.034-1.9-.325-.783-.614-1.574-.88-2.379-.266-.976-.48-1.951-.657-2.949-.082-.687-.141-1.374-.163-2.076q.011-1.01.111-2.018a24.547,24.547,0,0,1,.5-2.623c.17-.569.355-1.131.577-1.685.148-.332.318-.657.5-.975.111-.17.222-.34.34-.5.34-.406.695-.79,1.071-1.174q.555-.489,1.131-.932c.776-.524,1.559-1,2.379-1.441.717-.339,1.449-.657,2.188-.931,1.019-.325,2.032-.591,3.074-.813-.192.037-.385.074-.577.1.281-.052.555-.1.836-.148.642-.1,1.293-.177,1.943-.236a23.737,23.737,0,0,1,2.4.059,73.424,73.424,0,0,1,9.436,1.707c.022.007.044.007.067.014s.044.015.074.023l.1.022c.761.251,1.5.532,2.246.827,1.256.607,2.476,1.242,3.7,1.914,2.579,1.648,5.077,3.385,7.538,5.218,4.057,3.362,7.87,7,11.579,10.737,2.35,2.5,4.656,5.062,7.035,7.53,2.439,2.542,4.907,5.054,7.368,7.574,1.2,1.234,2.409,2.476,3.613,3.71,1.4,1.426,2.771,2.919,4.286,4.212,1.486,1.263,2.978,2.483,4.515,3.68,1.323,1.027,2.727,1.973,4.064,2.971,3.341,2.7,6.5,5.682,10.073,8.054q1.329.876,2.7,1.685c1.057.621,2.114,1.308,3.229,1.825A19.972,19.972,0,0,0,185,345.667a22.373,22.373,0,0,0,3.569.591c.1.008.2.015.3.015a4.1,4.1,0,0,0,3.783-2.808,4.033,4.033,0,0,0,.178-.931c.251.185.495.377.746.561.192.348.392.695.584,1.05a13.169,13.169,0,0,0,.864,1.81,4.717,4.717,0,0,0,3.954,2.291,4.495,4.495,0,0,0,4.448-4.98,15.637,15.637,0,0,0-1.108-3.954c-.628-1.448-1.374-2.815-2.077-4.227a63.193,63.193,0,0,0-4.382-7.9c-1.47-2.143-3-4.235-4.426-6.4-.968-2.054-1.944-4.116-2.919-6.17-.48-1.042-.961-2.077-1.434-3.1.082.17.163.34.244.518a52.9,52.9,0,0,1-2.386-6.26,22.043,22.043,0,0,1-.451-2.32,25.463,25.463,0,0,1-.133-2.823c0-.1,0-.192.007-.28.059-.924.163-1.833.3-2.735.155-.753.339-1.485.561-2.224a26.252,26.252,0,0,1,1.064-2.52l.267-.532c-.089.178-.178.362-.267.54.488-.924,1.02-1.811,1.589-2.675.044-.067.089-.134.133-.193.421-.561.857-1.093,1.323-1.611.185-.192.384-.369.584-.539.133-.1.266-.192.406-.288.111-.059.229-.118.34-.17.214-.089.436-.163.65-.237.717-.17,1.434-.288,2.166-.406.4-.044.8-.1,1.189-.148l-.672.089a42.466,42.466,0,0,0,6.924-1.33c1.478-.451,2.919-.99,4.367-1.53.569-.214,1.123-.443,1.67-.7,3.577,1.153,7.294,2.2,10.42,4.309,3.391,2.86,7.094,5.313,10.707,7.892,3.614,2.808,7.464,6.436,12.4,5.9,5.587-.717,10.2-4.426,14.151-8.128,1.574-1.663,2.793-3.747,5.04-4.6.089.111.177.229.273.355.525.791,1.028,1.589,1.471,2.416q.565,1.131,1.02,2.306c.214.665.406,1.337.569,2.017.487,2.5.642,5.047.908,7.575.185,1.773.363,3.539.592,5.305a13.667,13.667,0,0,0,.99,4.013,14.009,14.009,0,0,0,3.17,4.545,35.421,35.421,0,0,0,6.17,4.182c.444.3.88.591,1.308.9.525.437,1.027.88,1.523,1.338,1.47,1.537,2.822,3.193,4.271,4.752,1.241,1.344,2.49,2.667,3.71,4.02.923,1.19,1.788,2.387,2.637,3.628.57.961,1.138,1.929,1.663,2.919.532,1.1,1,2.209,1.434,3.355.665,1.884,1.212,3.8,1.751,5.727.237,1.019.436,2.054.6,3.089.148,1.219.266,2.438.391,3.657a35.193,35.193,0,0,1-4.8.473,33.624,33.624,0,0,0-9.371,2.247c-3.842,1.337-8.446.347-11.52,3.554.776,2,2.2,3.88,2.889,5.927C269.831,366.55,268.346,366.277,266.846,366.011Z" style="fill:#fcb8a3"/><path d="M184.416,360.718h.02c-.085,0-.169,0-.257.007C184.26,360.719,184.337,360.718,184.416,360.718Z" style="fill:#fcb8a3"/><path d="M95.475,314.048c.126.044.244.088.37.14C95.719,314.144,95.6,314.1,95.475,314.048Z" style="fill:#fcb8a3"/><path d="M186.279,292.869c-.089.177-.177.354-.266.532C186.1,293.223,186.19,293.046,186.279,292.869Z" style="fill:#fcb8a3"/><path d="M84.805,288.59c-.074.126-.141.244-.222.37C84.657,288.834,84.731,288.716,84.805,288.59Z" style="fill:#fcb8a3"/><path d="M109.3,284.29l-.1-.026c-.032-.009-.065-.019-.095-.026l-.041-.01-.506-.138C108.814,284.156,109.058,284.223,109.3,284.29Z" style="fill:#fcb8a3"/><path d="M187.777,290.317c-.074.1-.14.207-.214.31C187.629,290.524,187.7,290.42,187.777,290.317Z" style="fill:#fcb8a3"/><path d="M189.743,287.982c-.1.074-.185.148-.274.222C189.558,288.122,189.647,288.056,189.743,287.982Z" style="fill:#fcb8a3"/><path d="M190.193,287.634c-.11.067-.221.141-.332.207C189.964,287.767,190.083,287.7,190.193,287.634Z" style="fill:#fcb8a3"/><path d="M193.016,286.814c-.059.008-.125.022-.192.03C192.891,286.836,192.95,286.822,193.016,286.814Z" style="fill:#fcb8a3"/><path d="M300.88,342.611c-.367-1.038-.734-2.075-1.123-3.1a9.193,9.193,0,0,1,2.764,3.649c.148,1.161.628,2.232.864,3.363a2.309,2.309,0,0,1-.928,2.393A34.206,34.206,0,0,0,300.88,342.611Z" style="fill:#fcb8a3"/><path d="M290.047,339c.037.074.074.141.111.214C290.121,339.146,290.084,339.072,290.047,339Z" style="fill:#fcb8a3"/><path d="M271.263,299.478c-.281-1.344-.525-2.712-.924-4.027a27.492,27.492,0,0,0-2.067-5.068,15.642,15.642,0,0,1,3.116,4.1,11.888,11.888,0,0,1,.292,7.345C271.555,301.042,271.42,300.258,271.263,299.478Z" style="fill:#fcb8a3"/><path d="M259.061,322.532l-.008.007c-.066,0-.14.008-.207.015Z" style="fill:#fcb8a3"/><path d="M245.722,322.525a.027.027,0,0,1,.023-.008c.095.008.192.008.288.022C245.929,322.532,245.826,322.532,245.722,322.525Z" style="fill:#fcb8a3"/><path d="M259.415,322.517l-.11-.022h0a.3.3,0,0,0-.052.015h-.008c.023-.008.037-.008.052-.015-.059-.015-.126-.022-.185-.037a2,2,0,0,1,.2.037l.111-.022-.1.022.126.022Z" style="fill:#fcb8a3"/><path d="M245.168,322.443a1.724,1.724,0,0,1-.185-.036c.059.014.126.022.185.036a.479.479,0,0,0-.052-.022h.008l.044.022.133.067Z" style="fill:#fcb8a3"/><path d="M246.631,322.244c-.125.044-.251.089-.384.133C246.373,322.333,246.5,322.288,246.631,322.244Z" style="fill:#fcb8a3"/><path d="M236.744,320.463c.037.066.074.133.111.207C236.818,320.6,236.781,320.529,236.744,320.463Z" style="fill:#fcb8a3"/><path d="M405.508,247.441a5.348,5.348,0,0,1-2.579-2.04c-3.606-2.786-8.335-4.308-12.577-5.594a44.873,44.873,0,0,1-12.488-4.973,8.172,8.172,0,0,0-.037-1.412,37.623,37.623,0,0,0-.665-4.256c.044.192.089.384.133.569a31.206,31.206,0,0,0-1.6-5.335c-.414-.976-.872-1.929-1.33-2.882.037.066.067.133.1.2-.169-.347-.332-.7-.494-1.057-.562-1.307-1.065-2.623-1.53-3.975-.54-1.574-1.131-3.126-1.67-4.7-.51-1.507-.835-3.044-1.2-4.589-.414-1.736-.938-3.436-1.456-5.15-.11-.429-.2-.858-.273-1.286-.074-.739-.089-1.471-.111-2.217,0-.1.008-.207.008-.311v-.162c0-.177.007-.348.007-.525V197.7a36.161,36.161,0,0,1,.281-3.673c.34-1.766.753-3.525,1.116-5.283v.015a.771.771,0,0,1,.029-.133c.015-.082.037-.171.052-.252v0c.074-.4.155-.8.236-1.2.606-2.986,1.294-5.949,1.693-8.964.2-1.5.347-3.007.5-4.515.155-1.537.244-3.1.51-4.633a1.926,1.926,0,0,0,.251-.436,1.7,1.7,0,0,0-2.379-2.114,2.954,2.954,0,0,0-1.138,1.855c-.17.554-.355,1.1-.518,1.655-.332,1.109-.657,2.225-1,3.333q-2.1,6.729-4.331,13.42c-.554,1.529-1.167,3.044-1.692,4.588-.081.237-.155.473-.229.7-.407.3-.82.61-1.245.9a31.259,31.259,0,0,0-2.634-2.109c-.732-.517-1.456-1.034-2.2-1.522a33.516,33.516,0,0,1-3.067-2.187c-1.419-1.3-2.712-2.727-4-4.161-.68-.857-1.337-1.707-1.98-2.594-.584-.812-1.138-1.64-1.729-2.445-.614-.85-1.272-1.663-1.9-2.5s-1.2-1.663-1.758-2.527c-.34-.636-.666-1.272-1-1.907-.377-.887-.8-1.774-1.123-2.683-.033-.093-.065-.187-.1-.28q.633-.326,1.258-.68a64.579,64.579,0,0,0,7.419-5.158l-.111.089c.037-.03.082-.06.119-.089.051-.045.11-.089.162-.133a.888.888,0,0,1-.1.081c.089-.066.177-.133.266-.207-.052.037-.1.074-.148.111,1.353-1.049,2.653-2.143,3.917-3.288,1.093-.991,2.187-1.988,3.31-2.949,2.365-2.01,4.708-4.034,7.021-6.118-.134.118-.259.236-.392.354,1.426-1.256,2.86-2.468,4.367-3.613a24.771,24.771,0,0,1,2.173-1.293c.014-.008.037-.015.051-.022l.045-.023a42.142,42.142,0,0,1,4.315-1.877c.421-.125.843-.244,1.271-.34,1.264-.221,2.55-.317,3.821-.5,1.219-.17,2.431-.421,3.635-.687a17.5,17.5,0,0,0,3.311-1.116c1-.466,1.951-1,2.912-1.552a22.106,22.106,0,0,1,1.958,2.535,1,1,0,0,1,1,.34.94.94,0,0,1,.362.665c.022.059.037.118.059.185a1.338,1.338,0,0,1-1,1.322c-5.239,8.07-10.419,16.723-12.252,26.285-1.071,10.168-1.781,20.462.266,30.416a38.481,38.481,0,0,0,20.255,24.836,28.115,28.115,0,0,0,8.454,2.468c1.094-.229,2.165-.51,3.274-.642a13.83,13.83,0,0,0,2.209-8.439,1.92,1.92,0,0,1-1.589-1.138c-.657-2.276-.9-4.678-1.507-6.984a6.549,6.549,0,0,0-.687-1.632c-.488-1.434.768-2.58,1.818-3.348a16.291,16.291,0,0,1,3.857-2.261,21.2,21.2,0,0,1,3.222-3.54,1.939,1.939,0,0,1,1.478-.584c1.079-1.522,2.394-2.778,4.086-2.113a239.93,239.93,0,0,0,19.59-21.97c1.862-2.8,3.629-6.783,5.771-9.192a3.283,3.283,0,0,0,2.639,1.914c.783.975,1.507,2,2.231,3.022.362.554.695,1.109,1,1.692.192.429.37.865.54,1.3.731,2.268,1.4,4.611,1.914,6.939.1.591.192,1.182.243,1.781.126,2.5.059,5.025-.007,7.522-.074,1.012-.185,2.01-.318,3.015-.354,1.87-.783,3.717-1.256,5.557-.465,1.818-.953,3.643-1.278,5.491-.695,3.916-1.072,7.862-1.663,11.786,0-.007.007-.015.007-.022-.243,1.4-.487,2.815-.687,4.227-.288.125-.569.251-.857.369-1.271.488-2.564.894-3.865,1.264-.51.1-1.012.2-1.522.3a52.587,52.587,0,0,1-5.269.4c-1.744-.022-3.466-.237-5.195-.421-1.241-.133-2.49-.229-3.739-.34h.015a1.038,1.038,0,0,0-.163-.015h-.007c-.613-.1-1.227-.2-1.84-.325-.909-.237-1.811-.517-2.712-.806-.983-.369-1.981-.717-2.949-1.115-1.1-.459-2.209-.917-3.31-1.375a1.566,1.566,0,0,0-1.242,2.875c.008,0,.015.007.023.007-.459.51-.917,1.02-1.4,1.515-.776,4.264-3.762,10.959-4.124,12.326-1.544,3.5-2.69,7.175-4.4,10.6a2.427,2.427,0,0,1-2.328,1.781A2.594,2.594,0,0,1,405.508,247.441Z" style="fill:#fcb8a3"/><path d="M352,187.171a2.653,2.653,0,0,1,.222.2Z" style="fill:#fcb8a3"/><path d="M421.949,222.707l1.766.7c1.426.562,2.845,1.116,4.3,1.589.061.02.121.039.182.057A28.123,28.123,0,0,1,421.949,222.707Z" style="fill:#fcb8a3"/><path d="M430.255,222.02l.215.021h0l-.016,0,.116.01C430.465,222.041,430.36,222.034,430.255,222.02Z" style="fill:#fcb8a3"/><path d="M367.668,145.159l-.009,0c-.111.054-.224.111-.341.164C367.433,145.274,367.552,145.215,367.668,145.159Z" style="fill:#fcb8a3"/><path d="M377.784,294.592a34.117,34.117,0,0,1-5.144-2.877,46.375,46.375,0,0,0,2.055-5.71c.68-2.143,1.235-4.315,1.789-6.488.48-1.9.857-3.82,1.234-5.734.258-1.316.51-2.624.768-3.932.3-1.5.506-3.019.669-4.538.892.829,1.806,1.636,2.745,2.41a11.713,11.713,0,0,1,3.06.725c5.867,2.468,10.759,6.709,16.715,8.941,1.522.377,3.059.7,4.6,1,.783.214,1.906.347,2.978.591,6.252-1.2,12.451-4.264,16.309-9.37,4.005-5.609,6.1-12.334,9.451-18.312a4.358,4.358,0,0,1,1.567-1.759c.051.932.118,1.863.192,2.786a44.857,44.857,0,0,0,1,7.7c1.034,4.035,2.15,8.122,4.559,11.58.9,1.286,1.922,2.483,2.823,3.776a23.271,23.271,0,0,0,2.269,2.889c-3.858,6.023-9.969,10.545-16.11,14.033a32.289,32.289,0,0,1-23.388,4.419,93.275,93.275,0,0,1-13.227,1.256c-.51.015-1.027.023-1.537.023A33.118,33.118,0,0,1,377.784,294.592Z" style="fill:#fcb8a3"/><path d="M433.468,96.851a.782.782,0,0,0,.643.887.805.805,0,0,0,.119.015.784.784,0,0,0,.768-.665c.089-.547.17-1.1.229-1.663a17.169,17.169,0,0,0,.155-2.387A26.442,26.442,0,0,0,434.1,85.9a.662.662,0,1,0-1.279.34,29.128,29.128,0,0,1,.761,2.978,21.561,21.561,0,0,1,.3,2.463l-.007-.01c.015.54.007,1.079-.015,1.626a.134.134,0,0,0-.007.052c0-.008.007-.015.007-.022,0,.022-.007.037-.007.051v-.029C433.742,94.516,433.587,95.684,433.468,96.851Zm-4.123-4.116c-.126.724-.244,1.441-.347,2.166-.059.361-.1.731-.141,1.1-.037.281-.059.562-.088.843a8.069,8.069,0,0,0-.03,1.123,5.4,5.4,0,0,0,.333,1.8,4.156,4.156,0,0,0,.421.857c.177.251.355.488.554.724a.722.722,0,0,0,.539.245.665.665,0,0,0,.348-.1.7.7,0,0,0,.266-.857l-.089-.222v.008a12.248,12.248,0,0,1-.391-1.256c.007.014.007.036.014.051-.066-.34-.125-.672-.162-1.012a.084.084,0,0,0-.008-.044c-.015-.481,0-.954.03-1.434v.007c.1-1.241.251-2.483.377-3.731.059-.614.1-1.234.133-1.855.029-.51.052-1.02.044-1.53v.1c0-.1-.007-.214-.007-.325v.1a21.105,21.105,0,0,0-.155-2.719,12.425,12.425,0,0,0-.533-2.387,10.11,10.11,0,0,0-.945-2.077,8.618,8.618,0,0,0-1.382-1.832,5.93,5.93,0,0,0-1.057-.872c-.273-.17-.554-.332-.835-.473q-.776-.377-1.574-.687c-.672-.266-1.33-.54-2-.8a.3.3,0,0,1-.067-.03c-.835-.362-1.662-.746-2.483-1.138-.34-.163-.68-.325-1.019-.495-.429-.207-.865-.406-1.279-.636.015.008.037.022.059.037-.1-.059-.206-.125-.3-.192a.6.6,0,0,0-.369-.347.586.586,0,0,0-.54.074.621.621,0,0,0-.059.968,1.334,1.334,0,0,0,.17.1.186.186,0,0,1,.074.044.365.365,0,0,0-.066-.037,12.708,12.708,0,0,0,1.367.725l1.153.576c.6.3,1.175.621,1.766.931.347.185.687.377,1.042.547s.731.355,1.1.532c.879.429,1.773.8,2.63,1.286-.022-.015-.037-.03-.059-.045.222.133.429.266.636.407a.094.094,0,0,0,.044.03.007.007,0,0,0,.007.007.025.025,0,0,0,.015.007v0c.141.118.281.244.421.362.2.207.385.407.57.621.273.355.517.732.753,1.108l-.007-.007c.2.333.369.672.539,1.02V84.1a.055.055,0,0,1,.008.022.136.136,0,0,1,.014.037c0,.008,0,.008.008.008v0c.17.428.325.857.458,1.308-.008-.03-.015-.059-.022-.1a15.026,15.026,0,0,1,.31,1.507c.074.547.126,1.1.155,1.655v.525c0,.207.015.414,0,.621-.022.362-.051.724-.074,1.086.008-.03.008-.067.015-.1C429.552,91.368,429.463,92.055,429.345,92.735Zm57.181,44.471c-.044,1.441-.111,2.875-.185,4.308-.051,1-.081,2-.155,2.993-.229,2.948-.436,5.9-.643,8.853a.782.782,0,0,0,.732.82h.059a.773.773,0,0,0,.761-.724q.354-4.444.695-8.883c.029-.339.037-.679.051-1.019l.111-2.128c.067-1.382.126-2.749.163-4.131a.8.8,0,0,0-.747-.835.435.435,0,0,0-.051,0A.8.8,0,0,0,486.526,137.206Zm5.6,11.21h.008c-.288.791-.562,1.589-.85,2.365a30.545,30.545,0,0,0-.975,3.03,23.863,23.863,0,0,0-.54,2.7,31.213,31.213,0,0,0-.251,5.38.746.746,0,0,0,.709.746h.022a.749.749,0,0,0,.732-.709c.074-.843.14-1.685.222-2.528.1-1.078.162-2.165.3-3.243l.045-.311a.053.053,0,0,0-.008.03c0-.015,0-.03.008-.037v0a.266.266,0,0,1,.007-.039l-.007,0a26.187,26.187,0,0,1,.679-3.008c.237-.768.5-1.544.776-2.313.185-.51.377-1.005.547-1.515a24.168,24.168,0,0,0,.894-3.436,18.645,18.645,0,0,0,.252-3.5c-.015-.857-.074-1.714-.163-2.564-.059-.554-.1-1.116-.192-1.67a30.586,30.586,0,0,0-.82-3.813c-.133-.45-.3-.9-.451-1.345-.126-.384-.266-.746-.414-1.116-.177-.45-.347-.908-.547-1.344-.229-.511-.465-1.028-.724-1.523a20.551,20.551,0,0,0-1.042-1.781,18.727,18.727,0,0,0-1.8-2.379c-.391-.429-.783-.865-1.175-1.3-.251-.273-.524-.539-.79-.8-.333-.332-.658-.657-1-.975-.369-.333-.731-.665-1.093-1-.437-.406-.887-.813-1.331-1.234a.742.742,0,1,0-1.064,1.035c.761.709,1.522,1.419,2.276,2.143.3.28.569.561.85.857.3.325.613.635.894.968-.022-.03-.044-.052-.066-.081.347.414.694.835,1.042,1.249a21.015,21.015,0,0,1,1.588,2.12c-.014-.022-.022-.044-.036-.066a26.211,26.211,0,0,1,1.5,2.66c-.015-.03-.037-.067-.052-.1.414.872.783,1.759,1.153,2.653.236.584.428,1.189.643,1.781.273.879.5,1.758.687,2.66,0-.022-.008-.052-.008-.074a35.7,35.7,0,0,1,.518,3.969,23.583,23.583,0,0,1,.029,2.8v-.1c-.052.643-.133,1.293-.244,1.929v-.022A24.361,24.361,0,0,1,492.127,148.416Zm-63.314,24.637a.486.486,0,0,0,.059.673.527.527,0,0,0,.311.1.444.444,0,0,0,.354-.17c.554-.694,1.086-1.4,1.611-2.113.229-.3.429-.621.643-.931.281-.414.562-.82.842-1.235a.475.475,0,0,0-.147-.65.492.492,0,0,0-.658.141c-.466.7-.946,1.4-1.426,2.091l.022-.022C429.892,171.649,429.36,172.358,428.813,173.053Zm39.3-8.72a.8.8,0,0,0-.347,1.064c.754,1.67,1.507,3.348,2.335,4.989.768,1.529,1.515,3.074,2.409,4.544a.65.65,0,0,0,.562.288.724.724,0,0,0,.3-.066.68.68,0,0,0,.326-.828,46.643,46.643,0,0,0-2.225-4.825c-.8-1.589-1.559-3.207-2.3-4.818a.778.778,0,0,0-.709-.429A.868.868,0,0,0,468.111,164.333Zm-33.948,12.9c-.251.311-.5.621-.754.939-.354.4-.7.79-1.056,1.175a.475.475,0,0,0,0,.672.485.485,0,0,0,.34.141.428.428,0,0,0,.325-.141c.391-.421.768-.872,1.167-1.286.451-.465.9-.931,1.323-1.426a18.207,18.207,0,0,0,1.2-1.522c.318-.458.628-.924.924-1.4.273-.429.517-.872.768-1.308.266-.473.547-.938.791-1.426a13.478,13.478,0,0,0,.7-1.648c.066-.207.133-.421.207-.628.3-.924.547-1.87.805-2.808.111-.414.215-.821.318-1.227.111-.436.229-.865.325-1.293.207-.88.407-1.751.621-2.623.222-.909.421-1.826.672-2.727.326-1.2.643-2.395.983-3.584a.571.571,0,0,0-.391-.687.561.561,0,0,0-.687.391c-.244.828-.473,1.655-.7,2.491-.14.5-.288,1.012-.421,1.514-.325,1.257-.65,2.505-.99,3.754-.318,1.182-.643,2.358-.983,3.54-.362,1.286-.731,2.564-1.138,3.843a13.481,13.481,0,0,1-.628,1.433c-.288.547-.6,1.086-.9,1.641-.444.805-.932,1.581-1.449,2.342l.022-.022C435.109,175.98,434.651,176.622,434.163,177.228ZM384.135,193.22a.566.566,0,0,0,.562.5.212.212,0,0,0,.066-.007.577.577,0,0,0,.5-.555c.023-.82.045-1.64.06-2.453.014-1.323.029-2.645.125-3.961.1-1.093.222-2.194.4-3.281s.37-2.158.6-3.229l-.022.089c.207-.939.428-1.87.665-2.8.1-.392.192-.783.3-1.175.184-.628.369-1.256.547-1.892.221-.768.443-1.537.672-2.305.2-.7.421-1.4.643-2.092a.642.642,0,1,0-1.234-.354c-.229.694-.451,1.389-.658,2.091l-.687,2.305c-.185.629-.37,1.257-.562,1.885-.11.384-.214.776-.317,1.168-.185.694-.363,1.389-.533,2.091-.369,1.574-.7,3.155-.931,4.751-.125.857-.236,1.715-.31,2.579-.044.628-.066,1.264-.081,1.892-.022,1.293.051,2.579.125,3.865v-.089C384.076,192.569,384.106,192.894,384.135,193.22Zm-2.608.273a.671.671,0,0,0,.643.428.619.619,0,0,0,.258-.051.688.688,0,0,0,.4-.813c-.236-.924-.465-1.847-.724-2.764-.2-.739-.377-1.485-.532-2.231v.014a19.37,19.37,0,0,1-.355-2.446,21.831,21.831,0,0,1,.045-2.778v.007a77.422,77.422,0,0,1,1.13-7.678l-.007.008c.244-1.1.458-2.2.687-3.3v.007a39.845,39.845,0,0,1,1.219-4.278c-.014.037-.029.081-.044.118a40.5,40.5,0,0,1,1.788-4.16.969.969,0,0,1-.059.1c.547-1.012,1.05-2.047,1.619-3.052.894-1.6,1.78-3.221,2.822-4.751v.007a30.216,30.216,0,0,1,2.321-2.926c1.81-1.966,3.82-3.747,5.771-5.587a.6.6,0,0,1-.074.059c.894-.724,1.774-1.455,2.66-2.187.51-.414,1.013-.828,1.523-1.242.591-.48,1.2-.938,1.81-1.4a.714.714,0,0,0,.133-.991.706.706,0,0,0-.99-.14c-.636.48-1.271.961-1.892,1.463-.584.466-1.16.931-1.736,1.4s-1.16.938-1.737,1.411c-.244.192-.5.377-.717.584-.842.776-1.692,1.544-2.534,2.313-1.22,1.123-2.446,2.239-3.562,3.466a33.632,33.632,0,0,0-4.065,5.549c-1.234,2.114-2.49,4.227-3.554,6.429a32.9,32.9,0,0,0-1.663,4.065c-.206.642-.4,1.285-.576,1.943-.118.473-.251.946-.355,1.433l-.687,3.281c.008-.007.008-.022.015-.029-.155.71-.251,1.441-.377,2.158-.17,1.034-.347,2.061-.48,3.1-.126,1.02-.229,2.04-.266,3.067a17.059,17.059,0,0,0,.081,3.074,22.814,22.814,0,0,0,.606,2.927c.222.79.488,1.551.754,2.327-.008-.029-.023-.066-.03-.1C381.032,192.059,381.283,192.776,381.527,193.493Zm85.956,4.123a19.678,19.678,0,0,0-1.2,2.188.713.713,0,0,0,.274.886.682.682,0,0,0,.362.1.717.717,0,0,0,.488-.192c.414-.414.805-.843,1.175-1.293.31-.377.591-.761.872-1.153a22.974,22.974,0,0,0,2.106-3.614,17.323,17.323,0,0,0,.79-2.061,10.331,10.331,0,0,0,.377-1.56,13.849,13.849,0,0,0,.111-3.125c-.022-.289-.044-.584-.066-.872-.023-.244-.03-.481-.059-.717-.06-.51-.134-1.02-.208-1.537s-.184-1.013-.28-1.515a22.521,22.521,0,0,0-.835-3.192,16.87,16.87,0,0,0-1.722-3.466c-.266-.421-.517-.85-.783-1.264-.281-.436-.562-.864-.843-1.3-.266-.422-.562-.828-.842-1.242-.259-.391-.532-.768-.806-1.153a23.248,23.248,0,0,1-1.463-2.335.022.022,0,0,0,.008.015c-.008-.007-.008-.015-.015-.015h.007a.023.023,0,0,1-.007-.015v.015c-.008-.022-.022-.044-.03-.066a.58.58,0,0,0,.03.051c-.259-.495-.481-1-.7-1.5-.251-.569-.5-1.13-.717-1.707a.817.817,0,0,1,.037.082,24.85,24.85,0,0,1-.894-2.882c.007.022.014.051.022.074a23.2,23.2,0,0,1-.384-2.358c0-.022-.008-.037-.008-.059a23.53,23.53,0,0,1-.111-2.882v.022c.008-.288.03-.576.052-.864.022-.1.037-.2.052-.3.007-.007.007-.007.015-.007a.715.715,0,1,0-1.087-.673.849.849,0,0,0,.023.274,10.52,10.52,0,0,0-.17,1.884c-.015.776-.008,1.552.044,2.328a21.934,21.934,0,0,0,.288,2.5c.126.687.281,1.374.473,2.054a32.71,32.71,0,0,0,1.071,3.1,21.255,21.255,0,0,0,1.168,2.527c.466.828,1,1.6,1.53,2.395.325.48.643.968.968,1.455.672,1,1.3,2.04,1.921,3.067-.015-.03-.037-.059-.052-.089a19.464,19.464,0,0,1,.946,1.737c0-.007-.007-.015-.007-.022a19.212,19.212,0,0,1,1.16,3.828c.044.273.1.546.141.82s.11.547.14.813c.052.547.118,1.086.17,1.633.059.916.1,1.832.066,2.749a13.53,13.53,0,0,1-.177,1.448c-.081.407-.185.783-.3,1.175-.007.015-.014.022-.014.03,0-.008.007-.015.014-.03-.007.015-.007.03-.014.037-.17.5-.37,1-.592,1.493.008-.008.008-.015.015-.023-.34.725-.717,1.427-1.123,2.114a.967.967,0,0,1,.067-.1C468.466,196.087,467.978,196.855,467.483,197.616Zm7.833-3.037q-.676,2.394-1.448,4.759c-.518,1.567-1.042,3.133-1.53,4.715a.667.667,0,0,0,.488.8.548.548,0,0,0,.155.022.7.7,0,0,0,.613-.421c.377-.843.732-1.7,1.072-2.557.111-.273.221-.54.31-.82.148-.429.288-.857.429-1.286.524-1.567.983-3.156,1.433-4.752a.809.809,0,0,0-.532-.99.735.735,0,0,0-.222-.029A.805.805,0,0,0,475.316,194.579Zm-70.911,36.786c-12.814-2.032-22.317-13.095-28.095-24.046-8.424-20.795-1.656-44.567,11.394-61.888,5.772-7.22,14.632-10.553,21.719-16.161,7.544-6.2,15.828-14.957,14.262-25.51-.163-2.7-1.124-5.327-1.02-8.024.17-3.341.894-7.279-1.87-9.792-4.47-5.062-12.038-3.569-17.166-7.6-7.744-5-14.624-13.1-15.2-22.494a7.306,7.306,0,0,0-1,.88c-1.412,1.234-2.269,2.867-3.444,4.2,0,.008-.007.008-.007.015a24.861,24.861,0,0,0-2.934,9.222c-.909,6.082-.739,12.348-2.734,18.223-1.958,5.757-4.781,11.351-4.715,17.58-.022,10.08,8.277,20.218,18.578,20.728a1.332,1.332,0,0,1-.059,2.594,11.609,11.609,0,0,1-1.959.236,14.311,14.311,0,0,1-1.478,8.461,1.414,1.414,0,0,1-1.6.865c-2.557-.82.54-5.439.444-7.323a17.338,17.338,0,0,0,.155-2.224c-9.355-1.767-16.967-12.77-17.159-21.881-.273-10.39,6.584-19.339,6.237-29.721.052-.569.118-1.146.192-1.715a.936.936,0,0,1-.613-.827,9.28,9.28,0,0,1-.015-1.013,1.814,1.814,0,0,1-.111-.273,51.985,51.985,0,0,1-1.988-8.114,24.756,24.756,0,0,1,16.021-27.157,10.312,10.312,0,0,1,6.2-.029c1.559.088,2.978-.555,4.456-.9,6.858-1.965,14.129-.525,21.075.288,8.535,1.36,15.954,7.375,20.292,14.684,4.56,7,5.372,15.178,6.407,23.2,1.589,5.971,3.939,12.119,8.469,16.464,8.342,7.138,18.946,11.2,26.743,18.969,7.278,7.146,14.291,15.629,15.769,26.041,1.375,7.2-1.744,14.2-1.744,21.386-.007,10.441,2.247,20.654,1.988,31.073-.414,12.437-7.73,23.714-16.3,32.286-6.111,5.039-14.786,6.347-22.486,6.089a1.988,1.988,0,0,0-1.567.015,2.064,2.064,0,0,1-1.5.059c-1.936-1.382-2.084-4.035-1.633-6.422-.192-1.936,1-5.476,1.1-6.621,1.618-5.941,1.766-12.038,3.022-18.031,1.109-5.084,3.355-10.308,2.114-15.555-1.412-5.638-7.257-8.779-8.676-14.5-1.278.133-2.549-.584-3.761-.7a3,3,0,0,0-1.929.968c-7.589,9.576-12.5,21.1-22,29.093-4.1,4.33-9.688,6.938-14.35,10.522a2.614,2.614,0,0,0-.88,1.574c-.111,4.892,1.789,9.666,1.449,14.565.17,4.109-2.875,8.314-7.094,8.314A6.577,6.577,0,0,1,404.405,231.365Z"/><path d="M385.891,80.814c-1.407-3.172-3.147-4.836-6.28-2.407a1.262,1.262,0,0,1-2.27-1.1c.259-.574,1.1-.743,1.449-1.131a5.482,5.482,0,0,1,2.7-1.433,4.523,4.523,0,0,1,5.025,2.542,8.885,8.885,0,0,1,.776,3.148.74.74,0,0,1-1.4.384Z"/><path d="M383.691,87.126a8.745,8.745,0,0,0-.858-3.117,4.01,4.01,0,0,0-4.6-.553.812.812,0,0,1-1.326-.934c2-2.417,6.34-2.687,7.825.407a7.032,7.032,0,0,1,.34,4.19.7.7,0,0,1-1.382.007Z"/><path d="M376.853,92.527c-.645-1.621.094-3.432.3-5.085.541-2.274.82-4.874,2.52-6.621a.959.959,0,0,1,1.443,1.2C382.83,83.2,379.811,96.22,376.853,92.527Z"/><path d="M411.511,87.688c-1.473-1.916-2.8-4.231-5.169-5.141a6.438,6.438,0,0,0-4.566.843,1.047,1.047,0,0,1-1.542-.181c-.834-1.761,2-1.956,3.1-2.385a7.237,7.237,0,0,1,8.877,3.708C412.725,85.466,413.617,88.911,411.511,87.688Z"/><path d="M408.242,93.157c-.648-1.789-1.6-3.788-3.706-4.023a3.688,3.688,0,0,0-1.843.276c-.783.29-1.737,1.419-2.461.436-.557-.882.432-1.43,1.086-1.81a5.184,5.184,0,0,1,5.181-.724,6.113,6.113,0,0,1,3.428,5.253A.9.9,0,0,1,408.242,93.157Z"/><path d="M400.96,96.673a2.4,2.4,0,0,1,.007-.282c-.844-2.9-.546-7.125,2.19-8.887.734-.622,1.862.041,2.106.812a2.607,2.607,0,0,1,.145,2.009c-.406,2.277-.654,4.641-1.744,6.7l-.011-.009A1.391,1.391,0,0,1,400.96,96.673Z"/><path d="M401.944,97.873c-2.274-2.185-1.217-7.226.8-9.354.78-1.084,2.142.531.94,1.113a9.653,9.653,0,0,0-1.038,5.69c.453-1.677.688-3.424,1.273-5.068a.592.592,0,0,1,.665-.384.583.583,0,0,1,.458.606,23.4,23.4,0,0,1-.524,4.049C404.267,95.916,404.016,98.712,401.944,97.873Z"/><path d="M386.421,102.081a3.271,3.271,0,0,1-.088-4.567c.739-.942,2.272-.693,2.882-1.7a.3.3,0,0,0-.062.154.617.617,0,0,1,.941-.368c.56.438.081,1.235-.17,1.729-.509.865-1.627,1.047-2.272,1.69a2,2,0,0,0,.484,1.547A1.158,1.158,0,0,1,386.421,102.081Z"/><path d="M387.806,110.3c-2.165-.451-3.836-2.119-5.454-3.525a.767.767,0,0,1,1.013-1.153,9.4,9.4,0,0,0,4.794,2.852c1.894.13,3.616-.535,5.455-.775a.881.881,0,0,1,1,.561C394.979,110.275,389.2,110.548,387.806,110.3Z"/><path d="M388.324,142.55c-1.284-.352-1.761-1.729-2.115-2.886a1.587,1.587,0,0,1-.25-1.74,1.544,1.544,0,0,1,2.8,1.3l0,.006a2.272,2.272,0,0,0,.784.882A1.379,1.379,0,0,1,388.324,142.55Z"/><path d="M440.912,229.522c-9.565-.989-20.246-4-25.813-12.451.252-6.9,3.474-13.688,6.5-19.842a.8.8,0,1,1,1.434.71c-.873,1.666-1.708,3.336-2.43,5.018a82.573,82.573,0,0,0-3.409,13.353c7.4,7.948,21.347,10.711,31.629,8.424,2.68-.689,4.695-2.81,7.227-3.865a1.3,1.3,0,0,1,1.537.3c.948,1.125-.449,2.174-1.124,3.007C452.651,228.7,446.549,229.788,440.912,229.522Z"/><path d="M405.734,248.559c-9.255-4.078-18.732-7.612-28.162-11.3-5.027-2.511-9.542-5.975-14.833-8-2.048-.84-4.163-1.515-6.2-2.372a1.516,1.516,0,0,1,.975-2.844c7.847,1.474,14.66,5.893,21.474,9.709,9.484,3.7,19.321,6.988,28.011,12.226,3.464-8.937,6.971-17.992,11.185-26.582.8-1.172,2.408.422,1.174,1.218-2.214,7.7-5.207,15.134-8,22.642C410.344,245.7,409.183,249.775,405.734,248.559Z"/><path d="M407.087,279.389c-7.781-.756-14.7-5.2-21.127-9.3a121.882,121.882,0,0,1-32.736-23.322,103.113,103.113,0,0,1-7.7-7.352c-.629-.7.684-1.567,1.059-.685,10.409,6.952,18.9,16.588,29.759,22.891,11.939,5.74,31.373,22.732,43.732,10.774a70.348,70.348,0,0,0,11.731-17.6c4.719-8.854,8.827-18.1,14.084-26.64a5.894,5.894,0,0,1,1.116-1.337,1.536,1.536,0,0,1,2.454,1.64c-6.142,10.642-11.427,21.764-17.434,32.481C426.624,270.219,419.192,280.761,407.087,279.389Z"/><path d="M321.105,229.456c-3.541.065-19.207-3.161-15.289-8.535,2.9-1.588,6.577-1.259,9.755-1.241,8.8-.219,18.68.147,25.96-5.543,2.257-4.1-2.554-8.729-3.23-12.754.182-5.686,6.943-1.7,9.148.5,2.232,1.987,3.565,4.759,5.025,7.316,2.163,4.188,1.928,9.314,4.148,13.384.229.389.626.619.863,1a1.022,1.022,0,0,1-.592,1.866c-4.114-2.283-4.314-7.9-5.771-12.011-1.884-5.257-4.962-11.312-10.64-13.048-.09.062-.178.125-.264.191l-.032.028a3.418,3.418,0,0,0,.442,2.4c1.443,3.577,3.821,7.694,2.588,11.61-2.052,3.034-5.884,4.625-9.157,6.067-4.278,1.595-8.874,1.163-13.323,1.441-4.366.3-8.867-.849-13.107.484a3.721,3.721,0,0,0,1.069.972c5.091,2.663,10.973,2.978,16.6,3.273a1.026,1.026,0,0,1,.947.791C326.493,229.558,322.4,229.478,321.105,229.456Z"/><path d="M325.122,233.834c-6.028.129-11.217-3.034-15.666-6.784a8.547,8.547,0,0,0-1.344-.839.772.772,0,0,1-.748-.7.78.78,0,0,1,1.172-.727c4.661,2.11,8.464,6.308,13.808,6.608a47.852,47.852,0,0,1,7.285.873.778.778,0,0,1,.628.784.762.762,0,0,1-.694.724A22.34,22.34,0,0,1,325.122,233.834Z"/><path d="M335.4,240.184a29.789,29.789,0,0,1-19.162-7.759c-.463-.489-1.564-1.285-.776-1.944a.665.665,0,0,1,.935.185c1.078,1.352,2.8,1.794,4.216,2.7,2.545,2.038,5.641,2.579,8.735,3.245a57.542,57.542,0,0,0,9.244.975,25.323,25.323,0,0,1,5.9.517,1.045,1.045,0,0,1,.717,1.042c-.229,1.594-2.351.892-3.481,1.013C339.513,240.078,337.569,240.341,335.4,240.184Z"/><path d="M303.287,222.791c-11.12-2.364-22.44-4.823-32.189-10.959-4.569-2.879-9.536-5.975-11.971-10.988a16.2,16.2,0,0,1,4.611-20.189c10.346-4.254,22-2.419,32.655-.1,9.87,1.908,19.8,3.979,29.107,7.863,4.889,2.244,8.994,5.592,13.745,7.973.756.347,1.465,1.314.805,2.077-.726.772-1.577.1-2.165-.473-4.068-3.371-9.02-5.441-13.754-7.639a143.611,143.611,0,0,0-44.36-9.082c-3.9.213-7.978-.672-11.584,1-3.2.349-4.979,2.955-6.623,5.432-4.525,9.749,5.144,18.029,12.936,22.22,6.667,4.24,14.37,6.2,21.894,8.334,2.461.626,4.943,1.215,7.425,1.782a1.4,1.4,0,1,1-.532,2.749Z"/><path d="M328.267,212.052c-3.076-.616-6.569-1.454-8.387-4.25-1.524-2.282-1.272-6.1,1.574-7.19,4.125-1.333,8.835,1.1,11.077,4.626C335.265,209.873,333.74,212.632,328.267,212.052Z"/><path d="M308.825,214.663c-2.891.3-5.749-4.173-5.772-6.754.081-2.177.389-5.485,3.171-5.609,2.066-.073,4.775.046,6.067,1.892,1.711,2.381,3.86,6.63,1.063,8.933C312.4,214.654,310.438,214.712,308.825,214.663Z"/><path d="M286.494,208.634c-1.356-.623-2.969-1.661-3.1-3.281.192-1.937,1.408-4.663,3.665-4.648,2.658-.088,4.94,1.35,7.16,2.623a2.227,2.227,0,0,1,.225,3.805A7.364,7.364,0,0,1,286.494,208.634Z"/><path d="M297.425,201.026a8.267,8.267,0,0,1-3.1-2.254c-2.546-.71-4.812-2.16-7.118-3.348a3.063,3.063,0,0,0-1.618-.219c-3.031.762-6.445,1.521-9.219-.394a7.694,7.694,0,0,1-3.222-5.572A6.991,6.991,0,0,1,279,184.118c4.873-.851,9.812.225,14.461,1.707,2.121.673,4.382,1.249,5.972,2.926,1.843,2.25,3.583,4.895,4.027,7.811A4.446,4.446,0,0,1,297.425,201.026Z"/><path d="M271.031,202.965c-3.557.067-5.905-4.192-4.936-7.381,2.158-4.826,9.708-.155,10.862,3.385C277.79,202.336,273.771,204.229,271.031,202.965Z"/><path d="M315.078,199.954c-4.651.131-10.065-2.634-10.33-7.773a3.326,3.326,0,0,1,2.231-3.8c5.169-1.827,13.647,4.061,10.862,9.754C317.46,199.323,316.449,200.441,315.078,199.954Z"/><path d="M354.846,195c-7.625-1.447-16.2-14.252-18.866-21.208-.743-2.965-4.243-7.728-.324-9.555,7.823-4.076,14.348-10.435,20.823-16.361,6.111-6.023,13.805-12.663,22.978-10.421,1.223.116,9.784-.315,6.9,1.879a.638.638,0,0,1-.5-.138c-2.942.066-5.89.185-8.836.2a11.624,11.624,0,0,0-7.522,1.345c-5.046,2.63-9.189,6.7-13.05,10.811-6.371,5.58-12.849,11.244-20.458,15.07-.082,2.55,1.391,5.006,2.1,7.4,1.161,3.526,3.716,6.263,5.964,9.121,3.108,3.165,6.062,6.972,10.16,8.836.886.436,2.331,1.116,1.869,2.32A1.167,1.167,0,0,1,354.846,195Z"/><path d="M370.841,229.256c-4.309-13.329-12.369-26.67-7.509-41,1.987-7.166,5.2-13.954,6.023-21.371a.918.918,0,0,1,1.818.251c-3.421,20.59-12.132,25.7-2.748,48.077.728,2.768,7.086,13.351,3.923,14.772A1.274,1.274,0,0,1,370.841,229.256Z"/><path d="M354.77,194.664a1.018,1.018,0,0,1,.5-1.565c1.484-.936,2.535-2.46,4.278-2.995a1.55,1.55,0,0,1,1.544,2.646,9.648,9.648,0,0,1-5.048,2.171A1.006,1.006,0,0,1,354.77,194.664Z"/><path d="M397.576,300.221c-5.894-.248-11.9-.76-17.255-3.406-4.339-1.725-13.722-5.182-12.481-11.063,4.232-7.044,4.339-15.331,6.634-23.039.084-.553.493-1.3,1.134-.9h.036a.478.478,0,0,1,.176.915c0,.054,0,.108-.006.1.459,6.862-2,13.728-4.331,20.093-.638,1.508-2.415,3.395-1.033,4.946,8.943,7.427,21.565,9.791,32.883,8.429,12.3-.771,25.4-3.249,35-11.343a47.8,47.8,0,0,0,9.777-9.141c.6-.7,1.219-1.367,1.869-2.01a.991.991,0,0,1,1.648.953,10.045,10.045,0,0,1-.849,2.328c-4.607,7.127-11.883,12.662-19.236,16.745C420.826,298.4,409.144,300,397.576,300.221Z"/><path d="M450.937,276.025c-.9-.506-.52-1.573-.373-2.374-.109-.659-.8-1.137-1.046-1.779-4.792-7.325-8.887-15.36-10.828-23.906a.662.662,0,1,1,1.273-.059,24.562,24.562,0,0,0,1.315,2.75c2.244,4.453,4.5,8.887,6.931,13.208a61.034,61.034,0,0,1,4.779,7.54,3.721,3.721,0,0,1,.439,2.936C453.1,275.308,452.076,276.662,450.937,276.025Z"/><path d="M340.68,459.827c-2.6-.6-.784-5.708-.849-7.655,1.306-10.345,2.328-20.717,3.51-31.074,2.591-20.462,4.3-41.066,8.7-61.253,5.089-23.211,9.686-46.848,17.651-69.252.148-2.083,3.453-.977,2.026.832a711.556,711.556,0,0,0-21.93,105.3c-2.249,16.415-4.372,32.856-5.808,49.37C343.346,448.818,343.84,460.2,340.68,459.827Z"/><path d="M421.133,464c-6.109-39.157-8.117-79.226-17.836-117.7-.808-1.358,1.326-2.562,1.9-.953,7.876,28.194,11.4,57.335,15.7,86.222,1.186,10.706,3.944,21.373,3.672,32.182A1.771,1.771,0,0,1,421.133,464Z"/><path d="M484.734,460.225c-2.754-14.283-3.626-28.864-5.956-43.221-2.749-18.324-6.529-36.481-8.763-54.876-4.4-28.809-3.554-60.588-20.551-85.527-1.3-1.254.719-3.387,2.026-2.026,20.853,28.585,18.415,66.059,24.4,99.443,4.635,26.229,8.809,52.567,11.462,79.084.243,2.217.561,4.426.679,6.658a1.679,1.679,0,0,1-3.3.465Z"/><path d="M446.711,396.636c-2.236-.171-4.938-.891-5.912-3.133-.952-4.381-1.127-8.969-1.98-13.4-.245-1.571-1.1-3.482.11-4.848a29.067,29.067,0,0,1,7.789-3.569c7.365-2.143,15.254-3.739,21.356-8.572,1.59-1.256,3.559,1.263,1.921,2.482-8.308,6.909-19.019,8.491-29.039,11.554.678,4.434,1.742,8.853,2,13.342.1.785-.275,1.77.414,2.35,6.317,2.848,12.984-1.319,19.205-2.586,2.837-.528,5.329-2.02,8.025-2.919a1.325,1.325,0,0,1,1.471.6,1.3,1.3,0,0,1-.325,1.677c-3.218,2.855-7.471,3.749-11.558,4.6C455.77,395.339,451.342,397.021,446.711,396.636Z"/><path d="M454.2,428.316c-8.437-4.107-8.552-14.69-8.484-22.841-.113-3.2-.375-6.105-.717-9.23a1.161,1.161,0,0,1,2.3-.325c2.007,9.781-1.446,31.727,14.2,29.063,3.2-.2,6.777-.029,9.584-1.788,6.988-5.276,4.4,2.291.185,4.228A28.658,28.658,0,0,1,454.2,428.316Z"/><path d="M467.033,419.149c-2.124-4.893-2.51-10.28-3.178-15.518-.185-2.084-.53-4.162-.6-6.252a1.128,1.128,0,0,1,1.1-1.123c1.012.009,1.193.967,1.124,1.714.773,6.813,2.5,13.644,3.2,20.433C469.035,419.47,467.546,420.253,467.033,419.149Z"/><path d="M471.477,411.522c-1.222-4.662-2.189-9.375-3.325-14.055a1.354,1.354,0,1,1,2.608-.732c.735,3.07,1.462,6.14,2.107,9.2.057,1.55,1.831,5.867-.178,6.37A1.1,1.1,0,0,1,471.477,411.522Z"/><path d="M440.048,310.622c-3.557-.105-7.363-1.292-9.748-4.05a42.871,42.871,0,0,1-5.46-12.052,1.3,1.3,0,1,1,2.433.922c1.7,3.422,3.3,7.047,5.614,10.088,4.181,3.328,9.932,2.548,14.817,1.7.009-.092.019-.184.028-.278,0-.018-.009-.036,0-.034-.649-1.532-1.592-3-1.71-4.694-5.055.366-11.683-2.54-12.582-8a1.479,1.479,0,0,1,2.505-1.057,22.627,22.627,0,0,1,1.917,2.541,13.067,13.067,0,0,0,8.528,4.186,2.681,2.681,0,0,1,1.919.522c.9,1.249.4,3.176,1.057,4.574C451.822,310.536,443.666,310.755,440.048,310.622Z"/><path d="M391.3,462.466c-2.223-.978-.485-4.139-.524-5.971.24-1.673.521-3.547.857-5.143,1.663-8.259,3.341-16.3,5.217-24.489,2.087-10.029,5.462-19.732,7.752-29.714,1.538-6.643,3.222-13.3,6.118-19.494a.469.469,0,0,1,.621-.251c.749.583-.392,1.8-.454,2.568a77.9,77.9,0,0,0-2.044,9.78c-2.655,16.2-8.171,31.876-10.936,48.033-.96,4.607-1.862,9.3-2.787,13.887C394.362,453.921,394.421,463.182,391.3,462.466Z"/><path d="M347.821,430.484a1.708,1.708,0,0,1,.835-3.163,29.033,29.033,0,0,0,4.582-.168c1.882-10.563,3.18-21.677,5.527-32.162,1.2-6.253,2.572-12.842,2.9-19.131.586-5.54-1.436-9.262-6.627-11.357a1.549,1.549,0,0,1-.4-3.068c7.7,2.117,10.641,6.857,9.822,14.765-.836,13.621-4.319,26.816-5.971,40.288-.97,4.32-.328,9.645-3.267,13.168-1.085.834-2.561.805-3.865,1.02C350.239,430.821,348.865,431.122,347.821,430.484Z"/><path d="M356.526,385.991a35.178,35.178,0,0,0-4.89-1.8,1.425,1.425,0,0,1-1.184-1.566c.534-2.755,5.522.149,7.256.525A1.537,1.537,0,0,1,356.526,385.991Z"/><path d="M367.779,306.935c-1.206.046-2.649-.657-2.483-2.047a1.632,1.632,0,0,1,2.82-.877c3.788-.943,5.816-3.994,7.637-7.156a1.488,1.488,0,0,1,1.736-.465c2.6,1.334-1.6,7.093-3.081,8.328A11.433,11.433,0,0,1,367.779,306.935Z"/><path d="M.835,455.59C.079,445.028,1.021,434,.91,423.622c.076-12.559-.427-25.1-.584-37.665C-.619,359.2.743,332.692,1.212,306c.637-19.119-.1-37.671.045-56.693.576-22.793.355-45.246.207-67.918,1.322-21.848,1.1-43.728.871-65.606.678-19.311.446-38.489.792-57.75.073-3.768.125-7.537.288-11.3a1.467,1.467,0,0,1,2.926.221c-.251,4.39-.244,8.779-.3,12.969-.173,8.587.511,17.156.651,25.738-.269,17.556-.516,34.966-.037,52.467.393,22.851-1.366,46.14-.348,68.886-.408,47.425.523,94.747-1.138,142.1-.628,27.88,1.345,55.9.783,83.666-.1,7.652-.332,14.757-.236,22.191a2.5,2.5,0,0,1-1.988,2.564A2.482,2.482,0,0,1,.835,455.59Z"/><path d="M305.443,179.639c-5.967-.182-11.015-4.03-16.339-6.334-10.683-5.581-20.772-12.541-30.859-19.02a92.012,92.012,0,0,1-10.516-7.634c-.384-.377-.99-.776-.99-1.367.019-1.256,2.072-1,2.195-.023,11.714,6.984,23.554,13.76,35.322,20.663,6.274,3.378,12.43,7.718,19.133,10.015,10.173,1.321,19.2-4.582,28.4-7.91a1.709,1.709,0,0,1,2.114.717c1.462,3.163-6.065,4.28-8.048,5.432C319.2,176.926,312.707,179.773,305.443,179.639Z"/><path d="M340.887,198.638a.93.93,0,0,1,.576-1.234c2.907-1.15,4.951-3.481,7.693-4.855a1.471,1.471,0,0,1,1.625,2.438c-2.55,2.023-5.726,2.925-8.69,4.146A.943.943,0,0,1,340.887,198.638Z"/><path d="M246.616,144.942c-1.976-4.87-2.341-10.16-3.442-15.248-.773-3.213-2.032-6.476-4.952-8.159-.85-.679-2.584-1.321-2.117-2.675.925-1.615,3.087-.006,4.293.5,4.287,2.545,5.075,7.986,5.964,12.476a73.167,73.167,0,0,1,1.98,12.6A.981.981,0,1,1,246.616,144.942Z"/><path d="M261.433,185.172c-9.937-8.475-18.394-18.674-27.247-28.191-3.451-1.905-7.34-3.049-10.454-5.548a1.019,1.019,0,0,1-.31-1.183c.926-1.639,4.222.882,5.653,1.146,5.137,1.589,9.125,5.132,12.171,9.421a138.232,138.232,0,0,0,9.99,10.945c3.933,3.787,7.409,8.067,11.263,11.89C263.978,184.256,262.533,186.388,261.433,185.172Z"/><path d="M213.548,142.792c-3.4-1.4-10.2-4.015-9.162-8.611a.685.685,0,0,1,.85-.56.678.678,0,0,1,.45.916c.061,3.894,8.678,8.13,12.19,7.265,1.207-.159,1.342-1.372.794-2.24-2.583-3.979-7.852-4.265-12-5.55a1.263,1.263,0,0,1-.916-1.359c.455-1.964,2.821-.7,4.086-.37,2.963.917,6.113,1.746,8.491,3.85C223.545,140.828,219.5,145.272,213.548,142.792Z"/><path d="M222.421,136.18c-1.118-5.132-9.549-7.853-14.18-8.117-1.747-.082-1.2,2.209-1.036,3.313a.821.821,0,0,1-.141,1.564c-.614.2-1.072-.423-1.328-.875-2.766-5.523,1.027-6.911,5.872-5.342,4.552.565,8.99,2.237,11.6,6.206.59.957,1.611,3.458.141,3.961A.832.832,0,0,1,222.421,136.18Z"/><path d="M224.482,131.455c-.609-3.74-4.441-5.813-7.641-7-1.928-.453-8.415-3.471-8.077.355.239.649.273,1.5-.54,1.73-1.563.273-1.315-1.774-1.211-2.772.643-4.673,6.841-2.68,9.983-2.157,3.947.861,8.1,3.064,9.688,6.983a7.538,7.538,0,0,1,.465,2.49A1.362,1.362,0,0,1,224.482,131.455Z"/><path d="M208.072,122.115a136.69,136.69,0,0,1-14.439-1c-1.762.1-2.238-1.289-1.094-2.542,1.208-1.722,3.479-1.436,5.321-1.4,4.827.092,9.33-.588,14.063-.975,1.371,0,10.259-.888,7.411,1.958-3.637,1.187-7.522.577-11.277,1,4,.136,8,.52,11.964.037a1.3,1.3,0,1,1,.362,2.579A104.07,104.07,0,0,1,208.072,122.115Z"/><path d="M229.915,125.818c-2.678.774-16.919-11.35-12.369-12.836a.96.96,0,0,1,.933,1.185c1.382,2.139,3.639,3.356,5.474,5.045,1.778,1.364,3.423,3.1,5.608,3.769-.042,0-.084-.015-.129-.022-.03-.011-.06-.022-.056-.008a6.287,6.287,0,0,0,.665.091c.012-3.587-7.372-10.931-10.975-10.98a7.568,7.568,0,0,0-1.491.773c-1.528.766-2.511-1.111-1.522-2.291,3.1-3.757,8.544-.177,11.2,2.475,2.49,3.133,7.271,7.266,5.194,11.617A2.539,2.539,0,0,1,229.915,125.818Z"/><path d="M235.954,117.958c-2.12-1.935-4.121-3.71-6.333-5.386-1.434-.836-2.734-1.988-4.33-1.146-1.557.57-2.059-1.488-.976-2.41a4.17,4.17,0,0,1,4.072-.376c3.722,1.306,5.99,4.7,8.629,7.382A1.1,1.1,0,0,1,235.954,117.958Z"/><path d="M244.523,119.766c-2.224-.067-4.449-.178-6.68-.274a1.006,1.006,0,0,1,.184-2c11.824.88,23.441-.326,35.208-.978h0l-.011,0,.012,0,.014-.014h0c.127-1.213-1.475-2.662.027-3.47,2.218-.852,2.626,3.982.856,4.478C264.607,120.538,254.4,119.635,244.523,119.766Z"/><path d="M236.805,117.141a1.4,1.4,0,0,1-1.442-1.315,1.381,1.381,0,0,1,1.316-1.441c3.242-.015,6.471-.167,9.717-.14,8.71.015,17.391-1.448,26.071-1.707,1.615-.487,3.013,1.463,1.5,2.564-7.331.952-14.987.975-22.4,1.064C246.6,116.434,241.784,117.364,236.805,117.141Z"/><path d="M187.249,121.7c1.881-.083,4.48-.743,5.15-2.687-4.2-.983-8.363-.028-12.463.611C182.428,120.155,184.68,121.551,187.249,121.7Zm-6.13,1.8a10.645,10.645,0,0,0-3.011-1.108,2,2,0,0,1-2.051-2.8c.714-2.836,4.154-3.177,6.584-3.658,4.3-.8,10.334-2.294,13.272,1.966a1.308,1.308,0,0,1-1.589,2.027c-1.619,5.341-9.126,5.641-13.4,3.485Z"/><path d="M227.373,154.009c-6.235-1.138-11.114-5.738-15.91-9.554-2.177-2.161-5.478-4.284-6.229-7.316.249-.69,1.3-.439,1.439.187a50.656,50.656,0,0,0,13.247,10c2.811,1.354,5.842,2.418,8.4,4.221A1.373,1.373,0,0,1,227.373,154.009Z"/><path d="M234.262,140.5a15.991,15.991,0,0,1-2.742-8.528,17.547,17.547,0,0,1,.835-6.377.8.8,0,0,1,.88-.562.8.8,0,0,1,.672.791c.049,4.108-.592,8.64,1.154,12.422.343.77,1.533,1.326.8,2.269A1.027,1.027,0,0,1,234.262,140.5Z"/><path d="M319.656,462.8c-.971-11.6.23-23.31-.856-34.931-1.478-24.516-1.281-49.1-2.224-73.638-1.563-40.678-1.213-81.423-2.616-122.091a1.033,1.033,0,0,1,2.061-.133c.178,2.808.333,5.608.5,8.417,2.8,53.991,4.476,108.061,5.837,162.113.446,18.329,2.207,36.64,1.212,54.978-.329,2.249,1.148,6.243-1.877,6.844A1.963,1.963,0,0,1,319.656,462.8Z"/><path d="M24.571,478.1c-7.791-.688-18.577-1.545-21.548-10.124-.417-2.049-.172-4.228-.761-6.207a1.05,1.05,0,0,1,2.069-.148c.8,2.214,1.2,4.818,2.527,6.777,8.5,9.008,35.049,5.16,47.372,5.977,25.334-.674,50.5.024,75.747-1.766,24.248-.629,48.5-1.519,72.751-2.172,30.614-.584,61.266-.588,91.831-2.476,8.085-.411,16.125-.943,23.832-3.635a2.274,2.274,0,0,1,2.017,4.034,14.667,14.667,0,0,1-4.3,1.745c-7.715,2.581-15.918,2.3-23.935,2.955-13.413,1.028-26.878,1.066-40.325,1.271-20.754.827-41.523.755-62.28,1.316-32.4.909-65.165,1.866-97.521,2.239C69.548,477.4,46.982,478.908,24.571,478.1Z"/><path d="M5.807,45a1.959,1.959,0,0,1-.953-2.38c2.971-10.6,25.388-13.351,34.931-14.949,22-2.981,43.944-5.713,66.108-5.874,14.374-.614,28.707,1.04,43.029.583,17.575.809,35.16.068,52.733.718,10.861-.168,21.655.914,32.485,1.449,18.1.629,36.145.339,54.218.967,4.967.58,34.036.368,31.679,6.51a1.253,1.253,0,0,1-1.773.1c-3.328-2.73-8.11-2.09-12.12-2.785-7.489-.555-14.9-.454-22.315-.83-16.427.068-32.842.142-49.268-.168-11.82-.463-23.64-1.2-35.478-1.019-8.63-.231-17.253-.275-25.878.125-11.93.059-23.791-.551-35.692-.221-29.2-1.961-58.258.348-87.211,3.743C39.634,32.9,13.188,34.516,8.283,44.364A1.948,1.948,0,0,1,5.807,45Z"/><path d="M316.374,174.49c-2.088-.267-1.24-3.115-1.5-4.568-.573-12.352-1.193-24.676-.429-37.067,1.331-10.762,1.817-21.5,2.129-32.323.1-21.522.107-43.062,1.143-64.561a14.636,14.636,0,0,1,.436-3.488.936.936,0,1,1,1.693.714c1.447,25.115,1.26,50.345.994,75.5-.58,14.016-2.358,27.9-2.225,41.944-.42,6.031.611,12.314-.28,18.245C317.908,170.661,318.707,174.155,316.374,174.49Z"/><path d="M291.491,95.81c-8.816-1.252-17.486-.471-26.255-1.257-11.21-.7-22.593.323-33.719-.124-15.055.108-30.291-.869-45.306-.7-16.994.292-33.838,1.291-50.782.925a113.416,113.416,0,0,0-19.028-.052c-9.165-.162-18.318-.1-27.482.384-27.75-.151-55.518-.252-83.244.458A1.425,1.425,0,1,1,5.7,92.6c6.824.019,13.6-.846,20.425-.731,10.468-.452,21.333-1.16,31.738-.658,8.974-.044,17.915-.8,26.9-.246,13.568-.842,27.18-.8,40.69-1.491,8.577.255,16.974.738,25.479.332,10.766-.251,21.282-.455,31.968-1.056,16.124-.264,32.219.563,48.328.54,14.524.2,29.044-.428,43.55.524,6.656-.269,13.259.605,19.885,1.027a114.818,114.818,0,0,1,16.9.34c2.327.193,2.772,3.776.245,4.25C305.081,95.926,298.242,95.769,291.491,95.81Z"/><path d="M215.379,71.881c8.444-1.49,13-13.389,7.511-20.032-2.925-3.345-10.949-1.66-14.508-.013-4.469,2.379-4.473,8.339-3.37,12.648.252,2.16,2.263,4.192,1.76,6.338C209.767,71.267,212.42,72.224,215.379,71.881Zm-2.554,4.056a13.9,13.9,0,0,1-7.464-2.822,1.313,1.313,0,0,1-.545-1.169,1.9,1.9,0,0,1-1.524-1.085c-2.282-4.92-3.765-10.589-2.343-15.962,2.535-9.448,15.766-11.444,23.573-7.811C235.884,56.094,227.426,77.7,212.825,75.937Z"/><path d="M254.761,72.052a1.537,1.537,0,0,1,1.44-1.386,10.973,10.973,0,0,0,4.939-1.272c9.724-4.88,2.066-19.681-7.417-18.035-7.693,1.908-14.516,11.84-6.306,17.674a10.092,10.092,0,0,0,4.523,2.417C252.937,71.75,254.1,71.14,254.761,72.052Zm2.889,1.991c-.968-.185-2.3-.249-2.761-1.25a1.049,1.049,0,0,1-.971.844,15.524,15.524,0,0,1-12.725-6.474c-5.84-9.758,6.46-22.414,16.612-20.047C273.118,50.4,275.013,73.285,257.65,74.043Z"/><path d="M291.349,72.1a1.423,1.423,0,0,1,.935.6c3.654-1.941,9.195-2.433,10.726-6.817,1.415-5.084-.03-11.633-5.253-13.822C291,48.847,282.471,54.976,282.378,62.2c-.106,2.507,1.233,4.443,2.58,6.4C286.327,71.006,288.7,71.887,291.349,72.1Zm.756,2.735c-1.425,1.016-3.422-.125-5-.318-2.422-.493-4.051-2.6-5.512-4.442a12.534,12.534,0,0,1-1.308-14.557c6.8-13.011,26.644-10.723,27.548,4.788.453,5.712-1.564,11.537-7.427,13.471a25.537,25.537,0,0,1-7.219,1.486A1.342,1.342,0,0,1,292.105,74.838Z"/><path d="M134.458,250.347c-12.633-.355-13.72-6.256-12.717-17.329-.346-16.637-.166-33.511.561-50.087,0-11.964.028-24.036.369-35.869.037-6.1-.269-12.208-.687-18.289a1.573,1.573,0,0,1,1.485-1.641,1.591,1.591,0,0,1,1.641,1.478,234.51,234.51,0,0,1,.5,23.9c-.466,14.206.582,28.439.192,42.631v-.258c-.08,9.93-.047,19.649.333,29.477.258,5.345-.529,10.668-.755,15.984a10.68,10.68,0,0,0,1.681,4.082,14.9,14.9,0,0,0,8.3,1.446c5.219-1.037,11.094-1.095,16.226-1.449a146.95,146.95,0,0,1,28.11-1.759,193.186,193.186,0,0,0,23.35.655c6.647-1.148,13.541-1.266,20.224-1.464,1.338-6.909-.637-14.036-1.025-20.968-.569-16.782-.934-33.6-.436-50.385.317-2.352-1.547-11.069,1.264-11.245a1.465,1.465,0,0,1,1.515,1.375c1.283,8.2,1.088,16.371.953,24.629.128,8.253.541,16.486.349,24.741-.7,11.009,2.886,22.171.841,33.039-1.429,4.32-6.984,2.342-10.4,3.184-11.247,1.384-22.53,2.542-33.86,1.426C166.493,246.533,150.393,249.776,134.458,250.347Z"/><path d="M124.44,125.8c-5.43-5.157,35.341-5.8,38.234-5.136,2.3.395,8.713-.273,8.786,2.867a1.811,1.811,0,0,1-1.685,1.626c-8.463.493-16.962-.629-25.435.125C137.748,125.508,130.82,124.388,124.44,125.8Z"/><path d="M151.406,216.374c-.394-2.938,3.116-2.494,4.966-3.264,6.245-2.424,11.091-8.1,14.1-13.843,1.742-4.955,2.2-10.81,6.488-14.4,6.122-5.317,16.109-4.741,21.152-11.435,5.247-11.286-4.289-30.489-16.832-17.914-3.649,3.4-4.035,8.693-6.293,12.929a22.263,22.263,0,0,1-11.022,10.445c-4.7,1.921-10.318,2.459-13.754,6.586-4.917,6.435-7.774,15.557-4.371,23.242,2.621.267,1.518,4.238-.885,3.105-4.754-3.636-4.3-15.827-2.194-20.965,6.563-18.764,17.828-9.269,27.078-20.543,4.257-5.231,4.026-12.9,9.057-17.632,16.233-16.846,31.792,9.806,21.319,23.986-6,6.593-16.569,5.724-22.65,11.975-2.392,3.051-2.729,6.939-3.812,10.483a40.5,40.5,0,0,1-9.5,14.107C161.915,215.318,153.015,221.059,151.406,216.374Z"/><path d="M160.983,229.227a1.731,1.731,0,0,1,.827-2.283,19.954,19.954,0,0,1,13.2-1.325c3.853-.394,5.994-4.156,8.43-6.738a56.548,56.548,0,0,0,10.866-24.03,1.413,1.413,0,0,1,2.816-.008c1.63,10.113-10.819,32.735-21.186,34.532-2.056.286-3.78-.8-5.7-.872a15.374,15.374,0,0,0-6.049,1.093C163.154,230.286,161.617,230.584,160.983,229.227Z"/><path d="M191.7,229.231a1.484,1.484,0,0,1,1.591-2.366c4.84-3.214,7.843-8.461,9.914-13.765a1.316,1.316,0,0,1,1.441-.666c2.1.625.416,4.665.008,6.142C203.414,221.37,194.912,232.271,191.7,229.231Z"/><path d="M208.812,196.507a1.561,1.561,0,0,1-.909-1.981,41.969,41.969,0,0,0,1.921-6.347c.749-1.734-.083-5.4,2.469-5.528,2.759.571.7,4.368.643,6.222C212.127,190.7,211.517,197.4,208.812,196.507Z"/><path d="M138.042,169.172c-9.6-10.151-1.9-23.394,9.95-26.883,1.715-2.8,3.233-6.041,6.337-7.561,6.877-3.082,18.341-.994,20.062,7.412.683,8.087-7.272,12.951-13.892,15.43a25.191,25.191,0,0,0-11.521,9.29,1.855,1.855,0,0,1-2.232,1.883c-4.21-1.719,2.3-6.794,3.777-8.609,5.458-6.518,17-5.875,19.763-14.643,1.764-7.479-10.033-9.314-14.873-6.382-2.133,1.62-3.043,4.1-4.861,5.958-2.306,1.748-5.329,2.234-7.642,4.008a12.443,12.443,0,0,0-5,10.81c.34,2.617,1.764,4.9,3.117,7.107a1.852,1.852,0,0,1-2.985,2.18Z"/><path d="M107.363,150.627c-6.618-1.357-13.2-1.146-19.893-1.109-13.875-.615-27.771.089-41.624-.967-1.16.191-2.739.192-2.913-1.3a1.6,1.6,0,0,1,1.6-1.758c15.52-1.308,31.01-.48,46.547.059,5.776-.076,11.619.228,17.011,2.5A1.357,1.357,0,0,1,107.363,150.627Z"/><path d="M50.284,168.687c-3.12-.007-5.856-.735-8.83-.252-2.014.262-2.411-2.96-.355-3.147,12.849-.573,25.612-1.432,38.47-1.663,8.16.063,16.485-.176,24.364,2.268a1.21,1.21,0,0,1-.348,2.365C85.836,166.914,68.022,168.549,50.284,168.687Z"/><path d="M78.822,185.25c-10.127.188-20.293-.7-30.386-.509-1.019.107-2.549.407-2.741-.991a1.265,1.265,0,0,1,1.108-1.389c4.051-.4,8.145-.373,12.208-.48,15.047.021,30.147-1.059,45.165.1a1.123,1.123,0,0,1-.037,2.217C95.744,185.266,87.268,185.188,78.822,185.25Z"/><path d="M76.225,202.01c-5.953-.343-11.926-.1-17.883-.391a128.562,128.562,0,0,1-13.5-.4c-1.092-.037-2.972.509-3.045-1.109.059-1.346,1.593-1.114,2.527-1.123,10.106-.8,20.272-1.772,30.438-1.337C98.643,197.679,105.929,202.534,76.225,202.01Z"/><path d="M281.173,144.09c-5.569-.189-11.162-.5-16.73-.288-2.021-.287-5.671,1.37-6.3-1.412-.234-3.277,6.153-1.882,8.335-2.35,6.386.06,12.894-.206,19.125,1.419a1.361,1.361,0,0,1,.975,1.493C286,145.043,282.8,143.817,281.173,144.09Z"/><path d="M287.378,161.921c-3.068-.046-6.194-.337-9.244-.141a.766.766,0,1,1-.178-1.522,49.71,49.71,0,0,1,6.784.066c.981.281,3.127-.407,3.355.895A.715.715,0,0,1,287.378,161.921Z"/><path d="M240.6,174.338c-.047-1.615,2.069-1.16,3.133-1.455,1.145-.193,3.12-.576,3.17,1.116-.076,1.366-1.405,1.346-2.431,1.086C243.244,174.85,241.016,176.079,240.6,174.338Z"/><path d="M240.135,194.575c-.211-4.019,7.253-2.337,9.9-2.845a2.142,2.142,0,0,1,.207,4.271c-2.63.149-5.266.3-7.889.546A2.241,2.241,0,0,1,240.135,194.575Z"/><path d="M237.726,215.209a1.838,1.838,0,0,1,1.6-2.024c2.636-.254,5.276-.445,7.916-.616,3.158-.075,16.922-1.627,17.083,2.6-.379,1.933-2.891,1.278-4.316,1.249a55.038,55.038,0,0,0-7.788-.407c-1.754.084-3.653.183-5.41.266-2.414.173-4.832.341-7.24.555A1.848,1.848,0,0,1,237.726,215.209Z"/><path d="M251.169,378.324c-34.505-1.8-69.142-3.5-103.544-6.112-29.3-.792-58.678-2.06-87.848-4.9-5.971-1.392-15.3-3.2-15.969-10.568a14.363,14.363,0,0,1,6.954-11.668c4.37-2.3,9.068-4.4,14.033-4.847,4.4-.414,8.933.537,13.244-.468a24.912,24.912,0,0,0-6.922-5.6c-2.909-1.447-6.2-2.965-7.408-6.215-2.037-7.028,5.648-13.4,12.355-12.518,1.416.059,3.641-.238,3.88,1.655a1.771,1.771,0,0,1-1.545,1.936c-2.041.445-3.687.733-5.535,1.215-2.552.811-5.072,3.447-4.958,6.2,1.6,3.042,5.474,3.438,7.915,5.468,2.693,2.243,6.367,4.68,6.872,8.395-.647,6.277-15.345,3.259-19.92,4.606-6.512,1.587-15.529,4.574-15.087,12.735a1.785,1.785,0,0,1-.05-.248c4.511,9.7,38.989,8.281,49.563,9.4,15.016,1.616,30.062,1.414,45.135,1.559,9.448.427,18.4,1.283,27.741,1.686,16.7,1.557,33.615,1.463,50.323,2.866,4.441.419,8.491.531,12.881.532,10.776.157,21.623,1.706,32.367.281,5.494-1.087,7.263-2.038,4.241-7.67-.832-1.9-2.305-4.483-.54-6.3,6.964-4.6,15.8-4.408,23.514-7.072,4.623-1.649,13.092-5.077,6-10.1-4.754-4.366-8.784-9.45-14.1-13.194-5.779-4.9-12.687-10.058-14.735-17.706a19.5,19.5,0,0,1-.5-6.71c.4-3.449,2.054-7.45-.633-10.4-1.937-2.011-4.519-3.955-7.435-3.9-7.39.56-10.314,9.872-17.936,10.9-17.719,4.453-26.572-17.945-42.993-19.17-12.461-.9-28.474,8.867-24.811,22.9,5.049,14.409,16.439,25.068,24.308,37.845,1.424,1.843.988,5.1-1.906,4.56-2.779-1.377-5.116-3.727-7.732-5.372-12.271-8.2-22.545-18.915-33.843-28.184-5.368-4.984-10.277-10.355-16.079-14.854-7.829-7.486-15.489-15.576-25.783-19.42-10.337-3.166-23.019-2.892-31.633,4.163-7.824,6.244-7.86,15.99-3.158,24.106,2.86,4.368,8.223,6.917,13.081,8.14,1.051.123,3.068-.292,3.074,1.323a1.237,1.237,0,0,1-1.39,1.19c-6.528-1.046-13.726-3.957-17.372-9.74-5.739-9.461-4.451-21.681,4.936-28.273,8.66-6.609,20.7-6.79,30.933-4.412,13.047,3.838,22.285,14.717,32.344,23.167,6.151,4.624,10.675,11.007,17.078,15.341,9.946,7.762,19.063,16.9,29.708,23.679-10.771-15.969-33.44-37.474-11.234-54.161,9.287-6.158,22.372-7.648,31.834-1.08,14.829,10.629,24.976,25.677,41.449,7.028,6.242-5.89,17.745-1.559,19.42,6.548.633,5.326-2.243,10.846.406,15.991,6.225,10.3,17.319,15.958,25,24.981,9.729,7.125,7.282,13.485-3.3,17.369-7.641,2.923-16.448,2.479-23.534,6.808C283.27,379.361,262.955,378.865,251.169,378.324Z"/><path d="M224.913,394.7c-16.4-.37-32.781-1.9-49.185-2.084-20.506-.348-41.022.182-61.526.569-12.757.3-25.647.164-38.382.518-8.644.046-17.317-.988-25.933-.054a.871.871,0,0,1-1.4-.1c-.751-1.181.852-1.644,1.79-1.7,2.775-.483,5.547-.987,8.336-1.4,7.238-.813,14.559.16,21.821-.643,30.891-.73,61.8-2.157,92.711-1.818,16.578.2,33.129,1.482,49.695,2.121q29.553-.161,59.051.842c2.22.1,2.375,3.57-.059,3.585C262.853,394.6,243.9,394.355,224.913,394.7Z"/><path d="M225.8,414.345a348.741,348.741,0,0,1-37.162-2.622c-12.533-.553-25.138-.905-37.613-1.893-18.394-.507-36.844-.071-55.209.517-4.275.358-8.562-.113-12.836.048a150.307,150.307,0,0,1-18.793.97l.1,0c.036,0,.071,0,.1-.008-4.379.076-8.688,1.031-13.063.614a11.855,11.855,0,0,1-3.344-.635c-.826-.921,1.231-1.292,1.739-.9,5.4-.507,10.683-1.878,16.109-2.113,4.171-.13,8.265-.219,12.393-.754,8.618-.7,17.29-.171,25.923-.886,17.591.131,35.385-1.828,52.924.052,15.682.4,31.305.812,46.874,2.586,9.888.52,19.8.867,29.587,2.483C237.263,414.169,226.9,414.28,225.8,414.345Z"/><path d="M110.529,427.664c-15.381-.493-30.773.211-46.156-.2-1.857-.312-10.689.438-10.464-1.656a.717.717,0,0,1,.879-.488c3.383.839,6.882,0,10.3-.052,7.45-.221,14.769-1.737,22.22-1.75,11.195-.514,22.373.033,33.564-.282,5.909-.079,11.818.389,17.728.451a45.254,45.254,0,0,1,5.83.562,1.206,1.206,0,0,1,1.013,1.19c-.045,2.393-10.3,1.5-12.415,1.825C125.515,426.9,118.034,427.655,110.529,427.664Z"/><path d="M164,447.4c-15.077-.268-30.239-1.233-45.291-.42-6.943.142-13.864-.71-20.809,0-6.119.067-12.219-.632-18.341-.562-7.7-.126-15.181-1.871-22.8-1.677-.488.086-1.061-.109-1.109-.665-.206-1.7,5.734-.666,6.991-.961,34.362.966,68.629.175,102.967,1.057,1.879.251,5.573-1.4,6.156,1.094a1.537,1.537,0,0,1-1.338,1.685C168.289,447.151,166.144,447.386,164,447.4Z"/><path d="M101.744,253.4c-3.4-4.829-4.323-10.835-8.024-15.4-3.5-5.079-11.019-3.671-13.35,1.727a7.1,7.1,0,0,0,1.7,9.851C88.017,252.964,95.233,252.082,101.744,253.4Zm1.1,2.461c-7-1.4-14.408-.731-21.1-3.289-14.729-8,1.949-29.749,13.744-17.713,3.737,3.715,5.51,8.845,8.041,13.375.771,1.921,3.311,5.348.675,6.506A1.161,1.161,0,0,1,102.841,255.863Z"/><path d="M150.651,283.866c.812-3.166-.8-6.374-1.92-9.184.023.058.046.115.072.173l.007.016c-1.254-2.572-3.606-5.289-6.619-5.531a1.157,1.157,0,0,0-.655.251c.061-.082.162-.1.248-.141-2.076,2.136.109,6.708,1.426,8.772-.041-.075-.095-.161-.14-.237C144.773,280.79,147.34,283.253,150.651,283.866Zm1.338,3.541a15.964,15.964,0,0,1-12.5-7.279c-3.426-4.414-4.894-15.037,3.119-14.779,7.576,1.217,12.409,11.384,11.948,18.415C154.445,285.331,154.1,287.75,151.989,287.407Z"/><path d="M63.818,301.678l.041,0c-2.634-2.9-2.693-7.095-2.893-10.8-.041-4.994-2.937-14.487-9.234-13.345-3.844,2.511-4.93,7.973-4.428,12.234C48.241,297.921,56.447,301.57,63.818,301.678Zm-1.3,2.889c-7.435-.083-15.6-3.065-18.319-10.589-2.918-6.943-.743-17.926,7.271-20.2,7.8-.777,12.333,8.241,13.109,14.884.372,2.841.216,5.813,1.342,8.508.731,1.653,3.184,3.569,1.154,5.246C68.307,305.366,64.2,304.636,62.518,304.567Z"/><path d="M72.233,272.565l.085,0a6.559,6.559,0,0,0-2.986-8c-3.562.176-2.13,5.633-.969,7.631C69.6,271.469,70.949,272.455,72.233,272.565Zm-2.512,4.106c-2.258.248-3.4-2.615-4.379-4.234-2.725-4.5-1.567-13.018,5.253-11.372C77.957,263.005,80.155,279.8,69.721,276.671Z"/><path d="M238.487,282.033c1.77-3.754,5.315-6.676,5.238-11.1.035-2.554.408-5.516-1.283-7.651-2.764-2.613-7.774-.27-9.075,2.909C230.952,271.527,233.188,279.412,238.487,282.033Zm-.213,4.19c-10.928-3.91-14.89-23.645-2.232-27.726,14.381-3.729,13.5,16.544,7.076,23.994-.87,1.169-1,3.242-2.766,3.375A2,2,0,0,1,238.274,286.223Z"/><path d="M289.965,315.059a64.947,64.947,0,0,0-.956-11.118,5.566,5.566,0,0,0-1.433-2.992c-1.627-1.511-2.81-.057-2.9,1.706C284.643,307.317,285.881,312.357,289.965,315.059Zm.484,3.75a15.894,15.894,0,0,1-9.133-13.139c-.434-3-.17-6.9,2.815-8.5,4.707-2.132,8.326,3.143,8.639,7.345C293.131,307.038,296.268,323.414,290.449,318.809Z"/></svg>