<svg width="437" height="395" viewBox="0 0 437 395" fill="none" xmlns="http://www.w3.org/2000/svg">
<g clip-path="url(#clip0_1191_53769)">
<path d="M304.948 273.325C254.287 268.971 203.212 276.434 156.6 295.559C127.585 307.462 106.701 321.127 126.27 331.579C169.957 354.919 279.479 346.61 280.898 356.923C282.022 365.078 251.64 364.888 266.606 374.839C278.129 382.509 355.435 379.123 399.018 353.537C409.867 347.162 463.347 309.311 423.449 292.518C401.458 283.258 348.324 277.039 304.948 273.325Z" fill="#F4F4F4"/>
<path d="M83.0151 348.165C60.4533 346.23 37.6839 349.547 16.9215 358.064C3.9969 363.368 -5.31157 369.449 3.40864 374.113C22.8734 384.513 71.665 380.816 72.3052 385.395C72.8069 389.023 59.2768 388.936 65.938 393.376C71.0767 396.797 105.525 395.276 124.938 383.874C129.765 381.041 153.607 364.18 135.821 356.682C126.028 352.587 102.341 349.823 83.0151 348.165Z" fill="#F4F4F4"/>
<path d="M321.852 0V157.575L127.654 169.997V4.95823L321.852 0Z" fill="#F4F4F4"/>
<path d="M409.279 7.80878V187.152L321.852 157.575V0L409.279 7.80878Z" fill="#EDEDED"/>
<path d="M414.591 10.452V186.253L409.279 184.491V9.9856L414.591 10.452Z" fill="#F4F4F4"/>
<path d="M127.654 7.27319V165.384L122.342 165.729V7.4114L127.654 7.27319Z" fill="#EDEDED"/>
<path d="M136.738 18.8828V49.8761C136.738 53.0376 139.385 55.5599 142.551 55.4044L175.979 53.815C178.937 53.6768 181.256 51.2409 181.256 48.2867V17.4835C181.256 14.3392 178.626 11.8169 175.477 11.9551L142.05 13.3545C139.091 13.4754 136.738 15.9113 136.738 18.8828Z" fill="#EDEDED"/>
<path d="M136.738 79.5563C136.374 79.5563 136.063 79.2799 136.028 78.8998C135.994 78.5198 136.288 78.1743 136.686 78.157L173.954 75.5828C174.335 75.5483 174.681 75.842 174.698 76.2393C174.733 76.6194 174.439 76.9649 174.041 76.9822L136.772 79.5563C136.772 79.5563 136.755 79.5563 136.738 79.5563Z" fill="#EDEDED"/>
<path d="M136.738 92.8244C136.374 92.8244 136.063 92.548 136.028 92.1679C135.994 91.7878 136.288 91.4423 136.686 91.425L173.954 88.8509C174.335 88.8164 174.681 89.11 174.698 89.5074C174.733 89.8875 174.439 90.233 174.041 90.2503L136.772 92.8244C136.772 92.8244 136.755 92.8244 136.738 92.8244Z" fill="#EDEDED"/>
<path d="M136.738 106.092C136.374 106.092 136.063 105.816 136.028 105.436C135.994 105.056 136.288 104.71 136.686 104.693L173.954 102.119C174.335 102.084 174.681 102.378 174.698 102.775C174.733 103.155 174.439 103.501 174.041 103.518L136.772 106.092C136.772 106.092 136.755 106.092 136.738 106.092Z" fill="#EDEDED"/>
<path d="M299.428 86.5012C299.428 100.547 294.341 113.365 285.95 123.178C278.181 132.265 267.558 138.761 255.516 141.214C252.038 141.923 248.439 142.303 244.754 142.303C222.209 142.303 202.848 128.378 194.492 108.494C191.654 101.739 190.08 94.3099 190.08 86.5012C190.08 84.6353 190.166 82.7868 190.339 80.9555C191.671 67.1001 197.987 54.7305 207.433 45.7296C217.209 36.4006 230.324 30.6995 244.754 30.6995C248.197 30.6995 251.554 31.0277 254.824 31.6496C267.558 34.0683 278.752 40.996 286.729 50.757C293.874 59.4814 298.442 70.469 299.29 82.4931C299.394 83.8234 299.428 85.1536 299.428 86.5012Z" fill="#EDEDED"/>
<path d="M208.368 53.504C203.212 53.0375 204.787 59.1187 206.188 61.3128C207.589 63.5068 205.877 64.267 202.278 66.3055C198.696 68.3268 202.468 72.0757 203.766 76.1529C205.046 80.23 201.309 84.0135 197.433 83.0633C193.575 82.1304 197.312 77.3277 195.668 76.2738C194.025 75.22 190.339 80.9556 190.339 80.9556C191.672 67.1002 197.987 54.7306 207.434 45.7297C207.434 45.7297 210.237 46.0234 211.638 48.2002C213.057 50.3943 213.524 53.9704 208.368 53.504Z" fill="#CFDAF9"/>
<path d="M299.428 86.5011C299.428 100.547 294.342 113.365 285.95 123.178C285.656 123.161 272.749 122.573 274.288 118.099C275.846 113.573 275.378 112.795 272.091 110.618C268.804 108.442 271.313 106.438 272.091 102.827C272.87 99.2335 273.337 94.8627 268.804 94.8627C264.271 94.8627 250.533 95.571 258.803 90.8546C267.091 86.121 274.738 87.5031 274.583 83.2359C274.427 78.9514 281.452 67.5665 283.026 72.7148C284.583 77.863 284.254 83.8578 285.95 85.0153C289.462 87.4167 291.937 85.4991 291.781 81.9229C291.625 78.3295 292.092 74.5115 294.912 77.5866C296.314 79.1242 297.94 80.6963 299.29 82.5276C299.394 83.8233 299.428 85.1535 299.428 86.5011Z" fill="#6774FF"/>
<path d="M255.533 141.214C252.055 141.923 248.456 142.303 244.771 142.303C222.227 142.303 202.866 128.378 194.509 108.493C194.509 108.493 200.876 102.671 203.073 105.384C205.271 108.096 207.918 110.912 210.721 109.824C213.541 108.735 214.32 99.8382 217.434 101.704C220.548 103.57 226.656 108.563 229.459 105.747C232.279 102.948 229.77 98.7325 233.836 95.9338C237.902 93.1178 246.017 88.9197 243.525 94.068C241.034 99.2162 239.459 101.583 240.705 105.384C241.951 109.185 250.239 108.891 249.927 113.244C249.616 117.615 243.664 118.237 244.754 120.569C245.861 122.902 249.287 120.103 252.107 123.385C254.927 126.668 254.754 128.534 252.107 130.089C249.443 131.643 246.484 134.148 249.91 135.703C253.353 137.275 255.533 141.214 255.533 141.214Z" fill="#CFDAF9"/>
<path d="M286.746 50.757C286.746 50.757 282.732 54.1604 279.116 51.8281C275.5 49.4958 273.129 53.3484 271.728 56.8554C270.326 60.3625 264.807 57.9093 261.658 55.6807C258.492 53.4521 257.679 64.1114 251.986 65.2689C246.311 66.4437 248.526 56.4926 252.626 52.1736C256.727 47.8373 256.727 44.3303 253.215 40.7023C249.702 37.0743 254.841 31.6497 254.841 31.6497C267.575 34.0683 278.752 40.996 286.746 50.757Z" fill="#B0C0F7"/>
<path d="M228.196 47.2499C228.196 47.2499 222.157 51.2406 222.867 54.7477C223.576 58.2547 224.856 60.1378 221.102 63.5239C217.347 66.91 210.911 72.3002 214.077 77.5694C217.244 82.8386 221.898 80.2644 221.033 83.6505C220.168 87.0366 222.555 87.624 224.753 87.1576C226.95 86.6911 228.594 85.0499 228.126 82.3548C227.659 79.6598 228.126 76.861 231.05 76.2737C233.975 75.6863 237.141 79.3142 239.84 76.2737C242.539 73.2331 241.709 71.4709 238.075 70.1925C234.442 68.9141 227.884 69.1041 230.583 65.3725C233.282 61.6408 241.951 57.3218 238.317 54.7477C234.684 52.1735 234.805 49.4785 236.085 47.9582C237.366 46.4379 237.608 43.8638 234.805 44.2093C232.002 44.5721 228.196 47.2499 228.196 47.2499Z" fill="#6774FF"/>
<path d="M252.107 73.164C252.107 73.164 243.975 77.6903 246.796 79.8671C249.616 82.0439 253.042 80.109 253.128 81.6638C253.215 83.2186 250.464 85.3263 252.661 85.7237C254.841 86.121 265.309 78.5541 261.883 77.2239C258.44 75.8936 254.253 78.0013 255.533 76.2909C256.813 74.5806 258.924 71.2463 256.883 71.3845C254.841 71.5227 252.107 73.164 252.107 73.164Z" fill="#CFDAF9"/>
<path d="M195.634 90.0772C196.827 90.0772 197.987 90.4227 199.007 91.0274C200.08 91.6493 202.018 92.5477 202.987 91.632C204.388 90.3191 206.793 88.3841 207.139 89.9044C207.485 91.4247 204.856 92.8241 205.738 93.757C206.62 94.6899 208.783 97.9724 205.444 97.6787C202.105 97.385 193.246 90.0945 195.547 90.0772C195.582 90.0772 195.616 90.0772 195.634 90.0772Z" fill="#6774FF"/>
<path d="M262.454 123.8C266.087 121.503 267.662 117.028 266.537 112.882C266.035 111.033 265.118 109.34 263.423 108.805C259.114 107.44 254.01 107.785 255.948 110.653C257.886 113.521 261 113.21 260.17 115.905C259.339 118.6 259.045 125.701 262.021 124.059C262.159 123.973 262.315 123.887 262.454 123.8Z" fill="#B0C0F7"/>
<path d="M381.63 100.858C381.595 100.858 381.561 100.858 381.526 100.858L339.344 94.2927C338.963 94.2409 338.704 93.8781 338.756 93.498C338.808 93.118 339.171 92.8588 339.552 92.9106L381.734 99.4756C382.114 99.5274 382.374 99.8902 382.322 100.27C382.27 100.598 381.959 100.858 381.63 100.858Z" fill="#F4F4F4"/>
<path d="M381.63 114.108C381.595 114.108 381.561 114.108 381.526 114.108L339.344 107.543C338.963 107.492 338.704 107.129 338.756 106.749C338.808 106.369 339.171 106.11 339.552 106.161L381.734 112.726C382.114 112.778 382.374 113.141 382.322 113.521C382.27 113.867 381.959 114.108 381.63 114.108Z" fill="#F4F4F4"/>
<path d="M344.01 129.191C344.041 126.997 342.842 125.201 341.332 125.18C339.823 125.159 338.574 126.921 338.544 129.115C338.513 131.31 339.712 133.105 341.222 133.126C342.731 133.147 343.98 131.385 344.01 129.191Z" fill="#CFDAF9"/>
<path d="M360.628 132.258C360.658 130.064 359.459 128.268 357.95 128.247C356.44 128.226 355.191 129.988 355.161 132.182C355.13 134.376 356.329 136.172 357.839 136.193C359.349 136.214 360.597 134.452 360.628 132.258Z" fill="#6774FF"/>
<path d="M376.741 135.188C376.772 132.993 375.573 131.198 374.063 131.177C372.554 131.156 371.305 132.918 371.275 135.112C371.244 137.306 372.443 139.102 373.953 139.123C375.462 139.144 376.711 137.382 376.741 135.188Z" fill="#F9A935"/>
<path d="M328.427 9.91642V18.8654C328.427 19.8674 329.153 20.714 330.14 20.8867L337.874 22.217C339.119 22.4243 340.279 21.4741 340.279 20.1957V10.8839C340.279 9.84731 339.5 8.98351 338.479 8.8453L330.745 7.89512C329.517 7.73963 328.427 8.68982 328.427 9.91642Z" fill="#F4F4F4"/>
<path d="M363.705 16.9479C363.688 16.9479 363.653 16.9479 363.636 16.9479L344.31 14.201C344.05 14.1664 343.877 13.9246 343.912 13.6654C343.946 13.4063 344.188 13.2335 344.448 13.2681L363.774 16.015C364.034 16.0495 364.207 16.2914 364.172 16.5505C364.12 16.7924 363.93 16.9479 363.705 16.9479Z" fill="#F4F4F4"/>
<path d="M363.705 22.8562C363.67 22.8562 363.653 22.8562 363.619 22.8562L344.292 19.5047C344.033 19.4528 343.86 19.211 343.912 18.9691C343.963 18.71 344.206 18.5372 344.448 18.589L363.774 21.9406C364.034 21.9924 364.207 22.2343 364.155 22.4761C364.12 22.7007 363.93 22.8562 363.705 22.8562Z" fill="#F4F4F4"/>
<path d="M161.272 24.3247V45.9543C161.272 45.9543 161.099 46.2998 160.528 46.5244C160.234 46.6453 159.836 46.7145 159.317 46.7145C158.314 46.7145 157.656 46.559 157.223 46.3862C156.635 46.1443 156.479 45.8507 156.479 45.8507V24.3247C156.479 24.3247 156.601 24.1519 156.912 23.9619C157.275 23.7546 157.898 23.5127 158.867 23.5127C159.801 23.5127 160.459 23.7718 160.84 23.9964C161.134 24.1692 161.272 24.3247 161.272 24.3247Z" fill="#6774FF"/>
<path d="M160.839 23.3918V24.0137C160.459 23.7892 159.818 23.53 158.867 23.53C157.881 23.53 157.275 23.7546 156.912 23.9792V23.3918C156.912 23.3918 157.119 23.0463 157.673 22.8044C157.967 22.6835 158.365 22.5798 158.867 22.5798C159.299 22.5798 159.663 22.6662 159.957 22.7871C160.562 23.029 160.839 23.3918 160.839 23.3918Z" fill="#CFDAF9"/>
<path d="M159.957 21.5433V22.7871C159.663 22.6662 159.317 22.5798 158.867 22.5798C158.348 22.5798 157.967 22.6662 157.673 22.8044V21.4914C157.673 21.4914 157.864 21.3705 158.314 21.3014C158.469 21.2841 158.66 21.2668 158.867 21.2668C158.971 21.2668 159.075 21.2668 159.161 21.2841C159.767 21.3359 159.957 21.5433 159.957 21.5433Z" fill="#6774FF"/>
<path d="M159.282 20.3513V21.3015C159.196 21.2842 158.988 21.2842 158.884 21.2842C158.677 21.2842 158.486 21.3015 158.331 21.3188V20.334L158.832 19.4011L159.282 20.3513Z" fill="#1E43C6"/>
<path d="M161.272 38.1802H162.69V46.3518C162.69 46.5418 162.535 46.7146 162.327 46.7146C162.137 46.7146 161.964 46.5591 161.964 46.3518V39.545H161.254V38.1802H161.272Z" fill="#1E43C6"/>
<path d="M160.528 46.5071C160.442 47.3536 159.732 47.9928 158.867 47.9928C157.967 47.9928 157.223 47.2673 157.206 46.3689C157.639 46.5417 158.296 46.6971 159.3 46.6971C159.836 46.6971 160.234 46.628 160.528 46.5071Z" fill="#CFDAF9"/>
<path d="M228.594 291.931C227.349 291.931 226.362 290.497 226.362 288.666C226.362 286.835 227.349 285.401 228.594 285.401C229.857 285.401 230.826 286.835 230.826 288.666C230.826 290.497 229.84 291.931 228.594 291.931ZM228.594 286.61C228.11 286.61 227.573 287.491 227.573 288.666C227.573 289.841 228.11 290.722 228.594 290.722C229.079 290.722 229.615 289.841 229.615 288.666C229.615 287.491 229.061 286.61 228.594 286.61Z" fill="black"/>
<path d="M219.926 313.336C218.887 313.336 217.849 312.973 217.001 312.265L201.585 299.394C198.8 297.062 197.208 293.659 197.208 290.031L197.243 166.766H198.177L198.142 290.031C198.142 293.382 199.613 296.526 202.191 298.669L217.607 311.539C218.697 312.455 220.185 312.645 221.465 312.04C222.763 311.436 223.559 310.175 223.559 308.758V293.192C223.559 290.428 225.808 288.165 228.577 288.165V289.098C226.327 289.098 224.493 290.929 224.493 293.175V308.741C224.493 310.537 223.49 312.109 221.863 312.87C221.24 313.198 220.583 313.336 219.926 313.336Z" fill="#6774FF"/>
<path d="M196.914 165.591V166.179C196.914 166.714 197.277 167.129 197.71 167.094C198.091 167.06 198.385 166.662 198.385 166.179V165.47L196.914 165.591Z" fill="#1E43C6"/>
<path d="M338.254 51.7419V69.4844C338.254 69.4844 345.192 76.7058 357.338 77.7596C376.197 79.4008 383.395 70.0718 383.395 70.0718V48.5112L338.254 51.7419Z" fill="#B0C0F7"/>
<path d="M331.835 47.9757V49.2887L357.321 64.578L388.499 46.8701V45.4016L357.407 63.0232L331.835 47.9757Z" fill="#6774FF"/>
<path d="M386.734 48.0103H386.267V62.7813H386.734V48.0103Z" fill="#6774FF"/>
<path d="M386.492 65.7182C387.304 65.7182 387.963 65.0607 387.963 64.2497C387.963 63.4387 387.304 62.7812 386.492 62.7812C385.68 62.7812 385.021 63.4387 385.021 64.2497C385.021 65.0607 385.68 65.7182 386.492 65.7182Z" fill="#6774FF"/>
<path d="M331.835 47.9757L357.407 63.0231L388.499 45.4016L360.158 35.2605L331.835 47.9757Z" fill="#CFDAF9"/>
<path d="M356.629 342.014C356.629 342.014 358.342 343.5 358.186 346.852C358.03 350.203 357.874 352.155 357.874 352.155C357.874 352.155 354.431 354.332 342.649 351.758C330.849 349.184 325.624 347.854 325.624 347.854C325.624 347.854 328.046 343.949 334.69 341.997C341.334 340.045 345.936 340.891 345.936 340.891L356.629 342.014Z" fill="#1E43C6"/>
<path d="M339.967 269.04L346.005 341.773C346.005 341.773 348.116 343.483 351.784 343.258C355.452 343.016 356.629 342.014 356.629 342.014V269.766L348.306 266.052L339.967 269.04Z" fill="#6774FF"/>
<path d="M347.805 271.459L343.998 317.517L343.981 317.482V271.787L338.842 269.489L339.327 266.864L347.805 271.459Z" fill="#465CF9"/>
<path d="M240.706 317.517L339.967 306.702V204.048L240.706 211.217V317.517Z" fill="#CFDAF9"/>
<path d="M343.981 344.036C343.981 344.036 345.694 345.521 345.538 348.873C345.382 352.225 345.227 354.177 345.227 354.177C345.227 354.177 341.783 356.353 330.001 353.779C318.201 351.205 312.976 349.875 312.976 349.875C312.976 349.875 315.398 345.971 322.042 344.018C328.686 342.066 333.288 342.913 333.288 342.913L343.981 344.036Z" fill="#1E43C6"/>
<path d="M343.981 271.787V344.036C343.981 344.036 342.805 345.055 339.137 345.279C335.469 345.521 333.358 343.794 333.358 343.794L327.319 271.044L335.642 268.055L338.825 269.472L343.981 271.787Z" fill="#6774FF"/>
<path d="M318.876 235.369C318.876 235.369 317.526 241.485 316.592 250.952C315.657 260.437 315.779 267.796 315.779 267.796C315.779 267.796 325.848 273.031 344.759 271.735C360.141 270.681 365.539 264.98 365.539 264.98C365.539 264.98 365.937 244.664 365.539 238.185C365.141 231.706 364.397 230.445 364.397 230.445L356.092 228.269L348.116 230.29L318.876 235.369Z" fill="#1E43C6"/>
<path d="M312.561 162.481C312.561 162.481 313.478 163.622 313.478 165.729C313.478 167.837 314.36 169.997 314.36 169.997L319.568 167.181L318.357 161.272C318.357 161.272 317.301 158.232 317.128 158.283C316.955 158.335 313.322 159.044 313.322 159.044L312.561 162.481Z" fill="#4D6BF7"/>
<path d="M213.212 179.395L240.705 211.217L339.967 204.048L314.533 172.571L213.212 179.395Z" fill="#B0C0F7"/>
<path d="M213.212 179.395L240.705 211.217V317.517L213.212 295.058V179.395Z" fill="#6774FF"/>
<path d="M229.148 187.532L243.007 204.48C243.37 204.929 243.941 205.171 244.529 205.136L274.237 202.804C275.707 202.683 276.399 200.938 275.431 199.85L260.758 183.455C260.395 183.04 259.859 182.833 259.322 182.867L230.445 184.647C228.975 184.733 228.231 186.409 229.148 187.532Z" fill="#CFDAF9"/>
<path d="M303.27 145.62C303.27 145.62 303.425 151.788 305.45 156.469C307.474 161.151 310.311 164.848 310.311 164.848C310.311 164.848 312.474 163.57 318.962 158.024C325.451 152.479 318.962 144.065 318.962 144.065L312.561 139.625H304.515L303.27 145.62Z" fill="#6774FF"/>
<path d="M311.868 180.189C311.851 180.258 311.851 180.31 311.834 180.379C311.574 181.347 310.363 181.952 309.066 181.744C307.958 181.571 307.11 180.88 306.885 180.086C306.816 179.878 306.816 179.654 306.851 179.429C307.024 178.358 308.27 177.667 309.671 177.874C311.038 178.082 312.024 179.118 311.868 180.189Z" fill="#6774FF"/>
<path d="M311.869 181.036C311.713 182.107 310.45 182.798 309.049 182.591C307.664 182.383 306.661 181.347 306.834 180.276C306.851 180.207 306.851 180.155 306.868 180.086C307.093 180.898 307.941 181.589 309.049 181.744C310.363 181.952 311.557 181.347 311.817 180.379C311.886 180.587 311.903 180.811 311.869 181.036Z" fill="#305FF2"/>
<path d="M293.874 191.574C293.857 191.643 293.857 191.695 293.84 191.764C293.58 192.732 292.369 193.337 291.071 193.129C289.964 192.956 289.116 192.265 288.891 191.471C288.822 191.263 288.822 191.039 288.857 190.814C289.03 189.743 290.275 189.052 291.677 189.259C293.044 189.467 294.03 190.503 293.874 191.574Z" fill="#6774FF"/>
<path d="M293.875 192.404C293.719 193.475 292.456 194.166 291.054 193.958C289.67 193.751 288.667 192.715 288.84 191.643C288.857 191.574 288.857 191.522 288.874 191.453C289.099 192.265 289.947 192.956 291.054 193.112C292.369 193.319 293.563 192.715 293.823 191.747C293.892 191.972 293.909 192.196 293.875 192.404Z" fill="#305FF2"/>
<path d="M283.77 199.521C283.77 199.521 282.178 198.157 280.587 198.243C278.977 198.329 277.766 199.141 275.431 197.535C273.095 195.928 269.461 197.932 269.098 196.757C268.752 195.582 271.174 192.507 273.908 190.555C276.642 188.603 279.929 188.948 281.85 189.657C283.787 190.365 284.168 192.283 285.016 192.525C285.864 192.766 286.66 193.026 286.66 193.026L287.594 193.838L283.77 199.521Z" fill="#6774FF"/>
<path d="M365.539 229.461C365.539 229.461 364.363 230.705 362.339 231.793C360.314 232.881 357.494 233.4 357.494 233.4L356.144 229.133L354.103 234.92C354.103 234.92 346.127 238.427 336.403 238.773C326.679 239.118 317.111 234.592 317.111 234.592C317.111 234.592 316.402 229.288 316.8 223.293C316.938 221.116 317.284 219.043 317.665 217.264C318.322 214.241 319.084 212.116 319.118 211.977C318.98 212.012 316.385 212.651 313.097 211.977C309.706 211.269 284.047 202.735 284.047 202.735C284.047 202.735 283.234 199.815 284.583 196.014C285.933 192.214 288.632 192.335 288.632 192.335C288.632 192.335 305.623 197.362 308.426 198.191C311.246 199.003 308.304 181.347 309.014 174.799C309.723 168.252 313.634 167.06 313.634 167.06L315.623 166.887L345.798 164.157C345.798 164.157 346.006 164.226 346.352 164.399C346.732 164.606 347.286 164.952 347.961 165.505C349.466 166.783 351.525 169.167 353.186 173.504C356.231 181.468 355.418 195.842 355.522 199.245C355.539 199.763 355.608 200.195 355.695 200.575C356.231 202.666 357.944 203.167 360.314 208.729C363.117 215.277 365.539 229.461 365.539 229.461Z" fill="#305FF2"/>
<path d="M359.12 199.47C357.788 200.264 356.629 200.558 355.66 200.575C355.556 200.195 355.504 199.763 355.487 199.245C355.366 195.859 356.196 181.468 353.151 173.504C351.49 169.167 349.431 166.766 347.926 165.505C347.926 165.505 351.161 165.211 354.674 174.212C358.186 183.213 364.934 196.032 359.12 199.47Z" fill="#0B47CE"/>
<path d="M327.094 223.38C326.938 223.38 326.783 223.38 326.61 223.38C323.236 223.293 320.467 221.928 320.346 221.877C319.879 221.652 319.689 221.082 319.931 220.615C320.156 220.149 320.727 219.959 321.194 220.201C321.211 220.218 323.72 221.427 326.662 221.514C329.638 221.583 331.87 220.875 331.887 220.857C332.371 220.702 332.908 220.961 333.063 221.445C333.219 221.928 332.96 222.464 332.475 222.619C332.371 222.671 330.174 223.38 327.094 223.38Z" fill="#0B47CE"/>
<path d="M324.655 211.373C321.869 216.279 318.53 214.776 317.665 217.281C318.339 214.154 319.118 211.995 319.118 211.995C319.118 211.995 322.111 212.236 323.391 204.981C324.672 197.725 324.724 182.055 322.111 177.84C319.499 173.624 316.713 172.571 316.713 172.571C316.713 172.571 321.367 172.329 324.257 178.531C327.146 184.733 327.371 206.587 324.655 211.373Z" fill="#0B47CE"/>
<path d="M303.269 145.62C303.269 145.62 309.273 143.443 312.56 147.261C315.848 151.079 315.761 153.74 315.069 158.646C314.377 163.553 314.827 179.619 334.171 176.786C349.466 174.54 347.337 159.354 343.773 154.673C339.707 149.317 334.517 148.591 334.517 148.591C334.517 148.591 333.461 127.014 317.872 127.014C299.549 126.996 303.269 145.62 303.269 145.62Z" fill="#0A0189"/>
<path d="M290.587 182.263C290.57 182.332 290.57 182.384 290.553 182.453C290.293 183.42 289.082 184.025 287.784 183.817C286.677 183.645 285.829 182.954 285.604 182.159C285.535 181.952 285.535 181.727 285.57 181.502C285.743 180.431 286.988 179.74 288.39 179.948C289.757 180.138 290.76 181.191 290.587 182.263Z" fill="#6774FF"/>
<path d="M290.587 183.092C290.431 184.163 289.168 184.854 287.767 184.647C286.383 184.439 285.379 183.403 285.552 182.332C285.569 182.263 285.569 182.211 285.587 182.142C285.812 182.954 286.659 183.645 287.767 183.8C289.082 184.007 290.276 183.403 290.535 182.435C290.604 182.66 290.622 182.867 290.587 183.092Z" fill="#305FF2"/>
<path d="M301.972 181.416C301.955 181.485 301.955 181.537 301.937 181.606C301.678 182.573 300.467 183.178 299.169 182.971C298.062 182.798 297.214 182.107 296.989 181.312C296.92 181.105 296.92 180.88 296.954 180.656C297.127 179.585 298.373 178.894 299.775 179.101C301.141 179.308 302.145 180.345 301.972 181.416Z" fill="#6774FF"/>
<path d="M301.972 182.262C301.816 183.334 300.553 184.025 299.152 183.817C297.767 183.61 296.764 182.573 296.937 181.502C296.954 181.433 296.954 181.381 296.972 181.312C297.196 182.124 298.044 182.815 299.152 182.971C300.466 183.178 301.66 182.573 301.92 181.606C301.989 181.813 302.006 182.038 301.972 182.262Z" fill="#305FF2"/>
<path d="M305.259 190.728C305.242 190.797 305.242 190.849 305.224 190.918C304.965 191.885 303.754 192.49 302.456 192.283C301.349 192.11 300.501 191.419 300.276 190.624C300.207 190.417 300.207 190.192 300.241 189.968C300.414 188.896 301.66 188.205 303.062 188.413C304.429 188.62 305.415 189.657 305.259 190.728Z" fill="#6774FF"/>
<path d="M305.259 191.574C305.104 192.645 303.841 193.336 302.439 193.129C301.055 192.922 300.051 191.885 300.224 190.814C300.242 190.745 300.242 190.693 300.259 190.624C300.484 191.436 301.332 192.127 302.439 192.283C303.754 192.49 304.948 191.885 305.207 190.918C305.277 191.125 305.294 191.35 305.259 191.574Z" fill="#305FF2"/>
<path d="M234.079 188.758L238.439 194.097C238.56 194.235 238.733 194.321 238.923 194.304L248.284 193.561C248.751 193.526 248.958 192.974 248.664 192.628L244.045 187.462C243.924 187.342 243.768 187.272 243.595 187.272L234.494 187.843C234.027 187.877 233.802 188.395 234.079 188.758Z" fill="#6774FF"/>
<path d="M251.779 199.504C251.761 199.556 251.744 199.625 251.71 199.677C251.294 200.593 250.031 201.007 248.768 200.61C247.695 200.282 246.969 199.47 246.865 198.64C246.83 198.416 246.848 198.191 246.917 197.984C247.246 196.947 248.595 196.446 249.927 196.861C251.277 197.31 252.09 198.468 251.779 199.504Z" fill="#6774FF"/>
<path d="M251.658 200.333C251.329 201.37 249.979 201.871 248.647 201.456C247.315 201.042 246.484 199.867 246.796 198.83C246.813 198.778 246.83 198.709 246.865 198.657C246.969 199.487 247.696 200.299 248.768 200.627C250.031 201.024 251.312 200.592 251.71 199.694C251.744 199.901 251.71 200.126 251.658 200.333Z" fill="#305FF2"/>
<path d="M264.738 198.139C264.72 198.191 264.703 198.26 264.669 198.312C264.253 199.228 262.99 199.642 261.727 199.245C260.654 198.917 259.928 198.105 259.824 197.275C259.789 197.051 259.807 196.826 259.876 196.619C260.205 195.582 261.554 195.081 262.886 195.496C264.219 195.928 265.049 197.103 264.738 198.139Z" fill="#6774FF"/>
<path d="M264.617 198.969C264.288 200.005 262.938 200.506 261.606 200.091C260.274 199.677 259.443 198.502 259.755 197.465C259.772 197.414 259.789 197.345 259.824 197.293C259.928 198.122 260.655 198.934 261.727 199.262C262.99 199.66 264.271 199.228 264.669 198.329C264.686 198.537 264.669 198.761 264.617 198.969Z" fill="#305FF2"/>
<path d="M293.892 258.571V297.839C293.892 298.928 293.079 299.826 291.989 299.947L251.156 304.404C249.893 304.542 248.803 303.558 248.803 302.297V262.7C248.803 261.611 249.633 260.696 250.723 260.592L291.556 256.463C292.802 256.325 293.892 257.31 293.892 258.571Z" fill="#B0C0F7"/>
<path d="M256.139 285.366C257.371 285.366 258.371 284.105 258.371 282.55C258.371 280.995 257.371 279.734 256.139 279.734C254.906 279.734 253.907 280.995 253.907 282.55C253.907 284.105 254.906 285.366 256.139 285.366Z" fill="#6774FF"/>
<path d="M296.677 262.7V268.695C296.677 269.403 296.176 270.008 295.484 270.129L293.875 270.44V261.404L294.965 261.232C295.864 261.111 296.677 261.802 296.677 262.7Z" fill="#6774FF"/>
<path d="M296.677 286.817V292.812C296.677 293.52 296.176 294.125 295.484 294.246L293.875 294.557V285.522L294.965 285.349C295.864 285.228 296.677 285.919 296.677 286.817Z" fill="#6774FF"/>
<path d="M391.042 300.431L396.908 327.727H414.487L419.314 300.431H391.042Z" fill="#1E43C6"/>
<path d="M409.435 300.431C409.435 300.431 406.216 291.136 411.511 283.794C416.788 276.452 420.196 275.881 420.94 271.407C422.203 263.633 418.155 261.439 418.674 257.016C419.452 250.451 426.564 252.852 425.906 245.044C425.387 238.842 429.107 227.508 417.947 233.365C407.947 238.617 405.317 253.734 403.76 268.349C402.202 282.965 404.711 300.413 404.711 300.413H409.435V300.431Z" fill="#FFBC48"/>
<path d="M399.936 300.431C399.936 300.431 402.86 291.983 398.05 285.297C393.24 278.611 390.143 278.093 389.485 274.033C388.343 266.967 392.029 264.98 391.544 260.938C390.835 254.96 384.364 257.154 384.97 250.054C385.437 244.422 382.046 234.108 392.202 239.429C401.303 244.215 403.69 257.949 405.109 271.252C406.528 284.554 404.244 300.414 404.244 300.414H399.936V300.431Z" fill="#929FFF"/>
<path d="M406.787 300.604C406.718 300.604 406.649 300.552 406.614 300.483C406.597 300.431 405.455 296.06 405.386 291.948C405.317 287.716 408.258 275.657 412.307 270.923C415.006 267.779 414.123 263.771 413.206 259.538C412.722 257.31 412.22 255.012 412.255 252.801C412.341 246.426 416.926 242.383 416.961 242.349C417.03 242.28 417.134 242.297 417.203 242.366C417.272 242.435 417.255 242.539 417.186 242.608C417.134 242.642 412.67 246.599 412.584 252.801C412.549 254.977 413.051 257.258 413.518 259.469C414.452 263.788 415.335 267.883 412.532 271.148C408.535 275.812 405.628 287.75 405.697 291.948C405.767 296.008 406.891 300.362 406.909 300.396C406.926 300.483 406.874 300.586 406.787 300.604C406.822 300.604 406.805 300.604 406.787 300.604Z" fill="#EAEAEA"/>
<path d="M402.306 300.604C402.202 300.604 402.133 300.517 402.133 300.414C402.15 300.258 403.171 285.038 401.597 280.978C401.268 280.114 400.766 279.129 400.23 278.093C398.413 274.517 396.146 270.042 397.306 264.704C398.205 260.558 396.008 257.604 394.07 254.978C392.842 253.319 391.786 251.868 391.786 250.434C391.786 246.409 387.79 241.934 387.755 241.882C387.686 241.813 387.703 241.71 387.772 241.64C387.841 241.571 387.945 241.589 388.015 241.658C388.188 241.848 392.132 246.288 392.132 250.434C392.132 251.764 393.171 253.164 394.364 254.77C396.25 257.31 398.586 260.489 397.652 264.773C396.51 270.008 398.759 274.396 400.541 277.937C401.078 278.991 401.579 279.976 401.908 280.857C403.517 284.986 402.514 299.809 402.462 300.431C402.479 300.535 402.392 300.604 402.306 300.604Z" fill="#EAEAEA"/>
<path d="M163.054 273.29L167.639 294.661H181.394L185.166 273.29H163.054Z" fill="#305FF2"/>
<path d="M177.432 273.29C177.432 273.29 174.923 266.017 179.058 260.281C183.193 254.528 185.858 254.079 186.429 250.589C187.415 244.508 184.249 242.798 184.647 239.325C185.252 234.177 190.824 236.06 190.305 229.962C189.907 225.107 192.813 216.245 184.076 220.823C176.238 224.934 174.179 236.751 172.968 248.205C171.757 259.659 173.712 273.29 173.712 273.29H177.432Z" fill="#FFBC48"/>
<path d="M170.009 273.29C170.009 273.29 172.293 266.673 168.539 261.456C164.784 256.239 162.345 255.824 161.825 252.645C160.926 247.117 163.815 245.562 163.435 242.401C162.881 237.719 157.811 239.446 158.279 233.884C158.642 229.478 155.995 221.41 163.936 225.574C171.065 229.323 172.933 240.068 174.041 250.469C175.148 260.886 173.366 273.29 173.366 273.29H170.009Z" fill="#1E43C6"/>
<path d="M175.373 273.428C175.321 273.428 175.252 273.394 175.235 273.325C175.217 273.29 174.335 269.852 174.283 266.656C174.231 263.339 176.532 253.906 179.699 250.209C181.809 247.756 181.135 244.612 180.408 241.295C180.027 239.55 179.647 237.753 179.664 236.026C179.733 231.033 183.315 227.871 183.349 227.854C183.401 227.802 183.488 227.819 183.54 227.871C183.592 227.923 183.574 228.01 183.522 228.061C183.488 228.096 179.993 231.188 179.924 236.043C179.906 237.753 180.287 239.533 180.668 241.26C181.394 244.646 182.086 247.842 179.906 250.399C176.775 254.062 174.508 263.391 174.56 266.673C174.612 269.852 175.494 273.256 175.512 273.29C175.529 273.359 175.494 273.428 175.408 273.463C175.39 273.428 175.373 273.428 175.373 273.428Z" fill="#EAEAEA"/>
<path d="M171.861 273.428C171.774 273.428 171.722 273.359 171.722 273.29C171.722 273.169 172.535 261.266 171.307 258.087C171.047 257.413 170.65 256.636 170.234 255.824C168.816 253.025 167.033 249.536 167.95 245.337C168.66 242.107 166.93 239.775 165.424 237.719C164.455 236.423 163.625 235.283 163.625 234.16C163.625 231.016 160.493 227.509 160.476 227.474C160.424 227.422 160.424 227.336 160.493 227.284C160.545 227.232 160.632 227.232 160.684 227.301C160.822 227.44 163.902 230.929 163.902 234.177C163.902 235.214 164.715 236.302 165.649 237.581C167.12 239.567 168.954 242.055 168.227 245.407C167.345 249.501 169.092 252.939 170.494 255.703C170.909 256.515 171.307 257.293 171.567 257.984C172.812 261.214 172.034 272.806 171.999 273.307C171.999 273.377 171.93 273.428 171.861 273.428Z" fill="#EAEAEA"/>
<path d="M111.425 179.533L110.456 181.848C110.975 181.433 111.563 180.898 112.186 180.276L110.837 183.886L102.359 183.334L96.8911 165.176C97.2545 165.556 97.6178 165.971 97.9811 166.386L102.687 156.607C102.947 156.072 103.5 155.761 104.089 155.813L118.346 157.074C119.28 157.16 119.885 158.128 119.539 159.009L111.425 179.533Z" fill="#CFDAF9"/>
<path d="M121.131 156.296L112.186 180.276C111.563 180.898 110.975 181.433 110.456 181.848L111.425 179.533L119.522 159.009C119.868 158.128 119.28 157.16 118.328 157.074L104.071 155.813C103.483 155.761 102.929 156.072 102.67 156.607L97.9636 166.386C97.6175 165.971 97.2542 165.556 96.8735 165.176L99.2785 160.995L100.645 158.611L103.362 153.895L104.919 154.69L121.131 156.296Z" fill="#CFDAF9"/>
<path d="M79.8658 366.892C79.8658 366.892 78.6719 368.308 78.9315 372.04C79.191 375.789 79.8658 377.845 79.8658 377.845C79.8658 377.845 85.2986 380.073 91.8906 378.484C97.2889 377.171 109.037 371.487 113.362 369.345C114.401 368.827 114.764 367.514 114.089 366.546C113.328 365.441 111.944 364.214 109.539 363.817C104.85 363.057 92.6692 364.249 92.6692 364.249C92.6692 364.249 87.8074 365.268 86.6135 365.182C85.4197 365.095 79.8658 366.892 79.8658 366.892Z" fill="#1E43C6"/>
<path d="M56.1967 355.714C56.1967 355.714 54.9683 356.923 54.8991 360.413C54.8299 363.903 55.297 365.872 55.297 365.872C55.297 365.872 60.1589 368.378 66.3876 367.445C71.4917 366.667 82.8591 362.348 87.0462 360.724C88.0497 360.327 88.4823 359.135 87.9459 358.202C87.323 357.114 86.1465 355.87 83.9491 355.3C79.6582 354.211 68.2735 354.315 68.2735 354.315C68.2735 354.315 63.6885 354.868 62.5812 354.695C61.5084 354.505 56.1967 355.714 56.1967 355.714Z" fill="#1E43C6"/>
<path d="M79.8657 361.847V366.875C79.8657 366.875 83.7241 369.172 87.8246 368.326C91.9079 367.479 92.6865 365.682 92.6865 365.682V361.847C92.6865 361.847 86.3886 359.135 85.783 358.375C85.1774 357.615 79.8657 361.847 79.8657 361.847Z" fill="#6774FF"/>
<path d="M56.612 351.05L56.1968 355.714C56.1968 355.714 59.588 358.15 63.4463 357.701C67.3047 357.252 68.1698 355.645 68.1698 355.645L68.4812 352.086C68.4812 352.086 62.858 349.063 62.3563 348.303C61.8891 347.543 56.612 351.05 56.612 351.05Z" fill="#6774FF"/>
<path d="M101.476 158.957C101.424 159.631 99.9535 160.615 98.7424 161.324L96.8911 165.176L94.2439 165.816L93.7075 162.429C93.7075 162.429 94.3996 158.508 97.1679 156.296C99.9362 154.085 102.359 153.826 102.359 153.826L99.9881 158.75C100.819 158.525 101.511 158.49 101.476 158.957Z" fill="#6774FF"/>
<path d="M74.7442 234.177C71.3011 231.879 67.3736 229.201 67.1313 228.821C66.7161 228.148 53.4455 238.721 53.4455 238.721C53.4455 238.721 50.6598 245.147 54.7431 257.776C57.9613 267.727 52.0786 348.596 52.0786 348.596C52.0786 348.596 57.4249 352.397 64.2073 352.483C70.9897 352.57 74.0002 349.236 74.0002 349.236L74.4501 340.718L79.8656 237.563C79.8656 237.58 77.4606 236.008 74.7442 234.177ZM64.588 256.515C61.5255 248.343 62.2868 241.174 62.2868 241.174L60.5047 235.576L70.9897 236.976L71.1627 237.408C68.602 239.723 66.5258 241.692 66.5258 241.692C66.5258 241.692 64.1035 248.844 69.5882 262.026C70.1073 263.253 70.5571 265.533 70.9724 268.608C70.5744 265.429 67.6504 264.687 64.588 256.515Z" fill="#F9A935"/>
<path d="M90.2126 149.801C90.2126 149.801 90.0223 153.256 90.2126 155.744C90.4029 158.231 90.5933 161.237 90.5933 161.237C90.5933 161.237 82.6689 163.466 82.4094 163.414C82.1499 163.345 75.3848 160.408 75.3848 160.408L74.7446 155.813L75.7654 147.779L81.1291 143.892L90.9047 143.443L90.2126 149.801Z" fill="#4D6BF7"/>
<path d="M100.507 147.313C100.507 147.313 98.0158 150.181 88.3613 149.749C78.7068 149.3 76.8555 146.553 76.8555 146.553L80.5581 128.568L93.9152 125.182C93.9152 125.182 95.5243 126.824 97.2372 130.521C97.2545 130.538 97.2545 130.573 97.2718 130.607C97.4102 130.883 97.5314 131.177 97.6525 131.488C97.7563 131.73 97.8601 131.972 97.9639 132.214C98.1542 132.68 98.3272 133.164 98.5176 133.665C98.7425 134.287 98.9328 134.909 99.1058 135.565C99.175 135.824 99.2443 136.066 99.2962 136.325C100.594 141.664 100.507 147.313 100.507 147.313Z" fill="#6774FF"/>
<path d="M97.9809 132.214L96.5448 133.25L96.2853 133.423L86.7865 140.195C86.7865 140.195 85.8522 139.988 85.783 139.919C85.7138 139.85 86.0252 138.64 86.0252 138.64L96.441 131.091L97.0985 130.624L97.2369 130.521C97.2542 130.538 97.2542 130.572 97.2715 130.607C97.4099 130.883 97.531 131.177 97.6521 131.488C97.7733 131.713 97.8771 131.954 97.9809 132.214Z" fill="#F9A935"/>
<path d="M100.957 135.064C100.542 135.911 99.8495 136.222 99.3132 136.325C99.2613 136.066 99.1921 135.824 99.1229 135.565C99.417 135.427 99.7284 135.202 99.936 134.77C100.749 133.095 99.4862 131.35 99.4862 131.35L97.6868 131.488C97.5657 131.177 97.4273 130.883 97.3062 130.607L100.351 130.365C100.334 130.365 102.064 132.766 100.957 135.064Z" fill="#F9A935"/>
<path d="M71.1456 264.099C71.6647 265.326 73.5852 346.178 74.0004 349.27C73.6198 346.057 67.6506 264.704 64.5882 256.532C61.5257 248.361 62.287 241.174 62.287 241.174L60.5049 235.576L70.9899 236.976L71.1629 237.408C68.6022 239.723 66.526 241.692 66.526 241.692C66.526 241.692 65.6609 250.9 71.1456 264.099Z" fill="#F49519"/>
<path d="M130.215 161.203C130.215 161.203 131.789 159.976 132.377 158.663C132.966 157.35 143.208 143.374 143.97 144.203C144.731 145.032 139.938 152.116 140.527 152.824C141.097 153.532 144.108 158.249 142.447 161.566C140.786 164.883 138.364 165.142 137.533 166.23C136.703 167.319 136.149 168.113 136.149 168.113L128.848 164.243L130.215 161.203Z" fill="#6774FF"/>
<path d="M98.3446 358.496C98.3446 358.496 95.4032 362.331 88.1191 362.832C80.835 363.333 74.762 359.722 74.762 359.722C74.762 359.722 74.6927 351.931 74.4678 340.736C74.0353 318.882 73.0491 284.053 70.9901 268.712C70.9901 268.677 70.9728 268.643 70.9728 268.608C70.5576 265.533 70.0904 263.253 69.5887 262.026C64.0866 248.844 66.5262 241.692 66.5262 241.692C66.5262 241.692 68.6197 239.723 71.1631 237.408C72.3051 236.354 73.5681 235.231 74.7447 234.16C77.5822 231.655 80.1083 229.582 80.3159 229.858C80.835 230.549 94.7458 238.133 94.7458 238.133L98.3446 358.496Z" fill="#F9A935"/>
<path d="M136.599 170.014C136.599 170.014 114.193 203.287 105.282 204.428C100.126 205.101 97.1506 195.703 97.1506 195.703C97.1506 195.703 97.2544 198.053 96.9948 200.679C96.9602 200.99 96.9256 201.301 96.891 201.612C96.7872 202.458 96.6315 203.305 96.4585 204.117C95.974 206.363 96.0778 208.695 96.7526 210.906C97.1679 212.271 97.6004 214.102 97.8772 216.434C98.5693 222.308 98.4828 237.114 98.4828 237.114C98.4828 237.114 80.333 242.729 66.526 241.709C52.719 240.69 49.8296 236.855 49.8296 236.855C49.8296 236.855 50.1756 218.819 52.5633 204.514C54.951 190.227 65.0034 161.41 67.9448 158.093C70.8861 154.776 80.1773 157.039 80.1773 157.039C80.1773 157.039 84.9527 157.627 92.7039 161.808C94.2092 162.62 95.6107 163.777 96.9256 165.159C97.289 165.539 97.6523 165.954 97.9984 166.368C98.9154 167.457 99.7805 168.632 100.594 169.841C100.646 169.91 100.68 169.979 100.715 170.031C101.268 170.843 101.77 171.672 102.272 172.501C102.358 172.64 102.428 172.778 102.514 172.916C105.04 177.183 106.892 181.243 108.034 182.625C108.431 183.109 109.314 182.746 110.473 181.831C111.338 181.139 112.359 180.137 113.484 178.945C114.158 178.22 114.851 177.425 115.577 176.596C121.304 169.91 128.104 160.27 128.104 160.27C128.104 160.27 131.132 161.203 133.381 163.466C136.132 166.23 136.599 170.014 136.599 170.014Z" fill="#1E43C6"/>
<path d="M123.778 152.807L113.466 178.945C113.034 179.412 112.601 179.861 112.186 180.258C111.563 180.88 110.975 181.416 110.456 181.83L111.425 179.515L119.522 158.991C119.868 158.11 119.28 157.143 118.328 157.057L104.071 155.795C103.483 155.744 102.929 156.055 102.67 156.59L97.9636 166.368C97.6175 165.954 97.2542 165.539 96.8735 165.159L98.7248 161.306C98.8979 161.203 99.0882 161.099 99.2785 160.978C100.351 160.322 101.424 159.51 101.459 158.94C101.476 158.611 101.147 158.542 100.645 158.594C100.438 158.611 100.213 158.663 99.9706 158.715L102.341 153.791L103.691 150.993L123.778 152.807Z" fill="#B0C0F7"/>
<path d="M123.778 152.807V155.433L115.56 176.596C114.833 177.425 114.141 178.237 113.466 178.945L123.778 152.807Z" fill="#6774FF"/>
<path d="M108.57 151.459L108.12 152.53C107.808 153.256 108.293 154.085 109.089 154.154L114.85 154.69C115.335 154.742 115.802 154.465 116.01 154.016L116.857 152.202L108.57 151.459Z" fill="#6774FF"/>
<path d="M109.556 151.546L109.228 152.323C109.003 152.841 109.349 153.446 109.92 153.498L114.089 153.895C114.453 153.93 114.782 153.74 114.937 153.411L115.56 152.098L109.556 151.546Z" fill="#B0C0F7"/>
<path d="M114.314 160.391H114.297L104.417 159.406C104.314 159.389 104.227 159.303 104.244 159.199C104.262 159.095 104.348 159.009 104.452 159.026L114.331 160.011C114.435 160.028 114.522 160.115 114.504 160.218C114.504 160.305 114.418 160.391 114.314 160.391Z" fill="#B0C0F7"/>
<path d="M113.449 163H113.432L103.552 162.015C103.448 161.998 103.362 161.911 103.379 161.808C103.396 161.704 103.483 161.618 103.587 161.635L113.466 162.62C113.57 162.637 113.657 162.723 113.639 162.827C113.639 162.93 113.553 163 113.449 163Z" fill="#B0C0F7"/>
<path d="M112.446 165.815H112.428L102.549 164.831C102.445 164.813 102.358 164.727 102.376 164.623C102.393 164.52 102.48 164.451 102.583 164.451L112.463 165.435C112.567 165.453 112.653 165.539 112.636 165.643C112.619 165.729 112.532 165.815 112.446 165.815Z" fill="#B0C0F7"/>
<path d="M111.58 168.424H111.563L101.684 167.44C101.58 167.422 101.493 167.336 101.511 167.232C101.528 167.129 101.614 167.06 101.718 167.06L111.598 168.044C111.701 168.062 111.788 168.148 111.771 168.252C111.753 168.355 111.684 168.424 111.58 168.424Z" fill="#B0C0F7"/>
<path d="M110.646 171.05H110.629L100.749 170.066C100.646 170.048 100.559 169.962 100.576 169.858C100.594 169.755 100.68 169.686 100.784 169.686L110.663 170.67C110.767 170.688 110.854 170.774 110.837 170.878C110.819 170.964 110.733 171.05 110.646 171.05Z" fill="#B0C0F7"/>
<path d="M86.129 224.122C83.1012 224.122 80.7481 223.5 80.627 223.466C80.0906 223.31 79.7619 222.758 79.9003 222.222C80.056 221.686 80.6097 221.358 81.1461 221.496C81.1807 221.514 84.468 222.377 88.1015 221.98C91.5273 221.6 94.036 220.391 94.0706 220.373C94.5724 220.132 95.1953 220.339 95.4375 220.84C95.6797 221.341 95.4721 221.963 94.9703 222.205C94.8492 222.256 92.1155 223.587 88.3264 224.001C87.5824 224.088 86.8384 224.122 86.129 224.122Z" fill="#A2B1FC"/>
<path d="M96.9948 200.696C96.9948 200.696 92.2368 192.282 87.6517 182.314C83.0667 172.363 87.6344 169.202 89.8491 167.75C91.9945 166.317 95.3684 167.664 95.5414 167.75C95.2646 167.75 88.7072 167.82 87.7209 173.935C86.7001 180.189 97.1332 195.72 97.1332 195.72C97.1332 195.72 97.2543 198.07 96.9948 200.696Z" fill="#0A0189"/>
<path d="M90.8875 111.102C90.8875 111.102 98.6907 118.669 93.9326 125.182C89.1746 131.695 85.9045 129.743 84.6068 131.229C82.9458 133.129 83.2573 135.444 85.1778 137.5C87.0983 139.556 87.3579 142.493 87.3579 142.493C87.3579 142.493 81.925 138.917 81.2848 142.804C80.2467 149.11 85.247 147.14 85.7661 148.108C86.2851 149.075 80.7312 154.966 74.0699 151.995C63.9136 147.468 66.855 139.038 66.855 139.038C66.855 139.038 61.4914 131.626 71.267 121.813C77.0113 116.043 83.9148 119.637 87.254 118.116C90.5414 116.562 90.8875 111.102 90.8875 111.102Z" fill="#0A0189"/>
</g>
<defs>
<clipPath id="clip0_1191_53769">
<rect width="438" height="395" fill="white"/>
</clipPath>
</defs>
</svg>
