<?xml version="1.0" encoding="UTF-8"?><svg xmlns="http://www.w3.org/2000/svg" viewBox="0 0 807.79 643.53"><defs><style>.e,.f,.g,.h,.i,.j{stroke-width:0px;}.e,.f,.j{fill-rule:evenodd;}.e,.h{fill:#26a5a2;}.f,.i{fill:#fff;}</style></defs><g id="b"><polygon class="g" points="672.51 436.55 676.44 440.96 679.56 442.78 682.63 440.15 686.95 433.09 689.32 425.94 690.72 416.68 688.95 406.18 685.05 396.97 676.75 386.7 665.44 377.18 658.13 373.58 656.95 379.18 648.78 384.63 643.25 386.51 642.15 383 645.39 376.37 646.23 373.41 643.26 370.4 639.78 369.85 634.83 373.41 622.45 388.11 616.89 391.86 614.03 392.47 605.95 389.68 599.54 384.79 596.53 385.34 592.6 388.87 592.17 390.76 596.64 397.39 603.55 403.13 612.43 407.32 619.86 408.35 626.43 406.11 626.2 414.26 625.2 424.26 621.45 437.82 615.61 446.95 610.97 455.11 607.2 465.99 609.07 481.97 609.98 487.01 621.62 492.61 636.53 496.72 653.57 497.85 669.68 493.53 676.56 489.99 682.79 480.43 685.05 470.95 677.27 471.1 673.85 469.23 672.07 459.14 672.49 452.07 674.72 446.83 672.51 436.55"/><polygon class="g" points="516.42 279.68 515.59 285.01 512.07 293.26 507.18 301.56 497.44 311.29 485.44 318.48 473.01 323.31 460.69 325.88 446.32 326.54 430.67 324.26 413.11 317.7 409.46 315.25 413.7 298.14 418.71 282.39 423.89 270.43 431.32 255.51 436.34 245.61 438.86 232.01 440.07 211.89 440.19 204.13 433.69 191.51 426.6 180.95 420.11 170.63 416.5 163.23 415.34 155.36 416.57 144.14 420.94 134.84 424.4 131.41 430.96 136.68 429.52 152.01 430.52 159.25 436.44 167.78 442.42 173.21 449.31 176.58 451.91 176.62 452.83 178.07 455.65 179.82 454.54 182.67 453.79 186.92 454.54 188.95 458.56 190.43 462.95 189.31 466.57 186.15 467.95 182.28 468.07 178.2 469.81 177.67 470.07 170.63 470.72 162.12 474.36 151.05 482.96 137.58 491.46 129.65 495.37 127.75 500.68 133.89 500.69 136 490.18 155.83 487.28 167.78 487.01 177.67 489.37 195.16 490.17 214.02 490.52 233.26 495.01 261.06 499.31 271.64 503.31 275.57 510.51 278.93 516.42 279.68"/><polygon class="g" points="260.07 317.36 268.03 319.52 271.71 310.39 273.13 299.89 270.82 292.39 266.6 285.48 257.47 276.48 245.82 272.43 240.13 270.64 240.34 276.85 236.65 283.26 232.63 287.19 229.55 286.89 228.2 280.89 228.32 273.17 225.67 272.97 222.2 282.51 218.32 288.64 213.7 292.14 207.59 294 200.93 292.27 197.63 291.01 193.67 298.64 199.22 303.11 206.32 305.91 215.47 306.05 221.2 303.26 226.41 300.7 226.76 309.28 225.66 319.02 221.2 332.9 212.26 350.7 204.82 364.64 201.2 375.76 201.28 383.27 202.58 387.56 213.38 393.17 228.93 396.43 243.81 395.72 254.3 392.51 268.03 387.6 281.79 378.65 283.21 377.35 273.13 372.01 269.47 364.63 268.67 354.51 268.03 341.01 267.28 330.61 265.9 322.75 259.97 329.33 259.55 331.85 262.52 334.76 259.86 341.01 256.31 339.98 254.3 338.29 251.92 339.01 247.21 335.64 247.21 334.45 245.19 332.16 232.37 323.39 231.99 320.9 235.25 317.36 237.6 318.14 250.28 326.89 254.3 325.26 255.9 325.64 261.26 318.48 260.07 317.36"/><polygon class="g" points="449.78 400.92 547.41 347.03 548.29 348.25 548.29 369.3 546.94 370.14 449.16 423.64 450.47 420.89 449.78 401.8 449.78 400.92"/><polygon class="g" points="542.02 379.45 452.85 430.13 451.39 430.13 450.37 432.64 450.37 437.64 451.39 444.69 542.65 392.42 541.06 386.22 542.02 379.45"/><polygon class="g" points="469.89 454.93 546.69 410.75 550.65 409.17 552.39 412.07 552.39 417.25 549.75 422.32 546.16 426.16 542.65 428.64 469.14 470.95 470.81 464.89 470.7 458.64 469.89 454.93"/><polygon class="g" points="723.78 541.34 655.31 582.08 655.31 584.09 655.31 601.39 723.78 559.8 722.08 552.28 722.84 544.74 723.78 541.34"/><polygon class="g" points="275.8 574.43 275.8 579.91 391.28 513.64 391.26 510.62 386.28 511.94 275.8 574.43"/><polygon class="g" points="740.23 550.45 740.19 555.11 741.55 562.35 621.52 631.3 620.09 624.72 619.96 617.53 623.07 618.89 650.66 602.68 656.45 605.86 659.19 605.23 730.34 563.04 724.95 559.07 740.23 550.45"/><polygon class="i" points="657.76 376.18 658.02 368.26 660.83 366.68 661.7 357.84 643.45 356.43 642.45 367.51 644.8 372.34 647.59 373.64 647.41 377.51 650.23 380.42 655.28 380.33 657.76 376.18"/><polygon class="i" points="677.27 441.57 675.43 444.01 674.72 446.83 674.72 448.24 672.49 452.07 670.75 452.4 667.7 450.94 665.95 451.27 661.58 446.54 644.65 434.99 644.65 432.5 647.17 429.52 649.68 429.83 664.64 439.62 669.13 437.51 671.83 438.11 672.45 437.22 677.27 441.57"/><polygon class="i" points="592.6 388.87 596.99 385.03 595.87 382.01 594.79 375.56 591.3 370.61 588.7 371.79 586.3 372.5 583.82 374.64 583.48 376.46 586.35 382.55 589.35 385.33 591.3 385.89 592.6 388.87"/><polygon class="g" points="319.33 554.93 319.33 601.47 326.17 598.57 333.54 593.67 341.9 584.13 344.09 576.09 344.09 540.72 319.33 554.93"/><path class="g" d="m299.65,591.37c0-.78-.64-1.42-1.42-1.42s-1.42.64-1.42,1.42.64,1.42,1.42,1.42,1.42-.64,1.42-1.42Z"/><path class="g" d="m296.54,596.15c.64,0,1.15-.52,1.15-1.15s-.52-1.15-1.15-1.15-1.15.52-1.15,1.15.52,1.15,1.15,1.15Z"/><path class="g" d="m303.53,593.06c0-.92-.75-1.67-1.68-1.67s-1.67.75-1.67,1.67.75,1.67,1.67,1.67,1.68-.75,1.68-1.67Z"/><path class="g" d="m295.76,589.68c0-.64-.52-1.15-1.15-1.15s-1.15.52-1.15,1.15.52,1.15,1.15,1.15,1.15-.52,1.15-1.15Z"/><path class="g" d="m300.17,598.11c.78,0,1.42-.64,1.42-1.42s-.64-1.42-1.42-1.42-1.42.64-1.42,1.42.64,1.42,1.42,1.42Z"/><path class="g" d="m299.44,568.44c-.78,0-1.42.64-1.42,1.42s.64,1.42,1.42,1.42,1.42-.64,1.42-1.42-.64-1.42-1.42-1.42Z"/><path class="g" d="m304.74,571.55c0-.93-.75-1.67-1.67-1.67s-1.68.75-1.68,1.67.75,1.67,1.68,1.67,1.67-.75,1.67-1.67Z"/><path class="g" d="m299.95,575.18c0,.78.64,1.42,1.42,1.42s1.42-.64,1.42-1.42-.64-1.42-1.42-1.42-1.42.64-1.42,1.42Z"/><path class="g" d="m304.98,580.5c0-.93-.75-1.67-1.67-1.67s-1.67.75-1.67,1.67.75,1.67,1.67,1.67,1.67-.75,1.67-1.67Z"/><path class="g" d="m305.22,589.44c0-.93-.75-1.67-1.67-1.67s-1.67.75-1.67,1.67.75,1.67,1.67,1.67,1.67-.75,1.67-1.67Z"/><path class="g" d="m303.03,584.12c0-.78-.64-1.42-1.42-1.42s-1.42.64-1.42,1.42.64,1.42,1.42,1.42,1.42-.64,1.42-1.42Z"/><path class="g" d="m289.64,582.67c0-.32-.26-.59-.59-.59s-.59.26-.59.59.26.59.59.59.59-.26.59-.59Z"/><path class="g" d="m321.96,586.51c-.17-.04-.35-.06-.53-.06-.43,0-.83.12-1.18.31-.05-.24-.14-.47-.26-.68.96-.19,1.72-.94,1.93-1.9l-.02-1.15c-.05-.21-.13-.4-.23-.58.08-.02.15-.04.22-.07l-.06-4.78c-.21-.06-.43-.1-.65-.1-.49,0-.94.15-1.33.39-.05-.27-.15-.52-.28-.75,1.22-.16,2.17-1.2,2.17-2.46,0-.43-.12-.83-.31-1.18.12-.02.23-.06.34-.11l-.06-4.7c-.25-.08-.5-.14-.78-.14-.49,0-.94.15-1.33.39-.05-.27-.15-.52-.28-.75,1.22-.16,2.17-1.2,2.17-2.46,0-.43-.12-.83-.31-1.18.16-.03.32-.08.47-.14l-.06-4.62c-.28-.11-.58-.17-.9-.17-.49,0-.94.15-1.33.39-.05-.27-.15-.52-.28-.75,1.22-.16,2.17-1.2,2.17-2.46,0-.43-.12-.83-.31-1.18.21-.04.41-.12.59-.21v-.83s-5.15,2.95-5.15,2.95c.07.21.15.41.27.6-.41.07-.77.26-1.08.51,0-.2-.05-.4-.11-.58l-3.63,2.08s.05.07.08.1c-.06,0-.11-.02-.17-.02-.03,0-.05,0-.08,0l-4.01,2.3c.15.04.3.06.46.06.66,0,1.24-.33,1.58-.84-.06.19-.1.39-.1.61,0,.59.24,1.11.62,1.5-.06,0-.11-.02-.17-.02-.74,0-1.4.38-1.78.96.04-.16.08-.33.08-.51,0-.69-.37-1.3-.92-1.63l-2.91,1.67c.02,1.04.87,1.88,1.92,1.88.66,0,1.24-.33,1.58-.84-.06.19-.1.39-.1.61,0,.74.38,1.4.96,1.78-.16-.04-.33-.08-.51-.08-1.06,0-1.92.86-1.92,1.92s.86,1.92,1.92,1.92c.66,0,1.24-.33,1.58-.84-.06.19-.1.39-.1.61,0,.59.24,1.11.62,1.5-.06,0-.11-.02-.17-.02-.74,0-1.4.38-1.78.96.04-.16.08-.33.08-.51,0-1.06-.86-1.92-1.92-1.92s-1.92.86-1.92,1.92.86,1.92,1.92,1.92c.66,0,1.24-.33,1.58-.84-.06.19-.1.39-.1.61,0,.74.38,1.4.96,1.78-.16-.04-.33-.08-.51-.08-1.06,0-1.92.86-1.92,1.92s.86,1.92,1.92,1.92c.66,0,1.24-.33,1.58-.84-.06.19-.1.39-.1.61,0,.59.24,1.11.62,1.5-.06,0-.11-.02-.17-.02-.74,0-1.4.38-1.78.96.04-.16.08-.33.08-.51,0-1.06-.86-1.92-1.92-1.92s-1.92.86-1.92,1.92.86,1.92,1.92,1.92c.66,0,1.24-.33,1.58-.84-.06.19-.1.39-.1.61,0,.74.38,1.4.96,1.78-.16-.04-.33-.08-.51-.08-1.06,0-1.92.86-1.92,1.92s.86,1.92,1.92,1.92c.66,0,1.24-.33,1.58-.84-.06.19-.1.39-.1.61,0,.59.24,1.11.62,1.5-.06,0-.11-.02-.17-.02-.74,0-1.4.38-1.78.96.04-.16.08-.33.08-.51,0-1.06-.86-1.92-1.92-1.92s-1.92.86-1.92,1.92.86,1.92,1.92,1.92c.66,0,1.24-.33,1.58-.84-.06.19-.1.39-.1.61,0,.74.38,1.4.96,1.78-.16-.04-.33-.08-.51-.08-1.06,0-1.92.86-1.92,1.92s.86,1.92,1.92,1.92c.66,0,1.24-.33,1.58-.84-.06.19-.1.39-.1.61,0,.59.24,1.11.62,1.5-.06,0-.11-.02-.17-.02-.74,0-1.4.38-1.78.96.04-.16.08-.33.08-.51,0-1.06-.86-1.92-1.92-1.92s-1.92.86-1.92,1.92.86,1.92,1.92,1.92c.66,0,1.24-.33,1.58-.84-.06.19-.1.39-.1.61,0,.75.38,1.4.96,1.78-.16-.04-.33-.08-.51-.08-1.06,0-1.92.86-1.92,1.92,0,.13.01.26.04.39l2.52-.59,1.19-.35c-.13-.42-.39-.78-.74-1.02.19.06.39.1.61.1.48,0,.93-.17,1.29-.44,0,.34.08.66.21.95l4.43-1.32c-.05-.35-.18-.67-.37-.95.33-.04.64-.14.91-.3.05.36.17.69.35.98l4.29-1.28-.02-1.27c-.43-.75-1.23-1.26-2.16-1.26-.49,0-.94.15-1.33.39-.05-.27-.15-.52-.28-.75,1.22-.16,2.17-1.2,2.17-2.46,0-.43-.12-.83-.31-1.18.83-.17,1.5-.74,1.81-1.51l-.03-1.93c-.03-.06-.07-.12-.1-.18.03,0,.06-.02.1-.03l-.07-4.86Zm-9.39,13.75c.06,0,.11.02.17.02.49,0,.93-.17,1.29-.44,0,.48.15.93.4,1.3-.47.05-.9.24-1.25.53-.02-.55-.25-1.04-.61-1.4Zm5.11-36.61c-.06-.33-.18-.63-.36-.89.33-.04.64-.14.91-.3.04.31.14.59.28.85-.3.06-.58.18-.83.34Zm-1.14,2.44c.05.36.17.7.36,1-.33.06-.63.18-.89.36-.04-.39-.17-.75-.38-1.06.33-.04.64-.14.91-.3Zm-1.3,12.49c.04.39.17.75.38,1.06-.47.05-.9.24-1.25.53-.02-.45-.18-.85-.43-1.19.48,0,.93-.15,1.3-.4Zm.1,9.02c.05.36.17.7.36,1-.41.07-.77.26-1.08.51-.02-.45-.18-.85-.43-1.19.42,0,.81-.12,1.15-.32Zm1.14-2.44c-.06-.33-.18-.63-.36-.89.33-.04.64-.14.91-.3.04.31.14.59.28.85-.3.06-.58.18-.83.34Zm1.69-3.63c-.06-.33-.18-.63-.36-.89.33-.04.64-.14.91-.3.04.31.14.59.28.85-.3.06-.58.18-.83.34Zm-1.92-5.15c-.04-.39-.17-.75-.38-1.06.33-.04.64-.14.91-.3.05.36.17.7.36,1-.33.06-.63.18-.89.36Zm1.67-3.79c-.06-.33-.18-.63-.36-.89.33-.04.64-.14.91-.3.04.31.14.59.28.85-.3.06-.58.18-.83.34Zm-2.92-2.96c.04.39.17.75.38,1.06-.47.05-.9.24-1.25.53-.02-.45-.18-.85-.43-1.19.48,0,.93-.15,1.3-.4Zm-.14,28.41c-.02-.45-.18-.85-.43-1.19.42,0,.81-.12,1.15-.32.05.36.17.7.36,1-.41.07-.77.26-1.08.51Zm1.86-3.94c-.06-.33-.18-.63-.36-.89.33-.04.64-.14.91-.3.04.31.14.59.28.85-.3.06-.58.18-.83.34Zm1.69-3.63c-.05-.27-.15-.52-.28-.75.31-.04.59-.14.85-.28.05.24.14.47.26.68-.3.06-.58.18-.83.34Zm-5.13-17.45c0,.48.15.93.4,1.3-.47.05-.9.24-1.25.53-.02-.55-.25-1.04-.61-1.4.06,0,.11.02.17.02.48,0,.93-.17,1.29-.44Zm.24,8.94c0,.48.15.93.4,1.3-.47.05-.9.24-1.25.53-.02-.55-.25-1.04-.61-1.4.06,0,.11.02.17.02.48,0,.93-.17,1.29-.44Zm.24,8.94c0,.48.15.93.4,1.3-.47.05-.9.24-1.25.53-.02-.55-.25-1.04-.61-1.4.06,0,.11.02.17.02.48,0,.93-.17,1.29-.44Zm.96-30.45c0,.48.15.93.4,1.3-.47.05-.9.24-1.25.53-.02-.55-.25-1.04-.61-1.4.06,0,.11.02.17.02.48,0,.93-.17,1.29-.44Zm-1.69,3.63c0,.48.15.93.4,1.3-.47.05-.9.24-1.25.53-.02-.55-.25-1.04-.61-1.4.06,0,.11.02.17.02.48,0,.93-.17,1.29-.44Zm-3.58,3.97c.19.06.39.1.61.1.48,0,.93-.17,1.29-.44,0,.57.21,1.08.55,1.48-.7.03-1.32.4-1.69.95.04-.16.08-.33.08-.51,0-.66-.33-1.24-.84-1.58Zm.24,8.94c.19.06.39.1.61.1.49,0,.93-.17,1.29-.44,0,.57.21,1.08.55,1.48-.7.03-1.32.4-1.69.95.04-.16.08-.33.08-.51,0-.66-.33-1.24-.84-1.58Zm.24,8.94c.19.06.39.1.61.1.48,0,.93-.17,1.29-.44,0,.57.21,1.08.55,1.48-.7.03-1.32.4-1.69.95.04-.16.08-.33.08-.51,0-.66-.33-1.24-.84-1.58Zm.24,8.94c.19.06.39.1.61.1.49,0,.93-.17,1.29-.44,0,.57.21,1.08.55,1.48-.7.03-1.32.4-1.69.95.05-.16.08-.33.08-.51,0-.66-.33-1.24-.84-1.58Z"/><path class="g" d="m289.29,592.2c.32,0,.59-.26.59-.59s-.26-.59-.59-.59-.59.26-.59.59.26.59.59.59Z"/><path class="g" d="m298.5,587.75c0,.78.64,1.42,1.42,1.42s1.42-.64,1.42-1.42-.64-1.42-1.42-1.42-1.42.64-1.42,1.42Z"/><path class="g" d="m299.68,577.38c-.78,0-1.42.64-1.42,1.42s.64,1.42,1.42,1.42,1.42-.64,1.42-1.42-.64-1.42-1.42-1.42Z"/><path class="g" d="m294.36,579.59c-.64,0-1.15.52-1.15,1.15s.52,1.15,1.15,1.15,1.15-.52,1.15-1.15-.52-1.15-1.15-1.15Z"/><path class="g" d="m291.8,584.36c0,.48.39.88.88.88s.88-.39.88-.88-.39-.88-.88-.88-.88.39-.88.88Z"/><path class="g" d="m295.15,586.06c0,.64.52,1.15,1.15,1.15s1.15-.52,1.15-1.15-.52-1.15-1.15-1.15-1.15.52-1.15,1.15Z"/><circle class="g" cx="297.99" cy="582.43" r="1.42"/><path class="g" d="m292.92,594.18c.48,0,.88-.39.88-.88s-.39-.88-.88-.88-.88.39-.88.88.39.88.88.88Z"/><path class="g" d="m296.33,573.49c0,.78.64,1.42,1.42,1.42s1.42-.64,1.42-1.42-.64-1.42-1.42-1.42-1.42.64-1.42,1.42Z"/><path class="g" d="m286.16,608.39c.32,0,.59-.26.59-.59s-.26-.59-.59-.59-.59.26-.59.59.26.59.59.59Z"/><path class="g" d="m287.36,586.89c.32,0,.59-.26.59-.59s-.26-.59-.59-.59-.59.26-.59.59.26.59.59.59Z"/><path class="g" d="m285.91,599.45c.32,0,.59-.26.59-.59s-.26-.59-.59-.59-.59.26-.59.59.26.59.59.59Z"/><circle class="g" cx="287.6" cy="595.24" r=".59"/><path class="g" d="m287.85,604.77c.32,0,.59-.26.59-.59s-.26-.59-.59-.59-.59.26-.59.59.26.59.59.59Z"/><path class="g" d="m288.22,573.73c0,.32.26.59.59.59s.59-.26.59-.59c0-.23-.13-.42-.32-.52l-.85.49s0,.02,0,.03Z"/><path class="g" d="m296.75,568.81l-.89.51c.38-.02.69-.22.89-.51Z"/><path class="g" d="m285.72,580.98c0-.17-.13-.3-.3-.3s-.3.13-.3.3.13.3.3.3.3-.13.3-.3Z"/><path class="g" d="m285.67,590.51c.32,0,.59-.26.59-.59s-.26-.59-.59-.59-.59.26-.59.59.26.59.59.59Z"/><path class="g" d="m283.98,593.85c.17,0,.3-.13.3-.3s-.13-.3-.3-.3-.3.13-.3.3.13.3.3.3Z"/><path class="g" d="m296.25,607.56c0-.64-.52-1.15-1.15-1.15s-1.15.52-1.15,1.15c0,.47.28.87.69,1.05l1.07-.09c.33-.2.56-.55.56-.96Z"/><path class="g" d="m281.74,588.23c0,.17.13.3.3.3s.3-.13.3-.3-.13-.3-.3-.3-.3.13-.3.3Z"/><path class="g" d="m289.78,608.62c-.33,0-.6.19-.75.46l1.43-.12c-.16-.2-.4-.34-.67-.34Z"/><path class="g" d="m298.72,607.83c-.22,0-.43.06-.62.15l.63-.15h0Z"/><path class="g" d="m301.13,567.66c.78,0,1.42-.64,1.42-1.42,0-.24-.07-.47-.17-.66l-2.45,1.41c.25.4.69.68,1.2.68Z"/><path class="g" d="m281.8,579.59c.17,0,.3-.13.3-.3s-.13-.3-.3-.3-.3.13-.3.3.13.3.3.3Z"/><path class="g" d="m284.03,584.61c0-.17-.13-.3-.3-.3s-.3.13-.3.3.13.3.3.3.3-.13.3-.3Z"/><path class="g" d="m284.22,602.79c.17,0,.3-.13.3-.3s-.13-.3-.3-.3-.3.13-.3.3.13.3.3.3Z"/><path class="g" d="m282.59,597.18c0-.17-.13-.3-.3-.3s-.3.13-.3.3.13.3.3.3.3-.13.3-.3Z"/><path class="g" d="m282.53,606.42c.17,0,.3-.13.3-.3s-.13-.3-.3-.3-.3.13-.3.3.13.3.3.3Z"/><path class="g" d="m287.7,577.36c0-.32-.26-.59-.59-.59s-.59.26-.59.59.26.59.59.59.59-.26.59-.59Z"/><path class="g" d="m291.23,597.81c.48,0,.88-.39.88-.88s-.39-.88-.88-.88-.88.39-.88.88.39.88.88.88Z"/><path class="g" d="m290.98,588.87c.48,0,.88-.39.88-.88s-.39-.88-.88-.88-.88.39-.88.88.39.88.88.88Z"/><path class="g" d="m293.16,603.12c.48,0,.88-.39.88-.88s-.39-.88-.88-.88-.88.39-.88.88.39.88.88.88Z"/><circle class="g" cx="289.54" cy="600.56" r=".59"/><path class="g" d="m291.47,606.75c.48,0,.88-.39.88-.88s-.39-.88-.88-.88-.88.39-.88.88.39.88.88.88Z"/><path class="g" d="m291.55,575.42c0,.48.39.88.88.88s.88-.39.88-.88-.39-.88-.88-.88-.88.39-.88.88Z"/><path class="g" d="m294.12,570.65c-.64,0-1.15.52-1.15,1.15s.52,1.15,1.15,1.15,1.15-.52,1.15-1.15-.52-1.15-1.15-1.15Z"/><path class="g" d="m290.74,578.17c-.48,0-.88.39-.88.88s.39.88.88.88.88-.39.88-.88-.39-.88-.88-.88Z"/><path class="g" d="m294.9,577.11c0,.64.52,1.15,1.15,1.15s1.15-.52,1.15-1.15-.52-1.15-1.15-1.15-1.15.52-1.15,1.15Z"/><path class="g" d="m296.01,598.62c0-.64-.52-1.15-1.15-1.15s-1.15.52-1.15,1.15.52,1.15,1.15,1.15,1.15-.52,1.15-1.15Z"/><path class="g" d="m306.43,567.93c0-.93-.75-1.67-1.67-1.67s-1.67.75-1.67,1.67.75,1.67,1.67,1.67,1.67-.75,1.67-1.67Z"/><path class="g" d="m307.16,594.75c0-.93-.75-1.67-1.67-1.67s-1.68.75-1.68,1.67.75,1.67,1.68,1.67,1.67-.75,1.67-1.67Z"/><path class="g" d="m296.79,605.09c.64,0,1.15-.52,1.15-1.15s-.52-1.15-1.15-1.15-1.15.52-1.15,1.15.52,1.15,1.15,1.15Z"/><path class="g" d="m305.73,605.61c1.06,0,1.92-.86,1.92-1.92s-.86-1.92-1.92-1.92-1.92.86-1.92,1.92.86,1.92,1.92,1.92Z"/><circle class="g" cx="305" cy="576.87" r="1.67"/><path class="g" d="m306.92,585.81c0-.93-.75-1.67-1.67-1.67s-1.68.75-1.68,1.67.75,1.67,1.68,1.67,1.67-.75,1.67-1.67Z"/><path class="g" d="m299.9,600.31c0-.78-.64-1.42-1.42-1.42s-1.42.64-1.42,1.42.64,1.42,1.42,1.42,1.42-.64,1.42-1.42Z"/><path class="g" d="m305.47,598.38c0-.93-.75-1.67-1.68-1.67s-1.67.75-1.67,1.67.75,1.67,1.67,1.67,1.68-.75,1.68-1.67Z"/><circle class="g" cx="300.41" cy="605.63" r="1.42"/><path class="g" d="m303.78,602c0-.93-.75-1.67-1.67-1.67s-1.67.75-1.67,1.67.75,1.67,1.67,1.67,1.67-.75,1.67-1.67Z"/><polygon class="i" points="466.46 179.78 466.46 172.01 469.32 171.26 469.32 165.89 458.82 158.39 451.26 161.74 451.15 174.61 453.88 178.14 456.63 179.78 457.41 183.89 460.23 185.95 465.63 183.45 466.46 179.78"/><polygon class="i" points="496.01 128.56 500.26 132.62 501.92 131.38 506.13 130.59 510.01 127.14 512.2 124.51 510.14 120.28 505.54 117.9 501.23 120.4 498.01 123.73 497.51 126.57 496.01 128.56"/><polygon class="i" points="425.94 131.46 430.92 135.53 432.5 134.05 437.03 132.97 439.95 130.16 442.15 126.84 439.82 123.07 436.4 120.51 434.74 120.51 430.65 123.26 427.7 127.14 427.57 129.8 425.94 131.46"/><polygon class="i" points="193.9 297.36 197.28 291.64 190.95 287.2 189.17 282.03 183.13 276.48 181.47 279.09 179.51 280.01 177.28 284.32 183.99 291.16 187.01 291.45 193.9 297.36"/><polygon class="i" points="268.03 319.52 266.53 322.05 259.97 329.33 259.55 331.85 259.85 333.04 262.52 334.76 262.14 337.59 259.86 341.01 257.28 340.8 254.3 338.29 252.78 339.39 250.27 338.28 247.53 336.34 247.21 333.54 232.37 323.39 231.99 320.9 233.57 318.39 236.03 317.36 250.28 326.89 252.28 325.65 255.9 325.64 262.1 317.36 268.03 319.52"/><polygon class="i" points="239.61 272.82 238.44 267.01 241.83 264.2 239.07 256.89 221.2 257.32 222.88 272.82 229.2 273.17 231.09 277.56 233.51 279.09 238.44 276.26 239.61 272.82"/><path class="i" d="m227.63,275.32s-2.06,7.75-3.94,10.69-5.31,8.44-11.38,9.81-10.12.81-14.69-2.94l1.47-1.4,6.59,2.84,7.75-1.31,5.25-5.25,4.35-7.29,2.63-7.49,2.65,1.04-.69,1.31Z"/><path class="i" d="m226.32,299.89s2.46.17,3.5,1.83c0,0,.42,4.5,0,8.67s-1.38,10.51-3.5,17.04c-1.42,4.36-4.96,12.42-7.33,16.75-2.38,4.33-5.42,11.17-8,16.5-2.58,5.33-6.6,12.65-6.92,18.58s1.79,10.44,1.79,10.44l-3.28-2.14-1.65-9.47,2.88-10.18,8.44-17.21,5.38-10.62,5.06-11.94,2.91-8.61,1.46-13.01-.75-6.62Z"/><path class="i" d="m241.16,273.17s8.92,2.85,14.92,6.85,11.81,12.75,13.19,16.81.56,11.25-.5,14.31-2.84,7.62-2.84,7.62l2.53.77,3.57-9.98,1.12-9.66-3.03-8.74-5.4-7.47-9.04-7.75-9.67-4.56-5.86-.73,1.02,2.53Z"/><polygon class="h" points="240.86 273.82 240.34 276.85 236.65 283.26 232.63 287.19 229.55 286.89 228.2 281.7 228.68 275 230.2 275.2 231.88 279.09 235.26 279.09 238.57 275.95 240.86 273.82"/><path class="i" d="m425.59,132.7s-7.32,8.73-6.96,19.75c.27,8.32,1.06,11.97,3.12,15.33,2.06,3.36,11.27,16.24,13.19,19.82,1.92,3.58,7.25,11,8.25,16.17s-.13,22.92-.77,28.58c-.64,5.67-1.89,11.25-4.48,18.17s-8.5,14.58-11.5,22.58-6.44,15.85-9.62,28.42c-1.66,6.55-3.71,16.19-3.71,16.19l-3.5-2.97,5.16-19.06,5-14.75,8.25-18.58,7.42-13.83,2.67-8.67,1.17-16.75,1.17-18.45-5.42-11.12-6.82-10.28-8.1-12.62-3.88-7.96-.71-11.62,1.64-8.03,3.79-8.18,2.66-3.11,1.99.97Z"/><path class="i" d="m496.72,129.24s-9.36,5.61-14.86,14.78-7.75,14.67-8.33,21.17c-.58,6.5-.33,12.58-.58,14.17-.25,1.58-1.83,3.08-3,3.58s-.62-3.67-.62-3.67l.49-1.59.48-12.91,2.87-11.03,5.48-10.4,6.42-8.55,8.44-6.76,1.88-.27,1.35,1.48Z"/><path class="i" d="m412.53,317.7s-.02.06-.05.15l.05-.15Z"/><path class="i" d="m400.62,343.59l1.07,2.2c3.2-6.76,9.63-24.69,10.69-27.67.04-.12.07-.21.1-.28l-2.14-1.66-9.72,27.41Z"/><polygon class="i" points="510.51 296.63 510.85 296.49 534.12 286.76 534.12 285.01 512.08 293.79 510.51 296.63"/><path class="i" d="m642.74,373.41s-1.72-.81-4.13.94-11.91,15.83-16.08,18.33c-4.17,2.5-5.92,3.58-10.08,2.5-4.17-1.08-10.57-4.99-15.2-9.66l1.62-.88,7.17,4.71,7.58,3.42,5-.58,5.66-6,8.12-9.86,5.73-5.71,4.32-.21,1.41,2.45-1.12.56Z"/><path class="i" d="m660.32,378.4s13.96,8.65,20.71,18.03c6.75,9.37,7.17,19.96,6.17,25.83s-8.93,19.94-8.93,19.94l3.06.6,6.25-10.3,2.89-10.88v-13.43l-5.79-11.99-6.18-7.99-8.95-7.79-9.22-4.91v3.94-1.05Z"/><path class="i" d="m627.13,405.57s1.84,1.53,1.48,6.94c-.31,4.58-1,17.67-4.42,24.67s-9.75,14.5-11.67,21.83c-1.92,7.33-3,10.25-2.08,16.42.92,6.17,3.16,13.94,3.16,13.94l-3.49-1.6-2.42-13.42v-11.06l3.92-9.77,6.56-9.33,3.52-6.83,3.5-13.08,1.11-15.09.82-3.6Z"/><polygon class="i" points="615.98 490.76 628.66 518.57 625.88 518.88 613.15 489.16 615.98 490.76"/><polygon class="i" points="680.07 485.89 708.2 471.1 707.76 472.89 678.38 488.67 680.07 485.89"/><path class="i" d="m136.67,285.01c5.86-9.46,9.12-19.45,7.57-30.48-.2-1.46-.58-2.96-1.18-4.33-.06-.03-.11-.07-.17-.1-4.87-2.14-11.34,3.05-14.58,7.28-11.7,15.24-12.9,31.73-13.73,48.52,5.52-3.26,15.44-10.18,22.08-20.9Z"/><path class="g" d="m78.37,292.95c-2.5-1.43-5.66-2.43-8.2-1.05-3.83,2.08-3.71,8.88-2.61,13.1,2.15,8.19,5.49,14.58,9.66,20.14,3.76,4.2,8.01,8.02,12.59,11.97,0,0,5.98-14.49.73-28.54-1.38-3.7-3.08-7.14-5.2-10.22-2.02-2.06-4.32-3.89-6.98-5.41Z"/><path class="g" d="m50.45,357.76c-2.52-1.8-5.32-3.22-8.48-4.17-2.5-.76-5.5-.99-7.46.74-2.96,2.62-1.47,8.6.36,12.11,2.28,4.34,4.83,7.77,7.64,10.62,5.32,4.02,11.35,6.89,17.95,10.37,0,0,2.33-12.14-5.16-23.49-1.48-2.24-3.09-4.32-4.85-6.18Z"/><path class="i" d="m134.93,349.01c-2.13-1.68-4.98-2.64-7.72-3.02-8.21-1.14-16.55,1.91-24.14,5.26-5.42,2.39-14.49,8.25-20.19,12.07,12.29,2.06,25.73,3.21,37.2.35,3.96-.99,8-2.29,11.04-5.01,2.7-2.4,4.43-6.17,3.8-9.66Z"/><polygon class="i" points="248.7 135.1 284.73 112.26 263.74 143.76 248.7 135.1"/><polygon class="i" points="243.4 131.43 282.13 112.26 230.99 124.56 243.4 131.43"/><polygon class="i" points="462.54 18.64 435.67 1 451.32 25.87 462.54 18.64"/><polygon class="i" points="467.61 16.56 477.68 11.1 438.5 1.68 467.61 16.56"/><polygon class="i" points="662.2 211.35 698.19 188.97 677.73 220.3 662.2 211.35"/><polygon class="i" points="656.75 208.28 696.2 188.78 644.99 201.53 656.75 208.28"/><path class="g" d="m218.97,571.46c.17.54.26,1.11.26,1.71,0,3.21-2.6,5.82-5.82,5.82-.4,0-.78-.04-1.16-.12.73,2.38,2.94,4.11,5.56,4.11,3.21,0,5.82-2.6,5.82-5.82,0-2.82-2-5.16-4.66-5.7Z"/><polygon class="g" points="241.83 243.05 236.05 246.83 236.05 253.93 243.45 249.95 241.83 243.05"/><polygon class="i" points="592.11 301.51 571.28 323.76 601.66 331.63 623.36 308.76 592.11 301.51"/><polygon class="i" points="43.07 484.58 8.34 464.37 43.07 444.91 77.34 463.68 43.07 484.58"/><polygon class="i" points="484.79 75.63 469.48 98.47 443.25 96.72 457.53 73.43 484.79 75.63"/><path class="f" d="m512.83,349.68c-4.53,2.48-18.11,9.93-18.11,9.93-1.94,1.06-4.84,1.12-6.48.13l-27.26-16.54c-1.64-.99-1.21-3.21-.52-3.64l19.18-10.02c1.94-1.06,4.84-1.12,6.48-.13l27.93,16.57c.4.68.73,2.64-1.22,3.7Z"/><path class="f" d="m651.17,512.4l-18.35-9.7,1.57,13.13-2.15,6.57-3.18-.36-7.83-13.64c.03,1.45-1.8-3.77-2.05-3.62l-24.19,14.35c-.42.71-.76,2.76,1.27,3.88,4.75,2.6,18.98,10.42,18.98,10.42,2.03,1.12,5.08,1.18,6.79.13l28.58-17.34c1.72-1.04,1.27-3.37.55-3.82Z"/></g><g id="c"><path class="i" d="m755.15,566.44c.43-.97.13-2.31-1.08-2.59-1.63-.38-6.09-1.49-8.95-2.2l2.86,1.65-124.88,72.2-19.73-10.92-65.8-38.63-4.3-3.16-2.52-4.25-.76-3.11c-5.03,3.37-8.16,5.89-8.52,7.1-.88,2.93,2.69,5.59,5.58,7.25l91.48,52.4c2.3,1.32,5.12,1.31,7.41-.02l126.02-73.21s2.7-1.43,3.18-2.51Z"/><path class="i" d="m213.41,589.58l-4.57-7.44-1.38-4.99-.11-12.18c-5.96,10.71-4.2,22.53,5.29,32.57l.77-7.96Z"/><path class="i" d="m344.25,565.12l-.19,12.57-2.17,6.44-3.79,5.34-5.03,4.62-7.77,4.95-8.86,3.95-18.16,4.83-11.67,1.46-13.74.38-13.42-.99-13.34-2.45-9.85-2.97-6.77-2.8-5.85-3.09,2.32,9.49v.74c28.14,15.64,72.9,15.46,100.64-.56,19.64-11.34,25.52-27.61,17.67-41.91Z"/><path class="i" d="m556.28,420.5l-2.21,5.15-4.05,4.44-9.93,6.01-20.44,11.77-51.96,29.91-116-67.35,5.39-3.1.92-1.23s.2-.79.38-1.55c-1.07.63-1.66,1.02-1.69,1.12,0,0-8.37,2.09-10.67,2.63-1.12.26-1.41,1.51-1.01,2.41.45,1,2.95,2.33,2.95,2.33l117.07,68.01c2.13,1.24,4.75,1.24,6.89.02l84.98-48.68c2.69-1.55,6-4.01,5.18-6.73-.29-.95-2.38-2.74-5.8-5.15Z"/><path class="g" d="m109.42,309.7l.09-1.65c.08-1.51.15-3.02.23-4.53.83-17.18,1.69-34.94,14.03-51.01,2.88-3.75,9.89-10.17,15.77-7.58,3,1.32,5.03,4.68,5.7,9.46,1.44,10.24-1.08,20.43-7.71,31.14-9.67,15.63-25.91,23.17-26.6,23.48l-1.5.69Zm27.25-63.35c-4.08,0-8.9,4.22-11.33,7.38-11.96,15.58-12.76,32.25-13.62,49.89-.04.94-.09,1.88-.14,2.81,4.25-2.26,16.55-9.56,24.22-21.95,6.37-10.3,8.8-20.05,7.43-29.81-.33-2.36-1.36-6.52-4.52-7.91-.65-.29-1.34-.41-2.05-.41Z"/><path class="g" d="m90.21,339.1l-1.05-.91c-12.13-10.48-21.78-19.87-26.33-37.2-1-3.8-1.63-11.66,3.09-14.23,2.42-1.31,5.67-.94,9.17,1.06,7.4,4.23,12.76,11.01,16.38,20.73,5.32,14.25-.49,28.66-.74,29.27l-.53,1.28Zm-21.09-51.12c-.77,0-1.54.15-2.24.53-3.35,1.82-3.08,8.31-2.12,11.97,4.27,16.25,13.25,25.37,24.6,35.24,1.27-3.84,4.38-15.39.24-26.48-3.46-9.26-8.53-15.7-15.5-19.69-1.18-.67-3.1-1.57-4.98-1.57Z"/><path class="g" d="m62.3,388.94l-1.19-.63c-1.16-.61-2.3-1.2-3.42-1.78-11.01-5.72-20.52-10.66-27.46-23.89-1.67-3.18-3.84-10.05-.14-13.32,1.89-1.68,4.88-2.01,8.41-.95,7.42,2.24,13.55,7.15,18.75,15.02,7.63,11.55,5.41,23.71,5.31,24.23l-.25,1.33Zm-27.62-39.19c-1.18,0-2.37.26-3.27,1.06-2.55,2.26-.99,7.88.59,10.89,6.65,12.67,15.46,17.25,26.61,23.05.71.37,1.43.74,2.15,1.12.33-3.42.55-12.7-5.19-21.38-4.93-7.46-10.71-12.11-17.66-14.21-.83-.25-2.02-.53-3.23-.53Z"/><path class="g" d="m52.92,423.67c-.16,0-.32-.04-.47-.12-11.18-5.9-23.85-12.6-31.36-26.91-1.6-3.06-3.69-9.67-.13-12.82,1.83-1.62,4.71-1.94,8.1-.92,7.13,2.15,13.02,6.87,18,14.42,7.28,11.02,6.87,24.8,6.85,25.38-.01.34-.2.66-.5.83-.16.09-.33.13-.5.13Zm-27.52-39.36c-1.12,0-2.25.25-3.11,1-2.43,2.15-.94,7.52.57,10.4,6.9,13.15,18.5,19.7,29.05,25.29-.13-3.94-1-14.25-6.5-22.58-4.72-7.15-10.25-11.6-16.91-13.61-.8-.24-1.93-.5-3.09-.5Z"/><path class="g" d="m93.77,335.45c-.64,0-1.29,0-1.95,0l-2.23-.02,1.5-1.65c.53-.58,12.93-14.24,19.62-18.85,7.71-5.32,14.31-7.95,20.77-8.27,5.14-.26,11.04,1.53,12.29,7.31.45,2.08.12,4.37-.92,6.45-2.18,4.36-6.36,6.75-10.55,8.68-9.28,4.28-21.9,6.37-38.53,6.37Zm18.07-18.88c-5.15,3.55-14.16,13.03-17.74,16.88,16.17-.03,28.4-2.05,37.36-6.18,3.86-1.78,7.69-3.95,9.59-7.76.84-1.68,1.11-3.5.76-5.13-1.24-5.73-8.15-5.83-10.24-5.73-6.07.3-12.34,2.82-19.74,7.92h0Z"/><path class="g" d="m76.61,392.12c-2.95,0-5.92-.11-8.87-.22-2.42-.09-4.71-.18-6.95-.2-.42,0-.79-.27-.93-.66s-.03-.83.29-1.1c.46-.4,11.42-9.77,17.22-13.77,6.76-4.66,12.54-6.96,18.21-7.25,4.51-.23,8.21,1.31,9.92,4.1,1.73,2.82,1.28,6.94-1.08,10.01-2.09,2.72-5.11,4.36-8.07,5.72-5.94,2.74-12.77,3.36-19.74,3.36Zm-13.14-2.37c1.41.04,2.85.09,4.35.15,9.68.36,19.69.74,27.7-2.96,2.72-1.26,5.49-2.75,7.32-5.12,1.53-1.99,2.48-5.27.96-7.75-1.96-3.2-6.7-3.22-8.12-3.15-5.28.26-10.73,2.45-17.17,6.9-4.24,2.93-11.52,8.97-15.04,11.93Z"/><path class="g" d="m104.02,367.18c-10.42,0-21.18-1.8-30.27-3.62l-2.29-.46,1.91-1.34c.7-.49,17.19-12.02,25.53-15.7,7.85-3.46,16.27-6.51,24.68-5.33,5.65.79,9.89,3.55,11.34,7.4,1.46,3.88-.06,8.85-3.7,12.1-3.25,2.9-7.43,4.23-11.47,5.23-4.96,1.23-10.3,1.72-15.74,1.72Zm-27.55-5.12c13.24,2.55,29.53,4.76,42.81,1.46,3.79-.94,7.69-2.17,10.62-4.78,2.49-2.21,4.54-6.26,3.16-9.9-1.19-3.15-4.83-5.44-9.75-6.13-7.93-1.1-16.02,1.84-23.6,5.18-6.51,2.87-18.55,10.95-23.24,14.17Z"/><path class="g" d="m58.86,423.96c-2.02,0-4.03-.1-6.03-.29-.37-.04-.69-.28-.83-.62-.14-.35-.07-.74.17-1.02.35-.41,8.62-10.04,13.41-12.77,5.48-3.12,10.06-4.5,14.45-4.34,3.53.13,6.32,1.59,7.48,3.91,1.37,2.75.22,5.9-1.52,7.81-1.8,1.97-4.24,3.03-6.6,3.88-6.3,2.27-13.41,3.45-20.52,3.45Zm-3.87-2.12c8.13.51,16.47-.61,23.71-3.21,2.12-.76,4.3-1.7,5.81-3.35,1.24-1.35,2.15-3.67,1.21-5.56-1.22-2.45-4.72-2.76-5.76-2.8-3.99-.15-8.24,1.15-13.38,4.08-3.42,1.94-9.04,8.01-11.57,10.84Z"/><path class="g" d="m77.9,359.86l-1.74-1.07c-.19-.12-18.94-11.59-27.21-17.46-4.24-3.01-8.62-6.12-11.82-10.46-2.93-3.98-5.31-10.56-2.36-16.04,2.21-4.12,7.17-6.67,12.33-6.31,4.38.29,8.8,2.52,12.42,6.27,3.4,3.51,5.68,7.81,7.47,11.56l.93,1.94c4.89,10.21,8.42,17.59,9.77,29.55l.23,2.03Zm-27.8-20.16c6.72,4.77,20.44,13.28,25.32,16.29-1.46-10.41-4.64-17.07-9.32-26.85l-.93-1.95c-1.72-3.6-3.9-7.73-7.1-11.03-3.28-3.39-7.23-5.4-11.12-5.66-4.32-.28-8.62,1.87-10.44,5.26-2.5,4.66-.37,10.41,2.21,13.91,3.01,4.08,7.26,7.1,11.37,10.02h0Z"/><path class="g" d="m52.58,443.65l-2-.03c.69-51.33,19.17-78.51,47.14-119.66,6.64-9.77,14.16-20.84,22.02-33.1l1.68,1.08c-7.88,12.29-15.41,23.37-22.05,33.14-27.76,40.85-46.11,67.84-46.79,118.56Z"/><path class="g" d="m776.03,440.8l-.14-1.16c-1.77-14.25,5.08-30.61,29.64-33.82l2.26-.3-1.32,1.86c-.07.09-6.65,9.44-11.61,18.6-5.96,11.04-17.23,14.35-17.71,14.49l-1.12.32Zm27.49-32.66c-25.23,4.32-26.38,22.65-25.78,30.02,2.94-1.13,10.88-4.82,15.36-13.12,3.67-6.79,8.22-13.66,10.42-16.9Z"/><path class="g" d="m775.28,448.71l-1.97-.32c2.78-16.98,16.58-29.82,17.16-30.35l1.35,1.47c-.14.13-13.87,12.92-16.54,29.21Z"/><path class="g" d="m762.79,436.32l-1.58-2.45c-1.83-2.84-4.85-5.28-7.76-7.63-2.63-2.13-5.12-4.13-6.59-6.33l-.66-.98,3.75-1.68-6.3-2.42-.18-.28c-7.22-11.43-11-27.88-9.63-41.92l.11-1.11,1.09.22c.64.13,15.78,3.43,23.5,21.75,6.57,15.58,4.59,38.94,4.5,39.93l-.26,2.9Zm-13.55-16.56c1.36,1.62,3.36,3.23,5.46,4.93,2.29,1.85,4.64,3.75,6.52,5.9.32-6.62.59-24.2-4.52-36.32-6.13-14.54-17.42-19.14-20.97-20.26-1,13.24,2.57,28.45,9.26,39.19l10.17,3.91-5.91,2.65Z"/><path class="g" d="m764.17,449.98c-.01-.26-1.47-26.3-19.34-60.2l1.77-.93c18.09,34.32,19.56,60.77,19.57,61.03l-2,.1Z"/><polygon class="e" points="468.11 396.22 531.06 361.69 530.77 374.81 467.83 409.34 468.11 396.22 468.11 396.22"/><polygon class="e" points="537.85 352.39 534.79 354.07 534.32 377.05 537.38 375.37 537.85 352.39 537.85 352.39"/><polygon class="e" points="464.57 392.55 461.51 394.23 461.04 417.25 464.1 415.57 464.57 392.55"/><path class="g" d="m491.22,357.25c-1.3,0-2.56-.28-3.5-.85l-27.26-16.54c-1.01-.62-1.6-1.67-1.61-2.89-.01-1.07.41-2.03,1.07-2.45l19.25-10.06c2.24-1.23,5.52-1.27,7.46-.1l27.92,16.57c.14.09.26.21.35.35.34.57.62,1.63.32,2.77-.27.98-.93,1.78-1.91,2.32l-18.11,9.93c-1.16.64-2.6.96-3.98.96Zm-30.2-21.06c-.08.13-.22.52-.15.98.06.43.28.75.63.97l27.26,16.54c1.34.81,3.85.75,5.48-.15l18.11-9.93c.5-.28.82-.64.94-1.1.11-.4.05-.79-.02-1.03l-27.66-16.41c-1.35-.82-3.86-.75-5.49.14l-19.09,9.98Z"/><path class="g" d="m636.18,591.33c-.17,0-.33-.04-.48-.12l-66-36.21c-.31-.17-.51-.5-.52-.85l-.3-13.76c0-.36.18-.69.48-.88.3-.19.69-.19,1-.02l66,36.21c.31.17.51.5.52.86l.3,13.76c0,.36-.18.69-.48.88-.16.1-.34.15-.52.15Zm-65.01-37.81l63.97,35.1-.25-11.45-63.97-35.1.25,11.45Z"/><polygon class="j" points="562.77 533.01 563.26 554.71 566.47 556.47 565.98 534.78 562.77 533.01 562.77 533.01"/><polygon class="j" points="640.09 596.86 643.3 598.62 642.81 576.75 639.6 574.99 640.09 596.86"/><path class="g" d="m611.66,535.67c-1.44,0-2.94-.33-4.15-1l-18.98-10.41c-1.02-.56-1.7-1.39-1.98-2.41-.32-1.17-.02-2.27.33-2.86.08-.14.21-.26.35-.35l29.28-17.37c.29-.18.64-.34,1.01-.47l.66,1.89c-.24.08-.46.19-.65.3l-29.03,17.22c-.09.26-.15.68-.03,1.12.13.49.47.88,1.01,1.18l18.99,10.41c1.72.95,4.38,1.02,5.79.16l28.58-17.35c.39-.24.63-.6.69-1.07.07-.5-.09-.92-.18-1.06l-11.01-5.75.93-1.77,11.11,5.8c.75.47,1.19,1.47,1.17,2.57-.01,1.27-.62,2.36-1.67,2.99l-28.58,17.35c-.98.59-2.29.89-3.64.89Z"/><path class="g" d="m456,643.53l-1.71-1.03c23.65-39.39,18.75-61.47,15.56-72.68-4.3,3.68-19.49,18.21-22.79,42.43l-1.98-.27c3.95-29,24.51-44.54,24.71-44.69.26-.19.6-.25.91-.14.31.1.55.35.64.67,3.19,10.97,9.83,33.81-15.34,75.72Z"/><path class="g" d="m437.05,630.8c-18.45-18.59-13.44-39.92-13.39-40.13l.33-1.32,1.16.71c17.78,10.83,20.69,15.74,24.53,30.4l-1.94.51c-3.59-13.7-6.35-18.51-22.4-28.44-.71,4.87-1.86,21.78,13.11,36.87l-1.42,1.41Z"/><path class="g" d="m339.74,329.71h-.9c-.22-.02-21.69-.6-28.37-21.49-5.6-17.49-9.96-28.25-10-28.35l-.66-1.61,1.72.24c14.06,1.98,25.05,8.74,31.78,19.54,5.49,8.82,7.88,20.04,6.54,30.78l-.11.89Zm-36.77-48.96c1.42,3.65,5.05,13.22,9.41,26.86,5.55,17.35,21.56,19.71,25.6,20.03,2.06-19.7-7.96-42.23-35-46.9Z"/><path class="g" d="m340.42,338.81c-2.28-17.06-17.88-36.48-18.04-36.67l1.55-1.26c.66.81,16.11,20.04,18.46,37.67l-1.98.26Z"/><path class="g" d="m246.09,251.38c-1.18-.9-2.41-1.65-3.63-2.27-.19,1.27-1.19,2.55-3.03,3.62-4.27,2.48-11.4,2.87-15.92.88-2.06-.91-3.22-2.15-3.47-3.47-.82,1.1-1.45,2.42-1.85,3.96-1.96,7.43-3.73,20.44,2.76,31.38.78-1.27,1.38-2.57,1.76-3.85.39-1.3,1.61-5.64,2.06-6.81.34-.89.73-1.64,1.21-2.26-3.18-1.7-3.67-6.51-3.77-10.81,0-.36,0-.82.04-1.31.33-.2.67-.38.9-.47,4.28-1.59,6.48,1.06,13.06-.14l-.12,2.84c.46-.66,1.17-1.11,2.41-1.03,1.04.07,1.45.54,1.32,1.41-.03.19-.07.35-.13.53-.1.3-.22.56-.36.79-.42.7-1.04,1.11-1.94,1.18.04,1.26.19,2.81.56,4.38,7.36.43,13.75,3.21,18.93,6.83.59-13.34-5.78-21.56-10.79-25.38Z"/><path class="g" d="m305.47,389.62c-.19,0-.38-.06-.55-.16-.25-.16-.41-.43-.44-.72l-.75-6.41c-.06-.54.31-1.03.85-1.11,10.72-1.56,11.52-.58,11.86-.17.95,1.15,1.33,2.91.91,4.18-.27.82-.85,1.38-1.62,1.57-4.2,1.05-9.91,2.76-9.97,2.78-.09.03-.19.04-.29.04Zm.36-6.55l.5,4.26c1.9-.56,5.81-1.69,8.92-2.46.04,0,.13-.03.2-.26.17-.52.02-1.48-.46-2.15-1-.27-5.27.09-9.16.61Z"/><path class="g" d="m329.13,389.42c-.31,0-.63-.07-.95-.22l-.12-.06c-1.62-.75-3.3-1.53-8.34-.98-4.9.54-6.82-1.6-7.57-3.49-.05-.12-.14-.3-.24-.5-.56-1.13-1.26-2.53-.59-3.53.88-1.32,2.59-2.25,3.97-2.99.39-.21.75-.4,1.03-.58.96-.6,4.67,1.01,4.71,1.03.16.08.3.2.39.35l.77,1.16c.04.06.07.12.1.19,1.37.49,3.78,1.52,6.24,3.34,2.31,1.7,2.64,3.8,2.47,4.76-.09.53-.45,1.01-.96,1.28-.28.15-.59.22-.91.22Zm-6.36-3.44c3.22,0,4.75.71,6.13,1.35l.12.06c-.01-.43-.22-1.55-1.68-2.62-3.39-2.5-6.69-3.37-6.72-3.38-.41-.1-.7-.45-.75-.87-.02-.21.02-.41.12-.58l-.07-.11c-.64-.24-2.2-.75-2.82-.88-.26.15-.55.31-.87.48-1.08.58-2.55,1.38-3.19,2.25.03.37.48,1.27.65,1.62.13.26.24.49.3.65.73,1.83,2.53,2.56,5.5,2.24,1.26-.14,2.34-.2,3.27-.2Z"/><path class="g" d="m237.82,425.73c-.53,0-1.01-.18-1.42-.52-3.31-2.79-8.04-6.42-8.09-6.45-.23-.18-.38-.45-.39-.75-.01-.3.11-.58.32-.78l4.75-4.36c.4-.37,1.01-.35,1.39.04,7.54,7.77,7.22,8.99,7.08,9.51-.38,1.44-1.58,2.78-2.85,3.18-.27.09-.54.13-.8.13Zm-7.35-7.83c1.57,1.21,4.78,3.72,7.22,5.78.03.02.1.08.33.01.52-.17,1.21-.85,1.48-1.63-.37-.97-3.16-4.22-5.86-7.06l-3.16,2.9Z"/><path class="g" d="m243.69,438.41c-.29,0-.58-.07-.85-.2-.57-.28-.96-.82-1.09-1.5l-.03-.13c-.34-1.75-.69-3.57-4.09-7.33-3.3-3.65-2.7-6.46-1.61-8.18.07-.11.16-.28.26-.48.58-1.11,1.31-2.5,2.52-2.55,1.57-.06,3.34.79,4.75,1.47.4.19.76.37,1.07.5,1.04.43,1.92,4.38,1.92,4.42.03.18.01.36-.05.52l-.49,1.31c-.03.07-.06.13-.1.19.41,1.4.99,3.95.96,7.02-.03,2.86-1.53,4.36-2.41,4.79-.23.11-.49.17-.76.17Zm-4.7-18.38c-.28.24-.75,1.13-.93,1.48-.13.26-.25.48-.35.63-1.06,1.67-.6,3.55,1.4,5.77,3.77,4.18,4.2,6.36,4.57,8.29l.03.13c.34-.26,1.13-1.09,1.14-2.9.04-4.21-1.19-7.4-1.2-7.43-.15-.39-.05-.83.27-1.11.16-.14.34-.22.54-.24l.05-.12c-.18-.66-.68-2.22-.94-2.8-.27-.12-.58-.27-.9-.42-1.11-.53-2.61-1.26-3.69-1.27Z"/><path class="i" d="m228.93,396.43c-9.16-.63-16.17-3.21-20.69-5.46,6.16,7.26,23.54,33.09,25.09,34.4.79.67,3.46.32,5.21-2.56,1.16-1.9,1.91-3.64,1.19-5.04-2.54-4.96-6-9.23-10.81-21.34Z"/><path class="i" d="m315.03,383.66c-.86-2.05-2.64-4.36-4.52-4.32-5.88.13-8.71,1.76-26.05-1.61-.41-.08-.87-.17-1.36-.25-.92.93-8.34,7.33-19.98,12.48,1.1.98,2.19,1.81,3.27,2.44,2.6,1.51,4.86.47,9.26-.16,7.15-1.02,35.72-2.59,37.87-2.75,1.45-.11,2.8-2.73,1.49-5.83Z"/><path class="g" d="m193.32,298.17c-2.66-1.91-5.18-4.29-6.62-5.72-1.16.06-2.86-.03-3.63-.7-.75-.65-2.81-2.38-3.38-2.86,0,0-.07-.06-.08-.07l-.07-.06s-.06-.06-.09-.09c-.19-.2-.4-.41-.65-.65-1.1-1.08-1.97-1.96-2.28-2.67-.38-.85-.3-1.73.21-2.33.08-.11.46-.65.92-1.3,1.65-2.36,2.1-2.98,2.31-3.18.31-.3.71-.45,1.11-.48.1-.9.45-1.78.89-2.2,1.04-.99,2.14.03,3.03.85.63.58,1.42,1.31,2.46,1.96,2.7,1.67,3.55,5.16,3.59,5.3l.81,2.7c.65.68,2.79,2.77,5.9,4.35l-.91,1.78c-3.67-1.87-6.12-4.41-6.59-4.92-.02-.02-.04-.04-.06-.06-.09-.11-.16-.24-.19-.38l-.89-2.95c-.02-.08-.72-2.89-2.71-4.12-1.21-.75-2.11-1.58-2.77-2.19-.15-.14-.32-.3-.47-.43-.1.38-.15.88-.09,1.13.17.12.35.25.55.39.6.42,1.27.89,1.76,1.28l.62.33-.46.86.2.1c-.11.22-.29.38-.51.48l-.17.33-.63-.34c-.07-.03-.14-.08-.21-.13-.45-.36-1.14-.85-1.74-1.27-.49-.34-.92-.65-1.17-.85-.28.36-1.39,1.94-2,2.82-.74,1.06-.94,1.34-1.03,1.44.04-.03.03.1.09.24.18.42,1.31,1.52,1.85,2.05.26.26.49.48.65.65l.06.05c.64.54,2.72,2.28,3.47,2.93.17.1,1.21.33,2.6.18.3-.03.6.07.82.29,1.32,1.33,3.93,3.85,6.7,5.83l-1.17,1.62Z"/><path class="g" d="m233.1,397.57h-.14c-19.63-.04-30.8-9.05-31.26-9.43-.15-.12-.26-.29-.32-.48-.06-.2-1.55-5.02-1.53-7.82.04-7.47,4.27-15.6,11.95-30.36,2.36-4.53,5.03-9.66,8.03-15.64,5.7-11.34,7.43-29.26,6.09-32.14-1.98,1.62-6.71,5.11-11.24,5.45-6.12.46-13.47-.04-21.54-7.19-1.66-1.47,1.85-6.73,1.89-6.78,2.04-3,3.59-3.07,4.53-2.59,2.47,1.26,7.6,3.87,12.19,1.71,4.9-2.31,8.64-6.41,10-10.96.09-.32.24-.81.41-1.4.56-1.92,1.32-4.56,1.67-5.48.36-.94.76-1.71,1.22-2.35l1.62,1.17c-.36.49-.67,1.11-.97,1.89-.32.84-1.1,3.53-1.62,5.31-.17.6-.32,1.1-.41,1.42-1.54,5.17-5.58,9.62-11.07,12.2-5.47,2.57-11.41-.45-13.95-1.74,0,0-.29,0-.9.6-1.61,1.59-2.98,4.73-3.08,5.68,7.43,6.47,14.2,6.92,19.85,6.5,4.18-.31,8.91-4,10.26-5.12,1.09-.91,1.98-.35,2.22-.15,3.06,2.43.4,23.33-5.39,34.85-3.01,5.99-5.69,11.13-8.05,15.67-7.53,14.48-11.68,22.46-11.72,29.45-.01,2.13,1.04,5.85,1.35,6.92,1.68,1.26,12.39,8.76,29.77,8.8h.14c24.78,0,43.13-13.64,48.03-17.7-7.21-2.23-12.84-9.1-13.16-16.42l-.25-5.7c-.81-18.41-1.21-27.65-2.83-32.88l1.91-.59c1.69,5.47,2.1,14.8,2.91,33.38l.25,5.7c.32,7.07,6.21,13.67,13.43,15.02.51.1.86.56.81,1.08-.1,1.04-7.01,6.39-14.71,10.52-8.18,4.39-21.12,9.6-36.39,9.6Zm34.78-77.34c-1.14,0-3.45-.64-8.35-2.91-.44-.2-.67-.7-.55-1.17l1.84-6.84c.84-4.47.31-8.11-1.59-10.74l1.62-1.17c2.24,3.1,2.89,7.26,1.92,12.36l-1.63,6.1c2.55,1.14,5.38,2.22,6.42,2.37,4.75-9.16,5.61-17.22,2.62-24.62-2.51-6.23-13.17-19.91-29.2-22.37.02.02.04.05.07.07.8.9,1.02,2.34.65,4.28-.83,4.35-4.49,10.41-8.62,12.5-1.28.65-2.41.72-3.35.23-1.17-.61-1.89-1.99-2.2-4.23l-.11-.78c-.44-2.97-1.05-7.04,1.19-10.26l1.64,1.14c-1.79,2.56-1.25,6.18-.85,8.82l.12.8c.28,2,.84,2.57,1.14,2.73.34.18.85.1,1.52-.24,3.45-1.75,6.83-7.29,7.55-11.09.23-1.22.16-2.18-.18-2.58-.33-.38-.87-.7-1.56-.93l.41-1.21.11-1.55c18.4,1.34,30.72,16.98,33.52,23.91,3.26,8.08,2.31,16.82-2.92,26.7-.16.3-.36.68-1.23.68Z"/><path class="g" d="m233.55,280.09c-.46,0-.91-.1-1.36-.29-1.12-.48-2.06-1.56-2.63-3.03-.27-.69-.6-1.72-.98-3.05l1.92-.55c.36,1.28.67,2.24.92,2.88.38.97.93,1.65,1.56,1.92.36.16.73.16,1.1.01,1.2-.48,3.19-1.96,3.8-3.49.23-.58.24-1.11.02-1.6-1.1-2.42-1.43-5.18-1.51-7.08l2-.09c.07,1.72.36,4.21,1.33,6.33.45.99.46,2.08.02,3.17-.91,2.28-3.49,4.03-4.91,4.6-.42.17-.85.25-1.28.25Z"/><path class="g" d="m228.3,274.16c-.32,0-.62-.02-.9-.07-5.94-1.02-6.12-8.65-6.2-12.32-.06-2.45.87-8.26.91-8.5l1.97.32c0,.06-.94,5.87-.88,8.14.12,5.01.75,9.74,4.54,10.39,2.01.35,7.31-1.41,8.46-6.38l1.95.45c-1.29,5.6-6.64,7.97-9.85,7.97Z"/><path class="h" d="m258.48,341.8c-.53,0-1.02-.16-1.42-.47l-3.31-2.22,1.11-1.66,3.37,2.25c.16.13.47.12.89-.09,1.19-.58,2.31-2.26,2.4-3.58.02-.29-.01-.53-.09-.69-.03-.05-.06-.09-.09-.12l-2.25-1.5,1.11-1.66,2.3,1.54c.33.25.56.53.72.86.24.48.34,1.06.29,1.71-.14,2.04-1.68,4.34-3.51,5.24-.52.26-1.04.38-1.52.38Z"/><path class="h" d="m247.05,334.63l-14.71-9.84c-.33-.18-.66-.53-.87-.96-.24-.48-.34-1.06-.29-1.7.14-2.04,1.68-4.34,3.51-5.24,1.01-.5,1.98-.52,2.74-.06l13.67,9.15-1.11,1.66-13.63-9.12c-.08-.05-.38-.03-.78.16-1.19.58-2.31,2.26-2.4,3.58-.02.29.01.53.09.69.04.09.09.12.12.14l14.78,9.89-1.11,1.66Z"/><path class="h" d="m233.56,325.12c-.41,0-.8-.09-1.14-.28l.96-1.75c.12.06.4.06.82-.14,1.19-.58,2.31-2.26,2.4-3.58.02-.29-.01-.53-.09-.69-.03-.07-.07-.11-.11-.13l1.04-1.71c.37.22.67.55.87.96.24.48.34,1.06.29,1.71-.14,2.04-1.68,4.34-3.51,5.24-.52.26-1.04.39-1.52.39Z"/><path class="g" d="m231.29,250.95c-.15,0-.31-.04-.45-.11l-19.56-9.89c-.32-.16-.53-.49-.55-.85l-.02-.5c-.02-.36.16-.7.47-.89l18.37-11.5c.29-.18.65-.2.96-.05l19.54,9.4c.33.16.55.49.57.86l.02.5c.02.35-.16.69-.45.88l-18.35,12c-.16.11-.36.16-.55.16Zm-17.98-11.21l17.92,9.06,16.81-10.99-17.9-8.61-16.83,10.54Z"/><path class="i" d="m239.75,248.39l-.25-4.42c-.11-.87-.46-1.05-.78-1.2l-7.84-3.96.9-1.79,7.84,3.96c.76.38,1.65,1.05,1.87,2.81l.25,4.48-2,.11Z"/><path class="g" d="m230.35,255.89c-2.6,0-5.16-.45-7.25-1.37-2.68-1.18-4.18-3.02-4.12-5.06l-.3-5.33,2-.11.3,5.42c-.03,1.26,1.03,2.42,2.93,3.25,4.25,1.87,10.99,1.5,15.02-.83,1.72-1,2.66-2.22,2.57-3.35l-.31-5.64,2-.11.31,5.61c.15,1.93-1.12,3.79-3.57,5.21-2.61,1.51-6.14,2.3-9.58,2.3Z"/><path class="g" d="m180.39,288.76c-.27,0-.57-.04-.87-.14l.62-1.9c.56.18.85-.28.98-.56.18-.4.59-.66,1.03-.6.2.02.31,0,.33-.01-.03-.5.29-.94.78-1.04.3-.06.31-.17.32-.21-.02-.51.35-.91.86-.99.23-.03.34-.08.39-.11l-.19-.78-1.06-.67,1.07-1.69,1.4.89c.22.14.38.36.44.61l.32,1.31c.04.16.14.83-.31,1.47-.25.36-.62.63-1.08.8-.18.42-.51.85-1.08,1.12-.09.25-.24.52-.48.75-.24.23-.63.48-1.23.55-.46.64-1.23,1.22-2.22,1.22Z"/><path class="g" d="m252.48,340.01c-.52,0-1.03-.17-1.41-.5-.1-.08-.19-.17-.27-.25-.62.1-1.24-.02-1.71-.38-.13-.1-.31-.22-.49-.35-.35-.24-.74-.51-1.03-.76-.38-.33-.59-.76-.75-1.11-.06-.12-.14-.3-.18-.35-.67-.73-.49-1.91.06-2.58.17-.21.45-.57.77-.99.92-1.2,1.65-2.15,2.09-2.56l1.38,1.45c-.35.34-1.27,1.53-1.87,2.32-.34.44-.63.83-.81,1.04,0,.02-.02.05-.03.08.18.23.3.5.42.73.07.15.18.39.25.45.22.19.56.42.86.62.21.15.41.28.56.4.03.01.21.02.37-.06.41-.2.91-.09,1.2.26,0,0,.23.27.51.52.02.02.15.03.29-.03.22-.09.92-.49,2.74-2.15l2.88-3.1c.16-.35.43-1.7.59-3.38.02-.22.12-.43.27-.59.05-.05,5.23-5.46,7.7-9.71l1.73,1c-2.31,3.97-6.67,8.69-7.74,9.84-.37,3.41-.86,3.96-1.03,4.14l-2.95,3.18s-.06.06-.07.07c-1.56,1.43-2.65,2.26-3.35,2.55-.32.13-.65.2-.97.2Z"/><path class="g" d="m246.8,334.4c-.77-1.04-.99-3.34.95-6.41.42-.67,1.58-1.38,3.18-2.31.25-.15.48-.28.67-.4.27-.2.61-.27,3.41-.59.16-.02.31-.04.44-.05,1.51-1.6,4.75-5.37,5.23-7.51l1.95.43c-.63,2.82-4.3,6.94-5.6,8.32-.11.3-.37.55-.69.64,0,0-.15.04-.15.04-.12.04-.25.05-.36.04-.14.02-.33.04-.59.07-.68.08-2.21.25-2.65.34-.19.11-.41.24-.65.38-.73.42-2.24,1.31-2.5,1.66-1.41,2.23-1.3,3.77-1.03,4.13l-1.61,1.19Z"/><path class="i" d="m239.76,249.05c.03.57.52,1.01,1.09.98.57-.03,1.01-.52.98-1.09-.03-.57-.52-1.01-1.09-.98-.57.03-1.01.52-.98,1.09Z"/><path class="i" d="m239.62,254.13s.12-.61.28-1.24c.19-.74.42-3.12.42-3.12l1.08-.12s.31,2.02.49,2.67c.12.41.61,1.61.61,1.61.11.26,0,.56-.36.79-.42.27-1.06.37-1.6.27-.01,0-.06-1.34-.06-1.34l-.22-.04s-.18,1.24-.19,1.23c-.35-.18-.5-.44-.45-.7Z"/><path class="g" d="m405.85,347.91c-.44.61-.83,1.02-1.07,1.04-1.74.17-3.83-1.1-3.34-2.45.08-.23.17-.46.25-.7-.08-.08-.16-.17-.23-.25-1.74.71-2.83,2.49-3.43,3.62-2.54,4.86-4.29,5.84-5.94,6.84-.73.44-.64,1.19-.33,1.48.36.34,1.86,1.26,4.3.38,4.2-1.5,6.88-3.89,6.88-3.89l-.07.53,2.41-.69c.28-.16.42-.47.43-.79.04-1.21.87-3.43.73-5.08-.19-.01-.39-.02-.58-.04Z"/><path class="g" d="m545.05,276.79c-4.2-1.49-7.79-1.33-7.79-1.33l.39-.37-1.07-.89c-.32-.05-3.68-.18-3.89.06-.95,1.08-3.03,2.8-3.54,4.5-.02.07-.01.15,0,.22,1.69-.62,3.14-1.04,3.51-.79,1.46.97,2.27,3.27,1.04,4.01-.32.19.07.37-.27.57.31.13-.09.24.23.29,1.63.27,3.31-.33,4.36-.78,5.04-2.16,7.01-1.81,8.93-1.55.84.12,1.25-.51,1.2-.94-.06-.49-.65-2.15-3.09-3.02Z"/><path class="i" d="m454.54,179.41c-.92-.53-1.67-1.23-2.25-2.06l-.07-.06s-5.35,10.96-6.38,14.94c-2.51,9.66-3.42,39.79-3.42,39.79h8.62s-1.28-30.26.08-40.25c.44-3.21,3.42-12.36,3.42-12.36Z"/><path class="i" d="m468.54,178.33s-.39,19.45-1.51,25.49c-2.62,14.22-9.4,30.98-9.4,30.98l8.98,2.56s5.13-24.59,5.46-32.93c.26-6.42-2.17-25.6-2.17-25.6l-1.36-.49Z"/><path class="g" d="m461.85,109.76c-.08,0-.15,0-.23,0-4.06-.05-6.96-1.56-7.96-4.13l-3.92-7.96,1.8-.88,3.95,8.04c.72,1.85,2.96,2.9,6.16,2.94,6.88.08,15.83-4.31,19.96-9.81,1.84-2.46,2.42-4.79,1.58-6.41-.01-.03-.03-.05-.04-.08l-4.04-8.22,1.8-.88,4.07,8.28s.01.03.02.05c1.18,2.35.55,5.36-1.79,8.47-4.42,5.89-13.95,10.61-21.36,10.61Z"/><path class="g" d="m469.48,99.47s-.04,0-.07,0l-31.38-2.1c-.36-.02-.67-.24-.83-.56-.16-.32-.13-.7.07-1l17.5-26.13c.2-.3.54-.47.9-.44l31.38,2.1c.36.02.67.24.83.56.16.32.13.7-.07,1l-17.51,26.13c-.19.28-.5.44-.83.44Zm-29.59-3.98l29.08,1.94,16.22-24.21-29.08-1.94-16.22,24.21Z"/><path class="g" d="m483.07,104.44s-.34-1.68-.61-3.43c-.32-2.07-2.29-8.34-2.29-8.34l2.59-1.46s2.94,4.77,4.1,6.22c.74.92,3.27,3.42,3.27,3.42.57.55.59,1.43-.05,2.39-.77,1.15-2.27,2.07-3.74,2.4-.04,0-1.6-3.33-1.6-3.33l-.6.13s.88,3.31.84,3.31c-1.09-.07-1.75-.58-1.89-1.3Z"/><path class="g" d="m480.32,93.09c.37.75,1.27,1.05,2.02.69.75-.37,1.05-1.27.69-2.02-.37-.75-1.27-1.05-2.02-.69-.75.37-1.05,1.27-.69,2.02Z"/><path class="g" d="m480.78,92.84l-3.17-6.94c-.18-.37-.57-.63-1.01-.66l-13.46-.88.13-2,13.46.88c1.15.08,2.18.77,2.69,1.8l3.18,6.97-1.82.83Z"/><path class="g" d="m406.73,348.97c-2.96,0-5.48-1.8-6.59-3.49-.72-1.11-.64-1.86-.44-2.3.03-.08,5.2-13.15,9.68-27.29l1.91.6c-4.31,13.63-9.26,26.24-9.72,27.41.14.7,2.2,3.08,5.16,3.08.02,0,.04,0,.06,0,.97-.01,1.3-.41,1.48-.75,1.15-2.22,2.59-4.89,4.15-7.79,2.89-5.37,6.16-11.47,8.89-16.96l1.79.89c-2.74,5.53-6.02,11.63-8.92,17.02-1.55,2.89-2.98,5.56-4.14,7.77-.43.82-1.34,1.81-3.23,1.83-.03,0-.05,0-.08,0Z"/><path class="g" d="m510.4,298.25l-.8-1.83,4.79-2.1c8.19-3.58,17.47-7.64,18.44-8.22.04-.03.23-.29.28-.86.05-.51.02-1.86-1.26-3.4-.84-1.01-3.72-3.55-5.82-1.99-.42.35-2.93,1.11-9.44,1.55l-.13-2c6.31-.42,8.19-1.11,8.48-1.23,3.02-2.08,6.68.27,8.44,2.39,1.92,2.3,1.81,4.41,1.67,5.22-.16.94-.59,1.68-1.2,2.04-1,.6-8.04,3.69-18.67,8.34l-4.79,2.1Z"/><path class="g" d="m460.46,186.65c-2.28,0-4.2-1.68-4.51-3.94l-.31-2.31,1.98-.27.31,2.31c.17,1.29,1.28,2.25,2.59,2.21h.12c2.66-.07,4.78-2.21,4.82-4.87l.13-9.15,2,.03-.13,9.15c-.05,3.74-3.03,6.75-6.77,6.84h-.12s-.08,0-.12,0Z"/><path class="g" d="m450.19,327.54c-3.03,0-5.86-.16-8.44-.42-16.41-1.63-28.68-7.54-32.93-11.11-.3-.26-.43-.67-.32-1.05.92-3.1,2.42-9.18,3.74-14.54.81-3.29,1.58-6.39,2.11-8.42,3.03-11.45,13.36-32.64,19.66-43.54,4.5-7.78,5.02-33.16,5.2-41.5v-.6c.13-5.4-7.01-15.62-13.3-24.64-3.75-5.38-7.3-10.45-9.05-14.14-3.54-7.45-3.85-20.82,2.42-31.98.03-.06,3.15-5.57,5.29-5.16,1.83.35,5.23,2.54,6.71,4.75.71,1.05.97,2.06.79,2.98-.64,3.18-2.61,14.04-.88,20,1.6,5.52,11.36,15.43,16.85,17.11,1.24.38,2.39.49,3.75.35.44-.04.85.2,1.02.6.15.37.97,2.11,3.22,2.66.3.07.55.28.68.56.13.28.12.61-.03.88-1.39,2.61-2.04,4.8-1.91,6.52.06.86.39,1.49,1.01,1.92,1.21.85,3.35.78,4.82.37,6.5-1.85,6.47-7.2,6.46-8.95,0-.14,0-.25,0-.33v-1.66c0-.31.14-.6.39-.79.24-.19.56-.25.86-.18.17.04.32.08.46.12-.56-9.03.96-17.18,2.65-21.95,2.41-6.81,9.56-19.57,17.27-25.34l.41-.31c2.84-2.14,4.66-3.42,5.99-2.9,1.75.68,5.86,4.36,6.69,7.18.37,1.25.04,2.07-.3,2.54-2,2.79-9.98,17.69-11.66,22.8-2.02,6.18-2.71,19.53-.51,29.58.96,4.37,2.45,13.86,1.71,28.35-.9,17.57,4.51,44.04,6.59,49.27,4.99,12.58,18.6,12.1,18.73,12.1.56-.04,1.02.38,1.06.93.35,5.27-5.42,23.04-21.14,33.73-16.52,11.23-33.13,14.2-46.09,14.2Zm-39.58-12.65c9.03,6.9,48.11,21.56,84.54-3.2,13.98-9.5,19.89-25.2,20.26-30.99-4.86-.1-15.35-2.54-19.65-13.37-1.98-5-7.68-31.48-6.73-50.11.73-14.25-.73-23.55-1.67-27.82-2.35-10.7-1.53-24.23.56-30.63,1.76-5.38,9.83-20.42,11.93-23.35.14-.2.08-.55,0-.81-.62-2.1-4.16-5.36-5.5-5.88-.56,0-2.75,1.65-4.06,2.63l-.41.31c-7.38,5.52-14.25,17.83-16.58,24.4-2.15,6.09-3.1,14.98-2.43,22.66.03.35-.12.69-.41.9-.28.21-.65.25-.98.11-.17-.07-.31-.13-.44-.18v.61c.04,7.13-4.28,9.86-7.91,10.89-1.83.52-4.63.66-6.51-.65-1.11-.77-1.75-1.95-1.86-3.41-.14-1.84.41-4.05,1.61-6.56-1.68-.74-2.63-1.98-3.09-2.77-1.33.06-2.58-.09-3.85-.48-6.05-1.85-16.42-12.38-18.18-18.47-1.85-6.4.17-17.65.84-20.95.1-.48-.21-1.06-.49-1.47-1.18-1.76-3.97-3.54-5.3-3.87-.66.34-2.36,2.46-3.31,4.15-5.94,10.57-5.68,23.16-2.36,30.14,1.68,3.54,5.18,8.55,8.88,13.85,6.79,9.72,13.8,19.77,13.67,25.83v.6c-.21,9.36-.72,34.24-5.48,42.46-6.24,10.8-16.48,31.77-19.46,43.05-.53,2.01-1.3,5.11-2.1,8.39-1.24,5.03-2.64,10.7-3.58,13.98Z"/><path class="h" d="m468.62,175.56l-1.09-1.68c.22-.14.43-.27.64-.4.58-.35,1.07-.65,1.52-1.14.04-1.96.18-3.99.41-6.04.01-.13.06-.26.12-.38.95-1.67,1.95-4.21,1.35-6.87l-.03-.16c-.03-.15-.02-.3.02-.44.25-.96.5-1.77.75-2.48-.69-1.83-1.54-2.26-2.36-2.68-.28-.14-.54-.28-.8-.47-.45-.33-.82-.67-1.14-.96-1.43-1.32-2.45-2.26-9.2-2.26h-.43c-2.35.02-4.41,1.57-6.11,4.61-.03.05-.06.1-.1.14-1.94,2.38-2.67,5.74-1.63,7.49l-1.72,1.02c-1.47-2.48-.72-6.64,1.74-9.71,2.07-3.67,4.7-5.54,7.8-5.56h.44c7.02,0,8.67,1.04,10.54,2.77.33.3.62.57.98.84.15.11.33.2.53.3.94.48,2.36,1.21,3.32,3.75l.13.34c.08.22.09.46.01.68l-.12.34c-.21.61-.42,1.31-.64,2.12.64,3.18-.42,6.05-1.48,7.99-.21,1.92-.34,3.82-.38,5.65v.38c-.01.24-.11.48-.27.66l-.26.28c-.64.7-1.31,1.1-1.96,1.49-.19.12-.39.23-.58.36Z"/><path class="g" d="m471.57,159.07c-.03-.13-.05-.26-.07-.39.25-.96.52-1.87.8-2.7-.93-2.44-2.15-2.4-3.16-3.15-2.42-1.78-1.95-3.27-10.77-3.22-2.93.02-4.88,2.39-6.15,4.69-2.05,2.46-2.77,6.03-1.58,7.72.07.65.18,1.27.3,1.82.06-.45.13-.89.19-1.32.23.17.49.31.8.39,1.06.25,2.32-.56,2.89-.14.22.16.28.53,1.31.91.93.35,2.9-.1,3.42-.25,3.68-1.07,3.92-1.83,5.37-.33.34.36.63.82.87,1.4.19.45.13,1.96.09,2.72.36-.2.82-.31,1.39-.31.12,0,.22,0,.35,0,.18.02.34.05.49.09.04.01.07.03.11.04.1.03.19.07.27.12.03.02.06.04.09.06.08.05.14.12.2.18.02.02.03.04.05.06.06.09.11.19.14.31.08.32.03.71-.15,1.2-.42,1.16-1.1,1.85-2.23,1.98l-.05,3.66c1.29-1.08,2.3-1.34,3.15-2.25.04-2.15.2-4.24.44-6.24.96-1.63,2.07-4.27,1.45-7.04Z"/><rect class="g" x="466.32" y="177.14" width="2" height="1.59" transform="translate(144.68 559.97) rotate(-70.66)"/><path class="g" d="m431.21,136.68l-1.47-1.36c.87-.94,1.63-1.63,2.11-2.04.16-.13.35-.21.54-.23.48-.11,2.46-.55,3.09-.71,1.16-.5,3.1-1.62,3.56-2.61.5-1.07,1.15-1.87,1.76-2.49-.39.29-.79.58-1.17.84-.42.29-.99.22-1.32-.16-.34-.38-.33-.96.02-1.33.61-.66,1.29-1.44,1.72-1.92-.35,0-.7-.16-.9-.48-.21-.34-.19-.76.02-1.08-.25.11-.52.29-.83.52-.43.33-1.04.25-1.38-.16-.34-.41-.29-1.02.11-1.38-.31.09-.66.03-.92-.19-.23-.19-.36-.48-.36-.77-.02,0-.04.01-.06.02-.71.28-2.35,1.29-2.97,1.83-.64.68-2.59,2.78-3.15,3.56-.4.57-.82,1.32-.83,3.07,0,.27-.11.52-.3.71l-.25.24c-.47.46-.95.93-1.89,1.94l-1.47-1.36c.94-1.02,1.44-1.51,1.92-1.97.08-1.95.64-3.01,1.19-3.79.75-1.07,3.3-3.75,3.41-3.86.87-.76,2.7-1.88,3.62-2.25.89-.35,1.77-.23,2.36.31.05.05.11.1.15.16.74-.14,1.27.1,1.61.37.27.22.46.51.56.86.55.03.92.28,1.14.47.35.32.56.78.58,1.29.16.08.3.2.43.35.36.41.49.96.43,1.46.62,0,1.23.19,1.64.65.94,1.07-.16,2.05-.82,2.64-.68.6-1.61,1.43-2.22,2.73-.95,2.03-4.29,3.47-4.66,3.63-.04.02-.09.03-.13.04-.52.14-2.44.57-3.11.72-.4.35-1.03.94-1.75,1.71Z"/><path class="g" d="m437.15,129.06c-.21,0-.46-.03-.71-.14-.42-.17-.77-.46-1.05-.89-.46-.07-.98-.3-1.39-.81-.27-.03-.57-.11-.87-.3-.29-.18-.63-.52-.84-1.1-.96-.39-1.94-1.29-1.82-2.82l1.99.16c-.05.65.56.83.83.88.43.08.77.43.83.86.03.27.1.35.1.35.48-.15,1.01.07,1.22.53.14.32.28.29.32.29.5-.14.97.13,1.16.6.13.34.25.4.25.4l1.47-.71.85,1.81-1.56.73c-.08.04-.37.16-.78.16Z"/><path class="g" d="m500.65,133.36l-1.35-1.48c.77-.7,1.06-.89,1.36-1.1.08-.05.16-.1.25-.17.17-.12.37-.18.56-.18.49-.07,2.5-.34,3.14-.44,1.2-.4,3.22-1.35,3.77-2.3.59-1.02,1.31-1.76,1.96-2.32-.42.26-.84.51-1.23.73-.44.25-1,.14-1.31-.28-.3-.41-.25-.98.13-1.33.66-.6,1.41-1.32,1.88-1.77-.36-.01-.69-.22-.86-.56-.18-.35-.12-.77.11-1.07-.25.09-.54.24-.87.45-.45.29-1.05.17-1.36-.28-.31-.44-.21-1.05.22-1.37-.32.07-.66-.03-.9-.27-.21-.21-.32-.5-.29-.79-.02,0-.04.01-.06.02-.73.22-2.45,1.08-3.12,1.57-.69.62-2.83,2.54-3.45,3.28-.45.53-.94,1.24-1.09,2.99-.02.27-.15.51-.36.68-.18.15-.31.25-.42.34-.28.22-.49.39-1.33,1.15l-1.35-1.48c.9-.82,1.14-1.01,1.44-1.25.03-.02.05-.04.08-.06.25-1.93.9-2.94,1.51-3.67.84-1,3.61-3.45,3.73-3.55.93-.68,2.85-1.64,3.8-1.93.91-.27,1.78-.08,2.33.51.05.05.1.11.14.17.77-.08,1.26.21,1.57.51.25.24.42.55.49.91.55.08.9.36,1.09.57.33.35.49.82.47,1.33.15.1.29.23.4.39.32.44.4.99.31,1.5.62.05,1.2.29,1.57.79.85,1.14-.34,2.03-1.05,2.55-.73.54-1.73,1.29-2.45,2.53-1.13,1.94-4.57,3.09-4.96,3.21-.04.01-.09.03-.14.03-.53.09-2.51.36-3.17.45-.03.02-.06.04-.09.06-.25.17-.47.31-1.12.91Z"/><path class="g" d="m506.73,126.86c-.25,0-.55-.05-.87-.2-.41-.2-.73-.53-.97-.98-.46-.11-.95-.38-1.32-.93-.27-.05-.56-.16-.84-.38-.27-.21-.58-.57-.74-1.17-.92-.47-1.82-1.46-1.57-2.97l1.97.33c-.11.65.49.88.75.95.42.11.73.49.75.93.01.27.07.35.07.35.49-.11,1,.16,1.17.63.12.33.25.32.3.31.5-.09.96.21,1.11.7.1.35.21.42.21.42l1.53-.58.69,1.88-1.62.59c-.07.02-.3.1-.62.1Z"/><path class="g" d="m457.42,181.05c-.7,0-1.39-.09-2.04-.27-5.38-1.51-5.83-7.45-5.83-12.9,0-2.54,1.1-8.56,1.15-8.82l1.97.36c-.01.06-1.11,6.09-1.11,8.45,0,6.02.73,9.95,4.37,10.97,1.61.45,3.62.11,5.4-.92,2.14-1.24,3.66-3.25,4.28-5.67l1.94.5c-.75,2.95-2.61,5.4-5.22,6.91-1.58.91-3.28,1.38-4.9,1.38Z"/><path class="g" d="m592.17,345.97c-1.6,0-3.13-.13-4.57-.42-4.49-.89-7.4-3.14-7.98-6.18l-2.76-9.77,1.93-.54,2.78,9.85c.44,2.28,2.77,3.96,6.42,4.68,7.75,1.53,18.78-1.58,24.59-6.94,2.62-2.42,3.77-4.98,3.14-7.03,0-.03-.02-.06-.02-.08l-2.85-10.09,1.93-.54,2.86,10.15c.85,2.88-.47,6.09-3.71,9.07-5.15,4.75-14.12,7.85-21.77,7.85Z"/><path class="g" d="m598.74,335.63c-.08,0-.16-.01-.25-.03l-34.84-8.85c-.35-.09-.62-.35-.72-.7-.1-.34,0-.71.25-.97l25.09-25.75c.25-.26.62-.36.96-.27l34.84,8.85c.35.09.62.35.72.7.1.34,0,.71-.25.97l-25.09,25.75c-.19.2-.45.3-.72.3Zm-32.92-10.39l32.61,8.28,23.47-24.1-32.61-8.28-23.47,24.1Z"/><path class="g" d="m614.09,339.59s-.02-1.04.01-2.11c.04-1.26-.45-5.21-.45-5.21l1.7-.59s1.22,3.15,1.75,4.15c.34.63,1.57,2.39,1.57,2.39.28.39.2.91-.29,1.41-.58.6-1.58.98-2.49,1.01-.02,0-.59-2.15-.59-2.15h-.37s.16,2.08.14,2.07c-.64-.16-.98-.54-.98-.98Z"/><path class="g" d="m612.46,331.31c.26.92,1.21,1.45,2.13,1.19.92-.26,1.45-1.21,1.19-2.13-.26-.92-1.21-1.45-2.13-1.19-.92.26-1.45,1.21-1.19,2.13Z"/><path class="g" d="m612.86,330.07l-2.23-7.91c-.15-.53-.57-.95-1.11-1.08l-14.95-3.78.49-1.94,14.95,3.78c1.23.31,2.2,1.26,2.54,2.48l2.23,7.91-1.93.54Z"/><path class="g" d="m635.78,524.05c-.11-.26-.25-.69-.33-.97,0-.21-.04-.43-.13-.69-.14-.41-.55-1.48-.96-2.16-.2-.32-.64-.82-.93-1.1-.1-.1-.24-.18-.39-.25.19,1.25.28,2.2.17,2.48-.57,1.6-3.75,1.91-4.15.67-.15-.47-.3-.94-.45-1.4-.6,1.09-.81,2.4-1,3.56-.63,3.78-2.74,4.74-2.73,7.28,0,.18.05.36.13.54-.1.27.68,1.4,1.12,1.59.66.27,2.13.34,2.83.26.99-.11,2.66-.6,3.36-2.29.64-1.55,1.64-3.78,1.64-3.78l.12.38s1.25-2.49,1.69-3.33c.13-.26.12-.54,0-.81Z"/><path class="g" d="m719.97,462.77c.04-.7-1.69-1.42-2.33-1.77-.21-.12-.46-.17-.68-.07-2.04.88-5.54,1.72-5.54,1.72l-.62-.42-4.05,1.26-.09,1.38c-.31.19-.32.92-.57,1.5.54.37,1.04.82,1.44,1.38.88,1.21,1.2,2.39,1.2,3.36,3.04-1.12,7.42-4.6,9.59-5.15.93-.23,1.26-.71,1.41-1.76.09-.6.31-1.04.22-1.42Z"/><path class="g" d="m630.59,523.8s-.05,0-.07,0c-1.23-.02-2.14-.56-2.42-1.45-.31-.95-.6-1.88-.88-2.77l1.91-.59c.28.88.57,1.81.87,2.75.05.02.55.15,1.22-.01.53-.13.94-.4,1.04-.69,0,0,.03-.55-.39-3.02l1.97-.34c.52,3.04.43,3.66.3,4.03-.52,1.45-2.19,2.09-3.55,2.09Z"/><path class="g" d="m591.77,389.43c-.74-1.11-1.36-2.11-1.8-2.83-1.82-.52-2.69-1.29-3.31-1.98-.84-.95-2.78-3.96-2.87-4.09-.52-1-1.17-2.98-1.3-3.93-.12-.87.14-1.64.71-2.09.05-.1.11-.23.18-.36.23-.48.46-.97.84-1.27.11-.09.27-.22.45-.36.41-.33.9-.73,1.19-.93.4-.27.9-.38,1.35-.49.17-.04.33-.07.44-.11.87-.45,1.98-.05,2.46.62.31.43,1.06,1.5,1.67,2.4l-1.66,1.12c-.58-.87-1.31-1.89-1.62-2.33-.25.12-.54.18-.85.25-.2.04-.56.13-.67.19-.26.18-.69.53-1.05.83-.19.16-.36.3-.48.39-.03.05-.18.36-.27.55-.22.47-.4.84-.74,1.06.02-.02,0,.1.02.25.1.73.68,2.5,1.05,3.21.49.75,2.02,3.07,2.64,3.77.44.5,1.05,1.07,2.69,1.47.26.06.48.23.62.46.42.71,1.11,1.82,1.96,3.09l-1.66,1.11Z"/><path class="g" d="m596.42,385.19c-.73-1.1-1.22-2.01-1.45-2.46-.09-.18-.12-.38-.1-.57,0-.47.04-2.43.03-3.07-.21-1.2-.82-3.27-1.64-3.93-1.33-1.07-1.85-2.26-2.2-3.05-.09-.2-.2-.46-.29-.61l-1.48,1.09-1.19-1.61,1.88-1.39c.17-.12.36-.19.57-.2.03,0,.05,0,.08,0,1.42,0,1.91,1.1,2.26,1.92.31.72.67,1.53,1.62,2.29,1.7,1.37,2.31,4.84,2.38,5.23,0,.05.01.09.01.14.01.52-.02,2.41-.03,3.08.24.45.64,1.17,1.21,2.02l-1.66,1.11Z"/><path class="g" d="m628.29,520.16c-.66,0-1.27-.09-1.77-.25-.91-.3-1.27-.79-1.4-1.2-.08-.16-.32-.66-.7-1.43-2.37-4.86-9.57-19.64-13.33-28.21l1.83-.8c3.74,8.53,10.93,23.29,13.3,28.14.5,1.02.67,1.38.74,1.53.57.34,3.38.52,5.59-1.29.64-.52.97-1.02.9-1.36-.65-3.26-1.23-6.77-1.8-10.15-.52-3.13-1.07-6.36-1.64-9.33l1.96-.38c.58,2.99,1.13,6.24,1.65,9.38.57,3.37,1.15,6.86,1.79,10.09.15.78,0,1.98-1.59,3.29-1.68,1.38-3.8,1.97-5.53,1.97Z"/><path class="g" d="m674.86,491.65l-.6-1.91c.61-.19,1.26-.42,1.93-.68,4.94-1.91,19.98-10.36,27.21-14.42,2.16-1.21,3.58-2.02,4.01-2.23.33-.25.79-2.04-.68-4.07-.99-1.36-2.64-2.11-4.12-1.88-1.81.29-8.43,2.61-17.29,6.05l-.72-1.86c4.38-1.7,14.86-5.71,17.7-6.16,2.2-.35,4.64.72,6.05,2.68,1.69,2.34,1.45,4.36,1.26,5.12-.22.9-.69,1.59-1.3,1.9-.39.2-1.88,1.04-3.94,2.2-7.27,4.08-22.39,12.58-27.46,14.55-.71.27-1.4.52-2.05.72Z"/><path class="i" d="m643.7,371.16c-.05.08-3.91,4.44-7.6,13.29-3.88,9.31-7.87,39.17-7.87,39.17h7.92s3.3-26.89,5.31-37.43c1.72-9.03,4.32-11.99,4.78-12.99-1.15-.51-1.78-1.06-2.54-2.04Z"/><path class="i" d="m658.14,373.41s-.05,5.03-5.53,17.14c-4.28,9.46-13.19,38.02-13.19,38.02l5.67,2.77,2.08-1.82,2.18-.42c2.21-6.58,6.83-20.89,9.72-34.14,2.69-12.34,1.8-20.12,1.8-20.12l-2.72-1.43Z"/><path class="h" d="m661.03,447.37l-16.4-10.98c-.33-.18-.66-.53-.87-.96-.24-.48-.34-1.06-.29-1.71.14-2.04,1.68-4.34,3.51-5.24,1.01-.5,1.98-.51,2.74-.06l15.48,10.36-1.11,1.66-15.44-10.34c-.08-.05-.38-.03-.78.16-1.19.58-2.31,2.26-2.4,3.58-.02.29.01.53.09.69.04.09.09.12.12.14l16.47,11.02-1.11,1.66Z"/><path class="h" d="m645.84,436.72c-.54,0-1.03-.16-1.43-.48l1.23-1.58c.11.09.42.08.84-.13,1.19-.58,2.31-2.26,2.4-3.58.02-.29-.01-.53-.09-.69-.05-.1-.09-.12-.11-.13l1.04-1.71c.37.22.67.56.87.96.24.48.33,1.05.29,1.7-.14,2.04-1.68,4.34-3.51,5.24-.52.26-1.04.39-1.52.39Z"/><path class="g" d="m662.4,444.07c-.7,0-1.42-.21-1.78-.9-.09-.17-.32-.61-.15-1.13.18-.51.6-.7.91-.83.39-.17,1.05-.47,2-1.56.18-.2.71-.81,4.29-2.3.32-.18.59-.28.85-.31.38-.05,1.35-.03,2.89.05l.54-.56,1.43,1.4-.86.88c-.2.21-.49.31-.77.3-1.73-.1-2.73-.11-2.97-.08,0,0-.05.02-.17.09-.04.02-.08.04-.12.06-2.48,1.03-3.45,1.62-3.61,1.79-.17.2-.34.37-.5.53.93-.19,1.75-.08,2.27.13l-.75,1.86c-.21-.08-.95-.21-1.84.23-.33.16-.99.36-1.67.36Z"/><path class="g" d="m665.06,352.87c-.84-3.18-3.69-3.74-3.69-3.74,0,0-2.48-4.92-10.67-3.71-2.08.31-5.28,1.66-6.45,4.11-1.31,2.76-1.63,6.94-1.47,9.5.11-1.67.2-2.98.2-2.98-.09-3.71,16.42-3.07,16.51.72,0,0-.22,2.51-.56,5.19.12,0,.24,0,.38.01,1.33.13,1.83,1.5,1.33,2.93-.41,1.17-1.23,1.99-2.25,2.19-.08.69-.18,1.45-.26,2,2.15-1.82,3.48-1.21,4.6-5.17.41-1.46,3.84-5.33,2.33-11.04Z"/><path class="g" d="m662.83,355.5c-.32-1.52.1-2.93-2.93-5.58-2.57-2.25-8.98-4.68-13.65-2.32-3.9,1.97-4.8,11.84-4.8,11.84l2-.78-.17.77s3.11-.13,3.63-.14c5.07-.11,7.61,1.7,11.08.86l-.97,2.14s.17.03.42.03c.37-.25.86-.38,1.51-.36,1.08-.26,1.9,1.01,1.9,1.01,0,0,2.89-3.11,1.98-7.47Z"/><path class="g" d="m648.97,374.8c-.32,0-.63-.02-.93-.07-6.03-.9-6.65-5.79-6.59-9.38.04-2.33.51-9.09.53-9.37l2,.14c0,.07-.49,6.98-.52,9.26-.07,4.77,1.3,6.83,4.89,7.37,2.39.35,7.5-1.59,8.71-5.84l1.92.55c-1.36,4.78-6.49,7.34-10,7.34Z"/><path class="g" d="m679.72,443.8c-.12,0-.25-.01-.37-.04-1.64-.37-5.3-3.05-7.04-5.56l-1.91.2c-1.31-12.58-1.48-25.75-.4-29.97.09-.36.38-.64.74-.73.36-.09.74.04.99.32,4.07,4.74,5.27,7.44,5.12,11.58-.17,4.71-1.97,12.86-3.5,15.86-.08.15-.02.47.16.85,1,2.13,4.88,5.09,6.2,5.47.55-.21,1.78-1.8,2.32-2.49l.26-.34c6.75-8.64,7.74-17.8,7.39-23.97-.94-16.3-11.81-30.21-31.45-40.24l-.55-.28.92-1.77.54.27c20.02,10.22,31.57,25.1,32.54,41.91.37,6.51-.68,16.18-7.81,25.31l-.26.33c-1.47,1.9-2.65,3.28-3.88,3.28Zm-8.13-32.79c-.47,4.35-.44,12.87.37,22.64,1.31-3.29,2.74-10.12,2.88-14.11.1-2.85-.36-4.85-3.25-8.53Z"/><path class="g" d="m648.85,498.84c-4.76,0-9.79-.54-15.08-1.63-2.24-.46-23.47-6.06-25.19-10.55-1.03-2.68-1.67-7.45-2.14-10.94-.08-.59-.16-1.14-.23-1.65-1.28-9.03,1.63-18.24,8.9-28.15,8.84-12.06,9.95-29.36,10.26-38.15-4.34,2.03-7.99,1.86-10.38,1.29-4.15-.98-14.56-4.32-21.68-14.17-.45-.62-2.66-3.81-2.02-5.4.62-1.55,3.74-5.08,6.36-5.83,1.21-.35,2.01-.02,2.47.32.31.22.7.52,1.15.87,3.13,2.42,9.64,7.44,13.9,6.5,5.01-1.11,10.38-7.96,14.69-13.45,2.42-3.09,4.51-5.75,6.32-7.22,2.63-2.14,5.35-1.89,6.97-1.74.38.03.71.28.84.63.91,2.33,2.93,2.86,3.8,3.08.36.09.67.39.75.76.08.37-.02.75-.31.99-.94.78-2.34,2.85-3.19,4.7-1.47,3.23-1.64,6.22-1.18,6.61,0,0,.05,0,.16-.02,1.83-.39,9.02-4.84,11.63-7.69l1.47,1.35c-2.75,3-10.35,7.8-12.69,8.29-.87.18-1.63-.06-2.14-.7-1.42-1.77-.22-6.16.93-8.68.61-1.33,1.58-2.96,2.57-4.19-1.13-.5-2.52-1.42-3.4-3.2-1.65-.11-3.29,0-4.94,1.35-1.63,1.33-3.76,4.03-6,6.9-4.74,6.05-10.12,12.9-15.83,14.17-5.16,1.15-12.18-4.27-15.55-6.87-.44-.34-.81-.63-1.11-.84-.18-.13-.5-.08-.74-.01-1.86.53-4.6,3.52-5.06,4.65-.03.42.87,2.21,1.79,3.49,6.72,9.31,16.58,12.47,20.51,13.4,2.32.55,6.02.66,10.48-1.89.32-.18.7-.18,1.01.01.31.19.5.53.48.89-.26,8.25-.88,27.58-10.7,40.98-6.95,9.47-9.74,18.2-8.54,26.69.07.51.15,1.07.23,1.66.46,3.39,1.09,8.02,2.03,10.49,1,2.62,17.73,8.07,23.72,9.3,15.37,3.16,28.44,1.6,38.85-4.63,7.75-4.64,11.1-15.38,11.05-18.09-1.58.2-3.66.33-4.65.37-6.71.29-7.14-4.65-7.38-7.59-.32-4.02-.41-7.73-.5-11.32l-.06-2.23,2-.06.06,2.24c.09,3.56.18,7.25.5,11.21.28,3.59.8,5.94,5.3,5.75,1.28-.05,3.69-.21,5.09-.44.5-.08,1.17.12,1.46.93,1.01,2.79-3.05,15.68-11.84,20.94-7.23,4.33-15.67,6.5-25.2,6.5Z"/><path class="g" d="m652.02,381.42c-.67,0-1.33-.1-1.96-.29l-.59-.19c-2.17-.68-3.55-2.98-3.13-5.22l.25-2.2,1.99.23-.26,2.27c-.24,1.29.57,2.65,1.76,3.02l.59.19c1.3.41,2.91.17,4.2-.61,1.06-.65,1.74-1.57,1.91-2.59.25-1.5.22-2.77.2-3.9-.02-.96-.04-1.87.11-2.77.17-.97.31-2.35.32-2.37l1.99.21c0,.06-.15,1.47-.33,2.5-.12.7-.1,1.48-.08,2.38.03,1.21.06,2.59-.22,4.27-.27,1.6-1.28,3.01-2.84,3.97-1.19.73-2.55,1.11-3.88,1.11Z"/><path class="g" d="m585.85,381.87c-.27,0-.57-.04-.87-.14l.62-1.9c.63.2.92-.42.97-.55.17-.41.6-.66,1.04-.61.2.02.31,0,.33-.01-.03-.5.29-.94.78-1.04.31-.06.31-.17.32-.21-.02-.51.35-.91.86-.99.23-.03.35-.09.39-.12l-.27-1.34-.62-.91,1.65-1.13.74,1.08c.08.11.13.23.15.36l.33,1.64c.03.12.13.79-.32,1.44-.25.36-.62.63-1.08.8-.17.42-.51.85-1.08,1.12-.09.25-.24.52-.48.75-.24.23-.63.48-1.23.55-.46.64-1.23,1.22-2.22,1.22Z"/><path class="g" d="m670.76,455.41c-.93,0-1.82-.28-2.55-.82l1.18-1.61c.77.56,1.82.58,2.9.05,1.83-.9,3.37-3.2,3.51-5.24.04-.65-.06-1.22-.29-1.71-.01-.03-1.7,2.17-1.7,2.17l-1.58-1.22,2.44-3.17c.34-.44.96-.52,1.4-.18.52.4.94.91,1.24,1.52.39.8.56,1.72.5,2.72-.19,2.77-2.13,5.68-4.62,6.9-.8.39-1.61.59-2.41.59Z"/><path class="h" d="m670.77,453.4c-.53,0-1.02-.16-1.42-.47l-1.74-1.16,1.11-1.66,1.8,1.2c.16.12.47.12.89-.09,1.19-.58,2.31-2.26,2.4-3.58.02-.29-.01-.53-.09-.69-.03-.05-.06-.09-.09-.12l1.22-1.58c.28.21.5.49.66.82.24.48.34,1.06.29,1.71-.14,2.04-1.68,4.34-3.51,5.24-.52.26-1.04.38-1.52.38Z"/><path class="g" d="m666.59,452.27c-.66,0-1.29-.27-1.69-.74-.12-.13-.88-.86-1.49-1.45-1.84-1.75-2.24-2.16-2.39-2.39-.55-.83-.19-1.97.46-2.55.2-.17.52-.49.9-.85,1.09-1.05,1.97-1.87,2.46-2.22.76-.52,2.16-1.34,2.22-1.38l1.01,1.73s-1.39.81-2.09,1.29c-.4.28-1.5,1.32-2.22,2.02-.4.38-.75.71-.96.9,0,0-.02.03-.03.05.33.34,1.33,1.29,2.01,1.95,1.05,1,1.49,1.43,1.64,1.6.02.02.14.06.29.02.23-.06.98-.34,3.04-1.71l3.38-2.67c.23-.19,1.13-1.31,1.44-2.51.05-.19.16-.37.31-.5l2.06-1.82,1.32,1.5-1.85,1.63c-.48,1.54-1.54,2.87-2.04,3.27l-3.41,2.69s-.09.07-.12.09c-1.76,1.16-2.92,1.79-3.66,1.98-.2.05-.41.08-.61.08Z"/><path class="g" d="m447.56,425.19c-.1,0-.21,0-.32-.01-1.83-.17-50.48-29.29-71.31-41.81-.3-.18-.48-.49-.49-.84,0-.34.16-.67.45-.86l9.1-5.93,1.09,1.67-7.76,5.06c26.92,16.16,66.39,39.65,69.17,40.71.84,0,1.48-.76,1.74-1.12.09-5.13.28-17.69.21-18.78-.03-.54-1.08-1.67-2.02-2.37l-69.46-40.4c-.31-.18-.5-.51-.5-.87,0-.36.2-.69.51-.86l20.51-11.41.97,1.75-18.97,10.56,67.99,39.54s.06.04.09.06c.46.34,2.76,2.11,2.87,3.88.09,1.42-.2,18.5-.21,19.23,0,.16-.05.33-.13.47-.06.1-1.32,2.33-3.55,2.33Z"/><path class="g" d="m449.86,420.61l-66.09-39.53c-.42-.25-.6-.78-.41-1.23.04-.1,3.84-9.67.6-16.03l1.78-.91c3.1,6.1.68,14.29-.23,16.88l65.37,39.11-1.03,1.72Z"/><rect class="g" x="410.56" y="333.72" width="26.17" height="2" transform="translate(-108.8 245.19) rotate(-28.77)"/><path class="g" d="m449.24,424.74l-.96-1.75c.97-.53,97.02-53.08,98.18-53.71.6-.33.81-1.23.83-1.45,0-.09.39-17.59.37-18.95,0-.63-.5-.86-.6-.9-.05-.02-.11-.05-.16-.08l-51.19-29.99,1.01-1.73,51.12,29.95c.71.29,1.8,1.15,1.82,2.72.02,1.4-.36,18.38-.38,19.1-.03.3-.28,2.2-1.86,3.07-1.16.64-97.21,53.18-98.18,53.71Z"/><rect class="g" x="442.26" y="372.98" width="112.06" height="2" transform="translate(-118.48 285.94) rotate(-28.77)"/><path class="g" d="m452.84,452.43c-.17,0-.34-.04-.5-.13l-76.11-43.81c-7.16-4.12-9.09-7.4-9.82-8.64l-.11-.19c-.04-.07-4.51-7.54-1.99-13.93.65-1.66,1.72-2.73,3.17-3.19,3.13-.98,6.86,1.45,7.01,1.56l78.35,44.88,93.69-54.1-3.48-2.01,1-1.73,4.99,2.88c.31.18.5.51.5.87s-.19.69-.5.87l-95.69,55.25c-.31.18-.69.18-1,0l-78.9-45.2c-.91-.6-3.53-1.93-5.37-1.35-.86.27-1.48.93-1.91,2.01-1.8,4.55.72,10.32,1.84,12.16l.13.21c.65,1.11,2.39,4.06,9.09,7.92l75.61,43.52,93.68-54.35-5.18-2.91.98-1.74,6.71,3.77c.31.18.51.51.51.86,0,.36-.19.69-.5.87l-95.69,55.52c-.16.09-.33.14-.5.14Z"/><path class="g" d="m451.39,445.69c-.12,0-.23-.02-.34-.06-.28-.1-.49-.32-.6-.59-.14-.39-3.52-9.71-.29-16.36l1.8.87c-2.25,4.63-.75,11.08,0,13.66l89.39-51.19c-3.01-7.07.03-13.74.17-14.03l1.81.84c-.03.07-3.01,6.66.21,13.15.24.47.06,1.05-.4,1.31l-91.25,52.26c-.15.09-.32.13-.5.13Z"/><path class="g" d="m450.9,445.55l-74.68-42.98c-.53-.25-4.15-2.15-6.86-8.12-2.95-6.51.55-11.29.7-11.49l1.6,1.2-.8-.6.8.6c-.12.16-2.93,4.07-.48,9.47,2.52,5.56,5.87,7.13,5.91,7.15.03.01.06.03.09.05l74.72,43-1,1.73Z"/><path class="g" d="m467.68,478.77c-.17,0-.35-.05-.5-.14l-116-67.35c-.31-.18-.5-.51-.5-.87s.19-.69.5-.86l6.58-3.78,1,1.73-5.08,2.92,114,66.19,80.04-46.07s6.95-4.34,7.89-11.54c.59-4.5.05-7.55-1.5-8.58-1.48-.99-4.2-.39-7.86,1.72l-78.09,44.94c-.31.18-.69.18-1,0l-11.56-6.68,1-1.73,11.06,6.4,77.59-44.66c4.5-2.59,7.76-3.12,9.97-1.65,2.28,1.52,3.08,5.06,2.37,10.5-1.06,8.17-8.53,12.81-8.85,13l-80.57,46.38c-.15.09-.33.13-.5.13Z"/><path class="g" d="m365.89,398.53l-14.73-8.53c-.31-.18-.5-.51-.5-.87s.19-.69.5-.87l34.59-19.94,1,1.73-33.09,19.08,13.24,7.67-1,1.73Z"/><rect class="g" x="365.66" y="377.29" width="21.9" height="2" transform="translate(-138.68 238.94) rotate(-29.99)"/><path class="g" d="m469.14,471.95c-.17,0-.34-.05-.5-.13l-111.51-64.06c-.47-.27-.64-.85-.39-1.33,1.95-3.74.98-13.02.97-13.11l1.99-.21c.04.38.92,8.79-.8,13.37l109.7,63.02c.73-2.27,2.11-7.91.32-14.29l1.93-.54c2.51,8.98-.66,16.38-.8,16.69-.11.26-.33.46-.6.55-.1.03-.21.05-.31.05Z"/><path class="g" d="m469.63,471.82l-1-1.73,74.76-43.03s5.93-3.98,7.25-8.69c1.43-5.14.62-6.73-.79-8.58l1.59-1.21c1.95,2.55,2.66,4.85,1.13,10.33-1.52,5.44-7.86,9.68-8.13,9.86l-74.81,43.06Z"/><rect class="g" x="547.29" y="396.53" width="2" height="16.86" transform="translate(-102.06 609.08) rotate(-53.87)"/><path class="g" d="m276.05,610.67c-17.82,0-35.67-3.47-49.22-10.4-1.57-.8-2.77-1.47-4.04-2.25l1.04-1.71c1.24.76,2.37,1.39,3.91,2.17,26.42,13.51,69.46,13.62,95.95.25,13.18-6.65,20.29-15.8,19.51-25.11l.09-33.05h2s-.1,32.97-.1,32.97c.85,10.07-6.66,19.93-20.61,26.97-13.4,6.76-30.96,10.14-48.54,10.14Z"/><path class="g" d="m212.76,589.82l-.41-.35s-.08-.07-.11-.11c-3.98-4.64-6.03-9.8-5.94-14.92,0-.04,0-.07,0-.11l.09-34.14h2s-.09,34.02-.09,34.02c0,.05,0,.1,0,.15-.12,4.71,1.7,9.3,5.4,13.65l.35.3-1.29,1.53Z"/><rect class="h" x="266.79" y="547.51" width="135.48" height="2" transform="translate(-228.73 239.47) rotate(-29.87)"/><path class="g" d="m275.78,580.91c-.17,0-.35-.04-.5-.14l-115.15-66.89c-.31-.18-.5-.5-.5-.86l-.02-3.02c0-.37.2-.71.52-.88l115.52-63.26c.3-.16.66-.16.97,0l115.13,63.87c.32.18.51.51.51.87l.02,3.02c0,.36-.19.7-.5.87l-115.5,66.28c-.15.09-.33.13-.5.13Zm-114.15-68.46l114.16,66.31,114.49-65.7v-1.85s-114.15-63.32-114.15-63.32l-114.51,62.71v1.85Z"/><path class="g" d="m275.78,576.35c-.17,0-.35-.04-.5-.14l-113.81-66.11,1-1.73,113.31,65.82,113.65-65.22,1,1.73-114.15,65.51c-.15.09-.33.13-.5.13Z"/><path class="g" d="m224.03,613.38c-.14,0-.29-.03-.42-.09q-.57-.26-2.11-8.11c-.11-.54.25-1.07.79-1.17.55-.11,1.07.25,1.17.79.42,2.14.89,4.47,1.2,5.9.81-.76,1.14-1.63.91-2.48,0-.03-.02-.07-.02-.1-.16-.62-1.04-3.95-2.08-7.27-1.38-4.44-3.36-17.56-3.45-18.12-.08-.55.29-1.06.84-1.14.55-.09,1.05.29,1.14.84.02.13,2.04,13.52,3.38,17.82,1.16,3.71,2.12,7.43,2.13,7.46,0,.04.02.07.02.11.48,2.04-.64,4.06-3,5.42-.15.09-.33.13-.5.13Z"/><path class="g" d="m217.78,614.87c-2.51,0-4.97-.58-6.84-1.66-2.5-1.45-3.59-3.66-2.88-5.79,0-.03.02-.07.03-.1.03-.07,2.6-7.38,3.15-9.85.87-3.92,1.98-15.13,1.99-15.24.05-.55.54-.96,1.09-.9.55.05.95.54.9,1.09-.05.47-1.13,11.45-2.02,15.48-.55,2.45-2.86,9.07-3.18,9.98,0,.04-.02.07-.03.1-.45,1.23.27,2.5,1.97,3.49,2.33,1.35,5.96,1.76,9.03,1.02.53-.13,1.08.2,1.21.74.13.54-.2,1.08-.74,1.21-1.19.29-2.43.43-3.66.43Z"/><path class="g" d="m217.81,584.45c-4.05-.01-7.32-3.3-7.31-7.32.01-4.02,3.29-7.29,7.3-7.29,1.97,0,3.8.77,5.18,2.15,1.38,1.38,2.13,3.22,2.13,5.17,0,4.02-3.29,7.29-7.3,7.29Zm0-12.61c-2.92,0-5.3,2.37-5.31,5.29,0,2.92,2.37,5.31,5.29,5.32,2.93,0,5.31-2.37,5.32-5.29,0-1.42-.54-2.75-1.54-3.76-1-1-2.33-1.56-3.75-1.56h-.01Z"/><path class="g" d="m217.83,571.84c-.56,0-1-.45-1-1l.09-27.75c0-3.68,2-7.1,5.19-8.94l48.99-28.04c1.19-.68,2.6-.67,3.78.01,1.18.69,1.89,1.91,1.88,3.28,0,.55-.45,1-1,1-.55,0-1-.45-1-1,0-.64-.33-1.22-.89-1.55-.56-.32-1.22-.33-1.78,0l-48.99,28.04c-2.57,1.48-4.18,4.24-4.19,7.21l-.09,27.75c0,.55-.45,1-1,1Z"/><path class="g" d="m39.14,497.65c-5.93,0-11.85-1.14-16.37-3.42-4.87-2.46-7.49-5.96-7.18-9.61l-.04-10.82h2s.03,10.9.03,10.9c-.24,2.88,1.98,5.67,6.09,7.74,8.6,4.34,22.57,4.3,31.15-.08,3.98-2.04,6.14-4.66,6.07-7.38,0-.03,0-.07,0-.1l-.03-11.22h2s.03,11.29.03,11.29c0,.02,0,.04,0,.06.05,3.5-2.49,6.74-7.16,9.13-4.57,2.34-10.59,3.51-16.59,3.51Z"/><path class="g" d="m39.22,487.81c-.17,0-.34-.04-.5-.13L.5,465.75c-.31-.18-.5-.51-.5-.87v-1c0-.36.21-.69.52-.87l38.1-21.14c.3-.17.67-.17.97,0l38.23,20.94c.32.18.52.52.52.88v1c0,.35-.2.68-.5.86l-38.11,22.14c-.16.09-.33.14-.5.14Zm-37.07-23.43l37.07,21.27,36.97-21.47-37.08-20.3-36.96,20.5Z"/><path class="g" d="m55.52,496.1s.31-1.22.7-2.45c.46-1.46,1.17-6.23,1.17-6.23l2.18-.13s.4,4.08.7,5.41c.19.84,1.05,3.3,1.05,3.3.2.54-.07,1.13-.8,1.55-.87.51-2.16.63-3.23.37-.03,0,.01-2.7.01-2.7l-.44-.11s-.49,2.46-.51,2.45c-.69-.4-.97-.94-.83-1.46Z"/><path class="g" d="m56.32,485.91c0,1.15.94,2.08,2.09,2.08,1.15,0,2.08-.94,2.08-2.09,0-1.15-.94-2.08-2.09-2.08-1.15,0-2.08.94-2.08,2.09Z"/><path class="g" d="m58.4,485.58c-.55,0-1-.45-1-1l-.03-9.95c0-.74-.4-1.44-1.05-1.81l-16.21-9.28c0,.55-.39.97-.94.97-.55,0-.94-.48-.94-1.03,0-.69.36-1.32.96-1.67.6-.35,1.32-.35,1.92,0l16.21,9.28c1.26.73,2.05,2.08,2.05,3.54l.03,9.95c0,.55-.45,1-1,1h0Z"/><path class="g" d="m656.91,606.91c-.4,0-.81-.06-1.2-.22-1.12-.44-1.85-1.45-2.16-3.03-.01-.06-.02-.12-.02-.18l-.22-19.21c-.02-.15-.15-2.35,3.02-4.27,2.47-1.49,61.12-35.97,71.36-41.99l-68.33-37.68.97-1.75,69.86,38.53c.31.17.51.5.52.86,0,.36-.18.69-.49.88-.7.41-70.17,41.25-72.86,42.87-2.07,1.25-2.06,2.42-2.06,2.47l.22,19.17c.17.81.48,1.3.91,1.47.85.33,2.34-.45,2.93-.88l69.11-40.97-5.92-3.96,1.11-1.66,7.24,4.84c.29.19.45.52.44.86,0,.34-.19.66-.49.83l-70.39,41.73c-.16.12-1.81,1.29-3.55,1.29Z"/><path class="g" d="m654.82,606.11s-100.25-55-101.71-55.8c-1.86-1.02-2.25-3.13-2.27-3.22,0-.05-.01-.1-.02-.15-.02-.76-.41-18.68-.39-20.03.02-1.52,1.15-2.46,1.85-2.79l59.78-35.02,1.01,1.73-59.82,35.04s-.07.04-.1.05c-.02,0-.71.34-.72,1.02-.02,1.26.36,18.41.39,19.86.06.25.37,1.28,1.25,1.76,1.46.8,101.71,55.8,101.71,55.8l-.96,1.75Z"/><path class="g" d="m655.02,602.25l-1.03-1.71,68.51-41.13c-3.36-8.05.18-17.97.34-18.4l1.88.69c-.04.1-3.66,10.26-.04,17.68.23.47.06,1.03-.38,1.3l-69.28,41.59Z"/><rect class="g" x="601.97" y="496.37" width="2" height="117.49" transform="translate(-173.43 817.64) rotate(-61.32)"/><path class="g" d="m623.1,636.5c-.17,0-.34-.04-.5-.13-2.89-1.66-70.78-40.59-74.62-43.01-1.09-.69-2.71-1.64-4.42-2.65-5.84-3.44-10.05-5.97-11.08-7.32-1.92-2.5-4.91-7.47-3.43-12.61.52-1.81,1.46-3.01,2.79-3.57,2.12-.89,4.36.31,4.45.37l7.58,4.33,79.25,45.61,27.06-15.71,1,1.73-27.56,16c-.31.18-.69.18-1,0l-79.74-45.9-7.56-4.32s-1.49-.78-2.71-.26c-.74.31-1.28,1.08-1.63,2.27-1.28,4.45,1.74,9.06,3.1,10.84.87,1.14,6.67,4.55,10.5,6.81,1.73,1.02,3.36,1.98,4.47,2.68,3.64,2.29,67.71,39.04,74.05,42.68l122.88-71.04-5.82-3.36,1-1.73,7.32,4.23c.31.18.5.51.5.87s-.19.69-.5.87l-124.88,72.19c-.15.09-.33.13-.5.13Z"/><path class="g" d="m621.52,632.3c-.17,0-.34-.04-.49-.13-3.22-1.82-78.85-44.65-82.77-47.69-4.11-3.18-5.38-6.44-6.5-9.32-1.2-3.08-.32-7.15-.28-7.33l1.95.43s-.78,3.66.17,6.13c1.09,2.81,2.2,5.67,5.87,8.51,3.46,2.68,67.96,39.27,80.45,46.35-.73-3.04-1.72-8.42-.85-12.53l1.96.41c-1.15,5.43,1.41,13.78,1.43,13.87.12.39,0,.82-.33,1.07-.18.15-.4.22-.63.22Z"/><path class="g" d="m622.01,632.17l-1-1.73,119.36-68.56c-.52-1.88-1.69-6.85-1.13-11.54l1.99.23c-.63,5.39,1.26,11.42,1.28,11.48.14.45-.05.94-.46,1.17l-120.04,68.95Z"/><path class="g" d="m725.54,560.36l-1-1.73,21.46-12.46-80.46-47.11,1.01-1.73,81.94,47.97c.31.18.5.51.5.86,0,.36-.19.68-.5.86l-22.94,13.32Z"/><rect class="g" x="529.15" y="559.46" width="31.9" height="2" transform="translate(-210.27 358.81) rotate(-30.85)"/><path class="g" d="m451.92,26.87c-.33,0-.65-.16-.84-.45l-16.24-24.87c-.26-.39-.21-.91.12-1.25.33-.34.85-.39,1.25-.14l28.27,17.94c.29.19.47.52.46.87,0,.35-.2.67-.5.85l-12.02,6.92c-.16.09-.33.13-.5.13Zm-12.88-22.55l13.2,20.21,9.77-5.63-22.97-14.58Z"/><path class="g" d="m468.15,17.56c-.15,0-.29-.03-.43-.1l-32.48-15.56c-.46-.22-.68-.75-.51-1.24.17-.48.68-.76,1.18-.64l42.01,10.1c.4.1.7.42.76.83.06.41-.14.81-.49,1.01l-9.53,5.46c-.15.09-.33.13-.5.13Zm-23.52-13.38l23.48,11.25,6.89-3.95-30.37-7.3Z"/><path class="g" d="m464.22,27.51c-.06,0-.11,0-.17-.01-.47-.08-.81-.48-.83-.95l-.28-7.56,2-.07.1,2.8,2.18-5.51,1.86.74-3.93,9.95c-.15.39-.52.63-.93.63Z"/><rect class="g" x="460.6" y="20.65" width="2" height="7.03" transform="translate(136.11 352.37) rotate(-48.23)"/><path class="g" d="m263.74,144.76c-.17,0-.34-.04-.5-.13l-15.53-8.94c-.3-.17-.49-.5-.5-.85,0-.35.17-.68.46-.87l36.51-23.18c.4-.25.92-.19,1.25.14.33.33.38.86.12,1.25l-20.98,32.12c-.19.29-.51.45-.84.45Zm-13.6-9.98l13.28,7.65,17.94-27.46-31.22,19.82Z"/><path class="g" d="m242.77,132.74c-.17,0-.34-.04-.5-.13l-12.31-7.05c-.36-.2-.55-.6-.49-1.01.06-.41.36-.73.76-.83l54.26-13.05c.49-.12,1,.15,1.18.64.17.48-.05,1.02-.51,1.24l-41.96,20.1c-.14.07-.28.1-.43.1Zm-9.63-7.67l9.67,5.54,32.96-15.79-42.62,10.25Z"/><path class="g" d="m247.85,145.58c-.4,0-.78-.25-.93-.63l-5.08-12.85,1.86-.74,3.33,8.41.18-5,2,.07-.36,9.77c-.02.47-.36.87-.83.95-.06,0-.11.01-.17.01Z"/><rect class="g" x="246.7" y="140.56" width="9.09" height="2" transform="translate(-30.45 203.27) rotate(-41.76)"/><path class="g" d="m677.73,221.3c-.17,0-.34-.04-.5-.13l-15.53-8.94c-.3-.17-.49-.5-.5-.85,0-.35.17-.68.46-.87l36.51-23.18c.4-.25.92-.19,1.25.14.33.33.38.86.12,1.25l-20.98,32.12c-.19.29-.51.45-.84.45Zm-13.6-9.98l13.28,7.65,17.94-27.46-31.22,19.82Z"/><path class="g" d="m656.75,209.28c-.17,0-.34-.04-.5-.13l-12.31-7.05c-.36-.2-.55-.6-.49-1.01.06-.41.36-.73.76-.83l54.26-13.05c.49-.12,1,.15,1.18.64.17.48-.05,1.02-.51,1.24l-41.96,20.1c-.14.07-.28.1-.43.1Zm-9.63-7.67l9.67,5.54,32.96-15.79-42.62,10.25Z"/><path class="g" d="m661.83,222.12c-.4,0-.78-.25-.93-.63l-5.08-12.85,1.86-.74,3.33,8.41.18-5,2,.07-.36,9.77c-.02.47-.36.87-.83.95-.06,0-.11.01-.17.01Z"/><rect class="g" x="660.68" y="217.1" width="9.08" height="2" transform="translate(23.72 498.38) rotate(-41.75)"/><path class="h" d="m270.29,320.52c-7.97-.57-9.86-2.53-10.15-2.92-.19-.25-.25-.57-.17-.87l1.83-6.84c.84-4.47.31-8.11-1.59-10.74l1.62-1.17c2.24,3.1,2.89,7.26,1.92,12.36l-1.68,6.29c.77.48,3,1.51,8.37,1.9l-.14,2Z"/></g></svg>