<?xml version="1.0" encoding="UTF-8"?><svg id="a" xmlns="http://www.w3.org/2000/svg" viewBox="0 0 1014.59 577.32"><defs><style>.b{fill:#f46d4d;}.b,.c,.d,.e,.f,.g,.h,.i,.j,.k{stroke-width:0px;}.c{fill:#a46bcd;}.d{fill:#c92425;}.e{fill:#d9b5f1;}.f{fill:#bf8fe4;}.g{fill:#a97ba7;}.h{fill:#f4dfff;}.i{fill:#e63432;}.j{fill:#fba65f;}.k{fill:#fbbe5f;}</style></defs><path class="b" d="m774.84,189.93c-3.29-8.48-7.06-16.92-11.31-25.32-34.29-67.84-87.53-113.65-159.73-137.43-72.09-23.67-142.05-18.37-209.89,15.92-44.91,22.61-80.16,53.61-105.74,93-11.98,18.55-21.76,38.43-29.14,59.24-.85,2.44-1.7,4.94-2.55,7.48-7.06,21.09-11.55,42.96-13.38,65.13l12.42,104.15c1.7,5.25,3.55,10.51,5.57,15.77,3.32,8.27,7.09,16.55,11.31,24.84,34.29,67.84,87.48,113.6,159.57,137.27,72.19,23.78,142.21,18.53,210.05-15.77,12.96-6.5,25.41-13.95,37.26-22.29l72.46-76.92c11.44-19.01,20.68-39.26,27.55-60.36.85-2.55,1.65-5.04,2.39-7.48,6.45-21.45,10.41-43.57,11.78-65.93,2.02-38.02-4.34-76.02-18.63-111.31Z"/><path class="i" d="m774.84,189.93c-23.94,34.8-52.37,66.29-84.56,93.64-99.72,84.1-228.59,125.47-358.63,115.14-23.71-2.22-47.27-5.83-70.55-10.83,3.32,8.27,7.09,16.55,11.31,24.84,34.29,67.84,87.48,113.6,159.57,137.27,72.19,23.78,142.21,18.53,210.05-15.77,12.96-6.5,25.41-13.95,37.26-22.29l72.46-76.92c11.44-19.01,20.68-39.26,27.55-60.36.85-2.55,1.65-5.04,2.39-7.48,6.45-21.45,10.41-43.57,11.78-65.93,2.02-38.02-4.34-76.02-18.63-111.31Z"/><path class="k" d="m519.42,577.32c-8.07,0-16.16-.36-24.25-1.09-22.86-2.13-45.4-6.87-67.18-14.12-75.06-24.65-131.24-72.98-166.95-143.63-6.98-13.66-12.88-27.85-17.63-42.44-.25-.78-.43-1.59-.53-2.4l-12.42-104.15c-.1-.83-.12-1.67-.05-2.51,1.92-23.19,6.61-46.06,13.98-68.13.88-2.64,1.75-5.18,2.61-7.68,7.74-21.78,17.97-42.58,30.5-62,26.71-41.11,63.95-73.9,110.69-97.43C458.82-3.97,532.71-9.58,607.78,15.08c75.19,24.77,131.41,73.14,167.12,143.79,1.23,2.44,2.42,4.88,3.57,7.3,20.53,42.2,30.07,88.9,27.72,135.78-.14,2.41-.31,4.79-.5,7.17-.51,6.07-1.21,12.16-2.08,18.16-2.22,14.72-5.46,29.26-9.71,43.52-.8,2.63-1.63,5.23-2.51,7.88-7.18,22-16.82,43.11-28.75,62.94-.46.76-1.01,1.48-1.62,2.13l-72.46,76.92c-.58.62-1.23,1.18-1.92,1.67-12.37,8.7-25.37,16.48-38.88,23.27-39.67,20.58-83.65,31.44-128.34,31.71Zm-251.39-207.95c4.29,12.91,9.55,25.48,15.74,37.59,32.56,64.42,83.76,108.47,152.18,130.94,19.94,6.65,40.57,11,61.49,12.95,46.99,4.24,93.71-5.18,138.83-27.98,12.02-6.03,23.59-12.92,34.63-20.6l70.64-74.99c10.61-17.86,19.22-36.85,25.66-56.6v-.03c.82-2.44,1.59-4.83,2.3-7.17,3.89-13.07,6.87-26.4,8.9-39.89.79-5.45,1.43-11.04,1.9-16.55.17-2.13.32-4.32.45-6.5,2.1-42.62-6.61-85.08-25.31-123.44-1.07-2.25-2.16-4.5-3.29-6.73-32.55-64.39-83.8-108.49-152.34-131.06-68.41-22.47-135.76-17.36-200.15,15.19-40.93,19.95-75.75,50.55-100.8,88.57-11.43,17.73-20.78,36.73-27.84,56.61-.79,2.26-1.62,4.71-2.45,7.2-6.59,19.72-10.84,40.15-12.66,60.86l12.12,101.63Zm483.72,65.66"/><path class="d" d="m519.42,577.32c-8.07,0-16.16-.36-24.25-1.09-22.86-2.13-45.4-6.87-67.18-14.12-75.07-24.65-131.24-72.98-166.95-143.63-6.98-13.66-12.88-27.86-17.63-42.44-.25-.78-.43-1.59-.53-2.41l-2.79-23.41c-.92-6.98,4-13.37,10.97-14.29,6.98-.92,13.37,4,14.29,10.97.01.1.03.2.04.31l2.64,22.16c4.28,12.91,9.54,25.48,15.73,37.59,32.56,64.42,83.76,108.47,152.18,130.94,19.94,6.65,40.57,10.99,61.49,12.95,46.99,4.24,93.71-5.18,138.83-27.98,12.02-6.03,23.59-12.92,34.63-20.6l70.64-74.99c10.61-17.86,19.22-36.85,25.66-56.6.82-2.47,1.59-4.86,2.3-7.2,5.5-18.4,9.12-37.31,10.8-56.44.59-7.01,6.75-12.22,13.77-11.63,7.01.59,12.22,6.75,11.63,13.77-1.82,20.89-5.77,41.54-11.79,61.63-.8,2.63-1.63,5.23-2.52,7.89-7.18,22-16.82,43.11-28.75,62.94-.46.76-1.01,1.48-1.62,2.13l-72.46,76.92c-.58.62-1.23,1.18-1.92,1.67-12.37,8.7-25.37,16.48-38.88,23.27-39.67,20.58-83.65,31.44-128.34,31.71Z"/><path class="g" d="m751.75,435.02c-12.63-.11-27.07-.96-43.32-2.55-63.49-6.48-137.11-23.52-220.88-51.12-83.77-27.5-153.14-57.44-208.14-89.82-14.23-8.39-26.33-16.24-36.31-23.57-29.2-21.34-41.62-38.8-37.26-52.39,4.14-12.53,21.87-19.27,53.19-20.22,7.38-20.81,17.16-40.69,29.14-59.24-34.82-5.63-68.16-9.5-100.01-11.63-104.15-6.9-161.96,7.06-173.42,41.88-11.47,34.82,26.81,80.37,114.82,136.64,40.48,25.69,82.55,48.78,125.97,69.11,68.32,31.75,138.53,59.3,210.21,82.49,69.97,23.38,141.28,42.53,213.55,57.33,48.53,9.72,97.62,16.37,146.99,19.91,104.26,7.01,162.12-6.9,173.58-41.72,11.47-34.82-26.86-80.42-114.98-136.8-28.03-17.84-58.5-35.19-91.41-52.07-1.38,22.36-5.33,44.48-11.78,65.93,24.84,19.22,35.14,35.09,30.89,47.62-4.46,13.7-24.74,20.44-60.83,20.22Z"/><path class="i" d="m464.46,326.73c-12.91-.07-23.44,10.34-23.51,23.25-.07,12.91,10.34,23.44,23.25,23.51s23.44-10.34,23.51-23.25c.04-6.25-2.43-12.25-6.85-16.66-4.3-4.43-10.23-6.91-16.4-6.85Z"/><path class="f" d="m874.07,546.32c-14.99,0-31.21-.59-48.66-1.76-3.04-.21-6.09-.42-9.15-.64-42.96-3.45-85.69-9.23-128.02-17.3-3.75-.69-7.57-1.42-11.4-2.17-33.05-6.58-67.78-14.73-103.25-24.25-27.6-7.4-56.36-15.81-85.49-25-8.71-2.75-17.49-5.58-26.34-8.49-72.17-23.38-142.86-51.12-211.67-83.07-43.9-20.59-86.46-43.94-127.41-69.91C28.26,253.36-11.01,203.85,2.64,162.38c13.66-41.46,74.62-58.01,186.37-50.61,32.12,2.14,66.16,6.1,101.2,11.76,6.95,1.12,11.67,7.67,10.54,14.62-.28,1.75-.93,3.42-1.9,4.91-11.43,17.73-20.77,36.72-27.83,56.6-1.77,4.92-6.37,8.26-11.6,8.42-28.1.86-39.91,6.73-41.48,11.49-1.68,5.25,5.84,18.48,32.69,38.11,9.62,7.06,21.48,14.75,35.26,22.88,53.94,31.76,123.13,61.6,205.64,88.69,82.51,27.19,155.92,44.2,218.2,50.55,15.74,1.54,29.93,2.38,42.13,2.48.51,0,1.01,0,1.51,0,31.98,0,45.38-6.12,47.11-11.43,1.64-4.85-4.37-16.43-26.57-33.6-4.16-3.22-5.91-8.66-4.42-13.7,6.16-20.52,9.94-41.67,11.28-63.05.41-7.02,6.44-12.38,13.46-11.97,1.77.1,3.49.57,5.07,1.38,33.11,16.98,64.21,34.7,92.44,52.66,94.57,60.5,133.89,110.06,120.24,151.53-11.53,34.99-56.8,52.21-137.88,52.21ZM141.19,135.56c-66.77,0-106.84,12-114.35,34.8-9.09,27.63,29.82,70.92,109.58,121.92,40.03,25.39,81.63,48.21,124.56,68.33,67.86,31.51,137.57,58.86,208.74,81.9,8.75,2.87,17.43,5.67,26.05,8.39,28.77,9.08,57.18,17.38,84.42,24.68,34.94,9.37,69.12,17.4,101.59,23.86,3.7.72,7.42,1.43,11.13,2.12,41.42,7.91,83.23,13.56,125.27,16.94,2.97.22,5.97.43,8.96.63,94.49,6.35,151.53-5.37,160.63-33,9.09-27.63-29.88-70.98-109.75-122.08-22.75-14.47-47.45-28.81-73.62-42.73-1.78,13.89-4.5,27.64-8.14,41.16,13.88,11.48,36.2,33.41,28.39,56.41-9.52,29.24-57.29,28.96-72.97,28.87-12.99-.11-27.94-.99-44.48-2.61-64.15-6.54-139.37-23.94-223.62-51.7-84.23-27.65-155.09-58.25-210.61-90.94-14.53-8.56-27.1-16.73-37.38-24.28-21.97-16.05-50.22-40.44-41.86-66.55,7.6-22.98,38.46-27.57,56.35-28.7,4.96-12.77,10.78-25.19,17.41-37.17-27.67-4.02-54.56-6.92-80.16-8.62-16.54-1.1-31.91-1.64-46.12-1.64Z"/><path class="k" d="m259.03,208.09c-7.04,0-12.74-5.72-12.74-12.75,0-1.47.25-2.92.75-4.3,7.73-21.73,17.95-42.5,30.45-61.88,3.84-5.9,11.73-7.57,17.63-3.73,5.9,3.84,7.57,11.73,3.73,17.63-11.43,17.73-20.77,36.72-27.83,56.6-1.82,5.06-6.61,8.43-11.99,8.43Z"/><path class="d" d="m781.69,379.92c-7.04,0-12.75-5.71-12.74-12.75,0-1.22.18-2.44.52-3.61,6.16-20.52,9.94-41.67,11.28-63.05.39-7.03,6.4-12.41,13.42-12.02,7.03.39,12.41,6.4,12.02,13.42,0,.03,0,.05,0,.08-1.45,23.33-5.57,46.42-12.29,68.81-1.6,5.41-6.57,9.11-12.21,9.12Z"/><path class="d" d="m791.02,338.2c-7.04,0-12.75-5.71-12.75-12.76,0-.61.04-1.21.13-1.81.8-5.51,1.44-11.1,1.91-16.61.17-2.13.32-4.32.45-6.5,2.1-42.62-6.61-85.08-25.31-123.44-3.02-6.36-.31-13.96,6.05-16.97,6.36-3.02,13.96-.31,16.97,6.05,20.53,42.2,30.07,88.91,27.72,135.79-.14,2.41-.31,4.79-.5,7.17-.51,6.07-1.21,12.16-2.08,18.16-.91,6.26-6.27,10.91-12.59,10.92Z"/><path class="j" d="m490.3,44.34c-21.79-8.08-45.51-8.56-71.15-1.44-25.64,7.12-45.71,19.76-60.22,37.92-14.51,18.16-19.19,36.51-14.04,55.04,5.15,18.53,18.62,31.84,40.41,39.91,21.79,8.08,45.51,8.56,71.15,1.44,25.64-7.12,45.71-19.76,60.22-37.92,14.51-18.16,19.19-36.51,14.04-55.04-5.15-18.53-18.62-31.84-40.41-39.91Z"/><path class="i" d="m549.42,156.57c-16.97-16.96-44.48-16.94-61.44.03-16.96,16.97-16.94,44.48.03,61.44,16.97,16.96,44.48,16.94,61.44-.03,8.14-8.15,12.71-19.19,12.71-30.7.18-11.56-4.43-22.69-12.74-30.74Z"/><path class="i" d="m382.56,256.31c-9.08-9.07-23.79-9.06-32.86.02-9.07,9.08-9.06,23.79.02,32.86,9.08,9.07,23.79,9.06,32.86-.02,4.35-4.36,6.8-10.26,6.8-16.42.1-6.18-2.37-12.13-6.81-16.44Z"/><path class="i" d="m665.23,213.15c-9.08-9.07-23.79-9.06-32.86.02-9.07,9.08-9.06,23.79.02,32.86,9.08,9.07,23.79,9.06,32.86-.02,4.35-4.36,6.8-10.26,6.8-16.42.1-6.18-2.37-12.13-6.81-16.44Z"/><path class="b" d="m717.46,328.76c-9.08-9.07-23.79-9.06-32.86.02-9.07,9.08-9.06,23.79.02,32.86,9.08,9.07,23.79,9.06,32.86-.02,4.35-4.36,6.8-10.26,6.8-16.42.1-6.18-2.37-12.13-6.81-16.44Z"/><path class="b" d="m625.62,317.27c-15.79-15.77-41.37-15.76-57.13.03-15.77,15.79-15.76,41.37.03,57.13,15.79,15.77,41.37,15.76,57.13-.03,7.57-7.58,11.82-17.85,11.82-28.55.17-10.75-4.12-21.1-11.85-28.58Z"/><path class="b" d="m500.49,144.27c-9.08-9.07-23.79-9.06-32.86.02-9.07,9.08-9.06,23.79.02,32.86,9.08,9.07,23.79,9.06,32.86-.02,4.35-4.36,6.8-10.26,6.8-16.42.1-6.18-2.37-12.13-6.81-16.44Z"/><path class="i" d="m641.54,107.44c-12.91-.07-23.44,10.34-23.51,23.25-.07,12.91,10.34,23.44,23.25,23.51,12.91.07,23.44-10.34,23.51-23.25.03-6.25-2.43-12.25-6.85-16.66-4.3-4.43-10.23-6.91-16.4-6.85Z"/><path class="e" d="m817.21,543.95c-.33,0-.66-.01-.99-.04-25.6-1.96-52.49-5.05-79.91-9.18-15.63-2.33-31.81-5.06-48.07-8.12-3.75-.69-7.57-1.42-11.4-2.17-24.78-4.93-50.55-10.77-76.63-17.35-8.69-2.17-17.66-4.49-26.62-6.89-27.6-7.4-56.36-15.81-85.49-25-6.71-2.12-10.44-9.27-8.32-15.98,2.12-6.71,9.27-10.43,15.98-8.32,28.78,9.08,57.18,17.38,84.43,24.69,8.82,2.37,17.65,4.65,26.22,6.79,25.7,6.48,51.04,12.22,75.36,17.07,3.7.72,7.42,1.43,11.13,2.12,15.99,3,31.86,5.68,47.18,7.97,26.83,4.04,53.1,7.06,78.08,8.97,7.02.54,12.27,6.66,11.73,13.68-.51,6.63-6.04,11.76-12.69,11.77h0Z"/><path class="h" d="m738.22,534.87c-.63,0-1.27-.05-1.89-.14-15.65-2.33-31.83-5.06-48.09-8.12-3.75-.69-7.57-1.42-11.4-2.17-24.78-4.93-50.55-10.77-76.63-17.35-6.81-1.76-10.9-8.72-9.14-15.53,1.75-6.75,8.6-10.84,15.37-9.18,25.67,6.48,51.01,12.22,75.33,17.06,3.7.72,7.42,1.43,11.13,2.12,15.99,3,31.86,5.68,47.18,7.97,6.96,1.04,11.76,7.52,10.73,14.48-.93,6.24-6.28,10.86-12.59,10.87h0Z"/><path class="c" d="m754.97,447.77c-1.21,0-2.32,0-3.3-.01-12.99-.11-27.94-.99-44.48-2.61-64.15-6.54-139.37-23.94-223.62-51.7-84.23-27.65-155.09-58.25-210.61-90.94-14.53-8.56-27.1-16.73-37.38-24.28-21.97-16.05-50.22-40.44-41.86-66.55,1.71-5.15,4.72-9.78,8.74-13.43,7.76-7.14,19.48-11.72,35.87-14.01,6.97-.98,13.41,3.88,14.38,10.85.98,6.97-3.88,13.41-10.85,14.38-14.33,2.01-20.01,5.56-22.12,7.5-.82.69-1.44,1.59-1.79,2.6-1.68,5.25,5.84,18.48,32.69,38.1,9.62,7.06,21.48,14.75,35.26,22.88,53.94,31.76,123.13,61.6,205.64,88.69,82.51,27.19,155.92,44.2,218.2,50.55,15.74,1.54,29.93,2.38,42.13,2.48,33.05.16,46.85-6.03,48.61-11.43.55-1.84.37-3.83-.51-5.54-2.14-4.73-5.13-9.02-8.82-12.67-4.82-5.13-4.57-13.19.56-18.01,5.13-4.82,13.19-4.57,18.01.56.04.04.07.08.11.11,5.92,6.01,10.64,13.09,13.93,20.86,3,7.22,3.32,15.28.91,22.72-8.92,27.41-51.45,28.88-69.67,28.88Z"/><path class="e" d="m811.87,413.52c-5.26,0-9.98-3.23-11.88-8.13-2.14-4.76-5.14-9.08-8.85-12.75-4.82-5.13-4.57-13.19.56-18.01,5.13-4.82,13.19-4.57,18.01.56.04.04.07.08.11.11,5.92,6.01,10.64,13.09,13.93,20.86,2.54,6.56-.71,13.95-7.28,16.49-1.47.57-3.02.86-4.6.86h0ZM211.1,220.35c-7.04,0-12.74-5.7-12.74-12.74,0-3.56,1.49-6.96,4.11-9.38,7.74-7.12,19.46-11.7,35.85-13.99,6.97-.98,13.41,3.88,14.38,10.85.98,6.97-3.88,13.41-10.85,14.38-14.33,2.01-20.01,5.56-22.12,7.5-2.35,2.17-5.43,3.37-8.63,3.37Z"/></svg>