<?xml version="1.0" encoding="UTF-8"?><svg id="b" xmlns="http://www.w3.org/2000/svg" viewBox="0 0 546.03 487.67"><defs><style>.c,.d,.e,.f,.g{stroke-width:0px;}.d{fill:#080717;}.e{fill:#7ca0fc;}.f{fill:#fff;}.g{fill:#ffcf4b;}</style></defs><path class="d" d="m311.45,5.38c30.81-3.09,59.58,10.05,78.36,32.6-8.24-1.38-16.72-1.76-25.35-.89-58.51,5.87-100.61,63.82-94.03,129.44.37,3.64.89,7.23,1.54,10.76-22.67-14.96-38.78-39.99-41.76-69.63-5.16-51.47,31.2-97.26,81.22-102.27Z"/><path class="d" d="m237.73,279.24c-11.7,0-23.25-.91-32.67-1.66-9.09-.72-16.94-1.34-19.55-.63-7.63,2.06-22.18-7.27-43.23-27.76-17.54-17.07-33.4-35.79-39.28-43.58-30.24-40.09-30.95-82.21-18.24-106.17,7.22-13.6,18.6-21.04,31.19-20.39,4.7.24,11.29,1.3,18.91,2.52,30.32,4.88,76.13,12.24,90.84-15.39,14.84-27.87,35.28-44.13,60.75-48.34,28.18-4.65,56.18,7.64,67.05,17.86h0c23.74,22.31,33.94,42.42,26.63,52.5-17.01,23.44-44.1,40.3-68,55.17-21.08,13.12-39.29,24.46-41.61,35.62-.71,3.44.11,6.8,2.52,10.27,22.5,32.5,29.19,55.7,20.45,70.9-8.92,15.5-32.63,19.07-55.77,19.07Zm-48.29-6.42c3.89,0,9.31.43,15.91.95,27.15,2.14,72.61,5.73,84.83-15.51,7.82-13.6,1-36.08-20.28-66.81-2.99-4.32-4.04-8.77-3.12-13.23,2.65-12.77,20.6-23.95,43.33-38.1,23.6-14.69,50.35-31.34,66.92-54.17,5.91-8.14-4.61-27.21-26.15-47.46h0c-10.3-9.68-36.91-21.32-63.81-16.88-24.24,4-43.75,19.6-58,46.36-16,30.05-63.44,22.42-94.83,17.37-7.51-1.21-14-2.25-18.49-2.48-11.06-.57-21.13,6.13-27.62,18.37-12.14,22.89-11.31,63.33,17.91,102.08,14.68,19.46,64.47,73.74,78.45,69.95,1.15-.31,2.82-.44,4.94-.44Z"/><path class="d" d="m363.44,11.68c-23.41-14.42-106.83-30.79-132.07,53.45-12.55,41.89-95.45,31.31-121.22,33.98-39.96,4.14-47.06,77.94,17.92,133.85,18.67,16.06,90.65,68.99,107.44,61.62,16.8-7.36,195.47,5.96,75.67-105.36-30.91-28.72,64.99-67.01,94.14-128.7,4.95-10.48-10.02-29.22-41.87-48.84Z"/><circle class="d" cx="95.51" cy="224.54" r="83.19" transform="translate(-130.8 133.3) rotate(-45)"/><path class="d" d="m84.96,307.61c-16.97,0-34.1-5.05-48.99-15.57C-2.36,264.96-11.51,211.75,15.57,173.42c27.08-38.33,80.29-47.48,118.62-20.4,38.33,27.08,47.48,80.29,20.4,118.62h0c-16.56,23.44-42.9,35.97-69.63,35.97Zm.23-166.33c-25.53,0-50.68,11.96-66.5,34.35-25.86,36.6-17.12,87.42,19.48,113.29,36.6,25.86,87.42,17.12,113.29-19.48h0c25.86-36.6,17.12-87.42-19.48-113.29-14.22-10.04-30.58-14.87-46.79-14.87Zm67.83,129.26h0,0Z"/><circle class="d" cx="187.31" cy="270.96" r="82.18" transform="translate(-136.73 211.81) rotate(-45)"/><path class="f" d="m317.59,265.01h0c22.69.39,41.4-17.68,41.79-40.37l.76-43.94-82.16-1.42-.76,43.94c-.39,22.69,17.68,41.4,40.37,41.79Z"/><path class="d" d="m318.32,266.71c-.25,0-.51,0-.76,0h0c-23.58-.41-42.44-19.93-42.03-43.51l.76-43.94c.02-.93.77-1.67,1.69-1.67.01,0,.02,0,.03,0l82.16,1.42c.45,0,.88.19,1.19.52s.48.76.48,1.21l-.76,43.94c-.2,11.43-4.83,22.09-13.05,30.03-8.04,7.76-18.56,12.01-29.7,12.01Zm-.7-3.39c10.52.18,20.48-3.74,28.05-11.05,7.57-7.31,11.84-17.13,12.02-27.65l.73-42.24-78.77-1.36-.73,42.24c-.38,21.72,16.99,39.69,38.7,40.07Z"/><path class="d" d="m276.99,236.56l.99-57.28,52.19.9,16.33,19.88c-13.36,21.71-37.88,35.22-69.5,36.5Z"/><path class="d" d="m290.41,178.72h0c-44.57-13.15-70.04-59.95-56.89-104.52l1.27-4.3C247.95,25.33,294.74-.14,339.31,13.01h0c44.57,13.15,70.04,59.95,56.89,104.52l-1.27,4.3c-13.15,44.57-59.95,70.04-104.52,56.89Z"/><path class="d" d="m317.38,160.11h0c-37.2-10.98-58.45-50.03-47.48-87.22l4.07-13.78c10.98-37.2,50.03-58.45,87.22-47.48h0c37.2,10.98,58.45,50.03,47.48,87.22l-4.07,13.78c-10.98,37.2-50.03,58.45-87.22,47.48Z"/><path class="d" d="m417.54,92.68s-.09,0-.13,0c-.93-.07-1.63-.89-1.56-1.82,1.63-20.92-3.49-38.43-15.22-52.02-12.38-14.34-32.34-23.76-53.42-25.21-.93-.06-1.64-.87-1.57-1.81.06-.93.88-1.64,1.81-1.57,21.96,1.51,42.8,11.37,55.75,26.38,12.35,14.3,17.74,32.64,16.04,54.5-.07.89-.81,1.56-1.69,1.56Z"/><path class="f" d="m251.5,125.32l-15.12-4.77c-9.23-2.91-14.35-12.75-11.45-21.98h0c2.91-9.23,12.75-14.35,21.98-11.45l15.12,4.77c9.23,2.91,14.35,12.75,11.45,21.98h0c-2.91,9.23-12.75,14.35-21.98,11.45Z"/><path class="d" d="m256.79,127.84c-1.94,0-3.89-.3-5.8-.9h0l-15.12-4.77c-4.9-1.54-8.9-4.9-11.27-9.45-2.37-4.55-2.83-9.76-1.28-14.65,1.54-4.9,4.9-8.9,9.45-11.27,4.55-2.37,9.76-2.83,14.65-1.28l15.12,4.77c4.9,1.54,8.9,4.9,11.27,9.45,2.37,4.55,2.83,9.76,1.28,14.65-1.54,4.9-4.9,8.9-9.45,11.27-2.78,1.45-5.8,2.18-8.85,2.18Zm-4.78-4.13c4.03,1.27,8.32.9,12.07-1.06,3.75-1.95,6.52-5.25,7.79-9.28,1.27-4.03.9-8.32-1.06-12.07-1.95-3.75-5.25-6.52-9.28-7.79l-15.12-4.77c-4.03-1.27-8.32-.9-12.07,1.06-3.75,1.95-6.52,5.25-7.79,9.28-1.27,4.03-.9,8.32,1.06,12.07,1.95,3.75,5.25,6.52,9.28,7.79l15.12,4.77Z"/><path class="f" d="m344.63,41.68l3.83,1.13c25.45,7.51,43.5,28.04,49.06,52.18h4.76c9.68-.03,17.54,7.8,17.56,17.48h0c.02,9.68-7.81,17.54-17.49,17.56h-5.7c-.08.3-.15.59-.23.88l-7.69,26.05c-11.09,37.57-50.53,59.04-88.1,47.96l-3.83-1.13c-37.57-11.09-59.04-50.53-47.96-88.1l7.69-26.05c11.09-37.57,50.53-59.04,88.1-47.96Z"/><path class="d" d="m320.67,209.53c-6.79,0-13.68-.96-20.52-2.98l-3.83-1.13c-18.61-5.49-33.96-17.9-43.23-34.94-9.27-17.04-11.36-36.67-5.87-55.27l7.69-26.05c5.49-18.61,17.9-33.96,34.94-43.23,17.04-9.27,36.67-11.36,55.27-5.87l3.83,1.13c24.67,7.28,43.68,27.18,49.91,52.11h3.43s.03,0,.04,0c10.58,0,19.2,8.6,19.22,19.18.02,10.6-8.58,19.24-19.18,19.26h-4.42s-7.59,25.72-7.59,25.72c-9.32,31.57-38.33,52.08-69.69,52.08Zm3.79-169.08c-11.41,0-22.7,2.85-33,8.46-16.24,8.84-28.07,23.48-33.31,41.22l-7.69,26.05c-5.23,17.74-3.25,36.45,5.59,52.69,8.84,16.24,23.48,28.07,41.22,33.31l3.83,1.13c36.62,10.8,75.2-10.19,86-46.81l7.69-26.05c.04-.14.08-.28.11-.42.04-.14.07-.29.11-.43.21-.73.87-1.23,1.63-1.23h5.7c8.73-.03,15.81-7.14,15.8-15.87-.02-8.72-7.12-15.8-15.83-15.8h-4.8s0,0,0,0c-.79,0-1.47-.54-1.65-1.31-5.61-24.36-23.95-43.88-47.88-50.94l-3.83-1.13c-6.49-1.91-13.11-2.86-19.69-2.86Z"/><path class="d" d="m253.15,88.36l-.03.12c14.45-4.59,31.71-30.35,41.68-64.11l.03-.12c-14.45,4.59-31.71,30.35-41.68,64.11Z"/><path class="d" d="m299.53,84.93c.23,2.91-6.11,5.79-14.16,6.44s-14.78-1.18-15.01-4.09c-.23-2.91,6.11-5.79,14.16-6.44s14.78,1.18,15.01,4.09Z"/><path class="d" d="m362.83,101.04c-1.02,2.74-7.98,2.67-15.56-.14-7.58-2.81-12.89-7.31-11.88-10.05s7.98-2.67,15.56.14c7.58,2.81,12.89,7.31,11.88,10.05Z"/><path class="d" d="m309.1,132.78c-.21,0-.43-.04-.64-.13-2.93-1.2-5.23-3.6-6.3-6.59-1.07-2.98-.83-6.3.66-9.09l9-16.86c.44-.82,1.46-1.14,2.29-.7.83.44,1.14,1.47.7,2.29l-9,16.86c-1.04,1.95-1.21,4.26-.46,6.35.75,2.08,2.35,3.76,4.4,4.6.87.36,1.28,1.35.92,2.21-.27.65-.9,1.05-1.57,1.05Z"/><path class="d" d="m373.34,34.63c12.37,8.66,22.55,18.29,29.49,27.3-1.05,2.41-2.33,4.74-3.88,6.95-7.33,10.47-19.07,16.47-32.39,17.87-6.83-3.31-13.95-7.48-21.02-12.44-28.54-19.99-45.45-45.07-37.77-56.03,7.67-10.96,37.03-3.63,65.56,16.35Z"/><path class="d" d="m264.11,42.67c-12.01,9.15-18.08,21.38-18.57,32.75,2.25,1.37,4.63,2.53,7.17,3.45,12.02,4.34,25.07,2.49,36.77-4.04-.9-8.83,8.38-23.04,22.75-31.52,30.01-17.7-12.04-28.13-48.12-.64Z"/><path class="d" d="m349.5,124.53c-.13,0-.27-.02-.41-.05-.91-.23-1.46-1.14-1.24-2.05,1.03-4.17-.85-8.23-4.2-9.06-1.57-.39-3.24,0-4.72,1.07-1.57,1.14-2.71,2.91-3.23,4.98-.23.91-1.13,1.46-2.05,1.24-.91-.23-1.46-1.14-1.24-2.05.71-2.84,2.31-5.3,4.52-6.91,2.3-1.68,4.98-2.25,7.53-1.62,5.16,1.28,8.15,7.19,6.67,13.17-.19.77-.88,1.29-1.64,1.29Z"/><path class="d" d="m288.32,116.35c-.13,0-.27-.02-.41-.05-.91-.23-1.46-1.14-1.24-2.05.51-2.07.33-4.17-.52-5.92-.8-1.64-2.11-2.76-3.67-3.15-3.36-.83-6.91,1.88-7.95,6.05-.22.91-1.14,1.46-2.05,1.24-.91-.23-1.46-1.14-1.24-2.05,1.48-5.98,6.9-9.8,12.05-8.52,2.56.63,4.65,2.39,5.9,4.95,1.2,2.46,1.47,5.38.77,8.22-.19.77-.88,1.29-1.64,1.29Z"/><path class="d" d="m347.74,84.06c-.28,0-.56-.07-.82-.21-18.47-10.24-30.59-24.21-36.04-41.52-.28-.89.21-1.84,1.11-2.12.89-.28,1.84.22,2.12,1.11,5.18,16.45,16.77,29.76,34.45,39.57.82.45,1.11,1.49.66,2.3-.31.56-.89.87-1.48.87Z"/><polygon class="d" points="402.83 77.1 391.29 122.98 383.36 122.78 380.39 65.12 402.83 77.1"/><polygon class="f" points="456.43 300.73 343.06 357.74 299.82 174.87 454.64 97.27 456.43 300.73"/><path class="d" d="m343.06,359.43c-.24,0-.49-.05-.72-.16-.47-.22-.81-.64-.93-1.15l-43.24-182.87c-.18-.76.19-1.55.89-1.9l154.82-77.6c.52-.26,1.14-.24,1.64.07.5.31.81.85.81,1.43l1.79,203.46c0,.65-.36,1.24-.93,1.53l-113.37,57.01c-.24.12-.5.18-.76.18Zm-41.28-183.65l42.44,179.48,110.51-55.57-1.76-199.69-151.19,75.78Z"/><polygon class="f" points="484.11 118.04 462.85 102.45 462.43 102.63 462.43 102.54 326.17 161.97 194.66 107.36 188.8 104.85 167.82 120.81 186.94 140.72 189.1 135.67 190.48 292.22 311.61 342.71 325.5 274.76 343.84 342.43 464.08 289.82 462.69 132.39 465.34 138.28 484.11 118.04"/><path class="d" d="m311.61,344.41c-.22,0-.44-.04-.65-.13l-121.13-50.49c-.63-.26-1.04-.87-1.04-1.55l-1.31-149.9c-.07.02-.15.04-.22.06-.56.1-1.13-.08-1.53-.49l-19.13-19.91c-.33-.35-.5-.82-.47-1.3.04-.48.28-.92.66-1.22l20.98-15.96c.49-.37,1.13-.45,1.69-.21l5.87,2.51,130.83,54.33,135.6-59.15c.17-.08.35-.12.54-.14.52-.18,1.11-.1,1.56.23l21.26,15.59c.39.29.64.72.68,1.21.05.48-.12.96-.44,1.31l-18.77,20.24c-.39.42-.96.61-1.52.52-.22-.04-.42-.11-.61-.23l1.32,150.08c0,.68-.39,1.3-1.01,1.57l-120.24,52.61c-.45.2-.97.19-1.41-.02-.44-.21-.77-.61-.9-1.08l-16.47-60.78-12.46,60.96c-.1.5-.42.92-.87,1.16-.25.13-.52.2-.79.2Zm-119.45-53.32l118.2,49.27,13.47-65.93c.16-.77.82-1.33,1.61-1.35.78-.02,1.48.49,1.69,1.25l17.82,65.77,117.42-51.37-1.37-156.31c0-.8.55-1.5,1.33-1.67.78-.17,1.58.23,1.91.96l1.59,3.56,15.74-16.97-19.02-13.95-135.7,59.2c-.42.18-.9.19-1.33.01l-131.51-54.62-4.98-2.13-18.68,14.21,16.04,16.69,1.15-2.7c.32-.74,1.11-1.15,1.89-1,.79.16,1.36.84,1.36,1.65l1.36,155.44Z"/><path class="g" d="m307.27,170.85c2.05,2.05,4.88,3.31,8.02,3.28l21.85-.19c3.13-.03,5.94-1.33,7.96-3.42l3.28-.03,1.7,193.94c.05,6.23-4.95,11.32-11.17,11.37l-21.85.19c-6.23.06-11.31-4.94-11.37-11.17l-1.7-193.95,3.28-.03Z"/><polygon class="g" points="167.22 318.23 309.11 372.46 307.34 170.93 165.45 116.7 167.22 318.23"/><polygon class="g" points="487.78 315.42 346.87 372.13 345.1 170.6 486.01 113.89 487.78 315.42"/><polygon class="e" points="272.85 206.95 282.35 205.24 291.94 212.9 291.51 164.37 281.96 160.53 272.42 157.55 272.85 206.95"/><polygon class="e" points="291.51 164.37 302.6 157.89 284.79 149.89 272.42 157.55 291.51 164.37"/><path class="f" d="m478.13,268.46l5.59,5.23s-12.77,18.72,4.86,32.03c4.31,3.25,31.72-5.42,38.45-16.53,13.18-21.77,26.54-58.62,9.55-72.07-17-13.45-46.7-28.97-46.7-28.97,0,0-9.39,13.5.45,20.23,13.77,9.42,25.84,22.61,25.84,22.61l-47.3-14.69s-4.59,7.69-4.55,15.94-3.55,20.64,13.83,36.22Z"/><path class="d" d="m527.03,290.88c-.28,0-.56-.07-.82-.21-.82-.46-1.11-1.49-.66-2.3,8.78-15.76,27.31-54.12,9.89-70-14.14-12.88-39.67-25.27-46.07-28.27-1.46,3.24-4.33,11.31.71,15.91,2.75,2.5,6.65,5.38,10.78,8.44,8.1,5.98,16.47,12.17,18.56,17.28.35.87-.06,1.86-.93,2.21-.87.36-1.86-.06-2.21-.93-1.74-4.24-10.08-10.4-17.44-15.84-4.2-3.1-8.17-6.04-11.04-8.66-8.38-7.64-1.01-20.92-.7-21.48.43-.76,1.37-1.07,2.17-.71,1.29.58,31.87,14.45,48.45,29.54,7.9,7.19,10.18,18.84,6.8,34.61-3.12,14.54-10.43,29.53-16.01,39.55-.31.56-.89.87-1.48.87Z"/><path class="d" d="m531.65,239.88c-.19,0-.39-.03-.58-.1l-61.29-22.16c-1.73,1.95-5.72,7.33-1.78,11.8.62.7.55,1.77-.15,2.39-.7.62-1.77.55-2.39-.15-5.56-6.32-.67-14.04,2.69-17.24.47-.44,1.14-.58,1.74-.37l62.33,22.54c.88.32,1.34,1.29,1.02,2.17-.25.69-.9,1.12-1.59,1.12Z"/><path class="d" d="m516.04,274.42c-.25,0-.51-.06-.75-.18-1.8-.9-44.2-22-50.49-26.44-7.2-5.08-3.21-17.7-3.04-18.24.15-.45.47-.82.9-1.02.43-.2.92-.21,1.36-.02l62.42,26.07c.86.36,1.27,1.35.91,2.22-.36.86-1.35,1.27-2.22.91l-60.62-25.32c-.72,3.22-1.63,9.9,2.24,12.63,6.08,4.3,49.61,25.96,50.05,26.18.84.42,1.18,1.43.76,2.27-.3.6-.9.94-1.52.94Z"/><path class="d" d="m505.45,287.32c-.22,0-.45-.04-.66-.14-1.86-.79-45.46-19.64-40.18-40.57.23-.91,1.14-1.46,2.06-1.23.91.23,1.46,1.15,1.23,2.06-2.34,9.27,7.98,18.66,17.05,24.9,10.17,7,21.06,11.68,21.17,11.72.86.37,1.26,1.36.89,2.22-.27.64-.9,1.03-1.56,1.03Z"/><path class="d" d="m488.78,308.53c-.37,0-.72-.12-1.02-.34-.18-.13-17.38-13.36-5.75-34.11.46-.82,1.49-1.11,2.31-.65.82.46,1.11,1.49.65,2.31-9.26,16.52,1.86,27.25,4.37,29.37,12.8-.7,29.22-4.21,36.21-16.75,8.78-15.76,27.31-54.12,9.89-70-.69-.63-.74-1.7-.11-2.39.63-.69,1.7-.74,2.39-.11,7.9,7.19,10.18,18.84,6.8,34.61-3.12,14.54-10.43,29.53-16.01,39.55-7.86,14.11-25.9,17.86-39.65,18.51-.03,0-.05,0-.08,0Z"/><path class="d" d="m311.25,369.61c-.91,0-1.67-.73-1.69-1.65l-5.39-190.15c-.03-.94.71-1.72,1.65-1.74.95-.02,1.72.71,1.74,1.65l5.39,190.15c.03.94-.71,1.72-1.65,1.74-.02,0-.03,0-.05,0Z"/><path class="d" d="m346.03,369.79c-.91,0-1.67-.73-1.69-1.65l-5.39-190.15c-.03-.94.71-1.72,1.65-1.74.95-.02,1.72.71,1.74,1.65l5.39,190.15c.03.94-.71,1.72-1.65,1.74-.02,0-.03,0-.05,0Z"/><path class="d" d="m292.58,315.32c-.21,0-.43-.04-.63-.12l-33.82-13.57c-.45-.18-.81-.55-.97-1.01l-4.88-13.92-32.25-12.15-3.07,8.66c-.15.43-.48.79-.9.98-.42.19-.9.2-1.33.03l-33.82-13.57c-.43-.17-.77-.52-.94-.95-.17-.43-.16-.92.04-1.34l32.88-70.57c.34-.72,1.13-1.11,1.91-.94l35.4,7.94c.55.12,1,.51,1.2,1.03l42.75,107.17c.25.63.1,1.35-.38,1.83-.32.32-.76.5-1.2.5Zm-32.47-16.55l29.43,11.81-40.95-102.67-33.2-7.45-31.55,67.71,30.52,12.24,3.05-8.62c.15-.43.47-.78.88-.97.41-.19.88-.21,1.31-.05l34.61,13.03c.47.18.84.55,1,1.02l4.89,13.94Zm-14.18-34.33c-.18,0-.36-.03-.54-.09l-21.33-7.2c-.88-.3-1.35-1.24-1.07-2.12l8.92-27.75c.22-.69.86-1.16,1.59-1.18h.03c.72,0,1.36.45,1.6,1.13l12.42,34.95c.22.61.07,1.29-.39,1.76-.32.33-.76.51-1.21.51Zm-19.21-9.97l16.44,5.55-9.57-26.94-6.87,21.39Z"/><path class="d" d="m371.61,313.96c-.34,0-.67-.1-.95-.29-.43-.3-.71-.77-.74-1.3l-6.46-107.34c-.05-.79.45-1.5,1.21-1.73l56.46-16.79c3.12-.93,5.87-1.54,8.41-1.87,7.25-1,14.07.35,18.24,3.63.03.03.07.05.1.08.92.84,2.82,2.58,4.49,5.53,1.92,3.22,3.08,7.24,3.34,11.59.13,2.2.38,13.72-7.8,23.9-.92,1.07-1.81,2.05-3.02,3.18,3.08.17,5.73,1.2,8.6,3.32,6.99,5.48,7.49,13.9,7.68,17.07.33,5.43-.07,15.93-6.38,25.27-2.46,3.75-5.21,6.06-6.54,7.18l-.11.09c-5.72,4.88-11.03,7.22-17.76,9.41l-58.26,18.98c-.17.06-.35.08-.53.08Zm-4.68-107.79l6.24,103.81,56.17-18.3c6.49-2.12,11.29-4.23,16.62-8.77l.12-.1c1.2-1.01,3.7-3.11,5.88-6.45,0,0,0-.02.01-.02,5.98-8.83,6.06-19.15,5.82-23.18-.18-3.01-.6-10.07-6.36-14.58-2.36-1.75-4.43-2.54-6.9-2.64l-4.1-.08c-.71-.01-1.33-.47-1.57-1.14-.23-.67-.02-1.41.53-1.86,3.34-2.74,4.65-4.18,5.9-5.64,7.37-9.17,7.15-19.55,7.03-21.53-.23-3.81-1.23-7.3-2.89-10.09-1.4-2.47-2.94-3.9-3.8-4.68-4.08-3.17-10.75-3.58-15.64-2.9-2.37.31-4.95.88-7.89,1.76l-55.17,16.41Zm33.24,75.11c-.34,0-.67-.1-.96-.3-.43-.3-.7-.77-.73-1.3l-1.25-20.82c-.05-.78.44-1.49,1.18-1.72l18.32-5.75c6.62-2.1,9.98.16,11.64,2.43,0,0,0,0,0,0,1.19,1.64,1.86,3.71,2.01,6.16.15,2.52-.32,4.99-1.42,7.32-2.39,5.06-6.28,6.85-9.4,7.85l-18.89,6.04c-.17.05-.34.08-.52.08Zm.52-21.29l1.04,17.32,16.81-5.37c2.62-.84,5.55-2.21,7.36-6.06.85-1.81,1.22-3.72,1.1-5.68-.11-1.79-.57-3.26-1.37-4.37-1.46-1.99-4.11-2.39-7.88-1.2l-17.06,5.36Zm-2.98-21.89c-.34,0-.68-.1-.96-.3-.43-.3-.7-.77-.73-1.29l-1.08-17.95c-.05-.78.45-1.5,1.2-1.72l17.48-5.3c4.45-1.41,7.75-.75,9.83,1.97.76.95,1.7,2.73,1.89,5.82.06.98.21,3.57-.93,6.08-2.08,5.2-6.96,6.71-9.58,7.52l-16.6,5.12c-.16.05-.33.07-.5.07Zm.69-18.41l.87,14.46,14.54-4.48c3.01-.93,6.07-2.13,7.47-5.61.83-1.82.71-3.73.66-4.54-.14-2.33-.79-3.45-1.16-3.91-.01-.01-.02-.03-.03-.04-1.5-1.98-4.21-1.41-6.12-.8l-.23.07-16,4.85Z"/><path class="f" d="m162.58,173.48l.87,14.2-10-8.58c-3.86-3.31-6.4-7.91-7.14-12.94h0c-.66-4.48.81-6.89,6.04-10.5l27.78-17.75,1.65,6.67c1.18,4.75-.21,9.78-3.66,13.26l-15.55,15.65Z"/><path class="d" d="m163.45,189.37c-.4,0-.79-.14-1.1-.41l-10-8.58c-4.17-3.58-6.91-8.54-7.71-13.98-.85-5.71,1.72-8.67,6.76-12.15l27.82-17.79c.46-.29,1.03-.35,1.54-.15.51.2.89.64,1.02,1.17l1.65,6.67c1.31,5.29-.26,10.99-4.1,14.86l-15.01,15.11.83,13.44c.04.68-.33,1.32-.94,1.62-.24.12-.5.18-.75.18Zm15.6-48.77l-25.79,16.48c-5.07,3.5-5.8,5.36-5.28,8.83.69,4.63,3.02,8.86,6.57,11.9l6.96,5.97-.63-10.2c-.03-.48.15-.96.49-1.3l15.55-15.65c3.02-3.04,4.25-7.5,3.22-11.65l-1.09-4.38Z"/><path class="f" d="m163.73,192.15l.87,14.2-10-8.58c-3.86-3.31-6.4-7.91-7.14-12.94h0c-.66-4.48,1.84-8.83,6.04-10.5l35.82-14.88,1.05,9.32c.55,4.82-1.79,9.52-5.97,11.99l-20.68,11.4Z"/><path class="d" d="m164.6,208.04c-.4,0-.79-.14-1.1-.41l-10-8.58c-4.17-3.58-6.91-8.54-7.71-13.98-.78-5.28,2.13-10.35,7.09-12.33l35.8-14.87c.49-.2,1.05-.17,1.51.1.46.27.76.74.82,1.27l1.05,9.32c.62,5.48-2.05,10.83-6.79,13.63l-19.79,10.91.81,13.13c.04.68-.33,1.32-.94,1.62-.24.12-.5.18-.75.18Zm23.29-46.16l-33.74,14.02c-3.51,1.4-5.57,4.97-5.02,8.69.68,4.63,3.02,8.86,6.57,11.9l6.96,5.97-.63-10.2c-.04-.65.3-1.27.87-1.59l20.68-11.4c3.55-2.1,5.58-6.16,5.11-10.31l-.8-7.08Z"/><path class="f" d="m164.88,210.83l.87,14.2-10-8.58c-3.86-3.31-6.4-7.91-7.14-12.94h0c-.66-4.48,1.84-8.83,6.04-10.5l32.78-13.47,1.05,9.32c.55,4.82-1.79,9.52-5.97,11.99l-17.64,9.99Z"/><path class="d" d="m165.75,226.72c-.4,0-.79-.14-1.1-.41l-10-8.58c-4.17-3.58-6.91-8.54-7.72-13.98-.78-5.28,2.13-10.35,7.09-12.33l32.77-13.47c.49-.2,1.05-.16,1.51.11.46.27.76.74.82,1.27l1.05,9.32c.62,5.48-2.05,10.83-6.79,13.63l-16.75,9.49.81,13.14c.04.68-.33,1.32-.94,1.62-.24.12-.5.18-.75.18Zm20.26-44.77l-30.71,12.62c-3.51,1.4-5.56,4.97-5.01,8.69.69,4.63,3.02,8.86,6.57,11.9l6.96,5.97-.63-10.2c-.04-.65.29-1.26.86-1.58l17.64-9.99c3.57-2.11,5.59-6.17,5.12-10.32l-.8-7.09Z"/><path class="f" d="m165.97,228.58l-3.24,12.45-5.88-6.82c-3.86-3.31-6.4-7.91-7.14-12.94h0c-.66-4.48,1.84-8.83,6.04-10.5l28.47-11.35,1.05,9.32c.55,4.82-1.79,9.52-5.97,11.99l-13.33,7.87Z"/><path class="d" d="m162.73,242.72c-.49,0-.96-.21-1.28-.59l-5.8-6.73c-4.12-3.57-6.82-8.5-7.62-13.89-.78-5.28,2.14-10.35,7.09-12.33l28.47-11.35c.49-.2,1.04-.15,1.5.12.45.27.75.74.81,1.26l1.05,9.32c.62,5.48-2.05,10.83-6.79,13.63l-12.73,7.52-3.06,11.77c-.16.61-.64,1.08-1.26,1.22-.13.03-.26.04-.38.04Zm20.05-40.92l-26.41,10.53c-3.49,1.39-5.55,4.96-5,8.68.69,4.63,3.02,8.85,6.57,11.9.06.06.12.12.18.18l3.77,4.38,2.43-9.32c.11-.43.39-.8.78-1.03l13.33-7.87c3.6-2.13,5.62-6.18,5.15-10.34l-.8-7.11Z"/><path class="f" d="m164.9,485.83L6.59,437.81c-4.19-1.27-4.34-7.16-.21-8.63l83.59-29.86,111.34,19.36-36.42,67.14Z"/><path class="c" d="m164.9,487.67c-.18,0-.36-.03-.54-.08L6.05,439.57c-2.69-.81-4.47-3.15-4.53-5.96-.07-2.81,1.6-5.23,4.24-6.17l83.59-29.86c.3-.11.62-.14.94-.08l111.34,19.36c.59.1,1.09.48,1.34,1.01.26.53.24,1.16-.04,1.68l-36.42,67.14c-.33.61-.96.97-1.62.97Zm-74.76-86.45l-83.14,29.69c-1.36.48-1.81,1.66-1.79,2.61.02.94.54,2.1,1.92,2.52l156.87,47.58,34.47-63.56-108.33-18.84Z"/><polygon class="f" points="15.11 431.44 14.95 398.72 163.92 435.42 163.28 441.36 192 462.75 164.56 478.57 15.11 431.44"/><path class="c" d="m164.56,480.42c-.19,0-.37-.03-.55-.09L14.56,433.2c-.77-.24-1.29-.95-1.29-1.75l-.16-32.72c0-.57.26-1.11.7-1.46.45-.35,1.03-.48,1.58-.34l148.96,36.7c.9.22,1.49,1.07,1.39,1.99l-.52,4.89,27.87,20.76c.5.37.78.97.74,1.59-.04.62-.38,1.18-.92,1.49l-27.44,15.82c-.28.16-.6.25-.92.25Zm-147.61-50.33l147.39,46.48,24.31-14.01-26.47-19.71c-.52-.39-.8-1.03-.73-1.68l.46-4.34-145.1-35.75.14,29Z"/><path class="f" d="m163.12,447.73l1.43,30.84-1.43-30.84Z"/><path class="c" d="m164.56,480.42c-.98,0-1.8-.77-1.84-1.76l-1.43-30.84c-.05-1.02.74-1.88,1.76-1.93,1.03-.05,1.88.74,1.93,1.76l1.43,30.84c.05,1.02-.74,1.88-1.76,1.93-.03,0-.06,0-.09,0Z"/><path class="f" d="m10.89,393.58l132.96-44.77c2.41-.81,5.02-.83,7.44-.05l111.6,45.25h0c6.57,13.29,5.92,29.01-1.72,41.71l-.4.66-95.87,49.45,2.25-3.86c6.79-11.65,4.52-26.45-5.44-35.53h0L11.06,402.25c-4.27-1.25-4.38-7.25-.17-8.67Z"/><path class="c" d="m164.9,487.67c-.5,0-.98-.2-1.34-.57-.57-.6-.67-1.49-.26-2.2l2.25-3.86c6.24-10.7,4.21-24.49-4.79-32.96L10.54,404.02c-2.73-.8-4.53-3.16-4.59-6.01-.06-2.85,1.65-5.27,4.35-6.18l.59,1.75-.59-1.75,132.96-44.77c2.8-.94,5.78-.97,8.59-.06.04.01.09.03.13.05l111.6,45.25c.42.17.76.49.96.89,6.88,13.92,6.21,30.17-1.8,43.48l-.4.66c-.18.29-.43.53-.74.69l-95.87,49.45c-.27.14-.56.21-.84.21Zm-17.25-137.64c-1.08,0-2.16.18-3.21.53L11.47,395.33h0c-1.38.47-1.86,1.65-1.84,2.61.02.96.54,2.13,1.94,2.54l150.64,44.19c.27.08.52.22.72.41,10.1,9.2,12.76,24.18,6.65,36.26l89.86-46.35.12-.21c7.23-12.02,7.95-26.67,1.96-39.31l-110.87-44.96c-.99-.31-2-.47-3.02-.47Z"/><path class="c" d="m93.07,317.48l-23.2,4.59c-5.06,1-7.35,6.94-4.27,11.08l71.99,96.81c1.5,2.02,3.98,3.08,6.48,2.78l144.62-17.5h0c4.7,4.22,11.8,4.29,16.58.16l3.4-2.94,102.38-20.82-102.16-100.96-215.82,26.8Z"/><path class="f" d="m296.74,408.27l112.16-23.03-114.38-114.12-73.03,15.25c-11.18,2.33-21.31,8.21-28.88,16.76h0l104.13,105.13Z"/><path class="d" d="m296.74,410.12c-.49,0-.96-.19-1.31-.55l-104.13-105.13c-.68-.69-.71-1.8-.07-2.52,7.78-8.78,18.4-14.94,29.88-17.34l73.03-15.25c.61-.13,1.24.06,1.68.5l114.38,114.12c.48.48.66,1.18.46,1.84-.2.65-.73,1.14-1.4,1.28l-112.16,23.03c-.12.03-.25.04-.37.04Zm-101.58-107.03l102.19,103.17,107.82-22.14-111.24-110.99-72.05,15.05c-10.15,2.12-19.57,7.39-26.71,14.9Z"/><path class="f" d="m296.74,408.27l1.81-3.6c5.17-10.26,14.4-17.9,25.46-21.05l71.6-10.85,13.28,12.47-112.16,23.03Z"/><path class="d" d="m296.74,410.12c-.57,0-1.11-.26-1.47-.72-.43-.56-.5-1.32-.18-1.95l1.81-3.6c5.39-10.69,15.08-18.71,26.6-21.99.08-.02.15-.04.23-.05l71.6-10.85c.56-.08,1.13.09,1.54.48l13.28,12.47c.5.47.7,1.18.51,1.85-.19.66-.73,1.17-1.41,1.31l-112.16,23.03c-.12.03-.25.04-.37.04Zm27.67-24.69c-10.48,3.02-19.3,10.33-24.2,20.07l-.1.2,104.93-21.54-10.03-9.42-70.6,10.7Z"/><path class="f" d="m296.74,408.27l-100.7-100.33c-8.2-8.17-19.66-12.17-31.16-10.88l-90.5,10.18,73.7,90.95,148.65,10.07Z"/><path class="d" d="m296.74,410.12s-.08,0-.13,0l-148.65-10.07c-.51-.03-.99-.28-1.31-.68l-73.71-90.95c-.42-.52-.53-1.24-.27-1.86.26-.62.83-1.06,1.5-1.13l90.5-10.18c12.12-1.36,24.03,2.79,32.67,11.4l100.7,100.33c.55.54.7,1.37.38,2.07-.3.66-.96,1.08-1.68,1.08Zm-147.73-13.71l142.93,9.69-97.2-96.85c-7.84-7.82-18.65-11.59-29.66-10.35l-87.15,9.8,71.08,87.71Z"/><path class="f" d="m296.74,408.27l-151.02,13.57,2.36-23.65,84.97-7.2c20.42-1.73,40.85,3.15,58.28,13.93l5.4,3.34Z"/><path class="d" d="m145.73,423.69c-.49,0-.96-.2-1.31-.55-.39-.39-.58-.93-.53-1.48l2.36-23.65c.09-.88.79-1.58,1.68-1.66l84.97-7.2c20.67-1.75,41.77,3.29,59.41,14.2l5.4,3.34c.68.42,1.01,1.22.83,1.99-.18.77-.84,1.34-1.63,1.41l-151.02,13.57c-.05,0-.11,0-.16,0Zm4.05-23.78l-1.99,19.9,143.28-12.88-.69-.43c-16.97-10.5-37.27-15.35-57.15-13.66l-83.44,7.07Z"/><polygon class="f" points="148.09 398.2 74.38 307.25 72.34 327.75 145.73 421.85 148.09 398.2"/><path class="d" d="m145.73,423.69c-.56,0-1.1-.25-1.46-.71l-73.39-94.1c-.29-.37-.43-.85-.38-1.32l2.05-20.49c.07-.74.59-1.37,1.31-1.59.71-.21,1.49.02,1.96.61l73.71,90.95c.31.38.45.86.4,1.35l-2.36,23.65c-.08.75-.6,1.38-1.32,1.59-.17.05-.34.07-.51.07Zm-71.48-96.5l70.1,89.89,1.83-18.31-70.4-86.87-1.53,15.29Z"/></svg>