<?xml version="1.0" encoding="UTF-8"?>
<svg id="Layer_1" data-name="Layer 1" xmlns="http://www.w3.org/2000/svg" width="1100" height="1100" viewBox="0 0 1100 1100">
  <defs>
    <style>
      .cls-1 {
        fill: #f3ae00;
      }

      .cls-2 {
        fill: #fff;
      }

      .cls-3 {
        fill: #ffda83;
      }

      .cls-4 {
        fill: #ffca47;
      }

      .cls-5 {
        fill: #ecfaf8;
      }

      .cls-6 {
        fill: #e4e4e4;
      }

      .cls-7 {
        fill: #b0cde6;
      }

      .cls-8 {
        fill: #b1b1b1;
      }

      .cls-9 {
        fill: #d7e5f1;
      }

      .cls-10 {
        fill: #225835;
      }

      .cls-11 {
        fill: #3f86c3;
      }

      .cls-12 {
        fill: #6dc48b;
      }

      .cls-13 {
        fill: #45ad69;
      }

      .cls-14 {
        fill: #2b6e43;
      }

      .cls-15 {
        fill: #2f6692;
      }

      .cls-16 {
        fill: #399159;
      }

      .cls-17 {
        fill: #523b00;
      }

      .cls-18 {
        fill: #4e795d;
      }
    </style>
  </defs>
  <circle class="cls-5" cx="549.936" cy="550" r="465.5"/>
  <path class="cls-9" d="M1015.564,550c0-23.477-1.746-46.545-5.1-69.088-40.352-17.648-90.267-28.63-139.772-23.412-29.67,3.128-28.754,8.865-77,20-64.616,14.913-154.069,35.558-236,9-98.31-31.868-128.27-113.054-175-95-20.573,7.948-19.78,25.621-72,64-32.768,24.083-46.633,27.085-58,26-26.404-2.52-35.389-26.72-52-35-19.321-9.63-53.128,.218-113.666,55.358-1.626,15.826-2.462,31.886-2.462,48.142,0,257.089,208.411,465.5,465.5,465.5s465.5-208.411,465.5-465.5Z"/>
  <path class="cls-12" d="M988.142,706.098c-118.062-87.509-369.97-257.253-640.745-164.598-29.284,10.021-155.59,56.238-235.667,150.894,62.536,183.287,236.207,315.106,440.667,315.106,199.327,0,369.387-125.285,435.745-301.402Z"/>
  <path class="cls-13" d="M549.466,1015.5c257.089,0,465.5-208.411,465.5-465.5,0-17.4-.963-34.575-2.823-51.479-12.138,1.566-24.07,3.873-35.677,6.979-57.848,15.483-62.315,38.523-132,74-146.198,74.431-296.915,59.76-428,47-178.532-17.378-244.79-61.052-331.56-46.678,15.376,243.192,217.489,435.678,464.56,435.678Z"/>
  <path class="cls-16" d="M370.518,799.5c-34.256-29.895-26.501-68.483-75-97-49.486-29.097-123.91-27.904-186.915-3.677,62.078,184.105,236.156,316.677,441.2,316.677,242.346,0,441.429-185.196,463.466-421.784-172.467,28.75-519.468,313.371-642.75,205.784Z"/>
  <path class="cls-11" d="M796.246,944.771c-.264-1.737-.503-3.488-.682-5.271-2.855-28.381,8.213-33.862,2-51-27.77-76.603-272.213-31.441-287-84-10.035-35.667,99.931-68.249,96-126-.988-14.512-8.708-28.617-21.311-41.613-58.44,.351-115.252-5.176-168.788-10.387-67.123-6.534-118.373-16.784-160.812-26.27-23.893,12.14-38.546,25.465-37.089,35.27,4.991,33.584,198.135,20.698,203,58,2.978,22.831-68.854,31.67-113,98-29.355,44.106-36.54,98.712-31,130,.455,2.567,1.037,5.1,1.719,7.606,76.18,54.39,169.443,86.394,270.182,86.394,90.646,0,175.239-25.913,246.781-70.729Z"/>
  <path class="cls-15" d="M648.564,944.461c-27.77-102.563-272.213-42.096-287-112.467-10.035-47.754,99.931-91.378,96-168.7-.583-11.478-3.533-22.763-8.434-33.667-11.01-1.022-21.906-2.08-32.664-3.128-67.123-6.534-118.373-16.784-160.812-26.27-23.893,12.14-38.546,25.465-37.089,35.27,4.991,33.584,198.135,20.698,203,58,2.978,22.831-68.854,31.67-113,98-29.355,44.106-36.54,98.712-31,130,.455,2.567,1.037,5.1,1.719,7.606,76.18,54.39,169.443,86.394,270.182,86.394,33.161,0,65.507-3.482,96.705-10.075-1.033-31.736,8.185-39.576,2.394-60.964Z"/>
  <path class="cls-7" d="M944.954,588.977l33.415-43.813-32.037-4.122c-.215-6.808-.603-13.581-1.164-20.315-14.474-173.82-142.887-321.29-318.384-355.804l52.438,39.993-45.582,19.037c137.54,34.729,237.884,151.34,254.384,289.421,.807,6.75,1.404,13.552,1.805,20.397l-34.575-4.449,31.373,75.119,16.465,39.423,41.862-54.887Z"/>
  <path class="cls-7" d="M202.276,425.135l17.998,43.093c35.332-136.414,151.365-235.812,288.653-252.329,6.75-.812,13.553-1.412,20.399-1.818l-4.319,33.568,73.384-30.649,41.158-17.19-53.429-40.75-45.271-34.527-4.251,33.035c-6.808,.219-13.582,.612-20.316,1.177-174.795,14.675-322.888,144.574-356.171,321.675l42.166-55.287Z"/>
  <path class="cls-2" d="M496.564,282.637c0-18.606-20.568-33.689-45.939-33.689-7.526,0-14.622,1.336-20.892,3.688-14.506-11.753-35.472-19.137-58.791-19.137-33.961,0-62.93,15.662-74.22,37.673-5.297-2.266-11.127-3.523-17.252-3.523-24.249,0-43.907,19.658-43.907,43.907s19.658,43.907,43.907,43.907c2.154,0,4.27-.162,6.341-.462,7.988,9.941,22.726,16.615,39.599,16.615,16.165,0,30.37-6.128,38.558-15.384,10.902,8.53,26.38,13.866,43.564,13.866,33.006,0,59.762-19.658,59.762-43.907,0-4.017-.748-7.903-2.124-11.599,18.24-4.463,31.395-17.078,31.395-31.955Z"/>
  <path class="cls-7" d="M563.118,950.502c6.808-.219,13.582-.612,20.316-1.177,174.221-14.627,321.919-143.719,355.844-319.927l-41.292,54.14-18.436-44.142c-35.195,136.643-151.326,236.242-288.763,252.777-6.75,.812-13.553,1.412-20.399,1.818l4.645-36.096-77.959,32.559-36.583,15.279,57.211,43.634,41.489,31.643,3.926-30.507Z"/>
  <path class="cls-8" d="M976.986,352.434c7.033-8.059,11.136-17.686,11.136-28.037,0-28.318-30.609-51.275-68.367-51.275-9.339,0-18.238,1.409-26.347,3.951-4.813-29.802-28.548-52.444-57.124-52.444-26.503,0-48.841,19.478-55.784,46.078-10.562-6.975-23.559-11.1-37.624-11.1-35.343,0-63.995,25.982-63.995,58.032,0,27.264,20.738,50.125,48.686,56.349-.119,1.211-.193,2.433-.193,3.671,0,23.489,21.889,42.531,48.89,42.531,11.764,0,22.555-3.617,30.991-9.638,14.307,6.096,31.371,9.638,49.698,9.638,8.76,0,17.231-.81,25.251-2.32,12.468,10.16,31.247,16.63,52.258,16.63,37.538,0,67.969-20.643,67.969-46.108,0-14.544-9.937-27.507-25.445-35.958Z"/>
  <path class="cls-6" d="M793.753,250.863c-7.244,0-14.25,.654-20.885,1.874-10.032-23.087-33.027-39.237-59.804-39.237-31.143,0-57.168,21.845-63.631,51.044-26.732,4.49-46.869,24.24-46.869,47.929,0,27.001,26.16,48.89,58.43,48.89,18.188,0,34.434-6.955,45.15-17.858,2.274,.24,4.582,.369,6.92,.369,10.972,0,21.304-2.723,30.377-7.512,13.395,7.64,31.011,12.281,50.312,12.281,41.929,0,75.919-21.889,75.919-48.89s-33.99-48.89-75.919-48.89Z"/>
  <path class="cls-7" d="M420.82,900.627l41.702-17.417c-135.537-35.779-234.219-151.318-250.771-287.974-.818-6.75-1.42-13.555-1.832-20.401l35.09,4.515-31.847-76.252-15.992-38.29-42.534,55.769-32.743,42.931,31.505,4.054c.224,6.809,.621,13.583,1.191,20.318,14.828,175.185,145.395,323.496,323.192,356.191l-56.963-43.445Z"/>
  <g>
    <polygon class="cls-4" points="268.314 313.412 280.675 274.643 284.705 315.135 304.856 279.783 300.379 320.228 327.439 289.838 314.651 328.468 347.439 304.369 326.899 339.496 363.981 322.74 336.586 352.829 376.341 344.149 343.289 367.885 383.98 367.66 346.716 384.005 386.564 392.246 346.716 400.486 383.98 416.831 343.289 416.606 376.341 440.342 336.586 431.662 363.981 461.751 326.899 444.995 347.439 480.123 314.651 456.023 327.439 494.653 300.379 464.263 304.856 504.708 284.705 469.356 280.675 509.848 268.314 471.079 255.954 509.848 251.924 469.356 231.773 504.708 236.25 464.263 209.189 494.653 221.977 456.023 189.19 480.123 209.73 444.995 172.648 461.751 200.043 431.662 160.288 440.342 193.339 416.606 152.648 416.831 189.913 400.486 150.064 392.246 189.913 384.005 152.648 367.66 193.339 367.885 160.288 344.149 200.043 352.829 172.648 322.74 209.73 339.496 189.19 304.369 221.977 328.468 209.189 289.838 236.25 320.228 231.773 279.783 251.924 315.135 255.954 274.643 268.314 313.412"/>
    <polygon class="cls-1" points="268.376 332.226 277.796 302.682 280.866 333.538 296.222 306.599 292.811 337.419 313.432 314.261 303.687 343.699 328.673 325.334 313.02 352.102 341.278 339.334 320.402 362.263 350.698 355.648 325.511 373.736 356.519 373.565 328.122 386.021 358.488 392.3 328.122 398.58 356.519 411.036 325.511 410.864 350.698 428.952 320.402 422.338 341.278 445.267 313.02 432.498 328.673 459.266 303.687 440.902 313.432 470.339 292.811 447.181 296.222 478.002 280.866 451.062 277.796 481.919 268.376 452.375 258.957 481.919 255.886 451.062 240.53 478.002 243.942 447.181 223.32 470.339 233.065 440.902 208.08 459.266 223.732 432.498 195.474 445.267 216.35 422.338 186.055 428.952 211.242 410.864 180.233 411.036 208.631 398.58 178.264 392.3 208.631 386.021 180.233 373.565 211.242 373.736 186.055 355.648 216.35 362.263 195.474 339.334 223.732 352.102 208.08 325.334 233.065 343.699 223.32 314.261 243.942 337.419 240.53 306.599 255.886 333.538 258.957 302.682 268.376 332.226"/>
    <circle class="cls-3" cx="268.314" cy="392.246" r="64.84"/>
  </g>
  <g>
    <ellipse class="cls-14" cx="800.064" cy="827" rx="67.5" ry="14.5"/>
    <g>
      <path class="cls-10" d="M905.108,602.216c0-14.879-13.669-27.404-32.258-31.134,.896-2.573,1.373-5.269,1.373-8.048,0-17.821-19.606-32.267-43.791-32.267-4.509,0-8.859,.503-12.952,1.435,.028-.476,.045-.954,.045-1.435,0-17.821-19.606-32.267-43.791-32.267s-43.791,14.447-43.791,32.267c0,1.133,.08,2.253,.235,3.356-22.351,1.459-39.878,15.289-39.878,32.138,0,5.601,1.938,10.868,5.345,15.459-18.499,3.774-32.08,16.267-32.08,31.099,0,13.47,11.203,25.011,27.118,29.844-.251,1.397-.382,2.821-.382,4.268,0,17.821,19.606,32.267,43.791,32.267,10.003,0,19.221-2.473,26.594-6.633,8.024,7.413,20.384,12.164,34.253,12.164,17.26,0,32.185-7.359,39.319-18.05,22.831-1.101,40.888-15.093,40.888-32.195,0-.547-.019-1.09-.055-1.63,17.437-4.254,30.018-16.362,30.018-30.637Z"/>
      <path class="cls-17" d="M732.248,647.463c32.877,31.798,40.746,66.72,43.331,79.024,9.873,47.007-6.933,84.927-15.212,100.679,9.906,3.053,24.048,6.235,41.198,6.334,19.776,.115,35.815-3.915,46.385-7.474-6.91-6.985-15.897-17.86-23.876-32.666-8.82-16.366-16.211-37.8-15.305-63.074,1.282-35.759,18.551-61.863,27.658-73.705-7.99,4.812-15.98,9.625-23.97,14.437,9.219-17.35,18.438-34.699,27.658-52.049-14.444,14.564-28.887,29.127-43.331,43.691-11.678-23.682-23.355-47.364-35.033-71.045-.154,6.585-.307,13.171-.461,19.756-6.607-3.673-13.214-7.345-19.821-11.018,13.214,20.516,26.736,26.975,29.502,60.028-21.819-9.498-33.497-17.477-55.316-26.975,4.275,3.174,10.206,7.878,16.595,14.057Z"/>
      <path class="cls-18" d="M773.791,551.989c-2.238,0-4.402,.202-6.452,.579-3.099-7.132-10.202-12.121-18.474-12.121-9.62,0-17.66,6.748-19.656,15.768-8.258,1.387-14.478,7.488-14.478,14.806,0,8.341,8.081,15.103,18.05,15.103,5.619,0,10.637-2.148,13.947-5.517,.703,.074,1.415,.114,2.138,.114,3.389,0,6.581-.841,9.384-2.32,4.138,2.36,9.58,3.794,15.542,3.794,12.952,0,23.452-6.762,23.452-15.103s-10.5-15.103-23.452-15.103Z"/>
      <path class="cls-18" d="M850.449,609.963c2.485-3.039,3.936-6.676,3.936-10.587,0-10.651-10.727-19.286-23.96-19.286-12.196,0-22.256,7.336-23.759,16.824-2.174-.629-4.555-.979-7.054-.979-10.218,0-18.502,5.81-18.502,12.976,0,6.755,7.361,12.302,16.763,12.917-.04,.349-.066,.701-.066,1.057,0,7.166,8.283,12.976,18.502,12.976,7.012,0,13.112-2.736,16.25-6.768,3.138,4.032,9.238,6.768,16.25,6.768,10.218,0,18.502-5.81,18.502-12.976,0-6.778-7.412-12.339-16.861-12.922Z"/>
    </g>
  </g>
  <g>
    <path class="cls-11" d="M629.219,412.315c-1.049,3.076-2.418,6.356-3.693,9.347-.846,1.791-1.988,4.272-2.614,6.133-1.42,3.349-4.433,5.511-7.968,6.581,0,0-.588-.38-.588-.38-.412-2.646,.021-4.918,.924-7.226,.781-2.137,2.731-3.472,4.156-5.135,0,0,2.181-2.501,2.181-2.501,2.209-2.389,4.633-4.977,7.013-7.198,0,0,.588,.38,.588,.38h0Z"/>
    <path class="cls-11" d="M638.302,435.673c-1.049,3.076-2.418,6.356-3.693,9.347-.846,1.791-1.988,4.272-2.614,6.133-1.42,3.349-4.433,5.511-7.968,6.581,0,0-.588-.381-.588-.381-.412-2.646,.021-4.918,.924-7.226,.781-2.137,2.731-3.472,4.156-5.135,0,0,2.181-2.501,2.181-2.501,2.209-2.389,4.633-4.977,7.013-7.198,0,0,.588,.38,.588,.38h0Z"/>
    <path class="cls-11" d="M666.851,426.589c-1.049,3.076-2.418,6.356-3.693,9.347-.846,1.791-1.988,4.272-2.614,6.133-1.42,3.349-4.433,5.511-7.968,6.581,0,0-.588-.38-.588-.38-.412-2.646,.021-4.918,.924-7.226,.781-2.137,2.731-3.472,4.156-5.135,0,0,2.181-2.501,2.181-2.501,2.209-2.389,4.633-4.977,7.013-7.198,0,0,.588,.38,.588,.38h0Z"/>
    <path class="cls-11" d="M664.256,395.445c-1.049,3.076-2.418,6.356-3.693,9.347-.846,1.791-1.988,4.272-2.614,6.133-1.42,3.349-4.433,5.511-7.968,6.581,0,0-.588-.38-.588-.38-.412-2.646,.021-4.918,.924-7.226,.781-2.137,2.731-3.472,4.156-5.135,0,0,2.181-2.501,2.181-2.501,2.209-2.389,4.633-4.977,7.013-7.198,0,0,.588,.38,.588,.38h0Z"/>
    <path class="cls-11" d="M653.875,374.682c-1.049,3.076-2.418,6.356-3.693,9.347-.846,1.791-1.988,4.272-2.614,6.133-1.42,3.349-4.433,5.511-7.968,6.581,0,0-.588-.38-.588-.38-.412-2.646,.021-4.918,.924-7.226,.781-2.137,2.731-3.472,4.156-5.135,0,0,2.181-2.501,2.181-2.501,2.209-2.389,4.633-4.977,7.013-7.198,0,0,.588,.38,.588,.38h0Z"/>
    <path class="cls-11" d="M688.912,392.85c-1.049,3.076-2.418,6.356-3.693,9.347-.846,1.791-1.988,4.272-2.614,6.133-1.42,3.349-4.433,5.511-7.968,6.581,0,0-.588-.38-.588-.38-.412-2.646,.021-4.918,.924-7.226,.781-2.137,2.731-3.472,4.156-5.135,0,0,2.181-2.501,2.181-2.501,2.209-2.389,4.633-4.977,7.013-7.198,0,0,.588,.38,.588,.38h0Z"/>
    <path class="cls-11" d="M704.484,420.101c-1.049,3.076-2.418,6.356-3.693,9.347-.846,1.791-1.988,4.272-2.614,6.133-1.42,3.349-4.433,5.511-7.968,6.581,0,0-.588-.38-.588-.38-.412-2.646,.021-4.918,.924-7.226,.781-2.137,2.731-3.472,4.156-5.135,0,0,2.181-2.501,2.181-2.501,2.209-2.389,4.633-4.977,7.013-7.198,0,0,.588,.38,.588,.38h0Z"/>
    <path class="cls-11" d="M713.568,443.459c-1.049,3.076-2.418,6.356-3.693,9.347-.846,1.791-1.988,4.272-2.614,6.133-1.42,3.349-4.433,5.511-7.968,6.581,0,0-.588-.38-.588-.38-.412-2.646,.021-4.918,.924-7.226,.781-2.137,2.731-3.472,4.156-5.135,0,0,2.181-2.501,2.181-2.501,2.209-2.389,4.633-4.977,7.013-7.198,0,0,.588,.38,.588,.38h0Z"/>
    <path class="cls-11" d="M742.117,434.375c-1.049,3.076-2.418,6.356-3.693,9.347-.846,1.791-1.988,4.272-2.614,6.133-1.42,3.349-4.433,5.511-7.968,6.581,0,0-.588-.38-.588-.38-.412-2.646,.021-4.918,.924-7.226,.781-2.137,2.731-3.472,4.156-5.135,0,0,2.181-2.501,2.181-2.501,2.209-2.389,4.633-4.977,7.013-7.198,0,0,.588,.38,.588,.38h0Z"/>
    <path class="cls-11" d="M739.522,403.231c-1.049,3.076-2.418,6.356-3.693,9.347-.846,1.791-1.988,4.272-2.614,6.133-1.42,3.349-4.433,5.511-7.968,6.581,0,0-.588-.38-.588-.38-.412-2.646,.021-4.918,.924-7.226,.781-2.137,2.731-3.473,4.156-5.135,0,0,2.181-2.501,2.181-2.501,2.209-2.389,4.633-4.977,7.013-7.198,0,0,.588,.38,.588,.38h0Z"/>
    <path class="cls-11" d="M729.14,382.468c-1.049,3.076-2.418,6.356-3.693,9.347-.846,1.791-1.988,4.272-2.614,6.133-1.42,3.349-4.433,5.511-7.968,6.581,0,0-.588-.381-.588-.381-.412-2.646,.021-4.918,.924-7.226,.781-2.137,2.731-3.472,4.156-5.135,0,0,2.181-2.501,2.181-2.501,2.209-2.389,4.633-4.977,7.013-7.198,0,0,.588,.38,.588,.38h0Z"/>
    <path class="cls-11" d="M764.178,400.636c-1.049,3.076-2.419,6.356-3.693,9.347-.846,1.791-1.988,4.272-2.614,6.133-1.42,3.349-4.433,5.511-7.968,6.581,0,0-.588-.381-.588-.381-.412-2.646,.021-4.918,.924-7.226,.781-2.137,2.731-3.472,4.156-5.135,0,0,2.181-2.501,2.181-2.501,2.209-2.389,4.633-4.977,7.013-7.198,0,0,.588,.38,.588,.38h0Z"/>
    <path class="cls-11" d="M779.75,427.887c-1.049,3.076-2.418,6.356-3.693,9.347-.846,1.791-1.988,4.272-2.614,6.133-1.42,3.349-4.433,5.511-7.968,6.581,0,0-.588-.38-.588-.38-.412-2.646,.021-4.918,.924-7.226,.781-2.137,2.731-3.473,4.156-5.135,0,0,2.181-2.501,2.181-2.501,2.209-2.389,4.633-4.977,7.013-7.198,0,0,.588,.38,.588,.38h0Z"/>
    <path class="cls-11" d="M788.834,451.245c-1.049,3.076-2.418,6.356-3.693,9.347-.846,1.791-1.988,4.272-2.614,6.133-1.42,3.349-4.433,5.511-7.968,6.581,0,0-.588-.38-.588-.38-.412-2.646,.021-4.918,.924-7.226,.781-2.137,2.731-3.472,4.156-5.135,0,0,2.181-2.501,2.181-2.501,2.209-2.389,4.633-4.977,7.013-7.198,0,0,.588,.38,.588,.38h0Z"/>
    <path class="cls-11" d="M817.383,442.162c-1.049,3.076-2.418,6.356-3.693,9.347-.846,1.791-1.988,4.272-2.614,6.133-1.42,3.349-4.433,5.511-7.968,6.581,0,0-.588-.381-.588-.381-.412-2.646,.021-4.918,.924-7.226,.781-2.137,2.731-3.472,4.156-5.135,0,0,2.181-2.501,2.181-2.501,2.209-2.389,4.633-4.977,7.013-7.198,0,0,.588,.38,.588,.38h0Z"/>
    <path class="cls-11" d="M814.787,411.017c-1.049,3.076-2.419,6.356-3.693,9.347-.846,1.791-1.988,4.272-2.614,6.133-1.42,3.349-4.433,5.511-7.968,6.581,0,0-.588-.381-.588-.381-.412-2.646,.021-4.918,.924-7.226,.781-2.137,2.731-3.472,4.156-5.135,0,0,2.181-2.501,2.181-2.501,2.209-2.389,4.633-4.977,7.013-7.198,0,0,.588,.38,.588,.38h0Z"/>
    <path class="cls-11" d="M804.406,390.254c-1.049,3.076-2.419,6.356-3.693,9.347-.846,1.791-1.988,4.272-2.614,6.133-1.42,3.349-4.433,5.511-7.968,6.581,0,0-.588-.38-.588-.38-.412-2.646,.021-4.918,.924-7.226,.781-2.137,2.731-3.472,4.156-5.135,0,0,2.181-2.501,2.181-2.501,2.209-2.389,4.633-4.977,7.013-7.198,0,0,.588,.38,.588,.38h0Z"/>
    <path class="cls-11" d="M839.443,408.422c-1.049,3.076-2.418,6.356-3.693,9.347-.846,1.791-1.988,4.272-2.614,6.133-1.42,3.349-4.433,5.511-7.968,6.581,0,0-.588-.38-.588-.38-.412-2.646,.021-4.918,.924-7.226,.781-2.137,2.731-3.472,4.156-5.135,0,0,2.181-2.501,2.181-2.501,2.209-2.389,4.633-4.977,7.013-7.198,0,0,.588,.38,.588,.38h0Z"/>
  </g>
</svg>