<svg id="Layer_1" data-name="Layer 1" xmlns="http://www.w3.org/2000/svg" viewBox="0 0 500 500"><path d="M277.83,420.738c1.057,8.492-.776,16.914-.636,25.4-.118,7.343-1.639,14.579-2.292,21.864.507,5.672-3.272,10.228-8.481,12.05a88.088,88.088,0,0,1-12.142,1.1,35.937,35.937,0,0,1-6.325-.836c-1.483-.242-3.143-1.337-4.556-.582-2.265,1.5-5.494,1.251-8.023,1.084-2.771-.254-5.726.609-8.368-.48-1.806-.307-3.721-.092-5.457-.776-2.119-.658-4.362-.259-5.246-2.766-1.769-4.163-1.321-8.87-.857-13.528-1.85-7.635-.636-15.6-.733-23.374,0-3.791-.119-7.592.113-11.377a97.508,97.508,0,0,1-.89-13.151c.21-2.3-.129-5.063,1.456-6.9.043-.086.092-.167.146-.253a.879.879,0,0,1,.593-1.575,8.8,8.8,0,0,1,1.72-.447,5.436,5.436,0,0,1,4.664-.183.29.29,0,0,1,.075.027,22.376,22.376,0,0,0,3.294-.114c5.1-.474,10.218-1.3,15.34-1.353,5.564-.658,11.35-1.752,16.92-1.1,5.478.377,11.145.388,16.4,2.1a3.06,3.06,0,0,1,1.7,2C278.337,411.583,277.35,416.5,277.83,420.738Z" style="fill:#fff"/><path d="M313.961,470.542c.129,2.411,1.44,6.384-1.763,7.193l-.049.016c-2.41.965-5.1.324-7.64.41a61.384,61.384,0,0,1-6.217.086,38.881,38.881,0,0,0-7.252.313,2.9,2.9,0,0,1-2.27-.544c-1.58-1.483-1.509-3.947-2.022-5.91a50.643,50.643,0,0,1-1.056-5.122c-.507-3.715-.124-7.419-.222-11.15a10.407,10.407,0,0,1,1.931-7.08c.6-3.138,6.535-1.434,8.9-1.855,4.917-.1,9.9-.393,14.784.275a1.726,1.726,0,0,1,1.677,1.31C314.894,455.58,313.788,463.258,313.961,470.542Z" style="fill:#fff"/><path d="M491.908,279.72a81.123,81.123,0,0,1-.987,13.334c-.431,2.874-1.537,5.608-1.92,8.482a.109.109,0,0,0,.038-.011.932.932,0,0,1,.955.566c1.73,4.394,1.9,11.689-3.974,12.7a9.186,9.186,0,0,1-3.85-.1,31.21,31.21,0,0,0-8.077.431c-8.174,1.375-16.2-.038-24.366.3-3.677.048-7.209,1.235-10.837,1.472-1.931-.1-4.033-.464-5.9.1,2.831,9.311,6.767,18.359,9.08,27.773,1.261,4.567,3.337,8.816,5.1,13.2,2.307,6.422,4.162,13.027,7.386,19.034,3.624,7.2,6.843,14.433,9.738,21.912a34.7,34.7,0,0,1,1.882,5.44.007.007,0,0,0,0,.011c.776,1.666,1.531,3.084,2.254,3.569.48.567,1.337.173,1.984.324,1.472.156,2.2,1.5,2.609,2.771.594,2.367,3.02,3.893,3.214,6.287a9.406,9.406,0,0,1-3.316,5.883c-.6.863-1.38,2.27-2.421,2.717.615,1.407,1.267,2.8,1.871,4.206.469,1.332,1.208,2.626,1.671,3.968,1.666.7,2.81,4.745,3.8,5.8,1.315,3.122,3.618,5.683,4.329,9.02a6.4,6.4,0,0,1,1.467,4.265c-.011,3.376-3.764,4.67-6.4,5.683a34.33,34.33,0,0,0-5.818,3.4c-7.371,4.744-15.345,9.656-24.4,9.247a15.973,15.973,0,0,1-6.1-1.3,4.5,4.5,0,0,1-3.343-2.728c-.927-3.079-.793-6.627,1.607-8.94a13.892,13.892,0,0,1,6.977-4.34,20.953,20.953,0,0,0,5.969-4.6,99.389,99.389,0,0,0,6.335-10.978c-1.035-1.876-.771-4.4-2.459-5.958-3.095-1.024-6.028,1.618-9.117.41-3.165-1.434-8.3-9.527-6.109-12.8,1.192-1.628,2.432-1.628,3.914-.776-.97-2.4-1.774-4.9-2.825-7.247q-5.225-11.185-10.288-22.446c-6.017-11.981-10.675-24.565-16.035-36.848-3.354-8.082-8.244-15.41-10.789-23.805a19.65,19.65,0,0,1-.615-2.356c-1.369-2.518-2.717-5.074-4.022-7.613-.34,6.766-1.5,13.528-2.194,20.219-.362,8.638-1.99,17.13-2.734,25.724-.814,10.25-1.3,20.5-2.34,30.734-1.267,9.71-1.963,19.5-2.583,29.272-.156,1.159.011,4.567-.415,6.918a.689.689,0,0,1,.388.28c1.17.248,2.432,1.386,2.044,2.685.733,1.176.426,2.885.291,4.109-.378,1.66-.372,3.434-.852,5.063-.377,3.941-4.788,5.176-8.007,6.195-.35,2.712-.566,5.451-1.073,8.12a1.325,1.325,0,0,1,.507.356c.809,2.243.28,6.114.679,8.541.345,3.316,1.974,6.033.949,9.43-.62,4.335-5.747,4.809-9.252,4.826-7.187.339-14.224,2.4-21.492,1.924-4.33-.28-8.39-2.647-12.083-4.62a5.934,5.934,0,0,1-2.728-2.588,2,2,0,0,1-2.033.9c-1.343.119-2.658.6-3.979-.027a8.738,8.738,0,0,1-3.5-.383.722.722,0,0,1-.194-.07l-.307-.016c-.9-.054-2.006-.291-2.319-1.245a3.564,3.564,0,0,1-.679-2.076,80.681,80.681,0,0,0-.658-9.878c-.151-2.621-1.553-10.525-.07-13.55a.815.815,0,0,1-.291-.647.886.886,0,0,1,1.035-.868c4.934-1.58,14.067-2.6,17.982,1.418.787,2.7-.313,5.672.032,8.465.178,2.351.135,4.761.34,7.085-.006-.021-.006-.043-.011-.065a7.767,7.767,0,0,1,.038,1.445,2.351,2.351,0,0,1-.043,1.4,3.757,3.757,0,0,0,1.067-.5c6.654-3.008,15.06-3.8,19.761-9.915.211-.712.62-1,1.041-1.014.3-2.264.226-4.583.852-6.767a33.3,33.3,0,0,1-7.813-2.8,4.252,4.252,0,0,1-2.647-3.79c.221-2.572-.847-5.091-.308-7.668.313-2.124.992-4.017,3.467-3.817.059-2.594.329-5.2.313-7.77.178-7.85.28-15.6.652-23.384-.027-10.293.178-20.527.653-30.787a257.028,257.028,0,0,1,.415-28.965c.14-4.249-.685-8.466-.582-12.687.776-4.821.755-9.317,1.331-14.024a3.829,3.829,0,0,0,.114-.788,118.261,118.261,0,0,1-13.081.981,1.3,1.3,0,0,1-.706-.312c-13.7,1.067-27.472,1.731-41.2,1.758-6.173-.189-12.352-.146-18.526.086-2.987.517-5.953,1.17-8.967,1.628-12.778,1.618-25.692,1.731-38.47,3.251-6.109.691-12.24,1.4-18.4,1.521-1.073-.043-3.02.469-3.71-.378-.162.011-.323.027-.485.038-.2.847-1.1.5-1.65.34a6.548,6.548,0,0,0-2.426.086s.005.006.01.006c-2.367-.006-4.717.479-7.09.436-1-.021-2.658.119-3.138-.695-3.289.366-6.572.776-9.851,1.175-4.044.308-8.228.6-12.255.6-1.019-.016-2.033-.081-3.041-.124a2.294,2.294,0,0,1-.809.324c-.275.037-.545.075-.82.118-1.207.518-3.1.491-4.06,1.089a8.2,8.2,0,0,1-3.472.291c1.963,4.114,3.435,12.256,3.5,13.6,2.022,7.419,3.359,14.957,5.586,22.219-.017-.064-.033-.124-.049-.188s-.027-.108-.038-.162c1.5,5.564,1.8,11.312,3.273,16.876.647,2.459,1.337,4.9,1.952,7.366a2.113,2.113,0,0,1-.566,2.469c3.143,15.55,6.961,31.219,10.406,46.666.809,4.061,2.755,8.007,2.809,12.17,1.143,3.914,2.238,8.039,3.187,11.953.534,3.128,3.855,10.779-1.661,10.665-4.621-.377-4.421-4.124-4.443-7.742-.172-4.368-1.909-8.508-2.755-12.736,0-.011,0-.027,0-.037a.092.092,0,0,1-.011-.038c-3.09-11.916-6.352-23.789-8.74-35.872-.572-7.155-2.686-14-4.319-20.969-.405-1.558-.777-3.057-1.149-4.561-2.647-7.231-3.526-14.871-5.181-22.35-1.715-6.869-3.251-13.776-4.276-20.785-.259-2.868-1.574-5.915-.825-8.746.065-.916-1.267-6.259-1.364-9.376-9.322,1.413-18.645,2.879-27.994,4.184-.227,1.2-.7,2.426-.809,3.5-1.526,7.371-3.688,14.585-5.721,21.831-.474,1.526-.938,3.052-1.4,4.578a.954.954,0,0,1,.232.728c-.216.879-.345,1.709-.523,2.566-2.329,7.468-2.739,15.61-5.284,22.98-.841,2.745-1.8,5.462-2.831,8.142-1.067,4.362-2.059,8.746-3.008,13.135.808.231,1.137,1.466,1.283,2.3a1.3,1.3,0,0,1,.9,1c1.586,6.362,3.112,12.708,4.087,19.195,1.71,5.882,4.082,11.554,5.328,17.577.226,2.135,1.418,4.168.738,6.071,1.823,5.705,4.47,11.959,2.637,17.9-.642,1.553-2.362,3.386-4.152,2.4a2.026,2.026,0,0,1-.415-.292c-1.72.61-2.232-1.353-2.5-2.631-1.682-5.688-2.717-11.722-3.995-17.475-1.65-5.974-3.2-11.932-4.4-17.987-.464-1.833-2.89-9.376-2.664-13.016-1.1,5.279-2.2,10.552-3.38,15.809-2.906,10.6-5.521,21.276-8.384,31.887-2.2,8.147-1.812,17.163-5.824,24.743a7.33,7.33,0,0,1-2.415,1.726,2.116,2.116,0,0,1-2.68.345c-3.165-3.516.1-10.342.981-14.283.027-.1.06-.2.087-.3-.588-.847-.178-2.259-.017-3.289,1.149-8.039,3.931-15.723,5.834-23.589,1.424-6.535,2.847-13.07,4.783-19.465a2.163,2.163,0,0,1,.043-1.461c.706-2.583,1.5-5.138,2.34-7.678,2.459-8.352,4.324-16.893,6.514-25.331a1.561,1.561,0,0,1-.453,0c-.917-.135-1.327-.927-1.564-1.72a67.336,67.336,0,0,1-1.5-7.306c-4.443-15.463-5.629-31.644-8.7-47.378-1.337-.49-1.117-2.119-1.294-3.262-.259-2.766-.54-5.537-.912-8.3-6.335.431-12.676.712-19.022.723-1.073-.221-4.157.145-5.219-.75-3.85.4-7.7.723-11.566.911a16.424,16.424,0,0,0-1.035,2.535c-1.715,5.138-3.542,10.239-5.235,15.377-3.807,11.544-6.859,23.314-10.628,34.858-1.93,6.185-3.38,12.509-5.257,18.71.119,1.58-1.213,3.812-1.337,5.171-1.219,4.842-2.691,9.6-4.34,14.315-4.319,12.363-6.907,25.288-11.6,37.533a58.06,58.06,0,0,0-4.065,13.193c-1.057,4.3-2.227,12.536-7.263,13.674-3.715-.383-3.278-5.9-2.259-8.471,1.24-4.361,2.324-8.767,3.5-13.15,4.589-17.135,10.412-33.877,16-50.694,7.565-21.578,13.674-43.593,20.473-65.414.809-2.313,3.284-10.956,5.683-15.221.194-.739.431-1.472.62-2.216-1.995.021-4,0-6.006-.07-1.494-.329-3.424-.237-4.654-1.2a1.42,1.42,0,0,1-1.9-.442c-1.364-1.86-1.04-4.329-1.213-6.513-1.747-4.508-.091-10.034.011-14.795-.248-12.784.938-25.584-.124-38.358-.518-10-1.116-20-.523-30.011a1.172,1.172,0,0,1,.291-.717c-.113-3.1-.172-6.184-.3-9.214-.076-10.213-1.2-20.22-1.4-30.416-.145-3.477-.345-6.955-.517-10.438a77.4,77.4,0,0,1-1.526-21.158c.323-5.543.841-11.091.722-16.655.264-7.419-.34-14.434-.474-21.789.188-13.258-.712-26.56-.62-39.8.663-15.037-.292-30.059-.243-45.1.022-.631.032-1.3.022-1.985a.138.138,0,0,0,0-.064c-.038-1.073-.076-2.146-.1-3.214-.275-5.85-.933-12.773.1-18.542-.96-.82-.253-2.529.178-3.559a8.545,8.545,0,0,1,3.181-4.292c.13-.156.27-.307.41-.453.545-.685,1.936-1.925,2.373-.776.291-.065.587-.124.873-.205a5.423,5.423,0,0,1,.879-.124,13.388,13.388,0,0,1,3.715-.83c12.061-1.073,24.107-2.432,36.222-2.772,11.059-.345,22.1-.156,33.122-.55,4.13-.286,8.26-.566,12.4-.733.135,0,.27-.016.4-.027,2.626-.038,14.186-1.364,18.182-.232,11.835-.232,23.664-.765,35.5-.663,2.221-.092,4.443-.151,6.664-.189.183-.6,1.682-.339,3.084-.043,7.4-.065,14.812.081,22.22.21,2.022-.08,4.049-.15,6.071-.177,16.532-.572,33.1.14,49.627-.491,14.029-.75,28.14-1.224,42.137-2.761,10.465-.329,20.893-.609,31.353-.879,6.233-.183,12.466-.383,18.7,0,.043,0,.081,0,.124.011,27.024-1.564,54.086-2.556,81.137-1.65,8.346-.227,16.671-.027,25.028-.006a95.386,95.386,0,0,1,15.4.1l.017-.016a.632.632,0,0,1,.862.1c.707.07,1.462.189,1.806.879a1.5,1.5,0,0,1-1.175,2.173,1.753,1.753,0,0,0-.178-.011c-.34,8.39-.232,16.715-.178,25.126-.56,13.927.324,27.871.847,41.754.544,6.978.652,13.933.614,20.888a1.222,1.222,0,0,1,.432.771c.065.631,1.073,2.146.286,2.508a.44.44,0,0,1-.529-.313c-.075-.237-.14-.48-.21-.717-.043,4.432-.14,8.869-.205,13.318-.054,1.035.006,6.222-.383,10.012-.091,8.589-.291,17.179-.237,25.773.21,10.061.216,20.123.491,30.189-.265,7.225-.561,14.6-.243,21.832a.581.581,0,0,1,.14-.011.893.893,0,0,1,.868.906c-.1,3.343-.194,6.68-.264,10.023.162,5.09.146,10.18.054,15.27a128.229,128.229,0,0,1,.28,20.1c-.14,2.249-.2,4.5-.356,6.746a.738.738,0,0,1-.754.717c-.087,3.828-.13,7.656-.1,11.484.447,6.934.539,13.879.388,20.818a41.427,41.427,0,0,1,.889-4.454.887.887,0,0,1,1.737.27ZM131.075,332.409a5.672,5.672,0,0,0,.443-1.24c-8.778.82-17.562,1.742-26.356,2.453.928,5.025,1.947,10.018,2.637,15.1,1.617,8.713,2.61,17.378,4.529,26.021,1.046,4.313,1.8,8.54,2.416,12.908.053,1.251.738,2.928-.265,3.92.044.852.378,2.733.545,4.669.766-2.7,1.59-5.37,2.5-8.018-1-.641-.685-1.925-.475-2.89.415-2.178.96-4.324,1.461-6.475,2.189-9.684,5.16-19.271,7.436-28.911C126.859,343.915,129.172,338.151,131.075,332.409Zm-13.4,83.978a19.329,19.329,0,0,1-.248-2.443q-.284,1.359-.566,2.723A1.237,1.237,0,0,1,117.677,416.387Zm-1.036,2.955a7.661,7.661,0,0,1-.161-.842q-.324,1.578-.653,3.155a1.13,1.13,0,0,1,.663-.663A6.611,6.611,0,0,1,116.641,419.342Z" style="fill:#fff"/><path d="M350.847,475.458a11.407,11.407,0,0,1-1.137-.237c-1.963-.572-3.926-1.149-5.829-1.9-.431-.194-.852-.394-1.267-.62-.275-.167-.545-.351-.809-.539-.393-.329-.771-.674-1.137-1.041-.157-.167-.313-.345-.47-.523a3.613,3.613,0,0,1,2.772-1.973c2.426-.151,4.712-1.251,6.982-2.011,4.783-3.009,5.6.151,5.98,4.388a5.548,5.548,0,0,0,2.68.027,1.977,1.977,0,0,0,.609-1.369,12.036,12.036,0,0,0-.259-3.634c-.076-.777-.518-1.267-.523-2a.792.792,0,0,1,1.1-.577c.761.459.8,1.683,1.041,2.4a13.81,13.81,0,0,1,.572,2.637c.01-.006.026-.006.037-.011,0,0-.011.011-.016.011a.015.015,0,0,0,0,.01,8.075,8.075,0,0,1,2.679-.884,1.9,1.9,0,0,0,1.737-.485c.037-1.634-1.03-2.5-1.553-3.855a11.38,11.38,0,0,1-.8-2.691,3.108,3.108,0,0,1,1.206-1.478c.3.288.6.576.9.863a23.179,23.179,0,0,0,2,1.785,10.174,10.174,0,0,0,2.858,1.531c.561.194,1.132.367,1.7.55a22.665,22.665,0,0,0,2.211.615l.082.016.161.033-.161-.033c.8.156,1.6.305,2.409.388a17.278,17.278,0,0,0,1.763.1h.2a9.818,9.818,0,0,0,2.8-.355c.734-.224,1.447-.47,2.161-.736.075.229.16.454.238.676.7,2.1.151,4.265.593,6.373a12.01,12.01,0,0,1-.625,3.963c-.081-.027-.162-.059-.243-.086a20.372,20.372,0,0,0-2.243-.636,22.67,22.67,0,0,0-4.745-.539c-1.644-.006-3.283.027-4.917.183-.814.076-1.612.21-2.415.356-1.111.194-2.19.534-3.3.728l.134-.016c-.048,0-.09.016-.139.021l0,0a.019.019,0,0,1-.011,0h-.016a.065.065,0,0,1-.033.006c.006,0,.017,0,.022-.006l-.216.033c-2.065.226-4.124.393-6.206.506-.922.054-1.849-.01-2.771-.021-1.111-.011-2.216.021-3.327.065-.054,0-.113,0-.167,0-.221,0-.437.016-.658.022a1.405,1.405,0,0,1-.145,0c-.135,0-.265,0-.394,0C351.586,475.5,351.219,475.491,350.847,475.458Z" style="fill:#fcb8a3"/><path d="M366.489,457.493l-.183-.156a.712.712,0,0,1,.679.1,4.429,4.429,0,0,1,.787.98C367.336,458.12,366.911,457.814,366.489,457.493Z" style="fill:#fcb8a3"/><path d="M373.552,450.784c-4.265-.351-15.447-.7-16.294-5.969a5.043,5.043,0,0,1-.356-2.523,43.52,43.52,0,0,1-.334-4.481,6.285,6.285,0,0,1,.308-3.073q.563.53,1.134,1.054a3.314,3.314,0,0,0,2.649,2.283,11.439,11.439,0,0,0,2.471,1.5,23.2,23.2,0,0,0,2.739.949,17.434,17.434,0,0,0,4.368.447c.264.006.528.011.792.011,1.078,0,2.162-.048,3.23-.129l-.281.016c1.343-.086,2.669-.21,4-.4a26.961,26.961,0,0,0,3.456-.68c.545-.151,1.084-.323,1.623-.5l.038-.016a.344.344,0,0,0,.038-.011.189.189,0,0,1,.036-.01h0a.019.019,0,0,1,.016,0h0a.109.109,0,0,1,.038-.011c.6-.167,1.2-.339,1.806-.485.55-.129,1.111-.243,1.65-.4a11.726,11.726,0,0,0,2.367-.971,11.384,11.384,0,0,0,2.486-1.822,28.65,28.65,0,0,0-.238,3.6c.389,2.415,1.138,5.127-.684,7.187a4.226,4.226,0,0,1-.383.475c-1.17,2.065-4.68,2.5-6.853,2.345a.307.307,0,0,0-.07,0,28.837,28.837,0,0,1-8.622,1.666C374.313,450.827,373.935,450.81,373.552,450.784Z" style="fill:#fcb8a3"/><path d="M366.922,436.488c-.631-.092-1.251-.21-1.871-.361q-.412-.114-.808-.259a3.348,3.348,0,0,0,.161-.658,25.2,25.2,0,0,0,.162-3.138c.049-1.769.038-3.537.027-5.306,0,.049,0,.1,0,.146,0-.269,0-.545,0-.814v.448c-.011-2.977-.011-5.953.022-8.924.054-4.831,0-9.662.043-14.488.016-2.48.048-4.955.151-7.43.113-2.636.323-5.273.334-7.915.005-2.4-.032-4.81-.027-7.214.011-2.567.054-5.139.076-7.7.037-4.858.259-9.711.312-14.569.049-4.993.372-9.975.55-14.968.173-4.788.162-9.57.146-14.358v.415q-.009-4.125-.027-8.255c-.016-2.345.113-4.685.253-7.031q.429-7.23.955-14.455c.081-1.133.151-2.276.312-3.4.189-1.289.405-2.561.637-3.845.44-2.421.805-4.842,1.138-7.279l0,0V285.1a.064.064,0,0,0,0-.027l.01-.071h0l.011-.08.011-.076,0,.016c.047-.358.1-.716.143-1.078.124-.809.253-1.618.372-2.432-.016.113-.033.221-.049.329.351-1.973.7-3.947,1.111-5.9.431-2.033.868-4.055,1.316-6.082.458-2.07.894-4.152,1.331-6.227.162-.755.329-1.51.486-2.265.253.054.512.118.771.183a4.661,4.661,0,0,0,2.14.248,39.95,39.95,0,0,0,15.432-3.327c2.488-1.014,4.792-2.482,7.307-3.4.891,1.317,1.673,2.713,2.576,4.021.911,1.326,1.855,2.626,2.8,3.931,1.871,2.6,3.758,5.192,5.473,7.9.8,1.375,1.6,2.75,2.372,4.141s1.461,2.82,2.13,4.265l-.146-.324c.218.483.435.96.652,1.442l-.015-.032-.011-.024.011.024.1.227c.01.024.021.048.033.073l-.033-.073c-.025-.057-.049-.113-.075-.17.048.1.093.207.139.311l-.01-.02q.384.838.767,1.675l-.007-.014.023.048,0,.011.006.013c0,.01,0,.02.01.025s0-.015-.01-.025l.026.056-.016-.031c.011.022.017.038.027.059l-.011-.028c.01.023.02.046.029.069l0,0,0,.005.008.022h0c.836,1.83,1.56,3.7,2.279,5.586.669,1.768,1.38,3.531,2.044,5.311,1.126,3.445,2.113,6.917,3.014,10.422h0l0-.01,0,.01c.554,2.191,1.109,4.383,1.68,6.568.6,2.3,1.267,4.578,1.892,6.87a103.549,103.549,0,0,0,4.476,13.606v0c.933,2.211,1.844,4.427,2.8,6.632.978,2.252,1.919,4.52,2.806,6.815l-.008-.016a.235.235,0,0,0,.017.044l.007.016c.01.031.023.062.036.1-.011-.033-.022-.06-.033-.092l0,0,0-.007.006.012c.017.045.035.09.05.134l-.017-.042c.01.025.019.05.029.076l.014.042-.007-.023c.028.075.055.152.084.229l0,.01,0-.01,0-.013c.981,2.59,1.961,5.186,2.989,7.755.556,1.386,1.116,2.766,1.629,4.162.453,1.24.862,2.486,1.261,3.737l.025.078c.007.025.015.048.024.072.525,1.648,1.083,3.286,1.6,4.94.572,1.811,1.143,3.618,1.817,5.4.593,1.58,1.321,3.116,2.006,4.659.7,1.585,1.429,3.164,2.135,4.755.863,2.049,1.677,4.114,2.61,6.136,2.06,4.5,4.152,8.994,6.152,13.523.987,2.237,2.1,4.416,3.133,6.632.506,1.083,1.029,2.162,1.6,3.213.312.582.69,1.138,1,1.72a3.553,3.553,0,0,0,.377.626,2.755,2.755,0,0,0,.179.21c-.581.561-1.176,1.1-1.786,1.634a.316.316,0,0,1-.037.032h0a.042.042,0,0,1-.022.011c-.436.345-.895.674-1.358.992-.831.507-1.677.965-2.535,1.429h0a.042.042,0,0,1-.027.011c-1.035.539-2.075,1.029-3.132,1.5-.933.373-1.877.685-2.836.993-1.138.291-2.281.544-3.435.77-.782.1-1.564.184-2.351.249-.652.021-1.3.021-1.946,0-.2-.027-.41-.054-.615-.076-.5-.124-.987-.28-1.488-.41-.62-.156-1.24-.286-1.876-.388-.119-.016-.243-.038-.362-.054a3.194,3.194,0,0,1,.96-.21c-5.025-11.576-9.252-23.665-14.445-35.117a1.387,1.387,0,0,1-.868-.728c-.814-1.709-1.574-3.445-2.383-5.16-1.035-2.173-2.114-4.438-2.992-6.61a45.032,45.032,0,0,0-3.624-7.134c-1.806-3.208-2.879-6.659-4.367-9.975-1.165-2.609-2.545-5.116-3.791-7.688-.652-1.187-1.45-3.3.389-3.812-3.974-7.279-7.662-14.8-11.5-22.129a105.081,105.081,0,0,1-1.553,11.534c-.685,5.839-1.143,11.7-1.591,17.566-.361,2.1-.334,12.978-1.774,17.082-.016,2.2-.026,4.4-.08,6.594-.5,12.272-2.831,24.387-3.715,36.6-.6,4.46-.7,9.021-1.278,13.442a1.207,1.207,0,0,1-.124.286,1.641,1.641,0,0,0,0,.243c-.291,2.491-.669,5.068-1.035,7.559-.076.1-.157.194-.243.286-.377.388-.766.755-1.181,1.1l.022-.012c-.084.069-.169.138-.264.206.08-.07.167-.135.253-.2-.275.2-.555.394-.847.572a11.894,11.894,0,0,1-1.186.561l.049-.017c-.06.022-.124.049-.184.071-.959.318-1.914.63-2.852.975-.911.34-1.806.707-2.734.987-.523.124-1.046.216-1.579.291.086-.01.178-.021.264-.027-.361.044-.723.081-1.084.119a.157.157,0,0,1-.048,0,.157.157,0,0,0,.048,0h.016a.3.3,0,0,1-.064,0l-.168.017h0c-.075.01-.151.021-.231.027h0a.2.2,0,0,1-.054,0,.285.285,0,0,1-.065.005c-1.591.124-3.187.168-4.783.2-.663.016-1.331.027-2,.027C368.928,436.6,367.92,436.574,366.922,436.488Z" style="fill:#fcb8a3"/><path d="M369.484,285c.009-.043.015-.092.024-.14l-.008.06-.012.08Z" style="fill:#fcb8a3"/><path d="M404.417,254.891l-.74-.814c1.581.006,2.66,1.475,3.242,2.879q.525.9,1.048,1.8C406.8,257.454,405.6,256.188,404.417,254.891Z" style="fill:#fcb8a3"/><path d="M445.449,431.38c-1.24-1.834-2.329-3.769-3.64-5.554a5.184,5.184,0,0,1-.824-1.433,22.01,22.01,0,0,0,2.97.522c.647.065,1.3.086,1.952.086,1.116,0,2.232-.07,3.343-.129l-.323.016a25.089,25.089,0,0,0,5.019-.766,38.376,38.376,0,0,0,5.026-1.666c-.1.043-.195.081-.292.124a26.1,26.1,0,0,0,4.179-2.151,28.191,28.191,0,0,0,3.731-2.707,21.036,21.036,0,0,0,2.853-3.068,15.8,15.8,0,0,0,1.17-1.752,16.016,16.016,0,0,0,1.207-3.16c.022-.011.049-.021.07-.032a1.433,1.433,0,0,0,.612-.556c.17.238.33.489.478.745a6.7,6.7,0,0,1,1.7,2.771c1.014,2.027,2.1,4.308,1.2,6.578-.178,1.456-1.31,2.426-2.1,3.564-1.682,3.321-5.246,5.192-8.665,6.3-3.041,1.035-5.963,2.561-9.1,3.246-2.637.313-5.273.938-7.915,1.057A3.6,3.6,0,0,1,445.449,431.38Z" style="fill:#fcb8a3"/><path d="M464.585,414.043l.016-.012c-.052.046-.106.092-.157.138C464.49,414.127,464.536,414.085,464.585,414.043Z" style="fill:#fcb8a3"/><path d="M440.454,465.272c-.2-.031-.409-.069-.614-.111a3.185,3.185,0,0,1-1.586-1.83.807.807,0,0,1-.636-.242,2.016,2.016,0,0,1,.259-2.249,1.016,1.016,0,0,1,.189-.188,4.566,4.566,0,0,1,.846-1.785c1.72-2.933,5.527-3.144,8.142-4.9A.739.739,0,0,1,447.7,453c1.03.226,1.66,1.386,2.4,2.087.415.415.674,1.353,1.375,1.2.933-.049,1.569-.858,2.453-1.025,1.5-.3,1.052-1.121.545-2.13-.453-1.585-3.758-4.081-1.208-5.257a1.306,1.306,0,0,1,1.262.54c.911.938,1.7,2.022,2.674,2.89.825-.9,2.157-1.009,2.836-2.044a1.879,1.879,0,0,0-.151-2.189,7.968,7.968,0,0,0-2.647-2.254,1.886,1.886,0,0,1-.733-2.917,4.3,4.3,0,0,1,1.04-1.536c.011-.011.027-.017.038-.027.043.037.092.075.135.113a16.291,16.291,0,0,0,2.5,1.65,10.288,10.288,0,0,0,3.078.938,11.012,11.012,0,0,0,1.623.124c.345,0,.69-.022,1.041-.054v0s0,0,0,0h0a10.523,10.523,0,0,0,2.89-.749,14.531,14.531,0,0,0,3.569-2.384,13.111,13.111,0,0,0,2.27-2.313,12.1,12.1,0,0,0,1.057-1.714c.965,1.957,1.521,4.033,3.165,5.979.752.936,1.665,1.9,2.376,2.943a1.657,1.657,0,0,0-.122.228,1.54,1.54,0,0,0-.1.9c-.064.146-.134.3-.21.442.027-.054.054-.113.081-.167-.151.27-.307.528-.48.787-.253.356-.523.69-.809,1.019-.35.378-.717.728-1.089,1.079-.97.835-2,1.58-3.041,2.318-.113.076-.221.151-.334.232-.717.442-1.456.847-2.178,1.289-.69.431-1.37.884-2.06,1.31,0-.006.011-.006.016-.011-.668.4-1.342.777-2.038,1.127-.825.345-1.65.679-2.464,1.046-.712.323-1.407.674-2.114,1-1.531.712-2.992,1.542-4.54,2.21l.033-.016c-.4.173-.8.342-1.2.517l.058-.026c-.916.378-1.817.766-2.7,1.229-.625.335-1.224.717-1.849,1.046-.475.216-.954.394-1.418.61-.507.231-1,.48-1.51.69-.135.043-.27.081-.41.113-.55.1-1.105.129-1.65.216a21.408,21.408,0,0,0-2.178.534c-.5.1-.992.167-1.488.231-.976.108-1.947.281-2.922.421-.437.043-.879.075-1.316.086C440.993,465.31,440.724,465.294,440.454,465.272Z" style="fill:#fcb8a3"/><path d="M458.635,460.179l-.177.079C458.517,460.23,458.576,460.205,458.635,460.179Z" style="fill:#fcb8a3"/><path d="M294.442,196.658c-.938-.184-1.882-.394-2.83-.54-1.073-.172-2.141-.323-3.225-.442-2-.215-4-.361-6-.5-1.813-.124-3.622-.3-5.435-.448l-.038,0,.008,0-.105-.008h.033c-2.259-.183-4.508-.382-6.767-.5-2.324-.124-4.632-.388-6.95-.593.1,0,.194.016.286.021-1.149-.1-2.292-.258-3.446-.372s-2.286-.194-3.434-.28-2.265-.172-3.4-.237c-.96-.059-1.92-.086-2.885-.13-1.907-.217-3.8-.54-5.711-.73a10.6,10.6,0,0,1-.7-4.473,1.945,1.945,0,0,0,1.013.3,19.752,19.752,0,0,0,3.074-.378c.857-.113,1.709-.237,2.572-.317.248-.022.49-.049.733-.071.113.006.232.006.345.006,1.1,0,2.195-.027,3.294-.033,1.106.167,2.211.34,3.317.512,2.129.335,4.286.534,6.432.745,3.79.366,7.565.884,11.355,1.261.361.114.723.221,1.089.324.626.172,1.267.275,1.909.4,1.084.205,2.178.366,3.262.588,1.4.28,2.8.56,4.2.824.674.13,1.348.222,2.028.329.28.043.566.07.852.1a3.619,3.619,0,0,0,.426.022,3.752,3.752,0,0,0,.609-.049c1.364,1.375,2.243,3.241,4.125,3.958a7.634,7.634,0,0,1,1.3.973Q295.107,196.788,294.442,196.658Z" style="fill:#fcb8a3"/><path d="M277.135,189.558c.056,0,.117.009.174.016C277.251,189.57,277.193,189.566,277.135,189.558Z" style="fill:#fcb8a3"/><path d="M260.5,187.483l.194.016.146.016Z" style="fill:#fcb8a3"/><path d="M280,180.338c-1.062-.21-2.157-.366-3.235-.469-1.17-.107-2.329-.188-3.5-.248-.955-.048-1.914-.043-2.869-.064-1.013-.022-2.022-.054-3.03-.081-.631-.016-1.262-.011-1.9-.016-.118-.011-.243-.017-.367-.022a4.13,4.13,0,0,0-.889.016,2.218,2.218,0,0,0-1.278.642c-1.7-.081-3.4-.108-5.095-.162-1.316-.086-2.632-.2-3.947-.232s-2.61-.037-3.92-.14c-.949-.1-1.893-.189-2.836-.3a5.543,5.543,0,0,0-3.311.188c-.031.017-.062.034-.092.052.167-1.915-.012-4.081.642-5.816.06.017.119.033.178.044a11.816,11.816,0,0,0,2.254.178h.437c2.825-.044,5.634-.184,8.449-.47,2.561-.264,5.122-.469,7.7-.56,2.028-.011,4.05-.027,6.077-.081,1.04-.027,2.076-.07,3.116-.119a.735.735,0,0,1,.626.836,43.574,43.574,0,0,1,7.853,7.063C280.71,180.491,280.355,180.411,280,180.338Z" style="fill:#fcb8a3"/><path d="M430.286,202.2c-4.74-.431-9.49-.674-14.235-.981-4.8-.32-9.583-.756-14.369-1.156-.027,0-.053-.007-.08-.009-1-.1-2-.229-3-.3-1.137-.086-2.286-.086-3.424-.129-1.87-.065-3.736-.265-5.607-.372-2.049-.119-4.109-.232-6.163-.173-2.119.059-4.243.167-6.362.178h.356c-1.753.011-3.516.059-5.268.005-1.828-.064-3.65-.145-5.478-.2q-.846-.025-1.69-.04-1.56-.4-3.12-.78c-3.229-.523-6.47-.97-9.689-1.326-2.556-.027-4.977-.723-7.468-.927-2.383.62-5,1.288-7.171-.049a18.712,18.712,0,0,1-3-.119c-4.006-.512-7.376-2.9-11.177-4.06.744.011,1.494,0,2.238-.027,2.4-.1,4.8-.258,7.2-.339s4.82-.141,7.225-.227c2.663-.1,5.322-.226,7.98-.329l-.367.017c2.216-.087,4.427-.162,6.637-.259,1.311-.054,2.621-.146,3.931-.237l.863.1c1.855.21,3.726.291,5.586.469,1.957.194,3.914.307,5.882.4l-.361-.016c2.033.113,4.055.35,6.082.555l-.345-.032c1.871.189,3.736.393,5.607.512a50.1,50.1,0,0,0,5.171-.016c3.074-.14,6.147-.356,9.226-.464,1,.1,2,.178,3.008.194,1.51.022,3.02.011,4.529-.064,1.133.151,2.265.318,3.4.463,2.253.275,4.5.55,6.761.761l-.178-.017.178.017.356.032-.345-.032c1.553.14,3.122.231,4.674.35,1.359.145,2.713.291,4.071.448.734.081,1.467.156,2.205.226a12.955,12.955,0,0,0,2.659.151c.426.065.857.124,1.272.194.879.146,1.769.248,2.653.351.243.027.485.053.728.075-.379,2.438-.872,4.854-1.432,7.2Z" style="fill:#fcb8a3"/><path d="M401.515,200.052l.087.006.062.006Z" style="fill:#fcb8a3"/><path d="M404.343,186.322h.049c.07,0,.14,0,.21,0C404.516,186.327,404.43,186.322,404.343,186.322Z" style="fill:#fcb8a3"/><path d="M432.042,181.929c-1.068-.059-2.135-.113-3.208-.161-1.979-.1-3.947-.367-5.926-.513s-3.973-.118-5.952-.162c-1.785-.037-3.575-.048-5.354-.086.059.006.124.006.188.011-.086,0-.178,0-.264-.011H411.5c-2.151-.075-4.3-.135-6.448-.21-2.384-.086-4.756-.269-7.145-.259s-4.815.006-7.219.114c-.858.037-1.715.064-2.567.091a10.916,10.916,0,0,0-2.3-.075c-.469-.006-.938-.006-1.407-.006-.858-.043-1.715-.1-2.567-.188-1.833-.195-3.677-.426-5.516-.578-4.788-.393-9.581-.668-14.374-.9-4.875-.232-9.749-.55-14.623-.318-2.432.113-4.863.248-7.3.27-2.329.021-4.659-.017-6.988-.076-4.7-.119-9.387.361-14.089.464-.782-.005-1.558-.005-2.335,0-1.86,0-3.731.011-5.585-.054-1.149-.1-2.286-.21-3.435-.264l.377.016c-.857-.043-1.72-.081-2.582-.108a12.01,12.01,0,0,0-2.6.016,3.619,3.619,0,0,0-.588.151,3.955,3.955,0,0,0-.415-.286c-2.486-1.283-4.7-2.965-7.106-4.335a2.325,2.325,0,0,1-1.034-.819c1.705-.1,3.409-.219,5.115-.34,2.718-.189,5.424-.474,8.142-.722,4.863-.448,9.77-.658,14.655-.7,1.639.021,3.273.059,4.906.129,1.6.076,3.2.2,4.794.248h-.081c.075,0,.151,0,.221,0h-.081c3.855.125,7.716.125,11.571.335,2.286.21,4.572.426,6.864.561q3.194.193,6.389.2,3.469.024,6.934.151c2.345.085,4.68.257,7.02.4h0l-.02,0c2.492.144,4.985.246,7.477.338,2.631.1,5.273.075,7.9.091h-.334c3.8.033,7.592.2,11.388.081q4.164-.137,8.314-.356c2.561-.14,5.117-.231,7.683-.253,1.224-.011,2.459.054,3.683.092,1.348.032,2.69.086,4.033.135,2.5.091,5,.328,7.5.533,1.407.157,2.83.275,4.227.5l1.193.188a3.687,3.687,0,0,1-.109.524c-.081,2.06-.243,4.119-.351,6.184C432.473,181.956,432.258,181.94,432.042,181.929Z" style="fill:#fcb8a3"/><path d="M273.436,154.51a3.415,3.415,0,0,0-.054-3.247c-.146-.237-.291-.468-.437-.7a21.405,21.405,0,0,1-1.369-2.729,26.523,26.523,0,0,1-.9-2.814.005.005,0,0,1-.006-.005h.006c-.006-.006-.006-.017-.011-.027a17.667,17.667,0,0,1-.264-1.753,29.947,29.947,0,0,1-.011-3.041c.048-.647.129-1.283.237-1.919.1-.421.21-.831.345-1.241.14-.361.291-.717.458-1.067.2-.356.416-.706.642-1.046.162-.2.324-.41.5-.6.173-.178.351-.345.529-.507.5-.377,1-.738,1.52-1.078a.127.127,0,0,1,.027-.017c1.7-1.035,3.429-2,5.214-2.884.75-.329,1.51-.631,2.286-.895.884-.259,1.769-.485,2.648-.733a13.1,13.1,0,0,0,2.6-.895,2.9,2.9,0,0,0,1.149-.885,2.836,2.836,0,0,0,.253-.5c.006-.022.017-.043.022-.059,2.895,1.321,4.2,4.566,5.931,7.144,2.965,1.45,6.734,2.157,8.222,5.526,1.355,3.694-.5,7.6-3.777,10.924a2.7,2.7,0,0,0-.4-.873,2.828,2.828,0,0,0-3.575-.9c-2.776,1.3-5.273,3.111-7.985,4.545-.539.253-1.078.485-1.634.7-.512.167-1.019.323-1.542.453-.841.129-1.687.188-2.539.253.135-.011.269-.016.4-.027l-.431.032a3.11,3.11,0,0,0-2.373,1.181,3.006,3.006,0,0,0-.582,2.243c.012.083.027.163.045.242A19.929,19.929,0,0,1,273.436,154.51Z" style="fill:#fcb8a3"/><path d="M270.678,145.032c.038.145.071.3.108.453C270.749,145.334,270.716,145.183,270.678,145.032Z" style="fill:#fcb8a3"/><path d="M270.673,145.01c-.018-.085-.037-.169-.057-.253l.056.232,0,.026Z" style="fill:#fcb8a3"/><path d="M274.83,132.6l-.179.116,0,0C274.707,132.673,274.771,132.635,274.83,132.6Z" style="fill:#fcb8a3"/><path d="M279.677,129.913a1.6,1.6,0,0,1-.145.07C279.58,129.962,279.629,129.935,279.677,129.913Z" style="fill:#fcb8a3"/><path d="M171.407,192.13c1.013-1.758,2.28-3.381,3.413-5.068,1-1.494,1.979-3.009,3.046-4.46,1.008-1.369,2.027-2.733,3.095-4.06.984-1.222,1.968-2.43,2.828-3.732l-.008.012.009-.014c.035-.052.07-.1.1-.159.049-.075.1-.15.14-.226l-.024.039c.646-1.052,1.244-2.128,1.9-3.166.361-.507.728-1,1.121-1.478.426-.474.852-.943,1.251-1.439a16.214,16.214,0,0,0,1.537-2.308c.792-1.413,1.547-2.841,2.367-4.238.873-1.493,1.8-2.949,2.615-4.475.776-1.461,1.51-2.944,2.286-4.411.949-1.725,1.86-3.494,2.9-5.17s2.13-3.284,3.273-4.885l-.032.048c.542-.727,1.087-1.445,1.66-2.142a9.446,9.446,0,0,1,2.055,3.83A63.056,63.056,0,0,1,209.705,155a24.422,24.422,0,0,0,2.593,8.513,77.538,77.538,0,0,1,2.632,9.652c1.056,5.084,5.866,13.528,2.3,18.116-2.205,1.817-5.36,1.769-8.19,1.726-.464-.006-.917-.016-1.354-.011-7.246-.76-14.461-.011-21.691.286-1.45.059-2.9,0-4.351-.049a42.938,42.938,0,0,0-5.592.043,14.85,14.85,0,0,0-3.035.383,18.643,18.643,0,0,1-2.481.371C170.8,193.383,171.086,192.751,171.407,192.13Z" style="fill:#fcb8a3"/><path d="M184.01,174.461c-.038.063-.077.126-.116.188-.024.035-.049.072-.073.111C183.885,174.659,183.949,174.559,184.01,174.461Z" style="fill:#fcb8a3"/><path d="M324.551,154.364a10.312,10.312,0,0,1-8.363-7.16c-.884-3.64-2.955-7.629-.965-11.15a2.289,2.289,0,0,0,2.383-.636c.092-.1.189-.2.286-.3l.313-.313-.2.2.372-.372c.281-.238.561-.469.852-.7.334-.226.674-.442,1.019-.652.437-.221.874-.426,1.321-.615a30.616,30.616,0,0,1,2.982-.933A24.188,24.188,0,0,1,327,131.3c.593-.043,1.181-.059,1.774-.053.739.048,1.477.135,2.211.253.167.032.329.059.5.092l-.453-.081c.577.118,1.148.264,1.709.431.636.227,1.256.485,1.871.771.911.485,1.779,1.03,2.637,1.6.7.518,1.391,1.03,2.054,1.6.189.183.372.367.555.561.135.172.259.35.383.528.081.135.156.281.232.421.14.323.269.641.383.97.183.631.334,1.273.48,1.914a13.718,13.718,0,0,0,1.558,3.834,10.4,10.4,0,0,0,6.605,4.836,3.741,3.741,0,0,0,.485.087c-.011.086-.021.172-.038.253-.678,2.08-2.8,3.76-5.138,4.731a7.684,7.684,0,0,0,.771-2.019,2.642,2.642,0,0,0-1.332-2.858c-.221-.075-.437-.156-.652-.237a2.6,2.6,0,0,0-1.672.205,3.7,3.7,0,0,0-1.321,1.289c-.99,1.2-2.073,2.312-3.095,3.477a12.076,12.076,0,0,0-1.7-.841c-1.591-.318-3.176.221-4.718.539-1.787.185-3.538.874-5.327.874A5.973,5.973,0,0,1,324.551,154.364Z" style="fill:#fcb8a3"/><path d="M317.892,135.121l-.2.2Z" style="fill:#fcb8a3"/><path d="M350.191,141.34l-.178-.146c-.065-.07-.13-.135-.194-.2-.157-.194-.3-.393-.442-.6-.092-.162-.178-.329-.265-.491-.107-.237-.2-.48-.3-.723-.308-1.1-.512-2.232-.885-3.321a12.375,12.375,0,0,0-3.413-5.284,28.032,28.032,0,0,0-5.591-3.78,16.635,16.635,0,0,0-3.748-1.446c5.983,1.027,13.353,6.476,14.6,11.54a28.564,28.564,0,0,1,.589,4.564Z" style="fill:#fcb8a3"/><path d="M349.743,140.951c.049.043.1.092.151.135v.006C349.846,141.043,349.792,141,349.743,140.951Z" style="fill:#fcb8a3"/><path d="M318.578,134.438c-.064.07-.134.135-.2.2C318.444,134.568,318.514,134.5,318.578,134.438Z" style="fill:#fcb8a3"/><path d="M441.494,173.242a.6.6,0,0,1,.523.718c-.07,1.741.048,3.493-.038,5.24-.145,7.075-1.11,14.105-1.574,21.163-.183,1,.172,2.971-1.267,3.02-1.726-.4-.329-3.3-.4-4.556,1.137-8.277,1.682-16.629,2.113-24.965A.6.6,0,0,1,441.494,173.242Z"/><path d="M218.536,188.086c1.046.658.275,1.774.033,2.647-.167,1.332-.631,2.858-2.184,3-7.673,1.3-15.588,1.067-23.32,1.223-7.279-.625-14.5.038-21.777-.264-4.745.173-6.357-2.469-4.438-6.767,2.863-5.262,7.117-9.705,10.374-14.724,6.443-10.542,13.76-20.463,20.7-30.658,9.835-13.82,13.313,15.922,15.124,21.842,1.122,4.971,2.071,10.19,4.449,14.73a.752.752,0,1,1-1.327.707,26.787,26.787,0,0,1-3.305-7.819c-1.326-5.219-2.593-10.438-3.963-15.647-1.181-4.976-2.221-10.217-5.122-14.5-1.774-2.976-5.117,3.833-6.266,5.1-1.881,3.036-4.038,5.883-6.157,8.751C185.5,163.8,180.545,172.5,174.048,180.09c-2.572,3.488-7.931,7.586-6.195,12.358,1.418,1.132,3.559.668,5.268.792,3.9-.021,7.673-.231,11.544-.49,5.591-.232,11.215.054,16.785-.27,4.9.092,9.98.453,14.7-1.073C215.792,190.032,216.735,187.256,218.536,188.086Z"/><path d="M298.826,134.556c6.093,4.378,6.945,8.659,2.523,14.784C296.9,156,288.5,159.73,280.591,159.191c-4.88-.35-9.824-2.976-11.684-7.694a.889.889,0,0,1,1.434-1.024c.944.938,1.844,1.925,2.8,2.846a12.265,12.265,0,0,0,7.365,3.095c6.8.324,13.981-2.48,18.214-7.883,2.313-2.9,5.165-6.739,1.833-9.969a21.4,21.4,0,0,0-5.926-4.5c-2.06-1.03-2.733-3.219-3.952-4.982-1.494-1.617-3.742-2.065-5.742-2.642-6.266-1.3-14.6,1.823-18.144,7.182-2.593,3.5-2.426,6.443-.566,10.18a26.042,26.042,0,0,0,2.054,3.672.651.651,0,0,1-.151.9c-1.251.841-3.138-4.432-3.7-5.4-4.454-8.4,4.275-15.912,11.721-18.187,5.506-1.478,13.167-1.321,16.688,3.834.448.738.685,1.612,1.057,2.28C295.046,132.647,297.306,133.353,298.826,134.556Z"/><path d="M349.461,136.093c1.537,2.981,3.078,6.319,2.8,9.748-.529,2.561-2,4.842-2.912,7.279a8.311,8.311,0,0,1-6.966,3.2c-2.41-.48-4.659-1.574-7.123-1.056-6.691,1.186-16.564,1.525-19.513-6.034a1.14,1.14,0,0,1,1.99-1.057c1.358,1.9,2.809,4.136,5.278,4.578,4.626,1.164,9.134.642,13.739.253,4.049-.118,5.909,3.4,9.867-.043,1.714-1.612,2.022-4.254,3.219-6.26,1.04-3.521-.685-7.311-2.3-10.406-3.078-7.182-11.716-10.245-19-8.8-7.769.7-16.008,8.033-11.56,16.094a.8.8,0,0,1-.334,1.078c-2.232.524-2.556-5.548-2.518-7.074.906-13.317,21.551-16.817,30.232-8.751C347,130.5,348.194,133.391,349.461,136.093Z"/><path d="M470.7,183.5c.965,5.747-.3,11.544-2.335,16.925-1.8,5.915-8.837,4.524-13.674,5.036-7.473.194-14.941.717-22.414.685q-3.267.04-6.524,0c2.426,6.508,3.979,13.49,2.195,20.365-.982,5.084-3.408,9.711-5.894,14.2-1.914,4.114-5.014,7.37-8.238,10.481a10.489,10.489,0,0,1-5.392,3.182c-.965.28-1.936.544-2.917.781-.469.114-.944.221-1.413.318a30.576,30.576,0,0,1-6.373.739,22.327,22.327,0,0,1-2.394-.129c-1.758.172-13.453-3.014-11.867-5.365,5.807-.545,6.686-7.128,7.246-11.846-1.768,1.429-4.281,2.324-6.373,1.025a.382.382,0,0,1-.059-.567c4.211-2.275,4.216-7.931,4.826-12.115a116.483,116.483,0,0,0,.221-16.391c-.038-2.281-.194-4.578-.459-6.842a.6.6,0,0,1,.022-.1q-7.886-.808-15.766-1.79a.611.611,0,0,1,.059-1.2c5.457-.576,10.989.6,16.354,1.246,12.768.911,25.563,1.607,38.368,1.655.739.017,1.477.033,2.216.038.065-1.046.334-2.232.281-2.858.329-6.114,1.369-12.19,1.962-18.289a.926.926,0,0,1-.135-.043,33.611,33.611,0,0,1-4.976.308c-12.407-.966-24.835-1.192-37.269-1.09-10.228-.879-20.4-1.256-30.647-1.444-12.094-.378-24.187-.1-36.281-.065-1.941-.016-3.883.075-5.813.172a50.87,50.87,0,0,1-11.776-.34.433.433,0,0,1,.07-.857c27.057-.55,54.194-.744,81.234.652,7.484.384,14.978,0,22.457.61,7.613.119,15.232,1.219,22.84.744a.685.685,0,0,1,.431-.146,70.938,70.938,0,0,0,.264-7.559.717.717,0,0,1-.264-.9c-7.43-.173-14.865-.28-22.3-.2-15.868-.685-31.747-.906-47.631-1.094-4.993.059-9.97-.211-14.946-.48-4.637-.248-9.269-.5-13.906-.48a281.648,281.648,0,0,0-39.026,1.984c-.415.032-.927.135-1.4.135a9.357,9.357,0,0,0,3.138,1.946c2.21.971,3.9,2.718,5.8,4.152,1.882,1.353,3.947,2.216,5.866,3.445a61.6,61.6,0,0,0,8.471,5.381c2.378,1.262,4.076,3.106,6.551,4.071.313.119.631.232.949.345a.37.37,0,0,1,.232-.614c10.794-1.257,21.68-.744,32.523-1.084,15.41-.167,30.761.809,46.122,1.855,9.134.339,18.214,1.294,27.358,1.531.75.011.776,1.235-.021,1.208-2.686-.184-5.371-.146-8.056-.113a72.8,72.8,0,0,1-11.366-.459c-11.528-.62-23.066-1.164-34.556-2.2-16.154-.706-32.389-.566-48.543,0-1.1.043-2.216.033-3.326,0,4.717,1.645,9.608,2.68,14.342,4.265a5.942,5.942,0,0,1,.491-.641c1.817-1.445,4.545-.491,6.707-.491,4.286.35,8.605.227,12.892.674a82.412,82.412,0,0,1,11.689,3.37c.814.41,2.637.55,2.184,1.839a.873.873,0,0,1-1.148.415,44.336,44.336,0,0,0-10.989-2.88c-6.476-.075-12.978-.668-19.421-1.019-1.747,3.128-2.195,6.94-2.195,10.53,0,.459.011.917.022,1.365a13.846,13.846,0,0,0-.022,1.763h0a1.008,1.008,0,0,1,.594,1.111c.382.447.846.841,1.234,1.245,4.853,3.343,11.07,3.381,16.6,4.95.243.07.486.14.728.216a.887.887,0,0,1-.431,1.714c-.13-.038-.259-.075-.388-.108-6.454-1.768-14.58-1.58-19.017-7.106-9.118-1.914-18.759-.728-27.553-4.168a29.82,29.82,0,0,1-14.142-8.277c-9.8-1.148-19.594-2.555-29.429-3.359a192.338,192.338,0,0,1-21.362-1.86.8.8,0,0,1-.507-.518c-.135-.032-.265-.07-.383-.1-7.867-2.965-15.868-6.065-23.18-10.282-4.82-2.55,3.591-5.461,5.743-6.157,4.427-1.957,8.805-4.012,13.086-6.185a31.656,31.656,0,0,1,3.871-1.5,4.412,4.412,0,0,1,2.939-.916c3.181-.178,6.367-.065,9.554.054,2.529.091,5.063.188,7.6.135a2.672,2.672,0,0,0,.766-.017c-.345-2.582,3.6-5,6.642-5a24.307,24.307,0,0,1,11.528.6c2.561.626,5.354,1.494,7.117,3.575a21.044,21.044,0,0,0,1.51,2.049.974.974,0,0,1,.868-.728c1.224-.086,2.448-.318,3.661-.491,20.84-3.095,41.819-1.6,62.793-.647-1.93-1.019.658-3.386.966-4.766.226-1.343-1.219-2.577-.669-4.087.318-1.488,1.871-1.769,3.165-1.822a7.332,7.332,0,0,0,3.03-1.354,34.888,34.888,0,0,0,4.173-4.831.7.7,0,0,1-.188-.243,9.064,9.064,0,0,1,1.094-6.7c1.472-4.173,6.9-7.6,12.229-8.508.081-.027.162-.043.243-.065a10.4,10.4,0,0,1,9.349,2.389c4.583-1.936,10.056-.814,13.976,2.151a14.641,14.641,0,0,1,4.178,6.045,43.378,43.378,0,0,1,4.449,14.935,31.292,31.292,0,0,0,.69,3.79,9.058,9.058,0,0,1,.814,4.443c.016.043.027.087.038.124,8.416.081,16.822.405,25.239.723q11.072-.219,22.106.5a.7.7,0,0,1,.712.41C469.634,173.744,469.779,179.658,470.7,183.5Zm-3.381,12.552a28.513,28.513,0,0,0,1.1-12.665c-.8-3.246-.8-7.646-4.109-9.409a.715.715,0,0,1-.809-.437c-6.373-.118-12.74-.307-19.114-.5a.607.607,0,0,1,.459.286,37.224,37.224,0,0,1,.555,5.095,154.383,154.383,0,0,1-.987,21.255,24.7,24.7,0,0,1-.571,3.386.788.788,0,0,1-.351.491c2.761-.1,5.516-.2,8.266-.254,1.38-.129,2.82-.119,4.265-.108,2.971.016,5.979.038,8.638-1.111C466.269,200.52,466.712,198.142,467.321,196.055ZM444.044,173.1a.669.669,0,0,1,.205-.054q-5.216-.146-10.428-.281c.734,1.354.189,5.349.292,6.271-.372,6.271-1.176,12.514-1.521,18.8-.21,1.014-.1,4-.469,6.012.965,0,1.936-.011,2.9-.032.011-1.8.485-3.737.42-5.516.081-7.026.669-13.96,1.019-20.969.049-1.337.157-2.691.318-4.012a.663.663,0,0,1,.664-.42.653.653,0,0,1,.582.534c-.07,5.828-.431,11.684-1.062,17.507-.3,4.292-.167,8.567-.464,12.849,2.06-.049,4.12-.119,6.179-.2a.829.829,0,0,1-.4-.754c.145-2.642.56-5.257.76-7.889a162.019,162.019,0,0,0,.776-20.888A.636.636,0,0,1,444.044,173.1Zm-21.335,46.747c0-.086,0-.184,0-.27q-.033-.63-.065-1.261c-.016-.3-.021-.588-.054-.879-.048-.464-.1-.928-.151-1.391-.032-.264-.054-.523-.1-.782-.081-.475-.167-.949-.248-1.429-.049-.253-.092-.507-.135-.76-.016-.087-.027-.173-.049-.254-.075-.286-.145-.577-.215-.868l-.4-1.585c-.113-.453-.242-.9-.377-1.343a.37.37,0,0,0-.458-.248.375.375,0,0,0-.248.464c.113.388.231.777.328,1.17.087.329.168.658.249.992.14.54.264,1.073.4,1.607.14.82.275,1.639.42,2.448.054.318.076.647.108.965.043.4.087.793.124,1.186v.016c.017.329.033.658.049.982.011.248.021.5.032.744.006.086.016.172.016.264-.01.642-.016,1.283-.027,1.925-.037.577-.086,1.154-.134,1.731-.033.447-.1.884-.151,1.326s-.1.873-.167,1.31c-.092.631-.189,1.262-.281,1.893,0-.022.006-.038.006-.06-.076.394-.141.793-.216,1.187-.059.318-.108.641-.178.965-.216,1.014-.426,2.027-.674,3.03v-.027c-.146.55-.318,1.095-.512,1.629-.124.323-.265.636-.421.948-.14.27-.291.534-.447.788-.184.3-.378.582-.577.868-.308.436-.62.868-.944,1.283a.346.346,0,0,0,.07.485.324.324,0,0,0,.2.07.338.338,0,0,0,.275-.14c.27-.345.529-.7.782-1.057a21.314,21.314,0,0,0,1.305-1.881,8.477,8.477,0,0,0,.517-1.068c.151-.383.3-.771.41-1.165.189-.641.345-1.288.485-1.935.151-.712.313-1.418.437-2.13.119-.685.248-1.37.345-2.054.1-.745.221-1.489.308-2.233.059-.512.118-1.019.183-1.531.027-.253.043-.507.059-.755.033-.463.07-.922.1-1.385,0-.076,0-.157,0-.238,0-.226,0-.453,0-.679C422.7,220.421,422.709,220.135,422.709,219.844Zm-3.726,1.062c.011-.226.027-.458.022-.685-.006-.469-.011-.938-.016-1.412q-.009-.744-.017-1.489c0-.231-.021-.463-.032-.7-.07-1.013-.124-2.027-.216-3.035a.344.344,0,1,0-.685.059c.1,1.165.162,2.329.232,3.5,0,.162,0,.329,0,.491.006.335.006.669.006,1,0,.556.016,1.105.016,1.661,0,.151-.016.307-.027.463-.016.335-.032.664-.049,1-.016.318-.032.636-.048.96-.006.108-.006.21-.016.318a.061.061,0,0,0-.006.032v.006c-.108.846-.221,1.693-.312,2.544v.022c-.13.69-.248,1.38-.372,2.07-.044.248-.114.491-.168.739-.075.291-.14.582-.21.874-.237.814-.469,1.623-.712,2.442a.354.354,0,0,0,.227.432.638.638,0,0,0,.1.01.35.35,0,0,0,.34-.237c.183-.609.361-1.218.539-1.828.064-.221.129-.442.189-.668.086-.324.172-.647.253-.976.043-.151.081-.308.124-.464a.972.972,0,0,0,.027-.113c.048-.248.092-.5.14-.755.065-.367.135-.728.2-1.095.016-.113.043-.221.059-.328a.1.1,0,0,1,0-.038v-.011a.347.347,0,0,1,.011-.076v0c.011-.113.027-.232.038-.345v-.032c0-.006,0-.006,0-.011.011-.108.022-.21.038-.318V224.9a.224.224,0,0,1,0-.027c.022-.205.049-.41.076-.62.011-.129.027-.259.043-.377v-.022s0-.016,0-.021c.016-.157.033-.313.054-.47v-.027a.005.005,0,0,1,.006,0v0a.6.6,0,0,1,.01-.087V223.2c.027-.221.033-.442.044-.652C418.929,222,418.956,221.451,418.983,220.906Zm-4.578-3.305c0-.733-.01-1.467-.026-2.2a.344.344,0,0,0-.346-.318h-.021a.353.353,0,0,0-.324.367c.017.716.027,1.439.027,2.156-.01.534-.027,1.068-.043,1.607-.011.469-.043.938-.065,1.407-.054,1.041-.124,2.076-.194,3.117a.354.354,0,0,0,.329.372h.027a.352.352,0,0,0,.345-.324c.087-1.45.173-2.906.243-4.356.016-.286.016-.566.022-.852C414.389,218.253,414.405,217.924,414.405,217.6Zm-4.475-54.377c0-.523-.011-1.041-.038-1.563-.021-.437-.059-.869-.1-1.3-.08-.916-.177-1.828-.3-2.739a27.3,27.3,0,0,0-.663-3.559,22.556,22.556,0,0,0-1.03-3.019,25.115,25.115,0,0,0-1.558-3.014c-.6-.976-1.272-1.9-1.952-2.82a.432.432,0,1,0-.711.491c.668.9,1.326,1.817,1.908,2.777.464.8.895,1.612,1.278,2.453a22.786,22.786,0,0,1,.944,2.658c.226.846.388,1.7.534,2.566a.11.11,0,0,0,.01.044v0c.189,1.3.281,2.615.372,3.925.043.5.076,1,.119,1.5.054.544.119,1.084.189,1.622a.51.51,0,0,0,.5.448h.049A.5.5,0,0,0,409.93,163.224Zm-2.814-3.51a.483.483,0,0,0,.345-.544c-.146-.664-.324-1.316-.507-1.974-.059-.21-.13-.415-.194-.625-.086-.275-.173-.556-.264-.825-.4-1.159-.825-2.308-1.251-3.451a.455.455,0,0,0-.6-.232.468.468,0,0,0-.232.6c.065.172.13.329.189.5.173.459.351.928.507,1.392.1.3.2.609.3.911.059.188.129.372.183.561.151.517.3,1.04.442,1.563.157.6.313,1.2.475,1.8a.491.491,0,0,0,.469.339A.543.543,0,0,0,407.116,159.714Zm-15.62,5.392a.384.384,0,0,0,.355-.4c-.07-1.666-.14-3.327-.194-4.993a.341.341,0,0,0-.339-.318h-.033a.349.349,0,0,0-.318.372c.049,1.66.086,3.326.124,4.992a.381.381,0,0,0,.378.351Zm-2.723.377a.353.353,0,0,0,.3-.388c-.091-1.192-.178-2.383-.253-3.569-.022-.405-.038-.814-.06-1.219-.021-.377-.032-.755-.053-1.132-.017-.345-.027-.685-.044-1.03a.361.361,0,0,0-.361-.361h-.011a.362.362,0,0,0-.35.356c.027.765.065,1.531.1,2.3.022.431.032.857.065,1.288.086,1.154.167,2.308.285,3.462a.346.346,0,0,0,.351.3C388.746,165.489,388.762,165.483,388.773,165.483Zm-6.179,4.546c.248-.006.5-.006.738-.011-.075-1.149-.134-2.3-.2-3.445a22.246,22.246,0,0,1-3.024-8.261c.172,2.006-.6,5.112-2.222,4.75a.94.94,0,0,1-.555-1.094c.226-1.375,1.137-3.5-.275-4.454-.092-.054-.183-.108-.275-.156a1.547,1.547,0,0,1-.582.9c-1.473,1.461-3.98,5.727-6.244,5.09-1.947-1.213,1.515-5.877,3.655-7.311a.808.808,0,0,1-.151-.577c.195-1.192,1.575-.491,2.276-.41,1.439.259,3.278.485,4.011,1.941a1.959,1.959,0,0,1,.248.588c-.167-1.121-.275-2.254-.334-3.375-.059-3.16-.857-6.74.744-9.614-3.639,1.979-7.619,5.128-8.508,9.328a.347.347,0,0,1-.329.361c-.345.006-.388-.361-.367-.631.07-.323.157-.641.254-.959-1.656,2.259-3.106,4.712-5.365,6.394a9.082,9.082,0,0,1-4.049,1.224.747.747,0,0,0-.642.437c-.275,1.6,1.612,2.885.922,4.6a21.175,21.175,0,0,1-1.456,2.993c-.194.458-.48,1.019-.949,1.159C367.475,169.829,375.04,170.088,382.594,170.029Zm-45.448,40.735c-.981-3.871-.631-9.975,1.084-13.5-2.686-.469-5.387-.777-8.045-1.44a41.315,41.315,0,0,1-14.72-6.416h0a62.32,62.32,0,0,1-8.212-5.187,55.022,55.022,0,0,1-9.878-6.632c-1.725-1.121-3.747-1.7-5.316-3.052a40.49,40.49,0,0,1-3.44-3.963,10.9,10.9,0,0,0-4.249-2.232c-3.79-1.014-14.833-2.7-16.682,1.515,2.086,2.551,6.815.884,8.616,4.055,6.066,5.925,10.724,13.026,16.736,18.99,2.567,2.842,4.395,6.362,7.549,8.6l-.022-.022c5.511,4.076,12.272,6.233,18.963,7.425C325.381,210.074,331.366,209.47,337.146,210.764ZM295.375,199.5a34.737,34.737,0,0,1-3.219-4.313q-1.536-1.683-3.014-3.424c-9.214-1.073-18.434-2.016-27.7-2.523-5.624-.566-11.528.2-17.017-1.208a.705.705,0,0,1,.054-1.289,5.537,5.537,0,0,1,1.019-.226c14.084,1.035,28.264,1.218,42.213,3.564-2.55-3.03-5.057-6.1-7.716-9.026-11.791-.3-23.632-.981-35.435-.981h-.932c.021,2.4.253,4.777.194,6.351a12.308,12.308,0,0,0,1.272,5.516,1.036,1.036,0,0,1-.388,1.149c.189.059.377.113.571.167.572.194,1.526.3,1.72.911,1.084.108,2.162.291,3.246.4C265.262,196.325,280.548,196.352,295.375,199.5Zm-16.542-19.685q-1.448-1.545-2.981-3a30.023,30.023,0,0,0-2.227-2.481c-1.958-1.035-4.379-.437-6.293-1.607a4.993,4.993,0,0,1-1.66-1.579,1.109,1.109,0,0,0-.318.032c-3.548.254-7.112.254-10.671.248-1.887,0-3.78,0-5.661.038-4.13-.458-5.193,2.944-5.37,6.805,1.25-.119,2.512-.168,3.774-.168,2.6,0,5.208.194,7.786.308C256.1,178.629,272.686,178.86,278.833,179.815Zm-35.715,12.768c-1.979-2.41-1.591-6.19-1.823-9.161-.221-3.408-.113-7.015,1.257-10.191-3.856,1.726-7.646,3.629-11.415,5.538-.491.248-.987.485-1.488.706a3.139,3.139,0,0,1,1.17,1.548,5.183,5.183,0,0,1-1.688,5.677,24.483,24.483,0,0,1,2.351.965C235.391,189.234,239.138,191.213,243.118,192.583Z"/><path d="M392.121,257.975a.516.516,0,0,1,.485.884,12.682,12.682,0,0,1-4.475,2.13,36.435,36.435,0,0,1-14.154,1.58,3.18,3.18,0,0,1-1.078-.378,2.883,2.883,0,0,1-.884-.809c-.917-1.229-1.084-3.143-1.343-4.62a21.205,21.205,0,0,0-1.741-4.88c-2.373-4.076-6.249-6.918-8.843-10.854-4.162-6.184-3.208-13.565-2.771-20.656.032-.614.07-1.218.091-1.822.038-.8.06-1.6.06-2.394a1.058,1.058,0,0,1,2.113-.076c-.221,11.091-2.809,19.287,5.937,28.14,3.7,3.359,6.567,7.97,6.723,13.065a8.8,8.8,0,0,0,.674,3.278c.151.426.8.4,1.1.426A46.392,46.392,0,0,0,392.121,257.975Z"/><path d="M372.667,261.032a.494.494,0,0,1,.329.836c-.038.108-.07.215-.1.323-.712,2.27-1.068,4.6-1.607,6.912-1.1,4.379-2.663,8.649-3.995,12.941a150.066,150.066,0,0,0-3.429,26.76c-.318,5.758-.572,11.511-.7,17.27-.016.6-.027,1.2-.038,1.806-.1,5.483-.081,10.972.108,16.472-.022,10.854-.351,21.718-.782,32.556-.609,16,.216,31.941-.545,47.917a75.607,75.607,0,0,1-.242,8.514c.129.765-.464,1.65-1.326,1.429a1.072,1.072,0,0,1-.809-1.154c.528-5.861.021-11.792.194-17.686-.162-20,.485-40,1.278-59.973-.119-21.7-.777-43.523,2.507-65.041,1.423-9.857,5.322-19.142,8.1-28.615a4.367,4.367,0,0,1,.4-.917A.715.715,0,0,1,372.667,261.032Z"/><path d="M399.761,319.873a.687.687,0,0,1,.609.75q-.1.945-.177,1.892c-.523,5.618-.917,11.248-1.327,16.871-1.5,14.763-2.313,29.58-3.607,44.359-.873,11.851-2.475,23.621-3.645,35.44-.491,2.9-.011,14.963-2.717,15.566-1.807-.026-.022-8.071-.124-9.6.895-12,2.809-23.881,3.769-35.872,1.725-17.712,2.561-35.5,4.944-53.142.588-5.219,1-10.433,1.526-15.653a.674.674,0,0,1,.1-.285A.681.681,0,0,1,399.761,319.873Z"/><path d="M445.629,419.9a1.084,1.084,0,0,1-1.957.836c-4.572-9.042-8.082-18.591-12.282-27.8Q420.3,369.042,410,344.81c-3.656-7.263-6.481-14.908-9.8-22.3l-.486-1.067c-.194-.416-.393-.831-.593-1.251a67.761,67.761,0,0,1-2.739-6.325.8.8,0,0,1,.518-1,.814.814,0,0,1,1,.518c1.644,4.481,4.006,8.643,6.092,12.93,2.82,6.858,6.454,13.334,9.28,20.187,2.8,6.766,6.357,13.237,8.805,20.117,3.785,8.017,7.273,16.154,10.843,24.268,3,6.384,5.138,13.011,8.281,19.276A105.617,105.617,0,0,1,445.629,419.9Z"/><path d="M469.165,407.981a1.232,1.232,0,0,1-2.205,1.03c-2.793-5.166-4.589-10.956-6.632-16.348-2.944-6.541-5.123-13.485-7.8-20.128-3.532-7.683-6.276-15.685-9.754-23.4-2.615-6.039-4.47-12.5-6.988-18.516q-1.14-3.356-2.275-6.686c-.129-.388-.259-.77-.393-1.153-.378-1.127-.766-2.249-1.149-3.37-.027-.076-.048-.151-.075-.227,0,0-.006-.01-.011-.016-.561-1.666-1.133-3.321-1.7-4.982-.178-.528-.361-1.051-.545-1.58-2.07-6.028-4.162-12.051-6.3-18.116-1.865-6.044-4.976-11.6-7.009-17.572-3-7.446-7.522-14.229-11.932-20.877a.779.779,0,0,1-.3-.567.722.722,0,0,1,.421-.722.737.737,0,0,1,.992.4.6.6,0,0,1,.059.194c.5.658,1.052,1.273,1.58,1.909,9.522,11.469,14.644,25.811,19.7,39.646,1.968,6.287,4.674,12.364,6.756,18.564,2.6,8.164,5.747,16.095,8.686,24.107,4.162,11.205,9.01,22.312,13.582,33.3,2.6,7.025,5.268,13.959,8,20.861C465.455,398.6,467.628,403.182,469.165,407.981Z"/><path d="M429.718,351.993c-3.24-2.038-4.4-6.218-5.678-9.6-2.442-6.169-5.329-12.22-6.993-18.655-.359-3.687,3.628-5.337,6.373-6.688,2.2-1.1,3.779-3.128,5.985-4.2a.791.791,0,1,1,1.162,1.046c-1.515,1.117-2.867,2.457-4.391,3.572-1.919,1.4-4.288,2.064-6.158,3.477-1.918,1.55-.839,3.6-.129,5.473.865,2.453,1.7,4.758,2.782,7.09,1.087,2.7,2.39,5.362,3.525,8.028a26.215,26.215,0,0,0,3.452,6.989c2.493,3.507,7.987-.65,11.037-1.569a1,1,0,0,1,1.219,1.3C440.045,351.5,433.119,353.591,429.718,351.993Z"/><path d="M421.323,331.807c-.143-.458.218-.862.561-1.105a37.586,37.586,0,0,1,6.508-3.656c1.229-.5,6.046-3.581,5.154-.248-2.793,2.941-7.236,3.655-10.895,5.056A.711.711,0,0,1,421.323,331.807Z"/><path d="M430.318,325.442c-4.126.016-3.463-6.928.416-6.626.447.088,1.2.019,1.245.636-.014.735-.766.5-1.233.436a1.369,1.369,0,0,0-1.112.6,2.444,2.444,0,0,0-.35,2.245,1.2,1.2,0,0,0,1.385.759,3.122,3.122,0,0,0,1.779-.636.783.783,0,0,1,1.051,1.111A3.427,3.427,0,0,1,430.318,325.442Z"/><path d="M437.531,344.678c-1.1-3.058-2.315-6.172-3.537-9.155-.226-.9-2.658-5.942-.647-5.478,1.775,3.351,3.252,7.149,4.945,10.649.319,1.211,1.976,3.735.4,4.5A.985.985,0,0,1,437.531,344.678Z"/><path d="M364.432,363.754a1.139,1.139,0,0,1,.361-2.194c3.209.04,6.546.434,9.692-.188.31-.15.68-.266.746-.609,1.195-3.767,1.213-7.76,1.7-11.653.519-6.258,1.961-12.924-.179-19-.843-1.317-2.779-1.1-4.156-1.333-2.371-.2-4.713-.778-7.092-.847-1-.211-2.88.574-3.083-.9a.945.945,0,0,1,.906-.965,59.525,59.525,0,0,1,8.9.464c3.16.167,6.579.8,7.1,4.507,1.42,5.841.426,11.882-.134,17.772-.435,3.764-.466,7.635-1.57,11.285-.364,2.323-2.452,3.486-4.658,3.586C370.166,363.9,367.181,364.48,364.432,363.754Z"/><path d="M374.425,339.4a42.438,42.438,0,0,1-9.457-1.278,24.737,24.737,0,0,0-2.509-.549.709.709,0,0,1-.855-.919c.184-.568.86-.546,1.342-.468,4.58.706,9.163.82,13.744,1.413a1.011,1.011,0,0,1-.2,1.985A12.71,12.71,0,0,1,374.425,339.4Z"/><path d="M367.124,336.046c-.593-1.011.829-1.391,1.214-2.121a1.453,1.453,0,0,0-.1-1.767l.046.038.024.027-.088-.079c-.031-.025-.063-.049-.063-.056l-.033-.015-.064-.039.045.03c.005,0,.01,0,.063.04a2.245,2.245,0,0,0-1.952.106,2.55,2.55,0,0,0-.525,2.284c.932-.083,1.253,1.075.282,1.25a2.035,2.035,0,0,1-1.472-.588c-1.388-1.7-.435-5.206,2-5.3a3.329,3.329,0,0,1,3.338,5.317C369.315,335.917,367.877,337.034,367.124,336.046Z"/><path d="M366.526,360.49c.4-6.366.993-12.717.555-19.1a.855.855,0,1,1,1.709-.059c.109,6.41.691,12.845-.01,19.238A1.133,1.133,0,0,1,366.526,360.49Z"/><path d="M444.747,421.656c.007-.676.746-.892,1.272-.831,8.676-.03,16.92-4.084,23.185-9.915a.684.684,0,0,1,1.019.89c-4.761,6.081-14.439,10.109-22.025,10.7C447.125,422.342,444.882,423.22,444.747,421.656Z"/><path d="M448.546,434.288c-4.123.293-5.281-3.924-7.047-6.788-.658-1.923-2-3.642-2.291-5.667a3.237,3.237,0,0,1,3.5-3.454c1.485-.446,1.25,2.022-.125,1.3-2.127.719-2.168,2.415-1,4.069a43.748,43.748,0,0,0,2.814,5.441c.686,1.12,1.077,2.853,2.44,3.265a48.162,48.162,0,0,0,10.309-.725c2.972-1.355,6.323-2.122,9.045-3.878a15.119,15.119,0,0,0,5.592-4.13c.682-.644,4.2-5.741,4.173-2.863-1.753,3.361-4.165,6.788-7.721,8.379-1.5.549-2.894,1.267-4.351,1.909-2.333.559-4.535,1.411-6.789,2.184A49.147,49.147,0,0,1,448.546,434.288Z"/><path d="M475.976,418.3c-1.239-2.7-2.05-5.631-3.72-8.109-.692-1.3-1.461-2.278-3.07-1.762a.834.834,0,0,1-1.378-.939c1.1-.927,3.011-1.616,4.3-.669a32.4,32.4,0,0,1,3.7,6.249,15.359,15.359,0,0,1,1.871,4.869A.907.907,0,0,1,475.976,418.3Z"/><path d="M375.564,439.106c-5.318-1.038-11.327-.827-15.739-4.367-.453-.892,1.093-1.387,1.244-.414,5.218,2.925,11.641,2.8,17.455,2.835,2.652-.133,4.922-1.716,7.575-1.871a.742.742,0,0,1,.55,1.288,10.707,10.707,0,0,1-3.477,1.548A15.412,15.412,0,0,1,375.564,439.106Z"/><path d="M372.977,452.209c-5.811-.573-12.125-1.5-16.58-5.581-1.836-1.6-.885-4.161-.76-6.238.724-3.111-1.209-8.907,3.461-9.274a3.961,3.961,0,0,1,1.062.123.673.673,0,1,1,.184,1.332,2.548,2.548,0,0,0-2.727.858c-.787,2.318-.194,5.63-.637,8.26-.118,1.464-.545,3.058.9,3.909,5.328,4.05,12.841,4.842,19.338,4.75,3.283-.514,6.522-1.089,9.743-1.919a.634.634,0,0,1,.691.329c.32,1.086-1.432,1.309-2.1,1.779A28.676,28.676,0,0,1,372.977,452.209Z"/><path d="M389.4,446.739c1.215-2.2,1.38-4.979,1.849-7.393.077-1.988,1.024-4.278-.318-5.912-.51-.254-1.424-.15-1.2-1.054.226-.633.9-.473,1.348-.2,2.772,1.4,2,5.021,2.033,7.587-.437,2.22-.017,4.408-.9,6.448a3.367,3.367,0,0,1-1.957,1.7A.9.9,0,0,1,389.4,446.739Z"/><path d="M373.9,463.289c-3.077-.365-5.384-2.654-7.332-4.88-2.073.216-.536-3.072-.615-4.222.141-1.111.536-2.136.62-3.235a.517.517,0,0,1,.248-.367c.555-.225.708.446.593.858a36.011,36.011,0,0,1-.174,5.783c1.9,1.863,3.814,3.8,6.525,4.323.757.174,1.523.292,2.281.462a.651.651,0,0,1,.518.658C376.316,463.726,374.712,463.246,373.9,463.289Z"/><path d="M381.278,461.762a.668.668,0,0,1,0-.861c.277-.491.633-.908.518-1.512.325-3.014.443-6.122.922-9.1a.718.718,0,0,1,1.289.243c-.212,1.933.222,3.9.108,5.85-.148,1.332-.163,2.693-.335,4.017a1.274,1.274,0,0,1-.683.834C382.634,461.617,381.847,462.31,381.278,461.762Z"/><path d="M358.489,480.182c-6.052-.281-12.991-.522-17.707-4.783-1.876-1.417-3.2-4.39-1.068-6.184,6.168-2.873,13.235-3.861,19.212-7.295a24.713,24.713,0,0,0,6.7-4.75.683.683,0,0,1,.949.053.72.72,0,0,1-.249,1.1c-4.435,4.892-10.657,7.126-16.773,9.148-2.793.762-5.43,1.544-8.147,2.34-.767.293-1.551.767-1.487,1.69,2.787,9,23.081,6.614,30.459,5.59a47.547,47.547,0,0,1,8.112-.5c2.627.341,5.676-.185,5.419-3.489a46.493,46.493,0,0,0-.479-6.039c.043-.712-1.2-6.056.506-4.442a26.189,26.189,0,0,1,.981,10.46c0,2.356-1.331,4.574-3.8,4.934C373.581,478.705,366.092,480.245,358.489,480.182Z"/><path d="M356.32,484.469c-6.506-.123-21.791-4.91-17.6-13.715a.475.475,0,0,1,.822.44c-.083.168-.245.318-.269.5-1.322,8.413,13.244,10.909,19.324,10.645,5.52-.393,11.038-.792,16.526-1.461,2.6-.083,5.23.026,7.618-1.165-.028.012-.053.022-.086.033.6-.277.878-.949,1.224-1.478a.437.437,0,0,1,.825.211c.048,2.2-2.212,3.131-3.925,3.844-2.635.849-5.522-.1-8.206.405C367.129,483.223,361.8,484.654,356.32,484.469Z"/><path d="M355.661,471.9c-.488-.3-.511-.936-.576-1.451a10.557,10.557,0,0,0-1.359-4.437.71.71,0,1,1,1.349-.242,10.638,10.638,0,0,1,1.528,4.7c4.974-.937.056-3.516.331-6.256,1.086-2.817,3.526,3.716,3.31,4.745a2.941,2.941,0,0,1-2.172,2.427C357.312,471.627,356.465,472.274,355.661,471.9Z"/><path d="M361.545,468.862a1.307,1.307,0,0,1-1.046-1c-.409-1.592-.906-3.143-1.285-4.727l.011.022c-.4-1.04,1.374-1.152,1.1-.047,0,0,0,.007,0,0a14.375,14.375,0,0,1,1.41,4.548,12.69,12.69,0,0,0,2.788-.247c.218-.24-.014-.72-.049-.953A14.324,14.324,0,0,0,362,462.036a.725.725,0,0,1,.118-.939c1.754-1.026,3.706,4.8,3.543,6.1C365.4,469.051,362.958,468.809,361.545,468.862Z"/><path d="M458.078,437.9c-1.112-1.182-1.293-3-1.972-4.364a.761.761,0,0,1-.233-.656c1.206-2.247,2.745,2.7,3.056,3.624.243.473.649,1.114.071,1.509A.717.717,0,0,1,458.078,437.9Z"/><path d="M472.253,432.3c-.849-1.676-1.374-3.557-2.221-5.225a.655.655,0,0,1,1.191-.421,24.237,24.237,0,0,0,1.4,2.907c.335.745.979,1.4,1.025,2.242A.807.807,0,0,1,472.253,432.3Z"/><path d="M464.076,441.141c-1.788-.3-3.368-1.22-5.074-1.758a.776.776,0,0,1-.906-.97.759.759,0,0,1,.642-.512c1.834.4,3.768,1.094,5.571,1.491,2.7.185,4.946-1.687,6.594-3.594.823-.82,1.213-3.025,2.7-2.507.934.466.482,1.538.086,2.227A10.349,10.349,0,0,1,464.076,441.141Z"/><path d="M445.273,468.1c-4.628-.341-11.6-3.963-7.1-9.14,2.54-2.88,6.232-4.5,9.277-6.766,4.539-3.63,7.468-9.244,10.213-14.264a.63.63,0,0,1,.735-.58c1.232.337-.3,2.285-.431,3.1-2.2,4.384-4.814,8.839-8.638,12-2.863,2.853-12.019,5.808-11.4,10.331.563,1.664,2.387,2.482,3.963,2.9a11.311,11.311,0,0,0,4.087.734c3.778.18,7.364-1.318,10.827-2.648a76.909,76.909,0,0,0,13.021-6.643,66.568,66.568,0,0,0,6.972-3.461,6.994,6.994,0,0,0,3.971-2.662,4.45,4.45,0,0,0,.014-4.072,58.685,58.685,0,0,0-2.806-5.59c-.78-1.056-5.141-6.839-3.7-7.593.712-.345,1.046.534,1.332,1.025a36.188,36.188,0,0,1,2.509,3.763,28.392,28.392,0,0,1,3.772,6.5c1.148,2.162,1.743,4.851-.049,6.853-1.287,1.794-3.241,2.73-5.15,3.687-2.12,1.69-4.825,2.286-7.019,3.824a104.057,104.057,0,0,1-11.916,5.844C453.759,466.83,449.649,468.5,445.273,468.1Z"/><path d="M447.226,472.752c-6.074-.2-13.1-2.95-10.433-10.3a.343.343,0,0,1,.431-.221c.537.256-.034.935-.059,1.341a6.592,6.592,0,0,0,.654,3.643c1.491,2.718,4.735,3.519,7.567,3.866,3.692.559,7.234-.782,10.629-2.078a70.26,70.26,0,0,0,13.636-6.8c3.748-2.478,8.151-3.686,11.9-6.135.459-.437,1.075-.832,1.3-1.423a3.571,3.571,0,0,0-.156-1.747,8.826,8.826,0,0,1-.794-2.034.849.849,0,0,1,1.4-.707,4.585,4.585,0,0,1,1.235,5.074c-1.311,3.071-5.327,4.4-8.231,5.582-5.169,2.231-9.462,5.905-14.636,8.07C456.934,470.342,452.27,472.872,447.226,472.752Z"/><path d="M450.656,456.618a22.028,22.028,0,0,1-2.151-2.572c-.365-.475-1.283-1.105-.534-1.677.33-.229.667-.048.938.151a4.858,4.858,0,0,1,2.813,2.73,24.159,24.159,0,0,0,2.626-1.15h0c-.738-1.555-2.794-2.329-3-4.178a.674.674,0,0,1,1.105-.56c1.611,1.4,5.294,4.7,2.146,6.3C453.413,456.015,451.838,457.415,450.656,456.618Z"/><path d="M456.379,451.683c-1.6-.557-2.024-2.478-3.17-3.568a.657.657,0,0,1-.513-.827c.89-1.736,3.184,2.633,4.1,3.063a3.241,3.241,0,0,0,2.393-1.443c-.683-1.458-2.213-2.3-3.386-3.334-.874-.622-.286-2.133.8-1.656C460.985,446.264,463.051,451.22,456.379,451.683Z"/><path d="M243.845,444.175c14.666,1.023,23.722-11.422,25.994-24.629.529-3.132.636-6.683,1.073-9.727.173-1.082.2-2.482,1.168-3.167-6.806-1.59-13.978-.27-20.913-.785a148.943,148.943,0,0,0-25.029,1.4c-3.014.264-6.075-.242-9.044.459C223.033,421.414,224.516,444.055,243.845,444.175Zm9.08,36.2a72.685,72.685,0,0,0,16.375-2.131c4.445-2.422,4.988-8.14,5.574-12.608.353-4.87.983-9.423,1.349-14.243.727-7.463.249-14.948.518-22.408a78.24,78.24,0,0,0-.092-16.968,8.407,8.407,0,0,0-2.3-4.11c-.694,4.692-.6,9.566-1.76,14.182-1.556,5.367-3.543,10.851-7.112,15.215-7.462,9.642-22.258,12.754-32.782,6.422-11.313-7.549-12.76-22.514-17.859-34.121-.554,10.415.035,20.909.241,31.276.165,5.015-.009,10.041.026,15.038.164,6.212,1.333,12.393,1.169,18.627a3.9,3.9,0,0,0,2.216,4.047c6.228,1.956,12.782,1.04,19.151.763C242.8,478.662,247.851,479.622,252.925,480.377Zm.232,2.879c-3.815-.164-7.739-1.507-11.566-1.235-7.151-.11-25.873,3.367-26.738-6.783-.348-5.111-.618-10.227-1.283-15.313-.472-9.27.095-18.66-.253-27.908-.1-5.658-.129-11.219,0-16.862.3-2.962-.153-6.235.617-9.04,3.576-2.6,8.7-1.46,12.808-2.058a102.392,102.392,0,0,1,18.389-1.448c7.234-.078,14.478.206,21.713.2,9.89-.094,13,5.3,13.267,14.469.444,5.251-.537,10.525-.6,15.786.2,11.677-1.29,23.307-2.728,34.838-.713,4.817-2.152,10.366-6.886,12.664A59.337,59.337,0,0,1,253.157,483.256Z"/><path d="M256.179,403.259c.032-.135.08-.267.121-.4l.084-.275c-.353-1.131.446-3.2.655-4.438,1.742-7.545,3.122-15.2,5.618-22.554,1.757-4.379,2.475-9.6,5.613-13.21,1.294-.58,1.969.816,1.672,1.931-1.637,11.086-5.858,21.562-9.069,32.248-.731,2.416-1.476,4.883-2.333,7.252a1.337,1.337,0,0,1-1.247.919A1.193,1.193,0,0,1,256.179,403.259Z"/><path d="M264.719,403.365a3.324,3.324,0,0,1,.186-.765.89.89,0,0,1,.094-1.07c2.26-6.1,4.34-12.273,7.059-18.195,1.349-3.142,2.575-6.3,3.989-9.382.962-1.87,1.675-4.222,3.527-5.381,1.536-.3,1.248,1.464.82,2.356-3.487,8.531-6.911,17.184-10.521,25.614-.9,2.2-1.686,4.447-2.431,6.7a1.89,1.89,0,0,1-1.051,1.37A1.264,1.264,0,0,1,264.719,403.365Z"/><path d="M247.956,404.871a1.352,1.352,0,0,1-.864-.547c-1.182.384-1.843-1.536-.9-2.155,1.236-10.84,1.172-21.993,4.754-32.415.611-1.264.845-3.672,2.637-3.607,3.088.67-1.106,17.187-1.225,20.181-.247,3.339-.966,6.879-1.412,10.116-.224,2.174-.777,4.289-1.138,6.443C249.739,403.871,249.117,405.105,247.956,404.871Z"/><path d="M288.97,476.845c8-.983,16.571.949,24.443-1.519a180.575,180.575,0,0,1-.837-21.939v.162c-.017-1.894-.154-3.7-.331-5.576-7.5.346-15.256-1.274-22.649.388-.785.323-1.786.4-2.369,1.048a9.8,9.8,0,0,0-.532,2.4A90.055,90.055,0,0,0,288.97,476.845Zm9.063,2.812c-2.278-.445-8.888.942-9.627-1.532-1.548.44-1.45-1.664-1.727-2.647-1.552-7.47-3.05-14.955-2.033-22.608.214-2.757,1.036-5.754,4.081-6.444,7.243-2.241,14.986-.724,22.366-.738,1.266.179,3.094.1,3.3,1.736.781,3.567.64,7.25.684,10.881-.024,4.946.557,9.762.788,14.687.007,1.481.678,3.783-1.106,4.448A46.639,46.639,0,0,1,298.033,479.657Z"/><path d="M285.635,453.093a.951.951,0,0,1,1.214-1.09c1.248-.113,2.5-.453,3.742-.657a60.683,60.683,0,0,1,15.307-.405c1.671.205,7.777-1.575,6.384,1.715a1.976,1.976,0,0,1-1.5.733c-4.091.872-8.216-.171-12.3-.124-3.911.221-7.581-.049-11.406.4A.948.948,0,0,1,285.635,453.093Z"/><path d="M325.3,475.4c-.224-2.559-1.194-5.267-1.629-7.792a58.66,58.66,0,0,1-.264-13.258c.19-1.735-.176-3.57.378-5.241,1.072-1.7,3.211-2.553,5.1-2.884,4.215-.763,8.2.616,12.24,1.434,1.323-.121,2.21.931,3.429,1.185,1.772.652.977,3.139,1.046,4.595a31.152,31.152,0,0,0,.135,5.445c-.007,1.239.621,3.407-1.122,3.683-1.175.091-1.506-1.138-1.488-2.087a42.8,42.8,0,0,1,.2-9.75,9.448,9.448,0,0,1-1.788-1.1c-1-.142-2.059-.034-3.065-.2a18.855,18.855,0,0,0-5.289-.8c-2.441-.147-5.175-.324-7.246,1.211-.357.149-.309.721-.3.951.152,3.128-.014,6.363,0,9.474C325.19,461.972,328.177,477.62,325.3,475.4Z"/><path d="M328.376,477.7c-1.027-.077-3.029-.171-2.76-1.65a1.027,1.027,0,0,1,1.945-.442c1.265.09,3.529-.874,3.867.895C331.47,478.135,329.463,477.764,328.376,477.7Z"/><path d="M335.392,454.6c-2.875-.349-5.859-1.488-8.746-.841a.86.86,0,0,1-1.121-.62c-.355-1.808,5.416-1.553,6.621-1.494,3.06.246,5.771.977,8.756.383a1.232,1.232,0,0,1,1.257.815C342.618,455.676,337.083,454.848,335.392,454.6Z"/><path d="M338.219,446.693a.548.548,0,0,1-.345-.7,41.941,41.941,0,0,0,1.434-6.513,89.122,89.122,0,0,1,4.875-19.362c.3-1.008,1-2.307,2.194-1.553,1.117.917.12,2.518-.054,3.672-1.452,4.928-2.934,9.847-4.286,14.8a63.768,63.768,0,0,0-1.688,6.913c-.041.706-.231,1.724-1.16,1.595C338.985,446.007,338.924,446.885,338.219,446.693Z"/><path d="M333,445.965a1,1,0,0,1-.949-1.041c.594-7.491-.019-15.122.194-22.543a1.314,1.314,0,0,1,2.453.3,6.887,6.887,0,0,1,.13,1.455c.143,3.77.028,7.385-.13,11.134-.105,3.253-.352,6.51-.658,9.754A1.009,1.009,0,0,1,333,445.965Z"/><path d="M300.012,444.688c-.1-3.255-.253-6.516-.345-9.77-.125-1.081-.072-2.628,1.327-2.739,2.242-.025,1.476,2.784,1.639,4.232V436.4c.058,2.748.1,5.325.258,8.048a1.445,1.445,0,1,1-2.88.238Z"/><path d="M305.057,445.731a1.066,1.066,0,0,1-.253-1.251c.763-2.82-.154-5.905.539-8.74a1.541,1.541,0,0,1,2.993.55C308.117,437.872,307.817,447.584,305.057,445.731Z"/><path d="M309.13,446.494c-2.036-.963.289-3.6.55-5.112.793-1.314,1.091-5.374,3.112-4.836,2.105.822-.617,4.717-.89,6.1C311.078,443.853,311.114,446.93,309.13,446.494Z"/><path d="M10.719,491.468c-4.125-1.762-4.148-6.016-3.165-9.786,1.33-6.414,3.393-12.651,5.273-18.914C18.445,444.74,24,426.676,30.491,408.936c7.732-23.168,14.931-46.517,22.214-69.825,9.9-30.633,19.559-61.337,28.167-92.367.415-1.391.825-2.788,1.251-4.173a.994.994,0,1,1,1.9.593C69.829,295.629,53.283,347.4,36.756,399.171c-6.814,20.466-13.692,40.907-19.934,61.564-2.41,8.443-5.884,16.824-6.756,25.516.132,1.282,1.464,2.723,2.8,2.405,1.169-.094,2.581-1.621,3.544-.288a1.329,1.329,0,0,1-.323,1.823A5.36,5.36,0,0,1,10.719,491.468Z"/><path d="M93.6,499.966c-5.187-.106-5.116-6.45-4.082-10.185.967-4.35,2.062-8.893,3.03-13.1,2.588-10.529,4.19-21.283,7.047-31.742,3.157-10.707,5.935-21.517,8.957-32.259,6.7-24.472,12.953-49.088,19.062-73.713,5.15-22.982,10.57-45.909,17.367-68.471,2.485-10.9,4.942-21.814,7.255-32.754a1.093,1.093,0,0,1,1.24-.879,1.08,1.08,0,0,1,.879,1.235c-1.364,6.459-2.777,12.913-4.189,19.362-3.386,16.58-8.465,32.9-12.29,49.333-10.232,44.7-20.969,89.34-33.708,133.407-3.375,10.433-5.224,21.077-7.6,31.725-1.451,7.726-4.178,14.9-4.66,22.639a3.71,3.71,0,0,0,1,2.247,6.2,6.2,0,0,0,3.015.1c.757-.333,1.77-.551,2.227.345C98.871,499.489,95.185,500.168,93.6,499.966Z"/><path d="M97.587,498.516a1.546,1.546,0,0,1-1-1.92c.647-2.663,1.467-5.284,2.206-7.926q5.047-18.219,9.739-36.543c2.439-10.427,4.1-21.012,6.193-31.512,3.189-16.082,8.077-31.885,11.587-47.858,6.728-25.239,11.978-50.984,18.182-76.246-.005.022-.01.045-.016.067l-.006.03c2.562-11.265,5.787-22.37,8.471-33.527,1.594-6.653,2.827-13.4,4.5-20.03a.939.939,0,0,1,1.175-.61.95.95,0,0,1,.615,1.17c-.777,3.106-1.474,6.148-2.114,9.274-3.376,16.753-8.083,33.2-11.539,49.913-7.541,35.122-15.5,70.137-24.56,104.885-3.882,15.764-5.716,31.953-9.607,47.709-1.909,7.487-3.98,14.937-6.007,22.392-1.829,6.617-3.552,13.273-5.893,19.729A1.562,1.562,0,0,1,97.587,498.516Z"/><path d="M15.728,488.969c-1.329-1.276.361-3.137.5-4.631,2.637-8.362,5-16.809,7.456-25.218,7.762-23.987,15.892-47.833,22.576-72.148,7.949-24.743,15.135-49.7,21.255-74.952q9.644-30.769,19.378-61.526a.992.992,0,1,1,1.893.593c-6.367,19.9-11.888,40.049-18.139,59.984-2.921,10.1-4.619,20.42-7.656,30.48-3.572,14.877-8.622,29.328-12.806,44.035-4.865,16.866-9.583,33.768-15.393,50.344-4.62,13.853-8.843,27.82-12.995,41.819-.974,3.061-1.941,6.132-2.949,9.182C18.56,488.324,17.238,490.158,15.728,488.969Z"/><path d="M89.513,249.478a.922.922,0,0,1,.889-.938c6-.383,12.013-.3,18.025-.459,12.774-.155,25.3-1.945,37.894-3.714,1.56.134,5.281-1.163,5.37,1.2-.2,1.729-3.546,1.02-4.847,1.359a304.59,304.59,0,0,1-49.066,3.219c-2.453-.011-4.905.134-7.356.226A.917.917,0,0,1,89.513,249.478Z"/><path d="M76.707,242.683c-1.814-.448-1.7-2.572-2.189-3.968-.815-2.7-.132-5.356,2.922-5.969,3.7-1,7.466-1.023,11.261-1.308a176.551,176.551,0,0,1,20.146-1.339c10.54-.706,21.093-1.086,31.623-1.925,3.545-.2,7.1-.374,10.641-.669,4.759-.053,12.686-3.007,15.683,1.828,1.3,2.038.41,6.666-2.389,6.842-3.549.328-7.108.634-10.617,1.257-5.78.346-11.6.291-17.367.987-11.252.751-22.232,2.1-33.446,2.56-4.109.219-8.226.452-12.331.734-1.3.1-2.609.221-3.919.275a.847.847,0,0,1-.038-1.693c1.706-.061,3.415-.247,5.111-.41,6.01-.759,11.927-1.012,17.934-1.472-.035,0-.069,0-.1,0,11.2-1.134,22.4-2.406,33.629-3.138,7.009-.478,14.1.191,20.994-1.331,3.679-8.707-10.747-4.129-14.955-4.168-6.639.541-13.219,1.352-19.853,1.984-15.824,1.176-31.772,1.626-47.547,2.882a17.527,17.527,0,0,0-4.767,1.027c-.834,1.127.089,2.783.267,4.044.111.353.1.835.454,1.042.459.221.98.54.9,1.125C78.636,242.83,77.429,242.838,76.707,242.683Z"/><path d="M158.6,241.016c.11-1.137.1-2.219.162-3.359.694-1.692,2.595-.405,1.877,1.132C160.228,239.388,159.531,242.5,158.6,241.016Z"/><path d="M108.17,398.3c-6.83-33.048-11.794-66.394-16.656-99.77-1.36-8.715-2.437-17.475-3.634-26.215-.518-3.931-1.051-7.861-1.5-11.8a.946.946,0,0,1,.8-1.051.934.934,0,0,1,1.052.792c2.124,18.262,5.434,36.34,8.432,54.468,2.839,18.01,5.483,36.046,8.778,53.984.961,6.1,2.061,12.189,3.368,18.226.266,1.984,2.907,11.938.552,12.146A1.088,1.088,0,0,1,108.17,398.3Z"/><path d="M112.84,387.553c-3.683-17.216-4.9-34.867-7.894-52.209-1.131-6.837-2.716-13.724-4.2-20.464-2.414-13.307-4.153-26.8-6.939-40.036l.007.033,0,.008c-.472-3.051-6.135-26.134-3.343-26.387a.935.935,0,0,1,.866,1.478c1.174,8.284,3.539,16.235,5.227,24.4,2.15,9.989,3.8,19.985,5.554,30.037a181.869,181.869,0,0,0,3.655,18.257c1.874,8.707,3.155,17.523,4.352,26.345,1.19,8.653,2.452,17.283,3.666,25.929.471,3.319,1.309,6.756,1.564,10.077.021,1.3.6,3.116-1.052,3.483A1.347,1.347,0,0,1,112.84,387.553Z"/><path d="M128.586,476.588c-2.017-.843-2.8-3.153-3.305-5.106-.823-2.784-1.518-5.646-2.092-8.481-.817-3.988-1.68-8-2.524-11.979-1.8-8.759-3.343-17.563-4.349-26.449a.81.81,0,0,1,.484-1.154c1.395-.236.935,1.669,1.229,2.481,2.829,12.064,5.4,24.3,7.732,36.459.539,2.583,1.1,5.177,1.882,7.711.511,1.618.845,4.15,3.022,3.851,6.087-4.464-2.314-25.336-3.551-32.067-2.4-10.434-6.384-20.636-7.316-31.343a1.451,1.451,0,0,1,2.766-.577c3.189,15.923,7.785,31.62,11.544,47.432l-.01-.046v-.008a65.026,65.026,0,0,1,1.3,9.172c.125,2.839.227,6-1.586,8.379A4.13,4.13,0,0,1,128.586,476.588Z"/><path d="M198.326,471.2c-4.356.142-5.727-3.987-6.033-7.613-.5-3.05-1.018-6.1-1.585-9.134-1.976-9.9-4.311-19.586-6.573-29.407-6.669-25.57-12.188-51.349-16.741-77.346-4.84-24.546-9.123-49.2-12.364-74.008-.6-4.2-1.343-8.379-2.049-12.558a.808.808,0,1,1,1.6-.226c3.151,15.683,4.878,31.61,7.883,47.313,6.813,32.195,12.561,64.714,19.939,96.73,4.041,14.961,7.326,30.114,10.735,45.226,1.225,5.346,1.836,10.9,3.014,16.225.549,1.852,2.674,1.593,4.206,1.39a1.5,1.5,0,0,1,1.52,2.545A5.475,5.475,0,0,1,198.326,471.2Z"/><path d="M201.694,469.345c-3.49-21.146-8.7-41.89-13.9-62.654-3.221-13.8-6-27.7-9.479-41.447-4.853-22.335-10.315-44.489-13.744-67.052-2.621-16.17-6.079-32.2-8.109-48.457a1.086,1.086,0,0,1,2.151-.3q.422,3.292.916,6.573c3.875,19.121,7.265,38.5,10.634,57.671,6.231,29.23,13.3,58.292,19.982,87.4,4.351,17.756,8.869,35.551,12.233,53.518a83.036,83.036,0,0,1,2.163,11.643c.08,1.473.824,3.809-1.148,4.216A1.554,1.554,0,0,1,201.694,469.345Z"/><path d="M83.053,265.671c-.188-1.491,1.716-1.335,2.718-1.493,3.433-.277,6.877-.549,10.32-.739,8.7.091,17.288-1.028,25.975-.831a211.734,211.734,0,0,1,26.236-.151c1,.417.184,1.941-.709,1.269-10.339-.077-19.294.723-29.326.9-7.017.125-14.021,1.258-21.016,1.008-3.838.19-7.674.456-11.507.7C84.82,266.373,83.375,266.9,83.053,265.671Z"/><path d="M79.928,287.112c-.761-.179-2.159.093-2.2-.981.05-.719.828-.81,1.386-.621,2.494.591,5.036-.087,7.548-.178,3.731-.043,7.4-.017,11.1.017q22.077.021,44.078-.642a.778.778,0,0,1,.593.987c-.34.9-1.368.315-2.071.431-5.956.166-11.886.932-17.846.911-4.6-.088-9.007-.025-13.54-.056C99.283,287.353,89.592,286.741,79.928,287.112Z"/><path d="M94.9,312.943c-5.641-.187-11.423-.515-17.033-.62a45.53,45.53,0,0,1-5.025,0,.809.809,0,0,1-.749-.734c-.341-1.984,11.183-.506,12.956-.766,8,.079,16.019.164,24.021.044h-.119c7.718.2,15.207-.913,22.889-1.073.881.133,5.189-.4,4.464,1.089a.587.587,0,0,1-.818.17c-6.539-.214-12.917,1.524-19.444,1.626C108.912,312.753,101.963,312.785,94.9,312.943Z"/><path d="M127.842,338.91c-6.451-.6-12.886-1.318-19.357-1.7-3.913-.34-7.562-1.315-11.49-1.235-11.456-.641-22.944-.4-34.383-.383a.76.76,0,0,1-.114-1.515c12.92-.253,25.813-.431,38.708-.017,7.087.972,14.258,1.277,21.373,1.981a31.081,31.081,0,0,1,5.614.964.978.978,0,0,1-.351,1.908Z"/><path d="M120.143,369.579a77.6,77.6,0,0,1-16.176-1.391c-5.818-.8-11.692-1.163-17.518-1.887.036.007.073.011.108.016-4.208-.554-8.484-.355-12.687-.96-5.731-.634-11.426-1.535-17.2-1.243-.662.607-1.546-.533-.7-.983a2.681,2.681,0,0,1,.8-.184c6.716-.987,13.461-.48,20.166.184,6.7.214,13.49.916,20.121,1.633,5.368.451,10.465,1.691,15.788,2.222,1.777.37,8.237-.53,8.358,1.628A1.033,1.033,0,0,1,120.143,369.579Z"/><path d="M100.943,395.131a160.509,160.509,0,0,0-16.989-.172c-8.829-.629-17.675-1.223-26.5-1.969-2.809-.227-5.527.35-8.32.124a1.047,1.047,0,0,1-.976-.949c-.071-1.908,4.07-1.007,5.376-1.321,9.669.261,19.351,1.048,29.008,1.742,8.6-.13,17.167.346,25.752.83,1.9.053,3.811.065,5.716.1a.684.684,0,1,1,.018,1.219C109.633,394.736,105.294,395.541,100.943,395.131Z"/><path d="M104.728,418.072c-3.922-.279-7.924-.883-11.781-1.224-6.612.247-13.095-.608-19.67-1.051-6.518.159-12.981-.69-19.486-.987a70.371,70.371,0,0,1-11.939-.757.813.813,0,0,1-.182-1.5c.378-.219.751.054,1.126.062,4.916.382,9.87-.337,14.759-.014,7.252.507,14.523.23,21.74.961,7.819.572,15.549.4,23.33,1.482a14.232,14.232,0,0,1,4.9,1.041,1.132,1.132,0,0,1-.394,2.14A17.868,17.868,0,0,1,104.728,418.072Z"/><path d="M99.151,445.244c-7.494-.571-15.026-.831-22.539-1.1a166.314,166.314,0,0,1-19.091-.118c-8.429.514-16.956-.57-25.352.041a.719.719,0,0,1-1-.16c-1.728-2.859,16.366-2.131,18.2-2.308H49.2c6.532-.366,12.934-.027,19.449.124,8.176-.289,16.33.082,24.5.425,2.495.106,5.283-.263,7.446,1.046C101.688,444.262,100.463,445.624,99.151,445.244Z"/><path d="M129.856,442.8c-.906.044-2.262-.377-1.925-1.531a1.031,1.031,0,0,1,1.538-.624c11.725-.79,23.482-1.476,35.2-2.525,7.546-.356,15-1.854,22.57-1.876a.617.617,0,0,1,.1,1.229c-9.087.859-18.021,2.636-27.164,3.019C150.09,441.6,139.966,442.176,129.856,442.8Z"/><path d="M128.823,421.808a5.105,5.105,0,0,1-1.9-.442.884.884,0,0,1,.421-1.676c6.864-.521,13.722-1.029,20.613-1.187,11.421-1,22.8-2.434,34.119-4.055a.709.709,0,0,1,.108,1.413C164.6,419.5,146.635,420.02,128.823,421.808Z"/><path d="M129.051,397.2a.941.941,0,0,1-.026-1.774c2.417-.706,5.149-.566,7.6-.976,7.438-1.105,14.811-2.549,22.246-3.661l-.086.01-.043.006c5.354-.71,10.632-1.819,15.955-2.541a.68.68,0,0,1,1.067.169c.584,1.352-3.017,1.542-3.888,1.935-7.18,1.807-14.514,2.486-21.756,3.834C143.165,395.41,136.1,397.189,129.051,397.2Z"/><path d="M133.084,369.651c-.969-.292-.544-1.9.46-1.551,7.226-.956,14.485-1.475,21.76-1.819,4.973-.216,9.921-1.277,14.876-1.373.977.236.372,1.75-.5,1.213-6.445.858-12.822,2.29-19.365,2.323C144.559,368.473,138.8,369.514,133.084,369.651Z"/><path d="M140.41,345.507a.914.914,0,0,1,.318-1.731c2.653-.2,5.4-.2,8.007-.222,5.544-.067,11.086-.434,16.632-.836a.747.747,0,1,1-.2,1.476c-6.21.385-12.377,1.056-18.6,1.455C144.435,345.659,142.408,346.11,140.41,345.507Z"/><path d="M144.89,314.255c-.132-1.69,2.851-1.081,3.958-1.343,3.245-.174,6.482-.459,9.7-.889a.708.708,0,0,1,.108,1.412c-3.648.484-7.322.743-10.975,1.221C146.786,314.672,145.253,315.491,144.89,314.255Z"/><path d="M152.1,290.9c.024-1.49,1.969-1.016,2.958-1.278a1.149,1.149,0,0,1,1.916.437c.145,1.41-1.987,1.434-2.922,1.655C153.3,291.877,152.192,291.917,152.1,290.9Z"/><path d="M68.905,123.382c-4.007-.06-7.754-1.522-7.08-6.27.1-5.226.487-10.434.275-15.663.144-8.94.9-17.873.674-26.82.188-1.236-.77-3.749.976-3.952a1.018,1.018,0,0,1,.992,1.025c.124,6.276.1,12.557,0,18.839-.268,7.7.274,15.4-.129,23.1-.013,5.281-1.336,7.479,5.355,7.109,7.438-.715,15.23-.432,22.618-.967,6.184-.247,12.311-1.432,18.494-1.391,6.931.02,13.93,1.024,20.812-.151,7.777-1.585,15.7-.414,23.562-.928,3.734.2,7.148-.573,10.784-1.056,3.49-.334,7.032.305,10.429.377,1.036-.157,2.746-.018,3.074-1.226.265-3.027-.133-6.075-.045-9.116a143.1,143.1,0,0,0,.07-16.978c-.157-3.761-1.3-7.4-1.229-11.178-.044-3.525.324-7.135-.406-10.6-3.775-.692-7.675.494-11.51.239a322.172,322.172,0,0,0-32.95.566c-9.568.006-19.209-.491-28.695.917-10.308,1.509-20.736,1.65-31.1,2.469a24.051,24.051,0,0,0-6.018.939,1.237,1.237,0,0,1-1.44-.739c-.664-1.932,3.212-2.64,4.5-3.1,8.709-1.042,17.533-.962,26.259-1.919,5.989-.58,11.924-1.682,17.949-1.833,10.168-.148,20.328.053,30.48-.712,8.98-.491,17.974.514,26.948.079,2.707.067,6.587-1.015,8.234,1.77,1.147,3.417.47,7.161.539,10.7.107,6.68,1.689,13.1,1.472,19.956-.072,5.227-.845,10.058-.717,15.226.6,6.376-2.064,7.318-7.921,6.95a41.768,41.768,0,0,0-13.317,1c-7.143.625-14.325.411-21.486.431-4.465.23-8.813,1.39-13.292,1.4-6.438.063-12.864-.885-19.3-.437.039,0,.135-.005.145-.011C94.3,122.956,81.563,123.16,68.905,123.382Z"/><path d="M176.785,114.337c-4.419-1.65-8.883-3.095-13.152-5.124-8.931-3.089-18.314-4.61-27.335-7.288-12.269-3.678-24.969-7.032-36.993-11.307C88.094,86.733,77.836,80.86,67.422,75.289c-.667-.366-1.87-.752-1.385-1.7.521-.74,1.223-.166,1.809.157,10.47,4.823,20.787,10.2,31.717,13.926,14.835,4.778,29.853,9.073,44.888,13.184,8.986,1.842,17.988,3.985,26.3,7.916,1.975.949,8.774,1.919,7.811,4.743A1.5,1.5,0,0,1,176.785,114.337Z"/><path d="M66.164,120.01a.941.941,0,0,1,.523-1.208A119.024,119.024,0,0,0,79.8,111.9c20.314-11.469,41.329-21.781,62.651-31.175,6.954-3.583,14.32-6,21.607-8.773,2.382-.694,13.025-6.445,13.943-3.726a1.35,1.35,0,0,1-.609,1.672c-5.725,2.11-11.208,4.7-16.876,6.912a199,199,0,0,0-18.818,7.7,103.364,103.364,0,0,0-12.6,5.969c-7.57,3.368-15.1,6.854-22.516,10.5-8.991,4.675-18.212,8.929-27.186,13.528-3.995,2.037-7.882,4.3-12.023,6.033A.939.939,0,0,1,66.164,120.01Z"/><path d="M208.135,118.418c-2.775-1.393-1.466-5.175-1.515-7.657.412-5.125-.145-10.313.676-15.4-.045-7.457-.089-14.929-.471-22.381a1.211,1.211,0,0,1,1.208-1.2,1.226,1.226,0,0,1,1.2,1.208c.205,3.844.334,7.689.415,11.533.431,10.475-.177,21.156-.484,31.561,3.911-.185,7.736-1.582,11.672-1.927,3.279-.405,6.619-.319,9.9-.533,12.824-.818,25.628-1.934,38.442-2.869,14.487-.771,28.915-2.414,43.41-3.133,10.805.085,21.583-.948,32.389-.421q31.677.9,63.343,1.122c7.472-.207,14.873,1.266,22.341.9,5.446-.671,10.879-1.659,16.394-1.331,3.168-.167,7.841.944,9.477-2.552.785-5.719-.579-11.355-1.411-16.967-1.109-9.072.41-18.569-1.72-27.461.029.041.055.083.082.124l.049.1c-.015-.033-.031-.066-.023-.064a2.516,2.516,0,0,0-.27-.372,3.418,3.418,0,0,0-1.5-.925c-3.933-1.1-7.857-.364-11.848-.364-7.936.367-15.95-.551-23.869.006.044,0,.089,0,.134-.006h.012c-5.46.461-10.86.457-16.327.5-5.243.095-10.441.864-15.685.965-11.608.1-23.233,1.242-34.839,1.211-7.537.8-15.095.722-22.659.951-7.551.8-15.135.868-22.714.961q-11.351,1.173-22.746,1.31c-9.253,1.2-18.641.928-27.87,2.08-7.318,1.013-14.758.606-22.047,1.925-5.319,1-10.783.439-16.094,1.537-1.095.185-1.671-1.594-.513-2,5.314-2.174,11.075-1.217,16.58-2.367,6.071-1.121,12.234-1.262,18.37-1.687a125.908,125.908,0,0,1,15.75-1.408c9.248-.5,18.339-1.619,27.568-1.725,8.3-.986,16.616-1.074,24.954-1.264,7.68-.852,15.378-.867,23.094-.965,7.7-.771,15.422-.734,23.149-.877,7.84-.834,15.744-.79,23.6-1,7.856-.835,15.734-.774,23.617-.9a163.881,163.881,0,0,1,16.542-.232,145.631,145.631,0,0,0,15.981.021c4.183-.021,9.745-.821,12.332,3.236,2.74,9.148.88,19.006,1.717,28.424.564,4.863,1.746,9.623,1.636,14.554.71,4.955-2.392,8.269-7.365,8.25-4.165.272-8.368-.169-12.52.15-5.622.575-11.213,1.639-16.887,1.079a210.183,210.183,0,0,0-23.886-.679c-8.083-.235-16.156-.77-24.247-.5-14.8-.071-29.616-1.218-44.418-.642-6.853.527-13.954.264-20.775.6-6.326.463-12.994,1.077-19.243,1.235-11.3,1.282-22.655,1.541-33.98,2.5-12.121.815-24.353,1.182-36.443,2.146-2.983.471-5.6,1.058-8.5,1.65A5.273,5.273,0,0,1,208.135,118.418Z"/><path d="M219.289,80.332c.106-1.281,1.649-.86,2.541-.982,9.74-.551,19.394-2.049,29.1-2.922,19.467-2.169,39.046-2.54,58.609-2.47,11.7.734,23.414.929,35.128,1.333,16.074-.111,31.866-1.254,47.879-1.51,16.671-.2,33.365-.344,50.026.022a31.915,31.915,0,0,1,5.78.808.916.916,0,0,1-.017,1.758,29.091,29.091,0,0,1-7.343.539c-12.616.35-25.226.007-37.84.189-17.179.187-34.338.814-51.514,1.121-19.57-.119-39.1-2.022-58.673-1.472-16.115-.064-32.162,1.318-48.209,2.534-8.188.595-16.34,1.669-24.549,1.99A.936.936,0,0,1,219.289,80.332Z"/><path d="M224.678,97.462a.772.772,0,0,1,.771-.76q8.217-.226,16.44-.544c7.352-.3,14.688-.682,22.047-.5,9.591-.147,19.284-.8,28.863-.863,23.661-1.575,47.365-1.308,71.064-1.435,16.467-.511,32.933-1.9,49.389-1.439,11.142-1.368,22.344-1.05,33.521-1.876a1.223,1.223,0,0,1,1.2,1.067c.028,1.964-2.794,1.467-4.119,1.893-6.4,1.041-12.887.153-19.33.323a180.562,180.562,0,0,1-22.565.847c-25.184,1.707-50.291,2.826-75.512,2.27-17.971.556-35.955.511-53.924,1.154-8.6.342-17.2-.454-25.8.037-7.094.192-14.187.416-21.282.593A.765.765,0,0,1,224.678,97.462Z"/><path d="M326.542,239.9a1.466,1.466,0,0,1,1.262-1.618c3.387-.389,6.786-.491,10.191-.561,3.107-.026,6.214-.244,9.317.033a1.5,1.5,0,0,1-.216,2.982c-2.5-.151-5.014-.114-7.516-.108a90.381,90.381,0,0,0-11.42.533A1.47,1.47,0,0,1,326.542,239.9Z"/><path d="M347.824,249.87c-5.992-.228-12.01.076-18-.281a.837.837,0,0,1-.9-.317c-.754-1.587,1.618-1.285,2.534-1.364,4.453-.262,8.885-.9,13.35-.939a57.743,57.743,0,0,1,8.32.556,1.152,1.152,0,0,1,.981,1.132C354.1,250.625,349.256,249.63,347.824,249.87Z"/><path d="M328.669,262.256c-1.311-.381-5.215.05-4.917-1.942a1.018,1.018,0,0,1,1.24-.7c4.238.537,8.438-.516,12.644-.934,2.4-.049,12.76-1.968,12.8,1.392-.273,2.657-4.4,1.418-6.255,1.806C338.869,261.954,333.913,262.79,328.669,262.256Z"/><path d="M175.213,326.415a.892.892,0,1,1,.011-1.784c4.9.116,9.677-1.081,14.5-1.726,8.6-1.634,17.358-.632,26.036-1.154,8.727-.744,17.307-1.455,26.06-1.476,11.35-.807,22.839-1.41,34.1-2.67,8.4-1.627,17.024-1.586,25.482-2.393,8.974-.738,17.844-.326,26.812-.556,5.737-.325,11.418-1.431,17.164-1.521,3.761.033,7.618.709,11.312.006a1.57,1.57,0,0,1,1.688,1.154c.32,4.507-12.146,1.929-15.127,2.54-5.789.523-11.534,1.46-17.354,1.622-8.044-.158-16.085-.3-24.123.224-9.086.738-18.061.885-26.992,2.569-9.043,1.1-18.173,1.193-27.229,2.211-5.677.406-11.685.372-17.307.555-6.919.414-13.653,1.3-20.575,1.192C198.134,324.33,186.725,326.273,175.213,326.415Z"/><path d="M465.124,318.218c-5.014-.133-10.02-1-14.893-.61a70.226,70.226,0,0,1-14.59.394,1.056,1.056,0,1,1,.342-2.043c2.433-.1,4.848-.683,7.266-.97,9.458-1.994,18.926.269,28.366-.189a82.549,82.549,0,0,1,9.068-.807c1.788-.069,3.558-.48,5.35-.46a1.29,1.29,0,0,1,1.235.965c.149,3.159-7.3,2.7-9.5,2.841A52.515,52.515,0,0,1,465.124,318.218Z"/><path d="M492.954,267.319c-.114,12.185.382,24.57-.615,36.708-.248,3.547-.351,7.111-.69,10.659-.087,1.407-.48,3.424-2.292,3.214-2.221-.437-1.38-3.074-1.412-4.691.248-4.368.5-9.215.819-13.5.631-19.324.34-38.692-.021-58.021-.523-33.182-1.332-66.369-1.052-99.555.34-33.252.938-66.514.787-99.765-.485.021-.938.059-1.418.043a3.151,3.151,0,0,1-2,.345q-10.337,0-20.673.027-78.4-.372-156.708,4.561c-23.794,1.553-47.647,1.338-71.453,2.788-19.07,1.073-38.158,2.081-57.272,1.957-24.209.588-48.4,1.116-72.617,1.089-17.426-.188-34.772,2.254-52.193,1.92-3.9-.1-7.877-.216-11.748-.561a.625.625,0,0,1-.2.049c-.6.016-1.192.037-1.8.037a1.519,1.519,0,0,1-.421-.064c.226,54.807-.679,109.626,1.364,164.4,1.348,29.121,2.793,58.243,3.747,87.38.06,7.031.157,14.056.1,21.082a1.858,1.858,0,0,1-3.716,0C41.253,287.35,38.444,247.353,37.2,207.3c-1.224-39.883-.852-79.8-.69-119.7.463-21.843.2-43.7.787-65.538.054-1.467.1-2.939.172-4.4a1.134,1.134,0,0,1,.917-.976,1.018,1.018,0,0,1,.329-.313,2.765,2.765,0,0,1,2.318-1.412h.006c1.558-.89,3.515-1.009,5.186-1.656,2.648-.658,5.754-.5,8.406-.776q13.976-.987,27.887-2.793c18.37-2.135,36.961-1.8,55.433-2.275,28.254-.421,56.512-.6,84.76-1.375,18.844-.62,37.705-.216,56.55-.976,19.184-.766,38.346-2.012,57.53-2.68C379.186,1.394,421.555-.925,463.967.4c7.689.178,15.432-.372,23.061.831,1.52.188,3.726.275,3.521,2.323A1.9,1.9,0,0,1,490,4.591a1.165,1.165,0,0,1,.017.194c.021,2.529.264,5.042.469,7.57,2.944,58.383.118,116.9,1.218,175.337C492.069,214.231,492.894,240.769,492.954,267.319ZM139.4,32.909c2.1-5.662-2.308-12.962-8.692-12A12.474,12.474,0,0,0,121,31.254c1.051,2.938,4.48,5.111,7.063,6.626a4.893,4.893,0,0,0,1.536.513c1.041-.286,2.551-1.7,3.327-.125a1.252,1.252,0,0,1,.076.243C135.556,37.082,138.306,35.7,139.4,32.909Zm-31.92.863c3.311-5.9-1.66-13.626-8.562-12.024-5.877,1.688-8.966,6.74-5.85,12.363,1.925,2.087,4.448,4.664,7.419,4.8a6.644,6.644,0,0,0,1.914-.533,1.016,1.016,0,0,1,.394-.744C104.553,36.387,106.278,35.54,107.475,33.772Zm-33.709-.211c-.135-3.375-1.672-7.435-4.81-9.047A15.774,15.774,0,0,0,60.1,26.6c-2.049,1.925-3.6,4.912-2.971,7.754.469,2.679,2.157,4.728,3.914,6.648a5.083,5.083,0,0,0,2.869,2.054h.016a.311.311,0,0,0,.237-.124,1.256,1.256,0,0,1,.852-1.143c.291-1.067,1.93-1.337,2.788-1.876C70.525,38.7,73.539,36.845,73.766,33.561Z"/><path d="M132.418,166.449c5.058,14.73.631,26.058-9.118,37.462a1.334,1.334,0,0,1-1.342.507,10.9,10.9,0,0,1-1.833,2.183c-1.046.771-2.033,2-3.3,2.357-1.165,1.083-4.233,2.065-5,2.5a81.653,81.653,0,0,1-12.574,3.71c-3.963.766-8.18,1.731-12.116.372C79.114,213.126,74,206.1,71.081,198.578c-4.465-10.886-3.694-24.252,3.909-33.564,5.31-6.933,12.417-13.053,21.033-15.232C110.932,145.749,126.778,151.319,132.418,166.449Z"/><path d="M306.725,230.574c7.8.652,10.983,6.27,9.209,13.662-3.817,16.305-15.334,16.16-29.223,17.723a18.775,18.775,0,0,0-8.649,3.98c-3.591,3.019-6.077,6.993-9.543,10.1-6.276,4.6-13.782,8.584-21.789,8.088-6.524-.054-12.881-1.6-19.2-3.052a.031.031,0,0,0-.022-.006.2.2,0,0,0-.054-.01c-.792-.162-1.585-.318-2.361-.48a56.4,56.4,0,0,1-20.376-8.4A10.58,10.58,0,0,1,203,269.794v-.006c-.361-.275-.711-.577-1.035-.862a1.337,1.337,0,0,1-.34-.07c-5.564-2.19-5.294-9.517-7.257-14.327-.7-1.45-.517-2.609.922-3.488a16.378,16.378,0,0,0,2.275-3.408c5.813-14.579,20.4-23.169,35.851-23.341a13.235,13.235,0,0,1,9.031,3.057c8.169,5.985,17.038,1.316,25.115-2.1,5.608-1.73,11.862-.582,17.011,2.049,3.316,1.763,6.519,4.13,10.488,3.753C299.009,231.064,302.848,230.228,306.725,230.574Z"/></svg>