<?xml version="1.0" encoding="UTF-8"?>
<svg xmlns="http://www.w3.org/2000/svg" width="1234" height="1000" xmlns:xlink="http://www.w3.org/1999/xlink" viewBox="0 0 1234 1000">
  <defs>
    <style>
      .cls-1 {
        fill: #f6deba;
      }

      .cls-2 {
        fill: #f1ca8d;
      }

      .cls-3 {
        fill: #f1c8bd;
      }

      .cls-4 {
        fill: #80b098;
      }

      .cls-5 {
        fill: #b4976b;
      }

      .cls-6 {
        fill: #a75c47;
      }

      .cls-7 {
        fill: #df7a5f;
      }

      .cls-8 {
        fill: #afb1bc;
      }

      .cls-9 {
        fill: #0f1017;
      }

      .cls-10 {
        fill: #2e3045;
      }

      .cls-11 {
        fill: #534329;
      }

      .cls-12 {
        stroke: #b4976b;
        stroke-width: 5px;
      }

      .cls-12, .cls-13, .cls-14 {
        fill: none;
        stroke-miterlimit: 10;
      }

      .cls-13 {
        stroke: #534329;
        stroke-width: 15px;
      }

      .cls-13, .cls-14 {
        stroke-linecap: round;
      }

      .cls-15 {
        filter: url(#drop-shadow-2);
      }

      .cls-16 {
        filter: url(#drop-shadow-1);
      }

      .cls-14 {
        stroke: #1a1a1a;
        stroke-width: 8px;
      }

      .cls-17 {
        fill: url(#radial-gradient-2);
      }

      .cls-18 {
        fill: url(#radial-gradient);
      }

      .cls-19 {
        isolation: isolate;
      }

      .cls-20 {
        mix-blend-mode: multiply;
        opacity: .5;
      }
    </style>
    <radialGradient id="radial-gradient" cx="581" cy="476.623" fx="581" fy="476.623" r="379.5" gradientUnits="userSpaceOnUse">
      <stop offset="0" stop-color="#64667d"/>
      <stop offset=".25" stop-color="#5f6178"/>
      <stop offset=".542" stop-color="#515369"/>
      <stop offset=".855" stop-color="#3a3c52"/>
      <stop offset="1" stop-color="#2e3045"/>
    </radialGradient>
    <filter id="drop-shadow-1" filterUnits="userSpaceOnUse">
      <feOffset dx="-15" dy="15"/>
      <feGaussianBlur result="blur" stdDeviation="0"/>
      <feFlood flood-color="#000" flood-opacity=".5"/>
      <feComposite in2="blur" operator="in"/>
      <feComposite in="SourceGraphic"/>
    </filter>
    <filter id="drop-shadow-2" filterUnits="userSpaceOnUse">
      <feOffset dx="-15" dy="15"/>
      <feGaussianBlur result="blur-2" stdDeviation="0"/>
      <feFlood flood-color="#000" flood-opacity=".5"/>
      <feComposite in2="blur-2" operator="in"/>
      <feComposite in="SourceGraphic"/>
    </filter>
    <radialGradient id="radial-gradient-2" cx="465.37" cy="618.152" fx="465.37" fy="618.152" r="145.817" gradientUnits="userSpaceOnUse">
      <stop offset="0" stop-color="#f6deba"/>
      <stop offset=".283" stop-color="#f5dbb5"/>
      <stop offset=".614" stop-color="#f3d5a6"/>
      <stop offset=".969" stop-color="#f1cb8f"/>
      <stop offset="1" stop-color="#f1ca8d"/>
    </radialGradient>
  </defs>
  <g class="cls-19">
    <g id="Layer_1" data-name="Layer 1">
      <g>
        <circle class="cls-18" cx="581" cy="476.623" r="379.5"/>
        <g>
          <g class="cls-20">
            <path d="M960.441,179.496c-2.282-.454-4.668-.682-6.722-.251-7.409,1.552-15.348,.098-23.255-.939-8.138-1.069-16.308-1.526-21.576,5.125-6.335,7.91-14.992,8.741-25.121,5.888-9.894-2.794-19.788-6.273-29.597-7.117-13.052-1.124-23.742,2.757-30.218,15.442-4.119,7.94-6.889,8.316-14.268,1.546-6.641-6.133-13.467-7.857-20.706-6.647-5.286,.882-9.902,3.32-14.367,6.208-5.947,3.829-5.963,3.799-9.48-3.885-9.249-20.458-27.785-29.657-42.183-20.609-6.011,3.747-9.696,10.277-12.828,17.293-4.172,9.239-7.016,19.303-10.408,29.064-5.951,16.802-6.989,17.542-23.308,15.847-5.516-.574-8.292,2.641-7.654,9.01,.185,1.844,.681,3.671,1.019,5.509,1.689,9.154,.452,12.603-6.353,17.253-5.869,3.99-12.416,5.861-19.396,6.147-3.648,.149-7.204,.638-10.58,2.128-4.545,2.003-7.179,5.71-7.926,11.279-1.209,8.931-8.129,14.455-16.383,13.156-2.308-.364-4.431-1.373-4.915-4.284-.452-2.724,1.248-4.177,3.136-5.098,2.321-1.134,4.803-1.864,7.129-2.976,5.38-2.576,5.904-7.354,.911-11.057-7.382-5.502-14.869-10.732-23.379-13.604-10.749-3.641-20.71-2.073-28.861,6.552-14.204,14.832-23.937,33.234-29.961,54.12-1.381,4.723-.573,9.473,1.392,13.809,1.503,3.3,3.981,6.217,7.579,4.652,5.393-2.351,6.905,.844,8.641,5.302,2.621,6.69,7.726,7.571,12.651,2.624,2.177-2.196,3.254-4.968,3.911-8.052,.949-4.471,.714-9.023,.91-13.547,.222-5.169,1.696-9.709,5.556-12.915,1.341-1.117,2.929-2.171,4.625-1.418,2.139,.949,1.234,3.154,1.151,4.896-.301,6.312,1.613,11.506,6.821,14.561,5.044,2.949,3.563,5.544-.017,7.891-4.16,2.718-6.31,6.483-7.288,11.728-1.587,8.448-6.426,12.481-14.427,13.129-7.834,.634-13.886-3.418-19.63-8.41-4.236-3.7-6.943-2.847-7.322,2.704-.516,7.524-4.858,11.964-9.844,16.022-4.797,3.888-9.809,7.507-14.858,11.071-3.857,2.714-5.412,5.989-4.685,11.018,1.275,8.742-1.399,12.075-9.804,13.423-8.008,1.282-12.484,5.108-13.73,11.736-1.612,8.524,1.755,15.864,8.968,19.275,3.47,1.637,7.173,3.134,10.592-.142,3.916-3.766,8.547-6.171,13.056-8.868,3.855-2.312,6.898-5.628,5.409-10.622-1.833-6.188,1.315-8.738,6.034-10.685,6.549-2.709,12.192-1.418,17.333,3.482,5.171,4.904,9.172,10.608,12.046,17.315,1.52,3.529,3.854,6.746,8.249,4.957,4.238-1.728,4.857-5.632,4.085-9.823-.693-3.779-2.862-6.739-5.249-9.544-2.227-2.624-4.347-5.347-5.486-8.715-.552-1.638-.619-3.343,.903-4.475,1.465-1.091,2.991-.616,4.377,.336,1.882,1.291,2.896,3.311,3.861,5.355,3.069,6.473,6.116,12.968,9.267,19.419,5.036,10.224,9.769,10.576,15.594,1.144,1.815-2.958,3.496-6.257,6.813-7.32,5.828-1.871,7.204-6.079,6.731-11.855-.396-4.852,1.085-8.916,5.085-11.599,7.977-5.372,26.738,.152,31.585,9.27,3.66,6.832,.731,13.185-6.594,13.7-4.691,.329-9.449-.046-14.164,.092-5.643,.165-10.792,1.742-15.095,5.751-3.23,2.997-4.818,6.527-3.155,10.96,1.66,4.408,5.346,6.28,9.574,6.262,3.137-.013,6.272-.856,9.349-1.56,3.172-.726,6.329-1.674,8.618,1.936,2.331,3.664,1.638,7.293-.657,10.365-4.382,5.838-10.582,7.966-17.585,6.265-12.061-2.935-24.128-4.363-36.446-4.368-9.426-.004-17.646-3.529-23.368-11.772-2.686-3.894-6.485-5.959-10.924-6.875-6.881-1.422-13.812-1.41-20.736-.2-41.985,7.305-70.15,55.095-64.132,94.518,2.403,15.187,12.324,23.695,27.897,26.013,9.83,1.461,19.764,.89,29.66,1.189,18.369,.554,29.036,7.858,35.234,24.772,4.042,10.881,4.206,22.295,2.584,33.626-3.949,27.108-.512,52.645,17.168,75.523,11.794,15.002,26.578,17.049,42.31,5.758,10.506-7.608,19.722-16.396,28.359-25.584,12.31-13.237,20.327-28.61,19.8-46.667-.625-21.153,5.636-39.425,17.862-56.041,6.657-9.169,12.541-18.888,15.573-30.011,1.814-6.726,.129-8.825-7.074-8.358-4.743,.307-9.4,1.313-14.104,1.987-6.69,.957-12.634-1.102-17.109-6.2-6.615-7.581-10.738-16.575-14.139-25.833-.627-1.716-1.195-3.884,.887-4.955,1.991-1.026,3.564,.529,4.848,1.874,3.489,3.643,6.793,7.476,10.318,11.106,13.86,14.156,25.124,15.655,40.835,5.38,2.652-1.746,5.153-3.815,7.309-6.118,4.246-4.553,10.424-8.62,8.041-16.28-2.5-8.082-10.059-8.856-16.762-10.096-5.784-1.071-9.547-4.383-11.922-9.862,2.607-1.309,4.653,.311,6.762,.797,12.808,2.947,25.159,9.465,38.362,9.638,9.509,.125,16.186,4.529,21.704,12.078,6.536,8.879,11.869,18.461,17.177,28.062,4.203,7.549,8.884,14.807,14.586,21.497,3.756,4.386,7.171,4.22,10.612,.722,3.87-3.95,5.149-9.229,6.613-14.396,2.101-7.479,3.785-15.133,7.9-21.659,9.981-16.044,23.311-15.075,35.313,2.524,7.278,10.553,12.379,22.102,18.84,33.066,3.948,6.657,8.418,12.984,14.473,18.221,1.873,1.615,4.026,3.504,6.306,1.814,1.931-1.433,1.85-3.802,.877-6.141-1.535-3.695-4.307-6.654-7.157-9.556-2.998-3.059-6.032-6.188-6.752-10.361-.596-3.46-.119-6.758,3.112-8.265,3.101-1.449,5.713,.914,7.872,3.219,3.9,4.152,8.161,6.657,13.114,4.422,5.067-2.291,6.313-6.967,5.333-12.537-.886-5.04-3.507-9.681-6.037-14.326-4.86-8.96-3.157-14.66,5.357-17.73,2.358-.852,4.933-1.279,7.426-1.851,12.546-2.883,18.168-11.657,16.358-25.266-1.284-9.61-5.572-18.345-11.442-26.65-3.06-4.35-6.367-8.559-9.165-13.036-3.955-6.353-3.867-10.997-.259-13.795,3.748-2.916,10.906-1.732,15.531,2.647,2.759,2.604,5.053,5.597,7.084,8.806,1.205,1.9,2.661,3.881,4.992,3.514,2.517-.396,2.804-2.713,2.744-5.005-.151-5.68-2.166-11.062-5.492-16.259-1.377-2.158-3.492-4.807-.697-6.414,3.339-1.923,4.606-5.567,6.65-8.543,14.798-21.912,6.297-51.626-19.139-69.498-3.27-2.32-5.869-5.012-7.398-8.834-5.521-13.874,2.294-30.408,14.948-30.586,6.074-.085,10.498-2.329,14.168-6.479,3.354-3.814,6.952-8.228,13.27-4.042,6.482,4.277,5.391,10.772,5.205,16.451-.168,4.901,.109,9.692,3.204,14.491,4.351,6.72,9.128,13.158,14.35,19.25,2.032,2.363,4.411,4.859,7.301,4.059,2.899-.803,2.611-4.007,2.513-6.805-.249-6.905-3.288-13.551-6.58-20.067-4.562-9.069-9.794-17.896-12.788-27.461-2.569-8.229-1.453-12.896,4.083-16.601,1.528-1.026,3.196-1.838,4.744-2.83,10.415-6.705,10.337-26.075-.231-38.564-4.141-4.929-5.263-9.444-3.993-14.363,.91-3.56,2.192-6.928,2.743-10.652,1.058-7.264-3.509-13.867-10.391-15.235Z"/>
            <path d="M378.2,599.9c-18.858-6.915-33.947-18.39-48.413-30.671-10.208-8.762-20.449-17.421-32.892-23.187-16.564-7.73-33.863-10.216-52.993-.437-11.644,5.91-23.552-.748-21.836-12.667,.916-6.347-.127-12.265-6.125-13.679-6.806-1.607-5.906-4.815-3.036-9.945,1.454-2.605,1.787-5.319-.129-7.419-2.042-2.244-4.968-2.213-7.882-.963-2.986,1.28-5.818,3.145-8.704,4.797-9.61,5.484-16.526,2.504-17.266-7.435-.522-7.232,1.627-14.351,5.158-21.308,3.012-5.959,7.86-9.711,14.134-10.873,15.988-2.967,27.523,2.625,36.078,14.12,1.273,1.697,1.487,5.102,4.686,4.102,2.869-.898,3.988-3.964,4.987-6.579,.605-1.586,.962-3.275,1.162-4.906,1.923-15.71,4.491-19.355,19.47-25.301,8.238-3.285,14.875-8.245,19.741-15.98,6.948-11.128,16.577-18.516,27.633-24.304,9.741-5.126,19.783-9.465,28.704-16.391,12.234-9.574,14.888-17.735,9.662-31.152-3.893-10.159-8.436-19.891-13.309-29.363-2.242-4.398-4.585-8.708-8.026-12.063-8.665-8.509-18.697-5.786-25.069,6.954-1.623,3.225-2.689,6.722-3.923,10.12-1.53,4.203-2.7,8.533-4.507,12.63-3.776,8.526-7.521,9.627-12.945,3.998-5.779-6.04-11.376-12.231-17.029-18.312-8.17-8.873-6.961-22.055,2.994-32.568,5.66-6.023,12.298-9.916,19.21-13.154,8.601-4.044,17.386-7.641,24.748-14.752,3.941-3.828,7.627-8.298,6.851-14.215-.761-5.886-5.778-5.61-9.772-6.554-1.52-.359-3.165-.312-4.74-.504-5.106-.621-10.004-1.755-14.199-4.693-9.294-6.548-9.654-8.255-4.534-21.528,.535-1.394,1.06-2.803,1.459-4.227,1.926-6.884,.861-10.148-4.463-11.96-6.895-2.354-12.278-6.793-16.495-13.001-1.477-2.188-3.135-4.154-5.395-5.304-4.918-2.509-12.335,1.605-16.864,9.304-3.473,5.872-3.089,10.699,1.528,14.425,2.892,2.325,3.992,5.414,1.883,9.734-2.308,4.711-5.945,6.483-9.969,5.77-3.99-.707-6.981-3.287-9.952-5.773-5.348-4.496-11.409-6.86-19.173-4.76-11.956,3.225-18.798-2.487-23.328-12.49-2.732-6.119-5.297-12.384-9.641-17.087-10.092-11.053-28.239-8.288-41.405,6.724-7.189,8.117-14.759,15.644-22.79,22.685-3.76,3.281-7.549,6.746-10.851,10.622-11.694,13.631-20.661,27.788-18.17,44.48,1.183,7.625-1.435,15.274-9.402,21.306-1.762,1.329-3.658,2.97-3.282,5.308,.348,2.151,2.27,2.317,4.127,2.392,3.185,.128,6.393-1.191,9.691-2.486,8.617-3.391,16.085-9.565,23.806-15.267,12.168-9.046,21.031-7.269,25.702,4.375,2.529,6.206,3.634,13.203,5.409,19.849,7.413,26.818,6.788,54.684-9.244,84.921-4.913,9.156-8.937,18.707-10.597,28.58-3.319,19.862,2.877,35.804,10.163,51.391,.566,1.195,1.522,2.305,3.271,1.447,2.035-1,2.055-2.89,1.937-4.423-.462-6.092-1.072-12.137-1.611-18.2,.426-.241,.853-.481,1.279-.722,.418,.766,.941,1.476,1.239,2.307,4.943,13.64,10.817,26.907,14.872,41.059,4.245,14.459,13.381,23.68,27.279,28.801,21.106,7.725,38.419,20.561,54.588,35.259,4.748,4.271,4.961,6.872-.782,11.635-15.456,12.722-18.543,39.136-7.181,52.636,3.295,3.877,6.703,7.675,10.112,11.484,7.294,8.097,11.693,17.733,13.22,28.664,3.671,25.408-1.38,51.08-9.381,76.691-8.807,27.831-3.754,52.183,13.071,73.904,1.91,2.435,4.053,4.719,7.419,5.774,3.611,1.131,7.375,1.359,10.906-1.076,3.608-2.493,4.21-5.79,3.231-9.091-1.083-3.67-2.456-7.256-3.848-10.821-4.418-11.416-4.822-23.169-.353-35.573,4.421-12.358,12.529-22.517,23.365-31.4,14.036-11.603,27.479-23.48,34.939-39.611,3.672-8.007,10.599-14.635,18.246-19.294,21.514-13.209,33.484-32.012,42.173-53.125,4.952-12.183,3.603-17.192-8.629-21.653Z"/>
            <path d="M467.629,254.077c1.031-5.92,2.244-11.84,2.219-17.837-.053-15.033,3.748-28.968,10.103-42.319,3.654-7.763,6.391-15.949,6.851-24.83,.588-13.54-4.352-22.344-14.604-23.97-15.187-2.415-30.545-.472-44.72,9.307-12.654,8.638-25.418,17.349-38.323,26.005-6.143,4.091-7.677,11.027-4.05,17.289,1.967,3.374,4.593,6.015,7.35,8.517,12.426,11.179,14.506,22.595,6.658,40.55-5.4,12.187-9.251,24.746-11.245,37.769-1.503,9.773-1.514,19.434,2.938,27.791,4.473,8.307,7.945,8.885,15.751,2.682,15.352-12.316,30.493-24.661,45.345-37.152,7.298-6.199,13.856-13.125,15.727-23.803Z"/>
            <path d="M1046.589,636.182c-1.235-1.631-2.867-3.09-4.46-4.478-1.24-1.082-2.773-2.113-4.326-1.572-1.769,.616-1.046,2.296-.626,3.699,1.153,3.85,.932,7.427-.42,10.653-1.716,4.075-5.34,5.953-10.531,5.347-4.896-.572-7.102-4.039-8.824-7.845-.819-1.812-1.577-3.642-2.491-5.427-3.224-6.306-7.033-8.414-13.661-7.331-6.423,1.049-11.457,4.208-15.553,8.364-10.357,10.424-22.149,18.955-38.111,22.727-10.419,2.454-13.909,10.286-12.81,20.225,1.064,9.671,3.04,19.387,3.316,27.328,2.505,15.903,9.229,20.278,24.064,17.015,3.383-.745,6.565-1.987,9.707-3.205,4.126-1.601,8.069-3.482,12.169-5.106,15.554-6.185,26.886-3.588,40.822,9.391,5.426,5.02,10.494,10.369,16.079,15.276,14.191,12.39,29.854,12.278,38.906,.237,6.368-8.573,6.354-19.348,7.671-29.679,1.499-12.122-2.37-23.921-10.673-35.598-9.617-13.631-20.141-26.739-30.247-40.021Z"/>
            <path d="M347.037,178.503c-4.346,4.737-9.345,6.905-14.776,6.831-3.671-.05-6.223,1.795-6.909,6.5-1.68,11.517,8.878,20.093,18.208,14.828,4.779-2.708,8.617-7.029,12.209-11.499,13.979-17.59,29.638-32.158,45.946-45.405,2.943-2.412,5.815-5.039,8.454-7.922,4.452-4.884,4.043-7.508-1.41-8.904-8.305-2.13-16.995-2.182-25.303-3.28-8.105,.39-15.96,1.49-23.558,6.703-9.515,6.486-14.363,20.119-10.312,30.518,1.816,4.605,.615,8.167-2.548,11.63Z"/>
            <path d="M337.013,286.963c-1.531,9.758,3.139,17.984,10.728,19.358,8.204,1.483,15.751-3.505,19.694-13.07,1.614-3.937,2.557-7.997,2.966-12.207,1.669-20.867-5.018-37.093-16.553-50.695-8.056-9.647-18.072-9.835-29.467-4.227-9.437,4.617-11.422,12.97-4.893,20.089,3.321,3.595,7.765,5.198,11.875,7.436,9.118,4.943,11.405,11.602,8.149,23.563-.887,3.243-1.987,6.489-2.499,9.753Z"/>
            <path d="M999.827,592.144c-.544,2.571,1.43,4.408,3.602,5.895,7.338,5.009,14.744,9.963,22.211,14.862,2.196,1.437,4.649,2.398,7.093,2.394,7.39-.013,14.505,2.894,21.682,5.71,2.807,1.099,5.703,2.221,8.543,2.723,3.875,.684,5.558-1.03,4.504-4.76-2.394-6.875-8.046-11.196-14.299-14.763-15.504-8.89-31.671-12.317-47.905-14.547-2.462-.339-4.884-.118-5.433,2.486Z"/>
            <path d="M945.865,442c-1.303,3.03-1.32,6.24,2.422,8.793,3.669,2.498,6.809,1.61,7.958-1.562,2.574-7.161,8.49-10.103,14.74-13.038,6.76-3.186,7.865-8.812,4.154-17.04-2.266-5.043-5.452-9.651-8.581-14.285q-5.029-7.483,1.355-11.191c3.6-2.098,3.263-5.25-.981-7.794-3.464-2.08-7.091-3.153-10.157-1.383-3.235,1.863-2.508,5.666-1.261,9.153,2.11,5.886,4.663,11.694,6.682,16.656,1.621,8.389-1.116,13.636-5.397,18.123-4.006,4.177-8.528,7.934-10.935,13.568Z"/>
            <path d="M930.127,599.736c7.416,.063,12.095-8.465,10.342-18.849-1.537-9.101-7.047-14.935-14.155-14.991-9.095-.072-18.416,8.899-17.272,16.623,1.138,7.685,12.723,17.147,21.085,17.217Z"/>
            <path d="M290.584,190.842c6.703-.507,10.683-7.593,13.802-14.214,5.307-11.351,2.569-17.466-8.66-17.404-.592,.075-2.479,.123-4.363,.586-9.076,2.225-13.544,10.122-10.375,19.244,1.847,5.248,3.445,12.253,9.595,11.788Z"/>
            <path d="M692.021,635.523c-4.191-2.505-7.566-.26-10.848,1.562-11.754,6.503-15.199,23.664-6.796,34.676,2.877,3.747,6.5,4.878,10.027,1.38,7.713-7.691,12.582-16.683,12.573-27.104-.404-4.466-1.077-8.202-4.956-10.514Z"/>
            <path d="M646.32,247.953c3.754-1.434,1.867-4.795,1.065-7.744-.753-2.777-1.646-5.629-1.792-8.451-.671-13.038,.636-25.137,10.878-32.513,1.277-.925,2.518-2.285,1.85-4.5-.562-1.864-1.95-2.31-3.816-2.384-.765,.371-2.011,.652-2.912,1.46-6.55,5.858-12.339,12.658-14.788,22.363-2.349,9.189-.163,18.364,2.659,27.271,1.09,3.42,3.627,5.73,6.855,4.499Z"/>
            <path d="M555.717,200.859c5.386-5.8,8.974-13.08,11.449-21.113,1.745-5.715-.086-8.344-5.136-7.125-5.444,1.312-10.436,4.003-14.662,8.569-2.19,2.357-3.341,5.235-3.302,8.76,.048,3.188,1.111,5.997,2.257,8.77,2.723,6.552,4.738,7.12,9.393,2.139Z"/>
            <path d="M243.75,496.014c-2.599-.419-6.028-1.304-7.78,2.316-1.728,3.561,.733,5.833,3.166,7.331,9.548,5.858,20.043,9.967,31.641,11.155,3.346-.312,6.869,.659,8.776-3.064,1.561-3.055-.156-5.57-2.646-6.316-11.302-3.394-21.273-9.509-33.156-11.422Z"/>
            <path d="M1159.343,777.428c-10.162,3.392-17.932,9.235-21.864,18.07-2.895,6.438,2.818,12.163,11.262,12.066,2.415,.02,4.691-.349,6.199-1.697,7.275-6.534,9.84-15.414,10.897-24.806,.42-3.806-3.435-4.656-6.495-3.633Z"/>
            <path d="M871.886,571.675c-1.633-1.202-3.807-.983-5.121,.581-1.413,1.679-1.123,3.798-.161,5.785,2.772,5.711,6.558,10.917,11.142,15.593,4.123,4.191,8.578,8.105,14.431,9.704,5.271,1.438,8.089-.774,7.182-6.239-.404-.915-.848-2.63-1.837-4.05-6.559-9.446-16.678-14.799-25.637-21.375Z"/>
            <path d="M502.03,367.81c-.967,2.09-1.527,4.762,.869,5.973,4.071,2.056,7.786-.572,11.452-2.246,2.863-1.31,4.697-3.595,4.659-7.718-.085-.458,.012-1.692-.499-2.414-5.322-7.555-10.053-15.362-12.177-24.864-.505-2.276-3.007-2.869-5.237-1.927-2.156,.91-3.271,2.794-3.45,5.269-.188,2.595,.634,4.956,2.032,6.82,4.831,6.407,5.952,13.279,2.351,21.107Z"/>
            <path d="M297.879,213.5c-1.426,7.78,2.177,14.677,7.775,14.877,5.088,.182,12.6-7.562,13.41-13.824,.693-5.357-3.899-10.01-9.957-10.088-6.081-.079-10.159,3.203-11.227,9.036Z"/>
            <path d="M959.56,558.835c4.896-.565,3.37-5.218,3.179-8.219-.665-3.737-1.565-6.841-4.002-9.451-5.274-5.666-10.778-11.095-17.308-15.27-2.163-1.386-4.854-3.932-6.867-1.95-2.01,1.975,.546,4.628,1.986,6.737,4.78,6.977,11.081,13.109,14.438,20.936,1.58,3.672,4.002,7.746,8.574,7.218Z"/>
            <path d="M478.621,297.824c1.636-2.362,3.079-5.089,1.616-8.001-1.299-2.596-3.775-2.85-6.23-2.56-3.469,.409-6.909,1.006-10.352,.17-6.109-1.485-8.388,.996-7.616,8.101,.613,5.577,3.666,8.234,10.152,8.33,4.326-.297,9.079-1.224,12.429-6.041Z"/>
            <path d="M1179.988,752.195c-1.914-4.398-5.28-7.842-10.671-8.716-5.079-.824-6.144,2.473-6.968,5.727-1.101,4.322-1.295,8.846,.408,15.146,.395,.774,1.239,3.068,2.698,5.122,1.89,2.656,4.558,3.685,7.391,2.447,4.043-1.769,9.063-15.315,7.141-19.726Z"/>
            <path d="M331.023,172.695c4.178-.226,6.293-3.494,7.287-7.519,.905-6.485-4.094-12.823-9.616-12.892-3.409-.043-4.569,2.537-5.109,6-1.112,7.132,2.696,14.668,7.438,14.412Z"/>
            <path d="M692.565,161.408c2.526,1.329,5.268,2.2,6.689-1.198,1.458-3.504,.268-6.828-2.436-9.321-3.623-3.352-7.766-4.769-12.103-5.641-1.677,.002-3.315,.328-4.04,2.468-.798,2.349,.035,4.502,1.494,6.23,2.979,3.516,6.696,5.512,10.395,7.462Z"/>
            <path d="M1056.164,760.712c-4.216-.25-7.215,.137-6.562,4.156,.652,4.013,9.188,11.649,13.216,11.875,3.717,.209,7.891-5.839,6.416-10.509-2.379-7.546-9.232-3.372-13.071-5.522Z"/>
            <path d="M948.18,615.618c-.114-2.949-3.016-3.667-5.401-4.186-6.754-1.471-13.508-2.855-20.255-4.11-2.299-.428-5.36-1.23-5.706,1.77-.316,2.718,2.377,4.046,4.754,4.894,7.097,2.528,14.339,3.499,21.276,4.674,2.735-.072,5.442-.198,5.333-3.041Z"/>
            <path d="M488.127,367.487c4.987,.187,12.172-6.103,12.199-10.405,.021-3.285-1.292-5.509-4.633-5.553-4.276-.057-10.11,5.971-10.576,10.917-.269,2.849,.522,4.85,3.01,5.042Z"/>
            <path d="M950.48,367.834c2.504-.343,1.581-3.771,1.504-6.135-.027-.801-.249-1.642-.49-3.135-1.124-5.855-5.335-10.597-10.146-14.932-.942-.851-2.187-1.963-3.2-1.364-1.41,.834-.254,2.534,.226,3.851,2.082,5.695,4.606,11.271,7.756,16.606,1.161,1.961,1.982,5.432,4.35,5.108Z"/>
            <path d="M708.646,172.922c1.81,.713,6.781-5.658,6.157-7.791-1.141-3.911-3.083-7.492-6.806-7.865-3.562-.357-3.508,3.086-3.351,6.611,1.116,2.939,.063,7.492,4.001,9.046Z"/>
          </g>
          <g>
            <path class="cls-4" d="M975.441,164.496c-2.282-.454-4.668-.682-6.722-.251-7.409,1.552-15.348,.098-23.255-.939-8.138-1.069-16.308-1.526-21.576,5.125-6.335,7.91-14.992,8.741-25.121,5.888-9.894-2.794-19.788-6.273-29.597-7.117-13.052-1.124-23.742,2.757-30.218,15.442-4.119,7.94-6.889,8.316-14.268,1.546-6.641-6.133-13.467-7.857-20.706-6.647-5.286,.882-9.902,3.32-14.367,6.208-5.947,3.829-5.963,3.799-9.48-3.885-9.249-20.458-27.785-29.657-42.183-20.609-6.011,3.747-9.696,10.277-12.828,17.293-4.172,9.239-7.016,19.303-10.408,29.064-5.951,16.802-6.989,17.542-23.308,15.847-5.516-.574-8.292,2.641-7.654,9.01,.185,1.844,.681,3.671,1.019,5.509,1.689,9.154,.452,12.603-6.353,17.253-5.869,3.99-12.416,5.861-19.396,6.147-3.648,.149-7.204,.638-10.58,2.128-4.545,2.003-7.179,5.71-7.926,11.279-1.209,8.931-8.129,14.455-16.383,13.156-2.308-.364-4.431-1.373-4.915-4.284-.452-2.724,1.248-4.177,3.136-5.098,2.321-1.134,4.803-1.864,7.129-2.976,5.38-2.576,5.904-7.354,.911-11.057-7.382-5.502-14.869-10.732-23.379-13.604-10.749-3.641-20.71-2.073-28.861,6.552-14.204,14.832-23.937,33.234-29.961,54.12-1.381,4.723-.573,9.473,1.392,13.809,1.503,3.3,3.981,6.217,7.579,4.652,5.393-2.351,6.905,.844,8.641,5.302,2.621,6.69,7.726,7.571,12.651,2.624,2.177-2.196,3.254-4.968,3.911-8.052,.949-4.471,.714-9.023,.91-13.547,.222-5.169,1.696-9.709,5.556-12.915,1.341-1.117,2.929-2.171,4.625-1.418,2.139,.949,1.234,3.154,1.151,4.896-.301,6.312,1.613,11.506,6.821,14.561,5.044,2.949,3.563,5.544-.017,7.891-4.16,2.718-6.31,6.483-7.288,11.728-1.587,8.448-6.426,12.481-14.427,13.129-7.834,.634-13.886-3.418-19.63-8.41-4.236-3.7-6.943-2.847-7.322,2.704-.516,7.524-4.858,11.964-9.844,16.022-4.797,3.888-9.809,7.507-14.858,11.071-3.857,2.714-5.412,5.989-4.685,11.018,1.275,8.742-1.399,12.075-9.804,13.423-8.008,1.282-12.484,5.108-13.73,11.736-1.612,8.524,1.755,15.864,8.968,19.275,3.47,1.637,7.173,3.134,10.592-.142,3.916-3.766,8.547-6.171,13.056-8.868,3.855-2.312,6.898-5.628,5.409-10.622-1.833-6.188,1.315-8.738,6.034-10.685,6.549-2.709,12.192-1.418,17.333,3.482,5.171,4.904,9.172,10.608,12.046,17.315,1.52,3.529,3.854,6.746,8.249,4.957,4.238-1.728,4.857-5.632,4.085-9.823-.693-3.779-2.862-6.739-5.249-9.544-2.227-2.624-4.347-5.347-5.486-8.715-.552-1.638-.619-3.343,.903-4.475,1.465-1.091,2.991-.616,4.377,.336,1.882,1.291,2.896,3.311,3.861,5.355,3.069,6.473,6.116,12.968,9.267,19.419,5.036,10.224,9.769,10.576,15.594,1.144,1.815-2.958,3.496-6.257,6.813-7.32,5.828-1.871,7.204-6.079,6.731-11.855-.396-4.852,1.085-8.916,5.085-11.599,7.977-5.372,26.738,.152,31.585,9.27,3.66,6.832,.731,13.185-6.594,13.7-4.691,.329-9.449-.046-14.164,.092-5.643,.165-10.792,1.742-15.095,5.751-3.23,2.997-4.818,6.527-3.155,10.96,1.66,4.408,5.346,6.28,9.574,6.262,3.137-.013,6.272-.856,9.349-1.56,3.172-.726,6.329-1.674,8.618,1.936,2.331,3.664,1.638,7.293-.657,10.365-4.382,5.838-10.582,7.966-17.585,6.265-12.061-2.935-24.128-4.363-36.446-4.368-9.426-.004-17.646-3.529-23.368-11.772-2.686-3.894-6.485-5.959-10.924-6.875-6.881-1.422-13.812-1.41-20.736-.2-41.985,7.305-70.15,55.095-64.132,94.518,2.403,15.187,12.324,23.695,27.897,26.013,9.83,1.461,19.764,.89,29.66,1.189,18.369,.554,29.036,7.858,35.234,24.772,4.042,10.881,4.206,22.295,2.584,33.626-3.949,27.108-.512,52.645,17.168,75.523,11.794,15.002,26.578,17.049,42.31,5.758,10.506-7.608,19.722-16.396,28.359-25.584,12.31-13.237,20.327-28.61,19.8-46.667-.625-21.153,5.636-39.425,17.862-56.041,6.657-9.169,12.541-18.888,15.573-30.011,1.814-6.726,.129-8.825-7.074-8.358-4.743,.307-9.4,1.313-14.104,1.987-6.69,.957-12.634-1.102-17.109-6.2-6.615-7.581-10.738-16.575-14.139-25.833-.627-1.716-1.195-3.884,.887-4.955,1.991-1.026,3.564,.529,4.848,1.874,3.489,3.643,6.793,7.476,10.318,11.106,13.86,14.156,25.124,15.655,40.835,5.38,2.652-1.746,5.153-3.815,7.309-6.118,4.246-4.553,10.424-8.62,8.041-16.28-2.5-8.082-10.059-8.856-16.762-10.096-5.784-1.071-9.547-4.383-11.922-9.862,2.607-1.309,4.653,.311,6.762,.797,12.808,2.947,25.159,9.465,38.362,9.638,9.509,.125,16.186,4.529,21.704,12.078,6.536,8.879,11.869,18.461,17.177,28.062,4.203,7.549,8.884,14.807,14.586,21.497,3.756,4.386,7.171,4.22,10.612,.722,3.87-3.95,5.149-9.229,6.613-14.396,2.101-7.479,3.785-15.133,7.9-21.659,9.981-16.044,23.311-15.075,35.313,2.524,7.278,10.553,12.379,22.102,18.84,33.066,3.948,6.657,8.418,12.984,14.473,18.221,1.873,1.615,4.026,3.504,6.306,1.814,1.931-1.433,1.85-3.802,.877-6.141-1.535-3.695-4.307-6.654-7.157-9.556-2.998-3.059-6.032-6.188-6.752-10.361-.596-3.46-.119-6.758,3.112-8.265,3.101-1.449,5.713,.914,7.872,3.219,3.9,4.152,8.161,6.657,13.114,4.422,5.067-2.291,6.313-6.967,5.333-12.537-.886-5.04-3.507-9.681-6.037-14.326-4.86-8.96-3.157-14.66,5.357-17.73,2.358-.852,4.933-1.279,7.426-1.851,12.546-2.883,18.168-11.657,16.358-25.266-1.284-9.61-5.572-18.345-11.442-26.65-3.06-4.35-6.367-8.559-9.165-13.036-3.955-6.353-3.867-10.997-.259-13.795,3.748-2.916,10.906-1.732,15.531,2.647,2.759,2.604,5.053,5.597,7.084,8.806,1.205,1.9,2.661,3.881,4.992,3.514,2.517-.396,2.804-2.713,2.744-5.005-.151-5.68-2.166-11.062-5.492-16.259-1.377-2.158-3.492-4.807-.697-6.414,3.339-1.923,4.606-5.567,6.65-8.543,14.798-21.912,6.297-51.626-19.139-69.498-3.27-2.32-5.869-5.012-7.398-8.834-5.521-13.874,2.294-30.408,14.948-30.586,6.074-.085,10.498-2.329,14.168-6.479,3.354-3.814,6.952-8.228,13.27-4.042,6.482,4.277,5.391,10.772,5.205,16.451-.168,4.901,.109,9.692,3.204,14.491,4.351,6.72,9.128,13.158,14.35,19.25,2.032,2.363,4.411,4.859,7.301,4.059,2.899-.803,2.611-4.007,2.513-6.805-.249-6.905-3.288-13.551-6.58-20.067-4.562-9.069-9.794-17.896-12.788-27.461-2.569-8.229-1.453-12.896,4.083-16.601,1.528-1.026,3.196-1.838,4.744-2.83,10.415-6.705,10.337-26.075-.231-38.564-4.141-4.929-5.263-9.444-3.993-14.363,.91-3.56,2.192-6.928,2.743-10.652,1.058-7.264-3.509-13.867-10.391-15.235Z"/>
            <path class="cls-4" d="M393.2,584.9c-18.858-6.915-33.947-18.39-48.413-30.671-10.208-8.762-20.449-17.421-32.892-23.187-16.564-7.73-33.863-10.216-52.993-.437-11.644,5.91-23.552-.748-21.836-12.667,.916-6.347-.127-12.265-6.125-13.679-6.806-1.607-5.906-4.815-3.036-9.945,1.454-2.605,1.787-5.319-.129-7.419-2.042-2.244-4.968-2.213-7.882-.963-2.986,1.28-5.818,3.145-8.704,4.797-9.61,5.484-16.526,2.504-17.266-7.435-.522-7.232,1.627-14.351,5.158-21.308,3.012-5.959,7.86-9.711,14.134-10.873,15.988-2.967,27.523,2.625,36.078,14.12,1.273,1.697,1.487,5.102,4.686,4.102,2.869-.898,3.988-3.964,4.987-6.579,.605-1.586,.962-3.275,1.162-4.906,1.923-15.71,4.491-19.355,19.47-25.301,8.238-3.285,14.875-8.245,19.741-15.98,6.948-11.128,16.577-18.516,27.633-24.304,9.741-5.126,19.783-9.465,28.704-16.391,12.234-9.574,14.888-17.735,9.662-31.152-3.893-10.159-8.436-19.891-13.309-29.363-2.242-4.398-4.585-8.708-8.026-12.063-8.665-8.509-18.697-5.786-25.069,6.954-1.623,3.225-2.689,6.722-3.923,10.12-1.53,4.203-2.7,8.533-4.507,12.63-3.776,8.526-7.521,9.627-12.945,3.998-5.779-6.04-11.376-12.231-17.029-18.312-8.17-8.873-6.961-22.055,2.994-32.568,5.66-6.023,12.298-9.916,19.21-13.154,8.601-4.044,17.386-7.641,24.748-14.752,3.941-3.828,7.627-8.298,6.851-14.215-.761-5.886-5.778-5.61-9.772-6.554-1.52-.359-3.165-.312-4.74-.504-5.106-.621-10.004-1.755-14.199-4.693-9.294-6.548-9.654-8.255-4.534-21.528,.535-1.394,1.06-2.803,1.459-4.227,1.926-6.884,.861-10.148-4.463-11.96-6.895-2.354-12.278-6.793-16.495-13.001-1.477-2.188-3.135-4.154-5.395-5.304-4.918-2.509-12.335,1.605-16.864,9.304-3.473,5.872-3.089,10.699,1.528,14.425,2.892,2.325,3.992,5.414,1.883,9.734-2.308,4.711-5.945,6.483-9.969,5.77-3.99-.707-6.981-3.287-9.952-5.773-5.348-4.496-11.409-6.86-19.173-4.76-11.956,3.225-18.798-2.487-23.328-12.49-2.732-6.119-5.297-12.384-9.641-17.087-10.092-11.053-28.239-8.288-41.405,6.724-7.189,8.117-14.759,15.644-22.79,22.685-3.76,3.281-7.549,6.746-10.851,10.622-11.694,13.631-20.661,27.788-18.17,44.48,1.183,7.625-1.435,15.274-9.402,21.306-1.762,1.329-3.658,2.97-3.282,5.308,.348,2.151,2.27,2.317,4.127,2.392,3.185,.128,6.393-1.191,9.691-2.486,8.617-3.391,16.085-9.565,23.806-15.267,12.168-9.046,21.031-7.269,25.702,4.375,2.529,6.206,3.634,13.203,5.409,19.849,7.413,26.818,6.788,54.684-9.244,84.921-4.913,9.156-8.937,18.707-10.597,28.58-3.319,19.862,2.877,35.804,10.163,51.391,.566,1.195,1.522,2.305,3.271,1.447,2.035-1,2.055-2.89,1.937-4.423-.462-6.092-1.072-12.137-1.611-18.2,.426-.241,.853-.481,1.279-.722,.418,.766,.941,1.476,1.239,2.307,4.943,13.64,10.817,26.907,14.872,41.059,4.245,14.459,13.381,23.68,27.279,28.801,21.106,7.725,38.419,20.561,54.588,35.259,4.748,4.271,4.961,6.872-.782,11.635-15.456,12.722-18.543,39.136-7.181,52.636,3.295,3.877,6.703,7.675,10.112,11.484,7.294,8.097,11.693,17.733,13.22,28.664,3.671,25.408-1.38,51.08-9.381,76.691-8.807,27.831-3.754,52.183,13.071,73.904,1.91,2.435,4.053,4.719,7.419,5.774,3.611,1.131,7.375,1.359,10.906-1.076,3.608-2.493,4.21-5.79,3.231-9.091-1.083-3.67-2.456-7.256-3.848-10.821-4.418-11.416-4.822-23.169-.353-35.573,4.421-12.358,12.529-22.517,23.365-31.4,14.036-11.603,27.479-23.48,34.939-39.611,3.672-8.007,10.599-14.635,18.246-19.294,21.514-13.209,33.484-32.012,42.173-53.125,4.952-12.183,3.603-17.192-8.629-21.653Z"/>
            <path class="cls-4" d="M482.629,239.077c1.031-5.92,2.244-11.84,2.219-17.837-.053-15.033,3.748-28.968,10.103-42.319,3.654-7.763,6.391-15.949,6.851-24.83,.588-13.54-4.352-22.344-14.604-23.97-15.187-2.415-30.545-.472-44.72,9.307-12.654,8.638-25.418,17.349-38.323,26.005-6.143,4.091-7.677,11.027-4.05,17.289,1.967,3.374,4.593,6.015,7.35,8.517,12.426,11.179,14.506,22.595,6.658,40.55-5.4,12.187-9.251,24.746-11.245,37.769-1.503,9.773-1.514,19.434,2.938,27.791,4.473,8.307,7.945,8.885,15.751,2.682,15.352-12.316,30.493-24.661,45.345-37.152,7.298-6.199,13.856-13.125,15.727-23.803Z"/>
            <path class="cls-4" d="M1061.589,621.182c-1.235-1.631-2.867-3.09-4.46-4.478-1.24-1.082-2.773-2.113-4.326-1.572-1.769,.616-1.046,2.296-.626,3.699,1.153,3.85,.932,7.427-.42,10.653-1.716,4.075-5.34,5.953-10.531,5.347-4.896-.572-7.102-4.039-8.824-7.845-.819-1.812-1.577-3.642-2.491-5.427-3.224-6.306-7.033-8.414-13.661-7.331-6.423,1.049-11.457,4.208-15.553,8.364-10.357,10.424-22.149,18.955-38.111,22.727-10.419,2.454-13.909,10.286-12.81,20.225,1.064,9.671,3.04,19.387,3.316,27.328,2.505,15.903,9.229,20.278,24.064,17.015,3.383-.745,6.565-1.987,9.707-3.205,4.126-1.601,8.069-3.482,12.169-5.106,15.554-6.185,26.886-3.588,40.822,9.391,5.426,5.02,10.494,10.369,16.079,15.276,14.191,12.39,29.854,12.278,38.906,.237,6.368-8.573,6.354-19.348,7.671-29.679,1.499-12.122-2.37-23.921-10.673-35.598-9.617-13.631-20.141-26.739-30.247-40.021Z"/>
            <path class="cls-4" d="M362.037,163.503c-4.346,4.737-9.345,6.905-14.776,6.831-3.671-.05-6.223,1.795-6.909,6.5-1.68,11.517,8.878,20.093,18.208,14.828,4.779-2.708,8.617-7.029,12.209-11.499,13.979-17.59,29.638-32.158,45.946-45.405,2.943-2.412,5.815-5.039,8.454-7.922,4.452-4.884,4.043-7.508-1.41-8.904-8.305-2.13-16.995-2.182-25.303-3.28-8.105,.39-15.96,1.49-23.558,6.703-9.515,6.486-14.363,20.119-10.312,30.518,1.816,4.605,.615,8.167-2.548,11.63Z"/>
            <path class="cls-4" d="M352.013,271.963c-1.531,9.758,3.139,17.984,10.728,19.358,8.204,1.483,15.751-3.505,19.694-13.07,1.614-3.937,2.557-7.997,2.966-12.207,1.669-20.867-5.018-37.093-16.553-50.695-8.056-9.647-18.072-9.835-29.467-4.227-9.437,4.617-11.422,12.97-4.893,20.089,3.321,3.595,7.765,5.198,11.875,7.436,9.118,4.943,11.405,11.602,8.149,23.563-.887,3.243-1.987,6.489-2.499,9.753Z"/>
            <path class="cls-4" d="M1014.827,577.144c-.544,2.571,1.43,4.408,3.602,5.895,7.338,5.009,14.744,9.963,22.211,14.862,2.196,1.437,4.649,2.398,7.093,2.394,7.39-.013,14.505,2.894,21.682,5.71,2.807,1.099,5.703,2.221,8.543,2.723,3.875,.684,5.558-1.03,4.504-4.76-2.394-6.875-8.046-11.196-14.299-14.763-15.504-8.89-31.671-12.317-47.905-14.547-2.462-.339-4.884-.118-5.433,2.486Z"/>
            <path class="cls-4" d="M960.865,427c-1.303,3.03-1.32,6.24,2.422,8.793,3.669,2.498,6.809,1.61,7.958-1.562,2.574-7.161,8.49-10.103,14.74-13.038,6.76-3.186,7.865-8.812,4.154-17.04-2.266-5.043-5.452-9.651-8.581-14.285q-5.029-7.483,1.355-11.191c3.6-2.098,3.263-5.25-.981-7.794-3.464-2.08-7.091-3.153-10.157-1.383-3.235,1.863-2.508,5.666-1.261,9.153,2.11,5.886,4.663,11.694,6.682,16.656,1.621,8.389-1.116,13.636-5.397,18.123-4.006,4.177-8.528,7.934-10.935,13.568Z"/>
            <path class="cls-4" d="M945.127,584.736c7.416,.063,12.095-8.465,10.342-18.849-1.537-9.101-7.047-14.935-14.155-14.991-9.095-.072-18.416,8.899-17.272,16.623,1.138,7.685,12.723,17.147,21.085,17.217Z"/>
            <path class="cls-4" d="M305.584,175.842c6.703-.507,10.683-7.593,13.802-14.214,5.307-11.351,2.569-17.466-8.66-17.404-.592,.075-2.479,.123-4.363,.586-9.076,2.225-13.544,10.122-10.375,19.244,1.847,5.248,3.445,12.253,9.595,11.788Z"/>
            <path class="cls-4" d="M707.021,620.523c-4.191-2.505-7.566-.26-10.848,1.562-11.754,6.503-15.199,23.664-6.796,34.676,2.877,3.747,6.5,4.878,10.027,1.38,7.713-7.691,12.582-16.683,12.573-27.104-.404-4.466-1.077-8.202-4.956-10.514Z"/>
            <path class="cls-4" d="M661.32,232.953c3.754-1.434,1.867-4.795,1.065-7.744-.753-2.777-1.646-5.629-1.792-8.451-.671-13.038,.636-25.137,10.878-32.513,1.277-.925,2.518-2.285,1.85-4.5-.562-1.864-1.95-2.31-3.816-2.384-.765,.371-2.011,.652-2.912,1.46-6.55,5.858-12.339,12.658-14.788,22.363-2.349,9.189-.163,18.364,2.659,27.271,1.09,3.42,3.627,5.73,6.855,4.499Z"/>
            <path class="cls-4" d="M570.717,185.859c5.386-5.8,8.974-13.08,11.449-21.113,1.745-5.715-.086-8.344-5.136-7.125-5.444,1.312-10.436,4.003-14.662,8.569-2.19,2.357-3.341,5.235-3.302,8.76,.048,3.188,1.111,5.997,2.257,8.77,2.723,6.552,4.738,7.12,9.393,2.139Z"/>
            <path class="cls-4" d="M258.75,481.014c-2.599-.419-6.028-1.304-7.78,2.316-1.728,3.561,.733,5.833,3.166,7.331,9.548,5.858,20.043,9.967,31.641,11.155,3.346-.312,6.869,.659,8.776-3.064,1.561-3.055-.156-5.57-2.646-6.316-11.302-3.394-21.273-9.509-33.156-11.422Z"/>
            <path class="cls-4" d="M1174.343,762.428c-10.162,3.392-17.932,9.235-21.864,18.07-2.895,6.438,2.818,12.163,11.262,12.066,2.415,.02,4.691-.349,6.199-1.697,7.275-6.534,9.84-15.414,10.897-24.806,.42-3.806-3.435-4.656-6.495-3.633Z"/>
            <path class="cls-4" d="M886.886,556.675c-1.633-1.202-3.807-.983-5.121,.581-1.413,1.679-1.123,3.798-.161,5.785,2.772,5.711,6.558,10.917,11.142,15.593,4.123,4.191,8.578,8.105,14.431,9.704,5.271,1.438,8.089-.774,7.182-6.239-.404-.915-.848-2.63-1.837-4.05-6.559-9.446-16.678-14.799-25.637-21.375Z"/>
            <path class="cls-4" d="M517.03,352.81c-.967,2.09-1.527,4.762,.869,5.973,4.071,2.056,7.786-.572,11.452-2.246,2.863-1.31,4.697-3.595,4.659-7.718-.085-.458,.012-1.692-.499-2.414-5.322-7.555-10.053-15.362-12.177-24.864-.505-2.276-3.007-2.869-5.237-1.927-2.156,.91-3.271,2.794-3.45,5.269-.188,2.595,.634,4.956,2.032,6.82,4.831,6.407,5.952,13.279,2.351,21.107Z"/>
            <path class="cls-4" d="M312.879,198.5c-1.426,7.78,2.177,14.677,7.775,14.877,5.088,.182,12.6-7.562,13.41-13.824,.693-5.357-3.899-10.01-9.957-10.088-6.081-.079-10.159,3.203-11.227,9.036Z"/>
            <path class="cls-4" d="M974.56,543.835c4.896-.565,3.37-5.218,3.179-8.219-.665-3.737-1.565-6.841-4.002-9.451-5.274-5.666-10.778-11.095-17.308-15.27-2.163-1.386-4.854-3.932-6.867-1.95-2.01,1.975,.546,4.628,1.986,6.737,4.78,6.977,11.081,13.109,14.438,20.936,1.58,3.672,4.002,7.746,8.574,7.218Z"/>
            <path class="cls-4" d="M493.621,282.824c1.636-2.362,3.079-5.089,1.616-8.001-1.299-2.596-3.775-2.85-6.23-2.56-3.469,.409-6.909,1.006-10.352,.17-6.109-1.485-8.388,.996-7.616,8.101,.613,5.577,3.666,8.234,10.152,8.33,4.326-.297,9.079-1.224,12.429-6.041Z"/>
            <path class="cls-4" d="M1194.988,737.195c-1.914-4.398-5.28-7.842-10.671-8.716-5.079-.824-6.144,2.473-6.968,5.727-1.101,4.322-1.295,8.846,.408,15.146,.395,.774,1.239,3.068,2.698,5.122,1.89,2.656,4.558,3.685,7.391,2.447,4.043-1.769,9.063-15.315,7.141-19.726Z"/>
            <path class="cls-4" d="M346.023,157.695c4.178-.226,6.293-3.494,7.287-7.519,.905-6.485-4.094-12.823-9.616-12.892-3.409-.043-4.569,2.537-5.109,6-1.112,7.132,2.696,14.668,7.438,14.412Z"/>
            <path class="cls-4" d="M707.565,146.408c2.526,1.329,5.268,2.2,6.689-1.198,1.458-3.504,.268-6.828-2.436-9.321-3.623-3.352-7.766-4.769-12.103-5.641-1.677,.002-3.315,.328-4.04,2.468-.798,2.349,.035,4.502,1.494,6.23,2.979,3.516,6.696,5.512,10.395,7.462Z"/>
            <path class="cls-4" d="M1071.164,745.712c-4.216-.25-7.215,.137-6.562,4.156,.652,4.013,9.188,11.649,13.216,11.875,3.717,.209,7.891-5.839,6.416-10.509-2.379-7.546-9.232-3.372-13.071-5.522Z"/>
            <path class="cls-4" d="M963.18,600.618c-.114-2.949-3.016-3.667-5.401-4.186-6.754-1.471-13.508-2.855-20.255-4.11-2.299-.428-5.36-1.23-5.706,1.77-.316,2.718,2.377,4.046,4.754,4.894,7.097,2.528,14.339,3.499,21.276,4.674,2.735-.072,5.442-.198,5.333-3.041Z"/>
            <path class="cls-4" d="M503.127,352.487c4.987,.187,12.172-6.103,12.199-10.405,.021-3.285-1.292-5.509-4.633-5.553-4.276-.057-10.11,5.971-10.576,10.917-.269,2.849,.522,4.85,3.01,5.042Z"/>
            <path class="cls-4" d="M965.48,352.834c2.504-.343,1.581-3.771,1.504-6.135-.027-.801-.249-1.642-.49-3.135-1.124-5.855-5.335-10.597-10.146-14.932-.942-.851-2.187-1.963-3.2-1.364-1.41,.834-.254,2.534,.226,3.851,2.082,5.695,4.606,11.271,7.756,16.606,1.161,1.961,1.982,5.432,4.35,5.108Z"/>
            <path class="cls-4" d="M723.646,157.922c1.81,.713,6.781-5.658,6.157-7.791-1.141-3.911-3.083-7.492-6.806-7.865-3.562-.357-3.508,3.086-3.351,6.611,1.116,2.939,.063,7.492,4.001,9.046Z"/>
          </g>
        </g>
        <g class="cls-16">
          <rect class="cls-7" x="695.266" y="478.877" width="98" height="418" rx="12" ry="12"/>
          <path class="cls-6" d="M701.08,478.877h17.187v418h-17.187c-3.209,0-5.813-2.605-5.813-5.813V484.69c0-3.209,2.605-5.813,5.813-5.813Z"/>
          <rect class="cls-3" x="695.266" y="806.877" width="98" height="57"/>
          <rect class="cls-10" x="793.266" y="356.877" width="98" height="540" rx="13.639" ry="13.639"/>
          <path class="cls-9" d="M799.874,356.877h16.392V896.877h-16.392c-3.647,0-6.608-2.961-6.608-6.608V363.485c0-3.647,2.961-6.608,6.608-6.608Z"/>
          <rect class="cls-2" x="891.266" y="523.877" width="98" height="373" rx="11.336" ry="11.336"/>
          <path class="cls-1" d="M896.758,523.877h17.508v373h-17.508c-3.031,0-5.492-2.461-5.492-5.492v-362.017c0-3.031,2.461-5.492,5.492-5.492Z"/>
          <rect class="cls-8" x="793.266" y="441.609" width="98" height="20.268"/>
          <rect class="cls-5" x="921.266" y="523.877" width="15" height="373"/>
          <rect class="cls-8" x="793.266" y="478.609" width="98" height="20.268"/>
        </g>
        <g class="cls-15">
          <line class="cls-14" x1="325.119" y1="491.805" x2="540.185" y2="786.154"/>
          <circle class="cls-17" cx="465.37" cy="618.152" r="145.808"/>
          <path class="cls-13" d="M574.829,765.589c-82.639,61.352-199.368,44.096-260.72-38.543-61.352-82.639-44.096-199.368,38.543-260.72"/>
          <path class="cls-11" d="M581.649,896.877c0-32.022-52.071-57.981-116.304-57.981s-116.304,25.959-116.304,57.981h232.609Z"/>
          <line class="cls-13" x1="465.345" y1="806.2" x2="465.345" y2="852.684"/>
          <g>
            <circle class="cls-12" cx="465.459" cy="618.475" r="145.808"/>
            <ellipse class="cls-12" cx="465.459" cy="618.475" rx="98.42" ry="145.808"/>
            <ellipse class="cls-12" cx="465.459" cy="618.475" rx="37.363" ry="145.808"/>
            <circle class="cls-12" cx="465.459" cy="618.475" r="145.808"/>
            <ellipse class="cls-12" cx="465.459" cy="618.475" rx="145.808" ry="98.42"/>
            <ellipse class="cls-12" cx="465.459" cy="618.475" rx="145.808" ry="37.363"/>
          </g>
        </g>
      </g>
    </g>
  </g>
</svg>