<?xml version="1.0" encoding="utf-8"?>
<!DOCTYPE svg PUBLIC "-//W3C//DTD SVG 1.1//EN" "http://www.w3.org/Graphics/SVG/1.1/DTD/svg11.dtd">
<svg version="1.1" xmlns="http://www.w3.org/2000/svg" xmlns:xlink="http://www.w3.org/1999/xlink" width="32" height="32" viewBox="0 0 32 32">
<g>
</g>
	<path d="M24 2h-2c0-1.104-0.896-2-2-2h-18c-1.104 0-2 0.896-2 2v26c0 0 0.5 4 4 4h20c0 0 2-0.5 2-2v-26c0 0-0.375-2-2-2zM3 19.484c0-0.509 0.373-1.955 3.234-2.372 1.889-0.275 2.46-0.651 2.631-0.876-0.021-0.524-0.062-1.115-0.062-1.115s-0.569-0.622-1.002-1.854c-0.91-0.365-0.79-0.6-0.878-1.071 0 0 0.105-1.91 0.719-1.871 0 0 0.494 0 0.396-0.439-0.032-0.73-0.021-0.883 0.028-1.371s0.258-1.804 1.284-1.999 0.233-0.098 0.575-0.146c0.341-0.049-0.214-0.243 0.421-0.243l1.014-0.212c0.635 0 1.041 0.885 1.383 0.934s0.118-0.149 0.818-0.020c1.024 0.195 1.323 1.589 1.372 2.076s0.081 0.64-0.017 1.078c-0.098 0.439 0.147 0.391 0.147 0.391 0.732 0 0.426 1.871 0.426 1.871-0.112 0.496-0.372 0.557-1.054 0.985-0.434 1.232-1.344 1.989-1.344 1.989l0.041 0.83c0 0-0.158 0.652 2.667 1.068s3.2 1.861 3.2 2.37c0 1.838 0 2.435 0 2.435h-15.999c0 0 0-0.598 0-2.438zM22 30h-18c0 0-2-0.625-2-2h18c1.104 0 2-0.896 2-2v-22h2v24c0 0 0.125 2-2 2z" fill="#000000"></path>
</svg>
