<?xml version="1.0" encoding="utf-8"?>

<!DOCTYPE svg PUBLIC "-//W3C//DTD SVG 1.1//EN" "http://www.w3.org/Graphics/SVG/1.1/DTD/svg11.dtd">
<svg version="1.1" xmlns="http://www.w3.org/2000/svg" xmlns:xlink="http://www.w3.org/1999/xlink" width="32" height="32" viewBox="0 0 32 32">
<g>
</g>
	<path d="M27 10c-1.1 0-2 0.9-2 2v8c0 1.1 0.9 2 2 2s2-0.9 2-2v-8c0-1.1-0.9-2-2-2zM3 10c-1.1 0-2 0.9-2 2v8c0 1.1 0.9 2 2 2s2-0.9 2-2v-8c0-1.1-0.9-2-2-2zM6 23c0 1.657 1.343 3 3 3h1v4c0 1.1 0.9 2 2 2s2-0.9 2-2v-4h2v4c0 1.1 0.9 2 2 2s2-0.9 2-2v-4h1c1.657 0 3-1.343 3-3v-11h-18v11zM18.706 2.797l1.266-2.431c0.064-0.122 0.016-0.274-0.106-0.337s-0.274-0.016-0.337 0.106l-1.285 2.468c-1.006-0.389-2.1-0.603-3.244-0.603s-2.237 0.214-3.244 0.603l-1.285-2.468c-0.063-0.122-0.215-0.17-0.337-0.106s-0.17 0.215-0.106 0.337l1.266 2.432c-2.832 1.282-4.883 3.987-5.238 7.203h17.889c-0.355-3.216-2.406-5.921-5.238-7.203zM11 8.45c-0.801 0-1.45-0.649-1.45-1.45s0.649-1.45 1.45-1.45 1.45 0.649 1.45 1.45c-0 0.801-0.649 1.45-1.45 1.45zM19 8.45c-0.801 0-1.45-0.649-1.45-1.45s0.649-1.45 1.45-1.45 1.45 0.649 1.45 1.45c0 0.801-0.649 1.45-1.45 1.45z" fill="#000000"></path>
</svg>
