<?xml version="1.0" encoding="utf-8"?>

<!DOCTYPE svg PUBLIC "-//W3C//DTD SVG 1.1//EN" "http://www.w3.org/Graphics/SVG/1.1/DTD/svg11.dtd">
<svg version="1.1" xmlns="http://www.w3.org/2000/svg" xmlns:xlink="http://www.w3.org/1999/xlink" width="32" height="32" viewBox="0 0 32 32">
<g>
</g>
	<path d="M18 12h-2v2h2v-2zM14 12h-2v2h2v-2zM18 16h-2v2h2v-2zM18 20h-2v2h2v-2zM18 24h-2v2h2v-2zM22 20h-2v2h2v-2zM26 12h-2v2h2v-2zM26 16h-2v2h2v-2zM22 16h-2v2h2v-2zM26 2h-22c-2.209 0-4 1.791-4 4v22c0 2.209 1.791 4 4 4h22c2.209 0 4-1.791 4-4v-22c0-2.209-1.791-4-4-4zM28 27c0 2.209-0.791 3-3 3h-20c-2.209 0-3-0.791-3-3v-17h26v17zM26 20h-2v2h2v-2zM10 24h-2v2h2v-2zM6 20h-2v2h2v-2zM6 16h-2v2h2v-2zM6 24h-2v2h2v-2zM10 20h-2v2h2v-2zM14 20h-2v2h2v-2zM14 24h-2v2h2v-2zM10 16h-2v2h2v-2zM14 16h-2v2h2v-2zM22 12h-2v2h2v-2z" fill="#000000"></path>
</svg>
