<?xml version="1.0" encoding="utf-8"?>

<!DOCTYPE svg PUBLIC "-//W3C//DTD SVG 1.1//EN" "http://www.w3.org/Graphics/SVG/1.1/DTD/svg11.dtd">
<svg version="1.1" xmlns="http://www.w3.org/2000/svg" xmlns:xlink="http://www.w3.org/1999/xlink" width="32" height="32" viewBox="0 0 32 32">
<g>
</g>
	<path d="M27.582 1.547c-5.318 0-20.579 0-23.263 0s-2.665 2.665-2.665 2.665v23.263c0 0-0.019 2.658 2.665 2.658s20.579 0 23.263 0c2.684 0 2.658-2.658 2.658-2.658l0-23.263c0 0 0.026-2.665-2.658-2.665zM14.495 26.58c-3.094-3.799-6.733-6.693-9.281-7.598l6.005-3.617 2.911 5.608c0 0 4.424-12.067 11.886-15.866-0.182 2.713-0.603 5.736 0.671 8.63-3.275 0.723-10.010 8.863-12.192 12.843z" fill="#000000"></path>
</svg>
