<?xml version="1.0" encoding="utf-8"?>

<!DOCTYPE svg PUBLIC "-//W3C//DTD SVG 1.1//EN" "http://www.w3.org/Graphics/SVG/1.1/DTD/svg11.dtd">
<svg version="1.1" xmlns="http://www.w3.org/2000/svg" xmlns:xlink="http://www.w3.org/1999/xlink" width="32" height="32" viewBox="0 0 32 32">
<g>
</g>
	<path d="M16 1.705c-7.895 0-14.295 6.401-14.295 14.295s6.401 14.295 14.295 14.295c7.894 0 14.294-6.401 14.294-14.295s-6.401-14.295-14.294-14.295zM15.975 26.722c-6.867 0-10.722-3.855-10.722-10.722s3.855-10.722 10.722-10.722c6.867 0 10.721 3.855 10.721 10.722s-3.854 10.722-10.721 10.722zM17.363 18.054l-3.723 4.318c-0.528 0.528-1.519 0.383-2.217-0.314s-0.833-1.695-0.305-2.223l3.059-3.605c-0.009-0.075-0.044-0.152-0.044-0.23l-0-7.148c0-0.987 0.827-1.787 1.813-1.787s1.813 0.8 1.813 1.787l0 7.201h0.014c0.25 0.64 0.003 1.587-0.411 2.001z" fill="#000000"></path>
</svg>
