<?xml version="1.0" encoding="utf-8"?>

<!DOCTYPE svg PUBLIC "-//W3C//DTD SVG 1.1//EN" "http://www.w3.org/Graphics/SVG/1.1/DTD/svg11.dtd">
<svg version="1.1" xmlns="http://www.w3.org/2000/svg" xmlns:xlink="http://www.w3.org/1999/xlink" width="32" height="32" viewBox="0 0 32 32">
<g>
</g>
	<path d="M25.969 31.969l-21.969 0.031c0 0-4 0.062-4-4v-10c0 0 3.25 4 15 4 14.125 0 15-4 15-4v10c0 0 0.031 3.969-4.031 3.969zM14.948 19.99c-9.959 0-14.948-3.99-14.948-3.99v-2c0 0-0.062-4 4-4h4c0 0 0.156-4.031 3.969-4.031l6.031 0.031c0 0 4-0.125 4 4h4c0 0 4-0.188 4 4v2c0 0-3.156 3.99-15.052 3.99zM12 18h6c0 0-0.083-2-2-2h-2c-2.229 0-2 2-2 2zM18 8h-6c0 0-2 0.188-2 2h10c0 0 0.125-2-2-2z" fill="#000000"></path>
</svg>
