<?xml version="1.0" encoding="utf-8"?>

<!DOCTYPE svg PUBLIC "-//W3C//DTD SVG 1.1//EN" "http://www.w3.org/Graphics/SVG/1.1/DTD/svg11.dtd">
<svg version="1.1" xmlns="http://www.w3.org/2000/svg" xmlns:xlink="http://www.w3.org/1999/xlink" width="32" height="32" viewBox="0 0 32 32">
<g>
</g>
	<path d="M16.044 2.184c-7.859 0-14.234 6.372-14.234 14.234s6.372 14.234 14.234 14.234c7.859 0 14.234-6.372 14.234-14.234s-6.375-14.234-14.234-14.234zM16.044 27.091c-5.897 0-10.675-4.778-10.675-10.675s4.778-10.675 10.675-10.675 10.675 4.778 10.675 10.675-4.781 10.675-10.675 10.675zM23.081 12.144c-0.7-0.675-1.859-0.678-2.584-0.006l-6.172 5.575-2.456-3.072c-0.606-0.756-1.75-0.897-2.559-0.313-0.809 0.581-0.975 1.666-0.369 2.422l4.941 6.172 9.153-8.338c0.725-0.669 0.747-1.762 0.047-2.441z" fill="#000000"></path>
</svg>
