<?xml version="1.0" encoding="utf-8"?>

<!DOCTYPE svg PUBLIC "-//W3C//DTD SVG 1.1//EN" "http://www.w3.org/Graphics/SVG/1.1/DTD/svg11.dtd">
<svg version="1.1" xmlns="http://www.w3.org/2000/svg" xmlns:xlink="http://www.w3.org/1999/xlink" width="32" height="32" viewBox="0 0 32 32">
<g>
</g>
	<path d="M28 28h-6v2c0 1.105-0.896 2-2 2h-18c-1.104 0-2-0.895-2-2v-24c0-1.104 0.896-2 2-2h6v-2c0-1.105 0.896-2 2-2h13.844l6.156 6v20c0 1.104-0.896 2-2 2zM3 6c-0.9-0.046-1 1-1 1v21.286c0 0.946 0.732 1.714 1.637 1.714h15.363c0.903 0 1-1 1-1v-1h-10c-1.104 0-2-0.895-2-2v-8c-3.985 0-4 0-4 0v-6c1.461 0 2.803 0.008 4 0.021v-6.021h-5zM28 8h-4c0 0-2 0.094-2-2v-4h-11c-0.904 0-1 1-1 1v9.050c2.528 0.042 4.031 0.097 4.031 0.097l-0.031-4.147c3.667 3 10 8 10 8s-9.333 8-10 8v-6c-1.577 0-2.881 0-4 0v7c0 0.947 1 1 1 1h16c0.903 0 1-1 1-1v-17z" fill="#000000"></path>
</svg>
