<?xml version="1.0" encoding="utf-8"?>

<!DOCTYPE svg PUBLIC "-//W3C//DTD SVG 1.1//EN" "http://www.w3.org/Graphics/SVG/1.1/DTD/svg11.dtd">
<svg version="1.1" xmlns="http://www.w3.org/2000/svg" xmlns:xlink="http://www.w3.org/1999/xlink" width="32" height="32" viewBox="0 0 32 32">
<g>
</g>
	<path d="M12.881 6.206c-2.561 0-4.656 2.029-4.656 4.511 0 2.481 2.096 4.51 4.656 4.51s4.652-2.029 4.652-4.51c0-2.482-2.091-4.511-4.652-4.511zM25.915-0.053h-20.017c-4.003 0-6.005 2.002-6.005 6.005v14.012c0 4.003 2.002 6.005 6.005 6.005v6.005l8.007-6.005h12.010c4.003 0 6.005-2.002 6.005-6.005l0-14.012c0-4.003-2.002-6.005-6.005-6.005zM23.423 21.47c-0.682 0.661-1.787 0.661-2.469 0l-4.906-4.756c-0.954 0.475-2.021 0.768-3.167 0.768-3.857 0-6.982-3.030-6.982-6.765 0-3.737 3.126-6.767 6.982-6.767 3.855 0 6.98 3.030 6.98 6.767 0 1.392-0.436 2.686-1.183 3.763l4.744 4.598c0.682 0.661 0.682 1.732-0 2.393z" fill="#000000"></path>
</svg>
