<?xml version="1.0" encoding="utf-8"?>

<!DOCTYPE svg PUBLIC "-//W3C//DTD SVG 1.1//EN" "http://www.w3.org/Graphics/SVG/1.1/DTD/svg11.dtd">
<svg version="1.1" xmlns="http://www.w3.org/2000/svg" xmlns:xlink="http://www.w3.org/1999/xlink" width="32" height="32" viewBox="0 0 32 32">
<g>
</g>
	<path d="M25.973-0.053h-20c-4 0-6.027 2.005-6.027 6.005v14c0 4 2.027 6 5.973 6v6l8.053-5.978h12c4 0 5.973-2.022 5.973-6.022l0-14c0-4-1.973-6.005-5.973-6.005zM23.947 12.352c-3.307 0-9.522 6.422-11.237 9.6-2.432-3.033-4.741-4.078-6.743-4.801l3.378-6 3.363 4.801c0 0 4.518-9.6 11.238-12l-0 8.4z" fill="#000000"></path>
</svg>
