<?xml version="1.0" encoding="utf-8"?>

<!DOCTYPE svg PUBLIC "-//W3C//DTD SVG 1.1//EN" "http://www.w3.org/Graphics/SVG/1.1/DTD/svg11.dtd">
<svg version="1.1" xmlns="http://www.w3.org/2000/svg" xmlns:xlink="http://www.w3.org/1999/xlink" width="32" height="32" viewBox="0 0 32 32">
<g>
</g>
	<path d="M26.936 24.817c1.23-2.567 2.734-4.046 2.734-10.9 0-10.503-12.634-7.72-12.523-6.128-0.089-1.262 1.763-3.319 2.863-3.446 0.186-0.177-1.146-3.239-3.191-0.268-0.633 0.921-0.936 2.464-0.861 3.733-0.047-0.006-0.095-0.010-0.142-0.016-0.947-1.859-2.104-4.741-3.585-5.027-1.652-0.32-4.776-0.497-6.38 1.838 1.309-0.052 4.975 0.856 7.724 2.55-1.168-0.422-2.383-0.839-3.954-0.59-3.138 0.499-7.291 3.34-7.291 7.355 0 6.242 2.766 9.59 3.646 10.9s2.598 4.476 4.556 4.597c2.569 0.158 3.598-1.891 5.468-1.838 1.716 0 3.892 1.838 5.468 1.838 2.055-0 4.237-2.033 5.468-4.597z" fill="#000000"></path>
</svg>
