<?xml version="1.0" encoding="utf-8"?>

<!DOCTYPE svg PUBLIC "-//W3C//DTD SVG 1.1//EN" "http://www.w3.org/Graphics/SVG/1.1/DTD/svg11.dtd">
<svg version="1.1" xmlns="http://www.w3.org/2000/svg" xmlns:xlink="http://www.w3.org/1999/xlink" width="32" height="32" viewBox="0 0 32 32">
<g>
</g>
	<path d="M19.132 18.865c0 0-2.863 2.188-6.397 0l-12.735-10.865c0 0 0.056-2.017 2.135-2.017h27.731c0 0 2.065 0.039 2.065 2.039l-12.799 10.843zM25.512 16.028l6.488-6.028v16c0 0-0.112 2-2 2h-27.8c0 0-2.2-0.188-2.2-2v-16l6.438 5.959-4.333 9.562 6.228-7.469 4.001 3.010c0 0 3.669 2.399 7.111 0.062l3.979-3.119 6.465 8.008-4.377-9.985z" fill="#000000"></path>
</svg>
