<?xml version="1.0" encoding="utf-8"?>

<!DOCTYPE svg PUBLIC "-//W3C//DTD SVG 1.1//EN" "http://www.w3.org/Graphics/SVG/1.1/DTD/svg11.dtd">
<svg version="1.1" xmlns="http://www.w3.org/2000/svg" xmlns:xlink="http://www.w3.org/1999/xlink" width="32" height="32" viewBox="0 0 32 32">
<g>
</g>
	<path d="M24.047 24.016v-6.012c-10.020 0-10.020 0-10.020 0v-6.012c6.012 0 10.020 0 10.020 0v-4.008c3.674 3.006 8.016 8.016 8.016 8.016s-7.347 8.016-8.016 8.016zM20.039 4.979c0 0-0.096-1.002-1.002-1.002h-11.021v4.008c0 2.098-2.004 2.004-2.004 2.004h-4.008v17.033c0 0 0.097 1.002 1.002 1.002h16.031c0.904 0 1.002-1.002 1.002-1.002l0.037-6.982h1.967v7.984c0 1.106-0.898 2.004-2.004 2.004h-18.035c-1.106 0-2.004-0.896-2.004-2.004v-20.039l6.012-6.012h14.027c1.106 0 2.004 0.898 2.004 2.004v6.012h-2.004v-5.010z" fill="#000000"></path>
</svg>
