<?xml version="1.0" encoding="utf-8"?>

<!DOCTYPE svg PUBLIC "-//W3C//DTD SVG 1.1//EN" "http://www.w3.org/Graphics/SVG/1.1/DTD/svg11.dtd">
<svg version="1.1" xmlns="http://www.w3.org/2000/svg" xmlns:xlink="http://www.w3.org/1999/xlink" width="32" height="32" viewBox="0 0 32 32">
<g>
</g>
	<path d="M18.881 5.159c-0.832-0.201-0.561 0.049-0.641-0.241-0.165-0.587-0.405-1.651-0.739-2.287 0 0-8.265-1.17-10.297-0.922-0.077 0.009-0.566-0.040-0.97-0.040-0.459 0-2.734 0.372-2.734 0.832l-0.016 26.039 1.976 1.791 1.632-1.791v-9.134c0 0 0.122-0.187 0.361-0.313 1.262-0.663 8.234-3.396 10.493-3.083l0.005 1.626c1.542 1.988 10.516-0.119 10.516-0.119l0.047-13.312c-2.658 0.867-7.419 1.492-9.634 0.953zM7.358 17.839c-0.086 0.205-0.264 0.112-0.264 0.112v-14.239c0-0.056 0.072-0.439 0.272 0.121 2.421 1.985 1.723 9.851-0.008 14.006z" fill="#000000"></path>
</svg>
