<?xml version="1.0" encoding="utf-8"?>

<!DOCTYPE svg PUBLIC "-//W3C//DTD SVG 1.1//EN" "http://www.w3.org/Graphics/SVG/1.1/DTD/svg11.dtd">
<svg version="1.1" xmlns="http://www.w3.org/2000/svg" xmlns:xlink="http://www.w3.org/1999/xlink" width="32" height="32" viewBox="0 0 32 32">
<g>
</g>
	<path d="M0 17.388c0-2.587 0.866-4.825 2.598-6.713-0.094-0.25-0.18-0.535-0.258-0.853s-0.151-0.772-0.219-1.361-0.042-1.27 0.078-2.042 0.342-1.56 0.665-2.363c0.063-0.021 0.149-0.039 0.258-0.055s0.373-0.003 0.79 0.039c0.417 0.042 0.866 0.133 1.346 0.274s1.124 0.412 1.933 0.814 1.656 0.905 2.543 1.51c1.523-0.417 3.609-0.626 6.259-0.626 2.66 0 4.752 0.209 6.275 0.626 0.887-0.605 1.729-1.108 2.527-1.51s1.45-0.673 1.956-0.814c0.506-0.141 0.949-0.235 1.33-0.282s0.655-0.055 0.822-0.024l0.235 0.047c0.323 0.803 0.545 1.591 0.665 2.363s0.146 1.453 0.078 2.042-0.141 1.043-0.219 1.361-0.164 0.602-0.258 0.853c1.732 1.888 2.597 4.126 2.597 6.713 0 1.45-0.136 2.762-0.407 3.935s-0.649 2.193-1.134 3.059-1.101 1.627-1.846 2.285c-0.746 0.657-1.554 1.194-2.425 1.612s-1.865 0.756-2.981 1.017-2.253 0.443-3.411 0.548c-1.158 0.104-2.436 0.156-3.834 0.156-1.387 0-2.66-0.052-3.818-0.156s-2.292-0.287-3.403-0.548c-1.111-0.261-2.099-0.6-2.965-1.017s-1.669-0.954-2.41-1.612c-0.741-0.657-1.351-1.419-1.831-2.285s-0.855-1.886-1.127-3.059c-0.271-1.174-0.407-2.485-0.407-3.935zM3.928 21.315c0 0.897 0.112 1.693 0.336 2.386s0.511 1.275 0.861 1.745 0.835 0.869 1.455 1.197 1.226 0.582 1.815 0.759c0.589 0.177 1.346 0.316 2.269 0.415s1.747 0.159 2.472 0.18c0.725 0.021 1.646 0.031 2.762 0.031s2.037-0.010 2.762-0.031c0.725-0.021 1.549-0.081 2.472-0.18s1.68-0.237 2.269-0.415c0.589-0.177 1.194-0.43 1.815-0.759s1.106-0.728 1.455-1.197 0.636-1.051 0.861-1.745c0.224-0.694 0.336-1.489 0.336-2.386 0-1.523-0.683-2.9-2.050-4.131-0.407-0.376-0.881-0.66-1.424-0.853s-1.155-0.302-1.839-0.329c-0.683-0.026-1.338-0.021-1.964 0.016s-1.398 0.086-2.316 0.149c-0.918 0.063-1.711 0.094-2.378 0.094s-1.46-0.031-2.378-0.094c-0.918-0.063-1.69-0.112-2.316-0.149s-1.28-0.042-1.964-0.016c-0.683 0.026-1.296 0.136-1.839 0.329s-1.017 0.477-1.424 0.853c-1.367 1.252-2.050 2.629-2.050 4.131zM8.481 21.581c0-0.981 0.235-1.82 0.704-2.519s1.038-1.048 1.706-1.048c0.668 0 1.234 0.347 1.698 1.041s0.696 1.536 0.696 2.527-0.232 1.833-0.696 2.527-1.030 1.041-1.698 1.041c-0.668 0-1.236-0.349-1.706-1.048s-0.704-1.539-0.704-2.519zM18.543 21.581c0-0.981 0.235-1.82 0.704-2.519s1.033-1.048 1.69-1.048c0.668 0 1.236 0.349 1.706 1.048s0.704 1.539 0.704 2.519c0 0.981-0.235 1.82-0.704 2.519s-1.038 1.048-1.706 1.048c-0.657 0-1.221-0.349-1.69-1.048s-0.704-1.539-0.704-2.519z" fill="#000000"></path>
</svg>
