<?xml version="1.0" encoding="utf-8"?>

<!DOCTYPE svg PUBLIC "-//W3C//DTD SVG 1.1//EN" "http://www.w3.org/Graphics/SVG/1.1/DTD/svg11.dtd">
<svg version="1.1" xmlns="http://www.w3.org/2000/svg" xmlns:xlink="http://www.w3.org/1999/xlink" width="32" height="32" viewBox="0 0 32 32">
<g>
</g>
	<path d="M9.506 12.965h-0.031l-1.451 4.445h2.886l-1.404-4.445zM26 2c0 0-2 0.031-2 0 0-2-2-2-2-2s-16 0-18 0-2 2-2 2 0 22 0 26 4 4 4 4h20c0 0 2 0 2-2 0 0 0-24.094 0-26s-2-2-2-2zM14 14h3v-3h2v3h3v2h-3v3h-2v-3h-3v-2zM8.258 9.979h2.512l4.165 12.021h-2.543l-0.843-2.604h-4.165l-0.874 2.603h-2.464l4.212-12.020zM26 28c0 0-0.619 2-2 2h-18l-2-2h18c1.999 0 2-2 2-2v-22c0 0 0.521 0 1.031 0 0.958 0 0.969 1 0.969 1v23z" fill="#000000"></path>
</svg>
