<?xml version="1.0" encoding="utf-8"?>

<!DOCTYPE svg PUBLIC "-//W3C//DTD SVG 1.1//EN" "http://www.w3.org/Graphics/SVG/1.1/DTD/svg11.dtd">
<svg version="1.1" xmlns="http://www.w3.org/2000/svg" xmlns:xlink="http://www.w3.org/1999/xlink" width="32" height="32" viewBox="0 0 32 32">
<g>
</g>
	<path d="M26.017 26.504c0 0.785-0.007 3.057-0.007 3.057s-5.321 0.039-10.010 0.039c-4.762 0-9.973 0-9.973 0s0-1.994 0-3.11c0-2.854 3.625-5.013 8.025-5.442-1.425-1.012-2.423-3.062-2.423-5.453 0-3.388 1.957-6.135 4.377-6.135 2.419 0 4.379 2.747 4.379 6.135 0 2.414-1.005 4.479-2.451 5.48 4.246 0.484 8.084 2.64 8.084 5.428zM24.894 12.141c0.975-0.935 1.624-2.57 1.624-4.434 0-2.905-1.568-5.259-3.506-5.259-1.927 0-3.488 2.332-3.505 5.215 2.095 1.559 3.505 4.474 3.505 7.81 0 1.437-0.262 2.786-0.726 3.991 0.244 0.005 0.488 0.002 0.726 0.002 3.534 0 7.014 0 7.014 0s0-2.366 0-2.994c-0-2.235-1.764-3.937-5.133-4.331zM5.481 7.707c0 1.878 0.658 3.522 1.645 4.452-3.298 0.426-5.153 2.109-5.153 4.313 0 0.892 0 2.994 0 2.994s3.447 0 7.015 0c0.238 0 0.481 0.003 0.727-0.002-0.465-1.206-0.727-2.564-0.727-4 0-3.337 1.41-6.247 3.505-7.807-0.017-2.882-1.579-5.211-3.505-5.211-1.937 0-3.507 2.356-3.507 5.261z" fill="#000000"></path>
</svg>
