<?xml version="1.0" encoding="utf-8"?>

<!DOCTYPE svg PUBLIC "-//W3C//DTD SVG 1.1//EN" "http://www.w3.org/Graphics/SVG/1.1/DTD/svg11.dtd">
<svg version="1.1" xmlns="http://www.w3.org/2000/svg" xmlns:xlink="http://www.w3.org/1999/xlink" width="32" height="32" viewBox="0 0 32 32">
<g>
</g>
	<path d="M24.6 22.385c-3.884-0.571-3.666-1.465-3.666-1.465l-0.057-1.141c0 0 1.251-1.038 1.847-2.729 0.938-0.589 1.294-0.672 1.449-1.352 0 0 0.421-2.568-0.586-2.568 0 0-0.336 0.066-0.202-0.535 0.135-0.603 0.090-0.812 0.022-1.48s-0.477-2.582-1.887-2.849c-0.962-0.179-0.654 0.093-1.124 0.025-0.47-0.066-1.029-1.279-1.901-1.279l-1.394 0.289c-0.872 0-0.285 0.127-0.736 0.273-0.207 0.067-0.047 0.075-0.633 0.262-1.368 0.437-1.698 2.074-1.766 2.743-0.055 0.55-0.075 0.795-0.056 1.421h-1.6c0.021-0.562 0.073-1.068 0.139-1.547-0.355-0.228-0.316-0.404-0.316-0.404l-0.040-0.831c0 0 0.909-0.756 1.343-1.988 0.254-0.16 0.435-0.266 0.585-0.365 0.094-0.085 0.186-0.173 0.289-0.249 0.079-0.097 0.143-0.208 0.18-0.371 0 0 0.307-1.872-0.426-1.872 0 0-0.245 0.049-0.147-0.391 0.098-0.438 0.065-0.591 0.017-1.078s-0.348-1.881-1.373-2.076c-0.699-0.13-0.476 0.067-0.817 0.019s-0.749-0.933-1.383-0.933l-1.015 0.212c-0.634 0-0.079 0.194-0.421 0.243s0.45-0.049-0.575 0.147c-1.025 0.195-1.235 1.51-1.284 1.999-0.049 0.487-0.061 0.64-0.028 1.371 0.098 0.438-0.396 0.438-0.396 0.438-0.615-0.039-0.719 1.871-0.719 1.871 0.088 0.472-0.032 0.706 0.877 1.072 0.434 1.232 1.002 1.854 1.002 1.854s0.041 0.591 0.063 1.114c-0.171 0.225-0.742 0.602-2.631 0.877-2.861 0.416-3.234 1.864-3.234 2.372 0 1.84 0 3.438 0 3.438s1.706 0.427 4 0.723v0.355h-6v8h6v6h8v-2.021h15c0 0 0-1.819 0-4.341 0-0.699-0.516-2.682-4.4-3.253zM18 24h-6v6h-4v-6h-6v-4h6v-6h4v6h6v4zM28.8 11.117c-2.825-0.416-2.667-1.068-2.667-1.068l-0.040-0.831c0 0 0.909-0.756 1.343-1.988 0.682-0.43 0.941-0.489 1.054-0.984 0 0 0.307-1.872-0.426-1.872 0 0-0.245 0.049-0.147-0.391 0.098-0.438 0.065-0.591 0.017-1.078s-0.348-1.881-1.373-2.076c-0.699-0.13-0.476 0.067-0.817 0.019s-0.749-0.933-1.383-0.933l-1.014 0.212c-0.634 0-0.079 0.194-0.421 0.243s0.45-0.049-0.575 0.146c-1.024 0.195-1.234 1.511-1.283 1.999s-0.061 0.64-0.028 1.371c0.098 0.438-0.396 0.438-0.396 0.438-0.553-0.035-0.692 1.498-0.714 1.806 0.291 0.148 0.606 0.27 0.994 0.292 1.375 0.078 3.443 1.583 3.509 2.496 0.021 0.281 0.533 2.036 0.287 3.082 0.315 0.127 0.92 1.176 0.907 2-0.018 1.17-0.030 3.026-1.848 3.61-0.014 0.081-0.014 0.189-0.008 0.307 0.077 0.001 0.153 0.005 0.23 0.005 4 0 8-1 8-1s0-1.597 0-3.435c-0.001-0.508-0.376-1.954-3.201-2.37z" fill="#000000"></path>
</svg>
