<?xml version="1.0" encoding="utf-8"?>

<!DOCTYPE svg PUBLIC "-//W3C//DTD SVG 1.1//EN" "http://www.w3.org/Graphics/SVG/1.1/DTD/svg11.dtd">
<svg version="1.1" xmlns="http://www.w3.org/2000/svg" xmlns:xlink="http://www.w3.org/1999/xlink" width="32" height="32" viewBox="0 0 32 32">
<g>
</g>
	<path d="M26.335 5.107c0.209-0.208 0.321-0.426 0.321-0.651 0-1.435-4.541-2.605-10.227-2.662-0.143-0.002-0.286-0.003-0.429-0.002-5.885 0-10.656 1.193-10.656 2.664 0 0.225 0.112 0.443 0.322 0.651-0.017 0.078-0.026 0.157-0.026 0.236 0 3.552 6.216 6.684 6.216 10.656 0 3.552-6.216 5.328-6.216 10.656 0 2.654 5.202 3.541 10.36 3.552 5.201 0.010 10.36-0.878 10.36-3.552 0-5.328-6.216-7.104-6.216-10.656 0-3.972 6.216-7.104 6.216-10.656-0-0.080-0.009-0.159-0.025-0.237zM13.928 16c0-1.271-0.527-2.455-1.316-3.595 1.076 1.14 2.025 2.324 2.025 3.595 0 1.369 1.762 5.854 0.628 7-1.469 1.483-5.918 2.967-7.227 3.473 0.133-5.186 5.889-6.962 5.889-10.473zM23.963 26.624c-1.526-0.245-5.505-1.933-7.179-3.624-1.133-1.145 0.578-5.633 0.578-7 0-1.284 0.96-2.479 2.049-3.63-0.802 1.15-1.34 2.346-1.34 3.63 0 3.545 5.869 5.321 5.892 10.624zM20.84 10.606c-0.010 0.011-0.020 0.022-0.029 0.033-3.062 0.107-3.578 1.392-4.755 1.365-1.281-0.029-1.804-1.261-4.809-1.302-0.029-0.032-0.057-0.064-0.086-0.096-1.31-1.456-2.595-2.873-2.996-4.345 0.001 0 0.001 0 0.002 0 0.12 0.033 0.243 0.064 0.369 0.095 0.003 0.001 0.006 0.001 0.008 0.002 0.125 0.031 0.253 0.060 0.384 0.090 0.004 0.001 0.007 0.002 0.011 0.002 0.131 0.029 0.264 0.057 0.401 0.085 0.004 0.001 0.007 0.002 0.011 0.002 0.138 0.027 0.278 0.054 0.421 0.080 0.002 0 0.004 0.001 0.006 0.001 0.582 0.105 1.208 0.196 1.87 0.27 0.003 0 0.006 0.001 0.010 0.001 0.16 0.018 0.322 0.035 0.487 0.051 0.010 0.001 0.020 0.002 0.030 0.003 0.158 0.015 0.318 0.030 0.48 0.043 0.014 0.001 0.029 0.002 0.043 0.003 0.158 0.013 0.319 0.025 0.48 0.036 0.017 0.001 0.034 0.002 0.051 0.003 0.16 0.011 0.322 0.021 0.485 0.030 0.018 0.001 0.036 0.002 0.054 0.003 0.164 0.009 0.329 0.016 0.495 0.023 0.018 0.001 0.035 0.002 0.053 0.002 0.169 0.007 0.339 0.012 0.511 0.017 0.014 0 0.029 0.001 0.043 0.001 0.177 0.005 0.355 0.008 0.535 0.011 0.009 0 0.018 0 0.027 0 0.188 0.002 0.378 0.004 0.569 0.004s0.38-0.001 0.569-0.004c0.009-0 0.018-0 0.027-0 0.18-0.002 0.358-0.006 0.535-0.011 0.014-0 0.029-0.001 0.043-0.001 0.171-0.005 0.342-0.010 0.511-0.017 0.018-0.001 0.035-0.002 0.053-0.002 0.166-0.007 0.331-0.015 0.495-0.023 0.018-0.001 0.036-0.002 0.054-0.003 0.163-0.009 0.325-0.019 0.485-0.030 0.017-0.001 0.034-0.002 0.051-0.003 0.162-0.011 0.322-0.023 0.48-0.036 0.015-0.001 0.029-0.002 0.044-0.003 0.162-0.013 0.321-0.028 0.479-0.043 0.010-0.001 0.021-0.002 0.031-0.003 0.164-0.016 0.326-0.033 0.486-0.051 0.003-0 0.007-0.001 0.011-0.001 0.662-0.074 1.287-0.165 1.869-0.27 0.003-0 0.006-0.001 0.008-0.002 0.142-0.026 0.282-0.052 0.419-0.080 0.004-0.001 0.008-0.002 0.013-0.002 0.136-0.027 0.268-0.055 0.398-0.084 0.004-0.001 0.009-0.002 0.013-0.003 0.13-0.029 0.257-0.059 0.381-0.089 0.003-0.001 0.007-0.002 0.010-0.002 0.125-0.031 0.248-0.062 0.367-0.095 0.001-0 0.002-0.001 0.003-0.001-0.401 1.472-1.686 2.889-2.996 4.345z" fill="#000000"></path>
</svg>
