<?xml version="1.0" encoding="UTF-8" standalone="no"?>
<svg width="512px" height="512px" viewBox="0 0 512 512" version="1.1" xmlns="http://www.w3.org/2000/svg" xmlns:xlink="http://www.w3.org/1999/xlink" xmlns:sketch="http://www.bohemiancoding.com/sketch/ns">
    <!-- Generator: Sketch 3.2.2 (9983) - http://www.bohemiancoding.com/sketch -->
    <title>icon-name</title>
    <desc>Created with Sketch.</desc>
    <defs></defs>
    <g id="Page-1" stroke="none" stroke-width="1" fill="none" fill-rule="evenodd" sketch:type="MSPage">
        <g id="icon-name" sketch:type="MSArtboardGroup" fill="#000000">
            <path d="M172.251684,38.0862412 C173.493829,38.0289574 174.743373,38 175.999686,38 L386.000314,38 C430.182921,38 466,73.8165421 466,118.008881 L466,423.991119 C466,468.178804 430.186656,504 386.000314,504 L175.999686,504 C131.817079,504 96,468.183458 96,423.991119 L96,352.290368 L96,352.290368 L146,402.290368 L146,415.003669 C146,437.099298 163.9099,455 186.00288,455 L375.99712,455 C398.088547,455 416,437.093033 416,415.003669 L416,128.996331 C416,106.900702 398.0901,89 375.99712,89 L214.9734,89 L172.251684,38.0862412 L172.251684,38.0862412 Z" id="Rectangle-44" sketch:type="MSShapeGroup"></path>
            <path d="M149.467614,155.559915 L149.467614,155.439222 L204.076741,155.439222 L172.231809,123.594291 L211.122682,84.703418 L308.703418,182.284154 L308.548349,182.439222 L308.703418,182.594291 L211.122682,280.175027 L172.231809,241.284154 L203.076741,210.439222 L203.076741,210.439222 L149.467614,210.439222 L149.467614,210.247505 C139.199945,210.078251 101.809896,211.327679 77.9705421,236.865007 C50.1238625,266.695086 55.4900747,305.541764 55.4900747,305.541764 L-7.43448602,305.541764 C-7.43448602,305.541764 -11.5636363,234.951919 31.4129261,191.89723 C69.6506822,153.589963 135.426905,154.822378 149.467614,155.559915 Z" id="Rectangle-45" sketch:type="MSShapeGroup" transform="translate(150.580827, 195.122591) rotate(90.000000) translate(-150.580827, -195.122591) "></path>
        </g>
    </g>
</svg>