<?xml version="1.0" encoding="utf-8"?>

<!DOCTYPE svg PUBLIC "-//W3C//DTD SVG 1.1//EN" "http://www.w3.org/Graphics/SVG/1.1/DTD/svg11.dtd">
<svg version="1.1" xmlns="http://www.w3.org/2000/svg" xmlns:xlink="http://www.w3.org/1999/xlink" width="32" height="32" viewBox="0 0 32 32">
<g>
</g>
	<path d="M13.957 24.016v-6.012c-10.020 0-12.020 0-12.020 0v-6.012c6.012 0 12.020 0 12.020 0v-4.008c3.674 3.006 8.016 8.016 8.016 8.016s-7.347 8.016-8.016 8.016zM10.004 9.988h-2.004v-6.012c0-1.106 0.898-2.004 2.004-2.004h14.027l6.012 6.012v20.039c0 1.108-0.898 2.004-2.004 2.004h-18.035c-1.106 0-2.004-0.898-2.004-2.004v-7.984h1.967l0.037 6.982c0 0 0.098 1.002 1.002 1.002h16.031c0.905 0 1.002-1.002 1.002-1.002v-17.033h-4.008c0 0-2.004 0.094-2.004-2.004v-4.008h-11.021c-0.906 0-1.002 1.002-1.002 1.002v5.010z" fill="#000000"></path>
</svg>
