<?xml version="1.0" encoding="utf-8"?>

<!DOCTYPE svg PUBLIC "-//W3C//DTD SVG 1.1//EN" "http://www.w3.org/Graphics/SVG/1.1/DTD/svg11.dtd">
<svg version="1.1" xmlns="http://www.w3.org/2000/svg" xmlns:xlink="http://www.w3.org/1999/xlink" width="32" height="32" viewBox="0 0 32 32">
<g>
</g>
	<path d="M16 1.817c-7.839 0-14.195 6.356-14.195 14.195s6.356 14.195 14.195 14.195 14.195-6.356 14.195-14.195c0-7.839-6.356-14.195-14.195-14.195zM16.516 6.368c0.393-0.395 0.872-0.596 1.435-0.596 0.574 0 1.057 0.201 1.449 0.596 0.393 0.399 0.589 0.88 0.589 1.442 0 0.565-0.198 1.047-0.596 1.442-0.397 0.399-0.877 0.596-1.442 0.596-0.554 0-1.029-0.198-1.428-0.596-0.397-0.395-0.595-0.877-0.595-1.442 0-0.561 0.197-1.043 0.589-1.442zM13.973 26.152c-0.601 0-0.975-0.613-1.204-1.142-0.196-0.449-0.181-0.957-0.181-1.475 0-0.341 0.078-0.776 0.236-1.303l1.927-6.626c0.185-0.638 0.277-1.118 0.277-1.442 0-0.203-0.089-0.383-0.263-0.541-0.176-0.156-0.416-0.236-0.721-0.236-0.139 0-0.305 0.005-0.499 0.014l0.18-0.587 4.698-0.922h0.832l-2.842 10.015c-0.156 0.565-0.236 0.95-0.236 1.125 0 0.102 0.041 0.206 0.125 0.293 0.083 0.088 0.171 0.136 0.263 0.136 0.158 0 0.315-0.067 0.471-0.206 0.416-0.341 0.915-0.959 1.497-1.856l1.521 0.695c-1.393 2.431-3.497 4.057-6.082 4.057z" fill="#000000"></path>
</svg>
