<?xml version="1.0" encoding="utf-8"?>

<!DOCTYPE svg PUBLIC "-//W3C//DTD SVG 1.1//EN" "http://www.w3.org/Graphics/SVG/1.1/DTD/svg11.dtd">
<svg version="1.1" xmlns="http://www.w3.org/2000/svg" xmlns:xlink="http://www.w3.org/1999/xlink" width="32" height="32" viewBox="0 0 32 32">
<g>
</g>
	<path d="M4.742 15.965c0 2.341-1.756 4.27-4.024 4.548-0.376-1.453-0.576-2.978-0.576-4.548s0.2-3.094 0.576-4.548c2.267 0.279 4.024 2.206 4.024 4.548zM7.408 14.527c-0.794 0-1.437 0.644-1.437 1.438s0.644 1.438 1.437 1.438c0.794 0 1.438-0.644 1.438-1.438s-0.644-1.438-1.438-1.438zM27.257 15.965c0 2.341 1.756 4.27 4.023 4.548 0.376-1.453 0.577-2.978 0.577-4.548s-0.201-3.094-0.577-4.548c-2.267 0.279-4.023 2.206-4.023 4.548zM24.591 14.527c-0.794 0-1.438 0.644-1.438 1.438s0.643 1.438 1.438 1.438c0.794 0 1.438-0.644 1.438-1.438s-0.644-1.438-1.438-1.438zM15.97 27.263c-2.341 0-4.269 1.757-4.547 4.023 1.454 0.376 2.977 0.577 4.548 0.577s3.094-0.201 4.548-0.577c-0.279-2.266-2.207-4.023-4.549-4.023zM15.971 23.158c-0.794 0-1.438 0.645-1.438 1.439s0.644 1.438 1.438 1.438c0.793 0 1.438-0.643 1.438-1.438s-0.644-1.439-1.438-1.439zM15.971 4.737c2.341 0 4.269-1.757 4.548-4.024-1.454-0.375-2.976-0.576-4.547-0.576s-3.094 0.201-4.549 0.576c0.279 2.267 2.207 4.024 4.549 4.024zM15.971 5.965c-0.794 0-1.438 0.644-1.438 1.438 0 0.793 0.644 1.437 1.438 1.437 0.793 0 1.438-0.644 1.438-1.437-0-0.794-0.644-1.438-1.438-1.438zM23.945 23.938c-1.654 1.655-1.776 4.258-0.374 6.057 2.65-1.562 4.868-3.781 6.429-6.431-1.799-1.402-4.402-1.279-6.056 0.374zM21.042 21.037c-0.561 0.561-0.561 1.472 0 2.033 0.562 0.562 1.472 0.562 2.034 0 0.561-0.562 0.561-1.472 0-2.033-0.562-0.561-1.472-0.561-2.034 0zM8.022 8.016c1.654-1.654 1.776-4.257 0.374-6.056-2.651 1.562-4.868 3.779-6.43 6.43 1.799 1.403 4.403 1.28 6.057-0.374zM8.89 8.884c-0.56 0.562-0.56 1.472 0 2.034 0.562 0.561 1.473 0.561 2.033 0s0.561-1.472 0-2.034c-0.561-0.561-1.472-0.561-2.033 0zM23.935 8.001c1.654 1.654 4.257 1.777 6.056 0.374-1.561-2.651-3.779-4.868-6.429-6.43-1.403 1.798-1.28 4.402 0.374 6.056zM23.067 10.903c0.561-0.562 0.561-1.472 0-2.034-0.562-0.561-1.473-0.561-2.034 0s-0.561 1.472 0 2.034c0.561 0.561 1.472 0.561 2.034 0zM8.013 23.921c-1.654-1.653-4.257-1.776-6.056-0.374 1.562 2.651 3.779 4.869 6.43 6.431 1.403-1.799 1.28-4.402-0.375-6.057zM8.882 21.020c-0.56 0.561-0.56 1.472 0 2.033 0.562 0.562 1.473 0.562 2.034 0s0.562-1.472 0-2.033c-0.561-0.562-1.472-0.562-2.034 0z" fill="#000000"></path>
</svg>
