<?xml version="1.0" encoding="utf-8"?>

<!DOCTYPE svg PUBLIC "-//W3C//DTD SVG 1.1//EN" "http://www.w3.org/Graphics/SVG/1.1/DTD/svg11.dtd">
<svg version="1.1" xmlns="http://www.w3.org/2000/svg" xmlns:xlink="http://www.w3.org/1999/xlink" width="32" height="32" viewBox="0 0 32 32">
<g>
</g>
	<path d="M31.969 17.998c0 0.627-2 1.302-2 2 0 0.607 2 1.165 2 2 0 0.717 0 3.351 0 4 0 0.889-2 1.458-2 2 0 1.939 0 2 0 2 0 2.141-4 2-4 2s-7.75 0-10 0-6-2-6-2v-16c0.012 0 0.031 0 0.031 0 2.28-0.194 7.149-5.628 7.969-7.999 0.819-2.373 2-4.001 2-4.001s0 0 2.184-0.023c3.816 0.023 3.004 4.055 3.004 4.024 0 2.954-3.188 5.999-3.188 5.999 2.631 0 5.328 0.012 5.328 0.012 2.697 0 4.672 1.988 4.672 1.988s0.007 0.829 0.007 1.938c0 0.572-0.007 1.314-0.007 2.062zM7.969 31.802c-1.261 0.202-3.187 0.196-6 0.196-1.423 0-1.944-1.923-1.944-1.923l-0.025-15.077c0 0 0.362-1 1-1 2.425 0 5.156 0 6.969 0v17.804z" fill="#000000"></path>
</svg>
