<?xml version="1.0" encoding="utf-8"?>

<!DOCTYPE svg PUBLIC "-//W3C//DTD SVG 1.1//EN" "http://www.w3.org/Graphics/SVG/1.1/DTD/svg11.dtd">
<svg version="1.1" xmlns="http://www.w3.org/2000/svg" xmlns:xlink="http://www.w3.org/1999/xlink" width="32" height="32" viewBox="0 0 32 32">
<g>
</g>
	<path d="M10 22c0.55 0.55 1.477 0.523 2.061-0.061l9.879-9.879c0.583-0.583 0.611-1.511 0.061-2.061s-1.477-0.523-2.061 0.061l-9.879 9.879c-0.583 0.583-0.611 1.511-0.061 2.061zM14.903 21.097c0.143 0.283 0.218 0.599 0.218 0.928 0 0.55-0.211 1.064-0.594 1.447l-5.106 5.106c-0.383 0.383-0.897 0.593-1.447 0.593s-1.064-0.211-1.447-0.593l-3.106-3.106c-0.383-0.383-0.594-0.897-0.594-1.447s0.211-1.064 0.594-1.447l5.106-5.106c0.383-0.383 0.897-0.594 1.447-0.594 0.329 0 0.645 0.076 0.928 0.218l2.042-2.042c-0.871-0.669-1.92-1.005-2.97-1.005-1.25 0-2.499 0.474-3.447 1.422l-5.106 5.106c-1.896 1.896-1.896 4.998 0 6.894l3.106 3.106c0.948 0.948 2.197 1.422 3.447 1.422s2.499-0.474 3.447-1.422l5.106-5.106c1.744-1.744 1.882-4.509 0.417-6.417l-2.042 2.042zM30.578 4.528l-3.106-3.106c-0.948-0.948-2.197-1.422-3.447-1.422s-2.499 0.474-3.447 1.422l-5.106 5.106c-1.744 1.744-1.882 4.509-0.417 6.417l2.042-2.042c-0.142-0.283-0.218-0.599-0.218-0.928 0-0.55 0.211-1.064 0.593-1.447l5.106-5.106c0.383-0.383 0.897-0.594 1.447-0.594s1.064 0.211 1.447 0.594l3.106 3.106c0.383 0.383 0.593 0.897 0.593 1.447s-0.211 1.064-0.593 1.447l-5.106 5.106c-0.383 0.383-0.897 0.594-1.447 0.594-0.329 0-0.645-0.076-0.928-0.218l-2.042 2.042c0.871 0.669 1.92 1.005 2.97 1.005 1.25 0 2.499-0.474 3.447-1.422l5.106-5.106c1.896-1.896 1.896-4.998 0-6.894z" fill="#000000"></path>
</svg>
