<?xml version="1.0" encoding="utf-8"?>

<!DOCTYPE svg PUBLIC "-//W3C//DTD SVG 1.1//EN" "http://www.w3.org/Graphics/SVG/1.1/DTD/svg11.dtd">
<svg version="1.1" xmlns="http://www.w3.org/2000/svg" xmlns:xlink="http://www.w3.org/1999/xlink" width="32" height="32" viewBox="0 0 32 32">
<g>
</g>
	<path d="M26.666 0h-21.332c-2.934 0-5.334 2.4-5.334 5.334v21.332c0 2.936 2.4 5.334 5.334 5.334h21.332c2.934 0 5.334-2.398 5.334-5.334v-21.332c-0-2.934-2.4-5.334-5.334-5.334zM9.837 26.79h-4.839v-14.56h4.839v14.56zM7.418 10.242h-0.032c-1.624 0-2.674-1.119-2.674-2.517 0-1.428 1.082-2.515 2.738-2.515s2.674 1.087 2.706 2.515c0 1.398-1.051 2.517-2.738 2.517zM27.288 26.79h-4.839v-7.79c0-1.957-0.7-3.292-2.451-3.292-1.337 0-2.134 0.9-2.483 1.77-0.128 0.311-0.159 0.745-0.159 1.18v8.131h-4.84c0 0 0.064-13.194 0-14.56h4.84v2.063c0.643-0.992 1.792-2.405 4.362-2.405 3.184 0 5.572 2.082 5.572 6.553v8.349h-0z" fill="#000000"></path>
</svg>
