<?xml version="1.0" encoding="utf-8"?>

<!DOCTYPE svg PUBLIC "-//W3C//DTD SVG 1.1//EN" "http://www.w3.org/Graphics/SVG/1.1/DTD/svg11.dtd">
<svg version="1.1" xmlns="http://www.w3.org/2000/svg" xmlns:xlink="http://www.w3.org/1999/xlink" width="32" height="32" viewBox="0 0 32 32">
<g>
</g>
	<path d="M26.874 8.752c0.001-0.001 0.001-0.001 0.002-0.002 0.002-0.003 0.002-0.006 0.003-0.009-0.002 0.004-0.002 0.008-0.005 0.012 0-0 0.001-0.001 0.001-0.001zM14.902 6.080c-2.016 0-3.743 1.69-4.445 4.073h8.889c-0.702-2.383-2.429-4.073-4.445-4.073zM12.267 9.062c0.136-0.221 0.284-0.426 0.442-0.611h4.385c0.159 0.186 0.306 0.39 0.442 0.611h-5.269zM18.283 19.602c-0.174-0.294-0.445-0.576-0.812-0.846s-0.89-0.498-1.569-0.681c-0.129-0.037-0.25-0.069-0.364-0.096s-0.227-0.055-0.337-0.082v-2.435c0.312 0 0.578 0.129 0.798 0.385s0.335 0.569 0.344 0.936h1.954c-0.028-0.477-0.129-0.89-0.303-1.238s-0.399-0.64-0.674-0.874c-0.275-0.234-0.594-0.417-0.956-0.55s-0.75-0.222-1.162-0.268v-1.059h-0.812v1.059c-0.413 0.027-0.812 0.108-1.197 0.241s-0.725 0.321-1.018 0.564c-0.294 0.243-0.53 0.544-0.709 0.901s-0.268 0.771-0.268 1.238c0 0.459 0.078 0.842 0.234 1.149s0.365 0.564 0.626 0.77c0.262 0.206 0.557 0.372 0.887 0.496s0.665 0.232 1.005 0.323c0.091 0.018 0.177 0.039 0.255 0.062s0.14 0.043 0.186 0.062v2.875c-0.422-0.082-0.775-0.275-1.059-0.578s-0.422-0.715-0.413-1.238h-1.94c0.091 1.083 0.427 1.904 1.004 2.463s1.38 0.876 2.408 0.949v1.169h0.812v-1.169c0.688-0.046 1.252-0.184 1.692-0.413s0.791-0.491 1.052-0.784c0.261-0.294 0.442-0.594 0.543-0.901s0.152-0.562 0.152-0.764c0-0.229-0.016-0.491-0.048-0.784s-0.135-0.587-0.309-0.881zM14.39 17.703c-0.44-0.101-0.757-0.234-0.949-0.399s-0.289-0.399-0.289-0.702c0-0.193 0.034-0.36 0.103-0.502s0.163-0.262 0.282-0.358c0.119-0.096 0.252-0.167 0.399-0.213s0.298-0.069 0.454-0.069v2.243zM16.55 21.755c-0.092 0.161-0.209 0.296-0.351 0.406s-0.303 0.195-0.482 0.255c-0.179 0.060-0.351 0.099-0.516 0.117v-2.642c0.541 0.147 0.924 0.31 1.149 0.489s0.337 0.447 0.337 0.805c-0 0.22-0.046 0.41-0.137 0.571zM28.533 1.653h-25.173c-0.942 0-1.707 0.764-1.707 1.707v25.173c0 0.943 0.764 1.707 1.707 1.707h25.173c0.943 0 1.707-0.764 1.707-1.707v-25.173c0-0.942-0.764-1.707-1.707-1.707zM27.554 25.591c-0.002 0.006-0.005 0.012-0.008 0.019-0 0-0.001 0.001-0.001 0.002s-0.001 0.001-0.001 0.002c-0.003 0.005-0.007 0.010-0.011 0.015s-0.011 0.012-0.019 0.018c-0.002 0.002-0.004 0.003-0.006 0.005l-2.086 1.635c-0.006 0.005-0.011 0.008-0.017 0.012-0.009 0.006-0.018 0.012-0.028 0.017-0.002 0.001-0.004 0.002-0.006 0.003s-0.005 0.003-0.008 0.004-0.012 0.007-0.019 0.010c-0.012 0.006-0.025 0.011-0.038 0.017-0.002 0.001-0.005 0.002-0.008 0.003s-0.005 0.002-0.008 0.003c-0.009 0.004-0.018 0.007-0.027 0.011-0.016 0.006-0.033 0.012-0.050 0.018-0.001 0-0.002 0.001-0.003 0.001-0.003 0.001-0.006 0.002-0.009 0.003-0.015 0.005-0.030 0.010-0.047 0.015-0.013 0.004-0.027 0.008-0.041 0.011-0.006 0.002-0.011 0.003-0.017 0.005-0.003 0.001-0.007 0.002-0.010 0.003-0.026 0.007-0.053 0.014-0.081 0.020-0.004 0.001-0.008 0.002-0.012 0.003-0.011 0.003-0.023 0.005-0.034 0.008-0.018 0.004-0.035 0.008-0.054 0.012-0.010 0.002-0.020 0.004-0.030 0.006-0.017 0.003-0.034 0.007-0.051 0.010-0.013 0.002-0.025 0.005-0.039 0.007v-0c-0.014 0.003-0.029 0.005-0.042 0.007-0.019 0.003-0.038 0.007-0.058 0.010-0.009 0.001-0.018 0.003-0.028 0.005-0.024 0.004-0.050 0.008-0.075 0.011-0.012 0.002-0.024 0.004-0.036 0.006-0.004 0.001-0.008 0.001-0.012 0.002-0.040 0.006-0.080 0.011-0.121 0.016-0.004 0.001-0.008 0.001-0.012 0.001-0.017 0.002-0.034 0.004-0.051 0.006-0.028 0.003-0.054 0.007-0.082 0.010-0.005 0.001-0.011 0.001-0.016 0.001-0.083 0.009-0.168 0.017-0.256 0.024-0.007 0-0.013 0.001-0.020 0.002-0.038 0.003-0.076 0.006-0.115 0.009-0.002 0-0.005 0-0.007 0-0 0-0.001 0-0.001 0-0.025 0.002-0.050 0.004-0.076 0.005s-0.051 0.003-0.076 0.004c-0.009 0.001-0.019 0.001-0.028 0.002-0.005 0-0.009 0-0.014 0.001-0.008 0.001-0.016 0.001-0.024 0.002-0.022 0.001-0.044 0.002-0.067 0.003s-0.045 0.002-0.068 0.003c-0.007 0-0.013 0.001-0.020 0.001-0.005 0-0.011 0-0.016 0-0.011 0.001-0.022 0.001-0.033 0.001-0.024 0.001-0.049 0.001-0.073 0.002-0.025 0.001-0.051 0.001-0.077 0.002-0.001 0-0.002 0-0.003 0s-0.003 0-0.005 0c-0.024 0-0.048 0.001-0.073 0.001-0.029 0-0.058 0.001-0.087 0.001-0.012 0-0.023 0-0.034 0h-16.444c-0.019 0-0.037 0-0.056-0-0.031 0-0.061-0-0.091-0.001-0.004-0-0.008-0-0.012-0-0.007-0-0.013-0-0.020-0.001-0.020-0-0.041-0.001-0.061-0.001-0.024-0.001-0.047-0.002-0.070-0.002-0.006-0-0.013-0-0.020-0.001-0.001 0-0.001-0-0.002-0-0.031-0.001-0.062-0.002-0.092-0.003-0.011-0-0.022-0.001-0.034-0.002s-0.023-0.001-0.034-0.002c-0.009-0.001-0.018-0.001-0.026-0.002-0.032-0.002-0.063-0.004-0.094-0.006-0.001-0-0.001-0-0.002-0-0.008-0.001-0.015-0.001-0.022-0.002-0.024-0.002-0.048-0.003-0.072-0.006-0.008-0-0.016-0.002-0.024-0.002-0.015-0.001-0.029-0.003-0.044-0.004-0.012-0.001-0.024-0.002-0.035-0.003s-0.024-0.003-0.036-0.004c-0.017-0.002-0.034-0.004-0.050-0.006-0.008-0.001-0.017-0.002-0.026-0.003-0.010-0.001-0.019-0.003-0.029-0.004-0.025-0.003-0.050-0.007-0.074-0.010-0.009-0.002-0.019-0.003-0.028-0.004s-0.014-0.003-0.022-0.004c-0.018-0.003-0.035-0.006-0.052-0.009s-0.032-0.006-0.047-0.009c-0.016-0.003-0.032-0.007-0.047-0.011-0.014-0.003-0.028-0.006-0.041-0.010-0.015-0.004-0.028-0.008-0.041-0.012-0.012-0.003-0.024-0.007-0.035-0.010-0.013-0.004-0.024-0.008-0.035-0.012-0.010-0.003-0.020-0.007-0.029-0.011-0.011-0.005-0.019-0.009-0.029-0.014-0.007-0.004-0.016-0.007-0.022-0.011-0.009-0.005-0.015-0.010-0.022-0.015-0.005-0.004-0.011-0.007-0.015-0.011-0.006-0.006-0.011-0.012-0.015-0.018-0.002-0.003-0.006-0.006-0.008-0.010-0.005-0.009-0.009-0.019-0.009-0.028-0.111-2.811-0.223-5.62-0.334-8.431s-0.223-5.62-0.334-8.431c0 0.005 0.003 0.009 0.004 0.014-0.009-0.029 0.004-0.060 0.045-0.092l2.086-1.635c0.196-0.153 0.932-0.283 1.77-0.325-0.077 0.205-0.148 0.413-0.213 0.626-0.618 0.046-1.068 0.137-1.201 0.197l-1.104 0.865c0.043 0.001 0.088 0.001 0.134 0.001h3.149c0.754-3.341 3.062-5.78 5.786-5.78s5.032 2.439 5.786 5.78h1.723c1.009 0 1.8-0.142 1.984-0.226l1.104-0.865c-0.043-0.001-0.088-0.001-0.134-0.001h-3.706c-0.064-0.208-0.135-0.411-0.21-0.611h3.916c0.911 0 1.527 0.114 1.521 0.266 0-0.002 0.001-0.003 0.001-0.004 0.223 5.621 0.446 11.241 0.669 16.862 0 0.006-0.001 0.011-0.002 0.017z" fill="#000000"></path>
</svg>
