<?xml version="1.0" encoding="utf-8"?>

<!DOCTYPE svg PUBLIC "-//W3C//DTD SVG 1.1//EN" "http://www.w3.org/Graphics/SVG/1.1/DTD/svg11.dtd">
<svg version="1.1" xmlns="http://www.w3.org/2000/svg" xmlns:xlink="http://www.w3.org/1999/xlink" width="32" height="32" viewBox="0 0 32 32">
<g>
</g>
	<path d="M16.414 21.067c-0.26-0.207-0.68-0.395-1.32-0.565v3.056c0.213-0.021 0.381-0.066 0.588-0.136s0.388-0.167 0.553-0.294c0.164-0.127 0.297-0.284 0.404-0.469s0.162-0.406 0.162-0.661c-0-0.414-0.127-0.724-0.387-0.931zM13.15 15.702c-0.138 0.111-0.247 0.249-0.326 0.414s-0.119 0.358-0.119 0.581c0 0.35 0.11 0.621 0.333 0.812s0.563 0.345 1.096 0.462v-2.595c-0.213 0-0.354 0.027-0.524 0.080s-0.322 0.135-0.46 0.247zM28.595 7.568c0 0.002-0.001 0.024-0.001 0.026 0.006-0.176-0.706-0.287-1.76-0.287h-4.53c0.087 0.213 0.168 0.427 0.243 0.64h4.287c0.054 0 0.105 0.013 0.155 0.014l-1.277 1.002c-0.213 0.097-1.128 0.263-2.295 0.263h-1.993c-0.873-3.84-3.543-6.687-6.694-6.687s-5.822 2.847-6.694 6.687h-3.643c-0.053 0-0.105 0.004-0.155 0.004l1.277-0.998c0.154-0.070 0.674-0.174 1.389-0.227 0.075-0.246 0.158-0.487 0.247-0.724-0.969 0.049-1.822 0.199-2.048 0.376l-2.414 1.892c-0.047 0.037-0.062 0.072-0.052 0.106-0.002-0.005-0.005-0.011-0.005-0.016 0.129 3.251 0.258 6.502 0.387 9.754s0.258 6.502 0.387 9.754c0 0.011 0.004 0.022 0.010 0.033 0.002 0.004 0.006 0.007 0.009 0.011 0.005 0.007 0.010 0.014 0.018 0.020 0.005 0.004 0.012 0.008 0.018 0.013 0.008 0.006 0.016 0.012 0.026 0.017 0.008 0.004 0.017 0.009 0.026 0.013 0.011 0.005 0.021 0.011 0.033 0.016 0.010 0.004 0.022 0.009 0.033 0.013 0.013 0.005 0.026 0.010 0.041 0.015 0.013 0.004 0.027 0.008 0.040 0.012 0.015 0.005 0.031 0.009 0.048 0.013 0.015 0.004 0.031 0.008 0.047 0.011 0.018 0.004 0.035 0.008 0.054 0.012 0.018 0.003 0.036 0.007 0.055 0.011s0.039 0.007 0.060 0.011c0.009 0.002 0.017 0.003 0.026 0.005 0.010 0.002 0.022 0.003 0.032 0.005 0.028 0.004 0.056 0.008 0.085 0.012 0.011 0.001 0.022 0.003 0.033 0.005 0.009 0.001 0.020 0.002 0.029 0.003 0.019 0.002 0.038 0.004 0.058 0.006 0.014 0.002 0.027 0.003 0.042 0.005 0.013 0.001 0.028 0.002 0.041 0.004 0.017 0.002 0.034 0.003 0.051 0.005 0.009 0.001 0.018 0.002 0.027 0.002 0.027 0.002 0.055 0.005 0.083 0.006 0.009 0.001 0.017 0.002 0.026 0.002 0.001 0 0.002 0 0.002 0 0.035 0.002 0.072 0.005 0.109 0.007 0.010 0 0.020 0.001 0.030 0.002 0.013 0.001 0.026 0.001 0.039 0.002s0.026 0.026 0.039 0.026c0.035 0.002 0.070 0.028 0.106 0.028 0.001 0 0.002 0 0.002 0 0.007 0 0.015-0.024 0.023-0.024 0.027 0.001 0.054-0.010 0.081-0.010 0.023 0.001 0.047-0.005 0.070-0.005 0.008 0 0.016-0.003 0.023-0.002 0.005 0 0.009-0.002 0.014-0.001 0.035 0.001 0.070 0.021 0.106 0.021 0.021 0 0.043 0.020 0.065 0.020h19.025c0.013 0 0.027 0 0.040 0 0.033 0 0.067-0.021 0.1-0.022 0.028-0 0.056 0.011 0.084 0.011 0.002 0 0.004 0.011 0.006 0.011s0.003 0 0.004 0c0.030 0 0.060-0.023 0.089-0.024 0.028-0.001 0.056-0.012 0.084-0.013 0.012-0.001 0.025-0.007 0.038-0.007 0.006-0 0.012-0.003 0.018-0.003 0.008-0 0.016-0.002 0.023-0.002 0.026-0.001 0.053-0.002 0.079-0.004s0.052-0.003 0.077-0.004c0.009-0 0.019-0.001 0.028-0.002 0.005-0 0.011-0.001 0.016-0.001 0.011-0.001 0.022-0.001 0.033-0.002 0.030-0.002 0.059-0.020 0.088-0.022s0.059-0.023 0.088-0.023c0 0 0.001 0 0.001 0 0.002 0 0.005 0.016 0.008 0.016 0.045-0.003 0.089 0.002 0.133-0.002 0.008-0 0.015 0.003 0.023 0.002 0.101-0.008 0.2-0.016 0.296-0.026 0.006-0.001 0.012 0 0.018-0.001 0.032-0.003 0.063-0.007 0.095-0.011 0.019-0.002 0.039-0.004 0.058-0.007 0.005-0 0.009-0.001 0.014-0.001 0.047-0.006 0.094-0.012 0.14-0.019 0.005-0.001 0.010-0.001 0.015-0.002 0.014-0.002 0.028-0.004 0.042-0.006 0.029-0.004 0.059-0.009 0.087-0.013 0.011-0.002 0.021-0.004 0.032-0.005 0.023-0.004 0.044-0.007 0.067-0.011 0.016-0.003 0.033-0.006 0.049-0.009v0c0.015-0.003 0.030-0.006 0.045-0.009 0.020-0.004 0.040-0.008 0.059-0.012 0.011-0.002 0.023-0.004 0.034-0.007 0.021-0.005 0.041-0.009 0.062-0.014 0.013-0.003 0.027-0.006 0.040-0.009 0.004-0.001 0.009-0.002 0.014-0.003 0.032-0.007 0.063-0.016 0.094-0.024 0.004-0.001 0.008-0.002 0.012-0.003 0.007-0.002 0.013-0.003 0.019-0.006 0.016-0.005 0.032-0.009 0.047-0.013 0.019-0.006 0.036-0.012 0.054-0.017 0.003-0.001 0.007-0.002 0.010-0.003 0.001-0 0.002-0.001 0.003-0.001 0.020-0.007 0.040-0.014 0.058-0.021 0.011-0.004 0.021-0.008 0.032-0.013 0.003-0.001 0.006-0.002 0.009-0.004s0.006-0.002 0.009-0.003c0.016-0.007 0.030-0.013 0.044-0.020 0.008-0.004 0.014-0.008 0.022-0.011 0.003-0.002 0.006-0.003 0.009-0.005s0.005-0.002 0.008-0.004c0.012-0.007 0.023-0.013 0.033-0.020 0.007-0.005 0.013-0.009 0.020-0.015l2.414-1.892c0.002-0.002 0.005-0.004 0.007-0.006 0.008-0.007 0.015-0.014 0.022-0.021 0.005-0.006 0.009-0.012 0.013-0.017 0-0.001 0.001-0.002 0.002-0.002s0.001-0.001 0.001-0.002c0.004-0.007 0.008-0.015 0.009-0.022s0.002-0.013 0.002-0.020c-0.258-6.503-0.516-13.005-0.774-19.508zM14.73 4.514c2.332 0 4.33 1.939 5.142 4.713h-10.284c0.812-2.773 2.81-4.713 5.142-4.713zM18.88 22.977c-0.117 0.356-0.326 0.703-0.629 1.043s-0.7 0.642-1.209 0.907c-0.51 0.265-1.203 0.424-1.949 0.478v1.316h-0.96v-1.316c-1.173-0.085-2.115-0.432-2.784-1.080s-1.054-1.657-1.16-2.831h2.244c-0.011 0.533 0.147 1.064 0.476 1.414s0.691 0.554 1.224 0.65v-3.327c0-0.021-0.123-0.045-0.213-0.072s-0.188-0.050-0.294-0.072c-0.393-0.106-0.779-0.231-1.162-0.374s-0.724-0.334-1.026-0.573c-0.302-0.239-0.544-0.536-0.724-0.891s-0.271-0.798-0.271-1.329c0-0.541 0.103-1.019 0.31-1.433s0.48-0.761 0.82-1.043c0.339-0.281 0.73-0.499 1.176-0.652s0.956-0.247 1.383-0.278l0-1.194h0.96v1.194c0.427 0.053 0.917 0.157 1.336 0.31s0.783 0.366 1.102 0.637c0.318 0.271 0.576 0.609 0.778 1.012s0.316 0.901 0.348 1.434h-2.26c-0.011-0.427-0.135-0.787-0.39-1.084s-0.595-0.447-0.915-0.447v2.817c0.107 0.032 0.248 0.064 0.381 0.095s0.269 0.069 0.418 0.111c0.785 0.212 1.388 0.475 1.813 0.788s0.736 0.639 0.938 0.979c0.202 0.34 0.32 0.679 0.358 1.019s0.056 0.642 0.056 0.907c-0 0.233-0.059 0.528-0.176 0.883zM28.582 7.612c-0 0.001-0.001 0.002-0.002 0.002s-0.001 0.001-0.001 0.001c0.003-0.005 0.004-0.009 0.006-0.014-0.001 0.004-0.001 0.007-0.003 0.010z" fill="#000000"></path>
</svg>
