<?xml version="1.0" encoding="utf-8"?>

<!DOCTYPE svg PUBLIC "-//W3C//DTD SVG 1.1//EN" "http://www.w3.org/Graphics/SVG/1.1/DTD/svg11.dtd">
<svg version="1.1" xmlns="http://www.w3.org/2000/svg" xmlns:xlink="http://www.w3.org/1999/xlink" width="32" height="32" viewBox="0 0 32 32">
<g>
</g>
	<path d="M27.56 1.547c-5.309 0-20.547 0-23.227 0s-2.68 2.707-2.68 2.707v23.227c0 0 0 2.653 2.68 2.653s20.547 0 23.227 0 2.68-2.653 2.68-2.653v-23.227c0 0 0-2.707-2.68-2.707zM23.186 24.571l-3.512-12.953 1.129 13.584-4.469 1.183-5.895-12.322 3.512 12.953-5.363 1.42-5.188-19.135 8.341-2.209 4.649 10.758-1.372-11.626 8.341-2.209 5.189 19.136-5.362 1.419z" fill="#000000"></path>
</svg>
