<?xml version="1.0" encoding="utf-8"?>

<!DOCTYPE svg PUBLIC "-//W3C//DTD SVG 1.1//EN" "http://www.w3.org/Graphics/SVG/1.1/DTD/svg11.dtd">
<svg version="1.1" xmlns="http://www.w3.org/2000/svg" xmlns:xlink="http://www.w3.org/1999/xlink" width="32" height="32" viewBox="0 0 32 32">
<g>
</g>
	<path d="M5.655 12.48c-1.909 0-3.457 1.548-3.457 3.457s1.548 3.457 3.457 3.457 3.457-1.548 3.457-3.457c0-1.909-1.548-3.457-3.457-3.457zM26.395 12.48c-1.909 0-3.457 1.548-3.457 3.457s1.548 3.457 3.457 3.457 3.457-1.548 3.457-3.457c0-1.909-1.548-3.457-3.457-3.457zM16.025 12.48c-1.909 0-3.457 1.548-3.457 3.457s1.548 3.457 3.457 3.457 3.457-1.548 3.457-3.457c0-1.909-1.548-3.457-3.457-3.457z" fill="#000000"></path>
</svg>
