<?xml version="1.0" encoding="utf-8"?>

<!DOCTYPE svg PUBLIC "-//W3C//DTD SVG 1.1//EN" "http://www.w3.org/Graphics/SVG/1.1/DTD/svg11.dtd">
<svg version="1.1" xmlns="http://www.w3.org/2000/svg" xmlns:xlink="http://www.w3.org/1999/xlink" width="32" height="32" viewBox="0 0 32 32">
<g>
</g>
	<path d="M26.796 25.013h-12.572l-7.131 5.375v-5.375h-1.848c-1.941 0-3.592-1.666-3.592-3.605l-0-16.163c0-1.938 1.651-3.592 3.592-3.592h21.629c1.941 0 3.472 1.653 3.472 3.592v16.163c0 1.938-1.61 3.605-3.55 3.605zM15.404 12.845c-0.745-0.259-1.377-0.353-2.124-0.417v-0.898c1.387-0.676 1.819-1.719 1.819-3.592 0-2.501-1.487-4.606-3.574-4.606s-3.58 2.105-3.58 4.606c0 1.856 0.428 2.906 1.814 3.592v0.898c-3.413 0.314-4.472 0.11-4.502 2.694-0.010 0.838-0.006 1.799-0.006 1.799l0.892 1.799h6.286c0-4.587 3.862-3.744 3.862-3.744-0.563-0.251-0.797-1.095-0.887-2.131zM22.347 16.021v-0.898c1.28-0.676 1.776-1.719 1.776-3.592 0-2.501-1.515-4.49-3.602-4.49s-3.594 1.989-3.594 4.49c0 1.857 0.514 2.906 1.794 3.592v0.898c-3.307 0.314-4.488 0-4.492 2.694-0.002 1.121-0.001 0.887-0.001 0.887l0.897 1.785h10.776l0.918-1.785c-0.028-3.592-2.55-3.399-4.47-3.581z" fill="#000000"></path>
</svg>
