<?xml version="1.0" encoding="utf-8"?>

<!DOCTYPE svg PUBLIC "-//W3C//DTD SVG 1.1//EN" "http://www.w3.org/Graphics/SVG/1.1/DTD/svg11.dtd">
<svg version="1.1" xmlns="http://www.w3.org/2000/svg" xmlns:xlink="http://www.w3.org/1999/xlink" width="32" height="32" viewBox="0 0 32 32">
<g>
</g>
	<path d="M16.044 31.422c-6.219 0-11.675-3.997-13.579-9.909l-0.17-0.553h4.258l0.106 0.269c1.615 3.732 5.299 6.148 9.385 6.148 4.774 0 8.789-3.11 9.928-7.697h-3.115l5.053-6.524 4.017 6.524h-1.839c-0.573 3.307-2.239 6.155-4.715 8.288-2.581 2.222-5.894 3.454-9.33 3.454zM0.045 11.253h2.196c0.772-2.987 2.499-5.588 4.889-7.513 2.527-2.035 5.692-3.161 8.914-3.161 5.786 0 10.957 3.419 13.174 8.756l0.233 0.531h-4.427l-0.116-0.178c-1.821-3.203-5.134-5.093-8.864-5.093-4.322 0-8.108 2.604-9.59 6.657h2.878l-4.854 6.495-4.433-6.494zM13.319 20.628l-2.284-4.402-4.713 2.84c1.999 0.709 4.855 2.982 7.283 5.962 1.715-3.123 6.999-9.511 9.568-10.079-0.998-2.271-0.669-4.642-0.526-6.773-5.854 2.98-9.328 12.451-9.328 12.451z" fill="#000000"></path>
</svg>
