<?xml version="1.0" encoding="utf-8"?>

<!DOCTYPE svg PUBLIC "-//W3C//DTD SVG 1.1//EN" "http://www.w3.org/Graphics/SVG/1.1/DTD/svg11.dtd">
<svg version="1.1" xmlns="http://www.w3.org/2000/svg" xmlns:xlink="http://www.w3.org/1999/xlink" width="32" height="32" viewBox="0 0 32 32">
<g>
</g>
	<path d="M28.416 1.63l-24.989-0.009c-0.993 0-1.773 0.8-1.773 1.797v9.886c0 0.997 0.772 1.789 1.765 1.789h25.164c0.993 0 1.765-0.792 1.765-1.789v-9.886c0-0.997-0.938-1.788-1.931-1.788zM18.613 13.28h-6.421c0-0.533 0.073-0.944 0.22-1.322s0.346-0.709 0.598-1.007c0.251-0.298 0.547-0.57 0.887-0.821s0.698-0.506 1.076-0.766c0.193-0.134 0.398-0.27 0.616-0.408s0.417-0.291 0.598-0.459c0.18-0.168 0.331-0.356 0.453-0.566s0.183-0.448 0.183-0.717c0-0.428-0.124-0.761-0.371-1.001s-0.564-0.358-0.95-0.358c-0.26 0-0.481 0.061-0.66 0.183s-0.326 0.281-0.434 0.478c-0.109 0.197-0.187 0.395-0.233 0.633s-0.069 0.477-0.069 0.69h-1.711c-0.017-0.427 0.042-0.95 0.176-1.383s0.335-0.799 0.604-1.122c0.269-0.323 0.606-0.569 1.013-0.75s0.874-0.268 1.402-0.268c0.403 0 0.786 0.064 1.151 0.19s0.686 0.307 0.963 0.542c0.276 0.235 0.497 0.525 0.66 0.869s0.245 0.729 0.245 1.157c0 0.445-0.072 0.826-0.214 1.145s-0.332 0.602-0.567 0.85-0.501 0.472-0.799 0.673c-0.298 0.201-0.598 0.401-0.9 0.598s-0.596 0.418-0.881 0.644c-0.285 0.226-0.537 0.481-0.755 0.801h4.119v1.493zM16.907 16.053h3.627v1.707h-3.627v-1.707zM6.133 17.76h3.627v-1.707h-3.627v1.707zM11.467 17.76h3.627v-1.707h-3.627v1.707zM25.867 16.053h-3.627v1.707h3.627v-1.707zM30.347 21.387h-1.813v3.627h1.813v-3.627zM27.68 17.797c0 0 0.853 0.021 0.853 0.899v0.877h1.813v-1.776c0 0 0.033-1.744-1.765-1.744h-0.902v1.744zM10.613 30.347v-1.813h-3.627v1.813h3.627zM25.867 28.533h-2.667v1.813h2.667v-1.813zM1.653 25.013h1.813v-3.627h-1.813v3.627zM5.173 28.533h-0.857c-0.873 0-0.85-0.85-0.85-0.85v-0.963h-1.813v1.853c0 0-0.014 1.773 1.765 1.773h1.755v-1.813zM28.533 26.72v0.963c0 0-0.107 0.899-0.853 0.899v1.765h0.752c1.948 0 1.915-1.773 1.915-1.773l0-1.853h-1.813zM21.387 28.533h-3.627v1.813h3.627v-1.813zM15.947 28.533h-3.52v1.813h3.52v-1.813zM3.467 19.573v-0.877c0-0.822 0.853-0.899 0.853-0.899v-1.744h-0.902c-0.993 0-1.765 0.694-1.765 1.691v1.829h1.813zM16.907 27.68v-8.853h-1.468c-0.051 0.427-0.156 0.642-0.315 0.868-0.16 0.226-0.355 0.42-0.585 0.559-0.231 0.138-0.494 0.241-0.783 0.295-0.29 0.055-0.582 0.084-0.902 0.076v1.295h2.24v5.76h1.813z" fill="#000000"></path>
</svg>
