<?xml version="1.0" encoding="utf-8"?>

<!DOCTYPE svg PUBLIC "-//W3C//DTD SVG 1.1//EN" "http://www.w3.org/Graphics/SVG/1.1/DTD/svg11.dtd">
<svg version="1.1" xmlns="http://www.w3.org/2000/svg" xmlns:xlink="http://www.w3.org/1999/xlink" width="32" height="32" viewBox="0 0 32 32">
<g>
</g>
	<path d="M29.867 19.418c0 4.305-3.488 7.795-7.799 7.795-0.296 0-14.721 0-14.721 0-2.933-0.423-5.197-3.011-5.197-6.063 0-2.439 1.448-4.529 3.526-5.489-0.024-0.198-0.061-0.393-0.061-0.595 0-2.869 2.325-5.197 5.195-5.197 0.663 0 1.291 0.135 1.874 0.362 0.645-3.159 3.436-5.537 6.787-5.537 3.832 0 6.931 3.103 6.931 6.929 0 0.428-0.051 0.842-0.125 1.249 2.155 1.387 3.59 3.794 3.59 6.547zM22.415 11.169c-0.763-0.563-1.852-0.409-2.424 0.345l-5.266 6.924-2.886-2.832c-0.677-0.665-1.773-0.665-2.45 0-0.677 0.663-0.677 1.739 0 2.404l5.718 5.611 7.662-10.074c0.572-0.753 0.414-1.818-0.354-2.378z" fill="#000000"></path>
</svg>
