<?xml version="1.0" encoding="utf-8"?>

<!DOCTYPE svg PUBLIC "-//W3C//DTD SVG 1.1//EN" "http://www.w3.org/Graphics/SVG/1.1/DTD/svg11.dtd">
<svg version="1.1" xmlns="http://www.w3.org/2000/svg" xmlns:xlink="http://www.w3.org/1999/xlink" width="32" height="32" viewBox="0 0 32 32">
<g>
</g>
	<path d="M16 1.651c-7.924 0-14.349 6.425-14.349 14.349s6.425 14.349 14.349 14.349c7.924 0 14.349-6.425 14.349-14.349s-6.425-14.349-14.349-14.349zM16 24.968c-0.99 0-1.793-0.802-1.793-1.794s0.803-1.793 1.793-1.793c0.991 0 1.794 0.802 1.794 1.793s-0.802 1.794-1.794 1.794zM20.7 14.968c-0.27 0.39-0.789 0.886-1.554 1.492l-0.757 0.594c-0.411 0.326-0.46 0.406-0.595 0.839-0.084 0.273 0.007 1.253 0 1.893h-3.587c0.043-1.28 0.264-2.28 0.447-2.745 0.185-0.466 0.884-1.051 1.651-1.656l0.778-0.642c0.256-0.194 0.461-0.419 0.616-0.65 0.284-0.396 0.426-0.838 0.426-1.315 0-0.547-0.158-1.050-0.475-1.5-0.315-0.45-0.893-0.678-1.73-0.678-0.823 0-1.407 0.282-1.752 0.837s-0.404 1.307-0.404 1.734l-3.198 0c0.086-1.92 0.793-3.515 2.125-4.372 0.84-0.547 1.872-0.824 3.096-0.824 1.607 0 2.945 0.387 4.008 1.166s1.596 1.93 1.596 3.459c0 0.937-0.231 1.726-0.692 2.367z" fill="#000000"></path>
</svg>
