<?xml version="1.0" encoding="utf-8"?>

<!DOCTYPE svg PUBLIC "-//W3C//DTD SVG 1.1//EN" "http://www.w3.org/Graphics/SVG/1.1/DTD/svg11.dtd">
<svg version="1.1" xmlns="http://www.w3.org/2000/svg" xmlns:xlink="http://www.w3.org/1999/xlink" width="32" height="32" viewBox="0 0 32 32">
<g>
</g>
	<path d="M15.913 10.805c-1.231 0-2.213 0.425-2.946 1.278s-1.1 2.128-1.1 3.826c0 1.987 0.525 3.409 1.575 4.269 0.679 0.556 1.494 0.835 2.442 0.835 0.356 0 0.7-0.044 1.030-0.129 0.181-0.047 0.358-0.071 0.641-0.189l-1.839-1.952 1.876-1.682 1.789 1.944c0.236-0.471 0.233-0.884 0.326-1.238 0.149-0.531 0.223-1.152 0.223-1.858 0-1.627-0.34-2.883-1.025-3.772-0.681-0.889-1.68-1.332-2.991-1.332zM16 1.772c-7.857 0-14.228 6.371-14.228 14.228s6.371 14.228 14.228 14.228c7.857 0 14.228-6.371 14.228-14.228s-6.371-14.228-14.228-14.228zM21.316 24.392l-1.787-1.652c-0.545 0.323-0.849 0.384-1.247 0.516-0.667 0.215-1.464 0.325-2.393 0.325-1.939 0-3.542-0.564-4.808-1.692-1.535-1.356-2.302-3.35-2.302-5.98 0-2.65 0.787-4.651 2.361-6.009 1.284-1.108 2.882-1.664 4.793-1.664 1.924 0 3.537 0.587 4.843 1.761 1.507 1.358 2.261 3.257 2.261 5.695 0 1.292-0.164 2.374-0.487 3.246-0.26 0.832-0.535 1.41-1.045 1.961l1.709 1.568-1.898 1.924z" fill="#000000"></path>
</svg>
