<?xml version="1.0" encoding="utf-8"?>

<!DOCTYPE svg PUBLIC "-//W3C//DTD SVG 1.1//EN" "http://www.w3.org/Graphics/SVG/1.1/DTD/svg11.dtd">
<svg version="1.1" xmlns="http://www.w3.org/2000/svg" xmlns:xlink="http://www.w3.org/1999/xlink" width="32" height="32" viewBox="0 0 32 32">
<g>
</g>
	<path d="M15.966 1.619c-7.922 0-14.347 6.428-14.347 14.35s6.425 14.35 14.35 14.35c7.925 0 14.35-6.425 14.35-14.35s-6.428-14.35-14.353-14.35zM15.966 27.244c-6.228 0-11.275-5.050-11.275-11.275s5.047-11.275 11.275-11.275c6.228 0 11.275 5.050 11.275 11.275s-5.047 11.275-11.275 11.275z" fill="#000000"></path>
	<path d="M20.894 14.456h-3.459v-4.728c0-0.781-0.631-1.412-1.413-1.412s-1.412 0.631-1.412 1.412v5.897c0 0.044 0 0.203 0 0.247 0 0.781 0.631 1.413 1.412 1.413h4.872c0.781 0 1.413-0.631 1.413-1.412s-0.631-1.416-1.413-1.416z" fill="#000000"></path>
</svg>
