<?xml version="1.0" encoding="utf-8"?>

<!DOCTYPE svg PUBLIC "-//W3C//DTD SVG 1.1//EN" "http://www.w3.org/Graphics/SVG/1.1/DTD/svg11.dtd">
<svg version="1.1" xmlns="http://www.w3.org/2000/svg" xmlns:xlink="http://www.w3.org/1999/xlink" width="32" height="32" viewBox="0 0 32 32">
<g>
</g>
	<path d="M26.055 26.081l4.239 4.265h-11.893v-11.964l4.408 4.416c1.755-1.739 2.866-4.128 2.866-6.799 0-4.509-3.114-8.263-7.273-9.329v-4.725c6.72 1.14 11.902 6.989 11.902 14.067 0 3.951-1.652 7.491-4.248 10.068zM1.698 16c0-3.951 1.648-7.451 4.243-10.028l-4.234-4.212h11.893v11.858l-4.408-4.417c-1.755 1.739-2.866 4.128-2.866 6.799 0 4.509 3.114 8.263 7.274 9.329v4.725c-6.72-1.14-11.902-6.976-11.902-14.054z" fill="#000000"></path>
</svg>
