<?xml version="1.0" encoding="utf-8"?>

<!DOCTYPE svg PUBLIC "-//W3C//DTD SVG 1.1//EN" "http://www.w3.org/Graphics/SVG/1.1/DTD/svg11.dtd">
<svg version="1.1" xmlns="http://www.w3.org/2000/svg" xmlns:xlink="http://www.w3.org/1999/xlink" width="32" height="32" viewBox="0 0 32 32">
<g>
</g>
	<path d="M31.75 11.105v9.831l-6 9.831v-15.729l4.976-2.787h-5.899l1.966-2h4.957v0.855zM11.25 12.284l-6.085 3.966h18.584v15.5h-23.5v-16.712l6.226-2.787h4.774v0.034zM11.064 23.75h3.933c0.967 0 1.966-0.925 1.966-2 0-1.136-0.998-2-1.966-2h-3.932c-0.967 0-2.027 0.927-1.966 2 0.061 1.075 0.875 2 1.966 2zM6.292 10.291h6v4h6v-4h6l-9-10z" fill="#000000"></path>
</svg>
