<?xml version="1.0" encoding="utf-8"?>

<!DOCTYPE svg PUBLIC "-//W3C//DTD SVG 1.1//EN" "http://www.w3.org/Graphics/SVG/1.1/DTD/svg11.dtd">
<svg version="1.1" xmlns="http://www.w3.org/2000/svg" xmlns:xlink="http://www.w3.org/1999/xlink" width="32" height="32" viewBox="0 0 32 32">
<g>
</g>
	<path d="M15.679 3.767c6.831 0 13.105 6.12 13.105 13.2s-6.274 13.243-13.105 13.243c-4.87 0-9.081-2.321-11.1-6.558-0.813-1.711 2.542-2.444 3.305-0.971 1.569 2.916 4.492 3.413 7.795 3.413 4.973 0 9.239-4.23 9.239-9.127 0-5.069-4.348-9.258-9.239-9.258-4.028 0-4.591 2.221-4.695 2.11 1.045 1.107 3.938 4.672 3.938 4.672 1.427 1.479-0.052 1.786-0.052 1.786l-10.835-0.105c-1.043 0.173-0.793-1.019-0.793-1.019l0.010-12.817c0.021-1.529 1.418 0.642 1.418 0.642l3.465 3.704c0-0 2.644-2.999 7.544-2.915z" fill="#000000"></path>
</svg>
