<?xml version="1.0" encoding="utf-8"?>

<!DOCTYPE svg PUBLIC "-//W3C//DTD SVG 1.1//EN" "http://www.w3.org/Graphics/SVG/1.1/DTD/svg11.dtd">
<svg version="1.1" xmlns="http://www.w3.org/2000/svg" xmlns:xlink="http://www.w3.org/1999/xlink" width="32" height="32" viewBox="0 0 32 32">
<g>
</g>
	<path d="M24.955 26h-10c-0.553 0-1 0.449-1 1 0 0.553 0.447 1 1 1h10c0.553 0 1-0.447 1-1 0-0.551-0.447-1-1-1zM10 6h-2c-1.149 0-2 0.851-2 2v2c0 1.149 0.851 2 2 2h2c1.149 0 2-0.851 2-2v-2c0-1.149-0.851-2-2-2zM10 14h-2c-1.149 0-2 0.851-2 2v2c0 1.148 0.851 2 2 2h2c1.149 0 2-0.852 2-2v-2c0-1.149-0.851-2-2-2zM24.955 18h-10c-0.553 0-1 0.449-1 1 0 0.553 0.447 1 1 1h10c0.553 0 1-0.447 1-1 0-0.551-0.447-1-1-1zM10 22h-2c-1.149 0-2 0.852-2 2v2c0 1.148 0.851 2 2 2h2c1.149 0 2-0.852 2-2v-2c0-1.148-0.851-2-2-2zM28 0h-24c-2 0-4 2-4 4v24c0 2 1.791 4 4 4h24c2.209 0 4-1.791 4-4v-24c0-2-2-4-4-4zM30 26c0 1.957-2.043 4-4 4h-20c-1.958 0-4-2.043-4-4v-20c0-2 2-4 4-4h20c2 0 4 2 4 4v20zM24.955 10h-10c-0.553 0-1 0.447-1 1s0.447 1 1 1h10c0.553 0 1-0.447 1-1s-0.447-1-1-1zM24.955 6h-10c-0.553 0-1 0.449-1 1 0 0.553 0.447 1 1 1h10c0.553 0 1-0.447 1-1 0-0.551-0.447-1-1-1zM24.955 14h-10c-0.553 0-1 0.447-1 1s0.447 1 1 1h10c0.553 0 1-0.447 1-1s-0.447-1-1-1zM24.955 22h-10c-0.553 0-1 0.447-1 1s0.447 1 1 1h10c0.553 0 1-0.447 1-1s-0.447-1-1-1z" fill="#000000"></path>
</svg>
