<?xml version="1.0" encoding="utf-8"?>

<!DOCTYPE svg PUBLIC "-//W3C//DTD SVG 1.1//EN" "http://www.w3.org/Graphics/SVG/1.1/DTD/svg11.dtd">
<svg version="1.1" xmlns="http://www.w3.org/2000/svg" xmlns:xlink="http://www.w3.org/1999/xlink" width="32" height="32" viewBox="0 0 32 32">
<g>
</g>
	<path d="M12.818 11c-2.267 0-4.12 1.8-4.12 4s1.854 4 4.12 4c2.268 0 4.121-1.8 4.121-4s-1.853-4-4.121-4zM24 0h-20c-3.5 0-4 4-4 4v26c0 1.104 0.896 2 2 2h18c1.104 0 2-0.896 2-2h2c1.625 0 2-2 2-2v-26c0-1.5-2-2-2-2zM12.818 21c-1.017 0-1.974-0.243-2.82-0.665l-4.328 4.2c-0.603 0.586-1.582 0.586-2.185 0s-0.604-1.535 0-2.121l4.199-4.075c-0.661-0.955-1.046-2.103-1.046-3.339 0-3.313 2.768-6 6.181-6s6.181 2.687 6.181 6-2.768 6-6.182 6zM24 4v24h-2v-22c0-1.104-0.896-2-2-2h-18c0-1.375 2-2 2-2h18c2.125 0 2 2 2 2z" fill="#000000"></path>
</svg>
