<?xml version="1.0" encoding="utf-8"?>

<!DOCTYPE svg PUBLIC "-//W3C//DTD SVG 1.1//EN" "http://www.w3.org/Graphics/SVG/1.1/DTD/svg11.dtd">
<svg version="1.1" xmlns="http://www.w3.org/2000/svg" xmlns:xlink="http://www.w3.org/1999/xlink" width="32" height="32" viewBox="0 0 32 32">
<g>
</g>
	<path d="M26.312 13.242c-0.236-0.859-0.573-1.674-1.004-2.431 0.515-0.653 2.226-3.019 1.015-4.232l-0.625-0.662c-1.036-1.034-3.709 0.47-4.395 0.885-0.771-0.439-1.601-0.774-2.477-1.010-0.142-0.865-0.754-3.818-2.464-3.818h-0.687c-1.471 0-2.317 3.059-2.508 3.84-0.862 0.24-1.679 0.58-2.438 1.017-0.633-0.448-3.202-2.134-4.438-0.898l-0.661 0.555c-1.074 1.075 0.733 3.847 1.099 4.383-0.419 0.747-0.797 1.548-1.027 2.392-0.735 0.118-3.835 0.714-3.835 2.475v0.687c0 1.519 3.223 2.37 3.85 2.523 0.234 0.84 0.593 1.638 1.014 2.381-0.363 0.598-1.992 3.452-0.928 4.516l0.632 0.521c1.417 1.416 4.319-0.97 4.319-0.97l-0.109-0.118c0.778 0.457 1.62 0.869 2.508 1.118 0.159 0.646 1.010 3.844 2.523 3.844h0.687c2.002 0 2.5-3.788 2.5-3.788l-0.133-0.029c0.893-0.232 1.741-0.591 2.527-1.033 0.634 0.424 3.125 1.972 4.162 0.937l0.696-0.699c1.353-1.353-0.635-4.029-0.814-4.264 0.433-0.758 0.77-1.575 1.008-2.435 0.805-0.198 3.826-1.042 3.826-2.504v-0.687c-0-1.908-3.492-2.449-3.822-2.495zM15.97 20.935c-2.645 0-4.788-2.211-4.788-4.854 0-2.645 2.143-4.788 4.788-4.788 2.643 0 4.889 2.143 4.889 4.788 0 2.643-2.246 4.854-4.889 4.854z" fill="#000000"></path>
</svg>
