<?xml version="1.0" encoding="utf-8"?>

<!DOCTYPE svg PUBLIC "-//W3C//DTD SVG 1.1//EN" "http://www.w3.org/Graphics/SVG/1.1/DTD/svg11.dtd">
<svg version="1.1" xmlns="http://www.w3.org/2000/svg" xmlns:xlink="http://www.w3.org/1999/xlink" width="32" height="32" viewBox="0 0 32 32">
<g>
</g>
	<path d="M27.733 29.893c0 1.179 0.477 2.133 1.067 2.133s1.067-0.954 1.067-2.133v-10.667h-2.133l-0 10.667zM29.867 2.16c0-1.179-0.477-2.133-1.067-2.133s-1.067 0.954-1.067 2.133v2.133h2.133l0-2.133zM29.867 6.427h-2.133c-1.179 0-2.133 0.954-2.133 2.133v6.4c0 1.179 0.954 2.133 2.133 2.133h2.133c1.179 0 2.133-0.954 2.133-2.133v-6.4c0-1.179-0.954-2.133-2.133-2.133zM14.933 29.893c0 1.179 0.477 2.133 1.067 2.133s1.067-0.954 1.067-2.133v-2.133h-2.133v2.133zM17.067 2.16c0-1.179-0.477-2.133-1.067-2.133s-1.067 0.954-1.067 2.133v10.667h2.133v-10.667zM17.067 14.96h-2.133c-1.179 0-2.133 0.954-2.133 2.133v6.4c0 1.179 0.954 2.133 2.133 2.133h2.133c1.179 0 2.133-0.954 2.133-2.133l-0-6.4c0-1.179-0.954-2.133-2.133-2.133zM2.133 29.893c0 1.179 0.477 2.133 1.067 2.133s1.067-0.954 1.067-2.133v-6.4h-2.133v6.4zM4.267 2.16c0-1.179-0.477-2.133-1.067-2.133s-1.067 0.954-1.067 2.133v6.4h2.133v-6.4zM4.267 10.693h-2.133c-1.179 0-2.133 0.954-2.133 2.133v6.4c0 1.179 0.954 2.133 2.133 2.133h2.133c1.179 0 2.133-0.954 2.133-2.133v-6.4c0-1.179-0.954-2.133-2.133-2.133z" fill="#000000"></path>
</svg>
