<?xml version="1.0" encoding="utf-8"?>

<!DOCTYPE svg PUBLIC "-//W3C//DTD SVG 1.1//EN" "http://www.w3.org/Graphics/SVG/1.1/DTD/svg11.dtd">
<svg version="1.1" xmlns="http://www.w3.org/2000/svg" xmlns:xlink="http://www.w3.org/1999/xlink" width="32" height="32" viewBox="0 0 32 32">
<g>
</g>
	<path d="M16 0c-8.836 0-16 7.164-16 16s7.164 16 16 16c8.837 0 16-7.164 16-16s-7.163-16-16-16zM16 28c-6.29 0-11.44-4.842-11.95-11h3.95v-2h-3.95c0.2-2.415 1.113-4.623 2.53-6.419l3.056 3.056 1.414-1.414-3.101-3.102c1.898-1.723 4.343-2.847 7.051-3.071v3.95h2v-3.95c2.762 0.229 5.252 1.393 7.165 3.174l-10.304 6.729-2.293 6.579 6.384-2.488 6.841-10.191c1.772 1.911 2.93 4.395 3.157 7.147h-3.95v2h3.949c-0.509 6.158-5.66 11-11.949 11z" fill="#000000"></path>
</svg>
