<?xml version="1.0" encoding="utf-8"?>

<!DOCTYPE svg PUBLIC "-//W3C//DTD SVG 1.1//EN" "http://www.w3.org/Graphics/SVG/1.1/DTD/svg11.dtd">
<svg version="1.1" xmlns="http://www.w3.org/2000/svg" xmlns:xlink="http://www.w3.org/1999/xlink" width="32" height="32" viewBox="0 0 32 32">
<g>
</g>
	<path d="M15.851 6.765c-5.128 0-9.284 4.156-9.284 9.283s4.156 9.284 9.284 9.284c5.127 0 9.283-4.156 9.283-9.284s-4.156-9.283-9.283-9.283zM14.112 21.642c-1.645-2.033-3.581-3.581-4.935-4.064l3.193-1.936 1.548 3c0 0 2.517-6.097 6.484-8.129-0.097 1.451-0.484 2.709 0.193 4.257-1.742 0.387-5.323 4.742-6.484 6.872zM28.39 17.77c0.977 0 1.77-0.793 1.77-1.77s-0.793-1.77-1.77-1.77c-0.042 0-0.084 0.003-0.126 0.006-0.141-0.99-0.399-1.942-0.759-2.842 0.037-0.018 0.074-0.035 0.11-0.056 0.847-0.489 1.137-1.571 0.648-2.418s-1.571-1.137-2.418-0.648c-0.037 0.021-0.071 0.045-0.105 0.068-0.608-0.773-1.307-1.471-2.079-2.079 0.023-0.035 0.047-0.069 0.069-0.106 0.488-0.847 0.199-1.929-0.648-2.418s-1.929-0.199-2.418 0.648c-0.021 0.036-0.038 0.073-0.056 0.11-0.9-0.361-1.852-0.618-2.842-0.759 0.003-0.042 0.006-0.083 0.006-0.125 0-0.978-0.793-1.77-1.77-1.77s-1.77 0.793-1.77 1.77c0 0.042 0.003 0.084 0.006 0.125-0.99 0.141-1.942 0.399-2.842 0.759-0.018-0.037-0.035-0.074-0.056-0.11-0.489-0.847-1.571-1.136-2.418-0.648s-1.137 1.571-0.648 2.418c0.021 0.037 0.045 0.071 0.068 0.106-0.772 0.608-1.471 1.307-2.079 2.079-0.035-0.023-0.069-0.047-0.106-0.068-0.847-0.488-1.929-0.199-2.418 0.648s-0.199 1.929 0.648 2.418c0.036 0.021 0.073 0.038 0.11 0.056-0.361 0.9-0.618 1.852-0.759 2.842-0.042-0.003-0.083-0.006-0.125-0.006-0.978 0-1.77 0.792-1.77 1.77s0.793 1.77 1.77 1.77c0.042 0 0.084-0.003 0.125-0.006 0.141 0.99 0.399 1.942 0.759 2.842-0.037 0.018-0.074 0.035-0.11 0.056-0.847 0.489-1.136 1.571-0.648 2.418s1.571 1.136 2.418 0.648c0.037-0.021 0.071-0.045 0.106-0.069 0.608 0.773 1.307 1.471 2.079 2.080-0.023 0.034-0.047 0.069-0.068 0.105-0.488 0.847-0.199 1.93 0.648 2.418s1.929 0.198 2.418-0.648c0.021-0.036 0.038-0.073 0.056-0.11 0.9 0.361 1.852 0.618 2.842 0.759-0.003 0.042-0.006 0.083-0.006 0.126 0 0.977 0.792 1.77 1.77 1.77s1.77-0.793 1.77-1.77c0-0.042-0.003-0.084-0.006-0.126 0.99-0.141 1.942-0.398 2.842-0.759 0.018 0.037 0.035 0.074 0.056 0.11 0.489 0.847 1.571 1.137 2.418 0.648s1.136-1.571 0.648-2.418c-0.021-0.037-0.045-0.071-0.069-0.105 0.773-0.609 1.471-1.307 2.080-2.080 0.034 0.024 0.069 0.047 0.105 0.069 0.847 0.488 1.93 0.199 2.418-0.648s0.199-1.929-0.648-2.418c-0.036-0.021-0.073-0.038-0.109-0.056 0.361-0.9 0.618-1.852 0.759-2.842 0.042 0.003 0.084 0.006 0.126 0.006zM15.851 26.503c-3.758 0-7.056-1.966-8.924-4.925-0.034-0.091-0.074-0.181-0.125-0.269-0.058-0.1-0.124-0.191-0.196-0.275-0.753-1.368-1.211-2.921-1.289-4.573 0.040-0.148 0.063-0.302 0.063-0.462 0-0.164-0.024-0.322-0.066-0.473 0.064-1.602 0.486-3.113 1.188-4.454 0.114-0.111 0.216-0.239 0.3-0.384 0.081-0.141 0.139-0.289 0.178-0.438 0.864-1.34 2.024-2.472 3.387-3.303 0.11-0.037 0.218-0.085 0.322-0.145 0.093-0.054 0.179-0.116 0.258-0.183 1.465-0.771 3.133-1.207 4.903-1.207 5.824 0 10.546 4.721 10.546 10.546s-4.721 10.546-10.546 10.546z" fill="#000000"></path>
</svg>
