<?xml version="1.0" encoding="utf-8"?>

<!DOCTYPE svg PUBLIC "-//W3C//DTD SVG 1.1//EN" "http://www.w3.org/Graphics/SVG/1.1/DTD/svg11.dtd">
<svg version="1.1" xmlns="http://www.w3.org/2000/svg" xmlns:xlink="http://www.w3.org/1999/xlink" width="32" height="32" viewBox="0 0 32 32">
<g>
</g>
	<path d="M16 2c-7.853 0-14.219 6.366-14.219 14.219s6.366 14.219 14.219 14.219 14.219-6.366 14.219-14.219-6.366-14.219-14.219-14.219zM17.419 27.494v-4.169h-2.844v4.169c-5.131-0.641-9.203-4.719-9.85-9.856h4.169v-2.844h-4.169c0.647-5.137 4.719-9.209 9.856-9.856v4.169h2.837v-4.162c5.137 0.647 9.209 4.719 9.856 9.856h-4.169v2.838h4.169c-0.647 5.137-4.719 9.216-9.856 9.856z" fill="#000000"></path>
</svg>
