<?xml version="1.0" encoding="utf-8"?>

<!DOCTYPE svg PUBLIC "-//W3C//DTD SVG 1.1//EN" "http://www.w3.org/Graphics/SVG/1.1/DTD/svg11.dtd">
<svg version="1.1" xmlns="http://www.w3.org/2000/svg" xmlns:xlink="http://www.w3.org/1999/xlink" width="32" height="32" viewBox="0 0 32 32">
<g>
</g>
	<path d="M4.747 1.653v10.26l1.178-0.831c0.274-1.796 0.938-3.164 1.979-4.133 0.742-0.694 1.348-1.135 2.988-1.135l2.068-0v18.36c0 1.221 0.228 2.479 0.096 2.767-0.18 0.407-0.431 0.671-0.742 0.839-0.431 0.251-0.715 0.435-1.422 0.435h-2.092v2.133h14.4v-2.087l-1.441-0.081c-0.694 0-1.253-0.117-1.654-0.35s-0.677-0.506-0.814-0.817c-0.138-0.311-0.211-1.074-0.211-2.32l-0.015-18.879h2.043c1.137 0 1.716 0.202 2.171 0.417 0.814 0.395 1.457 0.917 1.924 1.582s0.898 1.753 1.281 3.274l0.77 0.827v-10.26h-22.507z" fill="#000000"></path>
</svg>
