<?xml version="1.0" encoding="utf-8"?>

<!DOCTYPE svg PUBLIC "-//W3C//DTD SVG 1.1//EN" "http://www.w3.org/Graphics/SVG/1.1/DTD/svg11.dtd">
<svg version="1.1" xmlns="http://www.w3.org/2000/svg" xmlns:xlink="http://www.w3.org/1999/xlink" width="32" height="32" viewBox="0 0 32 32">
<g>
</g>
	<path d="M12 11.5c0-0.828 0.671-1.5 1.5-1.5s1.5 0.672 1.5 1.5v4.451l1.229-0.71c0.717-0.414 1.635-0.169 2.049 0.549 0.414 0.717 0.168 1.635-0.549 2.049l-3.465 2c-0.717 0.414-1.635 0.169-2.049-0.549-0.032-0.055-0.052-0.111-0.076-0.168-0.010-0.021-0.020-0.043-0.029-0.064-0.015-0.040-0.026-0.079-0.037-0.118-0.043-0.14-0.073-0.286-0.073-0.44v-7zM15 5.088c6.749 0.747 12 6.464 12 13.412 0 7.456-6.044 13.5-13.5 13.5s-13.5-6.044-13.5-13.5c0-6.948 5.251-12.665 12-13.412v-2.088c0 0 0.325-1-1-1h-2v-2h9v2h-2c0 0-1-0.423-1 1v2.088zM21.223 25.516c1.599-1.751 2.63-4.025 2.752-6.516h-1.975v-1h1.975c-0.122-2.492-1.152-4.765-2.752-6.516l-1.359 1.358-0.707-0.707 1.359-1.358c-1.753-1.593-4.028-2.621-6.516-2.75v1.973h-1v-1.976c-2.505 0.114-4.786 1.135-6.54 2.73l1.382 1.382-0.707 0.707-1.382-1.382c-1.594 1.752-2.616 4.034-2.73 6.539h1.977v1h-1.974c0.129 2.491 1.153 4.77 2.744 6.523l1.366-1.365 0.707 0.707-1.367 1.367c1.751 1.6 4.025 2.629 6.524 2.744v-1.976h1v1.973c2.488-0.129 4.763-1.157 6.515-2.751l-1.358-1.357 0.707-0.707 1.359 1.358z" fill="#000000"></path>
</svg>
