<?xml version="1.0" encoding="utf-8"?>

<!DOCTYPE svg PUBLIC "-//W3C//DTD SVG 1.1//EN" "http://www.w3.org/Graphics/SVG/1.1/DTD/svg11.dtd">
<svg version="1.1" xmlns="http://www.w3.org/2000/svg" xmlns:xlink="http://www.w3.org/1999/xlink" width="32" height="32" viewBox="0 0 32 32">
<g>
</g>
	<path d="M28 32c0 0-20 0-24 0s-4-4-4-4v-24c0-4 3.938-4 3.938-4s20.187 0 24.062 0 4 4 4 4 0 20 0 24-4 4-4 4zM28 6c0-1.104-0.896-2-2-2v0 0h-20c-1.104 0-2 0.896-2 2v20c0 1.104 0.896 2 2 2h20c1.104 0 2-0.896 2-2v-20zM10 6l10 10-10 10v-20z" fill="#000000"></path>
</svg>
