<?xml version="1.0" encoding="UTF-8" standalone="no"?>
<svg  viewBox="0 0 499 499" version="1.1" xmlns="http://www.w3.org/2000/svg" xmlns:xlink="http://www.w3.org/1999/xlink" xmlns:sketch="http://www.bohemiancoding.com/sketch/ns">
    <!-- Generator: Sketch 3.1.1 (8761) - http://www.bohemiancoding.com/sketch -->
    <title>tour-info</title>
    <desc>Created with Sketch.</desc>
    <defs></defs>
    <g id="Page-1" stroke="none" stroke-width="1" fill="none" fill-rule="evenodd" sketch:type="MSPage">
        <g id="Portrait" sketch:type="MSArtboardGroup" transform="translate(-3.000000, -3.000000)" fill="#4E4E4C">
            <path d="M252.5,3 C114.712635,3 3,114.712635 3,252.5 C3,390.287365 114.712635,502 252.5,502 C390.287365,502 502,390.287365 502,252.5 C502,114.712635 390.287365,3 252.5,3 L252.5,3 Z M286.491803,364.245431 C276.062029,368.406947 267.702407,371.551909 261.460346,373.743852 C255.218284,375.919912 247.980653,377 239.747452,377 C227.057894,377 217.197017,373.902689 210.180623,367.692183 C203.148427,361.465793 199.64023,353.587504 199.64023,344.025548 C199.64023,340.308774 199.908876,336.512583 200.430365,332.636973 C200.951853,328.745479 201.805199,324.377476 202.974598,319.485312 L216.04342,272.962109 C217.228622,268.498804 218.208389,264.273754 218.998523,260.302842 C219.788658,256.316046 220.183725,252.678691 220.183725,249.390776 C220.183725,243.434408 218.966918,239.288776 216.533304,236.95388 C214.09969,234.618984 209.437897,233.443594 202.547925,233.443594 C199.150347,233.443594 195.689558,233.983638 192.133954,235.047842 C188.578349,236.112047 185.52843,237.1286 183,238.065735 L186.476591,223.738685 C195.057451,220.212516 203.259046,217.22639 211.081376,214.732657 C218.91951,212.223041 226.315168,211 233.299956,211 C245.894698,211 255.597548,214.033777 262.42431,220.148981 C269.251071,226.248302 272.664451,234.190125 272.664451,243.974452 C272.664451,245.991675 272.427411,249.533729 271.937528,254.63238 C271.463447,259.731031 270.610102,264.43259 269.330084,268.65764 L256.292867,315.022007 C255.234087,318.738781 254.270123,322.995599 253.43258,327.776576 C252.579235,332.557554 252.168365,336.163142 252.168365,338.609224 C252.168365,344.772079 253.543199,348.949479 256.277064,351.204956 C259.026732,353.412783 263.767538,354.540522 270.531088,354.540522 C273.691626,354.540522 277.278836,353.984595 281.292719,352.856856 C285.290799,351.760884 288.182691,350.776098 290,349.934265 L286.491803,364.245431 L286.491803,364.245431 Z M283.940639,175.552174 C277.885337,181.194565 270.603247,184 262.07864,184 C253.554033,184 246.256215,181.194565 240.153729,175.552174 C234.051243,169.925543 231,163.101087 231,155.078804 C231,147.072283 234.051243,140.216304 240.153729,134.52663 C246.256215,128.836957 253.554033,126 262.07864,126 C270.603247,126 277.885337,128.836957 283.940639,134.52663 C289.980213,140.216304 293,147.072283 293,155.078804 C293,163.101087 289.980213,169.925543 283.940639,175.552174 L283.940639,175.552174 Z" id="tour-info" sketch:type="MSShapeGroup"></path>
        </g>
    </g>
</svg>