<?xml version="1.0" encoding="UTF-8" standalone="no"?>
<svg width="512px" height="512px" viewBox="0 0 512 512" version="1.1" xmlns="http://www.w3.org/2000/svg" xmlns:xlink="http://www.w3.org/1999/xlink" xmlns:sketch="http://www.bohemiancoding.com/sketch/ns">
    <!-- Generator: Sketch 3.2 (9961) - http://www.bohemiancoding.com/sketch -->
    <title>512</title>
    <desc>Created with Sketch.</desc>
    <defs></defs>
    <g id="Page-1" stroke="none" stroke-width="1" fill="none" fill-rule="evenodd" sketch:type="MSPage">
        <g id="512" sketch:type="MSArtboardGroup" fill="#000000">
            <g id="trash" sketch:type="MSLayerGroup" transform="translate(26.000000, 3.000000)">
                <path d="M231.499506,190 C214.432663,190 216.040409,221.625 216.040409,221.625 L216.040409,411.375 C216.040409,411.375 217.014332,443 231.499506,443 C247.932527,443 246.958604,411.375 246.958604,411.375 L246.958604,221.625 C246.958604,221.625 248.581809,190 231.499506,190 L231.499506,190 Z M399.697333,94.875 L348.898,94.875 L338.348667,63.25 C338.348667,63.25 307.682,0 277.015333,0 L185.015333,0 C154.348667,0 123.682,63.25 123.682,63.25 L113.132667,94.875 L62.3333333,94.875 C32.5253333,94.875 1,158.125 1,158.125 L31.6666667,158.125 L61.9346667,158.125 L61.9346667,443.793625 C61.9346667,443.793625 64.25,506 123.666667,506 L338.333333,506 C338.333333,506 399.666667,503.02725 399.666667,442.75 L399.666667,158.125 L430.333333,158.125 L461,158.125 C461,158.125 428.524,94.875 399.666667,94.875 L399.697333,94.875 Z M184.6,32 L276.4,32 C276.4,32 307,64.49225 307,95 L154,95 C154,63.5 184.6,32 184.6,32 L184.6,32 Z M338.270264,473.916416 L123.729736,473.916416 C89.878305,473.916416 93.0810886,477.217743 93.0810886,442.324775 L93.0810886,158 L368.918911,158 L368.918911,442.324775 C368.918911,477.217743 372.121695,473.916416 338.270264,473.916416 L338.270264,473.916416 Z M292.5,190 C275.418241,190 277.041395,221.625 277.041395,221.625 L277.041395,411.375 C277.041395,411.375 275.418241,443 292.5,443 C309.581759,443 307.958605,411.375 307.958605,411.375 L307.958605,221.625 C307.958605,221.625 309.581759,190 292.5,190 L292.5,190 Z M169.5,190 C152.432613,190 154.04041,221.625 154.04041,221.625 L154.04041,411.375 C154.04041,411.375 152.432613,443 169.5,443 C186.567387,443 184.95959,428.847813 184.95959,411.375 L184.95959,221.625 C184.95959,221.625 186.567387,190 169.5,190 L169.5,190 Z" id="Shape" sketch:type="MSShapeGroup"></path>
            </g>
        </g>
    </g>
</svg>