<?xml version="1.0" encoding="utf-8"?>

<!DOCTYPE svg PUBLIC "-//W3C//DTD SVG 1.1//EN" "http://www.w3.org/Graphics/SVG/1.1/DTD/svg11.dtd">
<svg version="1.1" xmlns="http://www.w3.org/2000/svg" xmlns:xlink="http://www.w3.org/1999/xlink" width="32" height="32" viewBox="0 0 32 32">
<g>
</g>
	<path d="M15 12c-1.104 0-1 2-1 2v12c0 0 0.063 2 1 2 1.063 0 1-2 1-2v-12c0 0 0.105-2-1-2zM26 6h-3.313l-0.688-2c0 0-2-4-4-4h-6c-2 0-4 4-4 4l-0.688 2h-3.313c-1.944 0-4 4-4 4s0 0 2 0h1.974v18.066c0 0 0.151 3.934 4.026 3.934h14c0 0 4-0.188 4-4v-18h2c2 0 2 0 2 0s-2.118-4-4-4zM12 2h6c0 0 2 2.063 2 4h-10c0-2 2-4 2-4zM22 30h-14c-2.209 0-2 0.209-2-2v-18h18v18c0 2.209 0.209 2-2 2zM19 12c-1.105 0-1 2-1 2v12c0 0-0.105 2 1 2s1-2 1-2v-12c0 0 0.105-2-1-2zM11 12c-1.104 0-1 2-1 2v12c0 0-0.104 2 1 2s1-0.895 1-2v-12c0 0 0.104-2-1-2z" fill="#000000"></path>
</svg>
