<?xml version="1.0" encoding="utf-8"?>

<!DOCTYPE svg PUBLIC "-//W3C//DTD SVG 1.1//EN" "http://www.w3.org/Graphics/SVG/1.1/DTD/svg11.dtd">
<svg version="1.1" xmlns="http://www.w3.org/2000/svg" xmlns:xlink="http://www.w3.org/1999/xlink" width="32" height="32" viewBox="0 0 32 32">
<g>
</g>
	<path d="M25.364 28.968l-2.635-3.020c3.188-2.157 5.283-5.807 5.283-9.945 0-4.146-2.104-7.802-5.301-9.957l2.643-3.014c4.027 2.905 6.658 7.626 6.658 12.971 0.001 5.341-2.626 10.059-6.648 12.965zM20.603 23.512l-2.64-3.024c1.247-1.1 2.050-2.691 2.050-4.484 0-1.808-0.816-3.409-2.081-4.51l2.649-3.019c2.099 1.833 3.432 4.522 3.432 7.528 0 2.995-1.325 5.676-3.41 7.509zM1.966 20.003c-2.25 0-1.953-2-1.953-2v-4c0-1.875 1.891-1.938 1.891-1.938l4.109-0.062 8-8v24l-8-8h-4.047z" fill="#000000"></path>
</svg>
