<?xml version="1.0" encoding="utf-8"?>

<!DOCTYPE svg PUBLIC "-//W3C//DTD SVG 1.1//EN" "http://www.w3.org/Graphics/SVG/1.1/DTD/svg11.dtd">
<svg version="1.1" xmlns="http://www.w3.org/2000/svg" xmlns:xlink="http://www.w3.org/1999/xlink" width="32" height="32" viewBox="0 0 32 32">
<g>
</g>
	<path d="M26.287 12.893c0.073-0.406 0.125-0.82 0.125-1.248 0-3.824-3.097-6.925-6.927-6.925-3.349 0-6.139 2.377-6.783 5.534-0.583-0.227-1.21-0.362-1.873-0.362-2.869 0-5.192 2.326-5.192 5.194 0 0.203 0.037 0.397 0.061 0.595-2.076 0.96-3.523 3.048-3.523 5.486 0 3.050 2.245 6.059 5.194 6.059 0 0 14.417 0 14.712 0 4.308 0 7.794-3.488 7.794-7.791 0-2.751-1.434-5.157-3.588-6.543zM21.545 21.128c0.676 0.676 0.676 1.772 0 2.448-0.338 0.338-0.781 0.507-1.224 0.507s-0.886-0.169-1.224-0.507l-2.502-2.502-2.502 2.502c-0.338 0.338-0.781 0.507-1.224 0.507s-0.886-0.169-1.224-0.507c-0.676-0.676-0.676-1.772 0-2.448l2.502-2.502-2.502-2.502c-0.676-0.676-0.676-1.772 0-2.448s1.772-0.676 2.448 0l2.502 2.502 2.502-2.502c0.676-0.676 1.772-0.676 2.448 0s0.676 1.772 0 2.448l-2.502 2.502 2.502 2.502z" fill="#000000"></path>
</svg>
