<?xml version="1.0" encoding="utf-8"?>

<!DOCTYPE svg PUBLIC "-//W3C//DTD SVG 1.1//EN" "http://www.w3.org/Graphics/SVG/1.1/DTD/svg11.dtd">
<svg version="1.1" xmlns="http://www.w3.org/2000/svg" xmlns:xlink="http://www.w3.org/1999/xlink" width="32" height="32" viewBox="0 0 32 32">
<g>
</g>
	<path d="M27 21c-5.297-0.78-5-2-5-2l-0.076-1.557c0 0 1.705-1.416 2.518-3.725 1.277-0.805 1.765-0.917 1.977-1.845 0 0 0.574-3.507-0.799-3.507 0 0-1.572 0.092-1.389-0.729 0.182-0.822 0.121-1.108 0.029-2.021s0.462-3.523-1.46-3.889c-1.312-0.243-0.894 0.127-1.534 0.035-0.64-0.091-1.402-1.747-2.592-1.747l-1.9 0.396c-1.189 0-0.148 0.365-0.789 0.456s0.844-0.091-1.078 0.274c-1.922 0.364-2.314 2.83-2.406 3.743s-0.115 1.198-0.054 2.568c0.183 0.821-0.743 0.821-0.743 0.821-1.152-0.073-1.349 3.506-1.349 3.506 0.015 0.077 0.024 0.147 0.034 0.218h-4.389v6h-6v8h6v6h8v-2h18c0 0 0-1.118 0-4.561 0-0.95 0.297-3.657-5-4.436zM18 24h-6v6h-4v-6h-6v-4h6v-6h4v6h6v4z" fill="#000000"></path>
</svg>
