<?xml version="1.0" encoding="utf-8"?>

<!DOCTYPE svg PUBLIC "-//W3C//DTD SVG 1.1//EN" "http://www.w3.org/Graphics/SVG/1.1/DTD/svg11.dtd">
<svg version="1.1" xmlns="http://www.w3.org/2000/svg" xmlns:xlink="http://www.w3.org/1999/xlink" width="32" height="32" viewBox="0 0 32 32">
<g>
</g>
	<path d="M31.323 26.723l-12.425-22.55c-1.6-2.903-4.216-2.903-5.815 0l-12.424 22.55c-1.599 2.902-0.186 5.277 3.139 5.277h24.384c3.327 0 4.74-2.375 3.141-5.277zM15.991 28.014c-1.104 0-2-0.896-2-2s0.896-2 2-2c1.105 0 2 0.896 2 2s-0.895 2-2 2zM17.991 20.014c0 1.104-0.896 2-2 2s-2-0.896-2-2v-7c0-1.104 0.896-2 2-2 1.105 0 2 0.896 2 2v7z" fill="#000000"></path>
</svg>
