<?xml version="1.0" encoding="utf-8"?>

<!DOCTYPE svg PUBLIC "-//W3C//DTD SVG 1.1//EN" "http://www.w3.org/Graphics/SVG/1.1/DTD/svg11.dtd">
<svg version="1.1" xmlns="http://www.w3.org/2000/svg" xmlns:xlink="http://www.w3.org/1999/xlink" width="32" height="32" viewBox="0 0 32 32">
<g>
</g>
	<path d="M12.882 15.997c-1.491-0.766-2.94-1.155-4.309-1.155-0.186 0-0.373 0.006-0.561 0.022-1.746 0.145-3.341 0.605-4.367 0.963-0.272 0.1-0.551 0.205-0.838 0.322l-2.807 9.731c1.928-0.713 3.634-1.061 5.196-1.061 2.526 0 4.36 0.944 5.875 1.916 0.718-2.435 2.439-8.315 2.953-10.073-0.373-0.228-0.752-0.455-1.141-0.666zM16.511 18.471l-2.826 9.817c0.838 0.48 3.659 2.002 5.819 2.002 1.744 0 3.695-0.447 5.964-1.369l2.699-9.437c-1.832 0.591-3.59 0.891-5.233 0.891-2.998 0-5.097-0.972-6.422-1.905zM9.151 11.525c2.41 0.025 4.192 0.944 5.669 1.891l2.899-9.917c-0.611-0.35-2.213-1.222-3.371-1.519-0.762-0.178-1.563-0.269-2.413-0.269-1.619 0.030-3.387 0.436-5.403 1.244l-2.764 9.706c2.025-0.764 3.77-1.136 5.378-1.136 0.001 0 0.004 0 0.004 0zM32 6.191c-1.838 0.713-3.631 1.077-5.345 1.077-2.865 0-4.978-0.994-6.347-1.949l-2.873 9.945c1.93 1.241 4.009 1.871 6.191 1.871 1.78 0 3.623-0.427 5.483-1.271l-0.006-0.069 0.117-0.028 2.779-9.576z" fill="#000000"></path>
</svg>
