<?xml version="1.0" encoding="utf-8"?>

<!DOCTYPE svg PUBLIC "-//W3C//DTD SVG 1.1//EN" "http://www.w3.org/Graphics/SVG/1.1/DTD/svg11.dtd">
<svg version="1.1" xmlns="http://www.w3.org/2000/svg" xmlns:xlink="http://www.w3.org/1999/xlink" width="32" height="32" viewBox="0 0 32 32">
<g>
</g>
	<path d="M10.293 25.013h3.52v5.333h-3.52zM21.767 1.76h-15.212c-0.986 0-1.808 0.776-1.808 1.761v24.967c0 0.986 0.934 1.858 1.919 1.858h1.921v-7.36h1.707v-1.707h1.813v-1.813h-1.813v-1.707h1.813v-1.6h-1.813v-1.813h1.813v-1.707h-1.813v-1.813h1.813v-1.707h-1.813v-2.027h1.813v-1.813h-1.813v-1.707h1.813v1.707h1.707v1.813h-1.707v2.027h1.707v1.707h-1.707v1.813h1.707v1.707h-1.707v1.813h1.707v1.6h-1.707v1.707h1.707v1.813h-1.707v1.707h3.307v1.935l-0 5.425h9.809c0.985 0 1.818-0.872 1.818-1.858v-21.401l-5.273-5.328zM25.222 9.12h-3.567c0 0-1.868-0.165-1.868-2.032v-3.567c0 0 1.046-0.78 1.826 0l3.588 3.691c-0-0 1.331 1.908 0.021 1.908z" fill="#000000"></path>
</svg>
