<?xml version="1.0" encoding="utf-8"?>
<!-- Generator: Adobe Illustrator 24.0.1, SVG Export Plug-In . SVG Version: 6.00 Build 0)  -->
<svg version="1.1" id="Layer_1" xmlns="http://www.w3.org/2000/svg" xmlns:xlink="http://www.w3.org/1999/xlink" x="0px" y="0px"
	 viewBox="0 0 294.4 190.2" style="enable-background:new 0 0 294.4 190.2;" xml:space="preserve">
<style type="text/css">
	.st0{fill-rule:evenodd;clip-rule:evenodd;fill:#FCDFBB;}
	.st1{fill-rule:evenodd;clip-rule:evenodd;fill:#243038;}
	.st2{fill-rule:evenodd;clip-rule:evenodd;fill:#75848F;}
	.st3{fill-rule:evenodd;clip-rule:evenodd;fill:#3F5563;}
	.st4{fill-rule:evenodd;clip-rule:evenodd;fill:#F4F5F6;}
	.st5{fill-rule:evenodd;clip-rule:evenodd;fill:#FFFFFF;}
	.st6{fill-rule:evenodd;clip-rule:evenodd;fill:#FFFFFF;filter:url(#Adobe_OpacityMaskFilter);}
	.st7{mask:url(#mask0_1_);}
	.st8{fill-rule:evenodd;clip-rule:evenodd;fill:#ED1C24;}
	.st9{fill-rule:evenodd;clip-rule:evenodd;fill:#96A0A8;}
</style>
<path class="st0" d="M289.6,76.3c0-12.9-11.7-16.8-11.7-16.8s11.7-3.2,11.7-16.2c0-12.9-11.7-16.6-11.7-16.6h-236v106.4h112.2v4.4
	c0,8.8,5.6,16.2,13.3,19.1l53.8,29.1c0,0,13.6,3.1,20.8-10.1c3.9-7.2,2.7-13.5,0.8-17.7L278,158c0,0,11.7-3.2,11.7-16.2
	c0-12.9-11.7-16.8-11.7-16.8s11.7-3.2,11.7-16.2c0-11.7-9.5-15.8-11.3-16.5C280.2,91.7,289.6,88,289.6,76.3z"/>
<path class="st1" d="M222,183.7c1.8,0.3,12.4,1.7,18.2-9.1c2.8-5.3,3.1-10.6,0.8-15.9l-1.3-3l38,0.1c1.6-0.5,9.9-3.8,9.9-14.1
	c0-11.3-10.1-14.7-10.2-14.8l-6.6-2.2l6.7-1.9c0.4-0.1,10.1-3,10.1-14.2c0-10.3-8.3-13.9-10-14.5l-5.5-2.1l5.6-1.9
	c1.7-0.6,9.9-3.9,9.9-14.1c0-11.3-10.1-14.7-10.2-14.8l-6.6-2.2l6.7-1.9c0.4-0.1,10.1-3,10.1-14.2c0-10.3-8.2-13.9-9.9-14.5H44V131
	h112.2v6.5c0,7.6,4.8,14.5,12,17.1l0.3,0.1L222,183.7z M224.7,188.1c-2.3,0-3.8-0.3-3.9-0.3l-0.5-0.2l-53.7-29
	c-8.7-3.3-14.6-11.7-14.6-21v-2.3H39.8V24.7l238.8,0.1c4.5,1.4,13.1,7.1,13.1,18.6c0,8.4-4.7,13.6-8.9,16.3
	c4.3,2.8,8.9,8.2,8.9,16.7c0,8.9-4.9,13.7-8.8,16.1c3.8,2.5,8.8,7.5,8.8,16.4c0,8.4-4.7,13.6-8.9,16.3c4.3,2.8,8.9,8.2,8.9,16.7
	c0,11.5-8.6,16.9-13.2,18.2l-0.3,0.1l-32.4-0.1c1.3,4.4,1.5,10.2-2,16.6C238.6,186.5,229.8,188.1,224.7,188.1z"/>
<path class="st2" d="M139.4,140.1H90.2c-2.3,0-4.2-1.9-4.2-4.2V25.4c0-2.3,1.9-4.2,4.2-4.2h49.2c2.3,0,4.2,1.9,4.2,4.2v110.6
	C143.6,138.3,141.7,140.1,139.4,140.1z"/>
<path class="st3" d="M90.2,23.3c-1.2,0-2.1,0.9-2.1,2.1v110.6c0,1.2,0.9,2.1,2.1,2.1h49.2c1.2,0,2.1-0.9,2.1-2.1V25.4
	c0-1.2-0.9-2.1-2.1-2.1H90.2z M139.4,142.2H90.2c-3.5,0-6.3-2.8-6.3-6.3V25.4c0-3.5,2.8-6.3,6.3-6.3h49.2c3.5,0,6.3,2.8,6.3,6.3
	v110.6C145.7,139.4,142.8,142.2,139.4,142.2z"/>
<path class="st4" d="M57.8,140.1H8.6c-2.3,0-4.2-1.9-4.2-4.2V9.4c0-2.3,1.9-4.2,4.2-4.2h49.1C60.1,5.2,62,7,62,9.4v126.6
	C62,138.3,60.1,140.1,57.8,140.1z"/>
<path class="st1" d="M8.6,7.3c-1.2,0-2.1,0.9-2.1,2.1v126.6c0,1.2,0.9,2.1,2.1,2.1h49.1c1.2,0,2.1-0.9,2.1-2.1V9.4
	c0-1.2-0.9-2.1-2.1-2.1H8.6z M57.8,142.2H8.6c-3.5,0-6.3-2.8-6.3-6.3V9.4c0-3.5,2.8-6.3,6.3-6.3h49.1c3.5,0,6.3,2.8,6.3,6.3v126.6
	C64.1,139.4,61.2,142.2,57.8,142.2z"/>
<path class="st2" d="M154.1,79.2c0,21.7-17.6,39.3-39.3,39.3c-21.7,0-39.3-17.6-39.3-39.3c0-21.7,17.6-39.3,39.3-39.3
	C136.5,39.9,154.1,57.5,154.1,79.2z"/>
<path class="st3" d="M114.8,42c-20.5,0-37.2,16.7-37.2,37.2c0,20.5,16.7,37.2,37.2,37.2c20.5,0,37.2-16.7,37.2-37.2
	C152,58.7,135.3,42,114.8,42z M114.8,120.6c-22.9,0-41.4-18.6-41.4-41.4c0-22.8,18.6-41.4,41.4-41.4c22.9,0,41.4,18.6,41.4,41.4
	C156.2,102.1,137.6,120.6,114.8,120.6z"/>
<path class="st5" d="M147.6,79.2c0,18.1-14.7,32.8-32.8,32.8C96.7,112,82,97.3,82,79.2s14.7-32.8,32.8-32.8
	C132.9,46.4,147.6,61.1,147.6,79.2z"/>
<path class="st3" d="M114.8,48.5c-16.9,0-30.7,13.8-30.7,30.7c0,16.9,13.8,30.7,30.7,30.7s30.7-13.8,30.7-30.7
	C145.5,62.3,131.7,48.5,114.8,48.5z M114.8,114.1c-19.2,0-34.9-15.6-34.9-34.9s15.7-34.9,34.9-34.9c19.2,0,34.9,15.6,34.9,34.9
	S134,114.1,114.8,114.1z"/>
<defs>
	<filter id="Adobe_OpacityMaskFilter" filterUnits="userSpaceOnUse" x="21.9" y="13" width="223.1" height="147">
		<feColorMatrix  type="matrix" values="1 0 0 0 0  0 1 0 0 0  0 0 1 0 0  0 0 0 1 0"/>
	</filter>
</defs>
<mask maskUnits="userSpaceOnUse" x="21.9" y="13" width="223.1" height="147" id="mask0_1_">
	<path class="st6" d="M2.3,188.1h289.4V3.1H2.3V188.1z"/>
</mask>
<g class="st7">
	<path class="st3" d="M111.6,55.4h6.3v-8.9h-6.3V55.4z"/>
	<path class="st3" d="M111.6,112h6.3V103h-6.3V112z"/>
	<path class="st3" d="M82,82.4h8.9v-6.3H82V82.4z"/>
	<path class="st3" d="M138.6,82.4h8.9v-6.3h-8.9V82.4z"/>
	<path class="st3" d="M114.8,82.4c-1.2,0-2.4-0.7-2.9-1.9l-10.2-23.7c-0.7-1.6,0-3.5,1.6-4.1c1.6-0.7,3.5,0.1,4.1,1.6L117.7,78
		c0.7,1.6,0,3.5-1.6,4.1C115.6,82.3,115.2,82.4,114.8,82.4z"/>
	<path class="st3" d="M127.9,93.5c-0.7,0-1.4-0.2-2-0.8l-13.1-11.2c-1.3-1.1-1.5-3.1-0.4-4.4c1.1-1.3,3.1-1.5,4.4-0.4L129.9,88
		c1.3,1.1,1.5,3.1,0.4,4.4C129.7,93.1,128.8,93.5,127.9,93.5z"/>
	<path class="st8" d="M126.4,103.6c-0.4,0-0.8-0.2-0.9-0.6l-11.7-23.3c-0.3-0.5-0.1-1.1,0.5-1.4c0.5-0.3,1.1-0.1,1.4,0.5l11.7,23.3
		c0.3,0.5,0.1,1.2-0.5,1.4C126.8,103.5,126.6,103.6,126.4,103.6z"/>
	<path class="st9" d="M120.6,79.2c0,3.2-2.6,5.8-5.8,5.8c-3.2,0-5.8-2.6-5.8-5.8s2.6-5.8,5.8-5.8C118,73.4,120.6,76,120.6,79.2z"/>
	<path class="st3" d="M114.8,75.5c-2.1,0-3.7,1.7-3.7,3.7s1.7,3.7,3.7,3.7s3.7-1.7,3.7-3.7S116.8,75.5,114.8,75.5z M114.8,87.1
		c-4.4,0-7.9-3.6-7.9-7.9c0-4.4,3.6-7.9,7.9-7.9s7.9,3.6,7.9,7.9C122.7,83.6,119.2,87.1,114.8,87.1z"/>
	<path class="st5" d="M41.9,24.1c0,5-4,9-9,9c-5,0-9-4-9-9c0-5,4-9,9-9C37.9,15.1,41.9,19.1,41.9,24.1z"/>
	<path class="st1" d="M33,17.2c-3.8,0-6.9,3.1-6.9,6.9c0,3.8,3.1,6.9,6.9,6.9s6.9-3.1,6.9-6.9C39.8,20.3,36.7,17.2,33,17.2z
		 M33,35.2c-6.1,0-11.1-5-11.1-11.1C21.9,18,26.8,13,33,13S44,18,44,24.1C44,30.2,39.1,35.2,33,35.2z"/>
	<path class="st1" d="M242.9,160h-19.6c-1.2,0-2.1-0.9-2.1-2.1c0-1.2,0.9-2.1,2.1-2.1h19.6c1.2,0,2.1,0.9,2.1,2.1
		C245,159,244.1,160,242.9,160z"/>
</g>
</svg>
