<svg width="139" height="109" viewBox="0 0 139 109" fill="none" xmlns="http://www.w3.org/2000/svg">
<path d="M58.8312 109C73.178 109 84.8084 106.273 84.8084 102.91C84.8084 99.5463 73.178 96.8196 58.8312 96.8196C44.4844 96.8196 32.854 99.5463 32.854 102.91C32.854 106.273 44.4844 109 58.8312 109Z" fill="black" fill-opacity="0.05"/>
<path fill-rule="evenodd" clip-rule="evenodd" d="M51.6994 71.5945C49.2067 72.9323 43.4729 75.6497 38.0471 75.6302C30.8521 75.6043 31.5209 68.1711 34.4368 65.8122C37.1563 63.6117 43.1035 65.2118 51.1976 69.8239C51.3495 70.4118 51.5176 71.0025 51.6994 71.5945Z" fill="#2D3B45"/>
<path d="M36.9647 74.0062C42.3905 74.0258 48.1243 71.3084 50.617 69.9705C50.5587 69.7806 50.5018 69.5907 50.4463 69.4011C50.6946 69.5391 50.9451 69.6801 51.1976 69.824C51.3494 70.4119 51.5176 71.0026 51.6994 71.5945C49.2067 72.9324 43.4729 75.6498 38.0471 75.6302C35.0164 75.6194 33.3809 74.2942 32.721 72.5875C33.6274 73.4421 35.0041 73.9991 36.9647 74.0062Z" fill="#28343D"/>
<path fill-rule="evenodd" clip-rule="evenodd" d="M51.6994 71.5945C49.2067 72.9323 43.4729 75.6497 38.0471 75.6302C30.8521 75.6043 31.5209 68.1711 34.4368 65.8122C37.1563 63.6117 43.1035 65.2118 51.1976 69.8239C51.3495 70.4118 51.5176 71.0025 51.6994 71.5945Z" stroke="#152633" stroke-width="1.46366"/>
<path fill-rule="evenodd" clip-rule="evenodd" d="M75.3338 71.953C75.669 72.4593 75.9953 72.9796 76.3134 73.5108C78.9754 72.553 84.8308 70.109 88.4468 66.0625C93.242 60.6967 87.2722 56.2201 83.5686 56.8092C80.1141 57.3584 77.3234 62.85 75.3338 71.953Z" fill="#2D3B45"/>
<path d="M75.3585 71.8406C78.0759 70.8519 83.8051 68.4215 87.3645 64.4384C89.2506 62.3279 89.4712 60.3549 88.8194 58.7737C90.4797 60.4942 91.0522 63.1471 88.4469 66.0625C84.8309 70.1089 78.9754 72.5529 76.3135 73.5107C75.9953 72.9795 75.669 72.4592 75.3339 71.953C75.3421 71.9154 75.3503 71.878 75.3585 71.8406Z" fill="#28343D"/>
<path fill-rule="evenodd" clip-rule="evenodd" d="M75.3338 71.953C75.669 72.4593 75.9953 72.9796 76.3134 73.5108C78.9754 72.553 84.8308 70.109 88.4468 66.0625C93.242 60.6967 87.2722 56.2201 83.5686 56.8092C80.1141 57.3584 77.3234 62.85 75.3338 71.953Z" stroke="#152633" stroke-width="1.46366"/>
<path fill-rule="evenodd" clip-rule="evenodd" d="M70.1962 103.181C80.9524 91.4061 78.8133 82.4387 78.6025 80.7522C79.4241 86.495 70.6389 91.989 62.0784 93.0302C62.2137 95.8723 62.4843 97.9024 62.8902 99.1204C63.499 100.947 65.7314 104.399 70.1962 103.181Z" fill="#2D3B45"/>
<path d="M77.629 84.8535C77.0533 88.8886 75.0423 94.5255 69.1139 101.015C65.9897 101.867 63.9586 100.434 62.8119 98.8698C62.8374 98.9568 62.8635 99.0404 62.8901 99.1204C63.499 100.947 65.7314 104.399 70.1962 103.181C80.3321 92.0852 79.0171 83.4824 78.6554 81.1158C78.6399 81.0146 78.6262 80.9248 78.6152 80.8466C78.6113 80.8152 78.607 80.7837 78.6025 80.7522C78.6062 80.7815 78.6104 80.813 78.6152 80.8466C78.7862 82.2168 78.4129 83.5715 77.629 84.8535Z" fill="#28343D"/>
<path fill-rule="evenodd" clip-rule="evenodd" d="M70.1962 103.181C80.9524 91.4061 78.8133 82.4387 78.6025 80.7522C79.4241 86.495 70.6389 91.989 62.0784 93.0302C62.2137 95.8723 62.4843 97.9024 62.8902 99.1204C63.499 100.947 65.7314 104.399 70.1962 103.181Z" stroke="#152633" stroke-width="1.46366"/>
<path fill-rule="evenodd" clip-rule="evenodd" d="M47.8325 82.4736C44.0305 86.9233 41.3827 89.5527 39.889 90.3617C37.6485 91.5753 39.4816 97.2385 44.37 97.8453C47.6288 98.2498 52.4493 96.4969 58.8312 92.5866L47.8325 82.4736Z" fill="#2D3B45"/>
<path d="M39.3965 94.2029C40.2618 94.9503 41.3857 95.511 42.7464 95.6799C45.9299 96.0751 50.6036 94.4114 56.7674 90.689L58.8312 92.5866C52.4493 96.4969 47.6288 98.2498 44.3699 97.8453C41.8623 97.534 40.1587 95.8922 39.3965 94.2029Z" fill="#28343D"/>
<path fill-rule="evenodd" clip-rule="evenodd" d="M47.8325 82.4736C44.0305 86.9233 41.3827 89.5527 39.889 90.3617C37.6485 91.5753 39.4816 97.2385 44.37 97.8453C47.6288 98.2498 52.4493 96.4969 58.8312 92.5866L47.8325 82.4736Z" stroke="#152633" stroke-width="1.46366"/>
<path fill-rule="evenodd" clip-rule="evenodd" d="M75.5329 69.8873C71.6837 71.1695 67.1729 71.6467 62.5076 71.6467C58.3493 71.6467 54.8091 70.7141 51.4132 69.752C50.0496 72.8062 48.3165 77.3814 47.9783 80.0882C46.9833 87.0538 53.0363 93.1588 63.7847 93.1588C74.5331 93.1588 80.1482 86.8343 78.9214 80.299C78.0759 75.7967 76.7129 72.3952 75.5329 69.8873Z" fill="white"/>
<path d="M49.0361 86.2017C51.6196 89.394 56.3378 91.5346 62.7024 91.5346C73.4507 91.5346 79.0658 85.2102 77.839 78.6749C77.1735 75.1311 76.1875 72.2693 75.2223 69.9885C75.3263 69.9553 75.4299 69.9215 75.5329 69.8872C76.7129 72.3951 78.0759 75.7966 78.9214 80.299C80.1482 86.8342 74.5331 93.1587 63.7847 93.1587C56.3925 93.1587 51.2212 90.271 49.0361 86.2017Z" fill="#EDEDED"/>
<path fill-rule="evenodd" clip-rule="evenodd" d="M75.5329 69.8873C71.6837 71.1695 67.1729 71.6467 62.5076 71.6467C58.3493 71.6467 54.8091 70.7141 51.4132 69.752C50.0496 72.8062 48.3165 77.3814 47.9783 80.0882C46.9833 87.0538 53.0363 93.1588 63.7847 93.1588C74.5331 93.1588 80.1482 86.8343 78.9214 80.299C78.0759 75.7967 76.7129 72.3952 75.5329 69.8873Z" stroke="#152633" stroke-width="1.46366"/>
<path d="M57.7556 88.2387C57.7593 88.2637 57.7637 88.2888 57.769 88.3139C57.7698 88.2897 57.7714 88.2654 57.7737 88.2412C57.7677 88.2404 57.7616 88.2395 57.7556 88.2387Z" fill="#EDEDED"/>
<path d="M58.8641 89.6292C58.9236 90.0336 59.175 90.4026 59.57 90.5953C60.067 90.8378 60.6441 90.7293 61.0204 90.3665C61.3967 90.7293 61.9737 90.8378 62.4707 90.5953C62.9637 90.3548 63.2331 89.8396 63.1847 89.3239C63.6993 89.2562 64.1421 88.8773 64.2657 88.3416C64.3898 87.8038 64.1555 87.2668 63.7192 86.9812C63.9897 86.5325 63.9662 85.9441 63.6175 85.5134C63.4066 85.2529 63.1146 85.0968 62.8073 85.052C62.8494 85.3429 62.7907 85.6433 62.6368 85.8985C63.0731 86.1841 63.3075 86.7211 63.1833 87.2589C63.0597 87.7946 62.6169 88.1735 62.1023 88.2412C62.1507 88.7569 61.8813 89.2721 61.3884 89.5126C60.8914 89.7551 60.3143 89.6465 59.938 89.2838C59.6541 89.5575 59.256 89.6864 58.8641 89.6292Z" fill="#EDEDED"/>
<path fill-rule="evenodd" clip-rule="evenodd" d="M58.7369 84.0198C58.9177 83.5318 59.3873 83.1841 59.938 83.1841C60.4887 83.1841 60.9582 83.5318 61.1391 84.0198C61.6298 83.8581 62.1907 84.0051 62.5351 84.4306C62.8838 84.8613 62.9073 85.4497 62.6368 85.8984C63.0731 86.184 63.3074 86.721 63.1833 87.2588C63.0597 87.7945 62.6169 88.1734 62.1023 88.2411C62.1507 88.7568 61.8813 89.272 61.3884 89.5125C60.8913 89.755 60.3143 89.6464 59.938 89.2836C59.5617 89.6464 58.9846 89.755 58.4876 89.5125C57.9947 89.272 57.7252 88.7568 57.7737 88.2411C57.2591 88.1734 56.8163 87.7945 56.6927 87.2588C56.5685 86.721 56.8028 86.184 57.2391 85.8984C56.9687 85.4497 56.9922 84.8613 57.3409 84.4306C57.6853 84.0051 58.2461 83.8581 58.7369 84.0198Z" fill="#2D3B45" stroke="#152633" stroke-width="1.46366"/>
<path d="M56.6732 87.1559C56.6769 87.1809 56.6813 87.206 56.6866 87.2311C56.6875 87.2069 56.689 87.1827 56.6913 87.1584C56.6853 87.1576 56.6792 87.1568 56.6732 87.1559Z" fill="#28343D"/>
<path d="M57.7817 88.5464C57.8412 88.9508 58.0926 89.3198 58.4876 89.5125C58.9846 89.755 59.5617 89.6465 59.938 89.2837C60.3143 89.6465 60.8914 89.755 61.3884 89.5125C61.8813 89.272 62.1507 88.7569 62.1023 88.2411C62.6169 88.1735 63.0597 87.7945 63.1833 87.2589C63.3074 86.721 63.0731 86.1841 62.6368 85.8985C62.9073 85.4498 62.8838 84.8614 62.5351 84.4306C62.3242 84.1701 62.0323 84.014 61.7249 83.9692C61.767 84.2601 61.7083 84.5605 61.5544 84.8158C61.9908 85.1014 62.2251 85.6383 62.1009 86.1762C61.9773 86.7118 61.5345 87.0908 61.0199 87.1584C61.0683 87.6742 60.7989 88.1893 60.306 88.4298C59.809 88.6723 59.2319 88.5638 58.8556 88.201C58.5717 88.4747 58.1736 88.6037 57.7817 88.5464Z" fill="#28343D"/>
<path fill-rule="evenodd" clip-rule="evenodd" d="M58.7369 84.0198C58.9177 83.5318 59.3873 83.1841 59.938 83.1841C60.4887 83.1841 60.9582 83.5318 61.1391 84.0198C61.6298 83.8581 62.1907 84.0051 62.5351 84.4306C62.8838 84.8613 62.9073 85.4497 62.6368 85.8984C63.0731 86.184 63.3074 86.721 63.1833 87.2588C63.0597 87.7945 62.6169 88.1734 62.1023 88.2411C62.1507 88.7568 61.8813 89.272 61.3884 89.5125C60.8913 89.755 60.3143 89.6464 59.938 89.2836C59.5617 89.6464 58.9846 89.755 58.4876 89.5125C57.9947 89.272 57.7252 88.7568 57.7737 88.2411C57.2591 88.1734 56.8163 87.7945 56.6927 87.2588C56.5685 86.721 56.8028 86.184 57.2391 85.8984C56.9687 85.4497 56.9922 84.8613 57.3409 84.4306C57.6853 84.0051 58.2461 83.8581 58.7369 84.0198Z" stroke="#152633" stroke-width="1.46366"/>
<path fill-rule="evenodd" clip-rule="evenodd" d="M41.4969 49.582C40.7502 49.5489 39.9142 49.4153 39.0157 49.1119C35.5604 47.9447 35.3953 44.9349 35.249 43.9777C35.1028 43.0204 35.0828 37.8532 39.1868 38.5822C41.8373 39.0529 43.8189 40.1291 45.6468 41.0172C43.7395 43.6113 42.3349 46.5378 41.4969 49.582Z" fill="#2D3B45" stroke="#152633" stroke-width="1.46366"/>
<path d="M37.9333 46.9462C38.8318 47.2496 39.6678 47.3832 40.4145 47.4164C41.1227 44.8436 42.2357 42.3549 43.7148 40.0798C44.1759 40.2939 44.6194 40.5123 45.0517 40.7252C45.2523 40.824 45.4505 40.9215 45.6468 41.0169C43.7395 43.6111 42.3349 46.5376 41.4969 49.5818C40.7502 49.5487 39.9142 49.4151 39.0157 49.1117C36.6375 48.3083 35.818 46.6322 35.4904 45.3531C36.0308 45.9899 36.8074 46.5659 37.9333 46.9462Z" fill="#28343D"/>
<path fill-rule="evenodd" clip-rule="evenodd" d="M41.4969 49.582C40.7502 49.5489 39.9142 49.4153 39.0157 49.1119C35.5604 47.9447 35.3953 44.9349 35.249 43.9777C35.1028 43.0204 35.0828 37.8532 39.1868 38.5822C41.8373 39.0529 43.8189 40.1291 45.6468 41.0172C43.7395 43.6113 42.3349 46.5378 41.4969 49.582Z" stroke="#152633" stroke-width="1.46366"/>
<path fill-rule="evenodd" clip-rule="evenodd" d="M40.0482 54.2651C40.0482 65.6671 49.8456 71.7613 63.3143 71.7613C76.7831 71.7613 87.7017 64.8808 87.7017 54.6583C87.7017 41.9555 76.7831 29.6919 63.3143 29.6919C49.8456 29.6919 40.0482 42.2734 40.0482 54.2651Z" fill="white"/>
<path d="M43.7185 64.6518C47.8848 68.2641 54.2236 70.1372 61.6907 70.1372C75.1595 70.1372 86.0781 63.2567 86.0781 53.0343C86.0781 46.8309 83.4742 40.7323 79.241 36.1155C84.4223 40.867 87.7017 47.6967 87.7017 54.6583C87.7017 64.8808 76.7831 71.7613 63.3143 71.7613C54.7987 71.7613 47.7507 69.3252 43.7185 64.6518Z" fill="#EDEDED"/>
<path fill-rule="evenodd" clip-rule="evenodd" d="M40.0482 54.2651C40.0482 65.6671 49.8456 71.7613 63.3143 71.7613C76.7831 71.7613 87.7017 64.8808 87.7017 54.6583C87.7017 41.9555 76.7831 29.6919 63.3143 29.6919C49.8456 29.6919 40.0482 42.2734 40.0482 54.2651Z" stroke="#152633" stroke-width="1.46366"/>
<path fill-rule="evenodd" clip-rule="evenodd" d="M81.2243 50.3981C82.1201 50.0264 83.0797 49.4925 84.0405 48.7238C87.735 45.7673 86.9961 40.8398 86.7498 39.608C86.5035 38.3761 85.0257 32.4632 80.346 35.1733C77.3237 36.9235 75.5823 39.0649 73.7479 40.9588C76.7921 43.5471 80.346 47.9625 81.2243 50.3981Z" fill="#2D3B45"/>
<path d="M83.4993 46.5584C82.5385 47.327 81.5789 47.8609 80.6831 48.2327C79.9363 46.1616 77.2546 42.6588 74.5968 40.0653C74.3127 40.3674 74.0314 40.6661 73.7479 40.9588C76.7921 43.5471 80.346 47.9625 81.2243 50.3981C82.1201 50.0263 83.0797 49.4925 84.0405 48.7238C87.735 45.7673 86.9961 40.8398 86.7498 39.608C86.6887 39.3025 86.5519 38.7091 86.3093 38.0308C86.5681 39.8208 86.7536 43.9542 83.4993 46.5584Z" fill="#28343D"/>
<path fill-rule="evenodd" clip-rule="evenodd" d="M81.0786 50.4919C81.9744 50.1201 82.934 49.5862 83.8948 48.8175C87.5893 45.8611 86.8504 40.9336 86.6041 39.7017C86.3578 38.4699 84.88 32.5569 80.2003 35.267C77.1779 37.0172 75.4366 39.1587 73.6021 41.0525C76.6463 43.6409 80.2003 48.0563 81.0786 50.4919Z" stroke="#152633" stroke-width="1.46366"/>
<path fill-rule="evenodd" clip-rule="evenodd" d="M90.2204 17.2406L89.5709 9.60752L115.656 1L90.2204 17.2406Z" fill="#EBEDEE" stroke="#152633" stroke-width="1.46366" stroke-linecap="round" stroke-linejoin="round"/>
<path fill-rule="evenodd" clip-rule="evenodd" d="M90.2203 17.2404L92.1686 12.2059L105.644 6.03442L101.748 10.5818L90.2203 17.2404Z" fill="#C7CDD1" stroke="#152633" stroke-width="1.46366" stroke-linecap="round" stroke-linejoin="round"/>
<path fill-rule="evenodd" clip-rule="evenodd" d="M92.331 12.206L115.656 1L99.3124 17.7278L92.331 12.206Z" fill="white" stroke="#152633" stroke-width="1.46366" stroke-linecap="round" stroke-linejoin="round"/>
<path fill-rule="evenodd" clip-rule="evenodd" d="M89.4086 9.60752L83.7261 5.22256L115.656 1L89.4086 9.60752Z" fill="white" stroke="#152633" stroke-width="1.46366" stroke-linecap="round" stroke-linejoin="round"/>
<path d="M91.2077 52.4644L90.3154 51.8515C91.1492 50.6369 91.9872 49.4544 92.8288 48.304L93.7023 48.9434C92.8671 50.085 92.0354 51.2587 91.2077 52.4644ZM97.6501 43.8173L96.8101 43.1346C97.7421 41.9871 98.6765 40.8797 99.6126 39.8129L100.426 40.5271C99.4991 41.5835 98.5735 42.6804 97.6501 43.8173ZM104.847 35.8032L104.083 35.0366C105.139 33.9833 106.193 32.9836 107.244 32.0384L107.968 32.8436C106.931 33.7762 105.89 34.7629 104.847 35.8032ZM112.945 28.7612L112.301 27.891C113.519 26.9895 114.724 26.1676 115.914 25.4267L116.486 26.3458C115.321 27.0712 114.14 27.8767 112.945 28.7612ZM122.162 23.3884L121.749 22.3877C123.204 21.7864 124.609 21.3302 125.952 21.0206L126.195 22.0757C124.912 22.3715 123.563 22.8093 122.162 23.3884ZM132.418 21.8805L132.661 20.8254C134.289 21.2005 135.658 21.9326 136.705 22.9893L135.936 23.7514C135.038 22.845 133.852 22.211 132.418 21.8805ZM137.918 29.3164L139 29.3251C138.989 30.6953 138.757 32.1779 138.304 33.7491L137.264 33.4489C137.691 31.969 137.908 30.5837 137.918 29.3164ZM134.724 39.3072L135.666 39.8398C134.983 41.0491 134.198 42.2838 133.312 43.5384L132.428 42.9137C133.293 41.6882 134.059 40.4842 134.724 39.3072ZM128.394 47.9655L129.203 48.6848C128.268 49.7362 127.271 50.7944 126.211 51.8574L125.445 51.0928C126.49 50.0443 127.473 49.0012 128.394 47.9655ZM120.708 55.5069L121.418 56.3238C120.35 57.2534 119.237 58.1837 118.079 59.1138L117.401 58.2695C118.548 57.3483 119.65 56.4271 120.708 55.5069ZM112.234 62.1999L112.868 63.0778C111.715 63.9102 110.528 64.7407 109.306 65.569L108.699 64.6727C109.912 63.8504 111.091 63.026 112.234 62.1999ZM103.246 68.2084L103.817 69.1283C102.606 69.8802 101.367 70.6292 100.101 71.3749L99.5516 70.4418C100.811 69.7004 102.043 68.9558 103.246 68.2084ZM93.9229 73.6315L94.4415 74.5819C93.1883 75.266 91.9115 75.9467 90.6111 76.6237L90.1114 75.6633C91.4055 74.9895 92.6761 74.3122 93.9229 73.6315ZM84.3316 78.5763L84.8079 79.5485C83.4991 80.1901 82.1986 80.8169 80.9067 81.4288L80.4435 80.4503C81.731 79.8404 83.0271 79.2157 84.3316 78.5763ZM74.5367 83.1713L74.9787 84.1596C73.6415 84.758 72.3147 85.3394 70.9987 85.904L70.5721 84.909C71.8829 84.3466 73.2046 83.7674 74.5367 83.1713ZM64.5923 87.3875L64.9939 88.3929C63.6336 88.9365 62.2865 89.4608 60.9532 89.9657L60.57 88.9531C61.8972 88.4506 63.2381 87.9287 64.5923 87.3875ZM54.4845 91.1553L54.8371 92.179C53.4467 92.6581 52.0739 93.1142 50.7193 93.5474L50.3897 92.5161C51.7366 92.0854 53.1018 91.6318 54.4845 91.1553ZM44.1839 94.3747L44.4741 95.4177C43.0489 95.8145 41.648 96.183 40.2724 96.5231L40.0127 95.4721C41.378 95.1344 42.7688 94.7686 44.1839 94.3747ZM33.6897 96.8701L33.895 97.9331C32.429 98.2164 30.9994 98.4629 29.6078 98.6724L29.4467 97.6018C30.8233 97.3945 32.2382 97.1506 33.6897 96.8701ZM23.037 98.3229L23.1132 99.4029C21.5952 99.5101 20.1389 99.5638 18.7477 99.5642L18.7473 98.4815C20.1127 98.4811 21.5437 98.4284 23.037 98.3229ZM12.3497 98.0296L12.1827 99.0993C10.6115 98.8539 9.17537 98.5123 7.88195 98.077L8.22709 97.0509C9.46016 97.4658 10.8369 97.7933 12.3497 98.0296ZM2.93708 93.8976L2.14543 94.636C1.05602 93.4672 0.335132 92.1105 0 90.5944L1.05686 90.3606C1.34987 91.6862 1.97842 92.8691 2.93708 93.8976ZM1.71962 84.2506L0.705025 83.8735C1.17944 82.5964 1.83564 81.2691 2.67097 79.8988L3.59509 80.4625C2.79451 81.7758 2.16888 83.0413 1.71962 84.2506ZM7.43424 75.3071L6.61825 74.5958C7.52918 73.5502 8.5282 72.4889 9.61383 71.4142L10.3752 72.1838C9.30809 73.2401 8.32729 74.2821 7.43424 75.3071ZM15.1719 67.8277L14.4757 66.9987C15.5511 66.095 16.682 65.1854 17.8675 64.2709L18.5285 65.1283C17.3548 66.0337 16.2356 66.9339 15.1719 67.8277ZM23.7671 61.3047L23.1509 60.4147C24.3137 59.609 25.5162 58.8014 26.7579 57.9923L27.3487 58.8996C26.1155 59.7031 24.9215 60.505 23.7671 61.3047ZM32.863 55.4536L32.306 54.5252C33.5243 53.7939 34.7732 53.0624 36.0523 52.3312L36.5894 53.2712C35.3169 53.9986 34.0746 54.7262 32.863 55.4536Z" fill="#008EE2"/>
<path d="M74.0179 28.5155L73.4102 27.6196L76.9927 25.1878L77.6005 26.0837L74.0179 28.5155ZM82.9744 22.4361L82.3666 21.5402L85.9492 19.1084L86.557 20.0043L82.9744 22.4361Z" fill="#008EE2"/>
</svg>
